P2
100 100
255
70 146 139 139 114 145 31 135 209 96 172 136 141 173 179 118 162 114 142 152 97 126 111 165 126 90 192 101 200 142 161 184 150 131 149 96 88 118 111 109 190 165 102 162 133 172 153 155 185 92 129 128 147 125 154 108 143 197 137 125 212 188 139 163 163 158 167 182 169 81 115 152 86 170 129 186 114 175 104 161 106 135 133 125 137 155 202 227 157 135 137 83 162 69 93 79 150 133 96 131 
207 174 159 174 155 121 194 205 115 167 130 140 92 120 145 156 176 111 150 156 125 192 148 180 153 63 101 61 137 131 195 150 162 186 165 149 103 122 84 150 174 96 164 120 184 136 184 168 133 145 76 104 53 48 150 210 72 147 164 176 127 135 131 170 76 108 125 99 192 150 149 141 147 191 71 98 190 128 226 79 132 117 100 172 98 169 59 100 156 148 108 216 121 94 117 164 178 133 155 98 
80 118 52 123 175 159 141 205 176 158 163 120 170 141 105 176 218 168 96 132 65 164 186 116 62 200 161 176 148 150 214 143 148 134 126 164 123 93 99 81 144 106 149 71 99 146 74 208 111 46 168 126 64 128 128 26 51 130 165 194 147 139 108 148 71 138 209 188 95 194 83 161 100 140 178 199 97 140 176 177 145 113 120 125 122 170 86 132 121 147 191 171 136 182 149 116 112 156 166 204 
214 135 174 170 84 212 146 190 116 219 174 89 145 162 151 128 134 154 79 61 84 122 89 138 60 160 112 151 170 212 130 63 118 207 215 141 93 236 199 128 126 162 167 119 174 203 92 141 151 209 197 155 184 107 137 161 155 187 113 176 174 188 162 179 138 126 139 186 137 75 172 186 108 127 165 174 166 200 227 127 132 196 107 168 197 103 125 138 135 111 202 100 148 124 136 61 151 121 76 129 
163 166 186 210 189 95 60 200 142 114 181 54 104 200 98 139 195 103 82 140 164 149 125 154 130 162 114 192 135 182 139 93 123 157 172 75 48 149 197 58 85 212 102 161 175 166 205 167 44 126 185 114 111 130 158 196 50 146 113 69 110 170 161 83 153 185 98 190 59 126 169 110 197 135 140 146 64 127 188 169 198 130 234 203 79 77 114 163 113 153 183 131 41 91 129 185 171 67 88 129 
186 55 72 188 127 213 137 129 194 77 92 145 119 151 186 114 160 194 85 143 102 185 198 123 132 175 86 131 79 197 181 140 164 36 171 145 144 175 134 96 159 42 112 143 45 205 194 169 149 119 167 151 115 138 74 60 150 176 129 122 131 152 101 163 115 110 186 37 138 118 140 164 202 145 189 214 111 152 178 174 80 17 137 173 75 126 63 135 191 177 112 130 190 189 93 54 169 160 153 79 
134 126 172 160 104 145 217 128 206 158 107 115 220 72 123 191 136 141 48 148 155 172 108 190 135 187 142 181 168 168 172 86 126 162 151 149 115 78 203 121 144 146 162 138 123 156 98 47 173 171 117 131 131 103 167 202 176 154 165 142 106 136 193 112 115 126 117 142 152 165 60 152 128 127 115 161 135 153 189 105 118 179 140 71 195 171 157 144 139 151 108 118 174 147 164 159 194 145 140 109 
199 94 160 142 100 213 113 171 154 113 170 121 54 207 49 163 100 208 134 172 172 188 151 132 63 80 140 128 169 62 159 90 105 132 97 103 86 95 150 180 124 65 67 124 173 165 147 192 153 147 195 158 97 52 114 102 148 174 140 158 149 103 174 144 127 159 168 115 143 107 159 92 162 163 109 194 84 145 139 165 160 96 162 154 63 193 193 181 150 174 154 118 207 82 169 103 103 181 151 146 
113 115 137 193 160 112 160 192 115 154 177 118 151 128 137 140 135 176 152 170 132 153 131 113 148 181 100 109 171 121 152 38 72 188 91 163 192 113 65 206 141 102 66 60 139 170 127 187 94 132 178 188 180 129 95 227 170 159 102 148 181 154 159 136 70 149 176 161 202 81 187 179 147 84 170 146 231 183 95 211 187 195 106 111 184 139 136 97 161 181 165 132 103 104 190 119 197 93 156 148 
166 149 169 150 172 89 45 72 159 123 122 118 173 102 150 214 152 67 131 144 167 168 148 150 58 173 211 148 130 179 151 144 136 134 167 161 188 156 146 115 173 76 190 112 163 89 107 130 125 114 32 167 123 148 113 131 95 114 125 142 133 41 234 67 172 73 112 145 124 156 180 177 75 140 113 164 89 173 143 209 122 126 171 61 72 166 112 112 64 130 82 130 179 192 173 188 115 121 62 174 
129 138 159 131 74 31 97 188 165 187 149 200 165 149 133 145 192 119 91 165 170 84 142 125 141 144 140 110 102 119 159 76 143 62 73 126 108 192 166 73 179 191 151 150 118 172 212 145 96 132 138 90 209 144 136 96 104 102 202 177 158 81 106 176 115 144 113 158 38 126 79 189 119 125 142 82 146 162 100 158 172 135 121 163 224 214 183 97 187 126 166 154 116 186 119 131 118 117 167 184 
185 184 142 152 202 190 118 201 179 64 143 57 158 128 213 64 111 148 205 228 173 71 152 199 184 185 168 179 96 136 143 165 181 196 161 44 132 130 137 144 188 155 195 140 126 215 181 161 102 156 211 170 112 139 148 98 125 171 157 189 172 158 147 164 154 52 138 106 110 169 148 123 211 151 168 120 122 140 100 238 159 160 158 177 49 175 120 157 133 141 149 158 150 141 122 131 125 136 158 68 
141 201 150 176 177 175 181 148 97 185 142 94 145 104 56 143 106 150 162 64 176 137 175 166 168 48 145 81 103 107 106 131 114 126 181 144 131 146 181 45 99 149 178 176 182 109 165 145 162 166 164 157 129 156 202 184 171 188 141 166 58 124 125 154 125 163 35 33 99 203 141 138 143 157 166 172 171 148 141 151 212 104 82 64 160 121 121 139 165 127 111 185 157 202 49 190 219 153 170 103 
183 119 175 9 121 87 100 149 129 77 143 128 158 101 145 167 167 139 181 58 156 174 189 195 85 152 188 57 199 42 101 189 77 69 189 172 168 99 150 106 104 143 88 169 159 117 164 145 212 158 203 160 115 153 109 131 182 132 96 108 137 193 149 159 148 131 215 121 142 155 128 191 77 157 123 165 185 136 193 155 131 146 68 219 198 134 64 146 122 94 89 138 185 138 164 166 141 172 87 170 
202 198 151 31 116 228 143 157 142 163 159 102 115 183 139 197 143 123 65 128 199 163 190 183 171 159 171 182 94 125 102 146 94 55 125 173 164 144 54 232 113 106 139 147 120 162 164 129 159 196 92 164 169 82 142 183 125 198 33 123 156 106 161 139 118 158 185 187 119 166 130 72 91 158 53 174 170 145 162 118 173 188 177 129 39 155 138 128 43 173 176 240 174 193 136 193 213 185 108 160 
67 172 101 138 131 190 168 171 132 165 106 126 142 186 166 147 141 113 121 218 184 196 201 156 148 96 190 114 166 101 164 77 152 164 164 139 167 153 149 100 123 142 181 185 152 149 164 187 198 132 99 130 114 92 171 159 177 191 207 208 154 151 147 167 196 141 124 137 153 141 133 110 203 101 215 200 171 206 142 70 108 133 66 157 158 72 193 193 104 164 156 152 84 85 124 162 151 167 129 177 
110 93 188 113 102 163 148 66 204 152 188 145 144 133 205 149 105 185 147 96 208 124 170 152 149 164 132 83 113 185 73 209 128 46 151 141 143 91 198 186 186 194 164 90 156 172 159 164 119 50 137 151 150 153 135 111 214 132 139 135 134 138 107 117 118 66 178 133 66 194 105 117 184 85 88 77 125 117 102 144 92 100 189 142 177 123 164 128 163 114 107 170 82 161 209 161 116 139 204 50 
136 165 144 207 179 220 122 154 83 178 219 64 132 202 192 130 164 136 93 140 176 94 125 147 138 150 118 59 168 108 104 141 129 134 206 215 122 113 109 107 153 137 169 141 157 223 152 146 229 162 70 132 130 195 157 155 159 91 69 58 177 157 78 129 75 179 148 136 124 170 140 210 124 129 107 135 114 178 155 118 118 135 92 202 141 146 149 123 184 166 75 110 142 97 39 137 146 141 87 129 
138 141 166 107 213 161 126 143 165 124 146 115 124 128 95 101 143 94 108 193 117 74 93 152 92 148 148 135 61 160 183 169 126 114 105 132 134 95 47 120 129 92 118 101 169 131 131 125 220 165 148 115 97 199 47 133 197 196 140 139 179 96 132 88 131 100 162 180 94 145 136 124 135 122 169 155 185 234 69 143 175 147 142 180 155 105 112 29 165 121 163 178 122 62 157 115 208 172 158 146 
122 69 115 64 191 90 151 141 140 166 135 167 183 102 201 71 166 154 171 135 134 100 125 153 183 64 145 153 179 131 113 71 149 184 182 174 174 60 217 137 193 156 85 91 140 207 114 145 84 171 155 167 178 151 159 96 153 63 138 133 128 110 81 127 165 231 147 98 186 79 154 121 125 42 165 80 166 153 162 182 143 160 182 147 111 174 130 86 96 96 174 172 74 52 159 194 165 159 150 153 
145 96 155 202 158 111 136 200 180 133 197 158 194 129 96 152 155 116 180 146 83 158 132 52 129 79 107 100 109 171 81 96 170 128 92 144 178 187 157 148 157 138 167 85 130 102 193 179 154 195 72 34 163 109 180 195 149 197 206 42 54 90 103 154 123 155 145 151 181 172 186 131 200 149 191 179 179 135 57 166 123 115 129 137 134 108 80 55 160 103 105 177 205 180 100 158 100 118 183 113 
225 201 196 114 173 131 175 67 205 172 137 147 204 169 142 121 155 58 135 155 112 160 1 51 116 141 141 142 109 166 121 198 185 150 139 173 165 146 172 136 156 157 102 56 76 30 129 156 81 134 118 170 88 51 147 122 148 126 105 164 185 138 179 164 172 88 157 90 141 87 115 208 162 152 184 146 153 197 98 180 158 103 191 153 201 124 160 139 199 207 164 173 102 142 140 131 130 190 138 156 
142 20 128 112 147 159 186 86 204 185 146 156 114 181 191 97 152 151 193 96 98 85 128 141 108 182 165 141 93 81 60 157 99 58 176 147 128 177 160 206 131 153 151 198 78 66 189 87 176 151 151 125 142 184 150 157 72 183 111 108 172 107 137 192 157 112 130 141 30 175 187 177 143 164 200 107 168 143 180 139 158 109 184 209 162 138 136 83 128 92 158 169 175 178 177 144 172 137 180 165 
54 171 37 160 210 149 185 107 182 87 183 150 115 141 130 130 127 150 155 150 98 167 127 125 117 180 219 141 148 165 138 189 117 149 206 183 131 130 213 210 144 110 192 171 114 153 72 102 129 192 144 154 158 170 115 182 144 91 192 157 163 113 130 178 34 124 134 150 97 144 191 124 110 76 165 95 166 127 122 128 172 144 126 192 178 130 128 197 144 194 90 46 99 44 170 212 155 103 155 147 
150 102 109 111 175 70 124 181 189 79 119 177 176 112 104 110 209 209 138 146 131 85 180 170 187 140 80 127 147 195 122 150 148 86 138 102 181 90 105 123 86 133 125 147 131 167 54 129 153 123 142 117 175 163 128 199 112 74 166 71 98 114 38 123 120 120 129 109 91 169 107 112 89 58 189 89 159 95 88 88 142 211 191 164 207 123 133 138 103 152 103 154 159 182 119 160 164 124 61 178 
196 94 150 184 56 174 201 130 125 161 130 207 158 180 122 140 130 102 157 106 206 191 136 72 193 137 148 102 134 187 149 103 151 94 78 153 69 125 184 146 77 185 194 43 133 140 103 155 132 95 190 131 138 161 106 128 115 221 101 16 131 152 101 77 217 91 197 55 152 206 181 75 156 142 118 173 154 118 104 116 154 154 174 57 115 212 99 112 142 205 155 70 161 117 199 227 132 172 120 169 
171 157 133 157 175 109 164 182 175 201 108 101 184 146 199 165 145 155 180 159 93 171 151 168 175 159 139 188 128 148 218 189 102 205 161 164 213 27 173 52 141 186 142 136 144 151 116 145 74 192 177 161 191 133 172 104 158 97 146 71 116 156 120 228 89 105 186 91 114 138 106 116 38 193 185 156 126 130 217 188 134 115 127 114 168 193 131 45 146 23 187 169 164 159 102 158 190 175 126 213 
46 160 236 175 128 99 164 182 101 164 177 147 199 194 167 150 107 130 138 192 115 201 169 67 165 160 136 135 190 179 62 179 133 117 115 184 143 204 118 169 203 171 167 144 149 126 100 164 165 155 159 170 142 180 73 165 55 122 66 145 127 82 129 211 174 184 166 235 146 184 158 170 151 90 166 121 160 136 75 186 169 167 119 118 165 163 101 157 81 190 141 135 165 201 128 143 114 163 149 151 
110 190 149 77 170 120 149 147 115 88 144 28 148 77 170 125 137 183 201 83 89 179 158 154 162 122 152 178 98 202 117 151 137 56 163 113 188 147 225 128 158 153 61 147 86 221 83 117 102 98 192 165 115 129 163 208 59 158 159 95 131 164 157 48 144 88 138 122 159 170 135 99 144 112 89 219 160 219 86 167 115 212 172 120 153 113 86 203 158 171 244 114 191 150 132 187 128 138 174 108 
124 140 47 118 193 123 106 157 143 199 177 113 114 202 174 179 129 136 199 65 202 190 133 133 160 163 165 205 93 90 88 193 110 160 111 123 122 140 155 145 97 148 74 110 129 87 113 159 97 52 42 177 121 92 75 68 136 156 159 142 158 99 133 114 142 201 111 64 114 163 185 31 31 88 138 177 131 195 126 158 111 162 185 103 57 144 31 180 193 121 152 187 151 191 217 171 115 110 106 177 
106 174 150 140 210 155 177 104 150 128 101 114 73 174 155 179 154 196 141 140 142 154 151 92 132 175 142 174 109 151 103 175 51 155 128 175 172 91 181 187 156 36 87 183 122 146 171 183 32 129 145 150 141 107 146 189 134 124 134 120 154 167 139 90 124 169 150 69 132 115 143 111 208 153 75 47 164 77 46 75 108 165 170 129 158 151 157 236 129 167 129 187 66 173 184 123 184 122 116 139 
136 187 135 110 131 193 83 196 156 132 167 107 147 127 154 186 164 179 100 190 171 150 131 61 162 128 170 71 116 123 150 199 136 143 157 136 112 131 146 46 169 113 77 194 112 100 182 99 173 210 152 201 135 146 136 120 118 121 179 175 186 102 71 94 173 76 159 176 167 134 130 76 53 86 162 176 126 188 138 153 148 206 199 152 153 146 141 147 122 141 124 181 142 141 190 70 122 151 103 164 
186 109 82 145 107 131 113 130 199 164 79 153 97 135 97 110 191 109 130 166 176 159 151 195 230 193 105 98 150 159 172 207 78 93 111 175 115 144 191 171 129 120 166 135 187 105 76 167 104 149 166 201 69 73 148 80 149 112 133 202 167 151 165 175 136 128 167 191 99 156 128 139 183 164 140 190 207 222 145 159 95 211 184 133 63 146 178 149 117 167 194 135 99 88 121 144 138 159 174 91 
115 169 143 122 142 200 158 148 107 106 160 166 148 102 147 156 108 121 160 103 169 128 129 96 130 161 110 171 141 186 159 164 181 133 65 191 171 155 126 105 177 191 193 152 77 152 198 128 169 158 193 195 191 151 174 193 153 164 182 165 119 104 88 74 156 159 163 184 83 108 179 155 162 162 132 140 117 59 135 102 114 171 145 186 196 148 171 125 124 133 71 61 86 144 150 166 103 109 203 82 
147 149 105 145 51 121 185 207 55 72 193 141 132 133 96 44 147 171 164 186 118 169 47 180 95 198 91 210 97 75 105 63 184 171 130 163 206 89 71 184 154 126 102 193 77 192 111 179 125 66 91 144 154 133 72 208 176 162 141 185 105 147 71 76 172 63 126 140 145 94 145 106 111 163 52 77 194 159 147 122 137 115 196 127 149 142 79 163 199 70 130 148 146 131 148 134 17 112 73 89 
105 110 77 162 120 143 164 33 137 127 219 159 188 182 201 82 121 170 143 184 199 178 140 177 110 156 131 85 117 94 132 95 75 113 145 112 112 167 142 220 149 150 60 112 138 154 173 165 150 143 123 173 205 160 204 221 196 183 151 102 201 133 144 201 154 154 164 157 133 227 75 174 172 53 198 168 129 168 221 155 116 51 196 136 160 132 120 173 193 156 140 169 70 202 138 201 159 174 155 90 
205 126 183 149 87 188 200 146 206 169 185 124 164 136 80 192 149 192 224 165 225 107 175 215 225 205 149 145 165 171 179 219 92 162 160 164 153 151 190 157 185 202 134 151 115 143 187 123 152 40 103 159 105 179 150 141 145 159 144 129 59 146 79 176 150 114 77 43 106 115 108 177 139 54 71 175 161 122 139 125 84 140 163 215 133 218 146 90 151 149 108 65 130 192 92 189 176 157 114 202 
172 176 199 123 140 165 203 183 99 72 134 107 160 142 93 113 171 178 139 189 134 169 68 92 66 144 151 144 42 121 113 224 141 142 187 91 141 120 113 104 53 164 193 211 149 130 196 133 27 4 179 70 164 182 190 106 145 205 144 161 140 167 170 157 127 147 200 153 151 110 146 168 174 106 114 125 97 95 200 178 83 160 74 144 193 153 197 140 143 180 108 146 162 154 156 160 120 128 134 156 
182 158 142 136 150 98 103 174 72 118 173 147 128 63 121 88 156 121 159 151 107 187 181 196 81 134 137 166 144 201 221 176 148 118 146 164 162 183 150 52 117 181 102 152 192 107 197 93 102 187 98 198 145 128 201 135 157 126 205 80 159 175 121 167 82 149 136 146 43 145 198 151 124 159 203 205 165 212 114 131 127 141 85 227 188 144 175 118 155 87 220 91 137 33 131 71 154 135 84 168 
114 151 133 116 181 107 111 143 51 177 153 134 107 169 222 114 169 108 101 179 220 131 91 182 129 165 95 156 171 151 165 99 41 159 160 132 153 156 215 176 110 162 42 141 104 122 89 75 190 112 128 128 154 90 206 217 202 79 187 180 155 95 171 158 95 74 70 115 225 173 194 192 156 131 180 121 160 138 140 95 164 122 136 123 80 125 121 53 131 187 184 119 131 131 187 123 131 198 138 163 
184 129 73 45 224 109 131 43 211 189 206 23 155 34 150 181 138 142 125 78 66 145 179 85 137 157 135 129 83 186 146 169 206 170 113 136 100 98 126 131 69 117 81 132 210 182 61 147 92 132 180 77 150 45 175 91 177 165 166 87 190 134 94 168 82 233 100 128 170 133 134 179 183 144 120 90 193 121 176 100 36 187 136 174 124 136 130 127 146 189 133 79 96 103 143 147 174 132 95 176 
153 179 106 160 131 150 181 170 165 127 91 188 103 167 64 40 213 145 155 162 109 123 141 76 169 176 149 128 172 85 20 139 101 195 153 166 134 162 89 108 169 164 144 175 92 155 149 170 187 139 100 189 107 166 160 176 199 177 136 158 162 42 95 132 98 182 160 172 118 156 77 176 157 166 109 185 170 144 176 176 81 197 157 141 141 179 84 144 124 183 192 185 110 66 132 129 92 104 204 142 
113 136 190 170 153 116 158 103 178 157 100 176 141 112 190 78 92 135 91 37 143 92 63 179 164 129 197 101 182 53 210 122 154 198 42 130 191 96 136 193 188 50 167 183 121 188 176 99 108 172 114 133 207 103 185 151 172 140 136 75 218 210 120 143 122 44 133 198 96 163 143 116 128 156 103 100 100 171 167 109 164 133 154 182 118 121 145 93 167 122 112 134 123 208 182 176 92 166 157 105 
153 102 156 104 148 131 120 121 153 143 145 126 185 108 183 146 115 150 180 157 111 133 174 164 71 203 89 91 152 155 138 148 105 139 81 57 177 101 162 154 121 189 86 131 160 115 140 112 204 146 196 166 130 97 127 117 144 190 121 69 112 115 127 179 185 54 133 103 117 147 173 97 190 138 174 173 173 151 159 209 112 173 156 177 116 75 132 166 172 126 118 134 165 172 122 189 18 131 140 179 
160 213 180 189 159 147 128 106 160 147 133 104 155 156 143 221 135 140 123 149 75 107 143 173 144 107 126 157 169 192 197 151 117 173 129 109 156 163 171 163 114 111 131 90 138 158 129 174 93 173 152 154 145 232 135 89 145 93 187 142 131 170 200 119 175 157 130 184 228 99 107 47 146 151 144 123 137 93 164 108 181 138 145 209 114 119 139 158 160 96 191 126 168 173 237 175 117 182 80 136 
67 235 140 128 74 185 139 164 119 147 101 119 210 157 99 91 200 151 117 202 91 211 190 143 127 144 146 117 180 180 144 142 89 60 96 187 135 139 102 72 176 144 135 139 118 70 166 88 153 150 90 151 86 144 168 116 179 125 155 197 136 121 163 159 143 149 137 195 185 185 148 188 157 201 176 135 130 159 147 150 122 147 91 171 127 159 136 135 43 89 141 163 151 164 47 172 193 178 181 184 
107 157 172 179 111 38 80 121 111 144 108 163 53 136 142 218 185 115 110 133 117 61 199 138 110 122 162 167 120 139 147 166 120 130 112 168 138 25 155 152 185 114 154 248 143 213 58 130 171 133 152 142 154 68 129 131 132 87 198 132 180 143 92 28 179 130 191 154 119 145 112 55 173 216 105 199 155 91 118 233 221 152 137 163 156 134 191 76 116 170 157 201 63 176 145 202 151 152 137 100 
101 147 131 144 200 122 133 171 122 93 146 197 125 155 173 128 117 139 170 142 136 100 180 95 50 185 176 176 135 149 129 152 172 144 142 143 207 84 157 125 197 194 199 103 85 155 117 186 185 199 130 63 179 157 196 147 190 121 196 165 169 174 117 130 175 87 137 153 170 129 172 191 120 110 158 171 168 206 155 151 199 182 127 151 137 154 164 207 170 133 194 112 46 187 199 183 127 157 114 147 
222 158 78 130 170 86 135 207 128 130 191 125 169 89 67 113 74 142 44 65 191 94 109 178 68 98 130 174 95 205 159 85 181 165 181 203 110 176 100 131 211 128 153 137 108 87 91 159 121 156 98 90 25 168 140 160 158 164 79 161 150 110 133 132 85 178 179 163 169 142 110 191 65 182 140 163 146 214 42 76 178 200 119 181 112 152 170 109 51 161 110 149 219 200 183 172 150 95 142 184 
148 124 117 122 136 143 141 167 45 188 78 129 150 68 151 133 161 123 128 98 102 121 170 146 166 118 190 145 187 136 74 237 58 165 132 201 154 117 148 215 177 148 160 193 74 126 167 84 38 173 169 122 86 142 184 148 141 88 67 124 130 183 163 98 113 163 180 112 147 171 152 64 126 131 142 130 150 158 206 157 180 100 40 137 118 179 111 170 148 91 139 172 174 161 152 176 112 91 137 152 
175 105 125 75 200 169 170 80 180 104 117 153 192 203 158 134 107 57 165 113 152 186 69 116 171 72 86 107 93 134 201 87 70 164 143 181 85 81 148 139 144 176 100 175 152 131 98 163 165 180 191 156 171 131 145 146 179 176 194 78 137 103 146 190 182 116 107 61 56 170 97 151 143 178 125 145 172 149 85 147 162 164 198 163 168 110 103 142 125 186 147 127 207 134 109 141 185 129 120 173 
163 195 189 112 150 157 155 174 185 137 124 39 72 121 146 153 152 139 232 104 125 105 111 174 120 129 211 126 107 123 45 148 99 174 77 125 57 191 200 132 106 156 166 214 137 155 220 192 157 100 185 175 134 137 68 189 91 123 119 177 99 147 130 113 166 145 154 80 156 183 170 120 198 130 93 156 143 179 160 207 156 180 226 167 146 116 165 126 126 87 102 42 162 199 138 195 97 173 136 175 
208 137 167 123 100 143 84 189 118 90 178 161 196 111 146 123 93 71 185 125 145 157 157 154 114 152 125 125 73 200 130 81 171 197 127 131 168 112 169 137 168 69 109 140 118 143 107 137 161 145 178 53 116 53 137 156 182 139 129 226 115 86 130 138 137 91 146 168 202 135 194 138 171 131 74 208 128 88 119 95 190 140 223 146 146 91 133 108 106 84 100 160 147 146 143 148 94 72 170 160 
138 106 177 110 206 78 168 181 126 112 169 157 171 69 69 191 151 119 142 161 175 146 163 185 147 141 139 152 158 93 175 157 148 152 142 129 125 136 57 194 181 67 209 142 164 85 166 182 142 129 151 156 137 181 125 131 143 99 72 181 163 184 160 194 105 190 160 112 47 187 87 171 169 60 94 192 202 136 162 157 150 185 152 115 124 156 85 176 150 215 188 150 139 197 47 123 115 92 153 207 
158 131 169 103 188 113 125 112 163 133 223 149 59 169 129 187 127 147 108 189 153 176 129 153 73 102 58 168 84 147 147 130 128 157 125 115 128 63 97 163 129 112 137 194 107 103 187 125 175 141 109 67 158 119 138 161 146 156 149 200 93 159 96 184 37 167 197 93 201 168 164 154 155 215 121 143 157 163 176 166 90 84 191 142 117 115 92 127 175 134 113 199 59 117 147 66 125 141 114 137 
99 180 109 67 144 118 114 178 182 66 183 117 151 143 157 116 213 185 142 104 116 173 114 143 67 110 44 139 141 157 164 174 145 145 195 164 170 80 148 143 125 183 161 126 73 122 191 154 153 192 87 230 182 143 152 86 148 146 134 158 136 149 73 154 166 121 143 156 158 121 217 207 129 65 106 107 189 102 105 229 158 73 184 96 151 182 169 106 141 173 96 118 170 128 63 176 62 104 167 192 
161 127 186 142 142 196 99 118 199 160 166 103 148 182 141 60 145 94 158 155 146 179 142 167 176 58 157 113 163 156 168 88 186 163 137 231 176 102 71 108 219 160 204 200 201 155 217 71 207 131 104 135 106 139 154 127 161 172 204 35 57 160 107 177 128 104 114 148 138 131 127 170 143 108 131 136 125 183 170 84 115 237 93 193 205 64 143 108 42 194 210 134 198 57 127 140 195 160 125 178 
138 148 115 179 167 190 74 97 100 99 152 98 145 121 109 147 110 76 154 136 132 182 193 148 133 149 99 126 29 142 51 141 228 181 191 73 147 134 146 200 159 212 175 212 102 159 209 91 159 159 129 226 161 198 106 203 109 152 217 142 37 127 114 133 135 142 105 167 141 233 108 78 97 158 201 226 87 76 74 229 120 162 192 153 175 202 91 69 197 152 89 169 151 114 176 124 236 130 144 137 
163 103 67 150 139 10 191 135 207 178 140 164 50 129 138 139 173 163 110 123 194 133 45 152 99 179 84 113 166 99 101 162 143 132 99 90 159 193 130 118 96 167 150 142 146 140 61 113 104 155 184 167 201 171 183 161 146 131 131 167 49 179 151 158 119 168 94 167 150 135 162 136 150 194 194 78 204 208 103 144 153 88 98 47 43 189 97 125 211 201 205 156 129 204 128 162 183 146 202 153 
48 143 167 41 173 93 123 141 175 143 104 207 105 196 154 120 209 122 167 185 149 129 147 184 164 183 118 132 167 156 153 167 157 91 118 178 157 160 119 116 43 223 209 90 153 179 186 105 152 157 189 177 103 90 206 122 98 153 178 188 140 182 132 179 202 116 110 117 86 226 126 185 146 93 84 218 114 135 161 114 45 161 93 142 209 148 117 44 158 163 97 114 177 159 141 161 168 134 157 161 
175 138 130 196 112 149 151 148 77 194 204 126 157 184 165 210 172 139 163 120 158 63 106 169 113 133 54 180 173 92 166 81 100 106 180 173 55 95 153 127 156 118 209 128 198 212 44 121 165 86 97 191 118 184 189 150 212 152 151 196 237 127 137 217 175 144 166 153 148 154 117 112 97 127 95 188 146 146 148 84 159 143 81 109 160 173 129 149 189 114 192 177 184 169 77 115 97 100 174 192 
155 174 113 94 149 108 89 141 139 67 140 173 99 60 166 34 201 211 231 100 191 161 211 110 63 165 177 160 108 137 177 60 106 101 192 155 226 52 132 170 183 57 138 163 96 160 132 176 143 114 116 95 90 205 105 220 74 180 132 181 128 85 171 97 167 240 90 104 217 134 126 171 188 122 211 114 40 157 142 173 205 121 150 130 172 173 150 134 152 136 180 133 117 149 163 105 89 176 152 93 
118 170 93 142 95 49 137 147 197 148 186 120 50 155 116 184 157 177 182 156 152 159 102 183 193 166 182 87 153 129 87 160 166 22 151 232 113 161 115 127 53 144 134 148 149 151 122 162 208 77 154 211 144 185 46 147 144 102 94 117 160 124 27 160 137 179 186 174 97 127 149 129 76 115 132 118 168 141 71 164 125 135 159 82 138 179 119 170 47 165 133 185 157 95 79 114 179 149 149 84 
172 174 51 159 83 65 216 201 157 188 141 139 75 171 140 112 142 118 41 114 145 192 174 134 162 149 197 125 112 176 198 205 136 177 148 167 90 173 104 168 141 101 188 173 136 155 136 177 91 175 158 80 239 100 181 126 130 78 189 148 150 106 179 222 151 105 98 161 148 85 133 157 178 130 138 137 126 163 97 135 117 144 144 138 150 139 156 178 143 173 149 112 197 163 131 90 103 126 108 119 
141 85 152 164 138 94 140 178 164 114 114 129 131 128 133 150 162 190 122 162 182 116 167 170 148 162 182 162 151 177 172 113 146 133 153 61 167 183 117 209 119 83 104 86 147 132 83 103 131 187 94 191 80 51 108 156 126 136 71 169 142 189 138 152 119 130 149 176 185 154 130 100 52 146 145 189 155 180 162 47 86 145 131 170 137 125 84 174 186 176 110 121 175 98 56 128 127 92 123 27 
128 95 166 183 139 186 115 76 121 152 93 159 20 122 148 73 168 180 121 208 160 41 121 216 182 169 152 120 146 158 179 169 70 174 144 175 168 212 157 153 215 126 97 216 177 128 246 81 111 200 148 135 89 112 83 110 120 168 99 138 185 192 136 136 165 135 116 176 121 176 107 38 160 120 161 124 196 142 184 144 86 210 153 96 127 129 145 70 190 175 117 111 143 185 107 152 172 172 180 158 
174 128 136 152 195 179 86 239 117 193 196 132 93 102 157 178 98 198 137 151 121 123 138 201 214 124 187 128 123 173 157 124 167 140 141 143 203 94 210 192 70 109 221 193 65 152 180 169 149 132 129 134 172 16 190 142 78 219 42 180 158 161 137 122 116 159 113 176 58 165 155 138 209 78 43 65 105 71 197 110 154 155 154 213 134 63 121 161 179 101 185 92 152 125 136 196 122 164 114 76 
188 114 152 161 134 95 130 147 138 207 139 199 89 102 155 200 152 185 125 163 195 133 127 155 149 157 58 110 94 139 198 184 133 186 134 138 208 122 205 186 121 173 155 187 132 178 160 190 123 135 150 134 125 157 119 158 157 138 111 205 142 178 129 164 23 102 149 191 69 182 209 161 145 153 148 185 130 169 153 77 194 118 110 102 202 130 169 169 164 132 129 160 136 138 147 144 168 205 94 96 
132 225 151 155 162 153 143 174 109 181 87 105 172 107 94 78 170 105 195 64 144 155 165 115 180 147 155 187 152 116 148 76 194 130 176 118 126 187 161 167 61 158 242 107 144 100 201 79 149 167 93 148 160 144 105 162 231 138 212 182 166 148 132 134 124 163 118 183 112 177 139 121 200 69 152 170 61 126 149 162 150 220 83 124 165 110 181 177 200 116 128 154 187 142 103 191 89 144 143 238 
158 121 52 128 190 171 208 206 152 162 175 190 18 195 140 139 142 133 152 159 143 135 150 124 115 124 145 162 211 161 163 164 149 206 110 152 161 141 129 74 130 151 106 20 144 186 153 144 136 126 150 63 170 196 146 202 136 178 122 101 168 137 57 94 132 192 142 161 121 120 106 245 78 142 123 125 171 111 100 137 179 128 119 123 192 199 149 128 187 75 59 87 195 189 178 159 130 100 202 109 
153 141 134 78 203 162 158 91 110 175 158 122 187 170 197 60 143 138 143 123 199 176 77 148 190 137 136 142 73 163 88 120 182 180 162 190 167 152 166 115 152 167 103 173 128 53 160 108 121 123 200 223 207 161 192 160 168 134 156 127 135 151 66 192 171 151 123 162 154 197 112 180 190 134 174 26 76 59 162 207 119 94 177 175 164 109 135 136 146 177 118 144 75 119 175 177 148 165 97 56 
185 144 186 138 164 107 187 185 129 90 60 160 136 85 68 121 82 117 142 175 149 194 150 128 166 108 104 197 156 118 166 93 124 113 171 166 160 114 175 183 205 51 181 159 147 160 99 187 156 187 162 156 193 97 114 163 91 152 168 73 161 126 147 188 186 150 200 148 138 200 169 122 136 118 94 86 133 80 189 112 187 116 130 130 105 122 151 180 148 103 208 134 120 147 231 151 128 31 102 144 
140 143 157 153 189 211 162 158 118 135 136 140 140 131 48 76 136 180 136 155 151 152 147 92 89 102 69 96 96 142 53 138 93 157 202 186 136 83 122 208 192 146 64 62 162 206 172 61 150 145 162 183 103 162 10 96 134 161 127 195 192 127 150 125 124 158 119 139 177 133 175 158 151 138 80 64 53 136 144 145 114 101 199 152 94 88 230 160 166 71 69 173 192 82 220 189 85 138 221 107 
124 203 106 164 145 131 105 170 198 144 166 126 144 57 186 201 164 44 126 121 193 157 164 204 156 203 165 97 137 64 201 181 141 132 151 217 105 143 149 153 172 151 125 73 71 116 113 57 198 128 137 181 127 133 120 79 196 185 136 127 37 103 126 124 189 164 142 193 49 126 115 180 165 186 135 188 122 159 165 235 97 100 125 116 135 154 145 123 177 124 135 64 158 132 40 89 161 151 80 166 
158 203 96 171 146 181 245 37 163 142 51 99 79 192 171 145 116 187 125 73 129 53 86 86 170 137 131 54 74 149 110 175 229 190 125 133 48 125 90 133 153 81 176 43 129 88 119 115 141 32 156 95 184 144 101 119 160 112 217 124 72 107 147 138 102 170 110 173 195 171 153 198 96 143 144 130 111 145 165 106 116 138 100 143 121 136 130 110 141 134 144 64 169 165 172 116 149 113 100 183 
81 140 218 150 128 175 146 159 116 185 71 111 106 189 60 161 230 148 113 73 199 152 107 147 149 80 132 146 171 155 153 123 173 146 177 34 81 158 118 70 54 176 182 161 115 79 193 164 170 117 177 100 83 187 133 126 147 127 191 181 141 119 204 191 57 148 167 107 147 102 95 100 144 151 211 154 105 101 86 114 129 48 103 166 191 56 166 139 161 130 176 137 91 165 194 99 178 143 192 127 
157 232 183 59 119 184 123 110 174 172 130 160 130 187 129 113 143 146 221 154 169 113 141 153 188 173 117 207 114 189 210 95 199 154 155 90 169 122 149 23 70 200 159 194 155 97 153 152 124 113 149 107 77 127 89 141 140 166 181 120 139 100 30 175 85 135 152 105 141 147 121 178 75 171 110 140 94 150 71 198 84 134 169 69 38 148 137 216 166 158 57 160 136 168 102 179 161 104 182 80 
169 190 189 158 170 171 80 182 126 85 160 149 203 183 125 126 161 102 206 111 91 144 142 165 193 174 136 166 75 141 186 166 103 116 118 144 141 199 24 159 42 217 118 123 121 134 50 138 161 200 181 141 80 53 126 202 123 166 234 85 174 188 224 151 95 79 72 104 128 139 123 157 228 118 170 199 119 109 150 164 116 134 207 142 135 154 80 136 90 155 176 153 144 192 133 157 107 159 170 88 
96 80 156 207 122 164 183 61 185 147 153 154 184 131 215 117 107 107 237 155 196 165 147 174 128 149 189 146 172 104 147 129 95 124 101 122 116 183 189 54 167 146 101 51 87 68 114 159 134 208 161 129 148 90 165 120 119 58 137 131 155 143 208 115 122 153 115 114 131 165 124 111 167 170 152 155 117 200 76 124 180 123 147 142 193 120 197 90 82 126 138 211 203 80 126 144 188 176 185 192 
143 63 121 167 168 186 150 153 159 125 167 146 71 129 199 93 95 142 182 180 93 121 146 141 158 65 191 134 163 150 92 112 133 164 122 153 170 98 25 125 72 147 93 133 92 102 86 194 167 195 123 204 152 150 132 141 186 89 203 139 151 188 157 201 168 148 116 134 226 172 159 118 149 165 83 42 73 124 127 153 199 90 129 90 148 102 84 129 110 155 157 191 102 140 102 180 139 111 150 99 
220 73 72 142 152 182 59 122 208 133 162 194 159 165 114 114 166 90 129 168 105 80 126 167 143 120 156 139 114 85 172 93 86 156 166 149 128 148 177 77 143 126 161 196 70 98 174 153 86 146 156 123 216 105 125 86 124 151 142 117 88 79 143 220 99 220 115 109 113 132 135 154 145 199 163 136 135 141 111 134 184 139 196 147 168 143 60 205 73 202 190 89 199 191 169 189 217 135 181 134 
144 195 104 180 162 189 133 186 180 132 204 198 134 138 86 157 123 201 152 117 99 142 122 95 158 75 168 174 97 85 88 105 139 143 194 203 101 170 164 179 205 128 113 161 123 95 190 150 134 110 161 190 114 152 65 102 43 121 190 133 182 98 121 100 123 205 161 137 172 129 141 194 62 141 75 127 93 168 207 165 151 164 114 236 178 165 141 100 181 140 60 126 143 122 180 195 138 178 154 89 
104 62 131 135 101 67 158 131 68 71 174 181 125 177 106 120 134 146 181 166 139 84 172 127 179 96 180 191 132 198 74 186 181 197 104 132 198 166 98 186 85 100 112 109 144 141 116 68 139 173 188 159 138 115 50 196 184 58 114 183 166 177 152 180 185 147 71 84 166 178 167 76 134 142 183 170 173 54 78 182 135 216 79 150 146 158 129 133 53 115 176 185 79 156 175 185 173 136 132 138 
170 209 88 118 173 162 174 210 128 117 182 77 177 77 98 134 133 151 169 145 88 59 141 223 195 127 190 162 135 195 171 176 57 135 91 155 83 137 202 202 115 86 179 144 133 205 156 150 180 70 188 116 115 199 111 165 206 97 171 153 151 184 158 147 158 101 139 166 103 145 141 121 121 176 149 152 125 163 181 158 97 92 108 123 121 199 111 104 80 206 144 201 132 158 123 180 195 63 162 168 
92 115 59 96 142 180 119 141 91 211 208 157 176 122 94 154 163 48 120 120 102 110 189 148 152 200 177 147 141 93 149 196 146 150 182 119 37 92 141 59 79 98 176 198 89 196 88 117 171 192 100 226 154 139 199 63 203 153 187 117 161 189 127 55 91 199 140 115 136 142 182 127 143 113 223 110 108 49 123 119 188 142 180 44 166 143 139 165 155 184 95 174 144 196 91 179 146 65 175 183 
133 130 119 160 114 151 87 98 118 147 139 116 157 142 129 127 114 163 190 167 144 180 132 192 181 171 152 128 156 161 144 135 85 139 135 209 59 144 173 158 153 183 150 76 146 138 166 148 81 155 148 128 213 121 155 153 131 68 156 160 86 112 133 180 159 132 90 75 75 119 114 171 202 169 185 181 132 122 149 132 160 146 149 110 146 136 189 175 153 201 201 163 157 169 95 165 125 164 209 196 
123 146 101 243 124 146 163 134 180 160 183 79 123 19 185 132 102 135 63 139 78 178 145 186 117 136 214 134 115 133 134 173 154 170 57 165 152 86 174 110 178 177 159 172 89 127 154 137 151 52 179 155 75 122 201 183 130 129 155 102 157 123 102 144 135 162 138 161 130 131 132 171 76 92 23 71 32 81 161 113 145 125 99 97 147 178 140 158 87 110 97 209 161 111 127 115 169 161 146 191 
127 103 71 136 182 178 87 122 177 127 127 144 153 186 159 189 146 144 98 123 136 146 190 139 126 90 204 39 73 206 167 111 184 154 131 177 77 109 149 191 174 146 106 203 148 146 104 164 172 157 177 178 197 157 135 200 200 156 190 160 54 179 166 151 146 95 123 166 193 91 135 144 185 192 107 132 154 171 162 145 133 167 150 105 170 144 160 151 102 89 158 213 160 165 153 77 183 152 143 154 
75 178 138 150 214 167 161 103 111 51 205 50 187 39 149 113 193 142 84 149 142 147 180 116 150 184 135 136 134 192 145 105 121 201 163 141 168 173 54 158 121 132 171 123 164 145 144 66 135 170 156 131 225 104 60 158 93 216 77 176 129 127 146 156 215 225 130 36 101 120 188 181 193 166 136 148 148 143 138 138 112 112 188 148 195 136 215 146 144 140 193 83 144 91 117 163 126 143 162 59 
152 156 192 160 180 128 118 119 208 173 155 153 205 161 190 68 152 156 159 124 156 199 166 88 178 239 149 114 114 157 146 173 134 185 207 140 108 190 105 129 96 102 160 130 165 242 192 185 83 185 131 50 236 145 133 140 192 187 148 80 133 140 131 236 193 115 93 80 185 143 159 49 176 133 157 129 130 179 126 67 159 132 165 158 172 186 158 123 147 203 68 166 137 109 150 147 175 218 128 179 
134 144 81 180 174 191 86 193 185 143 139 154 44 76 181 119 142 225 174 114 155 134 158 143 25 181 141 163 156 191 132 119 186 175 115 162 178 135 165 99 91 149 182 194 145 169 112 126 168 204 182 51 119 191 177 156 121 161 76 128 109 201 177 124 131 100 137 129 214 170 136 90 176 151 123 185 76 141 198 132 116 155 221 134 141 192 221 138 127 155 105 83 166 162 170 151 177 154 106 169 
103 194 170 99 168 179 93 147 114 177 63 142 136 169 130 179 107 123 115 93 126 184 117 120 130 155 81 124 76 163 138 43 205 189 145 216 127 144 96 102 125 203 169 163 114 149 180 189 127 160 143 137 122 178 197 143 177 165 149 98 145 160 189 194 178 189 63 164 125 116 49 185 154 184 96 165 185 135 217 135 89 191 52 91 195 144 149 89 147 157 191 153 147 127 162 114 92 85 161 164 
66 160 105 181 144 65 149 74 148 94 180 163 183 168 196 157 156 174 180 147 140 30 228 117 147 90 61 174 162 128 158 104 174 159 170 235 153 191 170 108 137 133 211 159 159 131 145 147 138 112 126 181 123 65 108 165 191 168 156 66 59 208 147 138 163 109 125 112 183 125 178 88 180 150 134 126 113 157 120 188 152 130 55 174 144 120 116 125 123 110 132 125 136 191 61 156 105 123 49 149 
217 173 221 152 111 180 144 139 169 213 142 27 124 155 143 155 77 193 145 142 182 110 97 87 194 88 219 219 177 152 67 98 145 138 131 183 82 217 77 199 134 185 102 182 117 134 54 187 75 111 115 50 171 140 149 162 167 116 92 167 124 140 166 79 123 171 200 133 142 136 203 189 84 65 58 151 148 104 127 96 155 115 94 122 150 76 139 153 162 206 181 99 151 193 104 126 193 149 214 63 
57 195 76 170 156 127 193 106 162 87 83 198 135 140 105 134 147 82 189 62 154 132 72 182 162 143 172 161 113 132 166 173 111 156 56 132 169 115 171 186 67 183 181 47 133 217 131 153 179 184 197 195 155 116 144 96 137 174 188 109 139 138 70 39 147 137 141 126 123 153 131 56 154 87 172 106 148 190 56 118 142 111 141 139 146 149 185 188 179 215 176 164 126 148 124 153 145 204 144 179 
122 147 119 170 102 104 76 146 36 126 153 94 179 69 139 179 98 159 174 155 166 126 158 68 77 93 192 100 142 122 146 151 183 194 167 130 182 119 145 124 159 118 53 93 138 86 141 179 99 234 188 161 161 247 198 133 196 126 204 56 138 100 72 119 208 202 169 130 215 169 160 103 174 78 133 89 150 104 87 103 101 87 119 144 161 84 177 98 61 76 169 185 198 122 145 104 33 79 71 176 
166 168 90 150 179 143 93 48 45 178 186 191 153 126 191 207 100 143 142 162 144 171 142 130 73 99 101 146 140 151 67 120 184 120 97 114 159 163 154 162 148 148 141 151 135 124 166 152 160 146 228 188 50 138 202 179 38 170 134 116 88 160 173 177 91 122 127 183 139 174 132 167 151 140 183 63 78 133 85 130 153 116 163 163 21 85 158 146 166 198 154 78 103 63 184 79 158 208 182 179 
133 175 152 135 168 157 191 134 199 67 94 232 166 133 118 80 154 158 136 157 105 161 147 155 143 129 114 214 90 108 166 189 122 93 152 185 144 179 152 166 47 186 147 53 151 185 104 58 177 111 172 169 70 165 185 42 115 151 160 186 116 121 108 187 150 139 178 189 151 148 135 143 89 143 109 77 38 183 108 180 167 207 123 187 86 118 100 124 171 168 163 163 165 147 135 176 170 148 22 118 
180 33 54 186 118 75 102 154 181 156 154 36 33 116 183 108 114 179 163 175 201 141 92 133 193 141 112 152 117 144 138 160 171 173 59 106 141 142 84 152 95 110 55 202 169 76 164 88 119 200 65 70 117 111 141 122 179 224 148 168 197 149 202 168 85 110 122 141 196 84 144 160 116 155 179 153 156 163 184 102 166 97 171 161 23 62 98 150 127 116 181 45 140 185 189 203 147 180 121 88 
205 136 136 58 116 151 104 114 127 55 117 130 86 144 142 179 12 139 152 115 131 116 154 144 125 132 93 187 161 165 224 109 196 120 177 168 157 132 179 111 116 184 168 148 140 97 100 138 142 192 162 138 144 171 149 105 146 101 150 122 159 165 171 137 162 90 140 181 82 211 198 163 164 108 81 176 176 120 57 108 148 180 85 168 213 171 114 195 138 151 90 167 134 132 153 145 164 200 182 95 
