P2
100 100
255
184 162 163 90 142 158 140 198 68 59 118 163 153 107 117 168 143 168 165 112 14 96 180 183 158 117 168 170 39 160 89 183 150 83 115 115 163 144 97 170 167 97 127 154 114 211 155 101 111 148 75 106 168 81 187 93 174 59 76 167 206 89 125 53 114 110 129 160 61 167 105 210 175 145 174 133 224 96 141 147 129 170 176 72 151 146 117 165 213 180 149 86 78 51 76 136 173 204 101 118 
127 198 215 93 151 212 113 163 175 96 184 178 200 161 193 129 191 86 108 97 165 153 225 166 127 91 119 169 199 42 160 177 124 200 195 179 142 193 152 204 128 133 176 137 182 154 192 141 122 141 120 160 152 169 125 108 90 186 200 47 165 102 180 119 84 111 111 116 215 144 147 103 146 128 62 207 176 168 126 126 188 132 130 128 163 119 140 201 145 68 144 122 186 144 168 144 97 146 153 175 
181 181 124 161 150 166 116 122 153 210 198 194 171 95 142 139 188 77 37 160 200 147 125 102 164 81 155 132 118 163 117 210 194 170 180 186 156 170 186 173 163 67 205 108 143 148 146 172 212 153 194 195 115 161 166 113 142 170 101 100 86 137 98 172 71 148 166 138 189 143 139 164 84 92 146 75 185 178 41 185 189 171 99 179 49 144 161 176 93 40 177 207 135 108 219 116 86 107 168 123 
137 173 84 106 81 122 94 124 208 199 152 106 177 159 169 130 167 120 93 56 118 186 43 113 126 150 128 177 182 159 154 106 58 108 228 118 58 158 187 211 166 208 121 94 123 82 178 154 183 163 107 118 153 151 188 142 234 130 98 146 122 190 131 152 127 122 197 90 187 184 156 117 97 100 140 136 166 167 201 165 160 175 37 133 170 141 119 96 117 230 132 154 64 213 145 120 146 145 121 119 
138 52 190 133 159 140 94 131 162 109 131 136 151 158 229 130 142 116 189 106 136 116 162 93 131 199 213 166 125 84 151 193 151 157 87 85 175 152 208 185 132 168 126 134 133 90 93 146 146 119 68 167 101 87 106 118 122 103 71 145 142 145 79 175 125 130 119 155 140 163 171 141 57 71 186 138 202 137 119 179 111 77 121 161 139 147 199 122 59 164 146 158 106 166 71 233 91 76 33 148 
95 55 134 164 136 156 145 54 94 128 180 105 145 55 135 166 140 116 113 199 203 165 103 106 190 166 140 177 141 233 95 71 106 186 198 103 169 94 115 90 176 187 167 141 111 134 155 164 114 147 70 156 83 158 137 151 108 95 137 138 80 131 111 94 47 115 121 125 194 185 136 106 103 200 187 158 178 171 160 67 153 183 107 90 123 171 81 190 133 157 123 67 142 147 161 147 108 169 148 195 
88 106 191 202 234 132 122 192 147 214 105 210 153 98 122 55 202 132 157 38 99 104 81 117 218 153 134 118 177 107 127 129 75 170 196 51 150 140 56 179 92 143 142 175 213 129 140 153 152 105 92 152 162 167 157 154 177 147 135 133 212 87 60 162 110 147 176 138 171 141 175 217 133 152 119 180 132 169 130 171 204 143 138 150 139 35 159 126 104 185 76 146 173 56 185 186 153 93 212 151 
180 182 132 109 150 142 161 180 125 72 102 82 152 180 177 150 82 69 141 112 129 157 173 197 64 133 84 204 160 157 93 139 182 141 219 184 136 174 129 99 151 97 157 100 208 183 125 60 141 148 150 167 89 166 194 169 133 201 162 142 174 178 146 134 222 121 102 128 92 124 183 107 151 99 201 195 161 124 108 146 78 104 167 158 127 172 175 82 146 83 113 121 172 126 173 52 219 145 126 207 
112 120 139 146 163 165 191 177 220 143 192 152 151 169 168 124 143 171 151 126 183 159 112 203 133 164 137 75 177 220 163 125 199 101 58 157 158 202 132 132 102 110 150 103 81 93 134 157 129 96 122 201 151 145 162 122 143 135 165 118 123 186 131 120 109 140 140 112 154 171 112 185 194 132 218 149 122 190 155 136 153 64 141 151 205 106 161 151 101 98 110 89 138 195 145 122 150 150 82 145 
153 134 132 133 167 129 149 181 160 50 189 185 188 182 187 119 116 150 189 157 118 79 186 113 182 83 123 59 139 184 139 223 157 136 132 144 77 204 172 110 238 171 166 97 84 190 176 183 81 191 157 140 96 200 163 167 128 193 143 163 87 91 116 197 82 124 165 138 189 158 178 125 49 128 187 160 146 90 108 122 66 158 84 164 143 132 189 196 98 61 147 155 139 191 122 148 167 106 147 153 
156 132 117 109 183 122 204 105 131 186 174 163 122 134 176 171 159 219 94 165 201 95 182 205 183 92 74 120 172 111 97 165 156 117 135 123 95 161 88 170 118 84 138 195 213 60 198 175 151 181 191 118 101 89 189 209 181 148 149 170 111 164 182 144 59 114 77 136 81 144 151 39 189 65 173 165 154 173 143 97 97 28 198 199 120 160 187 184 98 116 218 142 105 117 198 129 112 187 72 120 
132 171 177 138 149 122 119 128 107 181 154 174 194 186 188 220 157 99 187 117 122 112 151 79 104 217 201 160 128 101 112 110 122 122 184 141 40 155 192 93 172 124 200 119 148 157 138 91 160 82 58 194 130 199 167 103 74 186 55 156 143 151 164 95 147 201 212 35 135 202 91 224 178 154 113 156 75 62 198 165 111 23 141 155 151 161 153 89 177 83 105 119 103 80 153 132 148 193 185 191 
159 127 178 172 87 130 86 141 89 105 96 164 151 138 221 110 110 135 185 129 177 35 82 168 148 132 17 81 106 143 170 183 156 115 58 109 172 160 167 76 70 132 130 133 153 149 39 175 127 190 182 192 144 154 141 104 120 100 185 173 79 177 118 131 148 70 166 123 155 122 121 119 120 53 132 142 145 112 170 90 116 139 151 167 92 197 180 150 147 110 18 96 125 146 130 43 174 147 201 217 
78 119 122 107 156 106 130 151 144 123 186 114 169 192 114 109 74 136 190 78 176 125 176 130 174 112 217 73 133 99 204 137 90 154 180 133 170 179 228 128 112 173 121 215 223 138 167 101 164 132 101 139 137 202 196 178 177 145 170 223 108 178 204 179 111 150 166 140 131 156 127 159 202 186 110 187 152 223 150 126 115 75 149 162 196 150 192 77 172 104 99 127 112 114 135 132 177 103 106 160 
241 212 87 134 130 176 175 219 156 187 111 91 180 164 190 174 133 94 146 140 148 206 172 162 122 141 181 163 111 70 183 161 217 140 140 162 63 231 88 188 126 145 48 169 182 141 107 62 165 165 177 157 149 129 178 46 160 161 161 158 187 131 144 171 164 201 158 130 186 118 163 177 142 157 183 159 77 139 202 209 47 144 43 145 134 135 126 185 131 141 169 168 173 206 134 213 115 202 158 90 
187 105 56 168 86 105 183 62 145 68 110 202 129 182 150 154 108 116 144 163 179 142 180 172 147 169 120 169 114 147 189 172 154 81 103 174 174 68 31 169 156 201 112 158 193 134 165 82 158 30 144 176 120 184 220 120 180 92 123 129 147 155 73 103 115 146 185 183 131 113 146 140 97 180 138 160 150 101 73 119 128 141 146 180 157 162 131 59 197 99 136 179 157 122 129 174 130 181 148 99 
14 161 143 186 84 160 161 112 41 39 170 91 95 128 161 200 152 200 135 123 103 155 112 206 75 121 165 189 56 38 158 152 70 100 133 87 90 154 109 114 170 216 166 107 208 124 226 164 166 177 146 135 168 122 93 138 114 142 162 170 165 136 132 237 118 114 65 77 122 146 67 227 142 165 184 181 185 192 116 83 167 90 77 87 119 182 79 89 130 147 90 161 134 136 204 94 144 177 158 154 
118 193 158 161 27 148 111 182 129 111 122 71 101 169 142 121 123 188 185 101 118 170 136 124 134 148 149 142 102 196 185 137 146 127 140 142 140 123 75 126 93 107 97 180 127 150 85 160 32 83 197 159 80 151 182 41 188 167 84 123 161 189 173 167 142 129 146 178 180 133 151 200 179 251 174 129 158 146 113 183 103 56 125 168 150 161 78 66 130 145 148 164 117 136 53 181 205 139 183 188 
79 56 118 190 134 145 136 107 200 124 88 174 148 135 142 137 159 149 188 147 139 196 197 136 132 78 152 160 64 105 139 89 207 181 153 144 141 166 139 184 167 174 81 124 180 157 137 130 240 30 140 106 143 133 184 176 143 75 152 178 174 75 71 96 117 90 198 64 157 141 161 187 81 155 144 186 140 131 170 116 155 150 158 196 147 79 80 72 52 125 144 174 139 131 94 143 113 146 150 91 
180 146 203 84 87 199 166 135 216 175 40 176 134 141 140 83 156 164 128 83 148 155 126 124 127 150 187 167 156 175 203 187 102 105 58 176 104 132 17 175 134 125 146 114 144 177 155 149 86 12 122 188 81 185 137 123 136 155 101 190 161 213 174 139 62 159 148 138 163 201 183 179 142 164 224 142 36 121 174 162 122 148 166 146 184 122 54 133 120 128 117 188 57 163 192 148 54 155 134 181 
72 202 146 143 191 196 164 156 136 212 184 83 105 123 143 175 168 157 207 144 137 141 129 68 85 89 156 165 96 116 184 156 177 107 190 152 150 91 153 144 153 181 161 120 73 131 90 190 179 120 104 171 152 70 75 76 92 108 163 106 109 157 138 154 119 154 163 136 201 161 106 161 120 195 130 181 84 129 143 110 185 105 144 130 157 191 147 186 140 169 169 111 126 167 141 134 176 195 196 208 
102 189 133 105 156 184 163 123 172 174 121 218 165 119 40 167 143 139 204 170 103 143 111 178 195 144 159 101 123 25 190 155 113 229 151 137 190 180 103 164 166 163 105 132 87 111 179 110 179 94 132 116 120 189 111 173 136 138 176 159 133 121 124 179 144 146 69 124 149 128 111 133 150 181 193 160 153 147 138 119 148 187 158 118 79 128 111 79 139 185 177 125 35 151 147 150 193 177 176 175 
127 79 118 167 173 127 122 138 125 121 168 139 174 49 207 141 124 107 152 34 110 126 183 133 181 130 188 137 160 183 195 166 140 167 223 197 209 139 100 161 169 120 63 194 147 77 87 144 115 66 153 132 174 129 153 109 134 132 80 59 112 131 149 175 124 128 89 95 105 153 162 109 154 55 147 171 168 96 123 181 155 110 147 67 139 170 191 127 180 197 115 103 111 101 123 231 145 147 189 185 
142 179 201 139 212 138 107 124 173 89 77 204 117 150 76 190 135 207 143 97 162 107 147 81 189 169 175 139 90 87 93 152 188 221 79 98 159 122 120 71 44 181 104 203 155 158 148 136 169 129 152 97 170 83 155 116 156 103 217 209 104 97 167 89 169 97 150 181 152 153 153 127 126 153 209 116 135 70 91 212 73 97 39 191 48 178 193 145 129 122 111 87 127 73 91 84 181 151 149 225 
84 155 143 192 206 157 87 49 99 95 117 38 140 128 174 222 122 134 76 122 53 196 210 156 158 122 133 138 81 178 82 128 159 65 195 206 108 148 199 129 132 161 183 169 163 87 181 167 183 129 75 153 211 91 139 111 167 68 115 159 141 195 234 106 104 153 155 116 152 196 174 137 129 171 163 36 142 187 185 134 148 137 193 165 162 195 169 140 59 92 146 172 167 90 149 70 121 202 129 172 
155 166 166 58 168 159 147 161 178 142 139 193 119 157 181 157 104 194 84 128 161 116 154 220 151 122 130 152 148 93 51 142 150 101 87 152 108 106 96 127 205 190 170 173 101 110 101 142 189 184 163 149 143 236 133 106 114 115 153 144 142 147 129 132 113 160 139 165 122 148 107 132 153 111 88 144 77 139 99 151 163 61 145 172 145 190 190 150 181 180 87 151 167 129 97 145 156 152 120 84 
154 155 130 205 141 221 186 151 171 109 185 156 81 144 162 151 147 176 164 169 129 138 155 47 135 151 187 197 118 79 126 101 72 170 138 172 131 152 136 128 168 126 64 204 192 70 159 175 174 163 107 69 112 121 55 213 176 131 127 157 156 146 129 191 152 227 130 185 125 123 130 130 142 194 194 116 121 154 234 130 93 178 57 156 81 158 220 119 229 73 109 115 187 72 114 86 127 167 137 123 
131 196 123 192 107 192 147 164 115 192 201 64 172 76 205 158 161 42 179 151 219 156 114 158 126 135 85 108 145 158 152 152 127 149 129 162 153 217 167 51 142 194 149 240 81 103 123 127 66 75 86 140 62 125 115 121 138 139 165 130 167 130 141 205 78 97 190 97 205 130 144 131 183 126 143 145 190 177 153 139 58 221 130 213 141 165 189 117 81 145 108 96 119 101 232 143 183 176 146 155 
187 59 156 143 204 92 94 181 152 191 152 73 102 193 128 147 140 151 132 164 100 176 115 108 147 97 120 189 48 105 71 192 80 118 195 153 81 97 167 197 132 137 138 133 115 174 177 154 14 118 93 123 76 176 225 135 189 182 165 128 143 171 214 169 167 144 192 171 64 46 118 158 159 159 168 80 74 200 89 169 223 106 159 202 69 106 143 111 170 206 166 123 162 189 143 173 196 161 102 151 
161 168 197 185 95 169 173 97 167 180 89 154 50 110 148 146 151 139 237 74 136 172 147 129 122 196 171 138 164 165 187 139 108 142 111 127 126 147 114 119 147 182 92 150 182 228 148 156 210 105 138 177 161 211 127 157 165 117 108 150 143 138 138 91 174 201 157 190 53 177 111 128 143 202 86 154 110 71 174 160 118 129 146 215 138 184 121 133 72 117 112 37 95 190 126 167 181 187 127 192 
171 137 113 191 167 142 149 90 177 96 112 121 189 164 164 131 75 87 186 77 113 83 174 186 154 173 184 135 166 51 160 147 77 91 227 50 121 221 126 138 163 76 150 157 176 97 165 108 154 187 95 137 123 99 164 165 103 232 139 133 171 121 52 121 168 100 221 201 178 81 54 112 140 155 129 186 148 184 137 120 170 155 88 80 104 219 190 194 141 130 149 132 159 132 147 157 117 98 67 147 
145 150 61 125 177 94 132 60 170 59 171 71 109 124 222 116 208 112 179 62 177 156 167 163 113 162 194 119 124 165 126 162 189 157 70 98 135 221 131 113 59 195 99 193 137 174 176 244 172 118 159 113 141 76 120 156 144 140 125 106 165 193 128 132 44 55 178 129 152 110 149 157 142 119 87 105 134 123 130 206 208 175 219 179 147 113 111 101 180 156 127 196 105 156 187 205 21 163 211 183 
105 139 154 189 98 144 110 154 140 106 149 144 140 39 138 137 215 102 170 164 176 82 138 139 95 109 182 75 63 109 158 72 81 169 116 172 132 155 55 170 147 155 77 186 89 63 135 175 116 160 177 136 165 167 147 191 156 149 148 123 155 151 176 82 99 76 163 136 194 206 190 75 140 188 154 178 26 105 244 63 141 188 118 169 168 179 131 131 144 108 148 59 139 123 141 113 121 212 116 157 
40 45 100 207 161 121 160 164 124 162 151 131 204 185 211 180 158 174 97 108 184 122 79 116 95 70 126 133 118 149 183 112 152 143 168 166 208 167 107 82 158 136 156 218 151 80 166 165 60 211 165 175 159 116 163 205 176 136 162 144 146 157 147 45 193 148 137 104 168 179 175 101 214 186 164 147 29 72 144 138 177 148 106 105 134 115 180 122 150 105 132 166 92 172 190 89 86 174 166 213 
195 161 40 92 180 51 192 146 154 72 149 178 115 66 87 230 148 202 156 154 105 179 114 141 159 165 180 159 186 104 103 158 165 175 175 148 149 199 161 141 125 143 93 171 173 66 107 121 164 163 212 136 212 188 98 164 100 73 166 74 188 216 160 134 83 90 105 131 201 167 161 25 146 152 190 171 96 123 144 105 183 149 154 136 97 150 209 204 157 118 183 162 157 135 96 111 150 130 178 137 
207 158 98 157 123 154 114 179 104 109 93 200 138 171 157 159 198 55 169 191 126 145 111 37 156 164 136 194 230 195 162 174 158 202 159 164 61 112 142 153 63 197 169 131 87 143 176 195 168 208 151 151 109 152 61 164 96 36 132 149 137 115 149 129 144 143 120 149 108 55 128 182 177 172 139 194 153 64 131 144 162 176 165 138 175 132 141 141 216 171 190 137 158 191 201 137 121 100 150 214 
62 168 198 143 184 164 147 137 114 190 45 65 92 177 134 122 214 151 180 94 126 137 195 150 86 86 97 136 144 172 149 111 171 138 188 188 139 181 132 179 170 198 150 104 163 174 167 130 118 197 224 171 172 157 210 95 142 150 138 145 155 179 134 130 165 183 186 110 187 35 98 139 86 172 150 153 127 153 165 197 138 131 56 23 206 166 139 62 105 187 125 105 142 163 123 166 176 160 39 171 
185 157 108 92 147 157 108 81 155 121 138 146 167 168 97 125 171 159 118 139 123 106 149 116 168 121 131 110 135 117 144 44 140 160 202 139 161 92 122 46 156 165 175 201 207 174 127 148 98 203 69 91 133 159 131 197 159 188 81 132 127 192 139 127 164 130 169 148 78 145 147 178 124 141 85 177 191 156 189 202 97 198 87 97 110 89 123 219 152 150 139 155 190 203 133 93 194 140 148 145 
84 156 131 183 194 152 139 135 43 33 168 120 193 131 184 156 154 194 123 128 203 134 121 128 42 146 110 119 200 170 194 110 112 179 138 171 203 202 191 65 75 168 167 168 186 226 97 206 136 147 95 114 153 128 143 165 216 182 171 130 155 157 158 188 64 155 139 127 171 153 156 120 120 184 144 166 124 161 125 206 153 57 115 201 149 151 29 105 170 186 102 95 165 111 116 173 126 144 182 107 
129 206 141 128 165 123 190 126 197 139 119 155 188 201 111 91 177 131 77 154 201 140 223 115 58 146 160 194 111 208 146 109 149 43 192 168 113 230 105 140 92 60 161 161 92 127 133 134 185 124 115 118 187 188 163 89 172 172 156 118 141 143 104 123 152 151 167 135 126 65 129 139 155 193 132 83 61 154 123 152 64 93 156 197 183 148 47 125 165 204 159 177 81 115 101 108 169 111 226 210 
198 139 223 83 190 99 140 88 171 148 133 110 202 50 185 184 143 75 213 190 89 145 178 84 169 117 179 132 142 59 164 131 152 104 137 161 68 37 222 118 161 136 132 147 170 80 89 159 141 183 161 219 161 163 199 81 128 125 71 209 140 211 153 90 173 83 114 159 202 166 164 123 101 144 115 191 112 188 191 184 130 175 114 153 171 26 62 167 162 100 99 88 99 102 119 172 140 152 193 159 
194 137 58 144 30 111 125 212 173 153 83 100 145 145 103 154 89 90 161 133 130 170 157 159 113 180 97 112 136 151 133 121 152 100 93 147 190 169 203 125 146 97 145 146 44 177 73 186 172 184 95 128 164 196 131 140 168 155 127 159 176 104 200 180 81 221 149 44 195 190 150 125 168 151 112 135 195 89 139 169 205 122 136 155 176 204 120 196 147 179 95 197 155 150 119 170 171 167 167 122 
122 105 137 160 146 140 187 175 172 113 137 88 113 187 96 77 150 27 121 173 144 49 90 131 167 118 152 155 181 163 176 226 62 183 97 99 76 86 134 184 127 152 121 89 135 118 159 180 154 87 185 156 132 130 168 102 107 168 134 86 106 182 85 195 237 118 61 177 149 125 83 117 106 127 107 203 50 146 124 121 115 158 64 173 110 143 140 175 134 162 152 150 144 197 125 118 143 126 130 71 
138 90 137 125 144 119 81 138 149 143 92 103 103 105 147 162 160 158 97 127 133 152 168 197 177 105 195 167 146 189 96 30 161 113 165 179 152 153 111 156 132 41 160 135 141 198 163 196 143 130 76 126 172 113 121 22 173 150 136 175 147 104 95 126 121 144 163 200 120 77 154 143 78 117 145 193 177 136 115 141 68 137 165 41 167 178 87 164 176 158 180 190 157 150 120 188 166 139 170 175 
130 144 135 170 194 173 191 199 189 125 133 130 164 107 216 179 120 173 104 95 86 80 140 147 180 122 78 113 130 142 208 118 132 220 193 149 190 138 187 112 115 202 183 240 95 106 111 199 72 76 147 147 199 179 154 90 159 155 193 186 167 205 186 170 182 186 126 144 142 127 152 188 114 156 100 110 97 191 163 191 174 76 138 160 200 225 80 161 42 155 68 179 125 144 162 130 101 105 127 131 
193 174 99 168 60 123 72 130 37 137 198 166 141 148 146 176 103 54 130 208 105 129 177 186 205 122 153 80 101 192 81 97 205 161 151 187 102 162 141 65 105 197 158 69 175 62 168 148 157 184 173 155 224 90 123 157 82 151 177 90 146 179 70 198 204 142 110 119 184 81 176 78 96 173 190 131 116 162 76 167 189 167 91 52 162 181 186 156 131 61 155 168 166 95 173 203 173 61 214 160 
71 129 120 115 104 168 109 156 145 127 69 171 179 141 189 158 165 178 172 154 182 155 161 138 120 142 108 162 206 97 179 184 117 153 166 194 133 111 127 142 161 124 199 162 221 93 155 200 164 157 85 101 120 230 203 206 213 135 204 155 173 166 173 121 197 105 100 159 202 120 51 141 174 72 144 136 152 157 95 187 103 127 182 104 152 179 84 143 139 183 171 202 164 37 183 94 144 93 107 173 
174 117 96 106 135 81 144 176 108 151 117 54 177 122 58 133 137 117 168 104 190 186 173 143 136 157 172 171 134 196 176 200 143 109 121 154 224 94 172 163 109 131 125 59 108 168 126 219 147 89 139 89 199 50 156 190 112 144 173 144 53 158 145 186 130 99 185 163 202 151 89 189 96 119 191 134 142 156 145 120 142 193 148 161 34 129 172 110 160 187 151 106 144 176 117 185 185 106 101 72 
194 151 212 203 142 175 148 148 151 146 131 126 132 217 173 165 28 121 144 139 138 151 82 200 156 141 179 142 157 204 129 93 180 159 92 145 136 109 127 158 151 113 230 161 127 135 130 204 133 138 152 124 184 158 135 98 175 101 91 135 157 151 196 208 139 124 195 135 155 174 228 117 65 169 195 151 150 210 51 216 197 110 174 142 143 92 92 131 129 134 124 127 139 182 166 162 172 159 209 101 
112 112 156 176 136 53 144 140 178 85 210 222 162 158 145 112 171 156 140 171 132 99 111 140 171 157 109 117 100 89 122 198 138 157 58 92 147 173 116 108 100 57 175 215 164 131 157 164 155 179 169 181 157 124 151 157 199 188 197 147 145 135 141 161 174 131 125 191 230 160 132 79 128 172 54 189 102 177 116 157 128 166 143 121 198 122 137 128 143 95 120 149 151 176 131 156 53 150 101 131 
162 83 177 75 143 185 209 92 182 31 143 111 185 128 138 164 98 186 200 172 159 64 121 183 201 120 123 128 168 117 166 97 108 222 156 147 93 105 98 158 75 136 120 134 146 169 153 80 130 175 139 146 155 89 108 181 157 104 172 148 115 156 172 229 162 145 229 72 154 94 186 110 143 110 179 165 108 138 130 76 141 198 206 121 131 171 145 77 139 131 137 144 113 104 100 131 101 82 155 185 
98 104 159 157 142 157 184 33 155 112 128 122 115 86 177 134 102 155 133 182 158 182 171 229 130 197 144 159 192 105 223 122 145 117 122 161 100 149 126 177 111 163 98 117 144 170 179 184 148 97 100 148 132 159 150 224 168 135 123 154 201 133 171 141 146 144 163 120 116 119 149 181 133 122 192 153 178 178 87 92 183 176 78 94 141 181 139 111 119 168 118 190 166 190 112 177 35 212 199 138 
172 94 95 162 77 176 149 72 51 141 102 135 193 195 155 134 163 117 148 110 103 140 180 140 142 151 160 148 147 76 147 161 162 103 183 173 135 157 129 27 151 115 146 145 151 121 135 211 183 53 173 188 134 102 167 112 126 191 185 167 147 138 161 211 89 138 157 159 102 187 148 81 168 98 131 126 149 188 75 131 206 110 105 162 145 143 138 140 146 148 161 68 92 102 118 203 205 118 107 177 
133 96 176 124 156 123 153 171 90 115 55 157 131 133 101 127 81 190 102 116 136 65 171 32 146 130 206 198 171 163 136 144 76 168 139 53 179 67 91 178 116 200 135 83 120 157 122 171 163 117 169 168 46 172 148 162 166 108 108 202 160 152 187 156 187 131 158 151 222 126 236 131 153 187 171 189 41 119 180 138 100 140 116 179 143 204 173 153 167 124 99 123 156 169 129 132 134 97 221 176 
75 167 172 183 48 177 183 114 107 109 154 124 124 168 116 134 134 140 152 40 157 126 158 134 125 160 142 176 111 119 70 195 95 97 218 74 105 156 169 89 186 200 187 194 203 128 165 154 103 145 143 120 147 235 157 154 210 104 180 170 118 147 120 203 154 118 135 196 157 191 95 96 67 84 215 87 169 129 121 102 102 163 148 162 111 25 202 127 139 149 140 54 107 117 105 191 125 179 221 165 
164 161 95 188 184 141 206 55 36 74 173 161 114 215 150 70 150 179 184 152 156 99 70 202 141 185 192 126 150 16 137 113 172 104 133 144 110 100 148 185 154 134 215 182 147 190 90 124 115 189 132 149 171 173 128 119 139 87 121 137 136 137 140 236 166 137 106 97 112 116 112 202 114 145 135 117 185 179 184 118 116 128 92 154 176 176 121 140 171 178 151 101 184 98 196 146 179 168 220 182 
184 167 126 86 209 195 183 108 65 210 97 208 101 116 232 145 133 112 74 63 173 196 155 148 198 173 153 156 206 129 129 166 155 170 149 127 122 110 146 93 183 121 159 197 138 97 201 166 218 171 135 169 133 125 147 131 192 90 184 190 209 166 136 210 160 93 211 130 88 207 92 137 172 142 151 154 116 70 104 169 191 98 211 82 96 167 112 85 203 161 32 177 129 199 186 141 139 154 179 157 
159 151 85 118 156 179 180 155 53 185 191 107 79 128 138 121 115 176 149 178 90 128 161 126 79 101 160 213 172 201 203 60 159 139 156 202 129 142 198 127 149 194 45 129 172 186 121 171 168 93 132 179 120 169 136 102 204 130 148 130 158 163 140 87 111 12 189 180 133 156 158 76 198 77 127 118 139 119 99 98 101 141 45 203 138 219 185 168 166 140 83 129 101 181 140 164 216 54 162 124 
195 157 133 171 160 201 90 113 177 196 89 171 150 134 176 160 162 193 164 113 61 172 194 116 75 184 88 130 133 125 34 121 153 172 168 212 188 142 54 160 201 110 92 126 153 159 181 122 79 113 183 117 63 141 178 190 140 120 197 206 188 139 147 134 166 198 153 185 115 189 140 204 131 138 144 153 108 167 179 106 144 147 131 155 129 31 220 154 134 80 140 126 121 66 87 151 184 149 176 87 
176 138 144 157 144 120 149 153 66 153 159 195 146 219 133 168 149 133 198 164 132 208 166 144 145 155 79 130 158 129 169 131 52 162 133 148 173 158 75 109 135 119 159 183 144 77 147 154 102 151 169 150 154 67 140 142 176 199 90 78 214 239 117 63 181 135 171 105 157 147 132 186 112 128 82 151 84 64 176 171 167 182 184 146 140 140 132 122 179 142 26 54 141 161 153 117 134 161 135 148 
34 149 124 173 78 68 153 101 163 182 188 92 153 219 112 172 115 194 110 156 139 89 110 107 221 168 149 121 157 127 131 122 124 146 207 203 152 119 172 166 158 132 163 143 157 182 130 164 132 145 135 79 163 147 95 160 73 148 135 167 113 139 124 109 89 149 85 195 125 121 177 145 154 157 192 152 42 157 189 178 89 170 144 174 140 159 182 151 174 134 159 87 108 115 186 147 163 192 162 222 
138 123 123 63 163 123 149 25 114 165 132 130 146 109 82 101 198 66 159 92 105 171 203 89 163 173 146 163 147 177 208 149 125 138 44 86 203 154 218 158 127 128 93 163 102 79 158 169 198 182 105 168 193 153 176 126 120 183 159 141 80 129 128 112 90 208 208 121 123 173 175 142 154 120 128 151 167 193 169 139 149 161 96 124 184 112 74 102 133 140 151 189 120 147 88 165 141 150 148 55 
169 113 160 178 121 106 159 163 134 157 162 178 111 199 110 195 143 145 45 79 189 198 79 146 160 177 168 89 201 165 163 144 97 158 201 129 233 160 168 128 143 171 172 190 102 145 131 141 188 89 143 67 140 156 143 173 190 55 175 197 151 226 149 197 138 160 152 145 123 108 197 117 121 153 150 194 43 139 170 163 137 126 155 121 127 170 151 161 147 168 155 200 143 122 120 144 83 63 112 107 
205 116 154 182 137 179 145 197 179 144 132 93 157 120 99 119 131 143 144 103 147 107 77 162 87 188 128 223 51 118 173 76 159 147 64 106 98 30 126 105 129 179 133 137 172 214 147 228 34 152 139 134 91 157 94 186 141 190 42 140 179 185 166 93 106 189 132 161 171 119 105 45 164 60 81 95 135 91 171 36 55 158 127 195 98 131 127 173 177 86 188 166 144 196 103 145 14 125 96 179 
141 195 44 147 215 170 104 165 168 78 170 158 72 190 143 160 175 185 162 174 171 184 74 106 135 239 101 122 156 124 65 117 143 47 157 132 156 160 85 144 139 146 84 155 134 178 134 103 7 151 117 152 181 169 50 75 117 169 106 123 196 178 65 158 136 56 121 155 120 144 140 172 161 112 95 178 94 101 157 180 171 213 73 161 153 218 94 145 175 172 204 115 193 54 147 90 152 89 57 177 
59 190 154 128 197 139 153 105 129 169 144 212 144 168 201 107 84 162 127 167 127 137 117 155 101 147 73 204 195 64 202 135 202 46 150 97 94 133 198 203 181 178 34 119 159 181 162 57 169 128 149 173 147 191 170 103 164 163 181 145 212 181 103 199 151 160 158 170 130 109 205 112 186 207 173 77 118 154 130 142 55 99 150 103 217 201 182 181 84 179 107 176 160 101 156 213 206 128 164 138 
106 155 106 168 199 170 33 125 156 120 103 189 95 125 78 82 108 154 141 137 183 135 129 162 145 60 118 66 118 136 141 158 112 177 136 86 153 86 142 215 182 115 189 168 156 138 142 207 89 198 176 183 105 151 80 144 132 114 77 138 88 110 91 227 123 102 213 63 146 227 171 167 124 193 60 193 125 167 168 155 105 188 107 135 190 191 169 129 182 142 83 165 176 132 148 114 33 160 66 137 
136 148 180 117 205 89 154 129 129 149 97 179 136 176 160 143 174 161 126 104 111 159 163 202 147 129 193 134 164 188 114 155 224 170 140 112 153 120 203 170 103 154 85 184 118 189 201 194 220 115 60 176 196 113 40 143 162 153 156 128 195 144 139 162 153 75 157 116 84 137 183 167 124 133 195 128 104 171 174 37 94 201 37 151 147 167 119 144 197 116 87 106 127 122 143 135 129 134 130 131 
170 89 77 146 156 137 185 145 154 188 171 153 159 111 79 165 160 160 179 170 144 114 151 92 174 167 142 117 214 123 98 151 172 189 117 144 170 172 166 183 128 118 94 186 45 129 60 142 163 157 172 160 195 131 157 204 216 137 123 143 165 96 129 185 169 137 25 131 100 97 180 235 150 167 140 130 142 98 107 64 162 136 134 54 185 156 161 115 186 142 191 178 202 128 112 96 170 65 111 102 
107 122 105 105 92 150 64 68 141 96 74 106 142 44 124 100 89 197 122 138 107 161 148 194 154 201 107 103 90 111 25 134 159 207 180 109 152 139 195 187 186 208 123 119 190 59 103 152 123 195 155 96 100 146 140 175 197 158 185 157 148 161 134 120 128 163 125 105 153 162 127 178 139 105 146 183 165 163 189 229 195 77 166 180 126 133 117 141 130 142 167 102 173 90 111 168 84 67 53 118 
128 175 73 185 102 119 156 179 121 123 130 216 188 128 176 193 129 120 89 73 191 174 187 154 174 171 153 138 182 114 92 84 171 142 209 93 177 46 184 26 159 95 143 150 158 155 130 167 117 106 126 116 172 163 110 130 108 182 195 115 170 162 112 149 149 129 160 89 167 170 123 145 158 156 163 64 127 132 160 177 82 159 186 127 183 173 116 186 187 2 133 156 140 147 171 130 81 160 193 182 
104 173 185 105 155 105 180 188 147 69 182 157 77 211 106 150 151 71 133 129 103 144 223 184 151 150 154 110 154 46 168 134 122 188 137 179 48 154 139 155 177 95 115 117 176 138 200 104 83 177 171 172 174 153 171 120 143 106 163 130 184 88 113 170 205 158 140 102 183 186 105 116 147 195 149 190 130 154 151 191 155 138 141 161 132 160 226 210 174 175 144 90 111 158 96 164 109 108 125 180 
92 124 88 171 133 125 130 80 159 161 174 111 80 143 174 114 226 169 72 222 105 160 164 207 137 135 187 150 139 69 191 62 201 153 192 170 108 169 203 196 76 165 168 176 149 176 142 127 147 164 151 159 179 152 159 148 101 160 130 149 144 77 159 167 107 201 131 66 153 88 107 112 162 142 128 174 163 177 113 169 134 192 156 97 159 121 114 191 111 137 190 134 107 147 187 135 167 183 192 114 
178 186 94 147 49 169 112 36 159 153 117 147 151 138 203 180 140 195 165 194 145 136 136 184 81 33 163 176 156 139 131 174 177 85 198 160 94 118 125 150 112 125 196 189 84 154 132 214 233 68 188 123 179 204 38 113 183 77 169 152 185 140 75 165 166 180 130 180 182 192 46 84 47 127 157 197 71 168 170 113 102 125 110 67 215 102 133 127 160 131 215 145 134 193 161 196 179 171 204 118 
134 200 166 165 134 144 150 156 160 88 45 128 184 174 180 164 96 137 183 214 130 168 158 133 130 148 89 164 101 193 138 142 66 133 92 160 125 150 188 123 144 149 148 200 114 165 169 163 143 142 128 114 43 138 178 99 127 110 205 172 109 191 187 139 148 138 181 216 80 95 131 158 65 160 46 190 199 140 142 225 90 167 162 171 94 119 129 40 102 73 125 95 154 114 198 166 176 144 168 120 
94 146 214 53 174 159 143 169 184 157 156 63 134 146 106 134 139 85 139 202 136 137 190 171 186 194 131 104 26 152 195 142 172 100 122 176 168 48 144 179 186 207 186 179 167 87 197 155 200 115 72 144 152 136 183 207 194 91 144 197 89 147 183 130 166 27 175 157 140 122 84 192 93 106 126 114 183 168 175 187 145 161 104 134 106 204 155 119 179 63 143 106 132 138 148 202 75 168 180 164 
158 76 156 86 184 61 122 72 165 142 162 129 190 114 186 176 76 139 178 156 78 144 135 179 65 148 157 220 102 178 159 137 103 77 148 199 110 134 167 123 211 226 153 169 178 178 158 156 142 93 178 65 206 133 141 165 73 56 110 192 130 78 147 142 117 227 190 95 181 167 167 216 153 107 150 187 94 73 51 190 186 128 83 165 196 147 123 189 137 95 170 147 139 140 119 150 172 152 137 93 
180 126 90 145 148 103 64 168 136 163 166 97 174 166 165 183 89 154 164 183 117 120 169 100 123 184 135 208 172 97 113 171 119 76 150 168 192 71 171 89 127 164 154 120 138 143 115 186 157 99 106 157 109 128 170 53 147 112 223 194 128 73 194 158 142 81 110 205 140 122 64 149 121 164 101 100 137 70 179 134 152 157 146 219 164 165 177 144 141 134 183 153 109 147 134 174 113 149 110 192 
192 177 141 121 182 175 224 108 163 134 23 173 162 170 136 168 111 175 176 157 158 134 153 153 153 114 191 177 39 143 178 167 165 154 154 158 118 180 148 124 133 163 176 115 113 165 105 201 177 137 91 173 186 172 44 135 194 163 101 33 126 211 182 132 185 54 78 124 122 173 134 104 116 173 111 89 203 154 185 172 131 140 17 129 122 57 131 124 134 134 149 149 151 118 77 170 148 144 183 169 
25 84 148 162 182 98 164 168 135 140 133 90 157 158 169 131 128 168 138 155 94 193 134 118 143 200 115 155 159 128 106 208 212 148 138 137 122 121 158 188 189 86 65 222 136 199 102 161 134 196 163 25 177 128 82 111 149 82 137 145 154 112 122 129 81 158 128 201 81 154 59 110 134 193 151 160 147 200 193 157 129 101 87 83 117 170 142 144 161 174 196 115 159 127 128 98 96 187 123 151 
149 181 128 190 135 151 141 114 182 134 169 114 140 142 166 49 104 182 87 130 166 95 99 117 149 131 137 192 151 133 160 167 145 101 135 169 147 99 131 163 116 71 129 147 161 133 164 152 171 186 132 112 170 230 119 149 179 37 107 103 191 104 153 70 54 97 163 188 49 157 94 123 138 161 179 101 219 198 91 165 144 132 42 142 75 154 88 158 148 129 181 125 150 78 184 158 41 59 112 154 
48 87 130 139 121 105 173 93 138 120 169 165 41 97 139 148 160 138 195 98 199 181 129 78 172 198 74 107 186 48 58 120 137 139 165 169 129 148 130 156 147 168 150 207 100 94 182 97 116 190 117 81 211 137 133 147 157 100 110 207 169 177 55 117 168 38 116 179 100 178 125 124 106 191 183 38 128 158 130 23 120 167 100 131 105 172 120 227 132 125 161 27 188 139 156 175 151 123 209 137 
148 202 86 173 176 145 136 138 164 189 118 138 149 183 66 35 144 204 169 120 77 214 112 169 143 145 146 187 40 105 111 162 30 199 164 121 134 118 167 125 92 117 187 30 152 132 113 140 75 139 131 136 227 107 194 161 157 59 194 109 160 121 125 120 169 94 156 175 139 203 132 160 126 138 141 169 131 109 198 127 103 141 104 115 154 155 151 170 157 166 150 104 120 144 153 84 183 174 223 162 
152 159 145 224 116 172 114 104 192 110 174 68 106 145 134 143 208 165 183 119 132 167 176 128 138 170 69 191 212 87 65 170 157 152 76 183 109 189 141 207 135 141 189 99 134 180 141 162 98 117 100 188 185 85 248 143 132 173 106 164 219 110 154 97 220 154 84 155 101 71 142 186 32 123 163 150 165 120 133 110 134 135 164 152 148 180 169 88 47 174 171 45 75 137 122 131 131 170 162 161 
133 109 148 138 178 196 161 157 142 104 121 233 76 176 106 137 81 145 86 78 127 183 166 172 166 85 113 160 81 157 155 177 129 92 171 135 173 51 72 92 148 157 134 160 143 128 149 165 130 65 182 168 64 107 157 30 195 107 141 154 202 160 138 187 102 200 183 106 164 180 151 115 140 134 34 131 198 195 148 103 147 202 68 48 139 116 114 149 186 222 67 170 152 154 125 143 202 162 177 189 
170 149 136 162 12 122 198 182 190 164 120 150 133 147 117 104 139 204 150 219 105 142 153 150 162 174 179 122 142 149 131 197 165 148 183 125 126 150 168 145 117 174 188 116 83 167 218 195 147 168 198 163 130 199 140 124 78 122 150 129 204 175 146 139 134 149 179 135 180 149 116 155 184 96 166 103 119 83 120 142 204 135 42 138 127 107 205 134 130 157 52 171 155 105 130 112 135 140 88 70 
207 79 160 118 117 239 99 65 57 64 141 176 220 140 142 142 124 190 179 137 128 106 181 140 93 114 177 151 161 103 168 80 229 101 128 158 181 124 134 160 111 44 124 135 66 137 151 165 113 132 187 133 152 77 158 166 155 109 174 199 209 210 162 184 109 124 174 177 121 211 145 133 138 108 166 174 157 100 116 92 197 146 103 197 64 186 159 145 88 112 161 137 160 101 173 188 98 172 133 151 
175 172 170 137 129 169 89 133 72 69 137 185 131 141 165 137 146 134 124 194 138 185 160 138 165 187 81 167 186 144 177 131 121 123 146 190 42 162 156 172 222 118 139 174 184 198 150 133 213 186 136 165 118 112 189 47 150 120 112 192 127 201 45 145 133 53 143 202 93 143 127 84 126 181 236 144 123 164 145 107 147 207 132 169 94 142 143 156 136 24 136 128 220 104 88 184 190 213 171 192 
166 163 109 132 85 176 97 92 70 84 185 118 158 190 117 136 194 200 184 165 180 94 149 108 114 124 129 164 44 133 131 189 153 95 160 186 24 85 141 190 156 137 141 111 159 173 132 99 71 164 134 116 145 121 72 166 72 75 82 125 143 139 186 169 136 142 189 150 131 194 37 164 140 119 147 141 161 116 110 174 153 226 95 97 128 178 129 67 140 57 163 114 160 201 183 97 124 53 68 177 
204 149 197 133 76 115 139 104 49 157 113 153 171 197 63 141 206 142 153 169 163 129 167 172 176 148 151 168 146 161 126 135 124 124 56 167 80 119 178 126 171 166 170 144 109 130 138 159 170 136 132 115 223 119 161 132 28 119 139 188 54 189 135 110 61 176 45 120 129 158 193 119 70 159 113 128 168 205 147 115 209 179 173 147 62 176 51 78 104 211 183 133 181 154 119 119 164 149 135 209 
76 177 122 148 128 141 169 83 153 174 100 226 151 178 134 217 108 103 158 114 170 185 207 29 152 143 181 162 194 175 132 50 94 128 24 75 128 103 188 175 151 157 162 173 161 162 132 132 189 53 163 60 192 185 162 105 145 52 125 121 193 131 166 189 142 148 58 194 118 111 175 197 114 174 179 102 164 180 123 126 89 198 136 132 124 122 117 45 147 162 173 194 116 100 193 162 84 197 109 147 
128 84 123 100 82 215 163 205 184 138 53 80 162 181 108 157 132 126 132 100 202 164 181 127 191 152 177 104 168 179 115 169 180 85 196 121 128 100 155 163 104 165 127 216 173 190 179 162 106 125 124 77 159 125 125 140 151 145 45 131 157 127 144 104 72 157 167 82 115 117 148 196 86 119 116 175 183 114 28 162 163 78 103 155 124 123 146 148 165 53 167 137 200 96 123 153 117 124 163 156 
94 152 144 103 138 183 140 87 184 183 157 188 150 78 161 198 86 130 157 104 111 124 102 156 168 155 123 166 101 120 65 111 132 170 50 114 113 97 157 211 186 113 211 96 122 130 209 164 177 117 174 168 156 117 211 154 130 163 133 145 130 164 147 154 97 154 28 166 180 137 155 160 146 75 59 101 143 159 218 155 63 140 168 161 139 158 128 131 169 153 184 158 149 83 176 37 171 218 144 154 
102 185 168 137 152 120 178 133 167 84 106 205 166 132 177 228 207 41 140 85 129 185 159 72 183 116 174 119 202 134 183 167 156 167 135 183 148 128 194 91 89 158 117 148 137 164 143 24 51 171 173 67 97 175 127 192 86 90 118 178 141 99 192 167 69 194 177 79 85 127 161 191 95 213 108 63 96 160 142 158 178 165 99 162 168 91 185 111 170 89 96 134 190 107 84 188 184 134 110 186 
208 83 147 166 219 201 166 166 132 148 143 130 167 148 151 156 149 143 146 194 89 145 152 102 154 123 191 177 122 162 124 190 167 196 154 106 38 108 110 136 94 151 99 174 40 30 166 70 176 57 40 144 197 124 205 172 173 96 86 96 121 128 172 103 170 138 158 147 128 138 173 108 182 128 217 110 164 93 80 58 150 129 154 170 178 41 167 153 198 174 161 136 63 94 87 109 151 161 172 114 
79 123 161 89 127 78 125 151 116 136 202 100 129 185 157 124 25 224 138 158 76 140 130 71 123 109 169 51 135 105 89 70 101 78 88 186 169 162 28 106 94 199 142 149 86 155 120 79 199 156 140 114 138 181 117 192 192 161 119 149 158 163 179 127 169 133 134 193 213 98 102 183 193 200 173 200 93 124 85 178 126 65 143 133 43 188 162 186 183 148 153 109 148 129 130 167 215 165 162 113 
134 196 98 187 165 14 40 114 16 120 156 230 112 96 79 123 85 152 152 135 151 179 43 133 178 115 134 157 104 156 98 104 117 142 91 120 110 162 85 154 109 57 135 128 114 128 112 119 98 114 116 131 177 88 136 149 112 176 147 183 175 131 137 188 104 51 149 154 165 181 178 118 178 136 118 91 141 140 167 159 146 142 112 109 205 135 72 93 194 219 97 150 101 140 185 164 171 75 140 91 
156 151 127 194 24 177 168 152 108 142 108 127 65 84 197 142 193 151 135 59 142 143 178 144 140 137 213 134 162 204 212 155 155 137 141 87 134 112 159 87 52 193 103 184 150 171 162 125 210 187 88 17 192 133 120 59 161 181 70 166 182 191 175 146 31 60 134 195 138 124 159 96 129 102 88 164 143 88 132 139 140 82 190 152 146 152 200 152 122 189 145 185 129 155 155 98 231 121 81 161 
85 59 237 163 92 133 154 112 202 120 173 190 112 131 130 195 109 131 97 182 171 104 186 136 91 159 84 163 159 153 128 150 177 140 55 181 145 174 97 141 126 139 202 180 79 114 113 153 157 159 162 125 149 168 149 160 205 191 93 163 235 115 193 124 156 192 186 105 169 162 188 188 116 118 142 101 144 154 176 129 123 84 131 177 122 177 164 146 146 181 188 151 150 90 48 134 115 122 93 177 
141 85 171 190 160 144 145 130 71 170 70 107 83 160 169 173 148 132 105 164 147 77 21 134 144 151 148 119 142 184 70 116 187 156 173 79 151 108 171 185 156 100 142 105 138 164 134 132 129 216 159 94 126 149 183 195 177 109 132 169 163 121 66 165 122 168 56 121 166 158 178 154 104 202 93 157 122 127 80 220 182 171 208 235 131 179 135 94 138 142 80 134 153 158 173 102 111 168 140 122 
