P2
100 100
255
112 143 180 184 143 138 139 121 33 156 207 125 106 194 222 163 185 32 151 177 122 174 155 143 208 169 123 227 128 170 114 163 156 161 120 139 49 112 212 95 174 104 128 173 162 126 128 150 165 159 149 179 85 97 208 40 162 75 139 138 180 182 140 171 182 138 184 184 163 196 150 78 119 115 110 141 119 190 80 72 137 211 58 137 160 80 161 146 139 107 172 162 160 132 142 91 128 151 99 71 
177 47 155 27 172 140 137 90 168 128 138 114 97 144 200 197 149 207 134 146 172 133 145 57 173 104 174 196 193 157 111 173 162 164 138 41 132 115 190 132 199 101 103 155 95 135 160 163 158 180 64 156 130 63 141 128 151 83 69 182 131 201 171 171 178 136 114 121 186 152 109 165 171 138 126 163 185 160 179 190 204 53 188 58 142 183 132 157 139 161 120 124 176 204 176 181 82 93 193 168 
115 178 127 177 96 201 146 115 181 119 152 106 158 141 148 210 118 176 190 183 122 193 169 156 178 158 59 67 37 155 124 178 141 149 151 186 161 103 75 146 198 166 49 157 159 206 190 176 188 192 218 177 145 166 174 184 139 115 198 106 83 192 136 121 11 113 135 113 202 136 120 159 164 151 188 50 149 70 176 71 196 86 169 99 171 173 172 76 68 161 67 195 177 109 96 155 89 211 137 117 
193 178 149 145 93 125 141 177 207 175 112 148 78 206 133 178 126 73 143 74 175 107 203 82 135 146 132 112 56 132 84 114 177 146 101 139 113 132 147 168 174 65 71 161 155 97 196 143 121 153 158 129 82 125 106 155 226 143 135 168 63 117 209 162 135 93 140 151 151 151 139 203 102 60 186 175 175 164 167 219 128 113 194 130 167 141 106 185 178 150 146 115 149 165 123 142 34 128 166 141 
136 109 168 168 97 212 175 134 208 120 113 105 76 118 198 60 188 153 160 107 165 192 142 73 106 143 116 119 128 151 151 88 215 200 122 151 141 100 71 156 185 180 141 63 191 91 98 162 136 172 160 146 72 76 137 112 204 94 109 148 167 130 155 75 136 168 175 197 152 127 146 85 114 119 33 75 53 209 77 87 137 185 153 120 103 56 65 137 189 36 111 107 188 146 195 161 78 134 135 152 
110 161 198 153 174 157 210 173 174 209 102 168 109 136 99 165 108 165 156 239 55 117 142 140 205 81 134 178 170 158 203 187 142 134 127 131 174 109 137 151 148 155 241 122 188 158 99 123 147 85 179 162 165 174 177 117 130 171 171 206 207 147 176 90 132 93 190 156 201 101 227 197 189 79 194 121 174 134 186 119 223 117 155 185 177 158 138 153 199 38 64 167 152 159 183 66 243 166 150 155 
130 229 190 133 160 171 139 140 75 221 190 164 143 120 27 144 141 100 172 179 186 107 197 131 162 130 146 54 122 130 127 163 58 164 74 183 177 192 192 131 155 107 160 154 87 134 119 118 162 178 83 146 73 170 102 90 138 156 134 182 80 203 141 83 129 140 122 142 108 162 163 66 153 215 159 69 225 159 122 153 99 78 180 172 102 104 86 124 106 181 176 145 160 67 142 114 204 172 133 157 
185 185 109 137 119 186 167 137 153 98 105 165 225 144 169 104 156 64 193 103 140 210 158 155 132 198 187 152 112 120 190 101 166 117 192 108 106 89 199 127 148 72 182 156 135 156 147 100 103 105 152 49 149 128 86 108 49 199 160 183 143 183 140 152 103 203 80 138 151 180 197 144 199 152 118 115 182 70 46 185 114 166 227 118 67 145 115 122 93 124 47 144 147 201 150 46 113 126 78 203 
172 120 121 63 124 161 129 140 145 86 173 91 76 65 128 106 189 104 159 81 60 133 171 149 138 154 149 55 135 138 131 141 149 148 184 148 203 162 168 120 197 129 105 180 154 113 210 194 189 153 216 182 107 207 187 104 166 188 151 130 93 203 44 140 185 48 196 102 188 127 78 189 155 138 170 182 84 188 186 124 205 123 187 125 141 218 138 188 135 93 125 195 114 79 149 216 119 106 196 134 
176 162 90 151 174 127 155 109 118 158 113 145 145 70 106 132 133 227 117 202 42 148 49 97 141 70 110 168 120 169 159 183 143 132 165 163 146 197 149 208 183 158 190 158 127 157 157 161 134 129 108 163 141 62 159 155 204 94 41 182 113 91 159 187 142 144 124 94 205 197 127 165 134 145 166 173 150 59 114 123 83 174 77 201 133 238 121 125 166 152 133 168 123 94 132 147 103 119 70 212 
121 152 128 145 158 197 85 136 55 158 140 33 125 160 158 102 85 158 171 75 96 197 200 125 157 163 175 159 158 222 33 101 137 196 71 126 94 83 159 138 154 145 111 110 167 148 191 201 206 94 122 189 139 167 156 192 155 135 146 158 173 172 179 150 89 55 151 165 179 182 120 189 150 178 41 191 119 94 188 189 144 96 167 137 51 97 142 185 104 186 88 185 163 123 136 153 119 100 140 139 
154 172 179 141 86 170 178 144 100 165 153 149 216 202 136 125 105 179 135 190 89 97 173 107 105 76 74 147 110 194 73 192 178 134 109 115 75 119 96 250 121 214 191 216 108 90 113 136 178 167 194 141 217 189 110 160 60 56 190 186 114 101 98 205 199 98 170 144 80 55 175 170 122 95 187 190 175 166 194 135 121 68 126 151 88 89 147 224 176 138 184 144 133 193 146 149 94 108 118 195 
17 174 147 179 56 124 145 174 217 201 104 120 115 145 59 158 156 111 150 108 176 132 47 137 141 203 121 139 138 78 102 67 58 116 167 191 168 118 187 161 233 164 109 84 113 170 157 116 170 172 244 135 146 146 157 191 141 130 166 125 93 183 108 182 178 164 101 138 135 141 161 176 150 178 146 166 180 105 145 97 176 190 94 142 164 135 85 157 68 200 137 74 121 152 122 205 130 139 149 130 
110 175 162 81 155 75 150 104 133 166 147 103 135 145 80 164 165 185 164 125 202 121 119 142 166 128 180 218 207 158 84 214 194 157 138 65 147 166 116 127 190 189 150 184 148 105 174 169 124 175 132 152 212 170 31 106 185 178 102 98 187 102 197 105 76 75 214 78 193 158 163 107 160 227 174 169 175 114 136 85 137 198 109 65 183 143 171 170 159 133 88 149 138 115 110 122 195 43 162 58 
170 193 192 224 223 106 192 100 162 87 168 206 189 145 35 160 136 175 113 131 152 197 163 176 131 172 42 161 60 129 46 123 219 134 199 53 118 225 133 151 98 80 165 184 195 142 157 164 222 145 90 72 155 57 154 179 72 182 201 221 157 143 154 128 118 98 32 137 109 84 147 132 113 234 140 99 130 126 212 151 103 195 189 208 209 141 44 81 200 150 143 181 172 190 164 173 193 131 139 111 
168 176 148 118 69 140 127 151 163 81 69 175 112 141 171 144 110 132 161 178 170 74 177 126 245 191 84 134 137 146 205 77 133 133 127 211 196 175 164 134 182 217 145 76 134 112 110 134 202 175 125 152 141 185 135 149 62 192 193 157 93 197 36 163 156 51 74 107 160 117 180 163 129 101 191 195 169 234 163 133 142 163 174 118 114 133 104 99 124 198 135 208 128 102 155 129 145 196 136 136 
183 184 136 130 84 181 88 31 107 193 166 156 159 120 124 160 252 144 180 137 45 214 197 146 148 188 178 158 89 90 212 172 84 141 190 107 66 187 133 128 133 78 169 180 163 140 156 97 127 118 69 75 181 141 88 98 171 175 92 70 214 161 56 91 140 109 155 108 113 183 163 155 153 111 72 185 173 169 165 182 153 44 90 163 137 154 146 118 133 154 142 87 146 136 72 181 145 164 170 162 
207 95 167 159 141 155 112 139 87 161 72 89 134 158 93 111 187 70 54 188 130 181 140 105 156 153 133 243 161 134 96 168 138 222 86 102 163 143 135 184 164 179 171 94 153 135 188 90 123 143 57 149 109 173 85 76 169 120 85 113 80 178 171 122 166 207 135 200 144 188 102 127 183 153 122 150 134 151 162 148 94 159 135 119 219 168 175 99 85 116 198 109 161 149 42 165 185 124 183 122 
197 167 65 129 96 103 116 146 101 137 176 166 197 160 96 149 184 194 103 166 172 138 116 192 82 140 109 163 207 89 116 103 144 185 68 174 147 126 189 73 133 194 91 202 125 154 64 171 159 46 159 116 199 203 189 169 132 10 42 81 170 182 118 107 144 121 55 135 182 92 155 148 71 125 128 182 74 92 120 148 220 127 91 165 138 184 183 202 87 201 194 127 136 106 200 212 121 118 175 112 
148 98 66 153 153 130 116 128 48 190 114 185 73 64 139 169 164 236 167 120 176 99 150 100 93 173 187 181 206 197 111 121 153 114 167 111 161 138 181 171 117 130 134 144 138 126 195 176 49 195 156 124 153 123 113 131 181 184 170 136 68 141 213 143 77 148 118 103 182 74 194 85 98 158 86 146 169 183 101 125 139 114 100 80 197 123 165 169 93 150 151 136 149 113 187 152 63 145 41 164 
168 134 197 104 187 162 147 197 144 106 105 156 124 144 134 184 126 171 61 108 106 153 144 143 154 135 144 110 117 55 104 165 122 202 92 152 64 125 112 203 143 157 89 196 146 107 178 123 143 125 191 77 178 94 203 178 179 126 139 158 151 64 113 187 187 213 176 56 180 140 114 111 150 221 107 165 182 90 125 80 116 132 158 145 165 145 126 77 112 182 159 118 111 138 180 85 183 193 171 176 
98 147 176 168 175 190 136 116 54 187 143 127 170 156 219 158 143 146 149 201 105 168 139 122 137 60 173 111 76 137 127 150 189 145 151 164 127 140 127 147 74 88 159 156 134 100 91 187 150 170 78 129 81 131 52 177 138 138 179 179 75 123 149 75 178 163 167 139 121 63 115 133 148 176 150 75 123 116 109 58 126 98 127 96 109 198 102 105 173 209 228 98 122 159 135 186 206 125 22 170 
193 175 108 172 133 157 39 206 104 22 154 183 151 151 94 113 81 129 69 103 89 97 138 131 157 63 101 125 157 194 199 112 117 211 130 144 126 202 57 128 91 183 123 127 94 165 115 106 210 125 204 81 76 135 97 151 151 166 124 138 102 164 197 152 205 230 118 177 81 117 183 135 130 161 162 117 168 149 191 137 145 86 158 216 106 182 187 53 152 130 196 162 183 93 156 152 119 157 101 84 
136 117 196 120 155 54 119 182 106 138 162 179 109 204 96 181 127 106 127 183 177 86 112 207 86 72 161 151 135 133 103 89 183 153 149 138 89 162 112 154 103 164 123 162 170 81 157 190 119 117 107 146 163 167 132 138 152 192 116 100 93 158 117 125 99 104 154 213 140 143 184 157 183 140 172 89 149 177 149 151 157 59 67 23 163 130 145 175 173 159 118 113 45 100 136 166 119 181 150 117 
233 191 165 123 207 166 83 61 166 109 178 82 80 46 162 78 156 164 162 126 77 174 116 158 140 135 87 82 120 89 64 134 92 146 198 167 117 191 157 74 191 157 160 194 113 140 215 132 150 54 112 104 143 162 130 174 197 152 177 166 177 102 216 106 173 152 9 125 178 176 172 100 164 140 170 104 168 135 97 186 123 66 136 144 135 169 190 46 166 115 135 155 223 165 128 82 100 145 152 101 
130 159 171 117 127 139 46 153 142 140 194 135 121 113 119 94 174 211 163 136 184 218 137 157 132 102 184 136 181 157 131 194 163 173 148 155 110 145 203 119 199 207 130 151 73 147 155 143 146 125 182 166 176 56 176 78 157 168 117 161 162 158 108 165 81 53 125 58 180 57 122 106 156 142 134 81 163 80 159 87 110 155 185 107 128 174 144 164 114 87 160 112 186 119 130 184 187 110 94 111 
96 145 87 84 106 133 162 114 191 56 140 196 126 170 157 156 159 137 185 153 197 172 116 179 142 91 191 226 167 134 160 168 60 76 47 112 131 146 162 88 74 119 144 154 42 91 116 124 110 176 106 154 123 201 88 65 136 119 171 181 105 144 143 152 82 175 147 146 101 120 104 197 152 103 80 202 127 162 184 219 140 153 141 81 160 124 99 44 168 94 154 149 159 154 102 89 192 196 172 179 
99 101 204 162 115 138 146 172 89 162 157 164 217 206 165 147 101 137 133 153 156 180 118 170 169 190 162 151 159 166 168 192 176 185 80 99 88 141 120 148 205 132 168 149 177 123 129 175 172 150 134 180 99 112 88 115 148 126 121 91 192 133 127 133 162 131 162 152 108 149 227 105 155 209 143 174 201 132 106 151 85 178 76 132 153 218 94 131 161 181 178 166 135 172 171 197 113 137 146 191 
162 48 152 161 95 160 160 183 111 180 102 123 78 140 88 178 204 197 186 154 168 178 175 121 200 198 165 191 96 132 197 117 147 168 142 158 158 96 189 217 166 240 102 166 149 166 81 153 46 59 92 172 181 146 164 168 166 179 180 122 170 144 136 176 145 174 154 163 110 158 32 130 122 186 166 145 148 164 147 156 147 201 79 138 160 135 131 86 153 111 119 122 88 118 100 174 147 168 118 158 
99 80 154 95 226 204 154 101 141 121 136 115 185 168 193 190 135 142 161 156 167 146 122 87 143 93 162 102 157 156 101 163 154 149 141 118 115 82 115 191 151 146 168 166 146 138 153 93 175 167 109 87 123 148 157 36 149 84 185 143 206 67 148 174 132 160 69 92 31 120 102 141 119 120 143 49 141 137 129 182 185 67 239 82 117 94 151 190 141 125 153 139 167 217 145 202 98 130 171 180 
202 212 125 163 99 68 108 211 144 84 181 181 61 74 145 179 116 99 92 88 165 112 128 151 118 143 159 193 203 184 149 138 162 186 187 139 130 114 177 166 167 89 212 148 150 24 114 177 83 98 76 158 167 185 134 95 127 159 119 121 44 137 143 195 177 172 144 172 127 203 84 159 112 174 164 184 184 147 190 111 202 163 181 165 176 187 160 102 34 155 119 125 161 169 120 150 161 142 163 175 
137 136 151 156 112 143 143 173 144 125 95 170 129 73 164 128 182 183 235 118 163 125 208 91 180 180 132 78 168 92 185 59 82 139 159 129 171 180 164 159 132 142 183 179 140 124 157 164 94 95 186 136 211 116 172 173 141 122 192 111 168 135 163 129 141 166 220 169 198 153 134 124 125 116 122 176 170 183 123 127 118 149 65 154 170 34 162 150 203 172 152 120 151 128 144 131 140 161 136 179 
176 216 117 125 94 180 183 140 143 109 126 80 201 130 217 156 91 166 95 113 66 155 188 134 144 45 174 91 135 75 137 179 150 97 149 195 133 140 156 158 48 197 110 94 181 242 173 130 176 216 179 44 147 154 98 144 152 147 122 80 158 62 153 103 217 126 189 93 180 81 80 96 171 220 218 155 169 195 147 186 170 175 118 109 112 106 174 177 162 78 132 147 119 196 107 206 158 202 168 134 
182 137 82 191 136 189 135 96 77 153 115 163 153 56 185 156 128 159 165 180 168 20 183 193 111 196 114 200 162 92 164 93 137 202 93 150 169 198 134 163 195 104 134 164 130 116 87 146 170 173 36 170 177 79 160 180 135 124 134 84 204 180 127 153 139 144 175 204 147 188 185 157 145 186 64 136 132 143 95 113 168 132 91 176 128 53 178 148 88 109 128 228 191 220 202 136 147 173 175 208 
99 137 144 165 186 162 145 121 184 103 145 192 137 172 185 136 51 145 142 101 160 70 172 131 146 99 29 101 171 141 160 191 85 129 164 178 109 130 129 154 152 74 161 146 133 149 180 174 67 189 154 90 130 152 115 175 186 139 214 108 69 169 207 143 99 187 97 72 149 192 134 127 147 142 33 144 118 70 136 122 149 121 156 150 101 76 147 116 186 103 51 156 49 199 110 142 102 115 160 118 
25 185 174 210 179 93 155 77 73 128 227 77 184 160 112 112 59 143 107 143 147 142 107 36 150 166 107 160 195 175 53 139 72 200 72 205 158 143 114 191 168 192 180 122 179 159 142 67 213 124 139 204 90 149 148 27 147 106 142 76 111 140 146 166 166 85 56 135 112 139 189 73 174 170 158 191 141 134 141 183 176 135 171 131 147 90 133 116 129 163 153 103 152 150 100 105 179 162 138 90 
159 123 166 100 218 127 173 192 197 181 182 201 147 99 43 141 123 158 71 79 177 206 209 184 144 88 153 111 104 172 181 109 87 203 80 115 176 159 78 55 176 121 141 158 151 198 126 163 120 182 150 92 86 39 106 117 124 151 140 141 227 180 144 115 101 107 151 116 151 150 204 124 135 124 182 196 125 131 153 169 77 57 141 172 208 175 144 124 127 75 70 111 95 187 137 130 73 75 187 121 
108 189 33 151 203 231 52 174 111 142 123 160 178 225 171 141 121 111 118 172 56 135 152 76 140 126 186 194 105 202 148 96 119 156 96 157 170 171 140 146 125 101 88 176 164 181 150 151 106 154 146 143 136 148 188 95 139 178 178 137 87 185 151 109 170 128 180 150 157 133 134 159 37 193 198 159 143 184 102 184 165 120 152 157 86 186 122 171 142 149 143 143 175 153 114 48 123 151 148 137 
230 140 151 128 151 51 214 167 239 196 211 161 108 104 189 167 162 189 119 175 88 35 162 68 33 159 172 105 219 126 191 86 133 194 175 181 179 163 207 120 166 146 157 117 159 166 136 149 165 127 91 47 162 104 100 104 185 115 105 138 91 184 172 130 60 200 169 186 137 79 147 150 175 81 142 170 100 108 155 171 147 126 119 73 193 134 105 97 167 186 128 73 152 103 192 222 131 64 102 112 
139 123 211 147 165 174 178 117 53 145 84 155 202 79 84 127 165 154 132 139 224 164 107 135 141 82 151 166 172 62 64 86 159 125 136 179 179 96 134 139 173 136 166 137 124 86 148 79 121 56 135 116 141 128 187 52 167 161 166 172 169 54 182 133 73 213 156 97 172 52 106 89 142 157 79 170 134 125 169 125 161 200 175 77 152 92 175 178 139 140 169 117 149 163 162 100 123 74 178 137 
83 181 126 68 139 119 93 142 153 185 113 219 88 161 100 109 144 194 183 166 78 175 36 9 141 166 194 169 134 137 161 107 123 207 78 38 202 137 144 193 55 145 134 117 122 151 206 45 155 95 209 96 191 114 156 130 122 68 148 127 132 179 133 169 130 100 168 213 113 112 92 191 81 169 82 162 69 203 172 112 149 91 159 128 111 138 201 148 114 111 114 98 163 194 190 166 112 115 79 109 
189 51 110 129 111 80 141 221 143 143 148 164 30 162 147 130 149 159 199 158 68 181 141 111 140 141 150 107 153 166 119 182 132 25 191 144 156 165 80 145 112 164 54 155 194 169 199 130 126 192 142 172 212 129 132 124 123 130 85 168 106 195 182 147 208 176 90 157 127 177 120 163 135 106 97 146 119 169 174 89 180 159 57 158 145 130 185 173 86 125 144 149 182 132 108 127 195 158 215 84 
164 157 117 45 194 145 135 185 142 196 169 131 109 95 85 197 142 120 110 143 86 98 141 165 206 170 130 203 117 206 174 141 107 169 113 180 91 161 111 98 182 37 143 158 107 179 144 199 162 216 148 141 75 55 78 246 182 191 90 169 83 166 160 38 191 84 85 100 101 72 103 140 49 124 142 121 49 170 106 201 131 209 137 204 168 160 159 127 87 179 152 36 144 174 165 139 191 176 177 221 
145 126 135 123 152 114 157 53 171 86 142 166 146 121 180 82 167 89 176 55 180 126 164 221 179 98 122 198 167 138 63 142 189 186 72 189 170 175 192 186 151 193 175 142 128 99 119 185 187 173 148 59 122 162 67 162 168 179 86 16 128 143 226 72 109 176 131 148 123 131 86 153 185 149 156 140 167 103 40 178 182 210 140 156 151 96 160 203 170 213 184 171 188 85 79 135 152 182 166 177 
123 159 134 208 114 122 79 187 119 139 66 183 132 187 134 161 110 97 96 112 200 130 77 137 108 126 220 151 63 119 153 98 158 174 158 163 42 184 111 173 175 61 110 137 123 134 163 137 194 92 190 177 72 116 157 186 185 136 168 179 109 167 157 121 198 124 141 178 188 113 187 140 149 107 126 177 78 136 124 210 138 156 142 209 117 131 71 95 176 196 199 116 153 192 148 160 150 169 112 103 
224 211 127 105 199 152 171 151 176 162 86 93 158 154 156 214 134 195 168 161 108 137 119 148 141 152 58 83 106 113 130 136 137 93 172 195 139 179 192 116 174 167 195 122 155 130 181 59 138 69 208 198 92 28 129 153 119 121 42 114 95 149 147 103 175 154 130 124 108 160 177 158 156 107 157 115 179 148 164 149 180 187 177 143 175 179 141 156 194 176 117 69 121 148 162 119 197 188 197 166 
85 158 197 47 159 34 85 178 175 111 56 175 162 121 204 179 151 189 198 80 142 121 69 188 175 161 52 183 171 89 144 172 157 196 100 140 132 169 47 130 141 143 174 156 166 116 141 169 201 77 161 196 184 104 102 119 165 134 158 138 129 115 185 141 190 92 194 134 38 188 180 175 211 236 146 132 124 185 144 144 89 134 150 173 132 142 132 168 135 105 158 140 176 183 90 146 68 142 71 125 
106 114 160 115 174 108 171 96 193 221 190 28 201 148 150 155 200 196 194 147 154 201 174 165 182 100 164 128 147 173 162 161 142 182 223 116 188 119 136 108 74 226 188 129 190 136 106 66 72 104 130 102 54 114 209 107 204 98 129 163 136 96 58 166 161 190 172 98 170 160 162 161 177 132 104 116 48 164 127 71 64 128 81 182 109 209 150 158 86 187 212 132 134 127 150 185 159 146 153 134 
137 169 169 165 150 100 126 148 142 113 151 134 240 188 161 69 144 196 161 213 156 137 57 154 146 107 173 155 74 198 186 153 139 192 186 216 193 171 186 159 187 205 188 151 192 100 116 186 105 150 183 96 149 127 72 148 228 155 168 204 136 172 146 118 160 123 96 40 211 123 206 155 144 144 168 201 144 185 196 241 128 153 87 151 196 163 114 155 52 136 150 112 135 174 173 148 199 171 150 38 
125 106 205 149 221 145 151 127 45 147 168 179 111 173 64 56 178 169 194 124 119 232 122 94 153 171 190 153 190 125 124 163 141 89 190 107 171 141 161 204 188 165 186 74 115 101 99 178 123 157 178 153 168 145 112 132 120 212 171 154 181 134 179 126 142 117 126 184 121 116 56 140 115 123 61 133 116 67 141 149 182 191 140 174 170 88 155 98 50 115 94 139 120 126 168 162 177 79 180 205 
139 174 168 137 78 172 113 184 143 145 135 58 89 133 136 167 111 105 151 83 57 177 137 156 178 174 148 131 158 138 12 148 135 187 129 127 157 103 178 55 179 163 152 46 110 143 177 155 193 186 199 107 77 181 216 189 158 52 126 180 172 184 102 158 60 42 179 169 224 140 180 204 101 71 110 97 116 133 157 140 183 191 72 189 88 201 156 140 100 188 165 139 157 135 156 107 151 92 110 127 
153 172 176 152 148 94 187 75 103 156 154 129 111 119 100 184 77 204 175 167 167 47 125 152 182 192 91 189 120 208 187 201 137 172 146 124 143 168 167 146 155 154 148 130 151 119 154 108 111 68 150 174 104 132 175 197 140 144 208 120 133 168 125 62 211 132 170 214 226 147 157 218 146 155 162 172 60 141 55 126 118 158 137 135 149 160 167 105 55 167 144 100 135 139 132 142 89 180 120 115 
97 105 113 134 70 155 178 149 175 151 136 161 202 153 149 71 168 105 33 17 166 160 27 196 105 164 143 108 174 140 193 112 199 150 193 113 144 130 178 149 160 98 167 147 180 138 178 77 114 149 153 165 105 160 130 174 215 138 132 176 175 136 125 50 40 144 201 103 133 193 126 45 148 136 225 110 84 169 167 191 146 163 128 187 148 68 137 126 75 160 118 143 127 132 105 155 169 154 52 198 
189 162 89 136 181 98 135 93 161 55 194 174 95 128 196 122 156 105 110 127 144 189 183 161 145 152 154 207 116 218 151 169 195 161 130 115 200 214 178 222 141 87 176 65 140 139 190 152 101 166 207 136 165 199 188 92 174 157 148 74 152 171 86 132 96 116 104 99 218 37 116 217 176 165 105 138 167 118 101 158 162 82 120 191 176 126 192 181 84 77 122 135 53 148 133 78 152 210 127 148 
89 95 142 136 152 177 125 145 155 230 178 142 188 99 146 65 162 105 199 160 199 197 144 175 163 83 93 158 150 154 111 190 123 175 145 98 106 144 90 166 123 65 179 123 179 150 158 201 157 178 164 152 206 150 127 137 152 125 134 124 153 175 90 131 91 105 200 97 186 128 186 88 155 122 180 141 140 74 142 194 191 195 224 182 117 65 242 132 154 27 94 164 43 70 201 167 130 195 169 129 
118 117 132 142 116 80 206 94 122 90 157 152 114 176 104 130 161 155 178 153 162 129 139 108 141 184 148 58 112 145 160 103 192 101 170 101 218 91 162 114 125 101 79 88 110 98 120 149 140 189 155 56 130 126 181 161 89 64 73 67 166 119 101 179 113 117 72 194 121 168 114 122 99 132 121 83 199 172 47 200 181 102 147 177 97 132 30 188 166 148 147 60 172 30 83 112 107 121 108 153 
162 153 142 74 127 70 171 179 53 173 137 213 85 154 222 201 143 73 161 140 178 170 171 78 101 205 140 176 107 120 173 119 164 160 221 148 108 182 178 178 131 105 179 153 160 125 154 162 92 176 168 71 153 92 204 108 232 103 108 86 180 190 132 202 133 187 69 104 92 53 179 179 76 166 178 111 136 187 174 170 140 170 118 149 237 96 193 76 171 177 150 148 134 161 56 64 164 157 177 73 
147 169 125 170 165 168 192 148 132 104 155 141 113 185 149 121 142 183 36 178 134 169 188 74 119 191 195 127 159 111 124 126 84 132 94 188 170 80 140 77 157 79 121 164 170 129 126 215 126 112 154 167 152 124 160 159 79 138 135 185 184 122 191 176 128 141 90 75 108 25 108 160 134 147 123 214 201 137 150 166 85 167 98 148 212 186 148 104 142 139 119 104 163 82 23 146 158 154 142 162 
132 154 149 142 149 83 140 155 182 43 142 164 184 100 121 167 111 41 112 190 158 179 203 198 101 92 177 134 107 149 170 59 60 173 136 162 147 183 133 167 45 154 124 134 81 146 185 106 131 156 213 106 155 195 135 103 216 119 158 80 175 134 160 211 180 167 199 163 109 122 148 123 138 139 38 112 138 188 127 138 126 170 147 153 191 136 116 58 136 190 190 132 132 92 91 206 125 139 163 144 
66 118 179 131 201 154 158 88 117 171 92 59 136 147 154 88 201 30 116 216 214 86 112 48 192 173 136 89 167 176 191 152 105 196 165 171 124 146 110 174 220 68 165 99 93 97 151 103 179 154 60 167 124 150 160 79 110 203 164 138 160 146 170 96 162 158 130 120 105 143 105 128 113 59 140 135 64 180 124 173 185 196 182 27 106 108 102 113 178 95 165 165 142 193 150 128 127 56 122 79 
156 76 151 181 147 208 97 223 175 93 166 166 174 92 154 188 156 193 145 97 129 86 142 99 121 127 186 200 150 123 166 137 136 125 139 157 146 71 196 77 174 189 108 117 132 109 211 156 180 142 66 176 196 181 106 197 125 124 102 190 118 199 159 149 136 159 138 190 164 90 200 151 141 86 131 184 83 71 120 77 119 86 149 156 129 103 82 192 168 76 129 100 136 42 79 169 142 177 172 83 
128 105 118 100 67 101 173 57 155 139 35 199 117 62 117 101 159 187 195 193 193 123 131 197 224 140 159 74 218 133 59 92 175 92 111 135 120 121 129 124 141 145 145 215 222 179 201 168 112 178 107 192 183 173 174 57 132 145 108 96 111 132 140 135 181 145 160 165 97 30 190 142 189 176 129 143 195 62 169 133 103 184 162 169 151 98 123 101 127 143 118 90 61 146 71 120 166 114 36 145 
139 148 116 133 105 123 128 193 187 106 100 59 17 119 147 235 117 199 137 196 179 123 169 156 129 147 102 127 148 86 211 44 144 111 201 148 108 118 183 94 121 169 137 159 189 188 45 177 71 83 120 129 119 173 111 88 138 120 174 165 185 185 149 82 26 191 90 171 97 147 117 115 155 118 151 188 117 110 182 140 165 177 151 166 155 150 131 191 65 116 125 149 155 128 118 150 159 208 138 124 
88 137 121 165 135 109 111 41 117 168 43 80 61 53 135 167 156 127 174 109 106 163 187 114 177 113 45 151 153 129 153 169 129 151 162 125 135 157 180 139 173 105 193 156 200 169 196 170 186 86 161 69 119 209 174 152 42 92 123 151 80 216 72 147 181 136 170 150 152 101 177 145 139 16 53 134 126 178 180 167 190 143 140 142 173 63 174 132 149 40 163 160 135 119 105 168 101 39 175 172 
169 158 104 165 135 129 107 101 128 96 161 163 193 176 178 179 108 195 153 105 193 143 241 179 135 170 148 185 149 73 151 118 99 186 63 117 179 88 127 135 77 143 108 161 132 54 214 119 117 176 53 187 81 131 135 80 152 157 129 138 138 199 143 55 36 105 241 215 167 123 98 58 137 144 104 68 129 100 113 153 126 156 120 155 168 139 115 176 171 111 99 192 184 172 89 137 181 132 135 106 
146 152 73 122 184 202 89 156 221 110 152 185 187 202 126 114 95 64 100 147 123 86 88 112 167 144 96 104 129 199 107 106 160 189 197 190 180 125 89 166 38 200 164 78 150 99 165 60 174 140 144 161 99 87 172 145 141 141 184 169 199 31 144 88 103 125 72 171 145 108 135 167 135 145 134 56 124 177 157 115 99 99 150 86 124 126 120 70 118 141 148 124 119 180 140 85 157 151 132 166 
65 118 117 152 202 144 102 190 213 172 164 161 131 184 21 78 179 232 142 198 106 134 105 139 195 174 191 32 129 141 100 80 122 116 113 84 108 172 145 163 157 182 156 178 120 169 124 138 195 207 170 108 188 100 163 155 184 77 101 194 182 91 124 172 175 114 149 186 177 197 105 124 191 182 147 175 184 167 219 158 136 196 149 162 155 210 182 141 162 149 188 44 59 133 151 127 214 87 162 129 
150 180 86 178 101 75 120 184 226 119 195 204 58 24 133 123 77 177 200 121 166 207 167 180 72 193 125 100 137 117 165 122 109 158 93 222 89 105 125 151 108 151 113 143 171 130 115 117 162 176 165 110 139 212 192 152 202 145 116 160 156 205 143 150 175 164 190 40 186 130 79 177 113 141 152 134 157 210 111 168 183 165 189 154 156 125 190 138 142 182 220 67 179 138 78 182 74 153 92 33 
144 177 94 83 168 127 173 195 211 198 131 121 46 129 173 121 186 189 157 160 116 192 66 182 144 177 108 175 186 144 155 122 163 116 121 107 202 126 183 70 99 156 109 141 96 146 177 92 192 208 154 145 122 191 192 146 180 183 127 155 196 97 118 145 126 177 144 93 140 200 135 163 144 126 77 140 159 57 106 173 178 193 141 162 134 109 162 121 73 113 212 211 131 190 175 170 106 118 181 175 
69 184 55 110 171 135 191 127 167 201 154 130 149 59 93 108 202 212 144 127 114 179 162 86 154 169 105 90 117 142 123 197 106 163 106 176 132 165 158 129 165 147 91 87 186 150 112 161 122 189 84 137 99 187 165 143 120 172 182 92 161 135 120 144 121 194 149 153 183 226 37 117 152 150 135 138 182 76 130 129 225 138 172 126 164 124 178 176 69 142 143 185 185 242 111 81 75 177 170 172 
158 144 209 140 123 195 101 173 100 143 158 142 141 170 217 142 140 182 141 118 177 96 114 137 104 39 199 123 125 185 159 145 193 157 167 184 61 215 135 132 131 112 132 68 208 103 145 95 176 109 100 95 148 148 189 104 104 87 127 179 49 183 147 67 158 199 124 149 143 173 149 112 120 142 159 82 55 196 106 68 122 112 29 74 125 134 153 165 110 143 147 75 200 201 224 74 119 165 138 81 
143 228 163 139 179 186 163 186 147 158 205 84 130 101 143 96 161 98 149 83 112 160 57 181 180 180 162 175 162 158 126 162 76 134 164 206 170 162 173 118 174 142 99 165 202 114 148 61 212 87 151 125 190 153 57 112 184 175 59 63 176 161 183 180 160 109 179 100 61 131 142 120 132 230 103 156 89 185 142 99 85 156 160 190 168 82 161 169 136 155 137 185 139 99 128 154 150 164 129 170 
116 119 190 108 198 109 187 135 158 62 178 118 175 189 159 168 188 140 163 94 80 231 191 138 105 145 113 147 109 117 145 110 60 205 169 151 153 215 101 149 174 135 81 121 228 121 119 155 145 189 155 132 137 50 96 58 160 87 184 126 144 231 159 163 192 119 148 160 167 122 121 134 204 94 132 105 158 149 171 68 97 150 126 181 130 91 171 149 154 167 82 181 122 137 186 49 188 93 149 205 
122 146 183 150 195 171 235 162 179 158 178 151 40 151 169 76 162 107 166 130 89 145 74 69 100 148 147 126 145 192 172 155 159 168 115 122 90 139 156 108 116 100 214 121 57 184 138 151 132 172 132 194 117 149 70 177 182 122 124 146 83 200 142 163 131 75 131 157 36 136 37 127 163 130 92 197 165 97 117 202 92 165 143 168 73 191 113 152 191 150 71 109 128 197 164 135 147 157 178 68 
143 199 135 166 149 143 115 153 195 170 155 109 147 52 161 102 124 142 122 62 179 137 140 38 197 98 54 183 82 157 155 89 101 142 181 164 78 163 137 86 37 206 65 78 80 96 158 168 142 175 130 164 199 151 80 149 141 65 145 52 170 28 137 134 56 125 145 134 106 144 114 132 88 195 183 206 45 166 86 223 97 139 141 131 79 184 145 136 135 133 103 19 125 73 149 152 169 81 164 207 
94 164 147 17 126 148 84 69 152 106 202 91 163 177 162 102 161 150 182 191 150 110 165 163 125 80 68 147 130 104 215 153 154 70 146 226 62 136 167 197 60 114 216 149 172 175 171 99 73 51 139 176 179 76 148 77 155 156 149 47 166 110 107 148 140 183 149 104 138 156 54 148 182 133 156 130 106 196 143 119 144 94 194 183 175 124 116 134 116 196 137 161 128 162 113 103 199 159 181 137 
190 86 112 98 185 142 193 152 91 130 63 217 133 106 168 145 222 137 150 175 194 173 147 87 138 54 217 159 205 165 183 120 201 193 165 189 133 166 212 177 130 86 191 133 176 29 128 138 194 143 169 116 182 141 138 150 129 142 172 63 156 130 116 215 148 121 91 154 160 174 143 111 136 128 134 145 120 138 180 164 110 135 189 186 100 204 167 122 110 191 235 86 155 156 154 40 174 71 140 86 
190 201 110 155 185 120 73 178 144 46 200 199 154 152 147 219 84 151 172 177 149 60 163 157 82 153 153 195 99 166 99 114 113 119 180 166 134 140 165 89 103 135 142 107 204 100 191 135 117 167 136 149 199 150 118 123 108 121 196 123 143 115 173 148 129 92 147 136 140 217 133 97 165 126 102 152 192 118 125 179 120 189 87 124 148 156 128 137 120 52 78 103 57 78 179 203 168 143 140 130 
186 141 117 102 179 150 188 86 59 163 187 184 212 196 118 76 77 129 182 182 142 209 204 123 141 164 212 185 130 107 148 150 136 189 92 175 203 76 159 201 137 185 77 166 144 123 214 174 174 114 48 160 52 149 137 191 157 150 159 206 146 189 133 81 64 157 185 74 211 182 108 90 160 173 66 233 83 184 103 154 110 96 118 171 154 96 164 102 112 129 145 153 118 128 68 200 162 172 70 134 
164 209 170 198 117 72 144 155 83 153 97 121 69 131 153 173 126 151 194 115 148 115 60 170 149 133 197 214 128 90 88 159 95 148 144 195 212 186 160 156 132 136 152 75 169 177 129 150 197 149 153 116 186 175 25 72 192 91 164 148 80 186 158 152 177 156 127 94 66 142 119 133 187 128 156 103 164 146 154 114 147 137 159 96 75 150 83 133 131 130 117 155 200 70 177 50 193 62 162 116 
171 83 161 173 121 176 112 118 171 132 134 171 174 129 111 103 129 205 149 142 137 119 109 182 166 63 140 88 177 146 187 88 73 181 82 171 148 114 78 145 164 186 106 67 174 173 161 154 172 125 77 184 186 192 167 100 63 115 151 72 113 99 128 216 174 164 200 157 44 145 121 103 138 77 170 135 151 111 121 143 94 183 84 158 40 128 164 202 146 136 130 152 138 133 168 17 181 201 52 188 
138 120 146 199 82 141 223 130 179 192 176 167 143 128 168 125 167 206 91 58 174 104 161 141 168 124 137 121 123 174 60 126 208 141 200 109 191 172 98 133 161 175 135 156 128 85 140 154 152 187 165 122 94 178 199 184 171 132 126 90 137 105 39 98 34 87 131 97 165 154 137 125 204 159 120 105 136 194 119 96 166 151 112 57 151 168 118 126 211 124 38 68 107 170 92 88 126 117 154 188 
149 70 164 78 159 146 65 181 139 65 101 149 152 193 166 136 132 71 148 164 233 142 110 116 148 105 118 126 174 122 197 139 159 147 105 206 200 179 102 132 231 177 61 75 124 113 177 54 112 150 187 134 187 149 152 165 187 83 158 151 139 107 164 208 189 129 136 162 149 168 151 154 161 141 105 165 119 183 179 191 159 129 168 147 169 77 118 159 112 148 86 126 187 62 161 197 178 180 175 147 
123 152 171 97 185 127 167 142 201 201 172 121 132 135 154 190 83 43 176 107 151 169 154 115 173 197 183 155 101 105 131 96 152 144 85 146 215 156 97 20 174 116 78 90 149 127 22 177 153 130 151 157 175 177 168 75 123 44 192 97 151 139 114 164 89 158 81 98 187 148 54 200 149 211 162 87 167 135 126 204 152 123 115 185 165 194 150 66 115 156 158 165 149 136 138 212 87 195 121 93 
126 159 172 185 44 138 120 151 93 171 130 109 148 132 178 75 160 102 214 110 150 145 142 119 189 158 123 119 118 55 171 167 158 232 135 152 99 163 144 134 134 164 156 179 129 146 150 120 126 179 222 109 171 126 110 178 106 192 135 165 85 140 188 159 145 88 217 88 129 131 198 116 106 169 176 187 161 122 110 169 100 72 176 171 130 109 71 67 233 198 130 89 133 158 45 161 166 163 96 151 
150 62 137 215 152 132 65 146 134 170 105 156 36 163 207 173 117 106 190 158 211 147 162 225 139 143 189 72 178 151 76 175 195 186 203 139 98 191 198 85 102 120 135 83 174 154 145 200 85 171 186 151 124 171 94 128 125 179 177 190 133 115 128 170 22 126 136 140 141 167 224 191 134 162 193 99 192 119 193 121 150 182 101 128 154 165 202 195 188 179 107 135 182 146 110 177 134 60 124 156 
165 196 132 180 151 221 143 137 143 107 150 176 164 211 141 187 154 140 173 191 190 90 95 125 85 66 122 154 177 169 181 138 148 133 141 119 192 232 165 64 100 121 120 66 155 138 100 137 108 143 151 126 117 96 127 91 192 148 157 127 171 114 201 129 181 28 145 138 175 122 39 95 182 147 94 104 152 168 57 161 146 148 79 188 193 124 168 148 144 177 201 95 148 186 149 145 63 56 148 113 
71 80 174 211 192 144 106 88 142 197 102 192 133 163 191 177 163 134 143 149 168 104 149 116 123 104 159 186 177 169 133 118 40 123 144 153 119 135 70 163 102 118 128 173 59 151 145 66 120 97 142 160 158 141 135 209 19 126 119 74 133 97 191 134 200 105 124 37 146 182 159 158 213 101 237 218 92 83 199 77 131 116 74 162 194 162 160 146 165 65 180 189 166 204 164 138 135 126 167 119 
46 63 113 63 37 157 223 95 129 128 113 129 133 167 203 118 174 57 142 147 115 150 209 190 91 112 189 139 159 141 148 187 128 179 110 115 127 146 155 199 109 135 122 134 196 208 110 80 187 132 149 52 220 162 182 114 155 161 156 206 197 170 121 142 110 146 137 135 194 142 101 170 69 132 109 195 81 158 41 140 160 43 150 115 152 197 168 177 205 40 175 185 161 127 71 129 159 188 76 136 
186 164 116 171 112 35 217 112 117 142 95 74 121 227 103 180 131 138 135 164 54 179 101 144 64 124 166 134 96 99 172 152 78 175 180 156 165 214 160 114 97 63 157 150 145 200 133 82 53 187 132 33 182 143 124 141 122 130 116 158 33 98 111 98 117 136 127 161 144 214 124 174 115 125 146 82 133 102 190 184 131 121 149 139 150 137 163 152 200 152 151 162 127 175 188 166 154 81 110 227 
94 177 119 191 163 204 248 171 167 102 224 192 112 76 195 139 189 123 97 135 193 125 137 155 127 143 106 193 109 91 145 148 174 224 89 151 97 176 147 109 152 181 148 163 131 71 44 134 50 155 156 202 156 149 159 108 112 122 124 58 173 179 138 101 179 139 168 165 191 102 134 59 118 188 144 126 130 151 191 127 149 164 110 196 63 141 34 183 119 191 111 112 96 112 157 109 91 162 182 161 
213 126 168 51 193 110 184 92 101 154 152 164 179 186 167 46 136 177 139 159 147 140 195 98 146 69 127 185 134 229 139 106 94 145 152 70 109 168 142 180 172 67 189 152 178 128 163 89 52 125 192 197 138 190 100 119 118 137 112 84 141 121 141 133 170 208 128 136 186 176 120 91 194 87 161 111 128 188 145 167 195 69 160 167 92 148 141 165 134 195 122 133 173 84 122 109 114 132 193 147 
102 164 138 84 159 158 213 35 188 141 61 142 141 196 164 168 44 151 180 174 105 133 182 98 158 174 152 65 136 122 100 106 124 128 150 125 143 155 114 142 105 85 195 181 129 114 152 155 189 38 228 127 113 122 158 149 80 173 99 76 181 195 145 144 120 161 70 76 147 42 64 136 100 122 201 91 135 144 89 141 81 169 89 36 160 103 182 119 119 165 187 87 60 87 155 147 118 162 111 112 
89 187 144 92 180 151 173 118 186 147 146 140 129 179 133 205 190 202 154 165 77 150 89 121 153 58 152 99 188 123 152 24 181 204 185 122 189 157 206 210 230 95 137 183 161 214 159 205 161 143 143 174 188 37 184 139 79 135 188 190 193 168 114 128 133 210 158 197 68 144 88 143 112 82 176 211 141 176 162 124 125 134 84 176 144 189 115 194 204 155 202 121 160 178 70 122 141 154 116 191 
57 157 161 129 116 90 191 139 149 110 121 134 227 165 35 138 116 83 58 177 139 173 175 69 191 106 166 225 154 136 167 117 83 183 121 200 99 147 167 243 172 209 232 191 154 192 127 157 101 159 114 135 114 189 143 166 182 146 132 171 164 88 162 190 143 127 130 166 84 165 208 142 146 203 130 170 93 183 181 194 154 120 173 108 209 72 136 148 135 158 218 140 195 152 152 75 137 112 113 122 
8 154 114 117 168 94 198 160 158 149 50 90 165 135 142 139 169 75 202 134 91 152 177 166 144 165 78 102 186 115 177 216 208 135 159 127 165 167 136 130 170 168 129 199 94 108 194 129 135 114 137 134 201 124 161 168 196 101 157 109 76 147 77 111 160 116 143 191 118 180 148 222 89 187 155 154 94 137 77 83 159 116 206 143 211 97 149 200 110 106 139 112 93 97 189 169 158 135 150 188 
208 199 125 117 176 157 92 167 149 208 157 185 207 136 96 129 110 188 133 87 176 73 139 99 149 154 91 198 110 140 166 161 106 147 135 128 81 69 154 143 217 134 143 110 176 114 182 169 92 160 205 121 118 153 138 130 105 179 99 135 166 155 160 208 142 119 174 169 97 48 136 167 175 117 123 112 148 46 143 129 138 75 151 135 103 114 200 176 199 153 86 182 153 110 129 109 119 158 202 205 
133 82 119 167 95 180 155 123 126 118 189 172 124 111 148 108 140 175 115 180 154 190 128 90 131 89 76 159 190 102 116 97 110 186 19 100 111 169 117 187 105 217 178 122 73 92 133 180 155 182 182 170 126 156 141 81 138 162 54 87 90 210 140 148 129 191 206 163 169 158 91 131 98 62 167 144 142 160 152 215 89 135 166 137 163 151 128 183 152 172 126 120 182 162 148 133 148 93 180 127 
39 194 209 43 132 145 101 117 111 177 163 154 155 50 134 151 164 77 113 112 164 102 138 225 181 186 107 135 169 173 146 176 89 151 179 200 130 165 168 142 183 159 62 200 193 206 158 127 14 155 116 189 116 171 23 148 158 163 135 149 183 122 191 64 161 177 166 169 163 180 150 129 149 121 144 132 37 151 128 111 133 157 53 145 142 158 126 171 113 117 146 105 200 167 194 58 94 170 108 85 
31 139 105 180 121 99 189 101 170 190 129 115 94 197 181 199 94 180 155 171 123 177 155 177 171 154 68 146 121 134 181 156 136 110 176 88 140 115 98 168 132 168 67 185 149 124 190 144 140 97 178 107 75 73 160 146 189 69 158 157 142 149 208 144 84 182 123 146 141 129 167 149 183 152 102 183 161 115 190 117 103 97 138 180 175 126 145 157 124 155 125 155 179 89 187 145 162 151 121 131 
