P2
100 100
255
144 140 149 87 157 179 160 101 128 170 63 104 200 54 181 165 181 203 64 147 148 144 149 144 173 120 153 70 188 177 136 139 153 116 162 135 139 95 101 60 109 156 64 190 154 180 131 163 128 156 191 202 141 200 145 134 180 144 168 149 128 163 114 214 117 181 196 94 94 171 145 171 233 91 131 107 226 147 110 51 87 31 150 142 119 204 190 187 168 117 142 173 71 50 117 94 133 157 122 151 
139 160 151 181 205 165 125 80 154 118 114 130 96 152 126 164 61 59 153 213 108 32 92 204 159 166 146 177 117 56 146 128 91 161 116 103 104 94 95 152 201 79 107 73 85 95 165 149 97 82 170 135 121 98 155 93 161 100 191 73 190 96 143 143 112 117 112 125 176 133 186 155 84 179 178 58 155 188 150 169 167 175 102 161 123 196 165 138 196 176 143 189 104 195 183 106 196 181 139 181 
89 85 96 156 223 163 132 125 176 129 145 153 185 173 62 123 26 129 143 154 148 104 143 173 169 142 118 144 176 147 46 142 130 70 109 128 77 131 126 210 220 155 123 164 185 149 107 158 159 97 156 115 59 198 105 162 105 189 142 140 204 148 156 188 121 177 173 54 135 147 104 184 110 116 138 138 165 149 158 138 141 148 26 151 122 114 169 144 222 104 155 66 181 135 175 195 163 44 180 151 
132 187 187 168 202 92 194 171 156 85 132 136 139 58 186 159 104 179 210 169 182 153 97 148 139 173 190 181 136 82 125 143 166 140 156 122 101 144 152 183 184 199 134 60 35 160 241 143 49 162 178 154 116 110 137 138 175 173 177 163 143 110 131 74 168 152 133 164 153 197 176 165 178 121 178 202 144 108 178 159 178 126 181 118 152 95 149 181 83 164 77 152 148 118 171 174 207 135 168 115 
138 189 98 160 156 109 106 42 94 125 135 104 175 134 144 132 93 69 154 137 147 172 157 146 139 106 139 146 187 149 99 95 110 160 123 60 97 170 52 157 183 191 151 131 120 168 67 191 140 131 192 92 170 79 156 59 63 167 215 130 192 165 202 106 215 146 153 110 85 127 182 140 144 99 199 170 126 142 118 181 114 132 112 120 177 220 175 74 210 155 94 127 106 82 140 163 85 166 174 153 
159 174 183 157 182 172 180 192 102 200 159 75 55 166 125 138 133 183 204 203 98 55 200 79 116 43 14 94 160 149 147 181 225 181 173 35 114 186 121 151 104 188 70 166 50 194 183 177 133 139 139 113 173 174 182 96 166 113 155 145 61 193 135 155 130 89 125 115 182 95 132 159 163 144 196 192 153 124 222 168 175 95 136 172 164 202 154 131 89 37 60 195 107 123 160 146 200 120 73 143 
156 207 187 157 170 201 69 95 83 155 160 136 178 178 218 70 229 38 107 153 97 105 177 146 214 224 101 121 66 160 107 162 99 221 139 113 145 127 121 119 176 191 175 150 125 115 134 162 130 89 166 91 133 102 127 179 143 62 173 120 166 177 146 203 143 59 118 173 62 125 168 141 151 151 135 111 118 144 217 160 146 137 137 119 173 99 144 196 94 127 157 185 158 149 120 130 154 185 215 64 
136 157 123 137 163 81 116 186 144 129 121 27 62 158 135 181 156 173 179 82 138 150 162 125 113 169 139 123 182 144 168 198 136 102 108 142 193 143 165 232 81 209 138 164 149 190 130 130 110 86 153 142 127 77 164 189 157 131 39 105 196 173 158 85 136 110 198 192 113 183 159 102 138 129 177 170 159 149 168 180 135 173 199 122 171 120 57 104 131 170 143 108 105 220 105 174 102 136 135 184 
151 212 148 98 133 170 220 142 177 194 147 126 201 135 103 221 155 172 125 179 169 149 183 127 74 194 143 117 169 95 126 71 127 125 161 135 89 72 46 154 83 147 177 135 141 194 113 93 197 142 91 88 152 195 165 100 142 148 74 177 69 172 142 187 195 220 165 185 99 103 112 110 194 162 170 149 167 78 137 169 98 148 62 169 128 138 81 152 164 157 143 191 151 102 89 146 141 227 134 128 
112 202 59 82 125 139 135 76 180 164 102 51 190 169 140 131 178 79 197 63 191 145 167 174 127 80 165 64 161 152 139 172 80 197 176 169 214 177 143 192 113 102 216 219 148 122 158 168 148 208 123 203 135 58 74 148 89 122 224 89 110 158 170 103 145 175 138 125 160 185 115 216 125 98 136 124 96 177 116 143 143 163 134 124 63 160 98 112 110 199 100 83 150 160 215 128 170 193 174 142 
110 180 56 123 64 48 46 170 136 92 105 101 189 118 143 219 145 133 176 142 179 107 159 67 209 110 151 31 131 179 180 168 141 141 166 160 188 159 168 76 115 139 129 127 198 138 160 133 121 93 59 100 95 164 155 130 193 227 188 107 176 176 77 145 170 205 198 174 192 193 189 186 180 132 199 178 166 157 217 130 138 147 185 136 91 131 86 147 162 150 199 101 131 204 143 155 92 177 121 183 
166 192 140 166 162 185 151 128 180 94 120 178 154 118 133 163 135 188 104 163 171 141 71 161 209 163 62 169 116 120 166 154 64 192 139 94 148 154 195 176 117 185 154 180 52 151 160 148 175 112 91 67 38 129 164 138 129 28 169 118 84 159 173 125 193 94 191 34 211 118 149 139 146 110 134 127 127 206 168 68 199 60 145 103 61 154 146 64 156 144 73 114 138 133 153 88 212 172 188 156 
141 132 139 234 132 132 169 95 170 150 187 116 65 203 191 128 132 121 125 184 206 175 96 91 174 173 161 107 176 105 161 110 166 173 126 87 150 143 217 112 175 199 111 137 146 186 150 61 190 157 197 97 163 104 143 138 184 217 187 131 190 140 107 177 162 79 116 146 118 137 166 154 157 165 175 179 105 53 190 104 161 109 104 201 165 132 187 102 155 191 125 203 158 105 136 131 186 200 177 61 
125 160 194 149 202 155 113 66 160 147 105 79 202 150 68 123 130 224 98 120 159 122 177 173 147 150 157 122 164 97 159 99 159 153 150 98 171 62 108 149 55 141 198 144 107 80 170 112 64 127 143 138 95 185 207 170 214 115 114 110 168 58 98 75 122 182 215 143 199 160 187 156 221 123 165 170 138 162 156 172 137 121 178 129 131 201 176 91 165 135 138 187 71 149 133 114 137 149 156 64 
170 152 90 99 96 215 130 39 131 91 152 120 110 159 223 169 142 150 177 174 149 149 77 180 154 164 121 179 70 98 119 154 157 126 162 158 134 149 206 146 121 86 85 110 162 203 187 110 210 190 135 127 108 156 166 90 139 136 90 133 167 174 155 96 179 83 146 161 139 184 86 110 197 156 159 149 170 144 160 228 95 115 160 178 147 130 150 214 189 162 87 203 145 82 168 135 105 127 171 173 
126 202 152 158 113 140 68 139 132 97 185 88 84 80 142 179 183 95 148 148 182 172 134 156 157 155 196 124 156 121 143 150 61 146 219 188 169 119 186 156 178 154 166 165 63 141 140 120 95 133 133 130 149 148 162 162 132 196 73 73 133 55 158 123 168 161 135 169 84 132 109 98 131 36 152 93 128 141 186 76 121 165 149 169 137 178 137 91 112 130 125 102 106 133 104 103 128 173 151 167 
94 113 161 127 115 82 105 248 89 178 121 177 28 147 40 195 142 129 102 63 180 195 141 134 103 156 200 57 168 122 158 141 141 132 104 165 114 157 124 88 158 153 141 181 154 126 173 136 133 161 199 135 198 148 174 103 123 58 110 117 174 152 75 190 209 148 139 142 71 73 109 120 175 57 191 111 147 105 189 121 107 128 187 167 56 126 137 196 92 162 108 110 113 142 167 70 120 109 120 126 
169 97 138 152 185 171 157 127 40 91 203 156 78 208 201 199 139 169 170 169 41 159 132 191 106 149 172 156 169 77 136 163 209 164 189 192 197 122 66 57 228 138 160 158 71 48 126 124 111 112 108 151 133 82 140 190 103 151 170 183 145 120 162 142 108 99 193 135 91 153 79 144 120 168 124 114 87 155 191 173 117 142 83 132 100 176 158 110 162 70 230 118 95 167 126 163 167 178 147 153 
129 149 152 134 117 224 97 64 66 170 110 52 196 124 120 22 149 89 153 125 152 162 130 140 146 160 107 87 53 190 130 76 102 48 157 176 152 155 197 41 120 169 101 129 104 159 139 116 188 141 29 139 99 195 120 95 116 133 167 165 173 109 135 158 83 143 56 105 117 144 88 196 145 170 146 197 87 153 137 180 168 230 119 143 92 161 190 216 221 77 90 176 133 115 106 151 166 105 153 73 
93 131 167 173 183 207 107 106 157 132 141 156 93 112 182 152 197 201 222 155 203 112 170 200 120 151 81 48 182 75 181 48 147 128 171 191 149 179 86 227 165 57 171 182 119 107 71 182 178 179 107 217 117 208 146 140 175 177 116 159 57 115 199 137 118 99 166 91 79 189 67 157 80 148 213 142 173 78 76 158 133 188 159 123 145 214 199 97 96 85 156 184 143 211 210 143 142 153 219 178 
153 173 171 103 222 168 152 161 113 181 146 103 152 186 187 221 132 157 222 141 118 149 128 139 108 134 173 138 179 118 127 218 135 112 39 143 178 46 151 186 191 79 72 206 127 143 126 197 112 135 138 157 207 101 113 136 157 133 63 198 76 150 59 185 148 170 141 167 115 177 195 146 160 166 131 222 156 176 59 144 171 148 84 110 147 148 79 105 48 226 102 150 128 206 201 147 179 145 118 194 
45 151 128 113 186 152 82 157 208 167 150 103 184 106 149 88 153 117 193 208 91 62 158 134 187 113 148 187 153 147 98 118 185 118 51 122 158 142 124 73 99 71 158 167 145 151 173 142 52 105 127 164 154 154 202 144 188 65 206 128 175 219 110 207 149 147 222 225 75 168 110 204 124 212 179 161 179 140 159 126 142 163 107 169 117 212 111 71 170 103 107 119 210 99 166 206 76 169 155 192 
169 159 110 150 234 165 170 125 103 106 35 123 139 184 191 176 151 83 30 180 88 183 45 131 86 192 155 165 85 104 199 184 148 100 184 75 162 162 192 193 152 150 103 221 83 135 162 206 143 170 128 143 136 44 133 120 146 167 147 100 147 121 153 43 169 122 190 136 199 93 73 195 130 137 192 159 143 144 89 78 151 161 170 80 155 86 124 191 187 202 155 148 224 177 63 131 187 148 136 171 
161 38 138 202 153 155 189 109 126 145 109 90 96 190 119 124 145 138 147 178 126 171 188 130 122 154 133 139 149 154 162 51 152 115 217 116 123 136 192 158 122 169 56 190 212 134 167 94 174 138 114 172 172 140 151 69 121 118 153 121 81 106 131 160 181 202 78 141 55 177 106 66 56 186 171 198 87 155 135 90 181 171 160 154 94 148 69 126 80 31 164 201 140 92 169 140 177 159 120 171 
184 120 124 142 134 127 122 103 96 80 75 145 96 218 138 84 29 158 187 151 164 163 165 207 150 123 185 132 176 206 178 176 198 131 89 79 144 117 155 98 122 169 139 121 203 160 194 72 215 134 176 147 112 106 125 80 112 198 108 126 181 170 187 165 110 207 135 152 202 136 164 118 142 160 143 130 88 137 150 194 152 164 170 160 82 119 114 201 136 130 165 178 185 116 108 212 120 191 126 172 
239 144 159 108 147 182 136 98 144 173 144 134 135 137 103 148 99 179 105 117 61 146 212 200 139 121 124 183 146 178 98 152 190 150 130 196 19 116 110 118 210 141 183 135 107 133 186 96 158 150 33 158 151 174 177 36 24 163 170 111 90 190 125 104 124 149 87 110 160 171 150 75 152 194 162 176 156 178 197 133 105 86 174 141 150 163 140 128 201 149 151 160 100 104 135 172 162 203 169 159 
63 118 163 52 124 133 151 143 148 60 76 184 136 151 143 181 74 150 160 128 89 180 194 129 124 106 136 199 129 217 157 63 186 143 83 123 84 121 173 138 143 156 142 145 90 200 165 216 163 177 180 132 112 112 213 108 135 133 165 124 131 144 138 175 141 118 180 158 137 112 150 135 153 182 101 143 104 20 167 121 118 178 186 187 205 172 139 97 61 146 136 192 119 163 169 162 90 139 118 136 
167 156 103 124 198 108 177 166 95 184 163 49 154 124 147 139 153 141 96 141 150 157 175 56 129 178 166 139 176 212 140 117 131 121 165 111 54 81 75 172 197 121 152 192 143 186 179 156 110 106 187 160 121 91 80 157 98 231 102 160 215 136 28 131 126 126 42 155 101 109 123 42 17 94 160 58 83 119 159 172 204 133 138 144 173 27 171 176 132 121 176 168 90 206 203 122 105 170 98 125 
138 117 142 202 193 77 96 90 133 172 120 180 99 148 125 147 194 76 155 167 148 87 213 95 146 171 114 158 152 119 182 86 206 183 163 158 195 191 205 100 143 180 165 101 147 141 61 116 176 152 119 143 136 179 179 134 136 199 122 136 90 148 185 184 152 178 195 131 177 192 199 191 120 177 169 59 150 175 107 119 155 120 67 165 113 166 124 71 84 153 74 132 137 57 141 121 194 141 125 189 
147 155 52 153 136 111 170 164 99 124 122 152 46 125 48 100 148 124 195 122 170 155 198 124 94 164 186 179 146 129 143 174 133 199 134 176 121 103 100 115 211 180 122 145 96 94 100 91 66 112 126 186 122 144 144 148 49 133 105 118 149 150 149 171 194 122 40 128 141 156 85 157 137 171 128 165 176 200 151 91 184 193 127 117 135 166 211 106 65 112 151 145 167 134 139 208 192 134 185 212 
155 158 48 160 185 170 202 111 140 197 106 210 146 74 181 139 147 87 45 63 144 92 142 145 110 117 87 119 147 106 158 110 78 103 194 153 218 180 149 200 177 77 88 119 193 161 112 96 150 209 117 170 32 157 138 78 120 70 121 121 99 133 142 74 176 196 117 177 114 204 191 112 122 174 193 87 176 194 54 76 176 133 86 150 90 174 151 133 186 152 94 176 79 155 157 141 138 43 229 47 
96 134 140 198 180 107 163 181 160 167 153 145 148 146 159 51 86 96 163 107 177 197 146 115 157 21 173 77 195 28 174 95 170 142 155 136 182 146 90 162 167 169 208 180 162 114 199 137 58 173 147 182 67 158 144 158 144 130 149 134 149 158 151 161 104 94 176 106 96 191 136 95 183 159 117 149 97 96 142 199 42 189 145 169 181 131 180 150 192 39 146 165 105 118 183 201 140 145 111 161 
112 111 119 131 88 93 152 172 164 179 69 33 156 140 69 151 161 151 196 159 146 117 154 162 156 169 206 191 50 75 140 124 141 67 172 118 186 119 153 138 187 195 156 164 149 113 201 165 115 129 161 145 181 155 152 49 210 145 113 151 192 85 189 170 159 170 108 136 109 137 174 145 184 137 180 161 149 109 91 97 155 187 222 136 123 78 115 186 173 59 132 169 68 129 181 95 198 140 149 129 
190 55 169 141 154 143 92 174 158 75 111 147 82 178 182 121 173 91 89 158 156 46 13 158 219 179 146 111 178 146 112 187 121 164 132 109 188 99 111 149 121 157 186 100 171 169 159 139 59 184 135 156 151 182 143 120 105 191 133 189 174 130 168 137 115 168 48 221 178 178 158 168 134 108 112 205 190 18 112 42 228 139 139 147 82 144 106 157 137 208 151 155 91 137 156 199 40 143 143 190 
180 105 223 174 182 181 136 105 163 72 146 42 162 150 169 169 140 113 143 101 192 139 179 199 129 80 158 122 198 147 220 110 124 146 186 91 138 168 183 107 147 184 96 140 164 126 171 90 168 203 191 120 203 188 200 170 182 130 157 166 96 112 195 113 117 134 186 89 163 208 126 132 169 148 204 65 187 33 172 216 44 131 33 87 149 78 136 138 210 162 133 125 133 146 195 201 176 86 142 95 
68 116 123 120 63 159 185 120 116 196 192 117 188 95 180 189 114 210 162 116 150 182 53 131 130 232 129 149 176 89 183 173 169 101 200 98 93 139 186 195 198 102 108 134 93 151 154 83 72 146 158 166 192 170 69 116 149 129 111 155 228 154 82 202 154 150 102 79 150 119 108 131 136 85 197 176 190 156 123 115 209 168 143 135 43 125 147 142 91 200 65 176 155 141 172 153 157 214 142 181 
161 92 156 159 51 106 186 184 187 38 222 152 183 142 72 126 192 144 145 183 200 78 111 126 138 178 121 164 181 137 187 154 139 199 172 67 174 193 144 165 182 95 146 131 111 147 189 107 188 94 135 138 175 183 81 75 170 158 156 198 177 154 142 100 168 162 120 165 91 130 138 166 200 217 209 123 159 142 61 170 106 137 142 139 214 163 169 75 169 142 40 90 144 174 201 199 102 219 202 108 
60 198 163 100 195 173 197 185 110 136 143 141 84 151 142 109 175 154 192 244 236 189 94 187 126 162 230 28 137 74 157 82 197 178 194 140 175 114 119 182 191 126 142 88 193 83 84 33 188 177 204 159 142 130 64 211 140 120 71 211 108 176 59 124 161 187 78 168 198 152 107 149 200 89 136 151 163 199 138 166 78 153 161 131 66 90 151 69 91 61 109 210 219 148 54 154 163 137 82 164 
156 223 173 170 143 115 189 109 175 107 206 188 168 165 186 173 149 193 144 146 117 146 188 131 80 179 85 140 202 190 66 120 138 133 98 150 100 175 109 161 105 143 147 57 153 170 114 175 163 107 163 86 164 125 112 114 156 98 152 166 190 128 126 147 186 141 187 94 171 138 124 84 83 169 165 25 179 182 61 87 146 81 186 169 178 100 211 176 110 144 118 118 196 172 86 157 149 115 239 116 
110 230 149 169 91 140 127 176 138 218 190 172 171 112 182 175 152 155 133 101 230 96 174 103 166 66 159 155 163 201 197 105 137 114 114 143 123 208 172 140 167 117 87 196 115 48 58 105 162 159 153 92 192 104 98 184 55 214 11 197 149 90 141 143 115 135 205 155 136 149 114 138 92 165 117 117 56 210 96 83 190 191 157 148 127 149 155 224 157 175 205 87 100 124 112 155 95 141 137 176 
161 102 120 157 129 151 170 199 68 140 177 167 190 130 111 60 169 212 128 142 210 155 165 103 135 137 149 121 156 141 130 174 149 85 121 157 178 125 168 117 114 151 140 142 116 127 92 78 145 160 184 140 208 155 65 123 75 214 117 137 157 189 184 124 155 161 152 110 113 91 132 212 142 192 73 127 140 204 94 136 145 96 156 159 99 84 154 109 50 138 161 100 159 123 49 131 133 72 93 145 
167 190 30 121 186 97 181 153 205 123 175 190 208 144 226 155 32 51 217 124 175 200 216 84 163 145 28 149 27 116 130 97 200 105 186 149 129 150 138 158 149 193 77 155 201 140 112 133 166 110 162 58 127 59 169 171 154 68 184 163 137 81 65 84 87 158 111 174 107 152 81 149 192 129 95 178 105 175 206 183 135 194 134 39 186 143 160 159 170 146 167 106 123 213 175 201 169 134 152 115 
163 190 144 112 147 166 100 100 101 118 134 165 43 184 77 116 196 158 96 163 134 139 173 137 129 161 117 154 99 184 185 146 128 151 189 44 180 151 162 173 188 159 80 187 130 167 53 52 142 152 100 121 38 179 106 92 134 97 112 99 144 173 51 122 119 144 184 178 156 167 199 162 213 64 145 151 158 188 154 102 78 170 209 100 84 173 158 194 229 146 92 137 184 153 155 103 213 216 108 139 
188 57 141 82 110 164 80 157 133 119 97 140 172 155 101 102 126 194 166 171 104 162 171 138 175 194 73 24 145 62 131 141 167 152 164 171 140 173 148 190 142 177 205 183 165 132 140 163 167 154 142 163 150 118 79 154 173 67 192 194 72 144 155 162 160 114 149 51 144 101 137 168 167 78 138 178 118 214 202 139 170 159 175 155 200 119 186 142 172 173 174 119 161 120 104 118 134 55 190 125 
109 133 176 161 65 164 114 131 113 134 168 199 143 115 181 72 187 92 82 174 123 177 80 124 155 132 198 79 161 152 61 152 124 108 154 167 186 130 189 82 194 95 186 145 164 142 136 153 181 164 164 187 110 174 136 142 84 136 164 157 143 215 207 204 118 68 125 95 146 189 137 112 161 133 94 124 178 142 158 123 165 130 152 121 172 187 110 110 117 103 128 133 192 182 140 160 136 123 126 132 
136 180 115 185 114 137 132 191 183 107 149 133 154 141 113 171 142 124 131 145 47 153 121 173 139 110 180 147 55 113 183 202 93 160 140 133 143 115 185 133 99 179 166 137 187 85 135 138 133 162 175 118 126 148 143 132 111 138 170 56 76 111 189 202 27 50 155 134 162 187 187 168 98 203 209 91 176 169 87 176 141 134 219 151 159 129 51 102 85 141 135 129 126 140 172 147 103 223 124 138 
121 136 176 96 115 110 99 159 64 57 58 186 141 158 154 84 192 111 131 118 193 121 80 135 154 100 186 125 144 162 191 153 212 170 116 135 189 177 168 134 171 156 150 185 95 136 175 182 182 100 173 109 112 104 157 85 96 107 71 242 116 160 138 167 128 177 197 165 144 133 87 123 174 151 131 120 178 180 112 79 212 101 13 97 152 172 170 189 148 199 143 124 112 137 231 150 53 105 99 221 
91 193 156 158 166 150 159 183 82 183 158 147 148 167 114 70 165 60 194 175 167 175 198 126 202 127 127 178 208 129 161 132 64 130 97 86 148 126 122 208 136 167 123 155 142 103 204 180 201 133 70 154 175 177 174 207 155 160 153 139 85 110 127 146 140 174 116 150 160 173 111 137 197 158 70 191 109 139 132 127 177 195 158 205 54 101 29 133 126 159 142 175 158 200 83 158 213 144 68 114 
153 169 132 62 119 150 60 217 191 72 129 216 167 157 172 154 172 165 180 114 189 149 155 179 116 117 160 172 163 136 61 136 143 100 144 86 173 88 129 116 117 143 115 189 96 158 39 116 130 111 88 126 114 125 108 160 187 163 160 86 133 127 78 121 152 190 155 153 122 74 93 171 147 89 112 69 96 84 128 116 198 164 98 133 90 114 69 138 155 60 92 69 102 154 152 148 132 160 129 126 
112 108 166 141 118 109 128 90 140 151 33 31 185 103 158 136 166 146 182 82 162 159 129 155 90 203 149 185 194 187 91 180 173 175 138 156 87 159 194 142 107 160 249 192 130 176 159 109 123 107 136 62 158 118 152 173 132 131 184 199 142 152 151 149 135 157 112 150 89 201 194 139 151 110 93 180 168 128 82 106 142 190 186 161 169 179 200 167 157 197 130 119 115 135 91 148 154 138 126 16 
138 125 122 205 153 172 72 113 62 157 119 116 69 127 108 109 175 161 129 103 132 189 104 85 174 138 149 104 137 120 183 191 175 66 146 123 180 209 201 109 185 168 88 92 211 241 151 189 74 197 164 186 201 177 101 73 218 196 178 160 175 127 154 84 78 150 138 110 189 203 136 155 149 202 166 142 158 109 167 173 139 88 146 176 93 93 178 130 97 201 67 198 112 139 114 153 162 151 109 90 
179 155 91 187 154 149 111 147 162 74 202 159 162 100 162 79 152 64 175 179 189 72 74 103 217 136 182 183 138 45 100 129 165 79 194 215 157 99 136 72 130 131 111 127 106 148 162 166 84 67 212 202 91 174 141 219 118 128 159 164 142 102 55 169 213 139 134 113 170 68 117 158 132 84 151 182 199 180 192 118 85 94 102 148 183 129 179 157 189 135 73 157 105 173 99 131 134 144 122 132 
195 155 141 161 143 168 137 108 154 146 65 129 127 113 157 210 161 134 140 198 45 192 139 187 210 229 174 177 154 154 187 188 57 173 99 155 113 138 163 60 202 152 198 110 130 215 107 111 141 170 191 193 163 167 93 91 166 194 216 133 70 141 196 79 146 135 153 122 54 160 49 136 103 115 141 165 180 127 31 126 167 134 145 87 168 158 155 167 107 90 162 106 135 127 156 108 180 211 151 190 
183 125 157 34 200 83 76 213 132 229 155 72 119 63 162 159 107 115 168 146 145 172 123 181 144 38 131 121 82 183 69 149 172 71 35 90 137 130 130 106 76 130 149 179 114 113 176 151 98 85 113 158 77 157 69 153 189 163 183 134 143 183 129 114 206 182 136 164 97 162 130 98 177 209 60 157 75 136 126 197 218 198 187 66 136 207 160 146 154 202 93 234 92 76 151 181 188 161 175 146 
148 145 186 170 146 179 42 150 93 50 111 128 164 117 226 149 167 161 86 143 151 117 189 55 140 177 95 192 206 106 167 150 224 109 177 124 202 145 143 153 70 101 187 121 200 162 173 166 145 169 181 187 129 132 119 155 103 67 100 113 94 153 133 163 59 153 125 214 200 80 110 190 81 188 107 205 30 136 184 98 114 92 190 198 191 152 198 200 184 112 125 157 79 136 196 225 145 140 151 157 
155 72 137 21 133 181 154 74 138 118 148 163 174 148 231 163 159 65 37 98 83 189 179 87 177 146 178 200 142 191 168 189 127 107 133 77 147 77 139 175 136 184 91 224 114 85 159 124 114 124 187 116 123 159 162 165 124 195 138 90 209 166 188 67 145 55 193 160 121 158 65 147 161 170 136 195 172 153 120 140 141 145 47 131 77 134 93 184 141 159 123 120 150 139 144 205 144 158 67 121 
159 190 119 95 156 208 191 56 156 159 185 117 163 166 36 108 138 104 184 88 138 148 127 132 119 180 129 159 156 134 107 90 130 205 38 154 68 106 88 172 92 76 174 179 222 163 167 186 136 150 134 104 173 141 147 176 115 49 95 116 127 118 180 88 193 99 159 125 168 139 111 171 198 82 179 212 146 133 150 168 128 122 126 56 146 137 141 167 153 109 148 106 41 157 144 123 169 88 94 157 
124 112 149 170 97 132 188 171 143 150 136 160 148 188 105 103 147 138 139 145 201 129 184 135 168 152 166 187 157 100 134 122 183 134 186 152 144 136 154 204 149 178 119 193 152 191 221 143 207 167 176 123 200 134 154 162 162 155 149 183 127 184 132 163 136 126 199 120 92 201 62 113 103 71 192 137 169 92 172 131 79 135 147 104 178 169 156 145 139 77 172 93 179 122 23 83 183 136 123 128 
203 139 63 201 144 180 157 197 86 205 188 131 161 122 76 173 159 144 103 126 162 139 145 152 160 198 80 145 135 153 123 49 83 152 169 119 69 51 90 84 95 86 167 165 128 179 195 195 153 175 106 121 188 169 151 193 87 110 63 120 190 116 190 161 124 170 159 175 143 126 67 192 73 212 147 162 145 91 165 68 86 179 83 172 209 146 87 148 205 220 161 81 158 113 88 82 118 187 51 189 
145 170 103 166 129 99 171 173 58 147 98 131 188 71 131 203 160 104 103 107 49 174 153 124 138 195 97 162 178 191 184 144 146 65 228 149 149 165 169 96 196 160 78 154 206 93 158 194 199 100 51 182 172 142 56 146 157 68 79 175 122 112 210 158 142 163 170 155 45 141 95 159 147 112 194 118 231 226 145 184 164 74 148 186 125 60 191 182 138 106 126 108 202 180 156 52 118 120 175 175 
144 102 159 170 171 183 128 64 120 161 211 85 183 199 103 155 137 217 144 111 186 182 164 145 133 89 75 188 143 171 172 55 101 144 86 48 179 195 193 142 85 159 175 123 93 162 154 197 132 212 164 138 132 153 163 96 151 125 183 151 88 201 187 192 135 103 78 172 152 155 141 168 130 46 119 125 168 131 183 162 170 167 146 168 69 128 171 160 187 79 198 149 133 136 188 94 211 146 124 162 
208 170 158 127 191 103 158 149 106 168 121 196 181 60 187 169 207 163 123 106 179 60 149 168 100 115 118 108 164 138 87 62 144 135 139 94 146 160 141 72 171 126 82 117 126 211 127 206 98 42 71 168 118 204 86 142 140 137 194 119 132 119 208 80 209 133 192 116 162 197 170 199 140 182 111 121 171 86 81 132 123 87 151 176 217 72 187 124 92 186 156 180 155 145 114 147 182 76 137 206 
138 149 165 166 158 147 145 153 170 146 149 50 129 180 169 180 224 150 173 111 139 140 111 133 134 91 161 186 124 93 137 105 175 108 173 107 141 62 235 184 42 142 158 132 164 112 209 32 90 27 183 106 123 99 133 182 134 210 126 188 157 184 119 147 170 109 151 157 229 87 163 154 117 151 55 183 200 104 79 121 53 131 130 178 132 225 149 163 91 103 208 180 163 189 161 159 160 145 133 215 
192 88 148 104 167 149 105 190 138 145 72 192 112 108 93 166 173 143 137 166 120 183 72 85 207 180 136 129 149 106 68 165 123 119 165 159 168 117 109 123 167 150 185 212 167 140 63 170 87 102 198 99 187 94 131 114 109 199 176 147 80 82 178 64 32 170 159 160 129 175 129 183 124 62 169 136 142 185 96 168 206 178 144 105 153 148 140 104 141 126 189 101 167 80 121 120 97 29 134 83 
84 161 227 115 87 160 210 131 137 195 230 174 200 124 150 140 157 83 129 134 154 154 183 157 157 140 64 135 149 121 215 113 128 148 149 90 76 133 167 124 182 165 155 143 185 96 70 146 151 154 143 185 119 166 80 181 140 133 88 164 136 122 145 118 210 196 178 149 131 156 153 125 186 79 86 207 197 181 127 194 75 88 176 163 216 129 198 122 145 142 111 159 117 188 141 129 133 160 168 174 
114 166 159 181 173 152 172 167 91 117 133 121 60 189 158 119 117 157 160 36 201 152 142 132 119 134 174 67 151 143 167 140 205 122 138 63 169 52 184 187 182 149 138 146 152 158 127 124 172 116 186 127 97 125 158 159 62 141 131 188 61 187 173 167 76 163 161 131 200 130 101 180 107 112 178 84 66 96 116 182 208 160 119 162 188 116 152 100 142 155 137 125 182 185 131 84 110 168 160 80 
176 149 155 172 106 153 118 156 157 182 141 146 153 158 198 138 128 52 54 140 140 80 85 156 199 194 163 60 162 176 121 74 150 91 160 112 186 114 132 69 175 139 181 148 118 145 34 164 120 124 149 143 166 125 193 135 67 153 201 125 68 178 110 222 131 173 164 124 146 62 107 146 104 136 92 181 129 163 153 134 165 87 141 163 67 185 215 221 48 72 92 153 169 143 104 102 34 135 156 160 
154 138 178 161 176 168 177 158 145 224 144 155 91 148 189 112 149 168 159 100 170 81 150 180 87 191 143 120 152 70 66 70 107 133 118 186 163 67 125 130 138 100 156 100 86 122 150 209 151 136 168 49 101 182 175 83 156 172 186 128 75 157 179 122 66 30 81 208 226 165 34 178 129 183 164 188 167 107 137 189 127 89 137 141 151 167 124 206 186 184 141 82 155 207 99 93 178 175 129 155 
103 183 122 154 159 181 144 92 125 98 143 171 214 163 103 155 215 93 96 108 156 72 155 89 142 165 191 119 117 97 164 188 135 157 129 117 142 137 128 184 200 91 110 120 145 121 75 160 193 154 161 192 170 160 137 156 195 83 204 108 192 66 153 167 110 161 188 136 147 176 171 119 172 186 139 164 142 62 147 146 131 185 176 65 136 235 131 44 107 168 136 112 128 130 74 157 130 179 61 91 
170 98 169 127 139 151 169 91 183 184 226 174 127 199 187 140 135 135 136 182 139 162 98 169 147 91 137 194 152 194 127 117 163 142 147 139 143 231 180 128 169 74 128 161 65 232 99 122 186 168 121 106 148 70 155 76 116 187 55 88 188 138 139 141 86 95 145 165 110 196 124 56 168 174 124 21 133 185 147 50 120 135 139 97 161 199 204 36 175 81 140 137 119 109 107 138 184 174 144 65 
225 85 175 178 114 166 127 151 149 142 138 170 153 137 132 162 60 142 161 160 107 116 192 136 99 102 115 202 153 102 171 164 144 135 109 137 127 141 110 141 89 201 55 168 162 168 165 122 215 168 151 229 78 102 149 129 159 28 140 160 175 139 146 138 147 184 140 198 150 123 124 97 155 162 123 190 175 179 113 199 115 210 183 122 100 178 153 183 168 80 52 156 159 146 134 187 82 66 114 100 
141 161 105 68 146 111 49 119 156 91 12 75 33 115 140 107 143 105 175 107 141 145 167 203 154 171 56 112 199 62 107 151 78 232 142 125 151 176 157 134 182 210 172 86 178 110 106 92 120 139 150 50 137 117 114 195 155 134 93 191 103 101 72 81 147 106 173 124 121 96 155 124 191 161 169 131 194 186 147 143 73 65 186 168 142 200 189 114 170 196 96 94 109 174 100 129 180 135 152 189 
56 182 127 189 207 45 127 170 127 146 106 138 160 93 157 143 198 48 124 129 86 231 71 195 161 75 120 93 202 151 146 108 110 131 130 111 102 153 109 196 151 136 170 78 159 135 185 154 143 189 105 137 116 97 107 131 139 159 183 129 87 170 107 148 204 74 130 199 61 201 185 119 159 159 84 147 214 139 40 187 134 146 193 173 143 121 163 201 175 194 10 171 163 198 227 145 139 152 167 195 
165 195 175 204 196 181 141 196 184 135 158 160 96 163 179 191 91 151 101 85 150 207 153 127 127 106 162 151 124 186 163 214 156 106 88 176 78 185 87 101 175 131 154 79 71 218 210 88 130 137 121 172 107 150 108 112 212 102 180 121 169 132 99 132 101 158 157 135 177 201 192 122 132 102 148 156 27 86 132 208 98 105 150 82 173 120 139 157 158 197 187 174 191 167 97 174 204 216 167 195 
129 188 89 170 104 147 138 142 159 160 158 194 106 125 207 189 86 129 157 78 168 112 72 91 129 193 152 172 134 164 155 184 32 141 142 180 159 97 167 188 206 139 126 117 168 131 94 162 109 206 161 137 135 161 190 149 96 119 77 179 173 135 210 161 133 95 102 127 121 154 132 191 179 180 170 84 142 117 134 152 175 154 142 82 195 36 154 189 117 70 130 188 103 132 176 150 111 93 162 66 
124 207 168 115 101 97 142 117 124 120 152 187 116 149 209 150 124 145 133 136 134 128 153 170 156 105 178 152 117 187 123 180 150 157 133 159 189 157 180 84 91 155 209 130 187 153 181 164 115 112 146 147 152 115 163 63 121 122 152 134 137 121 135 156 152 185 112 116 194 96 136 172 158 198 130 112 101 174 150 141 114 170 85 216 95 133 220 142 148 139 195 196 130 71 140 125 125 143 138 133 
169 105 182 92 129 112 142 161 112 107 138 202 170 128 109 159 128 167 209 183 165 90 193 182 211 128 138 162 181 227 102 154 113 145 132 237 52 127 168 145 187 168 123 129 118 120 128 165 202 171 102 169 118 119 110 39 143 173 159 192 163 132 122 34 206 204 170 79 118 173 131 166 151 117 149 97 89 202 130 109 124 110 189 117 101 187 134 134 74 139 131 149 132 212 155 145 175 190 84 80 
75 159 224 125 174 107 182 137 110 172 181 79 106 215 127 201 108 156 214 194 118 189 131 166 127 134 81 158 151 150 126 143 222 176 188 162 35 148 73 83 202 186 195 123 104 138 165 85 176 147 238 164 121 112 177 170 175 26 128 86 120 164 220 197 84 144 57 135 194 160 110 123 123 90 86 103 158 193 199 42 201 188 193 200 142 185 174 112 142 97 112 164 42 200 156 153 199 101 118 165 
121 192 105 87 134 57 213 170 109 93 204 150 190 94 114 71 198 114 117 117 113 141 164 158 147 85 120 146 190 123 217 139 157 161 188 153 224 153 72 206 116 154 146 75 84 72 143 145 187 80 106 159 129 119 149 92 159 147 94 188 198 127 160 112 188 87 132 135 186 168 128 111 80 142 143 174 101 160 105 144 177 187 123 97 156 153 155 35 74 112 108 88 168 139 154 169 69 119 176 170 
126 154 174 140 195 86 147 152 181 165 114 189 167 83 156 132 114 117 85 197 82 193 148 189 132 87 174 160 82 49 107 158 157 177 174 115 140 230 118 207 83 179 170 172 105 183 129 114 134 115 193 127 160 71 112 187 197 117 161 124 175 120 169 190 111 109 119 132 107 139 151 56 163 156 137 193 143 155 118 169 121 174 150 171 69 160 122 158 105 167 141 120 179 116 172 176 102 41 173 171 
85 214 183 186 191 138 141 153 122 134 123 209 134 150 179 177 111 190 166 165 72 110 145 31 136 140 152 132 136 198 139 150 39 160 110 141 191 139 130 150 163 129 119 146 177 118 181 31 180 113 61 148 80 119 83 156 188 120 81 162 79 149 142 113 118 46 195 197 149 203 182 100 186 156 157 138 176 156 144 214 142 82 185 82 179 153 177 180 153 111 158 169 140 119 34 146 104 100 182 105 
192 101 159 117 149 130 133 161 74 158 173 131 64 140 105 54 101 158 142 99 143 131 203 114 185 133 188 138 157 144 192 78 198 156 157 192 128 192 108 181 146 137 179 193 154 244 209 169 215 132 90 144 204 149 156 96 142 193 100 204 145 157 142 187 192 210 123 158 173 130 180 55 186 101 48 162 203 140 98 169 79 95 93 131 100 162 142 175 122 191 110 88 214 97 133 91 87 131 114 124 
98 135 136 125 226 153 151 199 139 182 160 209 131 172 91 148 198 93 162 133 196 85 116 172 143 161 146 124 158 169 168 38 145 142 92 124 196 48 149 141 121 89 21 145 113 194 46 172 116 152 146 104 165 106 133 93 226 168 122 121 221 188 156 122 163 207 183 167 61 89 133 89 123 198 136 150 49 138 156 156 137 108 79 147 170 143 105 185 135 65 107 116 97 179 161 69 84 141 173 210 
139 170 117 110 179 163 112 142 118 167 69 105 105 146 210 176 164 139 174 139 185 171 130 132 189 186 178 85 54 106 170 104 179 182 136 166 147 199 110 138 113 131 138 230 133 149 80 84 172 158 200 117 202 106 105 94 123 130 106 161 194 163 133 145 171 134 106 130 105 144 186 201 189 99 71 198 87 173 120 174 176 157 161 112 139 61 128 172 95 147 59 132 145 13 164 101 194 235 131 164 
211 142 155 172 181 191 179 194 185 86 39 186 70 189 165 207 86 183 141 187 163 145 129 187 79 215 49 141 137 218 107 112 99 177 80 145 143 179 145 162 168 125 78 184 92 103 147 151 80 162 84 153 192 170 117 175 213 47 140 185 163 125 176 135 181 112 191 116 92 228 140 123 121 152 96 141 142 174 170 125 43 156 145 61 133 157 122 118 148 140 210 116 120 116 80 163 170 98 122 145 
160 153 104 170 117 99 113 155 191 219 168 119 172 184 107 19 114 191 142 89 187 177 150 95 184 35 194 162 156 140 112 178 133 137 132 131 155 178 145 130 164 159 192 135 154 114 131 75 107 214 120 185 152 121 202 184 119 200 74 169 162 154 119 123 158 102 146 68 90 186 96 120 119 107 149 135 166 152 152 130 122 185 119 148 223 126 121 82 155 171 211 91 106 132 202 130 134 213 97 211 
113 104 151 137 104 159 145 144 236 167 165 108 106 106 198 203 196 193 129 110 175 72 172 103 106 77 210 187 111 154 184 118 178 94 107 195 150 103 133 194 173 174 200 117 179 150 141 120 189 145 71 167 154 127 164 165 165 79 42 161 128 151 179 131 63 197 173 169 200 69 160 162 145 104 124 92 136 187 88 89 132 113 109 81 127 230 123 125 159 180 119 173 162 119 132 137 195 152 156 86 
163 205 142 34 109 177 135 69 138 74 156 148 182 190 156 109 148 223 168 99 56 223 135 27 120 126 131 200 128 178 150 98 140 124 72 125 183 152 97 149 120 116 189 166 114 195 162 74 149 170 123 174 136 117 133 164 156 152 116 179 86 163 178 178 139 182 170 143 132 147 161 97 186 137 132 107 116 143 159 73 164 164 184 122 168 169 122 44 213 100 180 138 45 69 125 140 102 80 155 147 
185 138 96 92 83 159 66 199 105 194 136 167 145 87 156 160 205 153 85 70 50 90 196 201 157 95 215 99 135 163 69 181 146 174 104 181 210 137 158 101 152 112 138 172 200 146 122 184 153 125 108 154 86 157 160 193 86 190 167 53 81 181 134 142 188 102 80 185 22 77 114 110 113 73 143 176 177 78 128 45 144 158 162 151 162 135 107 148 134 208 110 193 87 134 111 155 187 85 122 132 
82 184 226 168 57 160 193 102 169 167 168 168 171 214 66 110 70 126 103 142 230 166 87 73 203 133 177 125 124 123 128 188 158 122 81 200 147 221 183 187 146 70 112 136 102 214 174 207 94 186 161 85 122 89 147 139 183 79 150 160 165 59 31 73 131 142 189 120 175 177 210 119 137 81 136 163 132 147 153 72 36 93 86 68 93 190 131 215 200 134 122 148 130 98 198 111 138 164 136 116 
102 171 178 51 161 169 41 77 70 157 146 226 150 162 109 135 141 86 167 109 83 100 128 117 105 192 132 198 89 203 181 96 185 160 174 92 188 69 178 156 165 206 139 155 151 215 42 170 109 211 150 162 181 129 109 106 209 74 202 131 85 163 215 159 187 73 112 147 147 128 174 137 134 155 171 108 151 164 162 106 163 197 181 141 109 199 77 203 98 107 107 229 185 156 136 89 140 142 184 135 
143 173 174 156 176 181 156 185 71 104 177 115 156 114 172 171 183 167 149 190 138 108 229 199 156 92 149 94 220 210 156 199 106 173 131 164 161 149 128 115 181 171 162 148 230 123 158 198 166 154 32 108 181 33 136 144 116 126 52 198 72 169 72 32 12 122 135 153 152 121 166 77 152 183 77 135 172 188 139 192 144 93 136 51 106 164 153 157 165 184 165 174 171 121 141 166 56 173 130 115 
138 157 168 146 147 190 199 152 77 168 138 114 213 178 113 148 229 158 154 85 94 115 96 156 123 78 125 77 133 137 153 117 152 139 23 124 108 117 222 221 184 157 155 166 190 146 165 151 193 132 172 144 143 121 148 154 191 106 110 167 174 174 145 161 146 101 159 198 103 144 74 121 133 164 130 164 91 155 199 154 123 161 128 175 118 205 198 134 132 112 154 121 98 67 162 132 164 172 60 108 
166 112 26 153 195 149 191 93 137 233 97 121 154 143 156 163 126 92 153 133 143 123 103 135 178 127 179 159 148 242 83 90 145 128 117 184 73 144 159 214 126 129 184 171 159 172 156 106 80 161 155 103 98 131 124 189 72 154 192 154 168 135 188 99 179 96 93 130 99 158 80 123 153 155 122 72 196 177 157 164 155 105 47 213 135 153 112 146 110 46 95 130 170 190 137 157 192 231 189 176 
188 76 102 143 65 165 195 137 157 210 64 147 118 183 129 169 106 181 164 147 119 193 88 112 124 131 114 102 179 89 161 114 120 131 108 188 152 41 129 176 153 136 180 128 181 144 150 126 53 179 75 96 196 111 102 126 121 169 106 123 104 200 181 151 209 92 115 142 184 141 213 73 173 234 132 130 159 131 170 141 205 144 87 196 135 137 137 154 172 198 185 65 221 103 126 166 133 188 148 187 
162 197 145 61 168 99 105 158 137 172 134 148 156 142 49 87 169 157 131 191 122 97 153 124 157 123 161 181 95 129 195 162 113 170 121 140 200 155 151 172 173 90 219 159 155 99 173 114 128 147 127 104 176 77 185 188 173 110 140 177 126 36 163 96 209 195 195 161 119 151 203 63 140 196 149 189 64 112 73 146 126 144 144 150 182 85 187 77 127 193 92 116 188 185 137 136 144 179 42 138 
115 71 142 146 154 125 156 179 190 130 157 86 100 48 155 154 49 103 150 93 192 72 180 212 122 31 133 135 198 153 111 194 101 180 99 159 181 167 176 170 95 60 151 156 152 189 100 174 171 213 116 108 171 101 176 165 178 144 99 55 104 125 67 104 80 110 61 104 221 136 183 80 106 155 72 141 168 159 146 181 76 76 122 135 181 122 180 167 194 69 70 129 144 168 186 124 192 108 120 108 
145 108 101 224 185 232 132 78 140 162 146 103 189 159 153 161 133 189 115 112 135 143 101 139 188 194 152 170 139 160 130 212 187 152 142 99 171 102 97 189 178 216 54 139 105 82 122 137 136 136 193 95 156 120 145 143 97 127 195 107 161 68 93 164 157 188 110 182 203 50 109 195 163 209 164 102 148 171 149 154 189 49 122 139 179 96 124 105 159 77 173 141 139 158 145 165 156 105 188 128 
151 148 86 225 109 219 152 187 138 147 155 96 182 156 105 70 168 162 89 181 100 181 204 128 172 83 151 165 60 78 168 125 168 126 67 119 136 96 221 168 126 148 101 111 89 66 182 139 170 172 156 127 90 77 133 140 202 143 204 146 119 105 151 98 192 202 162 133 209 126 57 85 127 118 167 150 211 156 101 148 124 197 144 81 105 95 175 173 145 145 80 93 200 88 168 183 157 144 54 180 
165 115 61 162 176 152 141 150 170 136 176 168 108 197 143 90 172 137 66 144 160 101 163 209 118 186 105 156 154 221 179 49 136 83 122 107 147 175 158 208 147 190 67 190 115 155 182 157 165 89 191 101 81 111 153 140 134 152 154 138 54 196 135 132 123 97 143 163 162 198 72 100 70 106 151 123 152 187 117 166 143 132 98 17 196 170 167 121 139 75 121 138 195 112 161 109 166 172 56 169 
