P2
100 100
255
77 148 145 141 132 173 157 159 116 141 151 159 178 189 100 120 100 124 113 151 170 202 115 39 65 195 201 104 107 90 186 213 94 164 98 178 189 179 189 124 96 138 162 146 133 139 51 163 99 132 156 145 87 116 112 67 83 46 96 172 125 135 109 242 171 164 185 126 69 100 130 139 128 148 150 69 112 185 85 134 119 160 176 161 73 166 156 130 75 101 169 210 133 117 161 168 153 119 74 135 
74 189 54 169 133 201 171 59 202 134 131 144 64 200 99 145 173 233 148 132 103 106 206 173 139 149 151 184 171 138 61 91 188 86 103 152 162 126 113 135 147 161 153 221 193 126 170 125 180 152 80 110 117 154 72 141 144 164 201 106 169 123 124 169 49 95 159 145 105 177 156 169 103 206 175 98 59 144 50 211 110 130 125 141 124 161 178 178 28 144 79 194 188 168 140 136 153 174 215 71 
123 104 190 81 165 125 171 126 133 197 91 189 178 135 160 139 113 141 129 128 79 69 62 178 201 214 154 138 168 121 206 129 179 170 155 79 200 121 139 154 199 85 67 110 169 134 195 206 106 101 36 182 161 154 112 163 171 220 195 147 169 182 147 60 97 172 175 165 124 208 118 155 73 174 146 157 158 128 147 159 171 146 43 181 87 91 145 85 134 107 127 95 142 193 175 40 212 155 103 145 
72 157 150 181 170 157 153 185 185 194 145 143 188 199 95 51 194 146 146 133 178 143 156 169 118 114 169 191 220 147 127 128 118 103 116 101 153 62 135 70 152 153 162 140 142 107 166 107 99 192 84 131 133 153 60 155 110 93 83 171 164 112 71 186 163 203 142 178 117 185 125 105 117 115 151 131 169 145 106 101 174 172 98 180 193 198 190 162 184 204 95 166 187 151 180 147 107 122 99 129 
127 211 160 137 171 122 151 158 177 156 130 178 153 176 178 159 115 142 156 183 211 192 152 184 115 168 117 138 167 138 174 72 116 146 169 197 181 131 162 165 116 118 156 237 28 85 131 156 165 124 175 58 105 137 132 140 96 139 158 132 146 50 144 189 189 166 137 152 106 211 93 29 113 189 66 168 103 88 149 96 151 147 132 156 223 89 157 128 164 140 83 170 145 116 65 199 172 137 152 140 
159 141 158 198 94 205 58 161 151 125 161 184 190 222 111 104 210 204 196 73 123 67 211 99 131 102 165 203 143 126 169 144 164 173 29 181 118 156 157 134 151 72 198 86 27 107 84 131 142 109 164 189 186 164 165 88 113 161 148 187 119 132 190 204 105 185 84 48 160 103 187 170 74 134 167 168 91 136 100 113 179 103 140 84 141 112 151 147 41 121 48 192 154 161 80 84 208 146 236 119 
143 160 108 205 20 45 156 134 81 149 119 174 188 104 190 126 142 148 204 154 62 159 76 142 24 164 12 205 129 104 105 91 123 159 130 142 76 151 124 203 176 162 185 95 147 91 149 168 167 157 34 74 146 140 143 142 167 59 106 166 216 136 160 152 179 98 176 130 126 184 163 186 228 162 161 153 234 204 176 161 55 155 93 190 144 149 139 182 158 103 160 231 121 142 194 137 99 197 125 157 
214 174 94 105 123 156 95 190 124 159 178 193 100 112 146 114 171 143 139 156 139 58 150 66 142 148 184 124 111 139 159 142 153 167 108 200 229 119 139 171 115 190 190 147 145 117 167 83 148 77 155 153 175 131 193 216 160 120 198 163 140 67 156 128 168 58 155 159 163 155 160 156 169 148 32 180 123 95 188 167 209 201 144 116 105 121 115 171 159 125 119 169 109 129 65 117 102 186 166 120 
216 137 61 221 121 131 152 161 156 123 137 162 146 106 119 216 158 166 182 155 163 189 145 119 148 233 182 60 175 161 192 152 107 88 119 122 114 137 148 130 189 175 162 139 120 104 87 75 129 141 139 149 183 171 134 187 200 135 190 112 202 186 88 151 60 159 134 165 213 142 119 159 180 131 150 146 101 179 199 23 155 151 161 106 142 218 139 120 156 122 148 209 168 155 102 151 124 132 151 130 
164 105 96 78 123 222 170 124 152 130 158 81 95 84 61 102 75 194 141 137 132 162 110 113 122 157 139 116 132 110 203 176 129 94 124 163 117 154 175 196 138 164 103 79 208 156 160 165 73 206 180 73 136 217 216 173 90 139 146 158 128 164 105 59 155 101 113 167 129 130 129 170 152 170 164 163 132 124 164 207 112 116 149 150 118 172 41 144 94 107 144 71 209 206 161 74 140 69 156 147 
152 150 163 185 192 110 130 95 121 128 107 156 158 135 34 144 136 73 153 141 112 133 149 175 128 206 226 186 58 147 166 138 139 193 118 121 137 107 155 115 48 186 127 79 233 216 193 41 118 168 122 144 108 123 109 189 69 169 179 109 174 188 70 67 132 95 111 159 76 215 202 165 143 117 150 150 179 76 181 152 178 177 101 161 125 111 176 145 97 144 135 90 147 89 188 189 110 161 121 111 
176 126 142 145 166 119 133 148 207 105 151 93 136 117 169 151 123 42 150 97 91 135 130 155 89 194 165 189 143 80 119 102 117 148 145 125 149 129 181 71 113 162 143 148 138 154 92 172 166 134 100 106 43 193 133 192 114 145 122 111 117 120 109 207 160 81 132 63 170 62 150 199 148 209 129 204 89 161 160 180 158 96 143 139 83 185 138 138 87 219 147 172 128 204 144 32 123 152 198 132 
203 98 135 208 103 155 168 59 150 137 135 178 194 145 153 160 192 79 153 97 143 190 148 156 146 130 170 138 44 182 212 172 129 122 179 100 162 165 197 185 129 145 166 161 146 108 143 143 130 143 205 197 147 142 146 193 73 73 207 144 169 109 171 146 167 163 86 161 148 177 154 130 137 143 108 161 48 211 182 146 180 115 169 139 55 190 163 84 205 181 210 110 180 210 179 182 174 110 156 123 
128 120 158 200 182 195 126 167 134 96 117 165 100 174 168 34 64 133 198 72 71 152 162 171 50 134 107 118 92 151 194 125 155 138 168 160 163 106 150 183 166 75 143 149 145 186 122 195 102 169 40 148 166 179 171 171 49 128 79 178 106 102 175 131 186 136 189 122 149 70 196 122 77 200 109 153 141 92 211 186 66 74 160 147 157 162 162 119 187 121 93 84 148 175 142 116 158 122 151 139 
94 176 150 139 134 58 167 182 83 138 148 196 152 151 141 77 183 65 132 133 140 88 213 178 134 142 159 186 165 127 78 129 149 141 206 199 162 196 136 141 154 153 177 51 180 78 64 100 178 137 93 98 192 153 181 62 133 100 125 207 121 149 135 179 109 162 203 96 133 209 131 181 141 154 119 110 142 176 143 181 176 64 180 113 177 185 208 228 175 194 94 142 139 105 103 181 166 90 165 49 
190 139 192 162 120 185 144 179 72 159 114 124 157 143 121 65 101 148 142 170 157 188 146 110 127 135 31 155 102 128 84 129 117 88 138 48 149 166 117 177 115 165 149 170 165 118 97 134 124 102 143 163 136 144 165 121 153 134 158 61 147 209 186 127 121 79 71 116 132 149 132 121 174 210 123 185 161 171 145 84 145 165 132 179 197 183 178 61 207 203 87 108 221 162 109 101 39 88 168 219 
189 161 168 196 98 89 120 85 99 77 118 156 102 190 149 133 184 95 202 87 156 126 133 153 50 185 86 121 116 191 117 102 144 193 164 81 204 199 228 169 170 233 153 141 82 130 102 91 191 166 129 158 91 160 130 135 125 207 201 122 123 113 177 180 99 183 170 153 86 142 140 122 171 132 134 134 172 165 139 173 177 132 131 165 114 169 97 161 199 181 96 71 59 198 156 173 188 126 200 215 
166 181 166 42 96 147 90 127 194 136 188 68 118 149 159 122 132 153 106 194 117 85 149 128 148 61 207 183 84 194 98 149 130 153 77 193 114 131 98 154 187 78 166 160 117 135 119 215 109 60 146 202 131 112 141 111 139 185 117 164 135 135 55 193 150 131 130 151 128 41 72 97 193 193 129 168 152 130 146 144 60 148 54 125 85 159 158 180 185 186 122 110 147 134 153 149 73 185 172 76 
132 150 123 182 156 127 64 97 96 134 194 154 155 166 78 121 128 140 87 165 187 175 134 111 173 129 115 161 148 168 165 133 157 132 129 147 182 67 168 161 160 188 170 172 88 151 153 182 136 97 88 167 154 112 196 137 116 234 126 138 121 128 135 237 178 205 165 209 152 69 74 191 174 187 124 101 123 75 174 103 109 75 69 113 167 219 67 216 126 106 180 139 176 93 179 139 140 201 157 186 
213 95 174 176 116 106 105 148 156 138 149 184 163 220 155 163 151 188 104 42 167 138 144 144 45 182 113 177 93 133 173 205 138 160 163 169 32 125 79 175 154 142 183 144 142 179 150 114 153 209 148 137 141 118 159 156 191 64 207 185 105 138 141 87 147 148 147 147 123 185 216 77 103 175 184 150 113 110 133 195 152 191 96 181 168 150 123 159 127 128 226 127 168 84 118 156 215 140 137 158 
197 104 131 180 101 170 136 155 138 147 188 171 133 170 76 177 98 180 155 185 133 146 94 146 143 185 208 119 186 184 140 166 114 114 78 198 60 200 226 151 141 115 128 186 125 147 93 130 178 147 137 135 178 156 105 159 84 105 160 105 131 161 126 45 142 130 149 125 98 120 158 172 108 164 163 165 200 151 205 161 170 163 193 68 95 183 69 80 195 204 141 154 144 142 205 102 201 118 47 167 
186 209 195 182 133 173 115 137 126 187 118 97 183 155 142 74 113 118 118 97 184 177 188 182 149 185 140 132 144 128 61 57 114 176 119 83 92 122 154 156 135 144 195 233 119 176 157 162 139 83 168 182 164 163 82 135 66 96 140 165 149 141 105 183 145 41 29 137 139 47 212 183 114 141 70 117 137 161 174 127 174 141 120 149 96 172 164 166 158 178 145 142 89 95 127 72 29 147 43 170 
126 157 150 172 155 132 194 114 157 43 101 96 164 176 107 129 193 109 172 161 120 174 128 147 157 162 94 140 70 159 51 151 107 101 117 134 151 174 188 164 159 79 161 186 107 103 177 128 102 151 181 207 165 170 189 121 164 165 55 211 145 107 149 194 174 151 142 92 132 135 82 104 153 179 180 150 122 221 184 139 143 144 188 106 135 129 143 58 180 173 144 69 125 202 121 79 49 165 160 123 
201 187 17 168 145 61 92 141 171 78 57 203 230 81 73 158 186 129 171 29 104 195 139 180 197 32 63 181 201 123 72 169 127 177 181 149 150 172 148 172 186 139 86 99 181 132 125 156 113 213 111 96 199 87 168 126 98 177 119 137 183 157 175 88 169 103 139 179 174 85 136 197 8 101 87 106 172 221 16 136 15 201 114 147 64 131 155 145 170 124 154 196 132 129 190 194 125 158 150 132 
71 207 26 130 117 135 164 67 76 152 156 77 85 56 167 173 158 181 155 166 197 126 149 93 60 172 119 50 143 154 126 152 138 195 157 109 122 128 126 63 178 134 156 100 51 149 143 154 196 156 126 188 98 142 206 75 152 131 163 125 167 128 195 162 128 204 120 141 155 198 108 138 185 151 124 136 224 141 65 186 167 153 168 147 175 99 155 148 131 150 159 154 93 94 131 147 131 164 56 157 
181 112 218 105 182 153 142 176 230 138 203 68 170 166 139 153 139 136 201 178 149 86 103 133 75 139 142 111 154 116 176 122 178 177 85 127 133 83 145 192 91 124 119 206 125 167 212 90 161 167 155 101 124 167 181 148 147 199 77 163 238 180 203 70 149 176 163 147 161 232 86 220 218 128 140 71 148 105 160 212 126 73 185 209 136 182 109 67 113 170 142 189 152 216 149 124 126 134 128 165 
141 109 104 133 141 187 153 113 199 162 170 165 183 198 150 206 148 155 156 184 152 138 69 190 89 179 152 215 45 126 95 44 184 123 79 177 143 195 142 197 106 37 97 108 115 135 205 139 204 83 125 155 171 170 117 169 80 149 125 204 177 188 180 152 157 123 184 125 141 183 133 50 66 170 124 56 75 184 74 124 110 193 178 72 88 127 61 35 160 165 149 83 97 96 150 139 118 84 77 134 
85 80 137 141 110 134 125 153 186 192 29 106 137 182 145 235 54 190 161 173 150 147 117 104 174 125 137 167 171 143 104 146 137 50 140 82 41 147 130 118 104 123 170 86 118 161 101 134 194 64 107 121 216 212 68 58 133 177 123 163 184 154 102 164 84 124 195 103 141 109 111 128 94 48 94 169 140 109 162 199 52 64 118 157 157 109 151 147 145 178 86 87 140 95 139 55 133 81 134 109 
163 205 168 157 147 156 89 84 148 128 184 129 159 102 124 187 162 123 136 147 216 192 179 122 186 150 119 77 166 141 187 167 167 70 173 161 108 106 165 130 102 94 106 155 139 190 116 163 204 172 125 120 115 75 224 133 218 165 127 137 167 175 178 134 156 159 121 138 147 65 200 93 158 59 78 160 160 139 116 177 92 202 49 162 180 64 179 153 133 164 167 176 175 202 141 210 113 152 142 152 
99 103 126 188 159 239 115 161 103 160 106 203 124 165 180 149 120 160 156 66 176 205 192 143 129 123 129 157 166 193 164 163 178 119 29 120 158 129 154 111 192 143 147 197 152 201 105 158 174 214 136 65 95 187 146 130 175 152 148 43 180 129 142 144 96 151 178 228 37 131 140 133 77 93 129 131 95 111 177 148 160 156 178 123 243 161 111 94 217 146 103 77 93 111 148 83 185 82 73 176 
113 140 111 50 179 58 150 54 111 80 62 218 153 110 120 90 90 120 138 169 75 150 80 203 88 192 164 159 157 183 130 118 69 164 220 173 177 153 196 89 188 151 216 136 184 167 85 121 164 170 152 101 143 106 105 233 107 149 174 203 143 147 130 141 172 182 158 87 116 155 176 174 98 140 162 116 212 129 89 165 164 105 122 159 202 140 173 188 164 188 191 61 129 193 185 146 95 92 222 75 
194 154 122 94 87 171 147 130 171 113 213 90 148 124 157 162 175 177 121 171 207 189 140 194 118 155 150 184 150 160 138 142 196 154 138 150 174 106 177 149 87 146 209 157 109 162 240 113 130 69 163 124 140 167 163 184 106 140 147 166 170 199 99 192 145 161 193 97 186 140 171 229 101 175 207 166 145 174 119 105 113 149 142 152 218 125 177 193 99 182 154 175 147 150 193 135 87 212 106 116 
141 145 183 128 140 186 157 55 110 148 91 164 201 184 141 140 47 175 181 156 139 126 190 170 222 207 104 145 196 123 145 120 169 217 214 144 53 122 66 184 189 173 199 107 171 104 145 173 229 116 174 161 104 146 134 156 146 189 106 78 187 156 192 150 155 51 154 138 85 140 90 136 146 124 174 105 148 175 206 156 122 101 76 166 149 80 175 201 180 153 128 228 162 171 146 121 195 71 105 86 
149 171 189 98 84 82 153 155 150 135 123 173 185 130 139 111 108 153 154 213 115 175 161 138 223 163 184 172 139 177 179 164 131 115 177 188 200 140 153 124 187 198 205 118 164 158 48 169 172 155 196 142 92 164 66 172 149 92 141 154 117 148 21 168 140 169 138 171 50 128 135 151 96 179 173 169 118 167 146 165 208 211 196 203 156 79 162 90 113 205 127 203 94 207 150 63 105 149 199 149 
83 105 147 152 139 125 198 58 126 149 176 94 135 148 192 170 167 180 150 153 180 124 180 162 133 149 187 136 93 80 26 58 156 169 69 134 122 53 141 78 155 156 166 84 130 135 110 194 193 142 48 58 80 131 92 176 117 111 136 158 134 126 70 108 156 159 148 214 150 170 137 60 124 116 206 99 137 136 53 167 146 220 104 125 68 171 47 159 107 166 137 192 218 140 154 228 211 89 156 196 
151 131 193 215 120 92 174 239 136 190 191 184 122 110 127 70 83 120 152 132 110 148 141 184 154 123 182 164 164 154 118 113 160 139 124 122 140 190 72 181 164 75 217 114 167 132 220 172 188 140 117 96 173 92 172 59 208 145 157 101 182 72 163 114 110 161 183 130 135 129 135 142 154 194 97 174 185 182 168 152 89 165 107 92 174 150 106 155 136 167 111 161 139 160 208 128 222 104 179 137 
61 80 116 182 150 52 104 181 106 123 87 140 129 125 133 175 193 125 70 100 144 161 110 156 35 70 159 174 170 183 189 147 151 168 132 203 63 199 134 115 180 90 156 161 57 200 229 72 60 178 198 93 184 132 81 90 148 175 49 99 94 140 73 126 173 163 156 142 70 156 94 169 105 73 128 55 169 174 44 156 176 199 169 187 208 180 64 117 189 115 174 169 53 151 150 116 156 194 86 108 
156 152 212 58 82 109 98 124 191 166 29 129 148 181 133 197 84 140 173 109 236 175 164 212 158 141 143 190 162 120 55 64 163 158 129 226 152 168 121 203 197 196 169 187 183 138 166 48 166 129 144 181 81 119 149 148 141 174 125 176 92 174 143 172 140 90 214 118 110 51 180 53 138 55 158 130 159 116 189 112 41 133 90 186 127 135 192 119 28 121 149 149 204 221 74 162 90 148 99 175 
149 101 139 182 148 126 57 118 142 152 142 82 126 111 183 114 126 145 149 186 210 89 100 205 163 189 151 159 128 166 157 185 171 108 140 193 139 129 86 122 146 70 104 159 134 147 180 185 180 171 113 96 122 182 62 158 100 127 181 26 64 173 178 36 172 121 106 107 129 131 147 135 121 200 174 175 170 85 189 217 117 109 136 157 146 164 108 200 173 178 203 151 69 148 124 87 158 141 130 60 
157 87 41 149 65 105 112 209 193 183 142 119 160 83 103 172 111 119 167 162 43 98 125 144 65 179 157 166 90 60 111 159 155 164 194 173 118 197 132 111 206 137 120 158 143 136 95 172 74 123 55 101 156 154 197 202 166 176 35 184 154 146 145 211 173 182 54 97 125 130 133 151 150 145 123 75 175 172 136 67 50 198 96 212 82 183 222 114 213 141 180 87 144 136 167 172 136 115 123 179 
114 48 157 139 118 107 222 155 130 160 136 131 84 179 118 195 145 135 98 111 184 95 160 195 167 83 106 197 139 65 179 110 55 105 146 187 172 178 171 145 114 100 196 118 175 113 144 159 161 85 86 153 130 100 131 209 94 184 168 122 121 198 154 176 114 118 204 203 147 158 183 153 159 160 82 137 181 170 74 174 227 36 194 143 127 137 144 159 162 108 134 191 152 164 97 139 114 194 113 178 
177 148 133 157 152 211 139 138 109 172 98 107 140 160 203 163 81 99 176 151 16 195 141 200 175 104 84 164 134 164 128 208 185 143 22 151 179 159 107 99 152 106 139 150 166 130 168 179 80 170 143 111 118 83 63 123 131 62 163 168 112 181 114 164 190 172 108 140 134 135 158 164 165 139 193 181 181 100 182 173 137 161 142 208 132 191 204 92 128 141 147 172 207 150 173 165 123 177 213 162 
102 65 100 130 193 159 151 148 156 114 127 180 193 142 130 160 142 137 222 184 145 165 114 126 58 84 179 129 57 141 168 204 40 176 113 143 187 169 180 166 156 11 205 159 99 76 80 219 151 108 196 116 95 153 132 154 115 91 136 172 150 146 183 197 203 155 116 149 81 131 191 198 151 99 136 206 121 215 165 173 65 85 182 151 131 168 59 160 103 141 152 180 142 144 108 128 58 172 129 140 
172 153 170 60 144 54 143 115 199 35 130 114 148 148 134 119 175 19 195 133 127 66 172 190 136 171 85 246 208 143 174 93 132 156 215 126 196 170 220 90 126 190 112 74 118 131 113 109 149 147 182 139 94 117 207 48 138 91 153 177 161 113 192 148 164 153 195 165 113 141 90 149 32 200 149 112 153 141 147 64 81 137 162 197 143 191 145 76 211 200 109 175 213 190 83 153 154 185 116 159 
54 140 128 165 154 149 181 154 193 129 142 188 107 153 52 165 228 166 148 93 183 180 143 158 184 168 183 113 175 222 206 165 143 112 203 147 70 95 132 181 182 76 150 161 34 158 113 170 104 101 178 92 139 152 221 119 168 170 56 182 147 143 130 172 105 106 109 216 89 131 95 228 166 94 150 121 87 45 159 130 138 100 172 190 71 198 130 128 207 69 180 143 172 123 102 192 63 135 188 71 
115 163 136 170 164 202 137 100 146 118 97 166 168 78 178 169 198 109 176 119 86 177 121 123 134 169 196 158 117 121 138 75 208 208 143 201 150 205 139 154 152 35 205 174 160 159 212 200 186 64 215 150 135 164 216 157 156 161 185 172 90 174 164 139 96 166 77 183 93 93 132 174 93 86 105 142 141 84 125 98 154 98 118 148 198 145 169 148 187 112 131 200 167 53 145 128 173 125 199 76 
128 116 189 213 118 138 162 140 74 101 183 69 161 159 150 120 100 186 169 143 145 138 145 111 98 103 96 200 92 146 131 157 217 176 128 72 125 164 158 182 207 107 153 46 148 189 64 165 100 187 200 146 108 170 230 176 95 133 222 55 127 153 108 154 100 190 171 168 95 150 143 188 183 102 182 195 184 103 132 171 181 216 208 33 181 154 142 180 101 105 177 158 211 80 203 204 183 202 165 57 
159 98 161 131 152 72 129 124 146 114 122 185 70 68 165 93 139 194 200 121 111 109 164 178 218 151 150 161 143 232 139 150 65 127 109 190 142 115 171 95 136 160 72 113 124 146 204 214 113 147 119 132 229 173 184 153 151 207 155 160 120 206 206 118 206 209 184 104 112 140 138 208 132 108 166 130 153 141 109 131 57 105 122 134 180 188 161 174 88 158 44 179 173 109 79 175 110 162 155 140 
137 181 170 184 131 141 152 93 97 121 169 182 116 147 220 91 205 139 189 182 153 123 150 86 123 67 131 72 187 178 91 168 192 42 163 146 37 99 103 133 138 161 116 175 155 145 125 83 112 145 87 151 181 155 153 127 223 180 116 42 87 148 196 135 68 202 106 143 84 115 154 143 64 183 149 165 129 146 175 152 214 185 198 192 113 190 125 151 123 152 196 102 123 125 133 135 58 179 139 200 
132 73 36 127 193 191 179 143 137 149 220 201 29 153 205 132 54 150 172 153 113 98 174 186 106 78 170 148 124 200 190 130 114 172 196 92 183 151 202 31 173 149 75 131 117 223 58 108 139 119 207 79 122 95 144 134 71 136 117 168 156 96 91 150 188 149 143 121 134 163 139 143 212 191 192 162 124 169 140 154 227 198 95 147 189 141 115 160 71 97 178 152 163 157 194 97 145 141 175 191 
86 133 155 189 152 86 156 158 59 131 180 157 123 160 156 144 155 156 156 95 121 123 45 142 112 148 125 122 186 125 117 153 188 101 173 134 121 212 198 157 156 155 162 163 27 153 102 137 180 177 128 131 145 163 85 143 141 67 140 164 62 131 178 149 78 173 139 127 141 192 163 201 199 104 142 34 145 204 202 121 206 124 191 143 107 165 137 120 168 161 202 36 204 144 110 152 195 198 101 128 
146 128 75 147 210 221 159 175 138 163 145 208 85 152 156 94 68 58 120 138 170 142 157 146 101 147 128 157 184 75 172 103 120 136 225 154 180 77 101 240 129 199 171 158 129 205 197 156 102 79 181 102 162 147 90 158 172 151 176 164 172 62 127 45 184 130 147 236 213 63 32 161 95 150 109 188 155 79 70 175 152 102 151 79 81 127 161 176 138 188 93 35 218 146 134 102 125 89 118 180 
164 193 145 126 152 106 131 179 151 171 183 154 136 116 201 155 205 195 121 76 137 189 196 140 166 170 110 150 192 69 96 64 133 184 113 89 55 120 203 168 74 115 190 178 167 142 140 91 149 143 136 205 163 162 145 146 199 141 117 124 147 165 136 190 66 149 133 152 127 154 181 101 191 153 85 223 202 66 131 161 152 107 161 158 156 155 229 129 152 148 144 108 122 127 132 205 96 62 127 176 
169 196 168 131 104 137 198 128 150 209 101 108 125 187 175 159 123 178 154 173 160 64 182 114 190 106 135 158 159 84 151 120 171 90 130 140 192 166 148 155 119 185 129 133 192 88 146 75 149 98 58 147 148 86 157 125 87 121 146 102 126 142 206 197 81 176 158 169 189 143 107 87 147 143 103 191 159 148 174 200 178 150 145 111 137 90 66 149 100 152 100 164 143 131 79 88 140 94 153 128 
177 118 142 98 178 80 133 176 80 178 135 107 216 160 90 202 197 118 167 122 179 170 140 132 107 92 104 70 204 133 173 80 139 126 85 103 153 163 132 78 72 107 184 116 169 133 187 119 92 46 204 121 126 155 133 105 167 111 213 146 150 159 139 96 104 171 151 130 161 126 165 126 47 133 94 172 91 58 121 101 178 207 112 128 179 184 156 88 138 111 139 99 146 119 124 139 104 157 141 154 
191 130 112 159 112 142 155 99 137 176 159 137 101 167 130 98 147 151 128 146 109 151 167 152 176 118 212 186 120 205 165 144 114 146 109 147 160 215 151 116 125 161 146 131 126 129 144 184 159 152 158 188 163 115 156 171 112 154 131 114 99 205 154 87 137 146 126 140 139 169 147 120 82 146 112 48 186 139 219 128 126 182 128 97 147 156 105 157 158 144 173 122 164 177 125 209 151 164 129 201 
94 87 172 165 90 145 154 164 225 129 189 174 200 156 180 159 195 164 170 215 167 131 191 103 150 179 180 153 116 157 127 144 98 113 143 123 99 141 139 116 192 174 158 98 138 102 103 109 156 157 178 136 127 181 72 164 196 173 187 123 158 130 193 139 206 141 78 87 196 153 154 130 120 96 190 113 111 190 189 138 127 146 151 198 188 185 136 100 202 199 153 148 136 171 150 140 114 123 147 196 
157 170 172 153 180 128 154 129 185 159 80 160 126 162 164 166 129 133 141 134 114 103 131 162 177 174 188 134 95 145 138 147 63 141 132 174 172 112 148 133 65 82 142 230 147 181 120 55 198 118 185 164 161 148 176 142 167 101 121 200 81 70 107 199 181 125 81 149 45 125 113 164 83 121 98 136 201 145 151 173 139 90 102 164 171 159 192 132 206 114 167 96 157 129 138 173 144 196 165 99 
77 126 179 209 167 199 161 80 141 149 104 217 106 165 146 119 203 129 206 108 127 143 120 211 120 193 83 198 143 139 130 124 131 175 161 135 102 147 128 108 82 193 155 136 169 169 129 162 133 98 179 194 141 162 143 116 96 149 190 208 164 187 117 176 52 181 208 146 137 83 185 150 234 180 148 130 140 118 109 126 229 126 108 132 196 175 182 194 122 125 195 151 82 146 154 149 115 223 131 130 
147 223 211 174 176 184 115 141 120 163 113 130 135 160 163 116 203 154 86 193 100 160 110 174 182 111 151 94 65 134 96 152 162 229 135 148 156 112 231 189 98 201 64 140 164 154 150 116 201 135 107 227 155 215 175 192 83 165 214 147 64 203 119 148 83 183 108 176 99 154 82 127 122 195 179 157 6 27 132 137 113 208 92 103 117 133 161 179 18 52 172 85 146 141 109 180 208 194 147 109 
156 204 178 186 181 114 166 197 84 116 83 62 154 194 141 137 212 113 123 161 153 162 130 142 88 102 158 141 69 147 101 191 157 95 90 200 158 150 182 138 169 135 150 76 73 121 88 175 112 140 132 190 173 109 214 159 174 147 149 202 100 136 155 155 201 106 175 135 182 190 160 208 141 140 155 167 197 139 200 207 177 76 135 155 191 88 170 124 98 91 132 46 143 168 143 174 107 193 154 114 
96 231 176 154 173 170 189 154 151 79 107 104 184 139 181 220 184 151 86 156 112 134 54 164 197 161 142 157 195 152 145 153 83 197 55 145 167 176 144 101 108 172 163 124 164 186 245 116 128 202 125 152 144 163 59 185 233 176 150 121 80 193 143 100 159 105 73 145 161 122 191 148 181 134 153 118 143 124 100 50 100 87 63 156 143 130 171 191 86 162 140 152 154 139 59 114 162 73 185 107 
167 139 86 182 166 166 114 190 139 117 26 185 139 124 130 81 54 119 176 130 173 153 36 192 160 158 209 213 167 155 66 198 43 119 119 187 207 187 134 84 86 75 198 109 51 116 81 119 130 121 83 202 155 136 142 90 93 114 155 187 160 102 201 142 187 187 124 88 141 161 151 144 141 119 112 111 238 90 151 159 199 186 168 192 87 121 170 91 182 137 123 112 198 203 212 97 143 161 88 106 
150 150 226 164 62 143 119 89 150 77 175 156 143 73 157 152 144 146 195 166 130 158 160 183 144 128 160 215 192 139 197 165 173 197 128 165 123 138 151 134 117 129 84 165 57 190 131 183 200 162 94 135 191 99 182 172 158 146 91 152 132 133 171 208 105 136 140 167 122 107 129 176 175 167 92 158 129 148 192 162 165 192 180 200 154 121 193 173 175 123 201 166 162 185 158 87 148 140 151 158 
194 159 133 103 176 96 136 191 165 174 179 166 142 193 105 115 71 88 176 199 168 194 74 128 173 114 157 89 175 173 177 153 131 136 200 50 210 106 156 28 143 170 110 138 192 134 42 139 189 60 115 184 159 111 102 209 170 73 123 115 158 138 140 168 117 152 126 186 177 109 131 190 145 104 88 116 142 118 174 148 115 163 134 118 150 138 142 157 127 146 135 144 204 214 62 152 175 200 113 173 
130 72 62 167 139 161 200 115 164 129 141 161 165 68 201 93 121 119 158 106 149 171 85 166 185 137 140 163 143 111 100 85 136 116 181 198 109 93 115 147 164 144 168 84 158 125 153 107 85 172 129 120 73 107 129 144 145 217 203 98 153 141 148 42 186 114 113 126 180 115 75 149 80 227 108 52 55 134 153 135 171 107 154 139 65 46 91 235 81 137 151 143 157 191 166 156 187 124 162 99 
180 122 121 124 153 209 67 192 116 86 64 192 129 95 156 120 130 193 190 167 155 127 96 129 189 117 105 196 133 95 171 108 150 162 146 143 140 172 157 180 148 176 171 169 124 65 89 182 119 161 47 207 202 136 185 175 195 160 176 128 127 131 126 201 94 147 113 119 111 143 209 149 48 132 138 141 134 163 152 80 152 200 170 175 167 143 127 100 68 124 56 182 177 67 190 161 170 144 159 114 
157 148 178 136 64 140 205 138 140 145 147 160 119 142 186 133 161 111 171 116 136 108 157 155 61 111 112 83 165 157 165 166 145 173 179 137 161 169 61 106 159 29 151 136 159 116 196 121 172 132 154 209 147 214 143 107 141 110 69 90 154 128 88 114 127 121 102 142 103 90 90 96 128 160 207 120 188 202 96 76 109 49 95 138 174 186 99 182 132 78 151 174 173 157 199 81 145 143 196 148 
163 157 177 165 112 149 143 221 176 125 90 79 162 80 152 113 196 54 135 188 154 196 56 179 75 101 176 150 164 127 191 72 94 112 54 211 86 117 178 132 204 164 189 80 140 149 106 165 183 190 32 164 100 43 143 191 94 138 170 119 106 164 206 131 130 137 170 151 102 147 187 142 100 179 104 158 51 59 165 117 144 133 198 155 82 79 115 108 119 177 114 85 171 177 213 130 125 159 165 125 
206 195 199 173 167 181 204 139 115 200 156 150 154 74 214 123 147 181 162 137 160 138 183 200 91 132 152 171 76 153 166 213 98 128 113 181 48 197 149 54 184 114 160 161 161 172 92 198 139 104 149 119 149 128 113 174 152 162 170 98 163 146 118 57 151 210 206 179 179 121 101 134 193 194 171 116 121 117 62 84 156 94 144 166 113 227 144 114 152 168 144 215 96 150 204 182 142 139 152 103 
118 186 107 142 206 136 155 118 112 133 201 136 171 172 149 199 151 165 106 74 131 111 159 190 151 156 99 62 178 177 96 107 141 170 104 165 136 212 105 176 146 153 140 176 150 141 147 149 157 189 96 135 149 155 162 191 72 140 126 114 147 173 194 156 200 203 113 205 121 121 102 128 132 67 79 171 161 133 70 58 216 163 200 209 173 211 94 107 154 151 144 144 143 128 110 118 69 128 132 168 
102 177 127 181 162 135 71 193 86 118 126 99 140 203 161 147 211 194 61 140 156 123 153 100 169 26 148 131 198 118 181 58 161 148 138 85 64 127 137 68 165 95 96 159 156 76 158 97 142 161 69 157 159 103 129 158 158 153 150 87 123 133 135 173 127 173 195 186 185 132 134 111 108 161 129 123 172 194 97 194 150 171 109 174 156 106 141 139 181 33 176 177 97 165 189 54 181 156 42 170 
76 164 135 64 148 180 98 224 165 125 113 135 20 92 223 146 147 140 126 131 142 108 185 191 110 179 99 96 162 130 137 97 180 135 85 143 108 140 189 95 86 234 141 151 167 75 104 168 148 166 97 207 190 173 145 187 162 164 241 148 67 123 178 147 200 161 146 201 133 184 157 96 149 63 214 204 134 171 187 137 199 181 137 194 79 154 124 132 147 139 69 164 130 58 157 149 101 123 121 119 
57 152 152 201 194 117 65 77 83 74 144 163 163 188 215 113 170 106 194 125 171 200 116 88 145 171 141 95 147 224 174 193 144 193 112 145 101 133 171 55 59 165 95 206 136 108 202 111 64 217 208 156 113 108 141 144 223 175 147 72 188 145 196 191 119 155 185 187 160 204 103 153 123 84 116 77 137 60 160 170 75 160 124 148 175 120 171 86 116 176 213 110 212 127 196 164 103 155 163 104 
127 194 152 119 168 129 90 105 131 190 191 183 182 100 208 115 96 166 44 217 188 203 180 106 197 187 102 81 143 147 183 157 123 140 108 173 123 70 206 128 168 74 179 173 113 144 188 162 190 126 159 245 97 141 194 111 114 72 176 167 106 104 148 160 103 151 149 165 107 91 169 70 150 193 141 196 88 224 124 138 166 235 171 172 191 147 102 102 82 144 190 89 147 75 129 91 141 160 149 149 
158 109 203 186 119 111 157 166 161 211 195 159 81 127 50 112 186 148 164 102 160 142 150 104 239 98 128 148 109 174 96 94 86 124 203 117 74 112 178 140 139 159 143 149 185 84 189 173 89 192 163 160 154 176 156 179 148 185 105 111 170 120 183 153 115 130 215 208 148 132 194 129 51 32 186 148 158 180 159 119 170 170 43 201 93 115 157 152 132 81 125 199 121 192 132 122 163 135 136 100 
107 150 190 159 114 59 143 155 131 120 74 131 82 92 227 179 153 160 194 158 121 150 184 164 138 159 194 198 157 161 168 145 142 169 101 152 142 119 134 249 182 160 91 143 162 145 204 173 105 199 149 94 107 154 77 162 170 162 109 177 124 200 176 81 164 62 46 138 149 126 145 70 125 96 150 70 207 147 72 144 167 175 215 200 191 185 87 181 156 198 47 149 142 170 70 153 141 71 133 129 
114 133 184 186 187 148 130 133 42 88 108 31 69 191 136 151 175 72 53 122 179 153 90 199 176 97 157 93 160 65 111 178 185 194 110 74 163 129 168 152 185 117 44 115 132 203 186 151 173 163 174 132 172 200 144 143 157 191 167 182 107 220 125 125 100 169 103 151 165 119 179 142 91 74 133 167 83 183 140 121 105 150 164 75 116 126 75 156 99 207 84 103 134 181 176 52 172 130 216 163 
176 96 172 59 147 183 62 206 147 160 111 168 152 136 111 110 118 155 188 121 129 159 167 111 79 167 160 143 201 103 147 116 134 99 170 192 168 103 81 168 149 139 158 155 91 164 188 183 144 129 155 130 124 155 177 95 71 99 145 88 134 176 98 139 161 176 159 203 163 154 162 224 178 136 93 175 207 127 154 195 140 148 77 151 158 143 205 168 132 23 156 162 174 144 204 103 165 101 47 165 
109 109 119 126 110 148 214 143 187 173 183 206 160 167 95 147 157 163 63 110 143 105 124 139 149 114 86 141 183 168 152 148 143 155 158 173 59 151 136 204 146 60 220 140 89 171 84 172 160 156 174 173 152 57 203 145 138 42 108 130 164 170 146 167 106 129 116 133 192 174 178 49 163 121 121 168 172 132 116 153 195 79 217 76 161 31 169 148 135 70 130 170 217 136 165 106 157 102 184 136 
176 134 192 172 156 73 175 138 158 118 91 103 168 44 165 152 115 163 131 202 157 162 197 80 98 84 72 43 116 248 117 162 103 103 136 118 135 170 147 130 158 178 68 131 182 155 226 48 124 137 156 157 171 206 195 90 129 146 103 131 188 88 57 181 168 170 128 201 192 149 54 148 140 67 107 115 185 106 167 180 95 116 193 187 138 171 140 124 145 120 170 153 111 55 181 108 200 211 118 85 
126 163 148 117 84 155 143 62 110 141 144 184 138 96 125 126 137 120 136 139 204 134 148 150 213 114 149 148 168 211 148 163 132 132 160 123 137 158 178 150 144 78 169 132 173 133 30 149 172 111 70 49 175 145 146 182 162 213 117 94 182 74 196 128 192 181 154 222 159 139 136 174 106 156 94 76 110 153 188 109 188 116 102 154 118 77 142 151 196 67 189 149 226 180 159 142 104 144 139 137 
149 179 114 192 174 185 175 110 129 209 163 131 138 78 133 153 203 180 142 191 181 108 80 127 195 144 69 138 172 172 148 142 184 195 156 169 165 198 142 54 125 124 142 196 184 118 38 129 130 143 194 137 186 190 180 156 139 97 200 121 104 114 145 36 140 188 52 169 164 205 193 140 163 236 171 161 181 179 126 85 149 137 189 104 123 149 168 82 178 158 209 120 138 162 114 134 180 154 119 170 
142 148 165 190 183 139 109 149 93 199 213 196 177 152 130 124 198 175 177 60 131 217 154 125 65 102 140 154 144 148 175 191 99 83 63 108 139 193 63 80 162 122 95 135 176 136 163 147 163 147 108 157 116 160 109 131 192 150 53 165 160 162 191 231 161 130 162 192 186 142 136 123 128 101 128 133 193 105 125 121 179 140 188 115 79 148 198 101 158 126 152 199 191 171 220 172 211 170 163 107 
171 44 94 175 195 145 169 94 103 82 139 138 173 205 98 98 152 109 130 127 164 205 128 185 158 147 138 131 146 143 170 150 228 96 117 139 181 135 120 153 88 142 139 93 146 175 130 135 155 162 145 101 191 122 158 208 183 65 146 112 193 69 187 117 158 200 73 168 88 187 188 74 248 85 123 210 108 144 175 188 191 76 155 113 186 115 53 147 173 173 123 202 85 125 169 151 124 166 206 167 
169 154 60 93 177 216 217 171 113 167 165 203 170 168 221 135 148 125 194 148 183 136 193 35 148 164 115 150 177 115 49 115 133 79 137 167 38 190 134 153 149 164 185 187 159 68 187 167 183 138 196 136 148 109 99 167 113 124 62 102 144 130 98 97 147 92 113 149 152 151 56 120 131 158 161 165 141 144 175 136 142 110 145 168 78 89 96 148 129 189 166 94 166 149 161 70 109 154 101 188 
160 144 125 143 58 188 129 117 129 188 116 144 159 193 160 73 200 163 148 196 147 197 74 213 120 181 217 184 94 171 170 164 221 176 107 237 161 189 146 130 158 176 173 199 135 145 100 168 133 178 202 176 46 120 207 129 153 205 129 141 145 160 140 203 140 102 123 203 153 168 183 98 189 157 116 149 180 120 146 164 128 160 182 107 112 187 111 172 184 168 174 123 95 94 50 134 79 181 149 166 
104 121 165 128 146 32 182 134 210 224 100 153 122 115 132 223 146 178 151 36 113 154 117 165 192 153 184 168 120 76 100 148 176 171 159 174 134 62 146 137 138 122 155 146 180 157 152 22 179 187 174 202 96 229 150 154 173 147 110 151 158 154 52 190 117 141 153 197 56 78 117 145 206 82 142 138 179 160 83 88 128 162 175 189 131 152 82 152 197 103 141 155 62 146 131 177 150 171 195 164 
85 144 151 141 206 241 158 129 115 114 137 120 169 150 144 112 117 139 150 104 160 154 77 82 124 133 188 158 112 156 235 126 136 172 173 174 150 91 139 217 92 145 162 109 217 155 68 158 110 197 163 189 156 127 182 205 75 196 116 161 146 205 173 88 69 184 111 74 150 149 186 193 153 141 114 62 144 96 219 100 159 136 70 189 162 173 158 118 144 155 205 92 96 76 141 195 166 134 141 221 
175 93 147 164 214 125 148 71 111 140 76 130 133 146 169 167 164 61 74 165 165 139 46 111 171 179 162 172 97 191 161 129 45 168 212 67 115 165 127 128 136 144 199 139 125 183 129 155 171 216 192 93 97 176 229 81 119 159 122 78 128 162 106 214 155 182 174 149 211 170 147 140 214 157 90 157 156 163 189 98 146 159 117 152 169 133 95 191 159 128 98 116 121 168 181 123 176 203 158 95 
171 74 142 171 137 184 105 74 100 99 190 171 119 211 154 115 87 101 30 64 135 168 89 124 134 116 194 79 226 125 173 119 120 186 193 52 145 185 190 166 130 182 140 145 52 62 155 205 139 145 128 199 39 127 124 65 110 225 185 164 120 154 180 131 210 107 186 134 15 36 146 83 131 230 145 165 119 104 89 194 150 136 162 153 129 203 146 133 160 130 153 186 147 130 150 77 102 191 41 201 
147 139 119 73 9 150 173 196 155 73 183 185 128 151 70 142 86 116 88 155 128 151 153 147 202 168 116 58 154 77 149 148 132 163 92 175 196 159 196 59 45 147 169 170 67 191 218 92 71 111 181 181 137 134 67 180 150 141 150 105 161 146 95 156 181 69 134 166 112 76 70 136 168 136 149 169 171 171 148 120 182 74 118 130 143 173 193 53 136 81 117 155 199 109 166 178 133 100 175 163 
118 127 113 139 109 173 183 116 86 167 57 121 164 198 180 235 167 148 160 172 184 117 180 167 237 157 200 155 154 86 186 108 160 45 186 189 122 165 166 129 178 132 159 152 165 108 123 96 161 61 58 190 124 122 109 70 144 157 114 128 166 160 144 174 61 74 175 213 172 142 85 59 42 145 144 104 100 135 144 229 186 119 131 81 151 82 169 145 133 120 125 159 65 176 151 229 179 119 165 203 
191 226 189 131 73 156 64 196 95 89 136 160 203 121 199 129 231 153 127 169 141 86 61 141 82 126 140 116 149 145 181 120 166 169 95 173 188 111 26 162 106 83 182 162 111 152 150 165 169 92 159 205 148 110 96 77 168 154 127 150 167 96 115 54 173 189 106 213 87 199 160 123 138 156 103 128 147 84 107 189 118 134 159 161 138 115 70 145 158 153 127 199 173 128 127 156 69 160 129 157 
160 124 86 170 153 117 130 152 207 142 150 96 139 156 208 113 138 118 187 85 111 190 126 57 144 166 139 80 221 37 195 181 71 104 118 80 166 138 119 189 189 120 190 127 169 199 139 141 167 171 109 221 152 82 118 162 95 171 177 140 141 191 150 147 92 91 169 204 150 144 114 180 157 79 173 196 150 161 110 96 159 126 146 86 155 87 172 176 172 154 142 87 160 92 167 126 200 212 98 173 
95 187 140 117 131 191 120 53 220 139 70 151 195 143 98 114 94 119 125 150 131 220 186 66 146 183 188 162 179 48 181 148 134 131 167 184 128 92 170 98 112 130 116 141 107 158 156 172 176 163 203 124 123 195 111 102 103 136 90 158 157 146 120 85 184 70 140 164 131 111 95 161 170 170 150 117 69 61 150 160 85 212 153 191 241 123 141 194 94 105 77 79 127 148 169 166 109 105 159 182 
118 75 137 113 181 189 97 88 153 124 166 138 163 105 200 128 69 155 67 133 188 136 179 153 168 126 218 182 209 118 123 146 116 81 148 182 132 97 214 124 169 146 187 142 163 131 153 205 97 146 61 117 162 124 144 151 95 173 81 152 39 172 166 204 97 135 118 174 204 219 184 176 174 150 102 154 35 125 149 113 155 72 137 139 176 152 167 131 90 142 198 163 77 122 51 183 131 49 110 105 
115 169 206 132 77 77 174 111 119 184 171 167 117 135 219 69 58 68 177 171 187 120 59 89 153 148 167 90 169 88 61 166 178 145 99 195 100 103 132 152 97 139 139 121 154 70 57 68 141 178 151 64 93 140 148 161 164 83 153 137 141 180 154 185 96 112 225 135 115 146 102 139 144 149 139 158 143 103 168 35 162 197 151 76 168 112 185 76 119 140 132 158 71 135 151 71 198 107 148 138 
92 172 125 149 104 151 150 113 128 163 45 129 136 105 194 175 127 131 151 213 133 178 163 85 101 158 19 152 117 158 173 124 161 183 161 175 174 140 157 155 72 112 53 188 116 171 150 139 122 162 148 201 175 161 104 146 134 170 139 202 129 123 165 145 134 87 142 171 111 208 102 125 150 229 77 181 90 137 177 82 162 113 175 79 128 221 114 152 84 227 156 163 112 214 147 171 191 208 191 132 
141 133 164 49 136 117 85 145 108 159 130 141 179 109 141 113 131 177 219 157 72 140 147 136 178 183 129 192 150 210 190 197 101 145 127 147 144 168 145 146 139 43 142 157 193 150 182 71 119 166 28 153 151 158 120 177 26 152 174 136 125 164 153 150 210 68 106 133 145 181 149 100 209 72 184 111 65 183 181 122 146 108 166 225 139 157 160 188 159 145 141 136 158 78 174 200 160 126 78 127 
