P2
100 100
255
189 202 141 189 199 140 114 104 156 100 172 120 165 203 117 179 42 16 139 178 52 172 146 62 121 25 141 139 188 194 203 146 124 115 127 174 158 88 196 108 161 106 105 138 156 159 67 124 192 112 170 163 141 187 164 185 182 147 105 217 151 200 172 124 179 200 180 91 93 103 107 94 164 187 69 171 188 148 137 117 161 144 159 143 149 159 140 92 88 191 151 106 182 178 194 161 155 171 163 155 
199 177 209 123 142 147 210 173 154 148 164 148 98 151 93 211 58 126 183 153 186 161 159 226 103 173 197 158 200 168 70 181 150 177 74 173 136 150 183 103 144 154 219 173 132 171 140 82 194 134 157 94 172 112 197 113 138 151 190 63 202 139 62 151 148 190 200 116 147 182 99 151 99 82 166 125 127 158 151 52 84 149 172 166 122 195 201 156 95 137 93 130 171 125 159 138 115 186 149 64 
126 179 117 122 148 183 146 100 186 163 133 171 79 167 108 202 93 161 146 14 125 112 140 212 119 204 128 120 199 162 153 159 154 62 161 204 92 219 84 182 76 201 120 172 169 72 125 140 147 66 194 76 62 160 197 143 65 178 165 174 76 83 162 192 177 114 120 91 142 134 78 155 155 105 156 128 181 169 79 133 163 210 222 129 102 190 132 178 199 206 136 35 141 153 116 75 157 88 102 156 
52 103 170 157 131 151 192 70 124 96 99 215 132 149 121 176 186 174 111 96 131 112 124 142 131 134 120 147 183 158 174 124 93 118 100 83 99 128 154 131 153 151 162 184 80 137 168 164 166 95 186 166 150 216 121 132 176 144 33 183 183 63 169 119 174 191 197 71 191 192 153 149 103 68 181 143 196 96 112 159 120 161 206 198 239 125 110 168 171 144 183 98 152 74 159 220 84 166 110 124 
123 141 98 155 121 155 187 132 110 96 173 133 173 182 82 184 120 44 132 163 99 184 120 195 65 145 225 94 160 179 185 135 161 147 145 117 114 181 127 151 172 170 135 37 145 195 177 191 181 142 141 204 127 178 199 109 139 99 104 148 161 156 156 107 151 131 202 200 102 170 83 167 81 137 29 105 155 191 174 195 173 208 160 129 95 119 157 153 240 172 172 148 238 130 114 206 100 143 57 144 
111 159 178 155 99 159 13 58 211 125 163 173 87 86 76 136 123 167 163 212 144 140 152 141 150 122 162 132 214 172 50 186 151 189 154 47 130 142 89 198 102 167 77 189 193 138 209 180 166 147 163 165 135 104 161 113 147 127 147 180 135 173 142 55 201 124 58 61 182 130 186 146 127 124 216 127 172 135 71 146 78 161 158 222 155 177 176 160 21 162 183 96 204 134 150 136 148 104 163 61 
175 187 28 97 55 137 114 68 75 135 201 194 156 171 116 146 150 140 129 188 183 154 203 183 143 123 141 97 100 136 214 210 224 157 118 95 89 130 149 197 97 209 108 71 81 167 149 120 179 115 173 103 150 149 128 173 173 128 182 26 160 135 40 109 130 103 138 93 175 113 33 93 138 168 186 143 157 148 107 85 180 102 99 156 117 154 87 112 167 188 115 198 119 154 65 186 89 202 150 115 
177 163 82 146 150 148 218 125 149 105 141 122 109 159 45 146 141 111 47 198 128 132 128 162 109 87 108 180 118 152 100 121 97 207 179 148 115 193 50 185 49 205 138 211 161 158 99 150 123 140 132 171 185 142 54 153 168 189 160 139 180 137 155 117 109 173 123 142 184 207 214 192 115 176 198 159 79 131 113 183 68 76 43 130 135 106 193 96 146 179 145 223 148 142 177 183 124 124 126 63 
176 163 183 182 29 177 217 140 180 103 67 176 203 199 119 185 46 175 148 135 183 210 88 123 119 111 205 115 194 111 124 135 168 122 127 163 227 150 143 165 197 181 195 128 183 129 156 159 182 106 159 151 51 70 162 156 158 129 152 133 199 59 153 116 206 213 129 153 138 206 144 60 106 130 143 91 218 104 145 195 126 194 155 159 152 177 127 125 158 138 150 144 157 116 206 155 52 136 175 183 
112 225 101 145 204 152 159 118 168 237 203 114 93 61 159 159 153 115 159 72 116 70 200 185 81 174 172 115 178 160 150 169 111 156 147 187 97 125 155 165 147 190 176 123 183 126 141 150 170 197 170 185 90 145 121 142 90 140 193 152 120 188 73 133 201 69 95 181 154 163 171 134 171 200 203 147 107 170 219 182 112 218 173 74 191 92 195 144 40 188 79 213 72 192 219 143 156 123 159 169 
105 136 140 88 144 71 120 122 146 81 164 66 90 106 157 159 125 157 226 207 163 140 157 198 117 132 154 113 97 134 110 34 143 140 156 159 88 177 140 155 101 130 125 34 108 153 88 132 159 105 102 170 92 158 200 133 179 138 146 182 180 167 171 154 181 129 114 82 92 167 123 197 138 204 164 75 118 188 83 84 181 168 113 146 111 199 56 163 134 65 186 95 123 152 77 111 151 186 164 146 
186 155 127 57 113 179 176 198 179 127 154 147 173 131 148 138 156 193 142 140 222 174 130 189 154 133 146 73 169 189 164 124 129 84 88 141 123 157 146 144 109 194 183 39 177 155 135 76 146 139 213 104 183 218 133 156 154 178 139 154 147 156 115 152 187 220 181 193 155 210 190 144 156 60 99 125 127 220 130 153 180 144 139 205 81 97 175 122 175 136 192 174 144 136 52 95 140 139 135 127 
150 188 104 143 177 173 98 48 112 198 158 131 164 182 122 150 131 178 140 128 150 205 104 67 136 138 120 189 169 149 128 164 84 110 75 146 195 175 138 159 139 178 222 221 188 25 91 107 85 153 192 152 185 180 178 87 156 192 140 156 75 75 101 195 85 138 195 117 143 155 128 192 70 98 120 149 116 161 124 41 81 176 152 82 45 152 112 142 179 157 208 182 107 119 104 101 185 20 162 135 
105 145 194 169 188 103 131 92 120 120 118 157 108 148 96 208 123 166 176 147 153 95 154 95 75 190 71 107 139 133 116 155 133 181 166 170 133 207 184 97 171 110 152 80 171 140 171 83 189 186 183 135 147 183 179 156 188 227 136 143 88 170 150 141 90 181 77 193 129 120 120 161 183 82 142 182 159 190 199 106 167 187 196 194 144 146 137 154 155 207 124 167 144 150 100 112 142 177 200 136 
116 142 156 131 87 141 155 94 183 97 153 63 145 104 74 166 117 144 78 116 163 192 138 125 129 184 140 172 177 97 146 131 148 183 156 82 133 182 111 89 213 171 108 157 146 177 163 164 74 103 201 147 137 151 121 144 124 148 156 93 161 205 110 70 133 119 153 134 145 175 167 94 161 157 115 137 189 160 174 139 140 218 127 138 166 79 156 223 130 251 47 171 158 27 209 162 136 151 67 194 
170 134 147 172 152 108 114 97 146 159 117 142 162 149 164 124 126 121 157 141 120 128 173 123 133 134 128 187 123 126 125 147 144 122 94 198 119 120 98 205 177 123 150 162 187 120 167 161 194 91 115 170 179 137 173 136 107 127 190 161 124 157 192 167 46 25 177 188 217 174 212 107 80 37 151 177 157 104 157 192 200 141 97 57 127 167 103 178 124 198 126 36 110 181 129 193 180 93 187 185 
108 131 156 95 116 76 218 94 199 164 122 151 213 115 153 211 135 70 216 161 194 135 188 144 172 155 195 216 172 16 81 164 105 95 159 167 176 156 75 124 125 153 162 192 136 122 120 174 103 138 60 128 146 95 146 104 147 153 72 131 84 191 45 87 109 128 136 173 197 96 100 139 121 144 146 201 187 118 134 145 83 184 174 88 78 66 122 147 152 202 52 202 75 190 144 175 117 145 164 135 
153 167 148 189 97 173 167 72 100 134 143 54 148 176 156 172 114 180 164 146 71 167 138 18 152 130 225 158 173 146 133 154 100 158 179 106 161 145 127 158 128 116 114 159 123 112 155 105 90 125 143 115 168 128 135 209 103 71 152 194 113 168 102 185 153 105 167 178 145 135 155 131 185 76 155 139 163 191 129 159 158 150 125 120 125 153 128 174 174 157 182 183 185 157 126 167 204 159 183 173 
122 137 199 182 184 84 137 116 175 87 153 182 88 89 196 185 194 129 187 55 179 57 162 162 146 162 118 118 101 186 136 200 100 58 215 124 124 146 86 183 34 139 171 206 94 155 138 98 84 106 134 113 91 132 109 104 90 144 66 166 129 82 153 186 152 179 169 122 187 185 152 143 119 231 125 174 171 149 131 145 144 39 122 221 141 28 174 130 178 138 70 172 182 153 196 173 142 148 148 160 
208 131 186 34 166 84 130 90 72 159 141 198 145 150 89 182 139 149 161 142 127 99 150 196 109 143 124 155 156 127 209 138 171 46 211 173 76 96 154 85 79 30 153 113 166 103 53 163 117 145 75 210 158 184 204 86 209 176 85 127 90 91 159 95 199 141 183 196 197 167 53 225 184 144 66 137 217 180 116 132 107 163 97 132 135 153 178 158 120 123 92 69 158 163 128 105 146 145 165 126 
116 202 153 174 130 151 157 60 167 166 97 200 172 119 150 148 161 149 188 122 143 83 151 136 148 173 108 195 150 165 128 74 174 107 138 153 166 151 108 129 115 199 138 154 43 157 163 215 153 90 108 174 181 70 163 192 118 106 204 111 186 78 176 141 130 178 174 97 81 82 165 62 126 165 104 153 198 132 150 144 147 152 127 41 153 102 164 163 67 140 126 83 182 103 201 200 80 217 146 154 
159 210 204 141 152 91 161 202 192 68 159 176 112 185 175 162 118 205 139 196 206 110 190 180 172 183 82 197 160 66 206 123 100 153 177 191 173 113 189 140 91 221 149 86 95 84 141 19 165 182 99 155 40 112 140 211 50 122 186 135 139 126 81 185 151 146 124 152 98 80 91 136 165 131 160 138 151 139 126 90 175 79 130 219 87 188 146 70 171 183 85 115 125 141 154 60 138 119 161 134 
191 182 102 106 178 137 105 177 138 180 151 173 210 116 193 132 91 192 192 114 119 204 131 180 76 168 152 169 141 179 202 202 173 150 142 118 140 190 187 129 137 133 162 177 158 133 83 134 123 52 57 159 86 179 68 190 138 175 174 186 123 124 118 146 92 103 58 184 156 144 144 186 156 137 110 130 177 150 135 192 95 118 140 109 215 147 171 113 181 136 156 153 202 158 190 140 96 67 196 151 
120 182 150 136 150 139 140 166 190 60 125 100 103 178 69 186 202 179 106 190 143 150 19 172 171 192 186 192 114 126 149 183 114 132 135 140 144 145 45 188 104 97 94 132 130 164 124 109 157 41 165 180 110 77 194 122 175 145 124 128 176 176 162 217 154 129 118 136 125 204 137 99 100 140 157 93 147 174 180 194 166 190 165 146 167 126 146 150 30 194 110 134 165 149 204 128 146 168 150 191 
165 172 175 175 42 176 126 154 170 34 134 75 159 141 98 174 116 149 96 140 161 87 117 103 136 116 142 179 113 170 129 181 164 159 51 162 155 160 189 120 84 131 197 167 100 183 133 146 211 146 208 163 106 196 147 150 202 184 76 105 102 149 35 183 90 122 144 136 127 168 133 81 133 165 67 157 83 185 160 183 139 144 143 216 177 155 141 149 170 140 194 185 139 168 99 139 105 191 145 148 
104 128 191 161 159 183 134 138 134 68 155 138 134 196 186 129 45 150 154 145 106 92 36 174 105 158 188 118 117 181 125 162 164 201 140 105 18 117 168 114 89 120 87 146 35 131 96 173 163 168 172 136 125 147 105 133 49 27 164 163 155 100 126 113 199 64 108 181 164 189 161 97 124 162 57 141 162 217 30 143 173 162 153 210 157 184 177 112 146 160 56 50 158 167 142 100 148 166 126 71 
97 158 107 152 208 108 173 192 138 203 155 94 180 90 201 156 103 120 182 77 110 101 173 154 150 183 110 109 178 156 45 123 164 179 147 120 193 122 190 109 136 184 194 117 89 122 194 92 163 111 175 145 140 180 181 171 162 167 121 156 137 182 90 162 107 199 158 154 171 130 67 105 79 149 124 108 167 202 162 143 189 117 142 129 169 108 142 168 169 109 174 151 170 208 165 170 180 137 197 156 
131 125 175 114 119 148 138 74 160 206 201 171 52 136 226 142 192 166 179 138 100 136 187 162 176 30 121 151 209 152 127 119 154 142 69 126 206 104 91 157 75 174 126 185 205 56 115 177 192 84 246 166 157 141 54 129 164 176 199 122 163 137 111 141 168 175 70 136 161 137 145 200 64 92 173 100 204 180 92 185 180 57 190 170 176 107 217 136 122 191 199 103 148 166 176 147 76 102 135 162 
182 143 196 80 188 166 174 127 110 110 203 69 153 160 157 154 190 173 168 139 174 105 129 154 185 102 106 120 199 144 199 184 80 186 115 156 145 91 169 188 129 231 208 119 190 189 163 215 143 114 59 204 170 191 100 175 142 128 151 76 125 131 69 158 151 122 106 90 43 173 212 148 130 178 119 108 125 62 159 148 150 161 143 144 163 88 173 106 100 227 187 208 203 92 197 161 70 159 103 143 
136 154 144 190 62 135 105 163 84 176 125 138 154 172 179 129 73 194 62 142 74 84 138 108 208 153 96 92 187 176 108 173 185 121 137 144 129 184 43 177 103 142 179 95 103 174 146 123 194 214 84 162 164 102 130 199 127 136 76 174 74 126 96 201 161 153 161 122 200 167 164 137 195 161 153 117 144 81 184 144 189 111 118 149 139 172 201 139 147 159 122 150 67 120 131 126 118 120 215 68 
106 170 175 88 87 137 172 236 87 92 54 204 121 130 182 140 167 108 160 91 111 52 168 128 208 146 175 113 216 164 95 98 161 153 171 137 115 100 119 86 191 112 71 136 129 216 176 179 221 123 62 137 186 204 152 54 125 165 180 212 148 67 108 114 150 84 96 133 202 158 142 118 161 169 186 113 137 116 153 124 138 215 72 230 180 113 95 146 65 195 126 102 78 151 108 164 176 126 94 163 
177 133 103 122 129 185 174 86 112 89 199 177 63 160 70 158 88 187 150 161 209 153 113 169 153 131 119 174 158 81 236 125 105 91 75 159 142 180 28 159 184 138 168 194 167 130 101 151 154 108 159 138 113 127 181 100 124 46 151 174 131 93 194 162 125 227 139 136 102 229 190 120 151 161 194 184 145 222 214 138 113 126 117 101 161 75 158 207 194 130 179 185 200 144 178 126 163 38 90 54 
106 186 181 80 122 168 170 196 142 137 149 140 181 135 163 200 102 193 211 130 58 124 173 144 127 184 134 134 171 160 178 77 140 175 130 168 158 165 125 111 167 116 177 152 102 156 80 99 142 104 228 179 187 110 158 109 179 94 178 198 116 73 165 140 167 107 116 149 95 90 195 171 104 181 168 80 162 184 118 177 97 154 135 164 182 163 99 123 133 189 124 214 74 175 148 138 142 127 150 65 
102 149 167 176 148 109 54 98 152 183 125 150 181 227 139 157 154 157 158 214 197 181 209 85 179 188 157 177 151 232 125 176 112 92 188 158 148 172 180 115 67 104 182 47 171 144 108 166 199 225 133 177 191 150 195 121 142 121 179 136 111 180 72 159 135 189 68 146 144 93 122 60 184 131 170 126 131 200 91 212 184 190 180 147 194 188 152 203 139 76 152 108 79 124 121 128 207 174 157 169 
49 148 154 170 137 66 112 72 191 189 122 125 200 133 165 130 117 154 129 97 144 51 98 205 26 103 91 103 143 163 169 187 54 146 117 142 135 158 186 168 101 180 100 134 118 154 184 103 180 186 181 118 92 49 193 198 70 149 202 75 210 88 103 145 138 112 112 95 136 79 178 219 113 175 111 101 152 209 174 175 155 139 154 157 150 169 131 198 158 197 110 171 136 188 155 134 74 121 158 145 
90 143 114 126 132 188 179 130 114 105 128 121 126 199 81 164 150 130 186 122 171 142 159 119 195 181 55 139 128 104 130 176 186 108 171 144 152 98 133 124 150 110 181 162 83 200 159 146 134 170 117 105 154 171 158 168 178 230 191 195 27 56 112 99 107 187 190 194 120 172 99 121 124 198 190 178 156 91 143 164 182 105 197 200 203 159 185 149 54 73 78 167 155 224 196 101 144 65 143 104 
123 173 102 132 188 97 199 114 81 154 125 188 70 134 69 134 141 174 108 203 66 144 190 180 117 93 149 46 162 165 191 61 189 155 178 171 62 140 150 135 155 101 130 196 120 159 152 60 211 183 125 76 108 42 181 174 192 164 179 183 156 135 171 144 169 102 125 186 102 49 142 133 156 48 173 116 137 116 101 133 137 137 153 102 128 145 139 166 137 157 176 111 84 136 171 232 140 140 159 74 
225 169 163 112 154 171 178 153 155 164 69 148 140 200 103 221 151 190 182 193 175 126 160 128 117 95 163 238 133 146 192 164 117 161 192 103 164 182 163 90 143 138 152 128 136 177 162 115 59 136 108 166 155 184 111 85 165 200 141 20 108 165 58 173 104 118 174 161 171 170 108 137 147 66 212 96 124 99 150 149 142 114 143 186 100 149 176 95 125 131 116 161 142 138 158 216 116 134 174 141 
126 85 94 204 160 226 111 120 68 99 120 106 159 153 116 220 137 150 114 129 157 168 125 188 124 196 192 151 155 150 160 136 159 87 156 196 172 104 124 132 177 135 129 85 154 169 164 31 59 188 131 120 33 147 134 146 139 163 133 180 146 166 146 154 162 34 155 182 117 69 165 196 92 105 178 91 108 130 168 217 116 109 204 148 144 55 168 132 186 116 171 189 165 90 82 70 154 167 104 161 
172 99 114 158 120 74 149 127 144 163 36 22 199 161 221 108 219 113 128 140 152 136 183 127 189 117 144 173 145 189 69 184 131 143 150 73 131 198 93 161 157 91 176 139 48 163 142 161 142 165 183 124 172 140 141 142 104 145 117 168 159 41 157 97 142 154 146 56 108 162 147 74 51 151 72 140 180 78 129 160 155 197 69 212 74 126 169 111 246 101 181 152 85 171 140 145 197 124 177 169 
76 165 238 103 171 172 182 86 149 113 107 182 159 141 114 175 120 116 159 157 64 164 151 110 173 88 98 151 122 206 103 171 53 155 114 118 47 161 213 82 88 133 124 153 175 182 166 174 198 104 184 175 175 61 157 154 129 149 125 136 193 129 122 232 124 117 127 92 118 185 117 78 127 175 113 71 129 155 143 168 183 28 210 126 105 185 120 163 167 214 194 99 124 137 150 94 114 67 135 95 
155 218 158 80 202 208 178 129 140 90 162 165 154 206 68 155 102 146 176 156 138 48 71 100 158 185 108 115 184 164 107 45 57 135 205 170 188 84 132 94 180 143 173 190 173 191 198 129 102 108 158 111 149 111 158 201 109 206 182 159 131 189 157 147 179 146 44 173 78 187 163 85 119 203 127 110 187 173 147 113 178 73 142 178 198 110 184 208 206 113 144 149 178 102 136 106 131 173 166 148 
134 142 118 204 143 178 158 152 110 161 210 47 103 149 94 144 75 166 139 134 192 190 206 115 124 161 153 180 46 150 168 111 185 175 120 111 173 137 128 108 138 116 81 163 169 144 55 121 182 150 68 145 154 182 156 189 193 138 187 188 108 33 87 97 156 127 41 129 129 71 125 163 176 145 176 149 249 159 134 148 174 184 103 177 76 98 158 151 165 181 54 181 80 228 203 153 159 41 108 150 
176 146 193 100 100 97 123 219 164 218 109 151 184 99 101 164 181 133 172 46 167 119 149 78 124 182 156 153 98 150 150 228 140 137 203 166 68 134 190 187 172 164 204 100 130 205 119 130 154 50 169 116 115 102 172 126 175 223 57 101 208 151 180 94 175 129 164 173 115 176 196 188 177 146 151 121 177 130 141 162 181 105 195 197 152 187 58 156 133 110 98 93 176 110 196 175 179 113 80 77 
167 73 94 84 87 145 195 147 215 92 42 93 199 123 157 212 157 157 136 143 182 89 150 82 204 176 196 114 93 206 146 128 90 171 197 176 163 129 178 180 107 122 160 118 172 107 183 165 30 183 154 62 114 140 86 130 158 130 150 176 157 175 153 192 127 181 100 123 169 135 152 247 93 141 171 122 42 186 198 100 163 130 138 126 80 127 175 147 150 77 141 135 89 146 157 159 191 116 189 40 
149 209 115 111 115 158 110 102 123 145 114 149 218 159 135 113 74 174 123 108 127 145 182 151 83 183 146 144 152 164 129 155 104 72 117 183 198 151 122 145 124 165 188 166 75 120 134 156 121 172 117 139 147 142 78 101 101 131 115 200 228 155 181 112 97 198 72 145 188 177 138 198 101 158 101 81 65 195 163 34 130 162 153 202 161 145 134 139 194 148 172 136 132 142 184 165 184 193 155 149 
91 110 172 151 183 109 183 136 143 166 92 157 179 125 92 118 183 152 212 28 177 105 65 145 127 80 178 127 169 154 147 134 91 69 136 169 160 178 157 143 193 179 193 121 172 92 133 143 196 183 132 40 155 181 119 152 129 150 135 188 205 161 55 112 139 122 51 133 147 127 172 126 177 169 191 199 148 166 156 132 138 192 164 165 131 114 112 164 154 228 157 114 180 178 83 186 59 156 129 165 
108 110 198 105 93 66 209 129 154 161 200 115 166 173 164 185 163 75 131 131 64 182 144 121 143 165 180 133 163 129 127 199 81 116 152 182 127 115 196 188 210 96 202 131 129 111 54 130 56 142 208 50 179 100 203 142 78 200 75 178 193 136 99 172 146 184 68 171 120 187 97 123 132 132 148 165 196 144 110 71 105 153 116 102 189 146 140 69 192 140 83 70 165 149 116 173 41 127 94 78 
45 150 207 166 74 199 86 192 133 203 187 140 124 174 161 82 131 120 136 119 224 185 132 143 174 188 130 83 190 157 191 138 231 206 161 177 199 156 78 146 75 136 100 174 172 224 135 76 146 44 155 153 193 165 130 137 141 166 82 67 224 152 151 72 145 41 124 120 59 177 139 52 229 155 153 160 168 36 148 161 197 152 149 159 170 111 163 166 108 107 204 139 160 81 175 148 123 157 109 204 
105 146 144 121 128 203 147 143 178 123 172 88 169 191 93 151 61 185 139 82 148 122 148 120 118 114 160 142 17 85 137 176 175 32 139 89 106 41 158 143 229 111 165 207 150 140 138 54 131 114 143 207 90 200 137 51 156 104 120 177 169 199 200 158 131 136 145 185 22 142 78 141 116 199 165 148 173 126 204 127 103 151 151 83 174 151 209 119 151 200 122 180 71 69 150 178 180 174 164 168 
177 147 95 154 78 182 101 160 128 161 141 130 80 190 110 40 133 198 148 75 201 108 120 192 219 153 184 63 55 180 166 160 154 137 112 115 236 157 166 89 186 164 91 209 103 148 168 194 183 179 173 52 170 138 163 125 198 135 146 100 155 112 86 105 162 82 118 200 177 98 153 130 189 115 139 29 91 132 141 132 202 130 42 218 145 136 158 118 120 68 78 99 205 127 137 199 128 178 165 202 
115 161 151 207 198 173 136 87 120 221 146 146 44 146 159 93 142 135 95 169 157 104 166 89 205 90 163 105 154 86 124 140 156 117 141 205 60 180 151 72 154 145 160 173 156 153 100 92 100 153 89 183 78 171 95 152 107 87 145 150 86 228 141 103 176 162 28 137 83 111 65 197 51 29 96 142 160 149 182 49 84 124 128 82 187 160 132 220 104 152 136 203 169 173 151 51 131 111 164 128 
206 167 191 211 138 191 184 207 61 146 146 156 37 149 218 111 192 147 177 170 167 102 122 162 199 102 135 203 134 97 75 169 79 155 145 131 114 112 224 130 169 163 142 140 118 221 219 130 150 168 175 188 78 203 178 171 177 102 100 125 174 161 120 174 169 168 127 96 104 90 138 204 145 145 175 37 99 130 118 102 97 131 124 126 162 144 108 181 174 89 241 197 116 37 124 145 142 119 122 175 
118 191 172 92 58 134 115 149 90 210 133 162 170 102 145 110 85 133 119 206 162 186 177 110 87 128 164 93 65 165 126 32 19 139 76 197 114 147 89 97 219 201 130 115 69 113 153 142 228 152 149 96 179 120 106 83 198 235 124 157 134 73 125 83 62 119 156 153 103 201 182 163 120 243 187 155 63 190 104 109 152 83 149 98 86 150 162 207 173 171 129 66 197 188 130 120 114 171 101 78 
109 113 109 192 83 90 109 96 109 202 171 17 164 204 119 126 144 124 217 168 121 167 189 121 195 158 167 185 123 213 116 147 141 65 117 54 137 176 77 174 90 148 162 189 202 156 24 182 190 199 53 146 176 193 84 94 119 215 145 117 207 190 93 139 54 137 159 128 156 132 33 140 145 86 180 130 150 87 188 164 152 205 116 184 126 136 128 101 137 112 117 110 134 167 38 177 212 146 112 90 
143 150 143 225 165 129 140 89 119 142 131 168 139 187 112 160 146 118 163 156 147 198 134 119 100 10 225 128 98 193 130 120 175 104 169 90 104 173 107 62 92 177 195 196 114 146 85 129 167 177 177 166 163 121 157 157 201 116 100 218 194 128 135 176 146 168 189 76 135 162 124 139 117 162 135 79 112 192 153 113 127 227 185 171 176 186 67 174 159 142 54 198 110 169 104 105 155 154 162 55 
140 180 61 139 112 184 181 177 125 167 130 86 131 129 175 185 129 113 174 120 139 121 164 171 158 111 161 141 106 198 162 120 151 101 165 180 159 118 172 165 175 175 190 221 129 95 145 67 136 131 163 186 186 159 174 151 161 209 158 156 132 150 154 119 190 67 129 100 154 147 237 195 11 127 129 79 123 118 119 169 145 46 192 99 175 144 165 141 191 194 154 122 203 114 173 108 138 152 161 181 
154 81 135 146 199 90 77 61 142 131 156 159 170 178 70 57 192 185 175 159 139 87 181 162 47 125 141 185 41 152 156 165 155 139 148 78 140 205 161 187 116 138 141 88 97 82 128 168 149 169 176 183 97 164 137 96 164 137 176 191 181 114 92 171 154 119 142 77 132 113 144 117 111 190 147 170 78 157 36 200 189 112 84 121 98 154 120 38 128 76 196 137 125 90 120 94 129 156 106 28 
181 145 134 123 104 149 172 150 103 145 215 130 102 78 135 197 156 86 184 179 193 79 112 201 90 166 158 152 134 135 116 204 109 119 207 169 156 151 197 94 192 175 155 112 196 101 147 168 157 60 139 175 119 140 182 85 114 181 117 98 76 211 82 124 187 209 150 136 203 144 175 146 178 185 175 141 131 164 146 138 121 138 176 105 182 118 160 165 203 105 133 143 160 192 163 83 143 153 52 191 
140 137 214 170 72 187 174 149 126 214 87 169 103 159 101 40 113 170 151 159 176 207 154 107 157 172 101 183 69 126 197 64 168 160 84 96 122 201 113 73 155 169 155 144 160 163 172 97 105 182 106 167 113 174 109 116 180 184 142 135 190 104 179 178 138 135 72 92 171 117 148 197 123 146 156 196 140 151 148 139 150 168 114 123 194 78 119 142 167 171 163 211 187 137 171 100 148 159 181 170 
158 127 190 107 22 157 186 180 164 149 106 87 116 136 166 132 114 146 167 159 191 193 147 147 181 152 104 159 72 152 163 56 98 185 174 150 120 137 85 86 194 150 65 126 162 135 37 175 62 150 96 156 153 182 91 80 131 144 190 197 141 112 110 141 137 131 167 48 211 125 135 141 140 153 138 136 183 44 118 156 124 140 192 150 201 120 156 212 150 204 156 151 101 149 175 134 144 153 149 195 
123 143 200 111 166 68 140 130 126 152 87 147 203 86 181 146 136 139 197 167 151 61 181 134 136 172 183 181 160 141 99 22 179 166 184 189 151 166 139 147 142 167 140 99 191 192 178 120 161 97 176 137 169 174 205 150 163 77 215 19 181 148 192 154 152 96 155 76 173 152 149 121 32 82 111 212 219 152 75 163 146 172 157 124 145 128 154 127 157 139 151 66 163 122 130 74 95 180 156 118 
160 155 111 95 147 128 150 162 147 142 139 190 155 182 158 186 118 201 114 120 117 192 103 90 172 201 182 145 184 158 137 137 105 195 154 141 127 197 156 174 123 35 167 173 159 179 109 175 103 177 184 79 187 169 165 195 67 23 193 132 135 146 89 128 92 158 42 156 161 131 87 186 46 144 154 139 161 148 141 78 88 99 145 134 211 129 152 106 109 181 167 195 153 157 158 126 106 98 183 160 
82 165 168 138 159 127 191 168 162 118 87 129 34 166 92 130 86 85 149 173 143 103 114 151 114 134 159 94 30 203 103 102 82 142 209 133 130 163 221 87 96 84 171 42 104 205 104 214 171 126 180 167 155 150 145 78 174 142 118 154 163 182 157 185 194 114 187 184 198 107 162 126 129 124 118 121 142 79 128 117 179 191 45 192 47 90 132 188 140 152 135 88 95 139 184 146 153 127 190 115 
150 130 103 198 180 188 156 141 159 185 64 203 178 145 65 181 109 148 200 210 128 210 152 201 187 174 176 133 140 174 63 198 159 149 140 137 179 148 57 152 154 92 150 186 114 72 58 154 142 184 176 205 163 109 152 58 108 139 110 143 162 137 116 124 163 105 134 212 162 142 127 164 218 109 146 199 163 167 131 139 185 188 141 52 173 133 140 161 140 146 93 142 158 129 67 131 179 131 60 190 
204 166 153 110 100 60 183 101 132 183 111 164 162 114 178 90 148 134 144 131 138 113 151 110 134 97 201 166 148 201 62 178 155 62 90 163 171 162 144 112 89 225 220 132 180 150 65 116 140 190 153 199 173 156 174 165 74 80 147 198 163 98 82 184 146 94 230 161 197 134 213 165 211 172 142 145 139 164 160 166 149 108 84 61 81 162 77 139 213 131 186 123 199 216 151 234 159 133 177 129 
162 143 134 125 184 134 113 129 115 25 141 177 127 136 70 139 91 173 106 107 90 200 175 158 147 166 151 100 153 47 172 135 133 137 99 129 134 130 191 176 102 159 106 99 211 165 112 68 162 163 92 133 126 113 158 177 167 189 139 208 168 140 120 208 105 109 137 162 154 129 99 161 148 174 129 106 167 150 135 120 207 184 121 151 203 136 164 141 56 138 40 173 56 127 161 149 193 116 221 166 
126 147 175 180 154 172 151 188 160 132 177 164 128 181 127 106 164 66 137 173 105 123 208 74 162 159 157 147 199 107 100 69 77 185 178 114 136 44 144 179 125 141 199 205 105 60 169 73 103 162 126 175 124 109 100 173 196 121 171 123 123 125 119 191 147 79 141 128 88 60 199 199 131 97 179 188 130 108 170 216 144 200 152 147 173 142 61 97 151 171 191 131 159 177 75 221 141 100 114 118 
135 118 139 53 187 131 177 164 181 156 144 199 211 145 76 195 182 116 191 146 36 159 172 126 132 154 59 127 112 111 187 107 132 162 150 167 116 114 164 137 153 129 107 203 179 123 192 113 88 80 139 132 169 139 170 168 119 134 152 115 97 137 183 141 117 102 82 205 138 192 116 129 187 134 204 91 87 132 134 111 167 174 159 53 202 180 180 143 162 103 173 151 147 112 151 156 89 148 87 178 
188 151 73 126 168 160 80 162 139 98 217 162 192 119 198 119 134 146 168 148 63 175 187 148 136 157 86 127 162 143 173 134 133 127 96 133 133 122 125 95 63 145 160 195 157 162 169 144 162 144 139 178 61 131 144 207 103 193 126 155 63 85 159 195 140 176 183 201 145 138 154 121 129 152 154 156 104 169 78 87 197 107 189 176 165 126 175 129 190 124 178 219 189 65 148 137 174 126 169 113 
86 163 59 110 115 157 118 183 74 104 154 40 189 165 126 166 180 137 148 196 94 118 160 184 70 189 153 133 117 107 189 141 131 128 191 127 172 181 125 60 173 86 117 95 123 185 164 154 160 72 71 82 64 105 247 129 166 48 147 156 146 138 89 165 165 140 92 62 142 203 171 105 151 137 147 111 60 137 118 145 89 130 6 202 172 195 107 200 102 187 168 112 205 104 51 91 161 126 119 149 
146 156 110 189 106 182 103 111 133 98 203 101 89 190 180 75 124 198 154 151 145 133 143 129 163 134 172 149 102 174 114 134 134 91 102 121 143 149 170 169 92 93 99 121 40 171 113 129 192 141 155 177 67 166 173 133 190 119 157 171 164 164 157 166 197 106 157 29 160 142 120 175 129 207 215 134 173 157 151 193 128 133 133 162 195 151 75 188 191 139 135 116 67 237 125 149 146 184 160 181 
113 128 123 88 115 152 151 195 157 211 162 63 106 119 116 93 202 49 193 169 186 117 77 146 119 108 142 122 226 58 217 189 188 110 159 134 67 160 158 119 113 147 76 157 158 109 67 163 118 135 73 114 176 158 64 142 146 81 181 183 43 141 126 127 144 180 191 75 126 97 134 46 206 110 149 175 127 101 92 154 158 142 176 159 49 67 104 186 183 177 105 34 159 148 115 148 202 137 136 168 
194 98 88 127 102 195 127 174 166 136 138 114 27 171 127 103 140 113 160 194 170 58 74 39 200 140 167 174 188 120 35 140 131 92 179 157 123 222 199 68 121 99 168 163 157 143 103 137 123 116 77 177 191 131 141 138 200 93 149 77 54 147 126 173 122 191 186 194 133 148 133 118 86 148 110 119 169 171 152 138 134 157 205 71 165 85 96 102 93 195 130 95 106 151 87 152 53 181 136 95 
110 159 150 75 141 138 138 136 148 145 103 104 83 186 59 172 137 198 71 174 157 186 113 141 195 94 177 91 131 60 94 117 108 158 122 166 102 132 112 162 158 72 108 68 208 49 132 139 145 95 85 128 126 177 154 132 138 109 143 68 184 176 126 189 152 126 125 184 128 133 93 135 130 115 93 116 123 139 153 126 71 141 119 176 169 149 169 151 122 164 132 212 194 197 137 152 137 153 131 180 
179 161 191 202 136 230 162 208 140 150 85 139 202 208 175 85 138 134 72 190 153 157 109 91 184 122 116 196 105 148 154 205 93 86 143 134 104 110 122 103 188 136 115 166 171 178 173 152 161 156 76 162 189 204 132 154 145 78 180 187 165 179 221 130 148 136 162 78 110 181 122 58 38 145 134 201 94 123 94 136 67 103 205 151 219 199 120 41 119 125 141 152 143 62 99 136 116 149 107 202 
137 112 135 113 207 168 37 150 103 113 173 197 103 182 98 130 120 97 141 121 120 182 48 138 199 133 176 195 140 166 169 127 73 107 144 87 145 154 74 145 220 65 107 132 58 192 142 124 58 143 176 194 139 65 225 178 221 101 91 130 188 104 161 121 191 122 143 191 169 130 153 102 172 81 119 155 173 101 161 90 97 152 216 150 122 147 66 207 200 114 113 164 176 144 152 156 57 218 197 108 
167 127 175 112 60 192 127 131 142 150 126 151 148 182 114 125 157 175 113 195 130 169 201 141 166 158 99 216 111 191 150 89 140 183 81 94 142 102 193 203 92 160 172 59 111 71 145 146 167 101 99 135 196 119 135 175 105 190 143 156 96 176 130 72 123 161 197 197 29 195 134 105 109 166 123 183 94 122 92 181 107 167 161 132 130 97 147 75 116 176 140 111 149 94 165 139 108 126 13 134 
146 182 139 166 107 143 192 146 159 212 111 108 106 120 162 84 167 177 151 147 106 121 129 70 125 176 170 161 74 143 40 22 196 188 182 180 117 189 119 190 88 166 126 82 167 146 136 113 162 99 115 196 115 51 176 159 103 124 90 104 173 183 82 197 172 63 87 137 150 107 129 184 194 192 168 179 173 173 168 124 199 125 154 118 102 67 104 131 141 115 141 180 168 131 123 104 122 161 120 97 
118 210 102 108 192 163 197 160 53 42 177 148 186 107 80 88 157 142 194 198 95 142 144 158 82 150 142 179 103 119 137 91 75 77 118 75 164 99 133 164 192 148 81 187 20 154 142 201 153 122 135 56 137 145 188 140 145 212 82 145 217 152 130 57 100 193 121 97 137 181 138 230 136 148 154 131 134 151 155 166 175 191 20 201 117 141 140 228 190 211 102 92 143 136 75 108 183 189 124 169 
166 216 145 145 124 126 122 152 111 178 190 168 108 167 142 169 187 106 155 183 143 136 104 161 185 95 211 90 142 235 170 191 148 145 185 122 156 131 157 143 155 175 153 122 143 146 120 177 157 140 108 75 146 219 98 114 58 79 212 139 190 130 105 185 99 127 207 195 183 104 196 146 101 99 130 191 130 79 34 190 157 48 70 176 187 195 84 80 131 198 78 130 186 117 176 148 138 146 180 141 
150 127 169 152 233 68 151 131 192 89 177 129 160 72 149 121 83 139 108 149 207 166 178 228 95 188 187 188 132 138 167 129 124 183 79 57 87 147 154 107 176 166 142 129 188 118 90 185 201 233 224 162 83 183 241 179 176 104 156 180 85 110 141 111 179 103 141 156 195 148 160 166 96 67 134 40 141 88 183 117 135 151 132 212 136 149 223 170 125 66 122 74 180 130 25 134 159 124 171 190 
136 146 192 121 39 175 140 106 172 104 174 158 108 120 182 150 208 151 166 137 112 184 141 161 162 97 139 148 134 189 106 155 201 114 161 102 125 197 173 122 163 106 137 91 193 126 195 204 130 167 133 68 154 96 162 159 152 147 204 129 129 91 161 156 158 180 191 206 81 36 161 158 144 209 163 191 172 172 100 161 143 170 173 129 96 136 214 118 90 141 144 115 227 176 169 139 119 144 129 156 
156 120 164 93 181 164 118 96 196 124 140 88 107 160 146 191 116 155 83 164 120 145 189 115 163 120 192 129 199 175 121 192 98 164 186 118 174 98 133 144 122 152 114 228 133 113 149 158 148 146 118 143 90 117 182 109 167 151 147 171 178 154 77 135 149 135 113 149 164 154 167 96 212 110 110 150 137 38 186 91 136 147 228 161 160 121 173 161 165 153 196 85 189 145 122 139 116 89 189 152 
187 155 116 178 131 163 130 190 110 186 82 85 161 197 117 114 79 108 140 151 152 106 140 122 130 162 133 176 176 158 169 91 165 207 83 132 38 148 141 102 151 133 122 165 160 136 143 161 198 151 158 105 114 145 126 159 124 202 146 194 132 129 159 124 155 224 94 130 116 147 98 158 156 153 166 131 131 134 164 143 141 181 39 176 191 77 196 157 104 157 168 145 91 121 115 132 77 169 160 108 
138 100 160 122 138 84 156 105 177 192 144 138 21 96 236 107 197 150 82 180 58 108 109 85 236 216 137 170 170 123 185 192 133 220 102 167 143 173 138 147 150 228 52 122 158 45 196 158 130 124 149 76 148 156 172 133 178 185 188 157 144 70 145 179 82 181 119 164 174 86 106 167 152 189 158 103 182 165 199 93 39 134 139 81 199 119 138 143 112 119 81 159 136 159 57 170 161 55 104 171 
84 213 136 153 124 130 204 171 33 142 126 112 124 120 119 196 103 98 81 156 72 116 81 107 157 150 160 47 135 113 128 123 173 183 191 186 155 141 124 92 206 99 184 57 76 159 173 129 108 112 113 69 161 135 160 78 92 187 123 187 164 163 141 92 191 124 149 124 143 128 158 148 160 170 112 153 148 144 176 121 187 198 89 198 125 142 163 202 189 174 69 172 193 153 170 140 114 58 96 135 
187 102 69 191 107 100 145 152 121 80 67 192 123 73 148 159 141 115 166 167 188 103 158 133 198 107 164 87 139 95 97 144 210 203 106 136 183 116 118 134 171 112 96 129 196 92 225 187 131 102 159 132 136 112 211 66 144 119 159 143 84 160 189 187 118 136 122 144 100 164 134 182 115 151 83 104 124 114 127 144 43 163 107 174 193 151 148 55 152 143 95 126 137 224 105 182 128 190 186 140 
146 137 88 185 179 178 139 157 203 183 202 195 169 180 177 98 86 128 128 108 131 174 73 161 142 110 81 142 15 151 135 124 176 112 109 204 126 129 153 155 98 179 167 15 79 120 108 202 137 158 162 85 200 212 103 122 133 170 88 161 178 160 134 113 170 153 124 154 201 150 190 66 142 81 123 136 83 136 180 142 65 151 50 60 199 139 195 58 176 100 169 150 170 164 189 117 123 105 224 41 
186 102 172 187 121 107 140 225 173 114 171 185 155 190 100 207 89 76 179 216 177 159 152 218 225 200 189 172 193 195 136 106 233 34 161 93 142 96 170 170 136 153 128 162 77 52 133 158 87 185 148 109 132 133 132 162 154 112 142 153 188 137 195 88 178 74 127 127 106 150 139 174 150 115 177 136 180 143 160 225 115 133 213 113 169 168 214 146 111 108 151 159 182 182 196 60 200 152 154 210 
158 57 109 138 190 161 135 106 51 159 83 125 143 160 174 90 92 109 143 146 198 200 147 152 150 186 154 152 134 198 177 155 180 115 132 188 104 135 168 134 185 138 133 135 71 107 189 190 37 136 97 77 203 205 185 85 84 136 131 160 114 123 170 180 151 178 101 173 175 197 195 156 153 137 114 121 176 141 181 130 139 162 200 155 147 201 157 175 158 131 139 122 171 78 173 163 59 143 210 169 
135 155 171 88 89 161 164 193 162 22 160 178 170 197 197 166 204 149 74 122 182 169 89 187 215 134 138 189 148 161 173 109 167 185 85 193 172 150 140 146 111 171 106 97 210 136 156 224 174 140 163 105 75 23 152 109 146 171 145 173 89 33 129 137 186 170 147 77 179 167 180 69 157 93 196 188 184 94 186 133 167 198 198 103 64 201 153 181 124 214 103 127 171 89 148 209 150 136 165 191 
182 169 154 133 107 144 192 152 166 178 134 175 97 134 102 151 167 88 145 190 100 130 196 169 152 150 84 80 92 144 201 129 103 180 140 177 149 100 184 154 181 72 125 161 179 167 92 175 118 163 148 175 90 140 132 103 166 158 125 152 175 164 139 194 173 184 77 120 170 232 194 148 148 95 114 173 130 97 38 186 131 129 152 149 141 172 202 105 165 209 164 143 77 78 188 161 190 95 245 127 
159 34 144 163 155 147 132 169 102 76 187 160 174 178 153 194 145 178 87 103 180 139 95 167 142 112 179 139 122 120 171 61 218 202 118 118 120 126 147 129 120 131 71 155 138 97 152 216 149 85 135 102 111 196 162 117 97 107 157 207 207 174 167 101 113 125 137 193 199 90 149 142 122 132 146 129 67 123 146 118 170 130 98 154 217 167 60 232 139 164 135 147 76 109 148 121 162 132 197 166 
192 121 144 66 179 139 113 74 170 146 205 96 138 141 176 141 171 148 141 94 145 145 166 184 145 82 113 71 120 149 162 128 119 166 158 144 132 136 201 120 131 97 138 109 123 113 133 33 171 74 161 158 106 219 189 92 193 128 115 66 164 160 151 101 125 186 176 149 194 207 161 153 152 140 129 150 119 124 182 77 184 154 112 109 105 201 134 162 143 152 114 162 166 162 45 148 217 129 118 132 
203 131 144 130 137 149 141 149 209 179 143 165 205 89 64 132 140 161 98 151 147 96 78 140 203 23 96 207 129 156 193 176 149 156 105 112 133 142 205 139 154 185 199 154 144 91 137 204 83 130 118 144 78 147 138 182 105 161 103 72 158 141 172 194 136 173 151 143 146 218 112 211 128 175 118 115 142 129 82 52 170 187 138 117 170 172 150 186 159 149 130 113 174 161 102 109 19 179 138 191 
240 37 165 37 181 187 90 124 218 112 131 186 190 202 178 121 128 174 52 139 136 184 120 138 153 116 164 200 218 156 45 202 175 119 208 99 147 119 59 202 113 111 149 83 205 129 127 161 134 146 120 229 72 62 179 145 131 136 177 108 147 164 134 150 197 168 118 201 97 104 167 200 173 131 202 115 60 163 182 165 140 115 165 92 142 166 163 118 153 132 21 140 180 139 116 208 158 102 104 141 
132 174 180 131 110 50 80 195 142 207 178 135 190 80 117 72 42 224 145 140 85 43 190 99 173 131 179 99 88 56 221 145 140 124 149 95 164 144 125 194 86 201 104 174 144 147 204 57 156 55 150 105 118 83 198 186 84 97 70 140 145 93 89 146 142 199 100 182 189 17 119 114 205 180 158 104 168 165 167 171 168 217 21 203 204 163 109 193 132 141 150 128 29 86 181 64 67 218 78 75 
70 154 133 86 160 191 184 157 174 103 159 129 209 111 101 180 124 171 176 161 99 116 126 118 166 155 127 109 108 139 135 224 78 168 179 115 127 173 169 187 205 165 140 38 115 154 60 192 177 146 150 182 160 203 152 58 101 32 160 186 160 155 159 55 192 110 185 136 145 171 197 200 194 139 116 202 60 182 164 116 109 30 156 51 201 93 215 147 186 69 124 154 39 118 239 191 137 157 89 218 
126 117 163 171 152 107 145 123 176 132 107 77 198 89 165 140 140 93 184 140 160 143 136 179 60 126 97 193 173 100 140 176 206 134 100 80 126 194 103 161 197 132 117 51 142 186 96 27 187 83 134 168 121 153 126 101 119 114 108 149 176 156 148 103 154 195 109 163 149 144 224 131 185 154 196 131 147 181 171 199 136 96 172 112 193 113 136 127 70 139 149 125 94 135 205 147 177 103 57 110 
