P2
100 100
255
151 189 170 131 145 150 152 82 108 182 177 192 166 190 186 57 121 152 131 109 148 98 138 180 184 176 164 153 85 199 156 178 149 125 78 151 183 146 118 100 54 179 184 179 77 175 165 157 246 128 159 97 111 97 117 157 90 148 67 185 151 131 169 132 61 153 128 152 143 153 109 100 182 122 192 115 145 123 122 119 138 171 157 156 127 85 187 143 140 145 187 140 162 90 110 196 123 112 184 153 
111 198 36 134 98 204 159 59 158 185 86 187 181 200 184 67 172 66 117 161 139 151 72 151 197 163 208 185 172 181 141 218 152 204 79 83 131 42 161 159 76 161 220 177 97 101 192 147 122 154 178 139 126 142 146 105 157 148 152 145 121 176 132 155 179 235 160 177 130 120 113 91 195 183 184 112 127 190 54 140 142 128 170 93 136 145 180 149 141 176 104 212 17 127 135 122 148 175 131 166 
151 115 163 147 158 176 97 235 173 203 160 149 184 172 142 169 150 85 117 201 96 137 168 214 125 143 172 144 87 221 182 149 180 118 101 59 143 129 166 182 95 173 164 93 171 107 137 89 77 169 129 181 198 133 118 116 134 108 151 131 162 192 147 139 128 192 53 121 183 176 189 154 115 124 131 123 119 159 189 232 186 135 163 126 131 136 110 121 150 194 159 228 137 191 154 118 163 171 170 53 
153 197 152 184 192 190 181 145 155 156 162 137 196 166 69 124 53 120 190 142 158 121 151 83 185 160 181 206 159 114 192 90 136 183 101 231 138 80 65 111 204 112 162 127 100 167 118 166 134 145 186 146 87 171 105 104 158 173 186 198 125 149 190 109 221 115 127 170 181 158 202 155 152 197 166 198 190 148 97 156 164 130 151 203 142 119 134 210 132 161 119 119 128 240 198 137 157 70 175 142 
183 161 96 99 137 158 208 80 196 179 166 65 160 93 148 183 184 186 145 123 138 209 200 137 126 205 80 141 87 173 62 157 146 175 116 112 107 144 122 181 121 212 160 150 135 98 161 151 119 171 122 143 166 135 119 81 26 141 167 57 122 123 146 78 72 106 144 219 82 166 193 152 155 185 128 123 160 200 120 203 177 151 133 56 193 147 183 130 190 208 190 192 159 108 167 195 184 104 100 190 
146 147 150 164 173 152 149 167 122 125 176 202 121 191 195 42 101 160 148 128 188 190 220 113 147 187 140 212 187 159 132 122 120 144 182 168 113 144 108 171 159 75 180 225 84 118 140 134 121 172 101 121 147 82 31 194 221 100 140 122 122 159 174 109 152 94 199 73 123 168 82 113 112 157 139 97 142 148 93 117 169 148 114 202 56 114 195 48 135 97 173 148 140 32 171 132 171 121 167 95 
184 176 145 155 245 116 116 188 120 155 102 174 55 129 136 183 157 185 163 115 109 108 168 178 178 155 165 143 120 146 155 118 178 44 100 134 162 149 196 163 59 169 159 164 126 168 59 145 153 186 174 158 245 133 117 152 136 182 172 175 167 152 84 62 167 185 175 146 130 76 130 141 147 191 126 139 166 131 81 172 149 149 174 152 123 138 173 162 175 132 127 158 96 207 154 188 149 87 150 87 
152 142 174 134 154 131 126 170 84 174 208 139 140 169 196 127 157 61 157 169 147 92 190 118 82 187 220 166 148 205 171 172 132 197 166 154 182 127 105 169 164 59 121 169 157 186 163 77 138 146 130 171 151 181 179 38 114 166 70 184 143 102 175 141 114 109 156 132 92 129 114 81 162 146 44 193 75 113 152 104 163 137 173 201 109 121 95 140 200 86 181 116 193 147 171 154 145 177 152 187 
189 112 180 138 186 120 163 219 130 127 125 154 175 158 248 148 204 58 174 141 221 86 218 141 117 181 149 148 180 173 198 99 145 142 149 205 143 150 81 189 185 136 186 168 120 39 52 166 166 132 143 103 131 173 87 130 46 127 163 118 163 46 159 164 202 96 171 186 218 186 175 146 111 155 151 93 125 180 115 176 116 106 45 179 84 113 142 185 102 183 96 183 136 159 141 113 91 86 92 126 
160 72 204 110 153 178 166 189 54 97 221 73 158 126 150 134 70 112 128 154 51 125 86 181 114 176 173 208 112 120 139 116 170 199 112 72 183 161 174 150 32 219 160 143 165 74 72 204 103 44 100 184 99 121 124 194 113 158 84 140 168 169 129 110 140 87 137 75 100 160 117 101 64 70 99 180 133 180 155 147 143 147 26 154 171 157 122 98 178 152 200 202 109 93 153 84 105 94 128 174 
194 198 142 128 112 107 134 190 136 144 31 144 185 120 136 104 127 164 174 189 168 125 108 131 116 162 168 203 107 149 117 88 130 194 141 87 138 208 112 175 134 222 116 146 127 105 178 56 150 136 173 143 117 149 152 107 183 139 185 142 57 200 98 105 155 126 119 197 82 120 152 187 173 198 162 154 157 174 127 122 192 144 151 107 137 154 190 118 92 141 135 193 172 106 143 206 140 183 123 228 
211 108 190 98 136 121 118 63 101 174 155 152 156 119 120 21 109 178 116 187 165 58 112 93 151 101 175 201 129 188 136 207 197 202 170 131 68 160 50 191 96 182 91 171 187 167 181 153 102 145 175 186 180 101 182 231 179 172 197 150 100 119 177 183 195 150 125 140 166 152 179 116 183 157 192 211 139 117 118 144 80 118 82 158 121 147 196 197 223 180 104 178 206 208 163 170 163 129 131 169 
197 152 103 174 172 106 86 144 163 132 171 82 235 169 120 161 117 159 205 130 217 152 192 145 160 149 191 139 154 176 164 180 138 70 115 126 85 178 162 181 114 120 120 165 131 186 199 131 157 150 111 197 80 200 118 177 165 214 79 87 96 155 93 58 151 131 147 140 120 124 157 193 118 171 179 147 111 28 140 149 132 132 123 209 196 184 159 143 57 168 138 120 124 184 157 153 199 134 153 168 
187 169 137 179 125 110 175 216 96 127 172 190 89 91 159 179 145 194 133 198 162 45 168 196 102 184 156 109 140 100 147 127 131 140 121 147 64 164 173 135 182 153 162 136 138 166 155 87 170 167 153 178 175 133 182 194 79 163 97 147 199 180 135 171 116 181 91 196 190 177 105 127 133 125 178 107 52 116 179 153 62 77 72 189 134 154 125 135 143 113 138 177 53 139 128 148 146 73 56 197 
157 134 63 155 112 130 56 174 160 174 187 126 76 148 170 108 183 61 107 185 118 128 140 112 196 103 186 173 167 115 155 150 180 181 188 111 134 150 143 133 161 172 141 145 199 162 140 187 206 97 179 143 186 118 91 142 152 129 122 48 65 139 169 180 151 101 142 136 181 167 64 186 184 145 83 164 114 118 126 175 145 134 134 144 149 155 226 216 71 151 178 19 165 53 168 173 142 211 223 116 
138 69 159 186 71 122 148 168 144 185 104 157 210 140 175 85 71 148 183 111 114 169 124 83 123 111 164 196 120 184 142 140 126 127 154 155 61 98 144 68 162 125 161 173 115 106 124 147 136 119 143 170 93 123 190 165 147 184 70 175 155 95 184 134 152 196 123 221 147 67 153 82 99 178 137 105 91 99 162 164 174 155 99 151 209 102 165 180 115 191 67 105 121 182 131 91 103 196 191 95 
134 107 149 155 171 146 177 75 158 138 121 94 94 176 82 154 100 47 86 163 145 88 196 168 117 30 128 141 15 118 108 106 158 81 89 193 102 175 153 111 117 151 198 151 112 166 86 102 166 190 130 179 52 200 166 165 139 185 94 218 202 163 42 209 152 180 157 119 190 125 139 53 196 122 155 95 132 149 160 107 125 143 222 170 195 186 168 103 128 180 119 130 126 83 155 80 82 156 156 172 
175 140 118 122 136 148 154 200 163 128 86 189 184 139 109 192 149 124 141 105 132 73 36 124 123 115 142 96 190 70 97 92 145 80 75 173 192 118 158 151 141 68 121 167 178 100 172 112 145 159 180 164 125 76 157 169 187 105 176 212 176 69 190 205 183 43 134 52 147 143 179 68 208 127 58 86 162 154 193 89 162 96 96 103 159 129 128 96 160 133 116 170 113 47 163 133 142 119 141 169 
146 126 108 146 173 110 143 109 93 97 100 183 101 167 119 184 90 207 124 121 82 221 127 131 76 157 180 152 202 150 156 148 91 165 200 153 180 121 211 123 189 204 96 51 125 40 114 213 188 150 98 206 135 161 105 150 104 105 149 206 113 222 190 60 112 183 111 147 144 76 122 122 189 83 159 169 84 174 110 170 172 115 180 49 128 192 114 139 94 141 164 189 191 152 170 119 153 135 138 148 
89 194 171 72 190 141 134 75 146 216 155 67 179 73 53 166 161 179 140 205 127 56 153 109 141 230 91 153 115 106 89 147 37 117 118 138 153 179 181 193 139 163 133 209 155 99 157 165 193 142 189 138 119 148 203 100 189 45 132 135 157 195 132 161 157 166 117 131 153 183 145 141 87 203 203 191 115 178 170 64 139 42 192 147 164 210 158 154 177 135 105 154 105 71 127 173 160 167 149 126 
203 132 156 107 154 132 131 88 156 173 143 103 177 162 173 190 159 191 209 78 98 169 97 113 121 127 114 134 156 203 86 86 148 130 60 130 104 142 58 106 141 169 170 153 157 127 54 154 158 143 166 105 115 201 140 173 169 106 48 144 145 103 187 209 89 143 177 130 155 122 148 86 147 175 153 142 47 127 174 152 159 99 109 158 173 101 104 158 118 196 144 138 188 221 168 131 135 102 223 153 
121 178 117 181 146 42 116 57 125 178 124 56 157 156 186 46 119 133 133 177 176 195 162 138 161 161 226 164 157 190 56 174 26 159 185 120 58 101 160 142 159 130 193 128 94 121 72 162 162 180 107 146 153 45 109 139 153 85 172 89 141 85 171 162 156 145 133 168 169 149 182 124 145 146 180 212 157 117 162 204 168 144 49 160 223 126 122 170 48 167 139 47 70 193 178 157 193 152 196 135 
118 107 168 148 101 176 170 148 163 181 191 118 87 126 158 123 128 100 67 189 73 49 196 199 170 196 103 125 234 106 92 152 100 112 140 52 126 71 85 114 161 190 158 99 169 121 122 81 132 78 186 150 159 140 123 121 149 128 46 109 166 97 185 109 74 159 192 120 123 128 173 120 191 168 185 112 174 186 152 184 167 120 124 206 163 44 203 153 140 149 176 113 165 238 97 158 134 120 60 139 
84 96 137 113 182 197 136 126 132 151 165 70 180 79 158 147 147 147 114 91 174 184 138 156 153 190 179 229 178 108 188 38 167 171 150 164 130 191 217 189 107 180 104 72 115 193 185 99 157 130 164 48 90 75 119 140 184 97 170 100 119 91 117 155 146 154 120 109 163 64 128 156 110 160 114 167 95 75 132 197 119 111 138 134 63 141 64 171 202 108 107 163 74 173 121 122 132 194 172 151 
211 140 131 69 222 146 168 183 158 162 111 206 175 89 200 153 211 112 94 117 158 130 132 113 184 191 165 160 196 155 129 151 118 89 148 94 223 152 150 191 178 169 161 137 171 84 126 153 138 167 179 169 162 173 143 173 205 133 155 204 121 182 102 94 190 206 98 180 114 71 181 154 168 68 163 180 122 136 120 146 116 71 186 150 131 201 138 121 175 86 191 115 117 207 120 150 71 194 115 64 
114 137 114 214 166 94 98 196 138 126 77 146 90 116 91 95 209 179 115 140 175 142 174 89 110 188 158 156 107 199 230 102 94 63 175 174 163 187 140 156 178 62 70 168 166 64 105 150 159 93 96 133 156 202 168 93 138 188 85 101 151 174 90 164 118 41 191 138 141 188 86 191 152 176 91 97 133 141 144 191 140 112 198 168 154 183 180 99 88 122 91 45 78 126 158 201 154 113 150 150 
111 151 130 56 137 85 87 156 103 158 202 182 202 153 147 147 111 177 106 121 146 137 47 209 166 113 176 147 175 170 124 180 141 47 117 170 88 171 89 85 178 140 88 145 143 180 165 154 75 114 180 147 137 36 186 177 115 93 166 54 115 165 183 105 176 178 105 127 23 92 126 172 151 142 43 170 119 185 149 166 184 122 188 183 178 121 131 83 213 88 92 160 118 115 133 150 150 187 158 153 
141 128 191 162 151 177 168 90 202 209 93 139 146 93 183 180 75 143 98 168 116 145 220 94 209 193 185 20 187 142 157 187 153 196 230 158 150 195 52 148 119 126 119 56 142 62 90 117 168 200 178 138 169 212 142 130 167 178 47 141 126 138 84 189 111 129 110 136 82 161 119 118 217 153 135 97 189 123 168 188 130 60 183 146 107 64 135 216 179 202 119 122 111 112 117 132 218 117 181 204 
140 154 202 117 141 85 84 178 66 168 165 121 164 143 148 186 209 121 133 164 187 96 178 123 189 153 156 105 42 123 209 187 169 135 189 185 187 120 64 29 167 131 137 100 202 142 129 128 172 158 124 137 180 166 140 135 159 130 82 119 150 107 158 155 108 195 114 92 129 139 49 139 80 188 158 157 103 178 167 210 147 185 75 161 195 133 112 100 156 148 116 78 175 142 180 161 165 197 66 45 
86 169 143 119 108 149 52 100 136 125 163 129 110 198 48 81 118 159 192 85 155 100 156 70 127 163 112 110 154 160 141 167 148 174 130 93 161 177 115 148 177 235 181 54 141 174 49 117 118 98 166 143 152 113 150 32 147 151 178 166 117 156 108 187 212 153 160 132 159 114 163 159 137 89 148 172 213 198 146 134 123 87 163 197 92 163 164 180 117 150 138 61 120 81 189 172 87 86 80 170 
68 172 189 117 134 148 157 203 181 181 145 197 69 63 128 73 203 150 126 91 187 115 144 185 114 218 94 140 137 168 215 150 166 153 142 166 158 133 58 58 217 142 117 122 74 197 154 140 131 147 61 151 190 109 190 189 81 158 145 158 113 192 187 149 198 81 215 114 154 152 142 137 161 104 165 219 119 122 153 151 90 79 157 84 99 169 80 182 104 133 141 99 136 107 169 137 145 218 146 156 
74 49 105 97 156 100 197 143 164 137 87 164 65 180 180 164 200 195 171 177 148 187 133 208 125 88 160 136 54 153 105 192 160 64 156 138 196 156 133 144 206 130 117 144 160 148 113 67 171 154 161 167 151 156 56 146 93 182 196 164 205 174 93 144 155 187 141 109 180 92 145 54 228 134 107 59 214 125 114 86 150 102 89 146 157 171 124 100 160 142 161 186 128 111 187 225 186 82 170 181 
109 177 150 74 94 184 216 149 144 148 113 185 80 208 189 134 127 208 150 113 120 128 103 115 43 238 189 195 187 151 66 97 197 91 41 200 206 172 181 50 201 159 158 107 111 162 121 166 133 97 69 147 121 80 140 150 143 90 126 66 147 133 191 91 89 88 181 133 177 167 174 182 148 104 178 140 47 128 126 132 156 144 155 129 107 153 138 128 162 176 115 137 55 178 189 144 178 156 111 175 
110 151 78 149 134 125 64 201 25 62 152 193 129 115 198 93 203 113 175 93 186 167 132 157 158 80 179 215 158 92 150 138 145 107 119 120 171 73 181 153 77 186 110 128 139 101 135 214 151 141 182 192 146 83 148 97 153 150 162 96 199 149 133 201 131 104 137 142 144 204 89 102 165 161 144 163 75 165 211 124 142 80 95 151 142 153 146 152 118 51 115 178 170 95 142 160 190 194 97 138 
120 155 189 86 187 155 153 47 169 203 128 179 122 159 181 219 225 192 122 206 87 154 84 141 162 159 144 201 57 132 168 117 108 213 48 64 131 143 19 211 166 134 99 203 138 151 170 147 162 169 137 169 137 185 222 141 146 100 152 154 114 176 70 135 149 182 164 131 133 175 183 134 200 167 155 39 160 194 107 215 133 175 166 127 188 230 170 144 86 85 89 158 67 208 85 130 153 174 227 25 
136 112 96 146 171 216 165 119 163 133 154 136 193 107 50 89 62 158 197 141 202 106 136 177 96 130 134 110 99 130 160 200 179 175 182 127 164 175 123 152 146 109 183 110 190 138 128 169 19 40 149 162 185 127 64 128 188 34 222 180 141 204 198 141 196 146 185 149 157 135 173 101 76 153 192 120 178 156 181 152 192 107 155 113 108 132 95 79 169 173 113 145 141 209 102 128 218 179 215 105 
84 90 190 154 127 98 210 179 161 140 184 180 92 186 131 114 59 183 96 138 163 122 186 103 172 114 145 85 80 129 127 129 114 154 187 188 238 210 208 140 59 134 150 140 125 169 115 172 173 151 134 81 181 152 154 137 49 88 129 141 162 159 146 104 167 55 122 81 139 93 179 123 117 161 101 117 146 137 201 163 133 74 184 190 98 147 122 175 139 94 195 32 155 178 209 168 201 188 125 86 
135 167 153 170 130 74 218 181 201 173 176 118 188 149 176 148 99 117 77 126 130 115 201 77 105 51 184 188 115 173 35 169 178 89 134 185 206 139 157 73 16 168 138 143 237 127 142 117 204 169 147 220 147 220 136 138 176 149 224 162 118 182 97 131 90 204 168 124 203 123 148 93 131 122 216 233 109 184 157 224 139 152 142 132 120 158 135 142 130 161 102 168 153 69 106 198 73 149 108 101 
191 157 124 113 175 171 183 96 182 66 116 134 53 170 103 142 131 166 136 126 19 167 161 188 174 181 183 188 132 137 144 125 58 87 89 96 71 147 158 93 45 141 124 204 83 135 131 191 157 206 149 169 154 184 127 126 193 172 64 149 37 120 155 97 135 130 133 153 178 174 160 122 175 89 159 119 155 220 169 182 181 212 148 151 171 115 51 147 118 109 76 191 223 128 115 128 160 186 163 99 
216 173 158 48 173 108 192 170 108 120 126 87 153 134 139 118 133 103 243 167 123 193 176 103 199 56 128 240 146 156 184 176 71 170 158 177 55 164 145 167 44 146 96 132 123 142 120 187 167 80 203 219 94 186 134 147 224 141 73 36 67 176 141 75 163 117 69 211 180 138 168 108 99 60 181 87 169 73 42 135 133 135 119 203 168 86 73 132 178 177 78 209 171 137 57 78 135 83 136 154 
78 153 109 45 187 155 177 141 205 95 161 198 77 128 134 82 167 152 87 149 178 137 162 88 125 96 165 144 169 154 166 159 208 169 115 131 126 157 119 178 137 142 165 176 96 179 176 158 195 134 133 180 154 177 135 113 167 116 148 135 140 127 165 119 138 197 108 200 76 198 196 192 142 93 195 182 200 168 142 160 207 103 193 163 146 117 165 55 152 144 94 173 116 123 93 204 179 116 169 152 
158 185 165 174 68 125 191 122 148 150 69 189 120 127 180 191 229 114 159 144 204 193 93 161 106 170 92 33 149 201 110 79 109 53 156 100 188 141 190 169 162 170 131 169 77 186 198 185 167 162 66 205 154 207 101 129 218 193 167 166 154 93 184 151 188 159 162 86 203 132 136 103 72 54 114 150 115 131 195 120 230 184 147 206 147 177 91 190 157 107 163 91 131 148 100 158 170 207 153 181 
122 108 151 183 78 53 66 50 161 108 183 92 144 150 188 94 137 220 133 182 175 134 146 150 209 76 227 143 69 133 142 55 160 144 117 101 210 118 126 147 110 161 100 154 148 154 94 185 189 96 139 59 95 91 155 115 131 132 151 167 171 142 166 126 182 123 36 178 132 206 118 192 91 135 169 140 75 135 144 93 149 112 96 89 100 192 192 170 145 142 193 63 157 126 72 187 84 111 171 194 
103 192 159 170 96 188 53 147 163 118 188 155 159 200 156 168 125 87 114 80 132 154 173 161 148 161 127 188 176 130 196 138 194 176 137 96 158 150 183 51 51 97 72 127 151 210 191 163 90 113 69 106 157 189 90 124 118 177 168 146 105 184 98 141 154 168 171 150 150 182 211 97 102 191 133 113 149 138 106 153 149 65 138 163 139 172 191 207 111 155 178 77 123 150 144 131 152 204 205 119 
208 184 118 174 171 179 56 81 83 152 137 126 109 117 167 156 218 172 107 103 109 152 138 113 75 85 89 194 151 144 131 144 42 143 159 179 179 153 151 79 197 220 189 157 191 125 199 110 146 182 192 134 115 161 160 77 148 103 119 169 162 157 70 205 138 142 110 119 110 198 202 138 154 137 106 215 111 87 134 129 144 104 110 153 178 207 117 144 189 79 42 155 115 144 183 102 171 78 121 124 
190 73 130 167 164 86 124 115 177 139 139 136 150 159 112 97 71 149 98 194 153 200 127 140 51 169 39 171 133 94 105 160 172 150 118 172 143 100 177 146 137 124 111 101 151 183 143 143 215 110 67 157 146 69 174 79 149 137 153 141 113 99 108 165 126 113 153 120 177 157 147 185 169 164 200 139 145 124 203 116 117 150 126 107 123 41 163 133 169 100 172 76 170 116 147 225 76 143 182 153 
173 172 62 144 118 146 106 171 104 139 94 93 156 188 184 107 170 62 110 150 125 161 146 97 136 133 121 115 126 115 222 142 141 161 155 77 167 173 172 115 160 118 207 157 51 204 205 150 105 199 224 174 156 100 144 173 153 62 158 119 119 57 95 127 126 72 152 183 161 161 131 87 165 197 71 117 93 184 112 145 120 60 160 197 167 103 239 104 208 160 125 88 225 162 71 135 135 97 116 208 
204 146 168 108 132 144 145 125 200 83 120 112 119 190 196 156 205 61 135 154 101 88 124 122 201 46 85 159 178 74 119 54 161 195 84 117 151 153 160 197 146 146 145 209 99 153 164 166 136 170 160 167 150 142 125 171 191 154 234 148 68 150 189 189 194 117 129 144 173 118 163 133 103 200 103 199 82 93 144 119 142 68 135 96 165 31 242 137 159 154 151 111 186 196 176 167 49 84 207 132 
124 147 109 121 137 112 115 206 188 73 122 70 160 148 171 189 128 173 151 166 152 138 178 212 49 146 113 93 134 150 83 149 171 142 187 109 134 176 141 156 78 204 160 108 152 106 92 128 148 120 136 184 188 53 149 81 146 134 173 128 152 113 146 105 129 175 106 157 168 144 161 142 152 104 117 87 183 175 40 148 87 137 145 159 131 98 160 68 144 81 193 131 110 145 205 167 180 92 158 143 
173 219 174 154 161 102 85 195 115 156 113 198 154 160 162 172 151 204 98 129 149 163 169 76 150 83 179 39 189 152 174 183 148 185 118 125 119 76 107 167 72 107 93 190 206 116 38 112 165 160 157 84 159 94 47 205 125 167 128 232 98 106 202 157 128 193 181 106 82 159 145 158 143 192 129 120 139 174 165 147 178 76 169 214 155 143 117 167 125 157 161 187 200 65 94 158 33 154 206 87 
100 110 3 114 191 91 71 145 154 109 54 172 130 151 123 149 135 122 149 221 116 150 199 130 135 134 109 160 145 152 121 71 104 122 95 142 171 89 137 113 85 87 153 161 60 122 71 182 165 134 129 150 147 59 199 90 153 142 138 190 162 194 160 129 163 207 170 127 150 199 60 170 173 147 160 151 91 166 194 161 129 120 181 196 145 149 214 118 128 147 117 190 146 190 190 108 185 169 154 127 
157 169 136 178 141 136 167 106 143 188 159 131 127 121 190 131 140 202 202 185 89 172 146 103 116 144 141 92 65 128 172 187 216 149 134 143 184 99 112 187 55 179 81 210 112 124 158 95 74 217 74 196 151 128 94 163 127 181 112 58 92 149 137 55 174 143 99 175 188 193 179 109 155 187 165 181 180 105 163 139 144 171 98 152 212 200 171 166 199 138 218 97 179 114 95 118 53 108 153 208 
102 174 76 128 128 171 183 117 97 179 178 111 163 118 147 118 100 199 182 119 172 155 144 162 118 136 139 170 127 151 138 56 189 142 134 134 112 169 218 171 77 59 99 210 153 155 170 52 145 123 47 172 83 157 41 138 182 205 125 92 117 130 194 219 150 197 133 114 114 174 43 206 200 216 68 172 115 142 150 152 104 31 195 96 147 180 154 140 164 123 144 91 192 92 137 77 148 77 78 90 
167 39 178 159 46 102 60 187 81 166 59 210 168 106 198 45 125 86 198 121 133 73 90 117 93 233 119 224 178 141 163 146 160 206 180 132 139 172 153 130 148 221 203 166 199 198 134 95 183 145 60 142 193 190 145 101 151 156 159 140 119 166 116 188 107 143 135 125 89 183 144 174 193 133 81 110 93 131 93 136 189 158 124 180 139 172 170 170 212 146 167 140 176 87 136 180 150 150 184 92 
140 158 166 174 189 126 109 150 153 135 157 178 63 99 202 153 98 125 77 97 80 196 135 164 48 164 203 96 151 124 130 178 227 210 132 219 205 155 172 127 145 175 190 197 198 143 125 211 139 131 84 118 187 136 172 45 156 119 48 174 126 156 77 98 131 134 146 109 130 173 25 165 162 128 188 159 81 158 105 200 157 205 130 172 206 167 185 160 81 114 176 109 153 209 172 132 205 160 214 223 
97 146 177 177 166 226 204 89 191 97 124 133 135 186 143 145 226 95 127 179 157 140 168 172 111 162 217 152 164 135 130 139 167 156 157 167 204 48 175 104 160 176 147 130 143 159 123 122 75 181 94 215 108 119 123 166 111 177 121 138 148 149 138 166 150 97 177 151 189 92 91 109 92 48 76 84 25 108 87 130 142 176 84 176 144 211 167 156 205 141 171 143 177 62 104 105 175 103 151 147 
100 30 164 94 82 141 138 163 176 146 145 73 188 121 148 91 79 98 139 132 103 116 147 195 182 186 126 148 101 154 163 125 202 110 202 147 86 116 134 108 210 39 212 92 156 145 180 143 193 64 30 167 160 115 60 33 116 162 106 185 174 162 129 89 115 115 184 141 212 213 180 164 172 124 137 31 184 111 165 101 158 87 150 106 224 212 68 148 129 144 58 189 114 205 139 133 118 207 140 210 
131 178 198 121 78 167 145 168 109 87 174 200 150 157 99 165 54 139 133 148 166 156 154 103 150 157 121 126 124 128 107 123 177 196 167 132 94 208 157 116 180 106 127 127 165 168 183 136 110 90 178 53 105 161 136 113 168 153 147 153 127 127 137 103 155 196 134 166 150 223 147 105 197 185 183 160 114 105 173 46 198 146 82 171 141 159 205 169 156 135 150 87 119 160 108 170 70 58 178 163 
30 129 132 115 174 191 173 151 161 89 94 114 137 142 117 119 89 126 87 162 195 130 178 155 123 178 197 171 163 139 187 82 174 166 117 136 192 99 76 134 106 211 67 179 129 87 99 155 172 161 161 169 187 138 48 180 135 88 142 191 151 98 199 135 175 148 142 175 151 169 118 148 130 180 78 112 107 63 97 193 110 157 159 144 78 157 123 18 184 88 93 121 172 141 200 216 116 118 153 231 
175 185 148 162 151 173 152 172 180 111 145 50 77 142 134 80 160 155 141 114 81 145 176 209 149 157 153 105 159 131 160 80 82 150 177 105 105 95 172 110 73 174 166 46 165 85 179 168 146 102 130 185 106 194 152 174 138 164 66 82 173 197 190 214 31 160 135 156 148 135 189 93 183 83 57 153 188 136 150 212 91 201 146 131 107 135 202 120 190 124 182 156 185 56 148 169 122 157 155 204 
160 172 82 145 85 186 161 145 190 139 187 121 81 170 65 111 189 166 127 154 134 94 141 152 221 173 178 114 232 149 181 144 85 173 215 115 153 154 182 164 150 162 106 150 192 87 212 166 206 155 86 156 151 154 219 96 166 173 178 207 157 120 91 97 147 96 176 150 110 193 158 140 147 112 90 191 83 81 123 121 106 152 57 222 194 166 157 138 101 162 211 146 137 71 154 31 183 151 108 142 
200 134 178 158 160 132 146 69 161 130 107 140 103 192 180 91 118 67 202 142 95 195 123 168 216 142 120 126 172 201 185 153 100 167 168 171 121 142 218 187 50 90 121 51 81 112 212 150 94 195 146 187 198 133 132 106 92 142 172 141 137 145 187 74 150 136 228 188 158 30 138 75 176 153 162 185 214 150 113 100 127 139 133 68 51 164 120 153 146 115 141 158 73 174 121 194 193 164 129 29 
191 228 156 92 120 64 132 180 174 149 72 166 183 153 147 147 79 176 161 177 104 161 174 134 184 178 161 64 177 113 210 180 157 73 173 163 218 210 127 150 150 134 192 143 209 147 151 175 163 149 95 168 171 116 139 200 137 218 183 125 152 157 120 234 158 110 189 103 130 112 112 94 97 166 148 158 156 165 145 161 93 106 104 126 92 134 156 192 132 154 49 133 117 196 180 187 80 73 142 161 
131 117 196 95 140 105 198 175 94 182 162 129 158 148 179 98 163 133 138 240 147 174 76 157 174 137 177 157 136 134 160 173 115 116 143 85 188 160 138 148 161 118 189 137 159 192 155 45 168 84 150 220 130 135 130 63 140 126 157 82 111 127 157 179 209 139 78 149 170 63 141 163 150 47 108 108 165 175 145 163 67 93 116 141 49 97 106 118 168 125 130 111 57 137 123 109 117 235 133 170 
179 198 113 149 45 49 108 127 180 126 196 92 155 182 205 197 221 151 159 108 116 211 160 173 192 94 128 77 142 182 113 123 126 161 181 192 170 219 155 126 178 111 222 156 152 192 201 146 125 187 189 161 114 145 154 134 147 189 151 168 161 181 193 96 200 187 135 158 191 64 67 130 158 143 132 178 192 201 172 101 49 193 88 92 158 195 81 143 61 108 132 105 118 93 159 172 113 101 195 161 
143 104 180 103 29 87 166 129 103 177 130 132 189 188 199 153 153 113 91 99 177 49 147 71 151 52 189 98 202 141 155 106 135 206 143 77 199 174 73 119 174 124 153 140 156 71 149 179 158 104 107 99 143 135 199 154 91 161 110 173 38 98 184 163 110 182 168 47 146 207 57 181 158 115 148 113 112 148 221 173 152 92 161 138 171 140 181 162 95 123 143 135 143 144 200 116 151 143 143 217 
123 128 164 109 135 178 152 122 96 181 150 194 154 63 133 141 57 154 178 78 202 145 129 179 164 113 194 137 178 129 170 160 151 154 175 103 92 117 178 105 200 130 139 157 152 81 163 109 161 132 196 169 199 67 74 127 186 181 218 68 116 167 125 185 54 137 164 113 102 198 126 166 168 125 132 178 172 167 141 148 138 147 196 169 53 210 147 95 163 190 77 72 157 167 174 162 166 192 186 163 
149 120 200 133 146 185 88 169 144 120 141 140 155 171 143 159 176 172 149 133 130 148 144 210 113 93 181 162 161 64 110 141 120 180 120 146 158 143 194 109 150 121 238 136 163 170 114 147 111 131 102 93 142 206 155 143 201 136 171 218 63 163 114 139 63 113 181 74 155 179 141 158 199 172 176 170 193 161 172 176 155 75 70 98 201 143 47 102 147 78 30 113 153 74 202 142 156 128 78 197 
159 160 176 48 128 116 98 179 67 54 191 154 116 135 160 60 175 149 134 110 142 127 116 139 137 202 45 74 198 160 161 148 133 182 111 199 171 43 165 160 151 177 191 112 105 132 139 123 86 109 79 208 163 121 143 208 93 153 128 153 216 176 91 87 85 108 173 153 151 177 125 130 94 165 167 226 143 140 41 67 96 99 137 179 143 124 100 136 110 62 128 122 203 18 152 105 94 93 113 190 
202 151 159 161 81 167 186 71 86 192 147 141 172 121 188 145 119 107 150 160 118 98 148 124 45 132 132 115 70 90 87 154 146 92 149 146 150 138 133 155 175 144 153 219 114 37 137 163 170 129 171 196 148 179 47 143 201 142 112 168 149 158 211 171 121 216 104 144 127 160 181 135 169 218 69 118 228 165 199 143 159 179 131 86 178 199 209 78 164 143 131 173 128 124 135 151 195 137 100 108 
136 173 152 149 184 167 176 171 153 160 165 141 144 134 123 215 173 156 126 91 133 178 43 125 194 147 136 187 177 168 129 76 178 96 96 133 84 67 131 152 161 137 67 106 85 60 163 117 135 150 116 112 110 193 138 102 166 154 83 149 148 135 138 115 183 84 173 93 155 151 107 179 158 141 171 119 130 119 199 105 177 143 70 153 172 169 83 109 92 156 122 108 84 162 120 68 114 126 92 180 
142 207 149 193 165 174 174 197 164 213 176 120 84 192 175 149 159 178 180 200 168 174 177 102 83 64 89 143 175 219 196 137 128 160 153 151 130 153 183 78 166 72 122 183 175 173 119 175 79 150 213 157 85 133 138 130 123 123 153 139 110 195 134 140 188 116 131 137 212 116 152 54 124 99 177 129 137 154 137 166 140 163 178 117 102 177 92 129 150 191 171 196 163 121 122 195 163 135 89 216 
139 157 136 166 124 195 153 135 129 138 17 190 163 201 130 33 220 139 90 169 171 116 167 182 203 158 49 174 210 65 181 102 82 184 151 152 141 147 177 110 121 58 79 87 123 154 178 163 144 193 166 195 187 189 117 142 182 207 107 178 202 166 184 149 141 53 145 94 137 159 175 80 138 143 126 126 216 88 103 162 137 154 118 104 92 49 89 189 180 154 34 170 135 164 147 168 141 147 167 203 
192 144 82 151 210 159 156 159 181 189 102 80 126 172 158 149 184 132 214 116 148 182 106 157 76 103 143 118 126 199 87 167 204 151 55 184 122 163 196 182 180 164 164 83 202 176 201 129 102 137 128 103 91 201 172 156 101 44 155 121 189 146 108 84 149 91 190 126 114 182 124 94 172 159 56 139 181 146 190 176 138 173 138 149 190 172 191 175 176 100 159 189 133 211 151 129 160 182 149 149 
127 137 143 195 103 154 198 81 148 115 167 102 116 201 201 117 158 42 138 203 120 197 116 130 180 88 115 102 162 156 143 154 131 160 152 27 200 48 109 137 70 153 124 174 82 66 137 100 160 111 187 140 187 114 129 186 118 163 85 177 164 170 96 104 69 199 65 72 141 113 202 156 167 181 101 130 114 95 143 163 215 64 71 114 236 156 175 178 152 190 113 169 147 110 160 142 164 205 208 118 
82 125 163 125 165 164 105 113 163 115 105 87 130 150 81 168 131 180 103 170 125 194 186 61 201 165 153 169 110 151 159 137 112 195 119 184 135 196 102 52 142 138 203 152 72 102 165 171 185 108 135 165 189 59 179 222 213 72 109 152 140 113 86 115 187 160 180 172 201 40 189 103 86 134 166 114 206 95 67 114 211 52 180 123 172 125 195 197 161 102 172 124 119 131 54 192 103 164 105 156 
132 155 47 114 142 156 170 185 149 71 124 147 116 177 144 198 146 169 136 104 83 93 113 144 104 145 167 94 127 70 158 188 182 110 118 136 187 123 156 170 225 102 158 74 215 164 218 190 189 150 145 155 162 99 185 166 121 178 136 201 164 145 145 177 168 180 97 173 205 89 221 127 200 167 124 110 190 157 128 170 183 218 152 155 167 132 136 205 191 146 127 107 172 61 114 147 194 89 192 124 
110 120 108 169 86 172 153 127 105 160 141 149 80 133 192 170 85 197 166 210 201 105 180 198 181 152 128 179 86 87 141 158 207 64 160 194 166 140 79 72 144 217 185 130 169 128 111 118 182 168 120 185 150 154 111 149 136 114 192 137 71 101 124 160 195 133 145 181 113 155 144 124 200 178 155 127 145 176 129 32 173 37 68 199 154 130 163 112 141 143 99 158 75 117 213 128 159 70 161 142 
153 79 87 72 97 218 166 92 138 183 153 180 147 71 188 136 61 173 141 169 101 163 148 138 173 146 192 84 76 199 160 159 94 174 191 169 228 63 74 187 129 166 207 168 169 94 70 219 142 132 170 114 72 175 80 139 178 154 179 134 96 84 93 70 148 169 207 183 152 93 207 195 87 137 156 126 60 166 175 91 196 196 144 54 156 209 166 139 167 153 123 74 152 128 45 175 184 130 127 102 
199 131 110 133 143 179 126 182 68 91 183 231 105 183 107 163 123 186 186 185 87 88 76 146 113 98 124 159 101 168 161 219 176 173 156 157 104 166 128 135 174 131 156 119 69 207 170 107 142 169 134 167 153 157 180 140 146 118 152 138 153 72 160 166 120 129 107 166 27 106 96 159 176 154 81 95 181 31 176 142 147 105 133 112 194 107 169 158 107 146 148 50 220 169 71 123 202 129 99 193 
188 171 146 197 194 150 45 117 155 90 103 165 222 171 151 196 86 170 161 208 119 133 238 126 132 166 173 159 184 157 46 73 154 159 133 233 149 142 97 126 141 126 35 148 179 147 189 150 201 84 97 142 80 196 83 176 147 149 141 191 150 132 170 172 189 158 162 172 157 197 201 204 119 92 94 229 90 185 210 115 179 160 166 196 132 186 118 113 174 85 178 193 116 150 122 121 120 105 93 146 
119 165 188 73 153 131 209 167 133 51 163 176 151 155 114 158 174 151 150 164 168 129 87 156 140 114 92 159 108 145 179 103 180 152 61 179 151 153 138 194 180 121 96 120 59 202 147 191 154 156 87 198 134 64 133 141 189 138 28 159 68 141 169 190 154 86 105 157 157 151 176 160 80 148 111 66 160 185 191 188 178 143 186 172 156 118 157 115 172 110 104 137 66 163 74 191 46 165 186 169 
72 155 162 119 160 132 117 148 218 185 119 94 43 151 83 196 137 179 157 151 203 133 36 146 129 83 120 167 152 138 138 100 86 19 174 102 115 74 150 187 105 150 158 140 87 129 177 176 124 143 96 61 112 156 217 146 136 147 221 114 187 96 128 34 117 137 118 96 195 141 192 178 132 164 84 96 107 141 172 176 67 157 113 69 118 71 90 126 97 207 99 133 158 182 179 155 155 179 147 115 
103 219 81 152 169 131 198 102 127 125 140 101 157 57 174 85 152 129 93 143 197 158 159 30 151 182 132 161 188 89 132 145 121 145 139 91 150 136 184 164 111 150 172 169 173 194 129 136 134 158 134 73 161 171 105 103 131 195 137 195 148 120 74 147 221 146 77 129 72 100 122 129 140 95 191 76 164 67 91 182 125 173 86 118 146 152 171 194 109 176 71 205 152 136 146 103 74 164 150 126 
44 97 189 176 145 185 215 69 111 133 151 131 148 57 113 88 150 164 139 180 200 132 180 168 140 117 146 188 216 117 100 66 194 90 190 143 122 70 57 186 74 159 78 167 69 215 75 135 180 142 131 124 140 177 155 108 192 106 151 140 160 152 77 184 103 144 75 63 87 194 179 124 207 115 151 166 157 192 172 176 159 159 129 209 181 144 124 197 82 164 143 152 124 88 106 134 132 134 129 57 
139 156 112 89 176 135 169 101 126 174 109 173 144 39 165 81 63 182 195 118 110 170 153 167 124 145 107 167 172 164 172 162 140 140 168 136 114 168 133 193 133 172 153 187 110 165 110 170 226 200 200 183 147 124 162 86 181 87 152 159 134 168 49 130 180 147 207 156 215 185 127 141 174 211 220 70 71 146 144 95 173 143 141 111 179 174 149 145 70 229 84 180 158 197 84 102 169 65 155 172 
154 136 122 164 192 158 163 171 177 112 175 179 115 141 117 135 50 155 119 96 155 172 181 179 142 53 115 155 124 134 58 192 183 165 92 128 135 62 201 135 57 200 193 158 132 183 194 89 111 127 163 145 133 121 129 183 94 165 183 147 156 115 159 110 166 97 108 148 212 121 140 132 169 139 101 40 92 110 187 137 170 188 64 94 56 164 114 161 115 205 186 207 177 125 131 168 153 88 142 146 
193 182 139 160 118 160 133 125 152 178 152 163 115 86 121 169 72 185 171 152 115 142 159 168 172 237 145 151 72 93 79 207 84 158 134 139 124 104 162 170 181 208 141 122 45 119 131 149 65 148 103 150 71 134 164 143 142 157 179 166 179 146 144 170 155 151 113 186 141 142 164 115 178 115 151 193 139 203 200 247 166 107 91 129 190 165 86 213 184 120 226 81 142 169 189 119 157 71 129 108 
160 159 187 163 148 73 207 147 127 136 152 236 154 170 93 55 202 108 144 132 107 191 139 156 172 138 149 92 155 181 165 95 157 133 172 172 184 193 184 223 154 110 107 176 115 183 155 89 188 138 151 117 65 29 81 181 129 148 96 198 149 122 155 160 132 118 186 151 152 112 115 139 115 152 74 90 36 101 64 142 189 107 200 137 56 174 129 202 158 188 143 170 181 78 223 137 138 118 112 193 
203 127 148 116 160 148 188 142 150 114 191 192 166 172 185 96 18 97 91 135 97 145 204 124 199 160 162 141 125 130 114 150 153 136 145 128 107 114 205 144 94 156 93 166 167 83 150 167 120 204 122 144 159 138 180 97 65 169 177 89 110 187 86 88 180 127 114 176 103 128 113 97 106 45 73 57 98 77 199 141 129 181 104 50 178 46 143 137 155 163 110 175 128 119 146 70 112 167 187 57 
172 179 133 192 192 154 98 108 143 130 213 162 68 109 233 150 136 186 107 162 140 157 149 153 200 149 62 149 176 95 113 190 203 184 78 150 136 177 195 163 158 178 170 137 96 112 198 145 189 113 195 126 146 155 73 183 102 155 139 133 175 158 81 63 70 80 181 112 176 82 188 229 184 166 165 179 108 143 158 132 192 192 137 126 157 190 150 111 51 48 132 59 103 143 103 125 112 151 128 159 
164 133 191 137 159 107 188 222 98 233 84 131 132 148 144 75 116 157 183 191 219 190 175 140 149 191 176 153 124 148 185 126 188 198 152 201 116 146 203 238 146 165 112 140 136 163 79 131 98 127 141 189 135 181 82 151 110 98 113 152 163 163 206 142 146 130 176 172 154 177 150 123 121 124 142 73 125 200 90 30 79 153 153 130 97 130 103 153 201 175 148 63 146 142 116 97 127 87 110 168 
91 139 188 96 161 72 142 184 145 173 100 140 149 138 141 75 237 82 97 122 88 195 189 160 180 162 159 81 181 119 176 175 173 107 176 188 177 94 178 95 83 120 162 148 121 204 150 128 50 163 104 132 101 129 145 92 156 198 152 91 208 65 87 98 36 140 77 103 135 154 152 84 46 174 147 102 55 109 115 101 120 158 107 156 170 70 77 175 143 100 140 143 60 193 129 138 108 177 151 144 
106 138 65 168 133 65 161 117 139 110 150 133 197 160 88 161 178 117 155 142 119 199 136 177 185 151 173 120 130 160 135 71 144 142 47 81 163 108 138 177 188 80 119 146 133 117 156 191 155 176 87 146 100 115 72 165 163 187 150 115 110 195 109 199 90 91 103 219 190 143 199 180 61 118 173 207 112 131 70 190 154 129 85 115 115 123 205 152 183 207 180 209 88 139 113 145 202 190 202 40 
88 138 163 176 208 157 90 180 135 167 166 98 173 158 52 114 148 146 98 110 116 131 180 102 183 137 192 169 154 39 99 189 110 151 96 126 82 108 124 191 159 141 105 214 181 147 159 136 198 197 161 157 190 151 164 109 115 163 196 201 101 182 143 159 128 144 155 111 103 78 133 62 175 88 93 103 121 115 231 145 90 141 161 154 165 219 185 183 160 170 68 154 185 163 214 135 156 175 175 168 
172 119 177 165 105 90 62 118 156 90 156 199 110 141 156 123 132 188 176 87 175 128 146 163 147 153 99 184 151 157 159 115 181 69 201 143 136 185 106 219 113 147 212 219 164 164 196 49 128 155 91 143 53 193 109 184 134 217 161 161 169 115 179 162 110 132 122 136 121 97 160 122 85 70 174 112 149 176 146 186 157 94 162 181 92 173 150 80 137 217 185 154 131 189 171 160 103 142 95 173 
176 129 110 137 109 132 167 79 135 78 165 172 145 128 130 186 150 73 126 159 165 166 206 178 153 74 173 166 162 146 163 114 177 143 182 137 141 170 182 153 145 157 169 120 148 114 188 148 190 169 56 140 109 216 176 160 131 169 149 160 144 145 108 198 207 180 134 180 90 135 156 172 184 202 101 113 175 139 38 78 189 87 201 190 190 110 105 87 163 127 78 118 169 96 125 222 193 116 186 193 
151 172 189 159 137 71 111 128 149 163 121 152 138 110 181 190 171 130 128 151 104 100 201 154 186 182 129 203 91 129 148 162 175 195 63 95 205 139 169 132 180 147 112 80 168 244 177 149 158 131 98 71 120 188 59 165 114 134 77 133 169 169 180 102 156 100 151 131 115 119 132 202 196 136 153 125 187 145 129 161 111 159 157 122 50 183 157 150 150 141 128 155 190 98 169 200 189 132 179 138 
96 104 113 121 84 215 58 95 195 152 167 188 171 141 112 108 160 146 163 93 76 174 151 114 103 161 157 161 87 77 231 171 124 167 172 198 144 150 180 107 120 208 208 140 137 64 182 192 145 116 82 86 105 147 94 84 136 65 104 184 189 145 139 143 131 126 145 155 137 148 115 168 146 109 123 125 86 70 187 196 64 98 146 163 140 181 138 124 102 115 154 202 185 167 93 193 177 143 147 228 
160 162 142 106 145 134 86 151 126 66 99 76 145 126 166 159 144 231 157 101 136 191 122 113 154 139 169 81 162 104 144 126 127 209 126 178 148 163 143 203 171 175 202 148 191 164 112 128 160 6 171 164 187 48 181 155 102 124 194 225 57 181 211 228 197 119 184 85 120 152 48 89 150 171 172 67 110 108 159 61 110 111 153 101 80 79 108 125 188 167 162 154 147 146 116 186 225 143 198 118 
