P2
100 100
255
97 211 103 109 161 162 166 130 132 146 111 170 166 95 185 109 216 156 199 186 123 82 163 109 140 133 98 168 104 65 175 150 208 118 149 208 186 123 124 138 133 139 76 113 118 168 85 122 209 87 152 151 131 152 134 165 148 115 170 107 144 49 195 188 191 92 110 94 105 182 172 99 126 186 160 75 163 180 213 136 212 72 192 206 86 61 73 179 151 163 157 199 161 140 131 187 191 101 135 184 
165 193 172 182 161 170 86 112 188 173 122 194 191 210 192 193 198 224 151 199 48 138 130 131 156 172 121 111 188 141 117 124 86 102 125 96 78 113 175 150 147 136 155 77 163 169 107 145 160 194 149 186 140 126 177 127 115 129 93 234 168 37 140 108 173 116 197 154 127 207 165 173 147 182 185 60 100 107 91 138 134 156 103 190 219 180 185 178 156 108 140 112 138 108 131 141 113 149 14 131 
176 104 165 166 84 196 152 184 200 145 144 201 83 183 158 170 96 132 169 180 113 178 48 139 165 96 123 137 135 110 113 120 98 144 98 169 127 170 93 148 198 135 75 176 82 141 144 138 138 136 204 201 169 203 115 212 126 129 124 168 117 162 149 128 100 78 178 184 127 131 126 190 179 145 199 87 126 152 131 156 47 185 113 189 177 92 157 127 146 171 100 51 108 135 156 157 169 149 73 135 
168 128 138 147 138 165 161 119 181 93 100 133 152 173 193 147 209 155 214 65 125 156 104 225 63 82 144 133 185 140 218 151 195 155 194 167 219 152 133 172 98 172 116 110 207 131 150 72 212 117 129 174 149 130 73 67 179 52 127 129 117 163 115 185 168 123 150 162 95 158 197 177 199 106 176 132 162 79 91 127 151 156 88 134 137 142 165 127 136 81 160 130 96 193 115 143 172 129 100 198 
160 133 132 53 176 96 169 126 148 130 185 168 156 138 92 144 87 146 191 157 139 138 177 158 139 87 119 191 182 113 171 136 101 118 31 222 113 109 153 217 192 185 106 178 114 144 202 132 81 162 101 81 174 151 160 115 166 193 188 150 164 91 147 107 169 98 74 197 163 186 114 157 125 168 163 171 87 198 163 203 138 200 90 162 105 80 148 78 155 205 163 147 79 132 146 93 133 119 154 72 
139 97 150 84 75 234 153 199 148 171 170 188 75 130 128 134 92 191 113 183 166 107 182 177 158 142 111 144 164 111 123 148 146 174 45 34 234 143 131 122 175 138 124 153 170 31 90 170 188 92 113 146 195 170 142 183 140 135 163 189 223 116 152 158 169 116 179 46 164 209 106 178 179 157 57 169 154 150 155 140 200 149 145 83 133 103 139 191 76 166 97 160 117 144 156 171 152 152 146 167 
89 149 151 126 119 71 168 164 193 165 124 172 194 239 79 138 191 184 85 130 193 125 101 122 70 180 87 192 61 136 214 52 72 127 113 203 137 186 65 175 184 75 128 95 172 180 176 154 159 157 190 127 146 110 204 135 108 129 203 176 124 45 187 193 140 120 211 119 103 186 143 111 193 136 139 169 139 142 151 173 135 160 215 189 116 126 222 151 98 74 168 124 140 112 166 83 188 86 122 44 
106 227 146 151 130 182 157 178 162 179 162 97 157 139 106 144 112 197 167 216 128 81 173 153 108 112 134 185 180 139 121 161 152 100 173 129 41 198 159 174 125 67 142 183 116 92 171 124 44 125 174 180 219 129 163 166 187 117 170 106 103 189 169 72 165 107 142 70 175 122 138 192 60 83 208 163 157 98 172 184 146 110 121 173 174 116 145 84 103 196 201 112 152 188 193 66 142 179 98 141 
98 92 74 196 129 133 91 91 125 164 132 112 138 125 137 182 167 160 191 70 76 161 148 34 115 188 175 29 106 105 185 118 38 119 165 162 167 79 147 120 124 197 158 111 140 149 202 87 109 136 191 147 146 154 157 118 154 115 166 86 145 131 129 149 75 189 122 143 181 58 183 168 115 60 142 149 58 143 185 136 102 150 155 161 204 196 151 139 154 82 144 188 118 132 119 157 78 194 139 148 
146 98 231 102 156 193 159 158 193 151 170 197 92 142 128 130 151 127 100 97 102 139 135 146 198 114 82 161 105 129 178 134 155 110 146 128 156 166 158 76 148 130 186 87 141 147 216 127 205 80 204 121 126 103 89 85 128 78 94 140 175 170 187 155 212 163 149 76 123 135 211 154 76 174 193 186 144 194 124 181 226 137 207 46 93 99 153 131 180 159 130 189 150 172 203 151 137 101 106 152 
111 201 150 205 77 133 108 26 68 209 159 145 211 158 134 128 163 111 215 159 161 190 158 132 144 155 96 109 184 126 169 80 168 209 59 122 171 156 168 135 185 157 152 210 131 144 89 142 149 86 187 180 116 158 123 73 126 95 162 132 122 119 160 66 167 190 192 99 241 138 121 222 197 156 168 176 135 146 75 141 163 163 181 74 99 141 188 147 101 128 211 138 120 161 139 106 117 153 166 147 
85 191 64 27 120 182 196 158 87 169 152 98 212 73 49 150 153 160 164 177 29 154 136 150 202 104 182 122 96 161 153 157 182 120 81 180 154 194 121 144 138 83 116 72 150 180 151 151 117 71 134 190 99 135 161 184 113 152 147 203 146 132 89 90 154 91 139 177 122 118 51 182 63 113 145 122 188 72 101 140 147 139 55 132 164 157 150 200 189 134 131 187 151 179 103 168 147 121 203 139 
202 73 106 157 74 184 234 164 186 79 82 103 107 141 147 89 137 139 215 178 162 147 160 118 170 108 153 112 155 189 62 187 105 162 190 127 76 134 69 108 176 70 184 232 182 135 134 131 162 117 181 77 156 139 223 125 185 201 51 129 118 152 119 156 197 186 97 162 58 161 195 141 112 141 76 67 100 144 141 125 114 115 132 93 140 105 129 83 185 164 153 155 183 110 123 194 110 45 110 122 
174 101 60 171 199 115 191 135 110 133 129 179 189 105 184 185 116 133 152 170 124 170 153 201 38 97 59 66 156 110 191 186 152 162 112 108 199 187 164 106 87 134 134 88 245 176 114 93 126 167 90 198 107 76 192 84 79 131 170 198 167 143 129 105 108 113 123 210 197 115 179 118 70 173 144 176 150 99 65 120 164 146 103 188 136 180 169 73 166 80 76 36 154 77 177 102 107 150 152 172 
71 146 129 95 167 177 76 56 197 38 150 130 72 159 78 152 158 194 171 167 139 114 232 102 128 138 191 104 69 155 54 162 223 66 200 150 162 220 128 62 121 141 194 86 62 125 119 164 121 185 183 147 146 84 216 169 136 160 131 73 162 146 151 173 205 166 140 31 135 197 172 116 160 180 65 139 172 154 121 78 152 121 142 88 147 201 180 208 131 121 152 136 185 118 75 143 142 59 88 157 
158 178 122 153 154 154 139 163 82 116 25 171 188 146 129 115 197 142 186 124 130 158 163 120 175 78 143 158 134 118 124 169 155 145 98 145 133 106 170 185 189 134 112 86 97 131 129 189 179 40 157 87 161 134 120 92 143 145 157 115 155 122 104 189 140 83 61 169 164 147 123 36 223 216 81 43 142 123 215 87 53 121 131 176 111 131 129 103 199 91 213 182 70 124 90 162 147 49 173 228 
198 161 125 118 137 161 101 32 107 162 150 181 140 145 123 56 99 135 175 128 140 159 110 169 154 113 139 65 35 184 107 177 123 111 142 92 105 132 153 217 154 163 174 185 190 172 109 104 124 163 110 159 118 160 200 175 84 149 178 106 108 193 160 152 155 77 151 158 113 164 78 169 155 180 167 134 88 162 142 97 171 139 179 114 154 104 141 149 160 170 166 189 189 216 180 170 181 108 166 91 
124 179 153 165 89 138 167 200 148 77 203 148 206 138 161 117 166 160 129 87 118 85 122 191 139 140 79 157 154 112 71 155 152 66 96 105 186 101 104 180 126 161 140 174 38 164 166 140 219 173 173 140 141 103 201 113 86 113 164 215 165 136 93 97 45 112 71 60 202 180 118 170 109 169 88 75 143 143 93 215 149 169 160 108 149 230 147 112 95 201 59 83 71 160 159 126 89 191 124 131 
86 114 70 171 112 141 137 145 184 228 149 159 126 23 129 148 172 113 63 173 173 129 147 134 135 106 156 125 160 169 136 164 153 183 156 114 178 118 135 204 128 189 132 188 127 143 120 99 156 159 133 104 148 165 123 117 106 116 139 121 199 189 116 158 146 187 124 188 202 115 155 87 183 155 126 103 99 159 93 176 133 101 181 135 128 177 102 136 233 196 142 160 62 123 91 130 159 101 147 103 
130 137 128 144 161 95 196 168 159 179 128 181 139 155 205 139 113 93 106 152 165 172 165 165 89 181 186 199 80 150 127 87 82 84 180 40 78 161 67 85 137 208 88 199 186 155 118 165 156 59 143 170 138 177 192 176 102 127 143 154 101 130 222 144 179 167 140 124 136 147 183 196 124 140 126 116 132 173 171 146 194 164 83 134 131 200 143 137 112 136 111 93 183 199 133 101 171 113 222 137 
157 150 143 108 217 50 127 199 173 171 156 133 133 105 141 155 89 121 131 126 131 215 127 149 228 105 168 170 178 203 146 188 118 176 44 177 151 149 149 112 109 181 194 180 183 151 145 113 53 125 92 204 76 77 151 137 193 175 59 106 154 184 203 174 195 142 132 133 65 116 121 183 142 107 213 136 146 148 149 185 169 146 142 172 159 126 189 153 118 101 74 145 163 135 106 148 148 186 143 128 
156 134 138 127 154 194 145 61 79 99 170 69 120 106 126 137 143 127 192 173 180 119 138 127 137 179 96 148 158 113 120 144 200 104 159 91 95 187 171 39 109 99 142 129 157 149 140 166 179 177 44 187 158 182 124 66 83 77 129 164 138 180 224 121 145 87 151 201 164 141 130 153 158 162 127 37 145 116 179 211 147 116 144 84 138 138 110 205 164 71 222 120 155 140 127 136 162 136 109 138 
166 189 207 82 193 202 135 201 146 50 203 72 108 219 168 154 127 180 119 146 150 75 132 134 100 142 86 59 126 233 144 60 145 144 96 160 36 133 119 138 76 153 142 168 133 137 136 145 46 188 154 131 127 167 141 151 132 120 181 154 112 216 161 133 144 144 151 115 172 30 120 165 165 189 92 194 138 42 154 216 116 163 152 166 175 127 86 226 140 127 145 57 157 186 189 207 57 198 205 114 
168 204 142 133 174 88 154 208 122 80 76 196 104 79 205 137 133 95 78 111 198 149 176 153 117 185 134 149 128 117 200 182 80 132 165 134 150 159 198 173 126 159 140 209 58 145 137 165 207 78 165 138 96 174 214 153 189 197 106 122 137 146 126 103 89 121 134 85 76 147 181 105 159 141 112 141 121 149 169 193 156 74 145 207 116 196 127 59 142 144 142 146 173 125 139 163 158 97 63 193 
107 131 164 200 144 164 98 137 114 184 130 173 164 147 164 161 151 191 101 124 108 154 109 184 91 149 149 159 163 150 162 78 69 158 169 197 160 157 101 184 111 17 102 134 151 215 34 166 184 138 217 154 167 168 170 136 102 96 198 166 101 130 108 181 173 97 92 149 166 81 147 191 58 110 165 168 140 157 199 138 129 109 83 194 150 205 191 188 169 171 185 157 208 130 232 50 103 107 119 155 
140 210 54 164 79 184 180 117 158 123 145 106 81 177 159 176 71 171 87 173 107 132 155 131 47 193 137 173 142 85 84 94 133 213 187 167 126 173 187 123 132 150 119 118 82 166 142 139 150 146 142 156 48 118 168 105 148 197 158 184 99 98 200 55 144 75 154 105 66 141 144 178 159 141 167 147 166 166 159 65 123 144 130 39 153 142 101 155 161 168 212 158 183 150 97 133 116 192 97 155 
132 176 235 125 183 127 121 85 234 129 205 158 152 141 57 151 159 136 80 76 154 125 134 144 53 192 209 149 160 87 100 38 140 184 26 141 178 117 129 111 155 208 121 148 75 75 148 149 153 197 211 185 103 173 161 138 164 157 191 60 92 192 196 125 171 93 135 129 108 160 161 61 155 74 109 63 170 170 170 135 197 137 25 97 191 169 165 130 106 80 108 213 176 96 129 136 120 181 178 182 
154 156 169 141 152 186 176 163 105 78 106 134 142 109 154 155 82 125 127 93 167 79 65 109 213 59 109 140 156 150 50 110 184 107 138 129 171 153 149 212 136 184 141 157 193 126 102 146 126 177 87 142 60 154 93 162 154 151 132 123 125 187 78 155 193 133 164 124 181 192 128 141 108 144 146 86 140 153 190 179 174 137 120 139 151 108 153 97 173 128 170 173 86 141 122 127 134 190 103 165 
174 123 83 165 177 185 135 168 171 51 61 113 147 105 226 120 87 161 129 126 136 147 210 79 117 205 108 146 81 184 128 115 121 122 161 174 132 74 163 135 150 185 133 112 135 177 119 195 144 148 150 135 119 134 178 108 116 155 174 127 177 100 187 189 178 196 160 176 151 215 126 176 161 187 170 205 124 143 170 123 166 106 157 138 107 168 142 66 140 149 92 58 149 183 82 183 113 155 171 161 
27 49 110 146 144 108 154 157 177 186 162 110 30 216 186 125 167 171 134 137 220 127 119 58 140 174 142 41 150 146 106 163 187 65 138 93 147 172 160 104 180 92 99 28 131 140 135 158 97 181 92 109 203 134 92 115 194 82 142 129 135 173 134 171 68 84 196 172 151 73 98 53 85 108 52 86 96 142 163 140 142 150 207 191 169 82 127 138 119 148 125 145 122 147 19 80 100 123 140 50 
129 90 151 186 139 159 123 84 153 163 159 132 142 177 138 181 205 137 70 148 140 101 206 124 211 122 220 141 119 208 181 163 161 148 80 149 111 122 166 133 166 140 105 171 126 182 98 190 136 145 144 122 151 89 156 195 120 146 131 123 94 167 153 66 151 95 197 155 83 157 185 105 113 147 114 109 69 203 133 137 94 203 155 138 103 77 117 117 178 47 4 148 176 154 155 112 183 63 176 176 
127 143 148 198 96 150 168 174 176 210 129 179 92 112 173 156 98 189 143 131 38 192 136 84 212 173 174 193 169 36 150 157 196 154 169 125 123 92 117 121 92 168 135 108 198 187 139 155 213 55 110 194 150 174 171 167 147 112 115 161 167 36 106 139 107 100 154 222 162 95 180 114 143 163 214 141 142 83 212 159 154 199 184 161 182 163 100 154 157 176 173 99 165 143 145 103 87 179 113 60 
85 133 146 186 167 129 140 140 83 131 129 95 188 138 158 144 172 123 147 173 156 164 139 183 165 156 91 172 117 102 163 118 124 178 154 144 176 191 51 133 132 103 197 145 133 152 85 85 173 34 164 152 147 208 84 136 59 86 112 170 185 211 133 87 87 139 119 191 146 226 77 135 169 175 173 184 171 191 136 164 173 121 187 118 160 18 104 170 126 150 162 133 95 103 183 160 142 97 216 222 
182 174 197 119 109 87 193 122 158 172 82 191 70 154 146 113 192 105 134 125 200 62 154 172 105 180 83 62 248 198 124 177 104 158 120 202 173 97 97 141 215 147 174 128 178 65 149 129 59 147 96 61 131 123 76 148 150 155 101 82 168 61 107 106 122 140 97 64 132 178 169 152 132 158 99 145 92 108 200 155 127 136 125 155 184 89 192 139 195 158 158 60 179 108 205 174 150 148 164 113 
151 199 76 169 151 181 70 124 118 104 133 110 104 176 148 139 233 148 165 65 174 133 124 155 120 162 149 130 120 117 129 25 158 40 185 188 148 115 169 135 75 122 143 161 52 120 137 129 96 90 113 144 170 136 167 167 106 144 133 136 142 69 143 69 145 178 174 144 169 143 174 230 164 193 162 214 201 44 169 105 141 77 135 98 171 120 132 165 101 117 127 188 63 84 58 134 96 68 121 171 
142 118 76 118 138 225 135 169 139 195 134 197 54 77 129 134 152 199 139 176 74 127 160 84 183 165 113 126 156 125 200 50 66 124 102 168 208 151 197 73 141 126 161 134 83 198 171 157 136 110 68 40 64 149 167 144 137 99 134 115 113 157 180 141 138 188 162 208 136 85 123 137 215 187 177 174 78 179 110 133 107 180 168 104 175 131 140 68 146 114 150 130 127 136 212 135 115 161 125 82 
76 124 192 134 117 99 139 94 113 142 29 104 39 196 171 135 65 124 143 144 106 147 110 115 212 171 100 183 100 112 75 130 179 42 181 121 93 110 181 155 210 98 75 155 148 167 141 166 141 94 164 146 166 105 173 139 95 151 160 225 135 128 213 76 153 206 138 164 192 167 134 172 108 127 168 147 117 204 128 81 131 146 127 124 189 184 104 151 150 149 169 147 156 112 154 37 124 109 111 201 
187 166 119 120 161 97 201 161 170 154 132 132 103 136 100 82 132 222 148 180 169 102 152 72 110 151 193 128 128 127 168 218 208 106 129 116 173 217 179 151 123 104 158 206 140 170 116 152 54 125 65 108 203 98 87 152 180 203 156 177 157 149 82 128 159 149 146 131 170 135 174 134 98 162 143 79 148 74 115 75 109 187 158 176 141 153 110 154 69 196 197 146 161 189 130 64 135 115 155 126 
150 83 141 120 137 144 190 216 183 194 99 140 205 170 113 139 91 66 172 181 201 53 164 170 144 162 143 138 149 119 85 139 189 135 164 213 171 91 177 200 74 192 140 154 179 152 148 104 89 185 137 135 193 183 155 140 168 182 169 140 156 189 156 146 153 126 181 169 151 136 178 181 158 71 139 202 124 114 108 151 162 165 129 99 116 137 183 185 146 130 70 75 222 173 183 117 76 193 127 172 
129 90 135 139 147 85 191 110 212 152 174 68 149 119 137 120 155 155 92 126 168 190 207 194 182 172 222 171 136 93 139 183 161 106 126 153 161 163 209 28 185 86 159 133 177 83 202 193 153 180 154 148 136 175 156 103 162 88 161 192 211 185 106 212 200 174 192 196 201 200 134 125 76 128 115 126 56 148 135 102 140 136 207 146 107 153 109 168 121 113 134 177 141 148 88 104 84 29 162 163 
90 144 173 130 59 103 211 179 164 205 58 126 70 151 142 175 187 132 169 147 163 171 177 132 157 177 135 103 194 166 121 200 108 173 125 149 212 179 123 162 29 163 158 147 124 148 160 171 225 120 64 102 131 184 108 170 174 110 171 114 101 163 217 131 112 133 98 180 112 122 142 156 157 179 153 220 174 154 122 163 197 150 95 195 154 112 199 48 50 92 97 149 182 189 160 146 195 157 229 76 
164 175 156 37 212 121 168 140 166 140 87 124 197 164 162 209 153 180 151 212 124 76 149 92 73 136 193 146 168 181 164 176 169 176 142 191 151 188 147 114 118 90 61 48 163 109 57 63 174 175 135 168 184 139 189 164 125 70 148 98 160 140 95 176 81 57 91 203 173 160 173 111 197 142 56 164 137 146 194 89 160 183 148 145 102 146 126 171 108 173 140 177 186 125 202 85 135 30 79 148 
179 162 59 158 181 125 109 53 146 155 142 203 114 160 142 172 164 115 125 188 164 121 118 175 71 126 134 206 134 83 190 136 188 44 112 105 216 28 175 135 196 172 154 74 122 187 201 137 119 107 164 70 202 40 222 105 44 140 139 131 192 101 154 147 186 90 173 131 182 119 119 161 190 127 172 110 89 141 179 118 95 165 138 112 205 197 58 132 178 157 93 139 134 196 178 165 115 195 155 152 
121 134 91 169 159 188 104 149 96 157 160 144 81 172 126 204 197 106 91 146 135 102 117 171 155 53 99 72 117 88 162 168 127 35 180 144 148 221 161 123 181 144 162 170 138 177 105 115 124 141 121 150 196 101 156 203 146 87 195 199 153 147 197 144 121 190 156 132 168 58 127 116 131 160 120 235 174 189 82 97 162 195 134 154 117 110 172 92 129 85 178 106 184 129 50 188 118 72 122 190 
118 141 147 175 169 174 186 153 134 86 155 131 125 113 184 162 104 151 142 132 165 76 185 101 174 101 104 208 155 146 119 162 179 16 168 229 111 201 120 199 131 154 195 152 158 178 192 97 120 94 111 154 206 134 190 127 63 123 123 131 207 213 106 89 180 183 109 87 93 152 161 164 134 164 193 120 184 152 148 181 94 191 201 239 159 200 164 102 85 114 138 164 71 166 168 178 126 147 115 159 
138 109 101 175 126 48 69 100 143 166 105 51 33 141 124 117 82 165 121 129 71 181 170 86 130 111 168 200 163 177 147 150 58 180 99 164 166 141 115 135 154 230 130 112 116 79 90 226 152 75 198 141 148 189 58 79 189 165 129 113 183 64 200 166 128 121 137 146 198 200 125 151 159 138 195 107 177 62 127 135 193 135 121 137 94 188 188 84 160 86 149 207 135 202 167 161 118 157 85 92 
183 160 175 201 158 126 143 70 194 118 133 162 123 157 160 56 155 91 76 162 156 158 39 192 164 118 191 193 126 131 183 164 107 177 104 151 70 152 84 170 147 152 60 163 166 157 180 136 131 154 182 57 160 192 141 128 145 86 167 204 214 172 142 226 156 139 139 110 169 196 111 187 131 116 154 168 135 212 135 178 193 65 48 136 185 147 175 133 184 145 117 170 130 170 72 147 132 133 185 156 
181 180 133 175 220 148 136 146 179 86 191 134 196 135 164 154 196 102 136 165 113 142 27 160 195 100 107 146 126 95 193 130 165 120 108 165 144 134 83 132 149 180 142 136 96 51 125 174 218 65 141 111 210 183 137 144 198 173 170 149 181 151 106 87 180 36 110 146 139 97 212 165 187 175 111 158 136 167 92 132 155 198 133 197 95 204 126 118 163 132 154 173 106 100 107 157 131 151 177 180 
174 191 113 173 164 144 71 107 156 137 126 167 154 168 181 85 168 145 199 100 199 149 189 139 125 136 149 140 76 79 119 104 155 103 173 123 188 95 157 81 189 97 122 117 214 128 101 128 195 100 121 167 201 169 240 144 183 125 182 91 139 203 130 147 174 80 152 176 113 211 170 72 235 181 201 154 147 181 110 159 153 219 210 65 202 239 84 174 172 135 67 70 179 142 148 174 176 133 105 226 
153 162 148 148 156 109 120 116 189 157 150 113 185 201 106 112 159 160 198 181 153 134 138 174 58 84 85 209 144 107 179 192 45 161 145 168 115 104 216 139 86 152 108 164 85 160 212 175 59 204 198 142 154 98 219 141 78 107 162 91 207 155 174 103 150 112 154 189 162 144 153 199 161 182 208 82 191 106 127 168 158 148 172 149 136 188 158 178 157 152 182 31 127 175 160 143 229 74 180 145 
116 88 157 210 108 166 152 185 106 138 147 172 125 172 140 128 144 162 121 70 148 119 196 213 153 132 149 175 82 132 151 210 189 172 142 150 186 140 226 224 121 107 126 178 153 164 47 123 170 129 127 139 120 168 174 148 173 124 89 125 108 65 103 195 165 157 170 128 150 15 112 168 132 182 147 104 99 160 163 127 41 146 161 135 176 185 159 140 189 179 135 109 166 200 168 102 201 131 140 74 
145 172 155 144 174 41 171 168 170 139 174 45 132 81 205 125 118 74 109 123 133 177 198 209 139 57 153 114 132 178 158 112 132 104 120 170 166 94 96 115 98 94 70 133 92 183 140 37 143 179 141 135 102 133 172 181 136 95 156 112 141 157 122 67 97 111 85 97 157 109 143 103 132 190 144 181 144 108 191 98 143 128 177 98 154 122 171 173 222 98 157 138 176 142 192 162 107 170 74 136 
142 135 148 115 112 180 149 27 167 107 184 150 136 185 159 178 88 30 156 218 157 131 151 173 132 123 174 167 142 115 151 106 175 138 155 144 132 126 144 163 151 149 166 184 193 104 172 210 108 98 146 113 129 163 111 145 154 204 150 198 131 132 129 179 170 143 117 207 149 96 189 144 156 162 175 144 174 71 76 153 199 138 160 68 112 145 220 217 194 81 76 43 172 117 170 179 110 168 130 181 
218 136 175 156 90 122 126 127 97 51 197 194 161 104 145 123 147 160 157 52 36 208 141 112 90 172 189 83 160 156 211 146 100 132 167 176 158 50 135 203 108 150 182 168 180 177 176 164 173 190 127 123 206 140 103 44 164 144 150 156 192 87 183 158 134 155 234 187 136 149 225 178 82 103 122 125 181 118 188 59 154 175 227 138 143 183 187 134 151 150 113 109 159 173 214 156 125 163 177 119 
153 162 109 131 215 26 169 164 187 137 154 148 151 119 45 115 184 179 176 190 87 148 133 154 175 210 141 204 74 102 83 130 177 151 101 153 198 174 118 156 101 124 202 103 112 169 96 200 185 57 89 154 101 130 80 98 135 146 172 43 223 152 193 106 217 123 129 179 56 88 206 134 166 180 158 172 137 125 143 156 176 154 228 10 232 198 89 120 161 168 98 144 166 85 58 201 179 182 134 50 
115 107 181 168 137 141 59 164 122 186 107 108 202 140 195 101 199 154 94 140 191 157 64 147 108 134 110 213 95 182 207 139 165 176 165 103 172 128 96 148 158 177 118 162 136 180 165 125 95 118 119 137 142 141 202 142 156 134 96 37 147 183 76 163 26 158 217 138 157 233 107 100 143 176 186 66 116 150 93 86 177 152 58 120 157 156 114 149 107 162 83 180 171 188 127 134 106 99 89 122 
177 157 98 80 212 145 179 131 136 141 159 158 125 126 150 117 88 153 184 152 177 194 133 217 36 174 151 97 189 111 179 161 96 133 139 120 143 228 145 153 139 108 227 189 108 188 119 189 129 178 117 101 120 73 178 150 38 152 134 171 161 139 140 132 130 149 155 124 188 188 125 196 149 97 185 132 114 168 86 205 142 189 165 181 133 37 180 209 147 51 163 98 162 182 124 118 131 105 195 154 
153 99 183 142 167 154 120 159 130 173 136 212 196 158 209 140 158 39 83 187 189 181 147 186 143 138 179 151 190 150 91 92 173 175 121 149 175 140 104 175 134 148 127 148 214 166 171 141 179 168 129 91 186 121 43 97 132 76 69 138 115 133 137 141 21 140 125 58 108 158 98 176 115 134 216 150 49 197 215 181 101 90 96 106 109 189 132 81 78 98 92 72 147 169 165 80 140 139 201 121 
195 129 113 178 144 132 108 129 37 152 86 156 94 183 77 104 196 149 174 143 121 117 35 194 89 154 148 182 144 108 209 142 159 152 38 189 223 162 125 151 134 152 103 147 166 142 204 148 177 186 183 155 154 147 147 143 183 175 52 173 156 98 183 178 152 80 125 118 171 160 145 156 126 149 134 90 169 125 141 119 198 98 152 153 147 166 162 142 155 154 153 155 132 202 131 169 138 169 156 191 
126 145 145 70 69 93 75 82 98 83 49 117 94 127 83 205 132 148 96 191 152 176 153 190 157 180 134 97 122 82 188 149 175 174 189 135 199 80 130 82 158 153 166 160 104 184 150 180 82 102 82 143 186 188 145 166 137 166 85 184 139 146 142 131 96 52 166 161 125 174 154 131 182 96 144 121 225 150 95 131 190 187 33 165 167 133 143 120 172 141 156 127 158 145 111 136 148 183 106 163 
72 46 64 94 131 153 217 73 162 159 118 147 71 154 96 141 172 158 137 41 141 84 186 192 112 101 81 111 113 107 131 104 153 126 61 139 73 203 127 146 144 145 133 193 148 124 122 168 120 170 160 111 148 158 151 112 156 85 137 87 179 130 178 177 170 187 82 216 130 57 35 31 98 95 145 204 89 94 178 151 80 95 130 151 128 178 144 108 127 125 119 134 191 124 193 119 197 107 77 103 
171 196 177 148 138 188 112 170 83 109 134 163 90 69 139 147 145 110 126 131 78 168 154 94 114 175 99 172 113 141 115 146 176 179 156 142 198 161 87 139 160 111 154 135 141 125 182 104 132 161 135 140 199 147 130 124 148 156 152 129 123 27 86 214 137 106 193 164 178 164 107 124 189 189 98 141 78 58 228 192 144 132 120 142 128 220 154 94 152 84 150 135 137 217 186 213 180 95 103 70 
97 200 169 191 98 139 138 127 112 166 153 149 194 102 90 166 150 163 117 137 77 167 41 161 198 100 179 176 88 117 142 82 89 41 110 177 52 122 35 133 143 77 204 178 203 193 190 84 121 82 104 197 84 116 165 48 82 76 85 141 155 176 182 188 127 187 115 32 140 121 65 225 198 176 176 162 143 90 115 87 121 59 81 198 88 169 199 109 136 101 94 123 51 135 131 190 153 127 166 111 
164 173 129 144 149 117 147 148 179 145 190 181 86 152 178 211 185 140 198 110 137 140 119 158 46 100 121 170 130 103 158 57 158 93 171 193 138 77 144 47 210 135 162 150 79 110 71 165 120 142 109 214 85 199 126 208 204 148 189 156 188 168 141 149 185 170 180 138 122 114 42 137 141 87 115 188 129 120 127 43 110 100 126 148 222 131 74 176 154 175 110 196 132 153 80 203 140 179 114 152 
162 240 169 195 132 177 114 187 126 107 170 153 173 192 111 112 109 107 171 118 45 132 195 191 156 64 175 222 159 97 150 151 168 125 175 152 187 152 116 105 128 174 127 151 131 156 118 212 185 217 197 161 163 179 80 152 116 104 32 153 159 73 60 38 177 137 127 184 130 44 142 166 85 121 216 131 117 126 92 54 191 71 170 80 85 149 127 114 220 113 103 148 180 192 181 119 187 111 164 118 
152 172 135 177 161 148 166 129 94 64 150 130 125 218 141 157 112 159 152 171 151 203 152 132 101 151 152 208 191 142 148 169 182 97 142 20 151 149 135 47 101 180 81 169 178 151 157 202 139 78 109 175 165 179 196 92 94 123 118 103 70 91 122 90 96 126 126 132 139 137 215 214 150 165 225 76 148 136 151 93 157 183 183 88 146 114 156 147 176 151 90 118 133 96 143 161 180 193 94 82 
70 159 98 181 100 138 231 129 165 131 137 147 159 176 138 107 126 211 209 77 150 105 166 94 116 175 61 185 120 63 30 120 184 199 173 157 150 181 131 204 171 161 136 202 144 151 160 174 199 129 164 199 103 137 152 113 155 190 158 146 44 213 150 199 164 80 212 122 99 97 193 124 183 77 193 200 102 130 163 118 143 123 133 157 150 153 213 177 193 148 187 94 129 176 150 109 164 80 72 198 
131 168 171 147 158 34 152 210 214 185 163 107 232 83 187 215 189 136 112 99 73 137 153 29 193 109 192 175 64 160 154 144 177 35 51 65 114 156 154 101 144 74 118 162 41 126 176 171 185 114 203 81 41 100 149 97 172 139 161 74 140 184 179 211 167 103 96 111 182 178 88 197 112 108 135 153 141 144 167 180 216 159 143 180 46 134 182 168 173 125 59 131 227 106 159 195 107 132 150 200 
107 135 150 144 145 34 163 117 173 250 153 124 169 74 152 102 120 151 213 156 127 182 116 169 189 102 169 124 160 205 177 141 147 122 202 114 127 170 166 84 112 172 166 133 104 149 114 141 193 93 119 82 137 118 86 167 68 197 98 133 178 153 94 98 135 133 137 146 214 202 70 156 88 162 158 169 177 145 173 149 193 180 196 199 210 120 153 211 112 155 159 192 160 120 206 131 181 184 148 96 
153 198 74 81 178 87 199 98 118 151 102 124 142 189 70 131 226 149 195 162 114 29 175 140 191 177 130 108 143 54 108 176 114 143 170 143 116 125 177 52 185 122 146 146 107 154 182 109 147 95 193 102 105 153 114 152 131 174 91 163 102 207 135 160 92 49 180 164 185 169 119 138 180 75 111 179 100 119 124 208 142 124 197 161 229 91 201 168 139 149 104 32 146 163 53 169 128 140 170 149 
108 159 91 209 207 136 118 74 121 163 123 127 151 189 72 204 178 116 150 123 110 119 134 134 184 157 158 101 124 167 154 117 142 159 138 57 69 150 133 120 195 137 164 166 203 190 61 92 176 150 142 234 117 143 103 178 77 140 83 214 125 152 124 103 143 215 212 149 123 21 117 145 93 164 144 159 129 100 144 131 144 151 154 136 93 136 126 112 169 149 139 200 162 112 168 166 139 54 147 104 
168 145 107 95 171 176 192 67 158 175 161 134 92 76 161 180 121 144 177 74 78 179 203 82 161 160 102 174 188 206 185 148 160 96 137 147 142 186 210 138 214 121 164 111 133 176 180 118 186 119 71 125 163 196 155 92 141 134 182 65 204 156 123 86 134 128 175 164 139 151 169 73 105 113 136 70 178 165 106 110 84 82 66 57 166 157 162 167 53 164 144 201 144 173 93 112 136 111 155 198 
172 144 136 146 118 152 107 160 165 139 175 83 144 115 115 193 187 171 159 170 61 163 230 133 89 147 96 125 52 154 190 165 145 182 157 128 74 132 169 174 130 180 138 62 111 138 150 154 131 107 183 67 203 124 164 177 71 168 217 187 119 100 50 151 158 144 179 152 123 87 150 170 165 39 59 157 180 134 121 163 125 185 132 141 124 139 217 149 72 142 175 160 135 100 106 164 75 69 201 175 
157 145 146 157 183 197 150 133 182 188 120 119 146 121 84 101 128 171 103 223 95 141 25 141 94 116 198 125 138 137 116 158 157 114 110 132 175 148 91 123 166 116 142 204 90 166 143 146 92 143 169 154 180 37 177 103 132 185 136 163 104 144 139 148 170 80 190 48 102 107 92 149 168 110 75 113 204 109 121 159 75 104 122 159 187 104 159 121 177 167 119 109 164 178 88 193 120 130 202 127 
80 134 175 163 115 183 150 103 201 163 87 133 140 93 177 155 98 191 187 198 182 158 135 74 134 124 125 164 162 95 133 105 198 143 159 151 121 80 159 146 166 189 178 165 176 165 129 71 80 184 199 196 111 119 99 92 172 177 199 154 154 91 86 135 160 101 138 91 84 205 139 129 154 112 150 166 134 188 203 126 92 60 139 174 143 209 91 180 145 136 171 165 88 218 163 60 134 107 83 195 
185 82 142 132 123 213 171 130 106 111 158 156 192 127 146 164 148 106 142 156 119 171 168 112 157 159 177 101 69 155 170 169 169 58 140 67 63 120 174 126 141 174 135 79 113 168 41 76 147 149 116 109 166 191 169 204 153 74 173 187 160 121 129 97 181 139 112 106 105 128 137 110 109 178 216 39 162 146 197 194 97 177 216 145 138 104 158 118 86 197 80 138 56 130 113 187 162 215 165 121 
77 153 159 167 145 122 164 156 146 99 139 83 132 207 168 147 158 108 159 55 155 196 114 119 62 73 147 117 79 75 158 153 159 125 125 161 110 66 203 140 129 128 157 121 100 111 141 123 135 137 110 124 144 99 167 148 184 157 99 49 73 157 223 141 118 152 119 140 121 99 219 80 154 119 194 110 146 111 161 144 135 50 187 72 178 157 111 148 165 136 173 181 167 98 106 119 123 121 201 110 
86 55 169 149 127 123 180 159 119 137 70 244 55 29 196 112 171 144 101 115 98 180 141 159 172 172 168 188 128 163 144 160 184 172 89 132 171 146 84 192 185 158 101 131 166 156 40 153 101 115 186 237 202 159 176 144 135 144 155 63 120 105 81 133 154 196 147 114 106 196 105 107 188 124 199 97 79 184 123 95 129 130 178 168 115 152 229 179 103 87 105 193 191 172 132 115 153 59 149 153 
43 140 200 192 44 131 55 82 173 160 175 171 106 186 202 152 11 88 137 190 91 194 108 188 146 180 132 191 189 167 140 133 122 188 102 175 180 165 124 152 102 62 139 202 164 142 100 88 114 171 131 133 99 134 99 114 147 118 189 187 30 223 154 147 103 152 201 143 44 167 161 176 130 100 119 105 100 217 215 170 201 178 225 190 142 60 173 88 69 170 147 157 167 108 137 137 88 154 155 171 
99 159 102 194 148 109 79 199 132 171 140 136 148 169 212 141 142 155 166 136 132 139 191 181 183 197 136 100 112 155 131 187 109 187 122 42 73 128 41 52 139 140 142 97 161 187 89 148 144 204 52 180 138 142 71 45 143 131 110 151 170 130 149 184 141 132 105 145 168 101 166 160 93 143 147 160 161 45 119 91 138 133 54 203 163 140 189 188 75 161 73 128 132 114 125 152 138 24 118 194 
173 147 77 163 208 171 170 156 75 153 108 81 145 181 77 135 190 138 131 44 82 159 155 161 143 171 195 175 156 165 89 117 159 96 150 144 97 156 146 198 198 113 133 110 115 186 186 152 150 175 210 154 210 188 152 137 170 114 149 91 121 149 97 117 103 162 88 183 119 175 196 168 182 182 171 167 176 210 157 153 126 74 190 154 112 180 159 182 205 109 209 155 119 130 159 95 179 128 160 143 
143 79 148 101 127 135 176 180 148 100 159 61 157 43 187 109 175 177 134 157 179 168 161 156 154 185 124 88 82 169 193 138 90 65 106 86 131 135 158 148 133 141 150 219 167 114 172 145 129 149 93 108 156 181 107 183 106 83 110 200 183 144 189 197 141 92 155 142 139 203 123 117 120 169 78 137 102 87 72 136 83 120 127 46 150 140 98 154 129 69 178 140 112 122 182 185 165 172 35 98 
154 147 151 177 189 125 174 196 109 118 168 87 137 139 127 144 127 164 81 118 94 171 167 129 122 148 143 39 157 108 184 148 127 147 175 138 72 80 164 133 129 130 210 82 55 86 181 128 201 109 139 154 159 145 160 208 193 124 132 145 136 126 196 155 114 116 103 193 98 104 110 119 173 71 58 150 95 51 120 105 134 120 173 91 136 205 135 180 179 178 127 42 99 135 131 175 126 145 195 154 
144 102 151 179 199 128 154 207 98 203 118 80 180 123 100 232 144 183 211 51 165 145 146 180 181 222 183 171 194 235 120 139 126 105 126 207 78 147 106 135 208 124 58 182 120 177 195 113 61 159 53 217 151 161 52 170 99 174 146 106 59 167 115 144 173 181 123 106 154 82 191 169 142 129 120 108 160 165 123 188 162 192 235 96 143 124 163 176 141 130 118 155 126 197 173 73 125 116 142 171 
65 144 147 133 36 138 128 118 143 141 106 101 95 95 56 91 125 178 196 108 206 95 153 83 121 125 169 178 138 151 162 148 69 172 153 103 129 196 135 99 154 128 80 62 149 152 195 128 94 100 168 173 127 156 133 212 146 200 217 104 182 86 200 65 187 157 147 159 160 154 57 159 97 89 132 128 122 96 107 25 171 202 130 78 88 185 144 62 182 78 147 157 112 157 152 123 152 136 143 107 
166 138 119 162 125 149 158 154 58 146 196 150 143 154 120 178 145 169 182 144 92 219 187 126 99 112 63 139 97 102 130 152 225 182 95 181 161 70 118 172 181 66 133 139 136 141 191 91 153 150 130 147 174 184 180 193 145 142 150 157 154 155 158 178 191 137 121 129 152 90 147 80 150 114 100 139 135 73 41 156 133 145 166 114 77 142 117 127 193 177 154 145 59 115 135 167 186 191 122 133 
117 150 143 108 158 134 165 157 151 171 182 98 186 152 135 157 80 155 130 137 135 138 168 149 113 112 187 77 185 129 177 111 174 183 183 80 154 202 136 164 139 88 119 179 121 117 150 150 157 160 141 120 124 194 140 178 138 127 150 161 153 130 187 129 161 121 140 183 130 159 145 102 153 193 138 158 163 89 125 150 150 160 173 171 167 43 153 166 131 202 136 104 135 116 100 99 150 148 38 119 
104 171 174 118 120 200 175 150 182 109 131 139 134 145 201 139 178 104 159 141 124 151 85 140 70 188 193 66 158 146 130 136 31 143 102 167 64 184 104 173 154 159 178 195 135 155 206 122 169 93 124 170 137 160 154 155 168 126 125 190 149 173 144 133 139 190 155 127 168 172 179 141 179 160 133 99 109 197 133 85 175 103 178 131 82 116 105 78 173 206 127 169 138 78 127 128 132 184 124 101 
203 199 190 106 102 205 89 70 101 137 183 153 141 157 166 185 171 91 199 189 50 200 153 108 76 48 74 214 147 154 114 167 169 181 179 211 155 193 152 91 153 202 155 197 160 106 196 113 126 105 80 105 143 149 109 188 78 152 94 63 131 153 74 143 88 150 103 143 147 136 124 178 178 145 206 146 167 139 77 162 203 146 186 132 127 190 205 178 125 123 128 170 102 163 56 137 158 141 143 170 
129 184 100 123 157 196 150 118 156 154 172 116 102 146 152 160 191 99 187 137 110 99 119 206 56 79 69 170 96 188 195 130 132 79 142 187 142 137 120 98 153 171 114 151 140 132 104 150 153 188 170 140 113 111 150 171 126 169 164 183 157 161 106 101 131 209 152 187 160 88 156 209 131 81 142 195 143 136 192 196 123 150 190 206 161 134 105 70 96 108 112 148 153 176 167 156 141 178 174 148 
114 124 102 166 128 179 152 178 147 164 166 135 212 90 110 106 98 158 128 125 154 178 161 106 91 129 100 138 125 148 190 88 166 180 45 110 176 195 188 208 190 130 111 202 176 176 138 155 64 97 99 148 119 119 195 116 125 36 165 146 130 109 187 164 155 173 105 166 159 117 152 180 203 116 133 90 75 119 143 139 148 151 125 172 135 42 152 130 97 124 128 107 123 151 84 137 176 107 200 154 
129 164 126 40 127 114 92 133 162 132 138 133 181 190 77 141 106 145 121 218 132 118 161 194 99 205 51 116 233 95 190 156 138 137 155 165 145 113 118 151 145 156 182 197 171 185 178 183 184 150 184 168 126 158 189 178 150 222 155 139 71 167 164 182 67 57 123 150 72 112 185 167 216 211 68 224 122 119 189 94 153 148 177 138 166 176 113 141 124 178 149 44 139 190 155 173 171 173 160 187 
169 138 119 194 161 29 170 220 149 108 82 206 104 37 52 164 222 191 95 183 139 182 77 184 131 166 161 95 134 189 142 178 83 124 166 187 140 139 176 110 177 128 158 142 172 94 198 141 163 159 155 130 133 57 187 170 71 148 183 134 126 146 162 124 143 206 47 135 189 73 64 194 130 137 145 64 84 226 159 90 192 39 180 137 166 119 181 159 161 161 125 122 153 143 173 97 178 184 143 61 
192 149 185 86 128 139 74 192 131 143 171 189 159 208 138 102 160 92 150 176 185 206 125 162 111 184 163 171 91 97 58 186 134 88 113 156 23 192 83 62 90 133 203 59 205 153 179 131 105 139 164 61 37 123 150 102 96 90 83 113 149 134 67 118 193 136 116 129 159 167 170 165 102 193 109 123 160 165 147 126 190 127 173 124 108 118 54 73 129 84 181 132 126 80 56 202 204 173 32 186 
162 120 175 186 135 97 211 146 186 109 137 112 171 141 99 212 166 186 194 88 180 187 96 154 150 112 84 177 70 86 100 185 163 129 154 146 96 138 182 193 155 88 67 105 86 97 167 173 191 120 105 198 196 186 213 131 128 121 131 195 162 177 115 132 163 129 138 177 128 173 104 124 156 140 184 176 113 167 155 181 127 178 199 51 131 204 218 117 150 165 100 152 119 138 141 163 152 130 198 134 
145 115 129 128 136 208 130 105 139 93 87 167 67 98 156 140 162 142 138 120 210 179 184 202 200 133 111 178 114 143 133 138 158 100 74 105 123 166 108 147 98 124 103 198 159 186 143 151 178 192 116 101 165 165 97 174 117 199 154 169 170 96 154 158 160 96 149 145 174 118 114 50 215 167 125 143 147 174 140 157 127 127 111 177 192 229 114 239 167 175 136 195 111 129 63 86 172 107 160 78 
142 85 43 135 127 104 93 173 176 186 162 142 99 164 111 78 142 46 117 138 141 54 137 165 157 113 146 74 149 114 153 157 116 155 113 186 101 109 167 105 175 181 167 156 97 183 164 119 174 130 183 84 118 158 174 136 36 114 211 178 187 185 137 208 90 151 216 115 155 154 116 146 149 66 136 128 158 150 119 123 135 45 161 159 122 96 167 213 174 162 140 144 144 207 174 224 113 210 201 130 
195 167 51 123 152 195 95 138 145 228 142 188 120 182 121 184 124 198 135 167 210 148 211 174 155 193 94 46 182 195 72 124 139 138 161 220 151 174 165 89 96 190 149 98 92 52 85 73 173 139 111 187 138 129 153 128 181 127 167 126 170 141 189 124 127 100 190 198 180 228 63 153 142 164 125 76 93 153 190 148 91 106 171 182 159 175 34 118 114 188 178 182 128 200 134 78 112 189 143 178 
144 202 185 142 171 160 192 190 199 146 69 91 156 210 189 173 152 136 120 178 142 128 102 84 130 135 180 167 118 131 182 73 56 219 92 157 122 173 163 181 100 104 125 201 141 170 104 174 94 122 144 190 110 117 157 107 94 143 125 135 84 179 161 69 140 201 179 156 135 126 120 198 144 164 69 128 164 135 191 128 176 109 106 62 182 111 139 122 130 125 97 132 42 68 52 138 74 189 63 101 
108 169 178 121 158 167 66 136 137 149 24 160 118 173 47 61 175 176 97 140 150 90 87 100 92 117 152 200 134 89 175 200 82 147 112 114 175 146 132 81 203 189 212 103 135 122 177 185 201 130 101 202 126 136 157 124 149 75 125 52 109 148 140 168 200 103 174 170 114 129 203 197 220 203 243 137 230 169 181 148 126 83 167 147 171 128 179 138 127 143 148 149 130 188 144 147 115 172 204 173 
