P2
100 100
255
125 132 162 181 188 207 171 173 137 73 118 139 135 132 89 61 194 149 80 181 189 109 143 136 151 91 177 154 147 92 135 143 151 185 124 187 199 59 184 58 85 80 162 156 142 153 98 159 78 137 15 112 224 237 158 182 165 175 146 125 159 177 136 130 135 111 149 147 159 154 187 104 133 91 152 175 70 104 100 190 179 175 220 173 147 135 153 162 136 194 137 192 38 160 183 67 201 175 126 163 
131 120 151 138 109 132 170 194 103 111 156 177 118 101 97 87 204 141 193 117 97 133 136 110 141 165 58 142 134 126 88 189 155 113 133 150 148 189 172 160 149 80 170 104 128 149 156 145 126 203 147 68 156 133 130 164 193 154 182 166 199 185 69 142 162 145 164 158 155 87 206 98 120 181 104 26 150 97 162 159 161 157 153 74 133 125 149 147 204 169 138 155 148 182 173 180 165 78 128 110 
95 106 88 146 122 140 118 100 148 80 141 118 44 109 42 52 89 190 91 35 134 129 152 138 189 90 211 173 207 200 105 129 58 88 31 226 127 138 156 158 159 180 139 135 206 219 122 134 145 192 89 186 169 123 92 109 84 142 145 134 176 79 81 188 158 175 215 126 123 107 149 128 149 82 181 187 122 107 29 116 136 27 185 171 128 155 105 203 112 165 152 220 213 187 119 106 158 112 95 76 
116 217 123 99 92 165 135 190 196 88 101 164 149 92 183 84 159 154 79 155 122 146 114 129 116 160 101 92 130 195 159 123 149 54 156 105 80 108 145 86 162 173 155 172 55 209 222 115 183 143 49 201 214 196 167 173 101 133 184 120 159 111 227 105 169 193 151 156 239 146 157 166 151 86 76 160 128 216 106 88 144 185 160 186 92 130 112 86 166 107 182 177 183 191 105 92 156 151 167 182 
134 86 133 48 129 129 124 197 60 98 103 200 133 176 102 187 163 215 190 122 165 164 93 73 134 191 122 116 149 194 172 159 58 147 198 124 78 135 205 111 107 155 138 147 34 156 184 160 159 91 179 205 161 150 197 189 176 97 162 200 111 118 171 141 103 154 79 199 207 160 144 159 149 80 187 159 124 79 194 184 159 139 106 96 168 174 123 127 166 98 144 136 165 139 126 173 164 54 82 175 
128 155 158 136 130 181 138 162 131 162 153 233 80 168 215 65 182 119 205 61 139 153 74 157 154 131 141 213 168 178 120 104 169 89 84 110 182 144 161 173 147 175 102 205 141 52 168 76 180 96 147 57 96 135 193 126 198 79 200 146 135 128 126 138 171 91 182 120 148 176 177 146 215 56 192 92 132 177 230 168 159 153 166 126 137 159 115 190 109 115 139 63 157 185 137 137 86 133 130 200 
186 138 122 161 180 145 152 131 159 123 157 134 124 218 144 92 173 95 146 144 158 147 126 146 74 80 168 75 146 100 175 130 105 164 114 155 116 183 151 115 181 160 130 126 163 137 145 179 161 140 157 149 148 158 93 176 47 183 196 123 150 158 169 166 136 116 78 149 151 31 159 51 83 202 160 127 162 104 125 104 115 55 28 38 90 139 154 131 174 51 117 134 147 197 55 206 141 108 76 176 
143 129 51 133 167 190 89 165 176 138 104 114 157 120 144 67 161 113 160 144 133 125 112 105 199 120 178 165 183 132 201 149 138 49 134 192 61 133 187 120 199 199 212 126 95 147 110 151 92 158 95 202 98 61 153 152 176 80 118 135 143 72 70 115 106 134 120 158 139 158 230 112 159 84 137 92 71 181 235 107 153 227 171 107 171 144 71 157 199 189 162 170 188 184 120 101 93 126 79 187 
67 132 154 152 169 98 171 126 228 193 126 119 144 166 81 133 186 127 207 141 146 109 127 182 172 157 117 93 88 149 130 127 124 155 178 154 188 155 154 96 119 165 61 80 39 160 53 152 212 41 189 136 203 130 151 191 138 155 145 119 191 164 90 225 63 84 147 208 133 99 137 134 198 123 104 154 106 110 179 114 93 103 160 186 120 86 140 188 156 106 106 137 148 218 179 134 84 140 169 180 
178 133 155 153 95 93 173 195 59 114 77 220 165 128 107 169 178 140 99 112 136 148 128 169 180 94 181 151 129 156 194 169 120 159 60 132 151 171 144 24 206 160 145 92 190 186 201 104 132 80 118 149 90 145 131 148 191 132 202 167 201 167 157 106 63 123 153 181 104 198 41 99 196 216 171 160 55 150 171 108 40 179 129 122 102 42 214 53 129 188 134 142 94 138 125 105 185 141 108 118 
94 58 112 130 62 139 133 162 67 138 144 97 108 121 165 149 174 122 73 109 158 137 79 100 161 172 145 159 151 147 157 107 110 152 202 164 125 228 150 66 101 149 139 143 117 167 112 116 152 99 139 127 186 167 157 107 174 63 164 157 215 164 101 185 205 102 140 87 147 73 178 128 180 115 161 179 71 141 187 179 58 149 105 140 189 133 139 174 202 176 42 110 96 157 90 83 179 178 69 161 
138 139 111 103 129 167 167 140 128 184 190 176 184 97 175 125 132 41 166 115 111 193 165 83 145 85 156 215 155 156 114 200 123 150 149 79 89 180 99 208 146 164 140 111 147 46 98 148 115 172 79 107 190 183 176 195 151 145 102 190 155 161 119 192 172 98 177 142 105 182 197 111 150 160 106 157 135 171 122 190 192 139 134 151 123 112 174 94 219 141 169 159 148 127 208 174 132 185 190 85 
162 128 196 133 198 135 179 163 133 99 147 174 157 197 142 130 164 86 149 234 198 155 76 124 63 100 109 120 118 160 140 101 52 220 71 228 73 55 87 89 148 40 185 73 166 148 167 102 106 136 229 119 132 215 86 63 180 124 180 203 233 94 141 154 125 159 139 137 185 87 166 213 114 81 171 107 209 91 138 186 46 146 24 149 83 203 144 175 153 189 119 176 146 121 159 131 110 134 161 159 
114 170 121 195 181 73 100 90 113 116 202 172 192 168 36 73 188 136 98 78 181 73 53 127 125 105 202 189 155 99 155 155 186 167 136 136 75 111 50 73 38 121 145 146 110 115 89 156 103 185 138 136 170 119 177 169 152 228 177 135 123 183 188 155 183 202 73 138 123 121 129 83 165 169 90 209 186 112 116 161 123 88 88 92 185 73 116 156 135 112 131 144 186 144 212 133 162 102 202 153 
178 187 173 143 149 170 110 155 131 172 105 189 146 100 129 169 197 87 167 128 193 214 139 192 117 128 174 51 147 197 163 153 164 137 65 130 115 202 154 126 123 142 164 108 180 94 120 159 145 131 199 193 133 175 226 107 105 72 118 148 162 143 218 193 149 133 195 99 181 130 171 139 178 117 146 160 68 118 128 117 148 174 103 124 133 156 151 109 114 185 168 108 171 173 104 168 145 142 171 180 
221 175 191 158 153 159 90 76 159 106 106 199 156 93 122 175 112 161 148 88 175 137 166 178 220 172 88 199 112 79 145 88 95 179 155 177 100 14 148 163 69 114 128 181 116 51 139 155 125 170 177 116 86 96 179 149 205 71 84 140 111 142 173 99 191 169 90 97 129 183 173 142 154 151 180 171 154 121 125 102 28 174 178 149 184 120 192 99 157 159 200 157 165 153 175 127 119 133 35 158 
167 149 107 156 167 155 161 132 167 177 145 133 168 215 210 117 186 177 172 218 145 145 128 141 114 147 191 126 90 176 162 122 144 145 153 136 154 167 135 158 183 179 171 142 161 125 123 168 82 116 86 97 122 48 195 160 198 87 150 151 53 170 62 81 116 105 210 109 139 197 149 59 174 168 172 157 161 100 105 72 191 97 132 156 175 129 167 79 120 151 146 139 187 135 166 66 184 164 203 190 
142 83 151 108 184 124 173 147 142 131 180 191 139 136 209 169 65 112 76 98 80 179 171 191 148 125 103 101 116 166 95 140 204 152 127 182 140 140 124 129 155 127 100 127 102 159 126 103 188 179 186 133 187 89 176 149 174 165 202 200 90 95 51 108 96 107 204 140 152 138 128 111 166 125 113 102 84 207 75 193 105 118 130 134 102 200 135 116 89 104 84 81 166 105 69 139 98 126 167 72 
146 222 140 156 61 116 186 152 107 87 150 160 197 27 127 77 129 164 146 164 195 182 152 125 174 187 163 142 161 122 82 115 162 94 142 151 166 154 200 127 123 156 153 75 181 169 146 128 89 165 59 187 204 188 187 188 132 188 169 149 204 65 100 157 152 145 186 103 194 152 123 77 123 166 149 190 148 169 89 146 158 111 121 103 162 201 147 172 193 84 122 158 152 97 219 91 130 150 122 76 
140 130 73 198 169 138 165 115 149 172 40 78 158 103 43 143 192 119 146 162 189 147 58 98 87 174 145 148 163 86 167 130 86 170 133 143 115 171 140 175 123 117 151 169 170 170 93 118 202 44 199 120 194 164 172 77 97 141 129 85 139 221 183 64 175 129 143 185 200 157 122 79 103 223 63 208 143 157 88 135 88 157 121 113 160 150 82 132 91 123 144 116 127 88 196 132 165 168 153 103 
115 127 148 241 149 130 106 171 126 138 142 158 144 113 135 143 127 156 123 174 96 178 112 166 144 94 149 143 157 136 114 212 83 128 173 102 94 165 162 191 174 154 148 136 122 144 223 135 53 146 91 132 133 63 199 157 182 158 162 136 147 132 141 129 137 156 141 107 94 101 133 130 168 140 167 112 101 106 130 148 140 206 156 152 165 114 48 122 160 140 83 194 161 156 147 101 47 185 140 166 
127 99 119 150 196 121 153 210 112 140 138 162 167 140 100 122 124 142 92 91 147 225 75 132 137 167 86 182 131 126 170 92 151 128 147 105 154 158 114 191 103 106 189 135 134 133 172 124 152 169 111 198 224 189 141 229 118 116 95 53 193 207 63 163 150 138 140 132 197 191 207 198 202 68 83 33 223 200 111 178 128 146 111 156 54 173 179 156 140 92 70 118 144 188 144 91 154 92 181 71 
125 159 131 104 168 115 110 89 128 142 119 109 163 183 122 168 116 156 107 159 166 185 86 96 122 151 180 212 131 97 188 72 192 106 153 61 193 163 112 99 125 82 86 69 140 144 140 204 112 170 57 130 157 139 163 184 152 154 180 135 102 179 121 189 189 88 169 187 167 89 108 88 58 179 187 104 184 202 119 196 122 193 206 137 132 56 143 81 158 128 204 103 152 116 125 171 139 184 192 171 
144 130 144 165 174 98 177 146 108 196 117 170 160 111 189 141 195 116 143 94 96 158 177 47 181 90 100 202 214 168 101 154 125 173 64 124 149 201 99 81 146 93 131 121 158 98 137 169 144 142 119 182 195 182 143 204 189 109 196 187 95 148 123 114 108 102 85 154 149 172 186 193 168 125 44 168 135 89 157 102 161 106 120 138 137 156 63 118 167 114 115 134 46 148 189 52 77 142 170 120 
176 146 152 154 115 105 177 179 177 139 170 159 111 190 187 45 80 138 106 145 124 56 156 135 148 120 33 195 156 141 159 78 141 82 104 183 91 191 206 137 143 142 148 122 144 143 107 161 106 168 225 163 63 179 148 150 132 118 123 122 198 165 152 197 96 145 138 163 139 136 126 93 95 122 195 179 120 146 144 150 90 164 144 83 171 144 139 58 174 166 150 126 133 152 131 124 108 87 87 157 
187 186 199 114 84 116 172 136 137 138 136 141 163 125 161 154 97 118 157 153 171 128 136 55 127 203 119 153 185 137 160 154 180 140 135 114 208 200 97 178 164 111 8 138 133 161 154 198 120 91 90 150 126 133 118 28 121 173 148 158 146 163 175 84 138 194 111 115 151 138 94 105 181 180 199 182 80 142 176 147 122 155 174 83 137 222 158 135 192 102 145 127 147 164 141 117 207 179 154 188 
162 144 140 36 124 141 42 195 178 63 144 167 62 140 99 192 153 111 171 104 81 118 189 176 194 160 181 200 122 145 147 107 118 135 202 56 130 135 127 195 53 207 187 159 142 189 204 125 199 169 182 99 157 197 157 170 156 163 144 101 158 178 29 122 181 119 77 179 128 128 134 195 117 164 198 152 197 89 173 163 105 158 96 170 168 131 63 99 184 175 234 179 187 183 143 154 227 99 222 218 
138 151 120 130 158 174 177 110 149 72 130 105 185 184 31 62 61 181 117 64 144 97 140 139 152 122 54 120 162 227 202 172 140 131 84 155 69 188 195 105 143 181 173 152 138 157 155 120 172 178 66 117 134 115 157 151 130 126 169 122 156 183 108 186 137 164 170 139 138 130 148 135 127 177 151 237 190 67 165 173 128 74 159 136 139 175 132 139 177 187 112 109 107 139 100 171 115 78 133 159 
106 185 205 153 200 104 236 160 131 141 164 186 71 157 155 173 122 115 129 177 130 153 193 37 121 146 161 141 231 109 155 87 91 58 89 173 152 89 173 93 105 158 147 148 150 140 131 169 96 133 146 159 194 126 170 139 123 156 189 168 138 155 209 146 171 193 101 60 196 186 125 213 196 36 191 170 166 117 125 172 225 130 180 185 156 106 86 155 193 138 145 139 126 148 114 150 56 75 207 203 
135 149 188 102 158 110 98 117 86 143 99 93 116 127 182 122 156 108 141 96 167 173 173 134 93 145 231 93 201 152 123 74 136 131 148 178 179 188 150 135 181 148 197 174 180 136 93 80 170 129 118 131 95 57 190 168 151 158 146 143 155 185 88 183 98 178 134 162 175 164 206 59 138 107 152 159 183 187 174 114 155 171 147 153 180 128 152 108 188 135 103 140 188 214 48 142 25 93 204 141 
140 65 84 159 83 97 137 148 88 150 179 132 179 213 172 120 148 164 117 155 139 158 107 165 96 101 164 109 137 98 146 91 140 167 230 240 144 92 131 166 157 136 191 106 32 184 157 138 170 77 175 103 127 142 104 182 169 142 143 123 74 127 98 219 170 189 191 185 73 185 187 191 191 145 148 109 101 100 174 109 104 32 181 166 137 157 192 188 158 180 82 131 164 168 112 205 104 177 153 215 
178 110 96 171 112 100 178 114 120 164 145 99 160 168 218 170 87 158 174 139 127 205 115 147 144 138 226 190 153 90 134 166 140 200 176 142 130 127 165 126 151 199 121 125 57 82 95 169 104 126 98 194 115 128 187 132 172 151 203 154 113 208 78 113 135 161 156 80 159 124 90 115 144 87 198 150 121 187 153 95 166 135 125 89 43 154 111 66 182 172 141 146 186 147 174 157 177 114 140 118 
117 151 168 91 214 117 148 122 134 142 87 202 61 129 196 168 102 53 117 134 105 152 177 95 115 63 46 88 178 199 84 152 151 135 132 31 187 127 109 122 53 121 166 141 195 118 160 107 113 192 108 194 182 178 149 182 128 162 130 85 151 140 171 183 131 34 78 142 102 92 67 131 32 207 147 170 176 61 147 118 127 137 65 169 169 148 107 160 181 125 154 138 150 145 70 163 161 136 142 127 
108 148 183 70 135 221 156 134 206 200 101 165 173 113 214 52 101 202 161 69 161 59 164 169 161 224 143 162 59 149 208 146 213 142 140 120 57 116 140 107 215 107 200 140 160 87 167 121 175 170 206 229 89 172 147 137 182 139 175 151 61 104 193 110 129 119 200 114 112 84 189 177 76 169 179 95 126 126 224 150 109 112 110 143 189 167 148 126 133 105 173 189 219 194 140 153 118 174 110 163 
126 32 193 158 175 166 153 155 141 219 140 168 139 49 182 55 156 95 139 119 114 161 195 159 203 197 136 135 197 152 75 140 115 184 169 158 155 181 123 192 159 135 75 107 205 187 142 149 177 131 88 225 213 138 167 145 127 153 114 125 151 60 138 135 191 197 159 208 133 153 140 147 163 165 109 135 173 157 103 148 211 84 204 78 172 138 189 69 105 180 122 198 230 168 148 52 198 168 65 166 
137 143 107 92 77 165 150 112 180 80 114 70 191 159 210 149 184 193 171 128 161 172 168 102 175 166 153 161 68 182 192 99 146 92 97 146 156 220 175 180 190 70 183 80 152 74 180 132 150 121 58 165 118 88 168 115 150 104 36 80 140 82 108 121 148 208 166 180 158 185 162 147 155 153 196 155 163 174 146 137 209 145 119 107 137 170 139 165 148 162 107 57 163 74 152 143 86 195 205 150 
203 156 51 148 173 149 206 144 156 151 102 143 126 151 152 172 149 154 180 106 104 150 111 116 188 146 217 148 143 154 132 116 198 160 150 178 132 130 89 170 88 155 126 178 212 197 108 118 84 96 164 139 104 115 170 163 151 147 142 185 194 230 35 131 129 135 154 78 77 178 73 174 216 173 151 39 101 82 173 97 93 141 73 114 90 133 32 147 128 134 167 163 159 161 113 193 140 176 120 125 
145 194 158 146 134 90 133 113 164 139 91 170 109 207 125 97 173 116 86 48 102 127 180 156 64 198 132 195 147 205 121 117 184 109 184 200 178 143 115 143 172 62 165 91 205 157 34 203 128 75 40 138 122 124 57 175 191 169 129 68 162 196 184 83 68 135 175 110 83 155 81 139 159 132 72 154 207 197 167 127 175 166 139 98 123 220 131 165 144 177 165 120 140 141 123 167 86 200 188 135 
158 127 149 130 108 105 157 155 99 80 131 146 162 138 122 118 144 187 120 62 179 116 71 182 157 163 221 136 199 134 121 151 93 218 201 75 114 142 160 131 181 138 102 221 182 160 216 116 86 52 104 146 110 63 41 150 107 171 163 152 160 166 91 123 178 181 164 66 102 136 149 196 81 178 223 186 83 191 191 113 105 57 143 121 193 197 116 141 165 148 133 104 190 153 59 81 168 149 135 126 
188 141 159 110 107 167 214 160 209 167 53 146 133 146 81 188 170 139 80 165 112 106 202 156 88 86 120 166 224 79 146 139 173 152 164 170 163 168 126 67 53 167 153 102 151 160 77 138 123 93 209 153 154 136 178 177 143 175 52 134 113 138 105 167 131 229 113 133 148 190 166 52 150 111 126 150 184 149 106 154 166 115 203 137 159 131 186 108 111 154 170 108 132 45 85 138 157 176 157 124 
105 142 118 130 199 196 72 75 144 198 161 127 127 123 64 219 123 133 76 49 123 154 157 157 64 140 118 135 123 148 207 158 171 148 200 94 134 149 136 144 157 180 174 123 166 127 124 205 175 155 211 188 193 154 116 80 113 183 107 177 147 43 111 127 122 220 56 157 124 139 29 121 181 148 138 159 87 201 80 136 153 97 130 72 150 175 162 149 188 150 127 86 140 153 108 161 204 176 193 154 
116 147 205 165 135 156 54 168 141 92 159 168 223 179 149 138 178 117 175 183 115 155 208 115 149 159 123 120 207 155 47 187 173 186 186 172 181 189 90 96 178 136 147 135 195 140 167 140 136 27 203 158 127 165 151 166 91 148 137 161 115 179 152 171 115 84 168 153 144 100 188 133 214 121 156 124 145 136 234 100 135 111 148 143 163 177 168 148 168 204 176 83 146 54 201 152 75 143 203 176 
168 155 129 176 167 210 140 95 149 151 77 59 132 91 106 151 186 152 68 142 81 150 167 190 177 123 170 130 166 146 160 142 135 152 159 21 205 89 99 159 112 155 153 74 196 104 120 119 162 151 88 167 108 200 172 182 167 138 38 212 120 65 150 209 180 80 111 150 165 155 168 196 203 123 114 189 152 170 140 153 200 144 162 148 78 153 94 115 156 146 147 127 35 46 166 114 202 150 145 139 
189 209 169 188 141 82 168 96 68 222 119 173 123 95 75 127 93 138 134 136 100 154 188 134 86 73 132 178 138 166 89 123 223 178 126 204 134 220 187 150 95 152 137 145 109 149 207 120 130 106 122 144 110 162 142 151 132 167 65 143 200 100 151 199 146 89 138 129 112 147 176 125 95 121 146 129 169 199 148 149 177 174 53 166 158 184 118 124 129 157 129 148 180 120 204 147 77 101 132 147 
128 158 138 139 198 78 160 137 157 60 141 117 118 207 144 205 169 196 153 160 160 133 45 188 155 195 127 234 195 162 86 139 137 51 90 169 173 209 197 174 136 198 133 211 168 135 198 129 183 165 162 156 145 158 139 137 36 147 115 127 90 127 144 150 194 123 184 149 97 132 149 157 145 197 209 177 82 137 88 115 77 154 84 201 121 100 172 215 91 120 70 206 171 145 171 148 164 121 172 164 
93 177 105 197 191 160 115 96 129 88 121 43 74 150 153 151 154 80 182 147 128 126 157 86 167 177 201 110 127 145 77 178 146 128 173 208 146 161 120 182 111 164 141 78 120 208 142 92 180 185 177 112 132 115 123 195 136 78 92 158 146 129 187 149 123 166 93 115 153 33 177 140 162 134 162 119 122 158 135 139 162 158 177 152 146 156 99 160 125 203 65 146 122 61 145 239 181 121 178 213 
47 150 182 196 149 78 82 131 75 191 151 117 158 80 142 147 115 211 37 170 92 143 97 161 153 95 154 157 92 210 160 84 170 142 152 104 117 179 98 152 198 65 176 103 168 159 164 61 120 175 132 139 173 137 180 169 124 92 178 72 64 53 94 131 84 150 156 199 141 58 186 175 192 185 34 136 156 114 130 166 144 129 141 177 96 147 99 208 161 175 211 57 94 113 121 152 104 163 212 146 
137 103 86 134 162 116 147 133 205 116 170 143 138 102 92 109 176 103 128 109 173 110 153 100 204 111 189 88 146 159 147 156 61 122 182 151 167 128 172 32 139 148 199 139 113 110 58 86 40 132 152 150 101 100 171 78 169 71 126 148 137 109 191 71 201 120 147 130 137 189 192 148 150 151 55 159 172 178 184 178 197 149 142 202 112 185 192 181 79 159 42 177 212 164 103 67 183 94 205 120 
190 84 133 123 102 106 202 123 174 182 153 199 173 89 152 139 132 149 84 138 156 145 145 204 78 154 109 153 127 132 97 118 148 162 158 124 146 205 172 124 168 182 181 47 171 174 148 50 103 92 192 126 146 130 167 126 174 116 148 194 148 112 122 172 163 86 57 120 50 157 184 150 172 39 132 60 104 133 144 140 144 160 161 17 145 165 175 177 89 173 130 148 77 74 82 169 201 193 133 116 
181 142 171 135 147 149 186 147 169 127 143 85 154 124 145 163 198 157 160 89 106 163 121 192 119 79 175 100 119 117 170 167 34 104 150 160 92 187 155 134 154 115 130 49 138 145 138 155 162 174 115 177 169 129 141 201 131 210 170 156 119 141 171 118 124 182 146 195 171 155 163 166 112 121 100 58 67 37 89 156 141 154 145 160 145 162 122 204 46 78 141 151 144 90 192 120 127 149 141 42 
219 93 28 197 145 180 91 69 160 107 153 190 154 92 185 141 146 64 204 196 102 194 175 146 69 141 140 140 84 171 167 107 162 171 195 192 159 136 148 112 181 204 181 189 127 133 86 133 169 128 112 140 182 159 173 179 121 164 155 136 178 179 153 178 154 156 129 158 185 176 171 207 124 163 176 183 216 165 154 91 220 66 181 123 195 75 156 120 193 114 128 115 142 147 175 112 125 173 174 153 
211 141 145 181 122 184 217 139 125 114 133 132 159 158 129 117 162 137 154 154 123 215 215 112 228 16 147 173 65 121 63 163 134 134 147 125 189 75 172 160 143 173 89 185 128 134 22 100 149 161 185 152 68 47 52 93 61 142 116 119 139 137 173 202 200 129 162 119 134 129 169 199 134 127 217 99 111 167 172 74 96 132 200 148 148 158 172 143 106 135 163 166 180 141 165 125 135 78 155 133 
125 116 113 195 137 160 81 127 202 73 111 72 57 60 189 119 185 61 157 81 157 141 202 113 194 78 139 90 159 172 82 175 172 182 111 204 183 73 178 188 6 144 180 162 123 170 108 129 177 167 177 119 153 191 147 145 135 184 67 120 170 152 152 217 144 145 152 132 190 41 101 172 90 154 108 123 131 197 104 167 106 82 211 151 200 168 170 139 174 180 131 173 112 208 192 71 165 165 210 90 
170 113 149 110 147 129 84 105 154 135 130 141 157 182 220 173 161 206 181 85 188 167 140 142 99 87 134 114 143 182 173 164 169 105 177 136 156 176 78 174 137 159 100 89 165 150 121 186 185 174 120 154 79 151 120 116 195 118 128 99 95 150 146 158 181 71 86 186 146 146 127 150 127 171 141 151 134 79 157 185 173 64 135 78 132 186 195 203 212 110 204 123 165 77 190 124 176 142 134 157 
211 112 135 155 155 89 180 173 198 152 150 120 159 96 185 168 146 137 97 93 151 67 145 164 190 106 129 192 177 145 96 89 137 106 218 216 178 146 159 192 81 111 177 149 201 168 96 145 73 74 144 132 101 119 137 128 85 71 191 145 150 99 126 229 152 120 160 87 119 140 59 147 137 145 88 31 176 141 182 158 162 138 173 76 173 235 161 31 173 84 67 141 207 116 148 25 188 112 38 134 
150 93 94 194 187 124 107 99 128 179 180 221 101 134 97 193 130 106 206 127 121 106 101 147 124 147 133 99 116 176 129 114 141 149 138 181 135 119 168 89 138 148 158 37 172 173 165 83 222 21 143 77 179 230 128 144 104 146 179 124 101 173 163 147 150 190 136 219 112 155 154 222 110 134 140 197 187 134 105 154 196 187 141 128 57 184 175 195 162 134 32 82 138 163 177 164 118 102 183 167 
174 176 122 180 176 161 139 194 209 69 182 143 194 188 161 141 210 95 166 202 69 132 199 127 84 142 180 162 67 93 199 140 128 168 130 167 109 151 136 160 57 122 128 166 159 102 180 152 136 200 99 186 45 122 111 185 159 168 167 115 137 168 146 181 118 119 121 117 168 174 171 162 145 199 152 180 117 120 60 144 111 200 126 83 104 155 160 147 52 118 126 155 221 204 120 224 120 136 189 208 
63 209 68 133 143 176 204 121 202 179 98 161 186 104 106 167 204 155 135 93 174 89 164 206 126 111 135 173 141 153 178 99 153 182 138 139 122 131 151 186 126 71 199 165 157 67 120 130 94 142 126 142 87 208 154 149 126 195 165 183 127 198 100 111 179 105 177 208 152 167 149 70 153 132 114 132 162 155 171 159 217 239 128 151 171 145 152 198 132 163 224 129 186 204 112 135 112 133 162 181 
116 134 149 180 151 126 149 115 175 137 166 95 97 99 77 162 220 146 130 209 176 163 150 127 99 68 168 180 154 199 132 116 172 85 81 104 76 171 161 140 88 129 153 124 190 74 214 160 205 21 130 120 138 105 50 181 163 190 178 185 193 207 101 111 171 168 93 62 159 166 64 158 137 186 136 170 206 146 209 143 174 199 94 207 106 110 129 202 151 163 208 145 184 30 131 147 77 148 153 161 
216 83 125 145 139 155 104 62 155 195 88 151 156 145 112 177 61 91 207 121 121 209 157 55 165 148 126 155 132 217 215 157 68 162 106 82 137 123 149 56 78 170 122 176 195 96 165 189 180 86 133 138 130 115 131 165 130 184 156 74 137 131 80 112 95 78 51 182 171 178 150 182 60 122 82 97 118 86 192 71 187 221 119 149 149 129 216 85 148 210 111 88 176 135 188 162 161 108 98 157 
120 120 128 122 196 175 169 131 96 60 199 186 219 128 85 132 163 158 189 149 146 54 126 175 185 163 47 123 163 199 119 177 142 180 180 87 41 158 116 204 203 170 91 64 173 217 150 183 146 109 125 174 131 159 159 240 94 168 52 144 72 221 165 138 206 125 221 131 155 174 144 173 170 115 144 168 217 180 169 156 136 182 171 154 129 78 173 71 67 147 147 194 56 195 144 154 187 152 172 165 
135 136 168 124 150 195 173 93 133 121 165 141 192 118 152 100 195 115 179 159 167 181 164 74 159 151 183 231 219 165 179 184 110 155 194 109 208 206 152 191 171 185 188 176 182 179 122 204 166 205 70 140 133 195 224 148 176 117 150 166 203 128 150 193 166 182 111 177 154 94 151 229 118 196 163 195 86 170 147 97 165 178 173 162 81 201 141 74 25 116 200 106 227 117 136 189 135 135 80 153 
178 216 224 141 118 144 173 102 71 156 209 107 127 159 141 151 130 212 100 144 116 178 78 210 34 64 95 139 98 183 117 133 138 143 141 140 78 108 141 142 236 225 105 126 180 154 140 146 71 91 157 67 152 178 88 124 171 161 167 122 204 37 89 62 179 26 131 117 181 139 152 102 123 136 144 95 207 129 140 134 98 158 124 111 143 121 197 167 145 158 107 159 75 238 167 108 146 163 177 155 
170 150 185 104 50 143 163 162 152 121 173 165 211 92 67 91 134 149 65 164 94 165 131 225 128 141 163 186 155 180 166 149 135 122 85 166 41 129 126 173 163 133 196 100 147 111 151 184 156 47 117 121 170 116 107 145 152 209 187 184 207 156 159 158 165 152 101 181 174 146 143 141 147 193 87 113 84 107 89 173 228 186 119 146 164 198 144 187 193 147 75 186 154 114 169 67 176 146 142 89 
150 150 159 94 154 170 192 157 125 114 126 185 143 39 145 178 193 202 99 115 121 198 208 87 142 194 96 106 72 182 166 117 167 149 112 241 132 157 164 132 172 217 104 108 173 48 136 204 135 92 188 215 160 167 110 185 168 135 113 110 143 185 165 160 185 200 67 166 60 144 204 140 122 105 132 132 135 123 97 171 122 165 182 105 131 158 207 153 178 160 56 197 211 137 194 47 124 183 99 149 
146 138 154 77 173 126 173 99 206 31 67 129 166 171 144 144 86 156 183 143 181 157 209 144 23 157 170 163 109 103 93 107 135 125 130 101 103 156 168 144 134 154 81 128 87 130 158 201 205 144 148 177 66 123 125 123 144 134 161 108 87 146 168 127 177 129 60 89 150 168 122 180 191 179 121 185 144 4 156 157 134 182 162 66 143 175 145 55 140 110 101 145 171 131 143 149 208 101 167 149 
129 199 108 104 172 70 213 202 160 85 169 83 141 87 114 49 122 25 104 169 161 135 131 126 169 34 109 123 132 61 153 149 171 159 104 85 101 189 88 127 102 148 123 154 186 150 176 82 194 197 145 135 170 212 81 172 123 175 112 164 167 135 161 179 127 129 160 156 186 119 183 194 133 160 142 129 109 150 78 216 182 116 176 154 101 11 146 137 193 148 144 90 95 156 114 175 206 73 80 111 
76 162 77 144 137 111 171 58 166 190 150 103 91 85 72 155 161 128 133 159 88 123 118 105 123 127 152 202 141 140 86 80 91 214 183 85 157 146 123 162 57 122 166 103 74 119 177 150 161 157 150 200 154 203 154 163 170 93 107 196 154 158 143 136 74 183 126 119 123 115 139 207 168 84 77 103 181 177 49 144 158 159 145 83 126 162 121 127 165 96 173 209 86 104 48 187 115 102 186 105 
129 175 150 174 174 100 125 114 154 166 153 144 166 181 156 101 204 173 27 165 84 185 99 186 153 126 160 108 69 180 138 151 148 117 140 123 163 110 83 143 131 137 121 88 148 146 225 88 212 106 135 161 171 103 124 123 170 103 128 57 174 194 206 161 158 113 198 118 193 113 76 196 138 192 83 149 166 140 173 157 79 133 156 77 136 197 130 187 79 140 213 126 149 83 150 109 111 110 191 194 
168 151 195 211 179 138 153 86 121 136 125 195 100 128 80 115 167 130 173 117 168 93 98 180 154 120 155 92 119 106 161 129 141 116 179 158 149 153 141 93 151 179 142 163 168 145 130 138 83 150 181 151 82 136 140 150 144 191 120 111 103 153 163 231 171 165 125 127 208 100 151 182 129 175 149 116 119 139 152 124 67 167 191 72 134 136 161 106 161 163 164 140 161 175 157 36 66 209 54 147 
101 100 78 136 167 196 120 85 170 187 131 180 80 154 102 178 120 145 149 121 159 103 145 209 89 97 116 134 171 128 141 104 169 185 123 165 170 139 111 160 123 163 178 169 176 171 166 118 94 143 92 155 122 117 114 76 175 149 100 108 138 24 177 55 86 180 150 167 126 89 130 131 121 149 118 121 71 158 147 169 38 166 133 98 152 153 169 159 159 205 97 174 136 142 194 118 45 183 45 136 
165 139 127 93 178 109 126 137 56 202 139 112 92 138 127 217 114 115 161 167 124 122 120 157 184 136 212 191 174 184 220 165 200 118 95 144 189 118 99 170 84 115 139 130 189 102 67 168 138 172 167 141 188 175 196 203 100 207 139 119 163 78 219 78 159 101 132 166 174 118 194 153 145 47 124 140 80 179 147 172 194 158 185 95 141 87 197 156 114 127 109 106 116 185 154 125 166 180 203 126 
112 105 119 124 146 171 197 140 207 94 201 89 117 107 114 162 169 196 197 86 223 173 97 168 189 146 122 147 145 148 58 172 149 147 165 143 162 139 131 98 204 107 120 192 66 172 144 154 190 112 162 83 112 155 136 101 106 77 133 157 192 159 127 130 213 149 219 59 152 118 115 202 84 179 94 83 126 117 142 142 192 102 115 172 183 185 76 118 166 138 123 151 145 205 157 165 138 157 39 127 
132 184 140 150 166 190 143 219 140 129 210 147 79 190 85 121 92 120 148 105 190 161 115 159 171 57 138 145 174 122 147 31 133 131 106 85 151 125 97 153 60 195 148 161 64 105 130 137 183 119 161 147 138 172 135 156 147 157 164 113 100 151 138 120 182 169 150 167 165 180 157 112 132 76 93 149 155 77 220 136 186 141 31 83 113 153 191 95 106 139 101 137 191 145 81 117 105 166 75 90 
102 76 98 187 183 125 127 128 65 91 55 169 135 160 173 119 191 166 166 137 89 189 154 159 138 88 148 183 125 13 182 132 159 97 70 191 163 159 190 183 164 114 176 170 117 155 129 114 115 205 101 145 183 145 139 201 127 130 129 182 153 154 203 135 181 145 119 158 143 150 102 145 148 54 180 83 178 189 148 147 174 171 125 49 166 84 125 148 127 128 135 137 154 134 163 183 200 140 136 117 
152 145 134 143 173 67 187 176 171 226 136 103 137 191 177 185 154 85 159 147 192 90 139 129 141 165 201 162 117 147 157 115 115 124 98 238 165 99 233 152 156 127 149 244 16 124 150 150 105 89 145 94 163 88 112 131 146 153 106 157 51 198 124 191 158 149 36 138 112 158 77 196 204 93 109 201 189 122 69 149 166 177 221 150 174 32 95 168 145 119 177 133 145 150 117 146 149 47 120 103 
58 159 151 126 201 156 124 148 222 126 179 150 85 116 120 157 98 127 141 163 146 134 64 206 148 128 69 152 163 144 144 84 186 161 138 128 185 183 181 136 68 113 142 93 169 204 104 152 144 117 155 170 119 149 130 163 132 185 230 114 197 127 83 158 109 173 111 179 133 165 190 214 187 151 212 208 113 150 177 145 89 111 152 116 94 166 205 156 129 192 133 183 87 51 192 139 138 147 92 196 
109 158 152 100 188 156 122 189 133 145 124 153 114 197 164 172 92 140 141 183 115 155 120 215 138 145 92 108 186 192 143 125 150 104 120 34 95 46 200 107 177 166 128 166 176 164 36 180 166 179 200 96 171 164 110 161 191 167 165 101 102 185 178 172 91 145 122 175 138 134 140 87 142 161 180 182 70 151 152 155 101 133 121 157 107 156 172 114 165 189 130 127 147 84 103 144 134 138 111 76 
146 108 148 168 175 72 136 147 85 140 66 171 147 151 128 98 112 152 166 59 180 168 98 88 98 128 116 134 140 217 114 149 127 67 155 161 59 195 208 122 142 175 78 161 101 96 184 134 155 231 62 166 182 95 147 118 113 228 144 165 139 43 163 127 48 81 170 115 104 112 139 103 191 135 106 157 147 118 105 36 150 80 154 119 146 185 235 165 141 211 157 165 155 175 163 152 160 141 152 194 
118 203 192 136 88 110 169 95 152 87 146 159 136 160 162 153 88 177 75 142 132 160 68 141 175 60 178 199 56 76 184 127 212 148 143 127 90 149 162 123 165 163 131 148 201 175 165 180 142 157 184 181 156 159 170 156 139 95 229 90 217 145 172 111 192 174 144 165 118 154 132 190 93 54 108 125 111 131 172 129 64 176 179 46 156 150 207 89 81 191 216 110 197 132 116 107 170 180 162 163 
183 89 69 74 177 88 180 147 175 157 166 174 97 198 170 120 66 214 183 88 118 157 106 136 177 187 116 127 129 167 224 125 137 119 157 194 15 201 165 137 143 129 137 88 168 126 74 137 106 66 162 97 196 197 195 140 164 195 193 78 159 116 150 113 85 169 135 186 153 119 182 117 148 142 168 71 142 120 75 144 143 160 183 155 92 159 162 142 173 168 164 164 97 170 181 195 134 99 84 144 
162 161 109 91 167 99 147 144 129 163 74 118 99 133 41 138 169 82 115 127 148 77 170 150 132 157 133 74 167 129 95 192 150 170 226 139 134 158 153 132 196 66 194 163 203 144 174 188 173 67 174 184 187 186 97 205 139 163 211 142 175 137 220 141 179 155 170 169 58 163 139 138 157 199 146 128 134 152 128 159 60 170 134 192 109 136 105 112 148 94 204 133 7 178 142 150 161 169 76 184 
145 196 79 188 130 91 115 180 133 165 25 173 142 99 162 197 105 88 162 142 151 147 127 110 168 105 120 184 125 173 106 151 166 143 188 193 162 192 143 150 150 144 187 88 162 146 132 138 127 121 197 160 152 144 196 53 146 112 166 115 148 143 79 143 125 127 86 158 96 189 153 96 155 182 168 126 117 116 103 56 198 114 92 108 166 160 101 108 163 79 133 142 131 149 166 124 159 79 146 141 
159 100 176 101 154 51 132 22 162 129 197 99 194 149 161 133 90 151 62 174 156 185 139 197 99 148 188 118 59 169 130 119 126 175 158 184 177 97 148 135 173 82 129 203 219 93 132 169 154 211 121 178 113 141 168 151 149 100 124 93 167 160 155 195 138 233 154 158 91 198 155 131 156 151 150 186 148 121 166 168 95 118 203 177 171 150 165 158 176 71 100 197 65 82 120 123 95 117 181 165 
109 152 53 117 117 165 144 172 149 158 136 168 126 150 96 138 215 136 131 100 136 131 186 216 159 138 168 74 149 194 123 157 97 120 109 188 53 185 70 181 175 148 162 202 149 89 145 135 144 130 192 168 140 138 80 80 107 184 56 85 120 145 83 157 130 149 138 176 200 119 132 172 87 105 117 144 134 61 51 124 224 155 197 190 198 206 158 175 139 153 142 105 105 187 210 105 76 141 189 146 
78 120 111 147 120 49 180 141 176 179 149 166 116 224 125 144 84 121 197 154 182 130 157 130 194 145 105 177 104 137 108 176 157 126 168 121 81 112 185 112 142 132 75 183 149 54 171 126 133 94 184 151 166 174 132 167 99 226 125 95 73 157 147 136 91 143 145 59 142 159 144 72 133 136 108 121 93 109 61 161 131 156 111 124 122 92 196 197 156 198 167 152 119 130 144 134 199 149 85 132 
176 92 171 148 152 191 141 143 139 208 130 129 177 167 119 166 170 187 97 169 141 131 159 175 147 159 113 148 197 222 195 19 138 191 175 135 142 191 217 192 179 176 187 89 137 208 233 206 143 128 160 150 132 69 146 145 47 177 107 144 165 149 123 76 160 172 150 90 168 192 63 130 108 149 183 196 200 207 45 129 143 94 122 175 118 205 127 185 78 192 40 167 143 110 85 178 138 178 124 154 
152 140 146 139 105 216 134 145 101 191 66 109 147 207 155 90 115 29 182 91 187 199 92 98 212 97 92 161 222 117 98 122 146 143 150 176 152 151 85 150 131 101 174 119 157 125 166 180 154 118 164 88 128 198 210 151 143 200 97 137 132 141 76 150 155 143 59 154 91 140 125 184 171 166 214 203 149 180 157 138 142 106 117 127 110 88 174 212 140 141 126 168 140 141 110 143 217 71 95 131 
101 148 135 37 210 68 186 149 125 89 107 174 65 148 156 189 143 105 168 122 185 69 156 172 116 187 189 197 201 81 123 167 24 183 97 152 150 135 132 70 113 160 78 86 187 94 114 110 198 170 162 108 153 177 161 26 154 203 112 100 146 145 166 159 128 159 172 76 163 131 199 119 152 116 141 71 172 44 166 169 100 140 156 116 169 219 137 105 135 170 160 224 63 179 190 143 157 217 95 199 
98 119 130 57 163 95 231 138 168 206 113 73 198 170 121 112 187 188 140 101 178 149 135 174 183 143 134 190 139 164 144 106 124 186 134 63 224 158 111 198 116 143 161 190 77 80 146 211 187 213 160 166 92 142 154 143 226 148 151 126 132 72 121 76 150 146 118 113 149 117 120 137 158 72 145 101 84 201 176 88 174 97 124 176 184 132 152 229 87 85 128 158 187 90 97 151 137 186 150 158 
111 140 137 149 148 143 160 114 199 165 212 48 169 175 146 103 62 168 159 192 199 116 48 178 147 105 128 90 167 166 177 107 113 115 86 157 144 107 138 65 133 107 186 202 169 151 142 203 166 206 191 151 146 166 87 171 93 87 72 222 88 72 184 100 161 123 76 189 144 114 149 95 179 155 137 151 156 216 155 140 154 176 136 199 170 199 204 91 179 163 83 197 52 77 95 188 99 74 192 105 
161 157 160 83 163 168 120 186 122 123 179 137 80 69 138 133 152 204 131 190 101 124 144 156 153 101 179 161 179 177 198 138 171 215 189 156 226 60 156 160 81 149 31 163 115 133 92 124 64 151 64 207 153 124 106 119 142 162 177 172 96 62 158 156 203 45 24 165 127 98 170 141 55 203 156 128 137 155 142 148 156 140 44 152 198 59 203 150 138 202 177 155 111 185 139 107 129 147 222 194 
95 144 142 101 151 135 87 192 154 152 109 219 205 73 127 86 55 167 80 61 34 124 113 78 136 148 58 75 186 153 176 170 157 153 163 103 139 89 188 180 119 153 161 153 129 183 78 150 148 183 177 133 68 132 102 96 147 141 183 238 197 181 192 88 50 195 81 124 138 121 185 182 168 140 66 157 8 102 178 202 136 104 154 179 73 136 112 135 226 91 178 83 139 145 214 40 64 193 91 164 
103 121 174 196 194 196 134 85 145 139 61 191 52 155 93 141 172 139 149 156 132 141 146 122 16 171 103 123 157 114 93 187 158 106 192 157 164 60 126 119 180 75 152 104 167 133 157 135 149 189 164 112 166 134 195 170 135 145 160 77 156 116 90 161 170 113 186 63 149 93 115 116 187 153 158 102 186 105 162 125 158 135 190 167 173 120 118 236 111 142 108 174 137 196 175 79 146 84 157 118 
64 81 144 59 94 88 167 178 168 157 239 109 92 126 58 183 102 201 94 144 154 158 181 161 128 140 164 90 177 221 90 105 131 139 132 126 195 133 176 198 111 200 115 190 111 133 149 164 111 152 156 125 85 133 173 142 186 113 194 113 160 169 153 148 188 195 106 135 185 106 161 205 118 154 175 121 177 118 190 152 94 154 209 23 76 53 163 137 132 185 154 154 186 77 158 99 70 154 166 142 
183 82 95 49 47 165 215 179 169 142 178 191 84 166 190 147 135 200 85 158 144 115 53 107 171 168 148 166 98 89 96 238 141 152 118 139 158 136 176 193 187 187 159 221 153 82 171 111 105 203 228 135 123 86 137 173 106 134 77 137 159 173 176 198 142 55 167 164 93 152 180 87 78 197 123 122 111 176 146 127 122 163 58 164 190 86 171 91 52 122 204 158 197 160 171 47 50 89 149 163 
133 109 140 81 147 177 141 152 157 152 83 237 102 135 1 151 149 175 203 100 140 143 178 159 152 195 111 61 159 187 117 126 82 151 143 62 106 178 72 195 162 165 143 176 208 148 125 110 92 157 145 124 174 122 84 42 91 103 82 72 90 145 184 180 148 179 195 83 151 188 143 163 119 163 169 144 46 149 126 112 170 139 156 128 235 185 159 159 116 79 177 84 163 105 154 162 148 125 136 93 
131 177 146 156 162 186 182 158 133 149 209 59 134 97 194 175 90 101 94 170 89 147 181 107 184 184 124 190 175 157 136 155 151 187 156 146 168 139 139 124 124 176 160 137 81 198 99 157 186 96 59 66 176 156 155 104 118 152 125 197 136 123 66 106 138 167 178 125 197 178 121 172 126 89 132 139 84 110 136 130 156 128 67 203 163 34 129 200 171 154 77 124 126 169 175 93 116 190 55 216 
159 141 145 198 128 173 165 152 131 147 185 176 193 153 132 166 111 95 189 199 172 98 124 168 187 144 207 94 198 105 74 102 161 235 130 145 68 102 222 174 156 169 159 198 56 141 167 85 157 64 200 149 126 121 150 146 183 73 129 82 61 186 87 176 68 111 163 143 157 168 181 142 179 189 196 83 118 108 156 149 201 166 120 143 74 157 189 152 186 179 62 180 146 96 147 183 129 144 128 162 
213 68 99 176 103 99 224 101 152 157 125 160 149 140 138 105 188 148 207 155 123 170 193 134 155 93 93 146 146 216 159 175 189 146 170 165 143 178 142 188 116 207 215 145 157 127 186 152 175 155 142 119 129 174 132 94 163 78 151 154 186 165 47 197 121 209 73 133 204 187 142 184 117 173 24 70 120 141 108 151 81 147 237 98 161 119 128 187 221 126 89 188 104 166 83 127 74 191 151 89 
