P2
100 100
255
67 53 141 144 150 155 106 129 130 162 134 148 57 200 139 154 119 176 156 159 94 132 159 169 204 148 189 170 188 95 151 135 74 119 158 130 126 184 61 84 141 84 137 147 172 93 111 128 178 176 195 164 153 154 143 136 154 146 182 78 172 176 161 202 122 139 181 134 70 180 161 120 190 199 138 188 143 122 140 166 158 116 98 64 115 89 179 83 118 176 156 185 124 54 146 130 196 55 81 201 
99 83 117 86 178 110 78 129 180 70 158 187 214 92 47 147 175 138 123 126 143 127 143 50 133 113 103 147 87 155 184 181 147 61 106 169 110 116 153 63 35 99 165 147 199 91 43 176 163 154 209 117 183 87 28 147 139 204 80 98 23 90 15 73 127 192 129 196 116 148 150 165 157 80 155 146 147 148 162 123 198 114 229 168 166 95 193 139 164 150 136 153 226 99 147 127 144 115 200 129 
136 121 122 119 160 46 172 103 144 103 181 103 63 95 157 169 126 211 89 140 167 178 144 113 164 116 61 161 131 84 214 160 189 74 184 125 152 108 120 201 135 171 103 21 35 161 72 107 169 131 142 152 193 199 97 152 126 133 59 172 73 127 48 71 164 153 143 190 22 137 134 147 53 33 152 133 185 188 195 174 144 116 167 152 115 162 119 159 99 126 120 171 126 118 192 148 99 129 90 133 
178 148 188 185 220 114 131 169 184 128 173 92 142 183 188 54 95 173 162 65 74 148 197 153 120 144 145 167 124 171 170 138 68 179 191 179 181 160 137 116 100 99 88 94 74 122 147 102 142 164 195 209 135 109 106 209 29 146 138 172 151 196 75 146 113 116 193 124 161 168 170 131 183 103 173 133 161 129 159 112 200 114 149 178 184 185 125 111 182 148 170 157 190 144 157 191 154 100 112 227 
156 131 149 159 188 140 178 176 48 168 123 155 103 124 146 197 109 112 180 58 190 181 155 173 129 161 196 110 73 120 102 104 146 127 183 48 168 127 153 145 229 164 145 182 135 164 94 161 143 211 137 98 108 56 144 111 156 122 117 155 181 115 161 115 164 121 135 136 180 146 142 206 153 167 154 133 157 93 112 199 183 168 197 162 166 115 134 133 99 185 100 140 111 232 148 90 40 82 181 180 
70 82 108 102 95 49 184 142 209 66 184 96 154 175 139 91 52 133 192 67 144 107 105 110 176 157 55 104 63 55 40 147 178 172 203 124 176 161 134 134 175 168 160 159 130 153 151 182 118 181 126 186 134 131 160 94 151 117 166 174 196 122 155 234 86 148 124 160 198 156 129 182 179 148 175 190 141 150 145 58 139 105 196 61 184 100 230 207 120 171 145 141 147 174 135 111 45 153 138 158 
176 40 141 204 147 106 178 123 183 147 110 191 144 65 74 171 66 164 197 47 193 72 182 147 121 133 190 171 120 196 180 111 156 68 135 76 150 148 148 161 71 143 153 136 152 60 203 138 192 81 87 179 51 182 166 24 164 112 184 133 138 133 97 196 89 163 84 122 163 200 184 149 126 62 201 166 151 154 163 142 149 139 167 165 131 111 109 111 165 94 110 176 89 142 134 126 153 174 193 179 
114 173 127 190 61 122 152 136 113 122 80 154 189 161 184 98 118 57 147 187 118 105 225 86 56 133 153 175 155 100 97 170 160 180 150 128 55 40 131 176 123 209 129 96 97 129 154 91 146 105 168 156 120 183 146 48 156 152 55 122 164 50 121 133 100 170 114 191 84 151 157 143 142 106 114 146 101 106 167 158 201 79 121 197 132 157 215 110 184 169 158 180 93 145 110 161 117 100 196 170 
100 163 92 144 118 38 99 216 113 112 152 168 152 212 90 207 177 159 136 94 158 105 104 135 147 150 178 178 103 104 174 191 120 220 115 79 202 50 84 162 93 172 135 125 208 198 144 168 144 182 133 150 181 160 105 201 202 150 148 143 177 159 129 123 145 112 179 161 55 189 109 175 170 183 164 130 154 79 176 162 187 171 133 154 95 167 154 206 130 86 131 69 145 89 207 176 131 85 134 84 
102 153 165 136 83 152 92 207 201 182 188 135 171 168 34 151 95 177 169 94 144 168 96 164 144 51 57 138 101 170 131 167 165 65 141 150 25 25 220 120 96 110 146 158 102 115 147 190 83 124 162 129 143 165 179 171 61 144 155 155 95 97 144 140 190 94 115 168 163 134 104 113 172 186 141 158 152 124 133 162 80 161 88 155 163 118 94 146 128 110 149 79 146 173 204 172 148 121 143 128 
65 73 103 59 154 184 124 86 25 117 161 182 66 155 181 143 154 61 149 169 118 126 110 47 146 205 117 149 137 159 167 136 79 111 141 134 132 173 84 98 130 75 152 107 97 197 212 177 216 163 179 140 97 115 172 146 187 89 64 106 161 136 204 71 113 189 97 67 158 115 129 133 188 123 178 163 189 172 114 157 154 145 137 167 123 167 187 104 23 154 206 154 195 193 123 152 129 22 65 101 
160 45 81 160 205 138 226 122 194 158 181 86 221 122 142 117 115 172 154 131 125 231 72 225 98 82 158 164 152 112 207 174 93 153 95 90 141 163 145 147 102 107 155 190 152 161 150 150 162 142 123 153 150 179 142 155 140 211 173 129 91 138 145 176 204 93 139 128 47 131 149 126 119 168 151 196 219 174 192 168 92 104 132 113 136 186 86 175 145 77 113 170 182 169 156 128 215 106 75 186 
144 133 149 110 153 194 179 157 198 152 120 174 160 117 185 160 57 68 84 120 157 45 80 196 202 133 142 182 150 152 155 171 204 24 193 193 211 138 198 154 121 133 165 138 232 212 175 175 146 206 53 161 40 170 154 97 203 148 164 118 136 149 130 107 200 146 61 137 167 162 115 160 94 55 146 124 143 135 40 66 181 120 129 156 124 161 154 172 145 147 57 197 92 56 75 149 115 184 206 109 
120 178 207 203 118 132 122 189 98 104 171 115 109 111 197 125 216 70 97 159 76 184 202 168 83 131 154 160 115 127 147 118 144 212 164 177 118 178 124 128 96 164 88 173 168 160 122 135 206 103 144 138 36 151 153 97 79 141 91 108 27 144 130 121 157 130 131 144 158 125 179 202 123 164 133 145 88 157 145 184 164 97 182 230 151 139 119 219 162 148 152 98 127 156 132 163 70 73 184 152 
159 184 100 123 192 110 115 114 153 160 137 158 170 173 28 171 214 90 117 109 117 151 137 181 117 155 170 183 157 121 151 155 107 88 106 172 208 154 143 122 137 152 153 163 89 127 99 102 151 161 150 218 164 170 176 131 136 75 103 183 119 187 212 174 168 147 127 143 175 127 142 77 145 120 74 132 147 87 204 216 54 139 142 159 98 79 108 174 149 142 181 142 80 138 76 146 183 145 171 122 
104 159 185 214 56 150 105 107 160 126 116 224 66 88 132 90 158 59 118 166 170 92 96 95 103 83 172 116 108 136 203 126 218 153 101 164 129 96 131 152 135 175 117 164 105 139 165 203 148 202 85 170 93 138 71 168 116 133 169 198 99 166 142 103 176 76 85 212 231 30 159 145 136 104 121 149 226 99 150 150 126 122 185 82 122 123 64 146 232 175 140 113 188 59 189 92 53 138 167 156 
66 179 191 168 84 164 166 115 192 193 189 205 151 158 131 175 146 118 143 167 157 130 89 102 163 95 206 147 208 118 119 41 154 47 211 140 169 92 75 31 119 124 112 63 195 44 98 121 179 180 28 224 143 137 169 148 185 88 74 173 180 182 165 147 88 143 53 155 135 173 109 139 134 212 131 142 139 61 209 159 160 169 138 157 135 120 120 122 212 121 65 151 98 182 143 205 101 130 224 151 
35 195 35 180 122 199 177 162 107 162 136 91 40 149 141 90 138 32 188 128 168 185 115 157 113 78 57 177 53 178 181 135 174 91 183 210 147 94 169 71 128 158 192 149 143 140 147 108 79 136 19 170 146 196 128 119 119 210 32 173 174 139 156 210 168 136 162 133 149 180 41 157 63 147 39 121 128 222 132 153 197 153 223 221 138 136 145 30 54 158 146 85 229 199 134 133 146 131 117 175 
181 178 135 60 122 131 153 172 196 155 126 174 170 202 37 119 98 135 125 63 50 73 130 182 166 143 73 154 193 126 150 132 158 67 105 194 154 140 138 92 86 191 133 74 113 170 136 198 148 191 162 68 145 130 106 191 117 168 134 114 28 120 97 112 163 141 179 120 159 133 209 149 158 97 120 126 135 215 202 172 184 173 35 146 122 163 152 136 189 163 136 142 183 139 139 172 65 86 175 71 
95 157 174 80 155 125 66 111 178 65 93 211 145 112 98 149 219 141 144 152 156 149 178 164 128 187 173 108 143 187 152 128 67 147 120 132 86 82 98 86 201 138 154 201 130 162 155 172 210 152 211 94 180 151 166 147 154 192 101 23 153 198 158 173 141 143 151 164 227 152 155 115 67 149 151 136 140 124 150 141 170 168 177 111 133 150 191 168 96 137 82 188 128 93 142 104 145 116 116 85 
179 144 140 142 156 182 150 83 193 161 110 44 162 151 164 130 55 119 136 166 81 181 192 139 127 176 186 148 114 121 150 90 129 165 152 154 90 154 168 147 158 86 152 187 91 115 199 168 135 101 159 114 143 193 195 180 110 179 167 145 31 34 114 177 105 210 160 144 113 135 117 165 165 95 139 197 164 100 164 153 130 141 140 116 98 132 198 159 157 171 140 145 138 152 103 112 128 148 79 138 
154 186 165 236 153 186 79 97 176 108 164 94 158 152 117 181 156 125 171 212 137 195 223 61 146 111 162 91 179 173 64 88 155 126 100 161 62 130 139 159 165 210 128 146 198 150 151 152 177 107 149 39 117 94 165 149 134 125 180 138 174 132 189 145 102 100 132 130 131 208 51 192 193 93 118 140 172 133 123 128 107 128 137 144 128 213 169 123 138 171 126 90 114 163 114 114 105 200 136 129 
166 166 166 125 166 142 160 214 156 215 190 104 132 240 99 122 187 198 183 174 144 132 94 137 167 205 169 128 27 119 157 210 202 110 103 191 159 94 190 207 129 129 121 145 125 121 127 162 117 82 140 79 172 147 123 116 178 178 107 127 179 186 67 202 209 25 140 131 43 98 146 83 135 149 80 115 106 142 135 177 160 83 60 194 83 96 165 115 166 122 184 131 217 82 219 161 86 129 59 190 
194 197 123 81 184 158 103 161 175 192 86 75 133 124 34 87 86 169 114 176 177 137 136 134 99 87 177 65 132 142 155 136 115 155 161 156 140 156 156 149 138 150 146 78 99 136 102 139 188 164 117 114 150 153 94 184 110 70 169 198 198 150 156 133 187 119 158 130 143 148 97 190 133 139 80 169 91 168 153 155 243 166 189 158 198 133 140 158 154 172 178 144 154 143 75 120 191 173 187 101 
88 145 101 162 112 77 223 191 126 120 159 218 46 126 106 109 190 194 162 169 184 182 110 138 178 110 153 105 155 158 122 197 164 177 187 171 166 166 45 174 145 167 52 94 81 52 108 87 128 83 193 148 119 157 180 94 207 108 116 200 136 165 100 174 117 145 103 172 101 66 122 175 127 237 172 142 169 160 145 141 127 192 137 236 178 88 212 103 81 148 167 179 127 64 27 67 128 161 104 86 
150 124 200 170 169 163 215 125 141 172 146 138 190 107 167 157 203 142 97 125 138 97 146 133 109 94 132 128 151 209 155 147 187 127 134 151 205 182 121 176 55 94 109 170 138 156 180 202 106 168 110 55 175 125 115 145 93 144 182 182 147 121 157 100 119 112 137 105 152 75 138 209 121 109 116 33 126 151 81 179 84 151 43 83 165 160 146 133 132 168 71 144 175 133 159 142 167 134 54 118 
157 103 183 151 136 215 164 120 113 207 129 76 116 132 124 184 73 168 118 97 120 137 159 108 151 130 155 96 133 155 159 141 165 141 198 119 104 146 158 151 162 121 160 162 113 156 149 127 193 167 136 127 158 200 77 179 185 142 145 167 96 182 125 105 151 140 168 167 180 108 151 140 129 139 87 103 66 157 111 151 122 77 143 150 147 178 203 188 53 87 130 122 168 157 138 190 149 181 112 93 
129 161 231 125 97 159 79 185 80 160 159 110 180 175 140 116 194 127 131 94 123 154 200 82 79 120 128 141 129 201 90 74 133 135 160 205 145 200 199 106 120 183 179 142 187 215 103 172 128 88 227 178 154 174 174 57 157 171 121 106 152 78 190 147 187 132 194 52 137 125 128 75 181 116 99 193 63 126 145 157 220 166 53 35 134 114 150 78 172 115 188 108 174 142 167 130 150 154 130 127 
143 140 204 176 185 215 146 107 119 146 116 106 173 167 135 171 122 169 199 157 113 139 118 91 176 68 146 203 135 164 149 191 170 193 187 182 129 105 13 177 115 154 164 86 170 98 144 116 129 128 173 116 143 174 168 104 167 138 180 119 207 146 172 177 121 163 130 187 111 152 199 180 153 177 140 74 114 93 160 185 146 119 135 134 177 171 178 100 83 170 140 170 184 176 140 77 174 126 145 158 
150 170 193 59 141 144 124 204 158 170 143 85 141 131 122 198 128 102 192 103 229 209 144 161 155 168 134 110 125 123 84 167 147 126 124 89 170 156 138 199 120 117 105 161 194 108 124 104 98 89 205 159 196 81 95 118 149 179 155 120 152 104 56 178 31 116 162 136 134 75 135 162 172 94 166 200 135 126 103 170 138 183 122 53 188 185 143 212 163 102 118 73 102 201 128 140 152 142 177 145 
91 133 72 155 149 131 200 119 84 170 186 152 32 105 174 62 116 123 104 162 145 150 171 55 170 167 165 135 102 116 67 196 80 190 201 125 181 96 143 164 114 141 15 178 113 49 152 116 99 137 148 184 219 210 144 147 196 83 96 47 124 128 165 181 186 182 100 132 54 178 57 131 184 165 201 153 154 113 147 115 56 164 137 155 138 167 110 177 142 128 78 179 180 156 51 183 134 138 130 108 
156 76 127 191 149 147 168 145 150 159 140 155 168 160 134 144 59 204 203 60 28 193 112 210 169 127 143 78 124 112 194 59 173 69 189 117 88 137 138 94 120 132 214 166 72 178 146 91 107 152 109 39 144 8 95 181 180 99 147 121 148 149 116 94 194 101 112 122 131 201 168 147 204 97 167 156 33 179 201 124 143 69 127 195 207 102 153 183 186 64 197 95 165 112 192 137 78 216 207 133 
137 178 165 148 137 110 106 69 149 124 150 121 91 164 179 163 188 170 116 162 148 193 103 179 159 158 121 195 68 197 85 176 190 166 164 95 126 63 133 142 149 229 169 109 88 158 108 56 143 185 20 150 98 100 201 149 116 156 142 99 212 230 113 95 92 175 96 77 182 122 174 133 198 212 136 210 159 175 185 220 89 21 91 188 104 120 163 151 186 144 128 198 120 177 181 130 95 128 147 186 
131 78 128 171 185 156 106 125 133 127 155 122 190 150 170 175 86 188 159 41 117 177 170 104 173 148 227 171 48 153 151 109 107 128 117 188 132 164 100 173 86 124 143 123 112 45 114 208 167 132 158 94 96 146 151 232 166 84 210 57 168 80 124 155 126 171 131 121 130 132 155 20 133 214 154 84 173 130 215 120 100 120 180 163 118 163 153 194 205 55 159 146 143 195 49 175 168 24 73 157 
130 146 174 188 149 101 161 117 166 201 133 126 157 165 94 201 162 158 182 96 185 165 75 144 143 107 162 132 150 170 141 131 120 162 133 143 171 126 47 204 143 81 143 138 138 121 159 117 195 187 97 135 98 194 100 138 130 104 132 164 234 217 141 138 163 135 152 103 101 91 112 157 132 121 81 183 209 94 137 161 174 178 142 113 113 179 62 85 186 91 162 122 155 68 149 150 159 188 194 196 
90 102 171 153 212 125 99 150 193 189 222 163 167 153 151 153 132 233 92 125 82 99 56 76 179 227 104 149 135 160 200 186 103 152 163 167 169 145 152 134 154 161 152 156 106 82 131 114 169 162 53 139 170 209 89 124 125 53 172 164 143 86 96 186 138 112 129 135 118 47 99 181 163 149 173 87 105 151 191 163 194 175 193 142 147 111 134 166 125 85 190 80 188 183 130 113 86 162 65 160 
190 145 220 146 30 150 196 169 144 101 118 167 113 131 132 173 206 41 167 213 154 157 97 91 135 189 161 207 167 106 115 176 236 147 164 138 134 189 141 222 68 166 181 178 211 122 181 171 184 52 141 69 188 189 161 183 169 107 209 118 204 148 125 66 158 133 71 64 153 170 131 133 129 118 92 170 109 188 55 144 167 87 147 150 160 147 139 135 126 167 119 82 172 197 146 220 110 87 62 151 
121 120 91 155 176 144 161 106 149 161 160 173 144 152 152 176 173 170 196 165 149 149 144 185 171 133 62 189 157 181 180 174 147 224 155 170 129 124 99 126 129 173 167 151 142 100 128 140 57 114 28 186 101 171 102 124 120 88 87 196 164 217 54 161 160 83 151 116 75 195 163 120 35 135 100 171 118 135 197 158 123 157 71 159 209 82 187 168 209 49 88 67 166 225 92 106 141 147 133 111 
103 158 155 151 185 134 162 152 186 191 125 136 209 195 150 138 189 140 122 157 159 108 133 93 107 166 134 177 159 93 167 205 164 224 130 111 140 147 151 164 163 182 149 134 84 159 177 125 136 82 84 153 179 136 156 129 170 216 113 123 184 151 119 161 184 123 42 173 150 74 105 203 156 204 195 121 176 158 64 205 180 77 132 108 118 122 170 188 144 151 148 154 104 200 173 60 162 127 194 88 
72 141 136 78 80 180 62 138 149 165 161 155 26 135 110 117 145 134 187 141 134 114 129 134 142 134 199 63 176 136 135 77 175 170 141 231 110 151 67 156 165 161 99 142 89 101 189 118 141 149 150 150 97 49 157 117 134 145 153 23 134 78 126 159 70 157 186 124 37 151 190 131 132 144 99 99 197 128 178 29 187 181 188 214 142 174 187 176 43 73 225 148 139 185 159 154 90 149 167 100 
178 158 160 197 54 101 172 145 169 174 195 177 180 99 135 156 141 161 35 99 179 111 132 165 179 168 101 100 92 188 146 187 104 148 173 76 111 119 118 93 68 143 142 189 173 148 179 183 155 150 221 88 195 23 166 161 168 114 95 141 169 120 177 138 151 144 76 133 88 149 75 169 89 213 91 135 200 125 145 160 119 111 165 92 216 171 152 41 127 176 150 138 123 132 184 159 203 162 137 208 
91 107 147 102 184 183 79 46 166 164 205 211 130 142 158 81 156 174 55 178 149 185 137 23 167 201 153 104 168 130 122 197 150 181 87 138 135 193 156 116 67 150 135 186 149 104 151 109 102 210 158 135 151 175 169 112 121 162 170 187 96 96 78 77 163 196 138 179 159 132 184 185 136 149 149 182 221 123 113 42 144 150 152 177 160 53 122 155 177 86 97 111 138 163 65 114 170 177 191 101 
167 193 109 101 132 152 136 166 231 195 93 148 175 44 152 147 151 178 113 101 208 171 37 172 190 171 134 217 130 152 179 109 222 133 106 146 127 91 153 157 161 131 122 157 89 84 150 178 114 177 163 157 146 119 113 48 142 125 97 204 158 196 149 102 171 150 200 148 187 194 139 154 186 141 115 167 98 56 98 159 62 130 172 193 108 64 81 150 124 106 163 133 144 192 131 106 208 95 82 99 
107 99 125 72 238 199 75 138 151 118 125 82 179 156 85 74 173 145 163 192 125 136 204 147 161 164 164 180 151 195 223 78 164 161 80 159 65 137 123 112 172 129 193 105 140 99 94 128 126 170 211 135 188 209 150 126 150 148 87 132 98 104 132 96 158 166 181 84 205 136 163 97 129 178 169 131 110 169 127 116 32 180 61 142 131 174 191 101 215 181 148 83 148 138 83 137 157 88 139 199 
206 179 141 137 150 92 171 103 150 116 171 189 109 195 107 187 114 171 130 137 179 124 96 149 92 128 97 148 76 119 181 135 120 198 151 149 108 100 151 175 170 167 86 148 179 155 185 139 175 129 92 206 146 181 193 111 132 158 203 46 166 47 77 107 219 162 167 141 153 155 159 105 74 160 96 184 70 113 118 126 135 142 118 155 91 132 200 159 110 110 154 175 165 163 184 108 152 189 120 71 
128 93 110 141 72 144 54 190 167 178 117 106 166 159 107 207 116 87 185 151 207 182 94 173 118 157 52 132 125 149 190 86 164 127 194 193 148 214 131 64 112 180 159 105 194 90 215 127 143 180 174 102 118 76 100 130 130 166 187 151 152 178 126 162 71 159 179 207 90 181 193 213 233 158 66 131 156 107 117 50 155 126 164 173 145 219 131 176 31 40 151 181 75 199 170 166 159 149 153 95 
116 146 122 109 106 179 166 83 165 76 183 177 73 113 136 146 118 116 203 134 147 81 179 145 191 74 170 83 165 129 179 156 188 197 161 103 197 154 131 162 157 139 70 187 171 173 161 111 127 91 184 75 132 192 195 103 203 135 91 142 175 165 124 163 108 70 128 145 112 160 120 153 151 219 100 189 65 171 150 141 34 165 141 148 216 105 157 177 161 112 133 70 57 136 73 54 151 164 157 155 
17 144 37 143 175 122 129 183 159 193 171 222 138 183 167 201 52 96 191 139 177 116 118 113 163 167 113 185 109 113 182 212 207 180 180 167 136 54 98 181 181 196 156 78 133 133 155 142 115 143 152 121 137 137 202 147 129 125 132 148 106 193 119 161 127 146 167 155 151 117 160 68 38 183 143 60 191 158 165 127 187 175 122 158 188 153 96 187 140 167 93 222 122 69 109 209 177 210 155 161 
196 108 138 159 190 42 120 30 102 166 99 164 167 128 200 162 111 154 146 66 132 134 199 119 157 176 107 173 193 182 159 122 172 144 148 74 195 154 139 135 174 175 87 168 137 192 159 117 97 50 189 178 126 110 115 154 170 139 170 82 146 121 100 136 145 206 101 166 95 197 111 100 191 121 140 195 141 171 112 185 39 141 141 154 113 156 224 195 179 193 174 158 154 138 147 119 160 153 140 222 
141 136 128 91 144 94 198 105 158 40 168 170 188 99 173 124 182 138 187 139 165 111 68 69 198 135 190 153 128 135 117 122 155 158 89 147 203 181 145 141 193 136 147 216 133 165 154 145 147 96 104 158 147 162 85 158 70 135 186 198 166 128 132 164 120 141 169 211 156 65 129 78 195 105 110 112 204 53 172 161 132 170 142 139 206 155 50 207 127 161 114 88 104 131 144 88 149 147 154 74 
96 94 135 139 154 143 124 95 87 104 163 138 102 194 141 170 190 89 183 153 78 165 164 58 180 167 133 215 32 102 85 182 104 173 161 75 147 162 171 130 169 218 174 153 216 100 201 160 109 126 157 115 89 174 123 149 71 136 147 98 127 181 93 86 104 162 168 98 138 170 162 204 150 175 96 129 181 62 139 198 82 44 194 63 150 146 142 143 114 78 127 125 168 129 169 155 189 141 183 138 
180 198 124 150 196 75 187 69 160 93 177 136 154 160 136 103 206 141 126 75 148 16 143 151 226 165 224 117 152 47 93 180 64 124 188 193 111 195 24 165 192 40 116 99 197 144 154 95 140 113 158 85 183 175 159 133 179 206 135 161 190 59 65 147 115 199 136 178 107 138 174 103 128 152 182 169 140 198 224 171 184 203 136 126 157 128 59 129 153 96 161 118 77 147 130 145 231 155 131 62 
147 24 187 176 135 197 74 177 51 172 126 162 168 190 162 60 155 186 102 155 134 145 131 151 119 58 193 133 155 97 163 195 130 154 78 194 113 111 125 136 139 204 126 91 103 179 170 115 165 146 128 149 75 94 180 124 174 99 135 128 216 224 138 132 117 186 116 97 144 167 167 70 133 143 139 175 142 56 154 135 128 121 87 219 113 105 217 150 78 127 104 151 56 167 169 135 162 35 197 147 
99 194 146 95 122 38 214 160 60 49 93 158 45 92 177 216 187 170 129 79 163 223 94 162 161 127 167 120 215 212 153 142 166 160 174 168 140 124 148 174 201 132 191 207 141 184 199 37 145 187 108 105 141 199 200 138 192 131 66 190 162 196 127 158 180 193 115 152 208 79 192 198 143 129 101 91 192 159 156 129 116 133 167 173 199 61 137 153 135 130 153 87 136 156 39 158 107 173 155 155 
91 200 159 81 127 169 239 90 115 130 169 153 192 117 167 124 175 150 125 213 152 140 161 197 111 183 141 111 40 36 170 156 178 164 51 156 106 198 213 135 153 141 194 136 72 177 160 59 122 157 66 99 116 210 33 184 153 89 74 134 132 131 108 197 155 125 96 186 160 110 163 163 140 147 149 110 156 174 193 163 169 112 110 175 176 190 163 174 182 155 146 92 165 142 181 82 204 94 168 29 
104 195 116 139 198 154 193 97 66 175 90 112 179 140 97 187 154 130 194 113 125 142 96 222 191 214 213 96 224 151 122 82 98 108 129 183 127 58 64 144 216 139 127 193 209 134 62 69 106 185 126 151 161 123 187 122 157 113 182 203 146 172 88 178 97 71 136 199 83 148 169 55 178 134 186 150 156 97 168 133 143 135 168 134 193 149 174 183 196 63 138 227 136 144 77 99 157 146 148 133 
152 136 155 148 118 170 183 50 144 122 115 181 185 139 176 117 201 146 186 143 156 130 176 91 147 199 160 170 194 80 118 153 42 108 109 199 188 170 103 163 133 164 161 175 166 172 171 105 170 158 49 141 78 193 144 50 153 148 46 143 122 191 139 137 125 154 72 66 138 150 171 119 143 138 102 201 134 152 124 218 166 152 107 126 124 204 159 68 189 105 169 165 106 161 162 169 105 161 112 104 
51 165 190 105 115 171 96 158 134 88 198 139 177 153 88 140 110 120 185 75 145 175 149 76 109 86 169 114 138 187 187 64 141 143 121 84 169 177 193 59 119 164 101 198 178 118 172 137 145 193 66 73 156 40 151 222 163 174 143 74 84 106 155 168 155 192 57 152 118 105 133 39 126 130 165 177 123 73 224 159 136 161 200 67 87 142 107 133 175 183 163 162 110 128 199 175 185 88 81 152 
126 34 138 130 120 125 140 153 190 162 185 168 160 206 62 172 167 196 151 139 171 91 161 123 102 119 144 116 178 219 161 102 164 192 220 137 171 71 199 93 139 196 86 185 78 177 191 143 153 177 93 197 121 156 192 169 178 166 70 128 210 155 144 160 158 146 108 194 183 82 165 191 140 89 153 171 148 93 135 170 185 189 106 162 141 201 188 112 156 100 126 150 173 87 133 130 79 164 222 94 
185 187 178 159 61 133 119 59 144 212 103 170 70 102 170 81 155 155 170 171 191 97 206 197 184 115 166 126 117 165 160 171 164 173 120 173 164 163 180 221 146 141 166 178 74 74 111 55 197 117 130 152 137 163 27 179 91 115 120 71 128 163 142 71 147 172 68 62 149 130 69 181 94 26 171 83 178 136 176 192 119 185 123 66 135 126 211 151 200 52 183 147 138 54 213 199 105 118 83 82 
157 161 141 189 80 112 85 142 167 162 206 115 79 105 192 59 172 184 212 127 159 62 124 188 115 150 152 86 132 165 172 117 168 168 51 168 150 139 56 168 154 93 216 195 191 113 151 77 93 136 116 158 87 165 185 151 181 185 136 160 143 198 190 194 99 184 98 200 79 81 118 160 138 100 173 158 186 112 140 107 61 102 103 119 173 137 141 144 109 159 146 148 163 163 204 176 95 178 51 147 
129 138 116 92 166 93 124 178 147 167 175 186 149 198 136 184 194 175 150 146 138 152 107 188 126 85 88 100 164 112 193 163 152 103 171 157 141 128 144 35 104 217 141 126 65 80 141 192 165 183 119 145 178 219 135 145 157 151 168 102 156 79 107 136 75 100 80 146 155 203 174 229 165 174 79 193 59 191 159 135 143 148 160 131 40 159 121 105 155 160 110 107 127 138 144 148 110 115 51 92 
131 196 149 159 63 200 159 45 192 89 195 151 190 116 81 164 246 152 193 106 60 141 145 69 166 149 114 93 108 148 67 57 136 160 145 109 127 125 246 190 34 142 122 130 183 130 126 143 70 174 142 147 158 176 146 181 153 163 116 119 188 19 130 112 133 196 179 175 120 163 114 179 209 197 94 94 123 74 126 128 73 166 90 130 131 105 111 120 136 214 154 153 163 97 130 148 188 201 12 152 
190 195 128 130 180 144 77 148 214 143 82 159 153 152 93 59 130 207 151 167 135 131 159 130 209 135 99 73 143 150 111 142 69 141 126 151 178 164 168 145 200 191 100 87 155 164 139 171 194 135 44 155 127 202 182 185 109 106 85 182 189 142 182 101 79 145 163 75 132 179 155 138 34 156 96 158 163 171 81 163 156 169 202 125 114 118 148 153 191 205 120 175 145 157 178 105 66 133 184 197 
110 175 200 124 174 131 174 217 87 191 129 150 182 177 166 85 121 137 173 182 133 192 109 216 131 166 153 194 168 82 167 88 123 135 115 144 115 105 102 140 127 134 32 124 94 119 148 47 122 145 197 143 166 137 129 161 130 82 124 200 109 154 158 130 122 107 82 186 108 160 127 143 168 170 166 131 117 121 207 43 68 141 74 163 86 131 86 76 197 137 113 40 165 153 167 113 136 160 141 165 
86 170 100 139 144 139 229 57 163 75 60 116 124 195 164 92 154 163 98 136 133 157 143 146 142 140 149 193 122 151 204 219 73 165 126 134 134 156 104 64 167 110 159 103 128 106 37 142 167 178 101 163 67 52 176 95 166 104 119 176 165 134 207 75 187 197 193 133 143 149 172 159 190 160 100 171 63 204 116 129 125 111 80 174 141 119 167 94 114 162 212 139 149 147 107 196 148 169 142 165 
110 104 227 194 125 135 203 132 137 175 133 167 132 218 178 175 154 117 157 149 149 115 150 139 132 174 41 152 160 106 165 139 141 92 139 153 176 84 172 81 145 157 98 78 87 130 140 145 206 140 138 192 146 198 155 52 191 132 169 139 174 171 235 80 160 157 190 166 219 116 100 122 134 182 109 93 101 129 187 237 131 35 67 111 155 144 185 243 158 135 141 53 152 151 54 190 85 148 134 115 
220 125 170 184 44 155 127 59 68 71 158 148 105 129 149 142 141 136 115 97 170 82 144 126 128 179 195 136 143 177 141 151 77 196 148 156 70 118 38 159 118 213 205 198 155 129 183 79 126 129 172 208 118 197 151 115 98 170 156 97 105 191 148 147 147 170 95 188 84 39 117 93 122 164 151 110 64 175 114 157 199 179 147 197 67 216 134 72 159 191 131 68 162 53 126 59 145 153 213 120 
205 175 101 156 164 144 165 115 112 168 132 183 104 136 85 91 199 198 148 158 159 100 113 182 163 137 157 175 112 151 130 201 174 199 166 148 96 45 169 97 80 110 173 75 191 151 173 142 171 219 12 159 75 164 86 137 196 94 117 193 161 117 159 130 149 47 57 200 174 143 198 137 148 149 186 88 198 144 182 125 91 160 159 86 177 76 208 171 158 122 103 169 178 161 149 75 172 75 157 123 
151 145 155 147 178 147 192 149 88 132 144 74 195 133 194 152 129 177 211 123 96 91 190 114 176 71 187 82 127 96 61 78 185 157 236 101 68 93 143 157 103 67 135 122 139 48 194 124 160 120 90 108 130 183 31 223 114 95 106 161 113 182 146 160 162 72 128 155 151 180 121 164 165 130 198 141 72 167 188 95 92 103 108 90 205 166 164 131 226 156 165 199 133 103 179 121 152 157 162 79 
117 191 212 80 157 153 170 107 144 186 167 140 166 146 122 173 151 178 138 66 91 20 130 143 132 188 174 162 110 127 99 119 167 122 107 123 26 161 170 160 209 76 163 189 117 147 166 103 161 111 172 123 94 165 172 170 156 169 153 136 157 40 56 171 181 144 186 148 183 115 139 178 169 151 118 214 137 122 202 87 148 121 144 103 63 144 58 119 182 162 129 159 175 161 166 167 168 129 183 108 
125 148 204 131 147 112 153 175 210 138 95 160 194 94 37 156 92 114 83 198 197 196 208 165 38 137 114 144 191 165 126 145 182 106 124 31 205 77 176 161 161 84 117 160 182 143 77 173 169 179 110 119 184 130 112 139 154 153 218 107 174 109 162 166 144 158 139 167 208 80 190 73 101 190 157 161 138 227 96 86 110 148 207 123 113 162 189 164 162 57 75 222 146 58 197 158 154 134 134 124 
141 149 189 147 147 132 156 201 157 133 157 95 155 169 226 173 35 154 100 145 107 126 124 187 125 136 135 92 114 123 153 118 137 174 57 30 159 116 165 98 192 172 98 148 161 112 148 107 176 177 146 82 63 58 75 88 145 118 50 127 134 166 217 165 188 128 180 168 53 170 199 87 153 28 79 74 167 194 94 111 79 176 168 178 132 178 107 72 193 61 133 196 204 165 127 184 179 169 176 167 
168 190 152 178 191 163 138 161 94 132 175 180 120 132 130 193 220 183 148 170 107 98 208 102 109 157 139 148 49 170 65 183 149 117 202 191 186 208 137 98 155 138 98 100 148 179 88 56 223 165 147 139 161 156 183 179 143 199 176 179 114 163 154 129 128 188 18 158 134 183 168 138 202 160 74 124 130 103 174 162 223 136 154 164 166 131 186 157 88 170 203 227 138 115 64 188 112 34 131 111 
177 189 110 137 104 154 53 99 48 152 96 168 51 191 99 187 88 161 140 83 189 231 140 173 156 157 148 134 166 74 112 102 151 139 85 220 105 211 91 149 175 207 203 110 187 161 142 135 52 56 124 88 112 142 172 184 165 156 73 159 214 149 154 148 113 115 179 108 119 83 126 152 181 48 69 195 168 94 84 158 109 124 195 73 164 157 194 168 184 107 167 105 157 60 167 166 153 92 174 111 
177 76 157 72 175 175 165 100 172 155 67 174 110 132 67 141 164 66 180 190 107 226 181 120 158 43 69 184 159 138 137 159 30 120 154 159 147 102 161 160 150 160 134 187 160 50 164 81 157 138 83 121 148 66 144 84 117 50 110 159 115 92 190 136 187 136 88 176 123 146 189 106 173 104 115 77 62 127 110 178 153 150 178 216 138 129 66 169 75 118 126 157 183 155 102 188 178 166 160 187 
155 164 156 158 204 167 160 131 155 139 135 140 166 40 171 185 175 128 169 167 205 95 208 164 98 138 127 133 129 227 187 52 147 193 159 167 141 151 135 125 166 198 185 148 144 58 90 154 176 196 63 89 152 135 155 86 170 57 170 144 162 102 203 209 97 101 172 134 38 136 34 189 190 169 59 159 154 100 161 144 63 187 216 28 111 181 93 76 213 91 146 95 153 156 141 141 180 142 103 156 
111 174 228 197 185 145 105 115 92 200 121 142 185 98 63 156 137 135 141 106 180 134 142 179 197 97 113 190 192 145 150 143 183 188 181 149 171 171 201 168 193 199 163 146 123 43 106 146 196 156 135 187 108 127 158 159 184 147 43 88 180 95 81 139 130 113 119 156 101 158 162 208 152 135 117 157 218 196 174 181 178 160 122 141 193 208 147 126 101 123 182 165 164 24 151 185 182 105 128 130 
123 164 164 61 130 187 62 78 123 123 196 69 200 127 97 153 170 60 135 150 187 129 101 129 125 201 162 155 63 194 111 195 110 155 161 102 163 151 158 162 168 131 135 184 148 88 119 156 153 111 73 92 77 111 120 115 173 88 168 120 40 140 131 178 212 158 124 92 160 108 35 189 198 66 125 125 94 153 152 39 133 80 151 172 87 175 129 56 108 167 119 178 172 173 140 161 70 89 175 209 
94 169 100 172 207 143 116 152 139 151 74 141 115 183 147 51 158 135 197 147 170 96 193 223 132 88 93 67 158 64 127 183 160 62 127 124 133 84 221 168 197 72 154 94 120 192 133 82 205 192 175 178 198 36 164 112 131 130 185 167 74 165 156 160 146 177 136 161 119 84 167 105 90 142 162 214 116 172 186 158 133 161 187 171 156 173 104 138 117 69 37 176 128 86 154 125 185 142 153 178 
100 50 147 177 169 85 141 149 71 98 181 231 133 65 146 155 81 151 187 132 130 124 90 156 146 124 168 179 171 176 135 186 76 91 122 127 130 136 67 176 211 58 62 205 52 127 174 162 119 131 71 157 152 198 81 169 140 144 176 152 219 160 109 150 114 123 146 188 166 125 188 155 174 124 157 206 82 166 90 128 173 148 31 76 235 114 97 195 174 143 207 196 110 216 195 178 174 105 139 121 
157 156 171 199 126 130 147 152 97 142 25 121 167 153 136 165 56 104 171 162 191 116 167 121 46 106 56 175 147 163 154 121 125 195 127 164 194 98 125 200 173 188 169 129 161 112 88 177 196 125 104 106 61 164 170 83 186 91 45 189 129 174 159 165 148 121 156 117 62 96 114 198 145 176 227 114 180 108 132 123 142 84 192 183 149 174 175 142 88 150 69 113 123 149 190 98 163 134 158 66 
175 162 156 113 102 85 177 177 187 88 125 181 100 77 128 176 110 161 118 111 24 180 44 155 116 103 185 97 68 166 214 142 129 81 78 178 128 177 141 124 164 138 73 136 152 132 162 81 171 155 156 154 165 128 121 178 145 122 155 230 98 107 38 109 192 98 225 63 78 150 149 129 140 158 158 134 155 208 190 122 177 115 107 137 158 138 81 179 152 111 151 171 99 164 163 145 169 176 192 135 
168 70 186 105 155 157 173 188 145 102 183 162 82 142 132 113 130 171 160 175 151 85 169 115 140 106 156 171 182 134 151 171 193 158 111 130 66 147 127 46 146 37 83 134 164 119 80 151 136 158 115 147 136 80 134 192 147 143 84 89 169 129 146 150 145 145 145 76 161 123 190 156 91 117 175 60 135 158 138 124 114 93 176 178 133 133 75 165 142 158 119 130 140 145 154 131 189 174 178 150 
143 132 63 140 169 90 89 92 61 141 152 137 178 171 66 121 221 102 178 118 65 193 143 152 127 123 113 139 114 152 181 187 76 185 193 231 130 128 105 183 130 126 177 123 141 138 156 178 99 182 160 109 186 189 135 185 192 132 91 117 100 163 175 158 155 80 140 154 199 192 102 111 209 192 199 47 150 146 126 104 179 141 79 171 101 86 132 139 107 180 162 95 158 182 190 156 122 157 168 113 
123 135 187 197 133 119 156 109 65 179 163 95 147 97 45 184 164 157 149 201 131 134 98 155 182 117 160 155 146 129 194 127 205 188 163 173 103 73 126 151 132 132 82 187 96 72 126 185 168 105 171 181 175 149 182 218 134 142 155 179 131 110 136 136 183 149 170 123 145 159 110 90 143 185 220 133 167 234 172 193 113 107 60 162 141 171 134 134 194 174 137 164 205 45 92 184 97 114 93 94 
146 166 151 164 84 196 130 112 170 109 165 197 135 159 90 147 157 151 117 128 141 127 180 173 194 145 142 204 99 154 125 144 160 109 121 174 147 131 112 168 139 113 180 98 103 128 57 166 88 153 176 145 181 160 121 118 100 194 142 234 88 172 131 158 182 179 194 76 93 182 148 168 154 164 48 143 60 64 152 121 169 140 98 151 206 148 156 157 99 178 60 85 169 164 120 160 82 130 25 144 
136 81 110 138 199 128 128 182 65 63 182 175 103 156 123 137 195 133 172 101 218 128 120 187 57 225 170 177 142 130 180 163 64 135 184 99 88 111 140 236 159 79 76 128 216 116 135 121 110 149 160 88 100 173 159 163 47 163 95 198 177 36 129 133 100 128 151 171 92 76 200 74 165 161 166 140 188 162 173 45 188 105 139 37 162 178 157 146 156 168 174 111 183 77 113 222 143 195 162 168 
128 148 157 176 189 182 110 173 138 191 164 65 138 159 190 140 73 28 131 127 97 102 185 133 128 120 163 218 136 223 164 144 72 186 183 149 153 160 196 127 135 117 137 115 123 159 100 166 179 179 165 142 175 176 164 116 54 161 155 122 83 84 103 130 64 161 185 109 78 187 36 173 163 69 154 150 134 165 209 100 226 118 175 73 120 107 214 187 210 148 112 62 198 103 201 151 134 136 200 55 
164 159 161 146 148 173 114 205 117 156 146 77 159 113 110 90 147 149 189 136 126 126 150 50 166 115 202 226 127 148 131 130 186 186 143 170 171 143 97 46 3 135 113 113 172 206 117 111 150 87 124 161 167 188 168 141 145 144 154 171 97 121 152 55 184 143 138 110 181 152 197 45 121 143 76 150 82 166 176 161 136 98 181 107 159 110 155 177 130 103 170 190 167 110 149 158 140 171 163 153 
177 89 112 118 113 154 100 128 128 151 213 138 156 142 171 156 124 140 176 193 148 130 114 196 162 152 139 131 50 132 157 233 154 154 195 182 207 137 192 188 107 102 140 119 165 164 160 153 182 73 136 78 150 152 100 138 205 154 221 73 114 162 123 202 138 199 164 131 163 144 125 170 159 105 113 98 194 193 106 73 168 194 101 155 96 59 203 170 197 88 170 94 117 175 156 145 141 133 78 130 
133 112 45 184 152 135 28 151 62 113 125 209 145 168 122 198 232 170 180 172 144 104 68 141 143 151 133 169 110 113 160 151 136 90 145 114 168 74 128 103 126 203 147 110 97 160 75 211 128 172 96 165 151 135 101 160 176 136 174 185 211 165 102 75 154 173 183 61 166 140 143 102 113 140 157 68 144 155 94 23 66 153 135 59 128 36 109 102 152 61 240 115 85 76 172 155 147 183 95 139 
161 94 112 152 128 133 143 145 52 191 118 175 136 154 165 134 107 41 104 64 137 91 110 77 161 96 135 146 169 127 174 139 205 169 180 160 112 152 69 177 211 89 152 134 201 122 167 184 108 173 201 125 138 88 185 157 155 146 85 112 85 93 66 126 166 152 84 84 134 152 144 210 188 172 114 95 66 161 153 137 122 124 170 135 178 145 212 145 122 94 148 25 147 104 101 203 162 159 98 125 
200 142 127 127 78 137 146 162 211 187 140 166 33 164 185 110 120 157 165 163 156 110 189 179 105 215 55 140 26 204 91 157 120 76 119 152 215 157 102 110 117 120 142 157 196 96 131 146 172 82 129 169 236 132 124 190 157 114 141 91 183 77 68 120 171 125 127 168 121 230 92 196 191 152 130 125 125 143 214 102 156 116 180 184 107 121 173 158 124 117 86 129 153 164 103 155 184 199 103 92 
103 114 172 197 173 113 204 159 182 78 109 128 201 185 153 199 141 174 131 147 170 148 123 131 121 203 160 240 151 138 186 151 169 99 138 121 128 206 246 114 152 174 94 183 49 46 205 208 110 168 91 134 134 57 184 126 122 49 57 122 169 125 141 134 192 147 96 200 134 95 191 102 65 100 207 175 210 96 127 82 104 115 161 132 102 170 135 103 109 160 112 216 225 147 153 182 154 126 218 109 
103 161 135 124 103 193 154 151 111 187 138 22 153 139 182 148 137 166 136 120 80 188 137 90 131 143 147 93 140 146 67 32 216 177 163 149 210 164 132 170 184 194 125 102 204 193 153 140 45 149 42 124 154 177 126 149 167 142 99 173 157 168 183 144 58 149 156 134 128 175 160 193 153 137 206 114 147 119 201 242 168 144 216 197 141 148 78 180 211 157 123 116 137 171 130 129 108 146 135 144 
168 182 238 76 116 130 124 110 148 132 187 107 198 139 184 145 94 175 209 155 187 139 180 132 71 72 168 208 49 155 145 92 88 195 96 161 140 119 154 96 189 137 158 192 78 145 139 112 156 162 136 153 113 162 108 141 94 153 191 183 75 173 203 60 166 171 135 122 185 161 147 98 78 152 105 109 184 181 69 97 172 161 162 132 147 81 155 149 145 207 97 193 141 74 124 133 77 190 152 204 
141 149 195 145 116 157 67 154 191 142 125 118 164 193 158 196 114 151 180 149 108 89 172 81 119 110 69 104 136 145 177 118 190 190 142 229 112 111 126 108 69 153 147 134 179 97 125 134 154 171 158 163 57 157 148 192 93 162 192 136 147 125 113 162 145 111 200 164 58 110 129 157 207 177 132 190 149 132 56 120 168 118 145 94 120 155 156 174 94 93 153 172 194 154 134 162 191 105 189 163 
143 170 95 171 145 227 118 174 145 156 197 168 89 117 132 111 164 193 150 217 154 137 162 206 89 199 122 171 76 143 146 142 141 181 109 171 117 138 188 155 126 68 157 164 139 149 159 133 69 136 93 142 150 178 177 166 113 191 182 131 216 172 101 73 134 199 140 156 218 95 198 141 191 147 137 133 190 198 111 108 162 173 27 75 173 181 149 114 50 169 222 114 164 134 196 118 164 91 209 112 
144 130 177 145 191 150 185 172 166 124 195 117 137 131 130 135 108 165 193 196 172 43 206 110 96 108 80 89 103 171 174 143 147 123 132 187 152 168 192 155 184 206 93 70 170 197 186 53 79 167 105 91 164 135 192 29 136 86 132 142 178 83 115 121 153 118 136 129 198 95 206 167 177 70 185 174 44 67 160 184 190 137 117 135 138 174 156 171 158 112 182 152 146 166 121 235 218 150 139 72 
