P2
100 100
255
175 143 136 200 163 149 175 96 173 112 116 118 148 104 65 240 146 199 136 206 144 174 210 120 168 103 163 201 202 139 151 207 81 120 159 128 209 127 61 148 139 192 138 173 80 158 126 144 148 74 36 97 145 93 135 135 112 128 118 169 157 181 144 73 123 96 158 108 159 121 134 187 133 158 151 161 139 181 190 181 148 121 187 134 134 156 133 159 185 233 87 154 179 167 191 160 214 60 139 149 
89 144 155 177 83 111 152 183 141 114 139 164 91 83 107 160 158 106 130 188 93 201 102 97 186 122 109 118 151 184 129 130 181 185 144 162 187 118 89 141 170 93 198 221 195 156 96 132 172 28 125 157 197 148 77 162 161 165 164 126 158 171 138 148 180 178 144 184 187 123 104 163 114 67 98 216 138 153 102 125 158 171 165 71 143 197 93 182 106 171 111 205 194 158 119 163 209 132 102 160 
199 186 111 122 123 83 61 160 128 49 137 172 93 169 86 126 184 104 149 133 153 158 166 163 182 178 138 190 153 139 135 161 129 119 91 139 80 121 115 146 192 93 182 102 205 41 153 200 177 123 171 109 190 190 130 162 218 220 167 94 156 203 136 208 106 117 94 124 126 108 71 133 162 140 147 153 164 43 165 79 172 110 181 175 76 160 51 112 82 225 144 191 128 151 151 138 162 145 104 150 
194 192 191 156 215 180 140 159 132 158 67 134 185 125 138 153 91 138 56 106 152 164 154 172 100 155 129 168 123 166 111 78 119 148 167 190 55 167 154 142 198 149 148 67 168 196 129 100 232 129 200 207 217 160 126 184 93 178 189 168 91 134 189 189 153 56 126 120 52 175 63 191 122 183 223 61 136 48 114 157 193 193 118 133 100 151 102 130 124 183 188 58 142 190 128 140 165 179 177 123 
157 187 163 104 84 190 168 192 150 130 134 138 19 179 186 75 163 123 174 154 215 143 130 186 178 187 194 152 89 61 171 83 159 149 132 107 151 161 187 137 129 154 168 139 119 152 153 102 161 230 139 181 174 104 222 191 97 170 149 161 131 131 134 197 181 140 91 159 85 114 132 59 106 31 147 86 45 210 170 166 149 143 188 49 175 127 153 125 91 181 138 201 100 73 114 175 211 116 140 56 
134 214 70 218 186 123 185 185 109 47 130 70 30 185 192 132 70 192 104 173 128 139 158 142 111 164 184 171 154 192 128 113 118 194 146 212 91 84 119 146 135 140 152 118 135 38 159 150 185 183 124 66 143 144 177 140 155 150 177 151 121 117 146 165 64 109 192 88 167 157 177 175 155 164 141 170 84 181 153 99 182 155 79 48 152 104 130 114 109 160 60 35 46 152 168 135 65 116 188 78 
142 74 101 150 115 179 107 173 183 140 198 139 158 170 35 197 88 170 182 69 147 147 178 146 185 113 224 194 180 163 229 124 134 197 78 73 173 108 89 134 74 151 86 161 129 117 173 134 78 56 149 166 145 149 158 189 18 129 67 140 102 154 100 83 147 60 160 132 151 101 144 183 182 136 183 95 137 150 209 149 168 155 75 164 158 145 172 152 181 99 186 38 119 134 200 156 169 205 101 150 
168 137 181 111 146 171 165 149 177 117 131 29 129 138 139 109 115 217 74 172 174 56 203 142 78 116 98 110 134 205 176 148 98 96 156 212 172 154 159 157 147 185 126 151 105 196 148 125 209 216 87 97 119 138 87 81 226 91 190 66 100 119 130 136 140 165 146 130 169 133 116 171 152 122 108 123 80 187 139 95 157 41 119 110 177 134 83 110 92 136 44 146 128 37 95 174 165 140 96 113 
136 134 127 154 151 154 170 178 67 65 156 135 170 222 101 158 181 122 138 155 143 136 74 191 147 175 62 82 103 87 124 69 156 176 200 141 204 217 93 120 164 39 215 98 206 130 150 130 132 162 197 172 107 29 131 169 161 58 129 135 154 134 96 108 135 142 151 156 170 104 69 109 170 123 112 115 138 113 72 177 71 96 129 232 142 134 204 189 47 99 123 180 211 96 133 109 107 162 183 115 
213 122 134 150 192 142 195 107 67 157 230 192 189 126 165 204 193 137 136 166 137 177 114 196 70 133 103 135 152 185 110 123 171 234 87 153 246 147 128 92 159 127 153 206 146 98 149 144 163 107 86 142 196 202 200 60 86 218 105 153 86 101 148 165 144 142 97 179 148 34 119 81 90 118 164 197 119 176 162 195 170 92 158 173 148 112 185 163 158 137 180 185 120 124 161 133 200 208 147 166 
159 144 184 90 145 138 146 196 79 133 169 122 68 197 151 139 113 140 114 203 159 162 169 75 158 140 168 143 153 147 149 152 153 119 79 147 112 116 180 185 186 144 140 161 105 100 149 144 185 135 183 203 206 92 154 192 177 167 116 168 156 104 147 143 168 174 156 181 89 116 108 171 98 60 162 100 84 115 162 136 178 141 178 179 89 130 185 71 151 80 137 140 164 123 126 163 102 160 102 126 
144 123 147 173 193 153 191 179 192 130 188 124 182 130 159 55 203 130 157 162 162 131 160 90 149 160 67 144 135 155 107 150 111 148 227 108 176 121 89 191 230 165 157 111 113 186 72 116 147 172 149 192 126 173 168 174 179 137 207 127 200 148 205 193 212 82 129 164 136 135 104 105 201 136 187 151 59 129 188 91 199 133 139 198 132 151 149 71 154 131 119 71 201 109 187 109 190 190 121 117 
183 152 170 237 57 171 161 98 181 72 219 192 167 183 164 187 104 143 147 87 203 158 146 184 142 206 132 229 194 109 161 168 183 132 137 169 140 143 147 223 42 175 214 132 214 165 138 103 147 133 81 165 179 153 208 91 146 159 182 113 126 192 114 188 142 159 179 113 129 142 82 144 91 76 98 91 226 156 195 184 138 169 167 172 124 206 164 119 183 172 151 86 103 157 176 42 145 164 117 202 
160 110 39 196 89 149 169 104 119 141 119 119 130 110 62 154 163 185 149 181 116 215 97 170 110 166 183 143 148 223 131 107 40 141 160 92 148 183 112 134 177 175 182 56 137 181 193 102 38 161 140 114 189 208 134 48 100 164 148 168 215 164 57 149 124 136 166 186 165 156 92 189 184 102 162 193 178 141 148 178 48 151 158 160 144 133 197 207 79 147 185 151 172 42 184 55 126 159 168 168 
187 159 170 141 45 201 137 145 187 125 179 126 139 187 167 183 109 111 108 204 127 217 152 145 169 154 132 85 90 71 195 93 71 138 151 128 172 143 192 173 164 67 142 151 102 163 171 155 169 200 151 126 146 188 155 62 146 129 85 91 126 73 147 64 159 185 67 139 143 87 144 174 195 112 66 83 184 164 182 144 133 173 148 151 199 80 145 99 68 96 183 178 167 169 164 148 119 183 126 118 
172 104 164 134 147 99 165 160 198 207 127 197 103 218 179 181 173 122 110 180 185 130 180 157 115 73 68 164 70 170 101 76 188 170 126 114 96 87 186 74 99 176 157 180 154 162 108 199 126 77 196 234 112 117 176 205 80 160 65 162 68 105 95 122 200 134 178 164 146 121 114 104 146 129 133 179 118 143 158 144 155 207 171 176 134 106 175 159 99 200 95 157 184 146 200 153 148 123 173 121 
193 183 151 172 104 143 153 142 187 111 199 125 158 133 149 146 185 186 180 178 159 147 157 187 90 140 105 144 189 141 137 88 117 104 67 238 181 144 28 158 94 194 198 201 204 101 76 130 116 181 179 147 189 179 155 113 145 138 121 161 166 186 121 169 132 82 159 142 87 127 162 136 178 195 99 168 141 94 105 150 121 79 78 60 140 146 125 149 179 118 26 97 179 209 154 135 160 150 71 161 
144 157 131 164 100 231 141 140 139 232 183 143 194 206 239 87 157 120 176 164 153 170 85 129 72 176 157 158 122 204 120 198 165 126 111 183 130 133 200 108 35 189 84 122 158 113 111 206 104 214 35 162 138 137 106 172 101 96 191 156 116 129 137 201 151 140 143 187 167 113 148 129 134 117 135 73 132 174 147 135 176 224 210 15 88 110 150 226 144 99 107 157 60 114 120 156 172 138 170 101 
151 175 150 67 146 149 165 187 128 58 58 165 126 193 150 131 34 172 113 204 187 175 155 170 169 153 148 150 195 182 182 117 193 153 130 152 117 169 174 103 175 159 121 145 116 138 18 185 160 170 146 203 174 84 76 189 214 133 135 151 128 168 54 142 130 90 82 133 77 80 113 128 96 128 209 105 112 169 110 114 98 156 142 146 179 117 188 214 151 197 156 184 132 176 201 148 91 146 181 133 
187 120 154 45 35 83 145 103 139 129 92 157 116 118 127 109 139 185 87 141 180 157 137 214 78 139 120 199 61 116 169 144 147 133 118 175 111 174 144 149 118 154 181 195 104 175 223 44 115 156 153 75 185 122 98 102 187 71 102 145 170 108 87 136 186 106 158 157 164 186 195 150 193 113 136 103 148 209 184 182 125 142 110 81 198 106 194 157 76 142 119 153 150 191 153 182 117 143 125 137 
104 133 64 181 129 177 178 159 107 156 109 144 221 213 203 194 155 59 150 222 172 33 178 152 168 129 133 59 91 179 193 126 170 157 193 120 67 162 191 134 124 154 135 96 172 158 128 143 160 174 137 131 131 106 37 119 72 52 153 121 42 83 187 124 85 104 148 162 188 232 122 66 165 171 154 193 112 162 196 69 202 118 174 154 153 114 156 189 151 168 156 139 104 153 194 154 212 137 32 73 
183 124 133 163 149 143 82 192 212 85 77 111 134 168 147 87 199 124 116 123 103 174 184 152 220 123 39 156 153 160 165 139 111 192 104 107 85 168 176 137 176 170 139 122 190 137 135 155 107 169 209 199 112 158 153 135 39 123 130 135 144 176 55 152 171 133 193 192 105 85 139 150 106 178 75 109 233 144 72 49 164 180 100 127 169 98 121 193 163 135 88 149 161 168 177 107 167 164 122 116 
165 120 103 213 209 140 157 113 173 182 105 119 89 199 150 153 154 162 104 87 164 180 118 120 21 127 82 120 84 181 117 138 213 129 166 139 64 136 195 222 21 155 203 138 131 158 107 100 190 155 185 216 104 52 99 163 123 118 118 128 157 140 148 121 114 190 175 195 121 90 201 215 125 100 172 183 116 112 96 141 148 131 169 120 53 178 190 198 228 176 134 151 140 77 118 121 154 24 73 201 
146 167 120 150 164 84 154 174 122 130 167 138 182 156 208 157 151 97 150 123 80 170 187 92 141 95 103 164 178 156 155 203 179 203 136 190 100 151 148 130 124 92 154 66 131 137 130 98 189 142 177 128 194 158 162 143 40 141 203 205 209 149 86 130 145 89 139 113 173 137 229 158 149 120 173 132 174 107 124 71 59 110 142 101 107 127 157 169 114 193 184 83 104 177 188 190 110 69 113 90 
140 186 196 122 191 109 189 95 203 195 149 130 117 157 116 186 132 226 227 163 28 136 139 146 101 157 162 120 201 141 148 130 130 64 156 66 188 203 116 174 194 105 112 175 136 69 51 33 116 147 50 71 79 108 147 57 108 200 147 174 149 207 158 172 224 138 154 126 130 133 148 109 134 134 150 140 163 125 165 185 129 140 110 123 116 220 96 155 158 101 66 50 211 114 147 142 135 157 132 82 
114 97 162 185 132 231 90 148 193 27 133 104 95 132 69 86 62 83 153 200 170 65 106 153 115 133 173 148 74 196 137 65 121 165 137 178 86 110 144 155 183 40 119 65 162 154 199 168 151 197 154 150 215 150 113 133 129 45 196 182 136 141 208 139 216 172 100 159 122 104 155 166 174 190 154 94 94 152 185 86 143 109 195 165 177 202 193 158 196 186 182 177 161 135 33 121 133 61 94 138 
162 114 198 194 175 173 146 78 165 163 160 122 149 68 155 193 179 154 186 142 103 239 185 141 114 177 126 97 199 82 155 146 151 196 159 150 52 158 120 144 164 97 141 167 173 72 110 123 85 102 207 129 141 154 145 185 128 154 170 125 147 170 167 91 145 158 155 113 120 157 113 110 108 135 117 177 177 184 134 146 146 200 91 144 84 200 143 182 89 159 96 84 153 198 117 50 167 128 172 106 
99 133 91 192 162 160 160 147 185 46 133 185 125 163 167 146 194 135 94 119 169 156 138 137 57 209 163 189 129 21 201 144 61 137 117 185 85 145 124 178 165 146 109 174 112 46 129 199 149 80 126 118 194 88 204 194 136 148 137 145 183 152 155 133 127 62 137 127 203 88 148 69 147 143 182 195 96 166 176 18 138 151 189 158 151 135 146 172 140 116 128 133 165 92 150 164 66 161 152 148 
93 131 163 233 170 170 145 115 112 216 139 175 132 95 136 132 78 132 115 131 168 194 156 146 130 141 154 137 195 81 47 161 169 63 140 137 156 104 171 123 132 211 189 118 153 156 204 134 155 138 82 150 220 147 196 111 108 164 232 52 193 118 115 176 157 98 175 154 120 101 135 106 116 111 95 109 64 201 201 156 133 172 129 110 98 184 160 90 24 114 98 95 109 176 151 169 109 180 135 200 
73 152 182 116 109 173 143 146 128 100 44 134 136 165 164 153 126 134 89 158 134 170 164 157 146 167 191 159 121 164 58 195 249 172 152 163 114 50 117 129 118 166 159 127 207 186 115 74 82 129 84 150 173 95 88 151 105 185 174 170 106 168 104 180 109 174 194 200 162 138 164 168 103 121 173 162 199 141 73 94 65 161 123 180 150 93 110 107 190 157 181 191 158 164 142 160 82 180 123 142 
83 82 206 180 127 80 155 149 106 209 115 168 188 105 84 174 167 55 140 200 88 72 85 202 135 134 184 194 136 217 108 170 186 145 212 137 151 196 218 172 187 142 186 143 186 203 164 192 23 185 166 152 142 147 86 112 114 89 175 137 78 116 29 150 179 169 194 83 162 167 148 139 89 73 174 194 111 79 197 152 143 127 136 152 114 216 154 148 166 193 138 148 192 161 97 195 52 184 104 198 
181 146 150 162 212 126 148 151 184 99 160 148 148 168 118 118 180 191 161 172 195 143 62 138 69 55 192 128 158 186 135 153 184 163 86 105 146 168 92 147 162 135 149 133 100 101 127 162 206 150 181 147 76 47 95 154 141 163 82 191 162 159 147 163 63 149 166 152 181 139 90 104 98 120 85 141 68 107 142 112 164 130 152 234 151 164 194 202 187 181 155 172 198 158 157 160 139 121 124 98 
162 164 58 164 154 186 116 74 150 149 128 130 189 170 215 174 130 94 205 201 153 164 174 104 137 168 120 70 201 122 143 148 122 135 106 143 134 192 193 139 114 125 235 104 81 60 107 157 195 115 52 113 173 112 47 187 40 31 38 150 117 183 79 141 31 208 184 133 81 104 19 124 106 48 132 143 158 63 192 144 195 111 163 159 108 152 60 49 143 190 179 217 184 206 182 135 63 112 129 129 
93 163 142 128 202 173 153 154 124 168 137 200 142 140 100 108 98 93 132 134 178 145 129 128 170 127 154 111 62 157 91 139 129 141 145 142 183 161 155 186 178 81 134 152 100 114 150 148 174 222 138 115 203 154 148 195 62 136 87 99 55 135 60 53 160 175 114 195 158 121 113 140 186 186 151 170 150 134 177 137 123 187 196 68 178 65 113 158 139 175 137 187 190 166 137 133 130 90 53 157 
143 184 192 81 225 125 176 161 75 79 98 102 187 93 72 182 187 135 49 125 141 97 50 44 139 95 125 157 113 163 99 139 181 193 196 77 107 145 126 146 110 157 152 161 141 63 118 93 146 199 167 92 189 82 184 173 199 178 147 178 106 122 223 78 94 141 163 102 213 161 112 101 119 178 160 109 187 156 154 132 85 89 148 203 149 164 71 169 167 199 129 111 86 73 110 125 138 189 128 135 
173 191 131 108 96 64 137 155 87 63 150 195 168 90 186 116 184 122 216 166 146 145 175 197 131 177 80 151 148 111 101 54 140 173 161 105 148 142 154 86 157 129 93 71 54 186 145 162 60 122 143 97 85 95 82 135 168 126 155 78 150 143 149 107 147 148 168 200 178 127 200 172 122 125 147 93 151 106 182 221 163 173 146 138 172 155 168 106 106 110 77 124 85 91 209 113 195 127 169 101 
141 119 141 234 97 181 85 97 96 165 146 120 179 192 155 123 114 135 143 157 157 107 59 58 70 149 122 149 205 14 187 133 199 176 190 188 108 108 147 190 95 232 211 157 144 182 115 137 155 112 177 146 114 80 115 180 176 78 106 173 171 72 171 161 153 138 100 20 193 133 155 120 136 41 177 65 27 169 122 182 45 168 167 220 196 182 192 140 186 177 167 127 150 84 69 57 144 151 134 184 
151 128 156 143 175 129 173 83 121 64 162 87 156 133 88 111 129 132 130 169 179 170 133 123 84 85 135 113 133 173 212 136 159 200 165 235 193 214 80 139 149 125 95 40 222 198 77 182 135 114 171 142 187 134 100 47 172 124 158 146 147 180 134 96 156 201 134 157 174 148 130 177 223 48 51 180 140 100 115 155 197 172 164 203 119 200 152 96 129 166 179 100 131 144 70 196 137 96 183 159 
156 182 158 74 114 148 182 137 144 157 165 157 79 137 187 122 114 104 168 76 158 55 151 207 185 68 58 159 137 94 111 186 57 80 189 163 148 148 70 171 150 70 149 143 156 159 189 150 37 117 176 143 197 121 113 137 106 101 137 125 88 60 76 133 206 84 137 104 186 163 121 153 140 185 138 108 67 84 147 168 127 133 68 101 41 90 168 102 206 102 124 138 156 149 148 128 105 160 94 133 
166 231 156 156 171 190 163 174 101 181 104 161 136 169 142 149 98 133 112 157 174 152 222 205 84 176 45 127 149 158 154 146 171 138 47 198 83 172 166 177 115 171 171 104 162 104 75 46 190 159 95 154 211 105 65 207 104 196 168 106 164 202 102 108 125 130 101 96 194 109 157 138 162 28 18 194 124 145 96 171 55 72 62 123 158 134 173 194 129 146 133 175 175 171 57 112 176 124 194 113 
98 146 100 214 130 183 168 124 155 168 108 159 173 152 125 131 37 138 165 82 210 190 149 189 189 142 183 100 50 185 171 159 176 130 66 193 154 72 127 134 157 144 180 188 91 158 87 131 161 155 56 172 137 178 76 109 109 209 134 201 153 65 186 144 100 105 93 200 116 42 131 151 178 177 110 161 219 218 75 211 157 178 200 124 159 232 104 147 89 170 128 142 133 70 111 111 63 134 108 118 
201 167 173 63 143 142 108 219 217 170 168 164 183 174 152 155 166 188 179 186 166 121 177 100 120 159 132 151 69 185 129 144 74 127 133 157 110 155 172 107 60 138 113 124 156 151 99 82 127 123 61 159 137 66 147 64 150 158 156 137 54 105 156 152 146 160 145 121 86 34 138 182 96 169 72 170 146 141 174 123 188 210 147 151 176 149 99 148 186 89 162 49 81 151 142 138 153 49 193 73 
161 144 157 140 180 177 157 126 122 194 187 126 108 150 105 80 192 186 178 169 123 156 103 112 114 198 145 79 144 144 166 116 99 205 183 112 142 92 186 146 166 94 242 162 154 122 100 149 141 135 118 155 91 115 101 114 180 238 92 161 167 150 190 121 178 184 76 123 172 160 119 193 173 135 192 209 120 181 177 97 187 67 132 166 49 220 133 125 119 51 98 148 124 159 185 149 131 136 163 178 
175 175 119 81 153 103 69 191 144 101 193 163 117 123 92 196 136 172 75 169 120 161 111 158 171 157 180 213 70 131 150 185 90 125 153 180 194 116 166 232 171 216 122 133 150 162 176 142 177 41 107 112 88 204 161 20 106 86 179 194 151 173 75 135 199 203 104 147 166 44 142 99 174 160 133 130 134 174 126 128 190 142 198 127 153 126 187 244 119 145 103 156 162 75 124 137 182 130 198 69 
184 152 118 98 114 81 85 132 115 188 97 154 146 131 167 201 56 195 52 181 142 95 137 124 188 90 137 136 128 114 112 161 174 155 201 115 191 129 86 102 132 124 230 155 149 153 166 214 146 184 140 126 130 174 66 167 168 175 102 187 141 61 168 62 81 188 101 192 178 186 213 113 204 121 174 105 208 115 133 139 68 127 194 167 156 107 165 138 125 167 74 171 148 166 190 57 24 99 138 187 
153 126 181 138 61 207 175 145 151 179 159 161 170 180 212 136 96 57 183 145 158 162 97 126 58 167 188 158 131 155 153 176 168 218 59 122 192 131 65 163 184 201 135 163 97 140 92 103 97 134 84 169 144 188 166 232 198 42 187 105 150 169 134 95 160 156 183 41 192 180 118 174 100 132 77 137 147 181 227 145 197 140 90 109 161 129 150 173 211 72 142 175 195 189 91 80 184 143 190 138 
135 197 147 89 98 66 178 182 114 133 115 178 146 139 109 192 140 136 34 77 148 173 175 180 166 131 121 195 153 143 53 55 152 152 139 141 194 139 141 150 130 160 113 107 127 179 123 152 124 220 81 161 181 120 150 147 173 180 106 182 102 78 146 97 65 107 151 166 123 178 53 165 100 188 39 111 118 147 179 159 81 144 141 131 139 141 22 189 122 196 118 217 97 61 187 209 179 178 185 158 
110 111 144 162 172 84 145 157 133 167 171 142 173 60 143 148 139 103 156 164 188 135 186 170 83 125 159 164 94 144 206 168 95 184 202 81 75 149 144 170 171 209 139 172 130 167 189 167 202 90 147 167 103 153 175 183 211 98 132 174 54 118 140 115 130 160 139 154 91 138 77 108 117 162 130 151 156 135 139 97 83 77 145 128 128 143 114 179 186 146 163 129 152 95 61 204 138 101 155 139 
147 150 191 202 154 199 183 222 156 143 137 82 122 148 177 139 148 172 161 130 185 167 242 124 183 131 181 113 154 151 142 187 155 181 140 201 111 133 55 175 105 139 174 122 57 93 138 171 131 153 172 139 125 187 75 126 175 78 166 97 67 70 121 150 232 141 127 141 139 112 54 188 193 98 104 107 143 95 99 173 103 129 163 189 154 129 145 105 165 38 150 149 122 171 118 135 57 89 210 147 
67 239 185 132 79 147 168 80 90 179 194 180 80 197 123 89 174 114 64 213 175 12 144 106 123 107 118 171 96 136 142 191 95 133 80 145 92 203 101 135 197 157 148 198 125 105 156 102 170 146 153 165 177 211 152 164 156 174 184 112 219 135 172 140 130 118 170 150 206 188 142 63 159 221 173 130 103 150 100 131 186 134 75 130 199 126 80 156 136 48 128 136 91 61 155 87 95 163 116 164 
106 146 172 121 57 199 105 69 104 158 186 95 89 147 134 130 97 181 178 115 197 52 183 116 132 146 71 126 191 197 62 165 111 123 146 154 173 212 137 168 144 176 105 133 150 122 154 100 140 207 173 190 110 140 95 135 175 156 187 207 138 181 158 140 72 170 147 120 157 150 153 114 189 98 127 139 167 193 84 112 113 100 154 45 157 158 164 180 185 131 43 174 218 143 117 65 159 149 166 145 
170 175 140 103 205 138 122 139 88 103 148 120 132 108 156 122 135 170 143 117 221 153 139 156 157 164 202 54 154 139 54 155 108 172 144 117 130 210 126 111 172 67 134 112 83 61 119 110 90 149 136 153 118 202 182 169 73 176 137 181 106 140 24 140 163 111 90 106 144 168 138 136 141 67 79 96 107 212 146 45 187 178 64 145 152 134 165 83 75 160 101 78 89 196 130 194 163 169 170 207 
120 194 62 118 162 153 119 104 136 61 140 152 137 110 107 138 143 182 91 148 145 147 98 161 156 188 147 134 206 179 185 137 85 108 186 172 97 148 167 35 82 122 128 158 50 207 101 113 187 186 118 183 30 170 171 151 161 186 213 149 100 132 118 121 175 161 180 186 58 115 90 163 141 147 33 106 217 51 212 159 134 143 149 135 165 119 122 170 165 152 182 115 162 124 165 59 113 156 148 142 
107 161 175 69 130 124 195 125 110 103 190 23 185 174 128 152 132 231 68 115 182 183 148 165 181 199 96 174 172 159 185 141 142 125 161 166 119 109 104 172 132 134 154 110 87 81 82 61 157 125 117 143 155 133 107 48 159 158 206 158 176 136 137 165 157 197 163 175 120 142 110 108 91 117 48 183 200 131 116 153 131 134 130 120 139 127 157 135 128 177 85 124 226 115 65 93 105 116 93 99 
114 146 163 19 138 124 116 145 108 106 53 45 173 166 83 131 120 74 163 184 153 123 179 189 166 201 166 77 131 143 171 127 164 174 70 178 176 151 107 186 187 173 154 193 121 169 160 132 172 163 107 187 147 146 80 129 179 214 63 153 189 108 51 173 124 49 198 114 122 101 47 138 115 182 247 117 139 154 71 181 138 172 102 142 159 140 151 143 120 164 135 186 157 119 163 177 145 139 188 147 
157 177 208 169 130 220 153 64 134 138 130 134 200 169 152 144 116 156 54 139 169 194 152 154 162 167 86 194 89 74 146 154 166 187 209 91 178 108 84 184 93 205 123 92 68 88 196 118 141 172 44 100 180 128 152 110 125 163 157 120 143 109 165 26 154 180 139 170 168 184 202 85 141 158 110 139 158 47 163 190 176 53 83 174 14 176 140 157 198 175 87 112 166 85 167 167 106 100 73 151 
201 171 96 218 119 90 167 247 93 165 170 185 130 92 233 118 219 37 85 115 162 162 136 113 128 61 166 156 131 134 122 62 112 138 132 69 125 141 147 98 75 72 181 163 102 177 125 108 172 122 168 117 140 215 138 175 193 227 150 194 208 56 148 190 87 132 188 158 158 106 71 125 106 40 144 128 162 164 104 223 215 126 119 142 151 163 188 96 177 82 127 176 167 140 67 164 114 126 100 162 
175 182 95 198 77 210 161 187 138 133 101 228 118 169 107 182 118 136 43 156 178 230 144 160 110 172 166 118 180 36 78 175 125 118 119 131 194 126 125 217 148 132 23 190 150 170 116 131 134 150 108 117 215 176 166 86 176 148 118 177 79 149 125 136 175 175 96 134 149 58 97 180 173 192 75 85 139 116 45 120 146 84 116 92 54 70 139 141 156 204 155 230 60 171 125 134 156 154 117 116 
124 131 139 137 163 198 196 177 117 195 158 168 93 174 63 184 113 166 156 129 116 123 95 195 151 92 149 129 177 202 145 78 113 159 139 138 176 207 196 206 121 160 166 102 112 163 122 117 123 170 144 133 170 122 143 148 126 153 134 130 130 189 125 87 139 122 139 34 106 152 42 156 187 151 198 108 160 127 16 126 135 86 99 99 123 159 146 109 191 192 176 152 93 119 153 116 60 126 162 182 
121 95 110 159 83 186 115 186 150 97 153 192 119 152 46 134 147 144 127 168 217 149 129 112 210 53 194 74 126 165 124 119 64 166 138 199 94 107 88 143 132 139 131 73 150 172 125 174 119 177 88 122 187 114 100 49 169 139 148 158 144 102 165 173 228 147 95 81 55 129 148 151 191 149 173 170 201 125 140 158 161 98 184 144 118 156 115 140 164 139 163 70 165 57 195 170 165 129 125 127 
169 129 164 156 182 209 134 78 105 143 134 160 93 102 171 113 160 119 153 114 166 180 155 174 158 202 78 127 114 125 190 50 109 94 79 156 88 64 189 80 138 183 114 170 212 73 82 82 126 148 123 109 140 132 104 138 123 166 108 181 195 58 56 127 113 143 17 167 134 102 167 166 119 204 166 111 134 181 138 154 141 187 118 48 138 75 89 148 77 131 161 133 162 62 100 141 196 27 115 142 
204 113 110 173 156 36 143 190 173 124 107 204 134 162 163 163 118 189 164 181 111 126 117 167 132 128 189 202 128 159 191 125 83 190 64 164 174 56 145 186 132 115 184 125 187 171 147 167 206 120 91 158 109 68 194 174 129 161 158 136 164 165 72 200 107 181 110 157 159 175 140 155 187 199 132 125 143 58 157 144 173 159 61 95 161 117 157 230 170 189 150 106 135 126 196 77 106 167 168 172 
135 129 191 187 212 99 125 208 204 130 103 171 149 126 52 137 114 153 115 175 148 134 145 96 138 154 132 129 158 173 204 104 161 176 133 128 134 151 64 174 177 127 142 205 145 207 121 166 142 81 139 190 126 145 180 129 118 158 189 122 149 179 125 170 146 145 67 180 83 128 176 176 151 228 131 167 96 195 177 169 185 170 119 123 146 165 178 74 98 101 151 173 163 124 196 138 117 80 168 171 
205 63 139 211 136 145 94 94 138 94 171 144 168 32 226 182 124 138 91 211 116 101 175 113 125 97 236 115 132 200 157 127 68 83 109 128 113 96 185 145 106 190 95 144 167 168 114 118 125 39 84 216 109 145 161 94 157 192 142 141 195 151 143 84 211 110 146 131 154 127 148 142 141 70 153 55 176 182 155 167 180 174 62 139 131 107 141 123 141 122 180 91 39 151 166 174 85 136 71 141 
203 166 109 158 193 165 138 140 132 88 161 138 149 191 174 132 130 161 218 134 186 155 146 116 177 154 135 190 205 168 53 194 152 164 49 142 156 157 147 199 129 86 108 81 180 205 62 151 102 170 155 80 154 132 142 198 138 115 121 206 141 160 163 179 213 164 102 110 134 71 131 144 190 136 182 212 88 156 210 147 172 133 147 126 95 150 91 94 162 156 152 148 192 74 51 62 130 181 193 161 
188 52 103 161 80 197 55 182 198 146 53 151 129 101 145 145 124 179 168 62 145 146 114 126 134 183 184 198 211 230 218 92 168 152 99 162 111 127 31 156 142 109 135 46 103 157 193 68 147 128 111 135 200 81 110 129 124 196 132 94 140 134 170 180 219 196 181 106 108 98 199 143 179 184 113 146 145 96 119 115 135 166 116 128 135 88 113 185 78 115 141 100 179 208 187 122 137 146 155 184 
161 78 154 70 193 108 98 57 132 165 177 106 44 75 194 114 229 169 77 143 91 128 183 176 96 153 101 155 125 72 165 93 124 68 175 165 203 140 182 162 110 151 136 141 87 173 169 98 175 177 129 141 69 151 210 146 195 147 137 178 114 152 165 120 150 189 146 158 111 159 110 119 150 145 72 102 185 84 152 79 200 145 178 107 73 118 125 178 137 129 111 52 105 148 173 137 109 131 158 158 
151 140 70 103 191 166 169 57 162 194 88 172 153 138 159 188 153 193 167 92 150 102 122 89 127 192 210 124 165 64 142 167 180 189 102 180 79 193 60 182 126 122 126 127 154 78 62 124 109 142 181 195 146 121 196 198 140 140 159 68 132 99 151 129 83 178 162 112 99 90 156 140 167 122 133 91 104 157 105 104 179 129 108 97 183 151 201 112 190 159 105 110 157 160 190 166 219 205 126 157 
160 128 198 182 73 219 126 120 139 127 172 135 110 138 145 180 87 105 197 144 144 189 150 131 170 60 183 104 176 66 133 170 98 179 161 178 122 212 150 61 187 171 149 104 111 158 115 68 128 160 187 194 126 149 124 174 65 177 117 121 141 98 138 124 122 93 140 192 168 140 122 157 138 179 177 144 66 120 202 115 73 142 180 144 187 113 74 141 192 158 120 197 136 120 143 85 172 185 146 187 
149 212 109 103 167 132 229 146 73 91 170 178 35 196 177 195 157 183 158 158 126 77 154 119 139 102 199 166 167 141 56 72 155 114 150 99 169 164 162 150 122 176 156 141 125 138 106 191 174 188 178 134 141 172 126 137 183 117 201 41 167 182 181 153 157 128 76 33 108 96 180 150 128 171 103 151 137 146 145 200 107 75 190 117 131 131 76 167 65 152 155 163 178 154 168 186 143 176 115 144 
202 39 127 106 159 155 42 128 204 127 162 137 184 151 172 122 144 90 83 213 213 200 139 161 113 140 159 137 202 69 116 155 38 80 196 153 118 181 184 120 137 173 137 198 105 180 142 144 92 151 131 95 115 166 82 107 94 136 201 209 167 102 198 136 186 122 21 156 191 88 169 123 168 186 176 40 224 142 100 93 178 188 91 12 182 172 206 139 111 152 198 166 81 113 129 225 67 166 149 117 
169 137 112 97 108 84 204 224 158 194 134 139 144 195 123 142 182 99 163 121 162 44 176 209 134 105 189 136 120 192 117 49 182 126 180 152 141 156 175 38 162 75 182 84 192 164 141 142 116 146 125 185 187 107 230 201 55 117 200 195 157 106 190 101 148 86 160 112 43 132 79 113 177 198 69 169 129 122 152 203 137 103 145 164 166 150 94 187 157 121 123 58 149 115 158 124 51 135 111 140 
106 101 204 110 123 99 186 105 174 136 193 220 178 182 205 147 135 176 163 179 180 141 158 118 101 192 59 147 123 182 181 129 130 166 60 169 139 190 152 165 127 151 108 206 198 160 145 132 113 185 145 166 74 154 190 126 140 141 189 145 152 153 99 121 184 137 151 63 184 125 154 115 200 182 153 183 90 173 128 133 203 160 141 134 141 202 190 225 203 89 155 160 107 79 180 110 139 210 135 144 
75 163 169 116 132 161 147 178 142 168 164 218 95 82 216 130 51 68 149 142 176 157 65 150 94 153 184 112 202 170 101 215 144 151 202 99 121 81 77 87 118 121 106 131 178 148 128 65 31 145 134 129 172 134 189 148 174 210 177 119 124 190 192 104 62 62 154 148 232 106 148 158 123 95 123 147 32 149 135 116 138 179 138 162 143 41 155 104 126 129 108 148 126 94 113 148 135 124 102 163 
170 146 160 80 144 95 198 155 126 96 175 108 148 99 178 193 125 192 197 168 141 128 192 175 141 151 101 168 111 203 134 176 112 160 142 129 107 160 145 125 197 171 50 176 184 127 77 139 118 155 150 102 175 52 90 167 120 154 60 113 196 129 135 135 150 75 90 106 183 170 158 210 145 162 144 94 173 139 149 36 129 138 150 179 173 189 121 132 167 72 181 122 66 150 143 90 139 179 111 95 
134 144 155 111 151 72 77 237 235 154 172 129 151 166 160 134 87 154 28 103 195 112 178 165 45 220 128 52 107 166 181 93 176 151 145 143 185 77 203 185 58 151 103 147 170 151 99 132 199 155 81 140 194 153 160 167 187 191 104 145 165 176 165 171 101 104 154 124 169 148 150 145 41 122 99 124 110 203 149 169 218 175 65 207 159 159 169 172 131 129 197 81 152 151 128 152 109 170 191 143 
65 177 127 183 165 144 88 124 211 110 94 148 74 91 136 168 102 74 169 146 69 168 132 155 90 115 155 88 158 208 96 169 144 125 180 196 153 145 128 140 154 86 192 154 135 144 106 189 141 221 63 152 106 122 133 115 162 113 142 81 59 90 149 156 190 80 183 114 51 142 98 153 165 192 130 67 174 173 72 164 162 119 160 105 191 175 126 146 113 130 173 193 167 129 160 182 133 102 139 165 
142 120 177 143 129 112 114 166 99 138 170 146 174 147 102 88 122 69 168 165 186 86 172 209 53 201 166 197 114 207 197 130 72 141 111 228 148 191 182 148 107 126 148 68 181 119 85 57 53 217 152 82 170 215 116 146 140 67 184 216 182 214 113 129 84 99 85 162 180 180 96 156 126 62 138 164 170 151 155 148 166 157 132 110 204 167 112 68 112 85 98 138 106 101 104 197 182 76 165 206 
171 182 169 69 151 109 189 94 142 173 140 170 152 203 198 128 95 50 105 86 226 112 159 104 178 210 88 81 173 164 93 150 149 112 144 153 132 107 178 105 91 163 152 128 137 80 228 128 170 129 149 151 103 110 213 189 144 186 138 180 65 197 132 169 111 165 87 152 90 149 121 142 177 150 236 168 46 108 114 132 100 122 150 228 184 140 76 125 116 192 155 189 167 105 161 188 125 163 75 155 
136 93 141 48 50 225 129 90 150 206 85 186 152 106 133 168 143 144 156 117 185 115 157 190 197 60 140 100 174 183 141 195 233 160 124 118 85 171 162 82 126 144 109 141 154 133 161 170 91 201 83 212 182 161 144 128 96 190 133 142 220 160 174 88 112 92 227 153 184 128 186 63 82 142 166 213 77 143 140 194 168 158 95 109 206 165 169 231 125 207 92 142 61 152 127 201 109 196 102 101 
214 70 130 164 186 154 55 83 153 209 147 116 120 179 137 198 74 169 134 67 156 135 117 157 76 200 175 193 121 153 111 143 189 192 37 181 120 183 169 175 146 102 169 183 113 164 227 146 145 150 183 218 184 127 175 169 148 120 131 124 193 138 166 156 154 76 145 73 64 109 172 172 51 156 111 119 169 92 161 174 168 139 130 170 156 76 93 186 64 121 184 106 86 162 176 46 139 83 68 140 
158 180 129 194 152 147 135 168 144 45 181 138 204 193 106 152 179 151 177 95 188 168 138 39 106 140 144 150 147 122 82 131 148 127 45 155 235 173 99 141 114 99 152 183 119 192 191 148 147 140 182 160 177 190 192 126 104 206 138 152 93 136 127 115 96 150 112 115 133 63 209 125 161 133 150 205 174 141 118 159 156 159 193 165 146 153 146 141 105 125 120 146 111 205 160 108 153 51 114 178 
145 183 164 181 168 93 192 156 80 144 179 174 160 130 150 181 92 46 114 157 159 174 131 134 151 200 154 99 194 132 131 148 55 110 164 173 156 129 182 135 194 64 145 102 209 166 130 103 119 93 137 103 123 217 27 86 92 136 138 134 87 46 99 138 169 168 144 45 179 141 236 215 106 179 116 136 172 201 135 108 81 161 165 188 86 135 111 157 157 122 148 119 157 163 160 160 133 69 135 83 
53 103 86 111 200 185 179 181 201 94 209 152 91 173 197 118 88 200 161 123 139 125 132 128 140 128 150 167 95 148 106 176 180 143 66 170 149 98 143 224 162 120 190 169 100 110 152 151 66 166 171 76 140 78 155 179 169 177 102 137 124 173 172 187 144 180 89 164 58 102 181 136 45 205 129 121 142 206 124 145 206 136 125 108 175 149 156 150 166 145 150 172 175 124 129 180 123 161 56 242 
179 149 129 135 102 135 187 220 141 113 179 85 80 139 141 156 165 124 135 173 54 163 208 197 156 123 146 140 188 146 136 154 138 81 167 89 112 151 169 179 103 185 113 165 140 186 171 107 180 152 102 69 100 84 136 161 154 137 206 168 155 88 164 142 147 77 117 234 136 158 98 101 144 114 124 133 164 147 159 156 168 143 154 170 209 198 144 162 35 178 122 116 132 138 170 168 138 155 63 140 
203 186 201 99 149 133 102 188 185 157 96 146 166 112 89 118 96 151 198 103 190 183 136 138 186 56 159 214 179 141 147 127 153 101 176 165 134 148 194 185 162 102 154 192 193 84 125 159 195 185 153 101 96 178 152 148 174 179 185 25 197 135 208 103 149 107 178 173 191 136 170 219 141 96 206 136 200 108 114 156 143 146 147 133 96 98 155 144 215 170 109 172 168 106 165 200 181 66 181 172 
100 169 57 219 50 100 90 147 171 157 147 194 82 110 64 188 192 124 142 135 160 141 143 139 168 154 121 205 175 172 130 142 101 98 171 72 205 173 227 149 84 116 212 69 125 92 121 132 151 146 94 90 180 138 86 127 201 50 128 130 156 205 139 187 115 162 65 106 125 147 125 107 174 100 116 177 130 161 129 25 97 218 152 202 168 188 184 145 94 163 30 119 149 191 140 186 75 100 150 139 
154 122 164 60 171 163 83 124 139 127 122 172 124 195 107 115 174 183 92 186 169 143 209 159 183 178 137 102 137 192 178 202 155 145 229 163 30 104 63 157 54 138 134 155 174 140 138 182 146 120 134 143 128 157 197 167 129 71 139 54 92 129 118 118 100 151 145 164 154 158 118 119 115 175 138 116 111 84 92 157 146 132 177 195 125 114 83 95 111 93 171 157 109 123 132 146 111 139 64 130 
155 155 172 162 156 125 129 180 88 64 120 83 129 157 170 155 130 98 142 193 149 114 118 179 185 113 73 108 139 141 161 93 175 178 84 133 156 139 56 139 167 148 142 135 102 78 121 182 156 126 183 199 142 124 134 206 146 160 130 158 108 104 136 73 73 141 159 199 131 191 159 196 197 168 185 65 170 162 119 105 90 192 151 145 97 173 76 151 177 134 177 155 102 91 116 128 166 133 127 131 
136 86 125 121 130 88 98 218 81 166 116 171 180 160 143 50 205 166 212 129 150 229 203 191 136 137 55 111 185 84 118 92 164 191 176 149 204 191 29 108 185 127 108 181 169 152 156 157 115 150 139 143 154 169 136 144 117 117 164 178 144 187 138 52 174 133 30 222 161 140 150 41 156 82 154 96 165 142 156 191 141 68 138 37 174 189 114 159 153 111 156 82 104 185 111 199 115 179 68 159 
181 198 168 150 172 177 109 173 187 223 49 171 139 118 154 131 185 163 50 50 107 134 146 128 127 130 104 162 155 142 63 124 118 182 133 135 151 105 114 72 111 138 154 71 231 185 200 148 179 140 152 25 209 198 130 138 185 97 63 139 163 181 150 82 148 83 121 231 97 58 229 196 178 100 125 175 130 183 170 132 140 163 152 190 64 140 117 66 131 148 28 122 136 165 163 139 225 148 84 59 
207 168 75 110 163 148 118 182 147 99 88 190 114 159 93 153 113 127 62 84 126 150 151 204 182 193 148 167 83 132 99 192 110 199 200 48 184 86 196 175 167 128 131 141 141 89 221 101 138 145 214 122 183 171 55 203 103 161 102 133 145 82 136 150 87 147 185 179 190 86 158 86 165 150 177 185 190 209 153 149 166 153 159 110 178 90 172 177 193 108 77 145 157 139 155 176 80 100 124 167 
132 128 148 88 162 126 146 93 173 173 103 78 220 156 180 163 70 65 146 103 179 138 172 77 66 156 124 124 36 167 103 130 153 101 33 135 189 208 193 125 107 27 101 50 186 143 130 95 154 143 182 121 202 165 55 137 171 191 203 160 109 144 130 176 150 183 45 168 145 153 155 169 147 91 132 155 159 129 131 87 196 142 60 193 200 117 86 113 164 85 150 148 139 166 150 100 81 160 147 169 
131 190 152 102 44 169 136 93 57 162 130 161 134 101 141 165 130 163 103 154 144 51 38 112 137 69 136 241 134 175 139 79 62 119 86 152 177 169 158 122 168 126 162 74 140 163 148 74 101 190 180 129 114 148 163 167 133 140 171 153 161 169 42 140 139 173 91 183 161 170 94 176 158 146 120 51 49 137 136 135 93 143 164 147 89 108 219 121 91 212 199 157 175 112 202 203 80 155 165 176 
93 158 96 173 173 154 161 118 237 153 103 146 128 163 129 170 39 215 171 121 179 106 127 208 92 171 176 130 145 192 172 131 128 104 83 72 186 160 214 37 130 176 181 142 158 152 137 185 137 82 189 151 168 130 121 119 109 145 159 29 176 55 187 48 157 142 116 121 149 234 147 158 180 122 144 140 171 93 155 165 168 196 92 107 157 153 146 179 99 170 118 177 156 147 72 82 164 156 130 151 
125 185 174 58 145 199 92 89 108 196 201 72 84 47 216 205 80 155 87 179 143 117 124 160 197 104 198 177 85 186 161 159 214 117 196 138 117 128 146 195 117 159 141 149 150 216 169 171 106 154 115 199 184 91 157 167 121 193 163 148 173 185 49 165 154 184 166 157 122 221 96 70 138 158 145 174 175 132 105 112 175 121 151 169 166 148 97 207 122 121 94 198 107 149 132 128 144 153 70 111 
159 160 171 138 164 200 156 148 121 99 197 73 144 131 180 101 163 125 152 163 163 102 153 117 116 125 149 148 170 197 132 78 121 166 143 123 196 163 192 107 129 161 133 150 142 152 129 149 116 204 199 135 156 60 132 159 194 138 88 157 187 125 141 184 158 71 135 202 148 176 165 203 145 161 147 147 169 201 189 158 156 130 149 151 146 101 157 175 121 227 224 167 136 190 158 163 91 157 159 164 
130 171 116 175 140 121 108 118 109 140 152 159 179 147 160 173 217 139 177 145 229 187 122 93 88 163 129 136 117 174 154 157 217 181 108 117 133 120 117 180 187 92 130 153 106 107 71 143 184 145 162 167 94 79 146 135 99 122 185 198 66 154 142 150 71 136 119 114 114 160 128 77 163 163 97 167 156 125 181 116 127 228 155 204 112 92 174 90 131 150 142 103 226 130 154 116 125 143 109 171 
113 166 170 145 134 115 67 173 109 142 152 142 176 233 123 185 84 210 146 132 204 87 232 177 68 208 134 157 171 128 149 111 93 65 92 98 184 82 178 162 173 177 132 153 193 189 102 157 199 141 30 189 178 111 128 116 174 163 112 232 153 142 125 97 76 196 121 123 177 152 182 164 118 174 163 136 140 163 167 164 129 169 87 152 152 175 170 162 78 102 128 130 194 162 158 99 121 124 94 125 
133 100 144 96 113 103 185 185 169 179 170 191 136 206 167 175 95 168 179 146 139 193 114 175 172 185 121 183 128 128 93 162 145 107 142 138 118 134 141 196 132 95 83 142 163 140 115 167 141 58 55 164 142 134 179 191 143 93 168 152 158 133 56 202 122 242 190 147 132 173 175 225 83 132 165 109 145 161 131 159 90 130 151 51 162 146 173 131 52 127 71 159 185 145 141 143 178 101 69 116 
