P2
100 100
255
135 122 129 83 133 169 146 100 95 150 53 103 196 47 176 153 152 196 56 123 139 119 148 135 154 90 135 62 157 170 128 118 141 86 161 128 130 77 96 52 103 140 59 179 136 174 104 131 97 146 176 184 122 170 143 114 148 126 139 146 124 142 90 212 83 154 194 80 87 152 132 162 232 86 126 106 226 145 100 47 73 26 129 112 108 193 183 164 161 110 113 146 69 34 114 72 132 156 119 147 
139 131 109 164 183 135 110 66 141 107 86 116 86 136 105 141 52 54 144 211 82 24 84 198 152 138 129 170 97 46 144 110 89 161 90 83 99 83 87 140 190 75 102 67 76 76 161 146 92 69 151 118 116 61 132 78 135 100 160 56 189 85 119 136 99 100 109 92 169 125 177 149 68 166 165 48 133 187 122 162 145 147 84 143 105 186 137 129 161 174 86 184 100 192 180 87 191 178 135 150 
79 83 93 149 223 138 126 122 146 91 126 117 167 162 47 121 20 111 140 120 110 72 132 167 161 129 112 141 165 125 41 135 116 60 106 125 75 126 104 206 219 148 116 156 160 118 87 154 152 81 139 96 52 195 70 129 92 188 107 132 203 117 151 185 120 171 171 49 109 127 101 177 97 97 134 126 143 148 135 117 139 128 23 129 119 86 152 127 221 67 149 64 152 106 172 190 143 37 166 135 
124 185 181 144 198 82 188 145 129 65 114 110 136 58 183 155 86 160 208 157 155 125 86 121 116 164 159 152 100 57 109 119 164 110 123 103 82 141 151 157 164 198 130 56 28 148 241 134 44 159 163 152 92 96 105 126 175 161 163 144 117 97 114 68 151 130 124 163 129 195 174 148 174 112 161 191 143 99 176 137 169 88 180 111 129 82 147 174 65 138 59 124 113 115 167 149 204 124 162 92 
132 180 94 149 151 91 101 32 89 121 127 80 172 132 121 112 66 56 146 115 104 160 155 134 108 97 110 132 171 141 88 79 82 140 99 50 86 161 51 157 155 191 119 103 112 159 61 188 117 112 186 85 157 62 141 56 42 140 209 119 184 153 186 99 210 125 115 96 73 96 173 135 133 78 177 144 103 118 112 178 92 129 94 95 174 220 162 65 208 142 78 119 100 71 136 149 53 149 165 129 
128 166 172 154 169 170 166 163 86 192 123 58 41 151 106 138 112 155 204 199 85 38 176 61 85 31 13 74 156 113 127 177 224 170 170 32 92 156 119 147 103 152 62 140 44 194 167 176 116 106 139 106 151 173 175 88 161 99 137 128 55 193 110 154 110 85 102 79 164 84 93 135 160 102 190 189 147 121 222 145 169 89 123 165 135 200 154 97 78 30 47 186 71 98 136 124 198 107 61 139 
139 204 180 133 145 195 57 85 76 140 142 126 165 175 218 66 228 31 100 145 81 90 150 109 211 222 90 86 58 153 97 134 87 218 125 93 117 124 97 117 167 186 164 119 122 114 126 139 124 80 153 88 100 87 107 177 135 56 148 116 156 168 112 198 115 56 94 147 45 118 150 100 145 137 122 95 108 116 213 134 119 116 131 119 169 83 119 191 71 107 146 162 135 139 81 108 129 177 214 63 
131 144 111 113 138 69 111 179 138 124 121 20 51 128 120 147 133 164 152 76 125 142 157 90 108 165 125 120 163 136 163 197 122 96 103 127 185 92 145 232 74 195 101 162 122 188 111 114 90 57 126 102 97 66 148 162 146 121 33 76 183 160 152 76 117 75 168 171 104 179 149 97 114 118 159 151 134 112 145 177 113 144 198 121 162 108 53 98 127 143 123 102 98 218 90 150 100 130 128 180 
146 209 101 82 99 168 219 134 177 164 128 122 196 109 87 216 155 169 96 166 148 147 178 126 70 190 121 108 161 92 112 68 124 118 159 118 87 70 42 152 77 122 157 123 91 183 103 93 184 127 58 76 141 173 135 69 124 145 71 156 59 172 138 178 165 217 140 169 92 89 92 79 166 140 140 111 156 72 117 165 81 113 56 163 128 133 77 118 155 131 112 190 147 92 82 93 112 226 121 110 
72 197 55 75 124 130 98 64 176 146 82 39 163 152 129 124 168 61 187 54 187 144 158 163 115 69 161 62 159 132 112 168 64 177 158 160 212 163 126 156 94 62 216 219 133 89 143 156 132 208 112 198 89 49 54 105 89 92 223 60 98 157 161 102 133 147 97 111 143 185 106 216 104 89 130 111 75 175 116 116 104 154 108 92 48 142 92 88 93 195 97 81 137 146 213 124 155 188 141 120 
110 171 49 97 53 46 46 157 132 73 93 66 178 94 139 219 99 86 167 117 170 95 151 51 207 107 149 27 109 175 179 159 137 111 162 131 179 134 155 68 96 119 128 95 195 99 143 118 114 87 49 88 68 155 136 109 185 227 180 101 163 170 60 131 164 200 194 150 189 168 188 183 172 109 184 174 145 138 217 128 120 110 182 135 89 107 75 117 159 141 195 84 118 204 114 130 90 172 98 183 
156 188 116 164 159 179 142 125 173 93 103 161 154 101 85 144 126 156 103 138 139 134 59 148 204 149 54 147 99 92 163 141 59 175 118 65 111 133 190 168 111 179 117 173 49 148 144 130 173 106 83 40 24 114 152 115 119 27 145 112 76 146 164 117 193 69 173 26 210 94 148 131 130 87 118 113 102 200 150 65 198 51 118 81 61 131 99 62 126 125 63 103 101 101 127 79 212 167 181 146 
113 110 99 233 116 103 152 89 166 118 183 105 64 202 169 109 103 113 97 157 204 154 87 81 166 143 134 85 172 92 143 106 151 160 96 75 141 128 215 96 141 186 110 123 99 184 121 55 176 149 182 85 157 91 106 124 177 217 186 90 189 100 96 163 144 71 105 141 101 114 156 125 141 154 158 169 96 41 186 99 136 85 88 199 139 122 173 95 148 185 118 198 133 77 118 123 180 186 152 51 
103 159 194 125 201 143 104 60 141 132 99 75 200 135 63 112 122 223 83 117 151 93 163 155 139 126 137 107 160 81 143 99 137 132 125 81 168 57 105 119 48 121 178 132 80 67 141 96 62 116 122 105 77 183 207 165 213 97 81 107 139 48 75 75 99 153 215 96 186 149 187 149 219 116 147 165 117 142 149 155 132 88 178 96 101 196 155 89 152 132 117 183 66 126 130 113 102 138 132 52 
167 128 82 91 84 214 128 35 121 86 146 94 75 129 221 149 94 141 171 172 128 107 59 168 137 152 118 168 49 86 103 154 134 113 130 139 122 138 202 101 94 77 73 107 153 201 154 91 208 175 111 85 102 138 166 82 118 115 75 108 164 167 141 88 162 66 135 139 113 174 70 95 172 127 149 135 155 120 145 227 83 103 146 174 122 120 112 208 183 154 85 192 123 66 143 129 77 122 150 164 
98 191 124 143 94 132 61 124 129 96 182 80 74 79 125 167 178 94 135 137 181 150 130 151 143 144 175 99 151 119 121 131 59 119 219 187 155 117 157 120 175 143 153 152 56 101 134 110 81 133 126 128 120 131 157 137 108 193 62 68 120 40 141 108 159 135 122 147 72 131 104 79 117 30 129 93 85 117 176 62 115 158 109 167 121 147 137 84 88 126 112 83 78 120 95 102 121 162 124 142 
61 79 159 121 100 75 102 248 89 174 106 169 23 105 38 164 142 113 76 51 174 192 125 114 102 152 196 54 156 87 155 141 123 119 100 146 111 121 91 70 141 128 126 177 150 120 166 126 118 147 197 126 185 141 174 88 101 54 98 96 167 152 70 170 208 123 135 137 66 70 88 110 160 47 168 96 131 87 176 90 103 106 185 151 51 116 108 195 74 152 96 93 97 117 164 59 79 94 107 104 
162 79 113 131 184 162 134 84 36 64 200 148 70 206 199 196 116 150 151 157 40 147 93 177 83 122 160 148 161 55 136 153 207 161 162 187 192 99 53 46 226 117 148 153 62 41 103 113 93 96 94 137 119 57 128 175 89 142 162 176 88 74 138 100 105 76 180 101 84 134 78 105 119 158 122 113 85 134 190 161 89 130 67 106 82 167 140 93 147 64 229 90 74 162 122 158 157 165 100 147 
120 126 125 107 115 224 85 55 62 163 90 42 195 99 96 20 133 83 131 123 129 140 121 135 121 131 86 86 49 178 121 63 97 47 151 153 136 140 196 33 97 156 79 126 80 143 133 110 156 123 26 125 87 192 101 89 90 125 164 155 167 90 123 147 68 130 47 97 108 120 79 191 107 156 125 167 70 143 134 155 153 230 112 120 73 157 187 216 217 67 84 165 121 99 79 146 155 93 152 64 
70 130 157 147 167 206 98 95 142 124 141 130 84 73 179 143 174 193 217 142 200 82 152 200 101 127 65 44 182 59 180 33 127 111 159 175 134 164 75 223 155 47 165 172 109 85 59 151 151 172 103 217 115 206 130 126 174 157 97 143 51 75 190 130 114 77 154 78 60 180 60 129 66 103 209 120 155 75 67 148 111 187 131 102 95 214 193 80 66 60 150 176 126 208 210 127 111 148 215 170 
141 150 147 80 222 157 130 161 109 177 136 90 141 167 183 220 122 132 220 86 101 148 102 125 88 114 172 94 169 114 91 217 116 108 35 130 176 37 150 182 190 59 65 194 116 135 115 194 107 81 122 149 195 91 93 119 148 97 56 194 75 118 52 172 126 158 119 163 102 164 179 138 134 155 114 222 125 173 54 139 137 123 79 106 119 135 70 103 36 226 71 138 118 203 188 143 172 141 108 173 
44 150 121 109 183 138 71 157 204 163 126 94 165 100 115 66 147 108 160 199 81 57 132 111 179 102 97 171 123 139 81 87 177 94 43 115 146 131 101 64 70 67 155 153 145 149 163 141 43 96 116 152 141 116 196 97 182 53 203 125 167 213 96 207 123 126 221 225 62 165 100 202 114 211 177 160 166 127 151 117 113 147 74 153 74 211 103 60 149 89 93 119 208 95 161 202 74 159 149 187 
166 151 108 118 233 149 149 94 77 95 29 105 107 170 186 154 126 64 26 178 72 181 38 117 83 160 140 161 70 94 194 177 130 71 178 59 161 149 161 159 137 150 86 217 69 96 158 179 142 142 120 113 126 39 121 114 122 153 146 96 130 98 146 33 149 98 180 136 163 87 62 194 123 136 188 144 116 103 87 76 143 132 159 79 152 69 119 190 181 188 140 134 224 174 53 126 181 142 120 144 
148 37 128 184 118 141 183 102 96 125 96 85 94 180 104 88 133 138 115 169 126 161 168 109 107 142 127 127 111 138 147 42 135 105 215 88 112 136 184 140 94 144 49 180 210 111 149 93 158 121 98 147 146 134 142 68 95 79 141 121 70 90 129 135 168 173 63 125 41 165 97 56 49 185 142 170 66 125 105 85 179 146 142 138 72 121 51 120 71 30 157 199 125 81 164 123 154 140 105 150 
175 115 116 137 114 109 102 95 89 80 62 100 77 215 124 83 24 131 161 149 147 148 161 207 124 108 181 119 152 206 162 148 174 108 73 73 137 81 126 79 103 163 131 97 201 140 183 56 215 124 166 122 109 105 124 59 106 196 92 119 171 158 163 143 93 189 125 125 201 132 142 87 133 146 119 118 85 111 146 189 126 147 163 157 81 119 95 199 131 115 163 155 152 101 87 207 113 189 92 157 
239 111 147 105 146 172 129 81 140 164 143 129 95 89 82 130 93 159 81 110 48 105 204 200 94 113 112 161 137 176 75 152 168 135 105 181 17 109 91 96 197 111 176 117 74 133 173 87 152 137 31 147 140 156 153 23 23 146 165 100 73 174 92 94 96 130 69 100 150 171 117 70 123 187 133 170 128 151 183 119 88 70 166 121 119 161 132 85 201 139 149 152 69 94 127 156 149 200 151 158 
48 99 159 38 124 116 137 127 112 55 76 175 128 134 115 175 62 146 146 104 75 169 188 99 124 79 133 194 98 217 140 62 179 91 73 101 68 96 170 129 139 150 97 139 75 188 139 213 148 175 157 114 92 72 201 94 113 125 160 93 112 139 117 169 139 76 152 134 133 103 116 129 132 167 85 119 96 17 150 106 80 149 165 169 205 172 106 77 53 123 100 188 87 130 156 150 71 108 111 121 
159 142 76 115 186 69 169 163 79 173 154 36 130 101 128 138 125 117 94 117 124 155 173 56 110 172 166 132 146 209 139 91 112 117 156 82 47 73 59 149 196 90 146 190 135 180 175 150 103 80 174 132 100 79 62 148 95 231 73 124 211 122 22 113 116 113 28 123 92 108 122 37 14 65 149 45 83 110 148 152 187 106 131 142 153 22 144 154 129 99 170 155 73 204 202 118 77 166 96 116 
107 103 120 192 189 60 63 87 101 168 103 159 75 118 99 138 194 54 137 160 140 71 212 86 132 143 84 151 134 111 181 76 206 151 141 145 192 190 202 85 142 173 147 93 114 120 55 91 165 145 101 106 101 172 167 131 112 199 105 132 90 135 185 180 118 176 193 92 174 186 191 173 104 170 158 51 140 152 101 110 142 102 57 156 110 145 107 53 75 133 59 117 122 45 105 103 190 119 111 165 
143 148 51 146 134 108 165 140 61 89 101 146 41 102 30 74 140 110 190 100 155 149 189 91 87 145 172 177 100 110 101 169 95 198 127 148 112 98 77 113 208 159 105 120 75 87 83 88 63 111 111 183 93 137 118 137 49 120 103 86 143 122 122 166 191 115 33 127 116 139 79 153 132 157 101 157 168 198 139 80 167 187 107 101 107 153 208 97 64 87 140 132 142 105 126 207 176 130 164 211 
154 131 43 153 180 166 194 102 121 183 104 208 121 59 172 111 126 63 42 48 139 90 130 125 84 92 86 106 141 90 148 103 70 84 163 128 215 165 107 199 175 67 72 113 166 135 92 91 129 208 97 142 28 151 138 66 109 69 103 109 83 129 128 68 156 169 92 167 90 200 190 98 94 153 186 67 144 171 51 72 160 115 62 126 87 153 112 114 178 123 80 151 70 142 138 128 127 39 229 46 
78 121 123 188 158 97 149 179 153 161 135 101 141 91 150 40 83 91 130 78 174 193 137 91 139 20 144 53 181 22 154 87 152 137 148 112 171 119 81 140 150 161 204 151 145 84 198 115 49 171 124 175 59 135 139 148 144 111 124 127 108 139 135 137 100 89 175 90 89 184 123 86 179 151 100 132 84 76 137 198 38 169 128 139 180 121 175 143 173 34 129 135 82 113 158 200 127 116 99 157 
100 87 110 109 64 74 145 147 151 174 60 31 141 102 64 135 159 129 183 141 141 97 150 134 149 159 198 184 42 67 117 120 130 62 167 93 168 109 147 116 184 176 129 153 140 103 198 156 89 129 138 133 164 140 141 43 201 134 109 134 187 75 170 163 138 144 100 109 96 119 157 138 152 96 175 133 132 107 87 87 135 181 221 112 115 69 109 153 157 38 92 169 67 106 179 85 194 117 140 103 
182 43 159 124 127 136 87 159 149 69 82 133 72 145 150 102 164 88 76 146 147 44 11 134 219 145 99 105 164 103 94 174 107 138 116 95 175 80 98 132 112 136 167 95 165 165 142 135 54 180 134 139 135 182 121 105 95 187 98 185 161 117 155 114 110 152 45 221 171 176 133 155 120 108 102 204 181 18 108 28 228 118 138 138 73 135 104 153 107 206 129 128 64 134 130 197 36 135 118 179 
175 79 223 153 178 173 134 80 142 66 118 35 140 115 147 160 108 97 139 70 189 112 155 185 118 58 136 121 196 140 219 99 105 143 164 76 102 161 178 83 146 152 81 124 160 115 157 63 156 197 181 98 198 164 189 169 174 117 147 148 68 102 188 106 115 127 172 73 154 208 101 109 153 124 199 64 184 30 156 216 37 100 31 67 146 62 126 131 208 154 117 114 122 139 171 199 176 82 121 71 
66 107 123 98 58 137 185 109 95 196 187 109 167 88 148 162 108 203 146 95 132 156 45 122 91 232 99 108 153 75 162 170 161 92 195 83 79 121 157 168 190 98 81 126 80 149 140 68 57 124 147 153 188 145 43 114 120 127 72 125 228 121 72 200 144 108 93 61 148 95 93 99 98 72 187 158 183 129 107 79 209 163 113 120 28 107 125 133 82 194 49 171 130 139 144 145 146 211 122 155 
155 87 131 128 51 87 182 181 184 31 221 120 160 115 65 89 182 112 128 176 178 75 97 112 96 162 113 146 178 99 180 129 133 190 150 54 170 166 125 158 150 83 146 127 101 142 171 102 175 82 111 100 154 175 59 62 163 157 126 196 155 150 142 81 155 156 103 141 84 116 113 150 177 214 203 101 125 104 57 163 91 115 140 115 213 147 159 67 140 118 38 86 126 147 199 198 89 218 165 99 
55 194 150 95 192 163 195 181 100 102 94 117 76 124 113 101 148 132 175 244 236 184 90 185 106 156 228 21 128 59 153 57 196 156 192 116 166 90 92 174 165 120 91 72 190 83 65 31 184 161 193 156 127 124 51 196 123 96 57 206 98 158 49 103 130 178 70 147 172 138 88 139 198 59 119 142 162 198 116 135 78 132 153 108 61 89 138 66 81 59 96 209 217 110 40 142 150 126 72 157 
138 222 168 143 112 114 184 95 163 100 192 183 140 148 180 150 129 161 134 133 98 124 188 127 72 163 79 137 202 164 57 117 114 107 88 120 85 172 102 147 85 142 124 50 120 161 110 173 159 67 157 59 146 85 92 103 144 85 143 149 182 96 99 138 164 124 186 94 138 137 115 66 71 145 160 23 151 175 51 86 115 51 156 153 167 71 210 157 96 123 107 81 193 151 83 147 128 103 238 97 
95 230 133 165 86 112 98 169 116 215 174 162 167 112 166 147 142 153 122 90 230 61 145 98 160 55 147 144 162 181 192 98 107 113 104 118 112 205 170 137 142 106 76 195 93 46 54 89 143 133 134 88 186 72 89 182 49 213 10 191 105 72 133 143 100 117 190 126 117 135 105 134 83 138 91 78 49 208 62 78 164 159 125 133 91 134 137 224 145 160 205 67 85 110 105 139 91 130 112 172 
155 81 112 131 109 150 170 166 56 119 149 154 186 106 92 55 161 210 93 119 206 127 153 76 105 132 129 108 130 114 93 155 137 69 111 137 168 86 166 107 100 139 122 115 115 126 78 64 126 150 152 112 206 153 45 103 57 214 91 112 132 182 153 106 139 137 141 94 110 81 117 211 133 186 69 102 114 190 94 101 119 95 154 149 88 72 133 95 48 115 159 92 152 105 44 116 116 63 87 118 
153 175 21 107 181 89 172 138 204 106 159 155 197 131 225 119 25 45 217 107 144 191 213 69 139 140 27 127 19 82 122 81 194 87 184 113 116 123 138 134 125 185 69 136 195 130 106 111 165 74 143 48 106 58 154 163 147 63 176 149 116 63 60 76 75 143 102 173 105 136 53 132 187 127 88 164 82 150 201 161 122 190 107 36 168 137 138 154 146 134 163 87 105 211 167 200 160 120 127 112 
145 167 118 93 141 149 79 73 84 104 125 144 42 158 56 111 186 142 69 137 113 127 148 130 109 142 107 136 95 170 175 127 114 125 178 36 176 128 146 173 156 155 65 170 99 146 49 41 124 140 81 120 32 150 82 69 90 75 103 77 137 140 38 103 81 116 174 172 133 160 194 161 206 61 122 125 147 184 131 101 64 165 208 97 76 163 137 194 229 114 80 99 177 150 155 91 210 211 82 131 
167 49 119 73 104 149 78 139 107 100 71 127 158 134 78 61 122 177 153 170 96 151 164 117 169 192 71 21 127 45 110 105 166 142 155 143 132 167 99 173 139 167 204 176 143 105 117 154 165 137 112 155 137 103 62 126 164 61 189 190 67 129 127 139 155 99 125 50 101 82 127 154 166 65 134 168 89 212 202 101 170 131 159 144 193 118 170 118 172 158 154 97 149 103 99 74 111 50 190 103 
93 116 162 126 57 162 95 118 87 108 160 198 124 102 161 57 160 69 56 166 118 172 71 115 124 119 198 70 133 116 53 123 101 102 117 152 173 89 187 70 175 90 174 111 152 134 130 130 167 142 150 154 102 145 121 141 63 109 149 131 125 214 198 201 96 64 120 90 127 163 105 99 150 133 75 101 166 123 153 119 156 116 144 113 168 161 109 95 111 77 98 114 175 166 129 147 118 99 105 109 
127 175 113 180 102 123 108 185 178 104 145 128 125 103 100 167 141 115 102 119 40 145 112 158 97 76 152 147 32 113 181 192 81 136 122 127 134 80 166 126 99 174 165 131 171 84 103 94 124 139 171 86 118 135 124 131 103 131 161 56 66 84 171 193 25 45 154 120 146 165 179 147 89 202 206 75 164 166 81 174 132 94 216 121 140 123 43 81 71 121 109 117 125 117 157 130 77 222 104 125 
119 122 165 95 113 77 70 156 50 42 57 178 103 150 142 78 180 109 128 92 186 119 68 106 134 95 158 106 121 149 181 147 212 167 90 97 167 171 168 117 167 135 127 176 84 127 142 178 159 100 168 106 75 82 152 83 94 83 63 242 95 126 115 159 114 155 194 155 140 114 61 116 169 139 122 111 174 177 102 78 210 98 11 64 137 159 162 185 125 195 141 91 93 95 231 141 42 83 85 221 
87 168 129 139 156 115 158 182 81 177 137 121 145 158 92 63 155 55 191 172 132 146 195 120 193 120 115 173 205 108 155 116 61 117 82 86 101 113 82 206 131 156 103 123 101 86 203 163 197 109 53 142 150 168 160 203 152 140 138 118 77 109 107 111 125 167 96 149 154 162 101 127 177 154 56 172 96 108 102 114 177 186 149 200 43 99 27 114 116 158 123 156 129 187 61 150 208 136 54 103 
124 166 127 58 91 118 48 215 181 61 111 216 159 121 156 137 166 158 179 97 177 118 151 175 103 109 136 169 155 130 58 123 138 79 137 62 160 83 104 86 97 132 92 155 83 132 31 83 127 110 82 123 109 111 92 151 186 153 149 75 87 86 64 94 144 176 116 130 101 71 77 164 92 75 89 65 79 77 111 82 193 144 89 123 80 104 56 117 146 60 77 58 79 152 141 131 111 152 121 103 
89 101 153 127 98 109 122 87 120 136 31 22 162 72 155 129 151 134 159 57 159 150 111 121 69 194 117 171 191 159 90 168 162 145 100 139 64 142 169 141 92 151 249 158 107 146 147 76 97 91 117 44 153 106 132 144 124 130 177 186 137 127 149 143 118 135 108 110 75 173 190 120 129 88 90 148 142 121 66 73 135 164 185 152 158 158 192 160 155 193 128 111 93 110 82 117 127 109 111 15 
110 116 120 194 134 140 61 98 58 148 88 104 55 99 91 106 163 147 99 82 128 168 98 67 166 104 126 96 105 113 157 187 170 64 116 117 169 204 201 85 174 150 80 89 209 241 134 176 74 179 143 175 197 174 74 65 218 195 177 153 166 117 137 78 67 141 119 106 156 195 124 142 107 179 152 101 127 99 165 170 125 80 118 163 81 85 170 120 74 200 57 196 87 134 110 149 156 148 74 60 
154 121 77 186 140 130 90 115 144 68 191 139 155 85 141 63 151 45 174 171 166 59 62 98 215 94 169 176 124 40 98 101 135 67 193 213 132 83 114 72 119 114 105 102 76 129 150 149 64 65 210 197 68 167 139 219 102 124 146 146 125 81 45 167 212 114 114 102 138 67 104 153 111 75 148 172 172 170 186 108 66 81 71 104 168 102 174 136 167 127 56 135 104 156 84 116 133 125 108 128 
190 155 91 161 134 159 125 98 138 121 58 107 109 89 153 208 145 114 94 194 39 188 99 168 210 229 148 154 128 140 160 165 55 151 77 129 96 124 142 53 197 129 163 89 111 212 92 96 96 155 181 177 161 149 70 71 151 158 210 113 63 139 190 63 120 114 127 108 49 147 43 124 78 97 95 147 151 101 24 119 141 133 140 80 168 143 136 157 81 79 146 81 123 110 147 81 151 208 115 185 
152 107 145 25 184 69 64 210 114 227 148 68 92 50 159 148 90 77 156 135 139 166 112 157 117 37 104 115 65 165 57 123 160 70 23 81 91 115 115 100 68 105 146 162 102 112 162 135 77 60 113 147 76 132 63 149 182 147 178 126 129 174 124 111 200 153 109 152 97 146 106 72 170 207 41 157 46 123 125 189 216 169 182 47 119 198 140 142 126 201 89 234 72 68 112 152 154 145 169 114 
137 97 169 164 135 145 41 129 87 42 93 104 152 74 225 135 138 145 69 102 135 101 181 41 140 146 88 168 202 92 136 122 223 103 165 124 193 123 103 133 58 86 170 87 196 140 165 160 93 159 172 179 119 117 107 154 101 54 83 88 69 133 116 154 48 122 108 212 196 67 83 189 78 157 99 204 27 122 182 86 106 83 177 192 189 119 197 198 183 106 120 146 71 130 192 224 120 126 140 139 
150 57 117 19 124 169 122 64 106 115 125 154 166 135 230 140 122 62 30 92 72 177 171 61 167 131 164 190 94 183 161 167 124 92 131 76 137 65 135 173 123 158 74 223 104 73 147 114 112 121 170 107 122 143 147 160 113 195 120 69 204 144 175 46 123 52 189 138 99 151 55 105 153 147 127 181 157 132 101 93 129 140 43 116 65 95 90 184 122 146 101 101 126 137 140 203 142 145 58 99 
127 186 100 61 145 206 186 45 148 146 154 104 149 150 33 85 134 91 166 86 133 133 113 120 94 174 113 142 134 120 92 72 86 188 37 144 57 88 72 159 82 62 154 174 219 161 146 186 121 120 117 81 153 129 133 165 92 48 91 113 103 97 179 86 170 70 149 124 160 131 107 161 197 71 179 209 117 125 134 141 94 91 117 38 122 108 120 146 151 108 121 97 37 141 125 110 152 72 71 148 
119 88 132 170 59 128 183 154 104 131 115 155 129 186 97 91 132 133 116 127 192 102 170 113 141 138 137 173 144 84 133 102 166 124 175 147 121 121 141 203 133 172 112 187 122 172 221 129 204 149 173 103 185 132 145 161 157 140 110 180 93 165 116 144 113 90 191 89 72 200 50 96 94 60 172 112 157 81 168 123 72 118 129 103 165 143 129 122 126 76 154 75 167 95 22 62 164 119 103 120 
202 101 56 197 139 175 133 186 81 205 178 128 128 122 74 155 127 133 102 109 148 135 128 134 138 195 75 144 122 123 110 46 70 130 167 81 64 40 89 75 95 80 167 149 110 148 182 168 147 157 99 97 166 168 146 193 63 102 55 108 182 113 184 144 103 160 128 145 141 108 56 174 65 212 147 139 142 89 156 57 72 167 72 161 206 140 82 125 188 218 151 70 146 105 74 68 102 168 48 187 
136 167 100 149 107 82 170 164 55 102 96 113 170 60 122 199 160 92 59 87 38 163 140 113 95 163 93 151 152 186 170 125 119 44 227 134 121 149 165 62 186 147 60 144 194 88 124 163 197 88 42 162 168 120 43 144 157 60 77 163 91 91 209 132 129 133 157 148 35 127 92 127 139 97 189 107 231 224 107 166 163 71 135 182 99 54 184 175 119 85 106 88 199 170 142 46 115 100 165 173 
125 84 139 158 161 179 93 59 90 140 209 63 154 192 95 128 101 213 114 83 170 168 150 92 107 77 57 187 140 160 166 50 67 138 66 43 170 175 182 136 81 131 155 110 75 161 138 191 120 210 142 137 113 148 141 90 126 115 179 134 79 201 186 186 114 66 77 166 124 150 124 140 103 45 89 83 149 126 155 158 161 158 142 167 66 97 142 149 182 67 196 137 130 136 186 87 208 126 100 128 
207 168 147 109 188 90 141 133 91 152 99 189 164 59 179 160 207 130 103 87 166 52 109 151 86 110 103 83 158 119 86 53 123 122 112 64 138 129 130 71 153 100 70 109 123 211 126 204 87 41 57 163 96 193 81 106 137 129 175 119 101 95 203 77 201 123 183 108 157 167 165 169 120 168 97 109 142 77 79 97 116 85 129 155 210 63 182 108 77 174 143 174 124 118 109 129 172 65 130 199 
123 109 159 153 139 139 115 131 166 144 124 49 112 172 161 163 224 104 163 98 108 120 104 125 134 67 158 179 109 89 115 76 142 98 164 95 121 57 235 184 37 133 143 130 158 92 207 30 84 24 164 93 113 61 114 169 107 207 123 184 133 174 97 121 169 106 140 141 229 64 152 146 114 143 54 180 191 97 65 101 44 86 128 160 121 225 115 160 85 93 207 178 152 187 136 136 130 120 124 212 
158 79 135 86 140 138 104 183 116 132 55 171 101 89 77 155 170 123 123 135 115 177 58 80 203 156 92 100 139 100 66 149 111 111 144 155 155 96 93 106 164 112 184 212 138 105 51 140 74 91 192 86 183 85 123 105 100 195 145 127 64 73 175 59 29 162 137 144 113 162 120 174 120 52 157 135 109 185 87 158 194 168 124 102 123 123 103 103 129 113 183 85 161 63 104 100 89 23 124 80 
72 150 225 111 86 139 190 127 115 191 229 165 185 114 118 123 146 70 106 107 129 129 152 155 124 124 55 116 130 107 215 109 128 140 144 80 62 127 156 109 150 154 127 126 156 93 68 141 139 153 106 184 109 166 69 171 138 117 86 135 131 120 139 117 207 192 166 108 105 136 132 118 185 66 76 204 187 160 103 181 68 73 150 151 216 116 193 116 129 118 99 124 115 181 118 90 101 150 164 174 
79 150 131 148 164 121 144 150 85 107 111 108 58 179 136 100 105 155 160 34 200 141 118 132 95 107 150 64 128 134 158 103 205 102 121 62 141 51 174 163 163 135 125 120 148 126 119 96 162 95 164 123 96 107 127 151 61 132 106 187 58 163 142 151 76 138 155 91 194 82 67 179 92 78 169 65 44 84 112 178 198 159 116 144 183 101 129 83 107 126 124 109 181 176 101 64 84 164 156 74 
170 122 149 158 103 123 108 131 156 162 107 120 120 143 182 121 112 52 39 128 104 79 69 134 197 193 140 45 146 174 81 66 126 86 158 70 176 105 94 63 172 129 154 140 96 119 22 157 112 106 134 109 158 106 183 119 51 115 198 86 49 173 71 222 116 165 137 123 141 61 79 134 82 129 56 154 117 154 135 132 149 75 132 154 60 179 214 217 35 61 79 153 163 133 94 94 33 131 145 160 
129 119 149 145 170 162 176 154 107 223 144 126 63 146 189 83 109 154 139 90 143 66 134 163 67 161 121 116 128 59 47 57 96 128 116 162 145 66 125 123 128 93 148 60 80 113 126 208 126 116 139 39 96 180 144 73 146 143 178 107 74 151 169 120 51 26 76 200 223 164 24 162 128 169 138 168 148 88 110 158 96 68 122 101 142 161 121 180 153 159 138 71 128 180 70 78 175 168 113 144 
94 178 107 128 135 166 136 88 117 81 130 162 212 150 75 152 211 81 75 97 128 55 142 74 119 149 190 102 84 94 148 176 95 146 96 106 135 113 117 175 199 75 80 101 129 97 73 157 179 149 144 183 169 138 123 151 189 65 203 88 188 57 125 152 105 148 174 106 123 160 144 118 153 159 115 158 112 48 135 133 120 182 173 62 135 235 114 41 87 149 128 102 115 119 71 145 102 166 59 81 
149 92 141 124 85 125 167 79 174 166 226 163 104 195 181 137 95 130 108 154 133 154 76 142 145 64 120 166 147 193 98 104 146 128 127 122 122 230 178 121 139 60 128 150 61 230 86 109 182 135 108 97 123 65 154 67 75 157 54 88 163 130 135 140 82 88 112 161 95 192 102 46 156 167 124 18 117 158 137 44 113 131 94 88 132 194 184 32 168 78 136 89 90 91 94 116 151 158 135 63 
225 84 164 145 99 157 118 142 133 142 116 162 125 122 115 155 59 141 150 126 92 95 189 93 98 88 85 189 130 87 156 148 118 127 88 133 109 139 73 131 63 175 40 160 144 140 146 102 212 144 146 229 69 95 132 126 159 27 135 145 154 108 124 126 123 180 124 196 143 122 123 95 139 134 121 187 148 158 85 172 99 203 164 100 91 177 133 168 141 76 43 146 157 125 121 187 71 56 114 80 
134 155 92 58 117 99 38 86 144 58 11 61 24 113 114 94 122 90 173 88 101 142 146 190 138 160 40 107 172 49 79 136 50 232 121 108 138 156 125 109 159 208 155 66 167 88 86 75 97 108 123 49 129 106 109 164 146 111 74 186 84 92 42 81 130 89 160 88 102 94 145 110 191 144 142 126 191 182 125 132 62 48 183 135 127 186 170 114 149 192 64 88 73 174 82 114 154 106 137 169 
44 166 108 184 202 37 102 157 86 126 99 138 143 69 141 118 194 40 123 86 71 230 52 162 131 60 111 75 199 146 117 108 95 117 114 109 91 147 88 192 140 125 161 74 152 104 179 137 140 187 74 136 103 86 96 113 126 134 150 122 85 156 104 144 203 56 102 190 48 197 158 94 137 138 76 119 213 131 40 171 118 125 184 151 129 95 162 198 163 161 10 145 162 196 227 134 106 132 145 184 
155 192 162 201 190 157 126 195 168 115 145 152 76 155 158 181 77 151 88 85 133 204 134 115 112 81 151 139 107 175 154 213 132 91 85 167 56 178 86 93 147 128 144 73 57 214 203 81 124 123 98 172 99 118 90 100 208 96 173 112 168 119 97 128 78 137 157 100 146 198 184 99 111 88 138 149 22 83 124 208 78 75 140 64 161 116 121 128 144 196 185 168 165 151 95 169 202 213 160 194 
108 161 75 164 104 122 105 116 155 155 149 192 97 87 201 176 79 116 126 77 149 98 70 72 97 180 151 161 119 133 142 162 29 141 124 167 155 73 160 163 204 123 93 87 166 108 71 154 109 193 152 113 113 142 186 104 82 98 60 172 155 121 209 148 129 80 80 107 114 141 107 185 167 171 167 69 118 96 131 140 143 136 105 64 180 33 126 187 86 65 120 186 91 132 143 111 104 83 158 46 
116 207 163 110 89 88 111 96 117 103 129 161 112 106 207 127 124 130 95 111 125 122 136 167 134 98 166 147 95 186 102 165 114 126 131 142 186 144 166 74 71 140 208 105 167 151 181 140 103 97 111 98 149 105 144 57 110 115 147 125 121 89 132 133 151 182 101 115 191 84 115 170 132 197 103 100 88 161 127 141 75 141 79 209 89 108 218 127 119 138 184 195 94 47 122 106 102 142 130 127 
140 97 169 81 118 103 94 148 105 91 100 177 161 105 94 154 90 157 207 156 158 67 189 175 210 120 116 162 179 227 86 137 102 137 105 236 47 127 149 139 183 161 77 103 118 120 122 145 199 158 101 167 107 118 66 37 122 162 146 174 141 111 112 22 200 192 170 77 98 169 102 146 135 103 137 93 85 196 112 99 101 110 187 90 101 186 88 110 61 106 124 130 84 210 152 136 169 189 73 73 
60 139 224 125 166 99 173 125 107 150 154 70 96 211 119 201 95 120 210 192 89 160 115 157 103 125 64 130 128 119 105 126 222 159 181 155 35 107 63 83 193 166 164 103 87 121 162 80 172 134 238 142 101 89 169 150 150 17 93 65 99 147 218 196 76 107 43 113 194 138 83 102 98 71 85 90 138 187 195 34 201 182 188 199 117 179 170 101 124 93 105 164 40 197 138 133 190 80 110 160 
83 185 101 74 98 50 212 158 90 77 203 130 187 83 99 63 186 106 91 96 81 112 146 157 140 77 109 143 177 121 217 132 134 157 184 136 221 148 69 199 85 135 139 66 80 62 134 129 153 71 90 133 126 83 148 81 136 110 89 183 176 118 135 90 184 81 107 129 184 146 112 95 61 130 138 161 95 148 104 124 176 154 112 89 124 149 127 32 55 103 72 87 146 119 128 165 44 93 176 164 
107 150 169 137 162 60 124 142 168 133 110 170 149 69 124 109 111 110 81 183 81 174 123 160 127 83 140 132 75 48 88 141 134 165 174 107 136 229 85 206 78 166 150 152 102 172 121 68 129 110 192 119 156 49 98 184 193 92 147 105 169 101 163 168 95 89 117 116 87 138 140 34 147 152 108 191 131 139 100 157 82 156 148 157 56 142 88 141 103 159 117 113 162 114 150 155 94 38 168 160 
76 213 176 181 184 110 123 139 118 130 102 207 101 142 177 174 104 190 152 157 69 98 138 23 134 129 117 130 128 195 101 122 29 130 99 115 182 117 130 146 132 98 99 139 176 116 164 26 170 98 47 128 63 104 82 155 183 79 61 152 64 148 137 109 95 35 162 194 104 196 156 84 171 149 126 100 164 134 100 214 141 79 169 76 169 145 146 159 132 107 143 154 127 118 27 144 77 89 161 75 
188 98 129 106 109 126 130 149 70 138 159 99 53 134 88 48 91 138 130 67 118 124 199 88 179 131 175 138 145 117 190 68 186 136 133 189 105 170 98 152 123 132 173 183 146 244 202 163 214 118 87 127 203 147 141 86 116 192 84 200 117 151 100 160 192 202 99 153 161 127 175 38 162 92 48 147 193 127 98 168 69 76 78 118 92 148 137 160 114 177 96 79 212 74 126 79 79 97 114 123 
88 107 112 121 226 133 131 175 135 167 146 203 124 161 65 120 197 65 154 110 178 77 107 160 118 160 137 111 130 157 156 27 143 130 87 106 171 42 136 135 93 76 20 140 103 182 36 167 101 142 135 91 164 81 124 63 226 161 77 99 220 187 135 111 161 203 171 135 52 88 113 76 112 197 119 120 42 131 137 152 112 92 64 144 157 136 91 159 108 51 89 105 94 172 142 65 81 115 140 209 
137 158 99 96 177 150 84 125 86 143 69 95 103 134 208 168 151 112 169 130 165 157 118 104 179 163 166 85 43 97 163 101 162 181 116 157 144 167 98 135 95 116 125 229 131 117 72 58 169 153 186 113 186 98 81 87 110 121 106 155 171 144 100 143 160 125 95 113 98 121 178 195 187 83 65 196 65 155 95 158 152 155 152 110 105 50 111 140 86 109 51 120 123 13 138 91 172 235 119 147 
210 130 132 166 160 179 172 190 177 73 38 181 58 157 162 206 72 177 128 185 149 113 104 171 67 212 39 131 104 217 97 111 83 159 78 130 118 175 108 145 160 112 74 153 86 91 106 116 65 147 76 131 173 170 94 146 210 44 123 184 133 94 161 122 154 106 185 106 89 226 116 92 112 151 79 138 95 169 164 97 39 147 117 39 130 132 112 76 147 117 209 108 99 113 76 150 142 71 108 131 
144 146 104 160 104 81 80 147 169 219 163 118 162 175 87 16 103 186 126 78 174 170 133 95 168 35 190 156 139 128 87 172 110 124 125 120 144 165 113 88 139 138 178 123 129 100 118 70 93 207 109 184 139 99 201 183 103 196 63 139 132 136 87 100 127 95 136 59 69 174 83 120 98 84 134 117 154 120 113 102 115 174 91 130 220 121 81 74 128 148 209 65 81 121 195 89 119 213 69 206 
75 85 140 108 101 139 141 142 235 165 159 99 94 66 190 196 174 189 108 100 166 56 166 76 89 66 209 169 98 137 167 118 152 88 84 177 148 75 112 187 172 145 196 111 168 144 118 108 184 103 54 152 140 127 163 164 158 75 35 158 116 149 157 121 58 195 172 158 195 57 139 143 115 94 104 92 124 161 88 81 117 92 108 58 114 229 106 80 149 173 101 150 147 116 126 125 194 142 123 83 
148 195 125 30 79 148 113 61 95 53 122 136 181 186 141 109 137 221 164 94 47 219 117 23 74 118 127 195 109 175 126 91 109 116 61 124 165 140 85 143 115 107 181 142 76 187 138 59 136 144 113 170 115 96 121 155 138 122 96 169 76 150 168 168 85 179 160 119 116 134 156 73 160 121 90 91 112 124 143 64 147 142 181 98 155 164 90 42 213 87 176 123 42 61 120 122 100 70 147 115 
182 122 82 75 79 138 59 172 95 190 136 144 122 74 149 151 202 141 80 58 49 88 180 194 133 74 214 98 123 157 65 170 128 155 84 161 206 110 157 100 114 93 114 146 166 141 86 177 141 119 105 128 69 126 156 167 67 175 156 46 81 181 119 130 186 102 66 171 15 76 94 91 101 73 119 170 174 78 89 40 127 139 150 142 148 129 83 128 133 204 103 189 68 133 85 153 187 75 79 123 
79 151 224 163 48 152 168 92 160 164 143 144 142 213 63 104 60 80 80 119 229 157 59 54 201 100 156 122 101 118 127 170 139 100 74 195 145 220 173 167 138 54 97 114 88 214 162 203 82 184 142 59 100 72 132 112 178 67 150 148 147 54 31 56 114 105 180 110 145 174 203 107 117 53 128 147 113 94 129 58 27 82 71 45 82 177 115 214 191 129 109 142 89 85 197 101 121 155 124 99 
85 160 170 51 153 148 30 76 62 133 138 222 127 159 82 135 135 66 145 88 70 87 109 112 98 191 111 195 72 198 176 69 180 132 146 63 183 60 177 138 131 200 109 142 111 213 34 151 84 208 109 156 168 116 100 85 193 67 189 113 69 133 215 134 182 67 101 114 140 105 165 118 110 139 166 97 122 155 152 98 138 173 178 121 107 188 68 201 78 101 100 227 182 154 85 87 118 116 167 113 
115 164 157 151 165 157 149 177 65 81 174 114 131 84 155 163 182 165 145 184 109 77 227 183 139 91 112 89 220 208 129 195 91 153 107 161 155 138 123 114 175 158 158 138 229 86 134 195 148 151 27 101 161 29 133 110 112 97 47 196 68 135 68 28 10 119 131 140 141 120 156 50 149 176 65 94 152 178 134 191 141 79 120 49 86 149 145 127 150 151 165 150 141 117 139 139 44 169 110 100 
121 144 166 119 102 185 180 148 68 157 114 99 212 168 80 143 229 157 147 70 85 98 78 135 106 65 123 55 106 125 125 114 125 106 16 113 102 100 221 216 171 150 137 157 188 130 154 147 188 108 168 132 119 82 133 130 163 91 90 154 167 165 124 126 136 93 158 195 81 135 67 97 117 163 102 159 77 136 194 145 91 150 120 151 98 201 196 124 125 101 119 81 96 48 144 84 137 167 59 84 
160 98 26 129 193 145 185 83 110 233 83 92 142 142 133 151 89 80 127 108 96 117 72 114 172 89 175 135 145 242 61 81 133 119 100 160 48 117 146 213 108 110 157 157 123 160 129 82 76 152 153 94 86 106 98 164 67 151 165 126 167 135 157 89 172 76 77 105 83 152 60 99 124 149 80 65 175 172 131 144 151 97 37 212 113 120 103 130 101 37 90 127 146 189 110 149 189 231 185 165 
175 75 69 141 55 148 188 135 142 209 53 143 111 176 116 161 102 176 137 136 110 183 66 111 115 120 103 96 176 84 135 92 83 121 76 168 130 37 100 164 151 107 173 105 177 118 144 84 50 167 75 92 195 76 83 111 101 161 83 77 91 170 176 128 208 81 115 129 163 107 210 54 158 234 94 118 142 105 167 128 198 132 81 182 127 131 123 120 162 198 178 65 220 89 81 150 130 162 138 160 
159 189 131 50 153 90 87 134 106 141 117 125 136 117 32 75 154 149 111 173 102 73 127 111 153 103 157 163 79 95 190 144 88 138 108 135 199 130 130 162 146 69 211 156 146 75 153 100 81 113 110 94 172 54 155 181 151 88 107 174 116 35 157 90 207 175 194 159 97 135 186 58 101 187 122 176 62 100 72 135 103 133 143 130 178 79 154 76 120 183 90 93 188 180 102 124 129 151 41 120 
113 52 115 136 141 102 142 178 172 97 147 59 97 39 139 129 39 98 127 82 189 65 154 209 109 28 117 130 196 145 83 189 81 166 80 156 181 164 162 161 88 57 138 142 150 188 87 173 166 213 85 90 164 75 166 145 154 118 83 52 98 121 56 91 65 87 51 101 220 129 172 69 83 129 63 130 151 138 128 154 75 72 105 127 181 86 149 163 174 63 63 127 139 159 181 108 187 81 118 96 
139 96 95 223 183 231 132 65 132 148 132 95 157 154 117 148 125 159 97 111 134 139 85 113 172 185 144 165 129 143 107 210 178 137 131 94 151 86 95 160 159 215 44 136 82 79 118 124 128 100 186 89 135 107 127 128 94 124 191 107 144 48 79 141 157 182 108 179 190 44 100 195 145 208 150 81 116 166 122 150 188 36 106 119 159 78 107 80 146 65 142 111 99 128 119 152 144 100 187 127 
117 132 84 225 91 213 125 181 126 144 140 88 179 149 82 61 163 143 79 181 92 168 193 113 164 73 133 147 47 64 160 114 156 102 62 99 122 76 220 141 109 101 78 104 75 48 178 129 156 164 131 120 77 72 112 137 198 133 203 127 97 87 130 58 182 198 162 113 206 87 45 83 80 98 143 116 211 132 77 118 94 193 138 80 91 88 170 173 125 124 67 91 182 77 160 180 145 135 44 175 
164 95 50 158 175 132 101 113 148 95 151 159 86 161 141 83 160 110 64 128 148 86 133 195 94 163 102 154 144 220 172 40 96 68 106 93 138 169 157 205 128 160 52 166 94 135 174 128 160 72 166 98 73 100 133 128 92 136 132 132 51 185 97 105 113 71 135 134 142 194 63 99 65 75 131 79 144 154 86 151 131 84 93 14 195 163 162 107 108 55 102 103 190 106 143 99 137 166 55 139 
