P2
100 100
255
64 47 118 135 136 127 93 121 101 154 92 128 54 192 113 126 100 169 132 155 76 110 155 165 204 126 179 156 178 73 150 128 59 100 133 121 86 181 49 82 132 76 122 118 168 83 74 118 174 165 185 158 118 123 140 111 142 139 159 58 160 164 157 201 80 117 160 116 57 149 151 114 190 195 132 182 137 116 136 155 149 89 94 57 98 76 166 71 108 147 146 177 79 41 107 127 195 48 63 189 
97 66 116 70 175 73 72 121 180 54 150 181 210 63 39 137 174 102 103 122 135 106 98 49 121 94 78 130 66 155 178 169 118 55 103 158 98 114 144 59 34 89 150 140 169 87 28 154 162 121 207 80 182 75 27 144 110 177 78 71 23 86 13 64 122 188 92 194 106 144 142 160 148 76 152 134 145 135 152 101 191 114 229 151 160 83 188 136 148 116 131 149 224 91 108 123 138 92 196 111 
135 112 114 100 139 39 166 67 130 87 178 96 45 93 130 142 105 205 76 108 149 152 112 98 157 109 54 153 108 74 213 130 188 66 179 116 143 87 104 199 107 154 84 18 25 149 69 73 144 89 134 130 189 170 67 150 118 132 53 159 59 120 41 66 149 120 119 189 19 130 117 121 43 30 151 95 180 169 177 161 120 99 165 123 105 140 83 151 79 97 102 156 99 98 162 136 77 114 67 100 
177 122 187 169 216 94 123 146 180 109 160 82 86 152 166 45 73 165 132 65 61 136 196 142 110 119 107 158 123 160 167 119 62 171 187 175 149 146 110 94 78 92 77 77 62 88 142 88 138 152 192 207 125 74 87 206 24 143 110 156 131 193 73 145 91 107 190 107 140 143 137 126 156 81 162 108 139 107 158 110 179 101 141 146 184 177 111 101 181 136 160 131 184 138 147 187 134 71 95 226 
144 100 112 148 176 128 151 169 38 155 105 143 96 121 124 191 108 85 177 44 170 153 130 146 97 156 190 93 64 120 101 68 142 115 183 44 152 109 127 144 229 143 129 175 113 163 79 156 134 209 124 83 94 53 98 89 148 87 104 140 158 99 136 107 132 79 120 93 156 136 118 205 125 155 145 117 150 84 94 191 183 155 194 157 146 98 86 118 90 160 95 121 85 231 148 81 38 70 148 177 
65 70 93 88 76 36 173 124 207 53 176 87 149 170 122 84 43 96 180 67 126 70 74 104 145 150 47 84 53 54 30 119 178 151 169 120 150 132 106 125 163 151 149 159 127 131 139 175 110 173 114 180 127 129 149 72 109 91 152 143 177 104 135 234 81 101 113 157 198 145 120 161 174 144 169 184 123 135 133 47 117 96 160 60 156 93 228 204 103 138 97 120 144 146 118 93 38 128 137 141 
159 37 126 204 114 88 161 119 168 131 109 179 115 46 64 157 57 143 179 40 182 62 164 138 96 106 189 142 118 196 165 82 146 60 133 63 128 121 128 159 55 127 122 126 128 55 200 105 179 68 83 163 44 167 159 19 146 94 172 95 129 120 82 175 83 142 69 120 129 193 157 149 110 54 193 155 109 150 138 117 139 112 144 155 130 89 96 99 158 80 109 157 71 129 92 122 129 163 159 169 
107 150 97 188 50 119 146 129 103 112 76 120 173 126 178 91 92 47 135 168 92 87 224 80 42 127 152 173 129 63 83 142 136 170 147 124 49 34 110 174 98 184 118 95 91 94 131 82 114 105 166 137 109 168 126 47 127 128 53 82 153 46 95 103 73 162 86 186 77 124 157 109 135 106 101 142 91 94 161 133 178 58 115 185 86 136 214 83 165 148 155 173 91 120 108 144 84 77 174 158 
90 129 89 120 101 37 89 215 85 109 124 160 131 204 81 207 160 145 100 88 147 83 101 122 130 142 166 175 91 92 152 185 98 219 99 76 168 48 70 157 80 172 122 123 207 198 137 150 127 176 114 142 174 142 62 178 193 123 138 127 160 132 115 109 128 94 169 142 45 166 109 161 145 177 143 103 151 72 151 144 172 148 110 148 81 165 127 205 110 76 116 53 123 82 181 173 128 57 126 72 
93 120 158 104 81 151 79 205 172 170 183 130 145 144 32 113 80 154 148 75 136 167 69 152 137 43 54 117 87 154 121 159 159 57 113 132 20 18 220 86 87 82 146 155 84 107 146 186 80 105 138 121 124 135 178 160 61 129 130 151 94 87 131 114 185 84 107 138 137 100 79 97 156 178 123 145 118 110 93 141 65 152 73 131 159 106 89 127 118 97 133 76 123 169 202 165 132 109 108 119 
62 68 79 51 123 175 105 62 21 113 137 161 66 127 169 101 137 54 145 147 113 105 97 44 129 186 108 143 114 134 162 135 72 97 124 127 121 165 83 82 128 72 135 89 88 188 209 173 210 134 147 131 87 108 165 131 157 85 54 69 137 105 186 69 96 189 86 67 146 93 126 110 161 112 166 158 166 164 107 137 140 130 117 148 113 146 161 97 23 136 190 140 163 189 107 152 104 21 65 87 
147 36 81 149 202 115 225 101 180 145 166 79 220 107 132 117 111 171 127 131 106 231 63 225 80 75 149 150 142 72 203 174 91 138 86 77 116 137 135 134 96 101 122 183 128 138 143 140 151 128 115 133 125 179 138 141 116 209 167 120 89 122 142 171 196 88 135 115 45 103 110 122 89 151 131 187 218 144 188 146 78 74 116 95 118 162 77 174 139 54 112 157 177 155 150 109 213 69 67 166 
133 130 137 98 140 175 154 155 178 144 114 162 138 100 174 151 51 66 78 103 153 36 62 193 166 89 116 180 126 144 146 147 203 21 186 185 203 100 196 137 109 86 139 123 232 212 168 154 88 196 40 152 30 164 136 97 198 135 149 111 123 118 128 97 197 130 59 117 167 132 93 138 77 47 139 123 137 109 34 43 178 100 101 136 92 146 148 154 129 121 56 195 88 52 57 136 103 175 197 109 
113 169 204 187 103 120 100 189 84 90 152 102 72 76 196 122 215 53 79 142 58 176 193 163 73 122 138 145 89 123 141 110 139 207 159 170 85 171 122 120 86 130 81 162 155 153 120 103 206 89 103 114 32 151 142 83 49 121 71 95 26 140 120 102 137 105 93 95 146 103 167 179 86 145 122 116 87 140 143 183 155 84 175 229 120 108 117 218 158 145 119 78 98 144 126 160 57 60 161 142 
157 183 80 83 185 98 115 86 135 137 116 126 162 165 28 160 208 85 106 105 100 119 92 172 82 127 155 178 125 108 142 113 104 82 103 155 207 127 141 105 115 119 149 146 73 127 84 85 135 155 108 218 147 154 158 113 119 62 77 167 104 186 211 142 163 127 95 106 158 104 105 65 123 104 54 113 103 66 188 208 54 123 117 130 82 77 93 154 148 137 181 133 70 116 74 127 174 145 162 113 
95 154 176 214 49 121 98 103 153 116 100 224 63 88 118 79 148 45 116 157 164 64 92 72 87 78 165 116 100 119 203 102 216 124 95 160 114 82 121 135 114 174 97 150 102 95 160 190 101 181 81 169 82 131 62 156 102 128 139 175 61 148 127 102 168 75 69 209 229 29 133 119 115 92 117 109 225 94 149 145 106 109 171 81 109 122 51 127 231 175 116 105 186 53 169 91 47 138 149 149 
61 174 185 153 76 148 136 114 187 182 183 202 141 125 83 173 127 116 140 159 155 118 80 100 161 76 205 146 207 106 103 37 141 38 203 115 163 79 63 27 112 109 112 46 191 36 65 111 153 171 26 221 102 137 157 145 179 70 68 173 170 157 151 127 87 113 48 139 113 164 88 113 130 205 124 131 117 59 207 145 143 166 114 149 118 105 103 96 208 96 63 115 89 175 141 181 101 80 223 143 
31 166 34 152 102 186 169 145 107 144 114 86 30 141 124 77 99 28 160 94 136 161 89 134 93 69 51 167 49 171 159 98 154 63 179 210 119 82 155 69 120 156 189 120 102 116 135 102 60 108 18 159 139 194 119 107 115 208 26 161 143 95 134 208 158 102 156 89 124 179 39 132 48 128 31 111 87 220 112 135 191 126 221 221 126 131 132 29 50 156 101 70 228 194 108 111 130 118 75 158 
173 173 118 55 91 102 138 157 194 144 101 163 148 198 28 107 85 109 86 57 49 61 121 158 147 134 57 143 189 105 124 85 139 49 81 188 119 108 122 81 74 181 122 71 107 158 113 163 147 184 145 51 136 84 95 190 102 148 121 111 26 115 85 101 151 118 156 93 147 108 199 119 158 60 103 121 112 214 200 155 173 160 30 118 118 160 128 126 184 160 127 107 171 136 131 145 63 52 165 54 
93 134 162 73 143 79 52 96 164 61 70 209 131 111 90 120 214 111 120 147 153 131 177 151 111 157 141 93 122 180 147 108 59 122 104 123 68 81 86 62 197 114 136 197 113 150 140 152 209 138 210 79 164 145 137 146 148 191 75 18 136 176 142 145 134 124 125 140 225 114 121 112 52 108 149 105 105 107 125 111 168 154 146 99 123 130 170 150 85 111 71 156 109 70 126 65 110 96 96 74 
161 123 138 122 139 150 111 72 190 146 99 38 157 121 163 120 50 108 128 154 64 179 163 116 105 156 176 119 101 93 126 67 107 139 123 152 85 131 162 138 139 65 117 171 89 107 174 166 95 88 143 109 101 179 172 164 99 157 152 140 25 33 81 169 93 203 144 103 109 97 113 146 155 72 115 192 134 78 144 125 125 101 109 110 97 99 184 139 149 165 109 104 123 142 94 82 110 126 50 115 
147 181 157 236 149 184 73 73 169 95 153 87 155 142 81 178 134 105 144 201 112 195 221 53 124 103 137 79 172 171 53 80 146 105 74 148 43 128 119 143 153 209 120 122 193 124 118 124 166 98 136 39 100 84 158 134 123 112 174 122 142 121 175 122 82 89 129 98 94 205 50 165 186 84 80 114 143 124 104 94 99 106 135 142 91 212 150 92 119 144 109 75 73 158 103 95 88 190 94 123 
147 160 159 117 144 129 142 212 132 213 183 78 118 240 85 112 186 173 172 168 119 106 73 136 147 195 160 120 23 109 139 208 170 94 90 171 143 76 171 200 107 113 111 137 110 95 77 141 102 66 139 71 164 118 101 99 146 167 106 104 166 178 53 175 199 21 118 80 37 89 145 68 105 146 65 104 88 138 99 154 151 77 52 191 58 71 137 111 151 91 171 105 210 70 211 144 75 108 46 179 
179 196 113 76 177 133 100 134 144 157 67 51 82 111 30 79 74 157 98 157 162 133 117 98 87 77 169 59 110 123 139 126 110 123 131 150 115 148 139 106 136 147 110 77 77 128 95 129 183 151 95 92 123 118 88 172 97 60 161 172 189 144 128 107 180 97 155 119 142 126 78 173 112 137 66 168 77 139 125 138 243 147 185 142 191 115 107 131 130 166 167 118 151 132 57 116 186 158 186 60 
88 140 99 148 106 72 220 186 111 109 124 218 40 107 88 103 180 170 149 163 177 179 87 105 166 97 129 92 146 123 96 197 136 151 173 163 143 160 41 171 129 151 47 61 63 41 96 85 103 83 189 148 108 155 162 85 205 90 110 197 122 149 77 166 115 142 90 166 89 52 118 165 121 237 144 123 157 151 116 104 109 191 114 236 171 85 210 96 79 136 150 176 120 59 26 53 114 139 70 76 
121 104 182 156 156 147 213 92 114 167 119 103 182 99 139 137 198 135 80 97 131 81 97 117 82 86 118 91 137 208 131 117 157 94 127 130 195 180 106 173 47 62 102 152 132 154 151 174 103 148 105 42 159 99 114 133 76 111 163 178 147 116 138 97 105 90 112 76 134 65 127 208 80 88 99 22 103 142 67 163 74 113 35 61 161 144 125 128 113 166 59 141 168 131 137 99 150 132 38 95 
141 95 172 118 134 213 142 101 84 200 79 72 79 127 109 168 49 156 95 80 100 135 151 91 124 106 151 73 117 139 132 117 153 136 198 94 99 128 141 151 162 81 144 158 106 137 120 122 172 164 114 116 152 193 66 173 167 140 132 159 85 170 125 91 128 128 154 150 178 98 141 117 115 138 74 79 54 143 105 142 100 67 109 110 143 173 192 185 48 66 116 120 167 137 126 186 132 178 104 83 
94 143 230 98 88 141 63 182 79 146 145 90 170 174 114 109 165 102 117 90 111 126 193 80 74 116 92 112 104 197 86 62 128 102 156 198 133 198 192 87 107 176 162 123 184 213 85 159 92 66 227 176 131 161 151 47 155 142 105 97 132 74 180 123 181 115 190 43 137 94 105 66 181 73 91 187 56 103 120 132 219 141 50 27 133 105 109 58 161 93 180 85 156 110 150 121 121 125 116 112 
114 137 202 167 181 214 108 102 90 133 96 106 161 160 103 159 99 162 194 141 107 133 113 82 173 54 116 201 106 140 136 191 166 191 177 180 98 82 11 172 114 134 162 82 164 92 127 104 109 100 160 112 134 168 167 81 163 134 160 78 201 124 160 153 113 158 94 178 100 123 194 180 153 177 122 56 95 90 135 173 144 109 89 128 166 146 168 92 69 169 116 167 176 153 119 77 163 122 136 134 
134 167 192 42 125 135 108 203 144 159 119 81 119 114 106 196 117 95 184 66 228 202 120 153 137 156 125 104 75 94 65 148 110 126 109 89 144 154 117 185 118 94 89 155 186 92 120 96 77 71 203 140 189 72 89 113 132 154 128 106 127 81 51 169 27 108 152 126 112 66 126 151 165 80 154 191 101 101 96 146 105 156 97 40 181 155 110 198 137 95 109 60 82 201 97 103 126 130 171 140 
66 124 61 143 122 108 200 114 69 147 186 146 26 95 159 58 89 113 100 158 126 139 171 51 160 151 137 103 87 107 53 194 51 184 201 118 180 80 141 142 106 132 13 156 105 31 149 104 95 112 145 176 216 208 119 140 190 80 79 37 96 106 145 155 185 156 83 118 53 154 53 104 182 143 198 131 145 102 140 99 44 137 118 131 134 149 90 165 136 112 67 168 177 136 35 170 97 120 112 107 
120 50 119 189 135 143 156 101 117 148 122 139 145 138 99 114 57 201 191 47 26 174 94 204 146 115 139 65 102 104 192 49 148 62 174 92 65 115 127 82 111 104 212 154 72 157 129 89 101 112 88 36 118 7 93 159 169 88 136 103 143 119 108 73 191 83 91 76 122 170 155 123 199 93 161 126 26 171 199 111 132 67 116 185 202 86 134 173 161 62 194 76 137 96 181 94 69 216 203 108 
122 176 144 124 133 96 98 59 118 102 145 114 90 140 149 154 180 149 108 142 148 184 86 169 156 137 92 179 59 197 66 160 161 153 136 80 101 41 125 134 140 228 155 109 69 148 75 48 140 184 19 110 86 95 200 138 108 145 115 91 211 229 100 71 76 149 89 63 164 115 156 132 162 200 117 207 144 172 179 220 83 18 73 177 81 99 139 130 164 98 99 192 107 170 166 105 85 123 141 169 
88 69 126 148 159 127 84 109 125 109 148 101 168 122 147 172 74 178 144 38 115 168 156 93 172 129 226 161 43 138 133 90 73 110 83 187 124 143 93 165 82 121 127 92 95 37 98 204 164 117 132 85 93 120 145 231 150 74 208 57 149 77 107 139 125 167 107 117 109 105 137 19 97 214 129 83 164 115 213 110 89 107 176 157 118 141 135 189 203 54 141 133 96 192 43 170 145 15 64 141 
102 117 144 156 148 93 144 98 157 174 132 96 141 131 80 187 148 136 175 91 154 143 67 107 109 102 145 104 120 149 132 97 86 157 104 134 168 108 43 181 117 78 101 105 120 107 133 89 192 174 61 88 93 190 95 113 110 101 120 146 233 216 103 121 135 122 128 98 93 71 109 150 125 108 75 154 201 85 121 155 158 176 115 96 99 159 54 79 166 89 149 93 123 59 113 143 149 177 179 176 
78 85 149 131 205 120 73 142 188 186 219 137 137 138 125 143 117 233 89 101 66 62 34 76 178 226 86 141 113 154 198 167 85 121 162 152 165 136 117 82 138 140 117 146 96 82 120 111 155 144 41 132 155 208 83 97 80 47 142 157 142 62 69 183 105 112 115 120 114 46 96 154 138 149 172 85 70 135 184 162 181 171 187 118 128 98 109 155 100 68 186 49 182 156 120 104 71 133 46 139 
168 144 218 118 23 146 193 149 113 100 106 142 103 102 119 173 202 37 156 206 141 136 94 70 98 188 151 201 162 91 107 146 236 135 157 104 102 187 123 222 55 136 173 174 204 94 173 140 175 47 116 59 187 178 161 172 154 76 206 106 191 128 104 56 148 129 66 63 120 156 101 122 104 111 75 154 102 185 44 121 154 74 142 140 149 118 112 129 123 160 119 71 163 188 111 219 93 72 55 122 
116 112 81 132 171 125 154 88 134 151 145 164 90 125 146 152 164 155 192 140 145 133 136 160 168 101 62 179 128 171 161 155 146 222 128 164 119 85 92 125 112 157 152 131 136 95 101 102 46 104 26 170 94 147 96 100 113 84 69 194 152 216 52 135 149 75 122 99 56 191 162 118 34 100 87 170 89 102 185 130 94 138 51 145 207 57 175 159 203 41 64 50 165 220 81 103 130 129 131 98 
91 143 128 150 183 129 145 134 171 187 119 132 207 194 122 114 179 116 113 135 127 103 127 83 94 153 130 176 137 76 142 197 140 223 108 92 101 109 121 139 160 160 120 109 73 159 169 98 119 80 72 143 170 130 154 124 169 214 99 116 183 138 112 137 161 109 28 160 129 67 87 197 142 203 175 117 144 156 53 175 176 74 111 94 94 109 159 175 141 120 122 152 83 196 164 54 160 98 176 69 
65 129 102 61 61 170 51 136 104 149 130 144 25 99 96 95 139 127 180 138 119 100 121 116 139 108 195 60 163 129 109 77 170 141 133 230 95 135 66 144 160 151 80 102 63 100 187 113 132 127 104 132 80 44 140 91 92 139 143 17 130 74 109 138 66 146 180 94 33 108 183 105 128 131 69 88 193 109 174 29 183 165 172 205 135 171 178 159 42 68 225 135 132 180 142 127 85 134 152 85 
164 128 152 196 43 99 148 126 150 172 195 156 171 87 126 130 99 149 29 96 171 96 112 133 178 158 86 99 83 186 114 161 88 112 165 66 106 112 116 82 60 140 136 179 165 130 166 170 147 113 221 73 193 20 156 143 156 109 79 127 138 107 151 135 123 116 65 112 87 125 66 158 73 200 80 117 166 112 126 135 111 101 145 86 215 158 148 41 124 166 139 132 97 107 174 143 201 143 136 206 
67 84 114 88 178 182 66 30 162 160 205 190 97 100 139 68 151 147 47 174 137 178 98 21 138 189 149 78 160 106 81 192 139 171 64 134 131 181 151 115 60 125 123 176 109 76 120 91 98 207 148 123 124 171 164 90 116 127 169 160 78 89 74 70 154 183 119 178 129 87 182 167 117 132 108 177 221 106 69 40 142 139 138 170 156 50 111 131 173 56 95 90 113 157 49 99 162 162 171 89 
149 189 90 96 112 129 130 160 231 180 81 140 168 41 152 129 118 158 98 76 195 150 30 171 186 168 99 212 84 125 152 94 217 115 91 115 105 74 128 155 138 111 85 142 74 78 107 160 92 175 158 141 97 91 73 46 110 117 76 201 128 194 126 66 169 119 188 105 183 193 103 145 178 129 103 160 83 53 86 152 57 122 166 188 103 54 81 146 124 85 149 117 144 185 94 93 194 90 65 96 
90 97 124 60 238 199 61 124 139 113 94 72 163 129 72 52 146 121 143 170 116 114 192 117 143 157 137 166 131 188 223 60 150 157 69 152 62 128 105 72 145 98 184 97 136 67 89 128 104 151 200 119 167 205 127 99 138 145 82 104 96 103 121 77 152 154 169 74 204 120 149 75 111 157 161 102 103 152 86 114 28 180 57 99 113 172 182 79 207 171 140 71 116 117 83 122 152 79 110 181 
198 149 114 125 117 83 159 90 147 107 140 175 90 193 106 186 100 159 120 106 175 93 92 123 84 114 79 143 73 97 169 126 101 195 141 139 91 71 125 154 163 167 77 113 178 135 182 121 154 115 80 206 139 154 185 84 112 142 200 46 161 33 73 101 217 154 157 130 123 144 130 98 68 148 71 182 69 106 74 96 126 122 103 128 68 126 196 125 104 66 144 167 149 146 179 92 138 168 108 57 
124 75 79 123 65 137 39 187 154 163 87 85 146 140 98 203 96 59 170 141 204 176 94 149 93 131 42 84 85 122 160 69 138 118 192 178 139 205 122 61 96 166 147 75 178 84 207 126 109 179 167 95 88 56 99 114 106 142 186 128 115 171 113 134 58 147 179 200 88 174 192 211 233 158 65 128 136 105 99 43 129 121 160 172 126 218 119 171 24 34 133 179 65 196 154 162 151 144 148 91 
104 132 103 99 100 179 136 77 140 71 175 168 71 110 130 120 75 105 202 125 131 71 174 120 184 64 156 72 163 120 168 146 160 194 152 70 171 140 112 142 125 92 47 165 154 167 144 77 110 74 165 58 110 180 175 93 182 102 81 127 149 160 116 151 89 60 115 114 69 155 118 138 139 215 95 189 43 170 128 121 31 158 103 128 210 103 132 160 137 93 120 67 56 128 62 43 147 157 152 135 
15 136 36 124 161 121 122 174 130 191 157 222 104 164 150 175 39 91 182 95 144 114 109 94 155 162 100 184 96 86 180 212 206 177 151 164 113 35 94 176 181 186 117 78 101 109 129 100 109 127 129 111 114 124 201 122 111 109 132 120 99 192 105 136 121 123 147 148 108 105 148 48 32 160 108 53 182 148 162 118 186 150 103 146 187 151 94 186 124 153 67 221 106 58 97 200 148 207 133 138 
191 91 121 135 172 38 112 26 79 165 85 162 154 126 196 142 104 134 102 55 129 115 199 98 148 171 94 169 185 161 155 88 166 115 123 63 189 151 135 110 167 159 69 140 123 179 142 112 97 50 189 168 122 99 95 142 149 128 163 68 116 118 88 131 118 203 87 142 88 190 110 88 190 96 118 192 105 155 102 179 24 133 123 150 73 156 223 160 147 178 161 150 137 133 145 99 144 121 140 219 
137 109 81 87 138 75 197 99 137 38 158 150 160 85 154 123 181 125 172 122 150 83 67 64 195 90 190 150 113 110 113 111 130 157 83 134 200 177 126 119 181 115 132 215 125 147 127 103 132 95 85 125 137 134 73 130 60 117 179 194 154 127 107 151 108 134 138 209 144 57 115 76 186 92 101 75 201 45 142 154 111 159 136 102 204 148 49 207 125 138 101 66 78 112 139 81 109 116 127 73 
85 78 118 121 124 91 89 86 67 99 147 132 74 183 132 155 167 73 180 152 57 136 163 48 178 140 92 215 24 92 72 172 97 163 143 63 137 128 140 95 161 218 147 152 214 100 194 160 84 119 132 96 88 170 92 131 54 122 120 80 101 157 78 79 92 127 157 77 125 152 141 201 135 155 93 101 173 59 132 196 67 37 189 52 141 136 121 120 103 68 121 121 139 102 155 133 187 133 176 114 
150 197 113 130 195 62 176 57 151 65 165 121 123 147 129 63 206 114 124 73 141 14 140 144 225 165 223 113 145 46 85 162 55 104 175 164 97 194 17 135 183 30 106 94 183 110 133 87 127 110 142 73 181 166 135 120 169 202 126 147 183 53 60 124 102 164 119 171 104 120 155 102 98 147 168 146 115 175 224 150 172 199 132 125 137 110 57 120 128 87 138 96 58 144 110 141 231 142 113 57 
130 18 152 144 104 196 67 159 49 161 110 157 147 178 141 46 151 185 91 151 122 128 117 132 104 52 191 110 128 73 144 181 105 148 54 165 105 86 85 88 105 191 113 91 70 160 170 82 165 130 117 143 67 83 172 98 162 88 116 80 211 220 85 116 100 153 114 89 138 138 147 64 131 132 136 167 133 40 132 134 128 121 77 219 106 105 215 114 68 110 71 113 51 147 169 124 145 34 187 108 
94 193 145 76 91 36 209 145 59 41 92 150 40 76 170 211 172 167 123 62 155 222 83 158 138 114 166 108 214 211 134 117 140 136 167 148 112 121 125 174 199 125 163 203 134 179 189 31 143 187 102 91 130 194 186 134 162 99 48 176 155 194 98 149 171 188 103 142 204 65 177 188 101 121 80 68 174 155 126 118 108 95 154 157 168 49 98 143 120 106 147 82 120 125 32 152 86 162 137 133 
77 192 154 74 110 136 239 81 115 98 155 132 192 101 158 109 167 136 108 207 120 114 161 195 97 170 115 85 26 35 153 149 158 147 44 123 89 164 212 109 118 98 172 126 62 162 144 53 94 157 56 96 81 205 25 161 142 79 71 130 121 108 105 188 143 84 75 185 148 102 150 158 138 121 124 70 133 164 190 158 146 109 105 169 172 188 139 168 181 141 123 78 158 139 177 75 203 94 158 24 
87 186 83 102 196 145 183 78 55 166 90 93 150 124 97 179 125 125 184 89 93 136 60 219 183 209 213 81 223 149 105 64 90 97 111 171 96 55 56 142 214 115 109 157 207 110 60 62 77 182 94 140 149 99 170 104 140 107 181 202 146 166 80 159 92 52 130 163 82 110 150 51 170 91 186 127 128 94 143 108 128 102 151 127 188 148 164 167 194 48 135 226 123 112 69 90 130 131 127 101 
149 116 152 124 104 154 180 49 142 84 91 174 182 104 152 113 189 129 181 119 119 92 167 85 145 198 156 165 190 75 96 151 26 87 107 194 153 159 100 147 129 153 134 157 159 170 167 96 169 141 34 140 65 190 108 46 129 118 45 102 118 159 112 115 98 144 59 63 129 132 170 119 110 129 95 198 134 150 120 211 163 140 71 119 86 184 155 46 188 64 156 143 93 149 146 169 75 128 109 103 
44 135 187 81 98 160 81 130 123 61 198 128 165 127 69 124 95 87 170 70 131 159 131 56 107 79 160 110 102 183 183 56 123 129 99 65 147 159 184 47 105 161 96 185 172 90 169 114 125 166 49 70 155 32 135 217 152 147 115 54 76 101 121 168 137 189 52 126 94 82 119 29 113 110 154 151 116 71 222 146 106 147 199 64 83 87 99 129 175 177 131 141 91 123 193 168 175 66 73 119 
94 31 131 110 116 112 120 147 182 143 181 144 149 202 55 161 157 194 122 115 164 72 134 110 77 102 135 97 169 219 143 76 136 186 219 135 157 64 199 88 115 174 81 180 68 162 176 113 137 164 65 175 99 155 188 167 171 156 65 103 205 141 122 149 148 135 87 191 174 72 156 190 120 88 121 159 103 65 124 158 176 175 88 159 115 184 168 96 156 77 105 148 171 77 124 113 79 150 221 80 
156 177 168 126 54 122 116 37 123 211 98 158 68 100 153 76 149 126 169 153 162 85 205 190 179 99 144 99 87 149 139 157 137 154 102 148 153 141 170 219 96 123 146 173 52 49 109 49 190 112 117 121 130 159 18 168 78 102 88 63 127 141 118 61 129 153 68 40 120 97 61 178 70 24 159 55 153 114 161 190 117 178 106 64 120 110 211 150 199 49 177 121 138 39 212 181 95 109 80 72 
134 159 121 167 69 91 71 113 160 133 205 97 68 88 189 51 142 155 210 121 154 51 107 183 77 121 119 68 104 154 166 112 150 153 43 134 147 127 39 163 133 70 216 186 176 99 148 75 77 133 95 147 70 140 180 128 175 180 114 148 107 196 189 187 89 184 68 193 74 72 103 139 132 70 167 156 182 93 116 94 59 81 92 111 140 124 125 131 83 159 119 136 146 160 200 150 86 165 49 146 
94 89 82 79 137 89 80 152 146 156 165 175 125 171 121 156 192 170 123 143 118 133 104 171 119 82 80 74 154 85 187 152 116 94 148 137 118 124 120 33 98 208 107 124 54 66 131 187 140 183 113 129 172 213 130 122 140 149 164 100 130 70 101 133 59 93 78 132 147 184 173 229 140 165 60 182 42 189 136 117 137 118 125 111 35 131 115 100 150 144 104 95 126 117 127 134 102 100 47 77 
127 194 124 149 49 190 157 38 187 77 163 134 185 97 67 163 246 152 169 97 49 133 144 57 139 147 95 75 97 103 58 37 131 144 115 67 118 117 246 188 24 127 83 103 166 122 93 93 64 141 96 128 151 166 135 165 152 153 102 117 182 15 99 97 132 196 156 161 120 156 82 149 208 192 73 84 104 61 113 124 66 145 85 112 129 82 76 103 121 212 125 136 157 97 116 148 187 200 11 150 
187 189 103 115 175 134 67 123 212 120 73 153 127 122 83 58 118 203 135 165 132 127 133 105 207 106 74 48 120 132 108 136 66 121 105 118 178 157 151 122 167 184 95 78 129 137 109 152 184 105 38 130 108 196 173 151 92 98 77 162 179 114 172 91 76 138 157 74 105 151 150 132 34 142 80 142 156 146 76 135 131 137 185 123 108 105 144 113 168 204 99 163 114 130 168 90 61 121 157 197 
79 152 193 99 161 122 160 214 73 176 105 129 171 157 165 73 102 117 164 180 119 165 80 214 110 155 133 178 154 70 162 59 109 111 84 96 109 87 91 98 106 113 30 115 85 105 139 44 108 130 172 134 140 134 111 128 115 52 98 191 99 132 153 116 101 104 68 183 83 139 127 136 162 169 161 122 90 98 202 38 61 128 70 145 82 110 82 69 187 117 72 39 144 153 155 72 134 136 135 141 
76 155 73 122 133 108 228 45 159 59 57 95 103 187 138 77 139 150 80 125 125 130 118 135 134 113 131 187 84 147 204 216 68 135 102 124 115 128 94 60 159 109 144 94 123 93 27 119 150 176 93 159 56 40 170 87 164 94 98 169 135 110 200 65 184 162 183 125 139 126 139 138 176 132 99 166 53 192 115 122 118 91 61 142 125 91 142 87 97 142 211 110 115 110 100 195 123 158 108 145 
96 93 227 191 115 85 200 103 132 160 92 147 111 218 174 171 151 82 133 123 121 104 141 120 123 158 31 137 132 84 154 113 112 89 131 143 154 74 169 65 110 154 87 65 86 116 125 102 205 135 116 175 113 191 119 43 183 130 154 114 162 149 235 76 133 128 190 164 216 102 77 113 133 174 106 92 81 115 182 236 121 28 65 80 145 126 177 243 153 116 137 41 124 151 45 163 63 123 122 111 
219 124 164 179 40 117 126 52 61 51 132 124 78 114 141 122 117 86 107 72 142 59 108 79 113 172 192 114 142 148 130 119 74 196 140 129 53 89 33 145 106 211 205 183 125 107 179 65 125 95 170 204 117 194 139 111 93 159 148 93 96 179 126 126 143 169 90 188 76 38 84 92 110 153 130 92 60 157 102 137 168 155 142 194 49 210 122 61 148 185 108 58 133 47 121 58 144 134 213 83 
201 160 65 146 135 116 138 112 97 147 103 165 71 129 55 69 167 194 123 150 155 99 99 174 144 116 146 169 100 124 114 182 142 199 135 141 83 36 150 69 62 81 153 72 186 133 146 135 153 218 11 149 45 159 85 135 182 78 117 189 155 97 133 116 141 44 50 200 165 119 195 137 123 129 175 74 196 117 154 110 83 149 147 80 151 67 206 161 141 102 71 153 164 144 141 58 150 68 144 101 
129 96 133 118 172 123 187 111 75 101 120 59 194 114 183 141 107 170 208 115 86 74 169 92 172 69 187 69 90 93 51 75 181 132 236 85 62 74 126 130 96 57 109 92 120 40 193 114 131 102 84 87 121 167 27 221 106 92 96 148 76 181 120 140 143 64 104 132 145 177 116 148 137 118 193 111 62 167 179 95 92 100 95 89 198 165 152 127 225 128 154 196 95 95 155 101 145 126 140 72 
110 179 208 80 153 131 162 103 123 154 165 114 158 113 109 170 147 175 129 62 84 17 127 121 118 154 169 158 93 101 99 103 165 104 79 101 18 142 155 155 204 60 161 183 107 104 151 94 146 101 171 102 80 161 159 163 128 143 141 126 142 30 40 160 178 123 176 141 156 98 129 160 152 149 89 208 133 98 193 81 113 96 135 94 49 105 51 95 178 153 108 155 160 155 154 163 148 87 174 83 
102 110 171 106 112 98 142 168 206 138 71 152 194 81 36 151 90 100 68 196 190 194 207 159 33 110 111 126 190 145 82 126 166 102 103 23 198 55 158 147 138 73 92 150 180 95 70 168 138 165 93 116 168 96 79 111 146 148 217 83 145 95 151 136 105 148 94 157 194 59 185 66 84 184 128 145 114 227 90 69 108 117 204 113 95 145 183 152 136 48 66 219 101 42 187 137 152 101 122 124 
112 145 177 122 132 112 151 188 139 132 155 78 152 140 223 145 27 141 89 139 106 122 81 186 117 112 107 81 112 112 147 115 133 154 52 22 158 113 159 84 186 144 98 133 144 98 118 104 150 160 121 78 57 50 67 67 143 91 35 110 115 140 215 135 164 113 170 136 51 150 196 77 149 26 74 62 148 192 86 92 76 171 150 176 115 169 97 68 187 60 126 195 203 158 105 182 170 156 167 156 
140 157 145 178 156 135 130 134 87 118 162 176 85 109 130 186 217 155 125 166 82 74 207 96 106 148 129 110 41 166 43 149 148 105 201 186 180 205 125 78 127 131 63 74 115 173 72 50 222 164 139 131 137 149 177 147 91 189 172 177 103 134 143 103 99 166 16 134 109 165 168 117 171 141 73 100 123 102 168 131 223 115 123 143 141 101 153 119 71 148 203 226 113 98 53 184 105 28 108 111 
170 185 89 122 96 140 47 84 33 130 92 162 47 171 88 182 82 154 136 75 183 231 136 164 126 141 121 112 161 63 90 88 150 135 76 218 95 209 86 147 157 178 198 91 181 140 117 135 38 46 109 87 111 134 162 171 153 150 60 139 212 136 118 145 99 104 166 104 108 82 112 141 166 44 56 171 151 79 83 136 97 91 193 63 137 151 194 166 152 94 157 81 139 53 148 137 130 78 170 90 
168 63 157 65 175 162 164 82 165 133 66 169 104 121 40 122 159 64 159 186 107 224 162 96 139 33 66 175 141 125 113 152 29 88 131 136 140 69 153 145 131 135 121 156 141 43 137 78 150 122 68 118 103 53 143 73 107 42 97 156 74 77 178 111 169 114 85 175 116 94 183 85 163 102 104 74 60 112 108 173 151 141 160 215 109 106 63 161 74 87 110 129 153 120 83 185 150 150 141 184 
138 155 145 132 202 140 156 108 151 120 124 139 136 40 169 178 167 116 149 138 199 95 195 143 68 136 107 125 129 224 185 44 127 190 149 134 134 134 112 104 164 186 177 136 131 54 71 147 166 178 61 79 134 133 155 73 148 47 162 129 134 86 200 198 91 89 156 133 36 136 27 181 173 166 55 151 150 99 137 121 61 162 214 27 105 178 77 63 204 82 117 84 151 145 135 110 171 108 71 154 
110 171 227 192 176 126 102 104 89 180 112 126 178 65 60 148 111 115 116 99 174 105 127 170 194 86 94 190 189 104 124 120 179 185 171 142 157 153 180 155 175 198 150 137 115 41 91 115 166 124 107 181 84 106 143 142 164 145 36 72 180 76 69 108 106 109 97 149 93 152 146 206 147 101 97 127 216 193 166 171 169 157 108 123 187 206 128 103 74 104 179 145 132 20 131 183 179 81 113 97 
94 156 161 58 129 178 57 52 121 118 189 67 199 109 94 152 157 43 100 145 183 106 61 127 121 201 147 140 62 191 100 189 78 154 136 83 142 129 153 154 151 118 117 180 138 80 83 144 141 85 69 72 76 110 109 114 164 72 153 96 34 114 91 155 212 130 109 86 142 100 31 185 187 66 119 119 82 133 143 38 121 69 138 164 75 149 113 49 86 147 117 176 161 169 114 133 64 85 163 208 
78 144 81 162 206 103 108 140 99 115 61 124 98 164 130 44 156 130 189 118 150 80 182 221 119 86 82 54 123 54 122 182 146 55 89 122 124 83 214 168 197 55 127 87 113 189 124 74 203 191 172 162 176 29 159 90 90 113 173 148 70 153 154 147 113 170 118 147 95 76 160 91 72 129 150 213 115 161 171 153 119 147 173 148 136 163 95 118 106 52 32 172 125 80 133 123 177 137 137 174 
88 36 116 151 145 81 125 143 60 86 159 231 114 55 110 136 74 141 169 124 126 124 73 151 124 93 150 172 167 165 112 180 61 72 106 111 118 129 56 172 210 55 56 201 39 126 162 161 116 100 56 126 118 196 74 159 122 103 168 146 218 143 67 147 77 103 127 183 151 105 163 152 157 106 149 200 66 151 78 114 169 125 21 71 235 102 95 194 168 138 202 191 98 215 186 145 171 74 138 103 
153 138 153 196 123 106 100 134 85 119 22 115 143 147 118 155 52 86 148 145 177 108 146 101 44 102 54 154 132 138 138 114 115 187 119 156 190 92 108 196 164 185 164 100 140 101 63 177 193 98 86 94 51 150 145 57 162 90 42 184 121 153 132 156 139 93 137 102 51 95 96 189 114 168 227 104 146 92 121 117 127 69 187 176 122 150 174 126 62 131 67 91 98 123 183 79 131 134 148 55 
159 140 133 104 96 69 173 174 185 73 92 180 84 75 106 165 98 131 107 95 15 163 34 141 88 99 179 72 68 134 208 139 98 68 73 165 107 171 126 107 147 99 61 115 123 119 137 69 158 142 144 126 152 117 95 157 136 107 151 229 85 91 37 89 184 88 225 57 70 133 139 110 126 140 139 105 144 206 164 118 174 98 92 120 150 120 65 165 129 95 117 163 70 153 150 102 149 143 179 129 
158 55 184 99 121 149 139 180 137 97 151 159 67 132 102 107 115 156 142 153 122 64 146 111 118 94 129 171 173 134 135 157 191 156 73 124 56 95 112 38 132 33 80 134 160 92 70 129 106 125 94 124 89 73 119 192 121 131 69 76 156 129 136 146 127 134 138 71 158 115 187 156 77 112 157 54 101 153 107 100 103 57 170 151 113 133 62 135 123 150 104 113 119 134 152 105 182 170 177 148 
114 97 49 108 154 73 73 76 51 115 148 93 172 156 65 112 221 84 163 104 61 189 116 135 102 104 81 114 104 130 173 179 70 174 189 231 123 105 91 180 127 106 155 94 116 125 127 167 95 176 159 92 153 161 98 162 191 118 80 115 100 136 171 134 141 70 104 150 195 169 86 89 205 189 190 43 136 96 98 76 149 103 57 148 96 73 118 108 93 170 146 93 135 160 190 153 106 143 160 102 
118 113 153 194 117 118 133 108 55 160 148 69 136 96 39 160 151 142 135 190 124 112 88 122 177 112 138 138 137 126 188 118 197 178 159 167 91 72 113 144 126 115 68 182 89 55 118 154 158 67 142 171 142 118 181 217 130 122 140 174 127 102 109 119 169 121 148 100 145 141 84 75 127 180 219 117 136 234 171 188 79 98 48 140 127 166 93 119 178 165 121 140 203 37 87 184 85 98 75 89 
135 137 150 134 77 194 123 89 164 100 151 179 128 152 84 116 130 150 80 127 136 111 168 155 181 113 134 174 80 139 123 139 132 90 114 172 121 109 108 155 117 101 180 89 94 118 48 150 86 120 162 131 155 135 115 99 94 175 130 234 77 170 108 157 153 161 193 69 79 173 124 152 146 133 36 111 49 51 147 108 157 117 92 108 205 144 118 139 91 166 46 69 155 164 89 156 67 108 24 131 
125 63 97 123 190 127 124 179 58 57 172 171 82 128 107 105 184 113 145 83 212 112 90 180 54 224 149 151 132 106 172 158 50 101 179 77 71 95 129 236 128 67 59 101 216 102 121 105 108 137 136 86 88 154 133 150 32 132 78 193 170 33 115 130 92 119 128 168 88 71 179 61 140 148 164 130 172 133 147 45 185 75 135 22 137 165 148 103 155 141 169 92 181 68 94 221 110 192 144 164 
124 139 136 171 165 181 97 167 130 183 161 61 107 136 184 117 70 28 129 118 80 94 172 93 108 117 149 213 130 220 145 130 70 162 174 147 127 136 171 81 116 115 112 92 122 132 78 142 170 164 148 103 162 156 140 107 50 157 131 99 70 63 102 94 51 155 182 105 57 182 27 162 146 55 132 137 126 159 205 96 223 114 174 60 102 77 214 181 207 143 100 62 187 102 196 148 131 133 190 51 
148 155 131 142 131 154 105 204 115 137 121 73 158 96 92 77 113 133 173 114 120 115 142 39 156 107 195 226 126 128 116 107 163 157 126 167 166 142 76 42 3 101 103 111 158 204 98 90 125 82 119 135 146 159 137 132 134 124 152 152 75 99 130 50 177 113 129 91 168 141 195 41 120 137 66 111 74 146 147 153 132 74 150 106 129 103 143 166 115 69 142 185 162 104 121 139 102 164 153 129 
150 55 97 93 94 125 93 120 120 147 211 128 127 109 170 128 122 123 150 192 127 117 86 194 138 134 115 118 43 120 156 233 128 146 181 176 202 102 187 171 105 85 116 88 142 163 138 128 176 70 134 77 139 121 96 122 192 127 220 70 110 143 103 199 130 198 161 110 162 106 109 156 150 105 91 84 166 171 76 65 151 183 86 135 90 55 202 161 167 69 157 78 87 149 145 123 140 127 69 102 
102 97 36 179 129 109 26 128 53 77 112 208 130 137 118 194 232 169 176 160 119 75 59 125 139 127 120 142 96 98 130 146 121 75 140 89 159 62 115 103 108 202 129 86 80 131 62 202 98 169 75 156 116 130 79 145 170 122 174 174 211 135 90 52 136 164 157 59 158 127 132 87 98 127 136 59 117 153 84 19 57 133 124 51 101 30 104 96 133 60 240 115 82 73 167 133 110 181 94 121 
141 73 94 143 127 121 86 125 44 158 102 167 134 142 135 113 95 27 86 62 124 88 78 73 154 70 112 141 143 110 166 133 201 149 160 139 101 122 67 160 202 84 149 114 182 116 154 182 105 155 181 121 112 79 180 135 138 123 81 101 83 78 58 122 157 131 69 71 128 135 133 209 153 154 107 79 54 150 132 115 86 103 164 114 175 112 210 125 107 73 118 19 114 84 77 199 158 152 84 113 
195 130 108 112 69 100 134 157 210 182 110 165 31 163 181 90 99 146 134 155 151 107 178 159 98 214 52 137 24 203 73 145 108 53 118 147 210 130 74 107 115 90 139 137 187 95 119 125 162 81 106 159 236 106 102 177 136 100 108 84 171 76 66 117 171 101 125 147 115 227 63 182 174 133 130 118 109 108 209 86 119 99 151 182 105 89 151 129 101 115 73 102 124 153 95 142 156 198 86 71 
97 105 157 189 172 107 202 154 171 72 95 125 198 183 144 196 89 157 119 137 156 130 105 114 113 175 157 240 146 126 182 119 169 78 113 99 124 194 246 91 121 168 85 180 46 41 182 203 92 160 67 129 123 49 178 92 91 49 53 117 162 121 138 121 174 130 85 179 115 83 185 90 46 84 204 168 208 85 94 70 101 99 153 85 94 164 116 89 73 150 96 214 224 107 145 175 119 106 218 98 
62 147 112 124 92 182 135 130 106 181 111 20 137 133 165 117 128 148 123 109 75 187 102 66 114 129 117 92 103 139 52 28 214 159 154 132 199 158 129 168 179 188 124 89 199 171 143 132 43 137 37 114 143 147 104 148 135 111 85 159 152 151 169 100 51 120 136 115 103 164 130 163 127 129 202 93 119 107 180 241 159 133 214 192 91 135 68 160 211 155 94 86 113 163 104 114 106 146 103 130 
154 161 238 71 89 115 123 92 146 113 169 104 198 91 180 120 84 167 207 148 183 108 147 119 67 61 162 195 41 139 141 78 75 178 65 142 121 99 152 66 186 122 134 191 52 138 118 95 135 140 133 130 102 151 80 115 85 119 185 155 58 164 197 48 160 162 132 97 158 148 144 94 65 151 99 104 168 160 65 85 172 126 135 125 140 59 145 123 123 204 74 193 120 67 120 125 61 189 134 186 
124 131 163 92 109 132 47 134 189 114 124 96 162 187 132 196 100 151 179 143 91 82 163 78 119 76 63 97 120 142 166 78 181 186 109 229 84 76 110 94 68 117 123 116 177 96 124 122 128 145 131 136 53 143 119 188 91 158 184 116 144 85 103 160 128 105 194 156 57 104 102 153 201 166 128 170 138 114 51 110 149 106 132 79 79 115 137 161 89 85 134 166 194 125 133 132 170 88 166 144 
107 164 91 167 112 225 106 160 127 142 183 167 77 70 121 92 155 190 141 207 150 115 153 203 78 177 89 143 63 132 130 126 135 175 104 154 107 137 172 144 121 64 135 160 93 121 159 133 50 113 68 125 134 167 155 166 111 164 167 128 213 144 66 58 119 195 109 137 216 86 195 123 188 137 124 102 190 191 110 89 160 167 27 59 168 165 117 77 43 149 222 111 163 126 192 86 145 81 200 107 
135 101 155 126 177 115 164 159 147 110 172 105 126 121 118 104 99 158 189 181 151 43 206 104 78 93 68 72 87 155 149 126 129 98 111 172 146 161 187 142 176 191 81 52 167 187 183 48 65 152 94 86 154 130 183 25 113 62 127 114 166 75 93 103 148 98 131 110 197 90 197 163 171 70 175 156 38 61 156 158 184 135 113 131 122 170 148 152 144 86 181 121 134 142 112 235 215 134 127 70 
