P2
100 100
255
84 210 94 103 142 138 154 129 111 118 107 162 140 88 182 109 204 136 185 161 115 67 143 101 109 132 71 154 86 58 150 144 206 98 134 207 181 97 110 129 129 120 73 81 92 146 74 94 208 84 151 122 102 132 126 134 133 102 160 81 133 39 195 183 180 81 97 80 90 153 153 81 112 185 136 63 143 153 204 135 206 61 171 204 82 46 71 168 135 133 146 194 148 102 117 169 156 85 96 181 
136 172 144 168 155 153 75 109 158 140 119 185 177 207 188 185 195 224 120 189 45 117 129 121 148 161 120 109 161 130 68 98 83 64 113 87 78 104 160 127 118 117 150 74 130 141 105 141 138 188 146 186 118 100 163 102 104 111 82 234 150 34 124 106 143 108 195 127 114 205 162 156 110 178 175 58 87 83 76 130 113 136 100 177 217 149 162 152 126 107 112 98 122 96 119 121 92 136 10 129 
158 83 132 158 68 176 149 178 179 92 132 187 78 171 133 143 77 125 139 172 96 172 33 131 140 68 88 105 119 94 99 117 81 137 78 160 105 165 65 146 196 125 59 151 66 117 140 100 89 111 202 198 149 198 83 209 106 129 105 166 108 158 125 88 90 70 169 174 102 100 126 184 176 125 171 84 119 120 131 129 45 170 104 179 167 89 137 109 118 156 79 42 79 135 134 145 142 118 67 132 
156 102 103 125 121 164 126 99 172 66 98 129 141 156 193 143 208 141 201 65 121 140 91 223 48 80 117 108 176 139 217 126 185 148 193 166 218 109 125 164 94 147 113 86 185 92 128 56 211 98 120 158 141 81 61 62 175 44 118 121 114 136 86 181 161 111 117 142 87 131 181 175 195 96 166 127 129 75 78 122 149 134 80 111 126 112 137 109 111 60 148 106 82 193 92 137 167 103 92 195 
137 116 113 32 158 78 148 114 123 95 164 154 144 136 85 139 62 116 191 152 120 125 173 149 118 71 101 191 169 84 139 118 89 93 29 218 84 109 145 212 190 169 86 173 108 104 168 123 78 154 94 48 152 128 139 110 140 190 153 125 149 83 99 82 139 72 67 181 159 180 103 136 107 143 139 161 80 197 141 188 138 198 72 157 95 71 140 67 138 191 145 120 79 95 122 92 122 103 145 58 
116 81 136 83 60 234 143 181 113 169 145 185 64 118 109 118 73 189 95 156 147 67 162 148 145 119 99 106 152 90 100 110 144 169 37 27 232 130 117 109 163 125 103 121 152 22 73 136 179 84 92 140 177 159 134 158 103 120 143 185 222 102 130 135 139 104 167 37 153 203 84 155 178 149 57 143 129 145 155 117 197 149 120 82 112 103 138 185 72 145 91 150 105 140 150 157 147 125 116 163 
82 142 136 123 110 66 138 151 192 146 119 156 189 238 64 110 175 165 75 111 188 102 78 119 57 160 76 182 47 130 212 42 44 116 102 201 108 184 61 163 183 73 119 94 166 153 172 127 129 155 179 120 136 100 203 108 89 106 174 155 117 36 162 159 128 111 211 117 96 186 112 104 160 111 130 158 137 142 115 170 121 151 214 185 84 98 221 125 93 72 162 120 119 103 161 74 178 75 103 42 
92 226 141 128 129 175 143 146 148 160 136 94 147 99 98 126 100 197 148 214 109 78 161 128 97 98 101 176 164 132 119 145 149 73 165 129 40 190 142 170 107 61 130 175 106 87 148 95 41 124 160 176 218 126 133 154 186 108 155 105 94 186 161 71 160 96 142 50 144 101 122 173 49 60 205 153 140 71 162 165 124 95 92 162 167 111 104 84 80 182 199 108 130 153 189 55 122 165 84 110 
91 78 63 193 118 118 71 84 123 163 89 86 123 103 135 159 165 152 191 58 52 145 126 27 102 182 170 24 103 96 183 103 38 100 137 155 143 77 113 111 112 174 157 85 122 143 193 80 93 111 187 113 126 139 121 98 134 91 137 75 118 93 119 147 69 154 120 126 181 50 180 161 98 59 122 104 53 143 184 108 99 130 141 156 186 192 132 136 119 69 128 164 100 104 94 139 68 190 117 138 
117 93 230 97 144 169 156 157 192 132 158 169 76 98 115 112 137 81 84 92 87 138 119 138 190 96 71 160 104 105 160 122 141 85 116 124 135 145 144 70 148 97 182 57 138 137 214 117 205 69 203 81 110 93 62 70 106 59 81 135 167 163 182 122 210 146 134 61 94 111 209 132 66 156 190 186 142 176 107 167 225 85 205 33 89 92 135 117 161 155 116 187 138 145 203 138 96 93 93 146 
105 201 149 202 61 119 103 24 66 206 158 137 209 135 113 106 159 99 212 140 144 190 147 119 126 152 75 79 172 118 137 59 149 207 49 115 161 155 152 92 175 156 142 208 118 130 82 135 145 72 156 170 81 148 108 64 112 75 129 119 91 98 159 46 143 177 182 72 241 127 107 222 178 147 142 169 129 140 60 131 144 154 181 58 93 110 183 115 82 91 207 118 93 130 119 96 115 121 137 145 
83 189 58 22 90 173 184 145 74 169 141 86 208 64 43 143 123 142 138 151 24 120 117 143 200 99 174 107 74 153 149 152 171 111 72 176 126 194 110 139 129 78 100 60 109 170 133 121 79 60 113 182 63 131 133 180 92 140 144 192 124 109 80 67 138 90 104 171 103 91 39 180 62 92 104 104 181 63 92 133 107 110 49 127 141 140 132 165 182 133 125 177 143 162 68 149 126 111 188 125 
196 53 67 137 74 152 233 155 183 68 67 96 95 119 145 78 118 106 215 178 159 140 143 103 151 104 122 97 125 183 62 164 84 148 162 96 75 115 52 76 152 69 174 232 171 112 114 116 157 103 179 70 149 125 223 96 171 181 40 87 99 145 110 142 194 163 93 145 52 141 194 134 90 134 67 62 85 129 129 79 94 108 120 89 127 99 104 82 165 158 141 124 179 92 116 182 104 39 110 105 
149 81 59 150 190 86 176 93 102 111 116 178 167 81 184 182 114 111 126 156 75 166 133 195 30 95 55 64 152 101 163 165 124 151 91 106 194 181 164 104 77 123 133 76 245 168 114 85 85 145 89 186 85 60 190 77 71 123 149 184 153 95 101 102 83 97 122 209 180 72 175 93 57 152 141 171 126 90 52 115 159 104 76 182 111 179 154 58 152 70 75 31 139 72 173 73 83 142 130 161 
60 130 95 87 158 164 73 51 197 38 137 105 72 158 67 123 155 186 156 143 90 107 231 83 127 102 184 85 60 137 51 133 223 59 191 122 157 219 125 50 120 111 184 80 59 125 103 154 105 185 156 136 145 74 214 150 103 141 116 68 151 122 149 168 203 140 134 27 116 195 155 104 131 156 42 139 155 150 116 51 137 110 126 78 117 180 170 198 114 104 136 135 166 110 75 99 135 54 71 117 
126 177 103 119 133 135 132 152 81 108 24 153 183 123 129 97 192 126 178 122 117 150 156 109 172 69 130 138 123 115 123 165 152 142 79 131 116 91 169 176 188 131 87 64 88 119 83 183 172 36 133 82 139 111 103 79 127 128 136 114 122 96 102 179 102 66 51 166 158 119 108 27 222 215 76 37 141 106 214 74 48 90 123 174 108 112 114 90 190 82 212 159 70 117 75 160 143 47 170 227 
198 149 119 110 115 131 101 29 92 157 150 179 130 131 109 52 90 134 164 108 124 143 104 140 139 94 117 53 28 164 100 176 111 99 125 88 85 130 119 212 152 145 163 170 185 155 94 81 96 147 100 138 110 140 183 157 67 124 168 100 99 190 157 146 139 70 129 152 88 153 49 165 128 157 156 124 84 155 136 96 164 113 169 93 151 94 119 124 137 165 149 184 167 212 168 169 174 89 164 80 
109 157 136 136 85 110 158 195 129 67 190 112 187 130 156 95 162 155 105 70 102 75 100 182 135 119 57 148 127 91 62 127 117 60 67 94 183 88 97 168 107 147 134 164 35 145 157 136 219 161 167 136 114 95 194 98 70 105 155 214 159 111 82 73 40 107 64 43 198 166 82 156 82 157 76 51 133 126 90 214 123 168 158 88 142 229 138 112 93 198 41 74 57 155 130 95 85 160 110 105 
75 112 51 165 97 141 131 118 161 227 121 131 99 18 119 117 163 100 61 156 161 122 131 114 115 92 136 103 154 150 123 144 152 181 133 106 149 103 132 202 105 172 125 185 102 120 118 88 151 143 124 85 144 158 103 117 86 103 120 113 193 182 115 134 112 182 105 184 200 97 140 77 155 148 109 99 87 144 69 166 97 79 179 108 116 167 83 109 232 169 128 142 49 105 68 125 141 96 143 65 
116 132 124 124 142 94 183 161 143 150 88 178 129 131 193 129 81 71 88 119 157 170 134 159 83 178 156 198 69 134 119 68 74 77 174 35 68 151 66 78 118 204 87 195 177 135 103 149 143 51 119 151 132 173 188 153 101 117 124 120 77 101 221 113 155 161 120 113 120 139 178 165 79 115 112 98 90 147 159 143 194 135 74 113 123 199 122 125 81 125 97 83 160 199 132 89 170 87 221 120 
128 140 116 96 216 49 104 182 146 137 131 105 132 85 136 145 88 112 120 102 125 205 101 127 228 95 157 168 177 201 125 158 106 156 40 168 125 147 120 109 98 174 183 172 152 125 136 94 49 103 84 185 49 67 142 120 192 172 52 84 139 166 200 166 187 120 112 108 40 83 89 179 136 84 212 117 144 135 141 183 150 126 121 169 153 100 170 148 113 97 70 108 143 118 98 146 107 166 122 123 
137 124 115 119 126 180 136 52 66 97 167 69 111 84 112 91 116 118 190 153 170 96 123 110 109 150 96 145 148 110 102 121 195 99 159 79 83 183 144 36 77 88 114 86 128 141 132 147 177 166 41 179 135 157 103 60 77 68 112 145 136 147 224 119 130 60 132 199 154 141 117 146 156 161 114 25 145 89 154 198 134 89 134 70 117 137 96 187 138 64 221 110 146 140 109 113 141 109 81 114 
149 185 206 82 190 202 132 199 145 45 194 69 89 212 151 128 111 162 92 129 133 68 116 117 88 112 73 50 113 233 142 48 129 124 89 155 24 106 116 127 75 146 128 138 114 108 133 142 44 168 145 129 93 153 132 132 115 106 172 129 100 215 144 102 125 121 121 87 161 24 111 156 144 160 79 192 117 37 141 215 81 162 124 151 170 85 78 226 132 109 126 50 142 174 186 191 47 190 201 91 
140 197 121 118 167 86 121 203 96 63 56 193 100 52 202 108 131 86 77 109 198 141 156 137 100 176 118 127 123 110 195 175 65 112 150 131 136 155 179 140 123 159 117 208 54 137 114 142 205 76 163 118 90 172 214 122 187 194 102 109 132 146 120 84 86 120 132 82 76 125 172 93 154 136 103 136 95 149 155 189 124 64 104 205 100 163 121 57 119 124 121 126 160 94 114 134 156 96 51 174 
90 125 133 200 111 151 86 112 95 178 111 170 141 125 156 149 131 166 74 114 106 119 86 161 91 112 106 150 160 150 138 66 52 150 151 193 137 128 61 157 110 12 87 127 124 213 33 136 184 108 216 137 147 157 153 113 88 77 193 154 98 119 99 178 172 84 81 120 147 75 118 180 47 107 156 143 120 138 195 124 112 79 76 189 136 204 189 187 168 154 181 148 198 115 231 44 101 96 98 139 
120 209 50 152 77 169 169 97 153 89 139 92 78 161 149 143 52 161 76 169 94 114 149 122 32 185 110 151 137 78 80 75 111 213 177 162 110 146 185 108 131 119 119 115 73 158 128 122 133 108 100 141 45 97 149 99 128 182 140 177 80 68 189 54 138 63 145 77 52 117 133 155 150 131 153 98 163 136 140 50 101 127 130 32 138 141 77 154 135 155 206 151 178 134 87 117 102 161 94 126 
127 174 235 114 176 95 114 69 233 92 201 138 149 125 53 115 159 126 58 67 134 118 106 126 47 171 195 143 138 83 93 32 132 162 23 123 168 112 119 90 152 203 117 128 61 67 117 126 131 187 200 168 84 167 139 132 155 131 190 51 77 187 177 106 146 92 129 120 86 156 158 44 129 70 87 52 147 149 150 110 174 105 17 70 187 140 162 113 83 75 85 212 166 87 100 115 117 173 173 172 
129 147 162 132 125 169 156 147 73 77 98 134 129 82 146 127 79 122 91 83 162 78 58 106 212 48 88 110 149 114 40 94 181 84 113 120 156 141 137 210 92 183 125 124 185 119 78 111 98 154 86 133 44 143 75 153 125 128 91 110 109 180 76 127 176 112 150 120 177 190 87 100 94 111 130 73 123 152 187 172 166 114 92 129 123 76 129 82 167 123 168 157 74 121 113 109 128 178 89 143 
164 93 78 164 157 176 107 146 150 51 51 101 101 85 226 93 73 145 101 120 108 133 209 78 75 195 74 114 71 161 119 90 111 110 133 173 106 72 143 90 128 153 126 109 130 173 114 189 127 108 139 98 102 126 176 99 91 147 168 123 150 88 165 186 168 189 137 166 122 214 97 160 141 164 151 205 105 111 153 94 164 86 127 112 103 157 119 52 129 136 84 53 130 174 80 169 102 146 170 131 
27 35 108 134 125 81 147 135 170 182 154 97 26 213 152 111 133 158 127 133 220 124 108 39 89 172 142 36 122 126 106 160 178 56 126 84 128 168 143 101 149 82 84 28 112 132 120 147 71 176 70 105 180 94 86 94 194 65 132 119 96 171 104 161 53 64 190 158 132 64 83 51 82 97 39 83 74 132 154 128 130 127 203 187 138 61 100 129 99 111 113 128 114 145 17 70 93 115 130 47 
111 85 131 182 117 145 95 74 135 156 140 98 138 171 110 169 187 129 53 118 100 85 203 112 210 114 214 106 90 189 165 154 156 140 68 130 92 77 156 106 145 130 90 167 119 155 97 185 130 144 127 102 140 84 120 195 100 129 101 98 81 147 146 60 121 87 194 136 83 134 176 105 92 124 84 108 57 202 87 115 85 200 154 116 86 76 110 101 172 42 3 144 154 139 144 106 155 58 165 149 
107 105 144 196 78 123 159 154 144 208 121 171 80 97 148 125 92 166 109 102 35 186 116 72 204 169 174 190 158 31 123 154 190 124 157 122 86 61 107 113 68 143 112 107 191 180 112 144 212 49 89 161 109 157 162 166 131 77 91 140 138 34 83 135 103 85 146 222 142 84 173 91 129 138 208 109 121 59 209 141 144 195 171 129 173 148 91 133 141 157 167 81 159 93 140 83 73 176 88 50 
77 111 128 180 145 122 131 129 78 114 119 63 168 114 139 130 170 101 110 159 128 145 114 172 153 142 89 156 110 81 161 113 114 152 139 121 149 186 42 126 124 85 175 124 132 142 77 82 171 30 159 135 127 206 79 96 48 78 107 149 165 210 112 76 85 116 100 170 118 222 63 105 149 157 169 154 169 166 101 154 143 115 175 98 141 15 63 162 120 119 150 123 77 102 180 142 122 75 215 221 
170 166 180 106 104 68 190 105 148 148 75 166 61 127 121 108 191 97 92 113 197 61 145 164 88 169 70 60 248 196 108 162 93 137 102 186 145 58 95 115 215 136 170 117 176 53 120 101 49 116 74 58 127 106 60 142 116 133 92 70 138 59 78 87 79 110 87 52 115 177 161 135 104 150 91 144 90 95 193 152 127 129 111 142 157 72 176 114 194 130 131 51 161 86 204 153 129 105 162 94 
139 180 73 144 147 154 65 99 108 97 109 103 98 174 126 91 233 122 139 50 162 129 119 115 115 139 113 99 112 114 119 19 134 32 172 182 102 102 165 118 62 121 131 136 51 105 117 103 74 60 91 125 152 126 152 151 94 135 108 117 117 48 133 57 116 153 143 86 166 111 163 229 146 176 152 212 197 30 156 102 119 62 128 82 165 112 120 156 81 97 90 173 63 71 57 104 94 66 105 170 
134 105 72 97 120 225 126 154 138 191 131 193 52 62 124 94 146 196 139 168 70 124 157 68 174 150 78 118 142 120 191 46 58 124 95 166 205 123 161 70 107 100 155 104 68 191 153 139 122 87 59 33 54 121 144 132 130 89 87 97 99 137 148 121 126 182 161 204 94 77 106 110 214 171 164 163 70 173 95 110 86 179 163 91 150 130 110 67 141 104 146 129 100 113 201 120 115 151 91 73 
64 71 189 132 92 71 125 91 110 105 27 103 35 194 167 117 63 115 126 136 87 123 109 90 211 154 88 179 94 111 74 86 178 40 179 96 62 75 166 133 193 91 63 119 126 156 116 162 98 88 154 116 148 94 168 133 80 131 152 225 117 102 211 72 129 202 109 154 185 143 126 170 85 107 164 129 90 179 119 48 129 120 124 119 161 167 76 126 142 143 167 123 123 105 120 36 116 99 98 198 
186 145 95 100 133 74 188 140 167 128 116 104 91 117 90 56 124 222 104 169 168 82 119 70 94 149 189 95 104 114 149 218 207 103 109 96 168 217 159 127 87 102 154 206 139 159 102 141 51 122 59 89 198 77 85 137 172 200 154 172 137 137 77 109 140 121 134 114 153 114 143 105 84 155 123 66 126 62 79 69 95 187 142 165 133 142 81 146 66 176 190 143 139 176 109 61 102 92 141 114 
103 66 129 95 130 112 190 215 183 190 88 96 191 161 106 117 74 61 166 180 201 51 137 139 141 131 116 116 125 103 69 126 183 104 152 210 159 87 150 187 67 177 137 141 163 138 111 71 89 184 124 102 158 171 138 120 150 182 152 134 152 189 140 112 124 109 177 165 148 113 169 173 152 59 115 202 96 111 108 134 157 136 82 98 109 131 179 183 112 101 56 68 221 151 154 104 70 166 114 170 
105 67 122 128 122 71 186 98 211 148 160 66 140 79 130 79 129 153 75 111 167 181 205 187 157 163 221 169 111 63 123 171 148 88 110 116 145 140 209 28 175 76 144 104 152 79 189 192 116 166 135 143 135 158 140 84 144 76 139 181 207 176 100 201 196 157 167 193 198 197 115 120 57 122 101 122 50 112 104 84 108 93 206 106 71 127 96 161 100 107 94 159 105 133 73 85 82 18 139 158 
74 115 154 104 59 83 208 165 160 202 50 110 57 111 113 167 155 100 152 127 136 145 147 113 137 174 127 101 187 153 107 194 84 160 109 136 210 164 93 156 26 151 142 104 95 112 149 167 224 96 58 95 106 164 96 145 159 91 160 97 86 156 213 92 108 97 75 163 105 112 127 138 137 168 131 220 161 121 104 155 181 127 66 191 147 79 196 38 43 74 95 136 152 187 131 124 160 128 229 65 
143 147 139 37 198 109 155 123 156 134 86 87 192 137 152 208 152 157 145 200 90 64 127 84 57 83 176 121 156 178 164 161 165 171 116 190 147 167 135 104 118 65 61 47 136 89 38 46 163 174 112 165 170 95 178 149 114 67 119 92 136 127 92 176 68 54 90 202 154 153 169 101 189 132 43 151 124 114 190 75 133 177 132 118 84 128 115 160 91 149 136 168 177 122 198 66 120 30 73 138 
178 150 58 133 171 120 97 44 97 146 129 197 96 129 105 161 141 95 106 178 141 120 98 165 65 121 88 199 115 66 172 134 156 42 96 84 215 24 167 114 187 146 130 58 108 157 200 125 94 78 150 64 201 30 220 104 42 134 113 127 185 86 126 132 178 86 169 127 178 96 118 159 175 116 144 72 88 131 167 100 84 153 127 95 194 194 48 109 173 129 93 87 115 187 173 155 88 186 151 145 
107 98 73 153 133 180 81 124 94 145 157 108 63 143 110 203 188 91 87 141 126 95 90 149 146 36 97 68 116 78 151 156 125 33 165 141 131 221 156 107 180 144 160 163 133 157 87 104 105 106 106 149 180 94 141 200 116 87 181 180 132 144 179 135 94 169 143 106 158 43 109 105 107 139 101 234 171 183 68 65 138 190 120 120 112 102 144 64 129 79 160 91 172 127 48 171 99 59 119 172 
113 125 136 158 160 172 174 133 113 76 129 97 95 104 183 141 94 136 97 121 150 68 171 83 147 83 100 206 149 146 102 152 166 15 167 229 94 197 105 187 113 150 192 130 156 171 189 91 98 69 102 134 201 133 187 115 46 108 111 122 204 211 104 67 166 171 84 85 93 145 137 157 132 158 163 112 154 138 140 181 79 189 173 238 145 198 149 79 70 102 125 148 47 150 164 171 118 133 96 146 
119 89 75 155 103 47 64 100 115 161 85 38 28 131 89 117 78 156 121 95 68 176 170 83 106 95 163 189 163 155 97 145 56 152 74 161 150 138 102 124 139 230 111 101 102 63 65 226 149 50 164 128 125 174 48 70 184 151 125 82 153 52 180 158 118 82 122 144 196 190 102 128 158 111 184 100 168 58 121 116 185 121 114 104 77 176 171 51 149 67 136 195 107 198 143 145 112 148 81 80 
183 137 175 178 146 98 116 67 190 98 129 143 109 153 155 44 126 83 69 155 128 143 37 187 161 83 189 168 110 115 175 137 103 173 96 130 65 138 69 135 129 135 59 155 135 131 156 115 123 134 178 48 144 170 118 106 136 65 160 200 211 167 121 225 135 123 106 88 158 166 101 184 109 97 132 156 133 211 120 161 179 64 45 126 175 142 171 108 181 119 97 168 107 169 70 110 124 125 184 131 
164 145 109 164 217 140 102 143 158 80 178 131 196 114 143 153 190 92 119 137 105 119 22 131 189 92 80 132 125 80 191 107 138 97 69 139 106 96 78 114 133 154 106 122 94 50 101 171 213 65 122 96 205 180 114 110 184 143 154 117 172 142 93 83 162 35 87 144 136 79 211 157 178 169 98 131 109 141 85 112 148 190 124 196 79 199 99 103 139 122 154 168 102 87 95 139 121 132 157 159 
161 188 97 154 146 142 55 96 154 90 104 166 125 150 159 83 147 143 199 91 199 137 161 128 118 134 145 128 55 75 99 77 134 88 172 117 188 87 135 63 182 80 89 110 212 100 90 105 189 85 98 146 193 162 240 140 181 99 152 79 97 202 102 123 165 64 147 145 101 210 147 56 234 181 186 150 128 162 87 135 122 219 208 58 192 238 73 154 171 113 53 58 168 132 139 142 170 109 97 225 
147 157 123 123 143 91 115 96 169 156 141 105 183 186 102 108 135 134 168 172 137 107 119 160 54 77 70 201 92 64 175 186 39 146 141 144 103 101 216 126 73 124 90 158 69 158 211 163 54 203 191 141 147 74 218 125 55 87 127 78 189 145 153 86 136 89 127 181 158 131 140 197 125 170 203 70 191 84 108 168 145 140 172 120 102 163 139 166 136 149 173 30 102 144 140 130 228 62 176 124 
96 86 131 205 97 150 146 183 96 100 136 144 112 161 87 120 108 129 114 69 141 100 192 210 152 127 109 155 67 97 130 210 186 154 102 142 177 139 226 223 108 96 109 169 133 144 34 117 156 115 116 136 83 168 159 126 167 108 85 122 102 40 99 192 134 131 147 125 142 11 112 137 90 180 133 102 90 148 155 91 34 138 158 105 162 176 125 122 184 164 104 94 162 197 151 97 185 122 135 65 
118 148 132 132 159 35 158 166 144 135 164 42 102 77 202 115 91 73 92 118 94 175 197 194 134 57 131 101 105 176 130 106 86 85 95 154 162 92 69 103 76 91 58 116 76 177 124 33 112 166 133 119 75 111 146 179 88 83 135 77 128 135 111 51 81 73 84 83 129 84 128 103 129 169 138 168 120 95 180 81 114 116 165 83 145 107 148 173 222 94 155 91 167 132 190 162 87 148 68 134 
120 115 145 94 89 176 145 24 163 89 183 126 122 169 143 175 79 29 145 217 153 107 134 144 111 109 166 166 124 102 142 103 172 127 149 138 91 91 122 143 150 148 141 184 164 94 158 208 92 95 131 106 126 163 95 138 127 203 125 193 114 127 125 171 156 129 102 205 138 87 186 134 136 150 169 141 152 62 61 139 198 104 132 51 95 145 219 216 189 66 62 36 160 103 168 168 74 161 103 181 
217 126 161 140 78 112 89 97 92 46 190 185 132 98 116 104 121 151 147 47 28 203 131 112 81 147 162 77 153 149 211 145 78 89 137 172 125 37 132 173 100 124 173 154 177 166 172 139 166 188 115 94 204 117 72 44 163 128 140 133 173 83 179 151 97 137 234 180 136 137 224 156 56 85 117 114 162 93 177 44 152 163 226 136 115 181 179 124 106 115 109 103 139 151 214 125 125 134 155 102 
125 145 105 108 214 25 163 162 182 126 136 137 139 111 40 84 183 172 155 186 73 104 106 138 152 203 138 204 68 87 73 116 171 147 92 124 196 161 105 137 92 98 190 85 101 153 88 193 182 48 75 130 84 129 74 96 118 115 170 34 223 121 160 105 216 115 113 174 53 72 195 131 149 175 139 160 136 115 120 132 166 145 227 10 232 169 73 120 147 136 88 140 156 68 48 201 154 151 122 43 
85 67 176 159 116 139 59 147 109 179 91 98 199 127 189 96 197 123 87 131 177 138 57 133 99 113 106 209 72 172 204 125 157 159 164 103 158 110 66 116 154 177 113 160 93 165 164 125 78 117 87 114 124 126 186 133 139 92 86 29 136 170 67 157 19 149 216 92 148 233 97 69 117 169 174 59 108 150 86 64 163 136 55 113 153 142 99 127 91 158 76 169 160 158 108 91 105 71 82 105 
172 149 71 53 210 142 174 103 111 88 152 144 122 101 139 96 75 133 176 139 167 193 103 213 31 161 140 85 180 96 146 150 89 115 128 95 125 228 122 148 136 104 226 186 106 186 110 183 126 170 110 91 119 54 176 142 31 121 105 162 155 132 140 103 122 136 141 113 179 179 102 194 147 91 168 113 110 141 81 196 121 180 156 175 130 31 160 207 91 49 150 77 146 167 102 117 107 105 190 150 
115 71 167 98 160 147 115 159 113 163 116 209 186 154 195 116 143 30 70 174 186 160 120 170 137 89 161 126 185 139 86 65 167 147 116 149 167 115 73 154 126 118 117 132 213 155 169 127 178 139 111 85 184 113 37 83 111 62 55 130 92 120 123 123 17 129 118 42 93 147 86 164 112 117 214 145 30 194 210 176 92 75 87 91 86 185 115 57 67 79 67 71 107 156 147 61 138 126 183 118 
195 115 107 151 113 116 80 120 33 145 70 149 76 173 77 100 190 104 165 134 102 106 31 169 77 137 118 175 126 99 205 124 136 136 35 160 222 154 108 114 123 149 97 145 160 116 191 128 176 160 180 149 140 129 96 119 160 167 45 157 155 78 164 167 125 73 104 97 151 139 133 125 126 143 116 62 151 122 126 103 192 68 141 149 139 150 161 102 133 129 150 129 98 200 127 143 114 156 153 178 
104 127 134 43 59 76 62 80 90 81 42 106 89 87 71 202 119 144 75 174 133 161 137 186 157 165 127 70 103 61 169 126 173 156 178 117 190 74 115 78 146 149 151 148 100 182 136 154 70 97 74 138 182 165 130 150 129 163 75 172 130 130 128 122 82 52 146 141 122 154 154 104 169 94 118 113 223 138 77 119 184 179 30 146 140 117 128 83 141 118 155 117 131 139 91 110 132 176 94 141 
69 38 54 93 131 152 217 66 137 145 101 127 62 132 75 128 162 130 111 33 131 82 181 175 95 83 77 104 100 89 92 104 133 98 50 122 67 201 120 121 125 143 108 185 111 122 109 157 113 166 134 100 141 151 125 83 153 66 114 81 162 106 176 172 146 181 81 211 102 50 29 29 97 83 131 199 67 84 175 132 62 69 97 147 109 178 114 106 109 118 98 102 190 104 178 115 182 99 77 91 
159 191 173 131 95 180 91 153 70 100 97 152 66 67 117 140 128 102 101 118 60 157 133 88 88 169 87 162 94 136 92 117 172 179 145 131 195 158 66 131 151 83 154 117 114 105 178 82 120 135 118 139 187 96 120 118 143 121 127 115 105 26 81 210 127 76 185 146 176 159 100 106 179 184 98 126 68 49 228 179 106 77 94 126 122 219 121 70 134 82 145 98 129 215 182 213 170 87 102 45 
81 198 146 190 82 133 117 101 109 152 121 124 159 79 66 142 116 151 94 135 65 154 28 149 192 99 177 167 80 104 137 77 78 41 82 150 52 118 24 132 130 72 191 150 176 187 188 65 114 82 94 195 81 104 144 43 73 58 59 122 143 167 168 185 112 176 85 23 115 97 54 223 194 153 171 145 139 83 101 80 86 52 72 162 64 157 194 99 136 101 65 114 42 131 122 184 135 119 156 82 
145 144 104 137 144 113 145 139 163 139 165 177 73 141 175 210 174 103 187 101 116 126 117 142 38 95 115 162 110 100 136 57 140 82 162 188 123 74 131 45 192 131 148 125 68 94 66 162 108 100 89 212 82 199 117 206 200 138 172 156 177 150 126 132 179 159 159 128 95 90 42 131 123 73 104 166 123 109 106 35 92 85 110 143 220 117 63 173 129 153 74 160 111 146 60 189 112 162 109 140 
133 240 157 190 94 152 111 171 121 69 149 146 171 186 77 92 99 102 161 106 44 93 194 162 140 51 165 221 123 89 119 128 160 124 161 151 174 146 76 85 90 168 100 128 126 130 117 212 174 210 185 157 135 173 67 123 104 75 29 120 143 58 54 37 163 127 108 166 110 44 118 158 69 118 215 114 101 126 90 52 187 66 164 70 68 134 123 100 220 84 85 143 175 162 181 83 181 95 151 100 
130 158 119 161 140 127 159 112 80 60 127 129 122 217 95 140 90 156 131 167 147 199 134 84 86 132 149 181 170 133 143 168 171 94 141 19 120 126 90 40 101 171 81 166 167 139 130 199 138 70 99 158 164 174 165 83 71 122 101 102 69 86 118 83 70 116 104 118 95 124 209 213 131 140 222 73 136 105 145 77 141 182 181 71 108 103 152 120 171 149 77 106 133 78 121 150 175 169 62 74 
58 135 94 154 78 111 231 102 145 109 107 131 126 164 131 94 115 204 206 58 130 93 164 79 95 160 40 166 117 63 22 113 175 184 162 153 146 160 109 200 168 143 107 180 136 140 150 171 197 106 155 171 67 128 126 109 129 176 151 124 42 207 143 180 137 62 209 98 94 95 191 108 183 65 185 194 88 107 151 115 124 113 101 154 138 132 213 145 183 146 180 92 112 152 147 95 157 68 57 180 
118 165 159 117 155 25 151 209 212 152 155 91 231 59 186 215 187 109 106 86 63 94 133 25 185 90 182 174 43 132 140 138 152 30 40 51 91 132 138 64 129 63 112 149 37 121 158 166 184 106 203 55 32 99 113 81 148 132 155 59 119 173 156 206 159 100 84 95 173 173 86 193 104 96 127 124 114 120 145 176 215 148 118 162 41 127 153 155 158 108 59 99 227 65 128 190 78 132 145 194 
89 112 125 141 98 27 143 110 168 250 124 105 152 64 122 87 100 143 211 150 108 149 89 154 158 79 163 92 135 204 146 134 130 104 197 100 119 166 140 83 111 167 166 124 67 143 114 138 192 71 118 81 110 100 74 166 66 171 77 112 170 142 61 88 108 126 113 133 211 199 67 126 87 152 151 166 148 100 169 147 193 163 179 196 204 108 116 205 92 144 131 183 158 110 203 102 180 176 102 89 
147 194 65 64 154 60 193 82 108 147 86 118 123 180 56 130 226 141 192 157 105 26 143 84 178 170 113 101 139 43 97 172 114 142 162 141 97 119 171 42 169 105 93 129 91 149 154 68 106 91 186 100 102 141 90 123 120 161 82 161 86 203 125 133 79 48 173 149 180 156 92 113 177 70 94 170 80 98 84 205 142 113 190 139 228 78 195 152 116 111 94 25 136 133 45 140 125 115 169 137 
104 153 71 207 198 130 105 73 116 162 115 102 148 173 59 204 163 110 121 115 109 107 116 122 177 155 125 100 97 161 123 116 140 158 110 46 64 139 127 104 189 110 153 160 199 181 45 72 166 131 140 234 96 121 96 169 60 125 60 211 103 133 105 88 118 210 210 135 89 19 105 130 72 132 111 142 122 92 94 98 116 150 129 128 81 129 108 104 155 134 131 198 141 102 168 143 112 42 138 88 
140 138 97 91 145 172 187 62 153 171 158 109 60 61 153 174 117 115 156 66 65 168 198 74 146 142 76 154 183 205 175 134 136 88 113 138 118 185 204 123 212 113 146 98 126 161 177 98 183 118 63 108 144 165 121 86 117 124 175 56 200 146 109 75 125 108 168 163 124 148 168 57 103 112 124 60 172 152 87 105 67 79 59 52 154 144 132 159 52 128 114 200 105 170 85 109 111 95 129 189 
154 120 131 131 110 140 87 148 155 132 172 79 120 100 94 186 184 160 135 150 53 147 229 133 82 141 96 115 48 131 188 150 121 162 121 110 62 85 167 170 110 171 119 55 78 122 125 138 114 92 183 45 202 96 142 162 71 154 216 167 95 82 50 130 129 115 148 121 118 87 116 151 164 32 48 120 180 107 90 155 118 179 98 122 82 135 215 124 53 112 157 159 104 89 103 136 73 57 186 151 
147 107 142 137 180 196 128 110 153 186 115 117 128 98 64 77 102 161 88 220 84 124 23 127 81 85 197 110 127 126 92 156 155 89 107 124 142 127 90 114 143 82 131 201 77 147 131 97 64 108 166 151 175 32 151 77 130 170 116 156 100 143 137 144 142 71 187 37 80 89 68 139 162 105 61 110 200 87 105 148 74 103 102 130 185 94 147 111 174 139 110 109 132 171 71 179 111 117 198 119 
76 128 166 143 113 182 124 88 196 134 80 127 121 76 166 138 81 171 181 165 150 133 123 70 114 116 114 149 133 82 128 79 193 128 129 146 103 76 141 145 164 187 173 149 163 155 90 49 80 183 194 175 86 101 81 73 164 170 196 138 139 73 82 127 143 97 115 82 52 203 103 122 146 92 143 138 134 183 193 123 85 56 126 169 106 209 67 178 113 100 163 158 72 215 133 45 125 88 76 188 
167 65 132 125 118 212 160 128 86 96 141 147 178 108 124 149 141 79 100 130 91 144 142 83 149 148 172 87 69 136 154 166 151 48 105 55 51 110 167 85 137 171 131 67 112 164 32 56 125 143 91 81 153 163 160 199 129 53 171 162 138 120 93 78 178 137 82 102 99 117 102 94 81 170 214 33 136 130 172 188 90 171 214 118 128 99 134 100 69 189 64 136 53 113 95 159 133 214 150 104 
65 150 135 147 119 107 137 148 121 80 126 62 127 191 154 137 147 105 153 40 134 190 100 101 54 57 143 115 78 47 155 134 140 103 98 161 104 61 202 119 115 105 141 106 84 94 124 86 113 108 84 114 114 84 150 113 176 142 98 40 61 128 222 136 73 120 109 116 101 96 218 63 148 94 193 99 121 106 155 126 121 49 174 66 151 143 102 134 143 115 171 148 158 98 102 99 107 118 164 76 
68 48 147 135 105 107 167 139 96 112 48 244 49 26 170 91 163 115 98 108 93 172 140 142 151 164 158 155 104 152 142 138 161 156 71 124 165 145 70 185 173 133 78 114 164 132 34 152 85 97 180 237 200 154 164 121 91 134 137 59 100 98 62 109 144 191 145 99 98 183 79 98 186 111 190 72 79 171 95 87 108 122 157 153 114 142 228 167 79 74 98 186 189 153 128 114 123 55 149 148 
34 89 183 184 40 107 38 58 163 141 152 166 89 158 167 119 10 70 135 179 87 186 77 172 122 175 129 178 189 151 133 133 91 185 98 151 153 152 113 150 98 56 99 199 153 129 83 60 103 161 115 112 93 132 82 99 146 101 184 158 28 220 130 118 100 127 198 123 44 162 139 157 117 88 96 89 77 212 210 140 200 155 224 180 125 50 171 82 52 160 134 133 154 106 128 133 85 124 136 169 
87 121 87 184 132 109 62 196 103 158 114 117 138 168 204 104 142 152 160 111 107 121 164 177 179 196 123 93 98 137 91 177 104 182 98 34 60 85 32 40 123 96 105 92 158 187 83 141 91 203 48 172 115 125 64 34 141 93 105 115 167 107 127 177 136 89 96 125 146 70 160 149 83 139 133 159 155 39 101 73 128 115 51 174 146 123 177 186 74 135 59 122 128 103 120 124 99 24 95 189 
160 119 72 162 200 168 151 142 64 123 97 67 120 176 65 100 188 135 115 34 66 137 120 140 119 162 186 169 125 149 68 93 156 83 150 134 94 134 129 195 191 111 108 79 91 185 176 144 105 157 206 134 209 177 145 127 144 112 141 88 112 124 88 112 90 154 87 176 101 174 193 144 169 160 143 153 170 203 128 123 112 54 164 154 98 177 145 169 202 93 199 138 113 121 133 78 155 79 159 121 
117 52 124 97 122 120 144 167 126 83 141 41 128 37 182 84 162 171 93 143 150 142 161 135 129 182 100 82 71 155 172 121 80 43 88 63 129 115 152 131 109 89 129 219 147 102 146 123 94 126 89 103 153 179 86 175 93 82 102 197 175 135 181 190 121 71 123 117 138 192 116 110 110 167 74 123 99 85 70 124 79 118 102 32 126 116 76 123 125 68 177 124 104 100 159 167 144 145 35 85 
126 138 148 167 178 121 171 185 80 102 142 74 114 131 89 113 109 135 70 97 82 160 152 110 106 128 130 35 139 97 168 122 110 122 154 99 56 65 143 115 114 118 209 56 53 84 163 101 200 99 125 134 157 133 150 200 165 123 132 139 119 98 190 131 93 102 91 189 84 103 92 107 172 61 45 136 89 46 111 87 112 86 151 90 126 203 112 160 161 146 103 34 75 106 98 175 124 121 187 152 
115 92 143 161 195 123 151 179 85 201 115 80 164 105 91 231 137 179 209 49 160 122 122 174 170 220 177 147 191 235 95 137 116 95 125 199 53 146 66 117 205 97 52 173 97 173 189 112 60 141 48 214 121 131 51 168 87 173 141 99 55 145 86 134 155 172 116 82 137 72 160 159 126 101 107 104 142 154 101 174 142 183 235 77 123 98 140 160 139 121 114 137 117 187 142 64 120 103 133 144 
48 143 142 123 31 129 104 113 134 133 92 98 85 84 53 84 102 175 193 108 202 80 153 83 108 123 154 153 121 112 132 131 54 159 141 96 110 179 127 64 124 95 65 56 133 129 178 122 91 98 152 151 115 133 100 210 131 198 212 82 175 60 196 53 172 134 145 152 134 154 39 153 89 78 124 122 115 83 101 21 160 199 102 59 83 179 115 51 171 75 137 147 103 140 145 110 127 112 128 79 
142 109 114 149 96 127 144 137 45 114 193 142 132 120 94 170 100 145 170 134 81 216 184 110 72 103 51 104 79 79 112 116 225 149 91 179 152 47 110 171 156 48 92 127 135 114 181 85 127 113 103 122 163 178 151 165 128 118 142 149 122 131 138 176 184 109 107 105 144 85 139 71 148 101 94 102 80 51 35 151 116 120 158 100 67 137 111 124 177 170 140 144 43 106 116 152 171 167 111 118 
90 125 123 90 141 127 159 132 123 157 172 89 176 140 104 153 60 147 106 130 128 96 147 128 98 108 178 59 175 118 171 109 163 169 153 59 126 189 126 146 128 80 115 168 114 108 137 118 156 158 140 89 118 189 137 157 134 107 137 143 129 124 166 128 140 82 113 161 105 132 133 91 128 188 123 148 134 63 119 138 127 133 161 171 143 41 146 162 107 192 114 98 131 116 65 82 125 144 32 106 
103 171 173 106 90 195 164 146 170 100 95 126 132 116 200 113 176 102 152 116 99 121 78 122 69 178 162 58 157 89 111 110 29 121 80 157 62 180 99 171 140 155 176 183 86 124 196 103 156 80 77 160 114 152 131 153 156 108 117 184 127 147 124 99 116 183 145 100 141 152 174 125 178 152 104 96 85 197 123 74 162 93 177 123 74 105 92 70 164 206 106 165 129 63 126 82 96 154 103 100 
192 179 163 85 97 196 75 53 83 124 174 122 127 129 140 171 155 82 166 184 37 195 138 104 53 45 65 209 145 123 75 161 161 164 172 206 134 183 132 84 134 194 149 194 141 72 180 110 116 86 65 105 129 104 81 186 67 139 94 47 122 141 52 119 72 142 89 136 128 109 114 170 171 126 202 105 157 116 71 148 195 126 180 127 101 168 169 172 100 100 103 156 76 142 53 120 125 132 123 155 
88 175 92 89 137 190 150 111 146 149 158 94 69 88 116 145 175 65 158 97 108 80 100 202 46 65 49 163 80 168 167 113 128 74 108 187 141 120 90 76 147 152 95 149 138 123 80 129 129 180 140 130 78 100 120 148 99 168 140 182 122 137 92 76 106 205 141 179 128 56 131 208 97 73 120 164 118 110 186 185 104 134 190 201 145 131 84 58 59 93 111 148 143 143 149 129 103 176 152 133 
105 99 92 164 125 170 145 176 128 160 157 127 211 75 109 84 87 155 120 125 136 176 127 102 83 124 84 129 108 115 184 84 154 156 45 103 149 191 187 207 176 110 96 201 160 175 96 126 45 82 97 113 118 86 173 98 110 34 159 131 111 102 183 153 142 161 90 147 159 100 120 169 202 113 112 60 66 99 120 125 137 150 105 164 111 40 144 114 90 94 111 92 100 127 84 122 172 81 198 146 
109 145 105 36 112 103 69 127 158 116 125 122 177 183 64 135 90 121 99 217 105 109 154 186 78 186 51 95 232 82 185 125 121 114 152 146 91 92 109 141 116 127 170 197 168 180 171 150 181 148 180 139 93 146 182 146 148 222 132 125 56 158 142 162 60 40 106 149 67 81 158 149 215 209 52 224 122 91 157 78 145 129 170 129 147 165 109 134 81 173 122 36 128 186 128 152 159 166 153 176 
165 109 117 169 161 28 165 219 129 95 61 200 98 26 42 153 216 188 80 160 135 158 75 184 110 153 144 90 108 182 134 155 60 107 145 175 83 99 162 93 144 106 153 122 155 91 195 124 141 147 116 104 116 47 187 143 58 138 165 132 108 123 153 120 122 205 44 83 189 65 51 192 123 126 135 58 71 226 154 77 169 30 176 108 142 95 173 157 135 130 96 120 145 127 143 92 170 153 118 59 
158 123 175 78 113 138 54 186 128 122 159 179 136 191 81 84 144 76 132 173 184 202 116 137 90 178 149 148 67 77 47 167 88 66 96 151 21 171 81 40 77 101 202 58 202 146 179 127 83 92 145 53 27 108 139 81 89 75 67 76 127 133 61 90 182 134 98 126 133 152 169 160 98 191 88 122 155 151 136 100 187 126 172 112 65 99 51 63 120 71 159 111 126 69 42 194 190 154 26 181 
144 106 162 169 124 86 209 125 181 68 136 86 156 124 79 211 142 177 186 83 164 175 94 143 128 95 76 162 64 83 95 179 147 79 142 119 87 129 162 188 122 86 54 99 80 88 159 167 187 76 87 191 188 180 208 124 92 108 111 192 153 156 78 114 142 109 138 176 99 164 104 103 137 140 151 157 110 153 129 168 112 175 184 44 129 196 216 98 149 148 93 118 99 108 140 162 150 120 196 117 
93 74 114 117 126 205 127 101 126 88 83 157 66 80 128 137 142 118 137 104 199 148 178 196 200 111 109 176 104 115 125 126 139 85 69 92 98 135 91 137 76 103 102 191 141 166 117 147 162 174 97 84 165 148 81 150 112 197 147 148 166 74 133 145 157 61 137 138 147 118 101 45 214 156 98 116 143 168 97 155 118 112 103 150 182 227 108 239 149 168 125 194 90 85 57 85 146 93 123 65 
129 83 37 131 103 77 83 167 173 164 159 116 83 162 70 74 105 37 83 130 128 52 116 139 147 104 113 62 119 97 127 146 116 143 105 166 85 100 162 91 147 176 160 146 88 170 134 115 159 127 151 78 102 157 168 114 31 98 210 178 159 180 133 187 86 140 209 107 143 142 101 121 123 62 108 92 138 139 89 107 125 43 143 151 107 94 165 213 164 145 124 125 116 207 162 223 107 209 197 126 
189 167 37 119 125 189 86 132 132 228 123 173 108 154 119 162 102 195 131 149 205 132 210 172 132 191 91 45 149 190 48 122 117 123 136 218 116 168 148 84 94 182 121 75 92 38 85 70 146 132 95 179 116 120 125 109 181 120 138 119 165 130 170 117 115 63 170 172 171 227 54 126 120 151 97 67 93 126 182 136 80 88 158 148 157 171 33 96 90 185 161 178 115 174 104 66 94 188 108 172 
97 166 180 118 168 156 181 178 198 137 51 80 130 210 170 149 127 127 109 171 132 109 86 62 110 126 172 151 83 112 182 72 45 217 78 142 122 168 143 152 95 72 80 196 126 139 94 154 72 91 142 187 104 116 142 85 78 143 120 126 82 172 138 66 107 198 150 135 133 126 101 182 115 161 66 89 147 134 167 126 176 85 82 58 178 87 99 90 128 89 81 115 37 65 42 98 64 156 46 98 
103 167 151 108 139 156 55 124 137 125 19 150 105 171 37 52 164 174 94 96 133 71 74 97 88 110 144 195 107 80 148 200 72 115 108 107 171 113 118 79 173 185 208 91 122 110 146 169 186 122 92 196 116 124 143 83 125 72 117 41 88 138 101 167 187 96 148 162 112 129 199 162 219 196 243 111 230 157 150 108 101 64 152 123 139 114 178 111 126 140 129 135 116 162 144 125 97 172 199 166 
