P2
100 100
255
63 143 139 127 122 169 137 129 88 101 150 125 168 184 99 110 67 102 110 135 141 168 87 35 53 172 197 95 77 67 175 203 80 148 92 173 176 156 181 106 84 119 142 142 96 131 46 163 99 120 126 105 72 92 99 59 79 43 88 164 122 125 97 242 157 156 168 116 55 86 97 114 114 122 131 57 108 173 74 104 119 137 168 154 47 158 123 119 75 79 153 208 101 110 159 156 129 115 48 98 
65 189 51 156 114 192 143 53 200 118 119 102 64 198 93 91 154 233 143 131 90 88 195 172 131 140 148 178 167 104 57 87 187 84 92 141 146 111 105 103 106 141 142 221 192 111 162 116 147 127 68 96 106 136 72 136 107 158 183 82 155 102 118 168 40 92 149 113 97 171 125 151 75 201 170 82 54 139 41 211 97 117 101 129 122 128 155 176 26 119 54 184 187 158 107 94 134 170 213 68 
118 85 179 59 163 115 161 120 131 196 85 183 163 109 151 108 98 134 110 85 79 64 59 164 199 213 143 115 163 118 189 128 147 140 144 64 176 105 94 148 192 67 45 100 144 125 179 204 93 81 27 174 143 148 79 135 165 220 182 116 152 172 105 52 90 139 171 143 106 208 104 141 69 158 138 154 156 99 137 154 141 142 37 179 74 70 121 81 131 90 121 77 102 166 170 39 206 149 77 136 
70 148 130 154 158 157 131 183 175 193 103 113 187 196 84 35 187 125 138 99 147 136 154 140 103 99 148 178 218 128 120 126 112 89 111 94 148 50 100 67 114 146 150 136 85 103 145 96 62 188 70 102 129 130 54 154 92 73 67 162 145 84 61 154 156 201 126 174 105 177 99 73 84 107 151 113 151 142 74 67 153 157 92 175 171 174 168 145 165 203 93 158 159 126 162 127 105 120 96 129 
98 206 153 104 160 120 130 149 159 154 128 166 130 159 151 149 99 139 130 181 207 184 137 156 82 165 86 135 147 113 147 53 89 137 153 183 179 95 132 151 108 102 129 236 27 66 112 128 143 114 143 56 85 100 126 110 74 124 145 105 129 46 110 186 173 161 113 135 95 210 75 26 98 180 45 157 91 78 142 81 151 115 124 128 221 86 145 110 159 110 72 155 113 83 53 181 160 104 138 111 
143 120 143 169 78 203 51 131 146 101 156 182 178 221 94 90 207 176 193 63 90 56 209 91 111 97 160 196 139 102 162 108 144 145 19 176 103 122 154 90 128 65 196 85 24 99 60 121 128 75 136 185 166 152 153 70 93 144 128 159 100 116 188 204 93 182 58 35 146 75 178 148 69 103 151 157 83 84 77 105 161 82 137 74 133 99 141 122 35 118 45 185 147 148 74 69 205 141 236 101 
111 146 78 202 16 45 156 110 64 147 88 147 156 102 184 114 120 128 174 141 58 124 60 98 24 158 10 194 114 90 83 76 122 137 123 129 65 136 93 200 173 152 180 77 127 78 117 165 152 139 32 61 118 133 127 134 137 58 87 160 216 101 151 119 176 91 171 126 96 175 131 163 227 159 137 138 233 169 172 159 55 124 83 188 129 121 122 182 157 91 151 231 116 103 193 130 94 192 101 137 
209 142 77 95 120 150 69 182 95 134 167 162 98 93 126 75 171 135 135 143 110 58 121 59 134 120 157 95 90 93 157 126 147 159 98 198 226 106 137 140 102 176 186 138 137 106 155 77 110 65 135 150 171 95 193 213 152 107 175 137 138 43 136 105 145 48 147 157 149 147 143 132 148 141 32 173 109 89 178 136 203 197 129 86 97 110 108 142 149 122 118 163 91 93 59 116 84 183 141 106 
212 127 47 220 115 128 147 146 155 122 135 157 141 93 90 214 128 147 168 150 133 178 120 102 137 233 153 50 163 144 180 137 97 87 77 94 76 112 128 127 155 171 154 117 85 104 59 65 105 136 112 132 177 152 116 177 200 131 186 98 196 154 87 127 59 134 88 153 210 127 104 141 168 112 123 143 97 177 195 22 134 140 151 97 105 217 121 95 155 119 134 208 165 154 99 133 110 124 127 123 
137 102 82 75 116 221 169 93 151 119 138 77 72 61 58 94 65 182 126 128 92 154 94 89 76 144 134 110 115 96 187 171 108 81 78 151 111 121 169 195 115 142 87 60 200 142 136 148 61 202 166 54 113 212 213 159 75 126 89 149 119 155 100 48 152 87 96 136 111 110 109 147 111 148 140 152 131 123 153 196 94 95 146 150 94 162 33 144 65 70 120 71 194 206 158 62 108 47 150 136 
151 112 154 178 183 97 96 69 96 110 80 153 136 135 24 107 132 60 150 124 105 111 141 143 125 203 226 168 54 140 160 122 97 190 118 107 117 107 133 93 47 176 107 69 233 216 173 37 114 145 119 87 95 95 67 172 61 163 169 89 172 159 51 65 126 60 110 157 65 214 199 146 135 112 148 143 163 62 170 147 177 166 63 128 122 76 145 105 70 141 98 73 146 79 185 182 82 132 100 96 
156 86 112 144 158 119 118 133 207 79 118 83 129 95 165 115 122 33 130 92 82 122 94 126 77 176 163 164 123 67 88 74 96 136 131 119 139 128 170 58 85 147 133 124 111 118 88 167 143 130 86 73 38 181 115 192 113 122 120 82 82 98 106 205 131 62 121 52 158 60 113 197 117 196 118 201 75 152 142 179 155 79 124 115 72 184 124 116 85 215 100 160 108 203 124 29 110 131 191 122 
177 59 114 207 98 153 168 49 120 115 135 168 194 111 133 146 186 70 124 80 142 181 146 133 135 107 144 97 32 158 202 155 124 94 157 86 143 158 195 172 86 131 136 161 124 81 139 125 113 129 191 190 145 142 139 173 60 72 200 142 167 101 167 111 155 138 83 161 127 165 145 115 111 123 108 153 40 209 173 129 179 106 160 105 41 188 155 82 205 156 207 106 178 205 168 168 167 100 145 111 
125 116 136 198 172 195 78 162 116 92 101 139 95 142 144 28 53 115 171 71 65 126 148 165 41 123 105 100 70 118 184 120 137 130 141 155 145 86 125 175 135 66 134 123 140 186 116 160 94 152 39 125 132 159 159 155 49 77 57 172 75 80 154 128 174 110 189 86 120 69 190 80 75 191 101 144 129 74 206 161 56 67 145 137 147 140 137 107 181 100 85 79 144 151 122 110 120 110 127 121 
82 161 118 136 125 55 131 169 83 127 122 191 122 135 126 71 155 55 127 129 129 74 208 177 102 127 151 169 137 124 73 120 121 118 206 195 154 169 129 140 151 138 165 47 149 68 49 90 170 127 76 95 187 144 179 55 119 99 125 204 95 132 134 154 104 155 182 96 127 203 96 176 138 135 103 86 117 161 109 170 174 54 177 82 162 185 205 228 168 188 81 126 99 100 96 161 163 58 133 42 
174 121 187 158 106 182 111 152 70 148 99 124 134 117 110 62 101 118 129 139 139 182 125 104 104 125 24 141 89 128 72 95 102 88 110 43 125 143 96 170 71 140 141 156 156 97 78 97 91 92 135 140 108 97 153 102 120 111 130 48 146 203 178 106 119 58 57 107 123 139 127 95 163 201 122 168 139 158 127 68 128 133 128 176 180 167 149 52 204 202 66 90 220 141 92 94 39 86 151 215 
189 155 151 188 82 75 113 70 96 64 102 146 102 186 133 131 177 93 200 85 150 107 115 142 41 176 61 118 102 183 95 98 137 188 158 62 201 176 227 143 155 233 134 115 74 110 96 81 190 147 126 150 76 153 101 109 98 202 196 113 122 112 157 174 91 180 169 136 81 139 126 121 158 112 124 91 141 147 129 158 150 98 115 149 95 155 73 148 195 181 81 62 52 197 152 150 182 125 194 210 
145 163 143 42 89 126 59 112 192 128 169 68 117 111 159 119 111 119 85 186 97 77 125 113 122 53 207 170 73 187 72 136 113 145 68 185 90 109 77 132 173 56 158 134 98 107 105 214 93 53 103 188 127 81 101 102 109 172 90 164 90 122 43 158 133 127 103 133 120 27 59 94 187 189 129 160 144 114 112 137 44 134 51 85 72 132 135 173 179 172 99 98 127 132 144 134 47 169 163 63 
124 131 109 170 142 106 44 93 79 132 188 125 150 143 73 76 124 140 80 156 160 157 98 102 161 111 83 128 130 161 152 125 139 115 102 139 180 58 162 156 136 179 160 164 60 150 151 162 114 81 77 155 134 108 194 117 115 234 102 118 120 100 127 237 174 202 151 207 136 64 71 167 156 182 116 90 113 68 159 94 87 71 59 90 143 217 66 214 109 94 169 118 170 76 155 135 112 180 134 180 
211 79 158 147 115 78 94 125 135 129 134 163 162 219 122 143 129 187 102 35 140 117 140 124 38 180 76 174 90 113 168 205 114 151 159 164 19 114 69 174 127 118 181 119 118 151 121 96 147 205 112 109 105 95 130 145 179 53 202 166 99 133 130 85 147 144 132 130 113 176 213 66 85 163 177 120 101 85 125 172 151 189 71 179 152 141 92 135 108 115 226 119 156 57 107 123 211 140 130 131 
189 100 125 176 88 152 126 126 112 147 178 150 89 155 61 168 96 168 134 176 121 137 86 129 135 183 205 111 179 183 124 161 111 92 78 192 57 198 226 133 127 99 111 167 110 120 85 123 172 117 98 113 149 137 76 145 66 97 144 83 131 155 109 33 99 118 127 112 78 117 154 170 107 153 133 149 200 113 197 141 147 152 186 66 67 170 55 77 188 198 124 125 115 107 198 61 180 97 44 162 
160 202 191 168 123 152 93 116 109 176 108 95 178 119 139 71 103 115 113 84 180 159 170 174 116 170 121 123 115 113 43 52 77 165 119 70 73 104 148 126 122 120 189 232 103 160 131 162 106 72 157 154 152 154 76 111 51 84 118 161 116 114 105 181 138 31 28 103 123 44 208 181 106 125 59 75 136 129 156 113 152 126 111 130 93 161 157 158 138 177 127 97 75 91 122 57 20 122 40 160 
108 143 146 161 140 125 179 97 130 32 94 90 140 171 99 112 191 103 166 128 109 169 128 147 129 140 84 114 66 125 44 136 90 84 100 110 146 152 179 139 130 62 133 186 106 83 167 98 92 117 174 199 148 153 181 96 149 147 52 210 139 86 123 163 172 146 113 78 126 127 76 71 137 160 174 133 100 218 157 136 116 133 169 99 94 124 136 40 172 143 112 54 114 194 117 74 36 155 139 112 
180 168 17 160 111 49 81 137 161 65 49 196 230 74 52 139 182 111 162 23 85 162 105 176 194 24 52 173 200 116 61 160 101 149 174 107 119 146 124 167 180 111 64 84 148 113 106 142 90 206 98 77 199 75 166 104 94 174 104 134 178 138 154 78 143 93 111 169 170 69 132 188 6 92 67 78 145 218 15 128 14 164 96 144 52 129 121 140 163 112 127 194 116 108 190 178 118 157 124 94 
58 207 23 104 115 128 152 59 63 135 131 70 62 53 162 143 140 176 129 150 192 107 131 68 57 163 102 41 138 124 118 135 131 193 139 107 107 86 121 40 169 127 123 91 36 125 133 139 179 122 100 182 84 100 206 75 134 117 144 110 144 115 174 161 122 195 109 117 140 196 99 114 176 148 99 119 224 139 49 183 160 129 159 137 166 84 133 130 102 129 132 151 76 65 122 105 115 146 43 131 
150 102 217 93 170 146 136 161 229 117 198 58 168 147 123 147 117 98 198 175 126 79 103 128 64 138 109 91 132 71 144 106 176 176 74 121 125 82 140 189 74 124 110 204 118 139 211 76 155 155 140 75 116 165 170 134 146 197 65 150 238 167 189 60 127 166 145 133 146 231 85 218 215 100 138 54 136 86 149 209 105 58 184 188 128 162 95 47 104 165 119 167 141 214 146 115 122 127 112 138 
131 98 91 102 113 185 127 88 193 140 148 147 175 185 109 205 121 131 136 175 150 137 67 188 76 159 150 208 29 116 71 32 184 96 64 174 134 184 141 187 88 34 64 78 102 111 203 134 202 64 112 127 166 169 111 163 69 113 111 203 164 184 179 118 154 108 175 125 106 183 107 37 61 145 97 55 53 178 61 121 83 161 169 69 62 106 58 34 143 146 139 65 78 87 135 124 102 59 69 125 
75 71 135 97 90 104 80 129 179 157 20 96 127 180 126 234 36 189 154 161 137 146 94 87 166 106 90 143 144 113 97 145 117 47 124 79 40 141 123 98 94 101 167 62 89 148 99 122 173 49 98 107 214 208 64 51 113 175 114 162 166 136 93 138 72 94 184 90 118 93 106 107 86 37 78 155 112 101 153 195 52 59 102 145 133 102 147 133 119 176 68 84 112 78 108 49 116 64 106 101 
132 205 156 150 145 125 78 80 129 103 183 126 145 96 95 179 154 94 134 101 216 170 160 108 172 141 90 72 162 132 158 151 147 55 157 145 103 99 157 115 77 90 73 136 136 190 116 156 192 153 112 115 110 71 224 105 218 160 127 121 150 164 153 98 131 152 91 123 117 48 197 79 152 56 72 152 137 118 99 173 78 194 43 157 168 58 164 139 110 159 156 168 163 173 132 210 99 116 114 136 
71 86 95 179 155 239 111 152 81 143 92 192 100 160 176 114 103 151 134 55 166 182 167 114 106 115 89 131 132 177 140 143 172 113 27 111 130 123 144 69 190 130 114 192 135 197 81 137 171 214 122 53 83 156 113 109 148 150 114 40 173 117 109 106 78 139 148 227 36 114 130 126 74 82 101 120 94 96 175 134 157 147 159 108 243 135 98 70 215 117 75 70 90 89 131 66 181 66 70 154 
112 137 101 44 147 43 145 40 106 72 56 214 127 106 117 84 73 98 136 151 60 143 76 196 80 174 147 131 127 164 99 116 47 163 220 163 177 136 185 89 188 115 215 110 156 145 74 95 144 163 137 86 102 85 95 233 73 124 167 184 141 134 129 96 167 178 125 74 116 129 169 164 92 119 144 112 206 125 78 160 150 86 94 139 199 132 172 185 141 181 180 46 127 161 162 100 78 78 221 63 
171 133 110 93 84 140 130 127 170 74 204 87 117 113 131 161 165 177 102 169 206 163 125 171 104 121 127 176 116 137 137 136 196 120 92 124 154 101 177 123 79 114 207 153 101 159 240 82 121 61 137 106 118 167 149 172 97 124 126 152 159 199 85 184 120 154 185 87 152 114 155 229 86 155 202 146 129 165 81 78 101 138 141 143 216 110 168 185 83 159 140 171 122 120 184 115 59 211 67 105 
89 113 163 107 115 171 133 54 88 141 85 159 199 174 130 131 37 153 180 127 136 111 183 168 219 204 91 111 175 110 137 80 157 212 213 115 44 110 57 183 185 157 195 100 168 95 135 171 226 107 142 154 101 140 121 141 119 188 75 76 173 145 178 127 148 49 141 127 78 136 81 126 124 102 174 99 132 152 201 128 82 87 71 159 127 80 169 184 171 126 116 228 161 153 131 112 164 58 82 75 
115 167 175 93 76 66 144 154 131 130 109 170 152 129 86 104 103 122 153 207 76 167 146 131 222 139 180 146 123 169 151 144 116 107 168 184 174 139 129 114 182 163 201 105 157 142 40 158 158 132 182 129 87 156 56 166 143 85 140 143 100 120 20 158 107 167 138 168 42 128 117 145 75 174 150 152 115 152 98 158 205 204 182 200 149 64 145 61 104 205 122 201 75 197 131 58 95 130 198 135 
68 87 141 138 131 86 192 50 105 131 143 91 116 122 187 163 165 177 136 141 154 106 150 150 111 137 183 111 79 61 18 54 131 167 55 93 101 50 125 56 135 147 156 70 92 117 90 172 159 142 42 48 69 109 76 173 111 87 92 128 121 113 59 104 130 138 111 213 128 170 116 40 96 92 204 99 132 93 45 161 142 218 100 122 49 154 32 141 95 165 119 190 218 116 125 226 210 70 131 169 
126 95 189 214 102 74 152 239 133 158 171 151 116 104 109 53 61 99 121 126 105 148 131 183 150 110 166 160 159 146 108 106 143 121 90 116 119 186 71 181 158 48 211 86 139 123 217 140 161 115 97 65 167 77 172 50 203 119 141 90 176 60 154 109 68 150 151 115 114 127 111 125 143 176 97 152 177 174 156 114 71 135 69 85 170 122 73 132 125 159 100 146 113 143 198 109 222 80 170 133 
56 69 112 160 133 47 94 176 99 117 71 95 104 106 97 170 191 119 51 88 144 144 77 147 33 69 145 166 145 167 172 103 125 161 98 200 61 196 134 104 153 77 154 156 51 195 229 66 47 171 194 72 175 117 65 77 125 170 36 97 76 137 58 121 155 160 136 136 67 147 78 145 71 73 123 45 139 158 27 137 151 196 158 182 199 168 62 101 158 112 161 147 48 111 126 99 134 189 76 99 
143 135 208 53 74 88 81 107 186 149 25 111 138 179 126 193 70 97 173 104 235 165 143 207 129 120 103 180 138 102 43 60 158 124 102 226 141 162 108 200 194 174 164 163 172 127 142 43 154 124 139 179 73 108 141 124 122 170 117 152 87 145 102 161 122 65 211 107 84 50 162 48 133 54 147 120 157 107 180 106 32 115 74 181 120 112 184 109 25 114 129 131 200 217 64 148 75 137 83 168 
149 71 121 180 132 94 55 117 139 134 123 78 113 94 180 84 115 128 103 167 205 84 86 204 148 189 147 145 111 157 155 173 156 88 134 187 110 113 76 85 120 65 87 143 124 112 169 169 154 167 97 80 81 149 57 142 91 115 153 25 54 163 167 26 169 117 101 102 111 118 131 133 104 172 158 170 167 78 185 216 95 99 116 142 131 136 87 199 145 166 201 149 52 133 99 80 147 141 128 55 
140 81 38 118 62 103 105 205 188 160 110 81 156 70 88 150 96 104 147 155 30 87 111 133 55 170 137 160 79 53 93 150 135 145 167 160 82 170 116 108 202 131 117 136 141 105 87 150 59 122 43 92 132 137 195 193 158 174 31 157 148 112 103 207 163 177 49 94 99 130 127 134 108 144 120 56 171 143 136 54 39 196 86 211 72 163 221 77 208 123 169 67 107 102 137 166 83 96 121 156 
105 45 147 122 112 90 221 150 126 153 104 101 71 169 96 185 113 135 86 89 182 89 138 191 136 80 88 196 135 62 174 96 49 78 134 186 143 176 160 137 96 76 182 82 156 90 131 140 140 70 80 142 119 88 100 205 71 182 160 119 109 197 147 171 105 117 202 188 125 126 181 133 144 145 68 87 167 164 69 170 226 23 189 97 112 115 135 157 148 81 125 188 150 134 86 119 92 187 99 176 
157 109 133 142 118 209 101 129 96 153 68 94 113 157 202 142 73 96 155 120 12 195 138 196 155 93 57 152 129 138 125 207 181 115 18 144 149 129 106 95 127 78 126 136 152 123 164 177 70 143 133 109 80 71 62 118 81 61 153 157 87 171 109 153 186 169 78 132 95 133 143 156 158 100 176 151 172 68 165 140 116 152 119 208 111 171 168 84 109 136 88 152 207 140 150 150 104 164 211 138 
85 57 93 119 187 132 136 132 131 102 125 150 185 88 116 147 116 128 221 178 139 138 101 126 57 60 158 82 50 104 144 204 29 173 104 141 172 149 179 144 154 11 202 127 73 65 65 218 126 100 180 104 78 133 121 149 104 86 110 157 121 97 171 163 194 143 114 148 70 109 188 194 137 76 116 200 82 214 136 149 62 67 166 117 130 148 57 149 81 135 127 150 131 131 102 127 48 164 104 133 
161 130 146 60 128 53 101 109 196 34 114 96 123 103 98 95 171 15 194 86 95 58 171 185 120 141 85 246 208 117 172 93 108 147 209 112 182 153 219 79 104 189 103 66 100 125 99 101 132 110 173 137 71 102 207 43 113 72 130 170 160 97 190 105 153 125 170 159 112 121 81 115 30 199 140 81 127 101 101 64 61 113 149 164 143 186 120 62 210 175 106 160 212 186 71 128 135 175 92 158 
50 137 109 162 140 138 170 150 177 123 123 187 89 137 49 139 227 162 123 79 161 168 109 155 171 161 153 96 163 222 201 157 132 83 192 147 64 85 123 157 178 55 146 147 25 142 110 144 88 85 168 87 118 148 218 118 166 151 43 171 108 125 128 151 99 103 91 214 85 93 73 228 163 82 133 103 83 37 133 92 134 99 155 187 53 163 125 98 207 64 171 113 161 90 95 179 45 89 168 49 
95 161 103 141 157 176 126 79 133 90 84 159 150 71 174 156 194 103 175 92 76 162 83 116 132 138 182 138 83 111 116 52 195 198 129 199 114 198 114 125 117 34 200 165 153 138 210 189 184 53 215 121 119 155 215 141 132 128 182 150 83 174 134 132 90 161 62 170 75 72 111 171 90 76 101 115 136 80 121 98 138 72 101 131 192 123 165 120 183 86 104 191 151 44 137 125 159 104 195 66 
127 107 189 212 116 108 146 133 68 95 179 58 150 159 130 109 69 155 156 139 113 103 121 94 82 100 87 187 88 143 119 138 216 161 86 69 90 136 125 157 206 76 135 41 118 181 58 160 98 178 193 146 92 160 229 144 74 101 222 36 116 123 107 126 68 188 168 155 84 128 115 178 175 96 181 193 181 84 129 158 156 216 207 28 177 148 136 177 79 105 172 135 205 62 177 202 181 201 153 53 
140 91 138 121 135 68 124 112 127 95 109 171 66 65 165 69 117 188 175 105 74 99 152 175 218 128 149 143 88 231 117 147 59 113 77 186 137 107 169 77 133 141 69 77 98 96 201 213 103 125 84 125 227 159 179 136 136 203 138 149 102 195 192 97 205 207 174 85 91 118 137 196 121 80 147 110 133 118 94 96 47 90 102 99 167 187 141 147 85 139 43 150 147 89 63 169 98 142 154 134 
95 173 161 175 117 95 152 75 59 100 139 175 94 146 217 76 187 122 183 167 133 107 109 82 123 64 124 68 184 166 64 155 190 34 161 132 34 77 95 128 128 142 100 174 139 110 105 72 109 134 79 151 149 142 124 123 223 167 106 42 75 136 188 110 55 195 106 133 62 102 153 126 57 171 102 150 113 139 160 143 211 179 192 185 88 183 111 143 117 117 163 64 102 108 90 121 49 170 112 200 
126 70 34 116 186 184 154 101 120 126 219 200 28 121 199 98 50 129 142 124 107 85 161 159 90 72 169 104 92 196 154 118 85 147 194 84 171 128 198 26 156 146 70 115 104 223 49 94 133 115 198 75 110 90 118 109 54 94 99 146 142 76 88 133 175 145 142 120 124 138 112 137 210 169 188 140 117 151 127 138 225 196 79 119 184 111 81 134 55 82 164 136 142 156 194 92 125 127 156 156 
78 113 129 172 123 81 156 141 48 97 148 123 103 135 151 139 142 132 140 77 97 109 43 116 108 117 122 92 179 94 94 136 162 68 162 98 87 210 198 127 135 140 156 150 20 135 91 121 175 174 125 112 128 144 82 122 132 63 121 155 52 116 150 137 76 172 138 126 140 191 136 188 187 87 140 31 137 204 198 94 203 124 190 117 77 151 119 94 164 151 200 33 202 131 78 150 182 198 79 126 
118 125 68 128 209 217 147 170 107 141 128 206 83 126 139 79 59 40 99 107 143 133 139 143 99 133 80 136 177 73 155 72 97 118 225 127 180 72 82 240 102 197 165 134 127 204 194 144 92 57 173 96 157 139 86 131 171 127 172 134 139 51 118 36 169 129 131 235 211 61 30 156 82 148 74 179 126 69 67 153 124 95 144 72 62 112 155 145 101 187 64 32 215 114 124 100 83 66 99 173 
141 166 134 124 130 101 114 170 123 169 177 143 128 112 179 122 203 192 117 68 126 173 182 88 153 145 90 107 189 57 94 63 123 183 103 85 55 113 202 143 69 107 188 166 158 132 124 70 106 110 129 198 141 153 115 128 195 121 100 123 122 145 121 176 65 139 114 144 107 128 161 85 174 126 79 222 198 59 130 152 127 83 142 146 129 146 229 119 121 120 133 100 83 103 130 175 96 48 126 152 
152 192 137 117 100 118 175 108 141 208 84 100 104 182 156 152 81 161 124 166 160 56 175 104 168 87 125 143 142 73 126 116 169 78 101 138 185 146 118 125 99 168 118 115 191 69 122 67 120 89 45 141 129 79 152 98 79 119 143 89 111 139 201 196 78 174 133 142 180 127 89 86 122 118 87 184 145 137 145 195 167 137 109 109 122 86 61 126 90 142 96 139 130 89 72 85 126 90 147 111 
169 108 113 91 165 74 99 168 64 154 119 90 204 150 82 196 171 77 144 116 173 164 138 111 83 81 94 57 203 118 148 53 96 104 72 86 122 135 123 66 69 85 166 81 159 102 177 115 83 41 197 106 114 145 112 93 163 99 212 144 106 142 121 93 86 169 128 115 159 110 164 104 46 104 87 152 59 50 100 98 177 182 112 124 167 169 145 77 123 105 117 76 114 90 106 114 79 134 109 132 
167 121 91 151 104 103 140 75 108 154 148 118 76 152 111 83 119 138 113 144 101 128 150 118 173 92 204 183 107 180 143 141 100 118 101 120 149 212 133 96 125 137 146 114 124 96 136 173 143 144 153 185 137 103 132 171 92 128 110 94 90 204 136 68 113 120 102 137 95 155 131 75 78 119 97 35 180 130 218 127 86 162 85 85 143 127 83 125 136 125 151 108 142 156 118 205 110 141 100 196 
64 79 158 158 83 115 134 152 225 85 170 164 195 138 154 141 194 145 163 208 141 120 181 95 142 173 173 139 107 142 102 134 83 111 114 121 83 114 137 112 162 172 141 80 118 99 79 81 131 144 159 101 91 179 50 140 196 154 171 101 148 113 164 136 198 138 61 71 192 147 140 127 85 81 187 84 98 176 183 125 108 111 117 177 177 166 128 87 200 179 151 137 133 164 125 129 106 115 117 192 
153 168 168 126 178 109 148 99 172 143 75 141 113 151 146 137 128 124 105 112 81 93 111 144 169 161 188 113 79 135 114 122 56 131 115 154 141 109 146 131 44 78 120 230 139 165 115 55 194 103 184 154 158 110 168 101 147 82 119 200 75 67 95 189 160 111 69 101 37 111 103 136 83 115 79 121 198 126 135 154 133 81 72 152 156 146 189 115 200 99 153 95 148 121 127 173 142 195 131 95 
73 89 165 203 162 195 152 65 92 146 92 216 79 138 129 88 196 117 202 104 105 114 101 211 79 160 51 196 118 130 121 123 100 160 144 115 85 117 120 96 68 184 137 105 149 165 124 148 122 83 167 188 115 150 93 107 91 135 185 201 141 153 77 172 50 170 207 101 119 79 169 138 234 175 129 91 109 99 100 93 229 125 102 120 189 156 165 188 90 104 192 130 67 117 128 122 102 219 105 97 
131 223 208 165 158 179 98 94 112 152 94 105 117 147 134 103 192 130 67 189 90 159 98 152 159 92 135 92 60 129 79 146 153 228 115 139 131 104 230 182 97 199 59 123 157 135 150 109 180 99 89 227 129 204 165 187 58 146 214 125 51 202 105 115 71 178 93 170 99 144 80 104 110 172 178 127 5 26 132 133 100 205 90 92 98 126 134 150 13 46 164 72 133 135 77 156 208 189 97 78 
155 172 177 157 153 87 143 163 68 112 73 61 152 193 130 92 211 95 109 159 129 144 122 111 76 88 133 107 61 127 96 188 133 94 79 199 129 140 168 105 149 129 131 64 60 76 76 168 96 135 130 186 171 105 213 151 169 115 135 193 82 131 134 131 198 93 165 109 171 166 132 206 120 108 122 150 179 133 193 197 174 66 121 148 159 67 164 108 87 84 123 44 135 152 133 172 102 190 146 114 
85 231 153 129 158 152 187 141 149 67 91 87 163 139 179 219 177 122 78 148 83 123 51 130 182 155 137 147 161 148 103 140 76 196 45 132 166 150 110 97 86 163 155 99 159 170 245 70 128 201 115 121 134 151 54 172 231 176 117 106 73 190 130 76 138 99 62 127 144 97 171 128 169 119 136 118 137 117 87 41 82 85 56 143 140 84 145 189 70 154 136 114 130 117 53 101 141 69 168 85 
155 131 85 180 152 144 111 184 128 115 26 172 99 124 79 76 44 97 173 106 170 143 29 160 156 157 207 208 150 136 65 162 37 111 105 168 204 177 114 84 83 74 187 102 47 112 66 98 106 94 58 192 142 112 141 73 87 114 137 160 152 80 201 141 185 184 119 77 115 151 124 134 116 104 77 91 238 70 111 152 192 179 163 185 76 108 166 80 178 87 75 110 175 196 212 78 133 155 72 102 
124 138 224 160 53 140 100 71 136 75 173 156 125 60 147 127 104 123 179 147 106 135 132 179 115 96 139 213 178 90 171 142 158 172 97 142 99 115 148 126 92 107 74 133 49 190 127 172 197 145 87 108 190 85 179 163 133 127 81 130 107 125 165 205 104 117 138 149 119 101 93 171 154 160 74 141 116 121 171 159 162 186 175 171 138 118 180 169 153 116 196 157 158 181 136 77 146 111 132 128 
166 140 129 102 153 92 104 186 158 149 166 154 127 191 94 112 62 79 174 190 149 180 59 104 168 93 139 87 157 164 158 133 126 130 198 38 198 76 117 26 128 149 83 123 161 99 42 109 173 55 97 159 129 71 94 207 164 58 108 101 133 128 136 158 103 124 115 184 174 92 110 184 120 70 88 105 112 116 171 142 97 133 122 101 114 117 129 154 126 126 113 128 202 214 38 112 162 197 86 150 
101 59 51 159 104 159 191 110 163 126 122 154 153 66 192 74 102 100 136 85 144 170 84 138 167 127 115 144 109 81 87 77 119 101 177 181 96 83 85 141 151 94 166 70 144 105 116 95 82 159 101 89 56 83 106 138 144 216 189 77 149 108 131 38 160 81 104 125 175 93 65 132 69 227 90 48 42 133 135 93 158 91 146 111 49 45 88 234 68 92 131 112 135 190 155 152 186 112 156 60 
167 119 104 96 126 194 64 182 89 71 61 180 115 74 133 110 130 189 182 160 129 110 85 117 186 111 86 181 109 93 157 93 142 130 119 132 109 163 131 173 142 144 161 158 122 55 86 180 100 135 45 201 200 130 178 173 191 157 175 104 118 123 101 197 92 147 107 116 82 139 208 131 41 117 114 131 116 141 149 74 130 200 163 168 148 116 88 85 66 123 47 176 176 51 184 153 141 143 148 107 
155 121 149 114 48 99 182 134 121 100 146 155 108 130 168 126 156 100 144 100 123 82 140 138 60 83 86 60 154 139 155 135 104 169 174 125 144 156 54 103 134 29 131 135 156 109 192 108 156 121 142 207 141 213 117 92 99 86 67 84 128 115 75 96 100 93 82 128 95 80 69 83 114 135 203 113 186 178 69 63 100 49 65 124 156 179 98 172 131 70 144 149 140 129 171 67 121 140 187 104 
144 143 177 145 94 122 136 221 162 118 83 66 151 77 139 110 195 48 104 161 128 190 46 173 62 100 159 146 139 118 167 71 82 82 53 207 75 103 178 100 203 153 184 73 134 144 101 163 164 187 32 156 83 40 129 186 94 104 150 100 96 153 206 125 113 114 166 126 99 117 177 121 85 147 93 145 46 42 161 94 130 114 180 149 77 79 108 81 119 166 88 77 168 167 213 106 103 148 148 101 
173 189 195 173 141 181 197 125 88 185 135 145 132 65 212 107 146 168 155 131 137 110 168 165 84 98 130 163 64 136 140 209 80 104 84 175 34 187 101 50 159 111 153 133 145 170 82 164 130 94 143 88 136 98 89 155 141 139 169 78 155 138 95 40 137 201 195 147 178 115 81 120 189 188 146 95 90 107 55 66 120 82 138 153 113 225 119 104 132 166 108 214 83 149 202 172 142 124 139 86 
114 174 96 116 189 131 130 107 95 88 194 113 148 152 139 184 128 162 86 66 116 107 126 185 143 139 87 46 170 169 74 97 121 164 101 138 133 207 92 176 135 124 110 157 132 122 124 120 154 177 90 131 133 148 129 186 64 137 98 100 145 168 194 150 189 201 78 201 103 100 101 127 112 65 64 155 152 133 53 48 214 137 180 196 165 210 86 89 148 150 139 129 99 105 107 99 60 127 132 137 
84 160 117 172 145 125 62 160 58 104 114 81 126 200 134 131 211 190 58 128 153 84 141 80 162 18 134 121 195 99 178 52 161 122 111 74 57 92 93 57 158 90 76 147 134 69 143 64 134 148 69 153 134 85 107 133 153 136 145 62 87 123 87 162 103 172 178 180 183 87 113 85 86 143 114 118 150 190 76 175 129 166 93 165 132 103 131 114 173 27 170 173 94 149 189 46 177 150 41 162 
68 157 107 42 124 174 83 223 155 110 106 127 18 90 221 117 116 121 90 80 127 81 182 187 110 171 89 83 144 98 133 79 171 131 80 112 100 139 186 81 85 234 126 118 155 72 76 152 120 161 66 204 180 170 136 186 136 155 241 147 60 121 175 128 182 154 125 197 111 156 143 76 110 54 212 194 126 153 181 128 199 158 123 193 77 143 120 122 134 125 45 158 114 46 127 115 99 110 107 114 
46 121 133 200 177 109 52 76 82 51 116 162 158 179 214 105 142 96 160 118 148 196 98 64 121 159 113 95 141 222 161 160 132 190 110 120 86 95 158 45 44 146 83 199 111 87 198 92 56 216 200 150 108 89 129 137 223 166 135 60 185 124 187 161 116 145 171 180 139 201 91 136 105 69 96 73 124 55 141 170 74 145 117 125 160 116 167 81 110 147 212 84 207 98 184 152 76 151 159 103 
100 183 131 114 136 107 88 65 114 190 179 183 156 85 197 113 70 139 33 207 169 201 168 89 190 173 67 56 136 138 179 123 84 100 94 159 100 59 205 124 145 57 174 167 95 126 177 160 188 107 153 245 74 126 185 89 106 67 167 154 97 63 113 152 95 141 125 161 89 79 163 61 137 192 105 189 86 223 122 134 136 235 161 161 188 147 92 84 67 136 180 78 137 69 100 75 141 144 106 128 
139 91 198 175 96 94 125 132 141 210 166 124 76 94 46 102 165 139 142 83 126 139 124 81 239 86 117 145 98 160 78 68 79 117 201 101 71 112 158 96 129 151 134 122 182 78 177 167 67 184 156 137 123 147 131 156 119 173 103 81 160 116 179 126 104 110 211 198 133 127 190 119 33 29 164 101 121 180 148 72 159 162 40 199 67 103 122 127 132 59 104 190 106 191 126 105 157 116 136 99 
72 119 160 132 109 42 119 146 99 96 67 103 72 64 227 169 153 160 177 143 112 149 169 147 85 139 171 193 145 146 158 138 138 153 90 114 123 93 99 249 169 151 91 134 133 129 203 155 91 181 133 89 105 143 70 141 166 152 103 168 102 200 172 71 157 55 45 114 125 111 126 58 96 88 147 66 200 86 59 98 150 173 211 197 190 177 85 157 140 195 40 142 128 165 49 131 109 54 130 109 
88 128 182 185 184 116 94 127 40 76 94 31 65 190 125 144 172 71 44 122 164 146 79 171 169 85 140 90 142 58 79 154 162 165 80 69 130 109 164 121 169 103 33 86 93 199 183 145 161 161 163 132 164 180 103 119 120 185 144 176 100 217 120 102 97 157 84 118 138 73 172 100 80 67 129 163 77 168 133 110 87 120 145 67 93 120 69 138 89 205 83 89 126 179 156 48 171 119 215 163 
176 90 170 51 137 179 42 198 113 157 86 159 133 117 107 86 117 139 173 97 92 122 134 100 73 138 158 140 190 88 133 70 121 85 156 189 153 78 74 138 121 102 158 152 66 150 170 171 127 108 125 119 89 141 150 91 59 89 128 66 133 166 80 119 152 169 138 198 142 135 139 223 160 119 82 170 206 88 141 189 119 140 74 130 135 140 204 157 110 22 126 131 166 143 184 80 154 92 43 152 
101 87 116 112 108 127 212 114 182 161 165 203 148 153 93 119 151 153 54 89 125 93 96 107 125 103 79 120 174 163 151 115 137 126 154 154 57 144 107 181 140 47 220 113 89 165 84 163 157 153 158 166 141 56 201 138 131 28 76 128 144 144 130 164 77 123 114 123 182 156 171 41 145 120 108 161 159 91 111 137 194 55 217 75 145 25 164 138 127 69 121 158 216 127 146 74 145 93 161 111 
158 116 186 163 139 57 145 109 128 116 83 101 165 43 148 143 107 161 120 202 156 149 170 64 79 61 71 34 114 248 99 158 84 79 94 97 121 155 140 94 133 176 55 109 179 152 226 43 109 118 124 136 141 204 190 80 88 140 90 111 182 77 43 156 140 144 116 170 180 142 52 126 119 59 86 96 170 84 149 179 76 116 187 183 131 162 120 123 135 118 139 138 83 44 180 91 190 202 116 65 
119 140 138 84 67 120 128 44 94 129 128 166 111 82 116 125 113 91 132 94 204 130 122 149 212 91 133 108 148 208 122 134 111 123 133 102 121 155 154 139 140 52 155 131 172 114 28 131 169 99 60 43 173 137 126 174 157 213 102 84 158 62 195 124 157 169 153 219 134 119 111 146 85 129 76 65 95 137 181 85 187 106 101 123 108 64 98 118 189 66 173 141 225 149 149 135 100 140 115 125 
106 156 111 182 162 157 165 88 122 209 142 111 109 76 124 132 183 149 137 185 170 102 61 122 192 139 56 136 159 169 139 124 178 191 123 155 161 190 131 52 110 95 133 171 175 83 37 117 92 111 194 132 175 174 177 129 104 92 193 91 86 79 140 36 116 183 48 156 164 196 175 136 161 235 142 127 177 162 89 73 125 117 189 76 120 133 140 81 174 149 207 98 121 140 107 114 157 122 113 144 
112 107 152 186 177 128 109 125 70 190 210 173 176 142 106 120 193 142 176 50 106 212 151 90 56 83 122 123 119 137 163 190 64 69 52 91 107 183 48 78 144 93 92 132 154 114 148 120 163 133 75 145 100 157 94 112 186 148 47 146 153 146 180 229 146 98 155 191 180 116 100 111 103 96 121 125 192 103 112 119 151 118 176 90 79 137 197 87 150 102 142 196 182 165 220 170 207 166 148 91 
146 42 92 160 192 122 151 81 103 54 138 111 157 198 97 92 130 91 84 112 150 203 111 158 143 143 123 131 146 132 152 129 228 77 89 96 163 123 113 119 72 133 123 87 144 171 115 98 140 141 130 94 183 83 143 200 167 45 127 105 158 50 184 109 126 200 72 139 78 152 181 66 248 63 115 206 106 120 167 178 172 64 131 89 186 104 50 132 156 170 106 202 82 82 155 129 123 159 204 162 
160 135 41 91 167 215 215 168 86 166 131 189 167 145 221 98 144 125 162 122 166 114 186 34 132 141 111 132 162 104 47 115 104 72 126 135 34 157 131 148 125 163 180 161 139 47 184 164 179 128 194 117 138 106 85 160 101 111 61 101 105 121 95 92 116 91 88 135 129 145 54 108 117 149 153 149 116 123 163 113 125 98 144 152 73 82 85 139 117 182 157 83 152 144 145 69 73 117 98 164 
141 105 118 119 43 177 127 101 113 181 95 102 129 187 152 67 199 139 147 195 140 186 70 212 101 175 217 163 77 152 155 162 220 169 75 237 144 185 146 116 148 154 162 197 107 109 86 158 128 164 199 156 45 104 206 123 148 188 127 123 130 141 136 199 125 69 115 200 121 166 179 83 187 143 115 127 163 92 120 135 79 150 155 87 107 165 100 170 169 167 172 84 77 90 36 109 73 161 113 148 
75 118 155 117 135 24 181 116 205 224 64 132 99 106 118 221 140 161 119 24 113 151 86 152 182 136 171 163 98 56 79 127 164 162 147 168 128 42 125 93 104 120 148 130 158 134 151 20 154 168 163 180 84 228 114 140 141 121 100 132 140 133 52 189 108 140 127 189 51 78 103 112 195 76 140 88 164 151 82 82 125 149 154 158 95 151 75 152 197 84 95 137 54 119 130 161 135 143 191 151 
82 111 140 140 203 240 145 120 92 75 132 99 139 143 137 97 100 123 135 79 132 148 59 79 101 107 177 128 104 149 235 107 96 172 168 174 119 74 124 216 79 130 154 101 212 155 48 150 109 174 149 165 141 99 168 201 74 194 100 151 121 198 168 63 58 153 103 70 145 132 180 188 128 102 100 53 124 90 218 65 141 132 68 178 148 171 154 104 140 136 184 84 81 65 139 182 149 130 92 220 
152 68 139 146 214 121 130 70 105 130 65 126 99 132 157 166 152 50 71 149 158 120 44 96 164 153 148 160 84 184 148 127 41 144 209 66 113 135 109 115 132 136 198 125 99 183 101 150 155 214 187 69 87 148 229 80 113 152 99 74 124 136 75 212 144 157 151 126 204 137 140 127 213 142 83 136 140 150 159 95 123 154 88 146 160 122 78 187 142 124 92 95 94 162 173 114 163 202 135 94 
144 59 117 151 119 176 89 70 99 85 176 148 117 209 152 110 73 76 22 56 104 158 73 110 124 114 192 70 223 108 157 113 82 173 174 45 94 161 186 155 92 172 119 118 47 52 123 204 134 145 120 185 32 126 101 57 71 225 183 163 85 137 174 100 207 89 181 134 11 31 136 83 108 229 133 140 114 88 66 174 141 112 134 146 95 203 126 129 138 118 133 178 119 119 140 71 84 173 31 191 
145 118 113 62 8 141 172 196 119 70 176 172 105 149 69 139 84 100 65 144 110 132 146 137 183 138 98 58 124 53 126 120 131 144 90 166 187 141 190 41 33 126 164 153 66 183 217 69 65 86 181 154 113 133 64 178 111 126 145 102 156 101 95 130 170 62 119 141 109 70 59 103 156 96 115 153 165 151 118 109 180 68 95 105 120 159 164 49 112 51 116 127 195 106 164 155 133 98 171 152 
99 116 69 120 83 157 180 95 73 156 52 110 134 193 163 235 141 138 131 172 162 107 172 138 237 121 164 125 147 83 158 103 151 34 157 154 111 146 154 122 160 110 140 139 163 102 112 89 134 56 47 189 98 112 106 49 134 143 91 85 161 134 134 157 50 70 169 213 155 93 66 49 37 141 121 102 77 111 117 228 185 91 125 80 132 54 150 117 130 118 117 146 52 169 148 228 156 87 137 203 
189 225 168 125 69 133 57 192 84 59 110 144 202 109 177 126 230 145 124 163 122 79 48 133 63 99 123 78 132 144 176 104 137 164 85 167 183 99 23 140 81 67 182 138 97 138 130 154 142 81 156 192 122 96 90 62 144 143 115 126 161 77 96 44 145 189 76 209 69 198 146 113 100 126 92 125 142 69 95 188 108 115 154 155 132 113 53 118 133 139 115 188 163 111 89 144 68 144 98 140 
152 104 68 169 137 107 120 147 197 108 140 85 118 144 205 95 115 110 162 84 75 190 98 41 135 159 133 59 218 28 183 168 64 102 90 62 161 126 108 185 171 120 179 100 167 191 91 113 152 144 98 220 137 72 110 144 78 145 153 98 118 176 107 121 63 84 162 198 135 128 94 175 142 58 155 186 127 128 95 73 157 103 140 72 139 79 148 154 169 121 128 83 145 85 142 123 198 211 94 158 
83 173 136 107 123 184 112 43 219 115 60 132 178 119 97 85 78 111 123 147 130 215 185 65 131 180 186 137 167 48 176 134 102 106 134 181 108 85 152 75 95 109 110 104 91 137 145 154 170 150 188 114 116 189 101 64 77 134 78 157 128 120 109 59 172 69 133 150 119 107 81 131 150 159 118 95 68 56 144 152 76 211 153 162 241 111 136 186 75 94 58 60 119 116 163 145 101 81 155 150 
97 65 109 98 176 184 96 82 122 102 149 127 158 89 198 105 60 146 60 112 184 114 163 150 150 99 218 165 204 113 113 117 112 68 114 182 122 85 213 116 150 134 178 122 147 91 129 177 96 120 49 97 145 120 127 145 92 167 60 120 35 156 151 201 85 134 89 172 173 218 172 173 168 127 92 128 29 88 117 93 153 63 129 130 172 131 148 106 57 122 193 136 73 98 37 181 130 33 104 85 
71 164 200 100 74 74 168 95 95 157 153 135 108 127 216 46 47 65 154 170 172 107 52 85 125 117 157 68 155 69 37 165 154 133 94 184 98 76 107 122 87 131 123 93 128 51 49 66 100 173 132 55 81 112 137 134 164 83 144 113 136 161 129 179 93 95 224 120 107 138 86 99 140 137 136 149 129 102 157 31 157 188 124 62 163 112 169 76 92 134 116 147 58 116 138 49 188 80 143 106 
86 170 76 106 103 126 147 104 100 163 37 118 101 91 184 150 111 115 125 208 95 156 144 65 82 129 17 129 78 157 162 124 144 178 151 167 168 132 131 128 64 104 51 160 113 144 146 109 110 150 118 176 164 146 66 142 118 168 139 199 97 98 134 100 95 86 129 165 97 206 75 99 127 229 60 167 80 135 155 75 160 112 155 69 126 215 110 145 83 225 140 154 70 213 136 161 185 208 184 114 
118 105 130 37 135 112 82 126 104 144 108 108 172 92 136 105 92 168 218 143 57 114 121 127 172 176 95 186 139 209 175 167 97 135 82 126 133 140 129 127 116 42 115 154 182 141 171 50 94 160 21 147 127 149 81 167 25 140 150 97 110 152 131 118 208 63 87 115 124 163 144 79 209 60 151 99 63 183 173 105 102 76 160 220 125 149 135 182 135 142 102 88 139 74 163 197 147 116 72 107 
