P2
100 100
255
121 182 163 131 136 139 151 54 88 178 172 191 147 187 178 50 115 126 111 91 125 85 137 176 182 146 134 127 70 175 127 163 123 109 52 145 168 126 110 80 43 172 173 175 50 150 154 132 246 101 136 95 80 90 115 144 84 128 56 181 125 129 139 129 59 152 114 120 120 130 102 92 175 122 176 92 141 98 96 105 101 156 150 128 117 67 179 126 134 129 180 112 132 87 106 192 98 89 174 148 
92 190 32 116 80 199 140 48 133 182 77 179 168 184 162 67 158 64 76 153 129 123 72 133 194 160 206 182 150 170 118 217 152 199 55 75 130 36 153 134 70 157 213 173 84 89 181 130 99 128 153 115 102 117 132 95 154 114 146 138 119 153 116 150 151 235 147 170 127 119 96 73 160 165 174 101 102 186 46 138 96 106 159 69 103 132 162 121 107 167 102 210 17 119 84 116 142 165 116 166 
144 114 162 122 138 162 87 235 150 196 130 140 179 152 115 167 132 73 79 198 85 130 139 200 111 125 168 131 74 219 167 108 164 99 77 54 108 101 149 150 79 169 157 79 169 105 111 82 59 161 115 176 197 117 110 98 132 105 127 128 135 176 102 134 125 161 48 106 183 163 187 135 103 106 111 112 119 132 178 232 175 108 136 120 126 133 109 104 128 188 153 225 129 189 142 105 140 154 169 41 
151 193 127 174 190 185 147 124 152 144 155 120 190 149 66 117 51 105 185 124 138 84 125 80 177 145 168 193 151 97 169 79 106 179 99 231 119 71 52 87 204 105 148 91 76 144 105 146 104 117 162 105 85 149 99 75 145 165 172 180 117 133 182 81 221 87 118 169 176 132 198 133 137 162 150 162 177 125 89 130 162 117 109 200 92 110 129 209 107 157 118 94 109 239 193 129 149 66 164 118 
172 152 82 84 132 148 202 68 191 160 159 54 146 56 126 167 161 162 131 120 102 208 190 124 114 201 73 107 71 158 57 135 136 154 109 93 85 122 105 153 102 209 157 125 131 84 150 147 107 153 121 135 133 84 80 67 23 141 139 55 112 81 145 74 68 101 105 217 80 162 182 138 137 181 98 107 142 194 108 197 168 126 99 55 174 147 166 117 170 188 188 187 143 105 141 175 183 103 87 183 
134 142 117 156 156 132 145 146 92 91 162 191 108 182 192 31 63 133 135 121 157 185 217 90 135 179 125 203 168 150 115 100 113 137 173 165 107 119 89 157 128 65 166 223 73 105 100 111 109 163 76 79 120 75 23 187 214 80 120 119 114 145 170 89 114 79 199 66 79 148 62 108 104 154 113 76 112 130 61 96 153 96 113 201 52 82 194 43 131 85 166 127 99 29 159 125 166 108 163 94 
175 171 120 135 245 114 98 181 112 148 93 148 51 126 105 162 131 181 162 89 109 102 157 162 174 144 163 141 96 144 140 118 167 39 80 122 138 117 191 143 56 156 148 151 115 151 53 131 126 157 169 131 245 102 103 151 97 181 141 165 141 113 82 50 136 184 164 108 119 74 117 118 109 169 102 111 162 127 78 150 123 149 144 116 104 134 146 137 149 120 110 134 96 184 145 168 145 73 128 70 
120 123 166 109 135 114 91 148 70 148 205 138 112 167 191 92 150 56 145 159 114 72 190 103 80 182 216 158 131 200 164 170 130 197 135 142 177 88 79 150 154 53 84 140 131 185 154 62 137 140 130 167 140 174 178 38 104 156 58 162 133 88 165 138 75 93 153 106 77 110 104 66 133 136 37 189 67 105 137 94 137 114 139 197 103 109 94 138 193 68 168 109 193 95 165 122 127 174 151 185 
188 99 161 134 183 110 154 219 111 105 102 126 170 133 248 119 200 56 172 136 221 73 216 117 111 167 115 132 171 158 197 97 126 122 127 201 126 128 79 187 183 118 165 161 91 36 40 151 162 95 114 96 126 165 84 122 40 84 133 103 140 30 149 138 192 72 139 178 216 161 162 138 109 130 114 73 115 151 97 158 98 97 44 176 68 100 101 159 92 179 88 179 113 155 104 93 76 68 85 84 
149 71 198 71 145 171 157 174 40 79 219 53 122 111 124 125 66 111 113 133 40 110 72 170 94 174 153 192 107 78 120 112 169 196 82 58 173 131 169 111 29 219 128 118 150 63 67 173 73 35 70 175 82 98 97 187 75 146 80 134 160 167 111 94 116 78 129 65 88 143 96 93 58 69 81 177 88 152 134 130 118 109 23 138 145 120 118 81 159 150 197 199 97 84 143 76 91 81 112 158 
179 190 128 93 104 104 108 189 115 118 25 138 160 106 125 96 124 145 172 189 148 86 71 106 111 128 146 198 104 114 94 79 124 170 131 62 116 200 105 170 126 221 100 124 112 97 176 51 133 119 172 139 91 147 141 95 180 114 156 133 41 197 74 84 133 123 109 191 73 117 116 181 168 192 161 147 131 167 116 90 181 127 143 82 105 141 189 103 91 114 127 185 160 103 119 199 109 160 85 226 
204 88 182 96 129 83 116 45 95 164 153 152 134 105 115 17 101 176 116 172 152 54 100 82 131 98 172 197 110 156 131 197 196 202 160 130 61 140 47 164 80 164 91 142 185 152 153 149 87 136 153 179 166 101 180 229 162 162 190 120 93 110 176 180 195 115 115 140 157 142 169 107 183 138 189 207 121 104 116 135 64 88 81 153 88 103 193 189 222 152 94 171 179 206 159 157 155 128 117 150 
195 115 75 144 169 81 67 131 145 89 149 67 234 152 97 133 96 149 180 110 212 147 187 107 138 102 189 137 143 173 164 149 120 48 87 84 83 150 145 161 98 89 111 144 107 170 192 127 134 121 82 197 76 188 109 168 146 214 64 66 85 139 89 44 143 123 131 115 119 124 155 164 101 165 166 99 90 22 113 119 124 128 90 207 178 175 159 116 48 164 101 97 101 172 134 137 172 101 141 150 
173 163 92 172 107 108 159 215 86 109 160 164 85 78 138 178 111 176 132 197 162 31 143 180 94 170 152 103 125 96 141 117 121 133 102 116 54 137 167 132 172 116 160 121 115 151 147 87 170 142 143 165 167 118 175 191 67 150 78 116 195 154 106 163 101 177 69 191 185 159 70 108 125 123 171 83 45 92 170 145 53 57 60 154 131 151 110 129 140 92 112 172 48 112 123 128 92 59 53 186 
143 125 53 135 90 115 49 160 132 166 186 124 57 146 167 86 151 58 93 167 100 89 96 111 195 93 165 156 166 102 141 127 180 174 186 91 109 121 101 117 153 170 115 106 195 135 123 177 204 79 172 134 185 93 74 114 138 128 111 33 55 129 161 154 144 64 115 114 150 160 58 176 167 128 70 163 84 108 125 173 139 101 116 142 132 139 225 215 47 148 160 12 158 37 161 155 120 207 222 85 
118 49 150 176 70 101 145 135 142 176 101 137 207 107 164 70 55 146 175 87 114 168 115 71 120 90 140 190 107 169 129 119 122 127 146 141 51 78 128 45 144 104 136 168 85 93 109 128 101 95 128 161 79 93 173 163 119 177 67 173 151 72 179 94 135 179 75 220 122 52 126 73 84 172 124 102 82 81 159 146 164 144 91 149 208 93 141 167 91 188 64 101 99 175 96 76 85 191 188 84 
129 91 149 150 144 129 175 64 145 123 92 90 62 153 64 146 78 39 82 161 119 68 193 158 107 25 106 86 15 116 94 98 133 80 79 164 99 158 142 95 107 130 194 128 85 160 67 98 156 166 110 176 41 178 159 153 127 170 81 217 201 160 39 209 149 162 154 119 162 112 135 43 192 119 132 76 106 132 139 102 107 117 222 166 193 162 152 89 109 170 92 114 115 80 142 59 76 143 135 158 
168 121 115 99 128 126 131 196 142 124 82 167 157 119 78 182 140 83 137 97 119 68 30 119 118 110 114 73 186 63 94 81 124 77 71 168 176 109 128 112 105 64 111 147 145 96 146 88 94 133 172 145 108 56 129 153 180 86 164 210 173 59 184 190 180 36 127 40 145 139 168 49 204 77 51 85 143 146 160 65 138 90 90 93 157 106 116 90 145 93 111 156 90 37 135 93 140 97 125 158 
129 111 108 128 165 110 116 109 83 69 95 174 71 162 92 151 83 205 97 119 78 220 100 120 57 136 168 141 193 119 149 122 89 157 191 138 177 105 198 115 181 202 79 41 117 36 91 211 187 148 74 206 125 158 88 114 96 95 143 205 99 222 171 55 104 169 78 132 125 69 112 117 177 80 147 156 73 151 82 153 162 114 154 34 118 190 109 135 89 124 147 181 187 146 166 96 149 117 92 145 
84 186 168 44 176 116 112 75 139 215 129 64 164 60 44 136 143 170 99 181 99 49 140 97 132 229 87 134 104 101 73 119 37 116 90 93 137 179 179 183 130 155 130 209 154 90 155 160 191 114 172 100 99 114 192 94 189 40 115 128 133 191 128 143 140 145 98 104 120 180 144 132 79 195 202 187 95 155 156 53 112 30 189 123 133 202 144 133 154 123 102 135 93 65 120 171 146 151 127 87 
200 131 126 105 143 121 121 82 153 150 121 97 151 159 173 183 142 188 209 70 79 164 88 83 90 113 96 127 135 201 74 73 143 128 50 85 79 95 55 101 105 150 164 118 148 112 51 132 156 109 136 95 114 190 119 146 153 106 40 135 136 102 173 197 87 126 164 99 148 84 132 82 117 154 132 133 43 123 168 137 147 97 108 154 150 100 104 149 91 178 126 96 166 220 152 125 112 92 220 130 
115 177 99 170 125 35 112 43 113 163 111 46 133 135 175 45 107 100 133 171 168 168 155 116 157 159 224 134 134 180 52 158 26 157 181 114 54 84 155 121 154 102 181 120 59 111 64 156 159 178 107 137 136 38 93 133 124 66 161 86 119 83 163 156 140 143 124 168 151 121 178 123 136 121 149 210 148 116 126 190 156 127 38 137 220 106 88 138 47 156 135 44 67 178 175 150 184 145 194 87 
117 93 150 138 84 168 146 138 146 173 186 113 80 113 158 114 117 83 50 187 57 43 192 192 155 190 94 114 234 82 67 130 87 95 97 39 126 68 72 110 131 178 121 87 152 119 100 51 123 76 183 116 136 136 102 112 126 124 37 86 159 85 164 90 67 146 181 106 104 122 147 114 158 138 173 101 162 171 141 154 159 102 99 188 141 41 203 132 122 131 163 101 153 238 93 141 89 117 57 113 
79 90 132 113 166 193 133 110 130 144 145 58 175 68 146 134 139 143 101 88 146 183 109 137 139 168 155 228 164 88 188 34 140 154 116 153 102 180 212 173 82 175 99 59 85 191 180 97 125 119 162 37 70 75 106 126 173 95 164 97 84 78 104 134 141 152 109 86 161 63 119 131 101 153 109 152 75 57 102 173 111 111 121 94 48 108 63 167 200 96 106 154 61 163 104 100 127 184 165 146 
206 122 131 63 219 125 141 177 143 157 80 197 155 77 191 144 211 108 76 109 139 100 110 110 160 167 162 147 193 130 114 135 109 69 127 87 222 138 120 187 170 169 154 126 160 74 109 141 113 160 177 155 148 171 140 144 183 116 120 200 96 173 89 75 185 193 90 160 94 60 175 146 163 56 152 177 92 130 109 120 96 70 186 146 100 186 138 113 172 72 189 109 109 193 117 146 61 180 86 48 
112 127 91 212 150 86 84 185 133 104 73 122 81 104 84 65 205 175 101 89 170 123 165 69 102 167 154 145 101 176 228 86 92 62 167 153 143 166 133 127 169 44 56 138 141 40 91 116 159 84 83 120 130 197 143 91 97 164 84 92 142 157 71 147 77 35 188 122 101 164 83 181 129 162 76 82 132 112 116 186 126 85 196 161 121 178 151 83 82 115 81 43 76 110 140 196 140 110 117 124 
76 127 108 55 118 80 71 153 100 131 199 158 186 135 138 143 100 158 81 118 134 134 34 208 140 104 156 124 158 154 103 179 136 40 97 169 71 157 68 75 148 115 65 139 142 179 160 141 49 70 174 110 119 33 171 175 95 71 149 54 113 155 173 91 161 157 68 118 17 88 114 165 139 102 41 166 109 180 134 154 158 100 172 178 171 116 99 73 211 81 90 149 115 113 116 140 139 186 139 128 
137 95 180 137 114 172 151 84 197 205 82 108 116 73 176 148 46 101 87 156 96 127 219 76 206 189 184 15 153 132 142 165 141 181 228 149 136 192 51 148 98 125 86 41 137 56 86 113 146 170 157 120 158 210 91 121 160 175 29 139 126 129 77 182 88 122 107 110 72 151 104 97 215 150 118 81 165 106 164 183 114 45 153 132 94 55 110 214 145 198 107 115 93 95 117 119 215 104 159 202 
137 146 197 105 135 58 75 162 66 153 142 101 151 141 112 174 193 99 124 157 183 95 176 93 179 115 146 77 37 85 200 181 165 126 182 162 163 116 58 27 151 114 123 92 202 105 122 106 171 129 105 115 174 145 128 132 139 113 70 90 132 92 130 133 94 179 100 71 108 131 47 135 77 169 153 120 90 173 162 209 117 179 69 138 173 88 85 64 156 129 96 70 144 140 177 137 165 183 55 44 
78 167 88 107 107 136 45 79 133 119 152 121 80 194 46 79 116 147 192 62 144 83 135 70 109 145 84 103 134 143 138 153 110 169 123 76 143 166 111 144 175 235 179 52 130 172 45 110 103 82 134 98 130 110 146 28 125 143 160 157 111 136 76 184 211 152 154 129 135 75 153 145 117 86 118 147 210 180 144 123 103 87 136 193 81 142 161 154 100 128 136 46 104 77 183 144 80 76 79 170 
51 148 182 101 134 101 132 202 149 169 136 175 56 54 89 69 189 145 104 64 176 101 118 169 98 217 85 114 121 140 213 127 154 138 90 138 154 113 56 50 212 127 101 76 63 193 149 130 121 114 38 122 180 92 181 189 72 132 128 125 111 163 178 142 181 80 214 113 121 126 126 106 144 83 138 217 97 117 121 124 88 73 136 84 98 154 62 175 94 121 118 91 107 84 162 135 114 216 142 155 
70 44 103 79 140 89 194 124 160 101 66 157 50 173 167 152 199 170 162 167 105 173 122 206 111 81 139 114 49 141 82 190 152 49 153 127 194 151 116 116 205 125 95 136 152 112 98 58 165 135 157 150 141 141 47 124 74 175 181 158 205 166 84 98 128 176 137 95 151 88 109 54 228 123 84 54 209 124 95 74 124 84 87 145 154 155 117 82 159 105 139 183 110 99 175 225 158 79 137 180 
87 171 149 54 66 165 215 138 95 112 109 178 66 203 188 111 93 204 135 100 112 118 91 108 42 238 165 178 186 147 62 78 197 76 34 197 204 171 172 46 199 138 146 95 107 148 117 153 107 79 69 133 88 71 140 104 115 87 109 54 142 103 183 85 74 77 179 118 150 160 164 159 146 65 163 99 33 105 105 107 128 120 127 127 103 134 89 123 143 165 94 121 46 176 167 131 152 136 106 165 
95 151 61 105 121 122 56 190 24 60 127 175 107 89 186 80 199 99 174 90 159 137 92 136 147 60 175 215 156 87 130 133 111 70 101 109 171 64 164 135 70 170 91 120 99 78 127 209 125 132 176 190 133 65 107 79 133 131 147 82 184 138 123 190 125 86 97 138 141 200 81 71 149 134 124 163 66 131 206 87 139 75 79 137 119 136 113 114 91 49 92 174 165 84 136 143 185 188 77 94 
92 154 174 76 183 138 147 33 155 169 105 159 120 157 176 219 225 158 111 197 77 149 61 141 156 158 122 190 47 100 160 99 98 210 39 54 122 118 18 206 164 109 84 187 124 110 165 145 130 143 132 153 106 171 221 115 139 99 149 136 102 162 69 100 124 161 154 105 112 171 180 110 176 157 151 28 137 190 104 213 113 159 140 125 178 229 146 140 80 58 70 142 48 194 60 129 130 153 225 18 
110 89 80 124 150 215 164 103 134 119 127 116 174 76 38 86 56 134 190 110 192 80 132 147 81 87 115 95 98 107 129 198 160 166 150 124 158 169 117 128 105 90 173 81 190 111 121 161 19 26 148 157 177 116 46 104 175 22 222 175 141 199 185 104 185 140 179 134 135 107 159 85 69 133 175 111 158 150 179 150 191 102 139 95 88 118 90 78 163 169 88 108 122 206 88 109 216 178 209 83 
82 89 189 133 94 98 197 157 147 109 171 176 83 175 106 105 48 177 88 127 158 99 185 94 167 114 131 85 64 122 117 126 103 133 166 154 238 207 204 135 50 121 145 127 124 164 102 160 143 125 102 78 172 135 143 109 42 87 78 126 149 134 111 96 149 44 105 79 120 91 170 103 114 143 77 113 115 131 179 142 123 56 154 183 85 129 97 155 134 77 191 32 124 157 208 166 192 185 124 73 
118 153 129 150 83 59 218 180 198 170 175 99 188 140 158 119 71 95 62 122 117 110 196 60 91 41 177 166 98 158 33 156 155 82 134 182 200 111 147 69 14 168 114 117 237 113 123 102 194 152 133 217 132 220 103 126 161 107 222 152 115 156 76 103 89 203 152 101 200 98 134 70 110 110 215 232 106 171 132 224 125 140 96 98 91 154 117 116 105 144 87 154 141 63 86 181 55 130 98 91 
182 136 120 106 161 161 183 96 159 55 115 114 41 140 96 128 105 163 131 102 13 159 140 169 146 179 164 182 119 113 119 106 57 77 81 96 65 145 121 91 40 138 100 204 67 113 110 181 157 201 148 162 137 178 100 111 188 166 55 122 34 116 151 74 128 109 124 130 168 159 128 121 165 73 134 102 140 219 155 158 161 211 117 128 142 86 48 146 115 102 63 167 221 92 97 92 154 183 140 88 
216 173 156 34 165 92 186 157 75 87 104 69 141 113 101 101 129 85 243 156 94 193 157 93 175 45 108 240 119 149 167 174 53 166 151 173 44 161 137 158 39 98 76 112 119 111 113 180 161 80 202 210 89 185 101 126 223 135 53 33 54 174 133 71 142 88 59 208 168 135 154 97 93 38 162 82 147 69 42 125 118 88 107 200 155 65 67 98 174 153 70 204 152 133 47 63 134 77 111 141 
78 148 84 37 163 128 165 139 204 77 145 184 58 114 123 62 157 145 82 106 145 133 136 76 113 93 151 138 162 136 144 148 206 160 94 118 109 134 97 177 83 129 137 175 95 160 171 148 191 132 122 170 123 171 135 103 154 90 129 113 135 87 160 103 111 193 105 200 62 192 184 161 119 87 190 177 171 156 114 142 205 84 189 149 125 103 149 42 147 144 90 160 100 103 85 201 156 91 163 143 
151 153 160 142 58 110 187 103 112 132 59 185 101 108 172 175 229 109 143 132 170 193 77 145 94 158 74 31 130 196 83 64 90 50 153 82 183 122 182 142 134 169 123 153 60 185 194 185 161 157 57 204 143 204 71 96 216 175 155 134 139 74 156 141 187 132 161 62 201 115 100 82 54 44 95 108 96 126 164 101 230 158 117 201 135 171 64 166 121 80 130 90 116 121 97 158 168 204 141 168 
122 95 128 174 62 49 62 35 129 96 151 81 111 120 188 92 125 218 116 176 170 109 139 149 209 58 226 117 64 131 138 52 142 143 97 98 207 112 101 116 108 158 87 130 140 138 76 174 180 76 138 50 93 81 131 76 125 95 143 151 146 136 150 106 180 97 32 174 113 205 107 187 86 130 157 119 60 118 136 84 145 106 81 87 81 190 185 159 97 132 192 56 144 105 62 166 68 88 164 168 
101 186 157 166 94 187 52 135 134 83 171 116 157 177 148 145 124 77 102 80 111 140 159 143 143 155 123 177 160 107 195 108 188 165 116 91 154 117 171 45 43 83 57 103 114 204 185 147 74 92 68 90 145 178 79 103 99 174 139 95 90 154 96 93 143 149 168 125 118 165 204 91 100 191 110 99 143 101 96 153 148 53 116 152 123 159 184 207 102 152 145 67 99 114 111 101 147 203 204 71 
206 164 107 154 159 146 50 79 72 137 115 104 90 95 158 123 217 161 105 90 87 148 131 105 62 81 80 186 129 107 123 106 38 120 155 163 175 128 149 67 196 218 186 134 188 115 184 78 131 181 161 133 113 158 153 64 119 101 110 156 145 140 58 201 132 120 105 106 78 195 190 127 118 122 95 214 99 61 133 108 124 89 97 134 157 201 96 128 185 74 33 142 115 115 149 96 170 66 72 104 
182 73 130 146 142 68 103 101 145 103 113 103 125 148 106 93 54 149 86 192 123 196 103 120 51 142 38 149 101 88 93 154 172 126 114 165 127 86 148 144 128 106 92 79 128 157 138 140 215 106 64 154 144 67 164 62 112 115 148 130 86 70 72 160 112 99 120 99 171 138 120 183 169 162 200 121 123 89 186 103 97 136 116 99 98 38 159 115 169 88 146 58 168 103 108 224 73 88 171 138 
153 172 48 122 93 109 101 151 65 103 90 86 140 176 176 97 145 50 88 130 114 133 115 90 132 125 116 101 110 88 221 124 101 139 152 75 151 144 160 90 129 97 204 135 41 204 203 126 77 197 224 147 152 95 143 170 140 55 149 92 92 40 86 109 105 69 137 170 140 140 98 64 144 192 67 113 90 177 103 144 103 54 135 196 161 87 239 96 204 143 106 78 223 159 65 122 89 61 105 198 
196 110 167 81 113 143 120 100 198 70 104 79 98 169 193 153 202 54 127 137 94 67 116 109 200 44 63 159 174 68 95 44 125 193 76 88 135 143 130 188 134 123 122 206 89 116 135 158 109 167 158 145 148 128 114 167 179 134 233 134 60 114 181 189 162 111 118 127 159 80 148 108 78 195 84 189 82 58 134 71 136 58 127 85 130 28 242 99 158 150 141 91 158 194 169 162 45 65 202 105 
123 133 92 111 132 108 104 193 171 58 115 61 145 128 170 176 114 170 125 140 143 125 151 204 45 105 111 58 112 122 70 116 166 99 178 85 125 146 119 148 74 201 157 87 137 86 82 120 142 99 118 158 167 46 128 76 110 110 148 117 143 96 123 98 108 154 89 142 151 112 146 89 129 90 112 64 168 170 34 147 82 103 136 156 124 80 153 66 107 74 186 116 106 119 201 150 158 81 133 143 
171 217 165 152 150 94 77 194 98 139 107 192 127 141 134 170 142 198 86 107 125 144 167 68 149 77 174 37 183 125 158 177 133 173 110 99 100 63 90 149 63 71 92 187 180 87 34 93 154 143 141 66 145 69 41 196 108 157 102 232 83 96 185 135 124 189 150 92 66 144 138 128 134 161 94 78 119 170 141 120 170 68 160 212 123 143 108 150 115 150 146 183 190 58 68 143 29 132 193 87 
84 90 3 94 191 81 71 124 150 91 54 163 126 131 103 144 124 111 127 221 105 113 182 123 115 122 105 143 106 116 101 60 97 115 85 134 157 76 126 94 76 73 130 139 49 84 64 175 147 131 122 130 134 59 193 81 136 129 111 181 133 190 130 118 153 174 167 119 120 199 58 165 162 138 131 147 78 164 181 155 123 109 173 190 120 131 212 95 111 100 117 170 145 183 170 95 181 153 142 101 
153 169 127 146 108 107 147 95 124 180 147 110 94 112 167 89 130 171 173 162 76 163 144 74 114 120 139 85 52 127 138 179 214 130 116 118 179 80 88 187 45 163 75 210 104 110 157 93 69 215 62 194 134 126 92 160 123 171 75 48 59 141 115 55 168 114 85 147 176 170 173 94 131 181 135 157 170 101 156 114 137 169 80 139 211 196 161 148 189 121 218 88 150 113 95 84 37 102 147 203 
69 150 66 103 109 144 175 82 92 175 172 84 149 118 129 98 95 186 175 112 155 136 128 148 85 117 121 142 102 124 120 55 164 137 124 101 105 166 218 157 63 59 72 208 119 149 152 45 120 121 45 163 69 133 38 126 181 178 116 70 87 123 192 217 126 190 115 105 98 167 38 206 191 215 68 158 101 104 132 149 90 29 184 79 144 170 130 130 151 113 140 83 162 74 125 68 147 71 64 80 
154 31 163 138 38 91 56 174 70 134 50 187 140 100 171 37 113 71 193 99 98 73 90 112 80 233 97 219 173 117 157 122 152 179 179 112 125 167 131 97 121 219 195 151 197 194 121 74 173 141 50 120 163 178 145 89 150 140 130 135 92 165 85 187 91 136 113 106 77 183 131 169 192 132 79 92 83 89 87 122 161 151 124 168 133 148 140 154 203 137 150 118 161 81 122 163 140 121 174 78 
129 141 138 157 175 125 90 125 134 125 143 176 58 86 199 128 89 97 69 82 75 184 104 144 48 132 192 94 124 107 126 163 224 207 124 217 196 139 150 105 133 159 183 182 198 119 119 211 119 89 60 111 186 119 167 36 132 106 43 167 103 145 68 80 111 120 145 109 111 153 20 149 136 120 185 127 59 135 83 198 130 200 107 162 205 131 176 156 75 93 165 102 140 196 158 108 205 154 214 223 
86 125 172 173 162 224 203 74 183 97 118 112 91 157 134 139 226 80 109 169 156 119 155 165 111 150 217 126 158 109 110 139 149 138 145 166 201 39 163 79 128 173 133 97 93 130 103 97 64 175 74 214 89 109 106 155 101 149 106 109 148 113 131 165 132 88 148 146 175 77 84 79 72 34 73 67 22 81 66 105 135 144 75 151 129 205 167 142 198 132 170 112 171 57 104 74 158 96 120 145 
87 30 150 82 71 137 131 162 168 135 132 70 161 106 104 82 64 96 127 91 100 109 136 192 168 179 107 128 90 139 161 115 201 108 193 142 82 114 118 103 207 33 205 87 147 129 171 127 188 55 29 166 152 87 48 29 116 157 82 180 162 147 104 82 89 105 181 112 210 213 165 152 144 86 125 26 178 101 145 92 134 86 127 90 223 208 66 142 103 141 56 177 82 204 93 94 110 205 94 206 
111 177 196 99 62 153 124 152 103 71 153 181 106 134 97 144 45 118 109 130 162 133 122 81 144 141 106 125 94 121 99 102 146 196 157 120 70 206 146 100 164 105 99 84 149 159 162 106 93 75 173 36 101 152 95 88 144 150 112 130 92 125 99 78 130 183 123 156 116 223 120 82 196 178 149 141 89 90 151 36 189 123 73 141 131 136 204 164 126 128 142 57 118 156 95 142 62 50 172 159 
20 121 107 113 165 191 164 128 134 87 69 101 114 98 109 98 78 106 80 147 167 110 161 146 120 156 197 165 154 127 178 53 162 142 105 102 190 87 71 100 88 211 63 153 109 72 94 132 155 127 143 154 172 134 45 172 126 73 132 173 124 84 197 134 166 147 119 171 124 153 96 123 127 172 75 90 87 50 88 188 108 135 131 126 65 153 87 12 181 76 92 115 152 125 199 209 95 98 147 231 
172 167 140 124 144 148 149 158 169 87 128 43 74 116 124 73 148 132 120 84 81 129 167 206 130 140 139 93 136 109 145 70 75 147 165 66 85 75 169 95 63 152 144 41 142 80 155 138 134 83 102 163 70 190 118 148 102 154 49 66 149 194 162 212 23 131 109 134 121 118 179 91 151 58 56 139 187 133 134 212 73 197 110 112 97 123 194 112 182 90 174 124 177 52 127 147 120 154 140 201 
158 147 77 108 75 153 153 135 184 99 187 104 76 159 62 91 182 163 102 122 101 84 125 135 221 163 151 111 231 149 173 131 70 171 213 99 149 130 162 152 127 158 92 137 189 70 211 136 200 132 71 134 124 140 219 82 165 147 161 204 154 119 84 88 142 80 147 113 107 171 140 133 114 101 60 183 77 75 87 119 101 128 50 222 183 148 140 117 92 137 208 142 136 71 147 25 177 147 95 112 
198 124 152 143 134 123 125 65 157 102 94 139 97 164 164 71 87 57 201 140 88 194 103 168 214 118 100 107 166 201 170 127 66 157 161 164 102 121 217 184 48 82 79 45 74 108 211 138 80 193 145 167 195 126 114 96 84 114 166 116 112 141 169 73 123 128 227 187 137 22 135 64 156 113 145 177 213 126 94 79 125 117 125 66 38 148 112 151 127 114 113 144 52 163 107 166 189 134 114 27 
169 226 141 73 101 42 129 170 174 140 57 140 167 134 147 118 70 157 159 177 87 152 143 128 172 163 138 55 160 108 209 155 150 64 165 163 216 208 103 128 150 124 171 127 203 138 138 171 152 148 63 162 151 101 117 195 113 213 159 98 149 150 110 233 157 95 174 97 94 80 105 77 97 149 138 138 149 157 101 145 80 88 94 110 81 120 135 160 117 154 40 126 90 188 150 171 69 58 126 152 
125 108 193 93 120 80 193 164 77 174 140 87 138 123 149 97 147 88 121 240 147 151 69 142 167 111 176 131 131 129 135 162 106 95 94 78 175 135 109 147 141 105 181 115 144 178 122 42 166 83 125 219 123 114 124 42 126 126 132 71 94 109 151 178 208 118 57 121 168 62 124 159 127 38 64 106 165 175 116 153 57 75 106 96 49 93 86 98 166 110 107 72 53 116 121 92 95 235 130 161 
174 192 80 123 38 35 86 105 175 121 196 77 130 172 199 193 220 119 157 100 112 203 149 169 191 83 91 66 119 175 103 104 110 158 164 191 164 214 125 101 159 94 221 148 149 180 190 142 110 177 165 149 92 108 135 129 127 184 142 150 154 176 184 95 195 167 119 131 188 60 64 125 154 122 109 161 182 199 156 94 45 187 84 89 150 192 68 118 53 107 120 78 115 86 151 171 103 88 187 155 
117 89 166 85 21 79 161 125 69 169 119 100 157 182 174 135 145 103 71 97 146 47 145 57 150 48 183 97 187 122 135 102 119 188 142 73 184 158 64 88 170 108 141 122 139 64 145 168 145 83 106 78 138 112 168 134 89 143 78 145 31 75 182 129 91 155 163 42 121 203 54 176 129 114 122 93 103 144 221 158 144 87 157 126 162 90 176 140 77 110 131 113 135 130 200 88 119 139 124 215 
109 92 149 104 129 161 137 116 81 173 147 188 136 58 120 140 54 150 165 58 186 119 126 169 161 107 188 112 170 127 151 156 120 146 163 75 82 108 154 99 199 110 114 157 148 51 145 104 138 115 192 166 193 54 70 104 174 170 217 43 96 142 119 179 44 125 148 94 87 195 107 135 161 101 98 171 159 163 123 112 131 143 187 144 48 209 109 79 155 185 72 67 119 137 142 133 164 188 167 141 
149 106 197 125 132 185 72 137 83 84 121 137 152 162 138 155 169 164 115 112 127 121 125 208 107 74 179 145 160 55 102 133 91 176 107 115 154 134 191 94 148 113 238 119 157 169 97 114 97 124 83 66 114 203 145 120 198 124 157 212 52 146 90 129 42 90 171 64 136 173 131 133 198 142 176 158 187 152 158 169 141 63 55 96 201 105 34 85 138 77 27 97 129 72 188 122 131 119 62 166 
150 153 153 43 127 101 98 153 64 53 182 140 96 117 154 45 167 127 112 92 120 127 96 115 133 178 32 70 178 146 134 123 126 181 96 185 170 41 146 148 141 172 176 103 87 129 129 85 72 100 65 207 142 89 129 202 84 140 127 138 212 162 79 79 71 98 160 142 114 172 99 122 86 143 146 226 123 122 28 56 81 86 132 178 102 98 97 118 106 51 94 121 202 15 145 92 90 70 96 181 
199 143 154 151 71 155 179 63 68 171 134 130 160 120 182 122 100 82 111 153 97 78 137 101 44 121 107 78 59 84 79 136 140 84 123 132 115 118 93 154 169 108 153 217 110 37 135 151 161 128 167 195 146 166 39 110 187 128 93 146 130 157 210 167 109 209 102 139 125 131 159 126 157 218 57 116 228 144 180 92 153 172 88 70 177 169 206 66 161 117 131 168 93 113 125 127 193 111 94 95 
136 154 138 138 180 157 172 164 125 151 159 113 119 123 116 213 142 143 122 86 115 173 38 120 190 132 98 184 174 156 106 56 166 94 94 132 77 63 118 135 152 126 65 93 81 53 141 109 133 129 107 106 101 191 128 76 156 120 71 132 117 114 130 100 175 71 146 57 152 127 90 173 123 115 154 114 128 111 189 93 174 141 63 151 167 151 76 73 77 155 117 90 84 143 98 67 109 125 92 158 
134 190 128 183 129 173 173 197 135 213 148 87 61 167 172 140 148 176 174 199 163 157 158 101 72 52 81 100 150 219 163 122 121 153 120 137 120 149 183 70 166 49 101 178 175 165 111 163 58 131 211 142 65 120 116 105 106 116 137 111 95 195 111 135 185 101 130 120 212 100 134 47 119 89 173 103 127 141 124 164 137 145 175 116 98 157 89 123 139 179 161 189 144 105 91 172 144 127 86 213 
136 153 127 140 105 191 123 129 129 122 11 189 147 197 97 32 220 109 63 134 165 106 144 181 187 129 41 150 205 52 178 98 76 171 131 123 108 101 156 104 111 47 66 68 79 143 163 158 140 192 164 179 175 162 93 132 171 200 102 176 201 143 174 136 124 46 85 86 132 133 157 71 132 115 95 118 215 80 97 134 131 143 110 91 72 47 72 184 171 129 33 163 129 162 145 149 120 140 156 189 
176 131 73 150 208 134 154 156 179 177 92 65 108 154 153 121 177 113 214 87 132 178 104 153 68 82 133 116 105 194 70 150 187 131 41 173 94 144 188 172 177 134 144 75 202 166 194 128 88 108 103 88 78 197 158 135 71 42 132 109 179 143 103 74 140 89 189 93 106 177 113 87 152 158 52 123 174 119 174 158 127 164 134 116 183 166 174 152 169 94 155 186 127 205 145 99 131 178 117 148 
127 105 129 189 101 118 195 67 135 102 166 86 98 196 185 113 125 41 115 168 109 189 92 114 176 78 94 77 147 142 139 147 124 143 147 25 200 39 74 124 57 123 84 172 77 60 133 70 157 107 184 93 184 108 96 182 96 138 80 175 157 158 72 88 68 191 62 55 123 108 194 132 154 175 85 126 109 91 142 142 213 61 66 107 236 125 163 167 147 179 108 154 133 103 134 129 156 202 197 89 
65 109 163 100 150 132 105 100 137 93 86 83 122 119 60 141 108 171 85 144 106 166 184 50 171 148 118 164 96 139 142 125 90 189 79 165 132 183 87 41 134 113 199 138 63 92 149 160 172 104 127 149 185 53 168 219 212 61 73 134 128 104 79 99 161 150 173 151 200 32 177 81 72 109 161 74 202 78 65 96 211 36 168 111 145 115 192 195 145 89 171 101 118 126 52 171 99 149 99 128 
88 154 39 89 129 138 156 161 128 69 111 124 92 145 138 191 133 157 117 72 75 78 97 143 70 113 167 93 117 65 151 181 148 106 107 131 182 112 149 143 224 73 139 69 214 143 215 181 176 145 140 136 155 90 172 162 121 162 109 201 163 109 135 166 161 175 90 167 186 82 220 125 199 135 116 80 184 148 99 169 171 217 122 149 135 102 136 203 186 106 101 101 165 58 111 123 192 66 189 108 
103 104 81 164 86 157 152 105 95 159 117 126 67 118 188 169 66 190 148 209 199 95 173 184 179 135 117 149 72 86 116 145 206 48 156 167 156 135 65 66 88 212 180 97 158 112 101 98 177 158 92 182 142 121 90 132 105 100 190 112 61 95 123 156 194 114 120 170 89 148 143 124 182 173 145 105 113 166 92 25 167 33 68 170 153 126 155 97 93 141 93 137 68 112 213 105 124 70 148 131 
141 79 83 61 93 213 148 79 114 176 124 172 144 67 163 107 41 165 137 157 68 163 142 116 172 143 185 79 70 197 155 131 85 164 175 154 227 55 58 178 119 163 177 166 162 87 66 217 109 110 143 93 70 169 80 109 169 144 170 115 94 61 76 58 119 148 195 171 150 71 206 187 77 124 141 86 60 136 163 87 192 180 122 54 135 207 130 114 166 120 107 71 119 100 44 157 180 126 125 83 
197 129 88 125 138 152 106 170 54 67 180 229 98 169 100 142 78 165 182 166 87 78 76 117 94 86 108 137 90 152 141 217 156 167 118 136 86 135 123 131 174 97 150 116 67 193 159 89 132 169 106 162 127 157 175 138 141 112 130 131 141 62 147 155 119 119 90 162 25 96 84 122 175 111 71 70 157 29 165 139 129 89 129 106 189 90 167 147 78 145 124 49 220 168 65 83 199 127 65 188 
178 162 119 194 194 120 35 107 140 76 88 158 222 157 126 189 66 168 160 208 115 113 237 102 128 161 146 139 180 128 44 65 137 136 126 232 136 109 85 104 127 117 29 128 162 101 185 122 198 73 87 123 60 196 77 173 136 129 125 189 142 128 152 160 181 134 155 161 144 195 198 199 118 75 71 229 78 173 209 113 156 140 145 188 124 160 104 76 154 77 145 174 116 148 104 108 101 94 82 139 
85 145 183 58 146 116 207 134 109 50 148 163 146 136 114 133 173 144 135 159 160 81 77 155 133 113 79 143 105 136 168 90 175 146 47 165 144 117 119 183 160 88 83 95 47 194 123 165 141 126 77 189 110 50 115 134 181 121 20 145 61 121 140 167 135 69 91 132 156 137 165 159 72 135 97 59 153 183 188 176 162 116 157 149 139 99 124 71 152 108 93 129 62 138 50 188 39 163 180 167 
60 145 135 107 158 123 107 144 217 167 89 94 36 148 77 183 118 178 126 139 202 115 31 142 124 79 93 161 131 128 99 86 79 14 145 71 106 64 129 186 90 114 135 115 73 102 175 145 117 137 94 59 86 153 214 142 111 137 218 107 176 90 117 34 115 100 82 90 184 130 189 171 128 144 72 93 103 139 143 147 60 137 103 58 96 62 78 120 62 206 86 88 155 163 172 132 140 172 126 115 
84 216 73 132 159 106 195 75 98 112 136 90 131 40 146 79 138 92 90 141 187 150 150 28 150 155 129 141 186 86 107 112 103 102 118 61 107 119 164 155 106 116 149 136 158 167 111 118 112 135 103 52 158 161 80 89 118 175 101 181 142 115 66 121 219 133 52 115 64 83 114 84 120 88 185 64 157 56 77 176 105 153 64 113 138 124 153 187 94 170 54 202 138 112 136 103 58 152 142 108 
37 82 164 171 137 177 213 63 91 130 132 107 148 43 99 72 136 140 129 171 196 109 171 143 129 101 136 188 214 90 92 61 192 71 189 141 116 58 47 183 73 132 69 149 62 214 65 129 173 142 112 88 117 161 126 108 190 79 124 128 157 128 51 161 96 112 68 63 52 189 170 96 206 80 133 149 148 191 149 164 134 137 105 204 179 119 103 195 74 156 125 134 104 84 84 123 122 122 125 48 
132 142 102 87 161 100 142 82 105 171 93 172 97 29 159 73 62 170 189 115 92 158 153 136 93 134 101 166 146 147 152 151 95 135 168 99 101 140 116 192 117 170 150 180 88 161 81 154 225 196 198 155 136 103 132 76 169 75 134 128 133 168 45 105 177 120 207 134 215 168 112 112 166 209 220 65 66 126 130 77 169 110 117 92 172 157 129 139 57 229 65 177 135 196 64 79 146 57 149 155 
140 126 104 156 159 149 157 159 163 110 149 170 111 137 104 118 48 155 108 84 143 144 170 148 126 44 99 155 100 121 56 192 181 157 85 98 113 61 197 119 45 188 191 135 126 172 185 83 96 118 142 130 129 115 98 176 93 163 174 130 147 98 132 97 166 92 91 145 209 92 115 120 151 113 78 32 59 88 171 128 167 183 55 88 46 146 103 130 99 204 174 205 149 96 130 139 133 83 132 131 
183 155 115 147 101 137 128 96 120 146 136 147 106 84 120 167 59 181 164 122 113 108 145 153 171 237 141 129 64 68 60 202 61 127 123 92 85 103 161 158 171 203 140 104 41 118 121 138 54 101 101 123 67 131 152 107 123 128 158 161 166 131 141 162 141 129 111 185 119 132 145 94 171 111 148 184 126 203 196 247 164 106 85 88 183 162 75 207 182 104 225 64 139 145 188 106 151 54 103 98 
153 142 168 154 131 68 204 126 122 111 138 235 147 137 86 48 202 102 129 109 83 187 127 148 167 92 137 79 135 179 141 80 143 102 150 154 177 186 166 222 127 101 92 164 111 170 126 66 186 128 135 105 61 29 65 175 121 127 83 194 137 78 148 141 129 115 183 119 131 78 82 122 97 135 61 79 33 92 52 88 181 82 199 132 47 166 80 194 136 159 129 166 149 64 220 121 122 86 93 190 
202 109 124 106 151 141 186 126 126 105 184 164 162 150 183 74 13 93 89 121 91 107 201 110 169 143 141 119 107 119 85 124 113 123 122 87 92 111 204 144 86 138 74 162 159 67 122 151 105 191 111 113 145 98 165 93 52 149 153 82 107 172 70 73 174 111 100 168 80 122 108 78 83 40 64 51 98 68 197 99 118 175 98 42 156 44 116 116 129 154 97 168 121 96 143 50 98 140 165 50 
160 171 94 179 188 129 84 86 114 106 206 153 58 88 233 127 107 185 74 146 126 130 138 124 192 130 59 126 169 80 98 188 200 167 64 141 135 173 183 142 154 178 146 116 88 107 196 145 186 98 191 92 131 140 65 170 79 146 136 127 161 130 72 51 63 78 181 107 174 76 183 227 164 155 156 147 91 132 157 103 185 161 109 120 145 170 128 90 42 39 116 42 102 133 90 107 96 121 126 132 
155 103 191 117 139 77 173 221 83 233 78 110 132 134 122 61 83 122 180 190 216 189 171 108 148 166 173 151 99 127 185 95 187 193 139 192 99 112 203 237 122 147 98 124 114 163 73 128 92 116 136 187 111 149 61 125 100 97 78 122 161 147 204 135 119 107 173 160 145 158 121 89 99 86 127 56 97 190 75 25 70 140 111 83 96 125 68 147 201 163 145 58 142 138 100 90 118 61 98 165 
84 117 183 94 155 49 131 176 128 153 87 131 124 136 135 66 237 77 84 101 66 191 169 134 169 144 152 66 180 108 170 159 160 101 166 185 172 65 176 89 80 99 154 123 91 201 118 120 46 142 78 128 81 117 126 65 130 184 150 85 193 57 81 82 26 116 72 98 107 132 126 76 45 162 133 92 48 105 100 99 79 142 103 141 145 64 65 166 136 98 137 127 60 192 117 116 78 155 132 133 
103 124 65 149 111 60 145 98 126 86 125 131 194 138 86 150 174 84 151 137 97 192 121 149 177 111 159 94 124 148 117 66 137 135 40 73 142 88 136 147 178 71 114 113 126 103 147 191 124 146 70 122 93 101 65 162 155 158 123 87 97 174 103 197 86 74 87 215 179 131 184 149 51 108 171 187 92 130 67 165 124 120 81 111 94 104 171 122 182 203 166 195 84 123 112 123 198 183 198 29 
86 106 137 161 205 155 74 172 106 156 163 73 172 150 37 95 117 123 86 89 94 128 168 90 172 136 174 145 152 38 87 164 102 130 81 113 79 91 124 184 142 130 96 214 168 104 131 109 165 187 137 130 173 147 142 106 104 144 186 196 83 160 126 140 120 97 152 81 96 69 115 54 172 84 67 85 106 104 231 129 84 127 137 133 144 218 161 181 148 157 58 146 151 139 207 125 136 158 156 149 
161 103 157 145 100 75 51 109 156 84 142 198 92 105 135 113 112 169 167 85 153 124 145 154 112 138 85 163 145 148 154 80 168 52 191 112 118 177 100 219 106 126 210 216 140 134 194 30 109 144 77 127 44 180 83 178 132 215 144 152 159 111 175 145 102 119 119 123 100 82 140 78 81 68 147 76 134 173 110 169 138 80 143 168 89 160 147 80 137 209 174 126 97 182 169 147 71 109 91 144 
149 93 82 116 86 93 147 69 112 76 149 170 102 116 115 179 140 68 117 149 160 161 196 170 119 67 157 164 145 126 154 92 177 121 169 90 126 167 176 147 108 121 161 108 130 111 162 144 172 144 48 128 97 212 161 157 105 147 111 140 142 139 80 190 206 179 114 169 86 130 133 151 181 194 86 97 171 126 31 72 165 85 198 185 189 82 92 77 157 127 65 105 147 85 110 221 187 110 157 184 
133 142 188 155 108 59 88 126 117 157 120 119 103 109 149 183 159 119 112 123 71 91 200 146 185 175 127 177 76 124 146 160 159 194 61 77 204 120 163 108 169 144 75 69 148 244 149 104 149 98 87 57 118 185 54 154 100 110 71 123 165 153 153 76 140 87 140 121 100 93 129 199 194 101 153 95 183 142 93 150 84 156 126 111 49 176 128 127 138 109 117 129 180 80 157 196 189 131 172 124 
62 76 112 107 84 213 55 95 170 126 150 180 146 136 91 100 148 116 161 79 56 167 149 72 84 131 134 155 65 58 230 163 102 165 171 191 115 132 164 81 83 202 201 135 115 61 176 192 140 86 61 73 104 139 88 68 102 62 88 182 169 143 128 141 125 125 121 149 137 131 110 146 123 107 85 111 85 51 177 169 54 96 132 145 136 159 123 120 75 107 153 199 179 137 66 190 150 128 143 227 
151 152 96 94 115 129 79 128 80 66 86 66 137 106 145 134 127 231 139 101 106 177 111 90 135 130 163 79 132 97 106 110 112 192 100 168 139 160 117 201 163 152 178 126 189 138 89 86 142 5 169 135 155 35 159 148 83 105 192 223 51 171 209 226 186 100 153 77 104 136 46 75 149 140 157 58 98 98 134 51 108 107 117 83 79 54 97 109 187 155 140 138 134 125 96 181 224 139 192 93 
