P2
100 100
255
157 92 105 188 155 145 167 79 160 109 92 117 116 96 61 240 126 196 132 204 99 166 209 110 146 90 148 194 196 103 147 204 69 110 145 124 206 113 49 143 123 178 108 147 65 131 96 123 126 61 33 89 135 64 126 131 106 117 102 144 147 174 123 53 96 83 155 80 143 116 108 179 113 148 144 149 131 164 188 177 132 85 180 109 115 132 128 136 175 233 62 131 178 160 190 159 211 50 95 135 
69 115 144 159 82 90 148 151 132 102 105 159 87 80 91 146 140 86 109 181 72 193 97 86 175 122 85 109 149 176 103 113 174 179 112 144 155 92 88 120 155 90 191 220 195 137 91 105 170 27 114 143 184 142 49 156 133 155 160 120 138 164 124 139 165 174 141 168 187 117 96 134 95 55 96 214 117 138 77 102 155 155 161 61 132 162 81 165 90 165 109 202 188 139 86 162 203 104 91 148 
189 177 109 100 114 60 56 145 97 46 118 161 72 158 65 108 179 98 146 126 127 157 144 145 163 170 102 179 130 84 132 140 119 112 73 112 63 92 112 114 187 86 179 89 188 32 123 198 161 107 157 96 172 179 92 154 218 220 153 80 130 200 130 208 86 116 69 106 118 106 64 104 130 132 142 130 163 41 135 78 161 93 170 171 70 149 48 104 75 223 129 186 125 138 137 135 156 141 103 147 
192 165 182 135 214 169 134 146 103 124 54 123 184 110 134 145 75 123 35 93 147 138 151 157 78 131 121 156 94 135 95 56 103 142 156 168 41 163 132 107 196 132 145 66 157 191 92 93 232 124 178 197 217 156 98 182 87 146 182 168 76 133 166 185 125 40 113 88 37 169 55 177 111 183 221 57 132 36 87 154 192 188 117 106 91 131 84 122 118 149 181 47 113 157 120 116 154 153 146 111 
151 185 134 93 77 184 139 188 116 126 97 122 19 146 155 73 142 94 164 153 213 137 128 167 146 182 189 115 85 45 166 81 141 109 122 89 143 144 178 134 122 145 161 93 110 146 137 95 154 229 117 153 167 85 222 172 83 160 149 142 131 129 121 191 156 120 79 146 83 81 112 52 93 30 125 79 39 204 166 154 133 103 184 40 143 99 153 111 73 179 119 199 98 52 90 147 211 110 108 55 
112 213 67 218 183 92 180 178 83 44 106 61 18 181 186 108 70 191 102 165 107 129 137 126 84 133 158 153 136 187 116 97 94 190 116 212 77 65 110 96 131 131 140 102 124 36 144 139 163 183 109 59 108 119 176 139 149 125 172 136 99 104 144 151 56 93 189 76 158 135 177 154 124 151 127 168 68 170 133 79 171 131 66 38 148 103 91 97 74 142 54 30 34 125 158 132 63 110 185 77 
102 62 90 135 104 170 92 157 176 115 196 109 133 158 27 192 83 167 180 68 103 117 160 138 180 105 223 173 171 152 228 98 118 179 68 60 166 103 68 127 66 125 72 131 105 98 164 105 75 45 116 152 118 146 141 163 13 118 64 126 99 150 86 83 119 58 151 103 119 91 131 175 176 84 175 79 116 125 207 149 145 133 62 144 127 111 160 146 177 65 182 29 113 104 189 139 160 205 99 147 
159 115 171 85 126 162 159 128 172 110 129 23 120 136 107 77 112 216 59 171 161 46 200 122 64 104 86 82 131 197 155 107 64 89 133 206 141 131 143 137 89 180 120 124 83 185 114 114 207 209 73 84 112 130 76 70 225 81 178 62 91 86 105 118 130 165 130 108 160 122 85 148 127 110 93 118 75 173 119 95 142 38 102 82 169 134 62 99 89 91 43 122 106 35 70 157 136 112 89 101 
124 92 114 144 137 151 152 176 58 58 150 132 139 221 83 147 179 97 129 142 140 112 68 188 139 162 62 75 75 51 100 67 131 169 198 123 201 216 76 118 147 35 213 90 201 111 140 110 115 151 196 159 96 20 102 160 144 43 114 101 129 102 87 101 122 117 114 133 146 103 66 101 152 80 92 112 113 113 59 166 56 79 128 232 133 115 197 175 43 89 104 171 206 71 115 75 91 159 173 98 
212 118 98 132 174 111 170 84 53 150 229 186 179 117 150 199 190 93 99 162 119 176 108 195 70 113 93 121 135 173 108 98 149 234 82 127 246 143 124 89 124 81 148 202 127 97 131 126 150 89 70 131 187 198 182 51 75 217 91 129 70 89 128 148 134 134 77 177 101 28 77 79 75 112 148 193 82 175 130 180 169 80 140 162 132 89 177 159 133 136 163 178 105 89 144 115 200 207 123 164 
143 137 183 73 118 95 129 194 69 107 163 89 57 195 130 115 98 125 99 194 129 146 150 55 146 132 163 115 121 105 145 124 131 94 69 102 66 114 170 181 162 132 132 139 94 84 124 140 170 122 156 198 206 83 119 178 154 140 103 146 152 90 132 120 155 170 129 171 80 97 84 155 80 57 157 98 68 111 153 124 176 125 150 177 79 130 154 46 145 63 124 122 145 110 109 153 89 144 101 96 
124 123 141 152 189 135 179 161 165 104 154 117 178 124 134 53 178 128 152 145 149 118 156 71 133 128 55 120 134 140 95 129 107 118 227 94 171 110 73 166 228 134 155 109 112 182 63 98 119 169 134 190 125 148 149 171 170 103 198 104 191 109 198 190 196 75 87 161 101 115 99 79 182 132 180 137 47 115 185 73 192 102 128 197 115 121 133 65 144 101 114 64 198 71 165 97 181 169 120 109 
172 149 154 237 45 147 138 85 175 65 217 190 163 181 136 180 92 95 139 60 192 133 124 174 139 203 115 229 175 101 127 160 168 126 107 140 109 138 108 221 28 153 212 85 213 152 114 85 139 133 66 156 174 149 205 83 140 147 179 97 97 190 94 187 115 138 165 102 116 125 77 123 89 65 76 80 226 134 178 172 130 163 144 159 106 204 144 99 156 153 144 80 101 150 148 35 132 135 101 199 
157 87 28 187 73 123 162 84 114 115 110 112 118 107 59 147 149 178 139 157 114 214 82 158 94 136 183 106 116 222 109 105 39 106 152 91 132 180 102 114 163 166 176 52 125 163 192 92 34 160 118 72 187 207 117 44 94 143 135 158 204 163 48 124 118 112 140 173 164 128 58 166 170 88 137 186 152 136 119 170 35 133 146 143 98 118 187 207 67 139 185 127 158 29 153 39 103 158 152 146 
181 148 164 117 37 196 118 134 168 95 166 118 113 186 132 174 74 93 100 192 113 216 137 139 141 117 97 74 71 69 191 86 70 117 136 110 153 127 170 171 159 55 137 112 90 162 155 140 142 199 128 107 125 185 126 61 115 125 81 79 98 67 139 54 133 168 55 88 110 76 137 165 188 110 62 74 168 163 175 142 106 166 127 135 167 61 124 87 59 80 174 173 157 145 134 134 82 173 113 108 
155 82 140 111 126 98 140 128 163 205 102 192 93 215 172 173 145 87 104 163 165 120 164 140 95 57 59 150 63 165 61 67 185 149 95 94 87 84 182 61 80 174 136 148 122 129 87 195 120 77 185 234 100 92 156 199 80 153 60 155 67 103 82 110 197 128 173 158 116 103 101 95 116 110 106 146 99 126 142 138 127 197 158 145 125 71 171 135 95 199 81 133 177 119 170 140 137 92 166 121 
187 174 148 147 68 143 138 129 185 73 196 92 142 127 124 120 177 152 168 174 135 132 150 179 84 124 94 126 189 109 124 82 84 91 60 238 174 124 23 140 94 161 173 195 203 89 49 100 77 179 152 132 186 168 140 90 143 133 97 159 159 174 104 157 121 50 144 91 70 106 143 117 171 192 88 146 128 66 92 146 109 66 65 57 139 125 110 117 159 93 19 79 166 205 149 103 155 123 60 149 
122 142 108 159 88 231 118 134 132 232 180 121 192 196 238 60 148 116 160 144 126 153 81 115 56 151 149 158 101 202 87 192 156 116 105 183 123 102 196 99 31 184 78 103 149 104 110 198 97 213 33 136 114 120 91 149 89 82 168 139 102 118 113 197 130 114 139 176 154 103 123 121 120 101 117 72 107 161 143 126 158 224 209 15 75 92 123 226 111 92 97 135 51 113 86 132 158 122 140 79 
122 168 140 49 130 133 147 180 108 49 56 163 110 191 128 117 30 167 93 196 158 172 149 157 158 141 142 139 195 152 182 100 174 130 109 128 94 152 153 83 143 131 93 123 115 133 16 175 145 157 111 202 164 60 63 188 211 133 117 131 102 156 49 133 109 54 72 130 74 79 112 122 79 101 204 103 96 144 101 106 96 140 118 119 173 104 168 213 120 172 140 175 118 167 193 144 88 113 176 121 
187 119 148 38 34 73 140 71 133 116 67 138 99 109 117 103 122 156 72 132 179 143 110 206 72 118 116 187 47 96 161 117 143 101 116 148 93 170 141 132 102 144 175 194 80 174 220 40 115 145 139 63 178 122 74 91 187 63 85 133 167 79 73 111 183 102 133 144 156 182 193 144 179 94 129 90 125 208 177 181 119 94 104 70 180 102 190 144 71 139 103 145 145 181 124 179 95 135 103 98 
89 121 60 180 127 161 152 126 106 120 84 128 217 200 201 190 127 36 123 221 155 29 162 148 157 116 116 57 65 160 168 117 152 146 183 106 50 158 189 132 117 131 116 95 168 130 123 138 143 159 117 102 113 101 31 111 69 42 134 104 39 61 173 111 74 83 136 145 176 232 84 64 142 171 133 192 80 151 195 67 199 100 157 137 143 96 133 187 132 138 126 131 88 126 190 139 211 136 26 69 
175 119 114 134 136 119 78 191 210 84 66 107 129 150 142 86 191 113 103 109 86 162 181 139 220 111 36 128 131 143 150 112 89 158 88 103 78 151 167 137 155 146 130 104 185 125 132 131 107 168 208 198 90 152 141 123 38 107 117 130 140 167 53 141 139 124 184 192 100 69 127 134 83 149 74 96 233 134 53 49 157 158 84 77 140 90 108 186 146 115 74 146 159 148 165 94 156 143 109 98 
156 114 86 212 203 115 129 80 155 154 86 102 69 198 149 127 128 154 94 76 163 179 111 100 21 89 68 107 70 173 111 126 208 113 157 118 52 98 168 221 17 147 202 134 112 150 80 69 176 140 153 215 104 44 98 161 115 110 110 104 139 130 138 108 113 188 143 175 113 77 201 212 124 99 164 183 88 101 69 109 125 128 151 112 47 174 155 194 228 172 119 118 122 47 104 92 134 21 59 187 
137 159 109 136 157 69 136 159 85 115 145 133 176 127 206 132 116 90 122 81 63 161 177 79 118 87 71 137 164 149 128 201 173 199 91 167 60 107 135 107 109 87 131 62 118 124 122 90 170 121 168 128 192 131 133 124 34 136 202 190 206 127 68 88 122 78 123 100 173 100 228 135 134 97 162 114 154 74 97 49 41 109 141 88 74 115 148 166 107 192 165 77 89 158 187 172 109 51 89 88 
132 183 192 100 157 77 167 86 203 195 146 127 116 146 93 172 115 226 226 158 26 113 111 131 98 137 143 115 182 140 141 116 115 52 145 61 176 203 107 174 192 86 85 170 136 41 42 29 97 118 43 66 46 101 117 43 83 197 145 168 144 207 137 155 223 93 137 87 111 100 130 84 112 127 144 131 161 110 150 176 107 112 89 104 104 215 80 133 136 69 56 35 211 108 121 122 128 136 120 73 
105 95 154 173 128 231 80 132 161 22 131 88 86 101 63 56 60 74 126 192 168 40 83 135 94 112 149 135 52 190 137 42 111 147 108 165 72 84 105 150 177 37 97 56 138 140 197 154 128 175 145 146 214 145 110 88 105 42 193 181 107 133 207 132 216 166 88 145 95 90 140 142 170 177 124 85 86 145 172 80 113 99 183 156 165 199 191 142 181 185 179 174 127 123 30 98 119 53 88 112 
134 106 191 193 159 166 128 78 162 156 140 119 140 53 134 193 157 142 178 104 82 239 164 101 88 166 101 84 199 78 148 140 119 195 130 148 48 149 107 119 160 81 130 162 140 52 96 122 68 98 207 99 122 151 137 163 128 151 161 101 146 141 137 84 128 136 122 94 95 122 100 92 98 112 96 173 163 182 122 107 125 197 86 130 81 189 128 153 77 147 90 76 123 193 99 44 148 115 145 72 
86 125 79 181 151 158 139 145 176 44 129 169 117 151 159 121 191 118 85 95 153 143 133 129 52 208 161 173 95 18 198 91 59 135 84 155 78 144 115 170 149 132 85 163 91 37 82 189 132 66 84 100 187 79 198 162 101 127 112 136 156 150 129 131 97 57 134 94 166 80 145 65 110 135 165 179 90 156 176 16 116 139 170 132 131 125 122 169 111 91 115 118 160 87 119 144 65 147 145 140 
87 120 138 233 152 161 96 75 75 216 131 158 85 86 116 109 67 111 101 108 139 188 142 129 122 112 151 102 174 75 41 132 145 60 133 119 151 87 157 104 129 208 178 84 146 156 190 121 141 107 72 148 220 126 177 110 92 139 231 50 190 86 113 166 129 97 158 134 117 86 128 93 114 105 82 88 61 173 200 142 105 150 113 78 84 180 139 84 24 113 97 66 96 169 127 157 97 159 118 198 
73 150 149 88 106 162 143 130 92 85 37 112 112 143 156 144 91 117 83 136 126 146 148 136 138 140 186 151 115 163 39 192 249 164 142 158 114 32 96 108 103 143 153 108 203 182 98 62 79 104 75 123 170 70 80 112 94 183 165 143 96 167 99 175 86 169 190 189 157 121 137 167 74 114 158 160 193 108 54 79 43 153 93 164 118 71 90 82 161 139 151 190 139 144 125 140 72 147 123 119 
73 79 205 169 123 76 147 141 101 189 107 151 176 82 64 165 153 53 131 194 86 68 79 201 117 109 176 176 113 211 96 163 185 106 208 137 119 191 216 166 156 117 184 114 179 168 152 186 23 154 155 139 140 136 67 99 109 81 170 105 69 102 26 135 171 148 188 68 146 161 127 116 83 65 174 187 74 73 163 128 97 94 107 125 92 213 140 131 155 174 119 132 165 156 91 162 35 183 92 169 
177 144 144 159 202 111 121 140 174 91 160 131 135 160 80 103 161 187 159 153 193 143 58 122 58 48 166 122 151 186 133 144 166 153 71 96 112 148 86 140 146 119 136 128 91 88 125 144 197 119 179 115 72 39 84 140 107 132 62 182 151 126 132 151 63 131 144 142 178 121 82 98 91 104 53 122 60 97 115 86 134 114 115 234 134 150 178 201 167 167 148 157 196 141 152 142 132 105 99 90 
156 160 52 136 152 166 116 57 145 132 117 124 178 160 210 147 109 79 203 201 131 148 169 83 117 162 118 55 198 105 136 145 117 125 72 119 99 175 188 114 90 107 235 84 72 51 93 143 190 82 37 107 160 90 41 181 40 21 34 147 102 158 54 116 22 205 175 124 71 88 12 118 83 36 108 122 140 54 181 125 192 108 145 139 83 123 51 33 136 181 175 212 164 205 178 107 56 111 90 97 
88 143 114 121 166 142 150 147 119 168 137 178 126 138 86 96 84 76 116 131 171 121 93 123 167 104 120 95 51 142 81 120 105 119 140 116 162 128 147 185 167 67 118 132 92 105 145 140 161 222 126 102 186 134 133 193 53 112 76 94 46 134 41 45 159 161 99 189 155 92 92 130 183 166 121 157 137 110 177 131 107 171 177 48 168 54 87 131 114 164 109 173 188 142 103 123 108 75 42 134 
125 176 191 63 224 114 160 149 69 75 78 90 168 88 67 166 187 134 45 91 127 79 50 38 122 83 117 137 110 146 91 107 178 161 194 74 80 117 125 135 106 149 145 157 133 58 114 90 115 192 160 79 187 61 163 167 193 154 128 163 85 121 219 67 88 140 144 73 206 146 92 83 85 151 159 76 163 145 141 123 83 88 141 189 149 146 63 166 154 188 110 110 82 63 81 110 121 188 128 129 
157 187 123 107 86 54 102 122 83 55 129 192 165 90 181 92 175 111 211 162 140 134 173 196 109 165 76 149 122 98 72 50 114 164 157 94 148 127 119 81 153 113 77 47 54 183 144 147 50 111 134 95 75 71 72 113 163 97 141 74 133 141 123 105 133 144 139 195 170 113 184 169 110 111 128 92 119 98 168 220 159 171 139 113 164 129 165 94 86 101 77 110 73 78 205 104 176 121 145 77 
102 100 134 234 83 152 80 94 88 152 144 117 148 183 153 116 88 126 133 135 153 100 52 47 68 148 110 137 202 13 181 90 195 172 171 182 99 83 104 180 65 232 211 152 124 180 102 130 140 107 166 120 110 73 91 162 170 70 88 160 158 66 154 159 152 118 87 15 187 133 153 116 133 39 175 54 21 158 88 164 33 150 152 220 184 181 186 112 180 177 158 105 135 81 63 48 128 144 126 172 
120 124 154 130 168 114 171 79 120 51 140 86 136 94 68 102 116 96 120 166 153 156 102 115 78 69 128 109 106 166 212 119 140 176 145 234 184 212 61 123 123 102 82 33 221 164 77 174 134 104 145 122 175 130 99 43 164 114 143 118 94 170 109 80 122 198 110 126 173 110 88 169 223 46 42 159 126 100 99 135 196 161 156 203 111 185 134 89 105 151 156 84 121 143 49 189 133 90 179 128 
140 171 154 62 113 140 152 127 114 157 142 134 71 134 185 103 90 95 145 73 131 49 109 180 182 51 50 139 103 79 92 177 47 67 170 156 143 128 58 155 115 63 137 138 137 137 171 139 36 100 157 137 194 111 99 85 80 98 130 95 78 52 65 113 201 59 119 94 178 154 98 152 135 182 131 98 58 66 144 158 99 120 51 70 38 88 138 72 205 90 98 121 148 108 123 127 88 136 93 121 
151 231 140 147 161 171 157 149 91 178 95 159 104 166 130 118 93 133 104 134 164 141 221 174 60 175 35 117 123 157 124 133 148 125 34 194 62 144 150 170 110 142 144 86 159 92 68 36 155 141 67 151 211 101 62 203 89 192 165 99 156 199 71 93 120 112 94 85 189 87 154 100 145 27 17 171 116 109 92 167 41 53 55 83 136 118 161 185 112 121 103 157 175 156 53 111 166 102 186 102 
76 134 83 207 121 178 160 118 131 149 95 139 164 129 124 108 36 128 161 77 208 190 120 187 178 112 171 81 48 154 141 155 169 124 60 185 133 64 102 121 140 112 174 183 79 154 72 114 155 143 50 141 127 166 54 97 94 206 129 200 148 54 176 140 83 87 78 200 114 40 108 133 177 153 84 140 215 216 63 203 131 171 165 115 154 230 71 111 83 141 108 117 120 59 101 99 53 129 70 80 
190 143 173 49 128 134 97 218 215 153 158 142 160 154 152 150 166 185 164 185 134 110 170 92 113 125 99 149 54 179 108 120 69 96 114 136 92 154 170 96 44 133 111 109 146 136 84 72 113 118 48 150 124 63 137 55 137 138 153 118 53 87 150 119 126 159 94 97 73 31 113 180 93 141 61 156 143 115 143 92 178 203 116 122 176 118 76 128 180 72 155 49 69 145 140 88 143 38 190 54 
132 125 144 120 164 170 128 112 84 190 178 87 103 113 98 65 178 164 177 141 99 129 102 110 94 195 111 66 119 127 137 110 89 202 177 110 101 86 175 142 149 87 242 153 149 107 90 131 122 134 117 150 76 104 85 107 173 237 83 155 165 141 185 118 178 159 63 72 165 136 86 175 165 114 169 207 102 167 164 71 177 57 124 154 38 218 132 102 106 45 84 134 94 135 179 144 117 112 145 169 
144 158 98 78 129 98 68 185 137 85 189 127 86 87 76 185 114 160 73 152 84 141 97 133 165 138 179 209 54 122 147 185 66 110 112 153 190 104 153 232 167 215 115 116 117 149 163 137 172 32 100 109 72 202 155 17 88 80 151 185 142 169 75 132 178 184 67 121 140 43 131 80 163 138 111 106 105 163 122 107 189 125 191 93 111 121 183 244 109 116 85 156 151 70 104 135 176 120 195 48 
182 122 98 83 114 62 71 100 100 178 79 132 114 130 165 200 56 195 50 174 138 75 112 112 185 88 105 103 124 98 104 157 160 117 185 108 172 85 85 101 129 109 230 142 138 142 148 214 126 163 132 117 124 167 54 136 154 160 82 169 120 56 162 57 79 186 100 184 176 179 213 87 204 110 174 86 208 88 97 128 55 116 185 137 127 87 145 117 111 162 59 159 133 147 185 41 22 79 114 187 
129 120 173 122 49 188 160 103 145 157 153 161 156 165 208 125 79 51 148 138 149 132 84 112 53 147 183 141 115 144 135 151 159 216 54 87 177 126 59 149 172 174 126 152 84 120 80 96 95 113 63 158 134 188 150 232 194 38 180 102 129 159 129 86 151 143 161 29 187 172 107 173 90 106 64 110 93 174 226 132 194 114 67 93 155 109 107 162 210 59 121 165 193 187 85 78 168 131 169 134 
113 196 131 78 90 55 166 168 92 109 109 175 144 109 96 189 114 115 33 74 132 165 166 166 136 114 119 189 138 132 35 38 123 126 137 141 184 114 120 118 107 127 108 86 111 170 92 126 104 216 71 160 162 98 144 111 154 159 100 171 82 70 146 65 50 88 133 148 86 176 53 150 76 187 33 94 81 124 178 156 81 117 139 82 129 139 18 179 88 192 100 213 86 59 162 200 178 177 176 157 
105 104 110 127 168 73 123 129 127 137 140 132 165 58 133 145 132 72 147 149 184 107 183 142 71 92 141 136 94 131 203 159 95 151 202 61 74 127 140 149 147 207 84 165 119 152 178 160 193 80 143 133 83 135 168 174 209 86 120 144 50 102 111 98 106 133 124 141 86 137 77 85 111 134 111 137 139 127 89 87 67 70 136 120 95 135 80 166 179 134 142 119 123 73 50 202 101 86 150 138 
112 122 168 201 144 197 163 217 127 129 131 66 95 137 171 136 120 168 160 94 182 151 242 121 170 129 176 113 146 148 110 186 143 181 130 193 91 121 53 170 100 116 164 89 47 81 130 165 116 153 167 99 108 168 75 117 144 74 163 86 55 62 116 118 231 133 106 137 133 102 46 179 186 82 85 83 126 90 78 155 82 107 144 179 130 122 126 77 145 32 130 141 111 146 92 128 48 89 199 137 
57 238 183 127 66 93 147 79 84 172 189 151 75 168 109 70 173 111 61 210 174 12 119 68 92 97 103 140 87 113 116 191 83 101 74 143 89 200 99 110 195 150 124 195 112 90 131 86 157 136 132 139 171 210 146 146 135 151 165 93 213 118 164 127 125 98 167 116 203 174 119 63 139 218 164 116 80 112 84 131 173 117 68 114 198 106 71 140 125 45 106 127 81 48 155 62 91 141 113 135 
94 130 168 117 53 198 99 56 92 152 182 78 84 95 130 119 95 169 157 105 195 52 154 100 109 117 67 111 173 191 44 148 95 95 131 147 167 212 117 137 136 146 85 132 115 116 147 87 112 206 165 189 106 123 71 117 163 132 169 206 126 181 141 111 63 157 129 104 145 137 147 105 187 86 92 117 165 168 83 94 81 94 143 40 133 157 150 172 177 111 38 170 218 111 106 49 156 142 142 145 
153 173 134 93 203 128 108 94 81 84 131 102 115 105 141 88 106 161 117 115 221 143 138 130 136 142 177 46 134 128 54 146 93 172 104 112 92 210 92 106 156 64 107 107 54 55 104 108 90 129 134 137 88 195 161 141 45 156 115 173 103 119 18 126 161 103 81 96 130 168 127 127 100 56 75 89 93 208 127 44 180 170 52 136 122 130 148 73 71 153 99 61 78 180 97 160 146 166 158 192 
100 172 54 97 159 131 118 103 135 49 116 123 123 108 104 106 124 171 64 101 120 99 96 133 149 178 130 105 205 175 170 124 69 94 163 159 76 113 139 29 79 113 110 141 41 204 96 80 177 169 110 181 24 143 142 151 124 170 211 148 94 126 95 116 174 139 152 184 56 96 75 160 108 96 22 88 211 50 208 128 124 123 129 108 152 101 108 160 157 144 181 112 133 122 143 57 108 145 118 142 
75 148 174 58 123 98 188 105 100 95 155 22 179 166 100 125 121 231 59 108 149 176 136 150 168 180 83 164 162 138 182 133 115 112 160 133 116 103 92 171 108 125 148 90 85 71 67 54 142 119 113 101 126 104 102 34 155 154 206 126 164 134 104 159 129 186 157 165 119 131 94 96 79 104 44 166 182 125 112 127 107 125 126 99 113 95 137 127 101 173 81 101 225 107 62 84 80 98 91 95 
99 128 156 18 122 102 80 129 97 90 49 35 149 159 65 93 110 56 161 179 135 122 162 186 149 197 147 63 100 132 147 88 143 141 57 175 153 119 83 154 183 158 127 172 119 149 160 117 165 150 100 182 144 107 70 102 163 209 57 123 182 107 47 170 108 44 185 91 90 91 41 136 94 166 247 107 128 136 61 174 98 161 93 130 143 125 134 108 118 136 116 179 157 118 141 164 112 126 186 138 
149 177 208 159 107 219 117 54 100 136 110 129 165 160 135 144 78 138 44 117 135 171 144 134 139 145 53 160 71 66 126 138 163 156 205 78 173 93 75 183 79 201 78 75 41 88 191 98 137 166 37 84 179 117 129 83 122 155 152 113 121 104 148 23 138 167 138 161 159 151 186 76 117 152 105 121 128 43 143 187 168 45 82 169 14 174 138 153 189 162 65 100 162 64 133 145 97 90 68 128 
200 166 72 213 94 61 146 247 87 152 170 179 121 78 233 101 219 36 65 96 137 128 122 100 114 49 155 128 109 111 115 57 97 124 125 59 91 118 121 93 73 64 177 142 91 175 121 99 157 102 156 115 112 207 126 158 187 226 114 160 185 51 144 190 72 95 160 154 146 106 65 118 87 31 108 123 155 148 95 223 211 111 82 117 130 162 181 78 162 67 125 149 157 117 65 132 74 92 85 161 
172 166 89 191 62 210 160 186 128 104 98 228 106 166 103 181 74 88 30 135 159 230 122 156 105 163 144 88 170 26 76 159 120 102 98 115 192 99 97 216 141 114 16 170 131 152 115 109 119 149 103 76 213 161 154 76 163 117 99 168 56 111 113 81 165 169 83 129 120 55 68 169 173 189 74 69 90 107 31 103 127 73 100 70 41 66 126 127 156 202 133 227 60 169 92 106 135 149 110 96 
96 126 139 119 152 192 182 157 108 171 145 157 93 173 57 173 91 151 146 94 90 121 75 193 137 84 126 106 175 197 115 64 102 143 104 130 174 182 193 204 79 135 155 82 97 139 98 117 86 163 138 106 138 118 131 138 94 132 110 115 96 180 119 55 126 87 123 28 92 130 34 144 181 138 187 98 149 116 15 125 134 83 86 99 106 133 117 105 183 188 155 146 78 113 136 100 55 100 130 174 
111 76 96 158 67 165 106 174 127 79 147 181 81 140 38 118 108 116 117 136 214 113 128 104 209 46 186 64 114 159 113 119 48 148 135 196 91 93 88 126 126 112 108 65 128 162 119 159 84 170 86 118 178 106 74 47 169 136 146 150 120 88 145 167 227 121 71 78 45 88 127 108 180 138 151 164 178 125 136 135 136 80 168 119 103 148 111 137 162 130 157 64 143 52 186 155 162 123 114 111 
143 121 145 135 182 209 118 75 97 131 104 145 81 102 162 113 138 103 118 101 152 173 154 168 149 170 65 116 114 96 176 42 93 91 75 148 67 56 175 69 101 162 97 166 211 66 75 82 97 137 100 103 130 125 87 133 100 153 65 167 190 49 44 121 89 127 17 139 134 92 145 165 112 202 129 105 123 179 130 142 117 178 106 44 128 64 74 130 61 92 140 93 140 48 83 138 195 23 103 90 
204 111 83 154 136 36 132 182 166 123 107 176 113 140 147 141 101 188 155 180 105 105 86 140 99 127 173 191 93 148 191 112 76 172 45 155 152 48 125 179 110 101 177 116 180 156 109 146 185 103 91 153 95 62 184 161 114 159 151 108 161 155 65 198 76 171 73 136 150 140 121 124 156 198 115 78 123 44 148 105 165 134 61 82 141 106 151 230 162 178 132 104 116 105 177 58 69 150 154 158 
108 109 190 177 211 98 106 198 203 129 80 162 124 88 43 112 113 140 77 171 137 114 144 66 129 132 123 90 149 145 193 91 144 164 129 108 128 146 46 172 155 90 125 201 142 200 99 149 126 68 120 190 112 124 164 105 92 129 174 113 146 160 108 141 105 135 67 165 57 110 168 171 125 228 127 149 72 190 174 153 169 149 93 110 121 133 154 65 80 94 150 160 149 99 194 131 99 63 167 142 
199 55 113 210 111 138 73 80 110 92 161 118 163 23 225 181 110 138 77 209 101 97 171 88 125 93 236 107 118 197 154 101 60 67 100 125 110 74 160 105 98 161 74 110 166 152 108 112 120 35 74 210 97 138 144 57 145 186 119 140 190 131 113 82 210 81 120 100 146 124 143 141 94 69 121 52 144 164 138 140 150 159 53 119 96 92 111 107 121 96 171 65 38 136 141 166 73 123 54 140 
178 140 81 154 187 151 135 110 110 73 154 135 145 182 169 92 99 128 216 116 174 133 117 110 177 127 123 164 193 167 53 170 142 144 44 121 143 154 116 186 122 75 101 70 171 204 57 143 88 144 132 71 139 102 113 196 114 90 98 202 140 135 144 168 211 163 72 109 133 58 92 138 190 119 181 207 79 135 207 146 152 133 142 108 94 141 78 56 138 140 134 143 189 56 48 62 103 169 180 137 
176 51 79 132 74 189 54 180 183 139 43 124 85 82 145 118 112 167 140 53 119 125 114 111 132 183 176 192 209 230 218 85 156 118 93 131 94 106 31 140 128 90 107 38 88 137 181 64 136 114 90 95 191 79 106 112 112 173 100 85 121 128 145 178 218 191 177 102 101 96 194 101 155 173 83 92 139 90 111 92 130 144 109 120 129 77 87 161 65 108 131 93 152 207 163 103 120 130 136 150 
160 64 129 57 184 88 87 54 121 154 165 70 32 74 192 88 228 164 70 134 66 118 178 169 87 131 91 118 88 69 158 72 90 53 157 146 200 116 167 154 70 134 101 114 85 150 167 94 143 173 105 133 66 129 208 139 192 119 133 168 87 119 151 115 145 157 129 149 92 152 94 102 147 126 51 69 167 72 135 72 189 122 170 104 68 107 118 149 135 119 102 40 88 123 162 99 65 92 135 154 
131 130 59 89 185 142 166 54 147 161 72 158 138 93 145 156 146 166 153 90 149 78 113 75 121 184 208 108 158 53 117 166 161 181 96 167 64 183 49 175 108 114 107 97 127 59 62 123 86 126 176 190 146 107 173 184 119 136 134 60 118 73 121 118 64 172 141 88 98 75 152 111 137 118 99 84 81 130 102 70 172 116 81 95 178 108 174 108 161 154 85 96 157 156 187 163 219 186 95 153 
159 115 198 150 46 218 117 90 112 90 158 119 78 113 125 173 82 81 178 117 121 184 111 98 147 46 171 93 150 66 114 142 95 169 143 173 122 209 144 57 171 156 137 86 100 147 86 50 114 152 162 174 124 129 87 173 44 167 101 92 126 79 126 102 108 72 129 185 140 93 112 123 117 171 151 139 63 116 198 102 67 92 170 115 162 78 73 124 192 146 83 169 119 118 108 67 172 176 126 153 
113 211 98 77 148 87 229 120 50 91 169 162 24 195 155 190 146 163 138 146 112 71 150 115 137 99 196 139 166 136 54 61 138 90 149 92 157 137 158 111 116 174 139 104 103 131 97 170 171 156 166 127 128 152 81 119 170 99 199 39 151 166 174 142 123 105 73 31 85 72 171 123 116 166 79 150 127 100 128 169 98 70 189 101 109 94 76 167 54 138 130 147 176 152 146 180 133 171 71 124 
168 35 107 100 139 149 42 109 198 109 145 122 181 150 155 107 119 87 64 211 211 197 135 132 89 124 158 136 199 55 94 125 31 73 190 137 95 179 169 107 132 139 119 193 80 168 115 126 90 119 91 75 85 144 77 92 74 107 196 201 162 88 195 97 175 88 16 153 177 83 169 103 156 176 165 29 223 126 91 83 153 182 91 11 175 172 205 86 107 126 196 155 71 89 111 225 62 164 115 100 
138 123 84 87 90 66 195 224 146 187 100 124 93 188 108 137 164 91 146 118 139 39 170 208 85 90 182 102 98 169 102 42 172 106 149 149 117 151 161 37 152 66 158 69 192 132 92 126 113 112 123 163 186 101 229 193 47 102 199 163 129 88 184 62 110 67 126 78 39 104 64 96 176 193 58 147 101 114 120 200 100 94 122 138 150 107 92 174 147 117 111 48 131 90 131 122 51 126 89 133 
89 89 198 86 112 66 175 99 165 119 189 220 165 173 203 110 131 165 154 168 174 113 149 100 86 181 46 137 99 162 177 107 103 163 59 169 124 187 141 156 103 146 87 205 196 151 113 100 86 182 134 153 62 140 167 105 130 138 185 115 127 122 88 94 177 125 147 51 184 116 138 112 199 179 130 182 85 145 106 98 198 137 108 115 117 194 177 223 180 71 149 142 103 71 177 109 120 206 133 120 
70 162 143 97 108 137 117 161 119 153 156 215 90 66 216 112 46 61 127 142 165 156 59 121 79 139 171 106 197 148 90 213 129 142 184 84 104 70 72 84 112 107 90 88 166 141 109 53 27 121 134 112 150 115 179 139 170 208 156 91 115 184 188 88 46 38 153 106 231 96 130 135 101 76 110 138 32 138 113 92 129 178 121 146 124 36 149 101 106 114 92 109 112 78 70 112 125 100 75 134 
153 117 145 80 123 90 187 149 120 94 149 99 136 89 158 158 100 192 196 145 103 104 177 174 119 130 92 160 90 201 115 170 95 137 123 117 81 133 136 122 193 167 47 173 174 114 62 115 103 150 130 95 148 33 87 153 107 127 51 112 195 114 129 116 119 68 80 77 182 159 152 209 123 155 129 83 164 122 127 33 105 135 146 167 162 160 118 112 148 52 156 100 55 139 118 74 117 169 81 94 
112 121 140 106 127 57 73 237 235 128 163 120 131 165 152 106 80 146 26 77 163 94 165 149 35 219 121 50 91 163 148 89 157 130 137 98 172 58 197 160 50 132 83 126 168 115 76 123 197 128 78 126 161 119 141 146 165 163 76 142 146 176 162 155 75 86 139 100 154 123 108 144 35 104 71 101 105 202 115 157 214 168 58 198 154 137 142 144 96 113 195 77 152 132 110 149 94 168 191 94 
63 144 118 183 162 139 71 119 211 69 65 129 71 84 130 163 89 61 160 104 51 148 100 134 86 106 148 71 134 203 92 168 141 117 171 189 142 142 110 133 130 78 179 129 97 125 73 185 122 218 61 139 97 98 126 75 150 106 128 65 55 71 120 131 162 70 181 102 36 123 95 146 150 174 104 58 169 156 71 145 148 112 145 94 171 160 119 137 99 129 167 183 148 107 138 175 122 76 130 146 
141 97 148 134 129 96 79 145 87 120 167 126 146 138 98 76 97 59 143 135 177 76 172 195 43 200 161 174 90 200 191 122 67 120 101 228 144 185 164 116 79 120 138 58 173 94 71 46 43 211 143 76 138 215 104 135 118 55 153 214 154 211 113 128 71 84 67 145 167 178 84 119 117 57 126 144 166 146 134 127 164 156 107 89 203 161 110 54 92 57 98 123 90 101 101 193 174 63 142 192 
145 180 148 54 129 91 173 79 133 163 139 168 133 193 196 90 86 44 96 74 225 92 139 81 166 210 77 66 149 157 85 150 132 103 102 131 123 79 166 80 81 159 144 114 102 56 228 100 157 117 121 148 86 84 212 163 136 176 136 170 47 195 127 166 102 153 81 151 81 114 110 93 172 148 235 165 30 100 75 109 81 99 146 228 184 99 72 124 113 177 139 174 156 104 132 156 106 158 65 130 
128 62 102 48 33 225 107 75 112 188 75 179 137 87 129 142 91 123 125 105 181 101 145 165 194 56 131 89 158 179 130 190 233 138 105 108 81 170 138 66 92 112 102 118 115 96 140 146 89 195 78 212 178 141 119 99 81 186 127 110 219 155 170 76 104 80 227 124 179 109 179 60 78 129 151 211 70 116 117 193 147 140 80 80 204 139 150 230 115 206 80 133 53 137 100 188 96 172 88 82 
213 70 115 152 168 135 44 75 139 209 133 104 112 169 112 196 68 163 132 53 156 123 100 147 76 191 155 162 84 123 110 132 179 159 34 147 110 165 161 146 120 77 167 175 85 145 226 130 119 116 162 217 180 122 167 151 147 96 129 117 178 129 162 133 136 66 133 73 56 85 165 163 39 148 104 97 159 88 149 150 164 117 114 141 134 62 91 180 46 102 152 85 74 160 175 45 129 72 58 137 
133 161 124 184 146 136 116 162 126 36 175 105 174 192 79 127 159 136 167 80 183 151 89 24 78 85 115 144 146 110 76 124 129 85 39 149 235 164 80 130 99 87 127 177 105 190 180 130 124 119 177 128 173 170 184 122 104 202 125 134 87 115 120 106 68 114 91 103 111 60 208 99 146 99 116 201 161 125 112 146 139 123 192 156 121 143 136 112 99 92 104 123 111 205 142 77 145 41 84 159 
125 152 159 170 164 82 181 118 70 119 176 165 160 105 110 170 74 42 109 150 158 163 130 133 144 196 141 91 192 112 107 146 52 101 148 147 143 113 171 114 191 57 122 92 207 164 127 88 96 87 126 86 120 212 26 69 76 125 96 119 63 39 92 115 168 148 106 40 160 125 236 204 85 175 90 101 149 199 99 106 56 155 150 168 80 111 86 127 132 91 112 75 156 143 134 157 127 48 113 78 
36 75 69 82 198 181 171 179 193 77 205 129 77 166 193 115 76 191 140 109 114 101 131 105 122 124 141 152 87 129 86 158 156 124 63 145 144 89 111 224 156 120 179 160 86 109 123 123 55 148 157 63 138 57 136 168 166 160 94 99 91 150 166 186 140 172 73 145 56 92 180 115 44 198 107 106 101 198 124 115 192 127 106 100 171 132 130 149 158 97 141 151 153 110 97 178 109 140 46 242 
171 130 115 111 91 133 183 218 129 86 147 73 76 127 112 153 135 106 123 141 54 153 207 195 131 101 108 114 172 113 131 134 102 75 155 74 104 112 158 176 99 159 75 164 116 176 169 96 162 133 92 61 80 75 115 145 146 121 193 163 138 83 148 128 134 66 105 234 132 139 79 92 120 96 108 100 160 124 152 149 142 122 154 137 208 184 137 130 24 167 119 93 98 116 149 160 115 132 57 123 
200 184 196 95 138 111 96 188 176 139 77 139 146 90 74 85 95 123 193 94 180 174 117 111 179 44 157 211 165 130 136 123 125 75 168 161 131 135 188 180 144 97 132 183 185 71 88 144 190 174 147 75 89 170 113 136 161 176 162 19 193 121 206 85 147 95 173 154 186 107 147 218 123 69 206 106 175 80 98 121 136 122 126 125 95 86 152 114 212 154 86 167 164 73 138 191 148 64 173 157 
88 161 44 215 42 95 60 117 169 144 115 188 78 86 61 165 156 122 122 118 157 131 138 125 141 121 97 196 168 170 103 97 96 76 164 61 205 148 226 128 71 112 207 51 96 86 114 119 138 139 88 77 177 118 77 80 197 47 119 110 153 195 122 179 108 156 59 85 121 125 110 90 157 62 94 175 120 159 97 22 90 217 116 197 157 178 183 108 85 145 27 118 116 182 119 176 72 71 149 127 
133 114 156 50 160 151 59 117 133 120 98 147 115 180 102 70 171 176 77 172 149 104 197 158 164 176 105 87 130 187 174 200 130 134 229 141 19 76 47 151 48 128 116 155 151 114 112 151 112 112 114 100 115 140 197 154 120 64 121 52 75 106 105 96 90 122 123 153 135 152 103 76 109 169 111 94 108 78 66 145 128 116 165 186 89 98 81 89 107 87 155 152 103 111 111 139 109 136 50 102 
126 127 171 158 156 107 113 179 74 61 115 75 117 141 141 138 108 90 123 189 149 88 84 179 181 111 58 90 113 113 158 77 143 159 69 131 134 116 53 138 160 144 125 133 101 62 105 161 130 107 175 191 129 116 133 201 124 125 106 139 79 95 123 73 72 137 155 163 126 189 132 183 196 148 180 46 169 161 119 100 68 185 137 133 79 172 63 145 166 117 169 145 101 77 112 104 160 127 76 117 
105 70 105 113 118 78 73 208 60 162 110 156 170 144 128 41 201 143 209 118 112 228 171 159 93 127 46 103 177 73 96 81 163 191 162 131 202 191 26 102 181 94 90 168 160 142 153 136 96 129 122 140 130 169 94 123 106 97 128 166 118 160 129 48 174 112 25 218 139 115 118 33 150 79 137 92 154 122 137 181 94 60 133 35 142 189 103 156 137 94 144 71 99 156 84 199 92 147 67 130 
173 180 142 149 164 144 105 166 186 219 45 162 118 113 145 124 183 145 34 43 90 104 124 119 102 100 102 138 150 117 53 108 114 171 85 107 148 88 108 64 110 110 147 65 231 166 198 121 175 139 128 15 205 198 113 117 182 83 63 139 162 169 130 68 141 81 90 230 79 54 229 184 170 87 110 168 108 172 151 90 123 159 148 189 60 96 103 47 121 139 21 113 99 160 142 117 222 109 74 43 
201 156 50 95 162 147 107 171 123 85 78 186 95 133 64 136 102 112 46 78 116 145 150 203 164 192 120 143 61 123 77 189 105 196 200 37 167 80 184 165 146 105 92 118 113 86 217 92 110 101 213 97 168 161 47 195 84 134 74 115 115 66 115 127 81 143 163 169 178 70 146 66 164 120 165 166 175 206 144 119 134 145 134 102 173 77 162 176 191 102 60 101 127 126 129 162 79 79 122 153 
116 125 123 76 155 106 143 83 167 155 66 65 219 143 178 140 45 52 142 72 151 102 168 75 46 149 95 113 34 155 84 86 151 84 31 98 170 204 174 114 91 25 94 47 181 102 127 95 127 129 180 102 193 153 49 108 156 168 203 145 90 123 108 171 144 164 45 163 125 151 138 165 119 86 119 148 146 106 127 63 182 114 59 159 196 112 70 95 153 85 139 132 126 165 121 86 69 158 119 157 
125 189 126 94 44 160 125 90 48 162 128 151 114 82 141 154 116 139 103 137 112 48 25 75 137 62 115 240 120 167 139 78 62 98 85 127 147 156 154 103 155 91 156 73 131 132 145 63 99 185 151 118 111 146 145 164 105 95 168 128 138 163 38 109 128 157 78 179 156 161 80 167 126 120 118 46 41 95 108 108 77 127 153 108 89 93 218 116 69 209 196 136 158 111 201 203 71 144 139 156 
92 154 78 172 159 121 140 95 237 151 97 132 124 157 112 163 34 215 151 119 156 104 99 208 80 155 164 99 137 179 169 120 107 88 58 70 179 137 211 35 96 169 170 130 154 120 128 183 121 80 182 133 162 122 101 89 104 118 149 25 170 42 186 43 147 132 107 103 128 234 119 158 174 113 112 126 158 88 130 157 154 186 87 93 154 137 129 178 81 149 82 169 132 121 63 67 164 128 86 139 
108 154 172 58 114 171 74 82 98 190 165 65 74 43 214 204 70 142 79 173 138 98 108 132 175 89 194 168 67 170 144 151 213 84 194 122 107 118 120 181 105 133 118 117 127 214 154 159 82 132 86 185 150 86 148 161 116 191 161 123 169 179 44 164 147 175 155 152 106 218 95 56 110 131 134 171 149 96 90 95 170 121 141 148 140 118 86 204 89 93 93 196 89 118 83 100 124 122 56 71 
132 139 148 131 144 169 124 130 82 98 185 59 124 102 176 89 161 118 135 159 153 82 152 110 99 113 144 109 142 168 111 78 118 148 126 123 193 150 163 106 113 148 101 121 121 124 113 134 87 197 194 118 154 51 131 145 192 131 77 143 184 108 134 154 145 62 119 181 119 160 146 195 122 150 143 144 163 168 172 152 132 113 120 143 143 96 145 166 105 227 222 156 128 182 147 154 59 148 136 143 
130 164 115 166 138 119 83 88 105 113 123 140 176 123 160 164 217 138 168 120 228 181 106 93 75 140 126 127 94 171 132 148 216 173 99 112 116 110 112 174 164 71 126 133 80 98 63 99 174 127 134 151 89 68 119 117 91 103 175 189 58 136 97 132 62 111 115 109 97 146 116 63 150 151 88 137 136 118 155 105 110 227 149 202 105 74 153 72 101 147 108 100 226 127 114 103 91 137 92 158 
83 157 144 104 101 106 61 161 100 128 147 128 169 233 119 168 78 204 95 121 188 82 230 147 68 203 122 148 155 126 140 86 88 64 79 96 182 71 163 156 147 169 94 146 192 186 82 133 199 119 19 178 172 100 117 97 171 145 104 232 144 134 113 83 71 196 89 109 176 135 167 163 108 171 144 114 106 134 160 128 116 153 73 126 128 151 145 141 77 88 119 115 186 134 135 74 109 89 80 113 
125 71 106 70 111 70 175 184 156 176 139 175 123 203 167 147 62 163 154 126 89 186 113 142 160 167 117 170 117 113 84 139 138 99 107 129 99 94 109 170 113 80 76 122 132 127 113 152 107 58 50 155 141 122 161 190 108 65 155 131 147 112 45 171 98 242 170 130 110 157 158 225 71 115 154 89 135 154 107 145 74 112 135 51 141 136 162 124 47 127 70 157 162 101 136 107 159 96 57 96 
