P2
100 100
255
69 139 116 130 113 139 31 120 206 95 169 133 140 147 161 106 160 94 128 146 71 101 71 136 97 73 183 78 196 125 156 183 132 128 116 82 68 101 93 105 171 157 84 156 107 163 128 128 181 65 118 107 135 113 125 79 123 193 134 106 211 177 95 136 163 130 132 170 143 76 95 133 75 143 114 174 106 159 103 144 85 132 118 121 97 154 197 227 154 131 131 81 159 50 70 55 140 120 87 108 
179 174 133 169 151 121 193 204 112 159 110 132 86 109 138 155 156 77 121 136 91 190 124 174 127 54 92 58 86 101 177 121 144 176 162 134 85 109 66 114 152 79 163 110 154 133 170 158 123 118 62 93 42 45 145 209 61 140 163 166 110 127 126 160 74 96 102 85 157 137 144 127 127 187 46 71 174 115 226 70 131 111 81 165 89 142 51 98 150 131 94 214 111 87 108 148 177 110 131 86 
79 102 51 90 172 148 140 201 169 128 147 116 152 138 91 172 216 156 88 95 55 145 178 107 53 191 131 172 137 125 214 131 126 123 119 159 95 89 74 61 101 95 138 58 94 139 49 183 89 40 165 118 62 91 108 21 46 98 144 186 126 101 105 113 67 111 207 183 84 187 80 155 91 108 152 199 81 135 145 173 116 107 109 103 101 169 58 128 109 114 159 159 119 173 125 115 107 135 163 200 
211 129 165 170 74 209 137 173 99 219 152 75 140 153 124 108 103 133 70 51 63 108 89 115 44 132 108 147 155 209 108 54 99 207 214 118 72 236 198 100 108 125 161 116 159 192 76 138 126 193 195 148 170 106 117 138 142 181 100 148 164 187 136 179 136 116 93 177 101 52 158 176 100 110 144 163 156 171 226 116 130 194 85 139 192 85 106 138 127 93 185 86 131 119 120 61 133 112 67 129 
148 155 185 205 182 82 53 165 142 112 164 47 88 192 76 115 191 77 78 110 146 135 122 126 87 133 109 188 134 174 131 82 103 137 166 71 45 127 194 37 60 197 99 150 159 138 203 152 39 115 164 107 86 84 137 169 37 131 106 68 104 168 133 74 153 153 98 183 58 108 155 105 167 122 113 125 44 119 182 167 179 119 233 184 67 69 88 148 93 149 171 95 35 89 103 183 160 63 76 121 
184 52 54 187 126 206 112 120 192 63 82 128 102 126 173 114 152 188 71 143 82 177 195 120 129 153 56 124 64 192 168 136 135 35 169 131 138 152 110 77 131 35 91 113 42 192 192 163 125 90 145 149 107 111 69 47 146 170 101 104 114 122 87 154 112 97 185 26 127 96 125 142 196 140 182 207 91 121 154 164 77 16 114 159 65 98 62 102 176 172 93 96 177 167 81 47 169 135 134 76 
94 101 146 145 92 133 214 114 199 122 101 88 220 58 120 188 119 115 46 132 116 152 102 183 112 179 125 153 162 142 161 78 106 139 126 149 89 68 203 100 136 139 158 119 108 127 87 42 170 154 113 117 125 77 165 200 153 133 160 135 100 135 189 103 98 117 113 139 136 143 58 120 127 121 101 159 88 143 185 100 98 158 140 69 191 170 151 130 126 144 66 102 168 123 142 150 193 121 131 108 
171 88 148 135 91 212 78 165 127 103 153 115 53 198 39 135 85 206 131 138 163 185 121 119 52 75 119 126 157 48 124 82 83 114 80 90 81 85 114 173 116 65 65 94 161 147 126 175 139 121 187 145 76 41 105 86 143 142 87 155 122 80 144 128 122 157 158 94 136 98 145 75 139 160 102 193 72 101 117 134 157 79 150 154 53 189 188 165 132 173 126 112 201 78 166 87 81 171 137 122 
98 76 112 166 151 77 148 188 90 126 170 100 135 107 110 94 123 171 140 163 124 129 131 94 142 177 77 101 147 111 151 31 61 186 81 162 184 84 39 201 112 95 62 52 87 152 124 170 88 101 176 185 167 123 89 224 167 125 72 127 178 132 149 133 58 136 162 159 196 69 185 160 115 71 157 125 228 167 87 209 184 192 99 95 169 139 113 93 161 174 147 122 94 81 188 109 194 82 145 144 
136 143 162 137 168 75 40 51 125 107 111 113 149 91 118 211 126 62 129 134 148 165 136 107 57 165 210 118 98 179 137 143 111 127 149 150 160 145 130 115 166 64 183 109 148 82 80 130 103 101 28 161 111 129 105 124 66 96 115 116 97 27 234 57 165 71 99 121 103 150 179 169 73 136 108 134 81 168 133 207 119 96 170 58 51 164 87 91 51 123 74 130 169 190 166 187 81 107 46 154 
109 108 143 113 70 30 93 172 160 181 145 196 158 139 106 110 184 77 90 165 166 80 128 101 118 136 126 109 93 115 139 64 88 58 56 91 107 185 149 60 175 175 143 130 105 142 210 114 95 123 108 74 208 144 111 92 88 77 187 150 157 71 105 176 100 141 92 134 31 104 76 155 113 122 135 76 141 153 86 140 148 113 110 158 223 212 181 90 183 105 156 148 77 166 84 109 88 116 151 182 
156 169 141 131 199 187 106 190 165 52 124 55 131 94 212 61 109 130 202 228 156 54 138 194 158 174 165 171 67 120 126 142 173 163 134 29 109 122 124 128 156 143 192 126 94 207 181 151 98 134 203 144 98 123 112 95 116 170 155 189 162 128 121 159 115 46 125 104 106 159 109 107 209 147 167 120 115 93 81 237 143 134 123 168 39 147 97 137 127 124 136 134 149 88 103 123 110 112 140 60 
119 200 121 176 164 157 179 127 88 180 140 81 94 99 45 142 96 137 157 61 164 98 145 156 164 42 122 69 84 102 75 123 99 105 171 112 114 132 156 38 96 123 152 165 164 99 147 119 145 135 147 136 88 154 201 175 170 169 122 160 44 118 99 138 118 131 28 33 75 195 130 127 137 147 155 160 144 100 122 124 211 89 70 53 138 118 107 105 141 116 91 173 142 192 38 179 219 153 169 97 
181 111 170 9 119 68 90 133 119 54 125 78 137 98 127 156 150 129 166 47 137 143 186 194 81 134 178 51 194 34 85 161 72 51 182 167 155 87 150 103 100 134 84 152 130 113 141 122 207 148 182 157 82 125 86 125 176 99 86 89 126 178 148 131 141 107 202 112 116 132 111 160 60 128 113 161 153 108 188 126 111 122 68 219 188 107 55 144 102 84 82 122 176 113 150 151 112 163 81 164 
178 189 146 21 90 226 133 128 123 143 147 98 93 175 124 188 134 113 44 117 183 159 157 166 169 148 158 172 69 102 99 135 79 48 87 147 134 139 53 231 113 76 120 143 110 159 138 108 153 189 77 146 135 79 116 156 111 191 25 117 128 85 153 118 101 130 179 158 115 147 120 72 86 142 38 159 163 139 140 100 159 162 160 88 32 140 107 115 43 171 157 240 169 187 134 183 212 163 97 157 
67 152 101 119 121 180 140 156 109 149 104 115 128 182 153 98 139 104 118 218 173 196 197 148 110 85 188 114 156 95 150 66 145 147 147 103 149 124 147 86 101 138 169 170 149 141 135 182 185 79 87 103 90 85 146 145 177 190 203 195 150 136 139 162 174 118 105 116 147 123 117 94 173 101 214 178 164 205 102 68 65 113 51 127 128 68 190 190 100 149 145 118 80 73 102 162 119 164 116 172 
104 82 163 108 89 156 145 59 186 120 165 126 120 98 202 124 87 185 137 94 201 122 150 149 127 145 110 65 95 156 69 198 128 38 128 122 109 75 187 181 177 187 160 74 136 143 156 149 105 35 130 127 141 132 115 102 213 115 119 113 127 101 83 116 116 61 169 102 65 193 92 78 184 84 67 62 121 107 95 142 80 63 160 129 163 118 134 120 145 106 79 159 64 152 208 135 98 131 199 48 
129 156 130 205 179 220 122 147 76 166 218 60 113 187 191 119 163 103 71 130 162 69 98 101 125 138 83 55 163 69 102 139 86 112 205 214 108 97 90 102 144 118 169 123 129 222 125 123 229 156 59 114 106 168 144 136 135 84 58 58 176 134 62 119 68 173 125 122 118 155 122 208 80 129 80 97 94 176 128 85 98 107 87 199 127 142 111 79 170 160 63 96 114 96 29 107 131 140 80 120 
123 101 149 94 212 152 96 98 157 107 114 103 109 112 84 78 124 76 108 191 85 62 84 132 77 147 133 120 58 151 180 161 105 82 100 129 96 68 42 104 117 88 100 73 151 112 118 103 216 152 111 106 82 188 40 97 196 187 95 119 155 72 81 73 112 96 134 156 90 136 119 114 112 99 146 147 179 234 65 112 159 123 131 157 150 102 95 22 153 103 144 172 110 48 133 112 202 167 156 140 
105 67 93 57 165 87 125 92 120 164 119 152 172 86 181 69 137 154 143 125 109 87 119 133 179 42 127 126 173 123 109 52 111 157 154 151 161 56 217 129 185 140 80 78 95 203 93 143 70 168 140 134 150 117 132 74 148 49 127 104 97 77 51 125 151 229 134 91 186 71 126 93 117 34 142 74 166 141 133 181 118 154 170 145 101 170 95 81 79 93 163 153 49 41 142 194 141 147 123 118 
123 82 145 198 134 92 128 199 168 121 188 128 190 120 95 133 137 112 167 117 76 144 119 44 117 69 89 76 106 160 77 83 153 96 82 131 166 185 153 130 131 101 163 72 112 92 181 159 147 188 60 27 154 103 168 186 134 195 204 35 54 67 96 125 116 146 127 144 172 158 175 109 195 111 186 161 162 123 56 163 118 96 106 107 122 108 70 51 137 76 91 171 201 177 80 139 91 111 176 105 
225 201 187 109 166 107 151 41 204 155 90 134 204 145 142 119 151 58 135 145 94 126 1 47 101 140 136 134 94 135 110 198 154 143 138 170 152 106 146 132 128 152 91 47 67 29 117 123 67 114 104 165 66 50 143 118 137 109 87 161 168 111 179 149 167 81 145 82 133 86 109 201 136 121 177 145 134 184 66 172 142 85 174 153 200 107 160 88 194 201 151 152 87 128 106 106 118 177 117 127 
112 17 104 100 113 140 175 54 202 175 121 154 91 171 188 85 122 116 172 81 81 82 111 128 105 172 135 110 78 69 55 142 99 50 151 147 114 168 154 200 107 151 133 196 64 62 181 61 162 131 129 113 121 168 123 154 70 166 108 107 169 88 121 184 142 108 109 123 27 149 184 172 129 156 196 84 137 125 165 118 128 93 179 207 138 117 115 83 103 79 141 157 162 162 169 111 167 104 177 148 
44 156 32 132 209 143 181 69 182 73 153 125 113 120 78 115 107 146 140 136 89 145 91 93 104 164 214 136 139 134 118 186 92 110 204 182 122 115 209 205 124 90 175 161 94 147 55 97 103 192 143 135 142 157 94 172 125 78 185 124 135 108 127 169 20 119 129 122 88 123 170 110 85 69 159 95 138 102 109 117 169 141 101 163 155 124 108 191 125 188 80 43 80 36 147 211 131 78 132 144 
142 101 98 89 159 52 96 162 183 53 108 143 170 84 71 95 204 199 121 97 117 71 176 166 169 126 77 112 134 194 76 124 144 75 107 84 171 70 88 108 73 119 105 121 107 144 47 117 117 106 130 109 147 143 115 196 112 74 153 54 89 108 37 109 109 98 115 101 65 152 76 96 73 48 179 87 144 80 63 80 138 209 187 139 203 108 118 120 99 142 102 148 136 181 101 148 158 114 54 165 
191 88 127 178 51 174 198 105 118 133 114 203 141 179 96 133 98 97 149 85 204 188 112 62 188 122 124 82 125 175 140 98 126 64 78 135 63 108 171 123 77 179 177 35 103 117 87 141 118 78 183 130 106 151 89 102 110 219 91 15 116 129 95 55 210 86 196 46 121 173 174 60 137 116 100 173 131 113 85 101 136 129 162 41 100 210 76 99 117 194 141 62 150 86 186 227 117 153 115 163 
143 134 133 146 169 97 138 182 164 200 97 86 178 126 199 156 134 140 168 157 70 164 149 161 167 154 134 183 128 138 217 185 82 202 154 140 210 26 150 47 115 182 129 121 138 116 103 118 70 190 169 151 168 129 169 98 152 85 85 67 116 156 90 225 85 84 181 90 91 133 78 86 28 187 161 128 125 109 215 180 112 115 115 95 149 158 116 42 122 23 155 163 163 141 96 141 185 162 109 205 
38 141 235 175 127 88 151 176 98 144 167 142 194 188 163 113 92 105 132 190 100 195 157 57 130 143 126 113 165 178 52 173 85 96 85 179 123 204 111 144 187 160 163 142 124 121 80 157 162 128 136 150 116 167 53 155 48 115 59 128 121 72 93 203 170 168 153 235 146 180 143 159 125 69 166 107 139 115 57 180 149 165 109 98 142 128 100 145 59 169 125 81 151 199 106 98 97 160 146 122 
77 178 141 67 166 111 130 143 94 72 133 25 112 70 169 119 119 168 193 74 73 162 157 148 144 104 144 164 88 198 97 129 116 52 156 105 181 138 222 128 144 138 57 142 77 220 70 107 89 84 179 151 93 84 154 202 51 137 147 89 127 145 133 46 132 71 135 87 152 159 124 70 115 89 77 214 151 219 79 157 77 212 148 112 134 84 83 168 135 156 244 95 173 106 102 173 109 122 170 90 
104 132 39 98 168 91 104 133 121 199 160 105 94 201 141 179 86 101 172 59 190 175 131 107 152 158 161 201 71 61 68 191 87 151 100 102 117 128 136 125 85 117 72 91 110 80 91 130 66 50 37 170 77 85 65 68 131 145 137 129 155 94 126 79 136 186 84 58 102 135 170 31 28 77 87 171 116 195 119 142 102 161 164 99 47 97 27 172 170 100 136 161 142 178 217 157 101 109 89 174 
85 171 121 135 207 142 174 90 146 123 81 91 65 172 150 172 122 193 121 111 112 135 121 79 107 148 142 146 99 123 96 171 48 131 118 173 147 72 177 163 148 34 78 177 120 121 143 178 28 121 116 124 119 94 115 178 127 107 100 112 133 154 124 87 111 165 115 69 84 95 141 97 202 128 66 46 149 66 45 65 91 154 168 121 137 130 148 236 122 158 107 185 64 170 177 103 183 100 110 99 
109 165 133 100 110 187 78 194 130 109 143 98 146 122 133 179 153 178 97 185 168 147 126 52 132 122 146 68 98 110 131 184 125 139 149 111 108 92 145 40 159 109 76 194 93 84 169 87 161 209 121 171 107 136 121 108 84 114 171 172 184 100 51 75 167 69 133 143 151 129 111 55 40 78 137 156 111 174 87 136 118 194 190 125 125 106 133 137 111 119 123 180 124 109 165 62 110 113 94 153 
173 78 63 134 95 110 78 97 198 139 72 137 73 97 90 77 176 86 102 157 167 152 149 191 229 183 104 89 125 145 158 203 75 88 79 163 98 97 171 167 124 84 158 134 159 92 51 153 85 126 163 189 55 66 146 70 121 89 130 191 155 148 149 164 95 99 152 184 86 156 128 121 151 138 119 187 206 221 121 139 86 202 183 100 58 94 168 125 101 160 189 132 73 65 107 121 121 136 162 89 
113 153 141 120 118 195 155 124 90 105 134 155 133 95 131 152 91 112 154 76 168 96 124 91 110 132 76 160 134 169 135 153 170 106 52 159 155 151 109 75 165 186 189 125 69 139 194 126 160 144 160 191 175 143 142 170 128 157 177 155 86 96 76 62 141 125 138 183 72 100 178 149 131 161 131 118 100 50 128 100 110 165 144 182 191 111 158 107 90 128 52 58 81 125 149 155 94 67 189 68 
140 134 94 116 42 107 173 205 52 48 177 109 110 114 69 38 126 159 147 153 83 148 37 162 75 192 86 203 93 65 91 53 149 142 111 143 196 83 61 176 152 115 71 190 73 179 94 156 105 65 79 119 151 111 58 198 175 155 95 184 89 128 68 67 151 49 90 116 85 82 122 87 96 155 50 67 183 152 138 103 122 102 183 113 125 141 62 151 198 64 118 126 135 121 140 113 14 75 68 81 
102 104 75 156 113 99 139 30 117 108 218 143 178 164 188 62 105 163 139 177 192 151 115 161 110 153 110 73 110 81 116 94 60 93 127 82 67 161 127 215 126 120 48 102 130 144 151 151 149 124 97 170 202 153 168 219 166 177 143 92 201 132 121 197 127 135 150 144 111 227 71 174 139 42 188 164 125 158 219 136 87 43 191 96 151 119 110 149 178 153 117 152 58 196 113 201 138 168 121 86 
191 105 180 135 76 167 195 137 201 164 176 98 157 97 73 191 142 178 222 163 225 101 155 214 223 202 119 132 165 142 172 219 86 150 140 147 123 133 175 134 159 175 123 151 88 132 184 102 128 35 99 153 95 173 148 129 132 132 121 113 53 127 66 168 146 106 60 39 83 83 108 147 126 47 63 159 154 111 107 119 68 108 152 215 78 215 130 83 145 108 100 53 111 186 76 167 167 150 100 184 
168 175 165 80 109 139 203 171 82 70 92 105 129 139 57 112 171 171 131 189 125 153 62 82 57 121 145 126 42 100 97 224 128 141 175 74 124 116 88 92 50 163 168 209 142 127 192 116 26 4 171 60 161 177 172 90 135 199 122 158 109 155 153 143 85 121 194 144 151 96 135 161 163 101 101 94 95 85 199 166 68 140 73 142 190 150 176 109 139 149 78 119 158 144 135 132 105 101 104 155 
167 131 138 111 113 69 69 151 54 89 155 101 111 56 117 73 155 112 154 151 89 172 173 195 63 125 122 159 113 199 221 172 135 99 145 144 158 179 112 50 93 181 92 137 185 102 188 72 94 181 94 188 133 115 201 132 152 118 200 80 141 153 90 135 59 122 122 133 41 136 162 120 116 146 190 188 164 210 96 107 123 102 83 226 184 135 158 118 126 77 219 73 113 29 103 71 138 132 65 164 
73 115 111 102 176 103 109 119 50 167 144 130 96 152 217 101 167 89 73 156 218 125 77 182 127 154 95 143 165 129 151 81 25 135 147 115 140 152 215 174 89 149 40 137 95 103 67 64 189 107 112 110 152 81 198 216 199 49 184 179 149 84 139 148 88 55 66 113 224 145 184 159 130 122 179 79 125 110 125 84 131 99 118 112 79 105 80 50 108 176 176 115 113 94 166 114 115 193 104 134 
166 128 61 43 224 108 114 41 205 178 204 20 123 25 143 154 122 128 120 71 59 125 167 84 136 154 105 118 71 175 114 146 201 153 102 107 82 97 80 102 57 93 76 115 207 177 52 116 85 132 174 66 138 37 161 73 175 152 145 66 170 133 89 152 73 232 75 120 163 130 98 178 166 99 109 68 188 112 160 95 35 167 121 171 93 128 104 90 134 178 133 60 71 99 120 145 146 127 90 149 
145 167 102 142 131 130 153 156 149 114 72 160 83 149 53 39 213 102 143 156 93 100 124 49 154 166 142 103 170 67 18 108 82 193 135 142 132 150 80 85 137 145 111 169 87 132 108 162 185 109 97 182 97 149 147 174 196 173 123 128 130 39 89 129 82 177 130 163 115 127 63 172 155 166 88 180 144 132 153 163 80 191 133 116 102 156 64 101 118 183 191 155 96 58 103 114 79 84 198 123 
87 106 180 167 127 108 141 100 170 125 83 168 113 101 164 78 77 115 75 31 114 74 50 171 149 102 191 87 159 45 199 118 121 170 37 125 187 84 120 181 170 44 162 164 116 188 166 83 97 167 86 111 207 85 185 118 159 106 122 69 218 206 104 126 106 40 123 195 82 148 128 94 126 148 93 86 87 155 150 99 158 114 150 172 102 81 101 92 156 82 92 111 97 205 173 168 90 143 132 88 
138 98 145 88 140 115 79 101 137 138 119 101 183 92 168 123 106 147 168 133 85 123 152 144 59 201 64 65 133 154 117 123 90 137 77 38 177 96 140 144 114 176 84 120 148 111 131 101 190 138 173 147 89 83 90 96 100 172 104 47 76 95 121 177 182 47 109 95 116 113 141 94 186 113 147 138 168 129 148 208 109 161 139 172 100 60 121 166 169 115 84 109 160 161 103 185 16 92 124 155 
160 212 168 185 146 133 88 80 139 136 99 77 127 156 142 220 97 118 99 138 72 100 118 159 130 99 109 139 160 166 181 127 111 169 103 102 141 141 165 157 110 84 117 83 111 140 112 166 91 141 131 150 144 231 115 75 119 87 166 116 112 162 198 98 156 136 101 180 225 81 95 47 125 131 111 98 122 65 140 88 175 135 125 203 71 102 120 144 149 72 187 113 161 160 237 169 105 173 53 112 
54 234 117 106 56 179 101 159 97 137 97 90 210 152 81 76 199 123 98 185 89 209 184 121 124 122 123 102 175 174 122 117 70 48 83 167 123 118 79 58 173 136 105 122 100 60 157 88 141 133 74 123 67 134 148 113 160 96 142 197 109 97 159 127 112 121 125 189 161 162 132 182 138 181 167 127 128 123 109 122 103 108 89 170 104 149 92 102 41 89 135 148 141 136 44 143 163 158 170 176 
103 154 166 157 92 34 69 102 84 122 101 147 50 111 115 217 153 104 91 133 103 51 179 113 107 119 137 165 106 99 136 159 111 111 105 158 119 22 140 125 171 87 126 248 140 211 56 109 160 127 142 126 146 55 118 115 109 58 189 124 171 135 91 27 175 92 161 136 105 144 104 45 161 216 87 198 137 69 98 233 220 152 100 143 131 119 186 57 96 160 130 201 44 155 143 198 113 152 113 85 
78 133 119 142 196 78 86 151 103 83 108 195 104 153 164 120 114 92 164 127 132 95 168 80 49 161 167 168 111 139 120 139 165 122 134 137 206 67 133 122 195 188 196 102 75 138 115 177 185 196 108 58 178 120 194 134 183 111 193 159 152 142 117 114 164 70 120 152 155 105 164 182 105 99 147 153 153 193 126 128 163 173 92 129 99 140 142 204 167 123 173 93 46 158 195 179 126 133 85 131 
221 140 68 121 159 71 122 195 121 127 178 107 166 77 63 112 73 139 41 56 186 80 88 152 64 72 93 151 91 202 152 70 174 156 177 200 110 168 88 118 209 122 122 137 72 74 87 133 103 155 79 87 18 145 109 157 152 156 70 158 146 91 97 127 59 150 163 137 144 120 92 189 56 167 124 152 129 208 34 61 162 194 117 173 107 152 155 94 49 145 106 128 217 198 177 160 142 87 125 182 
113 117 114 99 114 117 117 144 35 182 77 120 134 66 120 110 159 91 98 88 95 109 147 143 164 112 189 139 179 97 64 237 54 149 124 195 131 92 146 212 173 116 140 175 59 105 164 83 34 166 159 90 78 123 180 140 120 87 60 113 92 183 160 89 72 159 171 97 127 164 134 42 107 80 121 125 142 132 204 144 178 82 33 123 76 176 94 150 131 79 100 164 153 138 136 153 111 85 119 139 
169 86 112 69 197 153 150 68 175 89 117 151 188 194 140 131 105 55 149 84 127 181 53 114 159 68 76 94 80 129 197 84 57 140 103 170 72 68 125 118 112 162 98 164 150 108 85 154 146 157 187 135 168 117 121 127 171 174 162 72 133 84 96 175 181 87 103 60 56 137 82 132 106 173 108 143 170 143 73 138 161 158 196 144 150 97 91 107 116 167 130 105 203 125 78 125 182 112 115 171 
154 171 169 95 146 138 129 174 181 117 94 27 59 94 143 137 138 111 231 90 108 85 96 167 81 103 199 113 88 119 38 131 96 166 72 100 35 167 194 128 94 140 160 214 131 145 217 182 137 94 180 153 119 113 62 181 80 119 88 172 77 124 125 89 160 141 152 79 140 182 140 108 198 115 93 130 126 163 151 206 149 180 222 154 141 108 156 116 105 80 87 35 151 198 114 183 78 146 89 145 
204 121 140 111 97 133 83 175 113 57 162 145 172 96 136 111 64 66 169 113 126 135 135 143 86 129 108 107 63 200 122 63 152 191 108 104 163 103 158 135 168 65 108 102 114 133 98 109 141 145 169 35 111 52 116 134 179 132 114 225 111 84 112 109 135 79 142 159 201 135 180 108 153 120 69 207 104 71 110 90 176 104 222 138 137 78 80 75 98 67 80 144 121 132 140 133 85 62 166 136 
129 103 164 104 203 58 140 170 126 88 155 146 155 69 57 186 139 116 133 142 150 128 129 163 115 130 109 130 146 91 157 139 134 136 129 109 108 118 51 171 151 53 209 119 137 80 149 181 115 103 136 143 125 177 121 102 135 81 54 150 137 174 142 185 103 187 145 65 43 183 74 148 160 47 83 190 200 124 146 126 134 163 126 89 123 138 66 174 146 207 188 137 118 186 33 103 79 63 136 206 
143 125 168 83 177 87 115 100 158 109 223 132 51 141 119 184 97 98 88 185 152 142 117 124 69 100 57 166 80 120 142 113 123 148 112 108 113 46 76 157 84 111 137 179 99 87 186 93 168 82 105 59 158 100 136 157 132 136 111 192 70 158 70 175 36 167 191 88 200 151 146 146 150 213 111 124 144 156 167 157 59 84 189 125 111 94 69 112 168 111 109 192 54 101 125 61 99 139 101 101 
97 172 109 58 130 90 76 168 179 60 163 92 139 134 134 106 205 185 142 85 114 166 105 136 52 104 36 125 110 146 145 165 143 135 193 144 170 67 122 140 79 182 154 121 58 91 188 151 121 191 66 229 180 124 133 86 147 126 96 152 130 143 71 153 137 104 117 143 129 112 216 204 120 49 100 90 176 90 98 227 150 72 167 79 127 157 152 89 134 158 94 115 162 109 56 159 51 97 166 177 
130 112 161 141 131 192 80 95 196 137 158 90 126 162 130 59 138 88 143 138 129 173 104 160 174 51 147 109 138 152 152 72 182 161 125 231 147 101 71 101 215 136 182 171 167 122 213 66 201 131 102 111 100 129 151 116 153 159 197 34 53 145 92 150 108 100 95 146 137 106 100 155 126 99 94 130 108 181 166 74 108 236 86 176 186 61 115 98 39 188 203 132 198 54 124 135 195 135 101 166 
110 141 109 169 156 186 67 85 96 94 130 81 142 104 106 130 92 63 123 96 118 164 190 136 120 148 86 107 24 133 44 136 228 176 185 64 135 125 115 199 150 209 166 210 94 149 203 89 148 141 111 224 153 183 106 194 93 143 215 102 27 108 101 107 122 138 91 159 117 232 93 66 66 137 191 225 76 74 68 229 85 148 171 136 173 167 90 67 195 137 77 154 129 106 166 104 236 116 137 115 
143 83 59 115 130 7 184 111 204 167 102 162 41 113 133 131 145 162 81 119 189 116 32 146 79 168 81 108 149 94 83 139 122 122 90 88 153 182 97 102 81 156 129 121 112 116 43 109 88 146 160 147 193 158 153 148 123 108 118 145 49 170 141 147 89 155 79 145 125 131 140 119 117 183 191 78 203 206 91 132 118 72 84 44 34 158 70 108 208 197 202 133 108 201 107 139 171 145 185 134 
47 134 162 37 166 91 95 129 146 116 85 186 79 192 142 117 207 99 154 183 117 124 135 176 151 173 101 109 150 152 145 145 152 87 96 160 155 154 87 100 36 222 209 81 147 161 181 103 123 134 182 159 85 74 200 118 95 126 172 180 113 171 129 169 201 110 107 91 71 224 86 176 120 73 78 217 97 114 160 103 42 160 89 125 209 114 109 36 131 150 96 106 155 140 123 131 151 126 156 151 
162 131 119 177 110 133 140 105 56 191 202 98 145 180 152 209 161 124 156 113 157 50 101 160 90 123 47 176 172 79 159 70 83 86 179 167 43 74 134 110 155 106 207 115 194 211 43 93 163 80 76 182 99 181 180 149 211 134 119 188 236 100 114 209 172 143 150 142 141 129 108 111 78 113 94 186 144 125 144 82 149 141 69 92 130 159 98 110 181 107 189 169 180 145 66 90 96 91 171 184 
142 169 111 82 144 95 55 130 112 64 136 169 97 52 162 33 198 210 230 75 188 141 203 100 51 163 171 152 90 120 170 45 103 97 187 131 225 37 126 168 181 55 115 163 90 138 93 155 134 109 78 94 86 198 98 218 71 173 112 172 128 73 154 96 151 240 85 92 216 126 124 170 180 110 211 110 33 156 96 173 193 80 129 117 162 164 139 106 126 123 175 114 73 145 153 103 82 161 145 81 
106 143 91 128 94 42 116 129 197 127 168 93 49 146 108 171 147 169 167 134 151 155 94 156 162 154 179 77 125 127 76 135 158 20 125 231 84 159 96 120 40 112 121 113 148 132 106 152 207 76 148 203 131 172 31 114 95 80 93 102 153 105 24 136 113 164 181 171 86 94 148 98 48 115 125 106 160 136 57 140 108 109 154 76 107 167 100 153 40 146 120 180 143 74 66 97 173 135 134 66 
169 174 45 156 80 51 214 186 147 182 126 123 71 158 123 93 134 98 30 93 135 189 173 102 149 120 177 105 106 171 182 201 126 164 143 139 67 170 96 140 122 75 172 161 99 154 111 157 84 164 155 75 239 99 171 105 84 73 187 115 137 90 170 220 126 72 94 143 127 62 113 141 166 96 123 101 107 144 88 115 101 134 112 97 146 111 149 168 136 171 123 92 192 161 114 90 88 111 97 117 
102 83 144 140 85 67 97 177 161 105 99 110 131 107 127 121 156 157 108 134 153 86 156 165 138 143 174 158 134 173 145 102 122 123 135 43 164 151 116 205 102 79 101 63 118 107 68 83 98 185 83 184 57 38 104 147 117 97 58 157 131 181 131 115 100 115 129 158 162 135 98 78 50 120 114 180 135 172 145 42 81 125 121 139 133 123 70 171 160 173 103 100 145 97 51 116 83 89 113 25 
120 88 161 170 131 178 98 65 115 146 87 147 18 119 116 64 140 172 101 205 154 41 104 215 178 155 145 110 143 136 174 164 63 152 113 150 167 212 130 141 213 119 79 215 177 124 246 59 94 198 113 124 86 106 79 72 120 161 71 116 182 183 117 111 138 99 99 168 113 158 91 30 147 107 153 122 190 128 176 125 69 200 143 70 121 105 136 55 188 152 77 102 108 179 89 136 162 155 169 145 
152 111 108 128 194 175 78 238 93 192 186 110 90 70 155 171 91 183 132 140 118 99 107 175 207 124 184 114 78 167 148 119 156 137 137 126 181 90 209 184 66 97 221 192 56 125 178 167 139 125 100 126 162 13 183 87 65 217 30 165 152 159 132 121 104 126 106 155 51 131 127 137 209 55 39 65 82 62 175 71 136 146 113 210 133 57 116 130 173 76 172 81 128 119 121 192 113 157 104 76 
187 108 116 145 90 93 120 146 137 205 118 194 88 81 129 194 129 151 110 154 186 117 112 130 136 137 38 98 72 118 193 177 129 180 122 106 208 99 188 160 100 149 129 159 128 173 133 186 109 104 146 120 99 133 98 142 156 129 93 204 122 175 99 135 21 97 147 180 47 163 207 148 129 151 135 175 103 153 144 67 193 82 101 96 202 115 155 166 144 119 86 144 115 123 144 132 167 202 87 88 
109 225 124 148 153 139 124 155 85 178 72 97 160 76 64 69 164 95 189 59 140 140 149 115 170 132 136 163 132 116 130 75 191 111 166 91 118 160 146 144 54 142 242 84 144 96 199 73 109 162 87 142 141 106 88 132 228 129 209 165 163 145 130 109 85 162 95 180 112 168 111 108 199 67 133 146 52 118 127 146 124 218 62 107 158 88 174 169 192 87 103 136 182 93 79 170 82 107 136 238 
145 95 38 123 184 149 195 204 121 147 163 173 16 176 132 127 133 117 142 142 112 124 143 115 110 108 127 138 210 138 161 154 128 195 108 128 141 101 127 61 85 130 100 19 137 177 118 130 129 113 140 41 166 193 106 198 127 153 121 76 153 122 52 63 108 183 121 161 103 108 90 245 70 125 114 123 171 96 97 137 170 122 113 102 190 199 148 120 153 57 42 64 183 185 151 143 123 83 197 107 
124 130 113 60 200 157 149 90 81 168 129 120 186 153 197 59 98 131 129 112 199 162 67 123 179 110 112 126 65 159 72 80 165 179 132 187 151 132 158 105 130 165 82 157 105 52 149 88 120 121 199 222 202 152 167 136 140 123 137 122 115 131 56 175 149 131 121 159 138 181 92 149 168 118 165 22 57 45 150 205 113 76 174 150 142 65 122 105 137 163 111 118 61 116 168 153 127 155 76 48 
176 139 176 119 143 76 181 168 107 74 39 147 134 83 54 104 77 80 130 145 129 185 146 96 139 98 100 174 130 117 134 85 111 97 147 151 155 87 171 179 202 33 180 123 132 143 97 179 151 181 145 138 170 82 82 137 89 142 163 69 130 106 102 187 177 130 191 139 117 197 152 121 136 112 74 62 131 71 167 102 175 105 101 107 86 94 141 174 146 83 207 127 103 146 230 137 110 28 100 122 
134 121 125 153 175 208 145 130 98 121 132 120 135 110 44 62 112 168 107 135 126 135 105 61 74 87 58 80 73 107 46 117 79 148 173 177 134 78 112 205 188 126 52 51 145 206 158 59 144 144 148 171 92 147 7 83 126 142 89 189 172 101 131 105 97 144 83 130 158 113 173 147 134 84 68 64 45 118 128 118 106 86 177 122 81 85 230 134 155 63 46 168 184 74 215 176 80 133 220 102 
94 202 99 151 117 115 90 167 189 123 150 90 91 48 180 200 148 44 103 120 177 125 153 202 140 166 139 83 114 51 194 179 127 126 127 216 105 123 138 148 160 151 114 70 60 105 105 56 193 97 106 159 107 120 115 74 175 160 93 120 36 92 119 112 171 141 127 178 35 117 110 166 148 177 118 184 101 135 164 234 94 86 100 105 121 130 120 111 155 116 125 61 157 95 37 80 160 121 60 135 
153 177 92 148 134 179 245 30 162 127 46 93 60 173 167 117 97 168 120 70 104 37 84 82 152 106 122 40 63 131 88 159 228 187 108 131 38 115 75 113 149 71 168 37 121 79 114 109 105 23 137 83 174 100 79 98 156 104 211 110 60 96 132 121 99 157 96 142 189 154 130 197 77 123 135 117 77 126 137 81 95 97 92 130 110 114 126 107 115 125 136 44 150 159 145 96 131 94 85 162 
72 121 217 120 104 174 91 138 110 164 62 99 101 184 51 149 230 127 103 57 185 139 106 138 145 67 131 126 151 127 123 100 172 129 145 21 69 145 117 64 49 176 180 141 112 57 162 138 168 112 175 96 64 187 108 124 111 104 190 180 109 84 201 188 57 124 161 77 109 87 88 80 128 144 205 129 90 65 62 90 105 48 85 155 183 48 165 102 159 113 161 137 68 159 190 73 175 119 172 95 
153 232 180 53 97 173 109 84 162 167 106 137 128 179 116 82 94 133 219 140 146 70 139 129 164 149 100 205 108 184 204 88 176 137 143 85 168 119 123 20 54 197 149 181 138 79 127 118 108 93 112 107 69 124 87 120 97 158 181 106 129 95 27 157 61 106 146 88 125 116 102 168 61 161 100 126 74 112 63 169 64 96 165 50 33 129 122 209 152 124 55 158 101 149 93 168 142 83 172 80 
155 183 182 145 151 170 75 176 120 59 158 100 202 178 119 120 144 91 204 109 78 140 98 165 192 166 113 150 73 115 161 162 99 113 88 136 133 196 21 137 34 215 93 95 93 118 35 122 132 196 164 135 67 43 125 196 86 139 234 77 165 173 224 139 91 67 49 101 106 135 111 145 228 100 165 197 92 100 143 157 94 122 204 142 113 123 59 130 80 136 159 145 125 174 106 157 94 159 158 71 
90 70 139 207 108 146 175 61 176 125 129 136 158 106 206 101 96 89 236 135 173 141 142 147 104 106 164 124 166 90 88 121 91 117 98 118 90 159 177 51 139 108 81 42 85 59 111 145 119 191 157 87 140 85 165 83 98 46 90 91 126 117 206 84 110 141 100 107 108 153 113 90 136 140 136 127 91 196 72 103 172 119 122 139 179 91 168 79 73 95 97 209 199 79 100 125 180 165 163 185 
126 58 87 153 142 179 139 137 136 109 161 135 68 117 193 78 77 107 181 171 70 114 133 112 144 61 167 113 156 143 76 103 108 149 115 131 145 93 22 111 63 144 78 111 79 88 72 176 163 194 105 196 129 129 121 129 180 76 189 127 144 184 131 198 162 147 107 113 225 140 135 94 138 150 73 35 61 109 108 137 199 79 114 79 136 94 84 111 89 146 135 182 97 109 95 149 138 85 136 77 
219 55 71 121 142 153 58 121 201 106 150 175 144 150 95 111 154 79 123 160 104 60 103 160 133 119 127 117 108 65 166 92 78 147 165 124 124 142 156 68 113 115 157 185 58 78 155 143 80 93 128 111 213 89 73 77 121 124 123 112 80 59 139 220 82 220 90 99 107 101 115 152 117 187 143 122 107 118 99 103 157 125 195 115 152 116 51 180 60 180 182 83 192 185 136 185 215 126 153 123 
129 185 102 167 154 161 128 186 164 102 193 190 118 120 74 131 108 192 143 84 72 140 102 84 157 61 155 162 96 68 83 104 120 112 174 200 85 164 164 149 196 106 112 138 101 85 165 136 133 109 152 188 103 147 55 84 29 108 189 96 181 98 114 93 107 190 135 129 170 106 127 194 57 134 51 122 85 143 207 156 121 160 105 236 168 153 141 85 173 125 54 119 125 110 176 166 121 162 152 86 
67 58 117 134 87 54 136 129 63 53 164 178 115 176 88 107 130 108 155 144 99 82 157 113 169 79 177 186 113 197 65 179 175 194 90 114 196 162 91 176 77 77 99 78 123 107 97 57 126 171 184 157 127 110 48 188 156 45 101 155 162 161 139 158 180 121 71 69 149 147 164 71 112 119 177 155 149 41 75 169 93 210 75 127 142 157 97 130 52 81 172 164 64 133 160 179 172 111 122 99 
155 202 74 79 157 150 154 202 111 115 180 72 158 71 81 93 127 120 162 140 74 53 121 221 190 99 190 153 91 191 160 151 55 121 65 142 62 131 191 201 81 57 151 122 108 203 148 127 169 67 174 109 95 191 96 151 204 70 151 146 143 157 133 110 143 89 133 153 71 91 126 102 120 164 120 118 104 156 155 145 90 82 88 100 103 175 106 97 77 203 104 186 121 158 85 159 190 61 157 143 
86 113 54 86 122 164 80 130 83 200 200 153 165 107 86 120 149 36 101 93 87 97 184 124 132 190 169 94 125 68 132 183 135 130 175 82 31 81 125 52 76 82 149 198 88 194 86 100 164 190 99 226 146 134 166 49 194 153 153 105 147 155 112 43 89 199 115 113 129 90 178 114 115 110 220 90 107 29 98 107 184 119 170 42 156 129 106 163 128 154 94 155 129 184 78 166 112 58 173 163 
98 107 113 142 100 132 72 72 108 147 134 77 147 89 104 125 97 160 160 164 131 180 129 192 168 164 139 90 133 138 124 106 66 114 121 208 36 130 163 120 132 167 121 72 142 115 148 140 56 150 132 107 211 102 127 120 121 51 128 144 62 103 108 162 127 99 78 68 75 88 97 151 165 152 176 163 104 98 114 105 141 131 145 95 119 131 163 151 142 196 189 147 143 158 90 135 119 135 200 186 
100 125 96 243 107 131 147 125 165 135 179 57 118 19 170 118 101 116 59 127 70 176 110 170 105 134 212 111 99 107 118 172 150 170 43 148 124 78 171 90 152 160 143 162 78 85 146 126 108 50 172 139 71 84 185 166 122 119 152 89 151 97 86 130 126 159 119 147 110 97 99 140 75 77 17 67 29 57 156 108 114 118 97 89 147 157 124 134 85 91 92 206 161 109 123 90 135 137 144 178 
120 92 62 109 177 170 61 107 170 105 122 120 151 162 155 188 126 139 77 107 110 140 188 97 123 73 199 34 60 193 150 88 183 133 104 165 67 105 126 182 168 141 73 199 135 105 88 136 172 136 168 167 193 138 121 185 193 146 166 139 44 161 149 137 120 86 120 136 191 76 128 93 154 188 103 103 138 169 140 124 126 148 116 77 166 127 159 145 95 67 145 211 147 139 150 72 159 135 125 126 
57 152 117 128 213 149 140 89 84 44 199 46 183 36 147 93 192 135 78 147 92 108 161 100 147 174 114 110 129 192 125 96 119 190 147 137 161 147 45 149 117 125 152 73 157 140 123 62 133 166 139 130 225 99 55 131 76 210 68 168 104 119 145 127 214 224 111 30 80 82 168 165 193 151 118 123 124 117 135 93 110 82 156 131 182 122 214 122 117 84 164 77 142 76 88 139 105 124 161 58 
148 128 187 151 152 101 96 99 208 169 121 148 200 143 189 53 127 136 154 81 125 187 164 88 176 239 139 105 83 146 121 162 124 151 201 125 100 186 71 93 74 78 150 104 156 241 191 178 81 184 128 44 235 119 112 103 174 181 111 78 101 110 121 236 187 97 88 76 153 142 159 46 158 116 144 116 98 174 98 63 144 111 162 143 169 182 142 91 117 196 63 146 129 97 141 118 167 218 111 177 
103 140 77 172 158 166 61 177 184 139 135 129 41 63 172 113 134 225 168 112 149 127 155 124 18 172 128 158 151 165 116 100 180 164 99 140 161 122 158 87 74 122 176 191 116 144 103 90 166 192 177 43 115 187 160 156 104 155 71 120 100 201 153 115 110 90 96 107 213 167 111 84 164 149 95 180 65 131 196 125 109 143 220 108 139 186 218 122 119 140 84 83 135 129 170 133 157 153 104 158 
97 176 153 91 156 157 73 129 102 173 59 132 134 166 118 160 101 117 107 79 105 164 109 102 92 153 79 105 68 136 134 39 199 181 123 211 116 123 92 75 106 181 153 150 95 149 162 187 119 133 124 128 110 158 191 129 162 147 122 96 126 149 188 190 159 187 60 163 107 107 46 161 143 184 76 156 176 93 216 111 81 190 50 89 191 142 144 81 146 148 183 138 127 115 139 79 77 64 157 156 
52 149 100 174 120 65 148 68 130 91 156 162 166 154 193 153 146 165 169 109 117 29 228 96 123 85 61 167 136 117 143 85 150 158 168 234 132 189 163 107 104 126 208 151 142 90 138 135 114 91 102 178 106 63 101 152 175 151 138 65 47 208 128 89 148 106 119 86 172 107 176 71 164 128 132 101 109 133 95 184 124 94 51 169 133 115 111 108 107 89 104 119 121 172 57 121 100 115 40 138 
213 166 214 109 88 157 121 107 167 210 121 20 112 149 134 141 59 165 144 118 157 104 96 68 182 74 219 217 148 123 60 98 139 122 105 178 79 216 73 181 130 177 78 181 100 122 54 168 66 95 97 50 150 103 122 150 155 96 90 162 108 116 149 71 109 160 181 110 109 135 183 172 74 50 49 135 142 89 116 92 128 113 89 115 146 75 139 143 148 199 174 83 145 159 83 108 185 122 212 60 
40 189 66 167 144 123 190 100 148 80 69 195 129 122 86 120 108 75 169 53 130 92 61 159 162 104 155 142 102 114 144 159 96 144 48 119 142 114 157 167 65 171 174 35 125 217 125 116 149 172 193 177 150 109 126 65 116 154 164 96 132 125 65 36 124 120 109 105 116 123 104 53 154 85 157 75 138 160 46 99 131 87 109 123 126 121 182 168 162 207 166 147 109 145 99 131 132 201 134 162 
115 106 111 161 88 97 73 120 27 116 150 56 163 60 122 177 97 156 170 128 149 105 151 60 73 84 188 77 138 108 133 124 183 172 165 92 168 75 112 106 140 98 42 85 129 85 106 147 79 234 157 152 142 247 198 101 183 114 202 43 106 87 71 94 206 199 151 102 207 156 154 93 155 58 123 77 131 95 79 84 95 85 116 144 148 76 165 87 51 71 154 170 193 108 128 85 31 58 55 155 
160 151 81 148 176 121 86 48 41 150 175 179 145 103 171 203 87 142 112 136 141 160 117 109 64 81 63 141 127 121 48 94 171 96 69 112 142 160 128 142 140 136 131 138 126 114 164 142 145 132 226 184 36 136 202 160 37 139 119 99 80 137 162 165 80 117 112 161 126 171 120 154 147 133 179 60 61 106 75 124 117 112 130 153 16 78 148 122 153 198 133 67 87 44 172 59 148 205 163 170 
126 175 146 127 135 131 169 100 187 67 86 232 165 118 116 65 131 135 134 128 83 144 123 142 135 116 103 205 72 104 146 181 78 74 135 176 115 166 152 164 36 184 130 41 147 165 90 34 172 99 153 161 65 147 175 41 110 149 138 161 115 109 92 183 150 106 172 186 143 122 94 113 81 130 108 73 38 154 76 171 162 203 104 160 85 105 98 121 156 146 157 147 147 117 134 146 151 115 18 104 
170 23 41 167 77 72 76 133 179 132 133 31 20 85 175 90 100 154 152 162 193 126 74 124 186 122 111 116 108 125 111 142 158 161 49 85 136 120 78 136 90 96 42 197 146 74 161 84 97 196 47 66 97 74 108 76 154 222 135 148 193 104 194 158 66 108 103 116 194 81 103 154 95 129 178 136 119 133 171 102 160 89 165 133 18 48 82 122 120 96 151 41 130 160 179 200 139 165 116 80 
189 126 114 35 98 137 94 101 110 55 109 117 68 139 128 173 9 131 140 115 102 106 152 86 120 120 77 181 145 149 223 93 186 116 167 166 142 110 171 89 89 168 150 125 120 67 64 137 122 181 161 100 132 157 130 79 125 80 130 104 136 148 171 97 146 64 119 178 71 208 198 140 160 108 78 152 163 107 50 108 144 170 69 151 203 143 112 191 118 124 84 143 133 128 130 131 139 171 178 70 
