P2
100 100
255
177 146 151 72 127 143 136 197 61 41 96 159 143 104 116 156 104 154 144 93 11 89 162 164 126 99 140 160 32 142 77 156 135 74 108 98 150 141 91 157 159 79 120 151 97 203 154 89 93 144 53 82 158 66 170 80 163 48 68 152 203 85 108 51 72 106 98 135 45 158 91 206 160 124 160 132 223 87 128 125 111 146 155 60 134 140 102 135 198 166 137 69 66 40 70 110 162 202 100 111 
98 195 212 82 145 210 92 154 142 87 153 171 199 153 189 125 186 72 107 87 156 148 224 158 100 79 114 149 189 42 146 173 89 197 195 171 125 182 147 197 107 128 173 137 153 148 158 123 99 127 105 153 144 157 105 97 84 186 185 45 153 70 177 119 68 110 92 103 212 122 121 91 114 116 57 196 160 152 97 106 177 124 116 102 144 118 106 201 120 63 95 108 179 114 165 135 93 139 128 171 
168 150 116 160 118 162 106 102 130 210 189 167 161 79 114 130 157 77 30 140 198 119 125 70 163 80 150 131 99 130 71 206 194 139 148 172 156 140 173 172 138 58 205 94 139 131 125 169 206 143 191 195 88 145 158 95 94 156 96 84 82 116 92 145 67 143 136 113 186 124 124 157 77 89 94 62 183 156 41 153 174 162 91 169 36 111 144 163 81 34 155 198 112 80 219 111 82 90 148 95 
94 164 67 76 65 106 84 91 206 190 124 78 174 138 167 102 156 110 92 50 108 184 40 95 105 150 114 175 164 127 147 99 49 81 228 115 54 151 178 200 143 203 89 80 104 67 173 148 180 157 94 109 123 133 176 127 233 108 83 124 107 169 120 145 114 89 195 80 154 176 146 112 92 96 119 103 143 164 200 151 136 172 34 125 154 98 94 73 88 230 127 126 56 210 125 97 118 117 105 94 
136 44 164 128 141 115 90 101 134 81 122 111 144 136 229 114 122 100 188 93 113 102 142 58 124 193 209 142 105 70 129 180 136 144 71 55 172 150 207 176 132 149 108 108 110 80 65 124 134 113 60 136 88 72 98 97 113 90 68 134 96 137 74 173 105 100 77 138 136 159 162 139 52 60 186 121 202 118 100 169 92 73 107 157 137 137 188 97 56 148 122 145 100 150 58 233 88 75 30 142 
58 53 113 152 132 126 143 36 88 86 149 78 118 38 133 146 132 106 96 176 197 156 99 104 167 158 119 165 136 233 71 67 99 178 185 94 166 86 92 83 172 169 167 113 93 129 140 154 110 122 65 129 79 128 121 141 95 85 110 117 66 109 83 71 45 95 102 107 193 178 133 91 86 191 157 156 160 137 141 60 152 179 97 74 107 145 79 173 121 131 84 65 130 119 146 139 99 156 148 186 
76 91 190 198 234 120 122 162 124 209 100 210 121 81 101 45 177 116 145 38 87 91 57 84 217 149 120 104 174 104 125 101 56 141 189 43 124 131 43 162 68 138 106 143 206 125 109 153 148 103 75 132 160 151 155 133 173 121 107 117 208 72 50 161 101 144 164 121 163 138 174 213 123 141 79 174 131 156 112 164 202 120 125 114 101 34 133 122 97 172 69 146 161 55 160 182 138 59 212 138 
162 156 110 103 148 115 147 166 97 66 87 53 121 175 163 127 61 55 135 108 110 136 159 197 53 126 65 200 143 154 80 111 155 139 216 155 128 168 121 75 149 97 127 82 197 165 119 54 126 122 112 165 73 156 188 164 118 191 145 104 154 162 118 108 222 113 79 105 86 123 174 103 110 89 200 188 147 117 94 137 68 91 152 146 123 157 156 65 106 70 103 78 152 123 154 45 217 119 117 204 
100 111 130 129 148 140 189 151 218 125 187 134 130 156 141 120 118 146 108 116 152 144 107 201 117 153 123 64 147 215 153 122 196 75 46 152 136 197 129 91 92 106 145 90 69 81 121 147 117 94 116 178 137 145 149 117 109 111 158 115 110 177 109 109 108 127 139 93 147 142 106 170 160 111 216 126 119 178 130 134 125 46 136 128 197 103 155 134 96 86 85 71 109 184 92 120 119 124 66 124 
138 120 94 128 149 118 132 179 135 43 161 185 158 173 171 97 109 130 162 147 108 67 184 99 171 80 101 49 114 182 122 221 143 93 107 117 73 196 141 86 238 146 155 79 74 185 145 169 63 190 122 115 88 197 155 161 111 192 142 141 86 62 105 193 63 103 151 110 184 157 154 102 41 112 182 146 139 55 79 87 55 145 69 163 122 128 179 194 87 60 91 122 131 170 117 137 165 89 126 149 
130 99 100 106 156 119 179 96 121 181 151 142 98 98 168 167 150 218 81 145 169 78 167 205 161 79 62 110 159 101 83 137 127 107 110 120 83 132 84 162 106 77 123 172 210 56 198 173 123 180 163 105 87 84 183 206 180 144 123 157 85 157 180 132 56 74 64 117 67 132 117 29 156 63 151 161 126 153 103 91 88 23 194 192 117 151 161 179 67 84 214 129 81 94 169 116 104 173 68 94 
114 161 164 105 145 110 109 105 99 180 142 171 189 185 185 217 135 89 159 89 100 105 121 63 103 217 199 157 123 80 109 98 120 106 165 122 35 131 183 85 156 114 175 115 144 132 127 66 157 77 46 178 100 196 164 94 72 178 48 143 137 142 142 86 133 200 210 29 97 202 54 221 172 125 96 136 62 58 193 148 91 19 136 143 145 139 147 70 146 79 99 92 84 65 125 117 138 159 180 180 
151 111 177 154 78 109 80 118 79 88 86 159 148 121 219 88 95 126 185 124 172 29 59 155 125 105 13 69 74 125 160 177 155 95 40 102 166 139 164 73 64 110 101 123 150 116 27 164 126 187 160 190 117 154 108 102 115 81 169 166 55 152 111 120 100 64 160 109 118 108 105 113 94 51 106 141 120 112 140 73 108 128 128 138 74 179 167 143 133 95 17 83 122 125 117 37 172 145 200 217 
78 97 95 86 156 98 118 117 124 102 159 97 143 160 95 95 73 95 186 71 173 99 153 118 149 111 210 72 104 82 202 136 90 145 161 101 152 174 226 117 94 155 77 215 222 138 153 98 157 128 93 139 119 196 187 174 177 117 138 222 78 169 192 177 102 124 152 138 115 144 104 140 191 183 105 180 140 222 124 126 103 67 123 151 179 128 192 55 154 99 80 126 98 108 93 86 165 79 74 139 
241 211 69 127 114 174 174 215 134 166 98 80 178 160 178 167 98 72 113 116 121 205 171 159 101 137 156 141 110 48 173 151 217 138 126 137 58 230 72 182 118 126 47 152 169 131 83 57 160 145 165 130 146 104 146 40 133 143 143 143 181 126 107 157 142 199 132 115 182 107 143 175 123 135 179 148 57 133 193 205 43 139 33 110 121 110 112 178 113 122 164 144 154 206 114 211 108 195 145 85 
176 104 41 167 65 87 177 51 124 67 107 202 109 176 119 151 87 101 141 144 146 134 165 161 123 165 119 161 108 126 169 139 128 74 74 164 158 58 26 158 136 200 111 135 185 116 147 70 148 26 103 169 97 180 214 106 147 86 71 81 131 154 66 94 113 122 175 156 102 97 110 110 65 173 114 153 146 86 62 103 119 108 111 169 149 146 106 52 195 91 126 176 156 102 120 168 101 170 125 96 
12 134 124 155 82 136 144 104 36 38 157 86 76 126 151 189 118 196 115 104 100 153 76 203 71 100 153 174 55 30 123 145 59 83 127 79 73 128 84 89 168 214 162 101 206 121 225 141 161 176 118 133 160 107 87 130 104 138 135 138 160 120 131 237 109 98 45 75 112 140 55 227 115 157 178 180 160 158 104 71 152 72 59 69 116 176 56 77 106 129 81 153 132 129 202 81 120 168 146 147 
101 187 128 159 22 139 108 174 104 110 121 63 75 157 133 117 103 166 177 100 112 151 89 103 117 125 144 120 82 188 180 124 107 127 93 115 139 112 61 103 82 77 80 176 111 122 78 141 28 51 178 145 71 140 155 40 185 149 77 110 132 182 160 139 114 117 112 174 157 110 134 199 162 251 170 105 145 146 111 164 86 54 88 163 138 142 70 65 117 139 126 149 90 125 50 166 203 92 177 185 
55 42 82 184 94 137 129 95 200 99 77 148 136 120 122 94 157 147 178 132 111 173 189 113 120 65 132 136 61 89 132 63 203 147 122 143 109 166 109 174 152 162 67 106 171 147 103 100 240 24 94 99 121 116 169 163 122 67 131 167 169 73 62 86 97 75 187 60 148 105 161 180 66 141 130 161 101 119 158 110 150 130 153 184 137 70 79 69 36 108 127 164 139 126 69 100 112 117 141 82 
171 139 200 78 74 195 147 119 214 142 36 157 115 141 129 66 136 134 122 71 142 128 121 112 96 126 172 158 138 168 200 182 83 93 48 173 102 112 17 166 128 83 138 103 136 174 128 124 82 10 116 153 66 158 90 91 114 151 89 189 151 210 162 129 56 130 109 132 134 197 164 169 130 135 223 109 35 105 152 144 90 141 162 120 169 109 42 124 91 124 114 165 44 154 185 135 51 138 130 174 
60 189 117 134 163 194 150 127 123 210 174 64 87 94 124 165 165 125 203 122 111 134 120 46 81 66 125 140 96 101 180 126 147 98 166 127 134 70 124 116 121 167 142 108 62 96 67 166 164 103 90 168 126 67 66 75 80 93 145 84 106 150 105 131 97 140 132 115 191 146 71 130 109 192 113 174 80 113 139 92 172 68 113 114 149 172 146 181 126 167 167 96 101 159 119 97 149 189 177 197 
93 184 111 103 152 169 143 116 157 164 91 217 154 109 34 162 111 116 200 158 97 140 78 167 192 109 134 99 115 20 181 126 107 229 146 119 167 152 75 152 164 146 98 112 63 106 173 97 167 81 114 73 116 187 111 153 110 107 171 143 115 120 120 178 120 139 59 116 131 105 87 110 119 151 164 125 147 116 115 111 101 187 137 77 72 112 100 79 121 179 151 105 27 150 119 122 166 176 172 151 
97 74 107 142 158 113 88 132 120 121 153 129 166 43 204 140 117 101 140 28 95 85 172 123 176 128 165 115 149 153 192 155 127 165 222 193 209 124 92 152 159 111 49 190 142 57 71 136 100 61 134 127 160 120 143 99 94 107 64 46 80 126 110 146 122 116 89 90 87 149 145 89 148 40 93 171 161 85 84 170 140 97 135 67 117 166 184 115 168 197 110 78 93 88 110 229 139 120 179 171 
97 171 195 122 208 113 85 85 152 78 73 188 103 141 67 188 119 203 126 93 146 102 136 75 181 164 161 118 88 77 83 142 181 219 70 94 130 115 117 62 44 173 94 199 126 155 132 110 146 122 128 82 160 81 137 113 139 88 213 208 94 83 163 67 168 87 147 167 127 119 135 107 121 120 203 104 114 65 77 210 68 92 36 188 29 177 177 117 124 97 96 67 96 64 85 71 159 114 124 225 
63 135 114 191 201 155 85 33 93 77 107 31 104 92 160 217 105 107 52 110 44 168 206 130 146 97 127 132 80 177 75 109 142 62 190 169 94 131 182 123 119 154 168 161 135 66 173 165 174 123 65 136 204 87 134 101 162 61 89 145 113 194 234 74 104 133 148 100 130 193 163 127 121 148 145 36 106 172 183 113 121 100 188 145 155 185 154 132 51 76 129 156 141 81 119 64 105 201 112 149 
144 162 150 56 155 152 145 139 147 141 119 173 109 137 163 140 92 181 82 115 143 101 150 220 106 115 85 123 134 93 37 129 149 90 75 146 96 97 83 117 203 176 162 149 83 93 96 96 155 180 153 130 130 236 121 106 90 103 140 119 120 109 105 111 105 132 135 132 100 138 88 119 119 110 73 103 69 129 81 149 139 46 134 163 107 189 189 138 154 160 86 132 154 109 92 105 132 135 97 65 
153 151 115 204 125 220 179 129 139 91 178 131 69 108 130 124 121 168 162 163 110 126 143 42 120 126 179 195 108 79 117 84 64 161 127 161 88 148 107 102 165 112 61 198 189 57 134 171 155 141 79 69 102 94 51 210 164 130 116 150 156 127 112 167 128 226 81 184 106 110 127 112 88 189 187 99 100 151 233 114 73 169 51 153 68 153 219 97 229 70 90 103 181 68 94 84 117 157 110 100 
109 189 116 186 82 187 144 147 98 179 198 60 162 65 176 157 135 36 160 132 219 130 95 132 110 128 65 86 129 141 128 143 89 128 84 128 135 217 153 38 125 192 111 240 75 100 117 96 63 73 85 112 49 103 114 78 119 118 151 123 154 105 135 203 70 81 175 85 193 106 94 91 177 108 119 133 180 151 136 102 45 219 123 200 121 145 186 103 79 120 99 81 103 75 232 122 157 175 101 145 
156 48 129 121 190 67 76 177 126 188 143 69 97 184 104 127 125 115 120 156 96 155 100 84 120 80 114 184 47 65 66 190 55 110 193 120 66 75 163 189 107 116 132 110 109 143 161 126 14 91 67 120 62 146 225 120 179 176 150 96 95 168 211 156 161 124 161 157 50 43 106 132 137 129 151 79 69 199 73 159 223 64 126 178 63 102 114 97 152 204 147 109 138 187 136 142 171 133 91 144 
160 160 193 176 85 136 150 93 152 166 75 148 48 97 134 142 143 113 237 65 109 163 127 101 106 189 166 131 147 141 183 133 80 124 111 119 100 120 99 113 114 156 89 136 179 227 147 144 206 98 100 151 132 207 120 147 148 100 107 140 111 121 135 82 170 181 145 164 43 170 84 111 122 167 74 152 91 64 168 157 116 103 123 213 112 183 103 110 64 113 87 30 82 188 90 154 176 184 97 188 
149 128 86 183 135 104 130 89 165 83 95 100 184 150 142 123 59 67 167 73 91 66 148 162 126 163 178 126 150 41 139 143 67 79 226 46 107 218 126 117 160 68 141 140 176 83 148 106 133 167 89 102 91 82 162 163 103 232 124 112 159 94 50 88 138 82 214 176 176 63 41 93 110 124 97 182 106 181 119 111 141 150 78 57 71 218 190 176 141 117 148 115 123 118 121 152 89 78 55 132 
132 127 51 108 175 59 85 37 158 56 159 55 91 110 221 110 205 112 176 62 165 130 152 130 95 144 181 115 103 154 122 139 176 133 69 86 111 214 119 101 52 190 75 166 125 174 161 244 160 86 153 89 140 64 108 124 130 129 94 103 158 163 110 122 42 45 174 105 137 98 135 156 133 109 69 98 118 100 123 205 205 160 215 171 119 92 99 81 177 125 106 192 98 149 187 171 20 160 194 173 
104 104 123 162 90 124 73 146 107 91 120 119 116 37 125 104 213 81 170 145 158 67 126 117 78 103 166 62 56 108 154 63 80 164 97 142 103 135 53 164 133 132 65 152 60 61 114 165 100 144 170 125 147 162 129 175 124 131 138 120 139 135 168 58 95 72 154 110 182 196 186 57 125 159 130 173 24 68 244 50 117 182 118 155 154 167 85 119 119 78 134 48 113 104 138 110 119 208 96 126 
28 43 62 206 135 92 147 147 118 136 133 102 204 183 199 176 147 158 82 99 179 109 68 94 92 55 110 107 113 136 178 84 150 118 164 154 205 148 107 74 150 87 156 217 127 75 138 133 55 206 165 173 146 90 148 204 158 115 152 130 105 139 116 38 190 118 121 78 163 147 174 92 214 178 156 147 24 53 142 115 153 125 105 99 126 109 172 117 143 80 105 163 87 149 184 82 76 149 135 213 
192 154 28 88 154 48 187 140 121 54 133 168 99 53 86 228 123 198 144 141 88 164 109 125 158 162 151 148 179 73 94 154 158 154 161 130 137 195 154 131 115 121 72 170 149 63 102 119 146 142 210 102 212 186 86 146 91 68 147 73 184 208 151 116 70 74 97 109 193 164 159 23 117 115 173 165 79 101 128 95 173 123 127 131 77 126 209 188 150 103 180 147 157 125 93 103 129 92 164 105 
205 140 94 142 122 148 97 172 94 63 87 195 123 163 139 158 192 36 158 188 108 141 74 29 131 152 90 189 228 189 149 171 137 198 146 152 60 110 128 150 61 194 158 123 78 119 159 190 153 196 147 120 106 113 60 151 83 32 105 131 136 113 147 108 103 131 93 123 96 45 111 175 171 158 119 180 139 63 116 129 130 155 138 138 150 112 104 120 214 163 182 117 125 190 188 130 85 96 142 213 
54 167 182 132 182 148 126 98 94 189 28 46 86 155 131 102 212 138 159 89 122 113 174 131 76 79 96 135 122 160 148 105 152 109 173 174 137 162 111 177 150 191 139 97 146 145 138 125 108 194 223 162 154 131 206 64 135 130 121 136 138 160 127 130 138 177 184 92 182 33 90 125 78 164 134 145 113 121 135 189 129 116 53 19 198 135 112 61 72 179 104 84 129 138 108 147 167 153 31 162 
159 141 79 89 112 132 82 75 117 113 113 118 147 137 93 101 146 139 108 113 99 101 124 101 159 104 105 105 112 77 115 29 124 145 192 137 145 73 105 45 131 133 154 198 206 144 127 121 86 200 60 83 109 137 125 196 127 167 80 103 115 181 98 107 159 115 159 133 64 103 141 167 103 130 77 169 190 142 185 201 69 193 79 78 105 74 101 219 128 123 122 134 176 185 115 59 193 117 140 123 
81 140 89 162 162 136 138 103 35 27 145 113 167 131 161 136 135 189 83 126 200 128 116 101 36 126 108 106 194 167 187 107 107 169 123 164 199 197 187 50 62 161 151 145 176 225 85 189 103 131 95 93 150 118 131 147 212 169 140 114 139 155 118 186 61 141 92 110 141 134 138 92 112 175 137 152 118 152 98 180 125 50 108 190 143 151 29 91 140 179 90 89 163 106 112 159 100 104 173 103 
109 186 107 109 154 114 165 101 188 111 100 145 177 177 107 66 174 118 72 129 170 132 219 105 53 135 150 189 105 199 133 104 126 40 188 161 109 229 75 92 78 44 159 140 77 117 96 91 179 123 101 115 183 179 152 81 167 158 138 93 125 133 87 114 127 128 157 133 106 50 106 131 150 185 105 70 51 144 108 120 50 88 141 195 176 143 44 100 157 196 139 168 76 75 96 90 149 97 226 210 
166 132 223 82 190 99 111 63 167 129 133 83 197 47 179 179 87 55 212 187 55 123 169 70 160 102 175 120 123 40 159 124 140 95 124 156 49 33 219 100 127 113 113 124 158 76 81 143 96 158 148 218 158 134 198 76 108 120 60 209 129 211 139 73 162 81 109 143 190 156 147 120 93 137 92 187 112 156 188 184 110 163 88 137 162 16 48 160 155 84 84 75 76 92 100 150 125 139 183 156 
192 106 56 134 27 82 121 204 157 131 68 95 140 139 87 135 72 54 155 110 107 166 126 143 107 175 96 85 109 141 117 101 115 93 87 127 162 157 201 84 119 81 142 139 41 174 67 180 170 176 71 103 144 169 115 140 153 129 111 151 159 83 196 178 69 216 139 44 186 187 150 111 167 144 93 98 189 82 126 147 191 114 133 137 166 198 106 196 125 166 95 193 143 144 94 164 162 161 145 120 
120 97 105 140 145 134 186 172 157 76 114 65 100 169 82 64 137 18 110 146 127 34 81 115 166 114 134 138 170 148 174 225 55 178 91 77 75 83 131 182 108 126 85 76 125 77 150 174 128 78 168 143 130 117 155 94 77 166 101 81 76 161 81 192 237 111 59 156 144 95 71 108 80 105 94 200 40 130 99 101 99 154 50 143 104 122 100 167 110 127 150 128 104 166 120 98 94 103 94 62 
132 76 121 100 143 115 62 132 116 134 86 98 86 98 125 145 145 158 75 115 120 132 166 184 168 104 184 154 145 179 87 30 145 110 140 156 139 127 89 148 129 38 133 113 126 176 149 196 106 117 76 122 166 103 95 20 156 131 117 168 134 83 82 100 107 135 141 195 119 63 132 124 74 109 119 189 158 126 103 109 61 130 159 31 140 158 76 163 152 139 176 166 136 141 112 181 143 136 152 153 
85 119 125 170 165 166 186 181 182 117 129 115 138 106 204 161 100 169 87 72 86 66 120 142 157 112 72 106 110 141 182 96 108 220 168 141 180 129 184 91 77 198 169 240 89 88 102 193 47 70 134 124 195 172 142 81 140 126 167 180 147 204 166 146 159 171 106 136 124 101 140 182 85 149 93 106 82 170 133 162 174 63 102 141 173 224 69 139 42 146 55 169 119 142 158 119 93 95 109 115 
170 174 73 144 59 122 63 129 35 120 194 156 139 106 122 165 96 51 102 204 88 107 157 170 185 105 136 63 87 186 66 79 177 158 145 166 82 157 133 43 96 197 157 64 172 58 152 129 129 174 143 148 222 78 123 132 66 127 159 75 139 170 67 189 170 106 82 117 172 63 173 57 93 165 187 130 112 157 72 139 187 152 91 47 143 166 182 127 120 49 130 163 156 87 168 203 158 53 213 160 
64 124 110 101 90 158 107 148 136 89 59 144 163 116 174 149 164 173 155 132 160 121 160 136 113 133 106 149 206 94 174 174 89 131 137 175 133 107 122 126 135 100 177 152 220 89 143 199 150 134 82 96 101 230 202 193 211 119 201 138 157 148 163 108 184 87 92 144 187 100 47 105 162 62 139 117 149 156 91 161 80 92 173 86 126 166 82 127 109 160 170 192 162 28 162 93 119 69 97 155 
149 103 77 88 110 69 142 145 102 125 114 49 166 107 48 118 128 96 142 80 184 168 173 131 103 141 153 171 113 168 158 200 130 98 118 140 224 90 162 141 96 116 115 47 96 142 114 216 114 87 137 80 186 49 151 187 109 133 161 139 45 137 114 180 111 82 175 150 199 126 58 187 88 108 164 132 118 133 91 110 128 185 138 156 31 115 164 94 149 172 124 93 139 163 96 177 181 77 83 59 
168 131 210 200 136 161 119 134 144 128 111 113 115 214 161 139 21 92 125 114 129 116 77 195 141 112 175 122 136 173 103 73 165 121 80 131 136 96 104 129 137 113 230 154 116 120 129 202 105 112 131 121 180 131 91 78 162 80 77 113 145 137 170 184 127 112 172 111 126 172 228 111 60 155 188 127 127 197 50 209 178 98 172 114 133 83 61 120 115 128 110 105 139 181 148 145 148 132 201 89 
112 86 148 171 131 44 136 97 156 76 208 221 161 153 136 95 161 137 128 161 115 88 95 140 143 144 106 74 76 82 107 167 134 149 56 72 116 150 96 90 97 48 168 213 136 111 136 139 131 148 168 176 141 103 131 150 197 176 191 146 107 126 99 142 169 118 105 189 228 144 128 75 127 146 47 187 95 167 105 137 106 144 124 97 191 97 112 115 123 92 100 110 136 167 115 136 45 121 92 119 
150 67 162 74 142 175 209 79 174 25 114 95 176 107 110 152 76 186 199 151 133 59 113 173 199 92 90 116 166 103 138 96 83 222 129 128 89 102 70 157 73 126 98 90 124 168 151 69 117 171 121 130 144 74 91 178 155 97 149 132 115 123 148 228 146 119 229 56 145 76 183 91 141 90 155 146 102 131 114 75 104 176 183 115 129 155 113 68 112 104 128 121 100 66 86 102 96 80 134 166 
93 103 142 142 103 139 183 22 134 96 121 109 102 81 177 125 74 128 115 172 127 171 141 228 123 192 137 147 189 87 222 116 100 83 118 145 88 138 94 158 97 141 87 107 132 159 177 181 119 71 87 139 126 138 102 224 157 111 113 132 195 126 157 111 146 101 159 104 92 105 132 174 105 92 175 145 169 174 80 92 163 171 78 84 129 169 139 96 106 142 93 182 157 163 92 158 34 212 174 137 
154 68 58 141 54 158 119 55 50 97 101 123 189 182 145 123 143 102 148 92 102 109 173 122 134 117 141 115 146 74 131 130 145 75 182 162 102 140 106 26 145 100 130 100 126 121 114 209 170 47 172 181 125 90 167 108 95 157 167 154 106 138 152 209 87 114 136 135 74 186 140 79 145 79 113 108 122 178 62 120 199 107 100 135 135 106 122 131 145 131 147 65 64 92 91 193 173 112 88 155 
116 95 160 105 146 109 140 152 85 115 55 141 116 91 78 106 69 183 80 98 131 59 162 31 139 129 201 190 146 160 115 131 71 167 133 44 174 58 83 155 100 198 127 66 102 153 117 155 151 88 158 165 40 160 144 133 154 91 88 200 151 147 175 137 160 108 143 143 222 124 236 107 146 173 152 186 38 109 161 105 99 111 112 175 117 203 154 127 156 110 91 106 129 134 117 106 115 97 220 154 
70 164 148 177 45 158 176 91 93 105 141 115 93 167 81 123 104 113 145 38 151 108 136 124 110 141 140 155 96 113 67 193 90 74 217 71 88 137 153 74 186 200 177 160 197 88 148 150 86 121 140 109 135 234 150 149 209 99 178 153 114 113 99 200 140 118 100 187 140 179 89 95 63 60 214 74 154 109 112 94 74 145 129 151 95 18 175 122 134 135 99 52 100 110 105 187 120 172 221 153 
164 141 85 166 168 107 205 43 30 68 163 129 105 213 136 54 120 179 175 137 125 65 67 186 118 183 159 95 117 14 114 112 158 83 116 132 110 73 118 182 135 104 211 166 127 184 68 78 99 165 119 125 140 157 120 109 118 82 106 132 128 136 123 236 161 130 90 78 102 113 94 186 113 141 115 102 183 168 168 104 89 95 88 126 169 170 105 133 149 167 133 90 180 88 182 100 172 152 220 179 
170 163 113 61 207 193 181 90 63 206 83 206 97 97 231 143 123 88 66 63 165 191 137 141 187 171 145 128 205 112 97 162 126 168 122 113 122 107 138 81 180 116 131 169 119 97 193 134 218 158 127 147 115 125 134 122 190 81 170 178 206 139 118 199 134 92 205 117 68 207 88 112 154 123 121 126 109 48 99 146 180 93 207 56 78 148 91 78 200 160 28 175 99 197 179 109 113 132 154 133 
140 133 83 86 153 176 180 123 50 158 181 95 71 124 106 104 113 150 122 160 70 110 151 125 75 92 136 207 148 196 193 49 127 124 136 200 119 134 194 105 145 159 41 128 164 183 115 142 157 93 109 164 107 151 132 92 194 116 147 102 142 151 111 80 103 11 163 176 106 146 157 59 171 64 118 105 120 116 83 90 75 130 38 201 131 218 166 160 140 131 73 128 94 177 119 150 212 34 152 105 
163 129 112 167 151 199 84 99 166 193 86 163 124 111 176 136 154 173 155 105 54 163 168 97 62 163 77 98 111 106 31 114 139 140 167 212 172 123 53 148 175 104 78 100 145 141 173 78 73 106 153 117 57 137 145 184 130 84 195 202 184 134 124 119 150 194 124 183 81 172 132 195 114 114 114 122 106 160 169 87 138 132 109 146 117 28 219 130 96 71 102 102 98 59 76 141 158 142 176 85 
169 135 122 145 140 105 128 135 61 125 149 187 143 218 114 145 116 131 191 135 115 208 141 142 113 144 61 122 158 125 145 103 45 144 90 118 168 137 69 90 88 107 134 174 121 69 110 123 88 134 155 143 122 56 130 120 174 198 70 65 209 239 108 56 179 115 161 92 146 130 121 171 95 113 80 139 57 43 153 168 166 180 174 117 117 114 128 110 168 136 23 40 106 133 130 113 100 140 107 129 
29 129 88 159 71 54 152 85 154 158 164 87 153 212 107 158 104 193 97 136 120 82 85 103 221 145 121 101 150 99 122 78 114 96 204 199 143 85 170 157 155 108 138 136 125 150 126 161 115 91 126 69 144 106 90 159 73 123 111 154 80 87 118 97 83 121 77 192 101 102 168 143 144 153 161 125 40 130 155 158 80 146 123 162 132 135 174 140 156 126 141 78 64 103 151 126 136 180 159 221 
96 96 117 55 139 119 136 19 82 139 122 120 145 109 72 93 196 55 151 80 93 158 202 74 147 145 138 144 121 157 203 130 122 137 31 84 193 131 218 132 107 108 72 131 91 71 148 156 183 179 88 165 180 141 166 114 81 160 138 110 73 92 122 110 81 189 204 103 123 167 165 127 143 89 112 125 154 172 144 122 123 147 77 116 181 105 65 102 109 123 130 180 113 110 83 164 115 109 117 44 
138 96 140 173 117 83 153 160 117 139 147 167 105 172 89 190 120 126 39 72 180 196 76 144 138 169 163 87 189 154 151 104 96 145 195 93 233 139 137 106 141 147 166 185 87 101 111 138 182 83 135 59 110 133 119 158 186 52 168 181 134 225 125 195 125 127 126 131 123 103 195 108 115 124 143 190 29 134 148 140 97 116 125 114 121 143 139 146 120 165 139 196 127 97 98 133 75 54 79 100 
205 114 127 161 115 152 111 179 162 127 110 80 144 115 70 80 110 134 129 91 129 91 66 136 76 185 101 222 45 108 166 74 147 114 57 104 79 27 114 86 92 150 112 125 168 211 135 228 29 129 123 126 90 154 94 176 134 188 32 133 172 168 146 82 81 189 109 143 167 107 96 40 134 59 67 79 127 87 147 34 53 154 108 195 92 114 105 172 168 72 161 142 106 164 85 141 11 123 85 169 
97 194 44 122 205 157 90 147 154 66 166 135 62 184 142 149 165 177 140 164 170 166 65 96 105 239 72 111 145 107 65 92 141 40 145 103 132 159 70 124 124 114 82 136 91 159 133 85 6 126 117 145 165 158 42 54 97 164 99 96 178 153 64 149 106 56 74 123 91 125 120 157 140 89 79 177 91 97 146 168 164 210 72 145 152 218 74 122 167 160 200 114 164 44 117 63 150 85 47 158 
52 185 120 102 190 130 120 101 111 157 128 200 143 152 169 103 71 158 120 153 101 97 113 144 96 114 62 204 190 52 199 122 195 44 142 91 73 113 177 199 181 175 34 88 141 173 151 53 158 102 126 161 119 188 167 72 153 159 179 123 204 148 103 197 132 153 134 164 83 97 191 92 154 199 163 74 99 152 111 126 45 89 128 95 216 191 168 171 61 148 84 168 157 95 151 212 198 121 148 126 
103 131 98 144 193 144 29 114 144 101 92 173 76 124 74 64 86 120 121 104 178 90 128 143 141 56 104 64 112 121 122 136 75 173 132 85 122 86 132 214 169 83 180 168 135 114 109 204 83 196 174 174 90 122 75 103 108 95 72 132 64 92 83 227 115 91 205 54 123 227 145 143 111 158 46 187 103 163 142 131 104 188 101 109 176 177 146 85 177 130 59 163 165 127 103 105 28 135 57 126 
117 127 163 106 187 75 128 128 103 123 97 166 133 162 146 140 147 160 116 94 80 152 156 185 145 120 193 120 159 165 77 142 223 149 132 97 145 103 166 156 78 133 66 182 84 179 200 175 219 94 51 155 192 109 40 115 149 129 151 101 183 127 120 148 145 56 129 98 77 113 177 134 112 125 192 122 80 161 174 34 78 201 30 131 144 155 107 143 190 112 73 105 112 100 106 116 107 113 116 112 
146 83 76 133 147 136 168 101 146 182 143 131 134 109 60 157 149 125 157 158 91 89 146 81 169 154 90 113 212 90 92 145 148 189 99 89 164 166 149 179 95 112 72 169 37 119 50 134 146 146 161 139 195 118 157 201 216 94 123 95 160 93 106 154 164 107 20 84 69 69 166 235 123 135 119 130 100 66 100 52 155 108 106 43 183 150 158 96 169 117 190 167 200 108 97 66 155 50 95 83 
102 116 84 95 75 145 42 62 95 84 51 83 127 41 92 87 78 196 111 112 85 142 109 186 152 199 99 85 87 94 20 125 138 184 156 107 124 121 160 186 185 207 105 103 170 47 103 132 119 191 137 87 84 144 139 154 192 147 161 139 147 158 127 112 123 135 107 92 125 135 111 168 120 91 128 176 160 140 183 229 194 75 134 168 123 117 114 125 124 131 145 87 166 87 101 155 84 40 42 106 
115 148 64 172 88 119 135 177 109 112 116 214 177 127 168 179 127 111 62 60 174 164 185 139 143 166 131 97 168 104 65 81 156 127 205 86 172 31 167 22 133 88 119 146 135 128 92 160 104 90 112 114 171 163 89 126 105 164 187 83 150 145 106 146 133 83 142 88 143 160 105 127 134 142 159 50 110 112 124 170 65 137 166 105 177 154 92 185 182 1 96 147 136 119 160 87 68 158 187 177 
71 161 172 100 133 103 162 182 144 60 162 124 72 196 93 118 132 58 132 120 87 126 222 171 132 126 134 110 140 46 162 113 105 171 112 173 36 154 136 144 171 75 86 107 147 101 198 67 64 145 163 150 159 148 165 118 136 83 129 118 183 84 108 140 204 139 132 102 183 185 95 115 124 189 127 187 112 154 134 174 125 119 134 130 116 142 225 208 169 170 114 71 100 124 84 135 104 77 123 169 
76 108 84 154 119 116 105 75 144 147 163 101 80 112 169 104 226 154 59 220 99 141 152 206 100 99 156 150 89 61 188 61 190 138 190 159 88 162 198 189 64 153 165 143 141 144 137 122 125 141 145 151 177 141 136 136 98 130 116 122 119 67 138 166 88 188 92 60 131 68 84 94 147 130 110 143 146 168 107 163 118 191 135 92 135 82 100 172 81 128 189 120 93 129 163 105 152 179 189 108 
176 176 70 138 42 163 77 22 140 149 106 137 137 97 193 147 97 164 140 188 142 132 118 167 74 33 134 149 136 130 130 155 145 72 186 141 87 109 100 123 108 110 171 183 75 143 126 213 233 66 164 109 173 193 24 100 179 67 165 131 173 117 46 157 137 178 95 157 153 173 42 78 41 116 149 169 70 161 169 107 100 108 97 65 213 91 92 105 150 109 215 112 103 187 129 189 174 153 199 116 
118 189 159 156 110 122 121 127 159 78 40 125 177 164 156 162 95 126 165 208 111 143 121 110 116 126 76 138 80 187 98 130 59 130 87 155 92 128 178 106 136 144 117 193 94 149 155 141 143 138 106 84 41 100 153 75 101 94 202 172 106 171 180 126 117 113 179 213 66 87 126 139 55 127 45 163 197 121 129 225 87 156 132 149 90 98 127 29 81 63 115 80 143 102 180 158 171 131 166 93 
84 125 213 43 171 146 126 142 178 153 144 40 121 125 98 119 96 81 99 200 122 126 189 150 172 192 122 90 20 118 181 117 146 83 118 165 143 44 121 152 180 202 173 154 153 67 193 130 172 108 65 116 145 109 169 206 193 84 133 195 57 135 180 125 158 24 167 153 111 87 52 187 84 105 106 91 179 156 158 155 111 147 96 84 98 197 148 88 164 62 132 104 115 129 135 201 68 159 158 148 
126 71 146 75 168 49 100 62 161 140 139 104 180 95 186 174 71 117 176 134 74 130 125 160 50 128 138 220 89 146 144 128 85 58 125 196 109 127 149 99 199 226 146 145 172 177 142 151 126 91 178 64 199 110 134 164 52 41 97 191 119 54 140 141 116 227 180 77 173 159 162 215 131 104 119 185 83 62 43 183 175 127 75 157 179 126 103 156 135 90 152 131 132 124 115 109 151 122 106 83 
154 102 87 137 133 97 51 163 127 147 166 80 171 144 146 167 81 115 164 175 92 90 148 92 100 182 131 206 172 81 113 170 87 72 112 162 191 56 171 87 108 132 144 91 120 126 99 170 134 98 95 143 90 108 162 53 123 99 222 175 88 65 192 153 126 76 92 203 121 91 48 120 106 139 87 81 117 66 168 122 146 155 142 217 161 142 166 140 118 113 164 135 107 123 108 158 99 145 99 190 
176 169 119 117 152 169 220 99 159 131 21 171 153 155 118 160 95 158 172 143 135 120 140 134 151 111 163 169 39 124 171 163 145 124 150 134 81 149 132 102 117 149 174 109 73 146 84 194 173 83 79 171 175 163 31 125 194 137 91 29 108 204 153 116 170 53 74 110 115 141 113 85 112 158 85 78 201 154 179 148 114 136 12 125 113 44 127 111 124 117 124 128 149 108 62 139 140 120 172 155 
25 75 140 146 169 76 149 136 132 127 129 87 156 149 166 122 101 162 126 125 68 193 118 98 131 178 97 142 130 121 82 208 209 103 99 99 94 106 145 182 186 80 54 221 105 196 85 148 110 179 152 23 156 103 62 95 141 82 102 139 147 82 114 123 59 156 125 198 77 154 48 72 133 190 146 147 123 190 191 155 128 98 85 71 85 158 112 115 157 156 175 106 155 122 99 77 77 186 116 137 
146 152 114 163 91 115 139 105 152 113 158 97 131 127 146 45 100 169 73 86 141 69 88 109 115 112 124 184 125 107 151 138 134 101 128 150 105 90 112 132 114 65 79 121 137 122 154 123 161 172 114 91 168 230 76 148 176 29 89 100 176 95 142 67 43 83 134 173 39 133 82 122 111 143 165 97 218 196 65 159 122 126 42 138 70 145 75 130 138 126 177 112 131 72 170 147 30 37 110 142 
47 64 122 132 86 93 172 88 103 98 144 142 39 87 111 130 126 134 182 81 199 173 107 74 159 189 66 98 180 41 49 90 96 136 161 164 92 140 120 131 135 151 136 204 64 91 167 87 109 173 75 63 210 114 129 114 144 90 96 205 164 165 52 113 145 38 116 178 95 175 100 104 95 167 171 29 103 125 108 18 100 137 79 127 84 169 86 226 85 108 156 26 188 120 129 154 146 83 208 118 
140 198 83 146 143 104 118 130 149 167 107 132 122 178 56 30 133 203 141 80 58 211 82 167 121 131 107 181 31 102 92 150 29 165 136 115 97 99 157 100 85 107 179 30 129 132 84 107 58 116 110 126 227 93 187 137 138 51 181 84 159 102 91 98 148 85 131 165 130 201 118 133 100 100 136 148 104 105 197 115 100 136 103 114 146 136 147 166 147 138 127 97 109 118 134 78 178 171 219 138 
115 140 138 224 103 171 99 84 187 107 161 65 98 128 126 137 201 139 179 108 93 137 166 126 126 162 67 158 211 67 56 165 122 142 58 170 102 185 119 203 123 93 184 91 108 165 119 142 76 73 89 176 170 51 248 115 132 173 91 147 217 85 130 84 217 139 64 136 83 57 138 154 27 112 155 131 159 102 128 87 121 131 162 127 139 155 153 73 44 161 165 40 69 136 75 102 115 167 142 161 
98 81 131 126 152 181 156 129 118 85 100 233 69 172 94 120 78 133 69 70 103 182 160 154 147 76 110 152 78 147 143 157 115 84 145 135 171 41 71 73 144 151 129 150 120 123 125 144 120 58 172 167 59 87 153 26 191 92 123 133 201 130 98 177 97 199 177 85 152 160 142 107 119 119 33 114 181 195 140 83 115 197 62 43 136 77 101 147 181 222 62 151 140 144 105 121 199 149 174 186 
156 142 109 158 11 107 193 165 185 163 118 137 113 144 100 90 106 193 143 215 97 135 148 148 158 161 169 118 86 129 119 187 164 141 170 112 103 144 166 135 104 167 182 102 72 152 218 195 147 153 198 139 106 191 124 101 78 105 141 119 189 173 105 117 127 133 177 111 180 144 96 150 183 84 137 78 76 72 100 138 198 122 39 136 106 104 202 98 124 144 42 141 141 97 114 84 113 122 86 59 
200 69 139 102 85 239 73 58 47 62 136 173 219 115 119 130 111 188 177 117 127 87 160 126 78 97 172 127 153 102 157 80 229 94 126 130 170 106 123 148 111 43 104 123 57 118 117 154 108 109 163 132 115 64 122 159 129 91 162 188 205 207 155 183 93 85 157 154 97 208 141 99 112 78 152 169 152 85 97 79 193 141 85 177 59 174 133 139 77 100 136 136 142 87 163 186 80 156 87 134 
163 146 160 135 107 169 88 108 50 65 133 183 104 130 153 129 108 119 105 175 94 166 128 119 150 185 65 149 179 114 164 115 99 109 96 186 37 162 125 158 220 100 98 165 180 193 129 123 213 185 133 154 82 102 185 45 140 120 91 188 108 199 35 114 86 42 138 176 81 112 107 71 103 176 236 135 113 163 145 95 92 203 105 165 77 118 108 127 127 21 114 117 220 90 78 178 177 212 148 192 
162 157 100 120 81 168 78 91 62 82 181 97 139 165 116 129 182 196 176 145 174 93 126 98 91 94 106 155 39 106 112 175 135 88 144 182 22 82 104 174 142 124 122 101 136 169 113 82 64 139 93 103 125 97 71 164 60 54 78 122 105 131 179 155 103 121 179 137 106 182 23 138 92 107 122 120 134 103 90 167 132 225 89 80 117 146 100 64 125 51 155 94 152 200 182 68 85 45 58 175 
198 126 195 113 52 83 125 75 42 153 74 140 162 193 44 140 205 107 151 156 143 117 156 168 171 145 145 165 104 137 98 130 120 103 48 149 77 103 171 97 165 148 168 128 94 120 119 125 166 124 99 89 223 105 142 116 26 111 111 183 37 177 89 99 47 150 36 103 114 146 185 101 68 152 111 107 154 204 133 110 196 166 170 143 42 172 47 64 98 206 177 110 171 119 94 114 144 107 129 206 
58 177 94 143 128 119 167 77 135 168 97 226 132 158 96 216 94 77 154 95 156 163 204 29 133 116 176 154 192 158 92 37 77 105 20 70 120 82 169 158 145 152 154 166 155 155 99 116 187 52 153 56 187 173 139 97 130 42 119 100 192 118 153 188 102 141 44 185 89 100 155 191 97 156 166 92 134 177 94 101 83 194 125 128 100 122 96 44 132 134 158 194 84 80 191 141 75 191 95 90 
108 70 112 79 52 215 153 201 179 134 34 79 161 161 85 146 108 99 104 81 201 137 158 126 168 146 156 67 163 160 115 166 154 69 179 96 98 94 134 157 89 155 100 212 152 184 164 157 89 88 90 71 144 122 114 110 129 112 37 86 136 114 128 86 63 150 156 78 99 103 141 184 59 106 115 164 169 99 25 145 151 64 71 128 86 108 135 114 138 37 162 92 197 92 106 129 91 100 133 139 
75 112 114 95 134 177 122 81 152 177 148 160 137 66 155 173 75 124 139 80 98 100 102 133 144 128 101 158 92 100 64 84 110 162 40 105 110 94 141 211 183 113 204 95 105 99 207 136 175 113 154 152 133 79 209 128 99 152 98 125 121 161 124 141 80 126 25 149 148 118 143 133 132 71 39 67 110 153 217 133 59 129 148 136 120 142 113 105 166 141 181 147 125 50 149 34 154 217 128 121 
101 154 158 123 135 118 165 118 160 57 82 191 159 96 173 225 204 33 105 74 110 155 129 61 173 96 173 103 182 118 172 161 150 164 128 179 127 106 181 82 75 137 98 140 127 155 126 20 41 164 144 56 85 150 112 185 86 89 75 146 128 87 192 147 56 191 163 65 71 114 145 190 82 210 92 58 80 147 136 130 157 130 74 158 151 76 179 71 158 85 88 120 175 91 80 177 182 110 104 179 
202 82 130 164 218 170 153 136 117 137 119 106 161 147 141 124 137 138 104 192 81 109 112 89 122 119 190 175 111 143 115 188 167 187 137 99 38 104 81 130 80 130 76 161 40 21 151 54 169 55 38 128 189 112 202 146 142 78 80 93 100 115 155 84 152 116 142 122 121 131 158 80 174 116 216 97 137 92 75 55 140 107 150 163 164 36 141 139 192 162 159 123 57 78 86 103 138 136 158 109 
63 107 145 64 81 76 102 132 115 103 201 83 106 164 138 111 22 222 109 135 46 118 86 60 115 108 158 44 117 98 86 59 81 75 84 183 162 135 27 78 81 190 142 113 67 147 97 76 198 151 126 109 128 165 85 182 191 139 95 138 150 147 171 124 145 123 125 164 207 88 64 156 192 180 168 197 68 120 65 151 125 55 110 107 29 188 147 172 178 144 149 96 126 124 123 156 209 163 142 94 
120 194 97 179 163 10 37 80 16 118 149 230 93 89 78 98 72 133 138 118 121 175 42 104 170 103 103 140 92 151 95 89 93 122 78 95 91 150 61 111 109 53 111 126 95 128 107 100 76 110 96 129 174 86 125 143 79 170 137 171 162 91 127 174 95 40 120 134 158 168 168 115 171 136 111 84 133 125 156 154 116 140 88 94 191 90 62 81 171 219 81 113 86 92 166 151 141 62 135 84 
143 138 97 179 19 171 168 141 99 140 96 104 59 69 196 104 184 125 98 52 127 142 152 125 107 126 209 123 147 195 205 149 140 111 115 66 127 111 138 70 39 187 86 184 120 167 142 111 208 174 78 14 190 109 112 59 158 173 56 159 171 173 168 108 29 59 124 191 106 110 145 68 125 100 70 139 103 81 110 121 118 79 160 126 135 120 194 145 108 163 87 173 119 142 129 68 230 108 68 140 
71 52 237 141 66 106 146 104 201 101 147 168 93 114 92 190 105 131 88 173 167 96 171 123 80 138 82 143 141 124 113 139 171 128 44 176 139 152 84 140 114 116 201 179 67 103 109 150 152 131 135 99 143 152 145 158 198 190 85 146 235 100 188 115 129 185 181 81 145 151 181 165 112 101 128 87 143 153 152 123 91 76 117 155 122 168 153 115 116 178 178 134 140 75 45 102 90 103 76 161 
125 71 163 176 133 115 111 107 65 162 57 91 75 150 160 169 131 111 83 151 133 59 15 99 110 111 139 114 135 157 61 115 154 144 168 54 128 92 146 180 125 93 132 84 132 149 131 128 107 209 132 79 123 145 173 185 172 106 107 159 148 105 58 151 102 160 42 115 138 132 153 148 83 201 79 133 115 109 59 213 155 165 204 235 126 157 135 80 91 114 77 108 120 150 163 87 93 165 114 112 
