P2
100 100
255
182 173 134 168 192 104 92 103 156 92 160 111 144 201 111 161 39 10 111 171 49 169 140 55 108 21 133 119 182 190 202 135 99 111 112 169 156 76 193 107 150 99 103 130 139 146 65 88 167 89 143 132 112 183 148 155 168 141 61 216 121 179 172 86 173 170 168 85 69 67 96 60 147 182 58 164 174 131 109 95 155 139 136 140 128 137 118 72 80 186 129 90 166 171 181 135 136 160 158 129 
196 174 207 106 136 142 207 172 133 125 135 121 86 129 78 210 51 100 181 147 175 154 135 226 91 144 162 141 199 151 57 172 144 153 69 155 103 136 158 95 116 133 218 146 130 137 126 69 192 131 153 88 165 88 184 96 135 129 181 62 197 119 56 119 127 187 193 90 130 174 86 123 96 66 166 107 119 133 131 41 73 123 166 154 121 186 198 136 73 133 91 111 159 111 145 116 105 185 122 46 
98 167 112 102 146 176 121 97 184 153 115 139 70 154 93 200 91 134 136 11 116 99 122 212 119 192 79 100 193 131 134 141 150 61 159 200 75 215 61 178 72 197 114 141 159 67 121 126 147 49 177 74 55 138 178 103 64 166 155 172 68 68 156 163 161 101 78 83 117 86 75 127 149 103 132 113 156 147 78 118 153 190 221 129 101 183 124 167 190 194 118 33 139 152 102 66 140 66 102 143 
44 91 163 139 105 140 177 70 113 91 79 211 98 141 113 159 168 168 111 86 108 98 112 134 95 121 106 102 183 138 147 85 82 103 86 69 85 118 125 121 145 148 139 178 79 126 157 153 163 89 167 154 118 216 116 111 165 117 27 182 182 63 164 110 170 182 196 48 172 161 129 138 94 59 174 123 195 86 88 151 108 154 205 194 239 104 67 161 156 97 165 84 118 65 141 220 84 161 99 111 
88 125 92 126 112 143 170 127 95 95 166 101 169 170 67 173 117 39 125 155 98 164 107 167 57 143 224 74 148 147 183 134 157 127 140 91 93 152 97 132 155 145 107 32 116 190 174 190 180 131 104 167 105 174 198 98 116 95 88 145 149 137 135 107 125 124 189 198 94 159 75 162 62 127 28 89 153 181 148 193 146 205 143 126 87 108 130 130 240 155 144 127 238 124 113 202 93 143 54 121 
104 153 170 137 83 133 9 53 209 115 137 144 84 82 69 117 118 159 131 211 135 137 123 124 137 107 157 105 209 159 36 175 123 187 128 34 119 141 78 193 88 137 63 156 166 112 204 179 159 145 152 145 121 102 153 86 112 92 123 162 108 158 110 48 192 98 43 43 176 106 168 141 126 116 215 119 170 107 67 123 77 138 141 218 126 168 147 152 19 162 165 88 197 98 122 95 119 103 160 55 
173 184 28 68 50 114 86 48 64 125 201 187 131 158 108 117 131 138 105 181 176 140 189 161 96 116 128 75 97 115 211 207 224 128 98 81 82 98 134 197 80 206 88 46 51 150 146 109 163 110 168 84 139 111 105 160 169 102 181 22 150 124 40 87 125 99 136 78 171 94 32 75 130 140 157 109 155 127 106 72 165 67 80 151 100 126 77 99 157 184 97 190 102 129 61 168 81 197 115 110 
166 159 76 90 130 142 213 104 128 88 130 108 95 144 45 134 140 98 47 178 122 122 92 135 91 78 104 172 84 134 77 118 78 204 176 127 113 193 45 171 47 201 134 210 130 145 93 130 102 115 107 142 172 131 53 149 165 179 132 133 155 134 150 101 81 159 110 123 172 205 213 189 110 165 190 144 77 118 98 174 54 75 37 115 111 84 179 69 126 172 136 223 120 120 148 160 123 114 107 51 
176 160 168 176 27 156 215 136 166 92 64 171 202 180 84 180 45 166 146 123 176 202 79 106 117 105 201 85 177 91 104 128 167 121 120 152 227 125 136 161 189 172 194 106 182 122 155 134 177 99 156 149 48 67 142 155 142 121 133 124 197 50 134 96 183 212 93 153 110 206 125 53 96 123 110 67 217 86 100 186 122 193 126 145 126 174 110 88 146 96 140 114 125 108 205 131 48 103 157 179 
100 225 96 117 194 132 136 111 153 237 171 104 81 46 132 145 147 115 141 62 88 70 188 185 58 155 168 108 177 137 125 141 83 149 140 187 71 109 151 146 113 185 174 100 154 109 117 116 161 190 154 165 82 132 108 137 76 128 191 149 82 165 65 125 196 48 82 147 129 146 171 125 168 196 203 137 84 149 218 181 88 217 162 67 167 80 192 123 34 179 75 211 58 184 218 123 134 98 157 144 
87 93 129 83 118 67 102 100 145 59 146 66 89 106 150 156 115 123 226 191 142 122 131 197 75 117 130 85 63 99 98 26 136 111 119 138 87 170 119 151 76 128 106 31 96 136 69 106 151 98 93 168 87 144 194 132 164 99 102 177 173 135 155 133 159 105 107 82 85 161 92 184 122 200 149 63 115 183 58 54 174 167 95 135 99 196 44 160 100 55 180 84 108 134 64 96 140 167 136 123 
164 143 108 52 111 177 149 194 169 104 134 99 168 95 137 132 135 173 123 113 222 164 108 177 138 109 120 71 154 174 140 104 103 60 72 110 76 129 131 102 102 175 151 33 166 131 113 75 129 129 210 100 166 216 129 154 120 162 108 143 141 138 96 148 178 213 166 189 126 201 189 116 142 56 89 93 112 219 102 118 177 132 118 200 74 67 161 105 149 133 187 157 143 134 44 87 136 138 125 109 
138 175 100 130 173 172 91 45 102 195 133 131 161 163 112 111 118 162 120 119 106 202 103 64 116 116 119 188 152 104 78 135 70 98 61 142 166 165 123 157 113 167 220 219 174 20 84 101 66 148 189 146 183 148 175 78 150 171 115 149 73 61 81 189 74 124 163 109 140 143 106 185 60 81 91 135 105 157 124 39 77 152 149 79 39 138 98 128 176 134 205 162 98 87 99 82 185 16 161 125 
88 95 192 140 171 70 107 76 105 118 117 154 93 122 74 205 103 143 164 128 136 66 115 86 69 163 57 104 94 89 94 147 123 177 140 163 125 203 158 86 149 74 121 72 147 137 154 70 188 156 173 112 114 157 178 151 177 226 134 106 79 138 140 137 87 163 64 189 114 118 118 159 163 58 119 181 135 181 195 85 159 174 190 194 136 126 112 140 140 207 112 151 111 149 96 104 100 168 185 116 
107 87 139 120 85 127 129 92 171 70 122 61 129 95 55 146 91 118 65 100 154 174 96 117 109 179 133 172 162 84 128 124 128 178 142 72 121 170 105 60 211 141 77 136 143 169 160 148 57 76 200 125 89 139 87 130 110 143 117 78 159 171 80 59 122 79 140 102 122 164 158 80 156 153 113 118 180 155 167 104 106 217 111 109 136 66 151 219 120 251 42 139 135 25 208 156 116 131 49 186 
158 131 123 166 147 68 98 95 113 149 102 139 129 136 160 99 101 94 145 122 102 104 143 107 107 111 112 178 112 109 82 126 84 94 61 195 102 101 94 200 165 115 150 141 172 92 155 160 180 74 98 162 175 126 157 128 96 117 187 151 119 156 181 136 43 21 156 185 215 161 206 93 60 33 141 169 134 83 142 174 196 110 82 52 126 146 98 169 124 191 109 34 84 157 127 174 171 80 180 182 
106 114 136 89 115 64 218 80 196 163 92 134 212 104 143 208 116 55 211 142 190 131 183 137 161 144 189 215 159 15 66 140 96 81 158 150 153 148 63 103 103 136 152 188 133 112 112 155 66 120 54 109 138 84 141 85 111 133 55 127 77 170 33 82 100 83 120 160 163 86 82 110 110 87 119 198 163 110 131 129 76 173 168 83 60 51 107 136 118 195 49 201 67 188 140 165 116 137 156 106 
129 157 125 183 93 169 159 61 85 116 139 52 127 150 130 160 95 166 153 139 60 156 116 13 140 118 225 129 148 128 115 125 95 157 160 86 138 129 111 148 110 97 96 144 110 92 124 102 70 109 125 86 166 126 83 208 96 70 145 176 95 155 93 178 125 95 150 163 126 121 142 106 174 67 140 130 132 188 91 150 142 141 123 109 108 131 122 142 160 143 170 180 183 133 109 163 200 154 171 170 
90 132 198 178 178 71 130 106 161 78 138 179 59 84 191 178 193 127 187 54 162 56 147 160 146 162 111 106 84 184 120 199 92 38 214 120 110 145 73 171 27 115 169 204 93 128 131 91 77 90 98 84 87 111 108 89 88 111 59 140 125 65 130 160 141 157 161 103 183 176 129 99 115 231 104 173 138 116 116 144 118 32 88 216 126 25 174 106 172 126 62 157 168 142 163 167 141 115 132 150 
205 116 169 34 148 74 110 82 53 156 125 191 113 117 88 150 125 119 161 121 117 93 141 190 90 131 107 128 154 116 198 123 163 40 207 160 52 83 150 78 72 23 126 112 153 99 46 150 102 115 68 204 155 152 204 75 207 172 82 116 77 81 140 91 198 131 154 193 172 162 45 224 174 139 56 126 217 155 94 115 97 133 85 118 96 142 159 157 110 123 55 66 132 153 114 89 124 112 148 110 
99 193 123 168 119 133 136 57 153 163 73 197 155 100 128 144 149 119 182 114 130 69 134 134 103 159 87 194 135 162 108 58 155 87 121 133 142 113 107 115 111 177 123 149 37 154 150 214 132 85 92 168 156 62 137 168 103 100 187 89 181 59 167 120 115 157 174 83 81 69 159 60 122 162 78 117 192 118 136 139 146 148 120 26 124 95 141 161 60 130 90 59 156 84 191 200 69 208 137 112 
154 208 203 135 144 81 149 192 192 60 140 167 112 179 166 150 94 205 109 191 199 76 187 165 165 183 55 171 151 57 205 108 100 126 175 188 168 93 182 115 79 220 123 65 80 72 112 14 142 152 69 124 39 108 138 201 37 83 185 98 138 86 56 184 119 133 78 144 81 70 79 102 165 110 134 136 137 119 97 76 159 75 117 217 81 188 132 53 159 158 76 106 122 95 133 56 127 95 158 114 
176 177 87 88 174 123 95 167 124 157 120 161 208 115 182 109 88 161 173 86 112 184 106 161 64 153 137 167 113 167 193 198 173 128 129 114 122 186 156 104 107 118 154 165 132 129 81 115 109 44 57 140 85 161 54 170 129 148 152 158 103 105 83 129 91 98 49 175 134 113 143 182 150 112 69 111 155 146 105 191 74 93 108 90 208 124 145 93 179 109 146 130 196 140 158 120 80 51 194 143 
88 179 135 109 133 138 138 155 185 59 111 91 84 170 61 177 197 179 82 188 142 106 16 152 157 182 184 178 101 115 116 151 102 99 126 139 126 128 36 184 99 95 80 107 88 150 118 98 154 39 134 176 108 75 177 100 158 119 104 90 169 175 159 215 141 98 88 107 101 201 118 85 96 113 133 77 119 145 168 187 147 181 141 105 151 86 124 139 25 192 89 119 151 148 172 87 123 167 143 191 
149 170 145 145 36 160 122 144 154 32 117 55 144 94 95 158 111 131 73 114 159 85 108 102 102 87 139 167 104 155 128 180 130 133 46 156 132 134 182 90 69 130 191 153 91 175 128 128 209 96 204 157 76 195 120 138 202 176 70 86 70 136 26 181 90 115 142 126 99 157 122 62 118 138 56 148 82 179 159 182 122 130 118 216 146 129 137 126 142 126 191 171 133 160 93 132 86 190 130 123 
101 118 177 160 149 168 119 135 121 58 141 119 85 191 170 114 42 133 141 115 89 68 33 159 83 120 167 107 84 168 115 158 131 196 128 91 15 103 152 93 79 115 75 118 34 104 80 157 136 145 159 113 120 118 97 118 46 22 151 147 148 97 115 92 194 54 103 177 156 189 144 75 85 161 50 95 158 207 21 136 147 157 132 209 137 180 165 84 137 131 52 47 140 166 132 83 132 135 119 66 
95 129 100 118 206 100 152 186 126 195 123 87 163 81 200 148 79 83 163 66 93 83 162 150 118 173 103 84 171 148 39 78 134 178 116 107 191 114 188 88 97 181 183 103 82 92 192 79 153 94 163 128 109 170 163 170 154 134 108 153 116 161 89 143 92 193 140 145 161 125 58 81 77 121 101 98 145 194 140 126 180 97 130 113 154 100 120 164 165 71 166 131 151 208 160 153 170 121 195 153 
124 110 158 104 116 139 104 71 154 206 196 158 52 94 225 132 183 160 174 127 99 112 180 136 171 24 116 130 203 131 99 112 134 138 63 78 204 91 72 136 55 145 123 163 199 46 97 162 185 74 246 151 154 106 45 109 153 142 195 117 157 121 99 140 160 154 59 133 135 135 138 196 53 77 165 65 202 173 90 177 175 55 166 170 173 104 216 109 75 174 192 65 140 150 145 119 73 68 130 141 
174 114 191 67 184 161 161 79 107 110 172 69 149 136 140 123 161 170 153 114 169 88 113 149 181 92 84 115 196 110 195 158 67 184 107 153 137 83 148 184 104 230 200 118 173 178 140 215 143 85 57 201 141 186 93 170 125 109 144 70 116 114 62 142 130 113 105 75 36 156 209 128 105 155 111 92 98 61 131 137 143 136 116 129 151 69 164 94 93 227 168 207 189 82 189 125 60 150 80 126 
112 136 118 175 57 119 94 149 70 170 121 115 135 170 154 122 71 177 54 126 72 73 137 108 200 133 95 62 179 175 88 162 163 116 130 131 120 168 40 157 66 117 176 83 92 158 107 119 186 212 67 159 154 94 126 196 99 117 69 162 73 117 60 196 151 140 157 104 195 152 142 128 193 134 136 96 136 78 180 139 182 110 85 143 126 161 193 120 126 157 101 140 57 101 122 113 98 94 214 58 
97 158 169 81 67 123 160 235 57 78 50 199 112 110 165 109 159 91 122 73 108 35 151 88 204 142 173 96 215 154 88 79 139 146 167 137 87 79 91 81 179 105 68 135 128 211 152 171 219 116 51 98 179 186 144 50 123 153 163 208 121 60 94 97 136 83 82 102 202 133 138 73 147 152 175 98 134 105 120 110 110 214 57 229 178 104 88 144 61 185 114 94 69 121 76 141 161 105 74 153 
148 94 74 110 109 164 166 81 98 60 194 166 62 145 68 138 82 177 124 132 207 147 103 157 139 101 86 162 148 70 236 124 95 74 68 149 104 147 27 156 183 134 166 174 159 107 88 134 122 101 129 138 90 101 171 85 93 46 135 168 129 86 193 151 120 227 105 125 66 229 189 105 134 155 190 179 117 219 207 119 104 99 115 85 140 75 150 181 194 90 157 178 195 123 167 116 151 38 80 45 
81 154 180 74 104 157 163 182 132 116 107 140 164 114 150 194 95 179 211 102 53 123 163 132 102 176 112 123 142 138 170 64 119 166 102 161 154 156 108 103 161 100 173 125 81 136 72 78 120 104 227 161 172 107 157 92 162 91 153 195 83 61 148 132 163 107 110 117 89 86 166 158 101 150 166 79 155 176 77 173 81 146 109 163 171 161 85 118 109 186 110 209 71 165 137 130 127 124 148 52 
89 134 153 171 147 92 42 82 127 169 107 146 149 227 130 128 143 156 147 206 166 175 204 78 161 158 132 169 146 232 104 165 74 82 178 130 118 161 156 105 41 104 165 45 160 136 98 164 196 224 108 165 185 113 191 111 125 99 160 103 81 149 64 132 108 170 64 118 139 87 108 52 166 106 160 125 121 196 65 209 173 163 152 146 164 180 148 171 126 64 150 96 73 114 102 120 197 151 150 161 
36 132 138 142 129 62 100 65 191 181 103 119 197 96 143 104 105 140 93 84 126 45 82 205 24 86 89 88 111 140 134 183 33 125 101 142 107 153 181 156 86 172 87 128 102 122 179 97 150 179 154 100 70 40 191 171 61 145 186 70 208 86 91 137 129 94 87 87 122 69 150 219 104 171 98 100 127 206 142 173 146 122 145 139 146 161 111 196 154 174 91 170 130 174 140 130 63 113 146 117 
84 132 106 116 113 168 159 97 111 92 96 112 100 181 79 152 132 104 173 116 148 122 153 87 190 158 51 138 89 94 115 150 178 92 163 135 127 88 109 116 146 94 179 158 67 197 139 127 127 159 113 99 131 161 138 158 169 230 178 193 21 45 102 92 93 185 161 165 105 162 83 98 103 194 162 174 148 83 114 157 157 98 168 183 200 133 173 131 49 72 75 144 151 222 187 90 117 58 108 89 
91 167 80 110 180 91 190 101 74 122 106 181 47 122 65 126 130 146 90 201 54 104 180 167 106 66 114 43 134 149 178 55 189 127 146 167 48 116 139 133 139 73 84 176 117 152 116 43 202 168 105 62 106 38 174 174 186 155 174 183 144 120 146 118 166 94 112 173 100 35 130 125 147 43 172 107 129 111 78 124 128 135 137 89 117 115 137 162 136 147 170 96 76 109 138 231 90 127 146 58 
224 157 145 87 117 163 178 122 140 148 60 121 125 199 81 219 127 177 164 184 174 113 156 122 116 86 154 237 92 139 185 149 112 139 189 73 143 158 149 84 122 82 142 92 120 145 145 101 48 105 99 153 126 177 94 79 163 195 123 18 94 160 51 170 102 111 166 156 162 152 105 105 118 63 206 79 123 80 142 142 113 98 134 152 82 149 164 91 124 125 102 154 119 123 137 216 95 120 165 133 
105 51 75 203 158 226 90 100 66 87 107 93 153 151 110 215 109 125 103 125 142 160 118 180 103 192 182 144 144 133 134 130 142 84 133 184 168 97 114 92 155 122 98 66 144 144 157 30 58 175 126 84 31 119 121 124 132 158 131 167 132 162 141 149 161 33 153 171 114 49 159 192 75 99 159 80 94 106 159 211 92 82 202 134 142 38 140 101 172 107 168 187 159 83 75 59 143 152 78 139 
162 83 98 129 102 58 135 104 121 163 33 20 171 158 220 74 213 98 80 130 138 112 167 83 188 100 110 171 144 183 57 183 130 137 122 70 130 195 81 156 134 73 168 125 42 153 112 143 140 139 177 106 146 123 118 122 94 144 91 140 139 39 132 82 132 130 126 50 76 148 131 68 43 129 53 134 165 67 103 144 134 166 63 206 56 106 142 80 246 92 162 114 68 154 121 116 193 113 152 151 
73 154 238 96 154 154 181 76 140 101 104 176 134 89 112 146 104 93 134 151 49 151 139 100 149 72 80 145 119 198 103 138 51 142 97 94 30 158 213 75 79 110 104 135 164 176 145 165 190 86 175 174 161 57 140 123 125 123 119 112 169 118 100 232 105 99 119 86 97 169 85 64 91 149 103 43 123 127 129 163 169 25 209 123 87 184 107 146 156 212 193 86 87 110 146 88 101 59 129 94 
142 210 149 66 178 206 173 111 135 86 153 139 144 202 52 139 84 142 174 142 130 42 66 73 143 172 108 113 162 161 99 44 55 125 187 140 187 74 126 69 175 120 166 177 159 164 193 116 92 106 125 89 127 111 134 194 83 206 174 136 101 186 136 139 165 132 36 161 77 183 154 84 100 196 103 95 180 145 117 106 177 67 141 171 192 96 171 203 200 105 90 112 150 78 135 104 108 159 140 131 
124 136 116 201 111 170 132 149 94 146 207 46 93 139 90 120 75 156 133 96 162 190 201 107 114 158 150 146 35 122 151 94 178 146 109 96 163 133 114 106 116 94 57 158 147 142 41 114 171 110 49 118 136 168 147 187 189 131 180 183 99 30 65 96 126 123 33 114 101 65 88 160 165 141 159 140 249 140 125 139 166 152 84 173 61 62 138 132 140 161 36 180 62 227 198 129 144 41 87 143 
164 115 171 65 88 71 118 219 152 210 103 130 163 95 94 151 179 121 142 45 160 114 132 68 95 181 155 149 79 148 145 226 131 113 177 145 54 99 171 154 148 137 202 85 108 202 115 104 133 38 164 109 92 88 162 79 170 222 48 93 206 131 178 89 162 119 152 162 108 163 171 180 172 134 121 104 174 104 125 132 178 88 174 175 145 179 52 154 131 69 91 68 173 110 183 172 153 91 69 62 
137 69 67 71 77 113 187 140 213 79 38 76 198 88 138 197 131 137 121 118 172 81 116 79 194 168 180 95 76 203 145 96 81 164 170 163 151 111 169 150 85 102 158 105 167 102 173 151 26 167 136 58 85 130 81 95 149 122 143 175 120 145 147 161 85 169 84 76 167 130 115 247 86 93 142 93 35 178 191 88 149 119 135 117 77 113 171 133 144 60 101 112 64 105 136 147 171 109 183 34 
133 209 82 101 102 158 94 89 106 99 102 131 216 136 120 93 59 160 106 105 115 129 171 132 68 171 129 123 147 153 104 135 92 66 104 175 165 120 107 145 120 164 155 154 74 107 130 146 111 163 106 135 119 123 68 101 80 91 105 184 227 129 174 112 92 194 57 119 187 145 119 189 85 143 96 73 61 179 154 30 109 140 126 189 157 136 119 134 177 127 172 117 99 91 155 152 184 174 134 138 
84 103 153 140 179 81 154 106 97 166 81 145 174 123 78 106 180 134 212 20 156 104 57 135 120 56 167 118 162 132 140 111 67 62 117 161 144 157 134 105 171 173 185 115 156 75 121 132 185 175 123 34 155 163 115 141 107 121 111 183 178 156 50 89 133 98 51 110 129 110 142 115 157 159 189 187 105 156 151 102 103 186 146 160 108 95 96 141 150 228 156 94 178 157 77 172 54 131 107 164 
91 97 197 69 75 60 207 127 125 140 198 108 164 158 159 184 146 74 98 108 60 177 143 103 112 161 159 115 149 107 104 194 70 98 147 181 119 99 188 188 209 90 198 116 125 94 46 82 47 99 206 43 174 89 185 127 77 200 64 153 180 104 88 159 103 167 53 166 100 164 95 103 111 105 127 147 182 118 93 59 99 134 101 91 186 127 131 54 176 140 69 45 158 144 93 151 41 127 75 73 
45 117 202 149 74 193 73 191 88 198 182 110 98 170 148 66 103 91 123 114 223 169 118 136 142 182 129 62 185 143 182 103 231 191 138 157 170 144 64 146 66 127 92 143 154 224 99 64 114 36 146 147 183 147 109 120 123 137 67 60 224 118 120 61 135 35 98 110 58 143 102 43 229 124 134 146 168 34 139 133 197 148 128 135 165 81 150 158 85 90 203 132 137 74 157 105 119 157 98 202 
91 137 100 121 105 200 138 121 178 120 149 82 161 189 78 132 57 175 110 74 129 103 145 104 92 106 136 123 12 85 122 173 164 32 112 73 76 38 131 130 228 100 160 201 148 120 120 46 128 99 134 193 86 195 89 33 148 95 117 169 155 195 193 122 107 111 128 179 18 114 67 95 113 185 134 120 150 96 197 97 100 136 133 68 159 150 203 106 134 199 111 168 69 60 129 175 168 147 158 158 
158 120 70 152 75 171 94 136 109 135 128 128 71 177 107 31 120 188 140 58 189 105 119 166 217 146 176 54 47 164 149 142 138 126 105 112 236 124 147 70 181 158 62 202 84 112 150 160 165 169 155 35 144 120 131 112 197 106 125 84 121 102 70 98 134 71 110 186 146 83 124 127 181 100 111 26 90 121 94 121 202 122 39 210 137 100 149 106 106 47 70 88 203 123 120 178 109 167 154 202 
102 158 148 205 191 161 108 76 79 219 131 143 38 129 134 88 131 118 83 165 127 101 137 76 204 84 131 85 117 66 96 119 128 92 113 205 49 175 149 67 140 111 149 160 136 144 83 84 74 133 86 180 63 156 89 131 105 82 125 139 84 227 115 102 154 151 27 134 49 104 58 194 41 26 92 120 143 147 180 44 79 114 74 62 182 133 83 219 98 135 128 194 135 166 134 37 124 86 151 113 
204 161 186 206 122 178 174 192 44 143 131 136 28 115 217 98 189 131 149 142 164 83 106 147 193 90 97 202 98 94 59 165 76 127 131 125 99 103 223 123 153 140 115 138 86 217 216 119 133 164 163 187 74 168 174 151 174 91 85 90 160 135 102 165 153 157 86 91 96 66 129 203 123 107 150 33 76 81 78 87 97 123 104 123 131 134 104 153 173 59 241 182 92 35 112 110 133 81 106 148 
90 185 144 79 49 116 114 126 89 209 120 146 167 92 140 97 80 121 98 195 155 185 146 84 74 127 145 65 45 139 114 28 18 123 72 176 109 122 89 74 217 187 88 109 55 95 130 113 228 129 149 91 166 71 85 49 194 235 119 153 105 63 117 68 61 119 141 130 85 196 169 158 118 243 184 154 57 184 78 93 124 83 127 86 52 146 150 206 170 142 99 63 188 159 94 118 107 153 91 69 
98 79 91 186 73 88 95 75 76 198 157 15 160 190 110 125 134 116 214 152 115 167 174 104 183 145 149 151 114 212 95 120 136 56 100 53 124 149 65 157 63 120 143 176 195 155 19 178 186 199 48 117 174 192 69 91 110 212 103 116 207 189 91 114 46 118 150 118 139 111 27 128 117 86 179 115 140 73 180 155 148 202 104 175 93 125 97 100 114 94 108 107 129 141 36 150 207 119 89 88 
133 128 125 221 165 103 126 71 105 136 103 165 127 183 111 148 125 91 152 131 107 195 112 117 98 8 223 118 75 191 98 104 170 93 159 81 74 165 87 49 80 174 175 190 107 120 74 121 144 166 154 158 152 107 137 138 200 86 88 216 192 88 93 149 144 167 176 73 124 142 110 113 113 144 114 69 97 191 137 105 96 226 159 137 161 185 55 152 130 94 50 195 100 145 92 105 131 146 158 49 
116 174 51 130 108 179 154 172 100 153 123 85 108 106 159 178 119 104 159 117 112 111 161 163 145 98 159 114 94 192 141 98 130 88 138 172 150 99 169 145 174 168 174 221 126 82 106 60 98 99 138 168 184 152 152 138 143 192 152 155 131 146 144 79 181 60 109 81 119 139 236 191 8 116 111 58 88 113 92 142 119 44 173 82 165 119 163 124 163 187 154 101 185 95 163 96 118 134 138 153 
130 67 109 134 181 89 66 45 131 126 147 153 146 163 69 52 158 175 171 138 115 68 154 135 41 108 139 178 40 142 139 149 145 116 138 65 134 200 140 168 109 116 114 58 63 52 111 141 125 151 170 170 97 136 118 84 147 119 164 188 176 100 82 168 144 97 136 73 99 91 144 91 85 155 108 168 55 146 35 193 175 93 74 83 97 142 101 28 127 66 193 99 98 76 99 70 106 119 85 27 
167 135 130 100 91 144 167 148 90 120 215 106 70 66 132 185 138 84 182 154 190 65 99 201 76 162 155 147 128 133 93 196 98 99 202 152 127 112 189 82 189 144 134 111 194 88 147 164 142 56 119 170 86 115 182 73 113 175 112 91 61 209 74 122 175 208 115 131 202 115 144 129 174 179 174 116 106 151 118 103 90 126 165 92 175 97 131 159 200 98 131 110 157 163 146 82 115 119 51 177 
119 104 208 138 62 165 163 112 124 214 81 168 93 152 85 31 102 166 150 153 145 206 132 100 141 142 79 178 51 118 196 52 145 135 80 92 119 200 108 67 139 139 135 120 131 152 171 95 83 173 91 146 86 144 94 89 168 152 140 127 190 104 169 155 112 128 51 81 166 110 139 183 104 144 154 182 120 129 113 131 138 156 73 123 192 76 100 98 151 161 154 211 173 128 159 89 101 136 173 153 
150 100 185 77 17 136 183 168 146 140 97 80 91 134 144 92 93 131 164 153 184 161 117 134 159 141 93 154 54 132 159 45 89 181 170 139 107 98 71 79 191 149 53 113 137 108 31 172 62 136 67 147 141 178 81 76 129 117 186 192 119 109 84 106 116 88 147 36 210 108 96 125 117 127 136 112 159 41 92 153 103 133 184 124 193 101 155 208 127 197 139 136 89 123 163 112 130 152 137 187 
98 111 182 108 150 59 124 122 111 119 80 99 170 72 169 132 112 134 197 152 129 59 165 127 133 159 183 179 154 106 90 19 176 159 179 189 128 143 102 126 134 141 129 88 189 186 170 98 148 77 165 122 141 172 202 145 149 69 213 19 155 100 192 118 125 91 151 75 150 144 143 103 28 73 111 210 216 151 55 152 145 138 133 106 114 112 142 90 157 128 143 62 152 102 119 74 76 157 130 101 
159 126 97 90 109 116 132 140 141 114 128 173 136 148 141 177 108 173 114 106 103 176 69 69 172 184 173 116 168 127 122 85 84 191 126 100 115 195 153 165 111 34 141 165 131 166 102 156 78 151 176 78 186 166 138 191 66 19 186 114 132 141 79 113 87 145 38 149 140 103 72 165 38 140 136 128 157 115 110 73 79 85 103 131 209 83 144 83 104 175 153 168 139 147 140 92 72 93 165 149 
51 155 157 120 156 125 184 160 156 109 80 105 28 166 80 125 67 69 108 169 138 71 111 141 108 99 152 92 25 200 84 99 78 122 208 115 106 147 221 82 80 74 169 37 100 201 84 212 155 123 148 157 127 146 141 64 154 109 113 148 161 151 144 154 161 94 186 169 191 106 138 119 116 86 91 82 113 71 96 93 174 183 35 185 44 75 123 183 139 124 134 70 80 113 178 100 132 113 184 108 
145 103 91 193 177 169 126 103 142 182 46 200 167 133 60 180 76 133 197 206 116 199 114 175 160 167 171 104 110 154 43 185 151 145 140 109 147 137 56 151 121 82 144 172 107 69 49 148 87 160 163 180 154 90 125 55 99 104 94 112 156 88 116 110 158 86 120 199 146 117 113 158 213 95 132 195 149 141 93 119 182 181 121 42 144 116 137 130 116 94 84 142 145 114 55 110 148 97 53 181 
173 153 150 101 84 46 182 87 124 170 95 156 146 93 157 68 145 102 140 98 119 92 120 94 117 74 195 158 120 200 60 167 139 47 74 149 148 134 122 92 77 224 219 81 152 107 56 107 123 189 134 191 163 143 161 159 68 68 95 195 140 76 70 179 115 73 230 156 195 113 211 143 211 164 111 124 137 154 155 144 148 98 78 42 58 134 70 137 204 102 160 105 188 211 136 234 130 130 154 120 
143 120 114 108 151 102 105 107 92 24 139 164 108 128 54 120 80 172 85 73 77 199 167 146 140 157 139 79 110 43 163 102 124 106 78 128 124 106 188 175 74 137 87 92 204 141 110 63 140 141 78 124 123 91 148 175 152 178 133 206 162 114 114 206 102 90 132 155 154 111 92 151 148 160 122 98 162 141 104 119 207 168 112 131 200 105 151 109 54 109 40 164 56 118 133 142 187 108 221 165 
103 139 163 153 133 168 131 186 130 128 146 148 119 160 111 92 160 66 130 163 88 109 208 57 151 135 152 99 194 99 85 53 69 180 168 84 108 39 120 164 122 123 188 196 77 49 147 48 99 142 85 167 119 90 64 156 186 90 154 120 91 91 95 189 122 75 88 120 74 45 163 197 121 81 161 165 96 107 142 214 110 199 125 131 171 124 61 81 137 163 182 126 140 167 62 217 120 92 103 116 
124 109 103 43 185 106 173 150 171 154 133 190 206 134 74 159 164 103 172 122 28 122 146 115 122 132 49 100 101 92 176 77 96 138 142 159 106 93 144 120 134 124 93 183 155 101 188 89 67 68 126 102 144 114 154 158 109 130 145 109 85 117 161 127 84 86 76 194 107 184 115 99 186 126 193 72 71 107 132 109 134 172 140 42 184 154 170 119 159 72 169 119 123 112 116 140 64 121 68 146 
184 139 63 126 168 145 50 143 119 93 214 139 160 97 173 117 128 105 151 140 57 165 179 139 105 143 81 96 151 141 162 96 111 118 71 121 120 108 108 86 51 102 128 188 142 141 155 130 154 121 102 172 58 95 98 201 101 167 95 154 55 82 130 186 108 166 182 179 132 87 134 104 94 144 151 146 97 164 75 80 193 94 179 143 159 115 163 94 171 93 169 218 188 56 122 127 156 123 141 111 
81 137 59 93 102 143 98 163 59 88 133 37 187 164 125 159 146 129 124 190 83 100 144 178 68 167 136 125 100 81 185 137 101 126 191 104 169 166 116 45 164 72 113 66 113 171 157 148 128 72 64 52 53 98 247 106 158 33 123 123 128 112 79 163 156 114 91 44 97 197 155 99 117 131 142 101 48 133 100 141 89 118 6 200 161 186 94 188 84 186 146 110 199 91 43 83 146 105 101 113 
143 141 85 187 99 152 91 105 92 78 201 75 69 188 166 69 118 163 122 111 115 108 142 85 142 117 170 146 92 163 78 100 123 76 95 107 121 127 161 150 73 87 81 98 35 143 111 123 171 134 133 175 63 150 154 104 171 115 143 148 154 139 126 141 194 87 133 20 144 117 113 162 117 205 213 98 143 141 128 174 117 126 112 140 189 128 54 183 190 133 133 95 53 236 124 123 127 169 136 169 
111 125 99 77 103 123 124 194 156 205 154 57 61 116 83 64 194 38 167 153 184 91 64 115 116 84 102 102 225 50 209 177 187 109 143 123 58 126 140 89 112 136 61 149 141 87 65 163 98 126 64 103 156 156 62 122 104 66 157 178 37 130 113 110 116 145 171 75 106 92 123 36 183 98 122 175 109 89 68 134 149 115 174 142 46 56 90 177 178 147 85 31 157 142 94 110 197 133 115 164 
185 89 77 110 94 182 119 165 156 104 131 106 25 162 118 93 120 90 151 186 155 52 53 33 179 127 149 165 180 98 32 126 112 72 177 151 90 220 169 67 112 87 138 143 145 120 87 133 103 111 62 167 185 121 100 114 192 57 138 74 53 145 110 152 108 170 161 192 128 122 129 103 74 114 89 107 154 170 150 126 123 124 203 68 157 70 86 95 69 186 122 82 101 128 84 117 52 168 114 93 
106 146 112 51 103 137 113 108 145 136 78 85 81 167 50 143 133 193 66 148 136 184 105 132 171 79 176 79 123 54 83 90 101 158 97 154 99 92 95 147 156 57 101 62 206 40 131 125 133 95 56 98 106 151 142 121 115 104 131 54 172 149 124 182 146 114 105 167 100 131 88 114 80 97 90 82 122 96 113 100 71 128 101 167 152 130 163 129 102 143 110 212 192 193 123 132 127 149 110 171 
175 159 190 199 120 229 130 205 135 150 53 104 200 207 173 69 119 100 66 187 140 149 78 74 177 110 104 192 99 120 131 203 92 62 118 133 86 101 105 80 158 115 100 161 151 170 146 139 150 136 72 143 181 202 127 151 101 76 166 187 152 170 220 96 139 134 152 76 95 181 108 53 33 125 93 180 81 110 92 128 62 74 197 150 216 197 108 40 116 105 125 112 122 61 80 117 104 148 100 200 
93 91 121 95 207 157 37 131 84 112 153 191 93 182 91 98 113 88 117 106 92 169 42 128 181 123 169 181 122 158 143 109 65 91 123 77 123 120 58 101 220 61 106 130 40 175 124 118 42 142 152 193 122 64 225 168 220 96 83 129 188 81 126 120 184 103 127 186 159 104 122 96 165 74 108 143 161 85 135 71 84 132 216 140 109 147 46 203 188 100 103 152 164 112 146 147 47 218 193 88 
151 109 164 91 49 178 107 130 139 126 121 133 145 162 106 120 151 171 102 159 122 143 179 116 136 157 73 216 96 181 130 73 135 174 79 77 131 100 187 194 86 140 161 56 111 54 127 124 136 97 82 106 193 84 124 158 87 165 138 144 90 152 129 68 86 157 195 196 24 186 100 102 74 163 110 166 77 121 89 148 91 161 151 114 98 93 122 71 98 169 130 100 139 91 156 115 94 120 10 123 
113 165 129 162 101 123 179 119 151 208 92 102 104 84 156 71 150 173 146 133 89 115 112 46 116 156 153 151 58 120 38 21 189 175 173 154 91 189 98 170 84 138 105 80 165 134 127 106 155 88 93 190 92 42 163 144 99 107 86 96 153 182 55 168 160 63 68 115 147 94 119 159 180 177 139 149 147 170 160 114 198 103 144 89 92 57 87 103 120 115 120 173 161 128 111 99 105 157 103 69 
96 207 97 82 188 162 184 143 52 34 167 123 160 93 76 85 139 136 190 198 71 131 116 142 68 123 131 161 95 80 120 66 68 56 101 64 152 91 119 146 185 147 61 173 15 143 124 196 153 98 127 42 124 112 168 136 109 211 75 121 215 145 112 53 86 171 108 90 99 177 107 229 125 129 137 126 127 139 131 166 174 180 18 182 102 135 122 226 188 210 75 88 89 115 68 99 167 187 110 169 
158 215 111 112 99 100 103 123 96 173 164 150 96 140 135 150 181 99 128 172 140 127 83 147 181 77 210 65 125 235 146 182 120 139 154 100 124 124 131 132 135 170 115 117 118 124 103 174 148 96 106 63 121 215 95 92 56 66 209 116 159 122 104 165 82 95 206 176 181 97 186 133 97 82 104 187 115 61 29 190 140 37 43 157 163 193 75 70 88 198 67 129 177 93 168 138 129 95 153 123 
134 104 168 140 233 57 135 119 190 73 157 120 136 56 131 97 70 129 88 129 206 155 165 227 95 180 158 181 113 106 148 120 117 183 59 45 70 118 124 95 160 153 132 106 168 75 87 175 176 233 222 157 81 171 241 173 156 97 141 175 81 89 111 92 148 71 133 138 182 139 138 152 76 59 126 35 114 83 182 87 107 142 128 207 110 135 221 162 124 55 113 65 154 109 24 121 158 116 167 175 
130 103 191 82 35 162 135 71 156 81 146 137 104 97 152 124 208 147 150 105 109 156 134 147 150 90 102 144 126 186 79 146 197 91 134 92 117 190 163 90 160 105 114 90 181 126 159 196 114 161 129 67 121 88 158 156 128 141 195 102 91 88 158 129 146 171 189 197 75 36 146 156 118 205 163 169 164 160 97 144 141 159 155 128 92 95 213 114 88 119 133 77 227 172 142 119 117 143 123 129 
149 104 160 71 173 137 107 86 191 119 115 87 103 153 119 187 86 139 74 143 109 102 173 91 156 81 187 116 197 171 110 159 97 146 152 108 167 96 123 139 89 113 112 227 122 97 125 145 147 141 86 126 73 102 167 100 140 151 132 144 175 152 57 130 116 109 104 119 154 127 160 87 207 87 109 126 128 32 167 81 120 124 227 143 153 108 159 123 164 138 195 73 186 137 102 99 87 59 178 152 
171 128 94 161 117 134 104 184 107 182 77 84 158 188 94 86 69 103 94 112 144 90 110 105 114 162 124 161 175 156 148 80 140 196 74 101 34 133 124 102 119 112 106 148 132 121 138 132 184 110 131 86 97 139 110 147 116 195 131 165 124 106 133 110 148 222 64 88 113 141 88 153 148 137 163 106 118 103 164 107 120 171 32 172 173 57 191 146 87 141 152 108 86 105 87 96 61 161 143 101 
115 78 127 105 116 74 146 85 170 183 113 92 18 84 235 86 179 130 71 172 50 105 102 83 235 214 124 156 142 108 158 189 123 213 86 140 113 141 119 104 137 228 52 106 135 43 172 158 123 93 109 56 128 126 142 130 167 172 178 133 135 65 87 169 67 177 110 153 156 71 105 143 132 162 139 97 171 165 197 92 39 106 113 74 192 106 132 133 100 97 55 134 135 136 42 164 141 48 79 141 
76 212 123 148 101 103 200 161 25 138 104 110 109 106 87 188 83 71 81 149 64 109 71 99 135 133 154 39 122 103 126 108 167 170 184 172 128 105 106 65 204 77 167 42 64 134 145 125 100 112 108 65 152 121 157 77 78 169 117 177 138 140 139 77 187 112 138 105 124 125 137 131 146 152 100 126 140 140 149 102 187 189 81 185 114 136 135 200 179 153 68 158 191 135 167 134 96 56 74 124 
183 97 45 188 92 96 128 137 112 73 65 166 101 58 117 135 99 111 155 161 181 94 142 126 193 87 140 79 130 80 75 114 209 198 90 136 182 115 117 119 146 103 93 128 194 79 225 180 99 87 135 106 127 98 211 51 99 115 159 118 83 148 186 174 96 104 117 133 75 155 118 163 97 145 71 89 94 100 99 125 37 142 104 165 182 139 147 53 121 132 94 125 118 221 96 178 112 190 179 114 
145 120 70 158 165 153 115 150 202 172 192 194 155 172 172 93 58 126 112 96 125 158 69 142 138 107 70 126 13 134 131 112 167 112 97 200 106 111 140 151 80 163 150 15 64 102 93 192 108 139 155 76 198 212 103 111 110 142 86 141 155 147 110 92 165 152 90 133 201 119 180 58 136 67 92 114 61 111 175 104 65 143 41 55 197 128 160 48 158 72 169 122 168 153 177 90 108 89 224 35 
181 96 145 182 101 89 105 224 170 96 160 173 128 185 85 206 65 63 178 213 168 144 130 214 224 187 181 167 190 195 100 88 233 23 133 86 140 86 141 168 130 133 121 149 73 50 117 137 68 183 145 99 116 112 129 142 125 104 87 129 183 132 190 88 152 69 98 89 90 142 123 164 113 98 160 116 158 138 132 225 106 112 207 103 167 164 214 144 90 99 137 152 172 180 192 55 195 151 136 209 
150 52 93 105 187 158 121 82 42 126 70 116 88 137 168 84 89 86 138 120 198 197 142 122 120 168 150 152 120 195 172 137 171 97 130 176 93 111 155 117 156 117 123 133 53 98 187 185 31 120 93 67 197 201 169 74 72 135 89 156 73 104 169 174 118 177 92 166 168 195 169 149 138 107 98 92 146 124 177 117 113 147 199 150 142 200 142 175 150 99 129 98 145 67 162 152 49 141 205 162 
122 134 143 84 86 143 147 183 136 21 154 158 170 195 176 143 202 132 58 114 173 139 74 183 213 118 117 174 121 147 161 95 151 180 84 177 167 129 103 116 94 149 98 74 210 91 152 221 154 96 161 85 72 15 116 91 129 163 144 165 76 33 127 113 182 163 114 73 150 158 179 61 139 93 196 185 184 90 152 109 143 198 163 89 61 200 152 155 105 211 95 101 142 73 135 208 136 106 133 160 
158 162 127 106 98 142 187 125 163 178 128 173 95 93 81 138 164 85 140 190 85 105 191 151 129 135 67 70 89 111 178 105 98 176 122 166 147 91 181 128 178 60 109 139 174 165 91 156 113 153 128 163 64 99 120 80 163 137 106 131 156 142 116 160 173 150 76 117 161 232 168 117 124 87 89 165 122 84 33 179 86 90 146 125 118 160 200 96 129 207 156 115 61 71 184 139 187 73 245 109 
132 31 122 140 142 124 122 157 93 64 182 149 173 159 136 188 140 173 73 86 175 123 78 157 113 86 148 110 112 101 150 58 218 190 100 99 78 98 145 92 101 126 57 148 94 92 131 207 135 79 131 98 108 190 161 87 90 99 132 203 204 161 142 95 96 118 134 187 196 83 130 123 101 110 111 78 62 98 122 115 156 124 82 140 215 150 59 232 121 141 111 146 71 92 134 119 159 97 194 132 
178 110 120 56 170 133 107 73 170 146 197 79 116 130 166 109 164 125 134 83 123 136 153 182 118 69 109 65 107 134 136 107 105 141 129 95 120 98 195 103 122 76 111 89 92 93 97 27 159 71 160 129 94 217 171 88 186 127 107 55 147 152 144 96 115 174 167 113 194 206 149 124 113 114 126 131 115 94 158 75 170 142 106 75 85 184 131 132 128 132 87 141 149 158 37 126 211 116 96 126 
195 111 132 122 115 137 122 145 192 170 120 134 203 85 50 108 125 151 96 138 141 94 74 117 198 22 81 178 127 142 191 161 148 143 97 110 115 139 200 139 152 168 182 153 132 73 109 202 76 100 101 143 74 126 135 175 85 157 100 67 152 117 138 173 133 164 144 110 137 213 100 210 94 149 110 103 131 100 49 48 168 180 136 97 153 162 121 184 129 124 130 105 156 135 96 105 15 158 114 187 
240 26 151 35 158 169 76 116 216 82 105 182 183 200 159 110 120 158 47 124 111 184 115 125 126 99 130 195 218 131 37 199 166 109 201 94 141 102 57 202 108 104 136 74 202 105 100 158 108 142 106 229 71 54 146 123 86 113 163 104 128 144 109 116 195 142 93 182 73 85 149 177 171 111 190 107 59 144 148 159 123 105 156 87 107 145 138 88 149 97 20 111 167 128 116 205 140 72 84 126 
106 167 168 95 106 50 57 194 105 207 149 106 176 75 110 69 41 224 131 134 55 37 170 86 164 111 177 97 69 55 216 126 113 74 140 71 150 119 97 181 79 196 100 157 140 134 204 54 125 40 110 99 93 77 195 178 82 62 69 135 138 67 79 111 137 186 89 164 176 12 115 97 201 170 155 102 147 143 163 162 151 217 20 201 194 141 106 189 97 129 132 94 28 75 170 51 67 211 73 66 
51 145 110 77 147 189 184 154 174 91 150 108 207 103 93 166 121 155 166 157 96 99 120 109 139 119 108 99 97 112 95 224 70 163 170 99 105 157 149 181 202 135 130 28 82 120 47 190 166 140 126 176 148 197 132 54 97 30 151 169 137 142 155 45 171 85 172 97 117 166 191 170 187 117 91 186 59 154 139 111 84 29 121 38 198 72 213 133 180 69 96 133 36 116 239 189 126 126 78 215 
113 112 139 161 122 85 137 100 174 108 103 56 188 73 161 137 138 77 154 133 134 129 122 167 55 118 88 163 159 94 91 170 200 107 92 77 98 189 93 151 190 107 114 45 124 153 83 27 165 72 131 166 106 139 114 74 115 108 94 148 146 123 134 100 119 171 86 143 109 106 222 95 177 127 183 127 142 176 163 196 131 94 160 90 158 107 124 118 47 128 125 118 77 109 198 145 175 98 57 108 
