P2
100 100
255
114 121 157 180 179 190 163 154 121 56 114 113 110 106 74 49 188 118 66 168 162 100 130 133 142 79 172 153 114 91 112 127 138 185 97 179 196 53 181 42 82 76 160 129 135 149 89 130 77 118 11 105 221 237 151 182 159 172 143 96 150 173 95 109 129 92 137 110 125 119 180 97 111 76 128 175 64 85 81 189 177 151 218 161 93 121 124 144 115 174 116 188 27 148 171 63 195 168 91 148 
94 101 130 111 98 129 159 190 87 106 153 156 102 72 89 75 191 127 182 88 83 115 118 108 112 160 58 111 106 112 87 184 152 104 131 140 119 175 158 154 144 77 156 102 95 133 156 122 85 199 128 58 119 126 125 148 176 139 159 154 195 177 53 124 152 114 156 136 137 86 197 80 111 149 84 23 150 75 152 137 140 126 142 60 119 110 140 140 182 150 122 154 123 164 169 178 159 68 108 104 
94 96 71 108 113 140 96 84 103 74 122 116 39 101 41 42 77 166 80 32 110 125 151 128 185 78 208 169 190 200 105 102 58 80 23 225 119 111 156 146 136 171 117 127 188 218 107 111 122 176 84 175 136 116 87 77 64 142 145 107 144 58 73 181 150 154 213 120 117 85 109 123 131 64 164 185 116 89 23 111 92 22 175 149 112 154 104 197 96 139 130 220 207 171 112 105 140 83 95 72 
109 214 119 81 70 141 130 161 188 67 76 159 127 82 176 57 145 119 73 134 107 132 100 99 98 152 94 68 124 192 155 107 121 44 122 102 80 90 133 67 138 166 151 156 40 202 221 109 164 124 48 198 209 172 158 163 94 129 172 107 132 109 224 89 154 188 128 142 238 137 143 156 127 69 65 140 120 215 80 80 130 174 144 169 75 90 71 83 159 94 172 161 164 174 87 88 136 146 162 177 
126 82 124 48 109 103 101 163 58 72 93 198 127 169 95 182 135 214 165 87 136 138 93 60 113 186 110 93 132 180 137 149 48 121 195 100 51 113 203 108 98 138 101 121 32 126 150 135 153 76 157 196 132 123 186 161 173 87 152 179 100 96 159 100 98 136 50 194 187 133 134 146 148 65 182 135 99 47 192 178 140 119 71 93 158 163 91 111 160 91 132 127 147 108 105 172 150 45 56 164 
127 152 149 101 107 161 137 154 116 149 149 233 73 151 205 63 173 116 202 56 132 140 57 150 154 102 137 213 162 175 109 101 160 61 65 86 165 100 155 141 129 164 95 204 128 42 167 71 147 79 131 46 86 111 172 102 195 76 166 99 131 100 102 129 171 85 175 105 135 161 167 128 207 48 162 78 127 176 230 143 144 132 152 97 112 155 98 170 88 85 133 55 146 181 111 117 81 97 101 192 
168 113 103 132 179 108 139 103 150 115 126 117 98 216 138 68 169 91 140 112 131 132 103 136 47 73 152 60 124 82 154 119 71 148 109 130 84 149 143 95 161 144 121 121 157 124 111 174 136 139 154 133 99 155 62 168 42 171 182 115 138 155 147 141 117 114 72 139 130 29 143 48 77 197 130 76 155 93 101 98 93 49 26 38 77 135 127 112 172 44 115 97 120 197 49 181 97 95 69 166 
117 128 50 86 148 186 85 141 166 130 103 95 149 100 122 46 143 105 149 137 111 124 91 97 199 83 175 158 177 125 192 108 113 40 109 190 47 117 182 107 165 198 210 101 94 117 96 145 75 153 87 187 92 43 136 144 173 72 101 117 111 72 67 82 82 131 118 157 129 148 228 98 133 84 126 89 61 154 235 101 146 226 167 103 162 143 66 142 191 179 158 167 171 174 104 82 93 115 76 185 
58 119 141 150 168 82 151 125 225 186 117 93 137 149 78 123 161 101 188 129 131 107 117 173 150 154 94 87 62 145 118 122 105 138 166 128 188 132 130 78 83 146 47 63 36 144 39 130 209 26 160 134 194 110 126 180 116 135 121 119 186 155 81 223 58 72 133 198 132 90 125 121 163 98 96 141 88 95 177 93 73 98 142 182 105 69 84 182 136 102 103 87 122 216 166 125 62 91 135 174 
172 90 133 146 89 85 142 190 48 112 63 219 157 116 84 160 168 114 94 93 119 128 85 162 174 68 178 149 117 137 178 162 93 148 46 122 135 169 143 22 205 125 120 69 164 186 198 90 126 71 92 121 65 129 130 128 184 124 199 153 199 152 143 83 56 122 117 179 93 191 37 84 168 214 157 159 37 116 147 91 38 150 101 92 69 41 214 48 114 182 113 120 59 116 98 101 180 138 106 103 
66 52 107 119 50 130 131 147 46 115 116 87 79 107 163 136 169 101 61 95 146 113 66 72 134 170 134 139 117 115 140 87 69 134 200 157 103 225 117 58 94 123 92 137 86 144 73 104 118 99 122 106 185 165 136 97 164 43 155 140 213 156 68 176 195 99 105 77 147 58 164 122 169 89 151 161 61 139 177 170 47 136 98 138 167 125 116 157 184 154 40 103 89 135 76 71 175 175 59 142 
121 98 91 96 104 147 167 134 110 169 189 169 181 94 164 112 131 28 156 113 102 183 162 68 145 81 154 204 140 135 95 193 109 123 116 65 77 178 89 205 116 156 136 93 135 45 90 117 96 161 79 98 164 178 175 187 125 140 90 169 153 159 112 190 170 75 170 131 89 156 187 73 122 145 85 130 134 157 100 181 188 110 113 144 91 110 163 85 218 134 162 157 119 109 207 171 128 181 177 80 
158 103 185 113 192 125 169 138 107 71 138 162 128 190 139 115 143 67 146 234 163 137 61 120 61 100 99 91 106 137 118 91 51 218 61 227 63 53 76 73 102 39 182 72 149 147 157 98 96 128 229 100 118 212 54 56 176 116 178 203 233 62 110 150 108 136 119 118 176 63 137 212 87 62 152 96 207 87 112 183 43 127 20 131 67 200 139 166 152 189 97 152 138 110 151 115 92 130 147 139 
101 158 96 190 167 65 75 71 104 112 188 165 191 161 30 72 178 135 97 75 169 65 44 125 110 101 183 183 144 87 120 148 182 154 116 117 75 90 35 73 32 97 119 127 89 110 66 123 67 152 138 124 170 73 170 166 113 227 160 112 115 170 177 151 173 192 52 108 94 101 108 79 142 157 69 204 183 111 111 130 113 74 79 83 181 59 97 130 128 106 123 127 167 122 212 102 141 93 202 133 
151 184 160 133 106 156 90 136 97 143 91 154 136 94 106 158 176 82 158 115 180 213 110 188 105 105 164 46 138 191 162 134 147 133 63 98 114 188 135 113 123 135 138 69 175 79 111 156 127 112 191 190 114 171 225 94 92 71 111 134 131 125 217 181 138 108 194 95 171 114 146 130 176 94 112 143 65 95 113 106 141 164 81 105 107 148 144 106 93 185 152 95 167 172 90 167 128 108 147 163 
220 145 191 144 147 127 77 73 142 90 84 197 155 81 106 146 105 137 121 66 155 127 154 172 219 163 85 198 94 61 124 86 94 170 142 172 91 14 132 157 62 111 126 174 90 47 115 149 113 153 159 104 70 90 151 131 196 65 72 128 111 127 166 93 166 155 84 73 117 170 161 110 129 113 153 156 144 110 109 82 21 157 170 120 173 108 180 67 135 128 194 126 158 127 160 108 112 127 33 134 
163 125 96 152 148 140 158 120 136 145 144 109 146 214 199 87 183 166 168 216 138 140 127 121 107 129 181 110 78 161 142 108 121 123 152 128 141 146 120 148 177 169 158 139 145 111 108 140 64 83 64 84 117 44 191 131 181 74 147 135 47 167 55 80 107 86 210 102 116 181 117 58 156 157 158 151 155 94 88 60 184 77 117 140 162 104 135 76 119 150 128 135 169 104 159 50 171 134 201 187 
111 80 138 101 180 110 149 147 128 128 179 187 95 128 208 158 56 107 71 96 74 145 142 177 109 116 92 76 99 159 88 97 202 143 119 150 122 111 106 93 120 117 95 101 102 141 118 98 182 178 182 114 178 80 166 141 173 161 200 196 74 83 46 77 75 90 201 118 120 136 114 94 149 81 102 84 64 204 71 163 95 97 128 103 84 192 130 97 75 74 59 75 161 92 69 123 81 112 163 71 
134 217 127 143 53 105 186 150 71 82 147 128 197 17 120 69 108 130 146 136 188 174 142 107 161 175 140 132 145 105 69 99 147 83 128 123 152 146 198 119 104 148 144 75 175 139 139 116 80 159 48 183 201 187 184 169 102 182 156 132 202 63 96 139 117 104 178 77 182 115 82 65 96 164 119 181 142 159 76 124 151 98 117 83 160 199 139 161 189 82 87 149 124 85 217 76 113 136 113 73 
137 113 56 193 148 133 148 78 121 155 33 63 142 86 38 124 186 113 128 160 188 123 48 83 52 174 131 113 135 82 159 108 85 164 129 141 85 156 123 165 103 102 134 166 139 150 78 95 201 36 199 100 186 139 150 66 78 118 105 80 118 218 177 55 168 122 132 152 198 132 114 71 78 223 46 206 116 127 72 120 66 124 89 88 160 147 70 102 89 115 112 95 101 76 171 111 156 163 138 93 
96 117 143 241 137 129 104 152 95 123 116 148 122 110 131 116 117 134 118 148 95 168 91 144 128 85 121 130 156 110 84 208 68 121 142 81 76 140 147 163 166 149 121 124 96 121 220 102 46 137 77 124 114 62 195 154 168 156 140 123 138 123 137 107 126 134 134 90 79 89 120 93 157 102 148 97 90 88 108 134 112 203 150 133 163 67 30 102 150 132 78 168 141 136 137 87 43 158 122 140 
122 84 110 128 192 101 129 209 101 127 104 131 155 122 82 114 101 126 81 79 104 223 64 111 129 162 74 180 108 103 155 80 145 117 137 76 142 154 102 159 97 102 170 126 130 116 171 109 115 154 91 183 224 175 113 229 103 102 85 48 192 207 53 156 124 115 93 128 188 190 206 197 199 58 50 28 219 199 84 161 113 139 92 142 47 161 178 136 122 79 49 99 135 183 134 88 137 81 167 64 
118 152 116 102 165 108 90 70 81 141 91 104 148 176 90 144 102 143 104 158 158 177 66 84 101 122 151 210 126 94 176 63 167 101 149 54 189 133 93 96 106 53 65 58 137 127 136 201 86 152 50 114 140 123 148 169 122 132 150 114 84 177 109 170 182 69 166 181 144 86 105 76 53 163 183 99 155 198 110 161 110 192 203 126 104 56 128 81 141 94 202 91 148 94 103 147 137 170 190 153 
117 118 118 144 166 69 146 139 90 189 99 165 146 99 171 108 173 109 127 94 90 131 154 45 178 64 90 200 205 158 81 131 110 161 54 122 136 186 89 78 121 76 121 101 139 81 104 158 103 135 114 149 191 178 138 202 187 97 192 182 93 143 103 110 96 89 79 147 133 169 153 163 168 107 35 158 109 71 138 84 157 98 117 117 93 130 55 110 143 88 89 130 44 131 156 41 66 134 146 108 
169 117 130 130 92 93 172 149 175 132 164 131 86 169 182 31 68 132 96 126 113 43 144 119 128 100 24 193 148 139 138 63 134 69 88 165 55 159 205 85 119 141 117 121 127 118 97 153 105 160 225 153 52 155 115 141 124 114 104 105 196 153 131 190 86 144 133 142 125 94 111 75 85 121 192 164 98 132 109 148 80 160 130 62 163 141 123 40 160 158 123 114 131 122 120 116 90 77 65 129 
184 184 165 98 77 107 167 101 128 132 124 127 145 123 134 151 78 106 154 142 163 117 118 44 107 201 115 153 180 124 132 135 160 140 128 106 205 199 77 168 155 102 7 119 125 151 139 174 98 84 67 146 121 115 94 21 113 146 124 120 134 150 145 77 132 187 96 97 115 105 89 96 147 173 168 180 69 124 171 126 122 152 145 78 108 221 139 133 171 87 134 122 123 145 134 110 170 172 150 183 
149 124 133 34 106 110 42 185 164 58 99 167 56 129 83 159 143 89 154 94 60 116 170 145 191 150 165 198 105 123 91 92 114 122 171 55 122 119 79 186 43 204 182 155 118 161 185 112 193 138 179 72 142 197 147 170 136 145 118 88 136 152 28 122 177 103 57 174 98 97 126 183 103 154 193 137 173 67 152 161 88 156 85 158 162 116 54 87 180 161 233 166 168 152 126 139 226 68 222 218 
138 142 89 121 121 166 170 100 145 56 129 99 177 165 21 58 60 179 104 57 140 86 128 117 145 105 52 119 157 227 171 158 132 115 67 153 60 162 164 88 137 153 139 132 137 133 151 97 159 176 51 89 108 99 126 137 108 126 168 99 125 178 85 184 124 160 166 120 132 104 140 134 117 162 135 237 179 58 165 151 125 66 156 116 139 144 103 119 173 178 99 95 104 119 90 167 100 73 89 158 
78 168 203 133 199 103 236 139 103 125 146 155 57 133 149 160 107 108 104 151 125 124 191 36 117 132 159 120 231 72 150 67 86 52 77 164 131 86 169 63 81 134 114 123 114 114 92 144 87 92 145 146 172 110 164 129 101 140 189 160 109 136 207 118 168 173 95 58 187 176 86 202 188 34 189 167 162 102 102 138 225 121 180 168 144 87 71 135 164 103 135 118 101 117 106 149 41 61 202 201 
109 126 179 95 157 103 77 98 86 127 90 90 90 115 168 82 124 102 92 86 164 158 172 128 67 136 231 78 198 135 113 61 123 107 139 155 171 168 120 128 176 135 192 165 165 132 91 55 163 115 116 81 91 53 190 142 139 142 132 91 120 167 80 160 87 172 132 136 162 146 202 51 103 106 131 128 177 184 161 100 149 163 113 128 172 105 128 93 171 122 96 114 187 212 41 127 25 86 201 131 
124 58 69 148 76 94 122 133 87 122 172 130 179 211 155 114 145 152 97 132 103 136 86 153 95 92 153 94 98 94 120 84 131 146 229 240 114 66 109 164 136 100 177 86 27 153 142 132 152 56 171 82 90 118 88 154 155 141 132 101 70 102 92 219 163 183 186 183 59 181 180 182 185 127 106 101 83 94 153 108 82 27 174 146 124 136 189 182 126 175 67 109 143 162 99 205 101 166 148 214 
167 90 95 168 98 88 168 85 106 163 137 87 143 166 217 154 84 134 168 134 105 197 100 138 136 136 223 189 151 76 119 148 101 200 154 139 111 126 136 83 133 198 102 101 57 73 78 161 91 117 88 176 114 86 177 126 170 137 195 126 88 208 58 93 127 132 129 68 155 114 75 86 130 85 195 119 114 165 120 82 147 107 123 73 36 140 100 59 182 146 132 144 183 144 166 151 177 104 126 113 
92 143 156 63 214 107 121 111 128 134 68 174 42 125 186 156 83 44 101 101 84 144 169 71 113 52 42 85 173 172 75 126 143 135 107 30 175 126 94 116 50 106 153 122 171 101 147 84 87 189 101 189 173 163 141 175 124 139 113 75 130 137 154 183 108 30 65 139 85 76 56 125 25 206 94 156 147 61 120 97 127 115 60 164 168 146 105 152 161 85 136 130 116 113 67 152 146 119 117 119 
101 109 175 65 111 220 124 129 205 199 87 147 157 81 213 42 88 201 145 61 146 53 134 154 154 222 142 141 47 134 206 131 211 134 125 100 57 93 107 71 214 94 197 108 144 71 166 106 158 165 200 229 79 157 142 112 148 137 151 137 59 92 185 72 129 89 200 98 91 73 160 168 67 141 160 75 118 126 223 132 106 97 81 113 154 136 136 95 128 98 172 174 218 172 129 133 108 168 97 143 
114 30 172 129 170 152 127 134 134 218 137 168 126 38 176 47 129 92 121 101 98 142 184 147 199 193 114 125 171 139 59 97 109 162 164 146 134 181 111 187 128 130 68 104 197 177 117 135 171 116 63 225 209 116 141 124 106 130 107 113 130 50 89 105 184 194 133 206 98 147 134 138 145 161 100 94 152 125 81 121 210 71 199 67 169 134 164 61 93 151 93 185 230 148 106 51 188 161 40 159 
123 123 100 74 76 155 115 88 175 68 100 60 186 146 209 136 175 169 162 108 134 165 154 82 156 153 129 142 63 171 171 89 142 81 64 131 146 218 155 168 164 63 168 61 126 61 176 125 121 108 38 165 93 81 159 108 105 92 36 74 135 74 104 109 122 206 139 150 153 177 149 125 149 125 194 149 158 158 130 102 206 91 93 94 129 149 125 134 130 160 103 50 136 58 145 121 83 172 195 110 
199 118 48 129 142 123 204 118 126 137 101 126 114 119 131 155 133 132 147 104 103 122 99 98 165 145 212 111 124 145 124 102 177 159 134 149 119 108 83 148 84 152 117 168 211 197 98 117 54 85 157 113 100 74 166 153 135 120 131 160 165 230 29 104 121 122 146 73 65 155 55 150 214 170 134 30 91 81 160 82 72 91 62 110 79 133 28 120 115 96 160 150 136 158 103 184 91 168 116 122 
127 187 142 138 129 84 104 108 138 133 82 159 77 205 124 97 161 105 67 43 88 117 160 154 61 197 109 193 129 200 94 116 162 89 155 196 173 131 104 113 143 51 150 81 203 142 30 185 83 55 30 115 114 115 44 153 186 146 109 61 161 166 180 66 50 134 148 98 64 148 67 131 152 117 63 130 189 190 139 118 170 157 117 66 97 220 118 154 97 161 162 97 123 127 95 150 86 182 185 126 
140 88 111 110 89 103 155 135 70 74 101 145 147 112 121 91 132 177 101 54 178 109 59 179 119 156 221 81 189 130 98 117 90 218 200 69 100 108 153 124 181 111 87 216 158 159 214 115 72 48 97 137 72 56 39 134 105 157 132 138 150 141 90 105 167 175 142 49 96 118 129 194 63 176 223 157 81 188 188 80 82 54 116 120 188 195 106 136 148 131 123 76 165 130 46 74 153 136 120 97 
182 141 158 103 106 165 211 155 203 164 50 112 95 115 66 179 160 108 71 146 73 95 186 140 67 84 91 143 223 70 135 128 167 125 134 165 142 150 103 66 38 159 152 96 147 147 68 130 116 91 206 124 144 130 176 157 107 169 40 130 109 94 92 138 115 229 88 90 108 186 134 43 132 107 115 134 176 132 92 119 154 113 172 118 143 122 165 97 91 154 165 90 131 42 79 94 148 158 125 101 
95 127 114 122 197 169 67 65 132 180 132 116 114 101 59 216 121 125 76 39 97 128 150 154 60 98 103 121 101 130 184 141 162 124 181 76 115 112 135 119 145 178 151 121 147 122 94 195 154 122 209 176 192 153 83 73 108 171 102 172 140 42 87 123 107 219 43 133 101 132 28 109 171 140 128 158 77 200 58 97 120 69 85 65 114 147 151 137 180 147 126 68 116 130 80 161 203 170 187 128 
78 127 201 151 120 142 43 160 110 81 148 163 219 147 131 118 154 98 175 173 109 148 206 91 130 144 110 117 200 132 41 178 158 182 179 164 155 182 66 87 151 128 141 107 190 130 163 117 112 26 203 138 111 155 126 153 75 103 130 151 107 166 144 168 96 80 150 138 117 86 180 106 214 120 143 102 126 124 233 89 103 100 141 119 148 162 162 148 143 193 168 71 116 42 198 150 62 102 203 155 
141 152 122 163 155 207 131 75 139 133 76 49 112 88 100 149 185 121 64 137 75 127 162 190 166 102 167 124 130 136 131 108 125 128 143 21 186 78 85 122 102 148 136 68 190 70 117 103 150 146 72 158 85 166 163 156 136 103 28 211 98 60 121 206 148 65 70 135 138 151 137 177 201 106 114 181 142 170 134 134 198 130 138 114 74 125 65 98 140 111 115 117 33 42 140 89 196 141 119 126 
185 207 141 182 99 75 156 83 65 219 113 150 103 83 62 126 73 96 133 120 100 135 181 134 71 67 95 171 108 159 70 106 222 163 122 204 119 219 179 126 69 139 126 145 102 138 205 116 127 104 111 122 94 140 105 138 112 158 56 108 189 89 124 197 137 79 109 87 111 125 148 105 82 109 124 115 166 181 135 106 172 163 52 130 156 182 104 114 125 147 107 144 164 113 200 138 66 80 127 109 
119 146 102 119 194 71 128 133 138 47 91 101 107 205 132 189 140 192 136 146 131 116 43 163 131 194 107 234 189 159 85 123 121 41 78 143 158 209 173 168 129 168 109 211 158 123 194 127 167 152 150 139 126 148 97 127 26 125 74 125 77 104 141 109 184 96 180 149 77 122 147 133 144 182 202 149 66 113 57 111 66 118 80 196 102 82 171 215 91 103 65 195 158 118 159 136 148 120 158 148 
82 167 100 189 164 156 109 79 106 72 119 31 74 149 143 146 154 61 182 107 119 100 149 81 153 166 197 93 78 116 64 173 145 110 163 204 139 125 104 177 84 158 122 70 114 208 125 84 171 177 160 93 120 115 117 160 100 65 69 132 127 95 172 146 114 153 88 93 145 32 177 126 131 129 137 87 84 138 105 112 160 145 148 125 132 145 86 157 108 198 41 126 115 57 139 239 158 112 148 212 
33 136 172 193 137 62 82 130 58 191 147 103 150 72 134 121 93 208 32 142 79 130 82 146 144 81 144 131 69 207 158 76 158 118 149 80 102 160 87 146 183 60 167 94 163 136 163 58 116 163 109 137 162 127 167 167 106 70 177 59 62 45 84 125 64 150 131 181 118 54 176 174 187 169 33 100 151 106 114 165 119 121 116 159 79 138 83 202 148 161 208 52 80 93 114 140 86 163 210 105 
129 79 72 103 133 94 108 117 203 97 170 135 136 94 80 104 174 96 126 72 158 94 144 97 200 87 185 69 108 143 146 130 49 99 173 142 166 85 145 32 99 144 195 110 103 74 47 72 35 125 144 141 95 82 164 73 152 69 117 130 114 102 187 55 184 96 143 113 105 188 162 141 134 141 51 131 145 157 173 176 192 123 127 199 85 151 188 172 49 137 42 165 209 131 93 52 182 92 205 104 
170 79 103 104 78 83 201 88 159 172 138 195 163 71 137 123 125 104 82 113 131 124 104 202 71 136 94 127 114 102 75 107 138 136 133 118 142 200 171 99 151 172 177 47 170 171 128 46 73 60 184 104 142 113 149 110 160 92 110 182 108 92 72 157 143 70 48 102 46 144 181 144 163 36 103 44 93 118 136 131 125 137 138 15 136 152 151 165 77 167 126 110 67 70 65 144 183 177 116 109 
150 125 163 111 124 115 167 110 168 92 128 82 151 111 136 146 196 146 131 76 91 162 104 189 107 78 151 87 107 100 168 162 26 100 119 136 81 186 153 127 141 97 110 46 114 114 88 147 147 171 98 166 162 83 116 195 120 208 159 137 95 125 153 110 122 176 116 171 170 134 160 165 100 93 95 48 56 30 81 132 113 139 107 141 144 137 86 200 42 67 130 127 139 80 187 113 109 125 133 42 
218 90 22 189 113 177 77 65 156 99 133 160 135 63 183 103 137 57 200 176 72 184 155 108 52 121 131 113 75 166 142 94 144 169 177 184 136 99 124 77 168 195 158 184 106 107 81 115 154 124 96 133 160 139 146 147 115 146 136 125 174 179 131 163 130 148 92 134 177 155 146 204 108 141 159 153 214 156 150 78 219 59 167 102 166 53 129 109 189 102 112 103 141 126 162 95 123 171 158 123 
207 138 98 148 115 163 211 128 99 88 118 108 137 134 114 109 148 92 119 140 97 213 214 102 228 15 134 163 60 99 62 147 108 121 123 85 185 72 153 134 124 168 87 153 102 120 22 85 148 141 174 108 60 43 50 86 50 125 98 106 125 105 155 181 193 83 157 94 105 124 157 184 132 116 213 76 91 146 164 70 65 96 195 143 117 144 148 111 88 128 154 160 153 126 160 106 124 73 128 124 
106 114 90 184 111 146 72 116 197 70 93 61 51 54 187 110 158 43 153 73 140 120 195 98 184 67 117 58 153 143 74 150 152 177 90 200 181 65 175 186 4 116 179 132 114 157 90 119 162 157 146 75 126 186 135 143 104 174 58 94 162 147 143 217 118 132 143 104 159 36 89 162 75 122 88 109 129 182 104 135 90 80 211 127 198 145 157 94 165 167 108 163 108 203 177 66 157 152 210 85 
167 101 121 102 130 106 70 92 139 112 108 98 144 171 220 159 157 197 174 54 165 147 126 114 84 78 117 94 113 164 143 160 160 76 172 134 141 156 64 167 128 150 97 87 157 131 116 184 167 144 109 128 79 132 103 110 190 115 100 83 91 147 117 135 171 55 71 183 132 98 126 115 123 163 111 137 114 69 132 178 144 45 116 73 116 159 185 202 208 84 200 122 146 76 160 92 149 127 133 140 
211 95 108 150 145 87 163 166 193 152 131 103 148 78 177 156 135 117 84 78 137 61 123 162 189 84 119 158 166 139 80 64 136 104 218 215 174 139 147 175 73 108 176 125 196 164 93 127 59 71 124 108 88 105 124 104 82 61 161 132 137 62 109 229 149 97 158 78 109 101 44 145 131 144 74 28 163 105 177 141 139 122 168 65 153 235 149 28 141 76 47 111 171 116 130 24 187 110 30 110 
147 85 89 176 161 116 104 96 107 161 158 219 82 119 84 187 86 93 203 106 98 102 85 137 102 121 123 92 107 164 128 92 133 144 127 169 126 89 152 83 127 114 153 28 167 148 141 69 221 17 127 49 146 230 127 138 72 130 172 108 74 161 151 123 119 175 130 217 107 139 134 220 70 119 123 183 155 116 94 147 189 179 127 117 45 181 167 189 157 107 31 82 122 154 147 144 102 97 182 134 
153 168 112 174 175 145 131 184 198 63 152 134 177 153 145 112 210 95 143 202 50 116 197 122 75 137 164 157 58 81 190 111 104 143 104 151 87 150 133 159 51 93 121 152 135 101 175 131 119 196 78 177 38 115 98 183 156 157 160 97 132 167 108 173 106 110 114 97 159 164 170 141 129 195 126 160 109 105 54 129 110 195 118 67 84 138 148 100 36 113 120 121 220 195 119 222 81 122 187 187 
51 208 59 131 132 160 203 110 191 176 94 137 185 91 83 157 202 141 132 85 166 84 142 205 124 100 115 164 111 143 176 90 144 161 106 129 117 114 118 181 104 60 186 149 131 64 93 116 91 132 108 118 75 207 134 119 99 184 140 175 107 194 94 93 152 76 173 208 128 161 119 70 131 125 106 131 148 139 160 140 214 239 127 140 160 133 122 198 129 155 219 103 182 200 93 122 80 91 148 150 
91 87 108 158 140 108 135 109 149 115 151 95 85 85 62 153 217 125 121 199 172 162 135 124 92 62 162 179 149 191 129 103 150 85 65 88 59 163 143 107 72 92 125 120 170 73 206 153 193 17 113 91 94 98 44 171 138 179 174 184 188 187 71 102 142 148 80 46 148 137 59 146 121 184 117 150 203 144 196 114 143 183 85 201 80 100 106 201 125 158 204 112 170 23 110 105 68 133 118 159 
206 75 122 134 117 129 74 51 136 192 69 151 151 115 109 175 56 70 206 120 101 197 150 45 158 124 108 134 100 213 213 152 55 158 83 68 122 110 142 48 66 148 90 166 194 79 151 182 158 80 111 129 110 103 107 148 100 175 135 50 134 118 79 91 88 69 41 177 151 145 113 166 46 93 72 88 104 67 187 59 170 215 114 118 119 121 213 59 119 206 97 85 171 108 170 155 152 90 85 139 
100 90 104 118 184 175 143 131 78 59 197 174 218 121 69 116 134 140 182 122 138 53 95 171 175 133 46 121 145 175 115 174 115 168 179 80 28 139 107 204 203 162 81 64 170 214 130 169 111 90 124 161 117 158 158 240 82 162 41 124 69 221 157 117 200 104 220 124 143 173 138 156 155 97 134 148 216 163 148 129 119 175 161 131 106 64 146 43 47 101 127 186 40 188 138 131 168 118 166 163 
130 126 138 114 120 163 153 83 131 114 154 98 165 117 126 97 195 97 172 150 145 156 150 72 140 114 175 230 218 138 162 163 90 155 189 101 206 169 138 183 148 174 185 155 165 158 111 187 145 200 59 133 129 194 224 127 165 104 122 152 191 107 150 192 157 179 108 156 140 83 127 228 116 188 159 192 77 161 127 96 135 173 151 148 80 201 135 66 19 88 199 98 227 105 128 160 116 95 66 139 
155 215 223 138 93 133 160 86 62 138 209 96 91 150 128 137 129 208 81 129 100 178 61 203 32 56 90 129 83 171 82 125 118 130 123 131 70 90 107 111 236 222 99 108 159 145 139 105 52 83 132 64 125 178 66 81 165 145 167 118 201 29 87 47 162 22 85 88 177 99 126 86 120 114 119 91 206 99 115 118 64 128 118 88 125 108 191 160 115 156 95 133 71 238 149 104 124 153 152 152 
167 119 164 77 44 127 161 143 128 108 169 143 205 88 54 81 90 116 60 152 89 135 120 224 114 130 139 185 137 175 150 147 131 116 69 157 36 94 114 173 143 125 182 87 119 103 127 161 152 46 99 102 160 110 100 139 148 205 166 179 204 153 156 152 140 123 90 159 169 122 116 126 131 178 80 108 78 101 68 156 228 181 100 95 155 198 136 185 185 141 75 181 153 108 151 60 166 134 117 77 
127 136 154 92 126 156 186 131 76 109 112 177 131 30 124 163 191 198 87 72 119 184 206 60 136 186 84 93 65 175 135 92 156 130 95 241 100 155 151 113 156 210 102 99 173 48 128 175 110 64 188 213 149 151 82 167 161 117 106 88 140 181 162 158 179 181 62 163 59 129 200 140 104 80 92 132 117 101 87 166 112 149 182 102 116 140 202 126 164 127 51 197 207 124 180 45 118 179 83 111 
145 120 134 52 162 112 156 96 204 28 50 120 144 160 112 141 84 154 175 128 165 138 204 133 19 152 149 139 95 90 70 104 113 112 107 81 78 156 146 121 122 149 73 95 77 124 155 184 203 122 143 169 54 110 100 92 131 129 160 96 87 133 152 122 157 112 57 81 133 168 111 171 188 178 98 176 135 3 128 145 90 178 145 59 141 166 118 53 125 103 79 133 139 127 101 143 204 87 162 136 
105 197 80 101 159 69 212 177 159 66 160 76 132 84 110 48 101 22 76 150 155 120 109 117 150 34 89 121 121 60 123 149 161 145 98 60 88 189 88 121 90 131 102 129 172 137 159 76 190 193 122 115 166 209 67 149 121 171 108 137 161 97 137 170 92 115 140 152 166 118 154 193 110 147 134 117 90 137 72 215 158 103 163 149 90 10 145 92 178 119 143 61 88 148 96 153 205 72 69 108 
64 157 67 113 103 101 160 39 150 180 125 96 68 71 55 138 148 116 124 135 72 87 78 100 114 126 140 200 119 121 67 78 84 213 162 69 136 120 83 158 50 99 165 93 72 91 160 132 142 129 147 193 152 200 129 138 157 82 69 194 150 158 108 111 64 165 106 93 108 101 134 206 150 81 74 97 173 144 43 138 151 141 121 72 124 136 112 92 155 89 169 208 75 95 31 174 102 87 153 92 
84 170 127 154 167 94 102 93 141 138 135 124 147 148 126 75 204 169 23 145 57 181 84 179 135 112 151 92 56 174 116 142 123 106 125 91 157 99 75 132 121 128 114 68 136 125 222 82 206 86 104 145 169 99 91 98 146 81 118 55 160 162 201 144 151 111 191 94 187 98 62 187 112 167 71 127 148 133 162 144 55 132 123 59 116 191 100 177 64 119 213 92 130 81 127 88 107 106 174 190 
153 149 193 210 152 102 122 76 96 100 109 194 73 113 65 114 154 129 169 101 151 88 75 171 133 101 131 74 107 73 160 100 123 107 178 148 137 149 119 82 130 178 92 160 153 123 130 129 67 148 175 127 67 96 129 146 141 170 113 84 96 138 154 230 140 157 113 108 203 84 142 155 97 167 140 99 114 111 146 120 55 165 186 59 105 123 133 81 144 154 163 139 157 171 135 32 65 197 49 131 
66 80 66 123 152 170 109 65 150 164 129 170 73 133 74 144 106 136 118 109 154 87 93 208 76 91 72 107 171 104 111 71 162 165 110 147 166 116 69 155 95 141 176 166 149 158 163 90 69 102 80 131 109 110 105 69 173 122 74 103 130 23 170 47 79 161 127 143 108 80 116 110 117 118 105 105 69 143 143 151 37 144 131 85 127 124 148 143 153 195 89 173 126 128 189 81 32 166 44 110 
152 118 104 93 156 93 123 113 47 196 103 103 77 126 78 215 110 115 137 150 120 96 108 157 174 125 210 168 149 173 217 160 196 117 86 130 183 113 99 154 59 100 126 102 162 99 55 142 114 171 146 104 176 167 178 196 90 206 110 107 152 70 215 66 138 98 108 136 153 99 165 126 122 43 117 129 71 147 128 160 194 153 174 90 122 81 191 151 110 115 103 91 101 160 135 122 140 164 184 120 
106 104 115 123 132 151 167 120 203 93 196 72 113 107 100 142 141 191 172 79 223 164 82 142 187 146 121 134 129 121 51 151 143 109 143 122 133 132 127 83 194 94 119 183 48 167 121 146 170 86 158 76 95 120 133 94 103 54 121 127 157 146 90 130 211 139 218 51 146 116 102 194 80 148 70 82 116 106 121 105 160 96 101 143 152 180 50 107 162 127 112 137 139 205 137 154 113 138 34 119 
108 177 136 133 154 183 127 219 135 102 207 118 64 160 67 94 76 108 120 89 185 143 96 149 150 52 119 104 151 118 132 27 116 107 101 72 121 125 81 118 57 194 108 155 62 91 108 117 167 99 139 143 92 167 117 133 137 148 143 112 97 128 126 100 169 159 129 149 131 170 130 77 111 68 79 127 142 70 219 135 179 137 30 74 84 124 186 88 103 118 98 120 169 127 78 103 87 158 65 88 
86 70 84 186 175 114 102 104 55 79 44 167 113 145 164 107 184 153 145 86 71 184 137 144 121 77 138 183 105 11 167 123 146 88 47 187 146 151 175 169 157 91 144 168 100 130 112 98 80 203 99 118 171 113 119 196 119 119 101 159 131 141 202 119 164 133 99 153 132 143 83 128 135 45 179 79 151 171 139 129 164 160 105 48 154 61 120 133 99 111 123 116 134 128 154 171 197 134 111 100 
151 125 108 118 172 62 179 167 167 225 123 90 115 181 177 159 124 81 147 142 188 75 127 109 117 143 188 153 90 139 147 95 108 113 97 238 152 79 232 127 155 114 109 244 13 104 113 145 89 60 106 76 150 75 108 104 144 117 88 145 49 164 109 184 150 136 32 104 104 122 72 178 204 90 108 197 188 100 57 143 151 163 215 145 159 28 76 162 137 103 164 131 117 122 95 124 128 39 107 101 
54 140 139 103 197 153 99 106 221 103 179 139 74 108 112 148 97 114 117 156 120 117 56 202 140 110 53 134 148 119 135 66 178 150 130 107 152 163 175 121 62 94 141 85 167 202 95 151 138 97 143 155 100 105 117 148 122 175 229 68 165 107 65 147 91 140 90 172 91 138 177 209 179 134 209 205 108 149 164 132 69 110 147 111 88 162 197 132 99 189 94 176 76 48 179 107 125 132 78 185 
91 142 130 100 181 133 77 188 108 130 84 145 73 190 162 142 89 133 120 181 100 145 101 214 117 133 77 98 151 186 141 125 136 87 111 29 86 41 193 89 156 153 128 164 148 137 33 172 149 167 198 77 162 150 96 145 188 160 157 83 98 168 165 156 83 97 98 159 128 129 118 64 129 158 172 153 61 150 125 134 80 118 106 142 95 141 171 114 144 188 84 125 142 67 84 135 105 105 101 62 
130 100 148 148 171 48 116 110 72 104 53 171 120 141 105 69 112 123 163 40 148 142 94 84 79 104 86 124 134 215 104 111 112 57 146 160 46 195 198 107 128 166 60 159 70 96 167 112 148 230 53 144 174 78 136 93 104 225 113 155 101 42 148 119 39 80 158 92 89 105 126 78 185 134 65 123 105 96 102 36 143 75 153 116 134 169 235 147 138 211 154 161 127 161 142 151 158 121 139 192 
97 186 163 135 76 98 152 79 150 81 137 159 109 143 148 135 84 171 70 112 115 155 61 134 174 57 170 196 45 67 151 87 210 103 131 107 82 128 154 107 143 152 79 103 178 155 151 178 139 155 174 172 131 150 160 147 109 86 229 81 217 117 151 110 187 149 109 165 118 141 109 172 70 40 101 122 109 123 162 106 62 167 150 37 146 128 205 63 78 185 215 92 193 130 93 88 146 168 154 162 
172 77 68 73 164 77 171 131 166 133 157 161 92 180 163 98 56 214 178 77 87 157 95 86 150 185 89 113 127 139 222 103 115 116 139 171 13 187 157 93 124 88 103 71 157 125 56 131 75 59 158 92 194 174 187 117 154 194 187 73 139 102 135 101 84 161 133 177 144 84 178 116 133 121 145 67 128 81 65 95 138 133 170 128 90 158 154 136 159 144 129 163 81 145 180 192 131 96 71 122 
148 160 87 88 152 77 147 106 111 139 64 112 80 120 36 132 156 66 100 116 124 65 154 110 119 129 107 50 154 117 66 190 125 169 225 98 133 142 147 96 163 53 183 158 193 139 171 187 146 55 151 177 176 184 91 201 111 152 202 141 173 113 220 131 153 140 145 155 46 141 116 100 133 199 134 117 101 126 122 155 55 166 105 187 96 128 87 95 112 80 200 106 6 145 120 119 127 152 75 170 
121 183 71 184 104 90 99 168 114 151 25 167 116 80 160 197 69 88 135 116 127 146 100 96 156 94 112 166 121 156 98 148 162 118 159 193 143 192 134 133 125 121 187 71 161 145 130 96 110 115 182 147 135 124 190 50 135 102 150 102 129 142 65 122 120 103 83 152 60 159 123 94 150 176 152 94 110 106 79 54 190 94 84 102 136 158 94 81 150 64 115 117 113 133 139 96 128 67 107 127 
140 89 152 95 143 34 116 21 141 128 196 90 190 133 149 101 90 147 54 162 135 173 121 167 98 135 188 82 41 153 118 96 117 167 144 179 147 70 145 120 168 78 126 202 218 78 130 150 143 205 113 162 93 89 140 123 145 74 84 72 148 153 136 176 133 232 125 140 84 194 149 119 151 150 136 161 143 121 166 149 92 109 201 174 144 137 149 134 165 52 94 179 56 54 101 118 90 92 174 160 
90 123 34 97 76 152 117 159 132 129 95 147 123 122 61 102 215 113 113 82 119 129 179 216 144 120 141 60 133 187 75 133 89 74 89 166 46 165 61 178 159 127 142 198 140 71 136 125 132 98 158 148 110 113 63 76 99 181 54 79 112 117 77 147 100 149 131 158 199 108 130 169 73 103 108 113 131 56 47 116 220 133 182 187 190 183 137 163 139 141 97 94 100 177 202 86 68 124 175 121 
63 113 108 133 114 33 152 114 154 178 116 146 87 224 99 128 75 110 169 137 179 95 138 108 192 111 89 165 97 93 100 173 149 117 153 112 80 97 183 101 133 127 63 181 126 52 143 100 112 93 154 116 143 167 97 163 87 226 113 85 53 144 142 125 67 124 121 43 141 137 127 69 110 129 97 97 83 102 49 146 130 124 87 90 101 80 193 196 142 180 143 136 103 130 88 131 180 114 69 118 
158 74 150 128 125 166 133 137 118 205 109 112 165 159 106 165 169 182 90 139 114 113 137 167 130 159 113 141 196 220 193 16 117 186 165 101 124 187 215 190 160 166 186 61 108 207 233 200 142 125 136 143 123 60 121 117 43 174 99 121 153 148 117 63 142 159 147 90 160 189 63 98 94 148 159 186 194 196 42 108 136 94 114 169 109 204 105 178 75 191 37 161 98 87 70 164 121 175 95 149 
121 112 144 114 103 212 120 123 94 187 60 107 118 207 152 83 98 27 170 88 185 191 89 88 210 74 76 149 221 92 83 113 124 97 131 163 131 134 78 126 111 88 141 103 138 115 148 173 123 114 151 74 105 197 196 128 118 188 85 126 112 136 68 128 136 126 57 127 71 97 113 176 168 142 212 201 107 173 137 112 109 97 90 103 89 75 169 201 115 122 103 139 119 133 99 126 216 58 68 96 
94 148 116 33 208 65 166 108 97 82 92 153 57 120 142 170 107 100 150 118 185 55 133 166 107 154 187 188 199 63 93 154 22 174 71 127 129 124 118 61 107 142 68 60 174 82 92 86 172 146 137 95 151 145 136 24 132 202 106 86 135 137 161 124 128 140 164 71 143 93 197 107 139 90 111 59 155 44 138 152 84 95 147 106 159 219 111 99 132 151 157 223 48 150 184 114 134 216 72 182 
96 101 111 57 162 90 230 133 165 206 83 45 195 150 108 101 159 165 129 75 162 133 110 174 181 122 118 169 119 152 130 105 99 175 132 56 224 133 100 173 116 136 155 158 59 64 140 206 178 212 156 142 75 105 153 105 225 141 139 108 121 66 102 48 130 132 113 105 140 97 88 111 147 60 125 90 68 187 174 85 158 86 105 176 182 115 140 228 84 65 116 132 152 77 85 135 118 158 124 154 
98 129 136 149 124 128 159 111 197 147 210 43 162 174 132 82 62 160 157 187 167 115 45 172 119 92 104 57 162 153 150 102 103 111 81 139 115 101 113 62 83 105 172 201 163 140 140 198 138 203 190 147 146 151 79 148 93 59 59 218 82 70 167 81 136 105 69 155 127 113 139 78 154 143 125 114 136 214 142 113 123 142 132 191 161 171 201 68 176 140 61 195 42 72 61 167 83 69 180 96 
151 145 154 79 158 156 112 172 114 120 179 134 65 58 115 111 150 190 116 187 66 106 89 128 126 81 151 151 151 163 194 112 167 214 165 142 225 48 144 150 72 135 29 163 83 126 83 111 60 144 62 205 141 118 98 106 142 154 173 156 76 57 152 143 200 38 22 151 113 64 144 117 44 177 155 128 105 131 139 123 129 126 39 142 196 56 192 126 134 186 146 124 95 158 116 95 101 134 220 164 
81 141 132 86 133 90 78 192 137 135 107 218 198 66 116 77 50 155 76 57 32 115 102 75 120 115 55 67 167 150 174 154 127 120 136 84 125 76 182 151 107 143 135 152 104 163 72 125 135 154 173 116 68 107 90 86 128 121 151 238 183 165 176 70 44 193 67 108 113 92 169 171 150 114 57 150 7 95 165 200 134 94 137 174 67 112 86 116 225 83 167 72 136 140 212 39 61 188 87 156 
101 85 149 194 191 178 116 84 104 123 50 182 41 147 82 105 166 118 137 140 113 118 117 113 15 148 89 110 151 94 70 160 152 105 190 132 158 39 109 100 150 60 138 86 157 117 154 112 133 176 145 93 152 88 192 160 90 140 136 73 150 114 90 148 159 98 165 54 130 67 99 94 185 151 129 97 175 98 160 125 147 131 187 167 157 100 82 236 109 110 100 158 126 191 167 78 139 65 136 92 
52 80 122 39 92 73 150 148 154 136 239 103 78 111 49 150 84 200 76 138 134 156 174 134 128 139 164 73 156 220 84 88 100 116 107 111 190 128 164 182 97 189 114 180 106 108 131 161 80 138 147 124 62 114 149 125 176 96 188 77 148 168 126 131 186 188 76 112 166 77 157 199 111 138 168 102 157 86 176 132 86 151 207 20 75 45 135 121 127 156 144 139 177 66 138 88 63 138 146 121 
176 81 80 44 40 135 212 164 156 117 166 185 60 144 172 147 114 197 83 143 119 111 46 72 148 166 145 147 97 68 62 238 138 143 95 131 156 126 147 180 187 183 154 218 143 82 157 93 100 200 226 103 107 73 131 160 100 113 73 112 129 155 149 193 131 55 151 163 86 150 179 79 53 190 115 84 82 153 122 123 120 155 54 155 175 77 171 74 44 115 204 133 192 137 162 38 47 80 133 159 
116 95 123 78 131 176 134 142 157 110 66 237 88 114 1 112 127 170 168 89 108 127 156 131 118 182 100 55 152 162 89 121 62 133 129 44 87 177 62 190 142 157 94 162 208 129 106 75 67 149 135 117 151 101 76 36 70 66 79 53 75 125 180 171 118 166 161 70 126 175 118 146 114 158 163 139 41 144 103 106 168 113 147 95 235 151 124 155 112 71 162 56 136 79 148 152 145 109 116 70 
129 152 134 125 146 186 177 136 133 135 198 49 126 92 185 164 78 87 88 144 87 143 164 92 164 168 112 190 161 151 112 116 150 181 129 135 166 110 108 119 117 172 136 109 80 195 73 150 177 77 53 65 172 148 143 99 108 146 117 161 122 115 58 88 112 160 153 108 192 161 100 168 104 83 111 137 78 93 112 112 150 125 61 169 150 34 99 196 153 144 70 116 98 142 168 74 82 181 42 215 
150 111 135 192 118 167 143 149 128 129 155 151 165 153 112 155 101 91 182 197 166 98 115 150 183 91 200 82 191 95 50 101 142 235 130 129 61 83 221 168 136 166 134 194 46 100 143 81 153 57 199 135 103 90 143 130 158 61 129 71 44 171 66 162 66 78 152 107 148 163 158 118 172 168 166 58 111 96 143 116 195 158 90 118 61 144 179 131 170 163 56 172 123 76 123 163 117 144 106 138 
213 55 67 175 92 70 223 86 127 121 112 135 139 139 133 90 175 136 199 151 108 168 185 99 129 81 78 133 129 214 148 164 187 120 160 154 131 155 132 174 112 207 206 131 137 112 179 133 173 146 96 86 125 171 113 84 139 68 117 127 180 161 42 194 109 207 56 125 202 163 132 178 103 150 21 61 96 92 96 142 69 135 236 91 131 110 126 186 218 99 84 176 86 136 78 99 49 178 135 61 
