P2
100 100
255
88 119 180 182 124 115 101 105 28 149 207 108 91 177 217 153 181 27 124 165 114 148 130 141 198 138 101 226 86 162 105 136 153 161 119 108 42 102 208 74 174 90 106 160 145 110 82 126 160 151 129 165 75 90 203 33 137 72 116 110 152 173 132 169 171 106 180 181 161 195 142 69 99 115 108 139 105 187 78 61 123 199 50 117 143 59 159 128 118 96 156 155 156 111 118 74 128 133 96 66 
156 44 147 23 150 94 127 74 166 126 125 91 95 98 186 176 132 175 124 107 158 119 131 54 143 86 143 186 184 148 95 159 134 151 94 34 126 99 167 128 191 80 95 131 92 125 143 135 136 177 58 156 123 56 125 127 150 56 57 175 105 197 150 165 177 127 104 111 180 146 97 160 149 118 105 149 171 132 147 176 193 51 172 48 137 163 113 153 103 158 102 108 176 202 147 177 68 87 189 148 
95 172 101 172 79 187 109 104 179 105 128 89 153 124 141 209 112 162 183 156 111 179 143 154 160 131 57 63 31 148 120 176 139 131 115 178 143 96 66 127 187 163 49 138 125 203 159 172 168 167 217 168 119 160 169 175 126 109 194 84 79 186 113 115 11 101 129 93 200 126 102 140 135 136 184 34 147 64 164 64 183 80 145 98 160 159 156 70 68 158 66 187 167 87 78 135 86 210 123 83 
188 171 149 122 81 88 113 167 203 156 102 122 57 201 110 173 89 58 136 49 165 73 178 80 100 109 117 99 53 101 73 81 166 126 79 100 98 106 136 160 161 63 66 153 147 87 179 135 112 119 145 124 77 108 82 135 226 107 123 163 44 97 207 155 127 78 132 132 138 147 139 203 93 51 168 145 162 139 148 219 107 93 189 121 158 134 88 167 172 136 97 86 123 145 123 112 26 98 150 119 
131 95 158 157 80 212 164 114 174 108 107 100 72 111 163 47 167 145 144 98 139 187 138 54 86 133 107 91 127 138 142 80 212 179 120 133 140 74 68 129 164 180 139 61 186 79 96 147 94 166 131 137 64 73 133 109 204 75 89 115 153 113 153 74 91 143 175 187 123 119 134 67 108 116 30 64 41 204 59 86 112 158 124 104 87 53 65 111 155 36 77 72 156 143 185 144 72 96 116 130 
101 144 196 143 156 151 201 171 142 201 101 138 94 135 78 147 78 153 155 239 53 110 122 107 199 74 132 178 168 141 202 181 124 86 98 109 169 104 114 118 126 147 241 107 188 141 78 106 118 58 176 145 147 151 176 116 97 169 167 201 204 127 169 87 113 76 183 131 198 92 226 197 188 56 190 113 163 128 183 109 223 110 138 164 163 156 126 146 195 28 56 145 126 147 158 47 243 134 134 128 
119 229 169 111 155 159 118 130 75 220 186 154 130 101 19 142 125 62 157 169 185 84 179 112 131 97 145 50 117 101 116 146 56 150 70 156 171 190 190 122 127 101 122 141 71 128 97 103 139 162 81 132 68 154 86 82 129 134 132 181 66 202 124 74 119 125 92 136 104 141 140 59 130 213 142 67 223 136 109 144 89 72 178 156 79 89 68 94 96 165 154 132 158 63 125 87 201 158 102 135 
164 181 92 111 98 160 150 110 137 98 83 163 223 125 160 93 147 61 185 79 129 210 133 128 113 197 176 115 91 98 167 95 141 85 192 96 103 61 187 123 123 51 152 136 134 143 129 64 91 87 145 39 127 89 64 91 42 195 142 174 123 179 128 143 76 194 66 135 117 159 164 110 198 137 93 96 153 58 37 177 101 156 226 102 65 129 80 104 72 85 47 110 122 198 143 46 102 122 75 201 
168 113 120 53 121 144 90 137 123 85 165 83 67 48 120 95 170 101 131 50 44 119 153 132 122 125 129 50 111 122 124 104 110 144 179 142 201 132 154 113 191 108 105 160 125 102 206 188 170 147 215 171 98 207 184 95 148 186 135 98 93 193 44 106 160 39 183 93 164 127 72 168 129 126 151 177 77 183 153 110 203 106 170 102 128 217 115 166 128 70 120 178 104 57 125 216 101 68 179 105 
161 140 85 125 162 97 150 95 112 142 85 137 136 57 105 113 122 225 79 199 29 124 36 91 116 66 86 159 112 164 143 177 106 128 154 162 141 197 148 208 182 155 190 147 112 129 138 158 128 119 99 151 124 50 153 128 198 78 38 180 100 77 139 181 121 132 120 84 203 193 122 158 114 111 145 165 122 56 111 97 66 144 70 201 102 237 119 122 166 139 106 140 110 72 113 101 87 119 51 211 
111 124 103 121 147 178 74 134 48 133 125 29 113 154 134 96 71 123 152 66 88 196 193 101 157 161 167 138 144 221 26 82 125 181 65 108 83 73 136 109 147 98 106 93 137 116 182 199 195 75 118 181 113 137 145 175 139 112 135 129 172 162 148 125 80 53 134 158 179 159 88 162 147 170 40 184 115 83 181 164 114 81 144 110 45 72 103 184 91 185 72 159 148 109 130 145 100 98 126 105 
142 140 170 118 69 159 178 121 71 151 149 130 214 193 120 116 103 160 105 175 76 96 165 83 82 76 58 131 104 179 59 191 156 124 91 106 51 98 84 250 116 213 190 215 72 78 87 90 157 148 192 121 212 177 95 139 49 55 164 186 102 98 93 204 178 82 146 119 71 39 156 144 113 66 170 185 157 145 178 127 88 60 88 109 72 78 138 223 166 120 154 138 95 191 128 133 76 108 98 193 
15 147 121 171 45 114 130 147 213 191 104 119 102 136 49 142 151 109 138 98 158 126 45 131 112 202 99 103 112 75 94 55 56 95 159 172 161 114 159 154 233 150 95 65 107 143 131 74 166 172 244 100 145 115 147 174 119 111 156 108 81 181 82 162 171 155 88 132 113 99 137 176 146 158 132 143 154 92 137 95 167 186 81 130 155 128 83 155 50 198 106 64 121 115 108 203 104 102 146 118 
77 143 150 73 146 66 129 98 133 151 125 72 117 102 72 157 160 176 162 120 192 112 99 95 151 106 152 216 205 134 83 213 191 151 122 49 140 153 99 100 171 174 146 183 133 98 163 154 100 172 104 128 212 148 27 103 179 160 96 98 176 101 190 103 71 53 212 66 187 153 136 106 138 224 143 168 152 94 125 74 114 179 88 60 171 117 150 152 152 122 77 131 121 114 105 114 190 34 132 56 
161 183 171 224 222 103 183 72 155 81 156 206 184 135 28 155 81 162 94 128 123 165 163 166 116 169 31 143 44 113 46 113 213 111 197 41 110 224 127 144 90 70 142 182 166 136 133 146 222 133 79 56 128 49 150 177 66 174 201 219 133 132 138 108 107 97 30 131 92 78 101 113 86 233 134 88 106 126 206 124 86 188 189 207 202 117 34 78 195 127 136 175 162 189 138 173 191 118 116 92 
138 170 105 77 61 103 108 150 142 68 62 156 75 133 153 128 81 125 146 169 138 68 171 104 245 176 80 95 92 120 196 64 119 133 108 205 185 145 151 112 170 217 110 65 104 100 96 130 199 173 120 133 137 182 118 122 61 169 189 145 91 192 30 161 129 39 72 89 149 108 168 143 126 88 189 184 167 234 143 108 128 147 156 115 111 130 103 88 100 193 91 202 112 75 151 105 137 192 98 106 
179 182 134 108 71 148 80 22 73 193 134 147 142 82 100 145 252 124 172 113 45 211 185 143 132 188 177 135 61 76 203 148 70 106 165 96 61 165 94 111 109 77 157 171 161 132 147 84 108 114 68 66 154 125 71 61 157 169 82 58 213 157 54 80 118 108 127 73 97 161 139 144 138 102 57 162 163 152 152 166 133 34 85 132 122 137 146 114 103 152 103 75 130 132 57 176 129 161 158 151 
205 85 167 144 93 144 90 123 70 148 65 71 113 133 76 103 184 62 46 154 128 156 86 95 155 128 114 243 131 109 88 140 107 218 75 85 145 122 133 175 163 166 145 70 135 129 179 79 101 122 50 119 102 164 83 68 157 88 69 97 67 173 169 99 155 204 133 186 134 181 63 106 162 143 98 137 131 131 161 130 75 133 117 114 218 153 171 87 71 109 179 102 130 107 37 162 159 87 155 90 
166 143 61 129 86 101 98 144 68 111 156 136 197 147 83 130 174 194 100 156 159 118 83 187 79 136 88 153 205 59 83 71 125 183 63 154 123 119 168 62 124 183 87 196 124 144 44 140 130 45 133 82 171 195 186 152 132 9 36 72 157 155 86 103 137 108 51 106 180 76 155 125 65 100 108 182 68 73 96 146 219 108 84 156 111 178 160 193 81 200 193 108 98 99 179 203 101 113 157 87 
147 91 60 134 142 102 101 122 46 185 94 181 57 61 98 138 162 236 163 104 143 74 142 81 91 160 166 165 194 190 93 107 121 113 140 87 150 109 150 164 116 107 94 115 122 111 191 166 40 194 133 104 113 102 108 111 156 176 165 125 57 115 213 140 67 129 80 88 178 66 191 79 77 148 69 115 156 178 86 100 132 106 86 57 175 108 158 167 87 148 112 117 145 91 186 115 60 139 40 156 
158 98 192 96 182 155 112 195 123 82 99 155 119 133 113 153 113 158 51 97 95 152 139 118 148 132 144 106 95 55 94 137 113 170 91 133 61 102 80 198 122 149 75 191 96 103 162 108 123 94 191 54 174 77 202 147 168 101 112 135 122 62 96 164 169 211 167 36 179 138 99 105 137 219 105 164 180 76 122 65 112 90 137 113 164 135 109 64 106 159 140 87 106 107 151 68 165 184 165 171 
98 147 165 164 153 172 113 102 45 185 113 100 157 156 216 130 141 111 106 200 98 139 126 116 125 59 157 100 67 100 91 144 165 114 125 138 101 138 93 104 67 84 129 133 126 84 73 164 135 159 72 95 79 124 49 176 112 116 161 152 66 113 128 47 176 145 159 119 105 57 113 126 135 168 123 47 100 98 91 51 124 96 122 86 90 193 95 99 160 198 227 94 118 142 134 166 206 101 19 168 
159 174 91 142 112 146 34 204 92 15 122 177 125 135 92 92 69 88 54 89 87 87 127 95 157 52 85 96 140 189 196 111 115 211 107 119 113 193 55 123 90 177 79 117 73 160 107 94 208 114 191 48 61 128 79 133 126 159 119 120 74 143 192 143 170 230 107 170 81 112 178 128 110 135 154 101 154 108 189 136 87 71 142 214 102 180 170 46 132 116 162 152 155 80 144 121 108 155 101 80 
133 116 194 104 149 49 94 173 73 118 157 175 107 169 80 153 82 101 88 156 174 79 102 197 76 63 142 119 94 112 92 58 182 119 144 129 75 155 106 145 102 161 93 158 163 80 132 165 104 110 89 137 142 154 120 94 135 173 99 90 57 128 113 124 98 89 133 210 134 124 164 134 182 113 167 88 140 169 125 150 143 57 66 13 141 113 100 168 162 147 102 98 41 68 133 165 106 162 118 93 
233 180 164 105 193 139 74 58 150 100 173 77 68 44 140 72 127 157 153 102 69 167 96 148 140 129 78 67 113 78 52 109 80 144 177 151 68 182 156 61 177 125 148 192 106 139 212 113 119 47 111 92 133 133 128 170 192 140 174 157 177 83 214 97 165 142 9 103 174 173 165 91 143 109 169 77 157 99 59 175 121 60 127 137 94 168 189 41 135 113 95 118 222 165 126 77 93 142 136 87 
119 135 150 98 102 137 46 132 119 136 189 134 100 91 94 91 161 202 148 128 169 216 125 143 114 82 180 118 171 134 95 190 136 144 141 120 98 102 197 111 170 193 79 115 64 124 144 126 129 102 173 161 153 50 171 76 139 152 99 140 149 144 84 165 71 41 100 47 174 44 97 102 122 125 109 71 135 72 128 66 95 154 171 106 125 154 106 148 95 74 157 100 186 84 108 169 177 109 89 110 
81 101 69 69 88 113 147 69 165 44 124 190 88 150 139 156 145 118 183 151 192 147 112 149 104 68 184 223 156 123 143 145 57 53 43 105 123 142 154 85 59 99 128 144 32 70 104 99 77 163 100 147 114 181 86 55 105 99 159 176 98 133 137 123 54 165 124 109 84 115 101 195 142 63 65 197 89 144 178 217 131 136 125 72 134 111 79 35 168 71 153 122 134 147 88 73 180 186 167 161 
94 86 203 155 93 108 119 156 88 162 141 150 217 203 158 119 89 89 115 131 125 169 102 145 150 157 151 148 145 166 142 182 153 167 72 76 84 140 85 122 204 108 166 128 172 114 111 175 171 139 117 163 82 84 77 104 124 87 121 86 189 106 115 117 142 120 138 148 90 148 225 70 129 202 106 144 197 118 95 145 81 151 68 115 127 211 63 124 148 160 162 150 89 157 168 178 87 123 122 188 
156 40 145 157 79 131 132 175 92 180 96 117 68 130 67 178 201 192 186 123 164 171 147 101 200 177 159 181 95 132 178 96 142 154 125 155 154 87 187 216 141 240 87 153 130 143 57 143 41 57 92 140 173 130 147 152 146 154 174 117 167 109 117 166 130 149 119 161 71 143 26 119 122 170 153 110 135 142 132 144 142 199 74 87 131 110 100 80 147 91 115 113 82 92 65 174 129 145 104 138 
86 74 135 84 224 199 148 77 105 107 127 98 184 165 166 181 109 115 159 153 155 131 107 86 123 88 159 91 155 142 84 141 142 129 134 84 104 68 111 184 134 142 164 148 139 113 139 88 156 144 101 85 119 121 157 28 108 75 180 127 197 53 119 159 122 134 65 82 24 110 96 130 115 95 132 41 132 106 122 168 182 64 239 79 105 76 129 164 113 91 136 97 167 217 122 179 91 125 164 168 
183 197 106 160 70 43 82 211 130 83 177 153 54 55 134 170 95 85 77 61 139 92 111 128 101 135 139 187 199 166 136 100 156 166 158 125 122 111 161 154 163 86 201 124 129 21 113 153 66 93 48 136 151 176 129 81 103 151 101 98 40 129 128 168 166 153 103 166 113 170 68 129 111 166 140 158 162 105 187 92 178 162 154 145 160 187 139 96 31 141 72 92 130 152 119 127 159 127 136 175 
91 119 138 122 108 105 137 155 129 110 72 169 125 50 153 118 152 155 235 109 128 98 204 82 174 170 128 60 168 77 184 51 67 125 130 94 161 173 138 151 94 133 161 175 120 78 134 148 77 73 182 111 208 82 169 148 127 110 189 86 146 114 139 127 127 163 219 140 178 147 102 116 113 73 101 163 157 152 112 114 110 142 62 153 145 34 142 109 188 157 132 106 148 124 115 127 135 148 120 175 
175 215 103 107 94 160 149 136 112 107 116 65 194 118 215 145 59 162 71 84 55 149 181 103 139 42 168 80 108 72 113 168 148 68 119 191 114 108 129 153 47 167 96 77 177 242 167 127 161 215 172 36 110 134 91 135 134 134 104 72 144 61 126 63 217 96 157 77 175 70 74 69 169 219 217 149 161 188 122 179 138 170 103 86 112 78 146 172 140 74 112 144 98 169 91 201 132 195 149 116 
181 132 71 191 110 168 102 79 76 141 105 143 141 40 178 128 99 147 149 166 154 18 167 174 88 184 98 198 151 82 135 71 122 195 85 150 148 163 117 139 176 92 104 151 108 88 72 138 167 160 35 150 157 78 151 169 131 99 124 82 174 177 123 137 111 110 174 202 101 175 183 152 137 179 56 135 113 117 94 104 137 121 75 176 119 46 161 139 59 81 119 226 181 218 200 135 128 159 164 199 
81 127 105 154 182 150 123 104 156 92 142 187 97 172 179 127 35 131 128 95 143 49 159 110 143 97 29 100 148 123 157 185 75 121 151 173 99 104 95 144 133 59 145 139 91 114 174 158 56 173 139 86 124 128 110 160 174 101 209 88 69 159 198 126 97 181 96 61 119 190 126 109 100 142 28 110 91 68 136 86 142 107 153 118 99 71 135 100 159 76 47 144 37 188 79 102 99 97 140 99 
23 165 167 206 179 76 145 61 65 98 226 75 179 160 110 104 53 137 92 132 137 118 86 33 148 165 95 159 168 169 49 136 61 199 67 203 146 111 82 186 166 166 168 94 148 140 121 65 213 105 127 202 64 115 142 26 118 98 139 75 85 125 118 143 166 80 56 112 91 115 185 66 148 168 130 185 130 98 103 174 175 118 150 84 104 77 110 106 121 154 135 82 130 119 77 101 169 152 123 78 
144 100 151 97 217 124 170 175 170 176 169 201 138 79 40 123 102 138 62 78 147 205 206 176 119 76 120 91 95 149 150 109 71 203 74 110 174 127 68 49 147 113 139 132 139 197 108 137 118 176 141 85 79 39 87 113 101 113 120 119 226 175 121 93 79 98 143 82 140 134 194 109 101 84 159 189 122 126 122 168 73 51 134 160 204 162 112 109 81 55 53 105 71 160 132 110 63 72 182 91 
77 177 33 138 191 230 50 157 80 133 93 146 150 224 164 113 102 109 106 148 48 132 150 53 125 95 179 193 93 182 144 89 94 125 93 120 164 165 136 144 107 96 75 173 138 149 108 145 93 126 136 117 118 130 184 94 125 175 166 131 77 176 112 97 169 88 159 148 143 133 122 126 32 190 195 133 133 182 75 151 143 99 128 128 83 167 116 151 136 130 131 108 151 147 97 34 86 133 143 103 
230 122 141 102 132 40 213 143 239 190 208 140 94 92 162 145 129 176 106 167 76 31 162 58 24 155 161 90 218 126 184 68 117 193 163 155 171 143 202 119 150 140 152 93 142 149 132 126 150 95 59 46 160 77 93 101 179 102 90 99 89 171 143 96 52 183 162 171 117 67 111 137 162 67 115 165 87 85 134 161 126 119 93 63 181 125 95 96 151 179 105 64 123 84 179 221 96 52 87 110 
121 101 211 118 149 160 170 108 47 104 70 142 199 78 76 93 162 141 102 100 223 163 90 133 139 78 128 150 151 46 51 57 148 109 106 170 167 86 118 115 170 130 162 125 122 73 125 74 115 49 93 109 129 96 166 52 163 151 161 162 153 49 173 120 71 205 145 80 171 50 78 78 133 142 55 154 107 113 166 108 147 190 159 63 149 61 166 170 103 112 163 87 124 159 133 84 117 73 177 122 
68 171 118 55 130 101 91 127 119 162 91 218 85 135 95 95 133 179 156 150 70 161 32 8 125 164 188 140 126 132 156 99 104 185 72 25 200 96 141 172 50 132 125 106 90 130 198 40 139 89 197 76 184 99 134 95 102 68 141 122 112 171 113 165 95 79 140 213 108 111 72 181 68 157 56 151 51 181 146 107 127 75 157 102 107 121 194 122 81 92 80 91 143 174 180 149 86 109 69 108 
166 41 81 98 86 79 127 220 118 128 146 129 27 150 123 118 130 155 191 149 60 164 105 81 119 115 116 90 131 143 86 175 107 25 185 136 126 161 73 122 95 145 54 132 189 165 191 106 103 180 130 160 198 110 128 96 94 118 80 166 89 169 176 118 205 166 55 144 121 158 116 148 101 95 87 132 116 164 172 86 177 147 49 150 137 126 158 171 74 90 134 123 160 130 95 117 182 157 215 79 
163 133 108 34 172 143 92 176 124 190 164 108 100 88 79 183 138 108 106 121 75 59 103 161 204 148 112 199 77 186 164 127 101 160 77 177 89 131 93 98 173 29 114 156 83 154 136 187 157 211 118 122 60 43 70 246 162 172 90 156 80 155 134 25 185 82 70 94 72 65 78 131 43 120 135 115 32 165 98 169 107 209 119 198 164 130 138 105 85 162 150 34 98 169 157 125 186 169 160 220 
145 117 121 110 133 90 144 52 144 75 115 155 115 119 172 64 162 84 166 45 163 98 158 219 170 70 107 194 162 81 52 113 180 164 69 185 150 167 187 177 150 172 154 117 125 81 102 172 163 150 118 49 117 161 60 146 136 145 82 15 101 129 224 68 93 175 121 144 111 118 80 135 181 122 135 114 157 100 27 174 181 200 116 139 139 96 146 201 150 211 177 168 176 83 63 126 146 181 147 170 
103 138 109 206 90 90 78 175 110 136 42 181 119 153 110 127 108 90 80 86 195 113 66 128 78 113 219 115 42 98 151 97 137 161 137 146 40 181 91 168 171 44 93 135 101 122 158 114 189 77 184 170 51 107 156 182 176 107 163 158 91 158 140 104 197 104 125 167 181 98 155 140 121 96 124 150 77 113 112 210 126 136 137 203 94 127 58 86 175 169 175 88 151 175 124 133 126 159 100 96 
223 208 124 105 198 121 156 131 163 127 74 84 156 123 155 213 112 186 149 155 102 106 106 140 134 146 57 69 91 105 128 121 135 83 169 180 112 177 189 100 166 141 195 102 133 115 180 56 129 55 204 192 88 28 126 144 97 106 40 103 78 119 119 102 149 147 119 112 99 155 159 131 148 95 154 102 178 100 135 139 149 183 173 106 145 168 94 155 172 172 104 62 114 141 137 96 192 187 193 154 
84 138 195 37 151 26 75 178 146 99 44 170 161 104 197 170 117 189 192 80 137 100 49 183 173 153 47 174 167 68 142 147 154 169 96 118 113 159 40 112 122 109 166 139 150 71 137 151 194 70 154 184 170 92 76 102 162 125 150 119 117 93 155 122 185 80 194 120 36 179 155 172 210 236 143 91 103 159 139 112 78 130 133 156 116 129 113 147 132 86 136 115 167 159 78 131 65 134 65 100 
93 100 137 99 153 72 163 83 186 218 181 21 187 131 142 137 191 193 176 138 143 200 143 159 181 81 164 115 142 139 138 140 140 178 223 101 169 103 117 86 61 223 167 122 167 95 104 60 59 90 129 90 40 87 208 103 198 84 104 148 115 85 57 144 132 188 155 76 162 139 138 152 148 128 90 98 44 159 104 68 57 99 65 178 107 207 129 140 67 180 202 113 125 104 129 184 135 130 122 128 
114 157 158 149 128 87 118 145 125 99 147 106 240 177 136 56 126 178 146 210 134 133 52 137 124 82 160 142 63 181 175 140 106 189 167 214 189 156 175 130 183 205 167 117 177 86 87 183 91 126 163 93 137 116 44 127 227 140 165 196 118 170 141 96 159 100 92 40 203 115 199 138 112 135 155 197 84 152 167 241 125 142 82 141 190 161 82 153 36 110 138 111 131 165 169 125 196 155 138 32 
103 91 195 122 220 117 135 93 41 143 155 158 102 169 62 51 162 162 165 93 73 232 114 77 139 166 186 147 190 120 104 156 127 80 188 103 165 136 125 198 179 165 176 71 90 96 99 165 99 134 173 127 149 126 84 108 117 210 170 131 176 130 164 126 108 105 107 178 112 82 50 139 90 89 52 106 99 55 140 146 152 191 110 169 157 81 134 77 45 112 79 94 106 95 145 158 175 68 176 204 
124 153 164 111 55 148 103 172 138 128 122 48 75 122 106 153 86 103 148 78 49 174 98 153 177 152 119 94 142 130 12 140 104 184 121 113 141 82 176 52 165 136 124 46 67 130 168 128 184 180 196 104 62 164 215 188 156 41 104 165 167 158 95 132 58 35 146 143 222 113 170 188 82 63 88 83 97 132 152 134 176 176 63 170 84 199 147 102 100 187 146 130 148 125 147 103 143 87 87 122 
150 157 175 138 99 90 179 60 100 123 145 101 91 117 100 180 65 198 157 148 159 45 120 126 157 188 88 178 100 184 187 197 133 157 128 114 133 167 146 139 122 134 133 101 131 116 133 96 90 68 116 172 76 107 165 167 128 120 197 113 122 165 103 59 203 115 162 213 225 128 153 217 134 124 144 166 60 113 36 122 97 151 137 130 121 125 158 102 46 152 123 90 129 114 129 136 79 168 97 94 
77 85 107 102 61 127 176 123 153 150 106 158 183 135 136 71 159 99 32 16 151 139 22 187 93 155 123 104 173 121 167 81 177 132 187 95 116 114 177 144 141 70 149 112 173 126 159 74 85 131 140 134 101 143 120 152 214 126 121 166 145 131 108 45 40 128 198 95 95 191 104 45 121 102 224 105 66 167 166 172 122 139 124 184 134 61 129 112 72 125 96 131 112 109 91 154 160 116 44 171 
188 151 62 129 163 72 94 87 130 49 169 162 76 128 194 121 137 87 106 117 143 156 177 158 137 142 154 204 100 209 150 168 176 143 128 111 194 213 165 221 136 74 165 63 109 115 187 128 83 159 206 106 134 189 175 80 162 152 129 65 140 146 79 108 80 104 95 86 216 24 96 216 154 155 88 93 147 105 84 139 143 71 99 187 169 104 160 181 82 73 113 126 52 148 120 69 121 203 94 131 
70 85 112 111 146 164 97 111 142 228 159 105 184 99 122 58 132 92 197 151 193 176 116 143 155 81 87 131 124 137 86 183 121 165 135 81 98 140 80 165 123 51 173 104 167 138 132 199 153 177 138 121 204 138 93 120 145 87 118 96 126 167 75 92 88 84 195 95 173 120 183 76 150 93 172 126 128 73 122 193 184 193 219 179 87 57 242 126 154 21 73 135 40 68 194 150 130 189 168 88 
103 93 131 126 112 65 205 79 114 86 140 146 100 171 104 112 148 148 172 147 140 107 118 90 138 157 146 55 103 116 151 101 191 85 151 90 215 84 161 79 117 95 73 71 93 74 109 140 134 167 135 49 126 121 180 159 70 53 52 44 145 101 86 178 91 115 58 176 91 158 86 120 85 129 110 80 194 148 46 194 171 98 120 151 87 81 19 187 140 121 126 49 151 26 66 89 93 110 107 152 
136 148 137 69 97 56 171 166 45 159 122 213 71 135 220 200 142 58 135 127 169 155 168 74 98 185 113 172 82 106 167 111 156 148 219 116 107 177 154 171 112 76 160 138 138 119 154 144 71 166 158 68 144 68 201 101 232 90 75 75 177 187 130 201 112 180 67 77 71 42 151 177 62 154 175 103 136 177 153 158 121 161 77 147 237 88 193 54 142 152 148 128 105 141 44 57 144 135 176 59 
146 138 117 149 150 160 186 144 108 92 130 120 109 160 128 112 127 183 32 162 118 167 177 73 95 190 184 89 135 88 101 125 69 111 92 185 161 66 119 76 145 66 109 136 142 107 111 215 121 82 132 141 124 91 159 141 60 99 135 183 177 102 183 171 88 136 77 65 95 18 91 147 122 128 106 210 199 131 133 152 59 157 82 147 212 166 127 83 112 115 110 84 151 49 22 138 141 152 129 139 
127 138 145 112 126 53 131 134 164 38 135 146 154 76 104 162 99 39 99 186 155 170 181 190 92 89 173 82 78 129 141 46 51 158 130 159 123 173 110 154 44 133 101 126 65 123 178 94 130 155 210 99 138 191 110 62 216 98 125 65 175 117 156 202 174 166 182 132 94 86 131 122 110 136 35 70 123 160 106 138 93 145 134 152 189 93 107 55 118 171 184 103 119 74 82 203 121 125 158 136 
66 100 169 124 196 151 155 85 104 170 85 57 120 142 119 85 197 30 80 212 214 76 94 44 184 140 133 72 158 161 179 114 103 163 139 149 121 138 94 160 219 68 153 91 70 86 112 93 167 133 46 133 103 122 148 66 99 200 140 125 141 145 142 85 147 130 109 92 94 139 103 101 109 54 118 107 56 179 97 158 156 193 178 22 90 87 75 90 177 73 151 159 120 175 131 121 111 53 110 64 
136 64 145 157 125 206 90 223 164 68 146 154 166 77 129 178 128 193 128 81 127 63 123 74 109 117 165 198 143 107 146 93 117 94 119 154 136 53 188 54 158 189 102 79 105 98 205 130 179 133 58 169 194 173 77 193 83 79 71 181 81 193 136 111 99 127 138 187 158 73 184 142 125 76 82 165 72 66 87 62 114 66 125 146 105 75 64 161 138 68 110 86 119 34 76 166 138 151 139 71 
97 102 85 77 59 93 166 52 143 120 30 192 94 58 117 89 154 184 190 159 188 121 116 195 220 118 142 50 217 131 54 77 174 86 84 124 116 108 100 112 100 133 133 213 222 154 198 137 83 166 102 187 179 162 173 45 119 138 104 82 101 100 123 102 151 117 146 148 85 23 175 115 180 153 105 119 190 59 153 110 88 173 143 146 150 77 119 93 114 121 114 77 53 137 67 104 159 108 31 135 
122 108 100 126 101 84 127 190 180 90 99 45 16 116 143 235 95 197 98 170 167 113 147 130 105 121 92 123 141 81 210 41 125 109 196 143 94 104 176 69 82 154 136 128 182 188 35 147 54 78 119 113 103 150 81 77 126 104 156 158 183 169 148 69 22 173 84 149 93 124 111 113 145 101 119 185 97 108 175 137 143 158 118 141 132 147 116 179 56 102 78 125 131 97 89 133 133 207 105 123 
70 98 75 150 99 94 103 34 99 147 38 78 42 42 121 159 148 120 169 97 92 143 182 103 166 87 33 133 150 110 145 155 107 117 144 103 119 154 146 124 144 100 169 134 197 149 182 167 186 83 160 69 108 206 170 134 27 65 120 150 76 214 72 141 152 119 150 148 137 92 144 123 116 11 42 113 94 169 171 166 171 129 133 113 156 60 160 125 107 36 137 144 112 117 77 138 92 33 170 153 
147 129 86 137 127 101 91 93 125 82 142 156 170 149 175 157 95 191 129 99 180 133 240 164 103 149 120 161 125 55 127 116 81 181 54 93 174 58 122 118 74 124 92 134 120 49 213 110 97 167 40 182 76 122 131 76 116 146 113 133 129 187 120 49 29 87 241 215 154 115 78 58 98 110 104 51 82 79 113 129 103 132 105 129 141 137 112 174 161 69 80 190 179 141 81 114 172 131 124 85 
114 127 70 122 174 199 88 133 220 109 141 178 183 198 110 105 88 53 85 110 103 81 76 102 144 121 81 95 123 166 88 84 151 186 197 174 173 120 82 151 38 197 146 65 108 84 152 51 173 113 134 134 95 54 169 132 120 117 175 163 177 31 114 79 97 110 49 146 131 102 130 161 124 138 122 42 119 159 134 100 93 86 147 73 115 90 93 58 79 121 141 96 103 180 115 80 144 139 80 136 
47 117 93 134 196 138 94 161 208 164 151 142 127 182 17 70 171 232 109 191 92 124 86 122 191 158 171 29 120 135 85 57 102 92 110 84 107 165 120 134 156 148 131 166 115 164 94 95 189 206 153 85 177 87 147 138 174 66 87 186 174 74 121 170 166 91 143 156 156 184 105 123 186 178 119 159 170 161 218 141 111 175 147 142 129 209 169 128 149 117 183 43 46 110 130 111 213 68 154 106 
139 175 72 174 101 71 105 178 223 118 191 199 42 18 82 103 53 173 200 102 145 206 156 161 48 187 112 98 113 114 163 104 89 136 93 222 75 82 120 135 104 121 86 135 140 122 112 105 150 170 161 104 130 212 184 132 200 119 113 159 153 203 141 147 152 136 174 30 179 115 64 172 96 127 148 103 130 209 87 152 175 153 172 144 153 124 170 118 131 154 219 57 175 115 67 177 63 139 90 32 
121 147 88 71 159 107 150 171 206 195 107 99 44 99 146 112 182 186 154 149 99 188 54 153 115 168 101 162 185 143 149 109 140 104 108 107 202 122 175 50 81 132 80 126 78 136 169 88 167 206 124 127 82 185 187 120 149 169 124 125 192 88 98 122 112 163 124 86 135 200 112 163 143 124 70 130 157 48 101 160 169 191 112 162 111 108 157 92 55 99 209 200 112 189 152 161 89 111 148 162 
68 169 43 98 143 111 165 115 167 199 153 115 128 59 89 97 195 211 136 109 98 168 151 70 136 140 90 82 80 122 86 196 92 150 106 165 127 147 134 128 155 145 86 79 179 145 111 136 116 166 74 137 96 182 151 123 90 163 175 73 131 134 99 132 121 191 130 136 181 226 35 111 141 123 120 137 179 74 117 128 223 128 156 102 144 88 163 167 59 121 112 153 178 242 95 63 63 163 163 159 
146 112 196 97 114 192 98 156 63 140 148 103 132 139 217 112 121 167 122 101 167 79 103 136 103 33 181 81 124 185 151 130 191 148 139 171 55 211 129 127 127 92 108 66 206 93 127 67 165 100 83 90 108 130 158 98 88 77 115 148 46 178 142 61 131 191 111 148 125 164 130 103 102 102 132 78 45 195 99 48 105 78 29 69 112 121 125 162 81 131 136 56 196 198 219 74 113 157 118 78 
109 227 134 134 160 167 149 184 118 143 205 61 95 88 141 88 158 98 122 78 86 142 43 178 173 170 143 162 157 128 106 145 69 117 131 205 159 153 173 95 164 139 99 143 192 97 134 53 211 75 150 108 185 134 43 101 184 159 55 62 163 156 181 148 150 82 156 99 48 116 110 105 98 229 88 135 57 165 121 68 76 136 136 184 138 58 136 151 126 146 117 163 89 96 108 133 114 156 110 146 
100 80 178 82 195 95 180 115 147 58 169 117 153 184 145 146 161 113 145 89 74 231 185 120 91 93 89 119 109 102 128 109 51 204 158 134 134 211 64 139 162 121 75 118 228 111 114 146 121 158 127 113 107 44 93 54 146 79 174 107 127 230 149 137 184 95 147 139 161 111 106 116 196 65 125 92 152 129 149 55 97 134 111 176 112 79 169 148 124 165 69 169 82 135 156 47 188 88 121 195 
81 111 158 125 190 140 234 145 173 131 148 121 30 122 144 61 160 96 152 98 87 114 66 68 92 142 94 110 130 191 143 154 155 153 108 100 78 116 116 91 100 96 213 79 46 184 108 140 127 168 93 185 96 114 60 158 176 119 113 144 74 198 142 147 109 56 125 149 34 116 32 78 162 103 82 184 147 97 100 201 86 149 140 158 60 188 81 135 171 126 64 88 118 182 132 112 132 138 162 56 
122 168 110 146 136 121 96 138 160 162 124 94 126 52 137 84 107 105 98 56 160 115 128 36 192 89 44 182 56 138 131 82 79 126 151 141 70 162 124 67 35 203 60 64 75 94 141 133 112 153 117 157 193 143 77 124 140 49 144 33 156 24 127 112 37 116 142 112 105 121 91 101 83 186 156 203 45 134 77 220 75 124 137 131 65 167 126 115 126 115 63 17 82 62 149 115 155 81 144 207 
93 158 129 14 118 115 80 58 148 94 201 79 134 172 154 84 159 126 179 177 131 107 156 152 116 79 56 104 110 104 215 121 142 64 137 225 45 129 164 177 55 84 212 128 157 156 149 92 65 50 128 174 169 64 131 60 131 128 146 42 162 110 96 136 119 174 122 100 128 139 48 127 172 104 146 110 101 193 112 106 127 91 171 162 174 124 115 123 107 180 117 156 78 148 112 88 198 136 180 97 
156 65 93 73 178 132 187 148 86 107 54 214 130 87 153 107 221 95 137 162 191 152 136 77 98 50 216 138 189 156 178 120 199 188 164 176 98 160 210 171 125 76 156 132 155 21 98 102 193 139 163 95 168 140 138 125 125 129 151 58 132 104 104 215 140 105 85 142 150 157 141 109 108 121 106 124 109 123 175 146 101 98 165 185 95 199 141 117 99 177 233 78 145 142 124 35 163 67 128 77 
189 201 110 129 177 114 63 162 114 36 199 198 135 137 123 212 76 127 167 155 141 54 157 135 68 126 149 188 78 149 89 96 111 85 173 163 106 135 150 82 93 106 138 97 200 68 167 120 109 146 119 128 193 145 115 101 93 113 185 101 132 90 160 113 118 92 117 109 118 213 106 70 156 112 100 122 190 116 105 178 116 173 77 102 146 138 100 111 106 51 59 96 51 74 176 202 156 142 112 128 
160 134 83 82 167 124 182 60 52 150 183 166 208 195 99 71 68 127 168 161 138 207 203 116 115 157 207 178 117 99 120 149 123 188 91 152 179 53 133 188 132 174 58 156 139 111 213 167 165 92 40 138 45 124 115 167 153 145 143 202 121 174 121 74 59 134 171 64 206 148 87 75 134 172 63 233 78 150 100 146 92 83 84 163 142 96 154 95 93 116 128 146 100 99 58 192 130 146 56 91 
148 207 161 177 115 68 128 150 79 143 95 116 69 122 140 152 98 147 188 97 146 103 42 169 148 100 197 210 116 66 75 134 85 119 143 187 211 178 133 135 115 125 144 57 156 165 126 120 192 139 139 101 182 163 20 65 159 83 143 136 73 169 138 130 168 121 107 75 53 117 109 98 179 107 130 84 133 120 146 86 138 117 139 86 59 126 79 112 94 109 110 133 198 61 174 48 187 52 140 98 
165 66 136 170 81 148 98 87 157 128 101 160 168 115 95 96 109 198 134 131 127 82 101 181 166 58 128 82 176 146 182 64 61 171 81 159 117 89 71 129 160 181 103 55 160 170 158 134 160 115 58 181 158 181 140 97 52 105 124 64 100 91 108 214 160 143 197 137 43 145 119 94 130 69 159 116 137 109 116 105 91 179 67 128 33 111 151 193 132 112 127 135 129 117 161 13 181 198 45 159 
129 97 87 199 51 118 222 118 173 188 172 159 125 115 152 114 160 204 63 45 173 95 144 112 168 119 126 106 101 162 55 120 205 129 195 93 189 154 98 109 139 164 128 147 103 75 140 147 151 184 137 111 87 174 179 179 162 119 117 78 111 73 37 81 32 60 117 79 138 153 121 109 202 131 106 87 132 169 93 63 150 146 94 45 125 134 108 106 204 102 34 59 88 166 89 73 122 108 134 187 
134 61 144 78 144 140 61 175 133 59 90 149 132 192 152 134 121 50 145 145 233 129 99 103 123 103 105 103 168 90 193 137 136 118 68 205 197 167 102 96 231 170 55 70 110 97 168 46 91 130 157 112 158 133 136 152 171 75 135 144 121 89 155 199 188 101 125 160 126 164 148 150 141 114 74 150 112 163 153 190 143 85 168 118 142 66 102 141 100 123 81 113 181 43 139 191 148 148 172 102 
119 139 166 59 170 114 157 142 198 200 167 94 109 115 149 186 61 38 172 90 114 144 137 114 164 192 180 142 98 87 116 80 113 140 81 130 210 119 94 17 154 92 48 83 137 111 22 158 125 128 122 145 157 160 140 72 93 32 161 61 128 112 110 138 82 132 75 60 181 141 51 199 123 207 160 75 136 104 108 204 136 118 101 180 149 191 146 55 104 156 138 162 121 133 101 211 78 195 108 93 
99 139 170 171 33 122 115 124 85 147 96 92 137 121 161 75 155 94 211 101 139 123 130 104 186 141 100 104 101 48 167 148 134 231 112 121 86 163 136 113 122 163 136 169 123 132 119 102 96 174 218 71 165 86 96 151 83 187 103 159 74 137 172 157 130 76 216 67 114 131 192 97 93 143 153 181 142 97 102 153 80 52 148 163 129 99 61 64 232 171 99 84 117 123 36 149 151 159 80 136 
140 57 105 214 136 127 57 136 113 146 102 121 28 136 204 170 85 99 170 144 207 129 158 225 122 114 171 68 174 148 74 171 192 180 186 88 96 160 193 82 96 83 127 74 174 153 144 196 77 166 176 126 84 160 73 107 102 179 165 187 87 92 105 153 22 113 119 127 112 150 224 173 126 158 174 94 167 104 193 99 123 171 84 107 138 147 198 176 176 176 107 122 154 145 78 170 132 49 99 147 
143 196 106 176 125 220 131 129 102 87 128 146 160 210 134 168 130 126 171 170 184 86 85 97 69 52 93 136 171 143 177 124 133 88 137 115 177 230 161 54 80 117 90 65 141 115 89 133 108 128 149 123 102 95 121 78 192 144 155 126 170 104 193 112 171 22 136 130 160 112 36 88 175 142 79 85 150 150 46 154 142 142 67 182 188 108 139 134 142 166 190 79 126 152 148 144 55 45 119 68 
65 76 145 208 173 115 88 85 136 168 93 180 120 159 172 166 148 123 135 142 157 91 148 112 109 104 150 178 165 154 126 115 38 99 123 129 116 113 68 160 75 97 126 154 48 125 116 63 103 81 140 135 137 114 123 204 14 125 94 56 108 74 156 132 200 90 88 32 123 174 156 130 212 68 236 213 76 63 189 69 123 107 70 137 193 156 153 116 164 52 160 180 156 200 139 126 112 108 142 92 
38 58 93 52 36 134 222 77 103 117 104 122 133 163 199 118 164 53 100 144 111 130 209 181 73 97 184 121 134 133 127 175 105 174 78 113 106 113 145 196 83 118 110 121 188 207 97 78 157 102 146 48 219 147 177 91 128 150 156 193 196 154 116 129 77 140 133 104 170 122 87 165 58 127 92 182 60 145 35 125 132 28 124 92 148 191 167 169 204 34 161 164 155 113 69 115 150 187 64 126 
178 132 98 152 107 29 209 95 96 122 74 55 103 226 98 150 121 114 113 139 53 162 83 134 57 97 152 102 78 90 151 123 60 146 178 152 146 214 137 114 79 57 131 128 139 197 110 63 52 170 124 33 180 114 105 109 84 112 96 149 25 92 83 97 104 132 106 140 124 213 95 171 92 125 133 63 103 101 181 184 112 112 135 136 132 91 134 139 194 143 146 160 127 175 182 151 125 76 75 227 
70 170 113 186 157 203 248 157 161 90 223 184 101 71 191 135 189 102 73 111 184 120 114 126 120 126 68 181 97 54 118 137 148 222 85 141 87 161 114 71 147 177 104 135 101 65 37 133 42 142 141 191 134 136 150 98 107 82 118 47 159 165 137 92 169 100 146 132 187 100 127 51 103 186 140 105 118 150 176 103 127 151 107 178 57 120 33 154 112 184 108 100 92 87 140 94 79 138 174 153 
204 119 165 50 167 104 178 74 94 141 136 148 170 181 136 43 135 144 127 133 103 134 193 75 141 65 105 156 124 228 116 91 82 140 133 68 97 139 136 176 168 60 155 138 152 124 133 75 36 99 187 176 111 167 81 83 114 99 91 62 129 89 139 107 170 204 114 131 178 160 110 77 191 72 131 109 120 182 141 138 194 68 160 133 84 124 108 152 130 172 96 109 160 63 108 105 112 105 189 122 
91 134 126 75 136 147 209 33 188 123 56 138 131 194 140 139 44 127 169 168 105 124 173 83 131 163 152 47 102 100 90 93 86 119 123 85 123 132 88 133 105 77 178 157 104 110 137 123 171 34 227 78 100 115 131 144 78 152 84 59 172 191 119 130 109 147 50 75 140 42 54 128 95 90 196 79 128 133 87 134 77 161 81 32 146 101 177 101 112 159 172 77 56 76 153 114 118 158 83 100 
73 177 107 78 159 131 168 116 177 140 125 122 122 158 133 202 161 200 143 152 53 135 66 106 135 57 133 86 165 116 124 23 170 199 178 116 166 131 206 204 230 88 98 177 153 210 153 169 152 110 111 168 181 37 157 107 76 94 180 188 168 138 102 105 123 204 139 190 63 128 74 122 108 54 158 204 123 172 161 113 99 118 51 163 137 171 99 192 201 145 202 103 137 168 63 121 119 152 113 189 
55 127 158 88 105 69 175 106 116 104 77 132 226 134 33 124 97 59 48 158 129 153 174 58 184 85 152 224 117 111 133 110 54 176 120 175 90 119 156 243 171 196 232 172 143 190 121 155 81 131 90 121 96 167 103 139 178 138 114 140 135 57 158 163 120 87 127 157 56 158 203 117 114 202 107 149 83 171 169 187 152 120 140 108 208 57 122 132 119 149 212 116 180 121 146 69 135 93 111 122 
7 119 108 98 146 66 195 156 133 134 38 79 149 129 128 103 167 49 202 130 87 142 166 149 111 151 70 92 185 92 177 215 203 114 159 120 148 151 109 90 165 151 94 195 74 86 169 111 111 71 107 103 197 103 144 160 193 93 141 93 73 136 62 106 157 103 107 179 96 148 124 222 58 183 146 135 66 119 76 72 148 101 205 108 210 95 142 178 93 94 116 92 86 83 170 151 126 111 139 166 
206 197 117 113 160 136 84 134 128 207 153 182 184 112 79 111 93 177 128 77 161 54 125 72 139 141 73 198 97 120 148 144 98 145 127 112 81 66 130 141 217 124 137 92 148 107 175 163 61 142 195 101 113 129 109 111 99 170 95 118 166 127 140 185 130 116 172 159 84 43 113 166 174 116 104 89 142 30 130 105 116 72 124 108 89 102 200 162 198 124 83 157 140 103 121 91 99 131 201 204 
132 80 84 145 87 150 138 115 125 105 181 164 117 109 145 95 127 146 98 174 123 183 114 89 126 88 67 136 182 102 95 91 91 183 12 84 75 136 101 157 94 217 156 112 68 84 113 171 117 161 178 140 116 151 127 79 137 142 42 71 77 193 104 145 92 158 196 154 161 148 83 128 85 52 137 109 133 148 145 212 74 116 154 116 157 141 112 177 146 169 116 98 159 155 120 108 108 80 177 112 
33 189 205 40 103 119 99 116 101 161 157 150 140 50 88 129 147 73 113 84 131 83 129 221 168 182 101 119 162 144 137 168 75 139 175 196 114 146 159 122 164 128 56 192 189 191 139 121 12 142 109 154 90 156 21 136 137 142 123 143 180 84 189 51 151 168 136 152 157 160 141 118 131 101 120 111 32 142 103 96 128 127 45 120 137 141 114 164 95 93 111 85 189 147 179 50 80 149 96 71 
22 135 90 164 104 88 167 76 137 183 110 109 77 178 178 190 90 176 132 168 115 151 145 168 153 131 45 136 102 112 160 128 121 92 168 84 138 107 76 148 107 167 55 165 145 100 185 113 134 83 168 87 75 63 149 131 182 65 158 152 104 130 183 132 72 172 101 116 116 104 166 125 179 127 80 169 159 85 186 108 97 80 132 158 164 83 128 135 109 131 101 127 150 87 182 116 143 151 107 128 
