P2
100 100
255
155 179 37 135 94 253 144 139 85 133 134 115 213 140 152 116 255 32 249 29 153 45 201 145 22 132 12 207 170 100 209 140 193 4 221 200 137 204 122 198 82 69 41 44 70 158 82 192 236 119 128 210 4 108 66 166 93 72 192 181 197 42 211 182 89 79 99 29 71 204 46 36 193 157 142 34 65 226 244 134 239 29 47 208 65 1 84 133 174 236 109 144 116 11 101 244 0 131 229 214 
210 246 165 70 134 237 23 141 218 236 108 222 254 162 180 184 159 209 33 104 61 12 105 126 216 236 99 112 226 185 204 28 106 178 182 49 76 111 176 149 140 21 95 76 9 246 95 178 150 237 116 198 95 58 82 1 41 54 20 235 210 33 213 103 175 54 241 23 41 172 153 50 7 150 242 72 139 178 146 70 178 45 131 83 227 6 213 180 157 124 214 173 145 99 162 203 36 52 0 161 
217 2 245 231 4 233 147 178 232 251 164 81 90 91 100 202 156 176 3 180 180 113 3 126 158 164 211 17 40 61 22 80 29 137 63 98 6 114 26 121 172 104 29 212 135 8 125 29 239 43 230 150 39 250 196 253 45 114 160 203 129 206 31 6 67 32 94 174 205 26 122 223 128 146 244 105 67 5 147 5 26 206 153 94 246 89 29 199 48 78 11 83 181 128 135 227 28 99 106 96 
68 46 84 163 206 144 249 7 221 158 99 152 72 182 193 118 206 200 100 68 81 98 22 184 37 88 208 39 158 139 194 40 202 137 180 151 190 73 186 127 82 188 137 176 250 33 103 25 222 182 59 57 138 8 103 43 229 7 51 185 76 233 3 196 109 146 53 39 133 96 252 192 204 144 106 179 117 40 75 110 122 246 131 218 115 51 252 89 208 24 222 108 37 196 32 197 126 119 144 226 
200 208 146 1 231 27 245 112 185 1 226 152 75 169 46 190 148 118 197 208 129 139 228 191 110 134 191 187 164 10 166 33 132 187 15 247 50 97 81 253 206 183 1 220 115 3 246 138 104 223 116 1 34 209 234 89 215 157 0 58 243 66 252 48 232 40 69 219 201 244 106 94 108 29 45 96 61 178 176 81 139 167 4 184 58 21 165 124 66 84 208 32 80 14 227 81 129 187 132 45 
196 10 225 94 124 211 172 63 250 159 219 160 11 43 203 160 139 216 183 22 47 0 44 218 182 12 49 58 103 178 102 250 133 142 43 54 195 217 109 35 209 181 173 84 252 54 83 250 112 83 163 135 237 247 142 30 233 193 212 190 248 29 218 250 144 126 254 4 71 239 42 37 169 163 46 18 245 150 154 8 246 140 200 98 214 111 161 161 106 44 132 117 62 135 211 114 100 236 4 216 
69 209 122 130 170 94 237 172 170 218 160 161 153 252 45 96 243 52 123 121 154 195 169 123 37 41 21 103 101 78 222 1 5 82 40 213 28 149 92 146 212 91 110 110 118 27 118 109 216 182 91 99 181 81 184 213 30 12 244 210 91 17 226 3 119 148 205 80 90 186 26 48 7 12 198 239 108 150 47 199 169 76 180 137 195 197 232 225 50 94 197 128 56 126 140 41 195 29 36 60 
71 226 197 109 101 240 85 244 52 176 211 95 78 44 52 28 40 218 182 223 34 110 81 238 158 42 36 96 232 101 149 100 191 168 159 124 51 255 213 115 38 91 185 146 80 105 209 87 51 144 184 231 202 139 148 221 158 154 85 89 138 165 95 79 135 67 153 119 249 23 45 56 4 7 172 203 43 166 82 220 149 25 41 203 131 89 13 91 2 252 239 81 47 211 136 25 179 64 89 33 
69 89 7 236 46 188 149 115 106 191 11 184 55 195 105 221 146 81 187 6 132 121 226 34 46 138 112 26 73 118 194 71 41 10 10 157 25 52 101 77 176 238 182 80 159 103 242 131 65 217 232 4 226 51 102 143 105 190 6 33 135 46 113 126 36 255 101 35 163 31 136 189 184 48 23 255 85 159 204 64 92 226 193 204 238 169 184 163 255 27 37 221 63 113 89 113 15 139 151 173 
225 125 214 128 172 39 199 165 219 60 71 28 140 5 194 88 182 16 57 62 15 135 204 73 208 173 48 188 118 88 222 184 216 171 241 98 217 218 236 114 163 218 128 10 123 63 170 69 204 112 166 207 24 142 1 8 196 131 121 85 127 211 148 12 243 238 126 117 196 30 243 243 18 189 144 203 178 231 153 204 194 3 192 78 56 125 126 103 226 203 94 164 207 16 220 218 15 64 114 190 
155 203 180 210 37 70 126 39 78 238 159 186 186 96 74 3 108 32 169 58 63 181 96 122 73 108 29 56 79 162 237 0 219 245 43 155 233 133 63 16 253 136 119 240 175 133 44 90 168 140 11 88 4 223 182 107 147 144 11 54 3 102 175 113 241 78 195 166 239 111 68 236 239 147 30 231 141 189 64 193 126 201 184 112 118 51 239 245 45 15 233 20 79 252 188 132 111 57 184 115 
83 173 25 17 10 98 85 233 86 172 218 149 152 107 31 166 27 74 177 24 8 8 88 206 237 143 100 131 24 145 97 125 211 62 106 230 253 203 110 125 78 40 30 99 248 88 33 47 29 100 194 238 171 171 6 131 182 59 163 96 111 134 109 55 187 83 64 232 122 40 29 147 54 156 24 104 236 16 72 74 248 122 25 93 227 80 37 6 209 102 77 185 145 55 178 119 161 81 247 197 
255 123 18 187 67 4 217 122 146 26 28 145 115 57 141 105 204 9 205 186 201 193 41 25 64 118 109 58 239 251 52 225 3 94 241 72 63 20 114 185 227 61 252 223 230 90 46 95 166 165 139 57 113 72 201 40 246 60 79 12 28 148 63 84 237 193 101 135 13 133 226 187 91 74 78 101 109 45 59 217 13 68 194 90 50 127 84 82 46 217 105 71 148 13 106 225 54 35 117 26 
21 85 73 46 105 18 222 25 158 191 149 183 239 16 193 138 93 207 239 243 10 213 94 202 36 101 35 44 185 135 22 49 1 212 20 108 143 230 155 124 24 136 111 27 236 105 114 47 11 130 69 234 18 0 176 110 102 174 147 227 60 0 27 106 9 19 106 224 225 15 229 191 114 214 107 123 169 33 106 117 191 250 35 245 70 166 161 4 91 14 98 7 234 99 230 172 30 98 101 112 
113 39 216 114 152 184 94 82 211 41 223 30 75 174 95 114 108 236 164 31 9 57 250 83 141 230 116 12 11 214 26 237 228 77 226 177 140 222 149 2 104 53 102 60 33 118 188 153 156 192 215 64 140 18 211 226 5 195 74 87 214 235 147 208 182 29 98 26 207 158 166 177 111 30 112 124 50 148 155 18 67 179 46 72 87 54 184 247 74 191 59 151 249 174 81 245 79 22 129 255 
147 174 134 255 113 82 196 78 62 124 36 197 205 206 138 9 173 47 252 149 161 152 156 155 186 30 147 247 66 89 143 192 148 98 95 144 138 75 172 249 206 144 72 140 129 60 222 174 168 40 17 58 42 24 29 78 70 52 49 107 29 92 73 93 14 138 29 147 172 3 139 10 195 234 90 59 135 125 220 15 48 205 58 180 80 27 38 19 235 103 234 231 62 160 33 183 112 45 131 239 
195 232 68 82 221 220 103 12 166 119 142 210 62 212 164 52 98 129 222 163 59 46 80 8 92 13 174 6 49 53 125 163 145 100 66 62 169 157 248 238 164 99 139 228 218 241 29 12 13 140 155 158 50 30 254 55 25 234 100 87 58 187 187 173 87 57 238 95 61 81 13 199 15 208 79 57 55 169 174 114 104 109 98 169 181 31 60 240 253 217 90 142 213 154 78 154 179 171 181 66 
163 35 175 254 85 19 127 140 39 101 248 90 243 127 176 107 135 177 36 143 119 88 121 102 183 147 20 189 64 40 94 41 23 52 2 153 230 20 72 88 56 186 138 117 19 132 82 91 245 249 105 141 52 89 238 163 142 163 125 243 155 25 80 26 69 77 97 0 226 198 202 91 180 244 104 1 60 91 128 240 6 143 186 167 77 250 97 122 70 223 101 51 3 199 19 57 121 245 47 216 
19 113 22 222 53 155 183 235 223 199 220 249 193 14 62 246 235 31 57 193 150 164 97 24 89 85 99 12 218 64 162 36 177 183 207 56 17 177 142 246 50 64 164 161 209 35 148 111 154 45 193 73 176 179 43 123 160 111 38 172 230 127 130 140 79 158 13 217 225 70 76 20 228 214 90 142 107 226 157 156 41 30 217 60 162 227 164 127 250 239 137 72 32 19 22 125 198 125 165 15 
187 79 112 145 158 74 246 229 152 210 40 187 70 32 245 129 192 26 9 252 189 158 14 107 52 182 237 167 120 117 162 142 98 88 189 35 75 158 53 114 218 214 73 237 94 32 72 113 53 21 37 234 103 125 142 185 120 176 39 254 53 66 240 22 242 198 70 178 125 108 134 248 1 46 193 171 4 223 248 129 189 232 116 82 156 231 162 72 41 67 23 140 39 219 150 157 153 2 212 137 
108 63 209 129 188 64 4 231 16 2 228 217 133 47 107 108 88 127 54 87 181 111 192 40 233 38 80 209 177 188 165 15 110 162 16 89 141 129 244 143 107 224 88 116 240 76 64 41 76 9 136 241 131 19 211 148 167 176 23 174 232 54 160 154 106 213 207 217 2 28 11 225 87 53 231 202 174 50 187 193 42 111 166 145 168 87 197 197 142 124 104 84 69 92 149 122 251 236 220 135 
217 130 19 75 97 232 89 10 4 95 143 77 157 57 57 1 35 66 188 41 200 196 52 103 227 217 91 142 218 124 73 21 218 113 161 135 25 134 14 36 40 96 224 222 0 151 89 254 148 93 48 157 208 237 105 86 45 89 150 248 116 245 196 85 218 28 162 205 135 163 65 81 123 139 134 11 143 43 251 95 188 15 194 10 13 158 70 240 14 42 213 44 98 135 68 214 252 196 177 166 
112 132 174 88 245 195 109 222 145 32 232 98 126 255 196 22 193 58 5 51 154 41 37 32 42 108 93 48 191 239 118 99 38 215 46 103 2 102 133 61 74 157 140 5 119 71 99 132 36 201 108 158 214 67 108 190 139 134 172 47 138 207 50 46 28 30 52 46 114 17 111 233 142 17 145 235 57 10 191 209 27 171 113 244 180 13 92 199 196 22 200 15 120 248 184 245 11 201 150 99 
196 118 222 158 226 68 88 231 200 59 32 158 104 17 173 110 96 46 87 79 213 79 190 230 108 253 109 19 153 113 138 110 35 201 133 94 117 181 255 170 143 149 55 191 49 188 7 174 170 47 165 42 57 202 221 71 182 235 118 120 147 156 174 53 53 135 150 50 72 218 238 42 117 83 72 146 202 133 247 167 139 29 37 247 45 233 157 58 11 144 220 216 118 3 144 12 127 106 90 56 
80 118 133 182 29 156 147 25 49 111 190 196 127 227 102 200 83 218 24 56 83 11 181 231 89 26 26 77 156 172 118 66 0 146 134 145 20 2 176 26 124 6 78 143 4 184 46 152 172 15 236 113 133 218 53 20 159 74 224 227 80 193 38 218 158 54 141 0 158 77 146 201 12 70 141 38 36 68 165 208 147 52 33 237 53 184 181 200 161 64 157 225 236 62 246 43 130 43 28 230 
207 239 22 117 85 184 240 187 207 25 79 32 112 234 82 197 118 158 17 188 163 148 138 51 12 120 214 248 142 92 44 62 214 204 226 207 30 199 182 35 114 7 125 142 127 229 215 65 40 78 244 56 55 78 241 133 139 75 192 225 2 31 226 39 80 80 93 176 109 43 56 204 87 208 70 253 212 165 160 32 114 50 132 3 105 138 167 134 37 63 244 100 147 37 56 190 180 225 112 5 
157 219 217 45 191 216 143 119 208 218 236 186 174 196 58 7 150 123 38 111 99 71 10 186 28 228 89 179 28 107 103 7 167 229 5 186 188 138 60 35 153 245 110 145 34 87 246 103 72 106 249 243 68 104 250 174 117 48 188 86 135 247 60 62 34 77 183 90 23 120 173 4 221 66 165 101 36 36 200 222 45 228 5 165 167 7 130 180 12 36 67 202 182 70 79 75 100 247 123 93 
191 166 165 141 219 225 167 219 39 93 42 138 182 175 96 13 48 92 217 122 210 71 97 144 199 18 180 105 97 248 50 15 138 68 3 182 193 223 183 178 26 157 82 23 250 106 25 26 64 30 107 63 101 118 36 101 51 210 29 54 196 129 101 150 248 12 187 86 190 216 12 24 169 240 224 132 179 154 159 243 224 17 193 188 168 32 78 147 195 135 180 160 62 195 111 40 85 228 34 242 
134 37 39 157 250 239 14 205 243 40 75 125 253 21 241 10 20 237 206 67 112 208 242 64 22 104 24 84 126 234 92 35 176 132 246 174 209 77 137 26 178 8 161 147 79 126 162 179 184 246 86 1 57 64 149 88 60 98 217 137 177 18 229 137 197 250 107 96 80 174 68 56 80 227 189 222 198 42 127 76 136 37 5 225 114 243 227 108 52 224 77 34 209 237 101 189 172 87 149 135 
35 14 122 192 67 181 95 50 103 152 81 81 47 165 247 61 6 67 114 119 249 161 179 9 243 203 151 61 219 129 113 122 98 29 81 36 231 197 149 84 213 122 60 35 187 92 208 209 21 168 45 133 246 24 44 186 190 0 115 79 3 164 50 220 42 140 249 74 185 86 135 30 111 95 7 73 51 56 152 60 127 172 152 133 175 134 53 142 111 247 148 223 176 117 11 46 98 172 144 25 
76 107 27 194 216 93 197 119 54 114 220 224 141 235 215 159 250 135 20 241 239 113 183 131 181 123 138 42 72 66 178 93 108 161 9 47 127 211 236 120 195 65 15 216 173 20 86 237 89 172 66 72 144 42 13 188 23 210 218 3 49 238 188 92 40 143 145 227 94 185 211 121 95 107 31 113 4 214 4 26 113 205 158 57 56 70 143 27 117 12 1 167 169 46 224 137 226 73 114 17 
163 70 131 222 3 244 138 46 200 236 61 175 19 100 239 86 54 215 70 207 40 189 132 108 239 122 169 187 230 42 113 122 186 10 206 100 5 22 77 120 28 34 206 113 117 245 14 93 233 72 170 9 14 143 185 187 72 10 87 32 7 43 18 156 80 54 78 224 165 22 122 185 97 46 237 104 225 41 221 86 105 170 184 247 139 110 129 242 154 45 172 61 108 4 170 95 13 192 5 33 
88 127 206 134 142 63 203 201 36 167 192 16 243 172 32 215 171 8 249 160 94 197 28 194 177 52 113 244 122 2 136 129 62 196 214 16 172 249 15 144 142 16 231 117 151 102 33 53 169 5 150 219 55 183 92 40 96 124 66 167 233 242 51 89 76 209 35 219 196 167 11 108 46 46 196 229 206 34 32 236 10 71 245 43 203 30 180 113 65 101 192 147 149 126 149 50 77 161 233 251 
254 178 247 53 138 143 243 193 80 209 117 30 25 221 195 101 204 66 230 124 193 62 219 173 143 92 130 54 251 177 124 61 62 140 96 77 184 2 66 75 209 154 226 44 199 78 118 15 46 245 39 48 105 30 47 192 0 58 65 30 166 39 181 65 25 116 63 71 34 208 106 205 201 110 51 133 106 36 118 195 114 101 27 141 252 146 69 63 203 123 165 9 203 180 229 207 238 53 137 154 
150 253 86 35 163 21 88 48 85 134 165 114 52 204 190 239 234 125 169 4 76 177 117 94 92 218 21 5 62 84 56 0 167 14 87 120 254 167 218 102 7 91 167 242 54 56 28 72 26 156 186 69 144 201 199 138 58 102 23 41 4 28 80 93 67 25 246 7 117 77 213 233 232 243 231 221 232 11 215 139 184 119 68 7 158 71 109 210 156 190 21 242 72 62 74 20 108 59 78 171 
178 100 45 192 204 230 60 190 132 227 135 245 47 124 117 227 105 157 140 229 40 95 184 2 94 58 21 163 188 122 214 18 45 125 120 128 216 57 1 98 0 209 189 52 135 224 62 167 200 178 53 67 46 246 195 209 72 141 21 13 139 91 246 141 88 223 192 225 1 120 193 11 185 67 76 214 94 196 171 216 48 164 134 140 208 104 231 47 89 61 192 148 28 47 105 35 120 229 212 120 
10 0 235 168 71 47 87 97 107 15 39 87 28 222 200 199 41 91 138 135 4 12 126 27 187 245 136 235 54 92 78 224 152 20 155 35 25 189 66 237 251 132 122 253 122 237 230 118 241 84 205 243 247 90 160 144 87 186 202 240 179 33 218 40 18 236 57 224 232 253 169 196 7 187 184 185 62 251 109 141 105 192 84 151 231 202 20 232 104 197 188 29 243 101 118 43 53 46 22 149 
200 213 7 80 189 22 246 250 120 173 197 108 89 202 73 141 76 230 10 210 182 82 239 49 84 109 132 58 200 191 58 215 207 92 117 120 114 208 52 126 57 109 203 194 129 84 64 122 70 141 43 175 142 163 75 49 233 250 168 115 49 134 37 196 204 37 86 189 247 34 252 38 60 129 141 13 61 115 0 37 171 190 86 145 71 114 33 77 88 238 219 98 228 80 163 63 90 11 233 100 
53 3 74 47 190 227 192 250 199 216 31 26 252 175 90 42 110 89 104 154 217 50 8 223 139 251 64 10 119 38 133 52 185 225 198 162 101 59 24 251 87 76 114 70 71 225 248 32 71 171 49 10 238 239 114 98 139 178 72 187 151 202 67 229 1 140 227 115 108 75 169 162 118 72 10 189 83 124 97 79 121 18 0 109 72 83 169 159 43 89 0 75 186 35 244 127 31 250 87 142 
76 148 135 129 18 124 126 167 229 122 251 62 178 0 117 207 32 118 0 72 189 200 244 237 185 234 199 198 135 160 32 91 213 155 40 7 192 249 195 22 243 20 190 89 32 107 87 189 25 228 141 174 153 177 239 169 43 137 25 89 150 95 94 244 250 243 228 232 239 234 213 75 18 97 27 159 80 88 27 131 233 0 177 21 19 119 142 230 101 61 20 49 48 120 56 46 103 1 41 175 
53 64 237 3 46 16 156 216 192 157 32 182 34 66 89 229 8 67 172 194 238 183 229 157 57 142 181 117 116 157 86 122 8 74 100 198 244 158 30 215 7 73 47 12 14 30 104 220 249 82 96 46 126 54 166 166 167 154 213 87 46 87 230 221 66 224 41 248 161 170 199 45 245 86 50 220 228 234 193 155 72 179 162 232 185 190 219 6 41 78 123 58 194 190 5 111 1 43 213 122 
138 170 42 26 253 110 190 29 94 178 84 3 219 218 175 217 139 37 119 249 208 98 237 32 27 236 66 22 65 224 172 251 196 203 206 225 170 222 136 45 123 153 60 34 215 104 99 105 129 181 125 175 216 9 230 69 50 42 21 96 95 61 120 185 97 33 79 233 241 88 223 165 206 59 93 177 47 98 143 7 179 144 37 179 77 38 138 222 88 32 164 212 247 122 233 28 207 28 113 141 
192 173 66 12 90 166 147 42 36 83 215 234 10 19 53 112 248 27 186 193 55 119 3 152 57 134 0 251 214 8 245 116 242 30 148 53 241 20 102 216 219 233 16 30 112 247 221 84 197 11 119 105 184 15 238 80 34 185 76 171 255 158 247 222 213 117 182 144 124 192 115 196 71 71 171 190 73 65 223 14 118 233 56 66 99 239 85 52 161 85 103 8 185 233 129 214 57 104 121 185 
44 229 82 59 30 232 173 131 117 85 157 17 4 158 60 211 107 52 48 163 86 81 48 45 80 92 102 38 131 113 115 68 91 19 220 159 35 231 195 139 208 157 143 229 163 165 8 34 191 239 136 157 219 108 54 179 35 91 238 229 169 176 219 74 202 49 58 23 239 11 162 38 200 85 14 200 207 113 11 0 166 170 88 250 138 86 13 22 136 33 202 14 195 128 67 249 191 28 143 237 
138 156 95 225 142 207 243 169 214 98 60 222 42 44 213 178 156 173 47 107 145 115 184 110 14 3 137 234 101 155 61 95 163 7 148 221 35 199 179 237 104 116 175 243 163 192 198 135 193 34 161 42 211 114 236 146 107 91 177 61 253 169 81 35 212 249 175 114 104 161 46 119 98 93 219 84 10 75 84 156 143 231 249 247 83 163 212 77 99 32 63 232 123 123 194 168 180 221 51 69 
54 27 27 172 128 65 94 96 207 215 172 86 54 198 31 128 47 209 113 35 65 212 185 105 71 116 189 245 166 33 254 111 74 206 21 182 239 92 160 142 54 220 198 166 141 130 1 232 143 13 249 212 32 69 4 25 243 89 95 191 229 36 58 89 106 209 206 175 230 244 34 154 176 29 244 76 127 85 66 205 252 35 88 68 42 221 222 146 64 33 170 99 115 255 179 137 65 117 81 21 
179 232 157 248 224 209 75 98 234 126 167 252 47 169 181 2 119 46 48 221 204 238 51 245 204 47 221 31 191 165 120 32 121 115 135 234 46 127 11 0 90 175 44 86 148 123 184 21 176 45 220 54 242 43 212 60 194 5 92 240 217 194 21 254 29 93 233 41 76 246 60 226 177 12 219 219 166 190 114 166 223 51 20 115 224 89 194 21 215 235 9 137 146 200 54 65 79 172 180 169 
231 252 213 76 166 74 59 147 179 115 224 115 195 151 125 165 199 99 205 225 125 227 34 140 252 71 13 159 101 113 154 212 148 192 2 12 238 49 44 22 106 248 33 138 78 45 1 172 151 71 208 104 250 228 146 21 82 169 63 42 126 200 82 58 234 30 57 122 174 159 202 193 194 228 86 29 206 26 63 74 191 200 64 169 39 136 0 170 189 56 162 174 121 88 38 37 129 229 242 41 
102 212 21 227 250 149 115 164 179 8 195 191 10 248 37 113 139 109 212 150 201 182 224 51 160 152 173 62 5 44 48 173 219 153 194 159 184 82 240 132 230 119 3 159 232 38 114 38 224 141 1 36 230 155 249 189 218 197 9 109 238 172 24 123 230 116 136 10 144 204 33 115 247 173 229 144 146 225 51 138 40 227 194 68 252 253 17 185 150 142 111 110 255 121 80 3 115 145 138 235 
100 103 147 196 225 69 89 6 245 141 82 88 206 230 123 115 23 248 247 151 76 8 183 65 85 36 69 252 5 3 151 123 34 193 154 253 40 88 205 201 14 176 166 98 42 151 202 71 69 182 230 122 155 14 227 215 133 159 129 86 69 81 42 134 155 78 191 240 115 107 89 235 0 165 250 130 182 176 23 159 68 103 196 11 228 243 137 191 104 188 169 33 46 169 219 142 191 6 124 24 
179 65 99 223 165 151 194 215 157 20 172 152 42 93 8 139 22 236 167 50 208 14 153 252 171 77 53 41 46 224 23 219 225 228 32 78 244 137 228 202 173 160 179 204 224 109 0 150 206 169 185 168 26 150 238 124 103 176 50 155 139 4 138 202 5 96 28 91 211 27 120 189 226 213 130 120 49 70 95 24 63 190 157 226 172 167 11 63 240 173 221 21 135 146 240 136 73 185 103 44 
28 149 198 100 61 29 77 136 232 175 230 23 221 69 193 147 55 83 136 82 225 210 215 246 125 65 120 39 115 130 7 96 22 166 13 252 127 65 162 34 160 62 7 193 76 194 70 17 40 241 188 34 57 10 220 164 235 129 164 26 55 224 46 113 121 6 103 139 171 60 46 101 89 50 143 78 104 77 93 152 105 178 249 10 188 107 28 166 245 123 113 238 245 87 232 149 175 204 84 102 
226 127 129 113 185 147 160 30 185 11 170 78 196 209 188 170 81 28 106 246 124 201 195 10 105 32 88 178 41 148 133 139 186 196 209 151 224 214 127 54 129 157 152 172 21 125 255 248 164 77 58 158 159 151 140 189 250 192 203 194 35 111 107 108 171 48 169 240 61 29 226 84 42 83 115 124 223 110 114 50 236 224 201 108 180 134 236 209 125 19 1 5 129 86 133 239 31 185 75 200 
221 110 217 92 74 181 215 72 62 29 119 220 126 106 123 109 183 229 223 70 0 247 78 101 78 245 252 81 208 164 225 155 40 0 253 140 109 28 164 255 96 82 132 166 129 238 160 26 97 154 41 24 238 36 175 37 195 222 195 41 224 72 221 217 22 202 230 241 145 57 197 36 8 73 89 98 212 191 93 9 152 82 215 122 229 181 231 158 255 6 71 54 39 43 217 234 121 213 41 123 
119 52 105 29 221 12 118 202 189 96 51 65 59 140 68 0 172 242 39 161 32 248 0 171 212 229 120 194 96 26 22 47 129 180 117 234 210 181 178 31 35 202 235 45 160 247 124 199 175 6 140 76 19 150 63 108 67 4 128 6 217 47 6 85 253 141 34 232 40 84 230 103 46 188 103 116 156 63 118 29 92 90 234 7 211 248 146 132 100 163 100 165 114 20 34 183 26 245 117 31 
192 11 212 154 151 163 61 207 122 123 146 142 202 45 232 138 202 79 108 114 213 228 25 176 111 209 65 153 28 90 172 128 190 219 160 93 184 59 3 238 101 157 156 140 25 65 139 133 25 95 199 18 199 159 75 84 242 230 30 16 208 84 23 219 45 216 241 237 99 217 121 21 107 217 175 57 88 169 128 145 228 194 77 126 204 62 20 55 62 201 43 159 125 15 83 4 127 1 47 150 
227 215 3 137 165 120 204 82 52 244 126 170 103 2 82 76 133 189 170 195 138 227 31 234 56 177 216 32 99 42 1 186 52 197 112 80 53 216 67 108 116 145 202 209 82 169 90 144 146 213 143 75 114 120 140 181 13 7 206 100 149 112 134 219 60 219 52 178 251 109 202 152 140 135 213 182 84 11 112 111 156 233 175 127 120 36 197 244 255 56 187 148 156 215 111 93 179 99 143 95 
254 164 241 46 197 211 71 165 110 149 120 249 237 198 241 7 240 19 88 77 179 214 74 70 167 239 189 41 196 122 44 11 186 24 90 143 95 210 177 242 175 244 68 110 222 132 193 102 142 177 32 105 222 143 49 25 198 116 107 148 107 156 203 70 5 187 106 98 159 68 22 233 146 50 167 197 3 237 142 133 79 107 113 56 173 197 152 12 124 160 157 58 22 242 84 132 104 57 66 126 
193 85 80 176 78 25 17 158 19 199 111 210 16 182 68 85 174 21 241 175 25 157 54 232 14 181 0 220 223 154 149 182 176 185 15 212 204 118 173 16 88 122 147 107 97 149 233 218 200 218 179 138 214 94 254 231 200 202 74 58 158 85 50 84 195 66 6 13 53 249 123 8 109 166 163 154 245 151 174 19 134 28 124 109 150 80 176 236 207 248 105 35 223 231 143 36 155 234 200 82 
201 139 206 8 87 149 39 63 81 105 59 76 62 217 49 148 95 185 10 64 186 223 232 213 155 69 158 166 87 37 53 207 156 251 252 28 111 119 90 59 154 122 113 81 86 148 206 228 41 144 124 135 165 39 88 205 165 194 41 251 166 40 149 177 148 49 206 177 84 246 148 12 75 79 40 175 252 102 105 193 248 163 23 86 11 60 132 206 244 109 143 154 157 115 182 27 106 115 165 25 
69 24 96 107 145 183 223 97 246 126 15 134 108 125 8 164 179 188 135 63 202 75 216 224 46 6 113 158 44 14 224 109 199 206 60 200 35 169 129 24 67 129 195 104 25 144 31 166 158 154 183 30 80 161 114 11 109 66 222 117 234 33 139 225 165 169 64 144 31 39 21 42 97 34 200 245 46 100 220 120 30 0 220 192 29 171 49 79 90 118 192 59 160 137 205 92 225 40 80 58 
105 216 125 67 237 246 174 136 129 99 65 205 34 74 35 157 187 73 58 188 9 85 167 43 45 144 78 219 99 92 190 128 216 196 193 135 201 200 56 113 213 13 140 202 30 92 181 11 196 41 29 151 237 5 140 166 109 254 11 76 189 38 40 218 192 7 108 239 211 100 145 51 250 173 114 78 17 53 246 84 245 3 194 150 123 194 255 17 48 80 185 36 107 208 190 236 254 134 88 12 
29 194 26 195 150 187 25 212 122 244 49 37 3 73 1 43 1 190 60 120 123 184 2 66 194 108 139 99 134 59 124 112 90 32 16 18 51 93 2 153 216 85 234 244 255 131 207 3 106 88 141 228 64 175 29 14 116 48 145 200 95 111 182 160 138 221 190 12 22 14 70 242 213 193 121 136 96 37 24 32 0 34 49 1 7 224 245 72 143 117 22 92 54 106 58 127 163 169 131 0 
162 239 204 75 97 137 154 122 57 79 235 174 68 162 156 208 226 50 217 162 213 142 122 132 68 128 130 235 21 106 118 60 90 61 196 138 205 103 184 34 250 172 57 162 54 115 59 126 149 12 2 169 50 203 63 227 139 199 248 154 84 138 40 213 232 102 222 56 198 3 44 130 31 19 121 254 82 179 98 67 62 38 198 184 179 181 8 136 210 32 13 1 149 208 8 242 72 236 90 224 
16 254 121 125 0 232 110 233 117 186 37 81 203 251 42 173 157 97 145 88 36 225 224 249 58 16 136 221 8 47 229 66 227 93 253 176 79 85 201 157 21 232 39 164 135 185 130 206 99 254 87 129 204 231 60 91 147 41 37 87 166 20 28 45 69 56 202 186 11 47 122 87 8 124 185 86 182 118 73 32 145 28 158 67 82 153 90 170 196 29 66 114 146 17 163 20 118 69 201 137 
166 227 29 58 30 234 186 27 125 51 51 131 142 230 26 43 173 199 66 221 96 242 222 228 32 230 105 254 209 188 195 151 210 117 113 15 66 213 19 74 97 210 75 210 90 56 60 170 151 28 163 193 136 148 244 42 46 117 15 100 80 60 83 102 1 46 28 41 45 119 134 220 32 19 254 51 56 47 94 34 240 160 180 3 15 49 170 8 225 178 27 180 133 42 89 123 166 219 23 123 
55 255 115 198 50 9 222 42 127 11 106 38 253 136 78 158 131 127 248 11 23 133 201 6 14 229 105 236 116 66 50 166 135 75 168 183 184 44 6 254 138 42 76 49 70 61 79 129 162 57 121 234 177 199 75 64 166 241 125 89 28 229 163 235 201 31 255 189 134 125 229 53 169 18 212 238 23 151 65 155 50 180 223 199 55 22 218 227 93 184 218 77 25 30 168 19 106 97 117 65 
139 184 70 26 115 4 170 240 186 213 156 128 243 13 160 200 225 201 66 65 92 1 199 18 236 149 214 190 0 23 218 79 189 36 83 30 10 240 139 19 156 74 63 242 14 72 197 226 199 113 229 9 69 124 13 98 204 172 142 114 53 213 238 225 97 98 52 175 162 143 96 230 134 162 102 127 224 6 198 131 197 69 142 252 70 66 226 66 178 33 55 222 215 9 226 135 18 126 156 120 
112 35 88 140 20 20 34 115 114 254 63 196 52 20 251 48 167 213 251 93 145 217 44 77 12 3 100 204 145 189 250 157 34 179 252 175 122 170 251 83 118 225 185 173 181 107 108 160 209 157 119 60 82 91 20 147 46 249 164 214 173 203 6 146 210 99 4 69 230 147 95 254 78 223 189 135 19 38 116 181 193 246 221 149 136 35 246 234 34 163 6 252 130 167 178 58 159 222 254 41 
207 239 23 71 182 149 251 158 152 176 78 121 189 102 110 122 215 118 154 136 71 38 245 6 230 121 59 155 153 48 152 197 113 173 236 145 90 134 129 47 255 22 253 219 68 96 201 9 10 65 118 90 66 69 175 83 141 111 29 169 11 234 60 42 69 38 113 144 184 61 25 161 129 45 165 235 165 36 28 234 140 162 196 77 195 55 206 162 162 249 39 18 111 248 61 213 88 36 148 87 
117 218 7 199 114 185 32 82 74 182 119 6 191 200 6 204 164 149 135 50 85 62 203 166 177 192 114 113 205 112 141 132 153 158 68 95 92 135 182 181 227 6 116 221 230 248 24 16 156 129 134 233 181 63 56 92 16 203 11 224 67 237 186 28 97 143 248 47 207 7 74 138 13 254 240 91 62 39 9 73 3 166 11 73 26 184 20 83 61 66 194 160 48 146 179 141 68 3 198 40 
25 204 151 49 223 174 142 69 162 140 177 156 1 13 117 164 103 87 46 67 95 181 232 30 50 141 41 195 239 218 105 222 35 52 37 210 222 168 253 212 224 104 208 168 87 69 136 38 201 121 22 31 108 15 0 134 205 50 106 98 252 187 59 113 127 195 206 186 46 178 188 62 73 127 148 101 161 136 125 106 38 54 93 30 242 65 18 233 67 134 214 238 68 183 136 100 223 19 240 211 
200 233 180 182 59 55 170 123 74 87 214 103 7 25 187 247 203 242 134 37 32 247 247 148 60 141 82 66 74 105 206 84 116 46 253 98 10 229 135 154 39 98 214 69 16 188 160 202 170 145 185 17 198 3 232 160 71 96 253 201 36 25 57 49 41 0 5 48 72 81 238 46 152 64 30 95 165 126 55 145 83 189 224 23 28 116 176 79 119 20 229 181 224 23 118 216 46 93 78 254 
203 16 137 243 173 190 18 217 248 168 89 132 63 198 12 40 99 170 57 171 88 212 11 50 148 7 160 193 137 154 10 134 152 50 89 59 3 237 112 130 226 54 206 165 18 255 88 18 29 90 216 141 120 32 185 37 121 189 15 149 61 170 107 189 23 122 147 81 165 9 6 215 142 56 114 139 149 12 186 87 89 76 7 22 213 53 233 49 154 200 143 99 245 221 133 224 63 54 206 62 
107 163 134 206 89 199 89 106 141 178 117 120 103 8 253 160 91 255 127 247 245 184 205 57 52 57 58 74 209 114 88 177 215 80 9 174 15 42 82 159 134 228 154 51 236 93 222 12 64 180 247 242 86 44 129 133 97 198 243 56 73 147 119 150 63 73 147 60 4 233 235 155 162 18 140 180 121 176 225 92 105 36 44 126 241 221 44 178 59 231 95 190 3 162 254 17 92 27 89 245 
246 67 58 173 104 224 133 118 61 89 113 145 78 203 215 76 80 12 48 127 81 19 23 39 220 104 233 99 77 134 76 123 245 73 68 68 0 146 219 27 86 175 179 91 96 195 17 124 231 115 50 184 146 219 217 141 175 126 166 245 253 133 217 83 215 127 21 144 149 45 10 52 184 213 231 6 23 220 37 129 106 233 249 216 138 142 154 186 32 250 27 148 50 41 70 20 246 197 84 79 
9 190 171 144 213 98 153 77 216 87 86 39 179 79 60 89 148 98 113 4 211 255 166 73 72 13 148 85 99 10 174 114 224 188 208 169 55 87 223 44 47 195 215 98 155 168 135 211 189 115 35 154 220 119 96 247 195 228 106 71 69 109 253 169 205 232 174 20 45 77 231 134 145 179 206 40 49 90 90 207 198 44 224 108 211 231 154 209 228 142 136 231 148 104 140 116 176 150 0 2 
8 84 240 119 10 142 158 188 196 115 15 243 49 17 228 47 184 133 111 63 132 119 126 80 179 98 108 4 149 220 172 75 229 82 17 179 105 120 62 221 204 112 1 179 204 69 17 134 102 26 239 246 210 109 224 147 8 195 152 43 107 147 49 51 66 211 139 74 127 248 46 156 183 34 106 165 81 216 197 139 88 177 202 197 85 66 220 221 165 131 89 243 208 196 83 94 250 68 147 152 
7 27 67 121 14 167 93 9 231 241 236 196 151 247 6 85 8 66 121 242 94 206 34 65 172 136 161 79 197 123 155 131 199 229 57 253 238 162 114 121 114 17 59 162 208 53 18 4 109 183 27 97 45 168 2 73 150 23 138 209 14 242 33 225 112 74 200 89 54 106 117 44 38 156 175 25 57 252 247 7 182 36 249 203 186 99 143 38 14 80 163 134 80 89 90 104 97 8 103 187 
78 110 20 254 212 112 48 146 97 73 224 215 175 141 255 36 141 114 148 69 213 212 26 189 230 232 196 114 118 202 26 93 148 156 90 5 27 15 15 5 84 26 44 88 125 201 67 136 4 231 61 103 224 34 91 73 170 224 57 40 212 213 167 198 88 35 109 128 164 172 102 81 76 175 47 154 188 31 35 147 137 130 68 26 100 164 234 227 77 14 120 81 84 33 143 140 233 22 83 208 
246 3 110 182 118 213 147 212 68 53 158 118 7 235 66 228 166 177 74 16 11 114 9 245 10 92 230 188 28 53 50 39 130 59 140 148 95 65 143 234 193 80 203 6 190 170 170 75 254 214 219 220 211 102 188 62 19 143 105 86 84 82 111 150 46 218 109 112 146 162 246 26 187 224 214 80 126 252 125 15 162 39 252 157 39 130 61 255 241 161 250 226 84 53 222 120 29 5 130 207 
163 4 97 106 88 34 238 202 25 68 135 7 219 63 247 4 253 160 47 108 237 139 168 142 136 224 204 85 112 118 214 207 129 113 32 143 164 208 203 36 215 14 118 228 218 56 239 206 10 231 85 60 153 196 29 207 24 97 45 194 97 197 166 237 140 10 233 128 131 252 157 141 67 150 46 120 97 106 70 72 64 102 27 78 95 228 163 104 80 54 153 216 148 199 243 57 142 24 35 152 
135 94 161 81 181 90 214 93 185 28 21 129 79 121 14 10 181 233 49 71 114 200 116 19 25 175 109 31 34 32 65 209 23 25 35 233 28 31 221 23 145 172 238 1 57 93 230 53 200 64 184 33 127 100 159 251 23 142 143 195 130 211 124 249 104 59 136 245 79 83 106 114 185 24 27 68 135 19 144 110 205 45 230 107 103 178 220 45 248 189 182 11 32 1 220 167 147 48 245 159 
84 114 201 58 206 91 178 32 21 164 136 86 60 14 47 240 79 152 172 69 185 56 222 202 95 251 164 145 181 232 4 143 51 107 143 232 0 163 1 104 157 59 85 187 62 211 123 92 78 178 29 249 146 19 60 207 145 171 143 48 81 195 15 185 248 253 115 60 161 29 236 208 198 55 164 71 39 169 114 78 252 101 218 24 204 11 38 189 141 95 96 98 95 99 182 85 117 116 65 191 
19 171 147 119 56 138 94 148 82 159 21 133 24 45 77 82 12 134 243 122 228 143 137 82 178 130 186 249 188 254 0 207 41 66 64 60 146 225 78 6 244 44 30 47 228 144 251 156 60 125 252 187 123 56 220 193 54 223 145 0 116 21 144 106 72 29 181 161 253 166 14 203 34 77 187 68 103 140 154 39 217 242 100 130 93 115 50 22 243 102 74 101 101 209 208 96 23 3 190 182 
157 109 98 88 26 125 54 48 0 231 160 199 54 22 20 245 56 189 90 117 132 244 227 199 168 53 18 74 158 168 66 32 233 0 51 159 211 121 136 204 230 22 52 193 129 79 188 126 36 249 60 240 216 239 15 24 217 11 76 216 29 245 161 185 109 114 33 171 83 55 178 53 126 26 47 236 5 125 17 160 29 35 155 168 15 86 65 148 226 114 231 157 1 41 196 109 208 253 52 178 
8 202 66 114 46 65 220 242 1 137 101 62 191 113 225 101 48 208 52 172 80 2 177 190 33 102 246 46 255 170 197 96 249 74 14 3 20 238 188 137 188 104 150 214 169 174 178 237 137 194 154 204 84 222 111 227 92 169 111 134 217 122 46 142 36 10 43 186 205 249 133 103 234 125 100 220 224 22 67 213 148 24 199 186 30 54 83 219 163 248 12 50 114 124 11 148 61 185 37 56 
83 175 201 84 203 199 92 181 253 159 222 118 150 238 203 103 138 95 89 96 33 66 111 73 57 103 14 72 127 14 124 183 41 16 156 115 39 221 143 141 210 199 140 243 234 77 252 194 245 109 11 238 40 82 86 115 219 200 178 180 218 16 195 220 19 228 164 66 210 212 192 52 187 94 221 74 66 198 189 103 228 55 151 109 81 177 130 48 188 217 178 123 148 28 132 6 21 208 29 76 
98 244 27 44 145 241 9 113 88 158 231 250 169 252 241 248 189 31 11 226 26 145 84 71 130 68 17 240 115 2 197 221 86 186 150 217 27 104 32 135 44 232 120 156 111 11 72 126 71 53 130 105 54 13 50 158 87 208 106 107 176 157 127 230 6 77 141 171 133 98 135 176 133 27 146 24 218 103 28 234 231 21 250 156 8 220 251 235 186 55 209 173 0 29 63 214 21 168 169 100 
16 194 126 209 193 234 156 56 206 93 73 137 31 8 97 184 67 171 216 52 138 146 44 146 52 5 116 106 140 232 222 47 79 101 78 191 173 96 71 14 159 137 77 160 142 158 163 114 35 169 196 187 194 136 11 191 207 154 36 188 5 203 148 171 214 235 221 255 254 8 162 194 49 47 187 13 233 35 158 250 25 98 171 245 181 135 1 110 167 17 127 161 76 252 251 55 39 186 242 95 
161 107 75 134 96 175 115 157 200 188 126 106 240 75 123 172 146 197 69 128 225 209 138 89 59 90 118 199 179 233 123 48 242 30 38 50 253 150 212 243 81 25 132 218 207 148 5 220 16 79 74 12 124 198 228 25 34 15 194 222 205 68 143 176 194 163 17 254 164 166 253 143 201 148 209 10 43 132 229 57 59 122 80 173 59 40 82 129 73 207 71 121 88 242 99 197 118 44 210 86 
151 168 166 60 149 45 23 82 126 154 105 184 232 241 118 79 56 234 193 249 217 136 91 254 85 248 43 14 246 85 181 252 100 5 113 60 252 168 110 70 90 42 89 190 185 147 207 237 208 152 172 252 12 82 121 245 152 234 32 52 112 81 44 211 20 6 18 180 40 47 25 53 237 203 109 232 106 191 11 138 104 53 236 178 209 230 149 154 2 161 48 0 74 215 11 206 123 218 94 251 
164 224 152 229 150 39 191 208 230 126 137 129 147 13 2 101 252 165 148 191 97 191 73 182 158 193 102 81 218 238 74 249 141 110 31 234 3 235 150 147 203 38 158 72 167 92 159 128 208 76 91 24 30 76 169 21 116 63 234 102 138 144 106 157 186 210 38 235 174 94 59 188 109 195 211 38 17 224 209 48 40 2 150 2 34 195 134 177 16 240 19 151 210 222 233 65 245 210 143 85 
248 81 97 131 29 119 10 117 88 228 91 204 138 77 240 113 239 92 45 176 210 142 122 213 84 167 84 218 154 33 21 49 36 150 13 100 11 238 77 108 135 49 217 45 222 79 183 91 4 18 73 80 63 109 165 70 140 66 63 18 73 109 31 8 212 129 176 90 28 177 172 171 65 160 5 148 208 229 198 198 232 142 163 121 188 163 67 26 184 64 40 134 128 13 6 113 85 198 3 243 
251 60 222 66 195 137 249 165 229 4 139 59 253 87 163 177 234 202 111 51 178 213 112 113 130 177 32 225 23 107 141 207 68 0 227 230 30 179 44 189 84 110 3 130 94 40 149 149 238 20 21 248 244 119 145 84 31 51 39 213 229 197 199 94 198 197 136 195 85 143 101 152 204 142 254 191 84 195 201 163 198 145 231 26 164 226 222 181 163 47 70 253 132 224 142 142 178 114 153 143 
1 6 191 70 165 157 94 142 41 123 81 106 85 24 14 176 96 136 110 65 244 254 126 247 212 10 87 153 43 41 133 140 198 151 54 27 201 158 145 211 2 9 82 119 132 218 144 103 66 251 8 162 169 216 53 209 96 163 183 47 147 157 70 175 201 167 170 138 237 121 25 49 238 148 3 235 110 234 55 115 168 45 71 25 218 184 160 251 195 147 202 166 9 221 22 95 203 144 4 26 
140 104 14 162 107 38 125 209 183 40 163 8 157 146 193 66 51 70 24 109 213 71 15 142 139 141 233 80 246 16 184 226 134 176 81 225 151 129 167 65 239 206 221 139 38 247 126 107 250 88 207 120 155 134 178 73 21 180 220 193 231 145 161 59 56 64 246 168 69 66 167 121 237 90 62 42 71 60 41 184 188 60 232 224 26 72 196 210 102 99 56 101 19 190 216 244 138 213 246 136 
245 152 0 164 122 251 108 72 90 252 207 67 35 21 92 207 4 193 119 159 142 156 190 143 179 230 105 56 3 245 2 125 192 96 183 223 242 214 77 62 102 186 58 51 92 5 68 58 18 121 87 247 74 189 93 175 173 97 190 132 166 84 205 178 191 174 246 237 223 245 12 2 147 187 208 70 94 244 226 188 141 159 74 252 147 217 47 195 184 218 61 203 93 238 54 9 121 185 242 134 
21 4 238 209 149 112 219 92 206 201 2 138 249 231 252 26 17 168 38 152 61 31 7 141 12 99 104 88 203 18 168 82 0 228 10 234 120 227 229 202 113 178 16 250 152 151 54 216 1 206 120 222 53 90 114 76 5 128 74 88 107 205 36 91 235 215 17 168 162 135 65 224 115 131 81 1 198 117 230 121 185 11 34 52 177 19 13 72 158 7 55 27 50 83 0 235 16 230 107 85 
120 157 179 141 209 81 107 137 159 18 10 144 172 207 78 76 122 200 131 19 123 15 116 132 71 165 175 248 97 55 236 200 73 110 118 129 219 71 64 91 250 138 255 59 92 36 214 248 232 142 136 128 52 56 128 213 143 44 144 6 179 97 11 194 85 149 251 110 84 127 201 249 224 226 241 125 215 72 9 246 14 53 204 177 231 92 178 125 100 180 28 57 129 247 135 218 183 176 137 182 
