P2
100 100
255
91 47 9 205 186 106 160 66 7 120 37 99 28 209 87 88 192 200 241 105 154 114 183 129 214 51 233 141 107 62 145 190 20 191 17 63 215 220 43 102 202 126 34 32 214 121 17 109 174 181 223 127 22 113 183 222 59 200 210 43 246 251 124 231 7 163 236 210 99 10 210 110 192 149 98 247 159 64 107 80 125 6 68 15 126 142 173 16 63 249 187 190 0 86 23 138 167 69 39 219 
69 138 97 52 223 3 28 93 178 9 186 134 241 2 21 85 182 70 121 150 74 12 46 50 199 7 31 79 49 171 117 81 81 74 136 111 27 112 93 92 37 120 243 195 238 78 0 183 149 255 174 2 178 108 36 182 51 251 104 49 28 72 3 94 156 165 220 233 39 194 164 214 85 60 180 55 172 85 178 15 118 123 236 49 100 129 155 173 184 40 164 125 243 127 60 135 81 45 251 131 
148 142 52 15 99 45 153 25 209 114 134 139 107 108 253 14 132 233 51 233 54 25 225 114 209 56 35 207 157 115 179 9 206 108 218 60 91 63 189 165 219 50 129 29 11 120 41 13 151 11 174 243 131 253 25 127 56 140 56 135 58 120 75 29 141 254 166 187 3 192 143 98 37 37 174 17 239 227 61 204 31 61 173 147 171 197 47 114 3 71 161 214 206 75 225 162 79 197 153 223 
164 92 216 189 163 12 64 25 173 203 194 33 247 232 41 51 16 177 117 64 66 181 220 213 132 174 65 223 140 119 130 49 30 95 234 224 3 235 123 80 5 82 21 127 40 29 104 24 147 122 168 228 96 21 171 165 23 190 121 54 36 242 94 131 4 164 221 79 185 28 250 176 27 89 133 75 250 88 137 136 246 160 124 183 183 110 169 69 207 161 101 221 119 93 125 141 244 47 20 207 
126 55 60 174 87 207 187 128 37 82 142 119 122 84 18 247 128 74 212 96 51 245 129 216 72 213 193 69 13 126 122 8 155 189 194 69 118 50 148 129 239 43 216 245 194 191 40 119 121 160 207 118 134 33 50 164 78 205 42 235 226 93 104 91 161 30 75 234 253 68 117 199 56 89 198 73 216 33 65 209 192 238 229 138 145 179 2 45 33 200 63 164 25 255 160 99 44 101 1 193 
33 78 63 17 142 17 167 96 194 41 253 133 198 115 144 91 85 59 234 71 193 15 2 141 211 217 78 109 34 67 26 147 158 219 10 82 181 8 202 87 186 168 228 169 135 172 184 218 172 239 126 245 67 139 97 2 251 189 95 5 254 153 134 246 107 14 185 204 214 71 93 208 175 158 227 132 199 44 98 94 139 123 227 67 245 100 181 155 27 168 0 179 154 226 43 82 10 181 158 238 
231 31 168 228 14 28 56 166 213 103 85 203 221 111 113 174 99 36 236 6 93 73 233 209 48 109 205 225 89 206 67 34 79 88 103 97 19 198 232 120 4 102 143 100 216 85 194 43 200 99 60 60 74 218 118 2 253 87 222 226 198 200 41 50 123 236 79 151 252 119 210 142 24 9 115 236 255 110 205 63 67 49 37 147 131 183 22 34 225 99 118 185 134 132 29 81 103 83 5 190 
50 187 213 220 3 103 202 91 68 56 68 12 250 248 228 56 6 37 85 235 1 129 239 55 95 71 169 205 226 13 26 191 201 119 152 121 23 29 162 180 30 254 97 94 136 220 246 137 115 95 169 109 60 67 22 31 36 190 43 7 75 61 184 27 3 235 184 194 61 74 176 19 103 92 137 164 33 85 225 231 249 16 83 229 11 25 177 177 240 38 182 146 66 6 138 61 200 59 248 210 
29 2 70 204 161 46 37 243 180 139 196 95 239 244 119 197 237 94 66 40 71 0 133 108 114 181 73 162 33 157 33 116 155 183 174 55 255 41 131 138 87 182 76 155 217 187 186 206 39 133 148 205 101 40 183 45 234 186 61 45 57 25 175 170 214 47 234 205 63 235 94 64 23 236 50 94 192 119 221 153 213 250 216 166 136 138 94 185 202 95 31 41 165 107 253 162 100 19 175 24 
54 0 186 34 69 149 21 178 238 102 143 119 201 251 15 50 122 195 233 6 73 145 163 65 84 66 43 20 161 68 104 204 214 101 206 118 38 0 214 27 43 187 160 130 7 162 130 166 53 100 46 168 115 244 183 244 57 172 151 173 90 123 62 212 124 88 137 243 22 40 57 23 172 220 197 136 250 154 40 141 91 228 22 224 125 151 47 186 67 31 37 49 145 195 250 106 43 43 235 185 
85 30 5 93 72 167 195 8 39 120 253 44 68 2 223 244 53 89 158 203 163 175 129 21 188 241 52 91 113 24 165 120 118 163 50 156 67 219 92 45 158 50 185 10 146 104 159 185 250 26 186 64 148 137 113 220 14 118 74 25 103 34 67 92 25 187 70 69 147 43 167 3 23 62 204 102 37 189 49 28 231 91 97 237 165 252 25 125 28 89 79 76 225 209 187 155 13 32 61 22 
65 70 90 173 251 210 219 144 80 128 183 93 184 90 123 132 155 166 49 144 200 237 12 239 152 64 94 223 203 9 148 187 88 76 144 94 100 250 206 178 59 64 22 127 13 115 178 208 88 43 70 124 167 185 187 218 226 230 134 78 65 175 179 231 113 125 139 125 31 109 245 97 201 120 62 205 188 8 243 223 149 33 136 11 110 32 30 204 99 131 136 249 208 174 209 194 169 8 93 235 
156 160 54 33 76 59 30 188 56 163 76 97 111 20 96 224 82 46 123 28 110 0 12 231 244 11 6 170 65 207 107 235 216 27 227 109 121 235 229 237 36 230 182 44 254 212 122 252 11 109 30 111 12 215 47 83 250 162 122 164 164 227 112 156 197 194 38 175 166 10 1 45 42 17 167 103 82 35 23 4 209 116 61 162 14 242 206 245 219 62 59 234 126 47 122 68 128 178 242 105 
126 217 253 252 176 152 177 189 25 74 186 50 20 190 170 136 233 116 0 45 126 254 252 131 44 97 84 237 61 103 110 131 179 218 114 173 11 192 138 83 34 8 78 78 71 200 104 91 192 133 246 86 15 133 107 17 2 22 69 43 28 116 155 117 108 27 38 4 59 203 103 253 21 221 64 239 71 95 154 163 223 132 241 236 249 227 138 212 116 133 104 78 13 194 83 138 98 91 198 182 
147 191 81 10 249 151 118 6 193 108 213 116 150 215 30 81 136 128 79 105 165 61 237 246 201 74 61 171 227 111 77 0 120 113 136 152 181 226 179 191 31 238 121 48 122 106 115 106 133 220 12 191 62 53 182 40 163 3 2 234 186 215 204 191 149 25 3 4 200 10 3 59 88 128 34 177 9 61 240 243 47 212 55 0 150 63 82 240 142 183 201 146 67 76 86 78 226 139 155 55 
145 101 218 210 52 222 48 100 102 84 182 227 67 93 81 139 193 3 99 173 137 35 128 159 53 45 217 97 114 137 199 17 252 3 136 151 191 151 99 100 154 190 105 139 76 23 106 241 21 255 114 194 23 195 72 164 117 87 235 228 7 75 41 111 132 84 1 255 250 42 245 225 13 24 74 50 249 64 162 126 42 70 227 80 189 137 106 153 205 172 214 106 153 88 203 74 72 131 167 151 
35 207 116 70 104 150 231 88 125 221 245 209 217 129 4 210 218 85 172 224 113 152 51 97 123 28 183 118 206 177 188 58 52 18 252 25 139 147 76 23 154 180 108 7 137 16 169 167 223 194 13 165 3 133 73 124 121 127 28 179 202 250 209 26 73 226 54 121 163 238 40 228 149 233 73 176 34 50 180 174 47 161 166 211 67 32 40 3 254 32 76 43 38 234 147 247 112 1 215 209 
21 22 26 187 12 220 189 68 107 40 60 124 66 158 30 60 232 16 252 24 249 237 192 193 134 45 32 96 20 134 223 229 184 0 164 235 234 82 62 49 159 180 143 246 0 171 192 136 42 0 27 243 72 230 121 86 149 180 32 83 2 24 246 223 180 84 98 227 239 162 42 194 34 25 35 172 17 255 195 138 252 25 236 233 170 164 58 43 27 128 36 72 186 232 100 193 43 169 12 54 
96 149 193 83 34 207 232 66 229 93 19 95 213 144 61 178 53 11 35 57 37 95 61 207 230 63 36 111 210 198 157 228 34 40 175 253 96 234 52 35 89 216 197 76 81 118 6 3 167 229 66 8 93 13 31 176 176 250 108 73 41 140 107 143 63 214 229 90 99 216 250 95 146 2 25 73 135 191 151 51 93 254 4 143 76 147 245 55 124 189 80 62 219 173 72 13 45 7 239 49 
81 242 84 93 227 19 16 22 71 80 157 235 68 102 45 0 149 36 9 201 153 58 151 229 158 206 206 171 228 190 92 62 102 22 79 182 2 100 117 147 142 165 66 246 52 203 88 248 215 80 187 63 64 109 161 125 133 162 62 39 95 230 62 24 87 35 23 35 254 15 243 88 17 57 166 28 65 94 7 114 203 226 252 103 63 59 219 254 75 64 11 210 166 156 134 181 243 14 171 57 
238 28 154 141 215 3 7 115 227 94 93 71 179 250 194 156 19 158 175 71 129 149 18 55 175 230 100 53 37 192 226 23 127 12 250 115 60 33 116 200 236 145 254 202 72 165 39 208 54 16 186 157 15 249 253 241 65 220 88 158 8 20 28 216 145 125 106 245 154 39 143 119 156 156 132 139 0 160 132 245 110 28 113 60 107 221 244 198 214 158 220 14 72 88 38 12 174 142 137 176 
120 132 87 249 115 215 37 14 164 97 138 91 137 69 200 229 92 8 198 107 49 190 175 69 232 59 224 122 103 210 104 80 72 140 4 185 107 156 16 190 169 198 134 168 251 48 45 132 200 74 84 46 124 88 224 40 49 95 110 33 193 192 199 231 169 29 130 51 28 166 58 254 253 47 31 159 212 80 37 18 110 145 105 171 23 209 173 46 183 226 156 37 24 215 156 69 124 106 231 159 
49 111 224 122 233 192 227 171 28 177 204 13 37 239 33 93 165 239 93 108 5 219 158 141 126 244 141 173 38 167 119 235 16 16 101 50 123 13 54 245 122 202 87 69 114 57 7 122 45 38 126 101 162 112 4 140 197 83 126 14 210 101 107 241 108 5 57 8 68 127 143 53 71 110 7 141 123 154 230 170 94 32 81 172 24 41 8 74 206 207 230 57 250 129 248 86 128 208 29 247 
242 158 154 41 132 251 121 254 214 241 1 5 231 141 42 64 135 244 56 43 160 88 106 227 84 134 93 24 76 79 225 133 142 99 247 133 16 215 44 27 163 181 90 67 166 63 57 106 234 61 54 72 16 21 64 83 141 82 224 232 105 182 21 198 179 192 124 128 167 33 159 238 59 105 3 170 146 217 214 184 245 181 237 239 129 163 47 14 61 115 170 48 125 106 125 108 249 251 221 175 
83 197 100 243 157 53 247 186 75 67 11 216 24 12 61 153 102 252 173 218 131 133 183 24 77 168 23 117 92 6 52 179 8 241 244 147 26 131 17 159 218 229 13 4 57 27 52 112 12 83 230 138 99 139 223 90 236 122 129 151 182 53 166 188 151 109 46 137 75 1 141 104 176 249 20 171 90 184 229 5 111 215 28 230 227 65 213 141 105 59 247 175 66 39 33 7 164 216 9 110 
247 92 231 238 73 243 174 213 6 133 60 230 114 94 17 193 137 85 28 199 70 92 27 129 12 36 53 59 103 195 13 38 225 41 112 169 225 172 181 158 9 162 131 128 90 164 202 254 85 37 150 16 157 103 101 204 1 80 215 231 165 108 127 89 86 71 7 48 44 64 187 203 210 98 167 57 165 181 97 62 79 255 11 2 179 75 191 178 154 197 50 108 239 132 92 242 160 101 93 72 
202 37 158 32 165 217 231 34 49 236 224 98 28 173 27 206 6 107 190 53 18 160 224 10 30 100 170 3 36 228 18 153 164 107 190 184 116 67 38 157 175 208 205 203 153 195 84 166 215 149 219 45 117 116 122 118 187 165 65 128 128 170 140 37 236 72 243 177 176 60 189 135 111 159 129 25 94 221 155 201 32 55 240 255 167 194 247 183 73 139 35 134 134 203 78 183 231 140 85 124 
41 123 199 34 100 36 54 233 80 207 90 169 217 149 228 142 231 49 166 103 133 23 118 101 35 71 217 59 53 243 71 11 177 10 194 123 214 159 223 12 34 155 215 98 132 197 46 208 61 48 236 133 245 80 31 68 184 193 107 155 127 91 206 234 112 134 140 50 128 211 148 26 174 14 38 131 76 96 48 17 200 204 64 54 159 71 0 41 219 24 111 45 240 237 180 186 235 232 118 73 
227 155 239 119 203 244 26 129 28 55 14 108 127 196 25 157 13 222 217 232 157 187 108 82 174 104 5 235 6 223 73 202 112 169 180 173 212 175 14 122 132 187 146 119 101 111 40 156 77 34 236 77 198 231 187 67 187 122 48 16 234 145 227 249 55 106 222 196 81 90 139 187 134 182 151 121 184 123 16 251 106 42 7 88 106 18 240 52 78 176 227 197 105 30 19 79 147 168 62 15 
202 164 206 12 218 110 80 201 136 79 66 100 227 81 188 172 141 42 237 1 190 233 165 134 115 214 119 66 218 200 9 71 246 110 187 83 211 120 176 81 117 1 71 214 111 23 76 153 5 74 192 246 223 97 41 154 196 27 59 180 232 10 79 126 20 165 108 87 9 35 129 234 132 74 212 246 19 46 117 202 40 252 43 90 219 244 27 251 176 81 98 106 78 216 7 229 220 157 104 85 
154 85 116 122 108 205 211 91 59 38 182 171 24 66 80 26 74 77 82 128 163 134 147 82 82 141 248 47 63 43 44 155 5 232 199 70 168 17 175 253 96 62 24 254 77 4 190 96 112 201 159 102 251 175 234 76 136 67 141 5 202 201 33 223 197 209 145 45 68 30 79 213 194 184 186 105 96 96 132 23 89 13 39 249 86 130 102 153 161 69 111 212 205 29 6 238 222 189 172 128 
2 6 167 151 222 189 198 3 250 202 112 155 35 24 223 234 72 161 244 19 31 59 180 132 204 117 183 25 81 147 226 68 32 99 71 188 41 203 154 22 177 8 226 67 84 43 222 115 80 5 9 20 187 11 88 255 184 53 97 34 199 94 170 156 236 21 3 4 100 250 106 157 134 56 133 245 54 101 166 153 116 90 132 214 136 135 47 166 197 85 155 57 155 126 94 233 18 212 253 97 
169 170 217 31 89 123 143 26 118 147 190 163 105 43 201 150 156 45 129 32 140 102 143 133 132 137 76 71 27 178 28 203 254 238 5 151 15 16 84 194 143 249 251 106 24 187 10 47 178 218 10 251 51 56 223 62 122 126 229 42 185 251 170 45 114 18 136 80 248 140 54 161 0 100 19 212 233 190 233 228 44 33 137 86 170 20 39 239 230 37 211 231 165 149 174 54 58 127 185 221 
7 68 158 202 227 17 42 22 160 192 85 152 238 176 154 130 74 191 146 33 97 243 65 125 154 128 229 220 16 178 64 13 183 40 0 219 162 134 81 192 47 111 77 34 54 42 181 213 208 111 23 62 65 8 168 194 58 47 187 52 42 101 160 42 128 208 215 114 77 198 66 22 60 224 56 68 146 189 251 120 54 127 186 95 122 229 194 146 188 48 231 99 246 247 35 130 29 2 16 234 
13 225 237 247 154 140 123 116 104 32 125 85 239 254 151 82 219 248 126 120 12 200 66 44 46 138 246 42 233 176 69 17 25 172 71 66 126 154 68 46 1 105 240 230 123 175 251 28 143 78 0 27 139 239 138 34 58 76 103 98 234 251 9 79 239 203 29 70 74 13 87 184 174 92 97 15 228 138 180 148 217 162 233 11 84 178 11 41 216 73 61 1 245 99 6 135 194 86 217 52 
130 9 41 242 234 167 10 116 190 196 245 26 14 72 245 185 192 248 87 27 33 0 97 84 150 248 5 74 191 147 194 201 75 249 192 82 129 73 68 11 181 246 1 151 41 74 52 76 79 101 88 78 71 175 74 56 5 78 168 161 149 41 163 179 10 114 183 60 84 60 131 229 44 149 199 110 4 115 129 180 239 163 222 32 56 100 38 230 27 21 189 139 166 254 75 44 24 31 111 30 
234 153 245 40 9 128 162 255 65 91 34 22 117 1 187 164 139 60 224 243 189 137 124 0 228 206 226 131 143 96 125 220 249 90 221 23 225 192 197 245 112 253 199 135 236 205 219 208 250 78 179 24 173 251 153 250 211 1 254 93 249 26 119 26 68 120 78 50 31 72 220 143 3 58 71 55 154 218 82 204 121 61 175 109 68 239 10 86 162 218 134 19 207 215 246 239 21 140 54 40 
82 162 26 186 197 89 201 43 63 227 169 126 14 26 155 28 165 212 242 248 99 216 179 34 124 225 61 240 253 216 209 181 125 241 237 127 81 20 139 106 30 59 86 238 168 138 22 5 58 156 30 68 69 193 119 40 86 120 4 240 135 185 47 213 90 33 9 170 4 240 132 97 48 219 98 196 8 58 213 6 204 65 6 97 164 19 239 155 236 18 147 34 136 155 36 142 207 153 96 117 
24 86 251 125 214 127 44 209 251 240 134 146 233 172 40 181 223 170 74 38 23 62 170 143 75 225 94 155 46 68 255 240 18 198 14 104 23 241 1 217 116 230 0 218 130 159 95 97 123 111 11 68 100 93 118 85 181 245 138 65 218 224 116 143 36 188 73 122 220 29 143 255 178 221 57 121 224 198 15 249 139 76 212 29 196 46 209 234 162 251 207 178 44 225 241 17 179 206 65 144 
39 54 224 64 131 85 8 167 251 57 230 160 26 226 138 192 147 78 130 97 175 100 100 24 101 53 253 72 206 69 28 74 157 184 85 224 18 68 50 63 108 120 149 28 153 81 195 135 202 141 55 230 35 48 65 47 41 182 131 6 126 72 90 58 90 229 239 34 9 69 239 10 171 57 29 149 155 47 209 24 161 198 250 247 73 215 246 221 48 31 213 56 175 125 225 248 122 151 248 110 
176 126 84 177 12 120 177 196 134 143 197 226 252 64 56 135 28 72 56 133 209 18 176 240 171 174 51 101 76 223 234 244 164 89 223 118 83 101 142 146 74 135 191 239 222 159 180 176 175 254 194 10 235 5 76 93 93 88 104 45 5 160 198 140 156 78 22 200 78 225 24 129 112 255 104 49 248 39 103 19 166 37 38 131 186 244 101 35 80 85 68 73 34 31 224 201 233 236 156 232 
0 69 69 25 129 183 72 12 187 214 190 255 39 240 64 5 200 19 20 167 70 143 19 11 213 94 167 173 149 189 13 201 75 95 148 180 117 86 97 139 69 128 134 99 254 5 2 176 139 213 69 108 247 181 146 72 80 254 177 26 4 131 57 81 227 82 217 163 238 25 160 234 179 213 76 156 203 191 6 27 109 122 144 105 197 53 71 214 205 149 68 0 164 213 12 178 218 243 213 108 
52 246 5 97 92 46 122 121 230 224 28 88 116 55 146 36 117 233 19 33 240 39 5 137 161 172 221 235 7 137 225 34 248 183 133 232 205 85 73 129 253 200 207 149 6 32 12 222 168 191 111 186 3 34 16 58 91 151 41 180 31 153 15 177 133 243 90 253 225 226 18 69 161 155 74 223 32 37 33 200 21 115 143 176 123 83 72 112 144 70 177 168 127 111 223 148 249 45 63 128 
99 68 114 18 229 215 8 46 217 162 18 108 249 225 28 0 176 117 151 46 94 10 248 66 192 126 16 217 31 114 216 2 184 202 117 90 68 63 178 10 216 12 212 152 157 170 51 122 71 243 250 110 248 236 106 4 95 110 126 103 87 94 60 0 129 143 192 69 220 209 55 157 16 208 111 27 88 251 34 98 7 184 87 33 149 179 116 58 249 94 209 123 243 38 86 44 117 34 13 243 
254 252 0 98 61 127 245 159 101 127 244 76 21 230 102 159 176 129 67 56 123 48 57 180 29 74 5 184 41 194 242 126 109 238 137 162 12 43 38 37 126 159 119 248 153 210 176 102 229 192 48 221 170 18 215 187 87 134 248 53 119 15 97 92 225 224 217 199 6 151 4 116 104 163 22 197 87 102 12 14 198 209 128 10 13 78 146 4 155 0 108 143 187 45 235 37 226 225 127 68 
171 22 18 155 22 197 10 240 209 69 68 175 252 39 75 234 84 10 64 91 247 149 89 233 195 246 81 0 6 35 250 1 233 55 229 212 74 253 56 43 179 78 232 8 223 38 127 112 46 152 209 90 11 129 91 130 15 19 159 199 12 128 37 237 109 232 174 239 103 184 202 172 207 168 54 94 78 77 11 41 10 123 116 181 205 228 91 155 47 28 235 160 40 153 255 200 164 191 197 63 
57 80 24 50 148 155 7 100 19 32 252 245 94 143 110 179 1 117 174 83 66 123 206 9 228 12 107 109 165 82 248 155 228 201 90 0 34 51 208 243 135 28 12 214 49 177 198 5 200 149 50 22 96 237 221 147 243 26 129 95 190 182 62 156 80 107 64 1 194 114 83 118 127 153 112 210 7 152 26 146 50 204 15 228 250 127 90 195 235 168 64 89 48 141 97 38 98 98 187 241 
20 71 26 158 205 140 67 252 246 201 253 230 27 224 244 36 24 49 105 240 4 83 114 113 124 148 175 217 66 11 217 205 182 159 189 207 95 93 95 191 196 239 253 78 6 135 78 33 66 213 146 177 189 48 168 210 110 173 116 224 155 179 59 14 177 18 151 132 7 177 222 26 2 246 52 59 187 125 120 53 206 232 129 155 187 122 67 155 85 59 22 250 182 88 33 235 20 152 180 27 
205 83 80 112 59 14 158 45 0 151 139 165 77 148 204 251 136 231 251 3 121 143 215 8 162 112 81 122 254 39 104 209 107 123 91 101 134 195 127 133 174 60 39 235 207 218 96 125 88 59 186 248 77 96 184 222 183 54 202 82 236 105 154 78 7 248 149 221 141 129 95 44 216 14 197 143 0 67 55 137 0 70 108 189 16 147 207 2 242 239 196 157 237 82 174 133 141 127 149 165 
118 54 5 50 194 151 180 139 28 54 131 240 21 125 41 130 197 75 253 155 66 27 82 77 150 6 206 172 84 120 107 154 163 166 35 49 224 164 26 221 85 161 47 236 85 184 55 50 215 85 65 16 182 29 102 131 26 77 161 197 99 115 216 212 39 170 207 181 220 100 171 50 105 42 53 12 162 84 235 209 49 150 192 73 229 101 63 204 105 36 45 147 15 109 193 34 79 2 243 70 
25 116 37 26 104 247 11 107 9 139 56 191 31 220 131 58 38 135 227 158 21 152 162 63 182 11 12 217 54 43 45 237 48 159 39 71 62 255 0 70 185 229 235 140 171 105 242 135 6 100 12 180 82 220 50 155 36 192 96 88 114 182 119 66 40 250 242 40 103 45 223 217 224 52 80 73 248 52 69 157 64 41 136 56 72 64 106 160 83 17 66 92 170 38 133 245 156 199 108 139 
15 198 49 235 212 32 255 112 98 25 176 67 247 170 128 4 227 21 100 53 104 9 137 82 209 151 249 78 179 34 123 53 57 116 223 234 115 190 42 220 104 20 170 123 249 36 91 41 69 148 179 125 142 242 17 180 91 146 193 125 232 29 54 55 70 244 212 189 131 38 58 119 87 140 77 223 82 255 215 175 81 143 114 147 212 203 42 107 248 31 188 181 43 105 14 146 215 57 31 27 
74 12 250 189 211 206 24 255 54 248 56 190 207 201 70 31 139 211 156 186 44 193 91 127 186 17 203 9 31 20 119 80 133 90 1 23 50 185 216 21 52 232 192 103 7 245 175 12 158 68 188 194 78 112 110 94 170 77 180 8 141 160 240 142 169 244 130 43 124 239 197 47 148 146 176 242 204 7 135 127 128 123 95 229 142 103 241 82 121 149 36 245 86 253 175 199 151 36 98 58 
127 167 142 14 48 22 253 200 49 76 76 82 12 131 136 255 66 133 90 2 217 251 20 109 22 177 196 118 185 224 112 12 22 247 102 37 3 88 100 176 168 158 249 239 101 215 211 8 177 175 145 16 203 248 223 88 239 221 114 73 204 229 17 77 131 132 174 74 223 56 212 102 40 60 14 6 248 203 253 124 169 222 65 72 15 25 233 203 43 58 107 49 198 234 25 102 171 248 79 224 
12 115 194 105 96 245 245 62 110 219 126 204 210 103 119 118 238 53 111 137 251 41 160 204 78 232 112 70 9 30 226 101 243 249 51 250 47 248 211 6 5 29 248 82 29 64 65 63 198 148 84 66 198 146 51 215 206 135 53 125 123 80 113 236 225 18 158 179 70 129 147 209 140 107 13 191 42 197 145 180 28 76 126 128 125 230 44 125 203 128 22 95 90 142 165 55 235 90 236 19 
13 103 37 5 160 113 97 82 80 246 97 60 12 192 96 98 10 176 233 93 212 197 2 252 251 237 211 114 237 111 33 63 138 117 145 77 214 57 46 182 171 141 113 245 164 154 43 20 9 224 36 221 227 47 59 190 56 159 146 227 166 107 114 210 136 5 72 3 77 29 215 29 113 33 194 62 39 104 237 18 59 226 120 184 236 176 139 66 160 46 156 244 181 38 29 35 140 152 227 224 
131 194 133 233 184 226 176 35 153 14 29 241 138 60 183 100 93 227 243 26 95 3 176 42 120 226 173 171 137 109 69 190 5 84 108 255 248 237 124 133 164 222 234 54 197 192 221 65 162 69 7 167 122 231 4 30 22 34 37 245 85 235 48 204 209 205 13 83 70 233 154 137 47 156 73 155 125 162 80 245 204 100 0 178 210 253 106 118 209 183 66 243 94 208 56 149 179 145 104 84 
69 204 138 174 182 241 138 234 193 148 178 74 76 247 2 90 148 34 249 99 61 55 201 13 73 53 205 72 61 235 135 37 104 214 123 0 135 226 110 40 29 199 112 243 230 49 142 7 166 28 26 47 181 0 197 153 137 254 32 123 120 95 83 160 137 170 54 5 192 22 121 0 61 35 169 179 114 78 242 176 90 144 208 38 47 247 42 117 174 241 249 139 3 155 139 142 164 40 36 34 
20 31 188 199 156 160 120 183 120 247 132 205 229 197 93 87 228 234 133 81 153 149 154 159 25 121 197 159 158 236 210 22 17 185 251 137 210 75 195 112 91 240 93 225 15 223 69 237 173 246 30 249 54 158 235 140 236 135 46 111 139 232 222 153 131 208 174 230 184 125 221 154 162 103 30 71 4 39 162 78 222 246 17 126 151 70 51 18 157 8 125 163 132 23 129 161 78 240 197 78 
224 235 196 19 43 190 113 4 222 232 123 75 88 70 239 97 182 246 163 48 247 90 203 252 133 182 245 211 33 72 199 170 21 59 31 25 231 133 229 255 253 218 238 233 13 128 98 30 117 138 178 245 116 161 4 208 101 62 15 20 139 172 12 12 31 149 66 11 43 51 41 151 46 14 240 10 238 143 70 209 128 112 39 43 91 28 208 147 172 28 116 148 149 6 220 242 159 95 111 18 
34 198 51 230 85 27 138 223 133 203 233 113 54 41 197 10 234 206 169 120 190 73 25 149 10 10 50 67 88 122 221 97 215 223 30 140 148 163 10 200 138 6 236 209 206 32 154 82 55 132 26 139 67 25 132 242 119 220 188 230 86 163 221 252 41 180 167 211 115 39 184 113 189 30 132 133 124 181 76 134 48 46 79 96 166 183 175 76 174 138 113 218 246 128 153 247 133 248 70 135 
10 239 195 62 8 98 215 237 168 185 212 251 133 32 181 247 174 207 144 133 146 29 105 65 180 49 79 20 208 63 210 102 255 110 243 150 72 79 117 35 145 122 42 113 4 35 200 135 177 182 159 82 121 252 110 36 39 118 115 101 9 99 63 172 19 144 88 221 149 241 146 247 251 161 40 246 20 177 30 42 77 48 253 72 8 147 61 52 161 228 95 28 99 214 181 72 132 159 27 75 
170 172 46 225 24 217 187 44 225 13 249 36 235 71 31 194 248 150 230 129 26 197 131 108 242 110 114 16 59 59 44 100 184 65 92 189 172 155 246 212 10 83 210 26 206 114 44 22 71 8 19 33 89 88 57 226 149 231 86 118 205 5 216 21 149 188 205 227 120 99 19 227 234 146 42 62 28 8 154 110 96 229 98 38 157 0 14 99 35 179 78 116 208 105 190 144 154 209 5 178 
234 161 210 155 232 171 116 142 249 149 58 165 20 28 143 48 184 246 126 129 124 118 236 111 240 6 6 13 14 228 87 79 40 210 20 112 154 89 151 208 11 185 126 108 249 202 8 156 224 4 29 203 12 201 169 1 55 69 31 47 95 14 254 35 61 74 153 57 91 20 193 77 37 51 12 241 215 149 38 132 106 251 67 102 153 66 150 254 221 213 6 248 73 91 162 46 96 78 25 202 
187 31 231 183 148 77 250 252 49 69 33 27 231 165 172 31 25 214 87 174 204 244 180 190 146 85 44 71 116 41 145 152 32 202 196 33 128 64 103 240 22 111 46 112 137 145 209 57 190 206 245 104 240 99 198 10 84 142 205 210 95 243 210 52 42 82 134 139 57 201 124 196 206 204 215 185 195 171 147 43 21 179 36 252 54 92 48 93 102 203 195 52 206 145 242 21 170 240 112 196 
131 184 2 67 197 232 254 46 208 126 58 10 189 112 13 104 167 57 56 98 172 250 209 114 152 63 40 197 46 172 214 160 65 13 21 53 205 7 33 77 91 130 139 121 164 81 4 142 182 171 95 200 77 84 225 41 198 158 2 106 215 9 229 85 190 244 209 148 93 238 8 229 255 5 121 122 11 243 95 178 102 0 135 194 134 38 19 98 95 181 247 216 250 71 115 189 32 221 12 186 
55 47 215 178 53 5 165 0 186 171 46 139 119 220 231 207 112 10 16 70 8 154 149 106 175 177 21 173 224 64 232 217 112 57 141 72 34 62 153 123 76 195 152 19 91 159 58 60 170 171 219 212 242 115 0 63 203 157 221 44 139 245 217 45 131 13 198 166 240 25 33 162 121 169 138 68 88 37 121 200 88 0 83 28 70 63 235 251 97 47 141 88 129 161 70 246 1 184 199 97 
195 127 201 133 15 4 107 15 29 29 119 22 172 192 111 204 77 0 55 163 169 139 34 218 89 104 192 21 139 15 179 92 86 176 93 229 23 193 9 223 105 170 200 78 30 156 137 2 138 216 145 202 98 205 122 107 137 207 87 74 127 201 64 58 108 145 71 188 44 28 199 97 161 145 178 6 63 54 34 167 17 186 198 243 29 255 95 52 176 178 187 8 180 29 133 73 163 238 208 21 
231 255 175 70 214 237 246 93 162 220 216 209 4 80 3 152 234 251 140 220 197 95 103 157 176 186 75 226 120 186 192 64 238 206 236 128 85 11 37 164 24 41 244 97 213 234 14 113 224 238 17 160 2 109 95 163 221 109 113 235 219 109 33 146 204 38 22 217 215 110 153 147 73 96 92 16 152 220 244 139 39 175 225 76 33 48 249 125 51 168 2 59 158 119 202 27 160 26 219 74 
169 38 223 17 183 160 249 14 117 0 193 0 194 33 222 100 65 104 209 120 90 149 228 117 224 80 190 132 2 67 88 52 184 171 245 28 82 153 114 249 74 11 45 32 66 11 212 109 205 87 48 105 163 69 38 239 114 69 153 115 195 149 232 76 245 59 211 18 123 164 106 68 210 85 227 43 94 175 241 82 99 127 151 115 122 158 66 86 216 249 202 235 227 149 37 108 80 253 253 119 
168 89 217 74 108 107 101 68 229 5 160 30 209 228 186 211 101 213 116 81 77 10 133 47 194 238 187 190 140 64 98 161 200 176 53 140 45 207 118 130 240 115 168 215 112 248 72 139 51 108 145 189 131 171 237 108 71 247 141 58 51 0 95 110 179 26 243 183 241 115 202 216 250 167 1 233 175 46 232 81 249 46 156 88 3 244 74 46 170 188 32 201 157 97 216 111 240 23 250 173 
203 251 13 20 18 44 120 236 150 154 160 124 198 126 37 175 119 29 85 161 211 154 223 119 26 101 73 159 174 39 22 165 252 141 83 14 253 132 248 123 179 21 55 94 218 36 27 213 238 67 170 85 62 61 192 85 184 197 226 174 191 139 172 240 239 117 20 112 243 22 159 106 55 205 134 164 43 215 111 74 139 67 188 143 10 194 246 225 120 89 119 234 250 0 222 135 117 220 118 143 
3 192 246 201 174 12 201 251 242 158 135 127 172 214 252 156 30 57 32 145 108 153 25 157 81 150 38 72 138 45 169 128 134 45 24 1 151 74 203 24 253 17 101 172 46 26 239 133 19 187 14 110 87 89 104 3 164 19 12 43 67 207 243 12 36 138 86 1 67 41 177 65 116 43 83 107 42 173 122 99 104 189 214 210 49 86 52 40 230 69 138 166 214 144 199 140 131 204 204 109 
140 223 120 202 229 250 159 24 57 45 154 136 20 32 113 132 159 194 90 115 5 7 191 141 76 210 76 247 4 170 6 245 146 48 208 247 245 242 119 15 68 187 17 47 5 115 3 25 185 158 101 168 26 210 175 223 20 234 212 144 79 11 159 36 3 219 7 94 48 230 157 139 254 216 78 184 74 106 221 149 230 184 225 37 20 48 4 101 123 31 208 227 81 88 88 147 155 54 212 99 
170 154 173 153 148 49 13 40 9 175 51 119 22 239 38 236 54 127 122 37 216 224 91 244 249 53 204 122 146 7 8 120 142 178 76 181 52 241 57 148 211 29 200 75 242 85 8 140 89 14 45 89 134 158 163 246 99 149 6 71 186 216 23 138 79 165 221 131 71 69 91 221 219 70 39 39 138 18 71 239 57 14 218 61 157 118 186 148 212 25 145 166 240 90 47 185 173 54 205 6 
135 9 146 51 177 123 169 56 198 233 49 216 119 51 117 166 152 83 41 244 109 189 51 7 207 72 50 244 82 181 40 211 27 14 193 19 173 175 140 153 204 251 82 242 88 47 254 99 92 81 108 98 255 29 160 118 118 21 169 180 18 132 87 188 249 47 57 201 142 252 197 35 89 116 149 51 53 28 101 148 115 151 229 247 0 79 92 222 77 23 93 182 11 19 87 140 172 129 37 145 
51 77 227 143 244 255 192 17 119 95 187 121 254 47 141 112 244 192 36 145 128 88 244 32 167 123 92 189 131 174 163 65 228 232 218 248 73 154 84 49 129 89 255 212 163 49 59 198 150 250 39 135 106 125 166 130 207 64 162 99 193 128 252 247 43 58 128 155 23 128 4 154 218 123 83 131 201 121 242 194 43 31 252 28 112 137 19 93 249 132 17 106 174 137 92 89 115 43 17 117 
93 129 242 224 99 144 84 172 62 244 86 37 215 170 35 133 203 91 229 66 171 10 49 113 240 42 126 196 175 24 109 77 231 234 235 130 241 44 54 245 225 190 131 91 127 51 16 20 18 243 83 205 36 191 106 188 46 163 70 144 167 26 88 6 19 79 23 126 60 94 140 172 180 64 118 21 171 185 105 216 174 191 27 184 179 240 31 197 22 24 219 232 136 4 43 197 130 34 173 33 
10 214 156 66 122 120 24 12 141 79 211 40 197 88 123 163 206 3 38 134 209 137 6 98 82 176 152 196 46 221 163 128 46 167 238 166 108 171 130 201 55 64 57 186 183 31 40 73 218 181 61 20 56 108 149 129 88 3 251 103 4 44 0 227 221 241 28 118 59 125 19 203 237 57 135 165 17 68 198 49 107 121 50 202 122 201 192 14 173 242 98 208 223 211 2 115 88 85 78 198 
81 193 145 92 225 4 47 191 238 33 48 213 38 202 217 30 188 133 244 225 183 79 226 237 85 112 78 2 108 85 94 173 181 90 49 88 55 68 254 162 171 23 244 139 81 227 183 112 167 156 165 218 48 51 219 176 225 130 221 187 105 107 152 58 34 157 45 110 183 45 104 17 50 206 225 216 89 80 203 182 35 83 71 206 30 84 40 128 51 117 29 195 126 58 243 90 221 116 67 227 
92 85 10 228 225 46 130 196 8 73 187 245 164 95 243 52 50 70 53 60 82 126 4 179 159 205 248 162 112 157 220 144 32 68 23 48 40 88 87 150 231 77 20 243 89 127 100 151 145 9 56 252 248 226 106 87 198 9 223 100 217 223 190 188 24 159 33 173 131 184 224 157 240 39 87 136 134 158 55 76 114 33 10 91 231 149 121 205 228 142 146 139 41 204 109 246 219 33 146 15 
138 38 46 196 89 44 27 147 38 12 9 79 182 175 199 227 21 166 32 43 78 165 251 108 58 85 76 247 193 149 191 164 122 119 61 138 135 45 83 142 126 153 205 210 149 111 32 182 229 6 36 142 26 243 26 8 206 108 20 132 143 177 240 183 70 34 31 40 89 117 183 108 104 110 211 64 5 133 185 114 98 13 144 119 16 241 197 45 0 202 78 168 201 58 239 83 8 132 227 108 
62 247 191 143 122 39 171 217 148 4 5 168 56 50 172 248 35 255 161 26 3 70 31 52 75 67 117 161 68 160 245 179 216 100 111 84 8 220 215 180 67 19 70 179 55 70 166 101 203 157 59 74 235 88 61 227 154 126 201 246 23 168 33 84 246 150 216 75 30 218 127 189 94 245 186 207 176 166 32 112 219 172 19 38 107 214 45 245 243 20 33 201 167 226 98 34 39 177 214 93 
214 58 192 132 245 172 247 218 204 134 199 141 134 196 78 125 203 62 245 168 12 139 225 156 154 114 218 169 116 135 208 163 207 184 191 171 41 254 34 3 212 57 77 127 138 188 83 242 222 8 49 108 236 104 127 199 6 214 74 139 93 120 141 144 215 213 196 34 200 162 216 145 83 103 165 92 227 141 31 32 49 9 159 19 15 127 26 213 29 82 187 184 49 213 172 213 235 144 206 178 
80 65 33 228 153 91 20 84 95 104 192 19 153 65 77 145 223 8 69 148 87 230 23 101 208 194 189 209 148 154 155 203 71 183 144 238 154 154 161 210 133 185 224 53 202 130 7 223 126 227 151 38 5 25 49 237 176 154 19 142 93 11 222 188 218 16 57 147 173 230 111 177 217 180 232 30 190 18 210 177 12 239 11 215 97 128 39 56 86 226 108 64 18 199 181 164 30 203 183 121 
71 155 2 218 116 145 152 94 72 48 237 15 125 114 15 223 201 221 220 217 140 104 32 248 141 146 231 238 66 89 120 57 219 251 118 183 23 78 172 194 99 25 29 233 97 48 101 9 164 2 8 255 176 235 205 253 174 163 118 237 111 160 54 45 72 34 184 2 131 60 20 7 50 233 217 83 0 236 142 233 194 56 49 48 125 206 0 178 69 216 58 208 234 60 42 207 48 148 142 54 
165 23 140 139 115 172 108 172 214 162 105 64 135 119 45 120 253 137 8 148 139 34 252 206 206 19 79 247 63 215 95 110 254 35 148 203 149 25 79 107 31 139 184 31 61 82 71 156 71 115 153 109 223 221 81 171 111 57 75 235 30 192 121 183 210 240 207 100 133 156 20 216 83 4 1 35 96 101 111 162 245 8 100 252 203 185 254 44 131 81 99 0 92 155 203 203 64 194 22 171 
69 50 50 209 208 139 167 226 17 18 150 172 165 226 94 7 232 21 161 67 242 158 203 207 48 243 192 251 125 8 111 100 107 47 235 24 144 176 55 224 255 90 9 20 237 32 60 24 85 72 196 76 19 205 240 73 82 238 52 141 221 10 183 99 137 86 121 185 78 89 242 82 239 77 205 199 207 221 250 54 147 44 111 65 130 84 221 40 138 150 226 5 201 24 13 190 241 156 237 188 
141 65 91 231 228 196 78 199 66 106 201 80 49 19 237 13 92 25 100 72 52 150 230 224 196 81 119 250 139 252 132 216 60 30 157 119 199 239 228 219 64 95 218 47 137 189 22 24 251 193 219 14 98 43 21 146 67 178 207 201 8 18 111 19 43 213 133 105 23 239 26 117 114 0 101 57 191 175 145 78 253 143 193 114 13 34 241 236 163 191 167 70 209 82 230 185 148 101 215 54 
131 187 120 174 108 66 41 222 102 35 233 108 185 39 9 101 242 77 225 186 130 110 155 38 187 151 222 245 145 222 152 6 245 19 209 140 153 144 12 18 4 66 37 103 204 245 29 55 98 94 70 227 155 20 158 87 213 49 115 211 50 12 18 60 113 230 198 178 232 118 149 15 104 92 11 54 37 191 15 194 146 166 183 112 11 66 77 98 38 13 174 156 105 64 108 121 25 154 82 113 
235 1 33 90 144 95 86 105 67 97 242 128 179 83 196 221 148 212 240 180 21 42 191 171 121 236 204 37 69 42 144 220 77 167 232 178 218 72 125 193 126 21 132 28 137 187 52 236 131 90 154 97 207 54 72 180 233 249 179 98 134 68 171 148 72 167 198 52 159 73 61 107 165 94 172 155 218 215 3 23 249 214 52 73 117 48 217 91 238 29 120 5 197 19 200 93 115 69 103 29 
223 35 36 139 100 79 40 88 6 195 183 235 39 230 165 146 226 173 135 238 70 178 21 191 97 17 148 230 160 26 254 153 209 33 106 57 85 18 144 96 191 166 163 174 3 34 28 251 208 167 46 91 78 110 3 64 178 45 186 253 187 151 90 21 186 234 27 64 148 80 166 19 20 53 27 95 202 143 35 12 93 178 56 91 92 30 72 104 51 42 236 127 81 83 118 60 95 147 107 42 
48 148 99 70 115 192 6 86 20 237 95 90 161 83 172 10 162 13 118 57 103 59 23 41 108 37 215 185 185 115 240 110 207 210 44 118 106 11 65 179 115 105 149 14 60 62 222 201 134 46 58 136 82 75 164 72 186 228 103 99 85 113 50 157 192 23 102 133 133 133 211 219 246 187 58 156 30 232 52 201 12 115 218 186 138 94 172 170 160 152 243 6 62 34 14 249 105 222 149 164 
145 55 103 163 89 34 216 178 239 235 221 153 19 183 239 64 41 84 221 206 158 71 249 46 43 228 72 94 17 229 85 201 76 17 144 103 140 201 38 74 114 51 117 239 106 106 194 83 238 98 200 216 237 18 163 195 24 26 231 63 255 66 47 84 156 199 136 170 75 250 16 81 246 219 114 93 25 21 144 34 93 184 12 195 108 20 205 118 32 133 19 2 243 190 144 191 18 186 5 25 
98 50 240 243 141 60 216 120 185 58 127 148 242 201 219 160 245 76 166 168 162 154 171 66 103 253 123 226 102 208 223 73 175 3 117 122 82 254 254 15 26 226 57 224 20 63 48 213 155 147 12 86 82 89 165 209 21 51 47 161 150 123 110 202 229 227 93 54 18 17 135 160 19 121 223 95 178 135 207 89 107 181 159 228 114 176 89 145 187 187 15 225 194 69 95 161 30 49 211 88 
1 193 129 112 128 206 77 25 111 194 222 10 153 94 235 233 88 137 155 175 100 164 18 43 35 54 238 70 30 148 29 6 164 177 185 63 104 96 142 177 124 225 145 39 201 48 221 154 60 131 58 183 65 12 15 116 3 236 149 244 194 150 221 21 40 102 68 154 195 251 10 241 4 176 192 5 0 35 244 215 120 78 183 127 243 55 92 200 222 122 204 35 223 237 109 102 118 151 220 134 
252 198 243 54 41 103 127 136 123 21 246 140 182 241 170 218 24 119 188 93 200 231 243 41 86 114 180 241 79 154 99 148 17 211 17 233 221 108 128 23 225 207 202 176 134 95 48 88 155 252 149 105 94 76 27 215 27 3 137 20 36 181 137 97 225 142 160 1 202 64 118 65 79 169 137 134 67 44 39 153 163 246 248 111 205 139 160 234 230 173 56 187 209 109 127 58 128 184 53 248 
28 231 11 8 76 240 115 209 230 7 148 1 141 122 34 212 39 151 157 88 169 53 195 67 117 189 95 62 91 185 80 23 205 242 229 220 46 190 194 139 82 102 68 85 184 89 103 183 34 186 93 182 26 227 93 232 117 136 117 68 116 35 95 166 34 155 194 207 44 55 205 108 247 153 153 241 79 149 26 172 177 36 69 6 208 254 181 196 120 45 237 228 207 111 107 117 206 37 39 37 
31 108 81 187 241 181 85 253 29 53 222 160 110 203 127 12 221 231 122 251 174 43 78 206 75 47 206 197 26 210 223 174 84 214 127 210 43 143 199 128 81 92 128 113 0 233 146 143 36 139 155 122 45 190 230 182 103 26 206 118 175 14 9 19 150 150 25 90 214 132 155 113 171 211 55 223 207 241 133 166 182 210 32 58 228 222 246 196 13 39 240 103 173 190 246 53 108 102 232 141 
195 6 39 87 78 251 212 131 218 64 237 111 189 183 54 226 80 88 202 212 172 48 205 76 157 84 64 143 118 65 185 218 35 90 209 72 178 114 177 136 103 81 143 120 184 230 210 42 10 136 160 126 82 158 111 43 6 34 134 121 83 48 186 44 115 143 94 100 215 131 250 190 229 65 239 50 48 22 125 30 208 108 95 180 210 180 201 42 49 81 202 245 216 48 72 215 235 199 198 53 
