P2
100 100
255
27 155 175 220 113 80 7 26 42 173 203 60 126 251 153 130 210 5 237 93 55 244 239 150 107 217 23 224 28 236 45 17 172 178 149 108 68 36 249 29 152 159 120 148 191 37 222 68 196 197 148 73 76 143 136 46 17 42 12 29 20 230 79 181 90 221 131 190 197 172 76 74 9 123 116 121 133 174 61 33 76 252 10 142 61 28 144 203 17 82 255 163 104 197 224 50 134 136 133 58 
214 30 165 43 31 241 55 135 207 153 120 69 101 248 82 252 214 18 59 247 61 55 144 76 243 102 5 97 224 73 79 82 184 242 237 45 100 17 250 137 244 164 132 248 69 51 123 134 95 153 98 166 182 61 34 147 142 4 110 230 53 235 167 172 144 164 57 102 183 87 51 191 170 148 200 106 187 123 242 210 254 34 212 32 95 216 205 179 227 208 63 71 173 207 244 188 24 98 144 249 
181 134 97 216 14 230 0 36 185 164 116 140 183 35 74 223 167 241 247 22 185 235 226 117 49 169 42 31 11 197 80 185 138 139 35 133 112 149 71 34 235 127 44 41 118 245 246 121 201 255 227 148 109 176 130 206 43 151 158 29 114 208 56 113 16 135 73 76 240 193 14 248 146 229 170 3 122 29 226 102 223 88 192 119 76 251 151 106 78 193 49 255 176 171 57 237 117 208 95 201 
187 176 134 40 138 8 109 138 244 242 166 32 35 250 8 137 4 33 160 0 247 33 246 99 54 248 60 46 38 219 131 24 255 72 39 28 61 105 156 173 137 41 95 83 90 134 227 94 143 245 56 176 84 154 179 225 232 236 102 218 10 68 222 104 125 115 195 34 73 121 142 215 109 6 249 184 248 40 194 236 73 3 159 79 201 84 131 196 111 58 251 0 7 236 112 55 55 211 249 10 
107 91 231 107 115 225 249 210 255 33 65 101 104 67 241 100 196 91 135 160 144 193 187 0 54 207 171 52 137 218 72 107 158 246 136 111 115 54 39 207 251 193 171 39 126 58 92 224 19 103 253 93 17 49 146 82 190 59 8 245 149 203 147 80 234 171 151 218 235 98 151 5 66 118 10 95 27 249 7 103 3 21 219 186 167 42 60 73 235 33 11 30 207 113 198 221 45 230 146 54 
90 44 213 99 156 198 115 142 241 250 98 165 31 123 14 187 41 242 148 240 51 169 74 16 129 71 161 194 168 196 219 244 32 13 0 95 226 62 16 239 218 219 235 182 208 241 22 187 94 1 165 116 176 216 209 97 68 147 156 248 152 167 235 51 18 151 187 69 250 136 210 195 170 35 146 170 176 127 194 93 216 137 64 231 252 187 81 202 159 64 71 250 246 63 249 10 246 236 147 35 
47 220 210 153 214 233 18 150 80 241 184 77 82 43 47 164 203 8 72 250 178 35 231 59 239 51 126 67 69 95 163 240 44 72 37 20 228 170 174 148 38 103 1 52 132 99 107 72 28 161 60 74 33 67 163 65 201 157 117 191 84 187 63 103 91 41 2 193 114 246 22 90 40 255 85 44 177 80 152 210 98 81 218 247 3 166 3 3 159 228 32 218 194 61 163 2 150 129 36 33 
44 154 125 30 143 26 252 212 150 108 5 146 253 40 123 111 214 34 195 51 123 213 196 87 206 168 87 82 7 93 205 137 250 198 192 148 86 13 225 159 224 123 227 104 146 131 207 174 42 167 195 16 226 219 43 106 31 253 238 140 104 176 62 71 37 249 104 99 23 39 229 241 174 162 62 64 253 58 2 183 30 172 240 34 43 63 194 118 148 212 38 68 86 208 163 46 158 123 46 161 
116 92 94 97 163 43 221 103 182 87 220 35 107 9 125 143 55 77 250 7 102 35 220 230 187 243 30 80 24 43 122 62 77 187 125 99 246 149 161 94 238 207 111 251 247 74 215 194 217 198 235 255 36 201 202 121 72 159 225 8 85 229 49 85 218 71 210 47 203 128 113 204 28 49 191 138 84 131 2 27 166 188 208 123 210 177 20 251 109 150 134 249 156 135 128 234 190 22 64 84 
78 154 44 93 237 73 139 40 160 241 25 102 111 69 103 204 48 245 20 253 73 9 19 95 54 62 29 89 101 175 148 186 243 105 70 187 134 186 172 205 199 174 202 97 41 216 137 111 183 59 158 176 29 19 114 215 240 51 19 156 167 11 146 113 16 100 145 106 235 144 141 203 214 26 127 238 222 43 123 94 16 8 50 198 26 251 112 93 144 111 59 255 162 54 108 20 23 134 36 205 
150 143 211 234 185 244 130 121 74 255 213 25 188 154 15 75 134 16 162 29 65 191 117 194 137 194 163 41 134 252 12 149 71 241 79 185 23 120 111 89 206 38 140 66 3 49 208 199 249 29 73 254 22 251 127 62 238 203 98 6 170 129 201 238 51 71 74 108 162 33 9 243 112 136 52 201 158 126 243 207 234 154 250 224 58 35 68 163 52 205 34 31 72 148 177 93 30 97 84 226 
169 179 171 210 135 76 197 26 17 189 178 235 180 225 80 49 84 229 45 72 131 79 125 178 167 78 123 123 54 249 116 208 200 117 44 170 130 82 19 251 120 182 181 206 186 57 40 6 193 208 157 201 246 82 175 119 55 44 30 195 173 132 70 182 227 128 26 176 37 95 170 249 147 3 246 154 244 255 219 62 7 35 45 11 144 33 147 215 126 204 250 197 14 157 224 78 9 106 73 230 
16 170 171 232 16 179 171 199 233 102 101 138 178 184 36 214 123 144 56 158 172 176 26 190 222 232 175 0 223 43 137 3 34 19 192 229 118 87 242 163 232 126 167 16 156 217 172 8 208 170 247 58 137 62 98 255 49 18 100 85 104 164 7 179 104 226 83 170 22 17 202 168 125 229 55 170 191 58 188 91 102 152 79 117 174 182 59 163 26 201 74 93 130 255 83 194 43 43 159 46 
41 197 219 25 129 116 22 47 120 124 142 14 106 23 112 211 208 245 151 168 106 148 176 12 162 50 16 212 168 31 77 245 244 169 210 30 148 217 166 204 55 225 102 158 225 153 129 58 102 136 207 88 210 31 7 113 122 236 143 110 103 85 122 114 109 127 208 14 237 126 148 96 167 245 200 160 245 176 75 22 29 230 30 95 199 139 224 44 165 107 103 89 132 131 152 138 183 16 210 38 
102 224 238 212 248 111 214 10 224 36 231 208 199 105 55 176 2 83 89 94 36 231 163 85 199 217 1 99 11 188 42 110 138 12 227 86 146 231 73 123 35 50 189 213 21 123 251 222 215 53 112 119 65 9 98 149 99 107 214 253 104 114 233 132 38 107 30 126 16 96 251 149 190 252 93 59 78 120 243 240 166 252 193 246 242 116 72 60 199 46 121 126 121 209 16 158 232 190 44 12 
3 235 253 11 41 42 26 173 32 39 69 161 193 140 49 220 4 177 193 210 232 25 176 57 249 233 43 43 42 6 253 16 146 144 19 134 242 188 77 8 189 233 46 86 215 47 141 151 203 212 129 178 105 151 27 170 52 223 158 179 79 129 48 132 243 85 55 18 224 152 92 155 165 99 147 240 199 235 231 0 166 242 194 148 101 169 98 145 126 154 230 140 161 171 110 40 102 234 231 59 
233 226 122 19 109 4 44 54 18 217 144 111 101 205 62 70 250 227 96 12 50 255 231 105 146 190 168 246 154 114 253 24 125 237 247 102 27 222 23 192 193 83 239 175 148 170 108 149 115 151 72 15 243 208 13 7 249 195 119 104 213 118 68 128 28 93 251 4 59 42 17 223 134 40 37 33 207 240 197 62 129 9 119 156 182 170 131 73 215 182 22 133 154 104 115 203 65 209 244 156 
249 56 155 184 25 65 69 203 14 58 96 58 48 233 49 79 229 66 33 205 110 26 16 100 186 248 173 255 9 215 102 151 41 242 80 10 60 80 163 134 138 244 23 53 222 152 110 32 201 78 83 100 154 93 65 74 212 20 119 15 51 233 142 31 221 247 100 238 182 195 178 112 189 204 187 107 89 144 156 57 56 14 22 157 190 151 152 32 41 52 226 78 243 49 30 121 226 39 20 67 
254 21 55 142 31 125 30 125 173 226 209 240 197 202 95 50 169 192 136 181 157 210 56 151 62 101 179 203 246 154 4 176 34 213 56 220 181 80 204 61 164 92 110 129 111 139 110 226 200 55 255 49 231 116 205 207 123 8 14 20 118 247 16 132 165 42 31 111 164 116 163 50 53 91 162 161 57 147 188 140 244 204 39 178 1 139 249 241 103 218 169 191 0 52 229 242 137 95 58 51 
173 119 98 32 217 215 87 142 33 245 34 234 120 88 239 236 131 222 178 176 251 0 74 151 60 226 243 67 235 252 13 163 244 137 13 35 64 27 239 197 114 183 40 79 199 188 224 88 65 173 119 79 251 30 142 45 28 250 208 122 8 25 238 110 96 102 1 164 153 58 191 38 68 93 21 57 167 232 59 187 105 48 97 136 233 24 93 204 38 161 68 17 113 64 164 248 48 100 42 165 
206 225 126 50 162 87 235 234 39 36 58 139 170 204 91 228 179 151 13 165 65 179 192 81 197 169 145 148 74 58 52 14 84 251 104 60 85 96 35 238 172 78 55 213 18 65 249 125 86 211 177 132 198 62 181 217 170 8 226 18 70 75 36 40 56 245 215 98 192 103 90 129 48 169 129 142 210 135 83 15 152 228 26 243 151 186 166 61 157 231 246 201 122 77 252 65 221 219 231 206 
104 162 197 221 33 59 206 182 14 161 28 1 159 153 254 248 108 240 27 171 143 16 95 141 204 44 143 34 119 19 25 105 253 59 30 216 25 131 214 30 59 81 254 48 165 151 1 39 150 84 117 46 63 123 27 188 221 63 207 23 48 55 236 10 145 211 154 49 69 21 141 179 68 101 239 9 127 145 121 30 118 76 172 90 72 245 41 53 249 249 255 129 156 51 142 49 209 59 1 193 
229 183 172 226 194 67 9 212 23 38 253 202 84 68 114 176 32 221 35 160 93 124 118 56 151 49 21 12 234 223 155 119 141 238 212 37 133 226 37 136 97 231 212 66 157 121 117 130 194 141 249 1 127 79 157 71 135 221 141 130 54 208 149 120 8 243 154 110 86 89 127 167 201 230 86 134 204 31 210 158 7 88 173 253 113 219 244 79 117 81 8 86 17 138 221 88 166 132 111 50 
152 143 152 20 119 16 44 144 31 52 212 201 103 6 134 253 3 115 42 187 122 95 158 243 21 112 37 39 2 214 83 154 201 238 154 194 63 196 130 186 106 131 72 209 130 88 74 33 186 126 89 64 112 247 43 46 234 249 180 52 1 137 158 105 82 165 202 219 185 48 203 33 171 16 219 99 102 145 10 155 231 73 52 1 27 118 48 185 247 147 29 140 45 171 173 149 30 222 97 192 
248 242 145 28 88 27 22 67 89 38 155 37 127 29 51 111 145 173 78 37 27 200 141 218 132 182 94 8 168 126 4 116 25 106 223 188 0 100 173 40 229 5 230 191 114 137 157 18 81 82 138 109 153 225 124 128 167 56 144 228 154 45 169 53 107 144 5 31 123 144 115 151 209 229 193 44 227 17 5 98 134 96 171 181 14 191 155 10 140 140 41 252 235 148 117 41 45 163 177 41 
138 219 230 74 55 175 54 227 181 183 238 118 3 188 197 122 215 237 81 69 68 211 180 216 102 144 225 179 93 249 222 235 154 232 181 110 47 248 239 173 239 244 12 252 41 125 175 184 33 201 141 167 220 56 107 55 52 245 187 116 165 146 168 159 95 11 77 59 222 37 192 89 249 208 37 120 221 116 245 147 85 132 228 120 140 37 240 62 173 139 201 73 165 42 50 230 223 105 43 89 
34 48 67 9 37 107 76 199 227 28 84 184 216 49 44 159 200 89 191 172 173 196 135 251 47 153 115 169 177 185 84 32 83 0 65 163 166 153 226 114 1 17 146 68 0 17 169 111 189 228 148 135 98 55 75 63 37 167 200 149 143 100 197 40 20 109 210 239 157 135 107 200 160 179 15 137 217 45 200 190 185 59 74 111 20 86 165 67 159 9 181 79 254 118 24 123 214 103 171 206 
136 94 203 98 110 90 13 183 113 156 166 216 204 238 109 83 34 29 107 245 4 249 19 143 240 212 73 122 59 168 163 254 167 185 40 23 44 122 203 230 235 35 202 30 208 52 49 196 183 63 121 251 3 11 78 74 144 11 115 111 212 201 133 26 41 132 194 124 106 172 246 11 30 128 58 241 182 133 152 199 62 18 21 79 227 248 10 175 237 45 174 61 233 193 196 246 188 101 232 194 
126 15 135 198 54 225 248 98 18 182 94 130 68 176 149 198 223 211 199 7 206 104 180 161 184 53 223 244 115 115 244 143 98 187 184 127 108 61 199 184 148 255 163 66 194 251 3 131 52 52 89 239 208 206 92 139 62 249 191 75 130 243 176 216 214 171 109 147 8 129 51 48 120 232 212 233 176 152 72 109 142 161 114 10 253 209 70 106 162 72 128 58 119 77 0 192 190 242 76 200 
17 55 70 137 255 205 209 27 23 46 197 34 210 212 236 101 58 216 175 191 177 90 30 79 50 76 129 157 150 89 46 149 221 149 198 23 100 8 66 229 149 96 154 203 74 170 81 97 50 198 48 73 160 14 140 21 61 124 212 198 232 18 52 160 92 211 52 25 13 55 135 200 86 17 184 5 122 230 62 220 232 92 244 72 76 62 75 227 7 7 207 27 165 224 96 47 111 70 235 160 
238 254 51 135 167 1 56 194 131 72 226 192 88 22 203 229 7 16 13 152 180 92 44 34 144 198 74 239 144 250 51 54 101 47 16 83 159 98 250 214 112 60 246 16 20 37 115 230 41 83 4 152 223 93 121 62 179 80 164 19 49 157 55 27 102 244 241 182 126 249 36 105 139 241 127 194 226 245 181 45 239 131 21 250 153 171 61 53 22 232 8 208 141 49 108 104 139 90 142 179 
19 205 191 91 98 54 77 160 216 174 157 148 127 126 144 63 10 222 224 123 124 207 208 138 173 206 114 36 182 27 152 21 129 60 2 54 224 184 232 148 20 76 247 227 217 2 205 111 153 24 219 26 218 46 133 31 50 118 180 0 250 87 18 141 48 191 193 8 54 96 37 110 181 2 198 78 247 251 141 161 135 207 73 136 198 28 114 254 251 141 236 133 110 143 233 95 178 164 100 231 
178 197 90 59 96 254 1 94 229 76 58 5 123 157 236 114 6 209 161 14 54 160 168 26 174 64 140 18 92 72 151 88 113 1 84 153 65 16 74 205 39 19 144 45 203 255 176 136 156 238 184 3 245 186 80 62 193 220 120 29 213 65 211 179 239 74 8 125 128 22 30 4 130 206 251 208 202 199 34 249 11 230 29 83 112 20 246 140 54 53 92 183 191 29 120 139 248 210 204 104 
195 91 20 177 37 45 14 5 86 86 160 242 107 95 234 252 17 61 226 232 249 29 182 244 85 90 174 202 92 26 158 41 41 124 33 157 250 3 122 239 57 64 220 67 10 190 5 198 124 150 41 42 177 94 210 251 97 190 68 86 255 130 90 56 230 237 147 225 253 200 210 188 142 122 66 130 181 85 76 65 13 194 15 189 186 52 60 114 8 184 56 236 218 230 241 118 191 247 85 252 
16 177 238 87 206 103 208 152 21 73 176 128 229 167 190 71 2 51 146 48 73 5 251 40 127 88 31 89 237 217 191 173 74 58 238 129 156 8 215 94 237 10 170 75 5 88 112 208 70 223 174 92 181 227 122 193 87 53 246 126 68 85 110 29 99 239 85 48 22 205 194 77 5 144 50 66 38 45 135 40 107 175 106 90 103 73 55 16 243 171 19 228 17 94 189 27 115 72 48 190 
19 221 132 241 178 0 116 6 17 215 250 64 141 149 139 44 28 127 16 151 196 112 177 53 148 154 150 159 236 103 80 102 105 220 92 243 226 237 2 139 189 30 255 43 7 60 114 84 216 187 208 198 152 102 193 37 95 56 103 62 52 214 230 245 168 71 50 86 35 170 140 69 191 203 204 177 60 37 239 243 148 161 247 23 252 105 39 55 78 108 233 56 241 1 168 138 157 164 191 68 
153 76 211 128 230 113 128 64 30 138 220 188 66 163 50 53 158 228 14 55 204 235 161 143 216 127 244 122 99 40 12 125 143 207 100 154 203 0 17 67 236 173 139 255 221 225 164 242 131 239 162 110 67 46 30 152 101 17 151 16 248 119 121 89 162 63 174 3 98 146 252 30 228 213 249 129 110 106 70 186 96 57 184 99 206 72 230 57 3 126 22 66 2 200 85 133 112 45 121 198 
5 250 37 209 93 244 35 55 190 172 202 235 205 252 136 218 12 114 63 241 70 140 121 25 211 18 172 216 25 247 109 127 61 244 105 105 228 179 117 151 75 128 71 174 228 219 18 89 152 68 105 74 25 112 208 81 117 209 178 151 128 242 38 168 176 21 229 179 232 143 49 246 11 151 188 25 62 196 8 221 247 3 133 159 77 59 165 229 79 74 74 90 176 209 116 8 209 35 89 29 
210 79 121 12 168 84 196 146 236 225 165 150 114 126 27 48 244 85 180 96 108 23 150 12 55 151 116 19 193 113 133 48 48 194 193 27 144 207 231 129 90 105 162 9 80 254 85 75 202 214 2 52 191 175 39 138 243 129 92 13 106 79 15 10 69 68 207 226 103 64 244 163 88 4 19 197 77 39 24 102 128 59 42 114 83 58 33 80 88 132 112 21 88 88 208 248 57 68 18 128 
24 43 221 40 121 202 98 60 72 33 31 110 223 82 50 70 139 59 23 231 207 149 8 130 169 86 147 54 228 16 21 12 102 193 9 159 235 27 83 211 164 179 207 78 96 9 153 38 79 84 232 108 192 4 242 51 215 231 216 93 237 82 100 192 87 248 197 5 201 69 57 134 75 224 11 225 60 47 194 19 58 254 172 0 189 8 191 227 75 232 213 191 233 199 220 131 164 86 199 211 
85 232 172 10 192 185 103 75 59 233 115 216 63 236 108 115 69 227 21 87 20 90 18 4 49 135 128 211 188 180 107 73 179 255 87 67 216 1 118 46 61 206 155 143 14 46 235 67 64 43 249 30 249 31 23 216 84 64 177 76 140 172 123 202 69 165 10 208 58 133 65 100 111 116 14 221 18 239 226 64 66 150 136 14 149 153 226 10 1 9 19 92 162 220 233 227 30 94 119 129 
36 17 186 217 20 80 208 223 125 123 115 247 46 74 114 159 224 203 117 88 41 209 28 23 48 211 3 161 70 144 30 186 218 32 169 68 255 175 120 168 161 61 67 17 250 156 118 205 17 251 212 82 255 142 166 197 64 170 108 196 69 246 134 230 170 247 4 70 100 47 147 217 220 120 108 127 95 187 214 119 216 94 91 79 92 118 237 209 10 34 147 146 214 98 169 90 250 170 204 57 
141 249 149 77 218 167 232 97 115 222 226 171 64 62 123 77 96 34 71 171 16 4 12 139 210 200 95 251 27 252 173 60 140 184 24 203 97 132 5 111 227 0 59 150 73 29 189 217 211 254 222 100 42 25 26 246 207 232 107 164 82 234 29 0 247 77 2 72 173 74 21 198 28 136 77 145 7 151 45 247 144 220 74 231 213 11 36 163 102 54 141 29 33 227 88 187 233 126 198 246 
134 183 153 135 31 179 233 58 14 136 111 94 76 154 232 19 131 111 170 4 63 56 95 231 91 44 188 156 161 240 22 220 202 205 79 131 228 124 251 216 172 227 45 50 110 45 114 85 254 33 243 70 66 145 88 63 0 250 86 19 212 80 253 77 87 195 178 188 173 49 125 64 230 53 29 150 86 70 9 215 211 239 217 187 155 92 89 199 254 242 157 194 241 59 16 182 200 171 202 169 
89 86 199 247 34 206 93 87 68 165 13 150 38 227 117 251 91 73 156 34 134 170 16 107 58 180 246 1 109 32 169 108 101 247 64 184 39 212 101 124 202 29 10 148 93 46 173 167 128 101 141 236 123 118 135 187 217 9 151 189 102 99 201 18 184 130 33 198 112 34 8 128 37 29 157 184 60 210 122 198 84 45 191 250 17 132 5 39 186 249 240 188 140 63 143 27 29 242 143 128 
249 169 130 110 208 59 252 201 241 120 14 95 177 241 176 240 190 239 231 109 69 28 81 202 80 207 68 129 55 127 109 157 150 124 200 74 96 136 146 180 237 211 212 176 92 84 187 29 140 107 140 125 104 25 143 172 0 150 21 99 83 25 0 89 223 193 75 148 97 143 65 252 102 144 109 29 173 27 160 83 224 238 150 69 12 128 4 156 245 125 109 44 70 95 252 6 253 213 245 88 
102 225 236 70 151 7 132 195 249 167 17 145 178 192 247 210 108 197 194 73 181 105 118 215 202 223 34 209 195 23 153 251 191 242 55 33 148 113 60 35 106 240 112 39 243 201 99 75 121 72 126 238 251 159 48 20 173 192 187 25 119 177 13 22 126 62 174 187 38 178 33 204 243 220 170 226 87 28 89 76 79 123 68 159 206 212 35 152 102 14 78 171 229 219 98 222 64 124 92 204 
126 97 138 165 43 14 111 27 113 233 243 8 244 190 76 135 239 175 242 86 213 222 9 181 177 70 155 160 99 1 47 135 164 185 221 144 250 114 146 66 115 243 45 168 245 20 123 27 30 18 105 128 91 6 231 68 247 134 128 245 220 125 62 253 113 230 251 66 89 143 152 127 184 159 52 105 63 204 112 35 43 209 5 188 130 226 119 45 43 127 243 36 195 11 139 166 215 214 9 107 
221 122 103 78 101 148 177 171 206 27 167 114 255 239 189 10 225 63 103 234 59 158 85 230 166 3 189 215 119 223 180 108 230 230 228 233 197 249 173 226 221 212 230 252 207 109 193 232 166 11 49 97 101 187 125 167 251 84 188 115 59 207 190 51 157 111 127 42 122 133 237 236 232 200 247 237 251 234 20 247 88 191 46 83 232 200 49 138 14 199 170 85 141 202 128 13 183 252 171 21 
190 48 105 18 243 8 76 39 30 94 80 222 96 134 79 27 70 231 22 202 7 246 59 153 162 154 133 148 178 102 82 146 62 47 190 87 161 106 251 248 97 175 226 54 191 96 107 234 73 199 134 239 157 52 48 82 150 192 146 233 163 170 63 125 43 80 30 242 141 39 61 109 6 53 21 97 184 109 140 160 10 190 222 129 99 131 244 66 69 106 148 238 178 64 32 110 176 33 230 241 
41 188 115 200 0 220 138 176 189 51 184 64 117 200 223 212 43 88 134 36 75 132 9 187 162 159 229 62 61 71 14 170 224 143 72 30 157 36 167 28 68 19 105 37 191 50 246 66 101 124 214 85 84 177 222 219 117 6 121 62 226 26 73 193 60 32 1 144 253 107 91 239 157 34 181 154 83 149 165 148 137 74 86 241 121 158 205 9 92 218 64 62 96 69 189 69 91 113 87 160 
177 248 164 132 16 127 107 5 75 254 102 68 173 96 91 121 86 136 245 59 183 44 162 101 198 128 124 225 31 253 199 237 165 255 228 156 80 171 41 77 95 70 221 78 26 146 135 103 115 78 233 183 47 118 117 228 169 223 255 156 68 203 31 67 246 122 140 217 226 134 120 205 96 105 128 232 66 231 7 165 86 208 130 103 210 247 99 69 89 75 213 34 80 177 104 187 28 222 18 157 
28 72 75 74 15 229 138 142 37 154 221 124 61 70 47 75 205 137 19 17 82 128 39 226 46 121 79 88 165 98 219 190 47 82 249 150 235 171 162 126 60 21 254 238 134 147 176 101 26 155 126 4 112 174 137 210 250 195 70 87 189 80 45 75 34 77 213 94 33 226 152 49 205 18 228 152 7 196 142 212 173 246 91 144 76 100 192 179 104 250 189 203 27 78 166 133 157 16 6 232 
179 81 33 187 59 15 231 50 234 24 243 80 157 133 163 98 240 59 121 69 138 231 139 148 131 196 152 234 16 252 172 154 57 238 115 153 122 232 167 213 174 101 240 60 85 220 140 13 147 226 229 70 177 216 81 33 83 188 102 53 184 239 116 213 122 143 121 89 180 2 189 179 216 120 171 7 243 102 155 162 35 23 77 189 104 196 242 192 91 109 52 177 35 152 148 96 5 244 34 160 
7 108 217 89 185 158 34 77 132 178 238 239 167 80 104 98 217 94 239 153 217 52 223 2 208 60 65 8 202 222 52 131 105 132 171 16 71 125 141 201 118 24 128 20 86 178 132 226 152 197 13 81 212 170 24 115 137 5 32 95 249 176 27 222 60 150 236 102 80 105 173 83 206 82 190 57 210 52 191 216 196 154 155 217 0 55 248 73 158 5 20 178 58 74 250 130 110 120 171 29 
63 55 123 188 124 132 181 151 176 66 165 123 57 114 100 206 156 207 105 111 165 37 61 134 113 20 183 59 48 49 178 132 175 8 247 30 249 59 156 194 86 117 35 28 139 165 140 98 191 217 239 86 89 159 153 140 38 54 29 6 227 181 162 212 177 135 69 62 78 232 11 149 38 88 141 109 136 30 34 243 221 75 153 31 102 9 0 208 223 206 105 96 255 40 48 182 169 131 93 182 
32 136 140 104 208 30 161 250 43 147 210 190 48 154 251 189 133 23 31 212 244 64 127 107 88 245 24 225 175 80 146 171 184 202 253 110 115 241 250 222 107 3 52 54 151 137 154 48 154 186 81 44 217 39 213 117 255 145 185 110 223 232 120 183 183 191 86 57 61 3 248 206 3 65 195 67 146 95 42 190 105 91 203 127 248 54 201 23 224 235 108 207 205 228 18 100 251 153 155 36 
133 246 169 221 244 155 211 154 2 22 138 14 148 27 235 70 61 172 33 58 210 168 254 56 91 209 213 20 100 84 2 121 92 133 117 209 105 121 224 70 78 5 55 9 10 6 177 200 102 9 31 220 249 32 187 200 126 0 144 215 118 170 121 218 219 192 34 65 77 42 156 91 45 25 77 159 172 190 177 117 16 230 33 151 232 214 142 1 212 201 66 91 161 142 25 188 225 148 75 210 
97 193 158 96 47 8 196 139 237 39 120 50 230 27 42 223 45 25 172 145 111 127 251 254 134 107 121 0 22 25 169 1 40 60 72 190 153 107 19 67 39 54 103 83 23 27 108 41 105 165 242 49 239 217 147 4 195 124 243 106 183 74 206 114 175 165 233 8 36 22 83 144 226 134 57 12 69 201 151 142 33 246 98 146 220 5 46 36 126 53 142 212 38 83 73 212 166 52 217 74 
76 177 185 95 207 103 193 80 33 146 59 82 80 98 104 99 243 37 0 230 195 26 76 33 190 7 150 86 217 252 226 93 97 232 184 174 126 131 41 182 197 59 67 87 36 25 59 145 249 114 27 252 187 246 128 39 36 247 240 199 131 167 147 83 49 222 125 70 156 96 103 210 79 87 150 222 12 156 64 58 224 148 179 42 139 178 168 185 165 23 223 216 92 218 110 76 28 78 39 46 
101 107 128 38 206 214 96 234 87 48 111 131 123 9 30 208 4 187 186 4 117 32 122 167 74 176 229 182 183 191 37 2 169 3 54 113 141 117 239 133 153 176 61 8 219 141 132 10 215 80 41 125 233 240 34 154 33 7 10 200 24 231 243 88 7 125 153 218 97 38 241 199 90 19 227 53 57 97 44 78 162 144 8 126 7 5 15 13 140 107 172 157 25 70 69 123 172 169 169 109 
215 68 198 161 78 36 117 21 156 193 7 212 24 30 138 30 189 140 129 225 141 113 202 208 244 115 45 127 230 125 23 25 142 46 184 104 158 169 13 186 15 155 215 226 220 29 241 217 5 226 148 157 136 95 176 6 196 203 132 30 104 223 198 91 255 3 236 245 127 50 72 2 247 238 188 10 161 48 227 106 152 86 66 154 171 81 121 144 44 210 106 83 31 103 51 35 215 156 7 129 
111 252 146 109 144 32 133 241 251 35 112 5 15 155 145 225 23 229 35 33 218 48 213 243 72 161 152 130 119 109 245 21 90 94 255 166 108 143 227 12 31 252 153 16 254 204 1 238 29 46 143 167 121 248 21 104 167 130 239 155 146 244 167 80 37 255 130 232 114 14 162 142 217 78 234 164 126 79 229 133 136 252 58 19 225 163 44 234 102 38 6 53 227 4 58 62 140 181 17 102 
42 58 0 246 5 49 87 65 139 222 11 50 14 80 74 98 216 173 119 169 21 87 211 70 87 30 3 233 196 46 125 63 71 22 47 65 121 112 1 103 176 138 39 29 149 236 224 125 175 102 151 82 170 160 189 141 0 157 145 171 103 243 85 116 186 111 240 121 120 92 183 21 188 0 88 185 214 121 224 140 231 75 154 83 57 34 70 68 14 17 152 128 183 117 3 179 121 29 202 160 
141 39 49 152 112 211 162 140 163 129 202 85 43 249 132 238 153 239 60 139 233 191 222 76 70 201 121 200 80 16 185 144 21 219 7 12 225 9 122 158 106 196 26 40 43 78 213 96 86 152 86 161 102 192 145 66 243 66 66 162 176 249 10 52 18 19 239 225 66 177 144 59 234 63 100 114 7 18 126 215 66 84 173 104 224 113 74 212 92 193 142 174 237 223 121 60 94 109 106 80 
6 179 98 119 171 249 108 241 240 127 224 210 226 237 125 156 71 105 152 240 35 118 99 50 39 50 154 121 65 10 174 38 164 227 202 69 140 137 85 189 37 159 161 5 252 16 92 23 155 72 147 110 96 151 215 167 54 221 122 127 49 20 30 54 47 87 122 188 106 154 148 200 158 96 45 11 169 237 251 87 91 85 136 12 54 36 25 115 204 52 121 33 156 182 77 41 205 99 8 2 
111 138 193 173 213 113 35 213 146 112 120 238 165 217 36 120 126 247 22 229 30 190 145 99 219 213 253 25 186 160 12 136 70 176 78 93 122 169 28 212 167 0 150 209 160 118 204 47 198 196 137 164 212 120 102 36 253 103 14 113 191 95 105 143 168 26 131 15 39 253 118 106 246 200 8 219 212 216 231 242 103 248 112 88 235 209 187 114 115 12 193 27 26 6 178 198 246 4 225 188 
106 154 139 122 100 68 169 244 167 105 155 132 10 40 2 16 15 122 205 13 200 232 172 242 123 199 161 77 212 120 131 163 171 66 75 227 110 66 166 106 96 118 191 186 173 169 121 179 237 153 111 133 68 200 212 43 234 12 98 181 109 232 145 169 45 6 219 68 249 162 129 135 21 214 131 1 45 178 88 51 107 75 235 213 200 115 249 201 206 19 193 8 127 27 61 157 10 229 65 34 
73 11 57 30 233 133 227 40 139 171 207 198 50 92 13 46 242 216 191 87 15 134 1 12 127 228 144 72 211 137 157 178 24 43 153 116 183 167 242 18 137 208 9 66 21 71 215 65 214 202 70 169 23 155 238 200 182 75 137 14 190 135 187 221 106 255 223 43 187 213 25 158 153 156 45 191 123 69 134 211 122 213 222 167 218 114 185 197 122 82 158 246 101 189 231 107 26 52 213 252 
49 239 89 25 21 197 30 44 154 219 150 33 138 58 119 75 228 177 152 68 144 91 220 115 92 246 136 67 15 180 7 217 140 71 114 245 171 156 250 152 235 158 53 33 249 141 138 203 105 222 23 122 123 229 172 224 3 87 163 20 233 137 184 60 111 240 164 70 146 233 28 80 179 224 53 159 131 97 175 153 182 152 255 57 255 211 163 246 73 162 109 208 129 246 177 128 121 221 172 252 
221 45 255 8 138 174 66 249 6 146 217 6 111 8 222 235 208 67 57 130 89 13 43 114 124 22 235 212 139 169 192 50 149 215 146 78 93 253 155 85 175 4 68 42 204 53 192 21 77 41 107 99 24 149 11 53 52 20 60 11 59 141 165 90 49 112 65 152 224 236 30 78 150 6 226 62 78 181 119 10 23 190 24 104 121 193 2 129 184 183 135 122 235 162 154 72 147 167 220 73 
235 237 13 82 216 234 56 179 78 176 198 19 43 49 114 125 112 108 37 116 45 200 96 198 153 89 104 146 194 224 11 51 44 170 143 217 228 120 170 61 83 135 105 239 104 169 86 36 180 26 163 195 181 89 32 61 197 155 51 79 193 111 175 204 185 185 31 74 101 105 226 99 222 242 141 93 0 200 43 28 100 228 255 202 175 138 27 172 179 81 47 41 240 121 206 133 250 142 52 211 
134 26 227 46 150 60 199 217 210 87 219 95 181 141 165 27 206 90 247 44 82 229 121 215 149 11 62 108 115 52 130 96 55 180 241 175 125 229 15 188 169 84 58 128 235 165 147 141 115 241 242 26 226 55 78 34 66 104 244 160 66 242 223 255 121 69 165 34 132 177 155 37 212 31 186 114 205 22 164 37 84 125 33 224 189 52 207 132 232 144 101 191 36 124 247 48 196 65 46 232 
29 242 255 97 252 0 252 105 234 149 211 14 69 135 188 32 185 57 122 60 77 47 56 57 148 199 255 132 127 195 248 167 114 194 51 9 132 123 94 167 126 85 243 21 29 206 215 67 134 161 225 230 192 54 40 253 236 147 185 172 29 161 137 176 207 11 77 216 43 33 58 13 186 32 86 226 57 107 54 163 60 248 168 79 84 206 3 227 238 156 22 28 171 221 1 93 144 202 231 59 
214 233 222 52 81 70 11 80 226 99 225 60 28 47 27 125 53 21 74 36 224 83 127 30 137 131 0 158 10 244 189 127 82 218 221 121 72 127 41 71 26 158 81 22 71 67 118 142 13 161 83 140 204 81 74 168 122 37 124 6 144 46 62 9 11 183 168 26 130 67 26 34 42 206 24 221 53 10 124 247 53 53 188 140 13 251 54 172 139 163 178 10 22 118 136 95 64 85 34 186 
109 218 30 4 143 232 62 68 115 77 234 62 243 231 149 48 170 11 206 249 234 80 194 220 79 100 2 251 94 113 234 80 133 22 210 250 21 66 140 246 55 25 235 50 251 228 33 129 94 42 194 215 181 121 155 128 139 20 110 64 198 100 154 53 100 154 115 140 181 60 72 77 101 73 74 178 107 201 1 113 144 83 228 244 176 125 109 177 159 226 202 183 7 211 126 164 225 31 162 3 
236 53 14 15 106 99 119 195 108 107 33 160 134 96 228 77 206 234 121 137 139 46 156 128 232 22 241 240 74 135 241 105 195 246 150 224 12 102 166 194 77 121 232 133 244 50 203 10 192 131 196 4 71 164 152 40 84 204 43 76 249 204 175 229 82 36 59 227 113 218 173 102 67 113 214 214 64 35 225 137 87 24 36 192 64 132 134 87 156 195 255 85 209 236 144 39 81 48 137 57 
223 184 110 131 199 65 82 217 59 1 218 224 238 229 191 250 32 12 182 210 207 92 223 248 7 249 105 114 27 54 31 166 102 1 152 186 24 85 75 33 50 222 148 33 200 173 216 65 119 192 102 177 190 163 86 1 101 59 253 19 113 70 144 246 166 88 220 77 36 158 53 165 80 50 113 72 177 137 189 177 130 67 133 141 122 238 91 91 28 49 15 150 13 44 223 225 67 158 21 98 
27 83 35 92 234 227 243 147 61 229 155 252 220 158 26 106 77 101 192 181 122 173 174 62 24 90 225 131 38 146 243 125 177 209 80 29 243 2 17 223 167 178 36 90 113 161 216 185 247 172 59 221 53 134 202 254 194 103 89 140 134 220 116 31 27 204 221 19 143 3 33 127 28 179 35 238 108 211 92 207 16 101 23 215 226 94 141 71 137 190 210 89 91 10 97 245 125 21 19 14 
71 222 164 50 83 97 194 153 112 97 114 67 64 140 181 200 18 127 250 29 164 104 103 161 164 25 203 150 183 44 71 60 34 96 147 114 183 107 33 83 78 74 183 125 139 76 133 245 243 176 227 173 187 97 24 108 240 37 119 200 67 69 217 230 100 13 37 10 58 100 39 33 255 34 61 1 148 39 94 2 114 157 245 143 52 187 48 36 54 206 114 243 240 30 166 39 252 98 39 187 
219 136 15 128 1 242 81 5 76 121 44 247 232 91 177 129 205 223 59 204 200 27 159 178 150 93 107 101 156 156 139 149 96 159 69 104 123 2 43 40 131 155 116 2 61 208 189 214 68 98 37 178 20 89 203 124 48 162 4 67 174 134 124 242 207 32 249 116 41 143 129 59 89 93 108 212 57 131 92 241 77 211 126 165 43 140 86 245 45 79 159 225 58 119 94 26 188 159 57 214 
72 167 253 213 11 17 227 57 110 157 196 156 45 92 69 64 227 229 8 98 147 148 43 101 175 143 145 142 10 190 36 169 205 66 197 54 190 49 96 31 241 214 89 76 43 89 161 118 160 228 213 139 119 167 54 237 85 45 59 122 122 16 23 159 27 150 100 135 187 160 45 185 178 246 133 7 177 237 21 11 253 90 128 12 161 155 80 201 125 103 55 19 3 166 115 143 121 108 136 176 
210 49 242 72 80 106 87 118 156 23 28 155 150 226 171 172 93 121 168 228 226 216 82 55 184 70 113 207 134 12 200 163 253 51 20 178 237 74 108 225 238 234 65 49 82 168 225 80 41 83 227 73 213 228 91 197 64 107 215 211 214 6 227 112 186 57 63 196 159 179 105 145 214 98 20 90 170 227 22 163 144 223 178 239 12 31 103 186 132 48 80 174 173 107 205 187 175 3 127 251 
163 66 223 168 69 145 94 136 153 204 223 11 135 199 134 236 142 43 169 170 34 148 46 131 113 228 197 172 131 108 193 45 255 173 48 127 248 5 84 17 201 106 135 128 188 147 16 193 217 152 237 218 62 160 15 98 23 75 231 7 231 222 151 237 66 142 39 170 246 174 77 195 168 146 193 67 237 226 191 204 228 163 141 120 74 160 103 9 69 168 40 112 62 146 46 202 72 201 108 97 
199 65 205 72 9 198 70 12 100 224 21 127 209 150 222 68 185 46 169 91 213 111 49 24 179 174 185 168 109 19 200 254 243 237 32 249 26 169 66 79 132 140 119 84 153 207 51 71 213 132 163 20 173 4 144 23 61 122 48 143 84 100 249 192 114 39 242 16 128 148 125 136 74 154 31 218 53 31 101 56 27 5 219 238 121 51 13 91 255 240 15 78 179 117 39 229 75 210 91 189 
217 42 30 235 56 166 22 182 167 33 116 114 1 220 248 195 196 112 213 53 154 31 208 212 184 14 213 70 177 111 94 120 167 112 72 241 77 236 132 74 46 31 161 121 159 161 147 148 112 119 221 145 22 142 5 92 64 170 159 207 229 169 50 242 22 194 129 153 208 99 234 220 82 194 60 57 252 80 192 3 12 192 111 97 112 49 143 57 188 207 103 48 207 126 188 118 117 8 54 78 
164 179 39 233 240 245 149 163 17 52 23 240 194 249 83 206 248 55 145 240 121 47 92 21 136 110 8 159 182 158 205 47 54 0 122 91 76 194 197 81 21 160 17 48 53 175 26 182 96 42 184 129 29 99 66 12 194 192 137 136 194 169 225 36 235 11 162 170 240 182 58 88 224 192 26 142 122 240 93 206 132 200 10 229 217 127 232 68 161 252 240 143 20 241 131 138 28 86 237 197 
28 56 252 233 233 22 131 51 162 24 68 219 39 205 213 220 218 46 97 164 71 110 166 93 131 115 109 244 251 86 180 84 33 201 65 225 120 204 52 116 171 192 158 46 41 32 240 70 148 146 131 13 49 53 66 138 33 101 35 124 6 162 224 100 208 13 51 17 32 158 174 110 193 174 251 246 45 133 243 104 172 118 81 126 203 93 93 81 182 4 207 181 75 155 119 118 11 51 250 79 
75 54 65 66 40 126 209 91 47 46 165 62 132 121 226 120 151 80 3 103 131 86 186 247 142 169 172 204 216 83 156 219 14 212 186 144 157 243 86 145 182 178 184 74 204 213 66 99 241 61 175 27 195 96 122 50 76 157 164 239 179 201 78 97 11 140 179 34 39 222 63 108 110 138 27 231 132 62 62 206 140 8 200 191 155 254 167 244 182 50 240 211 219 178 51 199 78 172 52 198 
207 140 182 180 145 21 247 180 170 122 157 123 132 239 133 10 190 60 216 21 43 185 139 86 28 56 226 7 7 138 181 92 132 242 196 140 248 224 35 115 134 97 123 191 197 242 185 22 41 198 80 40 157 127 81 231 207 196 22 220 54 136 17 94 166 94 8 90 20 200 24 128 101 125 218 47 42 123 240 206 205 113 127 159 46 25 10 52 213 195 202 151 111 169 241 174 248 53 189 243 
11 115 72 141 97 178 249 216 118 131 203 175 168 57 243 185 183 21 20 15 102 139 211 151 178 78 184 218 148 5 12 153 210 239 113 204 27 62 245 189 150 130 48 8 14 27 55 130 10 62 233 96 30 88 212 58 126 33 169 86 197 198 111 73 88 61 223 248 226 72 68 88 167 204 87 137 168 167 72 176 237 101 107 62 90 79 33 241 57 190 98 154 71 16 236 16 92 16 107 221 
248 63 166 63 29 151 206 10 70 219 219 232 213 234 240 38 146 253 151 47 250 74 232 5 128 33 6 19 177 204 110 168 71 94 166 44 75 25 119 232 216 43 210 53 249 81 8 108 8 200 127 48 7 213 103 25 105 30 169 39 52 43 105 195 174 218 106 162 125 230 146 141 171 12 179 119 145 160 174 13 185 76 149 247 28 216 231 101 178 44 200 13 249 24 71 144 145 33 164 56 
56 3 88 41 254 128 242 30 183 217 84 135 204 231 255 151 52 213 203 142 99 95 97 95 250 127 152 109 231 196 49 39 211 82 224 43 58 131 77 180 107 25 234 251 212 69 73 0 221 12 237 10 174 70 34 177 75 42 147 128 211 190 25 139 132 80 3 99 82 36 43 171 111 208 251 109 190 131 64 141 59 230 59 12 118 122 222 160 77 117 67 132 81 53 119 58 118 115 42 119 
85 197 75 148 229 145 114 107 213 102 223 58 179 186 117 165 20 247 66 209 22 78 33 115 42 49 147 155 42 166 54 28 88 251 165 152 204 155 218 128 224 130 11 239 154 229 204 253 160 8 17 210 244 31 196 43 51 17 104 184 34 15 144 7 57 231 198 117 81 36 35 16 148 141 243 126 200 207 189 154 51 52 1 144 193 209 173 144 225 69 222 116 199 225 21 131 186 145 155 151 
40 9 201 43 36 57 68 234 26 78 17 117 239 6 34 120 6 141 62 196 170 247 151 43 110 171 171 249 19 61 4 74 14 239 111 39 44 90 77 243 176 255 207 228 60 222 93 121 64 20 187 55 133 44 28 16 190 143 21 224 183 153 208 243 226 38 137 212 14 101 245 28 38 189 36 233 121 227 76 215 117 121 252 104 188 28 79 43 72 206 244 45 77 139 95 87 157 7 136 123 
2 244 70 8 153 20 146 208 145 224 84 86 49 76 64 55 178 130 180 133 126 124 211 45 26 109 119 139 191 23 162 217 139 164 142 60 115 245 15 8 126 48 12 141 143 68 217 41 5 8 91 220 149 190 44 215 189 71 57 68 89 96 59 136 161 55 234 237 43 3 216 223 153 200 144 239 161 150 56 63 69 41 203 77 202 107 105 50 47 116 8 54 40 64 218 196 246 167 63 222 
175 182 85 111 68 32 90 242 223 190 201 209 49 42 157 200 176 89 167 85 169 1 108 22 140 104 17 212 169 126 43 58 93 177 174 171 82 39 243 166 235 195 115 165 220 162 105 192 7 156 106 165 162 27 117 16 63 91 132 79 155 38 81 251 62 91 188 126 66 13 172 192 180 96 135 2 86 9 60 201 74 103 235 221 18 56 208 68 194 52 104 31 144 77 117 148 160 238 170 238 
101 79 21 33 140 202 226 150 128 66 102 206 152 117 189 39 62 169 134 114 2 241 80 76 176 110 27 243 248 94 53 140 171 147 0 127 13 244 64 216 150 209 240 89 65 134 119 124 88 44 192 9 59 182 43 93 110 52 37 91 50 255 237 104 20 229 229 159 228 172 136 115 21 98 5 98 99 150 112 170 114 35 85 216 211 191 38 187 142 187 122 139 200 180 141 0 24 111 135 132 
49 140 143 63 213 234 89 132 141 65 216 135 147 48 25 208 80 107 99 35 250 13 146 165 186 224 62 33 92 238 161 135 143 67 142 152 107 207 165 203 254 28 31 232 135 84 214 110 8 57 82 215 58 56 9 113 240 228 204 177 130 24 189 11 181 225 251 180 166 43 211 192 194 110 87 160 55 140 33 144 78 130 75 10 98 74 113 191 97 81 234 14 97 58 243 76 57 162 34 85 
6 181 123 246 41 85 232 38 168 130 112 77 38 61 183 251 91 119 18 170 115 23 70 242 250 236 117 64 137 214 207 6 126 31 236 120 114 47 165 246 208 179 104 47 118 192 221 75 88 112 153 20 75 105 230 132 227 100 172 211 240 67 254 113 59 248 169 85 220 76 170 159 120 194 169 83 154 35 136 138 50 93 72 242 92 217 212 111 104 102 34 251 189 74 163 239 91 165 140 133 
