P2
100 100
255
65 145 192 213 114 220 178 213 19 66 134 248 218 199 83 91 10 9 146 128 177 244 187 23 101 224 215 45 43 1 176 246 141 55 89 117 76 228 241 184 104 37 232 163 16 185 27 172 92 69 0 45 130 89 26 99 53 19 145 173 122 63 78 252 87 176 251 59 11 160 213 168 30 237 26 75 69 246 128 68 123 139 94 102 12 88 131 65 78 61 228 202 49 159 186 99 244 96 10 6 
99 196 72 108 21 238 19 75 239 207 144 31 77 203 123 11 42 229 197 131 19 173 233 168 105 93 117 182 131 76 24 52 177 83 155 174 197 92 45 62 64 251 213 211 206 45 205 108 1 238 115 128 110 196 67 144 34 162 254 173 89 24 69 140 73 83 87 240 41 124 231 51 2 229 159 13 48 175 13 218 160 197 35 187 112 241 32 171 12 212 19 199 162 135 61 45 170 219 250 94 
167 170 242 34 133 51 176 110 154 196 106 144 74 45 92 62 172 150 48 24 63 43 86 224 196 182 79 104 138 82 245 152 200 6 177 130 249 111 3 201 249 135 115 38 27 144 245 172 131 167 62 249 44 99 3 232 204 236 248 94 228 255 62 32 57 234 210 221 189 186 176 202 34 251 207 176 157 30 135 169 168 194 13 207 125 151 11 50 103 8 162 86 55 248 111 27 254 204 170 74 
59 77 212 20 130 138 87 210 104 213 248 237 159 243 91 5 120 49 91 48 8 198 190 228 24 169 198 87 245 30 165 157 76 70 131 114 101 45 223 91 255 172 237 94 0 67 48 58 2 138 20 6 108 195 91 158 97 31 132 186 57 46 100 10 94 194 134 192 62 104 84 39 200 118 152 109 132 176 21 173 164 184 136 203 47 250 251 91 209 195 92 156 199 47 181 66 130 122 73 125 
50 223 196 94 160 109 149 76 182 153 137 175 234 155 17 148 152 178 136 202 251 184 132 212 17 134 198 160 236 217 26 11 190 72 250 81 215 220 211 73 148 109 249 251 16 12 184 85 189 104 3 61 172 54 182 83 157 144 73 114 54 40 5 138 240 124 90 176 32 231 83 38 112 233 18 70 112 111 117 38 158 231 183 250 244 105 169 45 203 114 111 55 108 198 1 253 245 225 147 225 
181 183 52 246 146 235 30 7 200 101 202 145 218 223 10 150 245 29 244 51 6 76 240 106 138 129 104 244 118 54 187 28 255 236 50 129 182 96 113 229 210 38 198 86 4 42 20 157 195 187 137 142 241 232 63 140 67 235 34 212 29 37 149 221 39 191 144 81 227 8 96 181 84 83 240 172 137 236 0 141 205 11 104 54 107 35 153 14 6 105 42 120 205 230 41 75 239 156 233 125 
237 103 41 251 9 48 154 2 14 150 11 216 7 81 176 156 214 233 23 135 58 243 8 50 20 99 2 229 199 73 172 111 144 29 180 178 47 89 75 211 151 235 157 2 24 63 228 137 71 240 42 101 80 191 56 71 215 66 44 211 233 11 195 36 148 129 184 136 4 212 146 39 208 205 232 217 251 249 223 128 59 27 139 227 99 244 27 174 127 53 207 231 148 32 220 135 138 134 4 33 
238 175 2 55 161 129 12 117 207 19 239 255 76 36 25 30 157 193 179 189 0 62 30 68 177 60 25 207 180 33 190 198 206 140 158 211 251 105 172 220 28 220 132 203 173 147 206 119 251 78 55 163 176 10 192 170 91 100 45 207 101 10 50 76 184 81 178 191 202 114 242 198 223 200 34 168 176 132 233 153 132 152 221 61 76 140 119 232 101 84 101 135 148 216 25 130 161 227 176 45 
235 56 100 228 62 89 94 222 127 147 170 107 188 34 197 171 242 240 237 104 203 226 228 57 80 215 18 71 97 42 216 55 67 95 23 202 31 3 113 169 237 156 120 161 205 101 150 113 172 86 79 114 140 159 192 91 200 97 177 135 222 205 102 130 73 44 23 152 255 121 161 50 94 65 5 160 140 184 179 31 241 125 99 149 51 181 217 196 134 106 220 239 126 132 60 105 40 97 126 65 
185 92 42 87 163 240 147 4 139 151 163 108 65 144 45 142 74 207 217 59 33 81 57 189 13 90 141 63 29 20 240 197 57 69 215 152 158 89 102 220 205 230 131 41 123 67 145 147 105 240 215 122 210 249 238 64 146 76 12 83 93 229 142 43 141 100 23 141 121 94 99 218 78 187 223 209 132 129 78 239 85 116 189 151 42 86 0 150 162 184 165 78 254 213 206 101 235 119 91 172 
125 246 95 182 104 24 25 16 192 31 182 142 28 124 16 236 167 19 160 30 71 123 207 213 94 218 241 55 40 172 222 215 33 171 111 182 89 100 65 15 52 216 24 58 240 219 54 13 129 44 89 250 73 200 5 63 44 152 110 0 173 223 9 75 92 11 125 198 119 228 239 140 70 76 165 77 220 123 208 163 205 234 175 119 94 16 8 244 163 153 229 34 166 137 234 112 33 8 66 123 
229 41 118 147 205 134 98 42 207 172 33 75 186 51 216 40 96 32 178 128 78 59 220 254 45 244 151 31 42 23 41 14 4 204 143 172 103 120 86 117 189 192 173 135 38 14 82 113 22 97 156 34 32 89 80 187 126 63 143 62 26 29 142 234 202 19 198 46 103 73 12 223 44 248 48 152 19 110 37 157 199 86 212 114 110 205 209 221 114 245 51 72 15 211 211 45 34 237 117 188 
241 3 213 177 87 160 179 97 229 38 155 241 174 239 157 237 120 63 125 10 123 107 141 228 68 32 224 1 72 194 243 159 100 7 41 34 35 219 187 84 17 176 7 164 68 18 146 215 41 44 84 227 176 125 86 237 12 69 225 160 126 159 200 63 146 223 55 165 152 186 96 64 98 75 111 216 78 192 203 34 196 116 115 25 26 181 91 58 192 194 254 135 140 247 93 70 197 77 150 58 
150 149 196 222 88 196 219 219 22 72 134 31 62 189 244 31 62 108 255 55 100 75 231 182 56 143 110 62 37 245 252 102 224 155 195 214 108 148 95 199 224 29 79 44 192 179 66 2 62 122 38 121 150 251 126 70 60 7 135 106 43 34 255 153 88 200 174 208 247 61 126 211 51 207 43 70 210 3 242 32 32 24 111 215 97 25 110 37 153 128 126 120 163 175 198 61 252 44 43 62 
16 167 40 112 100 72 254 75 90 50 6 205 43 76 206 32 227 20 166 83 110 83 236 173 80 218 136 232 245 161 92 122 43 19 228 136 187 228 96 167 190 219 247 65 199 67 109 115 241 70 46 114 141 104 140 29 177 110 119 188 78 163 124 27 62 219 250 108 143 244 42 118 108 236 92 57 201 72 238 213 139 99 222 24 192 177 242 229 134 122 14 32 234 112 82 45 143 156 3 74 
244 210 222 131 45 229 241 215 89 214 22 139 207 154 37 40 88 10 212 161 237 249 42 71 183 104 2 86 31 118 36 215 28 101 113 40 229 42 181 239 200 245 208 178 209 172 93 68 208 104 181 193 78 249 210 12 56 11 111 96 133 242 251 176 88 134 13 65 180 184 165 2 104 242 122 214 28 172 223 64 39 251 108 213 65 72 206 36 229 193 50 5 195 253 80 66 30 80 49 234 
188 167 59 111 15 142 172 125 77 106 101 217 97 141 50 158 229 103 231 64 120 71 66 204 53 253 32 78 179 202 27 106 185 158 142 137 202 254 241 250 76 254 143 216 67 12 108 136 187 219 106 83 14 120 215 129 207 138 139 177 95 134 213 229 60 136 191 162 117 178 210 106 123 185 192 232 183 238 181 68 233 39 28 97 45 152 63 78 221 204 127 91 63 231 135 40 115 138 194 234 
233 51 221 36 140 206 1 151 188 87 52 64 114 55 179 97 11 79 152 255 33 58 140 36 167 66 198 82 59 228 46 159 101 216 100 118 189 171 11 242 214 134 137 185 149 28 49 210 115 36 50 234 134 190 39 115 1 235 82 164 1 41 92 254 131 92 203 37 62 72 12 126 252 181 143 170 214 166 244 121 102 64 29 215 41 172 62 203 147 79 58 165 102 142 201 75 11 200 150 13 
162 178 64 84 61 110 14 124 112 170 194 7 203 30 36 0 167 160 44 229 239 56 45 41 216 130 51 241 211 179 217 186 87 207 23 164 201 8 107 136 192 183 95 109 151 173 142 207 23 132 122 221 154 100 213 61 100 222 9 142 119 59 192 249 164 252 55 226 174 27 64 35 174 183 89 24 56 23 154 37 181 107 13 185 243 215 45 184 29 27 205 172 193 56 244 115 8 251 245 117 
217 128 56 206 112 10 162 218 50 64 212 195 172 187 104 160 24 160 125 32 172 83 93 227 8 139 195 179 119 77 112 206 220 109 113 126 56 40 18 177 125 79 138 202 7 192 236 52 91 248 57 216 53 195 0 221 248 28 137 217 56 179 179 113 140 138 82 34 58 102 166 9 9 89 235 125 154 9 165 244 167 218 22 135 52 212 20 166 163 194 229 78 82 144 38 249 226 143 189 100 
195 136 75 130 58 48 189 252 124 139 241 44 1 212 37 223 120 78 102 251 41 191 35 56 139 207 167 74 249 162 36 202 75 66 67 134 65 166 231 226 156 178 201 51 121 203 100 162 231 28 229 26 10 73 37 181 62 142 241 171 117 115 198 14 244 183 201 192 66 122 196 156 124 197 251 164 210 29 122 250 48 71 239 42 3 199 70 55 113 253 132 51 70 235 249 2 238 188 31 105 
247 128 137 73 54 252 10 203 194 86 147 79 145 249 97 93 125 94 108 37 157 188 54 244 249 219 174 189 216 64 104 19 26 252 108 47 56 92 130 238 117 14 194 252 106 59 162 156 14 131 237 255 135 202 32 158 9 134 37 113 6 93 108 216 202 1 31 44 187 52 151 155 152 184 32 202 111 129 48 92 236 215 60 119 59 246 123 141 54 168 54 49 74 99 171 64 51 43 57 86 
28 211 197 78 68 111 215 69 9 18 138 135 211 148 112 79 168 142 139 9 49 184 123 129 12 49 124 20 55 254 20 198 172 140 112 123 92 34 243 141 114 131 226 186 115 169 215 88 123 19 212 239 82 214 132 190 56 212 67 231 149 158 242 13 140 194 9 65 179 191 67 180 148 53 112 65 168 246 23 98 81 53 211 154 232 151 192 3 97 175 105 113 123 250 107 42 84 230 240 177 
250 58 13 232 72 98 41 142 87 67 91 124 215 27 1 133 166 142 240 49 35 253 84 177 207 54 19 239 222 171 112 226 39 231 237 10 119 163 184 117 219 96 29 156 199 196 137 99 6 239 70 159 207 137 200 186 53 137 24 109 180 87 161 122 219 104 214 132 117 2 182 246 10 149 145 0 25 244 22 62 23 254 12 121 68 153 255 111 224 188 45 161 163 13 193 244 83 187 109 15 
26 212 30 23 149 81 241 24 100 203 25 108 37 31 192 16 242 117 20 240 207 19 213 4 30 154 188 68 192 53 164 43 187 239 35 109 170 221 137 109 247 183 92 48 88 56 67 90 65 107 93 248 124 12 211 75 236 173 42 71 238 95 253 176 171 225 97 204 138 216 59 14 254 174 13 51 208 138 1 178 154 115 215 61 244 20 188 229 211 219 240 167 0 162 56 251 186 146 40 179 
6 79 190 58 254 152 77 193 243 179 137 109 206 39 32 93 119 49 252 200 17 106 98 141 10 127 238 2 238 6 7 160 139 211 58 116 60 61 124 176 130 123 89 248 138 30 231 44 100 118 46 172 81 166 103 99 122 178 12 140 217 81 88 14 35 210 42 94 219 252 104 184 165 85 174 7 79 3 200 161 197 122 165 255 170 200 83 1 61 125 49 232 222 247 187 58 167 107 201 14 
190 30 30 56 46 221 244 187 255 83 224 98 189 240 22 194 238 58 199 198 162 156 52 151 142 41 123 134 7 61 15 19 199 78 78 177 77 96 127 204 4 56 6 180 26 98 216 150 170 14 36 17 202 144 61 211 44 250 50 234 176 222 197 65 140 110 206 125 60 169 84 18 65 27 66 61 23 233 107 85 20 255 130 52 5 15 45 43 45 51 79 16 80 38 217 199 180 14 107 166 
96 45 168 47 2 213 23 125 250 1 1 109 156 140 226 253 94 160 116 252 221 132 192 148 129 67 31 184 224 114 65 125 70 72 160 105 48 115 76 42 75 19 184 16 193 127 87 176 49 4 144 78 175 214 86 15 149 179 64 177 52 36 97 145 11 201 229 39 133 129 70 67 132 25 148 71 100 65 89 184 52 84 57 217 185 159 181 144 237 132 63 55 207 81 73 48 176 15 107 134 
3 225 68 116 179 148 37 98 138 62 165 167 183 139 199 103 95 195 142 252 189 45 232 64 76 195 73 43 176 116 251 247 226 107 242 231 148 79 122 186 18 103 22 212 147 208 108 145 95 141 40 165 64 101 234 89 200 167 126 36 245 248 191 224 157 140 200 173 79 109 183 27 114 81 30 188 26 137 165 213 147 234 68 181 85 85 66 209 215 143 206 154 72 26 174 209 104 1 227 199 
24 112 16 239 203 247 153 83 47 160 18 232 78 218 141 23 189 79 247 63 224 48 253 224 160 84 3 230 150 255 250 146 111 165 31 47 21 71 188 14 199 216 84 133 234 134 34 26 219 226 206 22 54 232 59 46 221 186 0 30 112 182 67 27 148 154 12 202 49 204 60 103 47 52 201 122 100 15 153 100 130 215 210 185 245 237 32 157 177 216 173 117 55 19 67 137 236 48 41 39 
97 116 118 74 179 8 102 31 95 117 41 155 165 110 138 88 8 146 167 248 54 88 41 205 126 240 83 246 113 249 30 103 119 142 231 170 180 37 93 91 182 253 213 129 19 36 59 201 220 217 212 135 243 167 31 251 10 228 209 243 136 197 111 3 221 159 255 86 114 33 220 147 43 212 56 70 229 79 107 207 215 0 13 235 156 174 184 138 22 253 190 102 94 10 37 10 116 147 202 109 
236 213 48 92 52 225 218 161 172 195 243 117 123 58 104 141 135 176 172 175 195 247 85 217 139 12 149 103 250 116 113 80 204 105 238 101 43 135 187 24 56 72 243 168 144 111 221 33 59 64 212 196 77 148 243 86 39 101 174 246 237 213 159 242 47 132 105 93 255 223 208 238 109 233 254 217 209 130 203 170 121 124 161 94 176 141 239 104 103 252 167 212 52 227 107 126 149 185 3 130 
8 90 46 177 1 71 249 59 81 146 54 180 164 102 203 186 25 32 168 252 148 113 239 204 169 253 66 58 227 83 140 18 160 255 178 13 17 38 55 157 132 249 249 48 152 45 59 153 180 132 243 154 95 89 186 223 10 173 179 96 192 204 243 53 176 50 148 200 45 151 129 61 233 20 187 67 56 39 214 205 210 59 48 140 144 77 234 229 222 214 190 225 166 225 134 140 16 86 1 23 
46 211 232 70 90 121 214 158 233 178 66 171 220 110 242 55 130 227 157 243 11 211 91 103 244 116 196 28 115 192 204 45 31 48 103 127 243 136 40 162 171 240 206 182 90 166 36 240 193 247 83 60 90 84 99 174 147 86 151 214 186 229 14 202 233 178 143 198 78 127 93 101 7 232 31 222 136 114 34 184 175 254 224 180 172 51 158 12 166 187 166 186 74 110 47 89 87 118 170 98 
133 170 146 68 175 11 126 7 8 223 2 68 144 6 252 110 170 129 161 77 186 193 211 87 8 119 133 196 85 7 0 23 43 147 29 48 8 72 186 21 241 75 79 34 10 138 145 231 229 144 49 67 21 128 79 155 146 22 234 103 194 90 83 122 219 179 75 195 144 145 216 104 13 41 215 102 106 232 7 210 134 241 112 134 2 147 8 209 141 160 142 158 193 182 107 239 199 0 165 232 
88 33 208 187 12 140 239 229 109 223 205 223 169 70 23 46 16 30 252 129 100 152 61 217 103 162 242 206 105 112 69 131 218 187 25 151 204 212 89 188 99 1 255 185 212 145 251 2 235 77 157 14 205 15 182 6 142 146 213 44 109 108 80 152 7 216 221 42 203 150 210 87 151 61 88 230 110 109 106 85 45 0 18 114 147 77 31 246 60 97 152 95 6 228 255 196 211 23 174 131 
66 107 99 246 193 28 33 218 76 100 130 11 212 175 224 225 223 139 10 41 152 54 186 108 50 56 114 112 217 219 233 251 7 150 221 209 80 169 125 37 23 107 170 196 57 244 244 78 101 208 143 51 135 33 131 132 14 156 83 121 156 167 119 131 57 198 30 187 47 76 153 224 182 75 80 76 229 252 3 203 182 232 220 208 255 170 88 23 214 107 247 152 19 82 37 184 46 242 28 42 
128 224 241 79 113 179 140 25 150 247 22 62 149 166 70 151 15 239 185 112 252 86 37 251 251 64 46 98 16 57 22 72 191 126 198 236 154 228 172 168 234 47 117 246 250 121 239 35 101 143 120 195 123 159 145 21 59 198 104 182 58 9 240 79 161 153 218 97 183 66 53 22 86 44 160 67 198 81 254 89 66 133 76 154 59 215 239 176 10 168 236 69 148 241 54 235 76 60 67 126 
146 31 45 163 80 207 52 110 106 181 222 93 193 173 140 4 185 34 32 56 143 44 137 192 78 172 103 234 98 81 148 210 252 21 155 190 3 57 119 8 168 103 138 105 97 241 87 64 223 126 51 98 10 251 81 99 151 100 15 13 100 246 186 14 214 89 89 75 195 174 65 121 163 27 169 207 124 46 226 236 168 47 120 130 148 244 24 232 10 241 188 173 25 56 205 120 221 130 102 41 
171 59 16 8 35 129 139 231 237 42 237 3 151 19 31 32 16 155 46 212 11 41 75 58 45 246 196 202 73 29 7 83 158 139 253 241 202 230 75 131 226 171 84 182 155 23 69 226 122 142 2 49 231 233 169 222 98 165 15 22 94 235 8 252 171 206 24 129 15 132 73 56 14 117 84 23 215 10 118 111 84 156 113 196 122 244 202 13 238 220 224 9 28 43 206 107 12 33 134 31 
88 61 214 54 66 6 205 100 169 90 220 215 22 160 107 99 78 144 153 176 205 70 252 150 235 105 113 192 136 91 187 66 87 20 218 206 10 208 86 111 56 5 83 25 45 66 212 169 153 69 35 127 67 156 57 154 26 225 196 153 175 214 81 127 141 102 190 251 66 0 170 85 223 54 98 4 83 198 48 128 229 2 126 43 76 124 66 123 235 180 194 172 184 185 34 183 178 120 24 216 
191 248 148 191 252 164 237 138 38 41 167 132 44 107 172 227 47 104 159 238 26 189 136 230 186 87 11 108 126 162 117 197 125 44 1 189 232 4 90 57 12 55 195 218 174 83 122 214 126 168 61 115 202 40 58 165 6 56 232 217 43 205 66 162 222 212 32 199 229 143 188 138 160 33 217 13 163 172 188 0 216 79 215 214 62 229 2 80 187 101 6 150 220 86 192 92 37 178 211 106 
159 22 64 51 122 11 132 212 122 135 94 238 108 6 106 147 102 89 184 122 177 161 110 139 43 34 40 8 78 3 229 198 6 121 107 165 205 36 180 28 166 12 252 144 164 118 76 230 16 132 219 52 45 59 71 96 117 83 220 70 12 34 80 6 226 94 142 146 127 137 156 185 131 13 170 132 24 205 153 173 91 142 243 241 149 221 74 191 0 172 38 229 55 51 77 111 4 96 53 98 
169 244 217 62 83 40 18 140 148 24 71 145 225 42 18 25 120 30 179 230 211 94 155 125 211 215 91 255 195 0 167 103 56 126 135 192 253 230 244 127 197 206 140 77 14 143 39 156 37 84 250 130 158 128 218 16 35 13 101 209 139 60 193 254 156 6 244 142 106 52 25 34 42 236 146 7 245 24 0 72 8 21 190 242 159 221 18 123 249 41 140 222 237 245 125 16 225 216 48 157 
62 161 194 131 219 60 215 126 219 84 221 174 73 233 60 28 244 212 238 140 39 240 56 184 76 205 226 99 210 195 227 113 207 28 101 161 38 139 108 255 180 21 96 85 59 184 85 253 166 6 192 82 31 162 243 125 164 57 89 104 83 164 114 38 102 141 86 212 59 52 32 206 136 23 187 51 104 9 251 218 87 107 135 206 34 248 93 39 199 38 245 4 97 30 150 218 108 233 207 121 
155 136 219 188 219 35 52 60 169 18 51 188 58 107 136 98 139 66 174 5 22 72 1 87 164 193 255 104 198 102 188 20 96 106 150 235 8 225 140 24 31 36 207 124 196 27 182 93 151 98 208 96 69 126 242 54 55 251 204 206 94 164 188 132 56 220 34 225 68 42 31 209 84 132 129 52 110 43 163 101 39 10 51 154 204 186 214 147 142 46 196 216 129 38 131 153 205 13 246 73 
138 55 184 210 149 54 168 74 86 111 171 43 102 147 56 128 40 12 180 99 13 47 89 102 140 78 102 223 54 182 191 147 188 65 36 99 2 7 130 249 184 11 205 72 91 213 24 183 128 173 115 162 49 171 252 171 12 224 227 6 65 26 117 54 7 213 125 237 145 119 39 190 182 60 152 235 193 155 99 148 239 204 215 2 216 128 107 214 164 100 229 59 245 135 255 166 194 183 96 40 
247 137 48 186 218 46 160 85 208 45 182 79 35 64 166 31 21 248 37 54 17 163 115 162 226 19 136 101 3 242 166 109 79 184 186 164 106 64 152 155 144 155 58 6 195 6 167 247 105 48 9 178 248 64 130 94 122 236 80 111 13 99 251 24 233 184 170 46 161 128 139 244 58 47 104 210 115 106 69 47 76 125 20 76 167 194 84 162 105 106 56 188 166 7 20 231 127 101 143 191 
2 247 232 174 141 241 145 68 4 177 147 120 85 166 255 147 241 29 159 248 83 192 253 50 121 91 112 97 172 76 156 116 216 69 143 86 43 165 50 165 201 162 182 148 121 70 119 48 144 58 31 159 200 229 251 107 237 181 147 40 89 54 118 206 18 250 107 203 19 156 161 104 97 225 255 131 31 145 149 76 163 160 251 203 190 240 188 123 86 242 237 1 119 78 42 37 5 92 134 205 
115 100 50 81 250 112 243 245 40 103 235 192 16 29 135 12 23 32 250 247 100 34 160 202 44 91 156 19 42 255 254 54 4 21 193 136 76 41 225 50 180 131 32 42 122 229 94 39 148 77 236 69 176 48 176 30 116 29 23 48 223 151 116 132 77 181 125 97 52 19 13 115 176 45 217 101 124 52 130 62 183 163 109 126 127 24 15 230 114 45 221 166 98 125 180 126 47 47 48 249 
124 94 43 217 143 41 145 64 54 39 4 132 11 214 206 134 157 18 239 115 200 161 27 192 71 106 85 203 153 39 114 223 25 23 213 55 206 200 186 228 26 58 134 60 7 133 119 34 235 217 147 196 214 74 52 218 76 90 140 120 49 30 224 64 89 188 121 122 120 167 158 87 229 156 102 25 72 191 141 73 184 121 211 165 181 112 214 53 128 160 218 51 170 110 50 113 86 221 168 106 
226 87 26 43 186 163 203 224 34 141 224 164 110 196 105 103 50 2 182 213 238 116 99 113 113 190 12 105 107 47 226 31 94 49 219 43 179 32 38 244 201 200 205 49 159 185 164 194 125 13 230 113 193 69 52 17 184 227 218 231 254 70 157 75 252 116 81 251 216 39 16 129 139 144 29 247 253 51 43 226 219 99 102 70 47 143 220 173 30 177 160 54 222 104 182 123 214 148 10 133 
40 25 213 133 226 145 180 118 12 166 234 71 83 129 47 19 156 150 109 57 120 210 219 13 87 222 51 255 204 22 100 46 73 187 166 60 54 116 234 33 50 158 149 81 190 190 214 54 253 238 77 247 49 93 90 28 183 221 39 112 125 227 124 255 64 216 28 181 9 7 182 153 66 155 120 190 239 40 140 80 109 51 117 219 4 73 232 183 11 39 140 43 9 28 138 26 104 27 147 179 
220 148 237 70 59 203 226 50 70 241 130 48 104 118 58 145 213 236 5 189 176 23 112 167 241 117 166 65 241 87 189 99 130 76 0 108 127 49 222 22 95 228 129 21 168 34 32 19 2 45 0 191 148 91 112 68 131 100 146 88 73 129 217 227 112 178 27 27 175 177 17 93 239 120 11 123 224 105 224 222 121 75 244 105 209 53 44 42 28 142 135 42 213 12 51 50 43 89 96 100 
110 166 125 76 167 33 226 161 16 211 186 27 255 71 88 131 31 15 28 149 230 161 112 141 56 19 157 54 226 179 178 14 35 62 124 53 1 127 150 121 88 58 216 5 82 32 248 104 59 68 126 142 68 162 68 78 111 87 188 106 9 162 163 119 125 190 192 46 137 31 186 2 40 51 38 50 18 15 32 107 152 255 126 140 89 228 213 84 82 52 12 39 243 200 106 227 9 241 19 82 
243 177 0 135 51 65 117 166 12 169 87 32 6 110 42 116 204 224 197 175 135 198 55 254 157 192 249 222 156 249 27 129 33 146 156 166 231 250 235 5 135 137 144 26 128 29 200 102 230 190 191 231 17 145 238 173 180 160 209 61 33 185 35 35 19 180 186 176 10 150 40 0 93 0 19 18 175 153 201 105 23 217 20 107 185 123 165 242 153 134 191 93 141 40 94 254 252 35 205 212 
9 28 236 171 121 20 143 70 217 9 240 95 132 204 224 53 213 230 132 246 159 131 220 98 85 199 140 92 156 151 210 155 49 125 9 129 100 16 102 145 17 177 221 89 59 139 57 33 220 116 234 56 13 162 25 21 218 219 246 81 72 174 21 97 253 104 20 47 247 89 130 167 206 8 170 18 42 81 228 207 81 56 55 249 196 50 131 149 202 251 114 62 117 98 152 112 59 73 238 234 
176 198 151 73 134 197 211 63 248 166 114 201 123 222 207 240 146 58 55 68 25 130 210 117 229 197 213 35 152 57 185 101 48 86 37 166 13 67 163 166 11 73 198 219 174 255 91 57 235 151 162 83 182 1 163 241 248 23 150 194 91 82 164 255 224 40 130 2 74 88 45 250 69 72 96 83 246 216 160 183 153 41 16 64 60 66 230 56 131 149 222 85 216 58 87 176 122 233 5 87 
42 54 69 247 206 138 217 22 23 127 25 200 11 146 191 15 226 161 226 109 193 43 61 216 206 241 6 215 80 173 171 98 77 68 41 161 24 95 180 140 132 196 137 88 239 137 121 105 61 106 78 133 76 185 30 138 47 60 153 126 224 1 202 130 35 82 235 250 149 110 181 192 228 132 227 19 52 156 161 19 214 146 64 54 125 47 240 236 201 67 199 176 113 224 227 50 87 252 19 221 
40 220 219 106 245 190 159 244 51 179 49 30 213 185 218 32 250 61 32 186 33 142 33 234 253 41 74 72 83 134 155 201 183 203 20 70 205 156 246 254 105 222 55 97 176 30 154 87 234 227 87 216 191 111 89 133 29 234 216 104 99 170 120 117 132 142 155 232 113 217 100 70 179 44 206 21 1 21 133 181 155 250 73 159 176 102 167 234 32 80 208 108 56 157 10 208 229 185 30 184 
180 251 151 20 226 0 236 251 78 69 89 53 144 164 58 235 238 62 52 165 33 182 65 72 120 115 231 4 21 27 78 192 250 81 117 220 19 65 211 36 180 110 171 112 15 19 139 126 37 141 96 239 215 109 196 113 224 233 220 109 161 90 245 16 219 30 97 222 82 254 127 225 167 39 13 49 63 75 203 111 153 103 207 82 9 56 129 137 47 50 60 33 198 224 116 155 95 211 200 102 
64 238 30 219 62 196 155 64 163 114 143 9 42 129 215 232 247 12 125 212 19 113 30 250 75 193 92 102 244 102 23 226 76 215 79 92 187 255 242 123 44 85 154 77 191 242 227 4 123 234 126 227 109 65 22 181 190 165 247 161 25 224 75 15 227 48 118 196 62 16 56 228 200 38 110 101 144 72 92 19 9 63 77 57 170 6 216 145 114 190 91 251 154 48 32 60 255 81 217 39 
235 196 97 152 156 32 117 131 93 92 24 212 235 125 13 38 86 119 174 199 147 82 26 222 210 146 245 243 206 123 48 1 7 80 72 54 251 207 156 70 58 59 240 118 25 126 122 144 212 55 11 104 212 4 117 35 103 97 34 24 84 52 218 169 170 220 75 57 229 87 216 86 231 40 8 10 252 68 255 191 194 243 146 255 41 185 221 21 234 16 3 95 44 233 221 37 104 217 121 99 
8 201 247 123 16 100 189 62 112 61 130 169 165 32 68 236 36 194 236 57 104 210 172 134 91 46 246 204 203 19 236 214 65 241 56 194 100 10 110 164 82 35 22 4 92 189 107 101 178 240 35 26 216 59 173 99 255 218 95 239 64 64 195 161 78 21 172 61 150 153 30 145 50 141 151 54 165 231 229 195 209 189 115 250 225 154 218 223 180 58 200 165 150 238 21 27 176 78 114 136 
238 39 82 110 172 124 92 214 223 22 80 243 204 163 63 71 110 127 147 240 63 212 45 1 228 14 65 90 232 242 186 141 155 143 199 80 250 37 101 30 191 34 35 208 251 57 43 40 68 49 74 202 18 193 36 226 210 38 37 175 110 138 106 77 79 213 57 201 159 58 199 235 165 179 95 152 32 103 216 101 102 150 158 31 252 34 147 192 127 229 127 137 195 215 0 9 156 253 34 33 
215 101 77 119 226 133 239 145 153 102 213 88 236 75 219 60 88 9 119 164 140 154 89 176 252 131 35 231 7 36 70 121 27 98 128 236 128 24 29 117 233 13 165 129 139 166 97 156 102 220 200 198 24 15 70 158 136 244 251 26 122 28 49 53 239 17 160 153 124 171 103 230 128 220 9 69 29 158 237 44 240 9 81 36 5 39 66 195 124 235 59 237 239 179 172 161 173 179 111 7 
243 154 183 84 141 253 48 95 10 4 62 223 52 62 92 53 133 215 101 104 38 18 80 141 173 142 147 226 48 122 121 104 137 162 156 54 64 169 92 176 119 179 191 243 113 7 107 148 107 15 56 131 201 71 115 183 133 129 160 208 166 133 54 210 108 148 58 78 15 121 174 231 21 204 15 204 20 25 193 117 197 190 187 227 148 228 214 100 79 114 5 118 195 22 204 178 7 111 211 162 
167 88 204 92 25 239 251 120 52 32 116 147 68 59 206 186 107 34 220 16 67 45 100 238 47 19 14 5 105 92 82 166 44 189 214 164 116 63 89 100 192 37 66 143 191 58 190 96 167 46 196 174 168 216 51 48 6 19 48 47 55 116 120 13 204 191 13 67 66 134 143 15 195 144 164 148 162 244 19 44 51 58 164 44 189 131 99 101 110 118 197 21 168 253 250 4 156 99 204 22 
140 50 180 246 169 242 181 210 204 127 105 78 211 67 166 75 213 75 16 22 241 184 71 234 95 88 226 163 27 154 231 74 39 9 58 155 22 67 179 4 200 237 127 114 177 110 59 197 50 148 32 121 26 58 207 244 88 56 243 192 33 78 192 70 175 27 124 165 121 10 101 33 13 233 152 124 14 100 214 185 119 21 226 89 73 69 165 46 114 209 84 44 141 100 193 115 24 75 51 16 
13 144 241 177 24 160 124 68 190 76 236 164 243 34 226 176 179 75 163 149 218 218 188 5 65 215 68 192 122 45 155 148 102 15 4 233 82 100 5 74 232 72 86 13 236 145 140 236 191 155 97 45 200 75 39 242 217 137 160 71 221 85 13 99 60 235 246 207 210 72 82 134 142 137 244 5 57 40 65 33 249 20 132 232 102 244 163 169 165 175 31 199 20 131 237 254 136 186 214 130 
144 201 135 148 242 169 202 106 179 5 120 186 231 204 176 230 47 116 119 26 144 65 241 124 85 226 151 11 134 206 49 118 79 232 102 15 141 138 116 181 106 102 93 42 32 137 224 100 120 216 76 177 37 84 146 223 98 130 7 30 150 117 196 118 100 191 43 246 39 50 110 101 209 39 70 134 100 139 19 65 224 193 232 93 227 192 30 133 113 170 186 68 243 191 67 179 92 151 143 220 
39 172 121 140 86 164 79 239 17 38 187 86 44 239 249 207 214 219 35 134 199 209 62 146 224 7 47 88 153 130 142 75 154 5 224 18 18 69 233 40 223 130 147 101 34 113 64 168 162 131 56 202 41 136 201 129 204 117 102 145 210 177 20 248 77 199 239 187 180 228 124 187 179 164 169 117 253 141 154 230 134 113 172 91 98 138 165 197 233 55 238 156 62 165 194 78 139 171 37 95 
53 184 22 2 232 134 127 236 182 33 85 109 7 70 248 34 25 29 215 8 210 182 149 226 120 238 141 153 62 0 162 107 226 129 113 236 147 154 198 133 94 228 189 27 112 88 35 239 202 163 7 215 192 182 65 160 29 135 243 155 92 133 160 227 252 165 150 153 13 211 151 4 19 16 185 235 192 44 174 178 177 200 63 212 95 129 88 64 87 72 13 211 90 39 12 64 113 187 75 78 
57 38 184 231 243 170 20 74 93 17 145 151 111 98 223 157 193 152 244 62 170 187 119 151 46 123 36 93 102 250 117 248 114 142 87 19 14 31 209 87 98 251 128 125 26 24 144 30 56 241 244 138 153 142 161 131 205 235 136 12 144 188 112 227 144 207 242 161 232 249 26 234 35 129 109 62 186 90 33 169 87 134 159 74 249 100 169 104 165 205 231 28 225 198 255 105 174 167 109 105 
45 209 223 114 0 93 75 182 49 181 196 183 233 38 244 127 53 250 23 116 234 229 77 51 228 203 10 140 167 211 129 9 212 43 171 139 197 111 188 82 38 35 188 227 122 33 96 186 232 38 126 238 161 134 222 16 150 105 101 63 57 5 250 211 38 90 224 180 50 30 128 78 185 163 81 219 107 215 121 119 21 249 173 246 156 134 150 130 68 196 219 32 212 45 23 3 144 141 253 19 
147 163 132 94 174 125 252 5 246 246 243 250 54 210 74 71 197 116 136 156 132 170 38 13 240 84 185 152 109 224 56 160 82 59 177 16 41 109 52 33 197 84 121 229 136 50 85 184 146 244 224 148 111 210 251 191 221 223 98 29 128 125 170 93 173 11 250 240 99 165 223 59 11 45 40 254 9 162 164 8 229 220 36 173 16 33 248 111 114 135 188 226 181 196 176 193 221 96 155 94 
8 56 16 219 67 8 12 204 65 40 70 13 98 22 214 86 150 173 62 164 154 120 184 251 240 55 217 142 171 154 100 198 140 231 123 2 23 49 67 255 199 114 99 62 206 177 219 165 152 65 41 49 90 125 81 50 199 123 147 114 202 211 224 118 142 57 45 10 127 193 227 97 5 109 170 95 219 1 42 4 204 199 232 159 182 164 67 249 212 169 76 203 49 225 23 129 18 119 161 13 
35 177 215 172 203 20 0 175 56 87 143 36 74 208 52 161 167 82 18 105 209 106 124 252 97 61 37 70 246 75 45 28 204 20 55 86 7 166 213 96 201 183 71 56 60 245 192 137 235 150 120 150 227 234 246 12 250 241 25 203 138 252 165 72 67 176 2 253 19 11 226 33 112 111 78 110 75 65 153 139 63 226 55 110 185 166 107 242 102 252 71 145 131 187 244 79 145 155 211 158 
200 52 185 19 194 148 107 246 89 110 180 100 220 212 142 84 139 225 229 53 218 249 151 130 46 182 130 181 239 26 71 1 64 96 241 231 249 42 69 17 0 59 173 198 10 238 229 81 32 199 41 47 45 66 20 81 9 116 215 49 138 248 99 17 175 98 152 133 46 126 22 228 190 54 142 145 234 8 207 250 24 75 76 240 111 182 175 71 18 11 140 1 220 124 241 33 77 74 70 63 
49 3 95 168 81 236 255 227 195 155 56 245 202 185 99 58 103 209 73 40 31 89 2 71 214 85 111 43 251 160 166 107 188 247 110 177 55 100 113 245 192 17 209 9 86 127 80 89 165 173 249 133 223 64 234 104 193 0 183 103 242 230 102 203 1 72 133 147 252 59 220 43 140 114 31 180 97 17 92 42 204 135 236 59 181 12 144 195 151 68 137 248 183 174 254 6 130 42 234 156 
46 118 250 85 228 42 14 18 135 142 29 79 202 34 247 188 56 144 134 219 151 69 231 42 3 15 81 22 87 254 85 161 80 5 52 98 40 65 165 219 11 191 96 77 226 185 228 13 145 18 252 56 7 184 238 129 15 101 43 193 188 139 22 31 17 238 137 18 208 80 53 34 46 99 56 28 70 42 149 203 75 120 248 154 86 153 93 108 137 83 153 79 66 0 199 171 106 116 85 0 
162 22 68 31 76 13 65 4 18 197 116 250 205 126 68 108 6 55 114 24 213 169 19 173 187 46 119 250 172 163 14 2 151 58 167 199 155 162 176 200 104 1 251 134 173 21 43 150 197 142 106 54 209 197 156 234 162 215 26 133 192 25 230 84 1 76 174 171 255 110 22 203 24 187 156 37 72 191 116 19 202 68 116 1 54 5 243 240 194 74 194 112 235 7 73 168 119 98 7 69 
33 191 89 241 149 203 184 14 150 223 29 203 28 96 147 35 60 192 185 139 170 98 29 108 242 163 113 161 248 197 96 28 130 160 244 251 129 250 60 76 189 5 114 248 222 0 27 49 221 238 202 162 89 65 136 188 6 50 124 202 8 40 100 37 189 122 42 103 177 112 235 128 121 202 222 11 220 62 50 18 237 213 201 47 113 206 12 74 126 171 245 139 114 40 116 15 226 103 164 254 
226 59 77 227 160 174 115 73 8 235 162 226 169 202 21 87 128 185 154 89 121 247 144 208 64 24 37 224 134 215 179 188 11 93 3 15 231 98 45 102 39 21 76 177 195 60 83 108 168 139 21 64 176 182 147 192 245 188 79 45 219 61 90 190 106 28 133 186 168 230 232 129 0 63 175 162 181 75 57 131 205 153 221 77 67 138 179 159 91 208 137 174 107 227 223 199 153 125 170 85 
223 63 83 68 189 189 200 118 100 143 159 16 148 127 102 127 112 59 16 121 207 159 20 25 237 169 34 129 154 137 164 133 214 41 16 29 228 54 112 3 139 174 96 54 168 174 169 228 120 38 40 42 172 29 71 250 60 4 231 122 221 118 174 131 10 174 83 239 95 206 208 103 241 29 59 238 76 135 187 222 58 60 116 48 186 36 54 177 164 131 102 206 96 216 102 241 94 225 242 190 
84 142 103 66 91 233 172 195 31 161 151 247 123 143 224 31 93 128 230 228 61 27 207 36 124 29 93 234 77 170 36 116 61 104 163 153 39 223 122 180 98 157 239 225 83 117 222 168 204 136 179 31 217 143 96 225 48 169 74 87 16 97 128 94 97 99 178 185 44 173 34 158 170 78 223 236 229 139 113 119 203 49 116 62 57 44 143 196 47 228 82 68 81 196 117 65 31 91 68 217 
40 244 151 193 98 245 124 32 32 245 185 243 29 131 223 109 230 248 178 165 201 96 49 233 10 154 243 236 10 239 64 150 201 166 184 228 236 236 149 80 115 34 139 160 0 12 14 197 83 67 152 41 43 21 200 117 91 254 96 25 108 235 97 248 85 9 172 149 8 163 179 104 162 230 134 53 56 198 21 6 1 72 22 68 62 220 100 140 71 165 175 7 48 61 84 96 113 224 251 161 
33 137 117 147 133 52 201 189 229 235 12 226 193 162 98 238 143 247 6 63 112 191 32 147 97 122 246 174 2 38 33 155 96 136 73 109 165 1 98 236 34 144 91 47 251 16 132 32 212 53 225 242 73 217 245 78 201 93 124 26 47 215 52 182 80 137 7 237 31 88 34 19 248 92 156 17 63 161 87 106 125 236 190 237 14 146 81 145 176 42 7 172 39 149 133 71 78 200 249 152 
74 48 217 157 195 218 163 125 16 28 158 4 5 200 92 79 38 102 229 30 4 91 12 54 80 77 242 237 131 209 234 122 233 181 117 181 246 146 215 179 118 191 166 141 248 153 10 180 125 239 59 208 74 199 68 244 74 180 19 173 235 247 110 150 15 231 129 107 152 210 179 137 100 54 170 16 53 44 236 172 239 165 69 99 95 172 162 132 178 237 250 38 153 117 107 84 110 172 244 199 
247 158 72 73 202 95 113 68 79 203 19 88 14 206 142 197 181 77 60 139 135 52 60 136 232 239 124 209 60 119 127 141 20 20 251 84 95 4 64 84 96 76 181 36 204 170 8 202 52 190 127 23 118 19 208 65 58 126 196 84 171 197 7 183 184 218 30 191 127 154 120 175 180 233 56 28 239 116 231 105 167 107 36 185 202 194 20 142 171 129 115 28 77 153 188 54 169 229 244 104 
173 0 197 166 215 169 67 101 112 114 79 145 139 251 161 152 85 167 49 75 80 146 28 49 137 140 224 92 255 194 251 76 31 242 221 76 251 31 133 242 223 90 34 160 33 88 128 177 146 144 65 237 46 114 117 100 2 231 212 186 18 63 159 54 230 29 235 139 3 12 143 90 41 240 59 18 152 52 149 237 108 14 12 92 27 193 105 150 106 162 212 218 209 94 162 47 2 222 2 106 
149 211 73 109 13 206 194 194 249 98 154 197 63 130 57 185 81 184 148 86 57 90 211 166 63 147 183 56 252 132 14 228 126 70 89 94 207 228 123 14 19 231 107 125 55 244 232 33 69 183 170 222 122 151 74 136 254 37 143 128 98 4 105 16 215 107 187 252 130 82 105 221 131 45 3 196 106 39 240 36 204 37 26 195 186 207 22 78 188 5 144 58 159 121 156 210 119 102 218 210 
79 168 1 112 183 231 204 6 69 179 20 107 219 221 205 228 140 131 13 160 45 42 139 162 249 250 2 25 102 76 221 109 75 5 202 1 72 77 68 106 244 213 239 172 176 130 49 108 173 72 48 217 206 123 127 13 210 116 182 26 107 209 207 223 27 52 109 233 172 244 58 61 31 140 155 75 30 74 12 248 156 192 148 97 117 3 236 142 119 97 64 57 7 131 126 199 245 41 169 188 
161 240 212 176 73 27 79 177 20 13 223 97 190 122 246 99 251 185 160 158 24 71 93 177 41 92 54 0 46 146 236 187 5 123 135 107 174 172 17 26 0 0 192 114 71 158 205 198 12 127 144 254 157 43 68 46 23 168 179 41 99 153 29 70 222 178 12 155 144 181 238 51 230 4 45 162 191 101 164 216 56 203 99 149 93 106 9 114 101 119 188 251 240 201 215 207 48 219 19 220 
218 193 12 198 230 129 143 204 110 24 205 150 215 79 252 17 173 78 33 88 17 177 99 8 179 202 156 12 245 21 226 172 44 80 187 131 142 184 151 171 232 141 215 3 134 247 240 7 119 169 138 195 113 78 48 47 101 255 182 10 41 71 54 21 34 43 110 138 51 36 186 222 184 133 244 250 36 245 170 154 146 142 88 32 152 62 193 249 157 83 109 103 228 126 152 166 190 248 120 214 
49 214 128 57 144 235 91 80 198 4 108 28 211 101 103 194 98 157 140 178 159 252 179 81 201 203 161 220 153 38 118 182 20 70 242 152 106 32 133 38 97 210 68 25 29 56 63 244 165 231 235 180 165 255 97 178 50 170 44 173 210 2 38 8 222 57 97 55 157 146 81 1 51 82 31 105 57 32 205 109 35 202 162 19 237 47 140 214 57 161 130 131 159 87 223 57 42 77 114 221 
152 92 0 135 224 243 75 115 254 121 102 171 101 61 155 89 107 141 28 194 240 205 64 155 215 198 216 64 226 63 58 233 130 10 239 190 193 150 211 83 172 118 93 33 247 224 23 246 103 33 24 43 127 166 215 190 83 211 138 69 50 239 162 233 40 145 33 211 253 216 247 166 107 178 32 40 56 46 80 3 166 98 169 82 154 92 150 213 6 198 241 122 107 31 88 202 134 14 149 173 
12 181 231 221 48 65 100 127 26 25 65 239 41 189 232 8 95 42 175 178 249 33 44 48 4 4 231 151 95 148 6 196 34 56 136 92 101 4 120 236 48 66 35 70 110 117 13 83 27 220 55 48 141 212 58 17 170 80 85 103 162 54 77 122 60 12 212 189 104 189 15 18 125 156 152 73 50 124 76 23 214 241 187 81 219 111 242 86 14 173 167 83 2 213 202 16 104 27 180 24 
78 170 217 254 97 236 127 166 23 157 48 160 224 17 197 210 63 175 12 232 228 237 35 45 158 17 31 98 25 188 238 111 178 223 160 140 233 99 32 159 102 51 30 245 141 248 134 86 177 84 234 39 250 55 14 192 191 134 148 151 214 204 180 53 0 83 46 106 73 255 35 195 29 238 9 238 113 138 240 41 162 129 241 123 144 254 133 148 85 249 139 228 194 242 208 76 251 213 216 199 
126 36 250 82 115 77 91 208 68 168 207 42 120 70 131 45 3 238 244 217 47 35 167 194 135 200 16 249 194 234 69 241 137 210 16 74 146 149 165 65 187 55 222 186 212 205 233 7 196 209 9 130 99 226 206 186 36 139 204 22 196 190 42 237 169 95 174 27 142 187 136 29 199 117 233 159 89 179 98 143 52 41 190 153 43 88 106 245 59 141 11 13 32 51 250 179 103 177 32 160 
