P2
100 100
255
66 97 224 71 119 186 28 184 241 84 155 98 140 23 175 30 165 145 153 170 163 80 15 4 61 97 222 73 204 88 157 206 53 167 26 140 146 102 100 79 53 127 7 196 0 109 240 36 137 14 50 101 53 185 220 23 117 251 106 173 219 207 42 159 152 254 1 255 213 37 162 234 130 27 103 236 72 56 106 106 171 110 96 106 37 155 229 211 151 96 81 107 113 0 37 137 76 49 90 119 
252 163 186 211 114 118 182 190 82 197 15 172 44 167 103 158 180 29 130 106 208 204 10 206 84 89 147 49 3 92 236 114 52 220 185 174 135 180 140 30 39 40 141 102 14 104 250 145 79 25 124 152 7 69 166 192 60 204 187 175 95 189 79 162 72 67 139 48 231 220 190 184 231 155 7 1 211 36 226 94 145 107 149 127 130 15 67 96 159 192 161 169 51 139 75 222 166 5 105 142 
83 95 35 2 222 79 166 149 130 12 143 70 43 98 111 123 255 156 40 63 8 253 216 93 10 232 0 120 112 236 220 212 57 90 135 219 200 125 167 136 245 144 206 47 67 165 12 45 76 36 208 122 78 44 12 17 26 19 248 208 44 231 118 56 103 3 176 121 40 225 101 183 35 235 249 179 111 103 176 202 237 73 162 95 8 147 147 114 38 9 247 188 195 147 74 85 101 95 135 230 
162 78 244 165 24 244 208 232 61 232 157 144 98 167 4 31 15 73 23 22 2 29 97 7 5 25 143 137 219 246 87 27 191 179 251 82 153 242 170 7 102 0 120 87 246 96 89 184 49 247 204 180 202 95 30 188 158 224 67 14 180 158 176 159 134 165 22 215 229 0 66 90 96 105 30 83 212 238 244 182 166 232 55 25 144 158 134 133 125 155 247 157 51 101 109 60 222 159 39 122 
60 231 202 242 126 81 92 242 139 117 231 19 60 251 40 56 250 21 44 26 239 139 88 193 224 17 99 145 102 98 109 21 9 240 150 87 24 229 157 2 34 252 105 214 186 230 180 185 69 89 229 157 44 8 195 233 11 224 138 80 62 142 169 31 152 5 96 215 42 127 201 103 248 146 91 223 22 77 120 130 230 133 248 246 29 23 13 240 14 104 218 39 8 116 40 163 77 34 140 142 
215 79 120 214 112 252 55 116 158 116 115 224 94 140 221 114 126 243 125 153 78 246 242 148 112 34 10 130 44 188 216 186 221 48 132 187 175 163 84 94 148 9 138 237 64 88 155 215 234 62 217 176 86 223 66 100 122 234 79 91 170 47 17 128 80 30 160 64 50 93 160 188 217 127 127 243 8 251 29 210 77 16 129 67 12 200 73 23 69 134 22 17 245 40 93 86 167 203 199 76 
6 199 176 220 55 203 247 35 123 254 123 9 218 27 144 133 35 90 44 226 97 148 153 151 209 253 188 185 164 212 245 97 51 21 220 126 20 32 205 100 78 115 211 169 184 5 39 29 121 77 157 191 149 174 129 203 251 208 111 197 139 138 243 138 176 62 66 175 48 198 34 39 106 102 149 193 12 220 195 78 140 49 128 94 162 167 87 44 132 152 188 138 213 233 249 172 166 225 200 131 
233 107 91 82 33 210 194 175 18 167 253 164 51 114 34 207 52 221 122 248 183 212 140 66 40 85 21 99 140 104 116 98 166 59 9 38 80 129 252 113 157 50 82 29 141 91 151 252 227 69 250 85 161 32 46 123 197 1 6 200 81 77 9 48 83 124 76 182 174 136 71 151 252 194 153 218 43 11 193 4 145 136 139 153 49 225 147 227 164 153 74 166 236 63 119 14 40 193 97 50 
179 198 223 29 77 19 64 144 67 26 171 99 163 127 208 241 61 233 68 217 130 68 148 181 87 156 26 150 177 45 168 2 108 148 135 149 109 189 2 133 49 42 84 12 14 174 117 244 41 41 205 199 84 73 64 254 123 8 1 221 224 217 150 141 108 201 183 141 123 115 178 196 34 98 90 184 254 254 54 223 196 150 152 174 74 152 107 90 167 135 212 170 51 166 174 175 240 142 69 192 
1 178 164 57 119 117 25 16 12 151 119 161 25 26 9 254 238 43 134 69 57 203 219 52 42 232 206 123 212 198 49 134 54 166 167 165 205 101 44 131 161 9 215 149 228 119 32 124 19 140 6 185 150 47 67 125 162 69 181 220 39 7 224 88 150 66 25 171 8 114 156 166 87 109 93 7 99 138 123 179 156 25 155 30 15 194 42 83 51 181 46 114 134 158 172 163 39 134 29 37 
187 22 138 156 35 37 117 205 211 148 195 172 214 193 203 243 254 7 82 148 215 101 68 192 8 168 204 103 150 102 77 104 10 25 120 25 82 248 245 95 131 238 196 236 29 9 204 46 110 168 221 8 235 148 171 103 16 49 80 239 165 18 86 166 122 163 97 38 36 122 66 221 101 85 88 119 93 227 37 111 193 74 42 213 255 249 202 52 215 164 239 89 10 231 203 90 52 140 232 197 
20 228 160 41 163 146 75 97 75 105 172 62 117 51 208 87 84 28 254 234 151 119 191 237 252 98 170 166 27 40 223 175 243 10 116 5 48 82 121 146 205 60 149 188 18 253 195 80 69 24 236 26 171 215 8 129 87 144 190 176 156 239 144 168 94 73 47 84 93 117 86 162 189 115 147 127 102 22 95 210 163 136 244 231 35 226 184 247 169 219 62 225 151 0 180 150 85 52 243 55 
66 198 126 184 243 53 146 134 138 164 135 71 10 140 21 155 154 181 204 44 251 6 196 108 157 11 57 95 167 126 7 99 53 22 92 93 201 217 223 63 131 112 213 95 222 161 80 226 112 145 226 30 221 185 222 95 188 52 220 173 22 74 79 50 148 232 9 32 16 227 69 102 193 183 179 235 153 41 45 13 238 161 36 24 80 154 163 46 218 164 167 86 222 224 83 216 207 149 145 132 
219 65 147 12 94 8 38 220 152 131 52 222 170 65 126 150 55 200 73 62 78 9 140 172 102 68 100 74 209 69 115 232 36 114 255 171 82 104 145 68 139 176 113 247 167 122 248 122 231 228 253 164 195 37 31 145 110 221 25 166 119 74 124 207 82 104 255 134 39 230 171 224 9 238 160 109 9 60 204 251 118 40 64 197 245 32 15 153 199 134 67 74 133 222 242 96 24 136 127 200 
43 105 178 0 195 239 195 177 223 219 205 83 5 248 201 107 120 63 22 52 75 199 8 226 172 232 123 100 8 6 74 170 141 14 214 168 220 167 47 250 103 12 22 96 79 174 247 7 199 212 30 253 250 53 3 252 130 208 1 80 158 172 112 163 159 7 123 18 74 64 82 71 130 53 10 218 101 101 233 147 65 246 157 222 33 201 230 193 44 195 249 250 129 119 100 213 181 42 158 185 
65 166 104 200 140 221 213 156 154 51 90 186 130 233 118 6 125 43 152 233 193 219 142 209 74 51 158 111 77 53 75 35 108 54 188 8 212 230 129 15 201 94 168 182 161 170 186 231 242 8 151 214 84 51 254 55 164 179 147 94 121 200 121 208 48 11 171 43 197 63 199 14 244 98 188 245 151 201 243 50 0 20 24 89 243 35 165 155 59 174 154 24 83 74 165 183 71 196 141 163 
53 120 252 106 21 194 117 66 70 56 245 36 8 37 161 212 146 182 215 81 129 157 225 134 215 246 10 41 31 211 63 105 121 37 135 213 28 34 228 242 115 238 112 146 132 203 196 94 31 86 82 180 156 22 17 55 202 134 17 211 101 26 3 126 148 43 200 79 45 227 162 25 181 67 22 3 114 46 77 168 21 174 229 205 69 146 210 108 250 101 13 244 21 200 244 253 158 92 249 64 
80 199 143 169 188 206 114 113 74 77 248 35 178 254 205 88 171 66 16 197 73 48 13 252 188 223 47 72 106 13 127 178 18 118 202 220 83 106 21 146 165 175 161 220 199 242 243 204 199 153 110 46 205 239 222 43 20 134 68 64 150 159 18 81 111 110 61 126 114 57 210 198 215 126 178 45 77 159 223 201 141 114 66 246 164 120 12 14 234 182 5 52 227 80 13 21 128 158 41 83 
33 239 109 167 234 111 17 15 150 21 239 117 150 177 22 33 74 0 93 222 199 5 137 221 117 173 223 70 33 73 138 235 60 35 58 87 1 162 51 142 186 71 159 173 48 24 70 192 152 60 72 60 146 233 34 223 175 255 21 22 27 162 229 6 183 71 170 193 99 203 193 43 21 46 161 215 121 235 44 96 218 203 117 237 102 115 96 48 76 31 222 233 62 99 189 85 138 219 143 108 
90 63 172 98 250 52 8 23 25 131 101 95 197 10 56 63 4 141 11 186 121 38 63 148 140 110 86 240 228 138 112 11 249 199 226 38 153 86 226 191 112 183 108 145 34 254 182 153 122 202 186 4 198 12 9 151 98 102 76 95 212 189 141 156 100 188 92 48 196 57 6 61 73 1 40 43 163 59 255 165 120 114 229 115 133 123 216 120 144 60 79 39 6 31 240 173 22 228 223 21 
219 149 129 186 106 13 167 204 206 201 226 0 166 187 87 223 40 92 212 6 52 190 130 83 100 59 170 168 138 119 116 149 217 21 109 46 75 170 179 32 173 234 154 36 172 123 252 44 139 204 105 12 142 120 76 221 228 156 173 31 55 38 145 251 110 179 182 120 249 62 206 163 140 31 240 60 54 81 48 200 158 163 60 69 156 117 92 23 250 22 136 112 138 186 65 37 137 119 244 108 
214 209 244 62 234 213 207 116 174 198 28 97 199 21 140 150 129 55 118 171 36 119 1 28 182 127 88 171 54 1 126 206 232 86 122 209 86 249 220 135 81 144 121 89 37 40 41 252 85 98 58 110 17 34 95 122 58 195 5 118 201 110 188 129 134 111 226 125 197 79 80 239 33 247 244 146 30 243 0 122 72 130 204 153 214 28 162 241 190 128 133 252 125 178 65 121 172 82 16 141 
225 23 15 54 247 97 97 149 202 95 25 133 105 216 140 68 241 57 224 32 143 54 200 43 124 87 3 233 6 119 25 47 111 47 226 150 182 102 123 220 214 140 161 236 3 73 106 31 225 93 160 186 74 68 29 174 75 207 143 116 171 163 213 190 78 75 143 148 35 250 147 119 84 213 218 179 178 216 249 179 10 13 121 185 214 25 135 89 37 70 201 132 93 60 241 22 158 38 151 48 
60 75 9 7 245 161 160 185 176 99 10 15 126 223 7 190 199 194 81 193 69 254 28 45 88 212 253 151 143 5 155 220 191 18 189 192 102 27 249 138 21 3 236 174 68 111 21 53 101 165 158 65 146 225 188 130 145 41 129 248 29 70 96 121 1 167 103 200 124 223 235 74 81 102 107 93 253 183 177 123 120 132 87 236 32 175 115 120 24 129 40 23 8 38 236 234 27 50 145 116 
162 113 132 173 62 22 41 50 130 10 88 4 184 52 10 143 219 106 216 251 118 30 124 161 217 60 65 198 72 220 211 139 101 136 228 150 254 64 60 179 31 91 50 44 5 219 15 146 252 191 164 143 249 37 138 148 101 78 62 118 147 66 31 30 170 164 125 157 24 252 9 41 19 83 98 73 207 63 3 91 149 180 244 140 144 66 123 206 77 214 120 90 124 151 16 220 218 154 42 188 
251 101 239 116 20 156 242 203 163 10 65 203 41 186 14 181 68 87 204 165 185 146 202 8 232 171 163 90 104 90 208 86 13 161 63 238 68 182 244 43 87 115 63 69 12 20 90 66 87 72 198 114 227 78 111 112 156 226 108 25 143 202 69 1 255 84 201 67 252 253 115 4 52 170 84 172 239 70 116 85 49 204 153 98 29 177 160 32 222 224 231 16 123 26 223 212 125 235 139 102 
22 202 146 227 173 160 14 185 215 195 166 62 197 221 188 116 204 60 213 191 48 173 129 91 128 208 179 132 141 212 189 136 28 250 207 185 158 12 164 28 220 171 73 183 140 93 51 54 107 203 205 125 250 176 178 121 94 17 0 73 116 164 47 254 121 171 157 97 77 183 10 21 62 201 207 248 149 108 192 165 10 111 62 153 160 4 54 16 206 23 222 217 165 92 146 226 135 210 43 242 
3 62 255 179 139 134 221 197 88 70 152 108 250 143 147 32 22 8 162 226 92 214 83 18 251 44 190 112 248 176 93 227 5 185 6 196 224 214 168 32 77 153 214 115 34 71 31 95 149 248 166 155 47 89 17 166 64 87 102 32 166 23 1 252 127 65 60 231 148 131 122 93 137 150 184 44 249 92 123 247 192 163 50 172 21 123 94 220 19 248 36 3 229 151 36 12 111 159 184 229 
186 93 185 121 114 119 232 136 180 93 179 12 88 101 144 66 81 69 225 103 3 206 158 161 94 17 208 215 56 183 98 164 162 20 206 55 239 147 166 136 172 120 87 152 130 252 44 169 54 144 247 100 11 9 79 228 91 38 67 74 152 122 46 63 64 48 144 2 111 244 72 20 213 176 42 145 187 239 88 177 20 210 237 48 49 191 71 249 165 169 253 133 206 4 39 255 58 101 168 170 
198 180 75 80 38 43 129 16 216 214 234 159 136 189 242 178 24 63 255 60 249 67 102 191 97 185 190 235 23 7 142 235 182 79 153 5 68 49 217 230 104 13 53 128 112 92 103 2 14 28 11 173 9 62 115 56 81 169 23 214 177 123 74 195 74 229 187 97 48 251 65 26 9 20 17 151 197 206 61 73 88 130 49 114 93 42 21 248 227 21 48 246 84 217 198 234 113 85 24 197 
49 126 125 109 203 215 207 32 100 162 156 189 109 163 98 193 103 184 115 85 218 227 15 116 132 230 141 250 102 241 52 156 64 212 155 217 211 136 228 210 168 35 40 125 147 145 218 233 39 62 117 39 91 25 86 237 90 24 46 73 245 82 152 64 69 205 253 68 1 99 129 38 240 38 25 52 156 72 56 95 58 122 127 163 24 93 84 230 121 226 135 225 85 217 229 9 163 136 101 235 
62 234 133 166 165 175 101 158 101 176 255 159 156 95 110 155 85 186 129 225 203 178 104 84 248 69 23 60 133 68 165 224 146 97 88 20 148 12 122 74 227 128 90 200 12 157 201 110 155 172 24 246 27 206 86 32 30 155 248 216 155 119 5 146 120 97 13 1 69 126 118 18 14 132 186 46 190 82 25 186 223 237 227 16 46 26 84 136 182 67 134 164 73 79 233 15 145 15 140 212 
81 3 136 82 160 80 7 220 178 202 116 136 5 19 50 188 251 16 12 229 98 162 169 139 193 100 91 44 28 64 66 205 106 132 22 78 99 41 51 180 94 16 92 125 255 121 17 224 104 121 118 96 112 107 172 72 234 43 169 99 200 147 188 245 42 206 248 235 51 165 132 215 197 221 17 230 224 243 224 248 90 120 193 225 64 252 203 65 18 165 250 172 40 0 139 233 200 241 92 86 
100 254 115 95 155 203 150 36 114 92 235 106 81 83 224 148 82 50 96 22 194 213 122 95 48 3 189 236 198 198 198 220 107 55 101 245 245 144 25 179 75 161 189 77 20 124 144 129 174 225 8 140 245 151 178 216 95 224 189 144 46 76 126 77 179 253 20 195 30 146 208 105 11 161 139 98 15 59 115 82 132 210 170 191 165 251 132 126 10 181 9 81 80 50 136 229 36 11 248 87 
204 217 150 212 84 164 177 173 36 124 69 34 214 55 11 33 234 173 158 249 198 196 78 191 0 188 121 247 78 106 19 55 255 192 79 54 247 97 54 184 143 44 12 184 56 219 170 31 10 78 115 21 174 24 80 244 156 222 242 203 155 158 72 78 156 106 34 189 252 141 9 18 20 129 49 60 248 198 175 41 74 29 82 195 228 114 65 232 166 60 46 212 104 63 120 157 21 23 55 112 
119 152 72 169 93 245 21 22 19 137 226 45 223 178 86 18 178 94 115 106 121 196 44 252 104 116 176 20 83 26 44 87 110 134 67 190 195 196 94 151 236 231 33 153 113 85 34 210 170 177 89 211 237 218 251 246 21 180 182 112 195 140 222 151 239 145 145 201 145 233 37 173 245 20 248 175 172 229 188 97 196 8 143 232 81 137 156 24 242 152 9 247 17 235 114 199 114 115 255 72 
232 117 133 49 31 205 141 66 250 206 239 33 115 228 43 172 207 239 247 191 233 90 245 188 183 237 25 152 173 15 168 212 123 232 167 175 250 233 246 186 251 237 105 158 185 200 153 22 218 54 93 207 158 118 150 185 48 251 27 56 49 51 101 151 192 56 4 46 24 196 107 181 164 30 53 75 97 62 81 70 1 228 85 212 2 243 138 133 102 34 149 3 161 243 15 225 156 150 29 67 
144 198 8 14 217 32 207 234 22 47 230 97 124 151 161 84 177 106 134 197 76 62 99 135 84 202 203 149 45 173 100 213 202 155 242 11 114 84 68 149 75 168 219 248 83 104 137 168 25 5 217 108 130 229 231 170 79 134 103 113 34 173 46 226 220 26 209 88 145 25 200 102 243 139 124 205 81 129 209 205 9 125 90 106 203 177 250 9 180 242 182 123 209 214 228 204 40 214 44 148 
198 235 110 0 252 169 8 36 5 21 224 11 20 96 80 45 175 142 203 133 157 204 233 188 43 128 102 213 225 235 215 205 205 138 131 230 104 223 35 68 183 186 138 230 255 113 238 18 97 126 104 243 212 98 190 119 200 180 224 91 75 33 60 236 6 33 132 50 34 139 242 6 147 57 87 237 178 168 69 105 169 235 66 234 224 132 60 125 235 53 184 19 217 49 91 77 165 158 33 169 
10 14 50 28 223 129 122 98 61 132 197 122 162 175 248 170 162 154 8 199 225 82 69 177 98 215 104 63 135 135 241 106 72 238 197 50 216 197 212 156 27 152 56 173 128 80 3 88 201 131 197 132 149 104 223 233 247 10 217 165 88 26 154 80 72 36 85 94 243 204 107 233 17 160 177 4 126 5 196 28 142 201 91 64 67 160 20 39 148 85 240 73 202 223 43 137 38 135 228 247 
209 132 89 38 215 129 110 57 243 198 186 7 24 58 155 215 43 42 111 30 22 78 206 101 163 193 101 91 9 230 78 170 139 132 124 14 10 93 219 213 20 194 52 26 158 134 77 245 86 147 215 104 215 34 64 1 149 72 125 41 51 149 48 163 126 249 169 113 130 168 27 163 239 42 85 33 150 140 55 73 28 52 33 158 47 170 74 216 138 190 142 132 38 74 172 123 244 88 47 229 
177 157 103 172 142 116 19 65 101 42 15 23 156 224 13 45 211 248 58 200 22 61 195 3 156 248 176 46 176 12 9 28 162 179 47 24 144 180 90 24 4 139 97 180 90 97 49 127 150 1 131 253 159 162 64 209 169 136 159 28 136 38 111 123 16 190 253 131 121 3 127 133 129 149 42 126 227 188 206 165 90 255 240 5 237 238 7 28 170 179 210 217 68 62 221 196 39 165 131 213 
6 106 98 155 49 95 153 90 96 15 43 166 20 39 217 77 30 215 57 59 47 61 101 93 107 209 213 42 35 81 248 76 84 253 26 136 170 119 33 236 199 27 217 221 67 210 87 48 111 169 75 187 217 167 207 88 122 45 116 100 237 234 141 139 192 43 75 174 137 244 109 52 92 219 36 41 17 145 171 161 113 168 124 180 152 208 8 73 71 24 3 183 199 231 224 238 89 164 222 157 
227 93 226 42 200 110 13 56 45 101 216 205 172 172 223 207 144 127 149 42 181 59 247 168 6 233 149 9 70 144 62 27 72 173 52 1 199 141 250 162 58 252 87 175 232 129 59 42 88 70 234 35 47 156 216 10 11 58 185 19 16 84 177 161 140 12 158 143 125 239 8 122 126 174 186 249 129 215 162 230 143 231 210 230 184 123 182 149 126 166 36 210 179 151 108 160 27 17 84 235 
177 247 88 219 102 63 10 73 178 214 61 5 187 159 117 192 38 207 195 207 104 52 178 64 88 45 161 228 202 237 233 57 154 205 212 75 204 238 119 153 69 57 173 33 227 235 25 157 89 255 28 105 132 198 208 10 214 118 244 22 190 234 154 189 158 247 63 185 255 161 29 50 160 100 95 196 147 159 22 131 119 160 174 242 198 121 67 227 68 163 234 178 122 92 219 232 135 239 6 2 
108 255 72 144 118 211 19 121 3 215 62 52 196 205 58 147 203 94 87 72 102 252 123 16 157 141 215 112 137 125 141 25 1 46 62 210 57 206 25 113 141 172 87 203 78 42 234 86 166 53 2 219 11 194 144 135 212 208 103 218 220 87 205 103 90 244 197 122 38 247 204 180 246 243 135 194 99 251 12 24 20 249 72 162 114 186 43 1 23 97 145 155 216 7 31 210 247 205 163 151 
137 195 101 36 86 39 124 145 183 79 117 64 30 198 119 192 243 146 9 146 88 37 254 207 122 157 229 126 26 19 91 123 162 116 163 232 99 11 197 248 191 186 104 243 99 219 70 84 74 140 73 119 93 0 77 106 88 9 253 65 237 186 79 32 121 11 217 220 41 118 136 21 132 234 167 174 36 149 153 254 238 142 233 216 155 147 215 13 68 238 58 204 18 251 131 196 251 151 224 13 
170 177 145 123 248 19 1 42 29 135 38 235 117 186 89 83 84 25 104 59 117 68 76 136 65 200 96 130 3 208 89 147 97 117 70 177 225 14 79 137 234 166 160 86 32 119 147 211 189 164 210 33 194 111 223 220 109 174 222 101 250 163 129 54 113 145 56 142 73 15 225 99 186 133 70 231 80 252 244 241 235 210 215 209 11 50 195 230 210 125 253 8 48 207 146 142 142 250 194 213 
233 38 13 107 88 105 188 247 79 167 80 59 207 112 31 96 85 152 40 74 149 146 112 23 40 35 30 190 130 162 212 71 240 104 187 206 106 105 117 78 171 96 10 141 186 45 112 14 151 164 94 111 4 215 7 168 174 193 103 120 169 23 4 178 5 17 218 143 250 58 131 186 58 212 200 193 225 249 33 12 191 219 100 118 111 148 67 22 71 55 99 181 229 218 117 244 171 49 122 205 
4 90 147 136 81 227 8 33 21 184 94 53 44 91 242 217 140 17 53 26 148 33 166 134 130 62 157 199 113 232 117 249 24 224 58 216 36 192 112 163 227 53 178 60 16 167 120 69 12 130 87 203 85 161 218 194 52 99 51 48 40 195 143 141 21 149 236 22 68 230 67 111 159 227 16 97 104 139 235 196 198 149 59 100 0 224 96 55 57 136 2 229 158 255 231 204 121 41 134 179 
228 113 36 106 141 62 43 22 236 153 121 127 245 108 204 171 84 52 252 3 245 136 50 135 129 88 123 155 15 87 230 54 103 26 48 95 32 20 121 198 18 224 78 227 161 208 73 95 254 254 215 239 138 112 60 210 235 141 10 72 112 146 1 195 209 48 129 40 43 252 83 102 242 122 29 134 139 198 110 137 141 191 160 147 189 37 151 92 71 231 41 207 237 178 15 40 221 138 130 199 
113 238 54 35 106 65 7 189 145 33 207 68 91 41 101 158 107 228 250 45 92 123 153 154 206 42 99 140 139 141 5 43 109 90 113 184 100 253 253 93 24 84 176 218 150 167 241 242 31 143 124 31 129 218 62 247 22 80 19 219 50 102 77 39 113 181 170 62 118 201 166 68 204 77 93 233 141 169 73 211 209 191 254 193 129 159 175 183 201 129 138 26 187 186 221 233 7 170 235 222 
226 122 199 83 67 189 85 229 73 11 61 211 39 74 177 43 12 102 243 37 223 80 30 77 188 98 197 198 34 210 118 3 240 196 21 203 167 51 195 151 153 61 127 64 142 161 159 83 86 139 247 3 155 49 216 140 195 91 182 226 117 65 201 65 130 132 191 225 173 115 82 108 168 190 48 226 120 64 70 118 199 80 199 190 75 48 232 24 155 69 166 118 218 184 176 209 33 109 141 208 
61 71 225 78 154 128 12 254 119 2 66 230 130 74 18 250 76 88 202 103 24 161 125 207 242 59 28 98 57 95 47 76 160 67 156 158 26 101 61 42 225 103 210 115 132 37 227 209 37 1 55 54 87 172 127 28 174 159 3 234 184 155 112 225 77 140 55 1 42 130 47 181 207 3 128 150 190 202 49 144 65 237 241 193 118 141 44 134 180 128 205 221 182 242 3 25 13 18 38 183 
109 122 194 33 241 26 180 148 203 194 222 223 87 8 77 198 69 37 12 196 124 182 41 11 85 92 67 208 117 16 197 200 120 123 176 159 150 12 156 130 224 138 143 238 123 114 222 29 232 1 134 103 144 177 103 123 218 35 60 245 0 177 161 198 47 170 123 130 223 61 254 213 206 173 99 28 58 86 248 215 1 87 156 155 102 180 21 87 217 73 152 208 37 69 157 33 20 163 169 231 
68 101 116 72 213 39 197 138 214 90 47 194 220 96 248 155 255 206 132 168 86 107 48 197 104 134 12 48 38 92 162 104 111 195 153 222 164 97 40 96 6 154 124 98 112 203 234 195 81 225 16 196 185 163 94 73 174 209 227 102 83 204 85 178 255 167 226 189 176 153 214 154 174 110 124 162 208 157 150 245 215 87 237 107 201 231 157 8 79 131 107 148 87 198 57 218 46 127 159 226 
135 176 239 114 65 250 2 112 148 161 90 44 225 238 80 68 142 132 221 237 176 232 77 129 193 27 80 136 169 170 117 117 136 188 48 246 11 122 82 132 246 17 245 243 244 248 154 28 254 141 75 4 75 200 157 43 210 241 125 28 34 118 169 25 57 124 144 110 114 130 3 146 30 128 19 188 36 150 191 124 97 252 44 245 250 37 12 40 48 242 229 144 189 43 137 167 219 17 19 178 
221 203 160 108 75 157 28 125 136 91 86 92 109 17 124 184 7 18 52 5 165 192 177 128 148 163 48 131 26 152 45 190 226 218 169 100 75 140 71 203 205 167 108 197 92 229 228 80 125 173 18 242 115 224 102 231 164 203 168 38 62 41 131 2 183 187 65 229 62 250 18 107 166 28 220 231 134 59 33 227 32 238 48 176 167 253 100 44 186 90 105 253 80 139 248 153 240 140 149 33 
54 56 77 253 198 18 140 29 251 136 22 135 50 146 184 121 12 189 59 95 255 80 76 130 64 250 71 152 49 65 44 251 204 141 101 72 204 100 65 65 74 241 233 24 241 152 22 72 10 129 212 185 119 62 208 76 122 29 68 47 40 220 159 229 59 212 111 149 170 173 29 27 107 228 149 94 221 186 143 208 28 114 12 30 6 209 4 19 254 144 210 248 82 216 48 221 81 126 251 78 
62 205 149 60 232 65 207 80 9 85 49 253 177 199 79 133 169 20 218 225 12 137 216 250 99 254 114 85 166 116 151 244 208 80 174 56 141 183 43 180 61 207 211 83 192 168 227 71 37 227 225 56 35 55 236 160 114 59 160 232 196 198 115 242 192 91 114 82 12 228 17 111 227 36 92 243 47 217 180 172 48 160 59 83 186 247 161 24 12 223 77 54 33 170 220 150 251 156 178 200 
251 75 192 248 87 142 72 27 26 197 171 204 70 125 95 216 228 169 196 55 177 105 54 84 92 193 27 144 198 147 183 117 106 141 146 113 8 154 232 166 134 87 209 40 201 237 49 8 186 117 70 254 164 137 186 170 235 39 250 206 255 25 140 127 154 168 192 188 207 32 97 106 0 65 106 171 126 233 145 67 159 123 22 165 134 162 215 64 121 50 169 101 234 149 105 69 117 115 169 109 
55 142 141 24 140 21 155 57 135 43 178 202 123 55 208 19 155 183 254 169 185 212 255 150 30 170 112 143 85 119 109 103 132 74 168 31 197 90 147 128 215 79 223 157 97 126 4 235 150 84 22 98 50 125 74 179 101 244 55 101 121 13 167 108 235 232 110 32 249 102 91 194 215 183 224 136 65 143 24 186 236 4 157 192 215 89 193 200 173 82 114 15 2 98 80 77 130 177 165 35 
39 17 96 49 110 34 165 141 189 46 55 73 54 81 134 234 223 242 177 140 137 109 137 251 224 221 229 128 81 111 49 118 190 34 21 243 184 190 180 122 2 240 168 6 149 220 161 192 170 92 88 240 99 255 79 68 25 74 71 59 191 117 30 140 166 76 247 216 67 215 169 209 2 105 62 75 122 172 12 154 17 203 136 38 1 227 10 79 57 54 83 140 53 153 8 50 115 225 225 47 
166 176 40 120 49 99 250 248 208 231 205 140 38 130 31 18 131 9 8 117 59 151 146 36 192 54 249 198 124 111 247 146 53 166 96 24 152 205 53 189 69 32 66 194 58 180 40 213 61 243 165 111 238 119 100 16 25 37 171 27 225 167 148 241 40 12 56 43 193 145 125 140 203 218 113 57 15 37 78 211 23 205 228 237 198 39 117 154 95 141 243 55 158 183 207 81 19 47 95 135 
239 57 136 25 239 30 240 177 119 143 148 134 147 189 165 71 97 237 43 13 198 196 78 218 60 218 249 164 220 197 21 172 70 110 64 1 178 10 98 239 119 117 135 146 242 55 17 20 16 191 70 210 12 82 68 202 175 229 79 131 154 254 102 22 71 58 33 212 190 213 62 27 55 101 13 104 231 195 208 16 121 24 118 147 102 152 138 186 224 190 78 73 189 82 40 181 16 76 80 15 
150 50 106 72 109 232 183 78 161 167 45 64 8 138 62 111 201 208 194 157 196 40 118 215 154 202 96 126 102 201 147 223 35 184 54 223 143 213 12 65 252 109 50 205 171 98 245 137 10 209 245 97 79 159 102 190 124 204 0 124 157 103 43 193 211 61 139 97 172 249 18 25 115 103 92 96 196 187 246 226 63 238 127 162 70 213 104 110 156 28 201 161 10 119 173 230 185 164 80 232 
206 32 224 244 190 199 131 218 25 197 97 214 97 3 176 180 96 241 152 122 95 4 231 255 236 127 232 198 214 154 200 161 241 138 174 223 246 119 191 197 99 155 221 223 22 14 154 142 109 132 59 64 225 4 130 246 126 254 72 78 198 182 187 113 69 246 52 166 48 151 224 132 193 23 27 69 161 100 45 19 234 181 88 251 151 29 160 15 128 3 79 144 54 90 98 154 120 192 39 73 
216 72 19 45 10 104 188 132 158 239 175 132 104 91 111 218 23 3 31 103 109 27 39 23 172 235 100 101 17 23 250 107 177 176 57 229 205 98 72 246 196 241 97 252 175 154 103 229 157 32 192 119 205 15 188 90 140 64 116 205 92 211 4 215 29 104 179 90 120 191 250 60 223 134 215 109 114 246 76 13 211 15 103 137 199 31 115 193 200 172 222 47 109 167 191 53 147 193 135 57 
31 244 74 89 220 154 130 43 22 182 60 64 121 17 1 101 103 64 240 48 187 216 110 110 91 52 232 36 27 101 33 74 239 19 181 17 90 22 233 40 43 64 252 173 146 56 154 112 45 133 55 202 156 1 109 197 250 60 235 200 193 123 155 12 28 194 0 132 111 219 111 182 201 87 236 161 71 80 238 243 48 171 141 174 129 24 222 224 113 193 190 61 242 21 15 241 46 238 196 237 
114 30 20 76 165 232 242 178 11 232 182 64 27 218 89 201 196 172 66 43 238 91 109 120 150 33 41 18 234 253 128 75 201 242 84 136 31 241 95 89 15 221 123 11 184 114 88 135 112 82 103 4 175 143 17 247 99 210 135 171 148 64 23 20 199 248 211 174 194 124 165 250 20 221 181 88 172 161 62 121 247 169 98 184 213 202 155 60 1 122 100 147 89 211 190 165 130 8 219 84 
138 187 9 36 191 180 207 79 8 227 211 83 215 48 185 45 21 73 218 51 182 90 113 216 88 217 157 212 106 205 96 207 62 163 137 218 144 239 90 114 54 182 162 63 45 62 84 117 120 115 179 237 233 98 235 255 230 63 153 81 176 236 55 230 31 194 96 200 211 71 130 254 45 37 88 42 6 100 66 166 133 3 139 185 54 4 189 67 209 66 66 224 0 74 107 250 231 213 5 65 
209 190 89 138 154 33 110 221 191 118 14 74 157 111 111 133 70 200 208 227 233 236 177 64 14 164 81 242 191 139 251 140 111 177 248 63 102 16 229 187 174 0 162 122 151 190 91 236 209 218 45 105 41 54 195 139 68 102 224 99 230 86 55 155 233 92 242 208 66 235 64 97 139 139 18 147 143 118 44 168 215 64 80 10 66 16 105 155 133 100 203 70 96 127 196 102 19 46 131 13 
194 46 245 148 214 255 109 187 95 84 179 208 161 210 68 9 15 184 82 111 61 79 250 16 101 164 108 120 29 30 81 149 10 108 254 124 150 50 45 151 175 193 88 8 42 223 245 74 173 158 226 225 36 145 18 149 114 36 13 122 52 25 87 64 206 102 204 119 46 25 217 180 37 240 13 56 72 214 123 237 115 123 240 33 76 58 233 163 206 39 119 227 252 106 243 247 49 156 236 116 
210 178 122 193 116 127 164 199 241 193 85 216 6 71 118 211 226 44 93 122 243 244 74 165 235 253 15 155 134 0 254 162 214 146 184 245 106 21 221 183 225 171 185 87 7 175 79 58 235 46 220 244 12 144 77 41 238 32 231 61 45 147 80 122 57 252 36 247 7 157 153 188 225 228 211 133 197 75 148 218 116 31 19 42 109 158 27 36 251 95 90 56 138 225 60 61 150 250 36 4 
125 243 108 245 209 141 253 20 152 202 44 139 8 58 213 4 144 235 172 90 92 9 114 48 240 60 80 11 11 92 21 67 236 228 31 149 77 155 60 144 134 47 100 42 86 61 128 99 231 56 244 140 234 246 161 182 197 54 254 156 55 96 213 28 77 149 31 8 230 50 140 201 156 48 64 45 190 25 202 5 183 234 143 81 68 151 151 75 11 191 75 11 43 186 27 188 182 66 120 211 
126 59 224 236 204 172 13 251 132 253 91 28 135 222 96 63 213 39 54 49 82 116 115 174 183 29 113 125 239 218 58 190 145 33 3 3 114 86 95 26 59 189 161 231 84 15 231 15 141 157 207 123 134 179 208 141 243 171 182 159 102 15 250 207 48 9 111 183 245 11 111 25 34 170 228 77 33 23 0 26 25 51 112 75 252 43 156 51 160 171 69 143 24 124 221 163 208 156 215 210 
155 240 223 75 194 189 189 50 110 139 138 171 156 228 38 192 247 121 211 81 28 196 109 192 253 201 21 246 79 126 137 63 242 180 110 128 171 85 117 3 117 247 194 79 41 24 28 254 196 168 5 112 30 150 68 136 240 174 194 99 84 60 36 191 35 203 207 6 86 90 41 140 123 212 67 46 157 22 35 23 0 227 218 7 61 89 102 130 151 248 75 170 231 180 148 242 100 59 89 81 
229 237 186 173 253 167 43 124 130 31 128 255 210 212 122 172 150 50 224 135 118 141 45 170 170 129 18 251 87 142 230 110 64 77 61 143 66 197 37 49 31 236 187 67 12 204 17 203 140 144 58 83 43 21 143 205 1 139 237 27 99 199 203 59 128 73 8 83 16 89 68 111 236 17 144 233 193 53 106 185 87 97 152 140 18 127 24 90 81 47 229 76 121 57 37 155 144 149 249 33 
61 18 50 219 171 148 193 46 118 30 98 239 222 74 254 47 30 95 243 45 42 190 193 200 100 20 244 50 117 15 255 98 134 147 63 159 48 237 238 65 241 248 66 38 82 56 80 214 97 75 169 21 185 122 162 5 22 17 1 7 113 28 206 8 144 109 32 118 160 157 52 7 2 217 72 3 4 247 64 177 174 75 195 167 77 203 23 136 126 213 2 176 150 89 210 213 222 80 44 110 
223 34 55 182 150 251 165 218 214 102 202 213 39 185 134 6 44 239 211 117 5 71 73 232 185 32 242 156 126 117 149 66 206 82 60 186 180 119 36 171 50 135 143 90 42 21 46 254 198 198 191 116 88 116 61 51 206 13 238 95 150 193 188 159 137 145 63 206 195 248 42 193 181 105 100 53 11 120 147 64 203 136 63 40 64 93 85 198 98 163 235 103 79 8 149 248 126 5 83 35 
185 0 59 226 73 221 49 93 222 40 64 244 238 73 59 97 189 141 178 168 96 0 206 100 117 102 44 42 159 21 181 68 47 147 195 233 113 88 205 43 237 144 206 252 51 10 55 219 110 4 198 44 157 157 1 24 78 179 214 101 44 11 137 237 94 208 30 125 156 17 94 184 94 91 233 50 38 128 63 79 27 213 173 4 144 217 85 249 61 49 177 36 208 251 158 208 248 74 240 49 
61 217 129 214 86 222 79 177 202 99 250 208 89 196 92 38 129 226 142 16 168 123 35 117 178 82 237 150 96 49 101 93 23 73 230 160 37 198 187 242 111 204 97 254 189 26 230 48 116 93 225 149 101 89 105 1 4 177 170 225 161 101 167 69 32 79 236 113 149 23 59 201 85 74 12 108 118 219 206 226 0 202 61 239 149 119 146 150 98 168 51 64 92 88 132 237 196 59 181 57 
180 70 108 145 141 57 196 101 34 42 90 139 169 192 173 60 100 248 253 27 34 79 129 159 221 130 220 236 19 229 105 103 178 165 23 194 228 210 134 219 27 6 115 40 46 59 60 109 175 163 185 190 205 157 49 246 217 41 84 20 179 192 146 251 243 18 69 139 250 223 139 89 217 229 207 129 31 30 58 76 10 142 113 183 179 133 212 166 44 198 219 239 13 146 146 247 179 115 180 13 
192 128 17 203 224 126 240 253 70 120 207 105 251 73 58 41 175 10 98 146 141 57 23 177 250 209 182 90 30 173 125 28 76 35 17 220 134 138 99 223 195 5 21 14 12 190 84 170 108 79 236 161 3 204 168 226 167 163 238 163 178 21 47 82 75 155 75 137 177 13 36 94 137 82 241 244 155 146 25 102 36 24 0 188 25 42 66 151 84 209 44 80 195 166 41 39 242 81 183 20 
44 140 55 107 143 243 205 75 102 255 237 155 133 184 92 239 244 8 49 187 82 155 183 232 80 240 210 254 54 34 204 242 169 68 120 205 18 20 149 42 102 66 21 197 109 178 109 52 206 216 75 224 171 89 252 102 246 138 3 68 74 206 99 90 65 197 4 82 124 246 149 77 235 144 243 60 130 86 182 116 184 16 238 24 238 87 58 125 131 209 115 175 214 92 60 213 242 18 194 208 
66 16 60 246 170 47 12 46 126 142 134 31 191 3 213 95 31 155 13 209 85 180 123 212 254 98 84 15 202 255 169 53 138 51 201 215 2 49 152 5 195 232 243 61 125 124 232 192 12 197 197 90 167 194 218 248 141 37 143 146 145 39 194 241 11 63 114 29 65 44 55 171 251 239 107 242 50 42 243 74 223 72 168 27 140 142 238 248 91 215 242 216 132 240 61 247 158 206 246 100 
20 18 67 240 103 136 236 88 74 23 232 16 117 18 195 136 95 192 93 129 87 219 244 187 64 101 226 204 26 208 75 183 99 168 6 47 219 53 210 2 244 65 240 193 100 9 110 175 5 54 231 99 48 210 253 244 176 59 191 28 91 21 84 183 173 209 147 165 208 53 48 235 53 84 7 74 14 3 143 75 240 76 112 109 148 233 116 139 63 14 48 254 156 142 87 99 249 183 158 235 
175 44 111 26 141 123 148 45 237 12 102 113 178 214 198 167 215 131 22 22 191 196 211 28 163 125 138 12 117 249 61 13 187 29 89 158 47 98 56 195 120 188 182 153 48 33 167 150 195 51 207 252 146 104 160 245 117 175 243 55 60 185 50 73 59 41 158 15 158 19 180 7 7 228 132 50 228 132 134 139 134 141 3 177 120 162 174 151 59 58 162 169 236 236 111 56 35 230 28 252 
41 183 43 173 247 242 224 161 55 10 127 56 136 31 111 19 189 136 67 120 13 25 222 88 133 249 155 9 147 178 154 47 142 222 68 172 166 254 78 182 80 179 54 2 100 87 70 48 148 193 192 125 227 133 44 221 68 241 114 214 191 54 133 126 244 251 59 16 26 31 249 211 195 241 23 237 239 21 178 237 81 26 253 113 252 198 243 149 1 8 19 31 176 142 190 28 190 225 175 49 
196 3 230 121 204 62 23 14 201 219 0 198 253 118 154 50 193 168 116 214 115 220 169 105 208 249 204 136 193 193 198 248 193 224 134 44 68 136 13 215 29 16 76 214 145 254 161 214 97 192 91 78 250 99 19 235 217 146 71 56 215 78 185 231 236 69 102 50 212 134 163 36 61 152 91 87 44 175 203 97 147 144 122 227 155 138 60 35 131 234 76 204 100 50 176 211 135 232 193 165 
44 157 104 143 63 34 15 217 222 113 152 115 26 103 248 82 124 237 171 115 210 116 109 23 42 253 54 190 101 247 29 27 185 77 43 157 60 42 211 35 17 128 235 210 2 24 155 213 188 94 189 83 136 195 59 154 170 175 57 158 103 195 33 63 25 151 233 192 240 121 137 41 73 187 89 126 90 194 162 66 118 228 211 219 118 247 252 87 74 116 153 95 12 246 151 166 43 139 128 164 
103 215 51 38 73 193 156 121 83 184 82 91 102 118 195 52 124 163 52 38 36 44 136 57 55 137 76 184 37 249 177 14 250 109 28 245 52 28 79 173 48 255 216 188 14 138 176 200 154 214 201 110 35 43 208 78 239 134 72 67 24 224 172 166 190 198 61 179 59 78 69 253 172 207 20 96 219 233 177 6 97 215 62 68 186 140 92 133 123 77 222 213 227 188 50 17 87 1 207 178 
51 222 52 111 21 73 146 110 131 86 254 135 248 108 214 202 136 84 98 6 110 20 239 188 53 44 57 208 251 177 171 106 31 148 132 244 74 173 182 110 231 66 255 111 44 34 171 219 17 114 24 188 25 84 155 139 216 83 65 55 42 195 201 6 68 111 145 187 200 16 194 44 232 22 106 198 146 16 76 163 14 216 68 117 71 138 139 37 23 69 57 162 133 207 88 248 87 152 11 217 
240 235 254 3 167 211 208 6 189 164 226 47 57 201 85 58 54 25 120 123 225 118 78 145 90 69 209 217 174 20 101 114 184 157 119 237 109 187 39 236 151 120 169 187 12 42 54 210 117 44 10 47 227 65 213 222 81 122 97 168 130 227 85 30 132 185 234 156 237 125 240 215 18 29 6 131 175 99 86 123 80 94 60 164 199 59 128 89 161 224 235 72 124 244 167 20 178 241 173 45 
24 122 24 213 87 80 224 144 204 119 70 183 75 28 107 158 47 123 249 95 49 0 99 188 157 243 60 67 34 68 241 179 66 112 83 56 253 137 225 242 70 189 198 80 70 204 105 249 202 209 137 228 187 113 199 13 115 249 255 156 127 145 50 45 140 178 235 140 69 136 214 48 168 85 223 33 153 221 1 29 60 40 27 77 220 243 185 221 208 255 98 45 90 166 75 74 110 233 173 194 
123 250 69 150 121 151 79 136 1 178 116 163 183 13 28 156 99 159 224 22 104 12 219 105 107 133 229 164 127 188 129 60 164 238 125 4 77 9 42 69 221 181 19 33 123 65 30 255 46 221 16 170 140 249 190 11 216 189 220 20 98 59 60 9 167 169 59 218 247 80 141 28 198 9 195 106 218 147 60 169 88 67 88 136 186 113 77 151 12 85 87 71 134 179 77 58 20 134 13 169 
108 252 31 130 193 42 101 40 19 205 245 247 90 6 253 152 126 141 233 203 156 104 6 41 15 115 175 164 117 0 114 78 248 13 167 141 204 197 229 73 85 62 122 128 76 56 168 205 206 174 249 137 86 166 196 223 31 5 180 12 28 51 224 112 74 156 33 37 47 171 109 87 156 191 157 38 29 200 67 127 249 156 142 234 35 99 204 137 76 209 110 124 109 19 195 42 188 251 54 250 
114 195 102 60 255 255 238 227 251 70 59 227 186 202 116 9 23 106 167 147 83 219 38 230 150 193 33 247 64 64 139 199 211 25 177 212 208 78 138 183 10 215 185 84 196 193 43 1 192 133 185 104 41 54 246 34 100 157 41 249 91 35 168 208 136 7 122 173 91 8 230 101 29 46 131 109 32 199 8 108 117 240 20 234 66 106 115 119 161 40 215 215 62 3 143 8 134 247 20 57 
133 57 36 54 28 80 169 217 220 138 225 27 1 54 244 170 176 26 74 70 119 170 139 74 196 221 88 15 45 46 17 248 71 94 95 38 189 161 49 226 47 21 28 253 251 97 186 119 14 200 16 94 9 17 228 18 234 238 155 182 253 255 231 233 46 129 136 7 217 106 247 190 63 206 162 229 250 138 74 106 124 138 224 5 14 26 159 113 176 158 208 16 97 29 234 186 74 236 168 36 
239 154 106 0 154 95 50 161 176 51 122 140 12 140 203 235 2 160 200 121 66 134 171 2 139 116 128 239 232 73 213 99 97 114 86 195 78 8 246 51 81 62 255 28 85 9 4 135 152 208 191 235 185 103 27 25 120 29 235 140 47 47 186 38 58 19 178 197 121 236 177 54 205 99 97 25 80 157 33 115 191 184 139 57 252 248 84 181 33 212 115 182 109 116 15 194 24 238 172 30 
