P2
100 100
255
107 54 69 43 111 168 126 201 94 100 89 199 210 83 136 100 9 107 253 177 23 62 211 240 108 52 218 125 40 112 16 20 220 31 58 13 229 104 48 64 138 149 176 106 162 250 143 26 30 181 6 177 135 109 245 12 76 55 71 66 250 44 91 32 6 131 47 252 105 98 68 147 194 116 233 131 241 59 121 65 36 255 236 109 35 199 83 8 90 169 218 119 27 27 80 183 84 237 109 169 
212 239 227 139 167 248 0 223 2 114 11 147 196 224 136 165 149 74 90 30 81 202 205 231 199 143 100 36 209 36 116 183 54 186 191 100 137 234 117 249 27 84 177 122 16 196 214 27 196 212 159 169 196 92 51 156 109 187 243 59 163 28 181 123 131 130 60 29 233 30 9 100 108 179 31 243 219 153 28 90 255 186 121 49 35 112 226 209 182 60 37 117 114 80 210 79 113 79 19 225 
174 251 75 154 86 176 48 11 221 223 237 26 197 148 106 199 251 69 3 37 187 7 125 24 186 100 206 114 187 255 6 227 195 7 245 245 168 7 229 196 184 102 209 166 183 220 123 135 245 67 141 202 43 66 213 7 18 66 51 161 76 212 112 192 38 126 237 210 141 53 200 151 91 70 253 122 160 239 44 244 209 91 78 235 81 239 43 236 146 28 36 116 103 184 232 68 105 105 205 40 
26 128 135 10 38 53 143 14 215 106 232 42 155 185 153 79 227 63 103 29 42 188 54 119 30 147 43 183 247 252 83 123 56 182 221 76 78 188 109 248 251 251 22 51 136 114 127 124 152 106 87 112 75 197 86 206 211 184 42 117 188 239 47 195 191 11 230 118 206 149 82 73 120 72 145 5 243 202 219 181 148 143 52 193 71 240 31 160 18 251 176 8 39 233 171 189 240 226 177 184 
152 7 255 75 174 199 78 216 196 11 96 20 196 62 242 170 209 53 161 34 8 155 68 3 130 246 218 33 70 8 36 213 57 61 33 5 174 178 176 206 127 70 19 195 87 47 157 172 208 62 40 249 88 142 54 172 179 100 40 66 244 144 80 169 145 205 20 175 171 111 128 99 24 106 194 35 207 112 20 119 10 47 38 193 107 80 97 196 74 133 168 185 150 232 96 235 111 63 27 83 
166 67 213 232 88 117 173 10 92 20 191 174 224 95 168 255 120 86 86 251 252 82 57 102 218 197 34 255 112 223 41 66 67 108 223 150 200 139 190 88 125 58 158 222 157 104 185 151 78 166 32 10 45 113 213 217 104 25 225 201 35 182 188 46 45 172 154 17 196 207 130 167 156 246 14 132 53 3 39 82 172 149 161 3 171 200 75 237 91 33 32 55 51 222 72 188 46 153 168 108 
137 14 161 137 221 49 114 226 13 242 114 210 101 150 138 90 240 202 202 36 130 20 36 198 221 101 61 178 155 82 98 60 124 181 188 20 81 64 26 186 36 190 56 176 125 125 46 154 103 91 41 235 188 104 177 228 126 134 86 101 252 138 34 189 73 183 80 166 211 119 144 159 136 177 6 146 145 112 21 115 184 199 100 244 231 37 212 87 48 186 22 164 82 37 31 236 231 10 214 170 
55 219 7 85 181 233 54 173 92 67 90 4 99 136 178 124 137 46 83 111 204 127 192 221 4 132 132 251 201 114 44 229 22 147 233 239 195 203 55 168 142 104 254 163 249 202 146 17 189 234 255 207 76 190 185 106 181 101 227 236 51 64 93 107 234 142 34 203 75 106 254 101 75 48 197 238 166 69 77 210 17 89 217 60 78 163 240 0 247 128 170 28 47 146 196 82 231 194 97 157 
172 50 114 221 216 194 198 247 247 202 159 217 157 118 149 166 23 191 255 59 7 227 115 189 33 124 196 119 11 254 82 158 171 46 23 102 207 215 102 227 35 75 87 96 129 71 49 73 114 117 62 252 222 133 99 88 23 152 124 99 187 105 147 112 92 46 136 56 132 8 88 253 247 199 176 134 142 199 240 123 51 4 106 173 249 82 164 34 123 106 62 149 109 97 252 96 66 39 13 168 
224 166 225 112 210 112 123 178 12 8 223 187 206 110 249 88 80 77 220 105 122 9 154 158 234 106 145 28 35 213 176 181 142 6 139 224 99 216 3 184 255 20 124 80 130 243 255 76 14 217 114 198 51 210 141 224 159 215 168 44 87 156 69 235 133 201 235 128 185 141 195 175 72 198 241 111 78 4 52 209 108 173 133 154 230 86 99 178 37 74 3 239 71 230 122 80 179 42 145 179 
208 9 94 130 224 137 39 153 62 244 33 105 62 227 97 120 176 213 107 255 254 86 251 195 205 12 119 68 114 163 130 7 219 48 10 98 96 248 62 192 71 35 207 227 237 50 197 167 193 208 24 58 105 116 248 152 200 141 34 126 185 221 144 92 56 18 5 71 130 124 244 0 226 41 191 205 18 168 241 123 143 5 211 234 89 191 241 186 167 35 154 216 39 59 252 40 158 225 97 98 
202 117 90 57 96 157 92 95 41 169 160 139 130 209 138 239 150 116 213 30 181 149 238 44 88 222 202 130 89 0 93 68 143 35 49 29 16 17 234 134 161 64 254 138 167 22 203 153 114 104 20 246 31 189 170 32 51 207 16 225 157 88 120 31 113 182 245 4 230 205 158 255 189 244 68 82 123 32 135 45 147 1 92 74 152 235 181 136 233 47 106 69 68 132 152 184 170 4 225 212 
213 196 183 159 133 102 106 162 117 12 130 112 107 34 254 176 116 58 184 170 177 49 20 103 19 121 13 43 15 118 193 119 146 70 8 134 129 122 212 41 32 212 214 142 107 89 68 181 111 158 41 188 229 160 39 131 146 34 219 155 5 26 55 73 252 97 195 191 247 106 186 145 46 30 43 168 233 102 7 22 170 147 71 179 9 236 170 139 58 72 24 149 109 111 135 61 203 177 219 216 
86 71 63 81 159 157 185 253 195 200 249 134 145 254 7 68 59 38 196 54 210 200 161 149 22 113 253 65 207 114 217 115 84 76 254 32 142 156 247 176 113 158 210 239 246 161 164 104 225 176 116 148 35 239 240 223 183 5 250 203 182 233 250 147 111 103 163 158 27 61 198 179 100 219 131 110 212 254 177 138 53 26 175 189 230 94 212 131 205 77 163 148 33 66 36 229 110 37 41 44 
245 183 42 147 60 191 205 241 241 234 167 25 151 108 246 161 20 18 107 228 243 211 173 139 56 105 194 108 93 120 100 207 209 102 212 191 27 220 127 119 80 76 30 59 87 96 39 47 209 230 96 219 157 190 8 9 7 104 215 59 246 144 83 104 231 153 253 196 225 114 180 211 25 43 198 188 3 86 110 150 69 84 71 244 136 7 41 138 84 192 155 22 55 217 52 228 161 231 223 66 
86 122 31 190 145 3 113 62 209 57 133 198 199 229 235 150 23 21 96 116 0 174 166 227 106 114 129 100 90 79 235 7 50 85 33 248 216 47 39 242 126 170 96 103 193 199 44 33 108 47 19 146 26 235 144 123 3 128 0 224 196 124 111 35 101 100 103 237 52 149 0 230 28 214 145 204 104 87 40 18 152 237 44 246 78 245 39 12 242 48 184 170 138 47 77 105 215 198 68 66 
21 254 163 11 80 45 75 112 6 30 148 55 149 108 89 97 255 153 52 17 132 152 36 246 44 17 220 195 72 63 243 207 79 124 110 80 11 174 59 91 131 249 196 59 248 162 233 185 173 206 14 165 111 107 49 167 40 182 202 174 127 133 112 242 163 165 1 96 183 162 42 234 198 154 131 210 235 232 30 102 108 38 126 139 118 202 10 103 198 50 28 219 153 84 208 147 165 94 60 88 
23 234 242 134 46 70 71 203 92 130 142 54 169 144 206 100 52 204 207 80 157 42 235 11 190 157 193 27 163 190 140 129 82 112 6 112 136 48 66 155 120 41 10 215 180 44 56 206 34 10 243 143 51 60 19 32 205 42 106 39 255 179 206 13 53 137 41 123 250 85 211 228 223 254 204 35 158 139 88 234 62 76 214 139 200 165 100 75 170 194 229 76 0 94 73 209 194 11 156 133 
134 93 22 243 227 206 91 165 213 84 22 190 184 53 35 236 196 109 245 204 57 247 252 19 46 126 64 228 47 130 74 29 146 241 249 127 73 184 18 255 130 252 53 16 124 133 64 218 225 2 239 118 207 175 71 89 192 57 179 110 226 46 49 97 4 39 236 44 215 16 147 173 27 205 79 198 7 190 210 163 126 160 99 228 94 29 94 43 15 123 194 233 141 113 46 2 98 239 136 29 
250 156 166 91 19 143 231 30 189 250 62 199 70 150 196 133 245 12 65 14 112 221 116 142 9 162 247 182 35 238 184 228 42 69 6 189 94 34 15 163 119 27 162 169 120 210 209 29 45 8 94 210 53 22 6 2 34 131 158 214 225 169 215 194 42 7 250 77 210 184 52 84 204 147 240 19 48 25 238 198 200 161 211 190 66 172 7 81 202 118 117 222 92 145 194 98 35 209 85 102 
17 239 231 141 246 160 70 21 45 244 214 135 76 62 31 109 174 6 148 222 105 107 95 3 81 2 114 19 96 115 236 248 215 60 219 139 176 24 70 56 247 74 124 135 18 44 29 232 75 16 136 202 26 41 117 91 102 55 179 92 113 97 233 45 112 223 244 63 226 53 29 116 114 239 150 104 105 94 90 9 239 182 111 179 138 254 131 234 124 206 208 176 62 206 98 24 20 252 237 105 
131 135 170 78 186 67 47 128 60 250 75 210 173 45 54 139 239 215 250 90 58 132 191 241 143 238 27 95 74 37 195 253 123 224 130 81 233 209 2 239 199 67 143 122 146 83 107 103 90 111 20 5 147 171 124 40 197 61 167 173 189 137 159 167 44 200 112 167 140 24 69 111 103 237 227 255 179 116 72 101 254 169 237 204 54 56 54 80 108 241 204 9 59 130 51 233 27 163 120 34 
34 104 159 27 144 37 208 81 90 117 246 55 199 12 218 150 177 147 211 25 19 25 190 191 117 162 38 157 98 252 196 70 58 199 188 189 201 57 72 228 237 172 6 158 167 10 0 81 177 95 185 129 248 56 152 134 228 213 51 95 9 156 35 208 92 176 100 50 69 114 203 132 179 25 12 163 112 132 210 165 213 24 216 66 210 117 242 119 86 213 92 174 111 158 138 249 157 8 99 211 
21 123 228 216 248 221 162 32 36 46 75 78 57 139 31 149 36 152 214 123 240 123 69 97 106 113 173 17 114 47 143 88 117 243 101 133 150 58 92 15 46 103 154 221 114 187 83 207 33 167 31 46 243 61 48 107 96 165 159 190 131 96 121 52 192 72 189 193 9 245 92 203 131 13 233 179 214 64 116 249 37 135 24 146 6 142 227 79 149 0 58 146 213 103 46 65 185 49 8 240 
135 101 236 199 136 119 59 86 107 20 165 34 233 218 63 156 153 83 129 101 66 23 146 229 197 87 178 172 101 173 122 203 218 75 249 1 44 143 230 89 199 171 67 157 121 147 165 197 208 100 40 194 129 126 136 59 219 20 184 131 8 195 230 28 96 120 128 20 239 194 102 201 58 33 58 31 240 229 161 209 122 233 131 110 223 96 235 99 82 17 213 59 18 35 40 81 72 173 173 173 
178 183 53 79 229 144 165 253 183 147 64 229 39 41 60 241 76 238 53 50 109 86 101 227 61 167 224 119 143 106 18 85 167 32 36 207 165 68 79 69 178 214 91 35 132 51 89 8 253 202 74 54 46 236 178 92 188 62 226 103 198 89 87 88 155 219 140 252 104 214 172 181 114 99 4 53 26 129 5 181 241 30 174 216 240 162 169 126 249 42 111 83 93 109 124 18 125 106 198 58 
137 110 200 186 217 191 137 212 235 57 248 150 76 86 243 8 240 102 156 101 17 95 200 22 143 107 221 159 131 81 130 156 85 238 108 191 6 189 63 3 150 194 65 132 208 63 39 122 53 139 12 76 54 89 64 155 253 111 178 100 148 50 204 213 102 219 17 212 14 161 165 153 14 128 205 108 5 114 250 199 0 194 79 183 131 98 207 4 249 41 130 47 141 49 148 72 147 183 37 60 
211 191 101 250 65 207 102 86 168 84 197 90 85 12 255 128 26 27 185 174 200 23 164 24 28 87 143 30 187 136 62 201 44 238 223 138 201 236 191 13 66 229 88 252 37 77 85 39 42 58 78 15 6 119 139 3 27 100 90 180 119 63 165 240 33 19 216 108 242 134 29 10 111 94 77 215 242 21 75 69 25 235 97 255 80 32 158 136 104 236 160 56 43 7 230 21 23 183 1 145 
240 85 111 123 234 1 151 229 204 209 201 101 55 196 44 218 195 254 86 228 125 50 180 175 95 154 167 231 63 2 88 228 136 148 169 11 130 34 108 108 191 202 192 185 97 174 243 133 15 48 3 122 125 12 208 206 247 107 245 216 246 128 170 106 100 184 12 236 20 53 74 15 217 166 123 78 89 178 71 98 227 1 254 247 102 90 44 33 64 245 205 190 235 144 198 190 36 134 36 90 
136 87 187 175 89 254 183 94 90 82 63 199 68 33 214 165 100 20 241 71 93 221 174 18 31 193 224 107 86 45 209 181 23 124 95 145 84 240 49 101 54 254 108 46 226 235 160 175 243 49 235 252 25 152 65 89 46 85 98 131 48 32 114 73 170 238 63 255 45 126 52 167 207 252 85 179 101 43 107 173 144 201 211 238 0 179 191 6 111 145 187 60 95 151 215 217 202 142 18 243 
229 152 12 229 3 75 128 107 183 44 65 69 243 243 186 171 26 18 231 87 111 27 168 35 4 233 177 182 222 83 122 126 122 108 190 29 97 232 128 139 120 21 215 117 185 34 109 74 79 204 130 26 43 93 195 169 96 224 76 194 69 54 44 35 173 101 252 235 196 53 8 26 212 236 216 142 252 214 132 48 211 205 108 31 30 189 176 251 134 36 167 203 6 185 112 207 39 65 4 99 
110 209 3 198 207 11 4 104 216 30 85 116 55 31 220 136 158 105 210 68 122 239 227 13 178 232 83 139 131 239 160 202 192 50 72 114 221 137 41 170 83 126 44 25 189 162 217 255 196 48 196 28 152 15 47 23 44 119 47 140 226 252 83 132 26 50 144 73 115 74 60 141 78 176 0 145 209 198 150 185 153 211 241 98 211 162 129 154 141 252 197 247 47 208 186 13 13 139 78 255 
103 231 5 234 144 221 28 112 96 96 1 181 15 39 131 39 229 164 156 246 50 1 56 138 154 142 246 48 31 132 122 93 93 107 144 11 203 133 56 200 189 34 6 226 153 45 60 228 55 100 136 54 44 219 76 251 102 30 91 157 186 151 146 6 132 105 216 0 231 247 241 22 205 253 60 220 20 1 251 104 227 201 127 62 247 77 226 93 133 19 69 96 224 160 178 74 146 151 174 25 
69 31 173 190 36 198 96 82 148 34 36 10 183 210 101 124 108 64 145 67 205 32 112 185 125 117 146 124 115 60 160 187 187 224 187 204 202 118 106 122 182 23 176 237 13 114 192 0 46 229 168 145 208 29 223 176 159 196 217 200 44 71 98 20 240 15 59 54 175 242 203 153 235 223 111 157 43 121 146 202 33 212 127 133 133 64 249 156 173 178 198 155 94 27 130 35 121 22 17 202 
227 221 69 56 190 62 236 157 102 121 159 87 59 106 105 178 80 199 87 60 99 75 95 35 142 140 199 66 110 1 122 109 227 38 65 35 150 153 184 59 47 229 12 194 200 36 107 139 159 158 248 20 210 146 154 55 37 30 42 69 189 252 148 209 101 27 92 211 114 211 166 16 79 103 255 225 90 185 131 152 226 27 122 92 153 64 208 246 200 141 139 92 171 76 57 48 26 38 63 12 
180 137 134 99 125 126 90 228 95 0 132 235 213 221 86 158 193 96 78 180 194 170 12 55 231 69 234 246 245 192 68 162 88 233 163 238 41 81 129 167 41 144 98 64 79 105 245 129 214 244 98 14 124 87 49 129 107 25 216 33 113 88 175 188 240 185 38 6 73 4 42 183 113 251 21 79 53 49 199 71 134 39 247 132 22 67 239 113 168 102 233 88 251 177 92 91 208 136 208 226 
86 139 250 146 153 68 173 231 68 197 79 112 76 43 169 135 183 161 250 62 111 163 224 33 113 89 81 121 48 160 129 115 46 225 218 237 136 243 51 162 251 213 168 45 248 215 254 172 140 181 208 84 197 201 210 164 100 229 34 80 44 55 185 133 203 209 217 153 221 48 131 39 57 182 41 124 37 3 140 109 171 48 31 39 117 2 20 53 178 105 29 99 103 224 119 54 166 155 17 203 
254 89 185 119 82 240 46 93 1 127 10 239 248 11 105 21 215 166 42 5 32 95 24 84 130 157 93 136 6 23 225 77 178 172 229 131 233 26 19 50 108 6 238 235 189 171 143 68 152 222 108 114 13 21 74 207 251 222 65 69 194 252 13 111 186 34 107 198 17 39 87 197 21 149 104 230 211 83 175 225 30 223 131 157 131 37 6 241 96 101 28 173 73 66 156 162 230 22 87 102 
89 111 22 194 239 67 114 226 8 36 246 168 255 109 223 39 236 127 5 129 246 185 116 83 13 59 76 61 241 215 119 77 93 154 154 220 253 238 151 52 6 205 178 151 237 196 60 246 8 61 92 49 111 95 55 40 252 84 222 60 201 124 0 204 80 181 5 200 212 151 93 86 158 118 84 201 63 137 88 250 8 83 104 234 202 164 32 60 236 122 156 105 181 149 119 72 204 245 139 121 
28 60 83 81 204 134 33 37 222 225 187 77 101 239 135 151 194 39 36 59 18 66 162 111 35 88 226 250 96 251 81 146 78 61 196 165 78 236 179 15 30 14 170 38 6 113 222 230 243 104 126 122 215 222 235 28 225 207 114 193 47 84 165 93 18 194 236 120 16 11 20 133 200 214 65 18 29 143 164 238 12 69 48 208 211 198 34 207 122 121 30 146 37 8 55 165 208 27 231 229 
13 185 233 98 206 96 107 10 219 232 148 8 131 68 240 195 4 34 236 177 155 18 166 98 148 125 135 175 29 102 145 64 224 45 142 99 116 53 164 44 129 120 63 19 220 115 64 111 12 34 169 230 140 131 233 115 43 71 32 213 190 193 51 134 231 108 63 117 255 136 143 160 135 170 81 152 102 251 168 187 10 103 1 92 81 46 104 203 155 146 61 10 39 155 65 247 180 94 95 137 
160 23 40 197 31 187 152 240 205 241 45 142 92 200 103 236 123 4 117 85 207 189 22 216 159 157 72 24 35 177 30 18 98 133 43 163 253 136 243 216 83 5 103 190 39 168 27 245 200 244 8 210 53 29 117 140 248 11 169 208 226 70 139 136 54 149 65 54 210 155 164 192 143 207 32 228 125 65 143 28 253 131 175 103 142 126 132 202 19 71 88 245 56 113 194 134 88 113 136 137 
142 148 9 108 142 106 183 127 248 17 193 5 157 238 15 7 49 48 41 16 165 4 62 187 191 139 32 231 181 52 161 199 73 233 63 69 57 103 116 163 203 203 206 128 56 16 172 215 7 57 204 172 108 191 190 143 178 132 30 61 40 183 43 203 240 55 56 39 110 58 131 163 3 39 34 162 74 119 185 50 42 105 44 158 72 177 60 183 73 117 112 171 72 231 122 34 29 117 221 42 
170 89 108 118 156 74 17 182 7 164 46 84 15 152 231 150 240 176 9 38 45 81 165 223 130 116 231 68 136 251 145 24 161 124 188 41 56 128 73 184 146 17 159 171 93 48 242 203 35 38 71 99 103 38 186 11 64 166 40 162 93 154 31 85 78 108 24 232 130 17 215 69 97 58 141 155 192 159 162 43 38 75 153 11 142 248 131 181 203 244 148 215 109 204 166 176 33 164 225 33 
0 54 199 168 247 143 148 226 218 70 107 197 25 108 254 168 99 116 73 156 98 127 37 184 242 180 98 86 30 155 253 191 14 239 217 121 98 72 223 0 17 240 244 254 107 170 72 128 1 39 74 17 210 243 152 69 224 93 30 202 145 187 205 237 255 195 202 80 173 188 108 244 60 183 131 124 150 44 127 225 167 124 74 186 243 231 127 171 48 119 56 95 64 155 120 194 150 130 18 62 
41 176 169 24 50 121 41 125 53 42 252 212 122 31 209 79 110 51 75 249 7 30 184 64 62 157 102 132 19 236 131 3 249 194 182 237 167 176 97 19 74 179 161 46 204 30 53 228 37 207 163 197 236 120 114 144 129 16 188 141 148 209 97 207 250 13 33 109 83 0 211 2 118 113 199 153 127 113 39 11 184 248 103 24 134 64 206 30 55 15 79 224 220 96 224 198 186 90 241 154 
36 153 57 74 116 78 106 79 170 14 108 177 251 7 69 163 143 230 55 150 181 255 148 103 134 201 82 68 196 120 205 254 190 19 248 60 144 68 75 40 140 177 232 72 188 96 210 233 163 132 111 112 37 218 213 92 230 116 167 236 58 44 145 40 87 160 53 89 241 108 19 40 240 22 166 201 150 174 130 246 169 46 94 26 36 192 63 97 88 38 193 104 186 63 43 81 212 18 35 60 
206 145 145 128 17 13 107 8 133 242 77 25 88 153 77 194 182 171 27 5 122 236 186 210 223 174 245 164 15 240 231 199 87 138 92 162 197 58 241 123 27 42 145 18 32 251 57 174 240 61 128 132 86 64 107 217 97 204 214 104 67 152 91 120 204 13 92 236 148 111 9 219 136 96 27 94 140 250 0 165 163 255 198 98 42 164 92 168 118 197 13 154 182 71 113 179 222 53 155 59 
226 236 192 231 197 80 239 139 86 118 28 124 25 242 163 17 47 203 156 6 70 2 104 226 237 99 216 39 107 252 7 35 204 3 67 44 146 46 14 204 221 119 243 221 163 45 118 246 0 143 202 86 143 15 27 48 74 19 36 191 66 108 222 255 44 188 41 167 253 189 230 167 82 60 246 13 225 244 51 252 242 45 176 228 187 138 158 64 109 112 68 5 144 212 75 248 25 198 123 109 
108 0 195 193 183 76 148 35 204 122 247 233 155 142 208 90 235 203 202 123 201 151 87 128 149 233 93 203 30 123 156 19 164 210 76 3 82 205 59 176 106 25 238 234 176 203 181 36 43 195 155 160 47 110 197 208 169 184 234 159 240 73 239 37 197 60 18 230 252 86 104 46 143 200 86 204 75 102 158 32 25 226 87 187 125 71 28 63 34 57 53 250 44 244 28 89 39 246 109 186 
234 25 211 95 170 234 226 136 125 17 237 15 236 206 216 238 0 196 174 46 211 23 91 170 201 25 7 49 166 27 12 116 178 232 35 117 114 81 25 126 87 84 189 230 95 158 186 113 127 165 115 56 77 4 18 129 187 57 239 150 116 236 171 216 53 237 206 115 214 13 152 9 105 45 223 118 116 187 159 64 239 248 252 148 130 251 54 117 199 215 127 232 32 5 158 15 139 81 79 53 
55 99 42 173 35 52 205 6 36 13 164 186 112 102 181 192 174 21 65 158 236 96 17 205 155 167 188 62 140 7 193 147 27 199 155 218 36 70 63 222 61 131 25 110 204 200 156 159 146 18 42 210 95 35 51 226 75 24 65 67 254 71 230 234 157 248 196 20 6 182 45 170 25 9 242 215 136 118 91 87 185 116 89 131 58 176 151 165 183 16 1 205 142 27 159 243 47 205 250 152 
227 41 166 227 1 252 4 5 58 4 129 139 224 233 206 116 53 179 153 10 125 4 241 106 172 119 105 52 119 52 225 162 231 8 215 247 229 107 206 14 188 47 220 250 194 138 78 224 224 13 182 234 178 111 184 111 211 5 244 122 38 139 228 223 111 118 211 76 35 162 143 108 214 151 204 24 237 98 101 176 248 69 102 8 172 240 205 183 136 226 230 74 155 30 197 101 16 164 2 229 
130 112 69 104 76 99 199 149 127 128 51 51 96 5 74 85 131 113 5 91 99 38 230 21 101 130 210 205 200 136 179 46 38 191 170 1 118 31 67 36 114 172 141 137 13 144 159 53 147 14 158 119 69 134 187 132 163 10 176 217 173 188 221 195 24 2 54 87 229 157 225 203 209 250 43 137 50 63 57 23 84 28 128 138 4 172 209 246 213 37 80 171 254 1 154 2 20 104 211 204 
31 133 24 214 44 45 140 189 108 66 196 180 77 147 199 94 222 28 89 24 215 20 213 167 44 163 103 163 35 148 50 218 63 5 197 43 5 78 78 111 185 217 99 227 135 218 55 117 31 8 149 125 112 244 198 154 181 114 215 49 153 1 15 225 231 122 42 214 189 214 56 107 98 25 200 24 107 163 174 70 169 243 177 234 17 5 34 83 90 203 42 76 155 56 114 134 80 169 221 208 
155 40 41 43 65 232 233 86 10 101 92 17 146 234 190 114 249 186 254 152 16 5 44 246 206 220 7 213 8 1 177 101 181 73 146 49 119 27 69 182 56 78 155 229 226 121 48 216 72 227 54 13 5 64 76 129 222 76 119 91 76 135 66 248 208 186 69 1 161 124 125 234 123 99 208 38 221 166 185 181 16 72 52 59 205 229 67 197 35 96 210 146 167 53 232 249 204 236 210 175 
247 214 34 8 222 153 160 150 38 151 25 247 104 161 251 115 55 34 19 55 143 154 209 152 242 128 97 250 181 153 38 196 1 134 173 139 139 71 173 71 158 146 4 244 26 93 111 237 236 200 72 206 211 121 54 170 231 135 196 251 249 183 208 255 238 75 250 96 145 215 52 223 142 224 120 100 76 121 71 42 247 131 255 142 3 174 179 37 239 136 25 170 4 162 125 98 206 186 189 251 
74 204 105 52 132 141 196 3 64 24 211 107 105 113 82 72 147 218 3 50 16 138 112 102 76 127 153 239 238 135 243 85 255 151 228 156 80 71 224 205 192 228 51 114 120 202 156 170 100 99 180 216 51 49 158 96 247 167 116 88 44 216 229 35 147 6 28 149 9 223 187 9 253 113 148 149 209 99 140 35 60 82 33 194 114 202 243 228 23 150 93 146 108 200 15 181 160 95 121 197 
13 39 23 112 73 209 127 28 227 197 55 123 87 10 174 245 225 242 232 164 17 109 250 177 68 238 121 66 58 144 29 56 50 0 182 199 245 47 58 96 254 58 146 199 126 50 99 24 111 50 236 116 94 156 246 203 111 32 228 238 158 144 13 109 124 135 96 205 17 221 188 255 93 25 42 90 138 109 166 57 99 89 168 80 182 48 231 29 0 18 14 84 171 34 103 67 29 91 175 61 
209 116 35 97 93 128 181 226 87 208 88 216 121 204 198 219 52 96 202 145 203 221 255 167 46 112 125 187 161 174 223 1 81 55 229 29 148 206 30 57 234 181 172 99 164 22 244 255 154 37 73 92 254 19 58 109 203 180 5 73 235 232 109 39 188 32 83 39 88 107 51 194 67 170 104 195 144 6 232 181 138 205 91 22 211 79 176 42 100 116 19 20 23 28 32 76 73 40 211 220 
16 86 30 226 103 36 139 136 215 223 217 131 163 253 109 184 55 178 26 136 116 106 69 95 245 227 244 104 107 7 173 12 106 30 203 229 96 29 140 233 142 171 173 193 241 190 135 128 71 21 164 110 243 42 69 134 62 133 219 189 7 242 138 164 72 132 32 152 201 108 105 163 179 192 14 173 55 61 234 43 65 233 229 82 137 207 171 59 57 166 39 38 3 29 0 142 241 207 203 250 
48 203 81 99 21 143 94 43 14 37 193 160 129 105 115 150 155 10 223 130 114 82 213 139 242 16 74 238 23 232 242 27 156 138 15 66 107 225 235 108 13 206 12 162 157 62 85 161 75 192 66 120 81 205 243 46 25 35 219 231 32 31 177 138 60 246 152 15 111 223 244 44 226 204 79 72 72 235 185 210 219 104 83 178 190 160 14 101 11 87 50 240 58 5 52 147 0 18 236 89 
160 153 71 119 70 175 102 131 28 67 235 106 120 255 40 162 116 97 60 43 204 230 50 135 114 185 172 64 251 235 224 240 84 160 126 220 228 62 4 43 109 39 194 216 11 48 207 171 163 51 112 99 231 40 226 161 220 41 194 72 217 195 236 228 201 251 74 175 135 129 230 161 159 27 144 144 74 180 145 33 27 114 15 98 64 223 221 241 172 121 153 222 221 88 1 107 48 14 191 59 
202 138 106 43 184 242 233 65 53 64 10 108 115 164 43 23 204 176 110 113 208 58 64 17 136 236 214 252 21 58 178 101 230 36 89 85 36 31 55 171 219 251 11 178 136 221 217 232 14 21 157 72 110 185 97 172 125 228 7 178 159 197 245 20 179 184 36 88 218 39 113 17 249 71 127 137 141 83 234 50 56 162 31 188 45 79 146 159 231 35 247 145 243 242 31 120 23 119 38 252 
15 176 40 169 109 128 80 129 219 118 190 238 24 223 168 161 99 248 252 243 149 234 50 51 221 232 172 153 217 20 71 7 116 77 220 214 21 181 134 122 93 12 61 211 228 253 145 129 12 22 130 88 172 136 75 18 5 220 50 13 239 249 85 215 75 57 211 30 12 222 133 169 98 173 105 209 83 84 126 194 203 226 91 130 164 225 144 233 123 82 155 94 243 1 28 155 181 51 13 60 
31 247 237 190 216 170 17 57 87 239 61 100 136 63 15 132 14 118 66 59 76 50 149 129 137 111 45 207 133 46 239 41 213 46 96 132 27 163 255 146 167 215 30 57 57 158 126 45 107 210 116 130 54 236 158 1 144 146 165 42 251 3 105 222 50 220 48 189 7 53 246 184 243 225 159 107 14 124 135 100 55 130 216 37 242 235 188 85 139 242 177 98 115 77 167 180 228 99 107 190 
142 206 56 38 120 163 16 70 62 34 158 196 157 150 56 136 83 81 141 76 231 232 143 200 161 51 178 53 58 166 220 63 17 174 179 63 252 94 157 239 177 8 253 163 48 82 225 151 111 230 140 207 109 16 113 245 215 174 41 76 147 139 31 204 63 48 244 9 218 206 21 238 165 1 101 224 203 132 19 158 119 185 151 137 241 231 241 27 233 174 27 207 239 169 18 63 39 36 61 167 
26 22 248 39 254 135 242 142 20 227 108 233 87 215 56 107 199 183 172 147 9 198 208 70 114 97 195 189 201 216 27 227 191 56 64 103 94 74 246 211 174 96 29 207 23 91 165 60 192 52 32 254 249 130 39 201 150 121 153 211 213 32 84 176 189 9 236 168 41 221 238 142 186 63 206 172 54 177 187 19 147 201 4 158 167 133 86 161 237 114 63 104 185 159 3 34 197 62 88 210 
178 105 96 54 130 145 242 28 76 196 19 206 22 78 126 94 184 9 37 189 2 184 196 109 129 88 247 148 175 28 74 96 36 203 23 15 222 197 249 144 213 78 17 223 0 118 31 118 246 230 139 141 210 57 156 163 225 19 134 20 149 128 3 9 117 90 18 7 2 6 71 238 228 9 16 130 239 16 52 47 155 219 117 19 168 210 203 31 61 2 176 248 236 36 45 10 243 1 123 163 
100 84 171 35 110 108 14 21 37 58 3 22 213 20 211 139 139 231 171 227 171 54 246 194 128 192 116 18 114 67 16 66 39 47 215 120 63 27 243 189 215 192 19 187 251 43 104 179 109 222 195 140 114 179 122 222 186 207 229 202 146 172 110 90 92 139 191 77 114 9 161 179 219 100 192 235 103 27 135 233 167 66 13 170 149 36 91 31 118 191 246 164 125 114 62 178 76 1 6 92 
113 213 25 85 15 118 242 141 184 81 47 251 93 154 222 202 155 103 153 17 66 108 204 161 187 203 126 236 195 160 26 53 173 213 252 132 228 9 211 3 120 89 231 190 172 250 54 215 129 47 62 84 170 183 179 164 91 252 117 27 187 248 140 191 89 224 137 113 245 110 121 26 111 216 103 0 201 104 5 205 125 208 46 186 110 222 5 204 240 0 46 139 130 48 88 13 5 131 252 193 
178 137 190 123 236 106 242 116 141 46 234 111 108 251 101 20 123 3 148 177 99 193 238 253 209 47 30 111 144 48 181 145 110 241 208 215 2 141 118 227 236 25 1 63 15 74 213 180 50 245 93 209 217 95 224 131 197 25 248 99 156 80 62 227 174 70 138 88 179 212 36 123 234 252 79 219 138 165 38 220 116 208 115 139 27 233 249 252 157 117 239 47 63 131 147 241 73 44 150 95 
53 77 62 214 54 97 197 71 236 239 233 154 73 91 139 39 231 132 60 242 57 65 89 238 13 41 238 151 25 107 181 70 98 47 157 195 176 145 144 241 81 168 212 226 100 244 104 137 220 224 129 144 132 119 194 190 71 143 168 244 231 114 183 185 174 87 5 37 220 11 58 7 50 136 18 231 237 148 97 130 117 229 201 139 183 4 107 210 48 156 220 49 17 114 34 18 250 217 228 98 
191 251 51 172 24 104 41 64 107 135 43 66 48 58 251 233 23 242 23 140 142 93 41 247 30 31 7 220 243 197 103 213 4 14 88 245 67 68 114 66 144 94 244 120 119 163 79 196 234 52 204 159 183 232 66 64 196 117 178 208 88 19 130 117 21 203 219 196 224 226 54 34 18 150 184 25 66 133 145 57 82 19 31 82 203 84 228 67 78 208 195 83 223 187 126 126 136 216 150 137 
69 252 144 155 171 20 88 167 155 133 52 120 159 162 193 129 78 187 239 237 196 32 252 84 31 137 84 249 67 248 45 210 33 98 77 112 41 95 207 143 73 176 247 241 3 53 212 242 134 99 18 55 62 58 30 37 54 36 236 172 78 238 130 47 5 187 159 248 50 139 169 51 93 251 38 239 161 49 195 206 102 242 255 248 78 1 145 23 29 69 142 132 195 71 231 197 114 211 127 34 
35 109 207 5 151 236 104 245 222 201 226 4 55 201 111 189 23 86 47 190 156 140 213 152 72 235 191 92 13 251 250 90 18 4 154 82 34 22 27 19 175 140 82 212 145 38 161 233 252 135 58 10 83 220 73 232 181 82 195 159 1 163 141 110 231 42 201 100 78 208 7 189 58 132 185 3 130 150 65 8 12 221 154 22 157 122 92 22 65 73 186 123 24 158 212 209 41 235 237 244 
4 54 129 105 62 13 71 35 123 146 173 56 188 171 197 156 90 150 206 198 37 181 188 224 107 80 70 229 63 222 79 91 3 1 73 245 101 127 44 177 252 240 87 231 196 172 82 203 80 89 171 56 122 141 190 180 30 95 45 163 103 132 202 120 138 221 95 156 164 148 105 245 197 69 0 209 130 89 79 193 194 108 73 231 249 44 39 4 108 134 189 42 82 77 74 255 37 23 41 140 
201 35 109 79 198 142 32 154 86 167 172 20 212 165 222 218 103 91 166 169 185 202 43 121 35 204 164 241 183 142 113 145 198 38 251 215 196 116 189 91 184 131 78 22 214 53 15 63 226 77 141 51 119 59 232 58 23 174 197 220 15 69 186 118 32 81 79 166 41 206 39 228 101 19 159 163 219 50 83 192 163 188 114 217 130 246 114 108 217 19 55 50 114 69 216 249 51 104 101 180 
239 139 190 123 227 227 253 141 209 134 9 135 77 164 200 155 43 53 221 147 249 152 216 143 154 139 228 156 37 90 240 106 188 221 99 71 32 249 198 134 112 117 136 152 196 183 29 130 216 13 143 198 239 165 10 54 199 15 69 39 16 132 248 70 234 46 63 38 65 178 165 91 101 232 81 119 174 130 148 215 101 89 6 93 123 8 133 77 135 31 119 237 110 41 126 1 79 7 234 81 
24 116 127 64 180 71 60 242 167 204 117 122 146 174 189 143 207 123 182 29 18 190 132 9 182 246 74 63 239 90 4 200 166 28 235 19 30 136 137 150 153 35 23 187 218 168 154 220 36 216 121 17 231 118 38 31 120 74 24 183 141 188 127 109 137 135 107 249 41 168 0 190 141 223 199 58 8 104 187 195 149 117 100 119 18 227 231 140 135 49 228 76 183 119 65 162 6 197 144 135 
175 222 71 251 232 9 105 132 238 167 244 170 75 132 238 39 134 179 10 9 253 159 112 152 235 207 119 224 59 36 225 227 174 117 108 44 248 34 180 242 131 64 225 45 162 172 232 234 82 72 131 110 144 203 206 130 179 1 77 90 220 43 220 95 83 43 195 193 12 187 24 101 227 208 229 65 179 172 27 136 232 77 36 116 96 214 139 25 69 100 217 34 103 97 76 209 22 11 138 191 
37 145 80 190 31 27 185 115 40 3 202 23 24 107 46 188 1 127 255 85 197 246 167 88 206 244 25 149 117 18 78 28 16 168 115 209 218 200 105 105 213 252 55 229 173 94 68 26 78 244 13 11 223 5 127 102 88 136 37 249 219 246 50 154 255 33 105 173 50 170 8 71 34 39 248 7 67 236 184 2 8 19 30 144 159 125 10 246 17 73 215 36 168 207 5 179 93 210 195 88 
156 207 65 19 202 247 40 136 72 225 73 77 1 115 84 54 116 206 244 207 46 230 185 196 86 42 61 222 12 139 140 151 22 251 152 82 12 21 103 183 136 39 118 28 154 133 186 69 125 119 212 199 237 90 122 18 167 36 206 5 133 148 11 21 56 141 113 180 190 219 35 21 0 231 191 137 77 146 174 190 136 186 117 124 210 37 133 122 154 166 160 104 152 207 151 60 123 138 157 18 
90 237 204 226 173 172 79 162 221 123 250 52 99 75 136 79 126 215 224 180 12 253 89 164 91 139 63 10 219 41 36 122 11 141 126 75 51 230 29 232 112 243 247 122 7 244 227 76 65 203 141 224 247 0 242 7 145 186 59 188 247 183 119 152 250 49 38 237 56 28 172 7 50 142 85 43 225 33 92 178 196 123 126 7 94 244 52 67 31 70 164 13 29 159 211 77 29 167 140 166 
75 45 205 203 23 218 200 182 7 36 191 245 30 149 113 25 104 214 40 53 9 203 116 249 167 69 106 142 110 158 65 205 180 42 16 140 140 7 88 53 158 138 177 134 9 99 211 28 75 33 122 199 54 38 117 41 180 159 69 58 219 1 63 244 65 196 189 100 75 251 211 47 18 153 44 24 239 197 182 33 19 237 38 16 175 201 137 185 121 225 68 139 107 215 21 124 174 78 128 188 
195 77 5 152 8 105 202 66 135 187 118 59 174 188 188 95 233 101 108 231 57 180 130 172 191 130 247 142 247 58 142 251 173 125 224 141 44 85 167 196 99 151 117 168 26 97 223 214 135 90 211 165 213 207 183 125 77 153 100 90 79 141 12 111 109 227 138 35 170 199 36 172 150 64 175 37 19 113 111 187 135 40 53 137 129 135 149 59 83 75 19 16 80 133 203 40 20 54 83 104 
227 121 50 94 16 239 168 101 90 44 139 211 183 18 9 52 136 172 146 135 132 2 254 113 15 20 123 67 212 111 78 79 229 96 97 233 86 16 136 192 112 30 192 124 46 200 35 73 139 189 32 106 247 3 10 210 61 93 100 242 150 173 187 185 69 212 55 181 198 171 133 12 227 47 203 223 147 50 141 55 131 163 142 255 85 229 227 195 50 88 118 163 200 79 113 197 80 151 229 52 
72 157 90 157 105 156 109 2 18 44 175 220 61 75 155 111 29 134 13 222 236 232 129 103 148 178 39 254 248 70 195 29 4 45 21 148 19 180 252 89 251 69 11 89 181 240 62 183 233 209 92 240 29 56 133 56 176 114 110 145 202 165 75 237 2 12 80 244 117 228 128 109 2 115 239 111 58 147 165 35 22 253 5 127 5 152 52 36 149 33 49 54 248 25 21 113 85 248 186 191 
159 131 37 79 43 238 0 107 94 59 237 186 156 226 93 137 233 239 190 247 193 115 148 163 38 210 164 231 34 52 183 79 47 77 233 234 13 81 53 71 96 127 198 131 47 194 194 73 95 244 18 95 43 42 87 180 78 24 111 143 35 130 153 105 229 34 93 81 120 208 4 185 19 38 139 225 6 132 161 169 25 204 58 38 43 2 212 55 67 18 228 71 224 199 155 7 213 8 45 152 
134 45 196 163 4 26 183 173 37 201 2 159 240 149 9 154 178 12 140 237 35 49 239 210 171 187 202 120 61 245 205 102 167 200 46 219 53 98 221 203 224 69 133 75 68 138 190 14 127 73 42 90 222 137 109 153 38 63 115 195 6 83 20 30 3 240 11 104 178 190 207 171 45 188 91 206 198 240 218 136 245 70 129 183 9 142 75 118 136 228 203 194 245 240 180 162 220 248 186 191 
127 174 200 160 146 11 169 62 51 102 58 220 63 40 62 202 139 10 157 184 247 213 205 36 223 3 160 119 159 171 227 3 0 49 2 34 75 159 227 155 190 207 162 126 124 222 21 42 149 68 130 39 166 206 230 64 217 10 165 148 201 52 159 207 0 78 95 103 69 69 54 248 135 63 169 40 176 224 82 46 130 213 133 157 99 121 182 54 201 166 167 188 17 40 199 245 76 124 27 4 
165 80 96 9 3 200 133 248 199 95 8 95 153 50 172 73 10 58 207 5 225 125 208 113 225 136 226 179 110 243 111 170 28 62 243 92 12 52 180 205 52 236 210 227 37 196 224 100 135 214 66 78 137 146 138 233 133 6 2 226 131 47 60 67 15 214 220 45 48 143 206 250 149 28 121 243 76 162 40 99 218 47 177 85 12 144 216 239 168 17 110 43 223 63 103 105 187 0 145 119 
45 255 229 109 155 137 96 120 248 134 128 249 115 124 197 234 126 108 245 7 106 29 97 189 184 124 98 99 126 171 83 183 27 218 23 91 135 128 186 182 159 128 235 90 37 212 245 248 194 67 48 100 101 11 235 31 72 235 4 173 101 155 131 140 4 5 40 242 233 194 224 137 113 38 16 173 89 107 199 44 29 58 35 224 82 210 200 104 123 227 140 79 189 5 16 13 160 246 211 6 
114 210 79 138 116 144 77 89 105 22 57 243 228 31 203 252 252 31 237 52 13 239 3 49 162 166 182 130 58 82 89 211 158 197 187 239 21 114 229 103 8 106 189 77 197 77 183 26 11 108 207 80 139 164 196 196 91 78 4 202 52 78 178 168 55 216 206 48 136 156 48 210 15 250 33 92 32 153 79 242 39 1 30 134 189 10 215 16 137 114 120 40 195 162 79 87 188 78 80 129 
129 64 40 186 253 250 132 15 53 164 91 41 138 150 80 20 220 190 247 187 89 82 15 124 3 129 168 168 179 42 134 203 161 104 49 50 34 139 185 156 96 33 1 164 43 51 157 118 195 65 41 104 196 54 236 28 7 30 104 60 11 44 235 164 47 91 211 215 88 188 212 26 114 92 246 118 163 117 114 75 66 93 100 155 79 54 224 115 124 243 130 41 79 110 90 54 222 23 84 78 
40 54 135 13 2 52 17 60 92 27 228 150 50 235 232 188 22 253 227 143 2 204 224 29 174 93 221 60 167 54 92 8 98 105 53 214 207 196 15 17 23 107 140 245 50 90 198 52 229 115 53 112 78 252 198 95 213 29 182 190 91 221 157 84 173 171 131 253 138 147 3 252 173 247 124 241 33 157 21 18 101 93 25 24 1 191 66 211 175 137 188 78 230 142 113 94 134 121 69 102 
109 196 90 241 130 24 20 195 12 134 123 229 85 51 97 45 75 74 168 137 21 167 37 97 220 111 85 152 33 204 131 83 2 44 103 21 180 230 145 0 118 25 100 118 133 114 96 113 165 150 188 141 136 70 181 194 34 213 193 216 105 47 107 220 36 25 78 86 218 74 231 155 104 131 92 44 154 38 182 93 6 169 73 38 235 30 112 114 46 210 123 22 114 15 50 226 18 71 87 33 
232 81 34 243 0 112 191 116 42 113 48 178 98 131 228 241 200 245 11 89 108 147 188 104 63 66 237 200 83 110 250 207 212 78 229 22 68 92 229 144 89 201 105 192 234 117 32 149 246 218 41 10 208 153 151 63 117 206 2 190 101 62 196 55 30 54 97 251 49 33 120 34 155 112 139 171 48 78 111 205 34 66 233 6 58 234 192 149 187 31 9 205 138 104 194 169 235 52 130 194 
4 34 236 107 0 195 213 119 177 13 225 46 17 43 220 137 78 139 33 95 205 133 77 74 134 55 97 33 75 244 199 77 116 62 51 195 114 43 98 169 183 35 197 201 94 46 104 110 104 251 163 88 185 193 96 193 225 220 37 248 244 43 249 124 62 113 135 177 202 70 212 232 149 161 132 160 133 161 196 88 2 106 35 38 123 121 229 43 32 168 201 38 106 108 31 30 32 11 7 172 
119 131 90 220 204 223 87 88 37 120 66 98 114 102 222 159 229 85 165 202 95 127 0 224 234 79 121 74 140 254 105 129 9 65 202 137 50 22 234 231 82 67 189 172 155 146 92 121 41 244 7 129 98 154 251 227 124 91 194 234 57 158 24 163 9 98 8 80 9 11 237 196 172 171 11 156 59 201 8 137 239 230 250 236 175 242 144 95 238 222 103 76 252 100 177 105 96 209 54 90 
