P2
100 100
255
49 32 224 95 221 118 96 74 145 127 7 123 83 76 28 243 27 182 136 206 2 95 202 171 31 41 123 249 128 46 102 180 28 89 101 104 253 190 49 197 144 241 84 197 46 9 211 147 176 42 24 116 211 28 130 83 59 191 39 21 217 185 230 124 199 100 193 20 196 101 6 208 74 85 141 211 81 219 228 132 43 24 125 152 143 203 117 79 100 236 147 214 210 212 201 131 254 41 16 140 
5 222 195 56 66 150 178 253 201 94 1 163 125 50 157 179 78 53 87 124 71 214 86 143 177 142 55 174 116 128 3 125 240 237 240 169 6 64 89 70 204 114 119 236 203 74 50 108 186 15 59 218 229 195 13 200 185 168 190 91 65 231 206 205 245 129 169 198 179 170 44 129 8 81 84 245 178 224 5 18 125 74 130 23 182 228 148 55 123 221 123 175 203 189 50 181 234 108 45 115 
247 203 132 39 178 139 60 95 15 29 161 246 25 185 140 195 163 78 104 67 137 161 204 178 246 110 31 245 161 7 95 248 117 66 0 40 133 70 136 235 180 53 137 63 249 16 4 175 186 137 62 170 60 97 37 195 212 204 227 62 159 154 157 214 31 106 43 196 69 131 27 86 248 192 100 179 155 41 224 72 175 14 172 222 113 81 56 162 40 184 218 186 85 227 121 151 217 113 100 155 
160 235 254 85 194 81 96 76 217 254 45 61 197 162 96 211 61 88 97 159 200 160 160 242 45 169 106 194 16 2 119 23 46 95 123 221 90 200 35 236 237 52 175 67 189 129 221 103 228 82 245 243 203 139 203 227 55 186 237 159 6 154 218 140 4 24 45 197 6 218 10 254 146 182 249 46 102 25 42 123 193 172 93 2 66 26 49 129 104 219 196 46 49 240 184 128 150 20 220 39 
176 152 6 40 30 120 178 151 58 140 227 84 21 217 13 52 125 24 195 139 242 116 153 234 7 142 204 33 73 21 206 90 38 248 50 111 183 116 104 148 82 164 98 25 132 125 42 104 136 254 62 15 97 6 218 57 107 146 140 246 123 162 168 126 27 95 131 147 59 51 198 57 164 38 229 41 17 241 126 69 189 244 196 47 176 67 148 178 25 142 38 180 120 12 95 197 200 59 220 68 
67 244 60 205 208 33 163 232 64 22 5 19 1 126 132 215 61 205 119 126 192 68 225 91 180 236 229 170 227 243 42 13 190 233 242 217 134 59 68 13 151 146 98 124 123 52 155 210 37 180 162 23 81 5 169 148 87 243 161 231 195 30 108 57 101 41 170 139 197 154 168 36 1 160 150 195 52 89 31 13 242 223 73 42 128 122 28 49 186 239 91 55 23 132 113 96 66 140 236 77 
69 33 135 199 159 248 132 171 204 195 159 6 246 237 58 146 100 140 151 75 9 55 62 156 225 144 242 48 228 233 254 197 199 233 56 17 202 136 56 185 109 238 64 133 1 9 226 204 101 1 245 224 21 171 74 248 3 153 38 149 128 114 135 93 238 71 175 207 77 50 213 202 131 4 193 55 154 156 193 146 239 155 65 152 25 16 183 123 195 22 214 8 64 5 94 202 230 193 132 135 
234 159 184 9 228 160 144 232 131 89 161 48 182 169 11 16 144 218 17 193 255 75 200 162 127 175 52 49 131 244 253 3 20 86 56 138 175 200 47 162 8 189 159 98 0 236 4 46 176 249 74 49 93 69 32 42 248 73 92 33 95 203 43 93 60 155 80 149 224 164 59 29 176 148 75 69 116 244 69 101 110 38 157 57 109 124 141 45 84 33 44 73 183 52 33 62 12 123 46 73 
73 30 34 193 219 107 216 213 107 18 88 152 193 228 126 115 168 111 129 60 103 214 42 210 90 255 70 107 175 152 1 56 107 230 181 83 185 227 57 133 202 31 167 37 233 42 208 142 112 69 215 111 162 5 216 230 145 98 102 218 16 52 32 78 201 151 253 195 25 92 63 111 53 20 117 127 19 103 68 80 20 89 144 241 182 30 125 85 17 151 10 253 142 14 210 185 14 182 210 185 
247 127 19 212 233 222 37 2 0 208 200 133 222 50 187 204 203 12 226 105 114 153 157 196 67 121 56 51 113 178 114 53 151 252 45 19 250 137 76 122 248 220 118 210 214 94 148 76 78 36 19 70 197 143 255 28 14 241 58 196 16 54 45 93 199 177 157 164 35 17 12 89 64 73 151 148 0 202 252 226 199 138 225 98 218 93 241 161 240 164 238 130 25 2 45 204 210 228 224 178 
138 194 169 135 61 237 175 154 18 6 193 205 85 213 56 195 174 184 51 246 216 206 58 123 107 64 144 111 36 29 106 84 39 23 20 249 2 138 240 221 235 213 134 46 161 91 89 94 65 49 247 201 218 139 249 241 31 227 95 177 119 17 160 184 245 225 154 89 68 23 48 228 152 51 139 98 67 79 181 46 199 50 208 147 40 146 10 5 119 24 55 212 243 117 75 74 64 74 123 42 
23 129 195 35 200 222 237 210 215 54 220 127 230 130 191 71 240 139 113 207 192 107 157 39 221 111 111 11 157 225 146 157 137 96 218 71 206 149 145 218 193 1 130 109 117 139 113 77 119 142 224 183 97 254 44 151 241 29 115 171 104 250 235 233 253 42 223 119 64 44 146 177 243 96 175 196 5 46 134 50 218 219 57 171 196 249 176 78 102 13 138 49 183 11 40 90 102 242 104 124 
222 114 141 252 4 241 74 148 120 66 218 202 172 144 12 107 117 4 194 3 249 13 207 89 159 161 138 234 227 108 245 150 193 186 219 180 5 190 50 246 73 216 220 22 186 242 146 10 208 143 112 85 121 163 252 62 132 183 142 27 211 182 77 185 230 67 170 85 190 144 44 228 82 86 3 42 203 77 244 252 170 198 170 156 116 211 243 145 22 196 204 81 77 204 251 64 108 23 23 155 
123 1 4 100 1 45 101 170 69 220 116 78 140 141 87 89 79 243 90 242 145 185 74 115 90 222 176 75 37 197 30 107 52 238 156 73 55 218 38 191 77 207 183 30 109 53 154 152 43 182 226 18 222 178 25 71 145 53 213 129 107 169 24 112 97 200 227 240 155 142 11 242 84 138 124 208 231 177 125 235 3 98 125 56 248 204 100 219 89 71 170 51 80 71 236 23 190 156 251 189 
146 233 226 43 71 247 25 212 55 31 219 142 227 170 145 187 188 180 137 231 134 239 230 175 22 12 20 109 149 88 145 59 82 207 208 83 242 43 230 135 151 16 97 60 99 163 237 233 207 171 15 201 30 154 218 78 95 115 99 28 48 78 98 99 250 240 28 240 39 33 85 86 226 83 46 26 224 146 172 146 79 237 82 221 250 7 220 33 65 7 161 228 78 28 146 104 203 218 191 87 
202 59 137 111 198 90 237 240 239 244 202 222 39 165 114 134 22 44 107 186 250 193 169 52 163 119 11 181 26 109 5 71 200 148 52 20 58 83 140 62 8 185 207 233 9 16 72 142 176 75 232 235 164 189 228 248 84 198 25 118 62 111 90 122 247 147 141 148 5 184 171 49 229 207 219 244 191 54 169 163 81 109 186 3 105 14 189 196 69 206 88 97 137 38 19 56 188 62 127 117 
202 165 120 200 10 161 169 64 203 27 163 70 144 178 203 68 182 217 215 151 252 60 84 186 46 156 64 203 204 235 177 91 3 116 103 255 169 142 2 223 93 10 228 134 174 27 4 5 21 145 206 46 168 82 45 175 144 189 175 186 114 246 177 226 150 6 234 27 56 147 248 212 114 155 119 255 213 31 117 116 158 63 96 75 134 185 158 248 44 48 8 5 222 229 204 49 199 69 99 62 
108 235 98 218 22 224 191 163 111 243 166 102 168 105 249 150 76 155 192 253 43 136 110 157 44 191 81 140 33 236 16 250 164 184 71 174 186 14 140 48 55 243 57 165 227 76 89 248 45 178 21 14 41 155 162 29 39 95 209 94 88 183 5 189 52 8 133 221 183 119 227 91 124 170 98 90 217 115 99 105 57 216 176 21 53 104 186 222 108 41 127 35 6 100 37 250 61 56 194 154 
43 150 139 29 67 223 44 119 97 22 76 171 192 190 78 46 27 218 35 117 237 135 100 65 235 226 103 118 218 231 166 89 220 65 189 229 169 254 236 13 0 4 24 233 87 181 25 105 145 236 24 237 82 143 18 161 251 123 33 56 116 69 62 104 51 1 126 147 83 65 106 73 68 48 250 123 137 196 60 96 97 236 53 207 118 52 50 232 130 233 236 117 33 197 233 197 122 244 115 198 
199 135 91 12 30 119 102 25 94 67 10 123 27 151 102 139 110 16 76 202 190 58 95 120 29 14 101 226 28 6 226 221 98 75 88 198 99 151 145 71 99 85 232 211 52 156 168 18 107 102 229 42 147 123 159 59 209 29 105 165 143 183 74 142 197 139 246 229 165 239 160 130 212 15 77 85 39 217 222 155 166 24 74 103 220 124 233 116 37 115 24 165 197 248 223 181 126 191 97 42 
137 198 46 154 146 60 226 243 134 101 180 174 238 255 165 244 161 0 33 227 216 27 71 138 225 39 36 48 14 221 225 78 148 81 99 25 39 150 183 140 68 23 32 92 114 225 73 112 193 72 150 219 163 105 2 107 48 83 59 148 52 140 78 43 132 29 216 246 244 250 11 57 184 158 39 219 44 72 201 52 218 186 53 185 100 12 59 154 208 244 249 66 39 107 164 224 185 114 25 60 
227 156 46 26 148 112 99 201 176 77 30 136 76 249 155 86 218 119 54 39 73 251 184 154 209 74 59 250 92 130 191 99 163 254 31 114 29 221 90 125 36 31 199 191 248 73 119 219 110 161 229 166 11 212 138 49 47 168 197 153 96 201 71 98 171 57 234 167 145 46 187 223 4 220 85 69 228 98 118 59 190 252 138 221 152 49 166 217 51 187 129 105 168 172 247 166 239 28 32 46 
117 106 14 231 129 202 49 193 247 212 158 148 11 232 157 247 115 156 83 136 193 189 130 193 20 20 22 167 17 181 150 68 225 100 212 25 48 230 249 238 0 208 172 94 209 162 174 16 76 58 222 190 98 5 122 195 71 169 51 94 115 102 70 164 126 227 204 244 172 113 188 254 115 80 197 171 191 74 164 82 81 153 176 88 62 125 1 183 224 183 44 232 218 5 179 203 30 6 62 240 
70 102 71 47 187 25 162 240 206 82 211 179 176 248 226 29 244 141 105 16 7 87 195 91 18 131 3 247 250 94 225 168 226 217 7 40 6 0 211 132 28 112 190 71 58 207 189 114 224 226 140 123 223 131 247 224 5 185 208 247 203 123 47 8 17 139 215 163 183 40 203 95 201 47 85 149 215 14 52 4 8 127 167 66 29 191 212 148 100 200 50 95 38 232 206 224 89 10 1 64 
71 157 196 150 236 41 41 51 194 207 175 129 129 200 190 75 124 220 226 208 41 219 228 48 133 243 58 105 240 166 125 73 110 62 148 94 218 206 130 192 160 63 48 115 125 3 9 41 107 108 8 44 1 124 24 30 48 216 172 228 197 208 77 77 248 38 238 13 59 55 231 184 92 159 168 200 181 60 220 226 122 224 62 16 31 246 113 41 124 6 57 86 209 74 241 86 84 219 95 125 
125 103 226 84 132 234 138 38 244 45 108 79 49 218 45 149 65 32 87 112 196 5 174 77 4 190 243 148 127 187 128 112 44 48 61 190 8 35 239 200 124 35 106 87 52 51 175 238 122 244 217 196 235 120 146 25 213 66 242 192 218 191 192 128 233 168 56 63 2 17 160 156 152 245 119 61 88 176 252 61 106 80 215 101 79 188 154 124 74 212 213 131 242 164 17 90 164 29 43 225 
227 46 119 228 59 198 223 82 122 108 123 122 115 52 178 199 185 224 157 46 4 254 44 240 185 123 115 37 218 39 167 153 121 227 32 164 31 142 40 118 124 41 109 137 252 121 31 97 124 103 216 82 48 180 164 198 127 167 242 181 129 204 216 132 55 230 18 15 197 255 43 25 113 214 189 114 233 141 104 24 24 224 67 218 109 242 35 198 106 67 137 69 139 148 79 26 244 157 236 11 
158 78 120 90 232 178 97 178 255 46 131 213 143 192 89 9 216 159 42 45 89 54 140 91 27 187 123 68 50 14 175 23 73 158 200 255 121 115 116 203 157 148 71 197 47 16 224 252 192 82 218 187 225 30 132 12 13 31 26 143 215 173 58 94 26 93 143 31 1 95 104 55 247 125 252 69 47 82 164 4 117 83 224 238 165 52 235 165 81 184 116 78 206 52 71 214 56 238 208 123 
119 194 35 231 215 199 22 14 35 203 116 175 15 76 80 6 12 182 154 210 246 250 75 43 56 233 134 14 246 61 13 12 206 49 121 85 96 141 136 197 122 208 87 4 205 164 86 153 64 224 115 183 206 174 234 132 156 17 249 31 154 21 78 190 248 116 61 126 155 128 143 106 127 79 43 44 40 26 165 135 49 248 171 21 40 177 28 64 25 97 86 37 162 176 15 239 168 254 188 234 
60 138 2 195 113 154 125 106 219 105 4 130 9 247 154 217 59 26 122 251 152 30 82 212 112 234 194 222 60 172 10 239 255 108 126 210 124 3 0 34 93 197 99 158 228 213 12 12 50 117 127 213 194 41 33 58 114 153 231 16 76 183 54 207 176 217 214 253 193 170 18 158 44 63 154 190 126 233 4 34 111 219 9 170 8 27 63 64 19 183 225 187 34 173 113 182 22 202 134 211 
20 109 186 246 89 110 178 206 63 252 169 250 86 174 142 189 69 39 110 251 111 104 105 166 191 45 102 225 34 245 164 231 209 68 156 140 244 133 248 228 214 172 230 41 142 254 62 203 21 11 71 120 145 193 140 55 152 36 154 29 41 59 7 160 230 57 127 15 199 213 30 212 38 78 199 117 24 117 7 11 245 213 0 17 182 236 162 206 185 255 218 44 246 166 116 10 90 199 22 23 
230 107 105 118 250 29 215 147 179 95 171 83 127 233 202 185 253 240 123 43 164 143 76 61 13 88 228 136 193 172 165 199 56 154 5 138 91 242 125 202 64 106 150 177 150 20 109 57 236 50 138 28 77 70 128 182 236 1 13 243 233 241 210 71 56 225 191 119 214 208 30 81 100 103 6 182 75 152 4 189 10 158 18 231 221 145 223 212 48 74 126 245 205 195 126 40 188 162 195 83 
192 214 53 187 162 48 113 118 102 187 46 134 223 236 241 15 22 36 232 212 45 106 230 97 48 188 89 115 143 180 100 188 142 191 183 212 224 63 239 169 88 84 212 14 55 82 157 70 209 197 6 152 243 38 14 164 38 0 15 190 46 208 8 214 10 214 223 189 20 72 3 114 170 79 15 31 181 9 220 127 160 75 232 32 171 14 57 0 112 108 220 151 249 193 216 66 57 103 24 45 
113 39 81 122 1 5 177 188 78 170 153 238 218 116 13 114 69 50 101 164 135 235 25 122 211 160 252 79 9 155 141 192 61 16 141 151 198 3 212 206 143 3 36 24 94 159 100 86 70 240 132 178 243 156 109 152 97 61 138 123 88 148 18 54 184 176 25 202 124 71 173 62 194 45 217 65 96 161 164 119 49 237 255 3 99 93 73 238 212 247 220 82 229 131 41 58 131 128 12 249 
26 102 207 37 194 75 60 182 109 39 146 91 254 58 82 66 199 115 57 24 55 38 46 67 148 118 175 34 120 88 74 49 168 10 152 107 180 232 137 83 65 167 207 185 128 94 137 64 6 231 206 12 153 17 43 230 214 223 31 217 161 145 157 90 94 133 236 26 252 87 90 87 204 17 184 186 31 214 224 187 73 96 75 250 136 40 54 209 75 214 202 98 42 110 61 156 33 189 122 154 
164 133 122 85 67 73 62 251 111 78 139 197 188 82 235 89 171 43 246 138 155 63 145 188 100 95 56 169 6 51 8 73 15 245 115 112 150 111 110 116 198 189 48 6 48 230 132 203 99 86 65 68 126 59 102 10 181 85 136 53 215 157 127 97 75 177 17 137 236 187 73 187 174 126 183 99 47 147 66 224 113 203 193 7 238 163 203 31 6 165 79 181 63 12 160 48 232 76 24 27 
240 80 100 242 14 227 121 128 83 226 114 151 179 190 184 162 191 112 126 237 174 125 34 91 66 161 183 56 145 21 112 228 182 149 207 130 38 177 48 105 163 255 208 207 61 147 91 68 221 138 243 99 119 105 30 204 218 110 96 123 82 92 235 153 137 79 79 11 235 145 118 118 101 28 151 5 12 234 9 58 21 46 55 217 214 165 118 232 116 165 231 29 213 64 27 78 37 138 167 80 
6 84 138 205 150 198 143 65 135 19 109 107 246 57 5 163 48 68 83 194 187 233 222 111 34 0 180 68 214 235 227 88 34 255 233 203 103 172 132 32 92 174 135 4 242 237 77 187 157 112 255 90 83 82 96 61 218 54 90 145 254 227 12 18 104 221 105 141 198 21 8 124 219 45 38 44 94 108 25 201 197 120 203 222 164 77 183 138 4 56 209 29 76 164 16 190 87 65 224 244 
53 239 162 9 112 172 204 70 93 159 40 21 50 174 155 159 28 141 25 75 49 39 253 35 141 41 83 242 47 141 81 220 92 71 55 162 98 124 56 162 81 23 104 113 33 147 58 118 49 43 45 160 240 48 83 2 50 81 91 3 44 11 74 83 223 145 53 32 112 93 97 136 114 166 74 62 44 138 111 80 0 111 22 37 60 83 249 26 174 93 96 152 187 253 132 119 7 136 98 198 
103 227 92 94 188 56 213 24 28 132 151 133 94 197 203 129 55 117 116 250 94 175 232 252 143 153 8 184 71 150 229 68 32 91 9 251 31 159 166 115 156 165 211 99 182 67 91 28 0 184 13 195 207 91 60 231 19 245 209 70 157 173 7 93 71 115 63 24 127 0 112 2 145 37 26 242 158 23 55 216 20 121 70 11 252 206 131 99 41 167 36 235 188 180 44 130 130 173 117 63 
9 58 8 247 84 218 89 116 70 50 29 210 201 191 136 175 39 68 213 77 245 212 138 213 91 63 90 49 51 212 205 101 100 180 97 227 68 94 44 70 42 92 113 162 135 112 14 157 219 119 62 189 177 137 31 37 69 159 129 178 100 99 91 107 133 89 28 183 96 34 6 91 151 177 50 165 233 174 116 242 125 108 252 149 201 188 17 248 108 245 64 202 198 80 49 91 65 76 186 29 
103 24 175 45 69 112 36 190 239 254 192 28 34 249 151 97 168 188 223 207 155 66 219 140 123 125 220 184 1 195 27 13 28 47 91 125 37 128 135 139 102 187 75 119 70 203 26 106 185 71 35 201 151 36 80 14 170 248 145 33 38 7 208 233 229 184 14 55 43 45 76 157 116 190 89 156 98 55 5 70 230 229 230 221 185 74 158 24 233 83 87 53 118 183 105 5 110 82 162 123 
162 91 54 218 229 229 159 121 7 189 100 14 79 22 143 128 223 234 156 217 45 65 78 106 97 183 63 74 218 31 206 112 135 244 184 103 239 52 215 111 191 49 245 135 193 182 153 189 100 111 138 188 7 34 162 82 193 246 28 98 157 136 126 116 165 26 14 2 220 207 199 231 162 209 247 189 59 208 80 166 101 11 60 238 76 218 153 139 134 31 26 218 207 252 228 196 86 20 233 201 
1 62 99 52 13 72 84 180 198 133 162 131 26 10 65 96 72 157 49 255 33 189 173 200 230 99 151 232 119 80 182 173 33 154 4 233 182 46 104 251 115 195 124 192 239 233 94 86 144 0 110 93 44 170 109 18 99 34 243 103 91 187 86 137 229 61 14 78 28 33 160 78 240 208 84 202 59 128 104 32 164 28 249 215 81 128 159 250 160 133 156 154 170 36 122 170 129 112 184 119 
148 92 14 117 105 41 138 53 174 201 58 142 68 140 184 198 63 182 63 104 174 158 104 131 133 115 48 34 81 80 50 169 246 91 73 163 53 24 84 93 92 34 216 55 111 172 52 219 195 248 94 152 155 179 108 246 65 76 107 223 75 71 152 71 76 194 113 254 146 170 212 31 216 176 189 26 209 185 54 180 3 68 240 171 5 18 204 151 184 210 60 73 45 61 237 8 8 88 106 208 
20 173 105 183 13 251 191 6 172 184 94 170 116 227 242 181 59 17 247 192 154 147 153 190 84 40 173 44 48 140 186 219 111 229 42 7 216 88 87 213 94 255 175 158 16 24 143 64 115 185 140 97 66 180 230 216 245 40 206 88 54 184 129 126 94 61 244 12 154 131 165 187 113 0 115 81 255 202 195 137 242 129 153 43 128 110 46 242 233 54 226 143 192 189 114 86 205 74 46 94 
31 169 38 17 37 59 93 206 102 175 136 215 176 228 23 148 8 76 23 75 196 223 149 232 246 201 87 243 219 132 5 1 230 43 163 129 97 10 52 250 42 133 97 109 149 246 59 247 32 237 123 126 234 174 177 88 167 46 58 249 87 65 157 167 108 135 79 74 36 168 54 59 20 208 5 35 203 23 193 189 88 21 170 8 69 174 36 92 208 222 67 246 67 61 227 242 180 164 255 130 
77 148 40 2 210 47 189 44 82 211 172 85 238 82 143 133 117 176 137 54 125 51 227 243 45 24 220 7 100 153 179 94 91 213 206 16 75 64 154 183 24 248 3 215 193 150 212 223 108 99 97 249 156 238 187 252 171 115 58 221 79 121 225 184 192 49 211 157 129 123 74 168 107 125 196 135 191 182 21 62 35 117 183 60 29 78 195 215 199 61 45 167 0 44 18 245 231 40 143 145 
3 158 39 169 183 155 218 248 170 113 187 7 194 215 121 115 125 215 180 218 196 97 226 115 205 149 190 103 98 145 68 198 86 161 187 253 129 45 49 158 107 33 100 36 23 51 68 230 112 152 117 42 48 52 79 153 4 55 122 115 104 61 135 40 242 188 6 92 110 56 54 223 116 52 104 176 114 75 64 49 166 68 169 90 131 180 28 174 227 51 28 188 41 171 93 159 58 88 255 166 
37 252 178 88 120 0 207 80 47 108 208 244 37 246 49 143 181 103 59 221 174 7 113 19 72 72 60 209 63 116 216 211 18 6 49 133 69 220 93 82 177 142 239 213 119 119 156 9 80 59 151 13 235 242 138 151 154 248 54 103 255 48 148 178 149 9 130 32 247 207 209 58 53 246 116 200 57 40 136 145 179 210 25 52 210 34 96 54 71 23 30 58 138 95 155 14 130 194 82 248 
142 126 149 120 85 227 53 1 142 207 178 153 111 254 159 66 100 209 179 169 183 63 254 176 30 106 97 82 244 229 107 208 172 66 221 79 188 211 86 2 199 171 77 126 18 162 169 64 212 221 112 213 143 111 10 179 224 190 249 213 161 199 113 232 102 63 146 22 109 114 101 165 163 57 216 209 171 241 71 92 55 67 219 18 24 177 102 239 251 155 41 210 239 239 108 4 186 133 174 164 
82 142 143 44 242 131 29 25 92 78 62 104 70 70 98 52 10 219 29 107 202 222 129 12 240 231 40 28 158 204 56 113 130 163 244 118 222 211 211 66 254 65 66 110 9 49 132 131 78 39 126 62 73 246 252 231 127 200 160 102 70 168 9 117 121 45 59 69 180 149 173 125 239 106 42 43 149 246 46 58 189 168 73 209 250 173 248 124 60 151 92 0 25 70 44 233 86 158 118 249 
46 45 76 190 120 172 109 81 132 6 137 97 172 78 136 66 25 202 154 43 78 28 124 4 84 232 58 17 224 203 216 206 67 153 201 82 40 25 8 54 77 157 168 122 42 229 140 191 90 251 142 205 27 25 200 151 253 62 255 128 81 129 94 105 198 252 17 191 77 60 117 198 18 16 3 147 137 44 230 238 62 135 235 223 127 83 93 214 156 90 204 136 7 130 244 77 142 210 228 146 
183 101 141 51 134 64 118 41 107 148 0 17 242 226 201 102 128 255 55 76 208 225 165 95 250 240 150 193 100 59 157 72 20 189 149 158 78 123 160 150 179 68 92 126 73 120 123 74 123 106 143 244 201 17 83 81 195 188 222 115 182 101 53 120 157 241 162 248 103 207 73 61 142 147 41 193 249 178 70 19 214 89 83 158 50 49 125 85 68 172 70 124 245 63 31 57 71 161 94 125 
180 223 119 11 113 46 18 36 164 69 24 4 30 217 19 224 72 24 146 171 101 141 198 145 178 202 168 106 28 198 218 219 206 246 37 130 28 47 53 240 215 215 6 216 153 205 152 152 219 233 147 189 190 248 21 211 196 145 40 138 136 107 60 164 127 76 85 176 57 93 37 105 31 68 251 166 207 47 101 247 43 209 83 214 45 82 229 235 87 203 195 187 154 133 27 91 12 177 200 152 
218 164 192 233 50 196 23 12 226 136 191 138 7 100 115 155 200 120 10 65 159 218 84 183 251 182 5 255 13 36 200 82 122 225 225 19 142 163 78 151 132 251 0 151 0 80 171 7 170 113 10 37 186 145 24 182 83 230 119 169 74 56 245 13 185 228 157 239 193 249 74 50 97 180 107 90 239 20 251 170 190 32 84 187 21 219 171 202 248 148 3 35 144 39 141 170 44 113 33 214 
169 179 10 151 180 156 245 245 131 238 162 206 187 10 222 17 226 46 26 187 191 253 208 63 93 49 70 105 167 205 121 74 20 205 93 40 6 66 228 93 91 64 128 34 31 200 111 83 204 133 130 151 93 125 48 206 248 236 19 4 255 28 102 183 115 224 21 138 180 118 72 81 33 14 1 132 147 107 130 213 245 169 203 35 233 167 236 23 215 85 94 227 164 84 84 5 0 212 140 155 
142 197 50 204 38 222 173 167 198 12 66 241 122 129 129 214 6 235 1 239 48 222 56 210 142 136 29 199 193 59 61 170 71 141 6 180 156 37 200 238 202 97 39 208 30 236 93 44 123 170 142 7 250 234 219 42 77 236 19 109 135 11 189 237 232 158 91 161 2 46 28 241 157 155 82 3 7 46 4 106 215 119 19 1 91 98 159 50 170 238 170 253 67 159 205 199 25 105 95 154 
93 129 148 192 139 132 77 247 174 243 153 230 107 160 70 230 173 176 183 12 47 93 84 183 68 134 25 26 149 140 240 38 155 45 236 119 147 251 241 199 14 58 91 165 171 24 55 118 30 231 197 31 0 74 198 196 54 205 216 195 35 188 151 150 67 58 216 16 146 230 69 83 134 194 213 84 190 160 4 102 158 117 42 92 191 93 39 78 208 167 214 134 141 68 51 184 81 205 143 228 
59 10 154 166 121 45 96 93 51 33 103 246 202 100 69 130 245 76 152 10 219 62 114 132 219 9 117 65 153 123 185 118 106 174 132 156 80 51 88 208 153 211 31 109 23 116 107 238 36 160 109 166 254 50 27 49 169 95 173 215 22 138 251 144 241 157 155 98 67 39 32 2 225 216 182 120 255 128 179 239 24 43 68 47 160 84 85 118 128 61 155 32 226 66 244 250 125 144 178 129 
195 154 250 244 168 189 205 103 83 160 38 211 127 94 101 102 24 47 248 76 246 240 179 113 151 255 33 191 100 209 243 3 56 115 108 81 26 99 248 36 233 231 22 196 186 39 88 84 88 114 175 101 161 185 128 187 9 64 8 230 230 17 15 167 189 98 18 8 134 155 226 151 170 204 135 134 160 194 119 229 211 207 119 71 193 46 127 220 44 49 238 226 101 1 21 102 191 43 83 22 
206 121 68 151 114 37 102 185 103 139 95 255 190 240 147 247 121 212 210 215 151 17 1 226 76 123 218 249 217 228 199 167 124 206 19 107 156 81 87 107 82 25 141 119 251 253 243 129 245 19 92 195 91 96 100 175 29 179 207 4 197 227 93 205 181 99 28 212 224 249 221 14 14 229 200 217 76 99 222 239 228 228 70 144 33 80 170 203 104 199 89 139 210 200 219 46 183 191 203 170 
17 130 211 240 189 119 201 250 189 113 15 224 196 27 4 3 126 169 198 224 133 43 119 36 140 26 106 11 185 189 254 60 74 241 110 154 183 169 110 202 200 17 117 162 167 247 6 47 171 101 112 185 68 21 187 181 25 249 239 58 159 51 142 162 248 85 76 251 4 21 211 133 245 206 168 44 162 141 205 73 202 55 47 184 35 130 170 15 136 84 138 190 142 117 191 119 150 37 186 19 
221 35 219 219 24 179 147 118 86 106 195 45 105 9 226 155 63 130 144 186 146 138 227 186 135 85 250 118 149 144 159 43 47 129 160 102 88 159 28 63 78 237 157 30 189 250 68 162 106 29 29 137 101 184 53 4 160 140 228 164 248 100 48 59 222 21 220 29 136 97 177 161 23 82 245 45 210 51 142 227 185 247 13 52 16 91 62 149 111 185 181 19 50 115 170 126 12 40 12 126 
241 172 183 170 239 59 113 22 210 24 86 168 105 245 184 226 29 2 245 23 86 45 97 160 187 233 193 215 235 160 48 38 169 48 21 14 74 138 75 229 98 60 146 90 102 210 82 91 13 27 195 47 53 68 228 166 206 83 5 225 112 223 248 99 168 186 173 129 123 74 49 171 181 75 168 234 39 174 161 165 224 136 87 20 113 119 39 4 113 220 33 194 172 34 75 60 6 93 80 50 
193 32 41 3 42 196 64 213 246 156 78 194 18 0 146 31 37 76 152 75 230 180 119 182 108 157 253 247 169 220 222 130 230 246 45 251 120 126 32 43 196 37 64 2 52 137 211 79 172 70 183 16 247 59 148 187 63 247 216 75 54 114 29 171 181 135 146 63 122 129 204 3 31 96 7 4 91 98 67 39 119 45 155 140 93 100 189 243 76 167 207 40 237 177 34 65 207 224 80 208 
168 5 74 69 254 146 41 36 196 195 199 26 75 60 231 184 247 154 110 196 154 67 206 105 28 62 48 11 35 55 131 67 16 26 191 243 246 56 75 86 21 40 3 208 58 169 162 94 193 145 74 96 80 32 176 170 225 144 175 149 73 29 214 154 195 236 223 74 143 111 174 189 151 210 124 176 187 17 229 97 100 15 134 136 34 121 179 232 175 53 155 7 120 32 201 5 1 17 159 124 
229 130 19 108 189 212 172 79 235 246 14 136 125 33 54 8 210 218 60 121 142 59 63 119 70 194 252 76 202 8 133 187 53 226 84 226 122 93 63 242 156 69 165 21 207 11 60 111 88 73 160 249 159 187 41 82 213 173 113 17 163 4 70 186 30 109 240 24 80 120 141 125 8 104 225 121 62 135 80 32 242 37 19 107 242 7 238 79 19 114 91 99 151 192 187 118 206 244 209 163 
187 145 204 253 12 234 52 1 226 217 107 202 188 217 200 201 53 167 238 72 215 124 81 66 37 17 237 102 203 57 150 246 71 213 88 231 108 249 180 75 67 200 157 76 150 90 4 114 35 209 30 229 154 70 18 153 13 238 143 17 104 139 151 113 43 14 204 197 254 36 46 8 171 94 251 111 90 107 198 132 85 25 84 119 205 193 90 198 171 100 15 226 122 135 18 140 173 195 82 234 
249 234 164 30 59 227 228 237 8 89 148 63 14 178 252 161 176 253 100 64 190 114 198 153 116 128 225 144 198 85 39 11 235 79 143 83 242 30 194 254 80 183 181 239 42 90 147 235 208 230 157 148 147 202 8 132 242 82 195 21 50 58 236 163 16 179 101 19 167 163 230 6 122 204 18 128 136 15 115 242 35 39 195 36 6 42 66 156 106 51 240 183 142 184 254 239 202 143 200 199 
249 60 12 128 82 193 47 150 218 203 193 145 235 179 55 71 104 61 49 179 203 175 179 207 175 135 131 125 210 114 33 247 13 89 188 44 22 210 70 152 120 248 162 253 9 218 18 115 85 41 45 159 2 224 38 123 158 22 138 244 213 158 200 232 91 207 36 117 76 59 169 188 88 230 251 5 225 207 129 140 180 179 85 13 205 158 227 7 141 54 240 218 124 65 128 232 41 161 239 140 
11 158 2 68 131 134 244 233 228 251 38 104 6 248 156 89 200 103 240 148 216 68 236 195 5 145 144 229 27 41 21 54 189 200 8 183 198 208 236 34 195 74 207 54 175 236 244 216 74 53 104 220 210 52 235 118 11 182 181 226 246 21 128 3 246 1 13 1 53 37 117 140 189 221 103 216 201 109 18 245 233 49 54 214 155 2 70 217 189 92 139 78 102 178 245 157 56 178 88 92 
115 22 128 49 132 1 250 67 184 213 152 210 230 210 244 246 177 102 165 241 186 206 134 115 117 90 26 211 100 189 163 8 69 122 57 185 41 228 106 155 0 94 48 240 206 178 82 218 28 226 133 240 63 84 251 162 165 111 135 42 154 254 101 202 232 45 112 0 191 135 214 148 193 228 166 190 42 222 67 222 214 31 1 90 126 117 83 238 248 70 103 243 86 38 133 126 217 243 142 86 
110 189 237 30 147 120 112 224 224 253 225 164 98 45 195 21 29 19 17 144 111 164 32 105 127 61 213 150 221 205 124 181 158 159 252 156 66 15 68 54 69 28 144 6 223 90 134 64 35 43 117 149 237 18 99 76 198 182 41 200 52 251 133 60 0 3 134 18 239 136 144 231 45 156 159 66 38 217 214 52 75 198 104 50 144 12 134 95 65 64 114 247 46 8 3 83 86 192 1 189 
64 225 71 79 70 131 233 197 100 82 250 39 115 117 237 253 192 183 219 141 51 83 228 195 156 52 76 93 6 232 209 122 9 114 24 158 24 48 64 81 143 199 22 163 225 78 21 16 174 137 178 122 165 0 74 247 99 11 73 129 179 190 125 162 58 112 47 8 180 198 109 172 14 88 210 37 210 180 30 47 153 99 191 80 123 243 157 206 165 27 28 10 5 147 6 80 18 250 40 115 
36 81 190 88 150 112 51 253 228 210 241 118 30 155 210 111 130 176 21 7 234 153 215 195 22 209 74 32 108 137 212 74 248 191 129 244 77 13 212 31 73 175 81 22 205 12 164 70 245 171 106 60 230 239 140 137 221 241 10 123 176 169 194 66 7 20 207 176 76 19 254 166 21 78 10 12 155 189 37 223 239 221 92 253 176 96 225 167 42 88 193 50 158 33 60 124 66 199 200 6 
49 188 68 182 116 181 144 106 236 191 10 190 97 134 103 149 21 2 231 250 0 248 220 27 62 139 132 30 160 142 120 139 121 70 252 213 95 135 106 133 246 47 88 231 231 93 181 189 220 164 77 202 40 29 181 25 68 137 45 47 68 20 91 14 214 125 142 124 19 23 128 141 134 61 43 95 168 67 71 251 224 100 230 111 49 62 180 70 141 106 223 237 59 210 43 130 195 15 150 230 
142 0 211 67 111 179 5 47 41 213 162 22 17 93 123 59 193 84 22 243 246 92 163 89 22 171 187 41 4 126 191 56 58 68 62 228 165 201 59 69 177 85 138 57 158 181 65 83 1 243 200 66 154 204 116 62 77 35 9 252 252 229 119 111 10 146 133 102 73 173 150 0 87 74 44 32 124 132 190 190 129 163 218 98 231 204 114 38 100 146 104 62 57 116 95 161 250 26 238 244 
218 214 229 50 89 134 214 150 100 245 112 140 101 228 156 23 125 47 95 126 202 48 79 54 94 212 77 26 220 170 41 160 118 133 12 213 61 33 169 62 39 162 137 54 32 135 213 213 196 162 73 182 91 65 194 250 206 95 171 134 7 204 136 172 97 64 82 178 137 104 182 245 164 159 248 138 4 141 23 50 141 168 197 252 196 58 66 148 99 221 146 219 141 103 174 216 185 184 18 120 
181 19 241 58 86 248 14 110 30 244 97 173 224 33 171 204 248 216 20 78 230 56 115 33 228 59 198 41 55 210 194 224 239 245 189 128 90 186 199 2 36 49 85 182 250 226 31 34 106 124 41 227 181 248 203 214 49 131 129 112 194 196 187 119 77 47 213 49 224 204 251 77 43 110 55 171 58 233 202 196 146 40 46 5 249 17 37 254 146 189 141 66 94 78 198 241 170 39 146 164 
212 66 123 193 240 129 84 49 53 215 88 171 143 92 200 151 103 184 119 59 159 80 186 69 82 110 158 248 10 226 104 191 94 8 56 248 41 177 99 8 50 51 199 231 190 98 247 49 172 27 213 222 200 77 136 132 126 186 111 176 252 167 119 139 49 61 116 70 76 9 198 119 5 213 71 194 216 68 69 26 206 87 79 8 245 62 80 121 109 24 237 88 127 201 187 55 56 14 13 155 
240 196 150 218 97 165 181 198 32 21 222 87 248 169 18 31 50 66 179 59 227 121 26 68 180 244 79 121 162 161 104 96 155 220 69 196 251 87 10 118 139 75 242 151 56 154 203 113 105 68 231 125 179 241 200 109 102 207 70 181 58 160 75 45 31 250 179 38 215 80 243 46 128 43 2 193 255 167 92 72 68 10 208 134 5 73 93 28 132 46 58 124 124 194 125 26 78 49 31 61 
213 241 215 240 130 143 239 92 68 181 199 238 149 79 2 235 19 40 160 191 179 76 140 159 94 144 221 52 168 13 131 177 72 152 185 250 217 184 183 212 143 95 22 31 170 130 148 130 184 46 54 62 99 150 21 141 71 162 1 36 11 63 75 93 199 179 36 36 184 42 237 105 172 216 81 35 27 163 19 130 23 211 108 214 83 76 7 36 239 59 50 5 144 247 120 175 175 24 198 92 
4 32 141 40 216 235 238 205 118 153 152 199 133 229 222 77 25 110 28 187 93 23 128 209 218 78 173 179 133 131 159 185 213 192 34 36 199 30 98 212 195 110 97 85 159 126 10 219 105 114 250 39 120 16 80 237 162 57 39 1 209 158 206 159 150 238 48 35 33 154 162 120 30 220 20 54 241 233 138 1 84 65 151 118 139 221 174 127 139 2 209 245 201 146 8 160 191 66 26 251 
163 113 52 209 37 100 164 250 206 189 4 83 45 98 22 190 19 139 60 241 64 78 232 211 143 109 19 227 63 109 181 26 234 78 239 45 84 74 224 221 127 24 30 189 73 91 170 29 51 220 89 84 31 84 14 51 79 137 242 221 213 41 66 68 49 11 42 239 117 33 7 153 232 179 43 84 139 64 206 179 231 207 140 242 222 226 161 153 1 251 134 40 37 175 229 177 143 22 77 97 
216 175 230 130 59 88 66 174 204 108 147 182 224 46 40 38 114 223 243 150 240 169 187 38 244 93 120 160 232 62 56 88 20 35 157 166 92 222 201 118 204 67 49 108 193 115 20 236 230 212 208 24 125 104 17 84 252 147 217 42 134 196 228 75 136 54 205 196 191 87 155 192 216 16 196 105 232 9 180 12 172 9 50 59 76 19 190 106 251 162 0 150 116 182 147 111 232 43 245 255 
35 211 16 241 16 58 7 242 177 70 39 233 90 41 44 202 218 89 218 169 129 78 187 113 27 16 109 243 213 149 90 241 52 44 93 34 197 168 203 235 7 121 251 5 56 118 103 173 122 135 65 11 165 217 99 21 252 32 185 69 183 251 207 134 86 101 41 76 122 19 43 11 223 173 188 141 157 129 217 14 39 253 77 217 208 225 196 242 41 234 35 99 24 248 62 183 92 32 159 50 
145 168 90 40 90 72 32 84 101 71 64 23 85 72 105 11 213 104 75 73 37 46 250 149 229 143 14 31 109 244 147 211 49 59 239 218 52 176 5 91 17 202 25 152 40 204 4 10 86 147 15 11 157 61 170 132 183 101 103 74 45 212 29 23 28 60 200 112 35 96 119 205 81 185 122 162 149 55 21 197 54 96 154 220 9 172 59 95 115 49 148 211 50 130 125 79 141 106 104 203 
245 232 195 110 154 138 36 159 106 62 163 116 181 210 170 229 18 36 58 188 138 37 201 165 152 142 36 31 119 227 198 29 231 61 6 129 40 54 59 138 227 118 209 113 86 50 184 253 14 19 191 252 123 80 134 215 21 120 107 247 183 154 160 73 92 165 112 243 177 224 221 83 170 153 240 18 150 136 101 143 152 217 152 119 19 202 11 102 115 112 109 187 78 142 125 128 185 182 4 90 
218 3 203 161 195 27 23 253 36 117 148 249 204 180 140 75 239 232 177 88 246 186 253 216 234 201 20 118 113 119 133 67 161 184 67 210 207 190 40 71 234 207 8 235 164 84 113 137 6 237 49 183 14 178 234 27 48 17 127 184 77 25 181 25 182 46 43 255 184 84 10 27 141 107 92 92 71 23 225 189 16 22 184 29 195 200 100 135 193 167 140 45 90 18 186 205 11 218 78 202 
224 236 178 153 173 243 67 162 151 249 22 105 218 105 193 86 215 44 16 14 46 55 129 184 14 2 103 46 124 157 95 90 133 88 229 215 114 128 160 87 103 123 200 107 234 222 208 199 227 157 160 0 208 203 156 211 201 21 65 148 195 85 223 44 154 104 28 251 5 28 230 235 109 143 190 127 207 228 153 227 216 117 196 192 83 20 71 19 113 125 49 171 17 105 241 175 174 248 39 100 
133 116 11 43 167 169 72 255 18 141 49 186 103 15 16 69 88 85 104 124 164 158 177 182 241 181 237 143 22 105 34 138 108 206 191 26 233 36 90 89 156 61 22 224 218 66 247 85 18 35 215 25 224 243 27 117 38 243 173 193 22 135 125 21 126 152 45 91 193 23 217 16 187 16 82 205 248 163 74 247 12 78 197 61 177 134 86 197 229 68 39 44 129 101 240 193 94 21 130 130 
29 158 227 33 131 111 116 24 108 216 2 126 195 79 171 239 6 14 183 16 22 48 199 54 14 87 29 67 37 234 86 22 168 30 17 25 247 233 56 43 29 11 141 20 127 5 162 84 58 199 143 9 248 185 45 66 87 39 220 173 90 60 166 232 168 49 54 217 45 183 231 192 29 43 58 210 121 106 81 20 220 1 52 252 147 73 135 153 236 85 212 78 63 195 119 19 101 197 100 241 
122 221 215 36 51 159 169 120 22 167 139 187 71 0 145 107 200 144 114 115 239 65 8 0 141 36 60 255 38 202 141 75 65 156 99 38 223 127 111 190 74 214 101 72 74 9 152 116 95 170 222 89 142 123 250 136 41 14 123 236 233 205 62 220 78 157 140 219 99 115 38 248 13 189 120 31 79 233 213 1 141 59 152 45 86 164 204 65 2 216 218 121 69 130 231 200 109 160 13 231 
98 192 21 197 62 254 209 32 236 118 91 218 136 102 157 105 30 226 200 121 246 134 8 192 21 208 226 211 199 80 126 162 195 159 141 88 120 42 218 47 71 188 240 197 154 116 196 187 208 56 161 209 197 154 177 40 72 104 175 11 192 90 202 15 203 207 74 129 194 231 114 174 199 66 0 105 85 93 224 230 230 228 131 164 137 115 178 198 116 206 14 157 161 131 18 131 150 138 224 153 
198 232 155 58 1 244 9 35 116 231 243 74 113 51 251 173 57 194 132 194 168 155 23 7 226 157 156 247 141 218 245 158 251 37 181 84 39 154 186 217 33 182 109 246 200 236 253 123 44 195 68 84 244 44 118 98 151 173 192 7 177 237 30 145 157 188 144 207 73 173 112 105 207 227 94 218 228 54 68 21 230 129 212 49 254 244 121 166 48 203 98 200 25 246 17 58 141 229 61 193 
248 204 29 191 65 248 253 49 10 94 224 78 117 216 138 115 146 66 141 204 90 162 182 94 184 40 124 12 217 244 116 81 80 254 181 127 237 227 20 83 28 109 43 0 208 1 39 51 189 249 163 46 151 6 134 153 169 78 100 233 221 75 122 211 230 110 111 238 106 226 222 243 141 70 128 100 116 249 229 135 110 54 143 72 133 139 151 94 41 210 187 227 125 223 228 209 157 148 252 27 
131 117 99 223 151 131 181 197 144 202 245 241 138 193 164 186 211 123 128 24 186 127 21 97 90 112 86 88 28 209 222 217 189 217 58 108 34 41 115 198 252 47 172 131 173 66 19 12 196 227 22 71 64 102 234 212 142 45 100 110 40 222 10 185 33 138 71 64 163 54 183 23 170 197 117 12 43 168 209 100 198 231 205 213 145 7 171 73 97 112 239 95 235 128 78 158 213 190 20 76 
11 83 30 17 21 162 97 250 61 166 199 77 206 233 96 196 39 139 4 120 239 117 193 251 75 217 51 221 77 111 211 33 46 78 124 79 223 97 215 220 218 216 225 87 166 163 168 144 198 25 1 189 237 45 190 18 145 49 61 248 72 68 55 140 49 188 70 70 151 215 168 150 88 126 122 21 4 232 222 252 47 215 98 154 19 36 225 250 93 65 183 168 212 120 175 58 64 12 86 156 
149 17 21 50 78 9 233 159 183 169 209 237 42 220 189 227 4 156 201 127 6 122 98 180 251 250 111 244 151 148 139 56 187 115 236 150 16 39 49 253 99 148 80 169 244 203 87 210 56 47 60 231 135 131 238 219 233 21 141 204 214 210 32 255 56 255 48 111 180 244 249 219 64 205 149 9 127 88 22 140 141 147 176 40 227 70 109 84 26 132 67 189 38 61 84 22 252 134 17 7 
