P2
100 100
255
72 61 112 211 190 254 145 52 178 10 133 131 37 211 5 54 120 43 78 191 27 80 68 157 216 94 111 166 245 110 143 38 222 200 58 118 227 53 146 0 104 110 121 246 75 152 30 2 60 24 2 109 245 243 89 203 99 168 158 210 208 127 29 10 87 173 57 238 4 28 127 86 87 148 190 184 88 86 92 176 163 252 169 130 254 191 250 247 94 240 17 133 63 159 183 33 231 104 30 196 
19 155 67 5 81 104 75 215 64 106 155 42 123 172 94 133 238 137 255 16 115 137 33 108 230 114 53 42 86 30 105 217 155 44 135 145 214 196 215 218 194 94 196 90 74 74 166 30 14 204 211 59 247 133 74 243 218 126 32 229 193 204 29 96 228 236 109 223 37 109 235 78 60 206 171 10 153 33 190 247 112 148 75 7 172 178 81 172 247 210 206 137 79 196 207 148 181 34 26 124 
77 126 13 3 78 150 186 35 252 98 24 129 14 55 50 2 114 243 68 37 4 125 134 118 208 106 224 225 74 221 119 206 53 128 16 230 141 73 149 206 158 232 65 73 252 239 139 153 25 254 101 241 144 174 109 187 21 145 153 26 4 132 122 221 174 245 251 102 134 66 21 85 54 32 249 178 170 84 3 149 15 40 176 215 149 171 95 244 17 197 117 222 138 73 111 115 173 2 88 98 
129 243 159 1 55 231 179 234 110 20 170 122 90 32 240 145 235 95 105 181 30 220 91 39 41 186 119 153 120 243 205 87 176 84 244 72 93 175 52 4 228 116 124 65 18 239 238 111 245 75 61 231 232 243 104 196 96 152 86 137 205 118 253 134 218 172 121 228 220 195 126 168 197 125 112 216 82 224 28 75 68 235 191 252 11 223 194 56 172 26 103 56 52 226 154 60 34 160 212 128 
81 121 79 45 178 67 48 228 39 161 78 207 128 168 70 121 13 182 31 16 135 209 108 87 212 128 103 186 209 215 254 151 26 240 207 32 135 215 158 117 159 226 234 9 29 238 0 209 93 18 224 112 32 6 98 23 203 82 70 249 33 1 234 242 58 159 1 205 61 114 203 58 171 8 153 38 105 4 238 119 205 40 26 122 181 77 47 103 98 41 194 117 161 89 18 142 55 6 31 83 
146 187 219 21 75 51 119 162 113 152 193 216 80 183 250 58 145 95 206 23 142 65 124 85 164 214 88 201 145 133 133 136 102 153 19 11 228 248 167 213 28 250 45 178 123 3 163 56 243 75 224 57 113 196 50 31 222 63 8 251 94 98 187 197 162 39 220 41 71 193 193 32 252 40 15 101 81 195 228 25 230 215 102 21 225 125 78 254 8 62 147 26 84 180 125 218 42 54 49 218 
255 204 147 233 154 6 53 86 215 57 6 165 186 172 178 50 146 126 199 233 117 89 91 76 129 119 238 70 165 73 235 48 16 165 143 139 8 190 153 120 237 141 188 170 222 206 55 165 21 123 136 200 255 202 160 135 14 251 214 171 192 161 220 18 212 143 35 216 23 14 44 63 46 200 246 6 163 135 113 63 34 59 37 50 47 118 25 17 143 11 90 57 32 208 85 248 6 45 36 110 
171 130 39 20 240 133 113 28 248 65 92 11 183 137 185 20 37 92 77 171 168 112 183 132 203 19 150 175 112 120 232 25 227 32 0 212 13 124 125 80 238 187 181 185 93 20 141 146 131 202 34 78 138 8 51 202 216 23 117 68 19 70 97 197 14 93 89 176 60 149 254 29 55 81 200 81 102 24 232 136 111 205 125 141 171 136 64 236 243 93 206 116 67 89 161 162 97 50 105 151 
22 40 191 190 157 56 151 138 245 219 179 34 78 92 50 53 27 207 249 85 53 121 169 99 239 170 1 47 1 184 159 148 136 202 231 46 171 243 40 150 21 165 8 47 41 129 14 130 204 71 255 108 225 110 33 95 36 127 181 110 169 208 125 184 94 18 51 107 125 87 50 82 237 194 151 173 168 58 180 121 154 113 131 232 160 22 5 145 227 130 70 11 150 213 250 104 28 0 0 164 
125 11 235 200 70 35 195 177 42 141 29 244 87 138 175 211 102 224 123 80 176 77 12 162 210 27 128 185 195 242 236 172 200 195 35 132 210 171 116 36 235 252 19 44 215 177 169 162 175 113 28 221 38 138 147 22 199 181 156 249 184 243 145 74 96 108 255 176 57 213 54 41 26 220 72 161 12 114 35 25 39 240 9 34 29 54 194 78 36 135 168 63 163 50 55 76 117 98 89 97 
4 79 69 153 22 110 140 58 115 18 134 84 28 182 121 61 136 189 40 18 67 10 11 33 244 168 212 181 118 240 92 56 19 211 193 207 202 253 241 55 56 23 239 90 43 168 194 173 119 117 80 158 221 196 151 152 180 14 175 206 240 227 174 253 230 66 16 33 142 50 223 67 99 191 75 208 65 115 209 97 52 222 141 142 211 92 212 55 250 200 24 59 73 248 25 15 227 160 60 203 
68 237 174 90 79 161 157 151 126 192 214 124 169 111 219 187 131 72 92 90 144 213 150 114 156 120 143 109 106 111 185 127 28 166 232 103 137 140 150 243 14 80 130 40 129 60 46 19 131 77 77 73 234 117 192 248 12 93 155 232 131 182 54 152 193 42 164 55 86 228 240 191 53 148 8 160 126 169 8 238 210 109 140 145 20 133 106 85 192 104 98 188 138 196 242 178 83 233 79 120 
204 211 255 31 253 195 249 178 102 35 177 77 177 217 129 116 212 26 118 233 237 228 3 83 57 107 163 199 47 251 12 151 35 229 21 223 87 34 63 89 47 28 215 89 46 139 215 63 160 129 233 14 196 255 1 35 179 179 201 213 230 10 229 109 18 229 110 170 217 44 175 232 50 134 244 148 168 56 29 219 54 219 25 193 129 167 190 139 147 196 127 24 141 179 185 94 168 112 86 240 
49 134 200 166 82 108 22 150 60 88 87 230 179 154 6 74 91 113 112 78 202 101 85 163 173 100 63 139 66 40 246 205 178 71 100 24 87 159 0 89 15 36 207 186 76 129 151 85 178 249 152 47 159 5 240 120 92 245 216 157 155 244 95 184 178 101 123 109 35 99 187 78 23 159 149 245 143 84 148 1 128 46 126 131 147 109 174 166 162 56 149 69 217 77 205 48 97 87 198 238 
186 152 103 79 254 157 180 35 29 8 126 1 143 55 116 97 228 104 150 136 216 221 62 170 60 192 243 36 210 234 181 59 240 86 70 63 109 228 64 50 120 131 164 13 228 55 50 168 39 156 231 202 211 217 196 61 22 83 55 52 0 221 236 86 94 189 216 115 238 38 184 141 154 33 244 56 82 185 51 169 204 111 171 25 196 195 79 74 44 185 67 98 195 190 161 172 51 58 230 59 
183 203 200 219 132 17 21 98 148 115 81 158 147 21 117 226 159 253 1 22 53 186 185 200 227 140 56 168 120 50 164 106 112 249 231 113 80 15 210 152 43 72 98 178 184 16 5 118 67 217 51 35 4 94 229 214 111 25 73 107 120 38 101 70 35 106 126 18 178 93 251 48 113 39 182 69 174 98 24 166 45 179 149 245 211 100 87 3 142 252 194 6 116 235 225 172 167 139 48 118 
201 122 42 121 46 193 174 43 5 205 167 185 186 190 252 30 155 129 169 187 102 192 106 139 65 132 209 22 141 62 34 165 114 101 125 175 135 57 69 107 243 90 178 181 244 176 75 219 37 196 5 74 108 17 137 239 229 30 190 187 60 164 25 95 55 133 225 108 221 235 228 64 178 89 221 94 195 63 163 92 207 160 60 45 187 7 8 69 105 137 208 181 209 11 223 27 83 248 168 209 
3 113 222 89 135 28 36 139 199 93 151 198 17 170 197 126 33 76 90 112 112 184 255 206 242 147 81 59 14 200 57 47 190 190 143 235 219 38 192 14 118 48 138 31 97 49 107 56 236 192 229 32 180 26 107 78 173 210 228 253 148 144 17 184 0 128 171 114 2 170 124 163 128 14 40 41 24 254 36 19 52 7 117 59 166 204 105 117 104 19 17 117 208 111 56 98 18 189 108 54 
52 252 110 211 72 118 167 143 7 42 153 254 200 47 168 53 110 144 125 192 128 244 69 179 147 87 128 208 47 74 5 84 135 51 78 35 128 93 235 54 197 214 80 68 112 8 115 106 117 100 40 136 251 209 217 51 94 247 219 54 197 39 101 110 74 247 230 12 227 66 31 120 60 147 4 199 174 93 63 229 96 131 88 90 163 211 168 96 133 59 29 106 38 31 177 20 197 49 56 95 
127 32 37 154 217 177 243 23 82 241 48 117 124 145 19 157 139 149 28 192 158 239 24 141 4 153 93 20 117 74 103 177 77 224 164 177 50 219 30 216 45 77 41 213 13 37 146 50 191 72 175 190 110 255 183 79 145 193 5 75 16 249 219 15 103 177 173 216 221 176 133 49 38 209 19 216 216 242 11 61 37 118 205 27 150 122 76 62 66 137 235 187 41 20 35 204 115 161 215 151 
181 99 104 244 148 155 97 184 0 82 25 193 227 84 100 145 61 244 135 244 115 205 73 36 194 134 57 195 125 209 26 252 123 71 205 9 48 24 70 248 96 142 1 117 198 61 244 226 48 118 87 64 166 49 250 145 74 188 95 135 65 74 98 12 110 54 104 115 13 126 94 4 166 233 130 35 28 7 197 185 225 201 91 236 165 198 5 196 221 83 91 246 121 204 201 34 61 251 50 37 
70 11 65 16 187 16 43 190 41 110 55 1 113 45 114 171 78 43 122 62 30 240 20 214 66 194 130 148 12 42 104 145 123 43 61 18 57 121 154 245 93 93 202 114 135 199 149 157 18 204 156 248 219 229 232 223 62 173 134 14 214 183 96 99 31 183 21 87 110 206 215 219 242 78 144 18 246 173 188 250 64 202 181 219 35 234 183 29 214 131 7 189 175 138 193 77 71 113 196 49 
95 167 50 72 163 160 6 148 4 162 31 78 193 231 23 220 23 54 67 143 202 148 37 20 164 5 207 176 96 126 206 106 235 93 129 14 135 182 183 113 169 142 44 64 172 31 104 248 180 47 39 191 164 144 56 209 249 74 181 80 100 185 79 202 131 135 196 183 222 50 108 106 78 191 229 138 15 239 172 3 135 166 240 66 31 43 207 91 243 36 238 52 157 40 100 23 168 206 234 216 
84 52 132 132 232 4 249 194 9 226 51 123 67 125 217 69 254 66 166 93 92 125 42 48 224 154 124 237 118 95 29 92 150 138 19 151 64 236 139 106 232 32 55 23 44 26 4 106 26 188 151 199 241 188 146 213 215 147 177 126 68 84 189 71 163 20 43 170 188 142 7 17 168 14 23 172 221 41 177 41 163 129 152 87 15 250 47 105 22 67 193 136 23 86 247 12 19 158 187 62 
100 226 142 31 181 161 136 9 174 166 218 154 180 47 162 7 111 94 34 125 128 43 66 39 163 134 11 217 82 155 54 78 152 128 16 235 1 232 227 10 186 135 245 131 212 16 88 83 83 231 237 147 94 255 245 194 157 117 16 67 157 218 101 118 28 132 173 39 208 1 59 49 61 100 234 216 5 56 49 113 73 200 136 25 101 98 179 18 71 201 241 188 164 133 149 54 122 30 19 27 
200 168 7 37 115 45 155 16 192 179 84 134 105 103 8 188 9 176 109 67 217 72 72 15 22 209 125 144 135 186 179 237 250 123 189 114 157 199 34 141 220 129 6 156 181 139 93 231 0 121 152 142 172 211 78 47 64 221 72 255 54 175 241 93 186 233 100 39 39 2 81 45 245 105 17 201 50 43 199 172 111 110 10 70 219 217 211 101 247 45 55 122 236 61 105 163 255 223 180 126 
105 122 87 50 193 221 52 224 148 82 246 183 21 70 144 252 165 23 210 53 7 131 213 6 239 171 227 183 187 45 10 35 139 203 251 66 162 96 220 103 27 254 169 192 15 233 61 115 214 3 131 1 208 210 177 174 246 244 231 42 173 23 42 127 135 187 1 211 65 17 67 251 38 213 194 201 41 24 199 147 112 127 32 187 164 39 23 104 155 152 238 209 51 12 180 77 255 10 233 232 
158 198 26 164 255 239 151 142 190 0 152 50 252 201 54 27 59 160 177 45 131 116 189 155 134 179 50 113 100 249 244 71 199 143 53 116 94 28 245 115 184 194 248 168 162 22 165 197 184 203 107 195 206 139 26 227 27 142 144 9 230 200 175 231 181 162 187 106 76 65 207 133 144 222 100 241 85 50 160 41 141 68 119 17 151 246 215 172 169 251 43 30 109 181 36 214 153 35 12 183 
176 60 171 63 186 89 249 185 202 65 180 8 32 15 94 66 56 64 188 26 138 129 148 27 73 65 158 16 239 188 137 9 118 22 20 205 132 107 130 11 176 40 81 233 20 226 53 149 75 16 120 220 228 22 118 57 182 213 186 144 225 239 240 56 145 239 46 63 100 232 36 249 250 30 188 213 159 23 200 166 216 184 203 63 157 114 94 240 216 231 176 99 16 30 132 124 0 0 146 195 
129 100 95 130 145 83 67 181 95 102 106 98 194 151 219 34 101 140 15 149 199 147 176 76 4 196 220 8 245 216 47 4 132 109 75 37 145 51 232 90 124 126 146 85 248 93 103 5 141 122 134 228 116 33 192 139 75 85 149 3 247 253 53 34 117 241 97 215 255 133 254 9 228 133 93 251 127 213 68 173 94 235 103 98 228 117 29 52 63 141 134 18 171 227 8 154 21 46 193 61 
33 60 101 223 106 81 199 57 79 38 210 141 186 245 209 91 124 219 99 98 3 181 157 79 92 140 146 144 40 51 98 96 169 30 221 244 228 28 74 174 240 37 78 152 49 225 211 187 145 16 188 51 26 35 157 250 241 126 193 27 89 208 55 207 103 229 213 169 112 131 218 228 121 213 24 47 164 114 254 130 4 32 208 43 80 46 226 175 15 179 116 21 215 122 112 228 71 208 140 230 
102 66 106 118 90 67 197 15 186 142 76 43 224 133 197 174 119 192 125 155 46 121 151 63 127 113 167 201 133 11 128 136 239 187 240 170 123 141 212 20 44 165 186 182 66 22 28 164 103 185 44 226 130 11 243 84 207 172 116 82 32 211 4 182 159 5 55 26 208 138 68 56 128 56 152 12 170 39 254 148 150 48 98 15 3 89 141 21 165 227 103 144 216 113 97 160 157 35 192 69 
191 153 176 157 206 174 224 75 149 67 139 31 3 170 106 216 107 7 170 31 42 201 211 43 98 101 15 55 111 243 25 5 183 140 111 44 250 132 25 68 44 93 196 195 243 73 205 91 185 231 53 138 161 216 132 193 145 25 36 85 21 153 60 196 115 32 127 109 66 11 9 151 53 224 8 61 171 76 96 2 140 181 89 127 189 114 123 200 45 41 177 140 103 242 58 202 244 96 35 61 
133 245 156 51 145 247 138 84 211 180 136 83 201 17 185 34 158 178 93 19 63 21 6 67 172 249 126 242 13 225 167 69 170 85 151 17 64 192 228 13 188 83 167 18 107 68 154 24 177 212 242 236 24 158 198 2 244 126 239 218 80 157 201 25 133 202 182 15 183 127 248 110 28 156 59 15 180 120 249 172 145 46 42 121 253 1 154 213 179 59 178 209 220 45 64 184 43 233 65 185 
192 25 227 29 115 188 245 147 75 203 99 168 139 11 240 76 209 106 34 11 54 42 233 111 245 219 17 183 246 217 54 37 152 221 107 194 197 190 168 171 159 102 25 75 242 218 7 136 219 68 150 226 232 23 246 81 117 66 165 158 235 69 5 58 217 147 132 188 226 94 140 140 156 167 48 36 39 251 166 213 236 53 248 77 195 166 246 105 56 250 75 254 237 47 251 52 255 158 2 110 
61 79 151 63 94 226 87 175 240 9 82 64 156 176 215 55 163 230 228 71 140 120 107 61 52 114 227 235 94 84 226 151 191 40 21 217 143 235 182 169 254 38 221 48 9 26 133 80 143 168 101 167 82 53 234 129 254 79 30 33 127 46 143 168 239 242 249 219 205 117 174 225 196 231 234 139 159 72 91 23 159 1 32 85 128 224 39 223 122 195 119 29 131 123 207 206 78 44 234 1 
146 5 43 220 1 178 250 234 132 174 109 148 182 105 120 47 219 194 5 104 128 221 71 100 39 119 238 246 222 93 101 180 231 144 192 14 90 211 39 185 65 118 53 117 223 217 41 112 146 31 100 209 73 13 128 96 126 67 56 252 20 251 45 86 121 66 210 35 94 213 123 196 240 128 65 20 79 81 209 117 1 14 9 124 138 143 24 8 116 35 154 236 137 199 38 187 20 119 163 84 
35 113 175 203 119 47 74 95 214 173 138 226 3 186 145 99 194 160 28 31 18 88 238 178 76 221 190 192 225 208 0 97 41 65 213 199 226 177 158 233 200 89 229 138 160 223 53 69 23 128 5 67 55 53 22 42 128 171 96 72 145 244 127 32 114 108 20 122 132 170 127 197 182 49 110 223 255 215 27 61 142 147 148 15 201 230 191 199 246 172 212 18 34 107 17 56 100 243 138 123 
50 18 29 46 121 80 185 66 19 47 79 161 165 212 111 82 82 248 110 36 159 145 75 145 7 169 205 1 102 124 59 247 102 215 172 110 37 227 171 127 180 226 59 149 28 144 211 124 126 67 115 75 7 96 19 105 87 154 254 156 73 155 114 17 148 174 57 17 144 52 44 154 136 155 227 16 85 235 138 194 11 26 94 99 251 172 164 110 194 220 192 47 255 89 11 66 168 90 150 45 
214 154 172 55 116 139 170 163 242 205 55 41 49 46 20 198 87 51 106 64 11 120 235 171 148 108 58 40 249 42 57 51 118 104 189 187 40 232 2 56 18 208 155 108 109 55 120 62 89 116 248 2 135 168 186 204 233 134 37 172 138 236 107 209 29 213 45 227 60 135 166 2 231 110 170 224 233 74 61 117 121 126 255 19 59 71 214 88 85 163 214 56 139 18 100 42 107 59 8 196 
131 40 120 85 214 31 48 76 187 249 19 174 194 185 92 230 138 88 73 1 51 250 169 142 71 237 115 203 150 99 255 61 98 236 234 12 42 35 137 79 120 137 214 150 116 90 204 239 251 253 233 254 175 185 198 121 86 174 53 127 77 31 14 121 106 212 0 27 80 166 42 113 86 178 57 144 80 191 134 233 244 27 22 25 250 235 88 83 117 129 144 12 76 227 10 169 182 239 132 7 
3 76 208 233 69 91 13 145 6 123 182 121 254 6 45 15 35 49 187 255 80 182 233 180 91 51 91 140 126 96 38 184 56 191 186 205 216 113 33 143 222 63 190 85 124 62 114 226 222 34 218 103 33 103 186 148 6 252 180 101 121 222 115 181 101 48 239 51 132 51 194 219 220 130 228 113 28 176 250 37 9 98 204 33 207 192 144 135 195 98 196 99 70 10 192 175 4 0 182 42 
161 198 67 218 215 234 66 8 89 234 71 9 13 100 58 117 171 130 60 186 52 239 119 172 229 165 142 79 138 124 169 82 56 145 76 25 253 140 85 4 105 125 39 42 134 12 110 130 75 173 143 80 169 8 133 240 166 76 6 182 191 80 244 188 5 6 0 154 13 203 183 254 239 17 108 233 132 185 174 96 204 152 138 245 96 36 160 169 233 246 237 160 52 21 148 175 228 208 209 115 
209 210 16 166 48 107 243 23 39 248 166 43 54 32 115 101 55 3 101 29 101 231 148 126 139 86 41 236 7 193 65 33 255 222 74 217 92 190 184 89 38 225 183 141 149 71 198 95 150 96 93 41 23 243 36 49 201 81 40 57 224 101 43 202 185 122 43 30 128 137 21 37 54 123 234 34 162 251 141 39 178 245 33 0 122 204 155 62 159 202 175 101 213 171 185 210 102 13 166 41 
61 181 234 153 205 116 12 93 31 98 243 19 84 226 85 247 248 133 232 215 231 30 24 32 160 222 180 209 203 200 94 187 208 84 67 24 62 204 40 163 161 22 2 195 196 70 253 105 220 237 218 220 185 95 236 147 2 76 199 109 17 88 178 6 209 202 232 151 68 66 138 84 154 242 241 192 132 19 12 149 13 98 116 233 50 68 176 211 85 29 28 254 81 49 204 184 212 117 74 207 
36 107 71 117 242 155 89 7 66 23 123 16 81 172 64 164 143 27 165 45 50 79 97 108 228 249 149 175 4 238 105 208 173 83 160 220 194 249 141 198 26 175 170 22 72 228 220 33 114 100 237 24 92 121 65 228 26 29 33 195 215 67 73 112 150 224 129 178 82 39 167 206 115 180 175 202 210 60 12 79 124 202 16 247 146 82 156 194 34 129 114 22 99 76 193 240 33 67 16 245 
3 84 92 157 127 51 78 112 34 190 95 144 162 38 134 185 14 164 35 20 110 53 96 137 186 111 172 219 48 205 119 78 69 49 109 17 37 205 71 152 253 32 232 60 112 65 182 39 158 83 147 139 89 56 83 206 195 21 169 16 78 33 42 121 137 152 197 251 178 30 225 153 136 255 44 15 168 123 196 176 82 182 87 185 2 203 13 222 239 207 154 53 91 42 168 215 17 160 174 68 
78 173 8 219 26 55 5 70 219 32 161 148 109 130 124 120 135 43 96 22 145 174 192 108 203 175 191 141 34 226 160 210 102 61 225 80 178 17 16 32 63 104 135 36 100 20 4 5 60 109 138 68 134 43 97 40 198 87 51 45 168 79 137 8 68 59 191 157 83 164 217 132 114 171 25 130 154 39 250 165 184 243 193 149 45 245 134 253 4 37 40 235 238 7 153 18 185 100 198 176 
50 119 45 86 11 50 183 9 209 220 213 179 111 138 72 43 152 254 87 3 205 95 17 223 56 158 23 247 176 222 62 53 128 175 123 153 191 237 173 48 237 218 158 48 139 184 69 67 20 11 209 195 119 86 240 84 187 6 242 252 251 183 212 254 92 22 6 41 27 235 220 98 90 22 211 6 97 150 73 201 204 21 227 7 205 132 225 153 13 155 172 46 115 34 4 251 228 253 129 77 
255 62 214 86 225 250 227 39 146 17 45 63 193 59 206 92 216 88 237 139 152 138 173 143 110 88 31 110 87 23 194 180 19 139 237 102 32 155 127 113 115 33 38 26 4 1 15 209 204 208 25 102 230 223 28 243 49 251 163 225 196 61 252 73 138 239 32 38 141 151 205 140 76 81 94 11 8 3 126 181 23 60 35 239 167 32 206 148 30 16 200 67 140 109 205 53 191 237 190 41 
204 124 4 221 236 169 17 37 109 154 46 16 61 4 168 240 207 87 159 244 31 243 200 68 9 188 162 18 25 187 139 23 195 192 63 110 27 74 14 38 248 109 254 246 40 189 51 99 56 85 67 185 217 202 218 254 60 156 86 113 132 190 129 72 15 195 217 230 151 211 149 158 166 33 51 15 210 209 197 14 228 85 196 126 223 1 234 60 151 51 200 46 159 26 206 134 153 180 55 226 
248 162 249 204 137 43 255 200 204 76 203 196 176 44 120 57 131 39 249 230 197 240 190 164 242 23 48 241 30 26 80 189 73 46 160 37 132 63 42 254 193 113 104 5 206 106 22 143 173 203 100 67 18 35 70 60 92 61 164 149 156 220 57 235 219 26 196 198 39 121 97 254 111 124 233 4 181 228 156 76 164 220 240 193 237 212 174 8 112 191 222 135 186 60 111 73 149 109 190 187 
111 123 186 220 136 95 49 90 134 48 34 100 38 29 173 174 238 25 111 122 239 152 249 20 98 101 30 156 214 180 94 174 245 126 168 250 195 19 226 224 0 235 174 136 111 72 30 50 188 111 235 1 15 248 217 169 87 95 94 4 152 203 71 204 233 185 145 95 218 57 32 83 146 0 18 141 156 74 92 164 171 107 209 239 159 253 175 239 221 188 22 141 121 138 71 37 110 206 211 126 
211 84 134 95 42 13 104 163 63 134 7 48 232 172 209 145 207 229 246 0 38 43 80 48 87 133 72 31 233 50 244 199 237 44 130 147 227 213 54 143 59 134 128 56 134 233 92 158 55 15 42 196 90 201 126 115 194 146 70 48 133 162 235 194 247 42 58 175 149 0 144 55 169 182 29 62 206 42 187 221 227 7 47 102 204 250 213 223 252 21 145 107 251 67 240 64 168 99 156 236 
204 21 199 186 90 86 245 229 205 159 31 118 90 79 132 149 71 38 43 19 222 25 154 204 174 9 158 232 227 85 113 14 129 78 216 193 223 192 71 244 123 74 153 240 254 213 128 226 23 39 169 26 155 180 56 132 66 24 18 66 53 4 199 214 187 53 178 129 60 238 4 167 81 152 142 46 238 58 212 235 220 197 132 82 242 221 179 46 243 123 0 40 5 126 34 22 194 91 63 196 
112 119 51 63 238 99 71 68 208 230 34 233 157 180 14 147 19 45 189 51 58 117 129 189 141 2 96 59 138 254 154 187 107 111 170 79 196 54 172 63 73 249 209 26 159 24 27 41 218 3 120 14 205 244 104 180 8 48 162 170 51 245 224 238 2 72 114 243 71 229 179 193 190 150 207 231 255 60 159 201 232 215 63 176 95 216 213 190 126 95 41 90 86 224 177 245 171 91 155 247 
235 128 163 140 168 205 168 242 239 86 249 69 64 204 93 23 201 93 156 212 31 27 225 174 104 112 183 131 30 69 239 107 24 26 59 60 102 127 148 179 20 57 62 140 74 109 190 221 131 164 42 191 46 65 82 158 168 82 226 179 152 193 247 246 158 47 86 5 119 146 174 148 216 223 220 53 135 126 82 48 95 237 60 136 172 125 105 34 19 163 117 93 197 115 104 251 206 206 204 58 
17 230 41 139 207 64 179 63 226 163 128 232 206 20 87 238 238 212 142 117 187 127 245 224 133 62 25 245 234 187 185 82 206 208 97 82 122 179 21 209 7 23 90 185 117 88 195 200 55 62 138 176 134 233 32 242 198 99 251 246 18 218 92 12 232 175 230 210 164 198 233 66 18 78 48 149 228 41 216 246 169 252 110 137 205 76 233 184 135 82 250 124 145 249 109 144 191 8 123 198 
13 21 34 194 126 109 72 53 204 112 177 94 110 57 3 166 168 30 96 251 140 145 43 105 129 91 147 164 103 251 141 178 252 72 44 140 121 89 41 38 128 55 207 140 52 75 255 213 250 22 38 41 236 133 58 191 126 88 130 203 246 248 170 40 254 221 100 34 94 247 44 224 112 219 192 200 153 161 94 210 12 224 72 128 37 63 21 173 233 218 147 98 222 49 17 251 37 155 255 154 
112 114 156 133 27 194 178 99 96 144 68 143 129 88 145 143 37 67 186 101 157 240 179 50 88 226 21 72 222 231 178 209 30 136 2 37 126 31 95 60 125 242 206 88 180 21 68 117 225 94 197 144 168 37 61 252 15 227 120 128 171 186 69 36 61 77 37 156 252 181 249 246 0 205 19 147 167 140 182 4 217 143 69 42 126 77 231 27 240 249 61 86 204 58 254 225 107 121 53 70 
14 27 28 146 86 174 143 121 59 48 213 211 190 75 137 27 5 95 183 209 209 41 206 213 226 210 36 94 97 240 78 214 222 231 202 114 71 160 162 198 193 190 29 63 122 162 228 69 36 106 136 97 161 135 149 254 134 184 7 205 57 222 230 220 244 26 245 116 70 199 161 221 230 179 186 197 242 244 156 15 189 235 95 35 11 69 226 124 116 34 68 253 97 233 115 98 215 101 166 195 
159 199 4 123 249 224 47 23 104 169 73 47 254 94 213 131 179 175 102 76 132 191 89 48 94 33 253 206 196 180 56 200 104 142 128 43 218 2 77 235 227 168 143 197 218 235 59 241 38 140 106 145 91 225 241 234 150 148 244 146 90 15 133 205 230 139 73 244 48 102 92 255 96 220 163 140 133 201 224 106 18 209 228 147 85 187 191 31 41 187 218 155 221 48 67 248 24 11 132 225 
242 244 238 143 14 71 176 73 35 143 215 149 22 99 54 49 100 226 12 221 33 161 4 129 13 91 131 54 135 211 200 187 26 88 216 203 103 51 234 64 242 168 86 162 45 173 112 249 121 137 239 84 2 193 16 215 225 136 158 117 174 29 98 41 69 38 4 64 218 9 148 93 122 220 221 55 194 208 41 29 9 255 113 19 221 43 234 115 43 126 37 117 73 242 44 103 126 102 31 105 
211 247 45 173 78 37 175 107 215 32 223 173 134 113 7 54 231 249 32 99 131 180 159 243 68 138 254 167 46 130 210 134 86 169 129 232 9 7 60 158 254 180 215 45 4 152 14 221 190 40 42 117 219 63 126 199 186 150 244 220 254 138 136 192 25 108 156 227 124 34 45 196 221 244 126 147 99 152 35 148 206 188 17 23 80 188 69 213 254 124 80 237 139 69 49 29 86 172 233 59 
190 131 163 81 53 203 246 16 217 68 89 102 64 12 213 205 184 170 61 16 144 228 239 2 188 195 148 48 79 235 146 87 70 158 116 247 46 189 217 123 75 132 109 61 150 51 70 26 193 5 195 206 220 56 16 255 187 32 51 87 175 175 113 191 232 243 33 198 45 217 255 144 21 38 36 148 49 57 133 223 76 74 186 69 45 82 234 230 239 246 83 178 240 49 78 57 135 226 155 51 
130 119 63 24 79 170 145 109 220 13 37 186 142 240 38 151 114 133 243 39 63 146 141 121 30 169 54 128 109 96 31 134 182 86 4 166 1 146 32 218 71 191 125 11 51 179 165 240 172 20 145 203 6 76 78 203 99 165 184 164 73 159 163 77 228 32 86 44 139 189 134 176 185 199 175 192 72 4 119 185 16 199 120 46 171 120 218 53 86 145 18 216 254 162 22 98 201 148 147 68 
15 199 180 87 87 57 199 243 145 21 238 84 62 55 85 34 116 26 32 50 207 183 134 54 153 27 31 117 149 43 115 140 230 204 50 145 119 175 80 68 152 108 16 220 76 99 57 81 134 249 59 214 146 243 133 157 91 142 146 11 145 18 234 250 216 49 30 115 51 127 16 217 194 69 94 56 7 187 31 251 251 29 71 200 28 6 165 237 76 49 173 154 57 149 15 251 226 57 27 123 
25 139 59 238 0 57 233 5 250 92 6 119 34 67 120 145 64 183 64 228 29 51 31 140 138 104 207 162 58 34 4 89 83 230 187 30 36 236 8 106 65 90 144 36 66 10 54 232 103 17 188 247 180 186 38 252 63 124 8 161 189 164 40 119 18 252 169 198 158 33 82 172 135 116 46 140 249 247 24 164 217 142 202 46 104 243 179 216 220 129 175 194 110 145 9 74 178 13 240 126 
223 130 235 221 182 64 29 70 196 7 53 26 61 234 117 19 195 144 23 47 1 164 55 117 218 189 172 17 73 188 223 199 239 83 57 26 131 35 120 194 191 87 98 12 67 173 240 124 254 77 6 231 204 69 46 42 186 89 95 59 231 235 203 86 215 79 238 8 255 120 17 107 94 35 56 188 223 191 100 159 135 130 254 32 144 178 70 93 3 155 217 213 182 77 202 163 135 69 228 161 
130 128 211 244 21 68 59 32 198 70 195 212 167 29 94 131 200 114 157 103 60 126 30 181 235 172 219 145 40 33 160 30 106 173 192 88 59 136 24 26 34 207 246 118 243 164 129 59 23 128 166 129 116 230 177 196 131 49 75 49 118 51 172 240 232 176 91 156 216 63 89 198 216 214 81 124 162 51 85 140 93 168 241 94 223 188 193 177 222 130 169 122 119 217 87 15 53 99 27 160 
2 153 7 68 252 31 77 19 246 232 151 162 44 74 29 1 83 160 37 181 98 161 29 192 84 123 15 59 181 25 69 19 230 254 118 249 210 83 7 205 83 228 162 165 230 66 189 40 34 24 28 68 34 163 148 87 193 219 166 76 134 18 192 82 31 53 175 29 170 80 73 55 139 244 179 90 48 151 193 46 53 243 106 126 85 3 253 46 171 231 133 197 66 88 122 202 77 248 47 34 
185 30 192 110 228 38 156 215 8 219 46 124 147 88 9 248 147 115 20 244 115 32 48 160 165 171 176 246 202 178 247 214 226 125 103 219 252 97 98 239 12 178 142 0 248 64 32 237 9 195 30 239 217 230 59 119 30 192 11 73 143 39 250 105 172 110 1 189 45 173 21 82 53 28 91 188 60 247 44 76 178 112 97 109 65 125 247 189 107 148 115 131 20 237 128 97 159 210 238 164 
89 111 97 108 213 56 227 18 147 75 150 143 105 103 176 120 255 245 227 81 219 195 14 15 182 146 137 111 207 104 25 243 149 240 26 224 212 147 159 8 229 74 115 191 11 117 106 164 237 72 201 124 18 249 174 145 69 15 114 209 0 196 7 124 252 188 222 16 123 89 163 222 104 8 20 81 79 78 24 240 231 75 146 242 11 115 131 173 159 68 99 74 177 212 218 149 87 63 54 56 
214 126 131 230 121 124 216 245 108 36 249 59 1 243 24 66 8 55 123 169 252 38 65 96 38 84 197 46 238 77 109 33 207 204 82 133 21 136 127 84 34 202 16 103 85 135 135 22 177 101 225 98 237 220 132 230 61 122 176 103 113 33 77 11 247 228 165 227 7 250 47 15 123 97 23 236 207 31 212 142 114 142 43 66 17 10 130 42 67 50 129 41 46 31 47 166 13 93 66 91 
8 90 30 217 117 61 194 39 11 142 45 129 86 235 155 41 249 224 205 4 49 156 54 82 148 20 84 199 7 9 211 166 135 87 9 206 248 225 252 70 106 1 5 205 180 11 127 16 196 227 82 0 180 22 128 244 164 70 214 225 35 53 183 177 243 87 181 172 106 207 108 182 141 63 207 74 247 57 191 179 113 86 15 55 237 35 73 43 41 23 160 184 209 141 126 82 189 110 9 178 
130 102 205 200 160 39 188 141 132 239 198 161 215 250 166 233 127 47 166 159 131 35 50 150 95 29 87 215 197 149 220 186 161 66 95 246 100 19 216 234 146 139 77 240 1 179 243 142 10 8 247 3 117 9 114 74 173 92 129 153 61 236 179 111 207 53 47 78 53 100 39 220 223 87 107 253 174 164 4 92 203 152 250 185 62 9 23 199 108 103 149 154 2 246 190 193 184 13 153 106 
41 59 222 24 244 165 54 25 214 6 164 72 114 48 150 224 96 192 190 91 119 24 70 234 145 159 15 233 68 152 74 43 207 198 156 146 4 50 241 97 74 12 138 109 183 234 114 164 90 14 94 207 34 56 63 237 55 90 208 7 238 194 33 219 75 254 95 187 29 12 242 235 252 40 157 149 104 171 172 86 54 85 98 98 111 134 121 144 66 155 30 183 18 59 236 227 148 181 104 98 
97 139 173 110 132 174 19 152 41 45 38 210 9 237 147 249 65 89 18 203 166 170 116 223 42 72 50 106 1 245 165 113 47 164 120 35 50 54 250 59 39 171 139 172 190 156 37 244 46 85 225 154 210 235 170 114 190 221 134 146 61 201 161 210 121 249 123 230 198 181 172 147 97 194 223 231 111 132 156 119 29 187 129 96 156 121 144 105 245 172 9 121 155 49 151 111 223 62 145 62 
67 68 149 195 140 7 107 242 78 13 4 160 174 213 56 24 119 111 204 101 186 22 75 49 31 1 67 198 102 214 48 39 175 57 112 188 6 210 244 54 174 184 130 126 6 102 65 10 95 198 87 36 168 33 72 2 127 250 239 180 64 50 211 169 38 57 71 73 119 76 207 6 116 149 11 252 68 3 103 42 86 45 169 79 110 70 236 183 104 189 173 170 27 209 236 161 152 75 54 235 
13 245 21 112 117 81 224 104 154 117 202 178 6 163 99 109 47 225 50 231 23 159 99 194 203 73 192 232 44 46 202 27 249 36 215 150 113 198 84 187 242 228 11 252 48 196 239 147 168 183 188 218 230 91 221 214 230 111 236 72 227 141 35 133 245 236 242 150 108 73 106 243 155 15 104 162 76 177 81 48 51 86 219 74 160 56 245 5 105 253 230 41 218 143 171 154 151 92 175 173 
101 66 60 69 73 106 243 213 161 72 92 66 53 61 102 58 26 233 119 58 42 149 40 3 18 145 54 35 154 9 251 204 159 130 37 237 23 233 163 29 178 221 73 126 79 109 123 151 0 22 133 119 177 46 116 175 105 202 123 76 41 57 135 75 93 182 162 183 72 9 183 89 183 54 248 37 125 10 94 32 180 40 205 66 91 138 101 128 67 158 141 184 153 185 169 187 96 102 101 173 
164 153 68 118 244 164 146 79 145 20 47 165 147 51 58 154 99 4 151 143 20 32 143 59 192 151 17 126 169 65 161 207 225 154 214 15 156 232 208 225 11 105 93 195 102 90 219 169 216 60 253 128 180 148 68 168 110 70 248 164 198 106 215 110 251 139 26 207 1 177 204 234 31 210 165 174 221 77 171 170 87 193 6 151 71 165 157 49 62 100 236 51 7 249 228 237 2 251 57 217 
235 224 66 222 46 96 173 196 82 245 22 129 127 160 190 195 182 97 228 101 26 127 28 31 86 158 126 197 75 255 101 106 110 26 252 185 61 199 80 42 16 150 196 23 175 135 97 21 97 87 224 116 163 44 133 46 66 46 250 40 68 142 37 226 161 176 115 100 6 13 237 68 200 122 63 5 167 170 20 68 203 13 113 83 10 133 81 39 234 1 51 23 197 41 240 206 5 45 77 192 
50 57 191 141 64 3 170 28 193 126 160 132 141 207 92 1 101 171 38 244 248 244 143 233 90 55 199 13 101 230 47 107 108 243 222 239 9 0 176 31 184 110 156 225 207 25 161 137 111 236 88 178 146 21 159 236 168 163 38 62 250 93 189 254 180 239 57 206 112 201 89 194 209 137 154 36 96 134 146 224 56 162 239 138 203 179 63 20 154 120 108 60 13 23 105 138 101 191 227 213 
15 108 92 27 201 219 76 224 219 157 30 33 162 131 7 44 217 218 75 156 30 94 109 210 51 46 155 117 228 184 214 250 106 0 16 245 83 228 99 200 69 179 51 143 203 47 203 168 53 31 241 43 10 220 52 113 124 202 61 89 170 206 67 74 63 129 189 59 198 177 133 166 126 74 129 238 136 38 59 176 254 107 222 234 198 48 189 203 152 228 244 147 130 240 121 2 62 67 76 211 
59 105 142 44 124 10 229 201 35 191 42 131 196 231 0 221 102 40 26 126 223 10 158 183 222 17 28 146 144 11 43 123 151 182 137 53 94 25 180 67 98 158 85 146 94 33 10 195 97 111 245 75 233 128 71 112 65 219 49 128 123 56 120 71 44 27 234 0 123 199 123 62 173 97 124 34 21 138 13 222 121 88 90 46 194 135 212 190 234 221 142 200 188 128 2 157 241 24 58 36 
53 30 54 99 138 224 79 188 17 162 55 192 160 208 54 151 189 123 141 222 19 52 29 239 44 159 99 143 197 180 157 1 213 125 101 219 77 246 251 201 225 121 158 3 215 222 234 139 124 112 17 100 69 59 20 7 21 153 154 10 220 125 140 3 177 115 113 88 201 234 61 216 57 164 238 100 210 249 52 123 177 85 145 219 59 201 98 129 58 197 15 148 246 180 136 210 214 198 48 195 
39 38 125 6 136 232 84 121 45 165 73 79 11 196 112 115 55 12 79 79 157 227 60 63 199 8 49 180 184 189 13 50 197 36 171 254 21 155 113 242 28 86 239 22 167 69 181 108 28 75 65 141 192 186 91 137 63 91 32 198 14 92 79 235 176 124 71 16 14 13 131 166 149 197 206 244 253 106 42 85 48 115 196 191 21 138 124 253 30 69 205 6 165 80 168 30 196 52 14 218 
112 153 88 24 255 61 199 70 1 121 165 255 84 144 133 204 77 104 245 131 187 47 82 131 171 219 151 109 160 8 23 247 7 224 34 231 20 89 79 43 123 144 97 5 190 22 97 172 251 216 252 144 151 4 28 17 51 233 158 148 169 69 213 249 139 209 236 101 209 24 229 178 86 81 17 32 251 44 247 151 73 47 130 125 238 202 82 144 107 50 111 190 107 206 166 73 20 232 12 228 
98 28 183 43 173 60 244 183 127 216 21 5 227 183 100 32 225 38 140 46 64 55 203 192 207 226 49 235 19 220 201 104 76 254 102 37 223 165 66 248 105 168 218 231 33 58 117 140 100 189 207 252 145 239 140 238 216 80 58 22 198 71 193 12 123 161 63 48 99 189 57 64 66 9 186 147 25 255 211 52 240 130 146 170 204 78 206 224 80 29 120 180 242 48 140 67 110 21 104 200 
123 62 144 134 24 218 183 87 170 145 214 29 228 187 176 3 60 91 123 175 248 104 20 161 133 162 204 15 166 230 22 66 158 85 104 228 77 145 6 81 231 133 224 227 208 164 175 251 28 247 165 95 156 146 132 251 92 13 44 246 89 90 253 125 43 15 115 254 148 91 191 69 193 102 143 75 150 164 102 55 255 176 87 236 102 247 231 28 209 213 139 160 31 38 7 252 7 94 223 143 
72 105 197 110 172 228 151 82 73 163 163 121 131 99 208 26 143 87 116 145 175 183 10 246 225 8 190 186 244 80 147 60 170 244 229 56 204 99 76 151 21 178 14 161 195 159 29 163 31 94 41 170 189 78 47 174 153 137 127 62 37 69 98 108 251 22 23 241 194 169 15 67 87 251 180 141 59 208 180 44 57 106 19 205 156 85 236 240 100 77 4 101 27 215 69 34 109 204 231 17 
145 169 205 31 46 5 110 200 180 51 88 192 249 38 119 133 82 66 102 41 21 178 171 102 92 245 31 29 250 178 142 66 118 251 18 161 122 108 158 18 182 141 119 143 127 50 33 211 51 13 173 120 56 11 61 88 106 176 8 245 81 206 69 15 16 238 3 37 55 2 248 217 231 1 31 91 13 111 208 193 167 147 170 234 105 16 1 37 204 77 237 58 129 84 246 38 37 156 55 190 
91 22 158 155 150 220 37 73 68 53 84 99 2 138 143 239 166 191 83 42 66 45 132 88 6 29 127 160 88 182 155 213 98 126 160 142 152 0 190 50 15 120 49 170 112 31 111 218 211 206 161 171 238 23 154 88 0 88 252 100 191 116 93 181 227 26 215 11 64 35 17 180 184 175 233 80 205 153 138 112 153 176 232 182 239 41 24 238 82 55 158 207 100 166 106 66 140 32 246 62 
55 58 96 10 78 42 144 248 72 27 233 120 123 195 90 2 85 179 3 80 234 126 108 11 130 164 147 74 212 248 131 42 218 16 100 170 217 81 255 72 164 99 118 223 116 207 97 171 4 152 163 139 144 37 183 196 253 181 216 16 116 145 246 112 187 219 178 213 241 4 197 140 63 109 125 21 44 42 76 235 61 115 176 4 65 19 195 139 148 15 76 103 196 16 183 85 86 45 53 197 
246 97 79 15 47 226 233 65 174 15 194 231 142 41 58 128 176 215 58 88 88 69 14 184 252 136 150 213 108 59 11 236 143 215 194 69 137 189 249 84 190 144 114 169 79 88 251 19 62 199 248 95 23 133 105 212 138 65 41 152 146 220 17 218 186 57 123 144 33 187 206 130 21 248 179 35 188 235 10 168 144 189 66 172 200 128 167 32 41 104 223 25 217 152 210 49 60 43 227 149 
204 71 207 108 55 192 169 151 144 251 15 234 159 200 1 249 94 222 247 33 86 207 34 187 254 82 168 79 219 29 197 171 54 233 206 30 106 159 100 162 132 83 32 251 193 215 92 8 48 206 95 84 29 124 28 12 150 179 61 121 77 81 218 134 16 231 247 127 245 205 196 186 77 185 121 142 10 191 205 131 187 210 184 8 252 255 248 166 75 34 239 13 236 23 126 136 108 20 180 158 
101 220 116 35 94 188 238 62 147 145 236 90 122 62 238 87 22 14 133 218 112 165 53 28 241 60 101 204 248 152 175 87 142 223 30 176 152 217 1 69 63 161 243 223 96 202 50 139 95 160 38 67 143 110 178 123 54 186 152 245 207 74 51 68 226 228 29 132 194 54 197 136 205 82 30 98 36 72 8 27 116 90 58 246 236 35 46 144 255 120 26 56 47 15 101 3 39 103 23 246 
74 222 129 251 129 108 51 183 108 222 12 27 227 162 40 129 123 125 254 186 146 93 89 58 233 2 218 121 126 33 22 93 89 222 126 220 92 15 188 190 63 213 254 212 44 11 179 75 190 79 228 225 137 68 81 176 239 8 124 130 105 255 28 230 92 12 129 242 205 110 217 24 241 47 255 5 159 146 107 34 243 222 31 66 32 232 187 242 219 58 79 100 140 26 71 236 42 161 7 254 
226 91 171 198 28 0 233 160 184 7 79 47 166 115 181 40 83 209 118 189 87 142 214 51 10 144 147 45 214 255 178 114 225 186 242 157 60 41 198 241 108 214 119 133 56 40 108 187 214 74 15 10 92 150 144 26 163 111 45 147 150 216 13 159 110 193 8 84 166 235 138 203 149 151 36 78 13 4 30 212 118 150 251 66 14 72 148 193 252 210 121 241 5 3 41 57 10 200 42 17 
