P2
100 100
255
209 27 194 244 232 71 12 105 153 150 116 137 55 247 73 250 62 0 9 121 48 183 193 30 166 41 86 22 186 150 213 58 205 110 166 229 124 114 236 132 234 91 89 83 141 135 90 18 34 183 13 4 234 176 242 17 226 81 182 187 37 235 175 45 235 247 76 134 29 23 159 13 86 199 72 205 196 66 60 93 177 117 253 146 198 23 12 60 130 131 24 33 71 179 86 222 166 230 191 210 
150 206 226 54 153 93 245 188 135 236 184 10 77 241 116 193 87 23 164 190 209 154 252 234 100 250 3 223 171 76 111 132 135 29 67 64 79 213 32 70 99 105 231 245 137 0 212 121 204 100 113 54 222 12 244 179 100 127 215 47 230 128 19 28 60 235 238 194 38 253 149 246 80 133 168 201 62 206 144 46 132 11 130 165 91 218 247 216 64 124 78 173 67 47 233 159 99 158 172 19 
46 77 124 199 130 195 11 120 214 204 156 0 21 149 14 201 64 186 76 22 158 148 30 224 122 227 12 140 205 248 231 185 171 73 159 215 148 155 6 158 69 238 167 3 196 105 150 183 137 5 65 61 42 117 58 31 57 148 188 166 40 26 93 20 156 63 15 76 160 232 92 228 127 88 233 111 234 134 89 203 76 254 242 124 87 237 67 221 235 241 215 43 110 162 151 117 67 7 94 80 
33 29 183 137 202 107 72 75 184 128 63 158 40 103 53 186 250 223 110 28 155 46 160 140 223 43 39 7 192 241 19 32 132 82 159 29 76 188 250 73 129 181 34 231 69 145 119 227 153 87 191 232 40 234 86 202 102 3 47 174 155 65 130 173 208 214 202 122 208 244 223 147 154 72 103 225 216 100 172 202 178 126 204 253 249 136 8 230 171 249 208 32 11 112 35 240 73 139 87 99 
30 37 111 147 125 103 58 108 153 101 232 224 123 78 0 251 78 12 148 88 86 203 114 236 13 118 214 72 115 255 163 120 197 196 86 196 107 14 81 104 159 153 225 29 14 129 128 209 156 207 240 252 117 132 175 53 98 99 88 129 211 33 42 110 148 80 89 169 139 211 99 209 18 117 31 115 176 196 250 159 235 164 243 100 43 154 7 20 251 248 154 236 216 72 97 218 81 147 80 121 
111 211 242 209 14 254 6 49 174 126 251 229 115 60 35 100 91 83 249 234 66 165 81 84 200 147 183 123 243 70 2 180 220 209 180 79 125 119 140 141 70 241 36 4 233 226 230 212 225 153 231 145 38 119 163 3 242 23 51 61 217 214 238 39 239 195 9 105 179 213 226 175 103 158 249 61 131 224 53 63 92 213 244 156 64 94 190 142 28 163 245 116 250 24 166 14 113 87 199 74 
197 187 32 29 66 188 188 25 43 72 220 245 152 214 80 214 72 157 110 169 105 62 87 44 18 167 58 163 94 118 167 169 225 163 144 102 128 4 83 192 148 219 97 123 13 51 185 117 183 139 112 11 209 245 16 178 127 0 216 27 186 136 37 64 129 132 113 115 133 26 40 10 195 25 17 57 150 21 95 8 75 176 45 199 35 251 71 124 106 226 153 202 22 38 87 189 60 140 243 150 
190 107 48 253 23 96 249 6 86 10 197 33 169 205 48 214 163 62 45 251 169 74 23 130 151 122 65 194 16 44 72 111 148 251 220 48 145 185 67 186 66 241 177 208 16 217 80 231 134 50 185 10 89 52 58 171 210 248 198 111 198 165 204 64 179 74 147 30 167 235 216 137 131 171 118 74 105 37 131 252 54 90 29 146 6 86 78 4 160 241 206 238 84 40 11 36 109 49 63 7 
180 201 226 238 26 187 233 92 250 107 92 113 229 254 203 119 38 90 166 146 128 233 133 37 145 155 147 14 68 15 18 189 180 92 166 88 225 237 196 153 108 151 204 184 179 68 126 234 190 145 195 151 33 45 251 128 165 62 108 56 161 78 126 90 48 224 217 167 34 200 210 46 97 115 240 46 216 14 248 218 116 206 87 129 70 194 199 55 195 238 205 95 139 75 193 46 22 228 237 119 
48 236 68 119 230 233 23 110 252 243 247 38 145 12 227 230 138 104 179 79 53 72 229 200 137 254 112 81 181 175 183 156 18 169 200 176 165 54 143 255 237 132 137 51 248 196 105 15 239 120 192 234 65 134 125 131 139 177 200 189 34 255 19 65 135 11 148 240 17 196 189 192 121 222 189 74 173 206 202 205 53 243 156 109 247 29 146 24 18 255 81 191 99 118 198 24 106 193 130 17 
6 233 55 65 205 87 14 152 134 137 246 63 93 124 97 199 153 93 210 253 240 199 176 206 4 33 192 74 3 227 164 2 91 210 253 189 81 178 104 135 49 96 192 16 65 69 146 215 215 47 128 194 58 216 138 155 178 45 247 229 209 254 65 113 221 57 60 95 37 164 73 86 200 192 245 76 123 226 141 13 226 152 167 145 109 177 44 167 219 41 244 26 147 109 25 24 218 202 215 187 
216 153 118 27 120 140 243 231 190 70 237 251 110 46 68 185 96 243 23 45 210 246 206 83 183 158 182 46 116 194 18 11 93 38 143 36 3 166 188 35 89 57 253 57 80 55 15 64 67 57 158 121 180 250 141 121 241 72 14 226 189 230 8 174 230 254 64 162 111 240 220 85 219 35 62 211 163 183 17 240 136 171 29 251 92 167 141 21 19 136 135 59 165 110 9 101 102 167 149 54 
215 83 63 206 223 160 123 69 68 161 79 140 206 226 73 250 188 171 66 158 254 190 120 72 16 223 124 209 75 59 13 201 49 166 54 195 252 241 108 141 14 84 242 255 76 17 60 59 134 160 189 103 153 253 149 55 104 234 103 216 99 1 150 201 75 129 11 51 133 143 208 202 109 128 42 174 49 112 133 22 113 27 168 53 32 154 173 54 199 164 236 47 36 38 55 67 180 7 169 145 
108 19 187 249 65 176 108 149 142 154 117 127 172 241 162 240 192 221 97 226 122 2 89 68 111 213 5 97 33 229 185 198 75 202 23 132 135 229 252 138 37 189 81 20 201 99 60 131 167 250 111 41 87 204 179 140 240 229 156 7 25 177 133 158 122 54 119 207 197 107 120 194 184 7 11 209 250 105 195 54 176 209 196 195 127 24 52 78 61 227 89 151 28 129 108 117 240 92 246 30 
144 10 59 89 94 45 213 70 77 42 254 77 80 98 7 255 187 222 38 183 77 61 3 127 194 238 148 178 75 138 41 76 150 217 217 126 63 251 69 9 241 162 52 31 176 219 123 248 118 171 182 71 28 112 55 179 178 97 3 117 189 12 0 38 100 205 192 47 24 80 117 114 108 187 146 213 106 96 102 230 32 199 140 27 255 99 155 245 65 251 23 251 219 22 226 210 111 237 13 193 
113 140 179 103 89 18 178 93 239 198 184 99 243 146 157 82 2 189 62 26 25 90 172 125 4 154 44 96 182 182 30 230 251 203 0 185 15 55 135 236 166 82 160 222 211 201 234 177 80 134 184 236 137 123 60 134 83 72 157 79 107 167 91 241 65 2 239 148 214 155 135 158 135 24 109 219 59 97 135 242 206 3 106 32 114 254 93 240 112 246 201 18 176 35 117 221 103 143 153 218 
111 158 137 135 98 60 222 145 165 136 26 207 215 150 64 235 19 9 237 236 240 134 191 182 210 218 231 193 96 15 115 40 92 10 127 191 213 112 95 10 74 134 107 185 92 45 176 208 178 36 60 72 173 140 143 1 86 26 44 147 114 47 76 39 45 21 49 240 238 137 164 35 140 6 213 249 216 99 94 41 120 246 208 39 127 11 137 215 243 218 56 202 97 232 164 237 105 166 207 31 
231 219 42 117 88 120 231 14 65 77 114 36 216 184 50 202 185 246 149 145 90 228 120 0 122 191 216 138 34 39 75 254 72 130 52 91 146 218 98 193 167 119 184 237 183 25 234 141 152 159 216 1 198 93 5 180 136 50 173 253 12 166 128 113 15 36 98 249 46 96 100 76 197 21 46 189 244 233 36 223 191 207 132 60 55 46 103 222 181 107 81 213 200 45 22 117 143 205 210 123 
205 179 181 211 198 39 165 152 193 105 121 224 14 49 241 196 223 147 166 68 176 73 192 134 138 180 100 174 130 200 55 172 42 100 222 92 30 140 137 201 57 27 139 207 106 55 196 142 121 165 59 12 119 76 109 122 59 94 98 164 158 65 246 252 214 38 129 194 193 219 243 243 76 230 189 187 159 245 192 128 112 64 21 247 37 33 154 32 217 202 17 84 189 207 241 186 115 244 38 103 
164 30 196 30 60 132 80 41 33 142 219 120 233 26 71 4 87 241 142 186 180 47 201 184 162 51 49 202 173 60 242 138 199 35 217 116 19 43 131 49 95 51 163 113 167 131 56 175 58 88 41 238 197 205 216 105 240 136 74 183 145 50 222 127 193 175 235 204 236 105 78 184 180 124 7 58 232 227 85 123 159 237 28 143 37 211 49 183 69 117 160 82 13 130 148 102 170 97 152 143 
34 222 36 116 157 36 84 68 248 188 7 241 159 11 184 188 110 247 145 148 94 81 35 123 32 65 169 222 111 140 21 2 50 163 44 55 148 85 121 64 72 234 59 197 50 127 225 176 62 57 30 177 217 40 201 254 79 147 240 184 200 132 171 181 89 220 164 29 75 127 142 84 95 154 57 246 206 192 133 99 153 127 147 3 55 85 158 145 87 80 5 4 25 136 244 202 57 248 206 254 
193 247 201 75 108 42 66 101 201 49 221 181 117 115 119 169 186 230 70 221 251 35 180 237 172 175 15 253 81 14 232 188 105 246 150 190 118 8 227 168 15 218 8 13 67 25 9 14 175 12 37 135 47 104 121 247 84 37 217 15 130 35 138 162 233 132 9 204 94 121 18 221 164 99 224 167 180 51 198 66 153 111 58 221 35 185 59 31 198 237 44 41 137 243 153 85 203 189 117 30 
249 186 10 151 164 89 93 82 210 35 129 235 250 138 234 164 95 215 214 0 92 249 204 254 25 240 43 153 232 149 226 255 183 23 46 143 211 232 227 2 225 73 228 237 103 84 74 195 190 56 45 35 98 211 107 217 172 15 252 222 119 27 36 41 87 120 60 169 132 223 134 170 182 193 190 105 245 105 8 170 62 7 5 92 127 129 29 148 212 87 184 29 132 96 237 44 84 111 205 109 
29 132 159 28 184 134 111 215 247 47 68 139 163 96 20 95 215 170 1 148 140 54 26 178 212 95 170 223 97 156 250 192 152 220 176 125 50 184 18 169 58 65 15 216 224 56 91 65 161 21 236 216 135 53 246 200 211 172 189 2 105 146 148 237 86 216 59 105 3 197 134 144 63 20 248 104 51 227 224 114 36 170 231 44 84 28 188 181 1 212 67 42 153 146 249 218 171 147 167 184 
77 164 196 193 6 61 126 106 135 34 125 125 208 6 60 53 124 31 162 151 125 75 97 130 18 12 102 191 42 168 102 176 126 197 15 182 247 48 250 46 7 134 241 219 93 98 183 191 253 251 218 156 36 158 162 194 201 215 75 28 2 176 20 144 89 158 133 64 94 200 198 9 40 208 80 145 71 155 169 157 165 214 142 203 234 47 93 82 222 209 136 220 149 121 51 113 47 172 203 61 
127 49 234 190 160 205 41 170 175 35 49 156 11 159 252 192 25 150 129 222 19 35 17 226 157 105 196 171 198 91 178 170 5 217 208 161 19 107 168 154 60 164 42 234 30 213 155 237 25 26 82 12 95 223 86 82 26 1 218 212 112 97 186 33 141 85 143 126 211 187 82 161 214 133 12 39 167 252 7 91 27 169 23 189 101 133 147 32 158 10 29 44 154 145 165 62 180 158 96 34 
64 121 153 8 253 56 38 233 72 244 35 51 188 43 228 83 70 207 57 86 129 162 237 122 5 93 65 171 228 135 7 11 6 161 243 38 229 69 217 53 53 129 236 174 53 7 152 13 106 78 193 49 225 247 250 156 94 4 94 116 210 206 95 43 170 121 170 74 170 112 46 175 102 106 1 34 247 242 204 39 216 116 170 33 251 85 57 202 216 188 95 38 175 204 219 48 144 30 222 151 
180 147 242 46 154 212 34 45 93 222 255 251 56 234 214 107 212 105 112 98 89 48 120 219 218 31 126 28 240 241 10 56 178 126 41 219 160 125 38 212 128 22 107 243 214 16 184 157 180 69 254 53 153 239 47 140 226 254 144 118 157 200 64 149 107 44 28 108 13 169 136 242 20 148 183 16 177 191 110 121 151 75 36 175 140 71 205 225 2 254 223 12 207 149 6 241 90 174 76 194 
200 57 194 34 221 154 176 15 115 102 17 79 161 160 152 23 20 209 221 101 179 28 79 193 208 142 17 132 150 27 187 244 121 151 81 197 167 71 202 241 16 255 120 135 243 237 27 229 133 48 58 187 236 119 140 121 148 180 103 51 150 96 107 241 203 180 85 17 71 246 248 228 125 37 171 68 43 62 232 178 106 249 108 87 188 144 200 150 65 235 212 235 86 137 111 1 96 125 65 153 
185 238 224 208 65 48 89 137 117 113 79 18 224 152 210 93 91 225 96 215 64 18 119 111 118 154 113 158 251 198 164 233 242 68 175 217 69 231 46 230 13 7 215 130 156 179 13 94 113 244 17 136 98 74 115 238 46 197 59 195 59 54 6 231 167 59 204 195 157 65 156 96 168 11 41 94 122 51 138 115 243 95 200 133 207 129 216 128 216 200 137 153 8 126 168 33 4 197 242 110 
81 156 127 108 59 37 249 248 19 90 76 215 167 209 242 223 92 16 111 26 126 91 230 220 147 128 170 180 180 147 103 62 247 170 185 155 21 84 2 113 85 55 41 111 135 249 28 242 235 144 26 234 244 252 97 62 112 152 174 216 171 22 157 13 160 64 133 213 183 253 171 8 146 71 167 139 124 52 115 193 228 211 111 235 143 154 113 167 33 97 103 39 23 63 185 248 249 204 47 130 
253 226 48 52 32 238 192 46 174 153 131 227 54 226 48 150 45 204 178 220 226 209 61 96 195 213 200 172 80 43 239 99 148 94 114 225 9 253 37 191 192 157 170 55 132 206 86 43 241 153 32 130 17 205 93 57 207 47 65 179 151 37 216 200 161 200 25 171 177 228 178 28 38 97 242 212 222 237 128 216 70 207 88 42 123 78 102 38 181 16 38 187 250 18 242 169 239 38 58 4 
171 217 204 33 116 80 217 80 101 146 250 126 214 25 176 232 138 216 193 202 75 121 193 99 122 123 11 183 7 29 241 15 29 114 196 164 173 173 161 97 167 33 122 173 71 30 47 1 225 86 248 51 241 71 131 174 178 91 241 147 198 84 203 96 170 108 73 231 58 117 240 67 111 202 160 65 216 144 4 209 53 208 191 165 235 173 30 77 123 145 191 252 103 139 160 83 39 89 156 21 
151 208 145 189 163 55 3 147 54 70 191 129 188 241 126 124 105 174 68 127 239 148 245 87 60 15 162 223 201 240 135 228 192 25 104 216 10 242 249 38 2 104 232 34 167 177 59 136 244 238 216 168 239 91 241 162 55 14 234 33 187 7 83 190 80 235 44 44 89 45 30 20 62 8 228 107 194 253 1 214 81 232 179 166 242 249 101 15 93 122 185 112 42 85 74 67 106 41 216 168 
24 86 230 22 168 39 72 111 185 102 61 152 251 21 198 212 41 102 33 153 29 39 105 191 33 12 67 25 8 31 1 227 94 37 18 137 24 132 159 87 15 206 115 136 187 253 212 144 8 208 196 68 59 1 232 31 55 148 248 111 202 57 27 86 163 91 186 99 36 38 199 217 110 209 114 81 194 254 252 189 206 214 90 193 177 160 200 151 113 227 163 176 118 82 49 116 62 57 235 25 
128 147 139 173 170 217 44 0 134 19 217 59 100 235 66 240 117 77 78 67 202 22 168 199 176 32 46 119 31 34 67 190 132 131 205 205 15 39 198 99 137 169 191 180 78 222 133 110 67 77 73 53 90 210 155 79 171 222 83 180 46 88 40 67 160 151 255 254 23 203 11 187 33 156 20 126 217 30 92 201 237 114 255 232 225 24 85 54 22 75 68 170 108 180 100 82 218 78 242 166 
30 164 36 16 104 116 251 54 115 120 154 185 120 157 80 168 125 198 122 220 91 45 101 82 146 4 250 22 9 52 210 23 164 98 251 116 14 32 59 133 238 5 225 226 155 90 255 14 242 197 201 81 121 60 131 153 125 230 131 182 163 103 201 237 142 133 87 236 112 83 54 69 211 60 146 169 145 71 164 138 140 111 42 140 141 63 166 169 126 87 158 20 26 114 0 217 13 159 156 59 
193 184 251 33 3 124 172 0 104 199 18 2 52 182 6 255 17 85 210 106 184 33 120 113 99 29 81 220 229 176 216 56 155 234 141 7 221 31 83 131 133 239 63 17 31 254 239 139 9 227 81 205 164 139 148 119 206 227 54 32 160 213 78 134 80 81 94 212 112 130 124 230 122 48 133 126 124 41 203 182 209 143 108 2 107 158 189 81 136 93 141 114 19 85 225 202 149 50 154 139 
85 4 25 218 152 221 135 45 75 74 184 74 101 175 137 255 226 162 106 81 208 209 74 127 37 246 251 80 125 54 112 79 56 112 242 87 174 48 90 227 44 126 90 30 199 220 226 38 57 78 116 205 34 206 41 217 194 210 129 222 203 148 196 96 159 29 189 85 109 9 203 191 1 140 53 57 41 63 109 249 32 53 225 182 120 11 189 221 239 79 204 152 194 53 114 80 105 81 60 25 
204 119 26 0 121 122 46 20 219 154 52 27 27 136 227 12 248 24 222 121 227 215 247 9 181 186 24 146 129 147 27 194 147 188 246 79 148 215 119 215 208 4 95 61 60 142 7 120 103 134 234 192 22 144 70 67 125 127 6 220 44 27 188 126 201 228 207 45 183 87 124 25 13 138 23 188 238 96 195 112 187 228 101 251 124 196 228 185 241 36 216 252 54 173 39 229 186 81 35 138 
105 192 216 145 51 239 195 97 207 56 80 114 162 10 124 9 163 191 244 166 106 139 69 35 240 69 85 102 84 246 90 160 37 190 13 87 8 194 218 119 43 189 107 36 131 244 31 88 114 38 246 146 73 52 219 48 156 22 163 218 38 155 157 216 198 72 150 73 121 238 10 7 0 31 46 3 108 96 214 168 212 18 235 160 51 162 112 212 71 174 217 153 210 125 158 43 47 37 154 75 
218 128 89 3 245 192 130 106 102 123 224 253 191 146 6 134 72 187 196 154 185 48 104 171 211 226 110 125 239 199 127 52 73 199 253 12 222 119 113 154 151 184 227 244 229 27 188 69 98 82 249 7 133 118 33 228 28 188 149 180 71 165 207 74 167 144 18 83 71 223 92 79 175 213 113 168 131 250 61 133 189 60 115 172 250 31 218 139 240 60 14 242 181 16 155 126 92 76 250 35 
174 80 127 225 239 121 30 168 173 52 226 37 102 162 61 166 62 224 83 3 221 203 236 152 45 113 147 185 77 127 244 138 225 248 103 165 156 125 32 108 11 19 2 190 242 131 17 62 216 44 116 107 94 83 106 181 242 178 251 120 74 12 35 111 224 97 16 55 209 40 0 202 225 108 198 101 238 207 98 157 115 245 119 177 1 171 244 213 22 42 1 207 33 190 198 114 192 38 18 180 
197 119 221 172 122 31 145 220 114 128 51 225 196 127 75 133 205 97 207 35 151 138 99 41 206 212 147 193 31 121 160 249 65 10 37 58 113 23 204 215 253 148 206 45 185 250 162 208 41 9 182 85 33 161 187 1 118 207 91 130 183 128 195 80 183 51 237 248 54 227 234 232 162 183 21 130 156 24 39 4 133 124 238 47 168 119 25 168 159 3 141 16 130 124 223 132 27 85 66 113 
209 98 27 38 74 57 229 148 248 136 45 150 225 11 197 88 206 43 64 223 221 88 24 73 231 99 238 51 52 204 124 17 130 113 28 84 225 203 206 246 165 15 171 155 150 60 240 184 8 188 228 53 6 125 120 49 116 62 81 204 107 244 207 14 18 233 155 3 135 168 76 244 41 243 12 2 7 230 247 148 235 170 164 142 72 147 132 121 186 127 52 153 35 4 121 213 210 86 177 63 
57 219 4 153 57 166 135 152 20 35 162 231 223 36 210 40 120 156 21 68 126 196 89 40 34 188 113 92 147 73 210 38 140 61 38 206 11 113 37 156 80 140 246 211 89 185 177 102 101 86 108 100 4 208 41 99 75 8 133 73 241 11 106 101 112 186 30 10 171 253 219 108 8 133 112 120 33 255 90 8 199 171 249 242 206 171 38 90 252 76 169 90 59 1 250 238 196 55 204 186 
121 109 188 119 148 31 15 219 246 149 65 66 162 91 120 62 137 231 213 1 165 122 100 167 61 26 115 51 231 38 111 84 150 20 32 90 116 39 30 71 226 170 106 161 216 8 182 178 94 145 61 65 132 56 153 220 96 215 215 146 253 133 15 173 80 92 55 165 115 139 170 50 180 223 153 243 36 78 128 95 232 166 157 165 42 139 175 132 196 239 162 110 183 202 91 76 22 188 46 154 
140 162 164 19 134 22 247 89 53 254 163 52 203 65 192 166 132 78 217 178 69 131 171 56 13 178 223 206 124 194 144 253 60 13 94 186 167 142 230 173 233 74 249 75 124 31 8 10 9 12 170 77 219 25 236 115 61 222 58 26 82 92 130 110 29 197 51 176 179 198 123 42 187 213 186 235 82 107 113 14 48 190 46 50 146 116 61 5 203 136 96 122 194 151 85 32 41 119 75 112 
41 97 225 49 79 200 10 206 36 138 178 25 80 172 63 61 78 14 100 86 250 63 73 116 197 171 152 50 221 60 209 234 235 242 40 248 234 59 121 131 108 89 147 2 181 240 43 50 231 29 212 196 105 246 196 121 38 203 132 28 210 244 69 92 124 34 194 87 48 176 62 28 233 3 173 161 156 19 82 211 186 105 111 86 201 27 60 102 72 172 221 90 246 61 244 25 77 156 144 163 
156 171 30 112 133 215 208 97 193 152 27 99 143 147 136 207 26 215 79 95 55 13 98 43 190 55 54 55 29 94 114 155 110 33 113 135 30 58 101 211 195 31 174 244 127 182 216 33 103 58 66 254 71 134 23 89 80 143 138 245 157 165 119 119 36 67 33 176 18 57 23 2 145 79 160 241 177 35 121 0 130 136 105 94 255 131 223 141 137 196 171 172 64 106 202 151 92 16 218 110 
200 152 44 123 49 250 55 206 14 191 177 158 79 237 141 28 51 103 134 39 93 80 96 248 249 191 242 35 57 180 221 166 233 201 59 76 222 101 221 149 220 222 157 252 14 247 218 229 196 253 210 0 216 37 10 110 182 46 65 23 24 115 12 71 6 13 164 244 188 53 5 148 245 45 121 43 68 168 243 198 212 187 28 255 204 17 189 39 29 118 26 63 229 123 32 50 24 106 203 202 
84 153 189 233 117 116 29 136 20 231 99 170 43 194 188 55 179 53 92 208 15 81 17 106 193 125 14 3 18 31 203 17 169 192 78 197 97 122 168 45 224 92 207 76 110 207 153 32 168 153 105 152 35 217 124 22 122 42 214 107 65 249 24 95 35 115 22 176 1 112 101 199 44 46 113 96 68 168 202 54 116 53 222 138 220 13 8 228 58 188 89 109 253 112 67 20 103 38 67 57 
177 142 207 146 166 80 241 79 18 183 174 34 25 242 209 93 226 191 199 222 175 28 142 192 227 53 6 176 21 130 22 205 69 113 217 123 107 40 204 147 64 40 208 127 4 154 174 186 153 125 143 203 86 248 141 43 137 132 10 21 234 134 164 162 205 181 13 134 110 40 198 235 61 17 31 13 165 225 23 52 79 66 67 136 159 184 63 199 174 152 243 228 39 53 189 56 113 204 190 27 
49 127 207 23 77 84 132 140 69 181 140 54 134 100 96 82 71 77 180 98 135 199 201 0 134 119 102 159 10 231 85 28 9 121 82 242 59 31 91 163 238 82 223 60 67 9 63 10 221 96 155 50 194 208 176 145 234 241 173 124 6 20 157 1 45 103 217 27 67 135 82 191 150 254 159 150 47 166 47 167 203 79 164 94 150 156 105 239 214 173 3 57 249 20 7 117 121 46 35 118 
77 39 47 116 45 96 20 146 3 149 177 9 136 232 64 150 68 82 159 55 172 165 218 16 254 108 78 219 70 185 174 104 102 95 26 38 192 180 122 208 27 3 246 251 124 174 22 233 132 218 30 52 143 167 74 96 172 225 249 100 196 212 70 136 9 178 204 103 197 148 0 202 231 95 191 88 63 6 241 222 147 252 46 166 11 76 67 75 46 11 161 142 129 191 52 189 253 10 4 75 
112 154 27 249 188 94 118 65 26 154 56 116 51 176 130 65 17 19 238 201 250 242 84 153 95 2 252 54 4 167 80 135 122 89 179 69 9 96 0 31 145 125 53 197 151 3 22 82 31 83 192 87 182 161 91 74 189 196 37 220 160 221 8 14 178 192 193 47 168 252 80 228 143 138 106 18 169 227 214 96 56 253 202 165 184 182 98 204 29 33 45 143 61 23 150 118 72 80 212 19 
224 145 100 125 93 206 203 188 108 234 145 103 191 207 55 232 94 102 237 145 20 180 177 176 83 157 124 40 159 206 216 13 82 93 173 221 228 78 166 187 170 154 240 217 165 145 241 41 42 222 35 55 190 147 251 52 102 254 194 163 120 111 216 11 109 75 119 7 12 74 233 138 5 189 96 3 207 72 188 255 122 51 56 3 245 207 153 124 23 200 144 101 68 59 185 68 97 108 232 23 
67 72 100 201 241 78 106 105 57 90 105 138 228 187 86 81 253 181 165 217 24 145 199 208 14 81 169 224 26 64 155 158 104 70 68 58 112 234 174 52 153 17 95 9 169 142 26 10 217 251 143 72 107 131 179 145 148 25 151 135 119 22 49 184 177 64 74 41 16 176 132 24 18 246 24 126 133 70 43 250 75 51 33 12 81 58 174 64 99 120 138 3 208 96 121 10 212 100 2 37 
207 60 99 179 149 88 143 173 147 24 226 19 10 39 122 96 157 59 205 25 185 112 161 210 70 151 139 105 141 111 102 221 166 74 135 234 72 253 227 123 219 4 145 126 157 150 157 208 78 35 86 142 202 12 178 58 108 192 151 104 110 189 46 97 179 244 96 82 230 111 10 65 125 111 207 2 19 210 26 227 204 171 83 100 201 164 253 203 218 44 99 1 155 222 128 103 220 64 53 197 
43 88 239 157 13 242 146 25 131 204 39 175 157 94 21 5 53 139 159 156 213 227 191 151 192 190 59 240 35 64 182 56 187 165 40 62 104 230 142 89 140 7 242 85 158 152 194 64 95 252 90 220 30 237 106 46 77 241 109 132 198 92 90 219 17 86 28 32 219 59 69 229 40 131 126 221 128 48 35 76 218 74 9 132 212 82 126 241 114 207 171 232 225 57 80 131 8 252 140 62 
79 19 160 180 16 245 147 253 171 87 139 87 53 141 245 225 183 63 121 112 254 247 243 220 253 151 40 199 22 203 208 0 146 161 144 86 79 60 129 37 213 134 9 80 251 26 4 185 67 69 164 220 184 187 119 101 164 95 157 240 174 130 50 5 33 0 131 4 205 170 40 137 212 195 155 129 37 42 191 115 199 108 253 123 230 177 146 224 229 118 170 222 47 183 242 11 49 163 57 109 
112 47 244 107 177 87 33 96 27 254 129 4 13 137 221 178 71 125 211 240 238 47 191 88 128 194 172 153 110 238 131 16 216 125 133 189 64 139 2 200 79 191 81 145 152 254 212 17 170 155 82 123 20 132 183 198 86 19 173 23 189 21 177 25 66 50 110 69 188 74 147 85 23 55 117 186 247 175 22 70 138 252 239 82 241 48 87 215 165 197 203 49 164 36 189 79 156 38 170 175 
178 250 138 48 242 45 85 26 121 212 201 61 75 0 99 250 108 29 133 134 177 226 178 40 181 245 92 111 233 253 64 15 168 138 144 51 168 233 180 97 126 46 22 215 217 74 72 250 13 251 242 59 162 148 14 137 75 39 225 200 176 196 77 174 101 87 11 160 54 32 11 45 70 159 177 175 106 248 37 53 129 31 49 163 191 11 211 14 68 130 89 29 99 104 238 2 8 67 231 195 
0 200 75 91 131 135 118 124 218 87 57 0 42 181 31 178 61 33 248 143 167 177 118 116 150 49 217 112 8 222 151 97 113 224 236 35 83 160 216 66 15 95 206 16 87 149 156 230 193 90 4 73 6 97 190 9 220 25 162 133 132 7 148 8 223 12 197 67 246 119 113 104 76 212 29 208 60 121 60 81 224 210 74 186 34 144 63 235 141 1 144 3 149 141 114 35 25 114 134 49 
138 45 60 251 222 57 10 18 124 218 109 146 80 53 27 170 5 107 173 144 79 250 249 236 25 177 178 104 67 40 12 249 90 105 135 70 5 59 71 171 127 56 85 214 60 43 68 171 12 246 83 252 108 90 11 73 57 60 78 34 218 25 117 145 104 50 152 99 209 57 182 147 251 138 205 192 57 217 225 105 145 254 196 2 222 151 146 5 98 252 40 149 107 30 11 34 10 55 62 180 
251 80 113 163 154 40 166 70 183 78 22 148 76 184 40 19 166 225 126 34 30 6 243 77 154 16 243 97 240 206 52 205 42 105 94 93 224 8 150 84 19 209 223 230 237 254 101 51 86 207 181 115 145 231 139 189 29 33 15 221 209 158 14 170 228 70 227 146 224 201 186 41 187 233 235 51 112 234 152 233 151 37 73 105 139 185 117 172 249 33 249 168 230 147 44 248 235 116 241 187 
124 183 15 41 201 84 113 87 38 36 108 222 196 155 52 216 121 201 156 185 57 201 99 222 118 183 124 167 255 55 242 78 180 5 32 104 187 5 238 158 169 204 152 145 234 247 76 26 27 115 15 193 86 68 223 212 228 88 187 218 166 31 69 165 90 5 93 93 135 44 142 172 163 68 163 111 219 69 25 139 212 248 160 166 245 228 220 10 33 230 42 90 60 160 249 200 223 47 212 140 
192 184 85 210 89 210 198 223 251 152 233 67 51 178 185 164 151 70 98 246 72 31 188 49 72 95 204 254 185 127 129 34 115 132 154 194 66 36 19 169 112 161 215 239 18 30 155 126 54 165 12 165 93 108 174 66 106 7 159 90 7 17 28 223 237 111 245 125 32 97 239 196 50 124 241 247 221 90 21 253 4 198 198 116 138 223 67 154 58 237 200 115 175 247 45 155 190 98 132 120 
85 88 17 28 153 193 117 183 231 129 104 247 255 144 94 255 250 68 56 106 2 111 183 129 57 174 10 58 98 15 221 183 25 194 96 149 39 167 55 182 36 81 33 61 34 63 225 188 147 15 200 83 192 223 232 239 177 121 178 111 113 27 248 55 24 163 68 248 29 222 100 39 185 62 98 0 143 2 142 105 247 190 118 85 234 22 235 130 143 17 156 28 11 116 50 59 26 2 144 175 
217 61 83 121 152 49 3 156 82 70 222 254 11 3 239 149 168 46 254 124 22 156 239 64 228 53 107 31 198 118 245 224 207 165 22 124 180 150 82 137 19 246 246 119 46 109 230 47 106 160 13 180 41 219 20 213 90 246 69 162 14 77 255 101 223 155 182 51 72 12 207 51 23 206 176 116 126 116 42 38 225 156 237 171 219 178 222 217 56 208 248 214 175 41 24 147 56 151 246 86 
122 227 67 65 170 176 49 252 58 164 26 34 158 178 110 148 0 82 10 251 18 143 160 244 71 249 156 121 137 180 218 91 57 118 177 204 143 67 155 18 156 57 136 7 182 240 126 205 254 74 33 142 30 80 255 208 138 16 226 25 76 120 26 184 180 5 92 4 11 249 221 148 47 169 90 113 6 181 169 162 86 42 3 187 214 215 23 243 104 197 29 119 238 97 77 133 238 89 93 250 
107 163 14 234 144 203 30 121 228 153 223 16 150 229 75 68 138 241 231 84 102 0 132 222 33 165 161 107 69 251 17 76 134 58 62 70 116 134 82 237 8 106 28 186 15 159 140 94 229 98 32 201 29 248 254 5 59 147 139 231 80 135 28 203 157 120 62 8 45 12 57 220 42 217 255 10 3 60 242 54 97 144 157 251 255 15 128 119 165 112 109 135 109 208 118 118 202 66 110 248 
96 92 70 57 49 155 245 219 181 246 214 80 0 118 16 160 251 17 220 172 191 49 68 87 156 13 243 17 202 10 128 246 160 92 101 190 93 1 40 19 118 196 34 156 171 2 45 167 23 138 113 63 237 135 48 29 5 5 253 182 32 123 58 148 205 181 230 81 11 80 72 16 48 120 168 156 201 147 156 46 145 0 143 145 39 62 149 234 215 255 171 13 131 202 104 5 255 152 214 116 
252 139 80 164 152 225 76 87 82 229 168 86 30 120 79 156 94 93 79 110 74 78 36 37 253 127 58 181 191 119 13 157 155 0 176 167 209 253 20 55 86 126 180 183 206 209 31 159 126 104 127 249 254 131 49 109 237 162 201 104 69 181 50 43 147 252 245 162 81 63 163 149 134 34 73 46 82 190 190 112 118 10 234 63 219 3 81 126 43 229 182 15 125 27 113 255 41 201 212 106 
130 55 252 19 236 140 4 211 105 148 14 38 100 241 30 169 88 128 84 254 242 183 136 113 255 118 196 96 187 67 29 62 156 159 11 68 128 38 121 155 163 121 70 29 180 81 117 153 137 79 12 208 204 23 113 101 33 138 173 0 247 235 160 113 176 88 151 219 103 129 56 79 225 26 111 20 121 18 6 55 65 51 56 149 225 144 210 28 134 59 107 215 230 208 99 44 198 103 61 246 
137 163 181 232 38 237 143 152 134 151 147 73 171 224 144 123 132 47 78 209 137 139 183 143 119 80 178 235 66 141 155 252 113 147 165 118 27 140 59 169 230 14 41 151 252 133 232 136 69 231 58 169 222 178 122 179 16 54 165 198 199 226 207 34 101 115 180 53 165 168 185 17 9 150 228 241 134 96 104 191 58 176 120 165 170 242 125 52 157 149 75 6 81 55 21 124 113 117 112 178 
18 84 42 10 227 234 44 32 116 112 42 127 55 196 120 9 55 32 7 175 56 191 67 197 235 108 114 80 29 146 231 130 20 32 212 128 22 249 17 46 228 93 92 105 11 69 110 94 15 166 217 182 215 78 205 136 203 118 135 152 210 77 119 149 202 160 222 246 236 1 91 48 154 88 178 137 144 92 207 60 153 110 224 74 34 156 24 232 239 176 137 218 214 78 111 94 95 212 242 170 
118 99 86 163 87 82 18 147 142 238 76 41 125 250 57 128 130 125 170 0 61 22 239 149 149 135 16 207 132 222 57 7 180 245 102 132 52 132 202 241 88 107 175 52 112 15 28 225 247 68 3 14 230 204 83 232 168 34 109 143 67 237 121 42 1 124 175 165 4 195 224 137 30 195 94 255 11 118 98 197 121 102 206 201 35 128 36 87 78 209 104 167 91 122 159 121 165 72 23 98 
244 56 185 157 151 123 227 40 84 248 75 153 132 2 140 95 167 119 130 134 163 66 178 122 182 239 59 180 1 36 33 19 120 247 193 22 187 175 105 255 80 26 166 94 201 211 61 129 219 46 116 130 0 75 255 184 140 188 91 53 40 185 20 232 154 64 25 71 106 123 48 28 229 74 164 13 200 132 233 173 215 3 65 53 136 44 136 1 16 123 140 109 185 103 146 141 143 102 109 165 
191 240 123 3 136 144 229 239 40 67 251 90 226 91 109 102 37 182 150 194 37 211 237 218 29 154 54 49 150 205 96 21 93 12 35 21 211 55 202 226 254 132 36 72 6 164 206 137 166 2 161 94 185 7 49 185 32 184 66 75 245 141 191 43 158 237 135 98 63 230 103 216 203 90 173 177 178 103 38 187 188 244 18 61 91 131 171 250 210 202 3 65 21 23 85 137 243 230 138 155 
221 195 231 13 13 114 43 85 23 177 28 157 67 188 138 158 176 96 147 183 178 131 28 186 228 1 193 153 219 250 42 217 38 166 242 200 88 183 17 201 83 126 8 76 87 16 16 171 201 30 83 18 76 158 58 59 34 112 160 140 12 86 124 49 150 13 209 56 148 125 226 212 123 5 54 161 181 3 8 194 240 81 4 55 235 217 58 38 225 194 16 112 99 192 174 96 100 31 250 72 
214 148 200 148 228 9 69 153 153 41 186 154 132 120 34 96 17 109 102 57 188 123 71 225 91 252 227 169 208 221 130 149 94 195 19 95 2 1 1 30 185 220 168 16 204 16 58 167 245 237 189 154 53 98 240 121 159 146 218 141 85 64 90 180 240 28 114 236 217 76 31 56 58 53 160 63 101 70 157 199 27 182 170 144 85 223 244 237 118 46 162 33 212 10 36 182 145 60 216 68 
82 250 182 207 51 69 157 183 250 6 201 51 134 110 217 199 186 105 53 227 80 231 89 228 201 36 64 113 177 137 179 81 230 178 192 115 171 208 182 203 150 105 41 113 88 109 1 233 30 113 97 89 86 63 158 146 13 191 252 208 220 63 113 6 158 240 183 251 38 36 134 116 24 145 162 42 205 144 101 104 107 126 58 153 58 231 197 68 76 97 164 198 204 215 222 196 80 144 68 233 
203 189 124 64 202 229 72 27 249 132 50 75 134 128 62 241 58 237 120 28 175 13 239 191 220 14 248 146 186 182 126 252 75 82 199 51 152 78 147 160 36 76 121 216 98 49 50 228 151 177 20 128 122 68 240 125 198 169 44 245 149 155 38 102 38 200 98 60 128 146 206 66 229 169 90 227 190 14 207 24 144 61 204 85 95 104 64 2 157 160 182 24 183 170 169 25 23 24 93 150 
240 230 18 187 55 22 70 185 112 161 116 89 125 104 120 30 29 57 241 21 118 52 234 158 146 161 127 244 179 189 31 143 134 238 103 22 61 211 37 104 5 149 142 229 10 53 127 22 226 2 62 129 62 82 194 165 68 236 42 19 76 187 131 98 102 244 162 222 78 108 146 116 210 43 119 54 102 222 166 234 106 238 63 229 248 5 246 82 160 126 91 67 45 177 9 61 7 85 44 135 
49 14 123 137 171 110 210 145 232 243 64 31 30 55 249 93 62 236 16 153 74 86 65 57 254 179 97 198 10 38 29 156 187 253 102 18 11 8 215 21 62 237 51 126 209 60 38 149 87 13 44 42 200 40 11 102 133 220 91 35 104 34 10 97 23 124 44 91 244 90 122 241 235 24 108 47 84 167 217 83 42 218 60 121 215 132 75 201 164 16 24 79 121 193 97 96 252 72 173 204 
123 220 189 104 202 17 253 83 56 102 193 84 189 187 19 242 108 168 80 210 63 164 15 74 30 89 211 23 105 168 132 100 212 90 200 74 3 238 187 28 172 33 245 95 97 195 14 83 42 108 130 93 164 151 143 70 138 234 166 246 250 160 154 12 196 44 92 166 62 101 160 59 133 61 115 15 105 107 24 12 193 103 32 247 51 134 156 222 97 230 60 82 155 189 164 135 152 80 63 135 
149 118 9 192 75 81 83 90 55 39 46 254 171 54 231 16 237 126 215 221 234 117 120 165 241 56 19 34 200 41 162 233 178 210 134 153 172 110 98 36 252 159 106 152 230 18 212 232 25 154 239 31 57 36 218 112 36 88 160 230 74 180 184 79 0 76 93 138 167 82 41 253 23 102 130 13 207 129 100 95 35 255 115 92 197 146 121 52 85 62 70 101 26 249 137 140 155 191 237 221 
133 69 137 234 236 249 154 96 191 87 247 182 247 236 157 54 28 125 199 132 179 65 91 58 105 147 17 91 21 234 158 103 104 129 98 202 19 168 122 106 14 68 255 10 66 14 172 104 217 141 92 121 169 193 103 170 61 216 113 72 34 185 217 5 220 170 6 122 210 51 92 99 115 36 1 65 45 7 212 8 70 194 66 89 176 77 240 26 59 12 155 245 158 230 203 27 26 66 221 6 
237 120 18 186 113 63 237 210 136 121 77 214 75 136 24 168 147 94 193 225 240 210 196 149 195 86 103 125 161 180 47 172 215 1 144 106 120 28 230 207 130 60 178 63 96 32 124 129 67 184 143 85 203 139 166 140 196 143 247 34 122 86 238 90 219 89 208 26 154 138 32 156 250 161 236 22 252 183 115 232 118 168 247 58 207 205 210 110 175 53 135 114 200 165 139 28 230 151 230 236 
211 33 40 222 139 193 51 80 16 118 115 47 10 23 230 46 77 9 139 231 183 227 90 130 93 237 191 153 44 206 195 39 189 177 146 213 126 119 227 47 18 131 192 150 5 57 166 181 45 148 57 105 213 243 62 89 16 135 11 148 19 10 189 208 251 162 104 99 209 217 239 129 195 41 18 193 186 212 145 50 190 208 214 181 192 209 140 180 113 77 84 197 18 17 232 141 92 112 247 95 
66 27 252 103 99 171 162 244 215 33 173 214 163 210 247 44 157 229 122 119 213 248 82 127 220 207 42 70 40 242 88 98 96 240 99 205 131 125 229 109 88 221 42 41 205 39 200 251 212 240 181 105 70 3 6 169 190 212 159 230 131 26 163 63 169 160 231 109 245 218 167 17 238 105 207 143 170 129 239 123 222 188 237 144 35 237 138 21 183 241 41 190 182 9 53 232 86 25 9 13 
253 110 213 7 99 158 162 147 154 165 116 213 125 34 24 71 154 61 94 171 36 4 251 49 22 168 50 114 119 79 247 203 147 143 215 79 105 146 198 96 188 6 23 251 134 136 78 234 135 132 33 252 153 13 199 160 200 77 13 238 53 243 102 5 185 4 84 79 209 236 223 90 240 76 77 227 103 92 25 216 0 221 171 29 172 68 222 143 130 243 103 229 112 25 196 184 157 2 249 54 
249 46 218 242 221 20 79 244 140 42 152 149 144 208 196 185 179 146 139 13 227 179 156 237 12 187 241 224 57 10 164 57 195 250 13 187 4 198 149 220 49 122 105 135 9 136 49 254 225 104 168 58 82 242 148 198 58 46 88 224 156 210 249 134 28 175 99 166 232 74 120 224 4 186 58 2 55 195 20 83 211 179 12 52 243 232 75 251 212 30 193 167 87 24 215 116 181 6 198 133 
75 156 23 7 249 81 61 92 163 125 234 150 21 157 195 66 110 177 73 145 230 77 246 202 227 114 71 26 185 54 24 206 158 158 15 249 177 26 250 64 133 43 9 176 72 84 17 51 204 97 186 207 93 222 246 115 170 118 125 5 182 173 164 49 53 193 203 92 201 191 110 247 14 219 157 32 79 26 28 81 180 55 155 29 77 248 104 153 38 121 185 240 254 186 16 105 138 52 13 85 
117 204 193 78 162 110 90 122 76 107 156 164 202 59 52 207 212 160 71 165 182 90 109 7 144 12 62 253 162 76 203 216 161 80 55 142 127 118 195 145 181 188 242 136 214 18 224 185 28 218 159 152 48 168 125 111 69 103 119 41 209 90 249 49 109 228 211 89 208 234 36 232 218 197 51 98 70 94 0 18 135 108 109 192 250 213 142 222 0 19 137 48 178 118 78 116 0 44 152 226 
243 8 94 40 225 55 87 98 200 62 67 236 255 203 44 183 172 60 76 49 65 190 136 191 243 185 148 211 233 216 74 220 235 49 225 141 82 18 54 196 151 50 210 126 171 40 56 187 220 183 186 236 67 47 1 226 226 109 205 99 216 147 45 31 159 169 180 244 158 112 46 243 205 199 242 122 61 250 0 175 199 76 173 127 69 34 235 197 197 5 14 222 163 103 129 229 83 37 172 180 
25 211 184 221 70 57 24 191 78 203 12 210 197 67 158 81 30 233 48 147 148 68 246 152 99 78 215 73 141 46 150 224 118 215 187 49 84 225 46 83 70 130 120 219 181 209 211 53 20 12 252 108 60 117 239 226 99 10 55 103 119 0 30 245 187 88 122 237 224 6 134 53 245 216 110 92 31 44 111 230 65 199 11 244 238 140 125 149 30 158 33 27 20 45 192 98 62 247 114 20 
11 88 194 99 164 174 168 115 162 160 104 10 246 149 145 209 101 131 111 176 112 134 129 166 15 100 166 129 130 211 230 215 118 104 197 25 165 164 208 249 147 234 58 64 27 112 97 230 224 136 100 246 62 127 228 43 94 38 79 244 223 222 203 86 48 183 192 26 1 138 252 238 121 162 92 242 49 16 20 67 45 40 87 86 205 147 203 65 151 71 18 119 28 88 251 179 53 253 90 237 
184 118 228 245 240 55 92 42 208 161 74 17 238 15 140 109 113 139 10 106 14 216 111 248 87 70 73 17 167 129 242 195 213 103 129 69 203 248 83 156 245 6 82 70 146 229 109 27 240 28 106 170 21 49 103 169 162 123 103 139 230 24 205 71 250 253 51 250 250 1 183 222 127 67 87 176 101 195 168 150 150 99 233 181 255 63 72 151 8 193 184 174 152 2 245 145 139 71 65 100 
