P2
100 100
255
131 138 236 49 32 251 109 92 210 205 73 120 243 59 227 234 198 123 82 214 205 235 170 118 56 203 183 43 204 227 68 24 99 197 149 188 127 4 142 88 52 220 90 92 238 113 27 240 207 168 228 249 23 246 146 197 200 25 14 100 103 31 89 226 39 197 207 26 126 149 101 219 216 47 123 81 228 172 152 18 41 3 178 79 57 254 178 245 115 113 104 243 61 2 116 9 123 171 155 153 
120 5 4 205 52 218 61 127 90 99 192 53 134 229 201 216 9 41 97 201 26 23 133 126 221 27 226 154 10 57 115 182 75 162 16 156 54 24 117 205 97 71 62 107 74 1 125 158 128 103 148 92 163 8 115 137 34 98 244 28 203 141 23 202 29 36 117 4 154 175 234 201 0 254 95 5 245 198 0 106 246 204 36 238 158 97 243 200 238 143 248 155 134 151 137 47 189 131 109 10 
30 104 83 162 239 216 80 163 8 8 226 84 202 80 102 146 0 34 97 252 67 178 78 229 92 48 151 181 79 93 63 129 50 12 65 160 65 88 28 150 221 115 175 150 255 1 2 114 199 158 48 101 79 198 181 141 136 202 1 158 213 61 162 206 114 106 193 32 73 99 114 240 34 31 178 94 29 137 219 141 108 63 23 60 155 188 186 39 245 17 105 40 231 64 141 213 196 30 250 230 
76 200 186 221 198 66 142 19 159 139 102 224 162 52 225 204 6 252 227 115 20 10 113 65 224 228 211 188 35 139 48 12 173 233 253 193 69 102 172 210 214 224 122 58 1 121 246 195 38 198 73 139 104 19 221 116 183 124 187 42 219 149 72 96 253 223 109 141 155 194 199 73 178 173 252 222 163 54 161 252 225 216 147 80 197 140 158 171 138 241 49 0 9 83 126 240 254 189 111 101 
187 96 108 75 159 60 70 27 80 153 174 18 217 164 148 157 37 97 100 18 30 142 112 54 215 132 78 47 210 158 154 10 186 250 1 6 45 147 38 151 19 193 54 110 107 157 103 169 117 110 215 45 115 45 79 77 4 170 250 164 238 173 76 151 240 121 9 135 126 16 128 92 68 76 233 253 24 89 81 169 17 113 113 78 194 220 160 39 210 150 7 77 60 124 126 220 0 171 90 137 
110 186 199 121 221 192 208 18 150 115 254 127 9 239 32 145 149 200 225 252 44 0 252 2 36 73 18 33 136 28 68 126 248 250 125 48 108 209 99 184 86 0 52 229 9 189 213 153 204 12 152 57 165 198 130 129 115 173 37 74 92 178 116 125 55 48 25 197 243 116 223 232 142 5 133 156 211 115 223 38 164 113 179 219 170 208 142 9 81 1 34 110 6 10 25 33 167 167 18 88 
240 170 226 44 35 129 91 102 57 48 226 120 203 198 230 100 191 35 134 202 52 23 238 244 247 181 47 21 25 100 33 226 33 170 82 131 237 94 183 115 95 127 94 240 153 104 190 122 105 91 130 108 81 109 48 216 73 50 227 148 153 109 245 247 24 37 178 253 24 72 129 14 128 104 167 159 57 120 160 112 2 68 187 137 120 8 232 148 159 196 79 216 125 81 20 212 29 151 247 44 
176 63 73 100 38 45 148 110 171 138 120 19 75 122 54 195 214 110 197 65 124 145 196 211 67 158 200 128 57 71 150 217 52 139 111 198 254 3 170 229 35 249 45 168 32 223 194 147 180 148 187 12 1 109 48 223 119 80 37 11 83 129 211 104 52 188 254 48 156 180 199 92 207 46 157 214 222 93 211 163 218 226 220 99 117 180 76 145 159 230 20 141 53 193 15 255 106 120 178 238 
126 160 34 37 217 190 218 201 168 220 113 165 133 20 162 248 174 211 32 216 236 178 123 126 102 143 100 43 174 82 138 96 109 131 124 60 107 85 69 127 38 12 211 155 244 221 48 112 228 119 1 71 163 243 208 29 207 109 77 252 109 162 180 234 16 250 35 253 132 126 4 1 243 164 9 11 162 112 21 111 103 7 19 163 137 128 113 2 189 246 238 172 184 89 76 21 83 250 48 194 
1 255 54 89 148 88 68 15 195 52 160 6 249 246 63 105 244 126 217 99 242 164 207 242 76 126 108 67 191 171 5 205 133 56 192 195 195 217 178 0 117 177 218 229 94 22 55 122 91 193 184 132 234 15 127 59 93 40 209 26 104 130 92 89 215 248 36 29 103 186 167 201 149 79 171 149 16 140 110 233 241 87 35 9 22 106 111 83 172 145 71 98 223 182 182 85 252 131 187 48 
125 133 61 98 16 56 53 162 114 38 115 22 207 72 157 210 7 18 137 13 90 95 158 110 170 73 134 50 82 192 192 95 150 89 145 231 110 251 104 117 14 107 117 70 162 3 142 68 60 67 44 37 162 119 241 22 108 229 105 150 148 109 63 101 129 219 220 173 171 241 213 197 233 208 239 151 138 203 226 112 31 35 147 164 119 209 119 81 137 71 210 95 94 184 92 195 88 172 200 206 
235 136 14 137 200 215 212 118 245 116 189 229 165 185 22 250 162 236 98 17 1 159 115 60 237 94 95 193 185 20 157 227 92 67 26 35 248 118 133 118 157 148 79 204 74 160 210 53 178 59 136 117 2 77 91 67 179 38 223 113 100 207 244 81 210 2 253 56 239 3 149 105 87 182 209 196 46 242 243 59 186 81 22 36 64 202 251 35 48 28 101 75 76 15 155 77 229 216 144 68 
233 170 45 196 71 12 138 117 162 55 224 130 75 186 232 45 84 71 207 225 223 34 130 30 133 196 18 179 154 70 111 80 67 210 92 111 117 60 210 168 1 230 123 157 251 197 217 37 207 193 78 20 210 46 19 153 105 227 211 223 181 38 57 216 65 94 158 151 162 44 111 104 171 131 206 186 126 22 235 109 226 6 48 225 236 189 192 146 206 147 78 200 38 173 103 59 191 246 24 98 
25 143 214 51 220 73 42 22 108 210 127 75 229 154 77 82 185 210 141 82 159 206 255 197 71 243 244 141 161 137 219 109 41 221 54 47 161 91 119 24 44 221 56 59 176 128 16 147 65 185 224 20 153 201 210 201 189 27 195 79 194 19 160 84 68 15 199 12 241 82 182 98 175 89 79 180 120 236 159 58 165 204 180 214 93 255 42 109 66 150 12 127 104 234 165 116 33 153 235 91 
153 54 126 73 25 232 97 55 53 52 98 18 5 251 178 156 245 147 145 188 195 67 130 217 236 125 147 254 2 127 188 158 22 194 232 223 118 64 147 250 47 24 134 112 128 229 213 112 253 230 210 31 77 33 167 37 163 182 23 71 136 158 68 49 255 8 70 49 224 108 39 175 236 248 69 106 215 204 54 234 97 59 82 129 222 149 47 252 126 149 102 253 53 64 184 183 0 78 31 215 
211 94 177 201 92 112 24 206 141 87 169 43 26 66 85 182 157 85 222 215 158 33 138 176 183 89 241 56 95 91 223 228 57 7 213 181 86 82 200 254 221 129 95 90 16 57 109 174 118 144 106 105 65 165 134 207 186 216 37 51 73 22 147 95 83 235 204 190 62 130 72 102 195 2 26 77 25 4 170 3 164 101 5 167 92 184 148 34 178 84 101 13 180 44 42 91 85 169 63 200 
21 25 172 133 131 113 136 253 100 221 180 209 39 252 39 229 133 112 173 26 122 198 70 22 111 102 209 65 198 52 137 124 179 117 139 207 74 6 12 13 202 231 107 192 190 131 178 196 67 234 175 177 86 187 167 104 2 21 95 177 158 153 64 249 200 238 153 170 70 72 82 147 242 94 234 64 71 76 86 198 140 5 192 198 21 152 29 224 153 220 29 9 16 169 155 98 208 57 173 153 
201 46 0 147 210 103 246 10 57 25 166 149 113 200 193 176 222 57 246 161 49 222 0 78 176 124 94 216 177 129 133 225 229 171 251 247 222 52 100 14 190 94 233 102 17 41 184 132 78 177 162 173 132 8 207 207 162 110 142 238 4 9 150 8 131 36 239 66 115 170 95 61 118 188 153 119 109 245 210 121 33 175 47 13 142 107 188 18 228 90 215 71 158 106 88 154 102 79 252 206 
163 32 135 217 114 244 153 53 96 130 31 84 182 51 4 30 51 106 228 105 221 239 156 158 225 28 7 93 32 86 96 82 82 31 212 232 91 160 184 68 88 218 155 86 45 61 74 67 8 166 43 161 112 155 58 137 84 100 127 134 228 106 146 94 132 49 45 123 41 201 56 231 25 250 224 230 14 122 174 184 92 236 55 197 147 113 178 207 239 121 120 123 49 165 26 132 124 69 168 19 
47 107 185 182 244 210 66 153 73 117 158 26 143 194 130 94 223 255 153 70 185 1 245 200 46 227 127 69 177 43 152 2 233 46 75 253 207 199 52 252 198 70 216 86 44 176 17 217 19 180 129 196 83 196 35 72 196 49 148 197 70 2 246 79 79 160 107 19 132 178 97 96 65 15 156 178 185 105 46 223 129 209 254 194 250 219 137 151 2 10 161 197 53 237 207 50 76 188 247 242 
208 165 194 173 228 237 44 185 74 233 135 153 185 242 126 225 94 15 179 3 184 175 187 210 96 19 183 22 87 87 216 202 125 71 60 194 137 19 129 142 172 24 27 98 112 190 101 192 131 5 33 99 251 41 26 85 203 32 85 249 95 84 24 87 235 220 137 124 166 253 252 176 141 195 201 243 112 212 85 110 1 61 37 66 226 219 100 108 79 233 30 60 112 225 238 97 128 150 46 50 
44 176 142 151 134 141 80 157 152 206 158 35 240 74 102 0 112 154 7 110 121 33 106 195 248 33 4 226 249 209 68 199 102 194 39 172 90 58 65 45 35 89 172 249 142 114 233 118 40 107 170 173 120 249 222 32 239 3 156 147 236 255 107 200 194 216 187 244 110 124 123 177 50 240 188 173 196 181 134 74 94 73 1 202 203 189 49 106 36 59 38 139 203 89 220 216 98 145 172 217 
208 131 138 232 249 203 48 26 41 131 1 182 50 77 251 167 57 25 12 143 58 138 63 173 87 12 191 160 49 90 140 252 31 170 205 39 188 230 250 221 47 134 165 250 133 4 200 34 158 14 184 231 185 15 135 164 34 108 146 120 135 100 104 72 249 32 243 138 1 129 11 175 99 110 138 237 20 242 111 53 200 15 220 66 123 54 127 206 210 239 57 182 229 193 101 153 217 121 29 187 
210 27 169 65 12 52 251 93 206 228 64 48 120 244 149 27 72 133 244 121 119 142 50 110 137 85 90 72 84 62 68 7 39 48 177 7 70 144 242 167 88 169 68 249 172 11 250 82 173 184 39 29 26 134 84 73 182 16 131 130 128 100 121 153 178 249 0 217 9 204 135 107 88 212 13 239 58 104 47 129 173 25 151 226 38 206 5 131 53 21 99 193 119 37 122 111 197 55 106 250 
242 121 169 152 27 109 159 142 47 68 78 45 70 167 125 74 4 128 227 187 52 121 157 211 150 26 187 146 207 181 229 228 239 206 142 33 147 44 141 31 45 142 195 13 204 31 220 24 211 79 169 32 74 119 142 30 62 207 157 64 94 100 236 136 17 255 198 93 209 150 239 199 86 59 20 139 116 200 128 232 14 221 131 199 93 114 47 184 162 54 195 245 237 50 17 248 82 170 31 141 
216 43 230 75 113 90 161 4 137 181 126 144 4 5 169 31 93 45 170 157 25 21 253 196 238 51 38 36 66 140 157 149 44 208 25 255 26 120 12 68 253 101 192 93 4 137 255 70 208 79 27 124 210 226 252 62 33 51 166 35 139 219 208 82 202 44 145 58 228 178 110 110 101 192 229 152 105 252 245 192 169 24 92 165 238 185 67 220 205 71 165 211 18 154 176 71 221 151 141 137 
105 104 139 88 129 168 202 41 38 71 67 117 190 150 91 204 16 101 120 127 27 86 255 213 118 33 147 144 4 233 234 65 245 25 126 56 5 188 193 75 133 209 47 199 132 243 184 164 244 144 36 167 26 16 103 73 30 133 212 29 122 120 103 233 175 204 193 228 181 93 245 185 239 209 65 215 147 17 46 142 40 10 252 55 223 178 228 159 17 137 230 140 36 238 114 172 11 56 83 179 
218 81 58 61 219 14 245 180 148 90 145 17 60 39 24 155 200 67 101 215 76 126 136 68 17 111 155 162 215 255 118 88 120 160 208 11 69 78 51 163 188 33 86 230 160 112 205 206 61 178 77 140 32 124 132 223 128 233 3 4 236 40 45 39 107 146 73 253 95 98 94 41 6 18 213 45 93 114 219 227 240 78 154 142 45 15 253 186 172 186 233 69 133 156 221 72 178 152 81 76 
41 154 159 240 137 129 22 108 40 218 179 248 168 1 23 211 207 129 39 183 74 85 237 36 53 206 51 153 59 79 154 22 204 7 253 110 181 167 154 86 133 238 127 124 6 124 21 75 121 211 20 241 225 244 98 158 221 217 76 87 76 59 211 232 251 141 175 42 193 221 116 226 176 104 240 14 157 241 148 121 229 191 79 117 71 223 111 6 54 86 123 136 51 19 75 15 159 19 37 36 
184 160 51 143 145 130 206 243 6 19 192 141 37 74 0 167 80 29 201 181 241 205 221 210 38 213 69 167 14 207 37 210 225 233 163 227 77 68 10 143 224 45 177 206 160 116 98 121 34 93 52 162 30 123 24 64 47 58 126 24 164 229 238 114 232 59 3 146 218 228 54 196 83 98 205 101 97 169 215 99 232 120 98 180 1 147 209 157 77 185 60 74 243 79 53 208 216 99 226 221 
157 90 26 208 241 169 233 163 206 242 74 237 230 0 237 101 227 6 47 27 169 65 63 191 183 191 108 180 177 16 75 134 69 154 14 11 238 204 63 226 130 92 63 74 243 12 48 79 81 188 153 157 17 96 135 53 110 68 112 122 161 99 181 37 220 244 76 225 19 159 211 57 11 37 236 145 1 231 38 92 157 30 142 38 101 183 23 174 178 224 150 247 40 225 239 81 89 18 210 33 
42 87 56 248 37 71 175 221 210 224 51 246 204 20 214 82 80 131 3 1 180 242 126 189 161 20 249 133 243 12 254 97 46 171 196 138 101 156 108 190 247 227 151 13 196 51 198 136 20 168 30 246 41 150 88 225 128 56 93 130 19 231 155 225 101 102 163 121 95 113 128 135 126 92 176 116 45 148 120 173 10 47 123 147 154 51 113 104 59 9 226 4 3 136 203 217 96 240 66 192 
121 174 171 157 13 20 209 219 109 137 85 18 154 237 34 115 136 86 90 42 193 187 195 219 110 162 240 207 14 34 212 161 76 97 134 194 56 85 154 130 210 230 157 97 202 171 248 81 2 133 219 189 224 234 203 9 249 134 74 38 161 18 208 231 251 15 45 122 35 81 145 150 4 235 230 238 87 77 125 127 31 217 250 26 177 80 69 255 220 9 227 158 67 25 149 108 139 159 91 8 
222 42 233 33 239 145 80 250 216 34 4 147 19 244 9 85 150 55 75 124 166 36 17 193 230 2 21 142 216 19 9 75 184 141 196 140 78 163 122 209 133 226 218 69 100 214 70 180 23 137 160 61 227 192 45 119 79 217 226 160 218 163 213 11 160 152 46 228 132 202 23 248 137 115 37 182 227 18 126 11 205 13 114 79 98 204 101 106 3 165 69 100 32 93 58 160 39 70 232 91 
158 66 245 50 167 179 115 21 79 98 44 26 46 28 207 104 3 146 95 22 146 222 35 83 85 0 175 146 169 179 208 34 123 180 195 105 81 204 194 17 117 229 73 91 165 111 141 10 121 250 94 111 233 230 226 191 177 190 194 43 25 96 116 156 85 89 231 84 151 220 10 23 226 107 231 85 212 42 198 207 3 92 22 55 184 130 140 150 247 159 71 60 49 77 250 193 177 83 27 160 
54 89 124 179 93 78 189 158 6 195 210 69 208 94 6 212 142 249 115 175 49 23 48 108 5 247 92 17 218 15 47 130 186 128 246 41 149 200 246 228 251 139 12 109 17 155 178 44 5 76 223 188 148 242 5 118 120 139 7 233 250 0 123 157 118 251 149 6 171 71 123 220 232 55 100 51 165 112 43 33 201 201 23 191 5 24 139 111 30 238 107 180 77 175 206 167 172 159 210 181 
117 127 115 249 55 22 147 157 210 8 253 85 35 225 66 215 198 5 81 245 253 70 26 171 236 169 121 155 153 43 227 10 77 203 45 8 190 26 157 89 8 142 144 176 40 171 211 136 196 102 33 40 36 172 9 7 222 187 7 227 247 130 157 20 245 213 91 255 98 142 221 173 250 167 253 94 14 51 88 169 167 36 176 41 216 97 164 91 200 15 39 123 212 174 223 169 140 210 2 159 
42 137 108 68 150 171 192 232 90 74 8 7 56 19 223 44 15 210 216 251 245 233 55 177 152 179 251 12 57 14 181 5 203 234 234 133 156 50 86 240 223 133 10 22 194 84 12 22 240 66 252 156 127 113 17 85 80 6 99 249 35 249 89 30 132 98 115 248 33 76 45 76 235 154 46 199 137 205 55 4 84 123 149 85 27 110 56 45 136 78 25 224 230 249 89 152 208 179 117 154 
61 220 180 168 102 128 125 119 139 154 249 153 245 61 190 30 23 233 120 217 31 85 206 142 107 220 35 146 215 253 103 100 212 131 48 47 12 206 48 223 50 168 236 58 126 239 99 142 124 1 218 3 146 11 109 171 227 77 157 48 110 61 29 75 45 27 192 91 158 128 116 55 122 190 106 29 217 174 86 65 16 141 215 59 241 39 239 51 168 97 173 203 214 231 49 93 203 161 247 144 
23 215 171 217 108 3 213 240 216 165 69 126 143 96 181 187 116 180 73 150 231 17 198 64 141 6 72 141 189 57 239 124 226 93 170 72 96 231 164 97 253 66 90 185 105 28 73 37 42 12 236 100 239 6 108 193 17 241 14 126 1 14 134 135 117 176 236 218 78 48 167 142 66 235 3 27 81 214 22 114 29 255 253 170 18 166 141 208 156 232 213 36 38 102 77 66 128 192 184 122 
92 163 117 33 108 143 183 233 112 45 173 85 205 212 146 72 90 169 60 177 164 185 236 38 223 85 27 153 130 98 11 171 177 11 145 131 243 215 160 152 21 70 73 87 141 124 129 17 90 162 197 216 172 155 15 44 127 225 83 19 237 237 212 135 218 53 65 108 79 28 203 242 142 121 84 208 55 255 97 23 213 69 184 227 110 94 232 103 24 33 199 143 110 123 28 92 115 19 134 0 
245 220 11 126 230 45 217 135 216 183 186 246 236 215 235 255 6 32 212 83 186 111 232 118 29 178 29 19 0 199 66 128 206 110 203 27 89 11 126 137 212 122 80 36 215 67 87 22 173 6 104 18 22 70 184 214 101 85 168 203 131 134 72 115 131 147 61 195 76 55 7 181 137 153 74 242 21 24 250 207 67 204 220 13 207 130 249 180 236 60 121 153 15 203 124 194 113 151 246 127 
169 225 161 106 129 113 164 19 60 105 192 58 36 190 25 160 204 198 3 18 133 63 210 103 16 233 126 224 138 199 93 203 192 155 208 38 210 237 185 158 10 167 75 195 66 126 30 11 27 155 5 107 33 12 169 51 20 22 42 27 80 235 87 51 40 38 167 127 25 222 205 139 128 87 231 199 212 187 53 122 87 109 182 115 53 91 192 186 214 14 146 70 179 156 163 70 228 251 181 148 
247 79 220 62 90 165 57 154 115 135 5 160 253 150 61 5 138 63 230 184 142 76 210 180 121 227 91 36 28 12 15 54 135 208 198 218 132 191 255 65 102 85 177 108 185 17 11 216 170 168 93 132 169 143 18 248 106 98 187 157 70 189 65 239 154 178 83 63 247 145 51 187 155 126 177 132 67 201 199 66 189 26 255 210 244 128 67 9 162 146 52 172 237 176 59 205 205 17 197 71 
131 193 246 7 60 196 183 157 188 77 214 188 139 38 44 0 205 49 19 232 147 207 110 151 28 86 184 76 139 36 81 241 194 106 18 244 80 48 147 41 239 121 235 241 64 116 101 138 242 27 73 255 147 9 59 138 12 212 228 157 36 194 112 251 166 44 69 67 34 226 3 24 206 119 42 57 147 219 134 122 180 65 209 156 119 230 92 83 139 55 214 190 63 62 69 86 86 99 8 172 
110 119 118 246 138 130 192 138 146 69 101 179 252 31 146 199 130 134 46 95 25 127 103 217 50 187 255 156 1 118 166 251 145 53 24 70 198 35 199 180 105 225 142 143 191 77 18 236 92 184 207 198 77 110 99 120 127 83 97 57 117 29 245 251 10 74 140 64 233 252 110 163 50 232 153 35 82 191 35 217 186 33 251 5 236 99 82 165 119 49 114 109 148 142 131 227 9 237 145 181 
129 83 95 117 87 186 169 141 105 24 49 248 8 221 97 110 92 100 100 12 180 149 9 217 217 115 244 47 196 150 246 90 207 130 18 11 43 113 179 92 158 245 13 96 25 67 249 123 249 92 168 143 10 48 98 77 107 9 102 238 76 10 183 131 93 169 239 196 107 68 150 92 210 211 90 65 132 214 38 92 255 98 12 5 51 177 226 143 100 142 109 30 7 235 247 117 89 2 28 223 
54 222 40 33 228 39 160 182 88 227 114 222 121 232 82 78 218 47 219 130 252 9 159 123 109 124 70 227 229 18 138 60 86 181 38 78 27 181 211 209 141 145 126 32 242 36 237 68 225 89 16 74 253 237 237 251 198 53 97 50 39 107 190 56 37 135 122 142 217 102 154 59 219 201 5 249 74 224 211 130 187 197 191 133 3 112 42 24 98 173 223 197 175 83 17 195 143 200 112 38 
143 188 165 38 45 20 21 243 248 46 17 213 224 115 181 36 146 120 152 28 85 12 107 219 64 75 166 200 203 174 36 45 152 73 100 3 74 122 5 71 28 87 186 223 56 225 17 198 145 124 95 132 60 59 14 77 170 104 136 129 29 218 10 77 191 74 92 246 17 44 141 159 18 5 172 76 44 114 23 44 133 193 32 182 138 88 78 18 208 60 73 80 161 116 70 217 128 188 152 125 
4 138 74 76 56 122 70 103 192 230 21 54 203 173 112 134 139 149 35 140 178 207 194 243 147 248 245 229 178 246 88 177 83 235 37 66 13 209 36 131 92 189 252 223 75 12 73 43 86 137 19 107 178 138 113 8 188 139 222 218 180 168 118 205 205 249 150 7 28 244 232 22 241 0 117 200 223 75 133 19 69 221 176 109 193 218 216 175 130 165 117 88 110 142 71 59 49 57 192 22 
75 99 93 236 174 199 88 158 87 154 65 112 35 198 51 75 78 228 29 163 172 46 146 2 139 38 32 124 57 82 27 238 228 38 1 73 83 142 173 22 237 228 104 63 241 218 232 79 84 243 43 248 232 217 25 48 226 224 170 166 151 169 221 83 11 190 193 97 5 223 130 151 23 241 140 30 3 63 181 153 204 30 69 140 146 49 142 124 163 190 10 163 172 187 76 127 193 108 10 1 
185 10 55 155 157 233 167 246 202 111 234 72 218 17 58 130 178 2 197 96 209 111 35 130 171 234 251 247 173 66 111 214 7 118 187 174 204 7 146 64 78 131 159 50 0 43 172 44 27 73 215 137 43 118 108 241 77 163 222 195 27 59 6 138 232 11 104 140 8 49 47 134 209 26 191 192 29 230 205 141 140 109 1 253 68 9 159 218 46 160 41 63 80 142 134 159 151 54 182 148 
216 165 244 168 95 88 191 161 101 83 95 62 91 186 192 164 78 188 44 159 43 241 236 194 207 221 18 42 48 198 22 41 43 45 157 215 37 208 234 18 134 154 243 179 22 231 160 173 242 175 201 246 154 135 155 58 250 0 242 136 38 131 237 46 20 93 216 178 75 92 35 60 27 185 21 237 12 67 3 175 241 120 182 33 172 232 179 124 177 113 125 34 92 183 194 183 222 155 47 155 
210 183 230 59 251 94 81 173 209 243 155 85 197 21 186 100 45 24 136 58 111 227 97 240 96 40 217 111 24 182 6 29 116 52 61 136 236 36 200 61 99 119 128 204 90 116 236 50 62 32 99 115 93 67 25 134 180 77 241 89 95 248 141 98 244 203 14 208 78 76 105 167 100 223 12 155 130 161 128 111 253 249 241 113 170 116 41 179 206 182 48 247 150 63 28 12 3 212 229 87 
203 249 207 103 207 0 40 182 41 24 111 36 223 2 195 51 255 118 5 244 48 185 104 1 146 241 133 240 247 70 238 3 235 65 185 118 248 15 242 121 15 160 61 15 151 220 159 147 251 178 200 111 56 30 166 136 92 21 19 38 29 83 33 81 80 133 196 186 145 121 27 164 99 242 58 226 20 167 191 43 51 31 83 129 209 88 210 235 182 145 163 86 28 184 171 199 6 194 142 202 
138 36 58 25 161 233 249 15 70 144 227 187 162 199 236 32 105 64 13 44 16 249 97 36 200 222 189 211 14 204 216 251 159 155 147 90 211 69 183 150 157 252 38 249 43 125 187 87 127 105 241 167 96 48 242 170 186 189 214 145 217 41 250 23 192 56 169 35 196 207 77 59 83 32 174 81 57 232 49 241 99 94 67 164 42 13 61 160 187 163 4 149 88 122 93 188 141 220 106 121 
236 226 10 5 117 163 183 28 89 57 10 150 178 204 16 54 176 164 57 102 163 214 188 53 189 227 29 107 248 145 78 41 5 74 29 191 23 50 53 156 89 21 41 234 233 162 39 199 148 244 120 167 254 66 204 242 51 50 130 93 84 91 198 61 219 169 111 120 235 193 137 100 195 108 167 223 237 125 57 199 215 204 126 3 184 76 21 53 116 123 243 155 13 211 63 167 171 47 35 217 
129 83 221 171 10 175 132 140 39 219 13 210 34 208 64 70 116 106 14 134 109 102 222 166 17 112 236 235 185 152 106 156 208 185 87 92 20 73 94 178 183 200 75 166 65 245 216 166 238 244 125 64 226 103 190 176 106 201 253 133 26 48 125 239 123 5 218 34 152 204 55 166 151 39 50 0 216 137 224 181 71 38 212 93 179 155 75 71 208 59 245 148 76 203 27 52 51 55 72 143 
218 237 16 202 119 179 233 208 100 187 253 132 6 131 94 211 14 160 122 112 87 114 134 142 24 201 63 130 44 48 162 68 135 241 202 28 47 40 83 106 76 79 185 116 201 210 215 241 99 218 53 16 201 145 91 180 20 70 96 118 202 132 173 68 73 81 16 14 126 199 80 244 75 218 135 228 171 102 84 47 78 193 21 245 222 88 115 32 240 170 127 12 160 97 55 134 26 242 26 225 
98 211 88 49 88 147 196 172 62 252 73 21 58 29 144 231 163 23 0 24 81 156 101 65 236 227 63 162 222 250 75 33 204 8 229 82 243 139 179 167 101 106 51 71 240 60 129 240 211 126 81 50 219 41 30 148 167 91 76 102 1 184 206 141 205 221 223 86 13 154 104 22 75 92 164 169 220 244 22 196 185 97 121 176 197 25 237 218 37 37 30 38 221 211 204 74 77 192 138 156 
185 10 189 243 233 203 218 52 203 96 242 145 22 120 72 194 79 154 3 36 198 221 233 251 61 108 10 158 156 189 160 78 174 165 0 35 248 54 248 185 88 4 204 97 54 138 149 209 199 222 185 122 182 200 247 107 162 152 230 235 60 208 210 234 140 4 60 188 14 100 28 198 73 36 52 23 43 167 210 182 205 227 174 190 40 206 241 223 214 126 187 67 157 154 229 112 151 209 3 6 
205 156 167 79 157 28 196 176 170 65 191 116 190 70 249 230 211 238 75 163 250 26 26 241 63 77 44 49 113 27 71 10 160 53 6 162 205 248 67 64 166 46 122 60 111 198 109 242 137 35 38 220 155 244 97 83 93 70 241 127 35 0 137 51 118 62 236 59 162 228 189 22 44 221 137 153 179 89 102 49 84 102 155 51 136 115 240 165 97 245 173 174 240 46 150 226 178 92 122 126 
196 77 102 147 87 82 240 182 212 159 240 58 155 132 123 58 223 255 192 28 231 20 80 91 140 155 194 251 194 112 36 6 250 149 86 99 63 44 251 183 67 201 49 100 214 8 212 23 124 4 49 152 54 5 119 78 40 158 110 164 44 199 196 127 200 141 97 56 248 26 212 163 128 153 43 231 108 114 17 44 4 226 125 250 114 224 100 121 40 32 190 208 123 177 17 253 158 87 68 160 
6 48 210 165 247 146 82 246 84 217 11 50 150 123 51 177 197 224 173 162 121 156 48 85 156 188 235 201 190 141 60 100 59 91 198 191 237 186 172 43 155 250 155 221 213 58 49 217 83 114 216 91 179 131 105 155 72 147 211 44 59 118 196 90 10 224 251 201 53 224 57 226 148 98 108 155 238 185 99 81 100 144 86 106 100 7 10 119 49 41 245 136 138 25 90 26 77 15 179 105 
120 222 250 154 107 215 251 173 221 239 247 108 253 134 249 35 210 41 207 220 239 248 217 130 15 200 71 116 42 33 230 102 126 85 141 96 69 76 178 187 242 69 94 63 227 60 80 197 150 165 242 155 66 156 74 130 145 208 75 126 119 90 181 114 161 238 192 52 47 46 154 162 156 47 28 214 101 248 207 84 29 3 245 174 220 49 136 169 175 218 85 252 110 163 78 25 60 120 161 177 
196 157 127 252 192 105 194 139 60 135 116 39 44 95 192 32 127 128 153 32 230 148 97 140 4 221 180 51 213 137 194 12 200 165 207 55 163 38 189 36 241 56 136 236 97 98 143 2 242 16 193 108 74 136 145 82 46 94 0 209 60 217 5 228 74 173 214 11 231 225 18 207 24 1 99 136 2 84 152 174 234 167 144 233 237 136 122 142 79 9 158 114 194 253 7 142 178 120 171 51 
139 41 93 193 102 63 78 37 157 45 234 9 3 209 242 30 24 62 93 129 231 68 141 222 193 170 234 18 234 164 208 104 27 61 141 6 227 66 40 54 140 59 185 79 35 19 60 222 166 191 227 1 97 180 232 201 2 96 243 32 19 122 190 206 153 100 225 132 88 47 43 145 167 117 160 222 46 163 191 145 105 98 170 230 98 243 194 154 9 16 100 172 124 111 39 105 36 106 227 161 
246 82 194 95 227 206 152 185 8 230 121 118 31 182 184 189 73 132 107 38 217 3 226 57 24 225 21 116 163 34 29 29 127 79 152 34 117 68 139 136 200 50 170 0 118 54 186 193 87 197 196 42 88 147 240 17 209 202 250 66 71 101 139 92 36 19 114 248 254 166 10 185 154 255 19 218 191 175 30 10 41 146 73 240 215 211 149 39 236 34 177 82 175 253 3 32 216 98 103 151 
73 209 44 103 24 211 85 121 104 47 81 238 249 67 175 152 154 128 155 33 251 122 231 111 63 66 161 16 29 60 243 83 19 150 52 151 196 5 62 240 216 112 45 39 57 85 97 178 76 206 83 195 192 167 136 169 225 54 176 12 211 16 208 189 80 120 197 28 234 185 17 98 146 253 193 220 110 37 179 103 147 198 177 31 156 246 107 64 12 63 193 55 119 52 81 69 206 255 59 78 
141 66 233 84 11 9 132 17 139 215 228 237 39 245 236 170 19 133 9 21 187 228 30 195 174 154 90 242 176 156 22 109 147 213 162 199 103 197 168 114 10 105 133 132 89 252 66 40 166 2 51 87 159 54 162 83 201 211 64 73 36 190 103 139 49 139 39 164 19 228 168 77 169 236 120 31 37 213 80 46 110 173 238 44 179 140 60 41 105 71 94 237 26 101 99 157 223 140 93 54 
235 95 209 187 122 231 172 76 152 148 32 231 107 92 24 221 53 150 112 110 163 40 236 2 118 101 1 247 103 103 255 229 110 192 181 113 88 177 188 93 152 35 93 207 177 221 253 80 216 219 201 239 17 48 230 86 137 36 150 66 160 74 132 204 178 131 201 156 149 145 107 118 133 213 130 209 195 41 189 239 181 122 203 102 125 145 127 254 196 70 57 130 138 233 70 208 85 95 116 164 
73 206 153 105 230 27 74 204 127 157 7 72 8 77 8 167 209 84 216 2 66 106 156 255 126 90 96 63 255 40 43 75 15 241 26 31 54 173 93 7 225 216 219 35 242 174 82 71 127 17 195 52 83 47 139 245 217 74 153 198 130 148 0 88 35 86 203 21 167 116 126 113 197 243 253 149 209 203 135 146 88 19 178 3 146 223 245 115 203 192 164 124 22 189 160 190 229 97 47 49 
20 60 159 168 141 38 185 236 16 208 45 146 39 4 72 45 251 8 143 7 85 253 121 240 234 74 62 56 206 94 216 117 124 174 27 78 125 164 82 145 196 113 151 103 105 2 113 142 153 207 16 163 134 147 110 81 86 243 253 65 98 77 99 192 214 126 36 214 23 146 216 14 125 162 126 105 222 198 37 254 174 217 101 35 194 4 151 180 151 245 7 242 160 169 207 59 232 99 29 94 
80 216 251 233 229 221 43 175 201 17 167 159 71 97 41 235 121 146 149 92 232 195 40 39 27 74 72 91 161 97 130 230 145 164 100 201 8 157 90 133 218 109 85 104 115 233 231 86 155 78 200 186 44 104 173 67 246 139 123 75 138 110 84 172 169 199 169 12 225 247 255 46 171 95 74 209 45 62 145 202 25 177 114 49 232 146 205 253 199 173 227 178 30 149 88 219 232 252 171 214 
90 214 82 230 92 214 232 150 113 111 220 203 152 213 133 189 65 151 250 56 68 104 54 9 77 216 154 210 206 236 55 43 20 151 42 185 129 0 93 225 162 205 207 2 132 23 159 204 116 237 89 5 58 44 137 15 139 193 35 168 49 201 231 75 150 45 163 154 129 70 126 138 102 247 202 135 39 28 167 192 248 225 60 8 237 51 150 213 197 27 180 147 157 133 184 253 74 84 151 10 
116 225 105 145 156 69 43 37 75 25 244 244 153 23 255 14 125 43 41 135 167 74 40 132 48 57 143 194 105 152 45 168 102 26 162 211 221 234 71 131 5 207 239 131 254 124 187 157 89 102 47 41 187 110 219 45 174 93 115 67 90 201 113 23 137 210 34 102 162 120 209 188 250 196 209 162 22 120 42 147 197 9 44 252 61 218 247 75 3 157 95 160 222 17 202 52 17 138 178 115 
147 67 190 140 165 110 34 133 103 106 235 39 186 196 18 146 15 219 230 26 93 3 246 109 196 164 145 152 217 215 162 37 149 100 213 250 70 131 211 198 212 231 5 202 109 130 179 34 215 224 122 201 156 136 3 55 16 79 179 231 32 8 133 4 133 247 178 50 3 121 219 205 78 30 76 80 48 240 82 58 7 101 192 31 93 190 11 216 58 16 124 71 229 170 164 206 185 182 134 28 
62 133 233 109 200 60 176 189 145 218 246 122 40 254 56 212 137 252 154 169 1 242 175 234 19 76 53 3 182 136 189 30 212 174 232 159 41 10 21 75 109 49 16 7 79 65 211 83 205 61 242 124 9 85 148 188 20 3 49 17 22 210 184 166 62 244 9 177 189 251 183 66 5 11 92 146 204 134 140 19 197 201 234 206 227 177 197 156 223 125 106 152 45 233 85 54 107 78 166 145 
35 192 142 135 73 85 217 108 42 81 212 140 236 138 146 90 238 80 195 115 1 53 252 127 78 27 179 121 219 148 224 68 17 208 129 234 247 146 52 119 196 187 81 112 57 65 176 64 250 109 160 34 90 46 147 77 23 39 44 245 48 55 30 68 239 80 139 124 194 146 199 178 24 144 119 71 46 225 130 26 165 215 176 145 21 155 249 28 127 51 10 99 231 171 212 166 7 197 192 119 
180 113 124 141 222 37 237 215 195 6 109 53 40 36 3 73 118 156 71 243 79 247 31 209 137 45 0 227 96 49 8 215 136 75 181 73 160 251 202 173 114 205 53 48 108 237 84 1 77 144 182 109 144 123 51 173 243 98 189 174 106 18 106 46 156 40 85 78 162 156 68 3 217 162 207 232 55 44 22 72 208 49 179 71 112 38 205 203 75 210 49 76 169 83 224 41 60 57 147 153 
131 234 227 176 232 36 76 122 163 87 196 235 87 210 136 158 148 198 108 94 99 131 188 16 116 100 255 155 109 154 25 5 25 210 165 6 199 22 134 143 17 215 125 175 186 107 53 25 230 143 29 24 65 185 77 176 243 22 2 105 40 154 189 136 116 76 254 194 52 252 218 6 70 94 254 44 155 131 5 208 114 98 201 29 220 193 197 197 133 75 206 86 151 131 21 140 58 49 46 5 
234 95 176 100 25 87 104 189 57 165 198 219 104 179 81 61 113 205 98 170 44 81 191 30 129 143 226 151 203 235 229 44 90 115 148 172 150 230 51 235 13 177 121 239 103 252 126 226 234 34 58 180 177 172 174 140 56 176 26 247 236 92 7 230 176 245 199 96 103 97 186 94 242 87 48 198 103 65 95 151 58 4 151 64 65 206 111 59 176 197 148 130 200 9 95 124 130 53 125 134 
146 224 214 124 214 44 29 254 177 239 57 136 84 166 32 30 185 159 139 172 247 96 66 232 101 185 193 144 251 79 172 65 111 49 128 147 239 10 78 80 70 24 28 83 138 85 30 160 66 167 58 91 182 72 182 11 222 228 8 197 190 153 244 90 141 143 201 143 33 96 28 14 46 166 201 0 52 190 42 193 212 46 105 162 247 122 159 205 30 110 173 109 119 125 121 66 55 15 4 211 
141 114 150 142 212 69 184 63 63 184 77 116 93 141 248 168 79 208 184 124 214 221 112 199 222 39 156 95 88 44 118 82 205 184 67 91 108 13 106 163 180 85 148 227 126 90 122 7 151 115 83 153 232 140 50 114 32 58 100 176 232 36 224 180 159 72 74 140 48 202 221 221 203 134 23 195 10 253 197 164 226 154 215 93 82 27 193 168 31 88 8 71 198 12 224 96 44 228 76 226 
231 129 58 139 253 90 217 235 221 10 46 120 65 224 117 183 132 179 49 205 64 238 58 223 10 157 5 98 230 198 47 99 23 204 62 158 206 127 13 237 161 36 109 8 124 52 23 105 3 242 27 28 55 187 5 18 254 21 215 208 3 212 167 196 241 98 196 52 73 180 10 62 170 154 75 118 244 117 218 3 40 91 64 9 169 12 179 16 161 167 192 86 106 96 42 127 232 166 179 43 
158 149 106 145 71 16 192 122 45 232 155 108 79 247 151 4 59 251 31 104 192 120 139 90 211 32 139 96 226 208 76 109 34 72 182 193 128 193 229 7 253 143 208 47 106 141 199 31 111 248 94 212 170 6 176 157 160 242 119 8 194 161 11 0 117 49 170 89 152 84 141 114 194 58 161 133 184 71 21 215 124 188 48 158 252 165 0 119 91 232 251 156 2 59 121 24 185 199 165 219 
196 30 61 224 101 231 184 165 246 201 153 114 86 17 202 124 237 140 194 95 163 4 202 174 140 103 180 194 83 39 230 118 19 49 171 63 161 5 80 119 198 10 144 125 254 202 9 117 141 247 27 98 57 118 143 138 224 100 50 130 97 135 36 114 94 155 146 103 198 85 183 221 69 144 125 80 46 198 83 51 65 141 104 10 146 190 90 4 129 219 106 37 186 128 73 48 186 104 253 90 
244 105 38 9 185 14 9 104 20 127 12 56 193 151 100 108 202 184 198 49 7 153 170 42 5 105 166 129 178 162 25 126 27 140 54 112 56 68 151 127 78 43 215 206 196 112 243 30 48 16 175 134 185 191 101 151 48 46 173 97 124 234 100 218 14 213 86 197 60 154 159 6 252 57 41 121 136 150 171 22 47 217 219 13 239 202 48 53 235 56 155 88 49 78 90 115 125 105 81 246 
213 170 137 4 111 102 99 250 80 147 136 23 21 14 142 194 243 129 120 12 60 69 239 233 226 55 183 113 177 165 98 169 32 229 55 50 225 16 187 84 250 57 188 186 250 194 208 232 209 159 140 99 57 230 116 28 0 213 170 16 81 200 41 63 228 118 117 185 3 94 8 125 134 65 7 223 214 67 19 68 203 35 227 204 89 93 12 201 151 225 134 202 146 113 15 124 199 109 19 157 
72 230 250 217 88 177 244 55 89 126 138 231 8 182 92 128 8 218 48 188 250 136 22 15 197 27 40 85 159 163 145 58 73 11 119 138 128 236 184 206 91 35 71 78 54 231 200 252 142 181 158 31 131 2 129 47 127 122 165 68 253 68 42 122 115 51 237 45 247 164 250 154 104 20 102 246 209 28 14 52 62 19 124 118 140 82 99 211 253 183 67 154 222 49 181 38 178 195 107 176 
45 188 211 57 89 244 15 64 17 251 109 252 163 193 26 122 121 37 254 16 132 41 87 133 144 175 199 247 68 135 162 161 184 197 15 24 141 18 182 50 131 235 49 154 246 165 4 236 72 251 53 95 196 117 44 11 249 107 90 36 133 16 206 17 153 86 58 246 81 9 220 152 165 201 218 157 137 106 110 153 31 252 137 129 139 221 58 234 162 120 46 248 175 181 236 95 31 184 239 216 
134 117 233 186 113 245 169 160 84 164 171 130 16 41 139 139 157 126 169 231 229 29 179 76 66 93 246 57 203 207 194 176 95 234 156 117 208 218 77 112 241 68 138 63 248 19 18 147 43 136 41 76 253 44 116 242 138 88 73 232 72 0 83 51 4 89 141 52 127 97 235 0 192 156 102 228 204 206 131 182 123 22 132 56 3 157 73 254 63 209 165 225 4 93 103 21 87 166 69 80 
31 173 144 24 29 151 61 142 108 219 94 93 211 199 46 189 236 143 201 139 32 168 93 159 189 13 142 133 107 144 125 108 2 229 40 170 85 59 198 148 184 128 139 194 202 113 232 175 238 159 143 53 13 7 157 184 253 37 83 158 219 233 189 9 188 97 132 203 39 62 109 191 74 146 97 213 115 242 126 89 41 79 57 160 7 164 160 193 64 72 243 208 68 113 168 10 137 165 62 29 
106 150 33 237 161 102 192 140 39 248 149 0 206 122 201 103 28 20 43 103 247 118 9 11 114 43 132 176 163 251 141 135 59 52 16 253 0 234 121 205 200 205 22 255 254 72 182 3 55 188 194 141 50 73 202 235 67 188 27 17 192 120 251 103 113 82 36 4 131 94 133 17 240 115 210 109 229 152 25 56 193 130 32 217 216 119 41 42 111 35 67 107 24 196 60 207 218 230 230 176 
77 95 10 140 28 119 237 151 182 183 63 167 153 240 69 195 93 207 250 69 55 101 150 106 84 167 137 54 210 45 11 82 203 59 185 49 61 14 74 226 110 10 125 63 185 230 202 218 36 80 79 52 213 7 167 55 181 233 60 9 159 21 211 233 207 22 119 47 222 33 237 34 252 216 17 98 230 72 124 202 239 206 47 78 130 186 38 97 238 192 121 54 193 27 219 76 93 243 207 226 
126 199 132 7 230 96 170 23 230 6 199 22 200 219 86 25 75 162 67 240 197 35 125 63 174 198 204 244 38 219 125 41 56 0 132 184 169 247 88 239 255 9 128 180 223 46 241 171 22 235 24 33 195 133 12 110 34 23 10 205 106 46 217 42 213 53 218 141 2 123 238 35 44 215 22 81 71 164 53 200 183 156 172 109 158 39 234 62 146 96 109 184 186 193 40 74 70 15 51 25 
141 29 218 64 119 88 230 188 61 62 88 3 130 76 44 46 23 103 14 145 158 110 201 168 58 18 121 106 167 182 36 249 56 210 107 177 157 211 163 241 67 42 192 201 124 158 62 197 121 222 9 30 178 40 150 237 225 28 146 79 101 77 8 58 36 171 15 66 229 97 167 55 9 242 17 192 239 60 201 20 54 103 193 176 167 39 183 191 52 100 101 127 102 83 135 158 196 31 107 28 
152 70 137 205 178 233 143 22 188 171 90 152 6 113 244 75 110 14 126 123 166 148 13 202 206 234 109 129 63 222 25 237 227 123 121 135 38 147 121 19 240 194 87 142 167 52 80 199 175 43 227 100 25 137 42 163 68 115 236 98 243 17 23 246 154 128 134 132 89 12 158 200 48 182 176 8 29 131 179 110 161 83 50 107 254 51 84 173 236 113 248 7 52 148 29 199 224 119 206 132 
243 227 75 217 166 252 6 149 48 101 53 34 157 171 46 61 171 249 98 190 137 198 234 37 239 92 38 41 0 36 204 123 245 56 29 127 86 37 185 13 193 7 44 158 75 37 196 97 229 199 167 152 124 113 102 100 138 206 181 26 195 155 120 0 211 142 155 175 249 23 44 60 221 190 24 234 231 196 165 3 35 205 188 57 20 43 193 163 89 168 7 99 249 24 211 150 211 100 81 236 
197 92 52 104 153 81 22 12 183 229 23 207 12 231 123 130 185 23 73 100 70 12 3 246 53 239 122 138 135 186 187 2 39 135 20 132 130 152 142 236 151 19 6 225 5 231 251 218 189 24 227 76 50 148 89 186 229 234 53 75 25 224 54 78 53 16 117 21 75 144 55 112 48 181 118 3 86 7 197 230 211 229 84 26 179 232 130 155 7 2 112 233 137 110 248 163 176 131 71 183 
