P2
100 100
255
224 246 101 118 64 198 158 0 159 130 193 176 121 187 242 66 165 22 197 38 198 123 123 226 222 167 132 109 2 40 49 66 187 82 3 119 70 113 68 47 79 138 194 226 15 221 237 110 248 15 250 70 19 72 86 176 112 231 95 124 240 125 3 157 72 131 95 253 220 211 88 101 246 122 67 10 184 16 185 108 0 246 140 148 99 49 103 220 119 70 166 203 19 117 69 183 188 19 106 124 
148 251 40 118 100 138 247 4 239 156 24 214 82 71 193 74 76 50 201 223 178 23 79 64 154 189 245 220 221 209 20 192 138 136 4 81 145 7 210 243 113 160 250 126 92 29 203 88 67 13 26 179 189 185 220 159 137 95 94 192 131 31 202 208 15 234 186 219 162 126 164 93 2 250 255 90 5 245 20 121 245 171 184 17 223 81 244 122 232 92 126 197 18 181 8 159 114 196 199 184 
207 113 134 198 230 85 136 239 42 118 22 68 237 38 2 149 234 134 24 142 117 117 8 252 128 148 119 178 67 254 64 79 63 156 69 20 242 19 50 6 21 205 145 140 126 74 61 115 38 91 139 173 183 49 164 47 144 92 241 120 20 233 26 187 159 250 22 32 207 75 182 232 169 15 11 41 105 252 98 254 226 46 185 68 139 122 87 122 48 203 145 173 114 171 214 36 125 155 176 20 
122 198 246 116 222 128 0 226 173 202 145 87 193 194 95 111 30 45 170 129 156 37 246 92 158 55 73 94 217 11 39 23 51 212 70 217 121 120 4 52 193 121 98 12 159 236 81 116 225 228 247 44 84 195 101 38 144 219 70 248 140 58 212 11 218 42 55 165 113 255 221 66 224 250 58 248 82 223 136 200 154 144 255 151 31 46 182 195 212 207 112 196 197 241 233 178 112 87 81 121 
187 199 42 133 84 163 244 106 186 236 144 5 142 161 137 182 195 244 202 104 20 226 100 45 188 242 29 233 118 162 27 27 61 183 151 19 16 58 46 248 185 163 179 7 109 120 182 117 37 202 116 198 6 12 6 3 34 141 211 35 181 19 132 99 69 100 246 180 54 186 88 192 216 145 1 178 200 136 39 208 141 20 26 66 57 154 184 121 230 62 160 159 139 82 212 241 162 82 25 236 
149 162 88 154 151 60 182 35 44 70 88 221 136 207 235 71 176 28 57 158 240 140 239 49 71 255 171 242 198 110 34 93 65 92 99 157 55 101 6 96 116 86 83 249 71 30 32 14 115 172 28 26 33 29 18 202 137 80 95 87 139 228 215 2 255 74 207 45 5 177 139 142 162 202 10 20 36 210 17 31 53 255 128 223 24 192 181 73 109 136 152 148 24 11 87 182 175 130 130 108 
183 217 168 60 234 140 27 202 168 155 136 27 69 97 221 43 34 227 136 188 97 79 203 63 134 123 128 179 95 151 144 114 148 48 156 155 27 63 145 54 64 242 69 63 172 220 17 218 26 17 160 239 247 85 62 135 232 159 208 184 31 89 109 91 0 153 223 13 191 58 54 80 250 44 199 11 179 145 48 245 168 142 8 255 150 135 19 140 22 43 128 224 106 48 102 245 96 63 68 144 
15 193 238 45 37 27 44 248 4 21 155 150 17 178 251 7 207 84 72 209 0 75 171 186 61 231 236 229 188 140 98 193 164 190 8 226 222 43 8 49 224 23 13 146 121 219 77 125 125 81 143 121 177 222 205 44 128 208 23 244 199 109 209 177 197 140 112 75 74 178 165 15 237 207 19 205 105 44 201 30 172 43 159 243 77 40 117 162 231 143 198 163 194 12 107 235 40 218 124 225 
175 25 233 168 181 64 175 200 192 101 167 13 122 170 248 237 202 35 198 92 230 138 250 10 165 240 248 97 149 72 223 120 176 44 137 209 139 35 101 221 220 201 236 168 196 56 0 227 112 44 236 142 126 157 51 178 10 17 12 123 25 2 68 207 103 1 1 243 251 29 68 87 141 54 38 16 128 192 94 47 12 65 26 130 12 174 14 201 112 173 89 126 104 180 232 148 7 142 129 217 
75 89 253 191 211 111 79 239 91 55 206 122 252 196 169 132 75 132 50 119 39 149 86 235 182 160 194 254 79 5 34 144 152 248 39 50 248 183 204 17 11 207 252 230 138 7 29 19 0 34 14 94 92 88 83 114 11 218 100 86 89 148 25 53 206 132 66 98 155 243 176 128 69 77 83 198 18 207 43 230 26 82 39 156 206 108 158 4 204 191 244 242 33 36 209 52 43 71 38 214 
226 112 177 13 118 67 220 176 60 83 49 100 244 60 63 39 117 39 141 174 245 8 186 59 76 246 39 245 132 2 188 112 98 38 206 1 55 239 112 128 162 238 163 66 42 153 134 30 152 213 151 116 3 177 160 138 171 221 16 194 95 204 165 27 83 112 170 188 123 138 23 120 229 218 142 200 39 113 185 50 251 178 132 2 59 217 170 184 78 32 65 190 173 124 88 232 20 35 209 241 
238 83 108 91 179 208 89 24 91 116 121 159 197 114 105 31 155 142 123 71 143 29 159 30 228 95 128 173 207 249 112 234 182 194 86 111 88 151 49 252 79 60 79 240 217 252 220 141 151 143 226 109 169 103 212 250 200 102 237 75 138 161 201 130 196 247 183 122 107 180 95 144 186 167 146 218 186 34 125 126 37 68 97 97 48 64 215 115 189 15 74 104 250 166 132 148 217 142 71 196 
187 249 172 209 140 11 13 195 222 227 234 133 238 213 15 188 79 203 251 191 240 158 172 4 129 40 230 144 204 157 179 6 199 120 191 19 108 15 229 241 60 25 106 241 197 207 247 167 249 2 186 188 106 234 50 121 231 211 6 60 55 181 129 99 163 166 108 171 102 125 152 232 183 208 72 252 184 1 6 83 190 162 209 203 253 176 160 90 48 145 6 169 203 248 17 227 30 225 174 81 
80 134 4 239 180 132 77 192 147 202 240 207 97 30 26 209 13 226 137 197 172 3 216 72 94 70 100 137 77 112 191 70 188 196 14 224 5 177 205 166 97 246 147 200 223 203 193 84 168 177 92 243 222 169 106 239 41 215 154 245 144 231 217 98 149 210 149 229 123 166 27 60 146 146 126 84 75 193 171 75 80 43 104 213 95 145 194 183 116 164 0 116 25 211 176 91 3 62 79 97 
60 139 95 223 184 28 19 137 241 221 216 120 129 181 156 63 7 84 67 62 28 21 32 93 186 30 225 187 149 162 58 231 187 139 229 159 217 0 48 42 175 162 210 45 145 240 188 245 248 147 142 195 173 197 51 8 49 116 168 3 47 199 226 23 137 9 214 73 189 146 47 94 206 127 123 187 192 166 106 162 183 68 53 118 228 99 238 223 14 149 164 1 213 19 99 57 224 245 204 2 
18 117 201 99 54 80 178 151 148 248 112 160 246 86 132 38 118 118 251 184 106 160 181 120 159 110 53 138 165 237 44 124 164 143 211 80 51 163 75 118 56 195 19 178 19 166 159 25 3 193 42 239 64 5 214 188 235 119 83 205 117 153 161 48 124 230 11 240 117 112 211 25 35 110 53 64 131 22 148 61 84 70 94 166 202 125 214 218 104 151 41 69 7 241 68 128 15 241 183 145 
136 15 138 147 207 109 162 18 227 197 70 70 18 37 137 81 31 6 47 132 215 141 151 160 86 28 5 245 15 82 25 42 244 62 55 227 78 240 71 172 175 24 159 109 38 163 21 136 183 35 195 198 14 241 179 231 205 231 15 232 204 154 53 225 162 52 108 121 24 110 121 0 167 80 191 1 58 167 125 104 95 75 205 127 236 218 91 147 170 133 189 109 77 113 231 133 119 178 116 110 
146 160 92 199 64 237 247 215 226 79 72 229 209 34 187 107 117 214 139 154 147 101 58 74 105 148 234 41 245 104 57 51 194 92 39 215 209 163 147 11 21 32 166 49 194 101 17 11 5 32 145 65 196 38 161 60 251 66 200 182 127 31 247 81 180 6 183 88 162 107 254 116 250 221 66 102 193 192 9 28 247 113 42 151 188 45 190 49 67 227 154 151 30 7 252 52 105 38 161 154 
69 27 110 220 207 92 207 99 70 1 66 243 32 128 198 255 129 166 193 92 110 233 94 166 24 244 93 61 112 232 91 69 110 144 215 102 224 25 253 112 246 168 4 33 63 58 189 198 167 148 21 203 165 152 161 71 48 91 130 222 148 220 217 36 90 179 187 54 227 22 77 163 221 48 203 65 110 38 181 50 136 112 242 85 125 153 151 147 97 220 55 120 200 171 189 171 147 152 30 153 
117 118 167 125 202 2 165 82 75 229 238 40 78 89 72 226 167 121 237 250 211 72 218 70 68 253 50 157 101 119 134 225 48 126 13 41 56 160 147 248 150 146 93 204 136 72 178 181 229 233 64 235 87 243 229 44 171 62 166 92 60 145 129 90 216 42 165 79 35 146 149 82 39 218 191 152 12 230 135 29 42 12 235 11 6 119 74 227 252 167 76 148 28 59 162 133 191 162 29 21 
243 157 25 138 67 92 172 118 132 171 42 51 22 174 171 248 239 215 208 49 38 103 50 9 44 70 176 67 30 214 24 30 123 162 74 29 59 39 53 115 72 236 105 12 204 41 65 240 188 0 146 152 123 97 151 189 52 108 4 187 209 95 243 244 68 208 227 69 117 20 124 106 67 217 173 64 30 162 116 225 169 118 88 124 30 96 110 180 61 231 174 58 211 206 221 67 10 156 250 210 
68 192 114 244 217 31 76 21 187 194 127 50 250 247 99 45 175 33 135 159 243 220 217 205 174 123 238 6 147 98 82 56 23 148 224 151 23 56 187 63 142 199 214 79 3 170 23 100 181 181 125 68 53 70 10 184 244 48 116 95 22 63 128 198 214 112 59 175 66 75 203 100 62 221 5 172 158 113 122 246 70 34 24 193 242 148 203 188 41 136 97 50 59 250 191 185 104 199 190 13 
141 129 138 166 19 205 36 193 155 218 193 163 34 164 152 78 44 84 7 210 48 30 149 234 248 132 142 66 207 73 16 24 38 13 2 88 136 42 9 115 186 235 253 138 75 115 194 140 188 101 229 107 72 155 16 125 238 127 24 182 219 67 204 129 56 151 93 172 142 164 26 105 7 254 229 114 169 213 76 237 214 34 200 253 243 59 201 151 34 183 214 162 237 247 61 60 3 83 78 208 
76 83 80 121 63 245 96 195 99 144 34 89 229 50 106 212 198 154 143 123 16 170 228 92 97 42 28 229 211 129 206 23 253 135 42 150 105 229 244 209 170 227 131 95 195 217 183 123 253 151 133 33 11 69 177 46 92 78 134 95 201 131 180 75 101 124 80 8 141 74 159 236 43 154 75 220 159 19 222 40 54 100 165 229 28 225 78 212 170 41 128 118 111 220 18 74 86 102 102 93 
146 153 143 43 167 58 234 241 232 149 188 246 234 135 105 213 187 81 132 169 44 94 40 139 36 35 138 209 151 130 117 116 114 6 29 138 236 228 120 223 154 179 223 203 247 129 193 114 1 230 214 88 98 204 179 160 51 207 10 241 26 94 74 88 208 245 42 176 92 7 124 209 217 16 164 185 204 73 180 228 126 55 170 132 30 76 140 126 211 127 182 69 52 253 155 196 97 246 8 15 
97 201 88 172 242 53 30 211 159 65 106 221 64 131 133 164 160 173 167 21 199 68 103 148 155 236 156 138 136 230 179 142 87 66 199 198 248 238 98 123 249 30 39 18 227 2 105 95 154 139 50 64 22 133 232 99 234 223 89 128 143 60 33 179 24 67 143 146 48 223 52 254 25 136 92 133 146 118 89 246 81 184 223 120 39 177 190 56 66 79 47 47 97 192 172 204 86 93 237 81 
191 13 40 46 49 118 74 137 73 245 159 209 73 156 209 135 85 178 11 121 209 105 11 188 18 159 41 133 50 202 179 149 109 8 189 142 43 63 149 133 8 228 14 160 158 169 185 136 17 8 113 243 199 50 210 141 5 38 143 43 98 222 202 134 60 247 182 159 39 58 51 146 68 59 26 217 138 185 200 121 242 5 71 222 193 69 220 120 173 128 83 73 105 84 22 169 217 205 35 24 
181 216 216 158 0 215 48 45 134 208 48 80 14 3 151 10 8 245 29 158 20 38 203 144 195 152 202 8 202 85 235 246 59 75 255 117 130 170 62 160 192 124 198 95 160 93 62 104 137 242 38 38 182 219 1 145 100 139 6 166 109 199 127 112 4 73 72 102 29 109 35 2 221 187 95 157 35 20 127 223 63 25 11 42 22 30 207 212 3 234 98 88 45 168 132 193 236 100 193 241 
165 150 135 39 77 147 113 164 66 58 239 185 75 127 236 226 77 195 63 160 240 85 181 10 227 91 103 178 8 23 235 248 179 170 109 43 206 74 97 33 240 160 186 136 214 65 114 188 195 37 50 197 191 228 51 98 34 195 123 200 150 99 18 30 49 221 155 155 105 93 40 96 51 54 205 2 35 203 184 230 24 227 28 182 226 32 187 5 170 165 34 42 219 116 151 166 151 82 53 33 
81 203 2 155 129 207 51 0 152 67 114 67 39 248 54 73 146 199 167 22 66 86 40 57 197 225 186 59 228 48 133 100 58 134 185 118 238 175 155 153 200 231 180 58 171 211 72 57 167 138 14 245 30 102 110 18 97 122 187 109 57 216 185 237 199 137 212 133 149 2 189 197 187 114 64 202 218 243 123 183 31 90 174 245 138 115 206 229 117 40 165 34 159 92 146 246 129 24 90 170 
110 244 186 107 126 10 46 233 240 175 100 244 42 67 14 83 245 103 187 156 180 146 4 238 175 246 26 15 110 225 217 237 237 200 13 195 103 20 39 7 146 217 165 3 77 139 159 203 124 79 106 146 94 175 97 174 60 129 56 139 123 19 247 77 252 89 202 125 30 241 182 31 243 1 219 175 13 137 12 70 79 90 163 85 119 154 135 185 55 76 218 46 92 166 214 152 118 245 191 148 
72 31 133 27 232 52 237 51 202 6 147 219 110 129 245 199 231 235 117 139 40 195 149 243 169 69 32 40 37 199 68 225 217 12 143 61 232 94 210 76 198 130 121 202 85 239 31 20 210 228 101 83 216 48 4 100 39 110 75 176 212 113 29 21 8 193 179 157 253 129 243 59 235 47 174 21 251 112 121 137 4 12 91 132 194 132 61 85 180 74 253 211 90 28 91 217 19 107 6 153 
181 136 150 32 6 51 224 219 9 250 67 197 119 138 179 146 25 207 225 138 51 189 158 51 26 252 38 241 192 109 96 2 188 36 57 245 168 150 96 53 155 242 61 167 130 241 160 77 218 1 66 204 9 114 141 255 120 60 81 1 163 209 123 95 143 45 214 82 22 232 114 37 153 0 202 53 80 210 205 46 3 154 241 135 144 222 238 121 171 224 111 122 25 209 243 122 191 107 82 196 
123 162 2 254 147 101 97 244 17 34 235 62 205 192 248 60 178 79 201 86 23 178 227 43 66 4 145 215 124 61 236 188 48 184 38 75 158 70 245 186 82 193 50 59 18 11 142 250 24 203 132 145 155 71 20 50 171 26 198 152 78 212 53 221 179 130 59 176 164 200 35 175 145 239 130 159 93 149 146 1 161 108 64 155 202 232 236 255 19 59 167 128 116 148 129 178 122 190 49 31 
197 132 200 93 180 107 131 8 131 248 197 254 85 141 233 229 203 239 125 249 99 165 140 140 120 165 78 249 70 216 91 55 164 240 23 56 142 233 15 254 201 0 157 248 173 13 126 179 122 18 77 107 99 192 216 231 79 95 123 103 103 65 82 67 180 40 226 5 167 218 187 26 240 223 119 13 19 242 112 170 116 239 14 134 187 210 247 167 110 146 70 48 113 88 27 110 41 248 233 13 
18 98 97 234 41 188 151 36 10 164 35 43 58 39 34 98 41 75 211 9 103 180 172 9 26 20 91 97 89 143 118 181 185 111 3 107 171 236 66 39 1 25 213 184 177 87 126 172 15 69 146 154 164 122 10 81 213 3 221 218 145 137 234 68 95 174 206 61 225 65 188 158 35 77 65 57 49 169 209 147 204 75 224 54 60 71 109 93 113 126 70 57 140 210 147 205 250 186 237 163 
58 106 168 244 4 102 94 44 240 219 204 230 60 207 1 170 85 242 33 182 209 180 208 61 113 105 71 88 2 64 85 81 120 157 240 5 232 249 232 83 6 87 196 164 142 193 90 77 5 12 2 107 114 191 197 53 71 108 1 206 70 24 241 154 47 26 41 107 72 104 195 199 80 81 170 92 107 85 250 64 51 0 247 223 104 78 181 248 81 95 150 30 110 218 244 128 228 137 101 136 
38 229 47 196 17 111 213 159 207 173 169 64 184 133 166 218 166 0 113 135 130 133 199 5 154 30 153 219 19 216 47 140 170 118 130 170 251 81 208 43 24 158 8 73 234 98 180 87 103 49 169 228 45 202 75 84 66 55 182 82 118 223 6 18 93 212 204 15 250 199 47 41 204 170 223 255 68 198 145 228 55 219 22 222 20 106 202 13 0 100 27 220 64 57 16 67 42 66 123 121 
182 245 144 157 137 169 200 97 219 47 100 31 88 176 128 71 4 126 89 39 33 231 109 54 225 145 55 184 148 157 227 101 66 86 134 95 106 123 112 111 13 184 187 197 137 11 128 199 145 141 166 156 230 137 212 108 208 155 30 43 43 87 121 31 162 100 72 245 148 224 132 138 196 66 132 124 226 240 216 33 178 204 9 235 208 39 24 132 155 141 6 252 177 218 146 11 204 158 185 39 
199 170 187 6 198 15 255 98 30 31 175 76 165 132 8 35 120 86 251 115 200 190 54 156 40 91 178 252 77 172 235 207 118 115 98 198 86 202 139 122 18 8 0 14 156 226 138 116 148 68 168 255 46 192 218 111 187 192 121 23 45 194 131 36 31 50 36 226 99 168 202 89 81 1 51 96 253 76 42 64 108 29 177 164 74 145 92 62 122 195 104 234 40 92 73 10 154 108 1 58 
76 130 12 7 217 13 231 135 222 151 55 81 32 149 56 20 185 92 107 251 253 88 134 16 127 57 125 184 224 230 48 230 233 126 78 120 65 149 193 153 237 175 237 196 86 55 114 225 250 131 46 235 122 121 136 50 208 26 229 207 173 219 157 30 218 250 144 220 110 219 236 241 104 113 217 210 25 241 102 158 244 108 229 62 49 30 171 34 119 143 113 120 123 38 125 152 31 24 196 178 
85 7 212 0 8 98 243 188 65 35 109 149 171 15 103 68 249 71 195 216 247 177 114 197 35 88 48 46 27 253 35 1 174 58 104 88 188 58 105 211 230 186 59 179 56 169 243 177 206 210 99 227 130 223 32 218 252 234 67 9 99 155 213 218 163 238 176 20 161 59 16 171 44 89 173 52 96 160 245 86 230 224 2 243 183 124 36 212 110 24 250 75 79 195 105 176 198 163 207 70 
124 120 239 170 121 25 31 86 245 156 207 144 92 18 177 74 152 172 205 108 129 89 204 145 214 41 214 192 77 131 173 51 42 147 187 127 214 137 20 243 137 121 50 45 74 52 70 204 218 81 147 29 66 138 16 21 175 224 123 254 22 125 198 77 149 204 19 220 38 194 128 204 67 81 69 13 53 177 202 104 95 134 151 75 74 195 113 140 13 165 169 30 165 9 39 196 40 35 120 255 
124 138 119 137 67 184 66 211 171 21 254 252 127 247 76 139 112 52 168 78 73 132 71 45 183 136 162 222 214 209 200 222 240 248 52 92 103 99 75 78 27 147 119 145 31 254 132 99 8 177 52 33 69 253 19 178 48 146 6 5 81 252 111 37 199 46 172 17 43 243 242 137 123 191 4 32 127 58 83 141 153 44 113 155 177 90 177 232 139 166 187 70 43 94 80 24 200 221 189 206 
210 47 100 42 90 1 13 78 119 201 57 183 103 81 113 249 202 113 99 25 51 111 112 140 36 117 38 240 43 238 118 25 21 218 186 222 218 21 187 122 188 175 205 20 215 158 223 6 204 201 15 109 100 141 194 97 91 122 174 242 203 105 60 238 163 95 70 29 37 165 94 74 10 210 30 249 68 6 139 34 67 148 120 163 39 252 25 182 155 111 12 135 121 235 196 132 183 104 4 201 
251 68 148 182 52 73 20 76 175 46 17 84 33 216 53 133 119 156 22 170 4 182 127 154 49 215 25 224 218 123 32 159 191 230 79 108 203 159 181 178 58 15 14 168 17 209 96 144 194 122 41 183 135 46 246 30 251 69 114 143 191 170 186 173 185 27 26 65 113 43 70 189 177 191 182 218 233 212 74 37 187 134 65 61 185 23 204 29 185 41 160 128 143 54 30 249 102 11 173 86 
221 178 99 93 23 86 76 189 13 28 64 44 47 206 179 39 216 94 165 231 178 141 27 62 169 186 69 126 109 81 222 41 16 132 118 80 63 166 197 96 132 101 163 211 16 212 206 55 173 154 220 198 186 127 145 124 119 81 193 36 60 26 121 136 94 38 49 87 49 203 5 24 47 177 46 69 86 245 95 176 182 65 141 191 192 84 224 49 151 217 174 45 249 153 65 53 232 5 173 249 
238 89 186 40 42 115 28 206 239 8 120 17 193 227 207 127 255 18 162 215 73 29 154 109 170 64 30 152 182 93 97 89 7 194 125 43 199 78 181 252 52 216 206 158 150 248 15 162 69 156 158 224 128 83 102 196 86 26 206 74 14 32 245 180 12 100 88 200 75 202 122 145 7 198 3 252 89 13 135 3 90 26 62 22 2 17 234 29 147 191 91 6 200 206 231 109 22 138 144 14 
116 183 88 61 83 145 162 238 61 122 147 15 68 212 146 228 73 197 104 172 208 43 19 255 64 23 143 2 13 131 56 67 138 244 206 84 67 172 159 150 42 217 191 160 77 28 120 126 153 194 26 203 248 37 78 40 74 167 199 177 117 25 236 132 168 45 17 219 76 240 81 18 123 129 155 32 251 225 27 165 91 232 194 115 169 129 221 87 48 53 199 163 99 92 144 201 180 63 194 134 
150 221 132 164 80 111 65 165 94 92 158 127 172 220 31 192 83 238 149 162 103 75 125 100 170 59 211 51 133 16 202 238 205 211 50 78 104 48 174 164 15 9 82 205 38 0 38 81 184 48 86 132 136 158 50 238 186 190 115 240 30 79 68 57 157 170 239 49 126 164 197 21 206 14 214 19 171 202 240 209 109 96 234 253 236 153 50 73 184 103 56 136 105 46 18 177 7 207 93 98 
84 26 4 81 168 26 59 22 101 56 55 125 170 35 164 89 157 173 143 221 173 37 71 74 16 106 118 122 40 107 11 13 149 123 145 186 100 60 146 14 96 29 178 155 3 31 45 247 237 143 75 235 64 54 125 116 90 80 219 101 202 214 239 50 107 255 152 183 7 207 64 124 148 211 27 194 139 124 253 213 105 83 227 209 237 230 238 191 174 6 106 246 166 254 225 168 169 255 186 48 
102 161 70 228 10 42 205 119 227 252 61 27 31 115 40 32 91 242 25 232 24 83 158 26 82 151 109 71 107 117 162 234 242 112 167 25 238 43 182 214 57 234 101 212 162 130 162 60 66 218 118 204 83 97 116 195 167 131 29 47 159 173 75 51 196 19 12 221 191 253 224 44 21 179 13 240 233 59 122 225 172 171 29 72 186 149 114 44 242 47 218 139 252 131 83 26 90 82 143 222 
1 230 39 196 38 242 100 200 88 123 214 62 226 108 143 3 124 238 128 152 53 126 95 221 4 180 124 225 195 238 195 56 218 107 192 226 70 130 215 94 2 71 167 197 38 210 196 62 97 108 39 88 23 114 52 97 184 252 61 150 1 79 163 186 26 217 202 109 179 99 14 208 231 239 75 212 56 8 37 114 161 45 92 131 98 201 159 201 168 181 186 82 215 69 46 111 138 103 106 131 
216 15 170 229 35 117 26 253 127 6 51 52 200 49 230 73 172 46 243 28 52 61 105 71 12 247 5 252 226 43 185 221 204 254 183 213 43 134 44 217 234 238 238 60 223 216 72 160 158 152 52 150 227 87 163 158 170 125 190 126 33 194 8 212 63 171 181 152 114 174 216 116 209 152 98 14 39 29 122 201 23 136 115 155 111 32 15 129 248 121 58 69 61 94 100 65 118 90 161 44 
205 51 168 249 240 140 177 216 52 190 233 162 48 67 232 231 127 49 33 136 110 95 224 73 61 150 244 68 32 105 92 231 250 150 183 230 229 153 191 195 166 170 220 219 200 231 83 220 139 35 144 88 209 85 217 28 234 151 68 186 197 63 95 154 163 71 123 101 187 232 41 172 18 81 144 8 39 42 26 242 238 139 65 147 184 255 165 140 53 98 251 153 95 243 245 22 193 182 204 226 
131 232 232 217 208 178 176 140 232 103 148 206 232 19 112 196 213 151 44 154 131 40 190 145 110 213 224 235 218 58 207 144 130 240 141 190 233 3 73 10 118 212 48 51 248 36 107 73 46 231 24 230 9 174 58 172 79 206 190 209 135 246 193 145 200 81 12 112 190 8 100 185 49 19 99 21 27 183 21 187 147 222 68 22 40 136 159 224 240 182 197 51 164 66 95 181 59 144 248 138 
125 38 143 77 52 181 139 188 239 57 52 69 24 140 0 46 131 123 168 40 115 94 153 230 82 158 193 233 47 174 190 114 182 80 226 88 117 95 188 58 160 35 253 102 72 199 234 32 189 100 20 151 86 34 1 9 98 99 30 174 209 159 194 129 185 146 200 14 218 213 66 178 252 34 173 16 162 131 75 38 254 90 176 71 204 230 40 201 19 183 51 83 51 176 19 11 138 167 44 214 
12 168 236 149 116 163 170 55 155 12 252 246 55 51 112 160 84 20 6 230 214 77 17 15 203 147 46 142 52 173 122 13 246 218 131 50 158 213 64 125 226 132 27 26 74 93 44 28 120 32 210 91 140 160 10 185 138 107 24 58 41 124 33 166 196 233 187 76 107 240 235 167 219 237 0 243 182 165 47 6 241 125 68 187 107 49 174 213 157 88 129 13 121 116 136 18 73 92 128 137 
52 59 2 139 106 195 232 72 111 115 0 162 152 244 167 112 79 183 57 115 227 208 165 193 134 40 201 210 80 188 201 4 84 233 102 51 195 153 31 222 172 208 41 24 114 135 84 236 167 9 50 254 214 93 21 104 125 90 162 242 246 117 202 120 192 162 213 229 220 252 94 229 88 95 98 38 93 35 80 147 138 32 173 225 58 152 211 4 215 139 76 111 57 32 225 244 89 191 94 255 
195 213 195 118 141 29 102 254 82 171 169 56 89 15 156 96 176 32 27 194 90 157 219 162 188 99 196 24 235 40 202 18 120 153 79 182 87 157 210 107 116 33 202 67 45 48 237 141 203 45 70 197 183 182 25 237 18 203 43 49 217 214 239 254 49 213 212 132 50 154 255 82 246 141 58 120 189 103 201 203 59 238 23 202 116 58 255 56 232 54 112 24 141 23 211 230 115 167 228 213 
198 214 35 237 109 222 214 150 234 235 197 30 118 144 84 9 162 148 113 73 69 46 193 216 221 145 182 123 219 162 105 45 102 208 167 35 124 15 191 231 205 209 70 64 236 133 252 191 132 231 18 45 3 117 234 142 135 28 196 160 116 92 91 119 130 139 177 11 144 252 137 183 54 46 156 222 94 64 37 130 97 13 14 221 254 224 227 160 38 254 232 111 146 58 116 53 199 193 129 221 
235 81 202 237 28 64 94 49 134 0 103 108 93 246 250 153 13 12 170 173 133 201 11 184 165 177 83 14 142 204 182 158 172 80 189 214 84 131 246 175 64 93 9 67 114 150 232 214 65 156 179 241 194 185 63 85 36 61 126 54 89 143 225 88 149 67 247 176 203 5 175 15 214 82 76 208 192 186 78 155 117 198 67 92 10 245 119 172 221 92 113 189 125 197 33 242 217 236 46 14 
243 247 183 27 123 15 161 254 171 136 12 220 191 231 147 104 123 214 194 183 90 86 173 158 251 71 129 78 242 138 217 26 83 78 242 171 212 171 96 158 160 77 228 212 237 168 139 220 95 140 164 228 250 139 47 135 143 149 225 19 111 206 63 255 179 81 255 147 18 52 90 34 102 100 91 243 89 98 249 236 17 96 142 197 22 204 27 222 118 154 82 187 65 241 186 237 125 48 47 92 
98 107 180 71 51 21 246 87 63 121 83 27 140 192 231 79 236 19 73 245 145 192 24 208 105 199 179 173 171 136 101 218 136 17 247 69 188 36 209 130 140 32 248 38 151 254 9 34 134 79 33 201 95 97 65 18 37 135 252 121 13 29 98 183 239 160 129 57 128 49 129 113 234 69 0 78 181 164 66 193 25 70 53 8 42 134 15 36 190 69 3 1 26 12 154 60 106 251 163 84 
229 217 37 14 50 11 12 181 201 167 198 140 222 252 216 169 194 241 146 52 72 240 226 195 191 68 218 103 20 248 161 22 103 185 212 177 106 246 251 120 54 154 227 147 138 89 98 183 103 254 36 205 176 48 31 90 176 214 211 255 223 115 255 74 196 226 70 88 146 51 34 168 133 140 103 224 92 235 224 40 71 253 95 120 120 151 72 21 36 100 184 57 97 54 84 188 85 18 216 103 
20 137 254 148 49 71 164 106 4 243 195 9 8 222 40 127 79 128 3 92 247 66 170 4 172 24 117 115 76 212 30 69 170 67 127 48 248 60 24 34 189 64 106 213 55 108 149 101 157 45 121 14 133 6 234 192 101 250 18 19 22 3 172 251 8 246 124 28 7 238 78 232 251 138 197 1 126 166 231 77 93 111 122 207 240 242 124 26 1 72 109 30 201 137 200 196 109 156 151 178 
119 3 91 141 178 197 71 154 107 248 190 176 230 25 179 154 49 115 80 133 244 118 143 99 211 58 251 20 97 147 225 115 227 174 76 45 38 155 221 146 225 67 199 150 190 1 126 55 23 25 152 146 134 28 105 62 230 85 251 7 150 37 65 132 68 122 250 121 59 239 165 184 151 66 37 106 239 189 71 7 74 156 215 20 80 205 15 117 98 201 96 35 250 15 10 252 155 226 211 254 
141 33 226 96 216 193 66 7 1 16 195 169 165 236 87 148 239 216 93 199 90 49 220 166 127 155 139 72 185 65 46 108 198 219 38 13 126 120 220 149 117 116 242 197 212 190 35 114 122 167 33 159 111 154 197 10 190 134 174 249 26 243 35 69 5 181 215 33 242 220 105 210 171 15 183 230 136 80 251 144 193 86 40 72 192 76 22 114 182 78 38 73 110 95 237 93 12 180 124 17 
155 102 255 73 144 30 84 198 79 66 103 231 31 129 214 0 150 40 216 134 54 136 186 159 89 43 12 45 231 141 239 54 172 184 78 244 154 58 50 211 193 229 70 50 42 171 200 211 127 85 126 200 71 198 50 129 29 183 151 71 158 224 36 84 20 82 204 164 54 132 93 177 46 146 193 253 47 25 71 68 32 63 85 152 56 25 128 214 64 79 215 116 187 29 124 153 50 10 180 102 
183 112 152 109 36 129 125 17 1 213 54 67 124 135 167 104 191 46 11 220 171 24 141 185 55 119 1 36 11 102 114 181 124 103 200 137 18 166 1 123 184 239 150 227 116 41 139 198 83 116 116 177 178 188 5 106 85 57 53 161 60 167 224 159 99 133 83 177 147 217 180 193 193 205 89 151 230 111 254 246 213 129 9 140 173 20 235 124 123 158 128 119 36 69 66 229 166 21 67 67 
120 232 226 212 160 227 193 194 251 115 115 212 7 145 175 169 3 56 79 121 138 178 58 104 143 99 231 147 211 73 4 41 85 92 80 139 28 36 91 78 107 201 74 39 107 62 215 91 159 162 137 53 155 153 152 39 172 9 14 116 53 152 104 183 114 26 17 4 105 44 90 137 121 157 73 95 160 114 208 110 188 175 102 149 124 223 121 4 133 131 142 167 97 158 159 48 62 112 87 229 
127 71 233 252 252 150 146 187 223 211 211 1 144 239 204 111 72 210 156 168 162 68 47 115 71 100 44 245 24 197 7 211 101 220 11 203 100 160 173 109 165 4 121 233 161 231 81 183 133 211 253 225 1 194 89 84 193 116 196 228 133 198 51 87 170 133 119 127 216 50 193 43 101 108 123 198 190 128 199 132 154 146 204 105 62 48 110 168 212 200 152 233 96 142 47 41 50 168 59 162 
129 197 106 21 96 175 251 189 108 180 0 199 243 141 3 21 236 232 10 146 102 163 46 148 75 251 24 211 141 6 160 78 119 217 43 152 237 53 175 153 164 3 37 143 212 222 246 155 104 174 132 214 81 254 25 202 84 128 144 171 229 173 234 87 188 57 252 69 183 161 204 20 79 128 211 101 193 132 77 155 178 200 146 115 58 55 80 125 157 21 24 191 141 156 117 213 203 203 194 84 
70 54 98 169 199 228 148 197 208 246 156 0 185 65 160 87 233 19 205 196 59 164 89 107 34 22 73 90 76 237 54 252 237 190 30 90 52 252 215 87 222 4 217 45 207 168 128 120 148 44 56 108 104 158 249 95 174 34 226 149 250 182 60 30 164 88 170 19 46 117 54 92 215 186 45 215 103 238 227 212 53 189 137 6 195 167 207 233 240 126 185 185 75 132 87 207 255 222 84 119 
147 6 165 124 127 20 171 85 101 25 195 64 25 241 74 115 7 35 198 5 43 112 193 169 192 72 134 12 217 54 95 82 182 201 93 18 206 55 187 49 54 5 20 174 53 95 89 6 126 98 226 11 140 66 27 155 2 47 120 177 201 176 44 45 46 236 59 115 179 153 110 120 222 245 159 118 88 54 158 27 249 40 30 104 231 6 207 242 165 234 63 105 220 146 218 127 227 201 102 61 
5 66 178 27 209 155 95 166 140 89 88 88 77 242 137 208 101 191 161 204 163 240 153 1 23 53 84 113 80 81 211 83 83 240 26 208 145 214 16 42 69 18 192 182 97 153 143 108 74 138 174 250 235 16 82 169 177 109 8 134 164 46 112 51 232 199 142 151 179 16 186 172 123 84 170 198 240 155 84 133 222 10 84 71 241 185 143 228 125 36 190 12 110 164 50 225 98 231 150 13 
20 137 71 20 47 199 247 37 79 47 87 204 182 235 187 234 49 168 29 6 41 138 19 138 179 228 177 98 172 41 216 243 194 117 102 115 128 41 94 166 218 3 184 35 238 129 161 212 79 184 143 69 111 127 228 136 122 185 224 227 131 21 59 253 100 122 130 128 64 32 196 146 220 254 62 58 205 83 214 183 231 209 33 209 245 2 143 240 224 7 208 150 168 87 145 74 229 150 241 52 
153 186 56 103 93 134 153 169 142 150 6 75 15 180 134 194 37 248 251 196 192 159 101 215 182 179 183 190 7 99 126 128 170 32 207 245 115 152 20 55 250 248 175 213 180 154 142 136 237 148 202 182 203 238 9 44 42 157 165 29 61 119 116 179 202 107 188 85 65 164 160 114 245 236 115 196 75 119 20 6 204 41 75 25 119 144 80 65 0 123 73 169 82 96 200 26 12 83 104 207 
215 67 86 29 55 255 128 33 19 126 28 113 166 101 250 226 5 132 102 167 4 154 83 222 176 169 111 111 53 155 159 127 73 89 254 76 195 35 10 220 49 210 253 183 121 112 99 232 234 52 24 106 55 110 73 227 236 171 247 208 73 20 151 6 3 135 244 169 184 29 183 208 114 206 168 12 67 240 173 67 200 67 201 51 207 178 255 134 170 16 72 104 14 94 34 190 233 171 107 2 
192 155 87 93 165 235 203 84 3 27 139 248 150 72 131 247 7 49 238 214 102 66 73 76 9 32 127 77 118 207 244 254 239 166 103 84 44 6 89 83 166 47 154 153 46 250 138 10 101 187 71 171 228 160 233 121 128 73 241 193 84 87 226 153 98 150 154 114 10 104 141 107 171 0 120 43 37 43 85 183 227 13 96 153 194 40 140 225 51 126 63 53 228 152 36 21 215 150 20 236 
195 121 185 149 188 245 72 70 65 31 17 212 234 145 93 245 42 173 171 218 155 25 248 60 178 184 239 116 189 144 56 41 127 252 81 200 136 238 151 4 123 119 5 30 242 253 134 46 178 29 141 58 28 221 36 189 86 26 209 221 150 116 228 74 249 253 104 195 90 231 195 247 118 1 27 210 23 91 230 130 34 249 202 210 72 217 78 195 226 41 174 57 116 117 94 184 187 32 120 203 
28 41 124 14 122 201 169 1 81 36 230 182 106 77 118 38 142 103 220 130 99 18 19 137 176 108 126 73 141 65 108 107 132 160 5 219 78 250 152 208 233 205 17 17 4 250 161 28 53 136 95 239 109 107 210 193 105 83 48 76 106 179 9 40 240 142 21 27 155 75 93 151 76 174 133 56 220 209 146 83 175 225 248 202 223 11 241 200 194 128 38 65 95 245 0 231 6 167 229 197 
108 225 195 132 197 170 61 129 245 238 12 87 35 110 33 234 215 170 236 169 170 201 57 162 176 117 0 211 60 88 34 16 94 3 222 12 83 23 138 176 147 27 144 188 139 111 203 7 77 114 105 64 186 200 169 179 86 168 168 152 89 54 193 30 115 32 47 42 94 152 234 237 127 34 134 65 66 121 153 198 76 32 151 87 0 102 21 114 168 241 18 12 176 202 186 69 53 240 56 103 
79 231 32 36 241 85 157 49 207 137 93 150 181 10 215 45 155 220 60 124 102 209 102 12 147 202 105 164 156 85 85 50 44 249 92 3 48 151 219 155 108 58 34 234 245 225 138 205 60 41 223 15 154 82 74 150 196 215 228 240 90 79 61 213 242 181 17 199 110 81 175 224 16 89 150 15 131 108 138 110 169 42 54 145 147 242 47 200 157 219 47 244 55 125 201 106 124 144 98 183 
58 96 225 117 197 222 247 101 169 96 236 192 146 10 178 118 116 22 173 227 248 47 252 244 164 57 63 190 207 189 58 44 226 32 172 116 67 111 10 204 67 141 19 57 78 239 14 124 239 141 191 27 171 192 164 113 191 35 25 144 152 206 14 222 100 22 27 63 152 228 240 65 233 195 40 154 217 189 238 251 53 127 21 225 188 174 145 184 68 152 220 200 89 45 1 164 180 173 135 91 
75 176 168 62 237 62 14 60 142 163 153 186 247 3 166 122 41 241 203 115 178 73 138 6 3 155 53 156 170 59 163 67 1 149 160 24 95 215 113 167 172 146 118 248 38 143 57 55 220 184 167 21 169 131 150 93 235 100 222 250 119 161 61 51 154 53 199 142 207 61 29 38 242 240 230 48 88 194 219 93 144 21 51 16 141 51 159 198 2 245 4 219 122 164 136 14 155 15 186 57 
136 117 186 144 253 224 165 87 63 99 31 100 143 189 175 65 36 169 179 22 59 204 192 250 141 81 64 155 80 185 41 188 182 152 122 62 196 66 190 32 93 235 229 19 134 89 253 116 16 55 243 54 82 117 56 105 69 158 106 151 112 170 117 171 151 130 175 111 163 204 4 91 170 225 162 4 159 58 61 200 177 148 83 79 75 231 161 5 167 221 90 157 222 76 99 156 239 114 123 59 
102 21 99 115 71 110 169 202 55 5 215 61 141 74 106 138 78 206 153 85 141 237 73 208 140 217 166 87 64 4 134 223 45 120 195 240 41 79 158 76 155 244 116 110 21 116 87 209 9 45 91 82 47 129 166 234 206 0 179 192 157 106 151 93 218 239 90 163 153 83 151 6 109 76 111 248 48 193 234 255 124 112 51 30 107 191 70 137 175 183 188 27 129 245 202 32 125 119 69 51 
172 119 224 185 41 64 238 49 173 134 61 246 216 2 107 61 219 155 173 68 35 168 189 216 113 19 105 46 166 144 130 35 205 75 32 48 250 248 55 253 245 159 95 97 68 198 3 149 185 55 203 120 29 22 5 210 64 186 14 136 216 211 85 216 147 79 138 22 141 192 197 180 79 96 121 91 17 126 60 246 189 23 173 183 28 172 224 249 36 238 203 135 10 62 240 114 210 198 177 234 
195 24 220 64 130 81 150 49 51 170 231 24 127 233 205 17 30 85 82 206 57 246 199 75 249 229 218 22 58 183 49 74 5 76 159 17 154 78 214 141 31 41 77 128 134 58 128 170 164 237 160 222 237 28 252 55 104 39 250 56 102 68 41 15 162 112 24 231 0 131 119 70 177 41 20 60 99 16 227 241 191 169 140 6 181 61 23 14 252 105 143 110 183 31 128 117 166 242 203 10 
85 123 13 84 235 22 61 0 103 198 239 220 32 148 242 97 209 156 182 84 205 65 60 244 233 35 73 221 240 41 30 201 171 65 126 133 129 124 86 119 171 186 176 172 115 104 215 162 178 21 207 64 44 67 75 231 163 179 124 78 189 2 107 31 77 82 172 127 191 110 198 248 211 115 116 252 58 200 137 63 234 14 226 64 104 52 20 9 7 4 184 100 82 68 162 198 21 15 92 174 
81 223 206 151 188 179 73 199 88 230 55 205 118 178 13 74 41 255 147 209 250 179 224 231 128 34 164 190 66 234 184 34 190 228 176 231 186 244 210 210 231 95 167 129 165 163 112 88 139 180 175 192 212 211 138 220 157 114 194 52 174 224 187 126 105 49 207 105 115 183 87 205 61 212 179 5 9 244 105 4 93 54 0 26 122 75 7 87 189 72 188 90 159 188 184 46 159 15 46 164 
90 225 138 121 105 10 52 102 197 251 119 203 237 169 196 109 218 47 32 75 9 179 214 19 116 111 132 133 212 43 140 198 119 97 225 202 121 160 131 112 51 7 117 239 33 191 243 64 72 245 172 85 61 170 65 6 48 82 118 123 82 63 39 47 62 65 97 59 16 244 7 104 58 74 123 110 87 69 34 74 16 234 129 237 27 78 119 174 189 125 139 187 57 165 55 75 46 35 164 56 
70 81 58 39 103 67 132 95 68 54 216 138 149 248 100 193 168 200 148 111 0 255 203 213 167 80 200 74 113 192 36 86 74 144 73 118 142 173 167 249 248 106 104 243 67 112 98 194 40 6 9 68 64 24 94 128 156 17 1 187 95 219 80 160 124 3 160 243 247 154 227 204 77 130 209 255 2 133 37 32 254 85 88 89 19 53 11 140 189 211 69 242 52 75 97 116 223 240 225 67 
98 85 213 149 228 137 52 204 51 81 128 166 202 170 89 185 246 13 147 84 78 91 171 93 246 118 59 25 169 40 30 252 152 228 137 164 112 15 133 133 231 182 107 227 170 251 17 215 236 244 216 74 59 192 24 140 169 245 98 243 133 190 29 43 57 249 141 13 149 30 46 87 216 103 21 24 112 60 235 207 48 76 118 232 138 237 227 193 166 117 85 148 228 27 130 188 27 242 247 60 
99 169 207 76 126 143 2 175 170 96 86 167 149 53 245 46 26 235 120 101 224 129 136 146 4 232 147 240 169 74 149 197 178 8 101 70 190 104 142 202 109 131 172 245 234 3 172 1 197 65 12 215 2 199 9 120 158 188 246 112 201 84 193 189 154 107 138 201 181 109 34 8 80 47 204 14 102 175 21 66 237 133 220 210 108 254 108 94 120 126 194 98 220 133 139 61 34 232 127 14 
236 14 185 197 92 22 139 15 220 81 243 154 45 135 152 239 110 106 61 86 175 212 109 104 70 98 251 158 110 71 166 183 169 61 224 236 93 191 133 110 17 14 135 50 226 150 225 183 222 141 56 49 168 246 210 130 71 45 91 186 124 136 179 206 226 182 60 234 113 149 223 48 193 249 140 125 185 145 8 49 38 55 233 243 211 187 21 121 98 125 6 35 38 147 183 201 218 69 219 254 
40 220 173 152 36 17 183 95 238 98 108 26 63 96 238 205 235 46 182 246 32 59 174 166 174 183 93 243 26 170 116 194 230 192 38 23 198 29 228 119 206 184 15 52 217 251 248 18 191 218 99 6 144 158 85 118 34 47 106 195 210 52 227 14 143 125 183 187 20 21 168 145 174 23 155 19 130 111 1 176 51 183 7 109 54 104 185 91 215 88 47 108 97 12 161 225 194 151 105 105 
166 19 88 187 89 173 38 95 253 75 68 249 251 125 26 69 235 241 200 142 39 172 164 9 44 253 33 139 6 131 202 132 6 166 188 119 61 212 254 34 1 133 126 93 130 57 242 197 176 196 0 10 90 191 55 11 32 86 83 155 246 165 150 171 69 106 40 101 136 31 144 251 234 104 0 151 108 34 181 229 55 121 218 118 185 181 126 148 168 78 181 241 128 186 158 140 23 48 93 228 
83 228 242 130 240 174 62 34 217 76 18 66 118 121 202 147 105 245 97 110 40 254 42 72 204 65 181 99 211 148 244 164 100 249 97 131 212 152 215 242 90 215 252 195 189 254 176 13 129 0 140 219 8 6 38 83 33 25 149 250 59 232 252 186 210 33 206 44 117 228 26 26 150 166 157 93 29 60 179 100 123 66 250 75 69 20 148 196 185 164 214 57 152 209 141 130 193 102 250 183 
