P2
100 100
255
180 185 157 38 180 190 109 184 70 24 152 173 106 90 107 128 64 210 106 59 6 70 97 101 53 65 185 209 12 204 84 173 97 100 128 108 162 156 87 174 201 44 96 162 52 157 145 88 138 156 28 64 119 29 202 84 180 74 41 193 202 90 62 45 144 82 48 131 31 141 135 211 101 185 182 116 219 65 82 84 155 160 188 68 157 124 60 134 220 221 132 31 98 18 44 48 194 186 111 98 
67 176 238 88 174 214 118 121 144 52 172 138 189 130 196 104 221 109 102 109 160 145 238 137 52 60 91 177 135 43 102 199 30 170 197 194 177 216 126 157 154 151 148 144 191 162 66 134 97 125 130 115 159 137 161 68 58 193 123 50 100 132 201 109 74 103 144 106 238 104 120 52 43 82 73 235 100 94 161 55 187 112 70 166 169 131 55 205 53 84 185 60 202 53 162 172 110 161 121 166 
112 73 151 146 53 190 95 131 153 211 220 192 113 84 49 109 204 75 28 136 176 109 126 132 156 80 141 136 96 143 19 231 184 144 191 119 158 186 207 166 65 61 213 96 145 92 67 190 233 145 187 203 149 125 176 113 182 190 103 64 61 119 114 206 63 119 169 127 193 179 86 119 47 107 55 56 166 89 34 201 114 157 62 188 20 98 164 183 77 19 161 218 173 56 224 129 59 133 81 159 
37 211 70 42 105 153 66 156 177 202 139 30 153 72 192 42 170 147 101 37 119 157 46 45 84 145 103 152 106 75 167 122 72 55 228 124 39 114 166 238 95 217 47 122 148 32 164 183 166 188 136 145 198 166 177 138 243 133 126 63 81 213 137 159 88 154 186 47 225 221 184 134 66 79 171 166 160 169 191 96 200 194 35 109 204 84 60 44 54 225 106 123 36 232 169 56 92 67 65 107 
148 58 204 144 80 142 70 65 186 137 163 92 114 199 226 64 138 70 199 80 140 125 201 117 157 156 239 193 60 67 113 225 121 177 45 108 195 156 216 126 128 206 114 53 172 114 61 171 102 111 87 159 48 59 88 51 100 128 77 127 57 173 50 194 147 112 24 80 148 177 207 149 51 68 194 120 193 175 142 139 124 62 145 171 147 117 192 99 40 96 54 91 92 101 75 227 95 70 42 139 
40 58 106 156 149 54 128 69 59 32 63 77 129 29 130 111 171 145 146 101 212 162 108 120 224 115 168 137 167 236 29 86 81 177 128 98 142 71 64 55 196 180 169 120 50 160 83 108 128 174 63 129 73 205 102 125 52 103 96 136 103 136 69 122 55 111 49 130 177 133 112 87 97 218 175 144 166 192 178 37 145 209 79 92 127 69 93 212 85 108 28 79 139 61 196 155 128 105 145 209 
74 103 200 214 232 149 126 76 142 236 72 221 51 90 43 37 96 114 171 43 109 105 17 73 233 156 98 107 155 93 119 49 57 207 150 30 70 142 73 218 120 125 185 58 218 151 180 159 167 94 119 130 149 211 167 82 195 52 175 71 178 47 77 166 138 147 202 66 122 162 184 232 159 93 33 213 136 210 120 144 189 62 174 64 53 25 64 142 100 114 77 147 155 62 201 164 123 17 209 177 
164 77 132 134 145 90 167 109 35 90 129 104 52 209 106 192 56 90 158 132 78 75 205 187 55 90 33 208 83 171 117 102 196 119 183 203 121 193 129 63 170 94 85 77 141 99 85 61 78 79 85 159 113 191 149 177 73 216 94 103 198 201 55 172 217 77 132 64 113 136 152 79 36 123 178 146 195 106 138 125 88 132 99 162 129 213 99 60 92 75 88 20 198 104 88 39 239 52 84 221 
92 113 171 132 96 67 167 184 196 76 224 86 66 115 66 114 171 71 98 150 179 157 133 183 148 202 135 48 155 238 188 127 175 28 25 172 71 226 149 74 116 95 160 129 60 120 114 174 75 86 130 227 141 139 202 97 69 45 133 99 103 166 155 69 115 150 158 55 187 175 83 120 217 65 230 60 95 227 85 157 196 81 116 178 155 126 118 144 113 119 34 59 177 184 65 139 196 93 101 170 
143 71 59 104 86 79 78 199 158 57 220 183 72 157 116 44 141 88 221 191 143 70 186 58 195 84 144 29 173 183 68 220 90 47 161 66 81 237 155 71 243 173 205 34 55 183 174 207 43 180 202 55 117 169 197 139 60 190 139 193 73 40 78 204 34 90 160 41 150 169 79 130 48 107 184 200 140 14 140 64 45 187 72 151 101 148 215 217 74 54 30 141 154 99 89 115 145 135 181 120 
170 68 53 116 209 133 203 72 155 179 155 89 49 71 200 189 105 241 41 111 227 32 184 217 87 94 42 87 120 102 105 157 160 138 153 141 43 146 73 194 74 71 125 229 226 73 197 193 52 181 200 82 44 92 183 207 189 170 95 213 75 134 194 97 71 22 83 76 45 179 119 47 219 59 78 132 109 214 63 105 88 17 162 148 104 107 208 210 58 151 232 110 136 153 84 115 108 213 74 153 
116 208 210 180 155 133 75 49 103 193 185 154 213 181 193 241 196 53 221 50 119 116 69 103 109 225 174 181 105 75 91 139 130 94 189 160 51 170 138 88 98 95 223 91 114 125 120 41 173 90 75 118 58 227 136 111 73 213 64 109 102 178 81 106 185 220 195 28 74 205 37 235 204 128 55 198 48 72 222 162 40 23 162 128 112 83 168 35 194 76 69 155 41 51 51 73 170 181 150 222 
159 82 193 93 70 55 97 167 47 84 53 150 159 113 197 91 135 143 171 127 138 36 106 209 122 165 22 43 33 181 195 171 142 49 74 69 202 204 144 78 59 101 62 158 168 194 22 112 136 218 203 211 73 146 60 101 130 49 106 206 100 191 119 96 58 70 122 100 60 62 103 131 156 56 67 136 115 122 147 112 100 82 194 58 108 110 220 180 120 141 13 85 104 187 70 45 158 126 184 205 
75 49 42 138 151 82 128 90 68 78 85 47 215 75 104 139 73 176 216 99 182 104 220 71 167 100 241 85 54 36 180 140 96 145 180 171 92 210 241 132 42 216 56 202 228 134 204 78 141 113 59 136 109 155 140 148 176 110 69 210 72 128 135 199 64 194 202 118 120 157 112 77 202 161 80 199 102 223 53 125 142 88 53 185 227 194 194 38 199 126 63 120 85 132 175 62 215 39 24 191 
235 223 34 154 84 147 169 179 136 211 102 108 195 167 129 131 169 43 40 92 101 187 184 183 158 159 219 209 125 32 161 173 232 139 110 63 74 222 37 203 99 84 51 199 159 102 138 77 133 170 146 65 167 51 191 48 143 206 84 187 157 150 187 212 167 202 125 118 194 67 77 155 133 116 148 181 96 125 201 216 33 145 34 93 73 104 150 218 68 150 197 171 203 200 79 231 112 154 155 109 
183 110 72 153 58 105 197 22 70 68 117 199 70 187 65 176 61 114 147 90 173 94 222 180 189 159 108 197 83 80 99 132 195 98 134 149 197 88 13 153 198 202 124 203 229 127 184 105 194 26 183 137 150 161 225 148 194 89 154 57 157 155 62 109 95 63 163 78 171 124 83 70 126 199 168 117 146 44 38 122 79 89 56 129 163 115 167 60 182 79 92 204 153 155 157 191 67 212 80 89 
13 133 65 190 66 108 199 69 40 32 106 110 82 112 131 199 100 224 171 98 104 173 21 213 64 142 110 112 46 17 59 142 28 114 161 50 61 183 143 145 177 187 131 96 211 120 238 195 189 172 102 122 200 153 112 91 128 131 62 56 192 65 144 228 119 113 26 70 99 104 86 217 52 114 162 175 207 221 118 95 210 40 35 74 91 135 29 39 119 110 78 123 112 161 180 62 170 167 174 141 
138 205 70 143 17 162 121 208 45 114 120 40 48 210 116 142 67 91 131 106 87 185 56 137 70 58 121 168 84 231 163 75 34 125 40 182 147 142 94 143 47 28 111 147 66 83 59 178 15 105 109 92 48 152 179 47 208 178 50 143 134 144 198 184 66 156 188 184 188 173 83 200 101 251 189 164 192 151 104 203 134 52 58 138 96 197 86 72 142 140 130 199 74 168 40 106 185 39 217 201 
30 43 34 152 88 121 163 91 208 160 71 209 89 102 169 75 159 160 197 150 180 99 203 102 122 60 192 77 79 120 146 23 220 196 118 146 46 171 80 141 102 150 33 112 145 106 178 85 246 22 54 124 142 65 166 143 154 42 178 214 167 82 91 117 112 47 132 78 152 177 158 220 103 92 99 83 175 122 190 104 123 183 178 128 108 95 81 80 13 155 155 124 135 157 23 59 114 108 182 83 
146 170 182 98 102 201 171 131 234 68 32 207 75 143 92 67 105 125 132 94 116 157 93 145 69 181 199 195 163 164 230 152 132 135 65 194 117 161 20 211 160 161 168 102 101 151 166 104 82 16 148 224 31 191 38 151 169 180 79 190 154 208 112 138 78 174 71 139 180 169 172 192 135 207 215 178 32 101 88 186 46 172 162 161 182 71 67 99 71 101 89 91 24 113 142 185 67 164 135 184 
47 130 68 92 211 201 191 187 152 192 210 36 43 40 117 140 185 110 224 80 177 105 88 86 102 45 54 177 104 144 177 132 65 76 89 59 78 116 69 186 75 166 87 142 90 170 31 89 208 124 114 142 104 82 57 72 111 139 82 134 124 180 76 190 39 102 67 175 232 180 21 57 69 187 154 180 93 68 145 102 121 41 185 67 114 205 145 158 76 153 158 80 165 183 182 50 154 166 225 208 
61 172 51 111 169 197 192 146 164 150 31 204 197 135 17 195 86 70 173 141 119 117 54 128 203 104 123 84 95 24 132 111 75 238 121 76 217 212 127 149 170 124 108 56 57 84 187 138 207 110 124 147 128 210 104 166 135 51 204 190 66 123 98 187 182 141 48 86 73 156 144 170 51 72 78 134 170 188 179 81 83 184 91 51 51 83 81 81 67 155 73 128 15 155 188 133 194 192 175 195 
164 82 69 192 216 107 60 158 102 118 155 146 197 58 175 148 105 82 101 11 122 162 119 126 189 124 192 162 194 192 219 165 166 160 225 163 213 106 124 130 136 84 38 221 165 33 76 168 75 44 73 157 166 118 184 123 84 70 103 25 45 144 54 65 125 77 84 111 45 174 182 126 172 13 30 171 141 51 70 122 161 107 115 71 70 187 197 158 205 186 89 61 43 85 63 248 168 118 206 216 
182 149 154 112 172 72 100 29 175 112 92 216 73 102 94 199 115 227 89 74 109 120 126 93 190 158 214 119 91 110 79 121 172 236 41 84 198 123 139 80 46 177 68 164 56 164 186 59 192 91 107 125 133 80 123 133 94 72 218 196 58 119 189 23 152 124 127 108 152 65 195 78 147 186 160 91 109 42 102 191 63 87 29 209 61 190 112 189 143 95 64 54 61 75 104 37 87 57 137 231 
32 199 100 205 206 159 99 24 65 58 115 48 61 59 179 232 53 175 29 153 20 191 215 153 175 40 130 102 79 192 68 94 90 75 187 201 135 184 232 154 101 186 186 203 65 48 133 159 128 99 95 171 215 74 162 82 161 76 49 96 166 211 236 137 106 75 116 103 94 162 209 111 133 193 126 34 85 114 172 75 188 73 205 91 133 209 172 107 61 63 85 160 184 74 190 82 65 220 62 212 
179 185 183 44 111 119 156 106 62 130 80 100 128 128 206 132 133 215 87 103 94 58 165 213 32 93 68 196 82 92 13 177 134 84 109 133 80 133 44 97 183 117 179 141 110 61 124 179 203 151 171 105 151 241 78 104 83 76 128 186 147 190 168 171 114 169 109 150 42 113 60 77 42 107 91 187 65 87 112 152 158 19 90 187 106 194 191 94 82 181 83 88 126 164 104 59 199 86 85 23 
173 140 110 215 114 236 153 155 180 142 157 194 101 187 65 128 102 161 139 184 138 91 169 60 163 64 210 189 67 77 150 49 84 160 171 202 40 124 53 94 143 105 76 203 157 88 111 188 147 75 46 72 136 156 34 220 142 134 126 184 164 180 98 89 68 238 166 188 122 134 113 57 23 201 144 145 125 156 236 83 105 123 30 127 59 175 235 95 213 73 38 138 157 89 126 71 75 197 175 160 
83 230 85 157 140 215 155 205 55 207 170 62 165 86 90 155 125 54 92 178 221 115 49 186 140 110 53 56 76 198 86 157 165 110 62 205 166 218 194 67 94 182 38 245 70 122 145 49 79 67 93 90 75 43 105 153 117 64 122 105 208 170 104 204 94 117 115 115 231 160 185 46 196 59 186 129 134 188 104 182 76 191 160 241 76 162 211 137 80 99 88 46 147 50 224 127 175 183 182 101 
73 59 62 181 236 46 47 166 164 209 104 69 115 228 65 79 80 96 166 141 78 205 76 84 58 81 103 200 48 132 79 193 48 131 184 184 43 39 176 207 132 67 122 52 140 215 110 54 11 44 116 98 47 191 226 117 136 187 119 63 58 167 233 210 172 161 193 175 82 28 73 177 75 51 98 67 83 217 31 139 229 133 132 232 62 127 71 133 203 207 188 84 80 190 130 207 206 205 82 133 
150 182 226 132 51 160 78 69 207 211 40 157 40 129 142 160 120 167 238 36 177 182 171 160 96 229 140 168 206 118 151 106 139 179 112 148 163 107 144 87 58 188 104 158 159 243 152 184 224 117 81 85 193 208 140 131 161 151 97 184 185 125 157 54 200 107 168 91 67 148 34 61 143 229 106 161 40 89 167 177 120 57 147 188 120 162 74 120 46 125 64 27 118 206 56 180 201 186 159 190 
185 86 141 141 132 35 71 89 212 123 146 157 189 136 74 88 35 39 209 51 36 39 72 183 163 175 140 140 96 29 80 121 55 40 238 37 154 189 123 170 157 84 124 88 179 63 209 108 196 223 96 175 161 124 161 143 96 241 175 130 164 158 40 157 206 123 170 234 151 24 68 72 53 143 84 212 79 156 62 123 63 129 100 18 135 226 195 211 154 134 157 112 98 77 56 127 45 34 51 187 
89 157 63 99 173 120 166 24 110 62 199 33 54 114 235 131 216 109 188 54 216 77 174 193 93 161 189 91 46 130 100 184 227 101 59 115 85 227 143 97 61 203 33 185 83 178 198 246 200 154 118 144 120 56 94 191 158 173 163 101 140 81 65 80 50 18 202 53 90 63 118 175 121 98 100 78 93 64 149 201 215 102 181 178 56 44 131 92 204 79 113 181 105 152 186 198 20 142 217 145 
96 97 111 81 84 126 19 117 37 133 119 162 159 46 78 176 230 47 167 105 192 88 160 55 74 77 190 98 79 99 138 36 81 167 45 189 50 75 41 128 84 113 71 214 43 58 75 124 70 102 210 126 178 147 91 118 202 138 179 116 82 80 212 31 95 57 117 146 127 228 182 29 88 81 196 188 17 28 252 36 88 142 106 179 152 187 58 83 53 139 113 36 75 135 139 121 100 227 109 96 
24 34 38 188 112 54 114 115 137 117 137 79 199 192 215 194 113 148 93 75 144 124 82 96 94 48 148 167 141 175 148 75 152 73 132 187 235 94 110 76 179 24 146 197 142 68 195 179 76 164 175 189 171 54 101 224 220 64 116 87 43 195 191 24 176 97 169 135 129 68 165 82 215 132 132 140 28 49 125 136 192 67 97 71 161 105 158 95 103 63 50 189 62 178 175 98 49 164 118 211 
204 143 15 80 75 57 158 106 199 47 76 178 64 52 79 237 193 232 119 175 132 205 138 156 154 144 215 154 183 129 58 144 137 185 184 166 87 178 182 131 141 105 116 164 204 72 128 103 203 202 193 61 219 197 72 131 87 82 183 86 213 240 109 111 33 115 67 89 202 149 138 31 58 38 115 137 33 55 179 69 127 181 198 121 83 83 219 233 168 55 178 201 162 164 95 104 126 168 178 76 
187 198 81 101 134 185 51 134 130 13 79 214 110 128 199 140 229 26 163 214 72 110 30 14 74 186 59 159 243 225 142 149 89 218 191 141 59 115 78 122 60 194 137 123 47 57 178 196 186 137 150 97 122 197 51 104 115 21 67 137 132 105 134 60 56 157 154 130 62 44 90 134 166 128 155 195 143 63 115 180 206 168 80 136 178 171 74 63 214 153 207 67 133 202 196 164 66 94 144 227 
30 172 120 174 194 130 63 89 148 169 19 37 113 199 127 46 236 181 187 72 99 159 99 164 94 52 109 142 179 110 141 75 188 66 219 119 156 192 77 164 162 145 176 100 129 197 154 130 66 168 210 171 88 174 238 43 113 89 117 122 177 202 106 129 188 205 169 45 149 29 61 141 108 119 137 112 106 176 209 197 88 97 51 14 216 139 168 55 64 201 83 31 88 172 60 130 120 191 15 190 
87 198 61 88 191 141 141 95 91 145 157 86 158 129 111 77 193 194 132 153 68 75 109 59 125 134 170 80 123 150 127 18 72 89 232 155 155 45 110 52 201 124 91 171 211 216 118 68 67 166 55 101 102 150 122 182 72 218 80 47 98 201 53 53 183 147 133 83 97 188 164 116 88 86 48 182 176 191 155 203 126 158 79 52 76 115 105 224 197 58 136 70 191 211 156 35 192 162 171 187 
63 197 35 89 74 113 136 92 26 40 163 109 211 133 211 182 100 207 39 108 198 117 144 43 31 184 117 149 157 159 187 104 136 124 165 130 193 214 217 17 87 180 90 75 199 237 125 236 74 106 93 148 167 84 164 169 231 207 188 85 84 145 90 202 68 87 40 92 193 72 96 155 126 154 125 99 130 198 162 236 170 31 140 227 127 150 26 135 178 215 90 111 141 86 133 149 101 76 141 121 
155 210 40 165 183 146 201 64 225 69 68 181 167 97 82 35 147 133 83 88 196 151 226 141 41 179 118 183 134 229 104 109 193 43 217 199 132 243 48 33 115 23 137 133 97 158 51 77 158 122 137 93 151 131 127 91 158 196 199 61 108 109 84 154 172 167 143 119 105 31 155 168 151 139 172 99 31 187 132 131 80 70 159 217 134 129 59 74 198 201 167 213 93 146 117 53 192 92 231 210 
187 140 217 81 180 97 180 111 158 109 130 136 215 35 182 142 180 98 218 216 40 129 214 99 205 53 203 78 117 22 130 132 119 125 167 157 42 37 234 149 206 52 168 167 184 70 111 97 44 162 95 199 135 209 189 72 78 125 91 215 91 205 141 86 121 79 127 201 218 114 205 112 64 99 39 215 117 73 166 182 123 212 75 96 171 11 29 122 192 47 48 80 130 76 58 171 76 189 209 141 
187 70 51 102 37 50 135 239 96 122 36 84 159 130 127 132 33 114 191 56 108 138 192 90 97 213 101 51 172 97 123 141 40 66 101 65 85 113 197 52 190 100 143 109 55 201 80 181 150 181 48 90 126 199 66 134 123 135 63 114 194 135 216 190 39 225 160 44 134 215 140 90 172 146 68 90 217 61 169 172 132 144 128 89 127 213 60 191 135 173 95 190 152 118 57 199 174 143 213 131 
128 70 168 87 132 167 198 194 163 145 141 109 117 105 80 86 158 11 116 175 170 62 114 73 167 86 161 142 118 167 156 238 31 150 119 128 78 67 112 206 80 58 76 90 120 25 186 140 157 110 221 185 116 119 101 67 75 163 172 65 137 223 92 161 229 120 48 191 176 39 51 80 60 72 83 186 18 185 47 65 78 152 20 63 87 60 182 124 60 208 159 63 31 231 91 72 183 41 79 92 
150 34 73 37 123 108 104 136 178 164 81 77 120 88 91 87 115 153 54 137 153 87 188 229 214 90 220 154 136 192 84 27 196 88 195 203 171 194 144 175 145 35 59 151 180 204 125 200 185 130 70 105 189 120 46 15 203 68 97 128 185 100 66 164 155 105 157 158 108 46 74 181 55 99 50 222 92 156 68 62 86 121 197 16 66 183 53 149 208 124 153 225 203 109 118 223 192 145 93 173 
162 185 110 181 216 132 220 112 210 150 112 82 127 119 244 96 153 176 134 72 87 67 103 155 91 91 86 139 95 152 100 91 156 207 89 108 183 163 160 97 147 166 118 229 110 59 138 192 91 57 180 127 223 163 93 115 86 202 182 140 85 187 94 82 188 223 94 166 67 47 103 183 30 176 65 122 85 190 60 76 171 48 35 187 229 206 56 195 45 191 22 202 128 161 184 113 77 120 117 84 
195 169 56 152 53 138 41 142 34 102 172 178 161 49 64 185 122 65 45 176 110 158 88 181 210 53 194 42 81 202 47 107 92 136 165 209 77 122 169 12 68 210 175 85 149 56 152 128 196 123 62 114 199 43 125 62 38 132 92 46 172 202 57 232 233 69 39 135 206 95 184 39 77 147 209 122 133 147 81 148 210 116 80 65 206 182 148 97 110 33 200 152 116 54 143 193 206 32 206 164 
88 92 98 148 46 186 123 160 93 45 42 209 114 150 191 189 157 175 191 192 224 114 146 137 140 109 121 185 216 102 137 173 92 151 159 183 119 123 142 126 204 46 102 172 219 68 101 182 200 69 67 117 77 230 215 208 231 69 230 134 189 185 211 99 192 96 122 198 229 45 58 53 120 52 160 130 171 152 88 205 48 36 182 130 189 110 94 82 180 165 161 201 141 26 177 106 140 119 118 201 
74 132 39 122 92 91 145 190 74 117 120 65 155 138 63 127 143 49 192 62 204 104 172 128 57 188 100 173 113 85 192 197 179 58 136 187 222 108 157 79 124 103 73 76 94 160 97 215 69 96 157 80 201 51 137 206 93 137 112 122 60 72 188 209 106 116 182 151 199 62 22 171 62 150 181 132 52 109 34 122 166 150 153 164 20 70 179 58 198 224 117 103 111 193 39 132 152 138 45 92 
228 124 236 173 117 145 78 184 140 74 157 65 144 188 109 178 16 80 65 152 122 92 89 155 119 45 190 171 82 86 91 120 106 191 47 144 143 77 93 174 137 113 226 143 140 106 118 197 98 168 72 123 161 177 174 128 160 127 54 139 141 96 232 236 145 94 189 47 105 151 236 99 39 163 155 164 77 240 56 164 110 84 194 115 153 72 50 104 68 161 77 113 145 176 206 117 165 58 220 49 
122 131 167 134 119 22 172 181 211 83 209 208 177 122 127 47 168 173 94 129 79 85 142 142 216 124 128 55 130 92 59 202 106 116 50 109 191 77 151 79 113 31 147 190 60 116 185 196 105 215 188 212 169 45 167 120 189 123 154 158 104 161 59 151 131 97 100 175 246 200 154 93 132 202 43 160 70 149 70 145 155 177 77 109 183 159 169 90 169 98 62 66 162 167 134 88 69 109 121 129 
146 107 101 67 138 200 213 48 147 12 87 118 198 91 120 125 66 182 195 201 63 68 85 125 175 152 56 148 147 128 147 98 82 226 100 73 67 90 127 162 61 102 61 73 70 186 131 81 160 203 176 176 130 85 85 198 157 122 179 78 112 144 75 239 145 92 237 61 148 61 172 122 141 142 81 92 71 109 62 69 70 103 106 85 113 158 188 50 51 96 166 89 131 24 70 75 99 65 197 197 
85 88 156 186 183 122 175 42 179 118 136 102 57 97 177 123 50 184 79 223 150 213 194 238 88 164 151 165 198 91 218 136 187 72 97 168 73 129 164 198 142 77 92 144 98 194 158 165 46 124 64 128 158 133 194 217 179 91 95 93 165 147 180 89 146 74 129 129 137 82 126 214 167 64 111 136 214 189 50 94 224 180 69 52 121 220 127 107 90 152 136 220 202 173 45 99 29 200 97 145 
93 122 38 83 31 172 110 88 38 177 98 165 157 125 160 167 197 73 146 92 94 165 150 179 96 193 89 192 152 70 106 198 98 47 176 149 78 92 107 30 159 76 128 73 59 123 175 230 206 50 185 198 140 51 163 130 84 192 106 209 47 140 128 229 72 176 75 89 132 173 101 68 76 89 80 144 125 176 81 79 224 106 125 145 90 93 130 147 158 100 108 48 35 92 62 211 203 106 103 88 
62 88 205 158 179 156 93 216 70 118 62 136 73 47 130 165 59 188 122 50 159 45 130 30 174 118 236 231 71 185 148 137 65 174 150 57 172 39 114 157 144 221 88 60 113 127 126 175 200 147 205 173 44 116 152 58 103 96 79 177 188 117 214 76 192 123 137 129 219 114 237 117 148 194 179 190 24 144 154 67 93 77 84 205 153 219 198 115 110 142 61 59 97 123 149 147 144 92 211 207 
75 188 178 201 33 165 147 72 49 106 90 91 31 160 65 91 96 175 174 49 132 111 75 149 150 77 155 221 77 84 83 167 113 56 234 68 101 99 128 33 187 199 175 226 224 78 136 179 64 136 117 67 93 242 115 119 225 72 172 159 117 92 87 222 115 112 175 136 81 223 114 101 56 23 201 106 112 52 86 126 40 102 172 123 123 33 198 144 123 156 37 46 96 110 108 207 146 134 209 104 
156 134 116 196 195 62 210 49 22 47 197 105 70 190 167 31 96 181 157 81 187 27 65 228 138 170 174 67 179 17 152 119 206 135 159 139 102 34 61 157 188 42 230 108 89 185 117 55 148 88 158 133 182 147 152 68 106 107 57 158 159 128 177 231 136 103 137 106 110 90 134 234 124 136 74 83 184 219 224 82 60 31 84 80 125 171 154 112 157 150 81 97 214 66 223 60 130 103 218 206 
118 145 128 34 187 197 170 45 73 226 71 208 117 49 242 138 150 144 76 68 208 227 80 175 134 174 183 126 207 151 168 137 162 174 175 64 122 115 98 45 207 130 163 223 155 98 205 167 227 104 119 80 105 129 132 84 171 81 110 133 187 199 119 145 152 94 226 165 64 215 84 97 95 111 48 199 140 36 86 202 203 98 177 44 107 204 57 75 173 159 41 156 76 216 216 41 58 68 218 108 
105 161 80 31 179 197 177 113 35 169 128 131 84 151 42 62 104 76 141 173 45 55 197 130 94 113 66 164 82 208 141 61 128 168 87 195 91 134 217 72 148 226 52 133 139 153 87 62 131 90 140 104 87 184 149 127 140 68 159 41 154 171 70 77 118 13 195 154 89 143 160 94 91 34 146 133 129 135 44 110 24 175 19 179 102 206 201 132 137 90 99 134 64 200 132 195 217 21 200 99 
194 96 104 171 161 173 86 93 190 169 92 138 196 147 190 88 142 105 132 90 56 203 90 106 26 202 93 39 172 148 43 117 163 156 177 206 113 100 61 197 94 98 59 108 185 131 169 156 78 122 72 111 49 109 185 217 93 32 172 222 218 162 130 170 98 209 58 164 38 106 143 217 168 94 69 200 92 192 121 138 121 187 146 177 82 22 197 117 64 83 176 46 45 82 40 145 203 173 173 97 
130 161 174 115 140 56 65 143 71 56 132 224 125 215 128 77 64 142 231 59 117 204 93 154 187 108 31 102 151 116 185 149 33 128 73 185 202 73 77 51 55 96 192 203 55 82 106 107 58 147 142 178 108 83 152 61 187 214 57 97 239 238 71 80 201 160 192 74 124 81 115 225 55 138 77 94 45 19 84 142 165 158 192 179 67 58 128 105 148 169 33 17 178 110 117 110 35 129 118 84 
18 84 38 107 45 89 168 109 169 209 220 81 142 242 134 99 83 206 123 197 177 101 143 80 214 179 107 154 185 153 88 26 155 188 172 220 185 154 186 139 178 146 198 140 65 221 97 181 169 24 87 81 151 45 113 174 79 56 103 99 142 60 144 72 109 49 100 187 98 48 207 124 177 127 194 179 44 201 66 173 112 80 105 152 168 67 218 157 202 147 156 63 136 114 169 64 157 124 149 232 
179 91 100 50 177 138 100 18 145 116 99 80 142 107 83 80 205 50 136 46 125 200 218 44 111 186 148 159 102 94 165 140 101 150 57 73 213 75 206 68 107 91 115 201 85 100 132 206 202 201 136 171 192 97 173 146 155 190 80 104 71 40 114 94 113 239 218 128 126 137 160 160 124 64 71 196 190 221 204 85 65 110 122 113 156 101 68 100 100 179 187 137 112 179 107 181 142 191 122 27 
211 121 103 193 121 77 144 185 124 194 154 144 129 92 141 227 59 187 21 55 132 204 90 165 80 127 130 96 133 155 110 101 88 192 201 77 238 199 144 73 148 200 194 148 91 188 84 142 222 109 175 39 99 189 79 99 157 40 126 211 150 222 86 191 130 70 74 81 122 121 194 118 91 188 106 214 19 143 215 190 176 77 109 150 135 186 108 139 171 164 82 219 102 40 124 179 54 49 70 87 
206 123 199 171 148 192 117 201 177 99 114 40 103 106 22 153 113 91 83 51 79 56 35 133 73 183 81 200 37 92 202 66 119 68 67 97 127 36 96 78 54 186 124 81 149 240 123 226 20 131 68 112 92 167 95 226 102 174 20 99 137 101 96 92 69 186 165 204 164 104 62 32 74 51 70 40 160 108 182 27 64 181 92 186 96 168 45 185 183 111 84 210 68 223 129 170 12 105 116 161 
179 212 42 174 222 114 134 91 102 74 132 83 50 208 134 100 147 183 105 161 182 203 95 78 103 236 45 137 109 124 68 74 160 30 156 103 175 155 46 182 82 177 96 79 80 105 121 116 5 177 120 138 105 116 23 97 112 167 118 151 224 86 61 117 45 52 47 195 61 126 175 100 206 45 35 178 75 75 194 214 190 234 64 90 164 226 85 95 140 154 227 109 81 58 183 50 131 77 70 207 
75 185 138 48 223 90 188 107 66 121 177 221 161 140 198 116 96 185 117 162 44 33 120 103 75 189 36 202 188 83 212 124 234 34 179 66 121 55 106 226 184 157 30 155 191 133 200 38 204 69 191 214 189 170 140 44 106 131 201 99 158 190 107 205 184 131 194 192 29 136 131 71 71 237 116 69 96 154 55 180 68 54 150 109 206 227 220 192 33 70 77 196 171 72 119 221 237 92 207 87 
93 168 83 129 211 211 42 154 149 77 70 227 66 123 59 46 35 52 60 178 149 70 125 184 110 74 74 54 116 68 120 199 27 203 126 91 110 75 88 216 114 144 188 177 113 179 120 211 100 204 164 209 46 102 68 63 96 106 93 138 63 123 82 231 145 127 239 66 72 234 188 169 134 180 35 148 87 147 180 190 95 192 91 165 120 216 172 165 154 81 22 156 178 104 48 86 14 113 30 81 
112 128 110 131 118 47 133 115 159 137 94 192 140 107 177 134 206 143 130 104 46 115 120 209 163 87 183 81 176 222 25 139 221 128 143 51 182 62 233 100 66 198 110 164 152 193 204 205 224 149 32 100 183 83 35 53 99 65 120 92 228 129 74 92 105 35 147 56 102 107 149 54 98 126 159 125 34 204 168 46 48 209 24 68 160 110 70 124 146 87 37 118 71 134 74 100 61 72 76 100 
207 57 70 164 110 124 110 186 156 215 141 164 179 122 66 186 101 192 172 105 33 90 127 46 201 204 58 120 228 159 120 132 199 198 139 23 172 191 116 209 93 143 119 104 45 158 31 99 139 131 211 76 180 102 164 190 220 42 127 34 196 89 123 185 151 178 32 165 38 122 168 232 138 192 143 140 57 126 94 82 193 109 38 24 208 145 147 142 200 134 197 171 205 159 140 122 165 77 47 85 
76 95 80 95 31 132 83 67 29 122 93 55 130 42 74 50 65 191 75 80 87 124 62 227 173 226 128 70 68 144 32 116 130 209 81 122 73 152 68 201 171 199 139 99 206 18 103 70 98 159 175 89 38 128 143 88 229 105 86 174 157 130 162 83 105 62 112 55 198 168 62 118 111 49 159 142 172 143 220 225 194 92 118 117 100 152 105 148 157 148 93 75 141 72 76 201 85 11 63 149 
70 72 56 163 96 117 133 175 94 79 155 219 175 123 188 119 128 76 46 46 180 142 203 186 59 188 195 74 109 74 24 96 208 95 173 64 146 11 102 29 205 59 104 126 191 119 28 172 58 136 157 113 159 163 63 135 125 186 179 38 83 136 77 139 188 59 85 83 162 205 152 142 203 95 173 46 99 59 191 198 32 174 188 55 191 190 135 192 161 3 37 108 111 75 196 165 85 147 165 207 
61 116 221 74 142 118 103 196 170 89 96 203 75 132 133 184 192 60 143 86 39 74 237 184 157 93 136 105 87 42 123 161 153 108 128 135 59 146 120 119 151 121 66 88 192 180 176 49 108 185 165 79 101 162 163 131 132 52 150 80 194 66 126 183 195 197 93 99 194 177 92 99 92 194 79 158 57 163 148 223 199 77 172 53 138 98 233 200 138 165 83 117 139 201 84 161 89 141 133 210 
120 69 103 193 102 155 54 51 145 121 119 68 86 46 145 111 213 212 93 236 91 198 198 196 60 175 210 154 178 51 161 53 197 168 180 110 65 127 189 212 93 101 151 61 180 183 168 94 76 79 116 111 184 188 68 163 95 202 70 92 85 42 187 179 64 216 51 47 77 48 139 107 165 83 123 188 103 129 79 200 169 185 172 85 188 152 142 101 28 85 177 108 103 188 178 74 133 147 199 139 
150 141 122 167 63 186 22 14 89 178 100 168 163 29 220 198 42 78 184 224 164 151 99 196 74 29 137 200 128 125 125 198 184 97 193 138 64 145 39 73 115 68 94 192 83 184 148 199 239 59 87 136 133 233 14 70 206 69 189 161 166 107 31 197 195 156 58 217 208 222 24 82 32 72 176 201 65 202 176 113 89 127 95 55 192 55 69 165 181 108 223 189 71 226 207 183 208 90 228 98 
85 217 123 199 49 161 59 50 145 80 23 150 221 116 217 174 99 139 105 239 70 195 61 56 129 186 111 84 130 198 35 127 46 123 63 141 163 193 219 53 134 113 92 152 113 145 187 90 141 156 93 30 35 34 154 36 166 74 212 180 98 216 220 156 174 148 161 190 33 71 132 189 66 68 55 83 216 174 88 230 101 147 140 168 72 118 106 9 131 91 147 99 97 145 111 187 172 97 178 155 
111 70 231 62 194 141 183 77 143 149 138 12 109 68 127 137 42 101 37 224 70 81 196 83 186 182 106 48 10 79 124 184 181 97 98 191 129 57 173 165 220 224 168 208 101 31 172 145 225 74 92 170 164 71 171 192 211 113 148 195 112 84 201 155 133 23 122 168 183 55 13 154 61 95 123 85 177 206 204 191 79 100 91 171 89 202 137 49 171 70 154 113 127 89 143 219 52 135 90 112 
114 93 104 98 199 75 159 41 146 158 69 59 228 107 181 157 48 54 156 174 83 161 92 201 51 189 197 218 130 62 196 169 96 93 79 192 99 160 180 47 142 231 143 79 135 167 196 151 88 108 167 69 221 48 110 174 17 29 136 204 163 30 118 147 107 231 187 62 216 123 185 204 170 115 169 159 99 84 27 221 122 136 104 144 216 182 155 182 153 77 202 167 122 177 113 87 182 187 60 62 
215 160 96 163 83 98 24 130 165 199 153 62 161 205 87 104 51 38 172 219 100 62 196 60 156 194 144 188 174 44 119 165 87 79 68 170 174 34 165 100 62 55 179 54 88 105 109 189 156 94 115 151 38 164 161 48 170 80 238 228 38 39 175 135 147 96 142 199 170 67 83 136 61 142 61 56 100 84 165 91 109 157 125 195 145 156 216 122 126 152 161 183 119 189 70 168 141 171 59 214 
114 212 151 91 206 140 186 117 155 106 21 171 165 209 74 122 141 192 175 91 99 158 152 74 174 89 222 132 34 183 144 173 78 59 150 203 153 189 158 44 169 204 189 85 48 80 133 222 182 19 61 176 200 119 56 143 195 147 128 17 117 221 78 82 205 61 58 103 108 211 53 36 91 182 143 96 218 161 217 195 66 143 22 112 148 71 151 76 162 155 59 107 164 124 57 156 131 141 124 203 
26 86 105 126 220 26 188 169 135 93 157 75 144 183 137 82 100 142 84 192 120 201 64 95 84 228 149 134 69 155 127 207 203 191 68 175 57 145 197 154 174 95 36 233 110 183 48 104 80 110 202 31 89 40 25 77 110 76 174 110 112 50 76 96 40 177 109 183 83 159 51 46 145 205 147 174 143 217 213 155 119 111 97 40 149 111 108 43 132 159 103 81 124 151 167 53 68 203 82 85 
158 208 82 207 58 83 140 68 71 55 132 107 120 176 92 62 81 222 72 165 91 66 118 76 127 101 77 216 80 73 143 178 164 104 100 158 61 114 138 157 124 42 51 85 198 78 149 67 188 189 58 35 187 232 48 139 201 44 138 83 114 121 113 60 50 124 58 112 63 65 74 121 87 86 195 88 228 186 118 131 103 150 47 165 80 149 73 191 170 147 193 132 78 88 205 165 53 75 115 171 
53 61 104 134 36 118 162 65 50 128 71 155 36 52 179 165 115 162 132 35 194 141 49 90 195 216 87 68 204 31 25 154 48 113 187 131 51 151 161 68 105 115 172 173 42 71 169 101 142 209 149 101 194 131 103 41 116 60 80 196 167 176 67 114 96 38 120 165 107 152 146 58 119 177 125 48 167 60 55 16 127 196 129 102 99 168 49 204 28 161 146 18 189 131 155 85 144 48 203 176 
102 229 74 148 58 81 102 93 199 93 147 133 146 186 26 31 180 221 73 54 101 236 81 173 186 143 190 205 18 98 124 199 36 75 205 144 169 140 200 46 72 112 216 29 187 134 44 45 43 177 91 113 236 135 219 143 73 31 122 67 169 48 157 77 204 69 201 208 99 176 132 184 143 56 131 84 47 108 191 88 87 122 90 103 114 136 121 185 190 204 181 67 68 146 72 104 193 164 229 155 
41 150 124 215 74 190 59 46 208 82 123 83 64 94 159 154 210 67 186 103 168 76 161 118 91 206 82 199 190 114 35 197 95 99 56 171 108 158 168 172 170 58 184 112 97 113 100 205 127 54 59 122 193 106 248 163 119 173 58 84 223 77 66 65 235 174 109 133 132 92 154 169 28 143 151 179 154 147 157 54 125 109 161 144 179 86 175 113 58 196 201 40 84 125 54 171 117 191 205 150 
33 142 82 124 180 230 167 54 135 54 65 222 89 203 52 131 83 117 112 98 93 180 193 167 203 47 88 194 71 102 177 207 133 70 162 142 164 62 67 34 168 188 111 196 131 154 66 166 96 43 144 162 79 137 142 13 227 103 178 101 205 135 180 195 121 182 210 132 141 185 118 121 149 66 34 143 116 182 103 133 84 217 84 41 121 54 132 146 200 218 82 216 104 111 147 181 178 196 178 157 
199 147 154 131 11 154 228 158 213 160 134 174 58 132 82 46 71 212 118 242 127 103 180 160 173 216 137 134 52 186 71 208 178 110 204 148 161 156 188 150 61 134 184 114 59 115 221 193 144 208 206 68 89 232 73 40 69 53 113 160 202 191 184 177 164 122 178 83 191 126 148 117 180 123 202 134 152 40 45 124 223 145 26 113 46 110 212 175 154 125 25 132 112 117 101 38 105 174 74 32 
157 69 194 56 149 236 49 54 29 60 105 154 214 100 130 153 149 170 168 170 113 112 101 176 109 131 199 82 119 87 151 72 232 124 143 67 170 120 163 183 118 43 109 167 34 73 73 163 124 55 188 143 60 81 192 176 85 43 137 220 225 197 183 167 55 70 192 79 89 197 169 65 85 26 98 169 184 129 44 47 202 165 108 111 67 208 68 119 113 61 72 137 83 128 210 160 125 215 58 117 
182 217 150 144 49 183 84 112 93 82 140 168 53 107 105 95 188 67 126 105 58 208 52 66 205 205 105 123 158 188 208 143 129 90 187 173 28 168 122 209 199 60 176 170 148 159 94 134 213 168 145 140 32 137 189 51 171 125 139 218 96 217 24 69 167 26 146 94 106 119 48 93 114 186 229 178 98 164 135 88 187 176 94 154 104 52 186 92 160 26 80 105 215 121 91 193 212 202 206 206 
133 129 111 166 95 142 77 86 38 87 179 99 76 220 112 162 219 207 215 101 135 86 60 92 55 75 47 140 55 59 62 212 123 117 154 168 16 102 184 175 107 169 71 64 195 191 128 128 77 157 171 146 175 58 75 140 87 98 80 137 51 167 146 211 70 104 200 109 41 125 47 65 33 135 184 93 151 57 47 206 138 222 113 52 139 175 64 82 98 67 147 47 138 184 184 36 53 61 88 193 
195 95 172 55 96 148 78 73 22 137 34 185 150 183 80 147 222 72 133 169 158 110 146 141 138 148 120 185 34 148 58 109 119 71 24 89 72 57 137 52 142 203 165 181 141 79 68 193 152 167 171 31 222 141 90 62 27 97 177 215 69 199 173 118 35 187 56 153 135 180 224 56 76 176 105 98 96 200 100 81 238 177 166 150 80 154 47 73 74 238 135 130 182 135 111 109 85 104 124 235 
52 169 93 167 127 146 186 57 183 184 100 231 100 172 30 200 52 50 183 71 124 218 176 26 85 157 147 196 195 216 73 23 90 65 21 84 152 92 216 218 159 151 110 206 189 139 60 159 194 55 114 73 157 216 166 130 95 65 90 44 171 155 101 173 67 159 44 202 31 70 142 157 46 141 111 85 198 171 33 61 81 158 82 145 159 116 104 42 155 199 100 188 147 45 210 147 105 196 86 185 
54 105 75 120 103 209 199 214 207 132 11 80 174 157 90 178 102 49 114 113 211 67 85 121 223 182 197 52 161 188 115 190 199 110 114 39 71 114 182 170 134 133 73 177 175 219 199 179 42 54 161 94 91 100 72 88 190 175 38 54 75 151 175 135 73 129 176 95 73 57 127 210 44 115 125 125 167 116 27 205 109 32 57 72 158 59 124 64 62 69 185 177 164 112 57 198 96 136 205 198 
37 100 66 123 107 216 74 62 197 210 112 83 93 62 171 92 49 156 118 127 55 71 103 66 72 59 158 148 113 52 62 84 158 126 20 73 123 96 183 216 211 104 158 106 84 102 208 79 193 118 200 113 77 149 188 186 169 130 68 169 89 188 186 92 81 127 16 106 199 68 144 203 185 86 76 55 185 181 238 189 62 126 180 71 76 171 93 42 169 126 171 185 167 12 174 35 94 205 137 182 
95 67 161 72 194 115 198 78 191 18 35 233 146 45 194 197 209 13 78 48 134 205 173 33 130 118 184 143 207 171 199 127 183 139 123 165 136 46 221 108 95 83 82 137 127 160 159 7 64 151 65 24 52 218 106 143 81 97 149 211 124 52 199 81 24 164 205 34 67 67 170 183 106 183 135 55 56 197 141 144 189 118 37 139 199 105 202 21 115 92 107 119 114 100 102 204 157 58 133 216 
223 82 123 143 214 229 208 124 93 174 62 166 135 161 179 190 119 117 92 216 51 39 69 47 108 142 177 198 84 180 148 162 172 200 129 119 42 82 53 98 38 174 118 108 45 12 95 46 126 63 47 83 233 94 176 197 188 51 98 96 137 147 99 87 152 179 91 64 154 134 100 42 214 78 202 133 62 92 68 40 162 51 158 203 209 45 181 94 208 126 151 143 37 111 93 122 134 182 205 135 
103 80 203 34 32 81 88 103 114 174 199 95 67 207 92 108 14 232 98 199 95 138 52 90 92 112 114 59 63 91 67 55 124 70 80 194 122 60 27 135 112 206 150 66 29 177 75 68 189 131 164 136 108 116 56 199 195 176 109 93 141 93 215 142 207 144 162 83 224 86 21 83 214 226 202 206 28 130 38 190 128 65 70 81 54 182 191 113 214 117 127 59 126 95 92 137 217 173 203 41 
170 173 85 194 165 10 47 55 16 132 122 226 144 116 69 160 34 94 181 62 96 144 46 171 127 62 174 82 122 140 91 133 133 174 37 149 71 116 50 189 111 65 52 145 41 122 134 149 63 116 74 141 163 80 145 151 145 135 156 115 131 28 169 216 99 18 194 197 165 187 187 111 176 135 84 71 94 149 105 168 170 137 36 135 238 173 46 106 208 211 38 70 42 179 179 165 196 26 155 85 
118 186 53 118 19 169 164 189 98 154 77 50 47 74 201 75 132 99 59 55 82 155 216 72 183 111 234 112 199 203 163 131 90 56 80 37 130 116 83 53 29 224 127 192 133 191 174 61 190 215 109 6 171 157 77 57 170 204 80 119 152 210 198 190 20 51 92 187 179 108 200 125 99 114 38 66 40 110 51 134 171 97 217 157 144 61 156 180 85 175 182 117 153 195 58 45 247 150 50 187 
82 75 240 85 113 129 139 134 201 134 74 176 133 93 51 221 128 126 112 196 178 65 166 95 51 111 91 159 198 124 91 179 161 165 16 204 172 201 119 136 80 171 184 162 31 137 134 154 143 85 58 41 110 91 146 138 233 190 108 138 246 142 174 150 81 210 213 66 196 177 211 214 92 54 77 82 154 141 210 103 150 93 142 156 117 212 118 69 80 157 125 162 185 33 60 58 148 129 106 218 
178 43 173 117 179 61 188 53 86 137 88 134 87 194 121 139 120 62 92 185 185 56 27 60 63 196 101 135 170 192 41 102 198 172 131 39 96 83 78 191 63 71 149 75 98 94 126 155 164 240 157 99 107 115 139 131 198 91 53 165 184 55 47 202 109 191 24 95 160 151 81 162 68 215 85 194 118 83 35 227 79 150 174 238 127 92 131 39 60 125 82 54 78 189 207 42 141 148 181 152 
