P2
100 100
255
215 200 129 100 149 37 136 91 164 80 212 73 120 195 137 105 31 3 98 209 63 139 116 39 127 18 116 125 219 217 188 138 78 136 65 159 155 40 201 97 136 71 121 112 82 198 59 159 186 87 165 129 86 151 154 199 111 144 38 216 191 105 160 27 171 227 182 74 31 132 98 18 109 145 84 125 114 185 57 150 119 117 121 160 161 150 132 28 59 174 172 68 157 131 192 70 72 175 123 63 
210 148 225 157 165 139 181 178 195 119 56 169 125 107 35 232 35 71 205 116 121 117 130 215 128 76 199 94 210 207 60 141 178 158 49 206 177 94 161 128 51 77 226 79 110 188 112 80 169 146 142 110 130 66 217 73 155 65 131 72 158 61 55 83 90 187 220 70 167 163 92 115 114 46 151 88 147 175 69 65 61 167 202 103 123 136 190 79 123 161 79 140 182 152 110 162 69 202 51 19 
163 179 136 80 167 132 120 109 161 179 59 153 84 104 104 221 88 59 122 5 79 122 156 204 114 237 163 140 231 70 139 78 121 52 138 230 75 230 105 210 91 166 114 174 113 54 98 76 137 83 195 89 36 206 204 48 61 220 106 151 97 105 170 180 102 72 27 114 169 51 88 151 187 96 79 162 82 84 86 95 157 240 210 128 99 145 152 197 141 136 94 25 153 165 59 53 194 109 97 192 
24 119 197 80 56 105 200 66 91 72 128 216 45 116 135 212 198 134 105 109 45 75 68 97 79 151 142 184 190 138 151 28 94 61 79 105 46 99 88 99 187 126 127 190 75 81 120 116 140 62 99 115 72 210 96 121 210 117 33 168 180 69 142 90 140 218 178 33 103 216 151 91 88 30 195 97 207 116 101 169 78 193 219 183 232 150 140 150 97 70 100 66 90 65 164 224 87 194 62 156 
37 156 114 51 72 106 184 157 54 82 142 70 165 187 82 183 118 46 90 156 111 220 150 224 61 129 242 28 111 181 208 147 169 158 157 66 38 177 36 193 214 215 87 18 95 208 172 181 191 111 72 71 160 160 196 135 59 116 43 172 103 145 186 97 53 109 213 220 67 187 45 173 104 171 24 126 162 225 85 199 76 229 112 117 78 71 140 170 227 109 217 106 245 146 113 228 124 135 54 183 
72 153 154 164 113 125 3 34 226 73 146 68 85 69 91 175 99 176 69 207 162 116 198 180 91 58 180 39 169 191 22 226 61 202 180 21 159 155 71 225 131 69 37 181 223 94 166 175 136 165 124 207 145 110 110 136 110 46 87 153 65 100 83 70 144 55 73 28 214 85 100 112 120 134 205 144 186 79 53 82 70 175 115 231 200 166 65 114 22 166 105 56 156 171 49 47 50 95 136 70 
152 211 24 126 32 54 50 16 96 163 202 204 61 189 83 143 94 147 43 223 197 181 213 203 39 124 167 60 117 55 233 197 222 52 42 115 83 158 100 191 45 177 38 29 13 186 132 66 100 83 171 75 102 112 152 105 196 144 167 9 183 78 38 142 94 78 158 106 159 138 28 64 110 126 178 187 173 139 96 89 209 40 129 157 145 105 111 134 201 156 124 232 101 189 44 101 111 215 119 87 
114 179 99 65 151 171 174 116 192 89 138 138 76 92 48 110 135 67 48 108 130 102 46 207 46 88 102 126 151 123 129 98 39 197 182 184 104 199 26 113 35 173 123 197 109 163 70 90 148 75 49 176 212 138 61 117 162 195 57 167 77 112 125 65 83 201 143 118 120 182 229 196 83 114 221 118 67 125 133 170 87 66 56 64 147 32 192 119 176 171 114 225 61 95 184 194 117 110 162 41 
177 141 107 174 17 85 234 131 122 53 55 188 199 111 52 185 40 165 156 162 157 237 59 149 104 105 224 50 189 78 94 117 182 128 132 133 232 81 129 189 209 220 208 128 192 145 167 77 207 108 136 129 63 79 135 166 192 125 195 132 191 24 194 149 208 229 88 147 73 212 78 76 131 92 91 22 203 123 63 134 99 197 202 97 77 148 84 26 176 71 153 186 48 84 216 101 43 90 102 190 
83 219 121 47 234 135 142 78 141 234 233 120 74 27 161 111 183 116 78 31 152 66 132 183 54 104 180 141 156 66 172 64 141 181 121 195 59 156 124 123 62 217 177 58 78 103 181 186 138 210 201 207 112 179 63 168 78 83 213 128 25 96 80 149 197 22 61 195 170 188 172 122 182 219 205 128 86 195 213 167 146 198 114 70 92 66 188 122 22 178 93 235 26 173 232 123 201 108 151 171 
92 57 131 63 58 47 126 43 141 49 150 68 77 100 181 147 73 204 220 124 156 73 58 211 28 115 175 29 26 78 68 42 120 132 65 186 97 129 180 181 132 139 68 41 66 105 50 102 158 113 58 179 111 97 184 134 219 179 92 184 130 72 199 198 89 59 134 81 86 194 160 198 79 171 116 92 96 201 54 107 137 161 54 91 56 229 72 183 103 84 180 82 58 193 97 126 121 97 63 59 
218 189 52 69 91 192 77 162 117 55 99 85 170 171 174 106 201 215 136 72 228 141 73 204 178 155 165 84 212 228 163 133 44 110 65 180 154 190 162 42 74 195 191 18 179 93 150 82 99 135 223 116 225 226 100 150 134 148 170 120 151 146 121 116 202 243 184 167 201 152 188 187 98 73 126 77 142 223 75 58 169 86 164 171 45 45 218 103 180 154 175 153 151 150 39 55 122 130 160 77 
103 171 98 138 146 180 61 34 79 186 82 134 149 97 87 64 83 220 178 80 60 179 107 46 133 95 108 197 206 194 18 58 37 75 28 131 215 171 174 176 98 171 232 211 207 8 114 91 34 178 161 132 184 184 201 55 137 220 181 142 66 80 38 147 107 172 198 108 121 94 92 141 42 37 43 82 137 151 111 46 75 179 121 76 57 185 96 168 198 191 176 196 114 37 110 38 200 26 149 160 
128 185 166 76 208 43 168 72 56 113 106 139 82 104 53 178 106 180 211 92 84 118 39 119 59 226 84 124 179 54 57 110 102 198 134 205 159 172 88 97 145 55 199 83 200 155 143 50 201 199 217 170 192 79 191 122 202 240 148 177 81 53 183 107 84 201 68 218 90 137 102 141 224 31 134 173 132 181 225 139 195 218 228 200 98 135 175 114 128 207 76 95 183 165 72 133 90 166 223 163 
69 23 119 88 98 159 64 88 193 126 89 47 93 59 36 107 51 67 39 80 178 190 172 80 67 182 96 169 146 49 169 116 181 197 96 53 161 128 134 113 225 214 141 177 122 192 152 119 63 41 189 188 176 100 27 79 74 136 86 36 163 198 135 91 167 47 88 50 112 172 128 38 146 124 113 88 211 157 161 99 180 217 152 173 150 90 116 246 105 253 59 70 73 18 206 164 173 106 86 139 
209 153 56 166 164 138 95 111 109 174 82 154 153 182 130 161 96 48 166 154 142 166 214 56 102 158 155 184 91 124 161 87 53 87 25 170 109 154 87 162 114 151 154 82 112 77 119 162 182 88 80 148 201 169 151 92 135 156 170 141 94 171 205 166 44 28 92 177 240 215 214 104 46 24 187 126 198 129 88 108 162 93 38 71 142 148 123 133 126 152 90 32 91 199 147 226 162 83 146 155 
124 150 74 90 125 98 233 52 181 176 156 158 197 67 158 180 133 86 243 153 173 158 217 106 191 110 211 203 131 19 83 195 63 93 171 89 202 190 84 101 54 192 197 157 148 113 95 88 39 164 34 67 164 56 171 94 191 151 19 147 89 195 20 92 99 164 166 118 72 95 67 176 68 22 144 201 85 146 151 132 78 187 134 91 59 83 146 126 126 150 36 183 40 173 159 127 113 167 118 172 
142 114 97 184 116 172 136 54 129 172 119 57 146 71 196 109 81 117 201 104 28 118 175 23 96 90 241 200 200 122 171 104 122 160 198 35 72 131 64 102 58 43 79 142 81 138 61 100 56 60 87 141 153 132 170 207 69 76 106 210 97 204 114 172 179 94 210 119 107 170 105 53 218 89 161 140 67 196 167 153 85 108 103 89 79 187 97 194 101 197 201 154 161 194 111 167 204 130 115 190 
59 109 190 193 139 46 152 126 103 100 89 176 113 81 159 213 173 134 188 46 220 56 186 177 135 151 145 77 113 163 98 212 117 28 195 109 113 159 68 116 19 169 166 226 94 197 121 80 55 59 35 53 90 171 97 123 101 187 59 206 136 24 107 198 149 194 130 78 148 209 97 86 116 241 62 159 214 113 77 160 54 24 46 245 128 15 169 163 134 97 66 210 109 159 223 129 136 76 164 195 
230 127 104 40 131 64 168 109 20 184 111 192 118 80 94 168 88 73 167 61 124 111 154 230 105 147 78 170 169 101 140 170 192 58 237 123 98 121 181 106 90 13 185 96 100 77 65 95 71 189 55 160 153 64 205 98 189 159 67 88 65 57 85 71 177 156 204 219 229 172 53 232 220 172 68 119 204 202 150 61 99 161 115 158 175 154 199 148 149 120 36 51 138 112 150 43 172 188 206 150 
142 233 87 199 75 135 89 69 130 180 120 187 95 125 172 120 199 95 160 80 180 30 158 117 191 172 94 180 90 188 101 87 196 47 164 105 209 197 113 88 111 100 169 123 18 138 109 229 97 110 132 133 210 90 185 209 63 77 236 77 210 41 124 61 74 89 182 66 82 44 196 50 105 140 135 62 229 129 84 168 159 178 144 52 77 68 72 182 35 169 56 104 189 37 142 187 39 159 140 113 
123 212 185 144 183 113 157 213 188 87 165 207 106 192 212 98 50 194 182 155 156 25 215 192 123 177 105 93 148 76 190 80 107 123 162 216 192 126 142 161 90 208 162 109 43 103 94 24 200 190 21 48 43 84 123 237 20 158 174 171 155 163 51 181 135 181 24 155 36 70 101 106 162 168 166 137 83 91 108 116 100 66 158 239 95 181 115 91 106 202 106 122 139 74 191 58 104 101 175 100 
120 210 107 44 205 83 130 186 115 190 191 120 203 113 130 47 67 73 228 136 87 231 59 181 48 113 155 189 103 119 141 197 171 126 144 91 129 162 69 104 102 83 138 184 70 141 94 69 94 21 59 161 79 94 60 223 90 172 95 217 153 90 31 169 86 116 71 130 198 56 132 212 174 53 51 166 92 166 85 205 29 142 167 139 221 187 133 124 155 50 99 179 222 96 215 173 122 48 171 184 
155 194 180 170 75 150 142 111 185 67 157 62 50 177 80 197 228 184 71 187 126 37 20 210 190 184 163 222 59 142 90 223 61 62 144 128 104 74 58 217 117 96 106 99 62 175 150 70 129 41 167 150 115 71 113 74 201 51 64 160 201 191 186 190 114 72 32 175 137 176 60 51 114 91 127 32 188 69 199 208 168 227 169 42 206 31 63 170 32 210 143 158 99 133 234 77 171 160 173 186 
202 193 62 63 42 194 147 114 214 42 64 55 172 44 97 186 83 148 55 45 168 101 146 98 65 145 156 113 118 208 137 200 210 61 47 184 102 100 185 40 64 117 210 179 125 196 112 160 200 79 233 193 138 208 176 92 204 132 93 60 127 86 46 178 85 127 162 114 163 109 104 42 111 186 24 190 75 218 144 179 67 98 50 229 68 94 154 192 68 97 198 211 162 201 85 168 50 199 85 79 
82 122 214 149 103 105 112 115 74 87 150 59 170 167 195 78 36 76 193 134 127 120 31 189 40 41 96 111 52 213 88 131 119 225 107 95 6 58 92 122 53 110 111 74 40 69 69 180 123 174 202 108 147 60 131 170 60 27 174 178 122 116 90 63 182 69 110 191 174 180 201 72 60 164 62 30 186 152 39 118 142 124 149 200 202 207 120 42 93 124 48 62 79 170 87 130 77 55 93 60 
105 203 82 184 198 130 158 148 101 223 196 71 98 111 183 146 133 65 162 33 44 80 125 133 177 171 130 93 134 112 43 156 131 197 79 137 176 99 166 143 34 187 132 109 110 65 210 89 126 52 205 174 114 178 105 186 146 189 154 175 125 89 95 135 80 201 190 172 115 154 34 61 79 192 109 109 160 222 183 120 216 144 163 150 150 71 82 138 141 48 189 177 208 221 138 174 221 146 205 180 
127 146 104 129 111 133 177 86 177 204 169 141 53 64 241 175 134 184 178 92 112 174 169 173 142 9 142 167 160 119 74 119 71 115 87 50 207 119 38 168 47 137 109 202 235 70 81 220 146 43 239 181 127 79 68 156 161 68 208 144 119 82 68 125 196 155 39 119 176 126 100 166 82 72 123 128 227 132 76 216 210 44 176 181 163 121 202 89 153 205 148 18 136 207 177 107 57 58 142 75 
129 186 224 103 199 127 105 21 86 116 202 64 122 198 195 189 180 176 101 179 200 129 164 126 204 103 60 136 208 182 229 201 38 184 143 142 98 55 80 177 155 225 206 121 113 129 143 211 144 148 45 177 68 200 69 157 174 59 181 51 141 168 54 126 71 102 108 107 31 171 219 90 162 151 105 54 162 52 157 92 182 140 50 182 190 67 119 107 75 231 220 206 211 86 204 189 74 114 134 69 
52 104 69 112 34 162 133 203 88 165 137 105 152 153 78 156 59 226 52 97 59 76 148 103 213 188 101 41 150 171 47 176 203 130 96 111 155 204 27 91 19 125 187 49 89 97 65 105 209 223 48 141 133 127 104 175 51 135 45 203 69 117 20 156 192 138 153 86 176 197 75 167 209 138 135 149 102 91 209 170 148 121 72 111 102 121 232 64 142 145 145 96 67 146 84 124 120 89 216 51 
66 107 148 53 112 131 151 243 16 36 35 163 121 99 195 58 154 125 41 46 123 23 175 72 201 171 151 71 227 112 112 37 97 176 191 135 51 127 142 61 183 99 81 144 119 173 183 150 191 140 31 74 185 230 182 62 142 104 221 176 50 77 58 122 181 83 42 110 200 103 108 149 199 205 128 129 157 140 45 96 75 233 66 241 173 118 57 131 59 207 159 109 64 66 58 151 116 79 123 201 
80 57 134 149 89 95 122 97 74 52 203 119 70 99 80 196 74 126 53 61 220 128 138 132 89 57 82 212 184 44 235 122 104 30 64 146 177 185 22 135 194 110 188 185 125 70 129 171 133 79 197 128 140 101 204 51 88 50 112 202 142 102 204 180 98 232 62 82 43 215 206 100 164 168 172 144 62 192 227 115 79 94 111 56 206 81 188 209 195 166 195 218 172 133 178 80 144 40 114 60 
85 66 180 78 153 152 175 187 101 54 62 145 98 100 195 154 67 225 211 52 33 111 201 98 158 219 120 87 161 181 173 53 105 209 121 197 122 111 138 70 126 85 187 179 133 173 101 69 113 102 211 174 114 104 164 77 219 108 190 198 62 27 188 172 133 102 97 133 114 91 82 176 78 215 148 75 130 143 32 188 126 154 138 150 123 177 68 138 47 203 98 171 61 126 88 165 151 145 125 32 
60 152 209 200 135 56 66 48 87 196 72 173 221 223 171 55 191 144 143 219 227 216 223 104 203 175 60 189 143 227 150 118 62 91 216 167 175 159 189 120 13 111 104 55 111 158 76 181 199 204 74 113 148 39 170 76 174 142 195 175 71 166 36 59 50 103 50 187 160 81 133 40 163 97 175 139 112 181 113 178 190 84 72 131 79 189 164 198 176 61 131 132 62 84 157 147 220 200 129 118 
64 94 140 196 150 79 143 59 180 198 157 137 179 50 74 99 97 194 167 70 155 65 119 210 18 81 83 123 172 185 190 195 23 175 123 149 77 126 218 201 112 206 118 160 84 113 203 101 171 137 218 59 24 51 184 189 35 174 121 66 233 88 118 120 88 46 56 116 135 48 212 212 139 146 135 109 59 182 69 191 112 116 182 78 162 203 120 204 180 232 49 187 101 210 143 157 94 106 129 178 
77 173 72 127 146 221 191 157 125 106 72 99 161 230 96 135 191 169 202 111 199 151 116 48 158 180 34 143 166 92 84 213 221 124 189 129 166 76 56 154 120 99 200 126 26 169 201 73 142 170 125 100 199 188 195 179 215 235 205 217 17 24 127 71 100 208 82 212 110 195 111 109 154 176 186 190 122 100 51 119 200 65 84 232 217 186 205 109 45 81 59 73 152 230 206 127 63 33 87 72 
46 129 44 106 207 109 145 77 51 197 51 138 30 156 78 147 174 66 40 180 24 187 212 205 65 38 79 40 177 183 226 71 192 201 182 185 78 173 163 154 128 43 53 230 114 144 90 18 238 219 74 26 117 26 151 169 217 138 156 191 187 171 71 96 188 63 158 204 79 21 163 117 156 54 174 91 90 103 79 161 87 121 148 51 72 60 142 133 150 132 209 105 89 42 147 223 178 166 94 21 
221 199 126 145 92 132 183 115 95 90 55 144 169 184 124 226 166 176 214 190 188 133 185 92 109 94 173 244 71 161 217 184 92 160 188 130 174 176 198 76 179 51 161 49 144 177 154 55 40 87 71 186 49 152 46 63 159 219 97 15 58 168 63 195 102 143 169 155 205 216 82 91 47 52 223 105 138 45 151 163 138 129 177 183 121 150 111 71 108 157 56 191 162 85 81 217 41 160 123 92 
163 13 119 190 143 219 126 152 50 52 98 57 182 166 78 176 80 56 143 139 91 118 106 161 73 179 136 153 103 114 207 153 189 87 135 202 197 98 83 75 202 74 33 111 164 186 142 34 66 186 157 59 38 152 132 75 123 132 112 112 91 136 125 156 175 41 147 188 137 89 122 161 101 109 198 116 74 59 201 238 148 33 180 168 161 71 63 78 201 144 176 191 123 67 51 26 192 202 26 167 
193 114 136 155 49 37 158 85 134 155 28 12 199 185 239 138 242 129 54 91 116 71 113 161 174 93 182 154 149 157 37 167 117 144 102 85 112 164 104 142 171 67 172 103 24 111 96 204 149 70 148 109 184 68 182 82 121 146 71 185 189 49 61 107 102 149 149 31 43 199 79 71 63 190 23 139 111 89 51 203 179 231 48 166 44 71 70 77 249 111 94 110 31 93 170 124 227 83 202 94 
64 190 243 100 158 177 188 42 146 79 122 179 61 179 93 165 128 76 144 182 49 203 126 113 180 32 124 131 122 228 113 55 61 176 108 38 60 167 215 57 109 136 157 170 215 153 177 179 187 58 183 183 152 39 161 76 100 177 128 111 204 75 43 233 88 55 144 63 41 202 49 59 60 143 96 89 96 202 99 194 110 37 204 106 137 195 63 89 166 211 196 84 49 172 171 103 141 85 154 92 
102 224 133 84 232 232 159 164 164 75 123 149 172 205 83 85 133 141 158 190 140 59 61 53 92 116 110 123 91 168 64 33 45 119 231 190 177 45 158 70 212 159 175 123 107 199 230 160 55 124 136 81 64 106 115 150 46 206 137 68 170 165 75 162 109 79 57 200 83 198 188 95 55 236 160 64 156 78 191 128 158 90 136 211 204 83 210 225 159 88 26 58 219 129 121 94 169 202 85 161 
144 158 101 167 84 211 188 167 88 171 231 53 126 175 80 52 78 115 160 61 76 185 226 121 131 166 176 220 22 51 162 44 140 178 69 105 210 109 123 123 128 142 102 126 170 161 20 113 119 195 36 187 93 156 190 166 192 146 173 195 135 32 29 87 157 149 18 159 102 52 155 151 190 170 207 183 251 174 165 175 145 198 120 202 59 40 99 154 180 191 16 165 30 236 164 197 89 47 66 165 
109 186 228 52 48 127 89 211 203 227 110 142 91 74 125 105 159 167 199 53 199 85 189 46 63 182 174 152 50 141 171 242 161 109 205 202 38 54 101 220 90 63 225 56 131 181 104 108 185 24 129 143 59 68 201 29 197 220 47 61 193 191 191 115 211 147 154 140 107 112 90 204 207 163 184 147 152 161 125 140 179 123 222 190 104 218 43 128 112 139 72 37 176 112 126 190 196 145 103 30 
58 52 26 46 110 57 144 175 225 90 50 54 184 47 178 217 172 186 170 73 202 110 188 97 233 196 223 60 39 232 149 60 87 199 196 150 112 88 120 190 44 140 135 129 137 119 190 195 26 103 92 77 58 89 84 37 117 129 166 162 42 72 143 192 163 119 87 24 185 103 46 243 107 63 188 146 51 200 153 58 155 139 115 147 58 63 157 87 112 40 35 160 22 65 77 105 229 142 146 28 
117 215 143 113 76 151 47 94 124 34 70 117 234 118 108 145 61 214 139 118 155 81 169 122 107 118 76 186 118 181 95 124 57 91 95 210 200 47 146 144 141 177 70 105 79 92 126 118 151 163 146 124 162 138 46 96 130 165 133 204 242 163 197 118 109 163 94 113 174 178 97 192 100 199 71 54 61 211 190 29 118 197 93 130 138 166 117 127 115 81 172 67 40 179 196 155 189 208 71 93 
96 70 86 100 210 39 192 61 75 158 117 178 144 138 38 79 194 97 212 13 221 102 40 168 137 20 136 135 151 113 113 174 66 74 159 161 203 184 124 186 95 209 196 91 98 69 138 160 204 144 153 32 164 197 118 118 52 55 112 216 94 132 60 101 156 42 52 49 75 57 60 107 88 175 210 129 43 181 184 170 68 154 85 124 165 42 92 210 151 230 141 142 151 87 99 209 65 179 73 180 
46 63 212 134 93 65 191 130 78 122 191 123 154 194 125 184 205 81 58 139 41 205 143 156 87 186 205 82 204 122 151 197 40 127 144 196 132 50 143 191 189 68 170 81 99 136 47 165 45 49 204 45 188 100 113 180 85 195 33 170 204 36 52 124 188 220 20 131 114 226 97 156 136 104 167 98 214 53 134 46 113 175 144 128 173 72 145 42 231 134 31 34 120 174 38 179 46 136 29 68 
49 47 164 188 66 151 83 199 172 225 149 77 41 199 179 28 171 60 83 142 226 185 87 172 206 221 131 20 146 182 132 77 221 128 192 180 84 156 70 140 75 103 88 164 89 231 176 36 58 18 113 114 218 152 64 66 112 191 45 80 237 126 61 28 94 17 51 150 69 56 38 67 237 120 71 90 171 32 175 176 204 167 191 205 129 144 172 197 141 67 199 168 144 102 102 50 131 157 62 210 
98 165 40 115 43 168 132 64 166 126 172 102 206 204 43 159 62 209 182 97 100 113 156 149 51 134 101 177 9 81 74 149 136 28 45 84 137 31 67 101 233 117 124 225 136 155 111 27 118 146 149 131 72 189 175 19 144 108 129 159 209 177 198 43 165 177 157 143 28 64 96 177 98 207 53 110 213 51 214 78 79 82 84 28 155 153 160 138 78 216 124 218 59 39 71 201 156 177 143 131 
91 47 124 145 78 179 80 177 126 62 157 124 40 210 105 10 107 206 104 25 217 126 133 213 230 163 185 81 24 103 178 194 136 102 94 126 237 204 88 53 150 135 46 158 68 73 184 226 220 159 91 17 69 106 188 68 185 174 84 69 85 136 104 78 149 83 118 126 60 51 120 102 143 143 42 19 99 79 70 102 202 111 29 161 127 172 178 135 132 32 90 60 213 98 152 208 101 144 105 205 
147 183 136 212 207 126 72 70 154 242 185 121 21 158 62 78 87 168 119 175 187 121 190 36 226 66 193 114 77 32 92 146 189 87 184 194 46 202 160 86 103 40 105 155 81 114 91 87 65 70 99 164 101 188 67 153 86 97 79 104 76 235 90 114 166 199 24 117 11 74 45 222 65 19 69 184 120 161 191 26 60 109 46 55 202 135 167 198 91 173 104 206 161 203 187 15 98 144 182 86 
191 133 149 219 69 201 191 213 18 145 170 134 47 65 236 141 162 161 68 69 137 58 143 89 153 64 168 199 170 92 96 181 60 199 101 156 54 116 240 88 141 124 57 124 146 227 233 90 75 192 119 171 92 73 205 190 193 54 94 161 110 206 127 119 192 198 38 76 125 23 121 207 83 183 142 30 50 56 151 54 99 152 161 142 200 92 104 71 156 33 237 119 150 31 100 189 97 70 82 140 
154 210 67 71 63 172 109 61 89 209 73 139 153 55 167 140 104 166 110 219 193 197 62 129 77 116 98 47 84 170 79 15 18 71 88 102 115 180 94 51 233 196 67 129 21 101 195 94 234 74 151 104 212 47 67 31 165 223 109 135 89 55 138 84 62 127 158 177 43 194 163 125 114 232 165 141 79 224 31 97 55 81 62 121 32 114 117 212 156 210 78 51 210 170 163 100 73 162 117 68 
138 26 57 208 106 99 112 36 137 190 206 8 140 128 144 122 167 93 226 151 103 181 220 128 133 198 117 63 151 212 109 191 167 34 90 55 82 215 47 200 117 160 141 127 198 161 7 170 187 195 66 70 192 187 30 70 112 237 79 130 201 181 86 172 64 62 113 160 175 51 28 95 70 91 163 166 146 82 141 163 122 179 92 221 158 100 166 100 173 96 117 109 160 66 29 215 168 112 77 105 
95 64 150 185 160 167 175 28 129 165 170 172 132 155 118 161 148 60 139 173 73 176 61 116 117 5 234 149 57 179 169 144 162 57 200 52 131 189 111 24 67 192 203 148 119 136 98 99 186 164 81 157 101 130 88 199 215 72 121 196 187 61 170 172 146 169 227 69 151 135 158 98 124 84 172 87 102 183 92 75 165 221 79 211 102 171 29 203 195 29 68 205 76 154 101 106 198 148 151 44 
114 215 38 170 88 141 75 201 159 167 150 82 56 72 180 196 161 68 182 128 171 92 182 118 192 112 173 178 68 151 176 141 83 126 63 129 136 153 194 197 192 208 209 207 123 86 105 86 177 76 117 174 157 116 96 164 205 126 115 142 139 132 147 32 217 34 53 114 88 142 226 206 3 115 62 98 50 105 46 86 52 32 195 95 137 59 141 177 198 227 163 47 210 148 205 137 177 82 162 154 
196 30 46 96 227 88 34 33 135 156 190 189 182 215 60 37 210 221 142 169 99 60 73 63 58 63 123 200 48 167 81 91 113 69 167 101 109 226 72 179 80 111 53 23 40 32 108 162 68 157 141 188 92 210 150 86 205 128 116 195 175 106 115 189 98 155 150 67 62 100 142 148 55 67 58 171 31 142 36 156 202 144 61 154 110 157 119 19 129 60 198 170 80 36 42 118 84 42 81 27 
107 151 118 48 105 160 141 152 56 100 209 88 31 43 113 186 77 83 155 170 165 32 112 197 116 194 182 173 155 129 147 150 95 52 214 98 72 103 142 104 206 178 69 100 190 95 152 140 113 49 70 146 54 161 175 110 105 209 120 60 28 231 57 113 227 205 42 146 205 48 146 99 171 192 172 143 85 100 90 102 57 156 196 131 208 123 81 175 222 110 141 90 184 78 205 82 131 199 58 118 
173 177 163 212 83 206 119 189 106 226 93 181 81 141 121 50 139 194 166 117 63 209 66 79 83 61 34 175 19 111 184 20 72 61 86 85 139 202 121 43 84 183 128 66 197 198 174 104 132 161 47 84 146 185 135 42 176 201 159 163 193 100 175 83 165 162 94 67 146 104 135 226 155 164 154 230 60 187 190 162 135 193 25 127 209 61 45 57 210 112 111 210 211 147 194 110 187 102 141 141 
171 157 159 73 28 132 174 132 85 122 114 51 46 151 93 77 62 179 164 184 175 76 88 123 187 185 82 123 94 163 135 62 87 213 201 116 153 179 78 101 212 165 46 77 89 168 29 196 60 114 37 130 175 207 48 57 128 188 163 209 161 87 143 75 99 163 89 23 195 132 38 175 70 171 148 49 160 29 93 176 95 108 150 55 227 116 146 237 80 204 79 100 64 170 123 122 164 164 166 195 
36 60 115 128 201 30 143 94 118 99 62 48 196 53 116 166 62 106 195 163 119 49 103 105 114 201 181 202 190 81 105 11 151 198 209 194 192 76 171 156 163 197 104 94 191 172 199 82 194 45 198 73 131 177 180 123 124 84 212 20 221 189 195 77 76 90 173 85 77 156 178 155 16 105 119 198 187 147 97 152 134 64 83 60 88 92 187 54 158 134 112 47 102 152 120 73 68 198 188 113 
168 82 126 101 58 114 191 172 114 134 129 187 98 182 95 185 68 196 112 59 75 112 51 31 181 229 177 48 203 129 170 174 85 197 53 36 75 193 169 154 68 35 186 123 61 169 132 173 130 180 142 87 180 144 178 210 71 14 214 120 129 126 47 137 61 192 38 112 116 66 102 181 22 161 181 85 159 97 66 57 84 69 39 111 189 29 120 132 127 158 203 198 100 192 102 62 134 118 102 102 
18 108 189 73 182 103 216 201 149 148 59 128 39 158 66 112 111 41 58 149 156 58 90 104 83 42 146 76 38 224 42 119 66 105 208 101 50 89 224 65 71 99 163 30 82 227 42 187 93 117 158 168 171 158 128 55 194 71 96 183 154 180 193 183 69 131 199 178 151 92 209 89 85 69 55 62 185 66 39 151 184 220 36 146 59 70 113 159 124 150 119 63 81 44 201 188 139 158 218 116 
115 168 61 195 178 209 180 57 89 157 25 204 181 158 57 193 41 189 228 223 160 235 116 235 171 204 137 38 183 168 81 217 179 136 141 53 159 139 48 162 43 117 148 113 95 71 23 176 22 91 148 99 195 140 170 64 80 182 142 182 151 176 123 62 160 50 69 220 178 74 75 123 237 123 146 167 164 184 66 178 174 176 147 41 192 157 112 128 181 55 110 131 197 138 44 85 193 39 31 137 
232 196 169 93 90 78 181 50 124 203 86 197 119 62 190 40 120 73 117 52 162 128 122 52 63 123 214 147 80 180 74 204 157 41 31 202 187 173 176 42 100 236 231 51 76 63 55 98 179 193 178 190 123 118 114 184 80 48 187 213 73 43 66 149 61 121 236 188 205 127 196 191 221 163 99 94 128 136 125 85 157 124 104 26 40 192 66 130 153 167 200 54 133 219 154 230 154 112 189 110 
85 160 144 86 63 174 137 54 56 23 157 111 113 89 18 88 47 168 104 56 44 218 197 111 178 194 94 62 106 55 137 36 135 86 128 127 91 104 178 168 73 71 106 78 238 88 117 75 162 82 75 105 138 42 117 164 103 205 134 179 196 84 111 200 122 108 119 154 154 160 73 189 141 160 90 127 157 157 65 104 216 193 79 182 201 85 104 173 63 90 36 192 54 81 77 111 145 115 221 176 
117 101 205 73 197 180 165 191 138 143 193 195 129 90 123 66 189 66 166 152 46 115 214 96 155 78 156 75 159 121 112 91 49 171 125 58 178 25 107 104 102 64 131 228 135 78 77 38 108 76 160 210 102 37 48 140 216 62 213 108 62 49 150 180 89 63 64 84 112 47 229 173 135 38 190 205 71 111 131 222 173 180 54 81 163 109 56 78 178 155 133 157 75 140 98 231 152 122 61 131 
168 79 175 68 181 51 181 92 191 142 98 216 219 87 81 214 107 71 181 62 44 43 209 70 148 65 42 50 140 129 125 51 169 188 120 201 117 113 199 148 136 114 129 201 200 58 207 66 47 59 90 40 201 112 177 143 87 108 104 138 113 111 195 114 39 61 101 142 176 138 131 167 205 128 203 69 52 146 112 127 162 146 84 23 114 188 129 53 186 131 201 190 141 106 195 122 26 144 63 61 
156 142 33 116 174 153 101 201 180 120 238 133 176 102 92 112 99 190 123 180 53 122 196 146 82 148 95 53 101 133 160 52 118 137 124 75 140 61 64 93 32 61 67 213 151 85 109 161 131 172 62 134 49 92 184 237 117 89 35 142 74 100 84 190 56 122 193 207 112 176 165 73 165 114 128 192 118 192 83 75 213 103 205 57 140 127 113 87 195 65 147 205 208 34 176 163 150 103 75 119 
69 71 57 142 71 184 151 100 95 85 136 51 177 173 119 125 158 113 144 200 91 135 85 159 54 207 77 161 137 56 204 133 171 113 184 99 149 198 80 78 208 112 87 34 88 119 128 152 133 72 53 36 30 74 239 72 200 62 76 87 90 175 74 179 193 115 99 24 46 215 96 100 64 100 151 134 40 113 119 162 96 126 4 225 111 136 112 133 34 172 179 94 222 130 49 62 116 163 152 83 
164 190 60 178 108 217 84 72 76 41 176 129 49 184 159 46 143 227 59 36 47 139 134 49 142 64 193 158 129 138 32 34 163 41 79 72 183 62 185 94 110 108 125 53 29 214 103 101 97 169 125 183 71 146 104 86 207 92 195 81 153 209 195 67 178 126 200 7 162 162 131 193 139 178 200 59 169 123 114 198 161 90 156 137 193 157 34 192 189 167 146 38 54 239 117 57 151 198 206 182 
127 116 50 48 139 49 113 178 158 165 118 36 133 93 43 50 150 20 229 92 202 46 28 49 104 62 67 139 219 48 226 126 181 113 202 131 33 184 174 53 124 93 32 106 80 126 73 170 81 163 46 78 189 140 73 166 64 93 91 144 21 88 93 56 146 220 101 70 131 118 101 20 206 131 49 178 89 100 57 113 108 153 165 199 32 84 52 201 145 177 59 26 178 123 145 181 204 154 80 161 
147 63 111 140 85 121 153 184 186 89 152 141 15 208 155 81 180 35 165 196 139 32 16 14 223 174 134 119 134 39 32 74 56 65 199 183 63 228 198 79 151 110 203 194 99 66 127 150 47 84 55 140 164 158 183 54 146 41 154 61 52 146 85 151 140 102 203 182 126 191 143 133 72 188 143 95 206 152 150 85 165 103 186 51 166 91 121 115 27 138 121 97 118 115 70 89 60 112 117 80 
80 156 102 17 58 129 118 58 156 94 49 133 66 103 31 213 142 201 42 88 93 206 69 173 214 38 182 112 104 72 112 153 93 164 146 166 82 34 135 90 175 45 83 57 192 34 140 72 87 97 109 54 93 161 191 166 171 114 162 77 189 190 119 201 111 159 49 212 36 149 77 175 58 139 70 149 104 177 75 53 74 125 66 215 97 185 176 121 46 113 169 218 194 158 174 114 124 153 70 172 
163 139 175 212 112 237 205 208 106 146 34 38 191 200 192 35 172 175 41 161 89 190 73 44 209 155 94 207 84 185 190 192 84 49 169 134 129 120 157 51 216 119 80 194 102 215 185 189 160 87 56 198 212 227 158 131 49 83 221 182 99 193 206 48 180 156 189 78 60 187 108 59 45 63 52 106 96 71 102 122 82 52 222 154 216 194 146 41 110 49 92 75 184 70 57 59 144 159 127 187 
176 145 151 122 205 162 32 138 34 124 162 217 71 180 110 161 124 98 142 68 157 111 24 131 113 85 154 194 157 120 75 55 71 71 138 49 119 124 38 188 223 59 99 144 16 212 71 92 18 135 202 183 98 65 226 216 232 114 75 125 185 133 207 119 139 135 102 174 160 102 55 105 206 46 85 97 214 128 63 28 65 196 211 176 122 153 86 229 226 78 128 107 199 188 181 186 36 215 168 91 
212 163 198 44 23 178 144 113 161 122 141 172 129 102 97 145 121 169 82 193 122 142 101 49 209 172 126 224 49 216 186 101 140 138 77 35 138 98 222 145 112 204 207 42 117 91 157 131 162 116 93 80 169 70 169 189 85 177 171 96 118 82 143 60 154 183 176 209 34 137 94 104 23 175 156 184 110 107 106 217 42 190 174 121 168 99 182 86 150 126 97 100 114 77 111 50 65 147 9 168 
97 177 91 193 92 65 122 184 161 226 144 98 100 48 127 100 205 186 120 84 96 112 66 30 108 185 140 105 87 175 50 18 182 124 125 182 96 191 150 202 107 195 49 91 149 102 129 74 131 69 141 189 91 21 157 185 94 115 62 83 178 162 106 84 210 54 39 178 147 51 138 179 221 187 59 196 204 194 148 82 181 126 154 37 110 87 114 94 145 116 59 200 193 152 67 80 144 173 51 46 
68 224 72 131 209 165 125 144 60 19 156 66 214 136 61 99 172 146 170 197 124 121 99 163 47 51 136 171 82 50 73 118 85 99 145 91 104 74 94 170 162 134 26 194 26 183 140 222 150 96 89 29 143 176 183 117 186 206 104 188 230 108 125 69 80 221 144 117 34 176 177 239 113 84 79 116 98 104 108 157 158 133 11 212 149 168 66 204 165 197 50 75 22 108 89 119 195 179 62 183 
129 205 57 178 81 159 153 61 89 138 188 87 64 198 169 87 144 130 56 219 144 165 53 93 156 104 205 53 121 238 129 134 84 103 204 75 58 114 178 99 90 156 82 139 62 137 122 145 166 180 121 90 190 228 109 149 63 35 228 51 191 157 102 195 45 159 227 198 201 65 222 136 111 85 58 219 134 51 26 186 106 30 12 150 88 211 48 51 58 196 90 137 206 88 209 183 170 25 188 85 
88 149 163 91 224 51 185 153 182 41 214 81 205 50 166 39 100 172 36 98 208 205 190 244 91 151 216 140 103 56 91 81 150 168 30 35 98 119 172 119 212 175 90 93 98 150 101 131 95 229 238 128 91 214 244 205 91 75 94 209 100 43 47 80 69 134 173 138 122 171 182 161 33 35 150 28 51 63 175 70 170 101 130 218 178 129 236 141 136 28 129 93 76 138 23 76 151 140 147 199 
156 72 200 71 42 189 157 47 113 65 205 193 116 37 69 58 208 163 155 68 102 208 164 158 103 97 181 172 94 202 57 135 163 101 61 121 90 148 204 87 186 94 172 82 187 136 192 149 119 194 114 66 201 65 127 183 159 113 145 60 79 81 163 147 97 183 210 148 67 31 202 160 174 225 156 203 190 114 76 204 153 211 202 128 110 85 200 122 107 63 88 62 227 183 185 144 123 124 141 70 
159 85 145 25 209 170 148 106 160 143 76 93 84 193 70 177 30 113 81 174 113 183 112 73 133 153 165 153 217 140 146 211 108 111 225 99 209 89 156 163 159 42 126 240 86 69 187 148 160 108 151 180 96 151 112 63 194 152 140 171 162 133 20 159 70 129 68 66 115 192 122 121 168 101 113 138 99 49 222 94 165 84 239 203 183 64 160 191 174 81 215 62 211 100 51 47 49 16 174 151 
113 68 142 97 96 114 169 145 86 214 70 92 183 200 143 147 54 112 67 191 115 137 86 55 60 165 85 178 159 151 176 63 210 140 42 64 29 90 162 102 105 158 55 169 135 102 111 113 231 185 87 120 61 140 80 97 147 150 145 192 158 52 203 67 183 201 45 52 112 122 89 136 155 138 177 170 165 66 167 108 64 127 32 153 207 96 163 129 92 198 118 190 94 117 143 33 51 182 155 120 
174 54 50 52 156 91 108 38 143 139 56 28 21 56 220 33 208 111 91 217 25 94 89 94 212 215 172 100 176 148 162 217 132 167 40 137 91 193 85 50 173 238 55 149 172 34 196 162 155 154 49 19 72 86 190 118 218 117 184 116 104 80 182 205 47 193 121 197 176 105 106 83 132 185 202 109 177 154 172 90 43 65 67 65 228 61 147 137 106 80 105 205 126 183 28 181 122 61 47 60 
59 223 84 134 78 77 188 158 19 165 60 114 81 86 152 143 125 50 86 151 38 88 85 133 177 90 130 24 170 97 144 62 186 214 221 199 150 86 114 25 216 42 109 41 29 63 157 133 114 111 127 52 106 72 136 87 86 104 123 193 84 72 153 107 216 142 184 133 181 146 72 105 200 134 58 116 179 168 199 122 183 200 102 128 144 168 204 178 174 89 79 205 202 173 195 99 124 52 26 80 
215 114 15 215 137 119 86 99 106 95 59 90 127 95 64 161 94 86 178 160 199 120 200 144 158 47 151 101 108 53 65 113 204 160 44 130 173 103 130 117 88 109 75 126 187 103 225 199 58 54 81 75 142 136 215 42 34 139 166 81 82 95 156 200 119 41 145 86 47 156 105 105 138 126 48 104 61 136 35 76 19 120 121 199 127 186 157 66 199 128 104 130 153 239 113 161 62 190 194 70 
163 173 78 80 111 184 167 181 218 167 144 215 151 137 145 107 111 145 83 124 105 204 78 121 163 97 91 83 16 117 147 156 205 103 56 231 145 143 192 157 67 157 134 16 27 125 72 213 115 199 178 50 218 219 97 123 66 191 80 202 190 93 80 90 162 155 56 73 198 193 194 61 169 40 149 176 108 112 195 177 70 160 17 42 181 170 69 28 152 128 180 90 190 156 120 149 134 50 221 45 
155 116 149 218 46 140 79 214 190 44 163 212 201 214 71 219 64 28 161 238 176 93 169 227 234 196 207 200 220 195 42 65 233 10 59 57 163 89 67 171 100 104 103 146 84 61 66 75 112 207 166 66 90 51 133 81 171 121 53 185 183 148 205 84 75 49 57 39 106 183 131 118 71 55 188 152 97 109 64 224 139 53 166 139 164 175 199 155 53 86 188 190 212 159 214 48 159 167 94 219 
117 38 137 55 207 167 159 29 29 51 86 131 181 143 150 107 108 133 106 77 208 211 149 49 54 103 160 149 111 220 199 139 124 103 108 120 119 171 173 163 162 55 100 110 88 131 210 151 44 66 103 37 155 215 202 38 96 147 40 129 146 118 149 133 87 193 57 177 129 213 89 186 169 62 118 100 214 86 209 103 147 178 177 118 149 182 89 173 192 171 170 96 175 58 179 108 28 135 225 189 
166 169 165 61 67 81 86 206 177 19 116 204 172 214 105 201 216 127 39 149 205 72 32 203 186 90 172 187 187 121 146 137 209 176 79 231 201 69 54 47 48 82 111 32 206 176 136 240 86 63 172 34 54 5 184 57 159 184 150 171 44 32 119 67 212 202 59 63 74 121 194 76 104 95 200 181 190 81 206 166 182 197 229 49 73 189 163 185 62 230 117 47 208 66 163 186 104 72 188 177 
92 194 161 93 63 117 159 189 189 181 161 172 83 34 53 120 191 77 133 189 61 147 166 189 173 79 31 80 75 47 101 110 87 160 86 176 156 68 205 68 153 59 111 136 152 185 102 95 133 113 171 134 54 178 107 40 173 201 124 127 198 156 58 183 174 158 67 126 116 230 85 192 105 58 147 178 91 121 19 206 38 71 109 178 54 173 176 64 48 188 191 71 28 85 151 70 169 114 246 77 
82 20 75 156 106 119 100 143 61 98 218 101 174 92 82 227 156 151 72 119 187 72 60 156 169 57 192 111 144 116 83 74 219 222 106 95 31 49 166 67 66 99 27 114 45 83 107 240 126 95 104 102 97 151 167 57 72 124 77 169 221 197 158 73 79 99 150 156 208 58 74 115 119 136 50 162 44 104 113 132 102 104 76 164 231 171 56 231 124 184 56 128 88 130 139 101 175 163 163 51 
198 71 105 61 144 131 105 68 176 150 231 83 159 167 117 184 150 59 155 64 91 168 145 161 127 37 106 75 99 122 126 92 128 68 185 72 77 46 162 67 157 38 98 59 32 145 54 14 106 55 153 173 133 237 205 67 151 145 136 72 84 187 104 104 105 222 119 41 193 224 200 123 189 67 134 137 114 158 187 88 112 155 104 141 135 226 151 55 134 194 90 91 125 178 23 68 227 101 85 157 
206 72 152 101 54 98 75 127 212 154 173 53 179 104 81 116 99 106 95 179 157 78 66 129 191 23 44 91 124 190 168 198 162 190 127 94 166 121 235 145 134 103 116 170 118 55 102 184 90 69 54 125 65 63 160 203 136 165 83 55 151 59 65 197 120 126 139 43 124 177 130 189 72 73 125 145 115 166 102 55 177 181 131 78 115 189 46 189 136 117 128 111 90 68 73 79 22 199 165 155 
229 48 203 24 86 195 111 86 201 145 171 181 172 175 173 96 88 161 51 164 177 172 84 142 126 75 206 157 220 164 27 171 130 137 155 86 160 133 70 201 115 123 147 69 230 68 50 174 78 149 91 231 84 32 184 123 54 52 205 129 83 81 69 191 212 67 109 229 40 125 147 99 155 68 132 73 67 110 165 123 140 78 195 78 186 151 164 83 152 164 18 118 221 173 123 171 102 133 70 73 
77 189 215 62 103 48 21 209 35 216 172 119 228 54 118 83 43 227 132 165 34 25 209 64 151 63 161 100 38 58 231 125 178 50 100 124 200 73 162 201 108 212 118 96 144 145 200 39 190 19 70 126 154 82 192 134 91 123 77 164 176 44 69 92 136 216 114 199 119 22 136 64 213 120 156 87 173 196 170 168 201 212 22 188 232 206 119 216 170 167 154 165 36 110 215 25 76 168 63 88 
89 181 58 44 194 212 175 161 165 72 193 126 183 73 69 108 144 102 141 179 76 136 148 84 147 44 54 61 58 57 78 226 66 175 207 134 47 213 192 161 204 65 134 16 37 44 26 174 191 107 195 157 154 214 88 39 119 37 176 108 76 149 137 50 203 55 114 44 160 201 164 81 181 163 149 231 59 169 180 129 40 24 51 33 224 37 233 113 219 68 66 197 49 130 242 209 130 126 42 237 
120 86 77 143 130 40 173 157 174 151 95 26 137 58 191 124 156 42 181 107 136 119 172 125 40 149 61 182 212 71 57 197 236 44 61 96 54 183 59 104 210 150 131 29 174 211 41 28 95 58 117 186 118 145 158 69 112 133 134 166 192 193 90 98 121 95 142 143 67 75 234 58 220 198 190 114 169 141 202 213 99 77 115 87 69 100 101 145 89 139 170 121 70 151 157 122 174 123 48 125 
