P2
100 100
255
87 156 148 174 131 233 206 200 150 36 132 46 76 65 96 19 205 73 100 217 179 72 175 107 139 112 185 161 83 95 164 161 134 177 162 217 208 32 167 29 91 77 166 131 156 176 100 138 73 122 18 135 188 230 144 182 175 143 163 69 112 193 38 134 160 96 159 57 188 77 218 70 172 61 171 167 41 133 33 175 158 91 222 119 55 81 89 140 62 219 152 193 14 98 117 74 155 190 163 187 
167 49 91 106 138 153 170 216 133 133 124 195 144 57 119 77 234 174 137 54 40 59 110 92 109 186 54 64 46 116 79 149 127 104 147 95 55 227 191 148 144 89 100 88 33 104 146 172 161 229 148 86 60 91 131 114 109 90 189 113 225 132 90 77 150 68 135 161 150 86 144 126 100 214 76 31 144 126 185 136 82 196 180 50 145 71 175 104 106 86 84 147 193 98 140 187 187 49 153 74 
102 121 58 76 90 145 102 59 62 49 143 94 51 90 37 39 42 93 47 43 139 99 142 88 209 106 178 161 209 196 105 108 63 82 41 241 81 54 162 101 66 130 74 158 234 228 144 48 169 206 103 196 214 99 103 54 35 130 132 78 157 58 72 206 106 179 222 92 144 139 190 148 183 107 107 165 106 43 19 120 38 10 223 81 60 164 117 158 117 65 70 224 218 167 78 114 190 137 92 79 
74 236 101 102 120 171 116 77 208 113 50 189 193 106 143 38 141 200 52 69 141 128 144 166 147 181 64 67 91 173 154 158 173 48 137 116 81 79 141 104 75 150 135 144 71 235 200 80 196 183 44 175 239 94 140 114 65 102 171 61 62 125 243 42 185 224 193 147 242 103 95 199 62 33 74 81 99 226 42 110 176 200 87 113 64 60 46 84 119 89 211 180 171 221 47 109 138 113 136 168 
163 76 161 44 56 51 160 231 69 72 129 215 158 130 76 200 134 222 190 155 61 184 86 24 81 204 70 57 82 227 64 192 75 95 165 68 40 108 207 125 91 149 66 161 43 67 179 66 157 108 87 215 196 126 214 172 145 54 168 107 112 124 114 77 119 187 19 228 211 206 104 172 155 95 156 114 157 10 176 205 80 170 21 97 109 174 37 162 172 108 150 167 85 41 96 182 167 62 16 200 
123 126 151 172 57 206 140 192 68 200 125 240 98 202 152 49 136 101 230 67 95 128 43 159 159 99 145 223 129 168 142 87 142 42 108 66 102 75 187 196 149 155 94 199 177 60 182 54 193 36 129 18 51 134 182 70 168 61 198 72 149 164 121 110 169 100 136 87 181 209 116 159 238 72 194 111 146 162 241 185 104 158 116 63 94 135 54 203 79 150 97 41 125 212 172 89 86 174 169 228 
194 58 141 67 181 178 140 170 118 116 115 65 116 228 154 22 146 75 129 113 64 185 47 119 36 73 169 23 173 39 91 124 134 200 81 61 146 223 179 41 94 200 103 109 150 120 53 142 180 153 134 158 74 144 51 213 46 181 233 121 165 178 185 163 83 114 90 128 152 28 157 36 100 160 74 160 190 115 40 85 60 67 20 37 117 161 109 120 194 40 112 174 90 196 47 99 50 73 93 139 
48 113 49 26 95 205 66 134 149 128 110 127 179 45 160 87 156 74 185 162 52 136 66 66 204 35 200 118 182 91 140 57 95 19 121 171 78 64 189 72 73 187 198 122 105 182 123 112 94 161 103 204 70 21 123 156 151 74 146 79 178 69 64 53 57 136 127 143 152 193 243 129 201 81 104 73 71 162 241 116 122 240 163 108 204 127 45 138 215 198 148 172 209 194 129 80 88 109 78 202 
47 136 172 148 156 45 214 125 196 142 92 152 133 208 75 145 187 97 237 98 118 118 81 204 89 129 131 80 109 118 149 141 49 84 118 192 202 95 105 84 37 81 33 104 25 201 19 67 182 18 203 125 145 55 101 178 91 197 55 121 153 175 52 225 49 64 125 212 142 123 123 168 69 56 76 181 56 62 199 39 57 72 202 156 130 45 22 223 152 82 112 174 182 239 175 166 27 176 190 137 
206 41 143 158 69 100 205 158 21 107 39 216 155 71 53 184 210 113 70 46 150 190 33 123 136 122 186 148 109 106 221 123 74 102 17 79 88 188 149 23 192 137 109 27 225 195 223 66 134 80 57 142 117 75 138 152 222 129 225 141 219 154 195 33 55 109 106 205 69 144 44 126 204 237 151 172 71 40 139 131 49 192 81 158 132 35 225 47 106 160 55 181 35 175 163 85 183 152 125 149 
37 61 127 75 80 97 147 146 29 159 180 122 140 108 169 126 202 108 95 106 181 113 60 130 149 151 127 188 41 72 100 46 140 157 178 121 73 244 123 84 123 179 58 126 35 205 55 74 194 99 178 48 172 166 195 67 207 16 192 82 192 153 47 177 237 101 175 64 137 94 197 130 151 56 160 209 89 127 127 165 73 124 69 121 226 163 69 196 116 208 51 95 119 101 60 69 157 151 30 181 
175 65 57 68 49 82 181 163 159 107 198 207 158 73 115 84 114 19 140 128 67 224 139 32 147 73 172 220 195 200 73 222 124 179 58 28 80 195 85 177 96 169 111 141 90 45 81 89 42 179 78 134 217 175 166 205 170 140 91 218 173 136 127 191 152 34 131 134 45 205 138 59 193 91 71 56 148 208 94 137 215 178 53 181 157 92 210 53 222 171 187 161 186 77 209 193 135 159 194 80 
166 83 136 97 160 100 171 196 171 129 97 194 187 146 162 163 79 111 165 235 230 149 56 114 76 106 96 85 94 131 144 91 51 192 86 244 32 49 45 31 191 42 156 69 168 164 177 94 90 166 235 132 123 220 18 79 207 101 187 196 233 23 111 176 124 78 178 155 210 19 57 194 39 36 99 111 202 103 84 159 52 136 8 73 74 228 138 214 140 188 144 174 99 90 179 168 55 158 119 145 
142 211 85 226 212 47 40 64 89 97 215 138 186 200 26 65 203 132 86 91 211 76 31 119 130 76 205 161 164 123 130 156 212 188 61 113 72 112 20 70 23 61 57 67 41 131 47 56 43 198 138 131 175 21 157 175 197 206 201 159 134 120 214 123 219 213 48 177 159 49 128 100 172 106 44 224 172 110 85 128 147 113 54 92 165 71 56 58 95 119 151 180 218 75 208 173 91 128 204 104 
217 165 131 115 71 210 76 135 50 161 47 169 92 86 162 204 232 59 115 68 120 201 182 163 79 58 164 31 125 149 146 187 154 144 75 39 126 126 191 151 128 172 203 138 148 122 106 177 171 151 144 163 93 145 226 136 111 60 122 134 142 123 213 196 107 51 184 112 129 102 70 167 157 149 96 189 49 53 157 112 123 209 74 91 129 170 145 126 57 177 138 55 188 172 90 183 175 185 183 163 
232 64 193 101 117 191 105 77 199 43 32 196 142 75 54 193 83 134 150 113 145 89 101 133 233 126 90 204 136 23 172 88 93 144 122 180 61 12 150 122 43 123 135 135 98 49 143 184 156 93 172 105 98 117 74 82 217 78 106 88 109 132 164 74 174 211 88 123 77 214 156 185 199 195 222 145 178 151 122 75 23 212 133 92 119 150 189 32 198 76 231 115 137 76 104 135 96 95 35 203 
173 60 82 134 190 174 178 128 182 59 148 51 76 206 236 44 164 129 136 208 173 122 135 59 94 70 130 129 75 162 147 129 61 68 158 91 92 203 170 194 174 204 205 139 120 73 72 185 30 75 107 125 145 46 213 70 231 109 130 171 63 193 76 80 95 36 212 72 78 226 59 66 90 140 188 150 122 77 92 80 138 52 88 169 209 96 190 60 111 141 79 124 222 165 133 23 161 74 213 160 
95 72 133 74 172 127 143 140 144 143 183 214 177 149 191 209 84 132 88 105 77 218 163 226 56 76 56 131 111 181 118 31 181 102 82 201 99 179 70 52 199 143 79 161 100 130 84 108 148 163 189 157 223 82 144 138 157 156 216 192 64 85 49 62 64 125 183 59 174 130 66 108 96 159 97 51 109 205 76 178 78 129 112 175 59 147 161 43 105 134 108 58 129 49 68 178 119 82 181 73 
146 181 177 161 71 141 193 131 136 97 167 75 189 10 91 46 164 48 156 60 180 177 167 60 110 174 208 123 175 157 78 57 94 58 177 188 107 130 195 130 82 150 134 70 192 141 177 160 97 161 22 210 185 179 157 186 36 161 182 179 224 72 117 201 198 73 199 129 126 198 24 65 160 150 171 223 165 145 115 85 136 130 101 33 179 221 168 142 213 75 39 121 191 116 230 62 77 140 110 54 
161 106 95 227 83 142 154 28 194 173 46 75 91 45 55 172 169 127 145 142 191 100 29 48 12 176 182 75 210 63 141 137 78 139 138 129 32 101 153 117 157 64 134 162 129 162 53 53 192 26 198 65 198 96 209 95 40 150 103 102 127 189 140 52 195 97 162 216 179 188 142 99 134 233 82 178 135 69 61 168 28 49 66 54 152 133 35 173 87 79 112 61 164 102 189 70 200 128 92 67 
95 82 174 240 87 123 89 206 152 85 172 177 87 132 156 176 104 132 89 179 92 117 44 188 78 92 73 87 159 60 42 175 36 110 61 124 122 142 128 83 175 122 128 169 59 184 244 91 24 181 36 122 150 72 177 134 201 159 207 167 151 107 134 104 171 193 108 41 72 49 168 162 204 101 90 81 106 116 121 82 68 231 167 104 141 41 61 91 157 116 54 89 84 77 146 125 52 197 97 199 
132 93 90 148 160 95 102 231 92 176 45 138 206 171 118 119 49 117 101 117 189 196 54 91 129 184 48 197 149 161 213 66 181 125 143 135 153 137 63 213 69 80 228 89 102 125 162 62 191 192 115 125 208 215 83 234 150 108 95 52 195 215 34 187 182 150 179 149 220 201 188 192 208 28 31 42 183 213 58 181 83 119 83 99 27 117 163 162 88 93 23 72 95 215 149 107 108 105 216 45 
154 186 97 102 190 110 88 58 29 146 153 129 188 142 48 184 116 152 118 148 120 141 112 102 48 121 69 234 156 77 120 41 88 78 178 56 189 193 69 110 134 33 25 86 147 152 121 199 46 175 33 124 190 169 183 215 90 197 222 65 36 157 74 99 219 79 181 217 78 97 84 39 61 101 161 108 184 164 88 196 67 189 181 111 168 62 139 83 113 165 203 68 118 148 161 163 134 216 178 93 
187 153 181 210 174 39 71 109 96 146 67 195 187 55 104 45 101 138 72 94 117 202 149 36 177 55 54 205 222 199 129 199 145 215 79 103 176 231 57 62 83 119 148 85 130 58 167 204 50 106 126 218 196 207 167 219 161 116 225 206 103 153 63 112 98 111 100 177 166 153 197 197 170 127 58 110 87 115 75 51 185 63 99 65 41 122 32 78 168 35 78 103 49 90 208 66 56 95 73 150 
189 130 64 184 52 92 155 173 152 155 134 55 87 207 216 14 83 164 114 70 150 72 176 159 177 143 10 207 145 119 112 96 163 72 83 201 16 220 185 25 159 125 93 104 135 166 63 152 116 153 233 199 27 182 76 158 84 137 137 157 195 106 196 191 84 131 107 135 124 170 83 121 60 122 199 205 129 119 53 145 115 133 179 28 150 158 153 13 155 117 120 95 116 48 76 137 41 104 35 190 
206 166 196 140 55 131 201 171 133 142 95 175 208 115 156 151 115 107 164 176 183 158 174 30 147 219 89 158 214 80 57 97 99 147 126 71 224 215 126 128 166 67 5 61 133 199 101 231 123 57 58 176 111 105 41 14 142 193 76 127 159 96 184 50 112 145 140 70 195 82 115 88 65 177 193 158 40 171 133 63 127 166 160 102 113 206 170 151 211 129 139 96 89 200 172 89 74 135 164 198 
110 66 168 29 71 57 38 132 221 68 86 154 71 112 46 73 98 64 95 73 102 97 224 188 186 104 203 177 72 94 27 74 89 109 83 57 142 173 49 188 22 205 147 124 110 80 204 156 225 145 193 48 92 180 99 165 122 103 116 66 67 193 26 116 165 92 94 144 41 62 123 210 140 110 156 86 188 35 204 142 40 159 75 201 197 105 39 47 160 107 218 207 188 157 161 190 222 32 219 201 
133 160 48 141 66 145 210 65 121 85 120 103 153 221 12 68 53 162 77 37 168 48 145 166 111 62 39 131 176 216 81 196 110 62 109 160 34 178 78 126 107 219 65 183 137 176 121 78 105 151 28 57 59 50 194 113 158 123 166 87 151 140 84 173 148 133 133 178 135 170 130 119 148 197 191 243 193 33 168 197 102 93 178 139 140 180 62 158 204 142 81 84 124 153 118 145 125 89 169 149 
43 196 195 99 217 114 234 188 117 95 197 188 93 160 146 172 154 96 126 149 93 51 207 30 118 112 136 130 225 55 182 46 95 68 70 119 70 68 153 26 66 192 47 124 188 112 28 73 56 169 149 162 225 127 195 134 52 91 201 203 107 130 213 189 153 101 104 45 204 129 162 145 147 43 212 159 135 117 102 214 237 125 170 168 189 128 30 97 79 94 91 179 78 79 70 154 68 66 202 222 
43 193 195 66 145 78 31 60 80 81 120 69 77 69 207 157 203 76 32 73 141 105 157 125 42 148 232 88 198 87 113 82 74 46 132 154 216 207 133 161 170 185 222 175 115 156 73 102 204 68 126 59 68 71 186 214 181 108 79 35 63 108 58 177 49 153 139 175 152 90 207 53 56 99 195 134 164 161 170 101 144 161 190 199 190 44 180 138 196 164 69 168 204 231 42 72 24 76 229 133 
153 82 97 116 91 114 132 177 76 86 132 110 181 208 196 92 129 108 44 75 72 187 41 139 105 64 109 50 39 104 57 109 157 164 218 229 123 26 170 184 93 176 209 40 14 211 93 135 214 27 138 42 164 89 95 193 162 155 92 77 49 76 114 222 158 147 149 164 67 202 137 211 179 80 52 124 78 65 101 95 72 40 134 190 91 116 200 144 102 207 33 97 80 140 137 201 113 116 181 229 
212 143 78 179 143 57 207 52 90 166 128 125 164 188 205 206 75 64 153 157 162 218 55 154 100 129 233 167 136 102 67 91 81 198 186 147 54 113 60 161 178 211 108 123 59 72 54 117 48 105 121 225 116 162 197 157 161 177 213 200 145 213 96 90 154 135 86 50 146 147 115 32 82 90 193 99 95 188 82 82 85 61 113 109 42 191 123 77 192 75 101 162 192 131 186 117 172 119 146 127 
56 102 200 47 211 93 137 83 153 144 71 201 21 114 183 107 33 62 62 172 49 155 128 29 103 53 52 86 179 228 92 156 105 130 45 28 132 140 87 140 39 154 190 148 96 60 174 31 50 196 121 179 220 105 182 210 95 174 155 104 157 155 198 191 166 42 58 125 132 107 77 94 18 189 34 174 218 56 191 108 122 149 42 195 164 159 116 115 195 25 76 93 43 90 54 105 119 175 178 142 
71 59 221 87 47 225 197 120 192 212 47 112 95 145 215 19 77 212 106 55 188 47 136 145 115 230 131 94 74 131 222 104 217 116 72 140 56 82 109 28 227 56 179 73 203 31 184 114 214 134 222 220 102 100 133 137 66 157 184 144 54 70 226 142 123 69 210 116 66 50 80 152 55 63 151 55 97 122 222 176 102 72 143 181 204 176 178 75 110 125 152 112 197 193 164 177 113 160 67 76 
95 39 98 102 172 196 122 194 130 206 155 173 170 62 154 57 60 108 111 113 67 135 131 199 173 158 155 86 90 100 96 34 119 91 169 98 173 181 73 225 196 108 71 122 226 213 119 185 137 164 43 220 177 162 82 188 47 195 102 70 125 72 174 176 143 197 203 187 81 146 101 96 83 191 92 174 158 74 46 59 209 110 166 97 142 110 208 45 66 77 34 130 236 193 95 40 140 201 13 141 
166 78 85 33 67 162 196 45 165 72 61 30 160 188 224 171 132 224 174 65 203 145 116 133 150 113 148 94 69 189 222 73 122 61 124 96 103 193 87 220 206 48 207 22 135 95 165 158 47 70 22 165 152 109 133 133 97 56 38 88 106 102 108 73 115 187 81 68 130 164 95 83 117 69 189 184 125 141 89 174 226 33 152 54 167 185 150 59 188 154 121 34 65 44 147 67 102 206 235 184 
226 87 62 83 172 172 194 86 198 82 89 175 122 196 73 170 95 67 149 87 103 146 142 147 177 142 242 107 92 183 161 89 103 179 79 195 166 93 86 77 68 175 136 214 194 195 123 102 39 114 143 131 122 24 189 131 190 191 128 197 181 231 14 43 156 167 118 86 89 81 39 76 225 189 186 52 128 88 194 113 59 180 78 132 57 135 41 116 160 173 124 149 69 156 119 230 29 208 100 128 
123 205 188 116 100 76 44 136 181 104 71 117 136 230 111 91 107 121 111 60 108 86 96 135 43 178 56 174 129 235 82 117 186 142 72 163 148 160 121 109 201 25 102 75 214 97 26 200 23 47 51 179 118 140 21 202 189 208 166 35 153 80 182 107 27 136 152 56 33 110 71 126 181 98 65 72 234 225 197 110 146 201 169 25 62 230 123 105 81 100 150 147 159 84 153 191 86 112 191 167 
129 163 61 164 37 118 141 194 31 98 39 144 197 60 108 31 176 140 151 35 164 76 86 172 88 191 216 170 197 157 52 115 72 221 196 66 137 117 187 90 180 80 53 225 178 155 234 122 85 56 63 127 29 57 47 89 121 104 74 185 172 208 84 112 217 212 113 25 91 169 108 200 43 162 211 171 68 173 204 61 60 59 185 132 176 180 75 168 191 92 95 27 204 76 75 101 94 184 160 50 
140 135 168 126 115 184 230 185 165 143 63 62 173 189 101 222 151 181 42 202 28 125 120 82 58 86 157 198 232 99 154 136 199 196 193 129 190 95 110 77 69 119 140 67 173 161 58 148 150 94 214 166 102 99 155 88 109 145 14 109 87 56 128 189 147 228 44 54 193 207 204 58 103 131 133 98 135 187 58 197 113 127 84 132 128 154 93 62 143 157 175 52 122 41 52 29 122 151 109 63 
60 126 88 99 216 192 54 93 157 113 190 79 95 54 60 242 105 161 77 35 160 115 108 136 75 54 53 94 141 190 104 189 147 86 233 115 94 61 150 187 101 179 80 126 94 147 52 231 173 116 222 194 214 146 60 63 135 119 112 159 144 48 64 100 154 237 37 181 49 96 28 151 174 167 136 172 44 223 53 66 126 29 167 84 101 188 131 113 218 125 126 51 182 146 50 163 192 156 219 152 
146 83 233 162 90 106 68 204 91 48 101 194 237 160 118 139 202 151 171 174 138 174 181 49 191 146 70 94 220 77 60 130 176 213 217 123 77 202 118 70 202 137 151 176 195 159 186 93 91 26 192 85 148 201 172 206 71 63 102 196 70 199 185 141 145 79 100 173 181 57 220 96 203 133 143 156 127 148 242 79 165 62 124 175 181 101 201 149 69 216 123 34 57 68 169 160 78 176 212 193 
209 137 120 196 107 225 157 115 181 102 66 44 129 104 94 170 202 46 47 119 101 96 152 199 187 49 194 149 211 179 54 185 126 60 114 22 231 65 125 192 138 188 140 91 176 30 139 144 185 169 63 169 96 195 129 198 206 37 15 212 62 73 114 233 170 60 139 80 179 138 201 214 182 122 113 205 188 174 104 196 173 174 206 105 55 192 58 111 139 90 120 142 27 56 68 103 223 110 60 80 
208 232 138 149 183 49 154 113 60 187 109 202 66 70 36 139 121 54 136 139 104 93 223 145 55 84 38 178 165 187 27 148 221 105 128 198 76 228 221 72 25 136 145 141 107 177 229 101 143 87 153 97 130 153 53 152 121 162 33 48 231 49 89 175 157 94 64 29 99 61 199 78 123 148 93 138 192 221 85 193 205 132 57 191 158 156 129 95 133 169 51 167 209 101 173 118 34 62 139 191 
107 95 69 59 159 72 189 157 168 28 73 116 72 217 105 123 75 206 106 170 160 150 52 189 190 196 58 242 225 142 70 73 91 27 115 142 167 208 203 207 152 191 136 208 193 98 173 120 104 153 105 158 163 124 87 163 45 190 49 143 71 164 128 186 133 94 165 142 31 108 170 202 133 221 230 213 67 162 113 118 88 43 82 220 68 40 157 208 97 144 69 143 143 185 107 165 181 137 150 182 
65 144 83 189 84 185 140 106 59 111 137 12 70 146 154 115 167 104 184 191 124 164 131 95 172 168 195 67 160 86 31 194 130 164 117 232 114 143 52 206 142 188 63 73 140 199 96 100 215 195 189 137 166 111 125 67 174 43 120 61 142 168 175 168 139 107 89 51 140 36 179 128 209 123 65 59 59 109 165 56 162 97 191 103 179 126 74 158 93 210 28 145 150 40 140 246 175 147 149 215 
59 106 203 182 185 102 80 141 98 201 149 134 186 97 94 53 138 208 47 193 41 166 121 202 104 40 96 66 120 235 159 104 179 179 167 51 141 92 125 113 124 79 183 129 187 202 152 74 118 156 157 158 202 142 207 162 78 40 162 44 66 69 117 95 67 146 175 222 158 48 208 195 219 190 30 172 117 71 78 175 65 117 183 214 91 110 115 235 127 104 211 33 38 60 95 148 125 176 206 32 
162 54 78 105 196 150 74 83 176 75 166 94 156 112 99 126 190 107 130 141 104 91 168 77 168 96 154 40 188 157 131 167 41 159 197 132 180 31 179 31 31 132 203 178 66 141 67 86 22 162 106 161 105 129 185 64 196 76 133 118 156 135 193 38 204 156 138 59 178 197 75 178 84 177 44 60 217 188 181 159 159 98 81 208 38 66 202 169 100 188 35 118 231 118 89 85 199 73 209 117 
196 80 56 158 127 38 207 155 198 204 91 231 209 79 187 112 152 67 96 123 170 71 184 216 98 75 123 119 74 81 125 143 96 196 202 89 132 221 158 56 168 121 154 48 174 193 188 30 132 118 138 112 124 69 163 66 101 77 58 135 76 82 46 155 208 48 62 150 60 120 193 129 161 29 57 76 129 157 164 129 146 168 165 11 112 105 80 218 88 205 126 51 72 75 55 86 236 209 62 143 
74 95 185 57 132 88 100 57 183 162 166 98 130 155 129 107 214 121 154 51 52 175 123 200 64 84 153 44 71 93 173 191 10 95 64 206 69 186 170 96 193 75 85 56 131 102 27 118 90 180 136 209 139 53 92 215 121 190 207 87 73 176 162 144 105 152 79 203 166 193 144 175 64 34 122 69 52 41 90 184 174 123 52 100 132 190 47 190 29 91 96 82 107 103 216 122 70 122 103 44 
234 80 15 224 67 205 70 65 172 97 186 197 107 116 167 74 128 34 227 106 28 139 88 40 33 152 90 91 92 129 212 114 186 180 192 178 133 176 164 145 123 205 185 160 161 49 70 171 163 143 144 105 211 179 71 71 127 204 198 169 160 181 194 150 148 109 52 77 222 203 216 194 134 185 187 194 190 116 149 82 235 72 215 151 80 32 70 91 173 139 87 89 124 122 107 129 107 190 181 59 
223 153 65 61 142 185 236 128 97 33 96 128 190 196 160 99 203 26 121 135 101 186 212 105 231 16 162 163 77 75 61 190 174 152 177 162 192 57 171 132 71 168 95 181 63 75 20 101 152 180 213 34 56 58 43 65 57 98 119 63 165 56 200 106 227 22 175 71 61 96 205 126 151 73 178 58 76 85 125 49 56 94 160 146 70 94 212 88 37 114 162 198 221 103 149 162 78 53 178 129 
158 128 82 129 169 200 49 159 215 65 140 32 73 42 209 105 205 79 148 69 116 58 213 109 192 86 168 34 145 63 97 217 172 164 46 205 157 79 164 173 1 107 162 206 150 191 67 130 213 131 193 149 176 173 109 125 39 210 32 80 125 135 164 221 109 85 102 40 73 44 79 186 62 116 132 62 115 203 112 207 81 73 203 122 195 154 206 77 123 109 91 122 129 216 190 85 198 101 210 86 
164 66 50 135 168 95 96 70 184 167 118 31 138 222 222 109 141 237 151 107 192 141 95 69 42 74 171 143 110 187 70 138 131 137 205 148 102 203 101 132 141 111 82 97 124 95 146 174 202 194 112 58 81 76 146 139 156 117 44 52 82 122 119 180 177 92 36 211 178 182 115 57 112 200 74 123 121 100 182 204 189 22 92 84 93 201 226 209 178 140 219 118 108 66 213 161 219 180 129 139 
211 131 131 119 186 102 106 167 157 152 161 51 193 32 150 106 171 166 122 65 136 58 58 156 196 68 145 68 120 132 35 114 151 110 220 225 168 110 184 112 69 117 180 108 206 156 82 103 93 75 64 86 88 75 112 41 71 88 174 176 170 124 100 228 135 156 172 81 143 64 29 155 129 128 67 21 115 43 198 101 77 137 152 92 178 242 189 21 179 55 28 181 202 112 130 17 175 126 18 133 
169 55 81 182 208 84 114 89 90 100 175 192 89 71 100 166 167 133 181 70 158 120 113 158 147 153 164 121 132 142 121 67 172 176 154 188 118 36 91 62 104 88 153 9 200 185 138 41 203 13 181 99 210 235 138 105 132 119 214 62 131 165 111 106 174 203 164 191 96 145 71 213 52 159 132 121 74 170 94 159 215 133 107 83 37 194 192 228 187 46 23 77 82 156 65 154 62 123 175 161 
91 211 129 210 161 89 93 138 142 79 75 162 189 225 202 81 220 94 208 196 90 140 212 109 96 169 103 192 41 46 222 180 79 140 56 193 32 155 110 166 45 40 144 208 204 84 205 79 66 174 129 127 56 106 141 209 178 150 153 64 155 149 87 174 66 130 90 103 130 213 185 77 134 163 66 206 73 146 35 168 103 215 138 53 68 196 112 34 10 94 92 202 216 201 109 200 52 116 205 210 
80 217 38 114 109 156 193 150 233 207 72 161 197 97 29 151 179 93 107 103 204 81 155 213 143 139 157 155 95 97 155 58 152 214 37 168 87 65 84 148 138 44 194 196 203 53 92 106 102 159 54 52 76 201 170 77 53 215 152 176 144 160 69 92 198 73 166 219 58 184 66 71 145 112 125 117 162 161 115 117 224 233 138 94 108 109 138 211 148 172 181 159 167 180 139 75 52 168 203 217 
69 171 50 216 187 159 182 121 205 175 91 97 115 53 59 108 221 115 88 147 152 161 145 109 64 73 130 169 145 207 150 88 167 85 105 111 29 171 158 180 88 168 56 94 208 83 159 159 229 8 155 45 56 114 59 213 71 194 198 196 192 239 38 123 77 84 39 80 122 74 45 114 173 183 139 199 225 161 211 53 140 234 119 212 37 137 88 205 134 152 222 188 110 15 147 86 50 77 83 138 
222 50 101 90 99 175 56 32 88 200 113 145 186 189 97 192 76 25 196 124 134 140 180 19 177 77 107 94 82 178 205 145 32 190 125 106 72 122 177 23 47 171 78 160 209 117 192 210 87 52 62 89 55 96 61 136 162 199 76 38 112 79 90 58 117 39 66 150 102 58 108 190 72 81 95 81 119 41 153 70 105 229 111 72 189 103 239 110 78 219 142 67 138 59 199 142 195 129 126 195 
136 154 160 133 209 171 215 131 37 52 175 120 234 151 70 127 177 202 138 153 123 61 52 182 203 57 56 118 206 229 109 160 123 117 184 92 18 195 79 220 206 119 79 63 177 231 135 181 188 135 114 211 150 150 146 247 95 189 64 70 86 208 143 95 157 83 233 160 136 155 103 96 105 101 156 197 221 106 211 178 70 187 202 183 98 98 73 27 36 37 187 150 29 213 110 77 220 196 131 146 
101 121 151 75 91 74 196 100 122 90 175 183 88 115 62 101 192 59 192 163 82 220 123 78 202 193 154 239 233 199 170 221 36 159 190 122 224 201 109 138 82 225 182 210 209 90 148 119 141 196 35 165 122 188 230 94 118 62 88 100 208 101 148 183 128 192 105 184 162 45 196 231 105 223 186 205 71 117 134 82 192 138 189 201 85 202 116 92 11 94 208 83 243 143 130 206 152 49 53 141 
89 215 236 159 71 114 210 132 91 79 211 65 46 189 162 141 139 235 121 119 141 174 51 208 36 35 85 147 45 211 55 118 159 95 126 113 85 55 68 53 230 228 73 55 202 101 144 75 37 73 143 50 147 171 112 54 136 91 174 93 227 48 100 17 152 25 36 31 149 174 56 128 143 87 68 106 219 53 177 140 124 125 149 138 89 142 213 142 186 149 82 206 51 247 163 127 186 196 200 160 
148 85 166 72 35 134 177 207 155 129 146 201 226 66 79 57 64 89 52 201 78 198 149 238 84 84 140 198 127 207 186 133 147 100 36 142 40 160 94 167 119 93 121 126 165 74 156 87 160 53 147 151 115 129 68 131 120 209 98 200 200 132 181 170 135 56 85 204 195 179 75 146 94 213 80 84 96 89 116 98 238 216 137 187 162 204 158 162 195 111 73 156 148 135 184 49 184 86 95 115 
168 187 184 108 198 99 156 127 48 131 73 192 169 15 142 208 168 175 57 147 123 229 184 32 140 142 85 70 85 182 210 150 178 182 44 240 48 148 175 55 207 227 118 80 182 53 155 202 135 34 192 193 110 150 48 190 191 157 112 141 123 153 170 139 144 228 56 171 68 97 176 130 101 37 171 134 169 159 100 156 151 199 167 96 156 103 229 145 185 64 51 189 225 158 200 51 86 157 55 49 
156 175 101 14 168 135 218 75 225 22 17 116 77 127 184 117 77 140 142 133 198 76 223 178 26 116 203 209 134 129 121 109 144 76 119 70 61 153 155 134 97 163 66 159 111 103 129 230 224 123 173 123 49 155 162 93 94 145 161 73 90 175 206 121 92 151 51 109 78 160 68 215 214 169 121 129 162 1 201 94 171 148 95 83 125 138 136 40 86 77 127 110 70 136 183 173 236 53 195 122 
90 173 77 120 139 64 236 96 177 40 141 101 151 98 136 56 44 11 135 197 163 72 160 124 211 36 138 139 155 59 53 150 174 94 108 54 118 191 92 122 63 81 143 157 172 99 159 100 199 170 185 101 198 180 60 217 133 153 87 168 197 51 80 148 59 100 168 141 200 102 184 203 58 136 170 155 122 168 85 199 90 122 162 132 111 12 147 64 210 191 143 34 72 108 93 174 183 82 97 84 
95 191 39 101 79 83 174 16 132 189 142 120 118 110 38 193 179 126 152 73 112 160 152 106 76 135 157 220 80 111 103 61 113 203 91 109 125 90 156 170 28 158 175 120 87 146 173 123 206 118 132 151 158 179 190 145 175 100 135 186 121 150 185 47 85 190 136 63 61 135 148 214 93 69 88 76 153 183 63 163 132 200 150 107 116 78 103 69 170 64 199 231 96 106 62 198 93 107 69 49 
68 201 127 90 204 76 74 46 91 160 186 121 123 64 54 129 200 150 35 195 105 155 129 211 85 114 104 121 83 135 104 155 114 147 169 49 130 98 53 94 119 104 149 110 175 62 192 63 230 37 163 99 171 119 162 159 73 130 85 65 110 74 166 107 151 116 216 139 183 137 45 215 179 191 41 168 177 137 205 90 47 122 119 27 166 230 41 176 90 168 207 54 69 69 66 105 121 99 219 225 
211 169 213 200 192 179 198 103 88 177 102 188 70 128 93 106 102 143 201 53 196 94 39 215 90 122 160 42 133 22 172 165 181 92 165 186 169 126 111 76 175 162 70 164 162 59 123 141 106 171 139 191 33 88 153 137 117 183 145 145 119 175 193 218 63 116 158 52 237 46 126 219 61 128 130 47 107 64 153 139 70 184 163 78 90 80 57 53 93 118 143 154 186 178 84 29 73 213 66 75 
127 42 76 168 125 202 79 109 99 213 113 124 98 90 132 150 152 170 189 84 165 89 23 209 39 107 17 57 159 158 185 26 160 195 64 147 172 64 140 130 159 170 197 144 75 178 177 45 29 49 111 198 116 114 124 89 150 62 42 86 92 23 128 29 96 157 60 136 56 48 83 168 134 110 105 60 66 196 133 179 35 89 143 46 72 169 156 168 116 233 63 157 114 178 200 47 29 191 40 171 
96 166 55 94 198 136 130 68 46 155 45 67 51 92 160 197 93 124 142 105 98 61 143 162 127 151 224 97 73 221 190 157 167 101 51 106 173 142 92 104 108 95 170 91 85 97 87 173 112 162 177 75 119 180 202 219 110 195 89 149 201 96 180 85 191 79 123 196 144 56 189 199 183 60 152 148 102 68 111 160 185 184 212 109 85 83 202 121 86 148 74 122 111 206 76 108 66 102 235 128 
84 111 98 119 95 202 232 143 216 99 185 73 90 107 74 207 157 203 91 52 225 116 108 161 211 152 125 93 85 192 39 174 175 112 158 85 60 96 139 97 140 138 130 136 84 197 62 179 100 145 166 74 129 126 131 95 107 99 79 56 188 94 51 137 195 97 199 70 118 126 65 145 60 158 120 95 90 147 114 88 73 126 128 178 161 190 34 110 135 165 155 184 105 211 82 202 180 112 21 140 
81 159 163 108 113 219 129 210 116 165 220 190 64 212 42 157 102 87 188 80 173 163 53 193 185 51 69 42 185 128 84 12 85 115 128 46 183 121 107 200 66 205 187 147 56 49 158 150 224 151 167 138 77 167 167 150 146 191 199 106 113 111 98 101 122 121 64 93 117 171 93 143 166 42 68 120 163 91 238 120 208 161 27 46 50 175 212 85 104 174 86 105 207 130 76 117 123 189 35 102 
100 43 120 178 215 154 116 163 75 57 17 163 176 149 122 101 192 105 190 173 35 160 184 114 167 78 120 169 118 17 211 86 97 55 17 151 112 132 201 183 192 87 188 159 67 160 57 122 66 176 118 126 117 182 59 211 88 160 85 85 181 157 203 147 106 179 109 119 179 125 33 74 183 19 172 60 82 192 157 169 208 148 138 38 126 22 123 138 163 140 77 148 78 94 199 202 224 107 155 64 
144 186 124 57 164 82 136 129 195 240 129 83 75 199 174 209 50 97 97 166 205 49 154 50 183 180 212 114 73 176 150 84 109 153 111 228 118 57 242 136 169 153 194 246 11 124 61 177 107 113 86 72 108 91 132 49 149 199 39 192 37 71 121 203 162 165 40 180 96 205 88 231 209 74 91 195 208 131 58 168 188 110 244 116 162 35 121 185 178 151 218 119 115 92 86 159 65 29 134 118 
71 115 131 155 205 174 53 190 231 102 184 178 42 109 79 126 85 89 151 156 186 142 30 222 101 56 31 101 130 174 167 110 134 104 160 151 161 201 173 78 39 90 128 54 149 181 123 156 166 135 190 194 77 193 94 108 119 183 226 144 75 116 33 111 46 69 38 209 172 152 121 239 178 134 217 217 135 154 107 180 116 120 168 88 60 142 219 196 41 175 171 213 80 59 213 64 165 166 110 192 
41 86 63 100 219 65 156 187 72 131 161 118 25 147 185 170 107 165 155 164 115 182 48 197 171 115 46 58 160 153 119 127 141 86 146 15 116 24 154 49 188 199 123 143 68 62 19 139 174 163 177 46 117 114 97 99 163 132 199 43 118 220 219 96 55 76 150 188 126 112 161 54 91 167 195 204 51 146 52 199 51 136 146 196 104 196 183 113 92 195 29 143 168 32 100 103 79 180 120 97 
103 76 139 198 151 20 61 109 106 65 47 180 170 110 63 127 107 196 162 32 220 187 117 100 48 106 28 114 111 240 134 192 66 85 189 147 72 180 146 82 161 206 41 175 127 96 206 136 137 240 65 136 218 122 173 82 134 248 82 105 35 49 95 131 16 86 177 41 123 84 124 58 197 116 134 70 192 100 122 37 173 95 166 131 182 207 244 197 156 218 130 188 100 106 89 162 139 181 141 184 
136 118 197 142 96 63 95 34 168 60 109 152 156 84 111 86 91 182 54 68 130 186 66 123 174 44 206 170 18 97 62 164 215 41 111 148 100 66 162 113 161 114 165 90 200 85 155 165 121 162 122 201 73 186 180 120 71 53 215 114 222 45 172 102 188 185 86 175 119 119 169 107 42 70 68 115 115 94 184 66 52 175 69 38 98 95 209 36 65 168 191 62 218 146 112 44 75 153 110 141 
158 44 78 66 163 101 136 88 210 201 142 177 105 201 153 55 38 203 179 114 36 146 127 171 164 183 152 138 113 177 201 87 52 134 152 97 11 125 197 177 67 53 37 32 150 135 33 97 132 55 187 67 219 194 220 159 129 210 185 49 132 73 188 67 74 197 140 221 145 150 150 116 168 180 161 81 80 153 84 185 151 199 213 199 103 151 190 103 157 210 46 144 81 71 173 164 134 115 35 166 
197 147 142 72 158 50 142 34 56 153 94 107 39 157 21 157 125 61 54 73 116 44 97 43 126 195 161 44 201 96 58 169 142 153 217 176 137 148 140 75 193 57 191 128 212 159 158 195 196 85 93 155 226 180 119 230 178 169 152 145 185 177 220 95 83 193 144 99 39 196 65 66 185 205 85 80 61 196 94 179 58 188 88 224 63 91 46 143 193 39 216 173 9 184 98 127 188 156 82 212 
105 227 43 152 62 100 63 112 171 129 23 205 179 77 171 193 52 91 166 54 179 134 67 130 137 74 77 100 124 160 130 152 182 174 81 192 198 179 119 171 169 176 190 49 149 134 132 44 162 146 230 199 183 103 181 63 129 133 137 88 186 127 38 115 97 132 69 183 19 180 68 104 123 211 194 64 92 104 47 42 231 132 103 132 188 177 126 36 154 87 166 99 123 166 164 84 181 38 189 82 
124 64 213 91 168 16 64 23 188 136 194 106 182 85 125 159 88 166 34 124 117 196 171 80 108 168 192 150 23 178 113 37 79 156 100 175 172 45 159 132 197 61 137 207 232 114 132 91 108 236 149 99 42 180 210 75 167 76 23 27 105 147 74 212 140 215 77 83 104 224 159 91 132 165 82 165 165 120 172 89 106 121 182 197 199 86 135 175 216 36 119 201 74 106 152 87 112 91 190 135 
77 54 21 74 61 106 188 184 88 196 176 157 110 51 121 179 212 80 169 47 120 134 206 209 147 99 211 63 120 145 52 121 116 150 132 207 33 210 36 199 203 170 124 219 111 116 140 151 134 168 68 149 169 71 105 70 64 154 64 103 115 147 56 174 43 151 131 154 185 99 146 144 40 98 72 77 151 75 59 92 187 200 230 174 145 206 73 201 133 129 81 61 114 133 224 114 96 92 204 147 
101 82 106 151 81 10 201 142 186 189 68 212 66 221 142 105 45 116 200 196 186 57 75 134 206 181 128 120 75 43 111 186 109 98 101 140 70 131 204 73 174 143 29 194 193 61 162 114 171 99 200 49 171 142 31 179 126 236 148 102 29 166 120 105 24 130 102 29 154 180 182 87 50 164 126 62 97 119 34 100 139 57 142 34 99 89 214 184 113 234 73 164 86 127 180 144 109 73 32 133 
159 47 132 75 191 223 167 111 151 198 166 73 217 118 81 180 149 200 88 62 92 85 175 155 117 164 112 103 207 236 186 20 122 197 145 105 83 177 192 165 95 213 189 112 58 183 240 197 136 107 151 178 106 34 105 110 38 202 98 147 109 150 87 74 79 215 163 85 188 191 64 59 138 129 202 207 152 142 52 50 156 92 77 133 96 225 50 159 64 176 40 199 60 59 50 203 114 195 44 124 
78 178 162 113 97 175 82 185 113 162 79 116 101 205 169 56 147 26 194 108 203 146 99 61 187 54 120 97 231 53 83 113 64 32 68 135 157 75 90 104 97 49 63 132 190 152 83 168 90 133 184 68 121 215 219 191 185 206 117 128 134 128 41 89 74 180 44 179 51 177 151 221 197 69 237 196 70 189 184 54 55 61 69 54 136 72 201 238 87 179 95 162 59 166 84 148 215 92 121 54 
62 136 67 23 199 50 224 35 85 92 95 101 72 48 91 99 38 126 104 91 186 89 201 204 97 218 206 186 212 100 157 127 27 201 28 75 154 169 168 38 75 200 88 32 116 80 38 96 92 75 142 116 134 152 124 33 190 190 101 98 169 149 169 137 132 80 137 52 182 43 183 83 189 149 173 37 110 45 158 212 43 181 190 67 131 223 179 106 153 197 155 226 31 68 226 58 145 230 120 113 
79 142 61 59 144 77 207 132 190 190 145 92 211 206 68 116 215 177 84 28 202 178 58 174 190 114 100 97 127 105 87 93 162 137 149 37 219 62 72 96 112 159 148 218 28 28 176 208 184 225 140 93 80 90 159 59 235 156 144 104 105 88 92 97 72 80 126 128 183 75 31 60 169 53 65 98 108 129 176 88 105 105 49 172 162 74 97 243 104 110 158 187 206 48 53 184 65 174 194 154 
134 162 147 156 173 102 155 99 180 87 232 32 160 184 166 74 61 164 164 152 78 104 55 139 48 68 104 115 195 169 197 126 72 93 95 153 187 109 118 70 61 90 212 186 181 179 129 169 119 188 186 163 141 97 65 94 93 111 31 242 106 59 191 112 197 111 59 72 71 120 99 36 76 191 77 196 74 228 194 181 98 217 131 145 201 87 173 118 192 73 58 216 21 65 22 102 95 47 219 109 
171 195 173 86 122 114 133 167 95 117 188 111 62 69 66 160 135 203 166 189 52 118 182 80 65 120 69 185 191 206 192 64 196 206 87 137 222 37 125 196 76 172 37 150 49 150 87 134 57 132 60 224 93 108 124 72 138 197 166 194 43 37 182 105 202 24 13 148 110 52 165 70 47 230 142 119 179 67 137 186 200 82 31 155 194 52 136 115 126 213 169 202 133 218 180 125 164 150 240 188 
86 116 120 69 118 41 46 184 78 123 96 214 218 54 157 66 44 164 58 74 41 90 79 76 174 76 57 55 107 163 192 139 202 116 185 51 77 103 152 159 98 186 68 140 40 203 69 155 144 187 141 167 74 155 129 50 189 160 159 234 188 101 204 50 60 189 85 150 178 73 113 205 175 124 40 178 7 63 108 222 125 102 78 161 52 159 70 164 228 115 185 107 115 156 222 30 64 224 85 184 
120 156 218 191 210 109 99 87 189 169 64 195 36 188 60 77 131 62 111 167 74 87 45 84 17 159 117 67 170 63 66 221 181 104 207 197 194 75 72 152 196 35 153 71 203 149 166 86 85 223 82 103 114 172 184 198 169 151 95 82 169 132 93 96 114 93 219 55 188 121 122 104 162 162 154 125 217 85 146 123 99 134 168 167 108 71 32 248 113 55 95 95 91 162 157 72 175 32 107 154 
22 81 67 75 81 42 210 185 139 161 243 126 100 101 51 174 131 203 74 159 137 147 199 168 127 128 161 115 86 199 73 58 94 111 170 135 152 139 144 206 63 194 99 128 79 60 190 183 138 85 185 130 46 94 74 148 181 75 217 32 200 171 119 79 208 145 42 112 101 49 168 194 101 91 209 92 184 154 185 130 63 174 202 23 84 32 59 66 150 182 136 96 219 61 73 51 79 169 198 64 
151 80 121 49 19 63 234 167 102 165 209 205 55 196 188 149 149 168 77 108 186 113 40 43 91 163 169 184 86 23 20 239 162 116 73 138 140 136 180 186 197 168 138 221 177 88 127 131 124 172 203 34 133 48 165 106 110 72 81 164 52 93 158 155 153 57 103 161 98 142 161 75 101 156 97 29 70 190 150 118 102 183 34 110 113 79 172 116 67 86 198 183 155 68 188 14 57 62 108 187 
82 58 82 78 115 156 99 183 170 58 104 238 64 130 2 60 192 140 233 80 182 140 181 185 100 195 97 68 143 177 65 110 21 100 139 81 130 168 34 166 207 166 27 123 210 145 162 139 120 160 178 96 186 43 95 30 41 49 96 48 35 187 150 136 93 195 218 42 103 115 151 193 103 180 142 106 47 119 74 128 145 61 102 159 232 70 139 180 135 60 184 108 74 43 120 199 162 129 59 54 
142 201 182 195 203 184 170 199 136 82 142 28 89 115 138 201 106 96 71 189 91 115 187 79 100 183 70 190 119 185 152 201 161 143 190 166 191 58 163 132 117 201 147 108 82 170 27 190 181 62 75 75 151 188 94 72 140 166 82 223 110 98 35 138 99 150 196 54 155 175 85 198 85 55 160 140 91 52 111 109 186 116 83 233 115 33 50 209 116 191 72 127 51 174 176 68 151 211 20 216 
173 122 178 160 155 171 119 160 112 94 182 154 80 139 164 117 63 92 170 222 137 108 154 198 163 33 157 104 184 114 96 112 204 230 126 129 73 67 230 199 194 165 122 158 71 177 202 104 168 33 208 115 41 158 166 168 84 84 119 61 36 120 32 191 62 40 110 80 166 162 86 170 160 183 216 104 84 59 196 189 156 165 48 69 37 136 128 104 215 188 69 175 182 123 76 97 134 136 137 95 
199 24 55 182 93 122 201 81 57 190 158 200 173 138 110 68 171 96 208 162 67 181 141 174 141 61 52 144 87 196 187 212 172 163 145 105 165 150 103 205 138 206 225 82 112 102 192 173 164 164 41 150 114 201 55 100 67 42 65 192 154 155 53 217 66 192 39 161 196 210 89 210 58 218 17 84 79 38 93 113 81 178 249 123 188 86 113 197 236 73 68 124 91 172 73 165 18 118 136 115 
