P2
100 100
255
145 192 193 133 148 96 133 25 106 207 136 180 212 212 144 26 116 179 122 63 161 46 146 157 183 219 59 64 82 193 198 162 169 160 98 180 166 71 142 131 20 213 120 171 14 198 127 69 241 156 102 91 41 121 131 184 100 98 27 199 126 112 166 106 66 164 71 89 73 69 75 59 162 116 190 135 122 150 113 149 71 166 114 195 158 30 183 95 104 181 222 138 114 88 121 227 113 140 215 125 
120 152 18 63 32 217 110 44 146 167 77 211 207 201 223 73 145 60 45 134 152 101 76 188 191 138 188 191 83 119 108 205 153 211 99 46 136 47 167 82 63 129 245 196 121 115 228 88 51 128 189 154 118 156 106 83 138 192 136 146 103 162 83 145 174 237 185 132 117 103 112 111 184 191 140 65 147 181 67 160 74 139 109 39 58 102 105 191 106 172 89 192 15 102 170 88 177 201 86 166 
140 122 171 158 156 145 58 230 139 201 109 150 153 167 122 148 122 53 151 207 110 167 153 243 63 68 189 83 39 192 191 193 173 129 130 63 85 74 145 168 64 140 122 49 183 111 63 97 101 186 64 139 188 162 83 148 147 89 115 108 129 115 188 125 129 211 43 97 181 167 165 94 107 118 136 117 118 88 170 218 125 174 61 136 151 116 107 51 99 149 120 234 168 213 153 133 76 213 176 70 
140 162 107 153 202 203 187 126 171 98 194 175 150 193 59 151 53 85 222 178 74 28 102 95 140 148 172 207 126 118 193 73 177 197 102 243 174 51 75 145 197 133 113 160 38 170 150 90 82 126 202 42 99 78 71 28 94 129 185 114 147 114 219 137 215 150 141 184 184 104 164 93 100 70 191 222 186 77 96 59 185 68 95 219 182 123 112 232 105 155 126 62 70 249 159 94 190 47 196 54 
120 178 122 43 152 187 226 88 155 194 200 56 199 38 62 104 223 91 149 101 175 187 202 133 115 219 82 63 32 102 72 134 145 86 125 134 61 83 152 78 62 220 128 139 111 40 188 131 132 89 133 108 188 172 150 70 14 146 63 56 101 158 163 56 87 76 78 224 86 183 201 87 161 213 79 121 181 222 139 236 131 113 170 59 186 141 224 163 99 210 177 224 87 92 68 104 204 100 79 147 
86 110 195 198 97 190 158 147 159 162 139 134 144 220 175 19 39 191 127 142 73 218 240 47 114 152 74 152 98 121 155 156 139 171 202 145 123 58 119 125 54 88 210 236 41 108 45 107 149 204 40 22 89 91 8 144 227 128 68 116 141 105 178 112 74 40 196 92 155 204 53 80 84 143 162 122 70 81 20 70 185 77 108 195 54 47 205 42 161 100 208 63 180 35 140 126 130 62 192 98 
127 182 171 105 246 98 82 137 84 109 61 146 62 114 108 172 191 155 161 87 108 80 188 201 201 104 184 138 38 124 192 113 218 53 43 73 183 60 223 120 70 122 155 179 79 95 55 124 184 196 203 147 243 37 73 158 73 194 60 116 197 37 78 61 148 195 189 68 96 64 100 67 87 180 59 164 187 98 80 92 52 153 150 81 50 104 152 206 189 143 157 73 100 208 119 101 155 113 192 58 
185 151 165 172 177 112 164 93 90 154 226 123 90 145 197 56 157 62 137 186 171 118 197 95 95 193 244 151 166 219 191 180 117 187 130 116 148 165 54 141 120 45 154 214 63 183 167 38 130 144 129 184 174 196 181 36 63 112 40 96 140 44 116 130 61 122 155 50 38 135 105 51 68 103 57 155 76 114 163 109 63 82 217 212 132 106 85 121 147 47 111 88 182 187 188 141 114 182 166 173 
172 110 199 110 158 90 108 209 126 47 44 118 197 60 252 119 168 66 183 126 212 59 225 152 103 192 103 90 133 147 191 89 168 175 186 169 177 178 67 169 163 129 207 199 93 38 35 172 179 37 99 72 154 126 95 95 45 31 188 54 148 11 167 184 214 116 185 142 194 190 170 173 100 196 194 117 151 219 148 179 100 131 50 189 55 89 179 78 55 146 118 184 53 176 57 123 96 48 61 60 
182 69 211 44 145 167 181 116 23 41 240 52 131 89 179 85 84 104 91 198 14 61 107 123 92 199 86 235 133 30 163 122 180 174 145 93 182 190 136 190 36 224 71 114 208 71 78 198 45 57 33 203 124 43 38 194 144 107 94 126 174 154 107 141 63 62 152 83 72 115 111 112 78 61 35 197 32 72 187 112 96 191 14 189 70 42 100 100 93 140 202 175 125 111 155 57 68 44 101 98 
116 197 160 54 67 113 98 201 174 187 16 119 202 152 161 106 104 154 191 198 163 41 41 60 99 62 192 211 113 177 93 99 100 197 125 39 77 235 135 198 88 222 57 188 152 93 180 41 75 93 169 121 78 142 93 118 154 76 187 142 40 169 61 54 86 103 83 152 74 91 76 208 149 222 170 159 193 150 92 159 134 164 107 127 49 151 177 97 85 82 135 139 107 117 185 234 175 183 47 202 
162 138 208 84 139 55 107 82 123 211 149 150 68 148 144 9 100 194 109 184 102 51 66 112 138 119 183 230 87 72 162 237 209 196 192 126 36 199 34 208 122 162 95 71 195 132 209 180 98 94 83 178 109 90 174 201 99 206 151 61 100 78 162 189 184 111 92 142 197 96 208 128 185 75 186 239 150 130 131 96 104 31 89 166 157 30 168 219 232 190 62 194 94 206 189 109 121 111 165 85 
218 116 41 62 194 55 46 87 172 56 86 65 222 189 144 188 152 172 234 62 173 116 222 179 76 192 175 155 100 154 155 185 138 33 52 30 78 174 164 98 146 154 148 161 124 220 152 107 124 120 48 199 81 131 104 141 90 209 55 113 58 180 85 35 102 86 186 49 114 125 134 80 66 129 172 59 72 17 103 195 106 104 68 187 113 221 153 55 73 141 172 123 71 126 160 103 197 86 90 208 
168 134 173 171 124 112 139 213 74 91 171 83 64 61 156 172 80 108 148 180 169 57 72 200 126 198 161 120 178 115 152 94 125 116 99 57 63 60 130 112 207 60 182 130 93 188 169 86 172 202 120 179 127 68 182 172 102 103 45 89 215 200 61 193 54 196 39 212 184 221 21 72 87 104 146 29 53 78 127 154 27 100 72 224 139 176 103 129 129 46 127 164 39 129 105 79 184 93 53 208 
184 83 59 153 66 126 68 216 73 184 192 106 48 130 193 141 184 53 138 164 82 39 181 122 184 110 214 93 154 118 174 133 174 217 173 44 106 165 36 105 112 150 60 189 186 74 150 195 195 42 212 101 180 71 119 164 156 143 124 61 30 128 165 179 110 19 133 66 65 200 40 189 103 72 39 173 78 118 139 150 108 39 167 158 128 97 232 192 14 171 96 3 125 11 152 199 116 224 222 143 
134 46 109 168 76 52 158 53 124 184 119 71 213 182 216 110 37 161 165 59 121 182 109 83 104 35 111 223 125 113 154 59 99 118 120 116 79 67 94 37 129 107 143 198 146 74 138 151 167 59 158 138 43 70 224 146 121 209 79 178 139 76 149 174 192 112 155 213 56 36 60 93 62 199 161 107 88 122 185 127 166 138 122 160 226 115 182 202 33 215 62 121 95 144 171 95 123 157 215 60 
158 88 163 118 197 186 155 56 153 81 35 73 120 197 58 172 129 55 80 178 61 73 185 203 146 38 115 62 15 119 125 103 140 79 113 79 116 183 132 96 98 163 224 195 42 194 39 101 109 189 65 197 26 230 118 117 127 111 102 199 185 188 46 204 171 187 167 121 201 157 161 47 226 134 177 73 171 73 79 76 57 65 218 156 186 218 118 51 56 137 99 164 88 71 123 31 65 90 75 119 
135 62 137 92 140 111 112 160 171 127 104 93 77 166 56 174 182 59 108 95 70 73 28 132 148 89 80 32 179 65 102 56 66 89 82 139 228 120 51 73 64 66 125 194 59 72 166 136 38 192 138 117 83 19 54 147 158 43 110 200 189 89 180 214 153 32 103 26 127 168 166 43 217 51 28 91 189 166 196 116 88 110 104 96 145 70 89 82 191 77 91 211 58 25 146 173 146 64 167 206 
97 134 107 87 193 118 143 118 51 120 120 137 131 143 82 72 83 225 110 111 83 237 163 77 26 99 156 167 198 62 178 192 72 200 233 98 179 137 237 81 193 203 82 17 109 37 65 233 184 129 43 221 83 133 55 195 92 131 177 219 123 225 100 74 75 110 72 172 103 75 85 119 120 87 173 184 40 199 84 189 211 127 194 20 156 194 113 160 64 101 189 216 153 110 136 46 120 59 28 118 
95 176 144 31 226 130 152 67 146 197 76 75 209 26 20 61 197 147 89 102 90 26 100 65 123 227 85 187 65 123 84 65 32 108 148 178 182 186 187 203 164 198 145 212 166 62 136 188 178 100 206 81 153 71 234 107 191 47 63 162 95 184 154 204 88 135 119 47 195 206 153 168 104 148 190 214 89 84 106 32 177 55 170 142 126 224 190 81 95 152 93 192 91 89 88 169 184 205 115 38 
209 119 190 95 173 88 140 59 178 214 92 106 168 180 174 155 104 202 211 98 45 177 121 53 158 160 61 143 139 221 61 108 119 125 22 24 31 27 71 125 184 175 185 87 108 96 60 95 162 171 210 69 121 209 170 208 159 103 40 153 124 94 200 138 77 138 193 39 122 36 82 93 191 199 67 135 59 102 196 138 95 83 121 139 162 94 107 104 154 227 69 28 224 206 97 133 114 80 236 162 
138 159 46 129 77 54 131 19 87 102 63 19 120 115 215 38 77 171 134 137 160 231 134 133 126 155 243 183 67 179 40 185 31 182 149 86 54 48 175 182 125 119 226 155 19 119 85 184 177 155 106 138 181 41 109 139 124 27 129 65 162 79 133 174 89 151 133 158 130 194 200 120 149 136 178 229 187 104 208 230 183 151 63 70 243 147 86 55 53 207 158 29 84 121 148 110 207 155 218 29 
116 49 91 171 70 123 132 96 85 129 150 107 77 70 166 150 125 128 83 201 23 63 180 218 158 177 106 93 243 29 118 169 123 120 174 26 126 65 84 82 54 126 129 52 205 136 100 32 98 76 163 193 203 108 93 74 117 149 18 62 167 125 221 38 94 196 184 118 145 135 142 86 196 156 205 59 211 217 128 204 122 80 61 118 154 29 196 67 162 73 199 111 156 239 115 190 40 130 44 57 
55 119 128 110 202 202 153 83 125 181 166 26 150 101 111 140 149 115 58 78 149 167 97 93 99 178 180 239 106 36 184 24 155 216 192 202 166 213 170 224 89 184 111 25 58 205 144 92 76 152 171 13 50 81 79 160 167 114 202 116 75 90 97 197 126 146 151 130 147 70 81 145 120 192 95 179 59 96 86 199 131 112 160 75 20 56 54 169 195 80 106 198 33 120 105 158 118 216 158 160 
222 65 126 86 229 91 175 152 145 191 47 147 188 83 217 147 213 131 98 93 128 34 166 90 203 184 189 97 191 197 64 84 71 108 169 82 203 120 49 154 215 177 143 112 138 73 73 100 129 141 166 206 203 162 131 217 204 88 188 215 66 197 131 117 212 233 115 92 147 74 160 150 167 41 195 153 60 151 101 72 41 80 186 177 168 199 140 76 150 84 167 138 119 231 110 143 32 211 60 83 
101 102 147 213 109 69 119 130 102 164 66 70 115 138 70 51 196 146 112 24 195 181 202 61 77 212 181 193 115 234 236 106 108 69 200 84 103 95 168 56 143 81 28 196 73 14 130 44 169 63 122 163 117 212 176 103 55 219 75 111 101 148 40 86 152 29 198 167 39 87 83 193 173 116 112 42 141 41 55 171 95 84 173 198 77 145 68 129 63 147 115 53 71 77 76 231 191 133 128 70 
62 137 77 62 90 67 110 180 89 141 190 81 209 74 129 172 141 217 132 93 138 157 17 216 147 111 165 61 179 196 124 178 114 53 89 174 115 187 61 60 163 104 112 105 152 168 185 93 96 144 205 63 73 24 218 171 124 121 209 52 104 167 120 49 171 94 52 141 18 107 98 133 128 185 37 163 70 145 84 116 201 100 171 195 206 137 80 83 205 79 79 146 137 110 127 92 110 168 176 178 
143 67 127 65 87 140 184 77 207 237 118 182 175 110 217 197 11 81 86 205 83 121 210 41 233 174 182 6 62 173 110 204 147 188 205 194 188 222 42 143 67 109 47 33 107 50 74 137 81 83 182 165 109 230 179 151 190 198 60 149 134 123 70 207 130 110 121 48 59 122 143 116 239 125 174 61 187 107 192 204 164 79 183 145 109 82 122 193 149 216 151 150 63 107 112 122 239 147 219 210 
113 186 217 132 146 38 46 104 69 154 163 59 193 161 56 207 214 96 156 194 178 89 154 153 209 40 115 59 42 36 238 180 132 147 187 164 224 112 51 20 106 150 144 104 192 38 156 57 171 197 157 138 135 174 154 153 175 120 79 75 72 135 116 125 66 116 121 59 53 169 59 128 71 182 159 186 127 196 188 191 182 142 71 191 97 26 75 126 150 176 146 53 64 162 203 67 155 192 27 45 
48 165 180 131 110 95 22 112 111 124 117 110 32 180 54 93 114 176 197 30 151 37 184 71 111 91 50 129 148 183 164 209 193 151 111 32 99 214 101 116 187 236 161 62 86 175 34 133 61 43 195 60 119 131 135 40 71 185 94 199 114 80 49 177 206 146 130 104 65 144 186 180 61 69 192 200 239 225 130 84 81 92 197 178 57 209 162 201 49 107 140 80 131 57 222 174 73 71 81 168 
28 175 221 52 124 47 100 205 68 219 177 100 26 27 163 48 129 172 55 39 226 55 151 109 64 217 94 165 174 68 186 122 119 84 180 60 157 111 68 54 226 101 58 26 30 195 115 105 78 192 26 48 181 80 206 189 46 201 104 47 122 188 188 149 217 71 233 121 194 126 72 63 113 80 180 218 85 88 185 74 106 92 70 82 85 209 48 212 129 93 124 120 176 96 179 113 185 192 131 171 
90 31 98 123 105 64 205 176 138 66 59 161 35 150 122 185 197 92 207 217 44 115 156 185 132 55 145 85 36 164 34 194 120 29 180 114 181 158 96 59 188 153 37 114 170 60 135 83 181 147 169 207 136 172 47 68 121 201 194 189 194 206 102 39 138 123 143 58 78 78 94 51 219 131 84 51 172 113 139 65 138 118 102 131 158 101 119 35 164 185 116 156 62 115 169 234 187 81 195 191 
65 209 136 96 118 200 228 122 183 77 114 213 77 212 172 161 162 237 131 130 115 108 67 122 45 247 201 114 201 135 56 110 187 50 43 182 198 167 197 28 211 143 156 84 82 130 106 136 99 101 70 150 152 80 141 93 46 83 163 67 165 114 220 109 52 53 169 168 192 147 135 164 124 130 210 182 21 86 90 169 158 175 76 107 95 149 55 153 196 190 38 69 71 183 209 86 216 84 87 203 
48 138 53 70 71 108 57 138 23 66 77 191 108 76 218 120 176 146 159 110 184 57 75 188 149 42 155 217 159 74 118 123 189 57 76 150 171 34 190 176 42 107 142 122 51 55 161 169 105 112 214 190 81 24 188 126 69 142 183 73 195 145 143 233 118 117 30 149 117 167 79 46 206 154 65 159 85 207 224 154 156 80 41 185 144 133 117 75 59 38 113 193 188 69 102 81 197 226 126 178 
91 154 227 103 152 91 183 14 211 77 60 180 126 141 152 213 229 218 148 147 43 116 59 146 192 174 73 220 66 102 160 150 79 224 22 81 154 101 24 221 164 141 61 229 154 190 149 139 55 150 143 111 37 222 233 91 137 88 177 87 142 186 61 37 172 194 124 152 150 147 149 86 231 118 179 50 160 171 121 230 55 182 168 109 224 242 88 159 92 37 26 143 47 216 111 127 185 97 244 33 
164 32 36 101 144 219 161 145 134 71 96 169 181 25 13 67 40 85 147 88 210 62 136 182 118 33 172 138 109 45 206 222 94 209 178 148 121 154 114 101 69 134 122 77 182 51 153 199 19 19 141 189 221 155 24 51 118 7 220 144 134 205 126 184 211 108 140 180 158 177 207 57 59 94 203 143 154 180 153 130 173 83 149 146 141 166 108 74 151 161 147 190 62 175 52 94 223 187 169 94 
93 81 178 109 67 104 218 201 133 55 217 155 57 217 145 97 60 168 95 148 139 119 188 74 167 107 104 88 91 122 158 132 139 68 98 166 237 216 169 155 53 169 143 162 126 131 146 152 168 122 162 75 154 78 166 62 24 84 162 133 191 181 68 89 155 24 83 73 177 103 207 88 108 107 59 140 188 157 226 203 137 43 77 139 45 187 46 100 151 31 176 34 201 88 199 160 143 190 131 68 
107 106 98 81 24 28 221 178 170 193 164 152 188 99 93 143 67 103 76 95 160 80 232 49 55 18 220 94 132 101 37 211 222 96 130 209 217 53 106 64 8 177 151 63 236 161 159 60 211 185 172 188 164 231 38 174 164 40 232 144 134 79 118 77 81 186 93 87 187 58 161 122 112 126 201 211 115 115 62 228 111 107 181 61 57 168 127 165 113 102 72 104 136 86 67 196 20 96 128 116 
229 108 138 110 218 205 169 98 211 29 131 160 41 58 66 103 147 185 122 161 12 141 206 195 192 169 200 220 71 47 77 54 58 42 76 92 55 165 43 95 35 134 53 218 50 148 162 225 162 221 158 200 99 154 82 65 149 134 36 86 23 141 134 126 93 167 108 100 126 192 51 129 116 114 66 146 147 209 101 163 91 203 100 87 196 149 45 144 110 116 83 207 231 68 48 51 124 210 70 121 
227 170 143 62 123 116 168 208 25 155 50 110 183 166 62 82 156 37 251 206 96 206 203 76 199 42 56 241 62 181 107 167 28 172 139 192 49 145 99 127 55 185 72 121 97 62 80 171 128 85 212 243 101 171 55 68 230 134 52 25 24 154 171 74 153 36 89 177 150 114 98 62 122 76 175 56 97 49 47 159 168 25 108 229 196 41 82 172 175 78 85 229 168 153 64 49 133 89 117 172 
81 180 60 53 220 125 189 121 183 79 135 202 25 150 155 34 108 135 57 99 68 133 207 76 69 99 106 110 137 97 125 128 185 125 150 164 162 195 68 197 50 161 70 168 102 154 186 117 176 152 141 126 197 205 129 92 101 55 95 68 108 57 192 141 118 171 102 195 76 224 221 74 60 59 152 143 196 156 50 198 204 125 207 184 181 131 89 71 177 147 67 119 51 155 58 202 179 146 189 174 
153 169 158 174 73 159 168 108 193 167 50 164 121 137 204 188 233 102 84 116 77 186 34 184 82 139 37 29 148 169 142 87 58 62 166 127 149 178 188 67 166 167 129 93 23 168 198 193 127 133 62 199 191 176 25 78 216 221 172 125 100 55 216 131 201 151 173 111 196 85 172 58 18 35 55 41 147 141 220 154 240 211 110 163 87 207 119 227 202 42 147 82 167 161 115 153 146 220 98 187 
123 129 90 130 69 63 69 22 149 106 64 72 42 97 193 108 78 217 116 183 199 52 128 165 209 24 213 153 82 150 150 67 145 157 95 77 236 133 76 99 101 153 127 102 149 127 122 215 130 28 125 77 106 79 167 26 130 66 185 137 185 169 91 163 195 76 46 177 93 228 65 149 112 138 164 145 98 67 135 51 160 125 54 74 35 171 189 116 184 86 179 44 91 109 39 94 37 143 142 92 
89 221 167 195 97 172 46 142 198 152 113 61 175 227 163 77 131 53 70 84 171 90 198 184 155 126 128 124 99 76 204 111 201 135 81 68 153 46 188 34 66 55 47 42 193 222 217 107 68 100 80 71 139 190 78 125 151 200 176 184 134 78 106 182 98 145 145 169 192 109 234 89 109 188 127 132 177 180 64 157 136 24 57 198 72 208 144 209 65 126 217 98 158 41 45 64 140 196 203 48 
179 194 69 158 139 156 50 62 83 88 76 124 136 152 202 129 231 127 87 117 46 172 168 126 97 69 66 207 103 107 89 183 29 75 128 200 144 176 135 44 213 235 208 152 162 74 234 138 149 172 189 140 130 139 115 87 56 112 96 123 87 92 25 221 152 184 127 115 28 225 213 104 85 108 116 211 142 33 121 158 183 106 52 72 186 163 74 75 215 57 20 193 122 74 60 69 185 32 152 87 
146 74 129 201 119 108 147 63 219 181 165 177 184 110 122 84 34 152 84 183 170 171 156 58 46 68 40 83 60 99 123 187 170 80 107 153 81 78 66 132 139 122 131 63 159 77 126 161 215 125 59 166 123 73 148 34 85 176 130 170 65 56 60 126 78 129 192 55 199 128 67 155 171 171 194 111 99 62 214 138 65 87 99 80 116 50 163 155 171 124 70 41 157 145 189 219 62 181 121 191 
192 170 51 67 63 190 128 84 16 178 79 108 176 122 220 125 73 58 42 131 81 59 183 72 109 105 117 55 159 31 235 168 54 205 148 86 195 216 106 33 204 150 223 71 26 199 177 88 41 209 233 207 165 106 156 174 192 31 107 51 155 12 53 55 163 72 134 157 120 182 71 113 127 228 88 117 109 176 68 143 65 32 202 175 188 42 242 122 224 89 58 110 236 183 40 159 70 123 104 146 
229 38 180 37 164 139 98 83 186 91 148 37 88 219 220 174 189 50 91 86 72 33 81 153 194 43 27 151 203 81 152 41 192 170 77 153 83 130 189 144 151 69 64 201 75 60 129 197 57 194 181 180 164 93 157 138 198 142 241 110 71 192 197 183 182 85 161 78 203 64 204 159 126 229 85 211 87 118 92 149 127 40 145 97 190 21 237 176 147 125 184 90 225 168 178 172 59 65 225 84 
114 166 139 147 151 91 70 135 189 46 81 66 126 148 188 212 163 184 63 203 148 154 181 157 29 54 95 117 112 190 108 56 142 64 130 140 116 219 55 107 71 172 133 104 187 59 100 155 109 90 123 80 205 25 83 93 44 46 205 131 109 134 101 117 142 147 81 96 206 90 118 181 195 119 112 113 117 175 19 137 102 81 103 175 137 36 137 68 187 102 223 64 129 61 195 192 87 118 181 141 
155 192 133 129 188 120 52 206 147 98 99 223 183 85 195 180 178 158 88 49 193 203 183 82 129 103 140 30 166 113 202 149 152 214 114 42 46 99 75 207 78 136 101 155 208 65 19 144 193 141 196 36 199 62 57 147 69 192 38 235 63 65 199 101 103 164 70 135 74 87 140 105 127 197 93 154 158 140 82 57 202 85 158 208 142 135 133 204 93 131 145 203 220 37 35 188 36 71 210 80 
127 136 1 46 192 103 67 159 153 140 56 132 123 121 49 149 156 78 61 230 104 192 191 150 125 81 125 204 48 39 100 51 83 146 79 147 210 116 82 84 44 110 180 71 67 158 44 158 97 149 113 100 118 64 217 48 93 100 116 183 56 161 153 113 123 82 145 107 108 193 45 150 213 124 195 133 83 176 128 151 155 152 133 151 100 128 226 62 62 49 129 210 149 171 99 86 151 138 174 164 
155 182 160 199 172 62 190 125 101 148 163 156 48 148 180 31 104 80 205 209 62 169 121 32 115 176 142 61 43 136 52 138 225 76 60 172 163 45 89 184 17 108 50 217 86 150 144 101 91 191 59 170 190 131 82 140 117 136 23 75 36 99 178 60 196 86 95 197 226 100 189 71 176 219 125 86 126 115 197 84 160 149 53 121 223 223 207 181 221 100 222 60 77 114 100 38 23 80 182 166 
36 81 46 53 87 77 180 72 70 194 134 144 104 123 183 119 108 225 214 129 190 197 183 101 147 148 174 68 115 129 142 46 222 167 129 81 135 153 220 126 84 56 45 188 74 145 89 60 59 105 56 190 103 203 25 174 198 94 147 70 143 153 206 215 113 224 77 69 94 186 51 205 141 226 63 193 73 65 172 141 62 30 190 36 156 119 189 110 98 97 128 113 229 119 141 45 161 80 28 53 
105 50 104 159 60 52 55 126 64 186 74 212 63 111 233 35 73 40 205 150 39 77 83 131 97 238 133 182 148 178 119 70 116 235 188 93 131 144 187 89 76 237 149 187 173 219 94 56 224 111 76 173 225 209 143 82 145 197 55 165 54 165 145 189 137 99 146 51 41 197 111 187 203 136 84 86 68 31 64 125 189 117 135 118 168 145 132 214 151 100 191 180 187 103 80 205 185 195 223 118 
109 132 205 171 121 119 63 66 114 134 112 195 40 52 210 74 57 48 95 42 57 183 96 205 44 52 226 107 96 57 152 194 243 219 99 240 235 83 205 114 169 215 138 118 199 101 151 203 58 169 43 88 194 77 140 59 148 60 31 202 62 166 39 47 148 89 142 110 63 90 16 89 178 153 180 111 105 114 54 187 145 205 60 120 194 152 224 132 100 144 154 103 191 135 117 87 198 119 211 215 
103 114 157 148 140 236 207 46 210 96 139 72 64 163 177 119 235 59 159 124 163 171 98 131 114 103 215 136 158 176 85 130 211 129 97 152 173 55 190 129 53 181 163 43 62 97 49 44 97 142 46 193 124 109 74 198 140 67 96 52 146 107 123 170 162 121 169 176 115 102 54 71 33 63 62 108 11 62 112 130 99 62 45 186 151 217 162 102 226 93 162 62 210 36 100 53 154 102 113 127 
46 30 98 47 105 116 95 148 144 149 133 51 178 143 64 113 47 93 80 171 82 82 88 172 212 221 69 112 71 83 143 154 212 110 233 157 64 130 138 116 231 49 232 62 151 153 188 149 151 56 26 169 147 148 68 30 121 172 47 145 108 200 121 62 49 67 201 169 231 226 163 194 168 160 81 40 142 128 206 115 118 92 59 49 213 233 74 142 158 128 42 192 149 215 35 168 74 221 181 174 
129 186 189 42 74 204 62 160 84 103 172 110 35 103 80 78 27 157 145 125 149 201 94 128 127 195 149 117 43 128 124 138 69 194 119 154 45 179 169 140 200 101 161 25 124 151 197 172 133 114 139 20 88 194 172 84 76 149 71 193 166 141 177 39 62 224 87 182 42 220 77 89 207 190 184 142 48 86 137 57 142 61 43 60 175 197 203 173 49 163 184 111 103 180 122 136 85 44 155 136 
13 139 139 111 148 195 130 81 208 81 49 116 51 68 109 41 44 59 60 100 83 102 220 105 140 195 204 181 157 146 131 20 151 80 146 178 214 85 77 99 78 222 80 187 51 43 121 143 212 105 129 133 218 128 50 173 87 109 166 213 98 42 218 138 202 158 68 158 149 116 151 75 128 181 60 56 136 83 56 173 97 128 192 117 31 126 64 3 155 62 98 146 135 140 196 166 149 78 174 236 
149 218 106 208 109 141 161 133 180 44 71 59 86 165 82 47 188 181 112 65 70 174 126 231 167 98 168 101 80 165 178 69 74 121 198 45 134 56 148 48 52 164 77 27 199 72 195 214 98 132 46 225 51 221 191 78 175 109 85 33 79 167 213 204 26 173 117 70 190 63 143 106 69 51 46 194 201 154 160 206 119 165 67 114 59 159 152 136 140 161 162 192 145 61 73 180 106 129 144 174 
150 195 84 109 96 215 120 90 150 87 179 90 67 210 48 83 148 140 40 200 175 118 75 87 221 122 218 88 241 148 205 156 29 158 223 142 180 162 92 158 160 151 55 124 178 80 205 56 203 147 57 189 158 94 215 92 164 144 97 201 171 122 54 54 176 96 67 186 103 211 200 145 60 88 43 213 52 100 160 100 129 143 65 221 201 91 152 55 118 137 177 168 150 72 184 19 138 148 53 126 
178 97 73 117 119 153 74 51 186 89 134 145 126 84 113 57 52 52 216 131 66 180 107 169 218 162 51 122 137 209 110 54 38 181 121 128 157 60 223 211 51 110 29 56 50 100 196 145 44 189 140 206 226 124 78 62 79 184 143 73 54 169 104 73 51 124 239 208 74 11 123 58 201 199 115 134 202 61 146 39 143 62 147 60 66 118 75 130 85 118 46 181 39 202 138 220 211 65 97 30 
213 240 182 119 48 12 134 164 159 181 42 69 222 140 156 51 57 200 145 181 39 187 60 150 127 203 73 29 107 84 192 179 153 35 151 168 240 202 45 62 146 162 97 131 162 94 90 169 198 134 51 157 98 52 174 197 167 224 209 71 145 122 91 241 158 141 123 93 165 25 77 50 96 210 179 134 169 189 64 151 81 39 108 90 105 97 147 226 166 161 31 121 152 143 66 112 51 95 111 190 
155 70 222 84 89 134 168 201 122 214 95 167 77 164 68 94 105 170 83 229 148 79 82 168 197 136 191 57 106 99 76 188 133 79 65 52 120 193 52 166 203 131 189 89 197 203 103 56 155 74 101 205 158 174 131 81 140 128 103 44 116 148 142 159 207 56 57 74 174 72 69 184 87 46 17 122 159 188 188 106 40 119 92 178 53 89 71 149 179 77 130 30 51 126 117 141 147 222 116 177 
180 150 29 169 54 63 130 128 142 123 194 46 156 172 235 171 230 67 175 129 109 236 118 136 208 120 77 35 164 161 76 95 161 172 100 184 162 238 120 157 200 49 197 189 173 215 211 117 159 185 174 100 52 189 143 117 170 146 121 142 139 181 146 103 232 99 84 205 186 43 68 100 130 178 169 198 205 198 101 103 47 165 62 71 192 184 102 102 78 121 133 27 96 114 146 155 69 108 224 182 
100 45 175 43 20 51 128 108 130 160 108 72 190 144 193 194 169 65 58 85 184 42 125 52 157 43 198 102 205 80 166 125 152 214 130 61 221 195 53 41 138 158 190 84 185 52 116 213 193 136 105 123 110 134 233 174 73 120 141 193 16 58 164 147 122 195 196 28 144 170 52 181 130 116 56 115 132 165 217 205 125 103 185 112 136 57 172 172 102 79 179 166 132 177 193 65 195 110 174 214 
63 158 116 113 102 96 187 86 115 162 145 153 97 67 141 142 41 133 205 47 121 186 100 209 155 117 164 91 170 109 184 180 143 176 193 134 68 74 203 103 194 67 57 145 157 19 207 116 172 140 177 195 186 87 64 165 205 200 208 87 129 200 122 160 18 81 130 137 54 171 138 54 122 163 171 167 170 182 84 81 149 115 137 179 46 196 67 34 187 149 85 62 60 127 195 141 147 205 220 134 
159 139 214 96 130 184 114 132 180 153 147 115 127 140 144 184 150 123 45 65 128 79 86 207 76 61 187 117 153 28 112 104 91 182 103 178 182 175 211 115 145 77 232 135 130 151 75 40 134 139 54 57 48 204 103 135 225 167 99 173 33 148 146 163 19 55 203 45 117 191 98 67 204 197 177 177 221 170 126 136 173 89 91 105 212 186 62 122 162 70 16 145 67 73 126 70 157 91 36 185 
107 140 173 44 111 134 107 215 48 42 194 130 69 60 127 72 127 105 94 42 180 114 67 165 147 207 59 89 105 200 73 83 95 159 57 127 188 32 193 100 99 148 183 130 135 122 105 72 40 137 63 219 106 92 164 215 96 90 122 115 224 194 60 107 104 65 105 93 54 202 39 93 73 78 77 218 176 133 20 82 59 128 155 189 35 156 99 90 108 21 85 114 210 13 185 59 98 116 72 184 
229 184 187 121 101 208 160 76 97 228 166 118 119 120 221 187 80 139 71 146 118 123 90 117 47 77 138 149 56 55 50 77 176 109 57 182 80 160 165 160 201 65 159 187 133 38 116 183 167 139 183 197 128 110 36 38 214 111 56 209 185 171 226 200 153 221 114 110 106 59 87 108 195 228 77 111 237 90 114 55 156 147 165 51 190 197 179 46 184 47 127 160 41 86 159 141 214 89 78 137 
130 96 134 106 158 168 193 194 103 196 192 134 132 159 99 234 166 154 142 93 163 206 47 151 217 186 82 205 179 190 130 18 206 78 83 143 87 74 165 191 194 106 76 130 91 74 178 81 115 181 133 121 110 194 163 32 198 96 94 189 191 53 101 84 158 52 184 117 166 98 137 209 44 46 208 91 119 77 234 51 147 134 68 171 199 93 55 34 41 149 88 54 80 80 43 72 123 135 98 88 
173 212 96 138 63 190 164 197 64 209 204 148 46 217 185 183 179 178 213 205 196 206 189 104 40 58 108 83 184 227 185 97 157 127 97 159 162 175 193 79 167 91 150 182 174 171 87 209 50 155 191 97 52 126 62 48 101 82 82 104 48 191 172 147 214 137 125 172 195 147 75 27 95 52 177 117 96 191 91 179 112 85 149 128 107 195 99 99 108 226 116 214 208 55 40 203 130 148 84 226 
111 157 169 185 53 167 89 115 128 70 21 195 111 211 70 33 218 78 115 51 173 117 201 184 205 79 64 78 222 43 158 81 61 116 114 49 90 191 219 86 124 65 40 63 46 140 116 191 166 207 160 115 188 203 147 134 188 221 82 196 211 71 127 185 153 25 55 60 122 196 205 82 151 181 60 154 233 65 126 58 140 166 132 124 120 55 28 195 130 120 33 122 157 187 139 187 142 133 106 214 
188 125 40 134 232 74 179 141 183 202 75 70 64 137 119 193 190 136 225 76 113 211 122 149 53 58 168 129 56 214 113 147 118 70 14 206 160 120 226 193 180 176 84 58 191 120 191 115 100 176 166 125 38 228 158 85 55 52 152 136 135 151 116 63 99 77 202 54 124 180 147 59 86 156 70 113 192 105 111 94 155 120 108 96 137 202 107 84 160 110 174 214 140 211 153 53 133 192 194 153 
124 80 76 188 106 80 177 27 185 119 150 132 85 214 212 87 109 49 140 197 102 210 69 143 144 111 39 49 172 149 144 157 102 84 157 19 187 56 47 157 26 117 158 190 61 44 147 126 181 83 163 37 202 135 51 214 130 201 80 157 120 204 125 133 70 219 79 29 67 85 211 201 177 163 85 100 138 103 127 163 221 76 73 138 241 179 199 178 112 126 123 211 107 73 169 81 132 171 215 35 
98 75 150 71 184 204 102 67 67 147 134 103 102 118 52 67 51 124 89 196 53 85 186 52 193 147 50 192 57 114 88 171 145 204 25 96 152 230 88 66 137 97 231 86 36 91 94 209 193 82 95 126 186 60 194 228 211 68 139 191 162 129 52 146 81 106 145 217 192 18 227 63 38 52 126 47 221 70 71 45 210 67 162 82 76 105 200 173 94 72 153 91 132 139 40 224 123 104 96 177 
168 145 20 59 156 78 158 204 191 77 74 154 50 192 110 151 149 107 107 38 58 89 95 133 44 124 159 102 133 86 144 147 59 81 67 161 210 124 181 211 210 128 185 83 197 209 219 132 203 114 168 104 193 55 116 194 121 216 87 197 171 67 142 148 152 169 62 201 212 84 223 136 182 73 143 24 145 184 73 157 200 233 192 138 67 82 129 188 208 181 66 85 125 47 95 73 193 60 178 80 
108 101 141 181 75 216 137 48 111 172 146 192 57 74 203 159 32 207 110 222 227 79 185 234 201 178 84 67 88 76 50 197 212 83 148 86 202 162 99 47 57 176 215 97 107 61 63 42 150 206 69 207 112 60 130 173 176 119 180 84 31 67 139 179 212 170 161 199 40 181 151 122 226 169 191 115 49 214 165 40 128 44 62 192 157 146 166 61 176 130 123 71 41 140 222 157 96 69 202 105 
149 84 62 42 105 174 92 61 100 214 94 209 120 67 205 89 78 207 126 206 33 177 158 104 157 160 194 88 51 208 121 204 119 198 203 132 239 81 91 209 137 159 238 142 199 58 64 239 67 72 197 143 60 196 73 106 181 181 158 114 106 28 67 81 116 86 138 224 154 36 223 143 45 99 187 160 56 166 212 72 157 199 64 60 75 191 150 173 175 187 71 65 184 165 40 91 185 114 114 87 
218 129 34 101 107 196 90 162 46 118 194 247 97 199 69 149 156 204 171 216 79 49 76 190 123 118 152 94 119 93 146 196 185 133 39 201 54 135 151 138 178 170 183 97 62 232 117 117 98 164 51 127 147 164 161 123 113 98 102 126 115 83 106 204 112 79 49 184 32 131 54 205 192 75 76 124 154 31 198 134 121 92 119 107 153 62 187 121 139 164 189 40 222 158 53 30 167 134 18 203 
222 134 51 214 193 112 39 83 184 54 90 124 216 214 68 207 28 186 144 193 101 105 225 55 118 188 181 83 208 53 51 45 82 126 158 235 85 84 76 132 78 155 41 121 106 68 181 190 228 103 61 91 104 187 75 196 179 159 130 194 178 104 96 167 192 111 139 200 114 202 228 166 131 89 37 223 106 212 212 127 166 122 79 142 157 81 150 57 91 104 59 182 121 165 157 90 102 93 102 125 
153 143 195 92 116 112 228 133 172 48 161 107 134 197 112 191 184 181 141 135 192 165 85 152 101 99 44 195 104 150 143 126 209 111 75 203 149 66 165 128 96 72 95 149 41 216 177 185 153 50 43 141 50 45 99 112 182 176 10 192 50 62 144 185 128 50 117 119 174 111 150 150 98 85 129 35 140 192 206 191 217 121 80 78 155 125 63 50 205 118 121 135 51 82 27 166 49 141 143 142 
35 130 62 143 146 88 144 121 203 102 149 97 17 164 76 125 107 164 148 178 213 78 32 161 105 79 81 130 190 170 44 87 102 6 195 34 144 90 188 206 50 70 68 52 68 37 157 191 151 174 78 72 53 146 213 153 177 171 220 117 174 77 102 32 133 177 153 104 191 82 167 177 152 170 66 113 107 129 65 65 35 171 122 77 105 71 104 92 39 205 88 35 131 217 128 88 133 158 185 122 
133 242 96 125 140 51 191 133 100 150 137 64 186 74 69 69 85 73 104 128 196 118 192 27 168 76 114 198 187 68 172 58 76 81 179 115 194 163 213 198 81 58 192 175 113 85 56 125 173 113 90 94 186 178 135 55 119 104 95 123 136 141 40 61 235 165 19 97 51 37 101 56 135 116 160 91 198 43 84 192 133 191 21 128 174 81 157 227 58 137 92 213 173 48 147 111 40 103 181 63 
49 120 219 175 146 206 216 63 49 149 118 52 149 73 80 32 189 146 88 128 200 71 151 83 161 70 155 181 196 50 122 82 185 116 205 162 108 36 70 157 84 200 83 196 36 195 66 162 175 143 128 160 55 99 49 110 167 37 183 81 185 64 16 213 126 181 85 57 33 157 180 161 202 70 129 88 120 208 179 129 200 203 82 164 199 165 145 219 48 117 124 79 53 99 80 150 89 146 96 37 
154 87 94 84 184 37 151 42 47 145 50 155 57 17 195 64 68 124 150 91 67 185 162 136 68 174 106 184 213 134 86 169 48 159 168 175 145 64 169 189 66 185 169 154 141 193 26 184 243 167 216 163 170 151 53 103 194 38 148 137 122 179 29 62 207 189 220 68 217 196 116 72 142 216 208 48 44 158 114 31 148 178 179 132 141 176 181 136 76 222 101 172 72 207 67 128 77 70 111 153 
90 86 69 199 210 132 121 202 182 93 143 202 88 127 108 171 61 142 94 108 148 199 214 185 70 50 62 146 46 137 52 187 156 199 96 41 135 49 168 117 46 132 180 152 93 170 199 96 104 117 92 116 132 146 42 183 92 187 208 71 117 56 65 86 170 95 76 134 217 69 120 165 207 78 42 48 41 144 187 113 191 163 71 63 61 94 69 123 114 180 166 215 72 37 138 211 119 93 92 176 
186 183 179 199 61 79 104 51 196 163 151 193 129 70 110 183 87 202 126 58 120 73 124 98 177 236 112 194 36 115 46 235 109 54 123 65 24 103 142 155 127 226 147 51 34 129 163 148 76 192 87 65 86 110 99 59 76 155 88 129 114 84 160 187 97 115 130 178 170 107 205 92 202 128 164 143 123 212 167 240 172 93 111 30 191 180 109 227 208 106 230 37 118 85 169 132 124 32 169 81 
114 90 214 187 169 48 177 97 108 45 123 248 138 190 109 66 205 93 167 172 139 220 146 138 191 35 186 53 188 180 211 55 93 40 183 186 159 198 179 221 83 100 48 212 125 114 128 63 167 154 162 63 70 28 58 136 114 66 90 213 137 49 151 171 105 132 189 188 68 47 59 154 52 91 44 41 43 57 21 53 137 136 188 115 29 205 48 216 125 212 141 194 195 100 192 173 122 81 93 176 
218 144 143 144 114 138 194 109 189 92 141 202 151 86 157 121 13 71 77 109 117 92 228 75 226 159 175 111 74 84 35 195 189 92 175 35 107 118 184 135 88 173 118 148 126 107 52 203 127 131 71 57 135 178 181 92 54 182 182 110 88 193 37 61 139 63 110 177 120 88 131 33 57 57 86 29 100 70 200 63 112 213 76 59 84 35 174 126 106 128 122 154 112 64 120 27 63 167 91 63 
149 212 169 202 197 176 126 121 184 57 241 118 37 116 232 194 52 184 66 202 132 202 149 79 224 169 44 143 146 53 90 207 180 167 42 104 129 175 196 83 122 175 72 154 56 82 213 140 213 123 159 31 160 118 37 201 42 178 115 118 209 149 88 28 36 94 179 79 193 56 147 203 95 205 125 185 140 97 155 49 147 197 87 122 195 208 131 80 61 55 71 39 105 165 72 98 95 99 142 191 
182 82 180 164 75 75 178 220 124 245 104 111 143 83 147 24 151 121 168 205 235 209 161 103 143 197 199 145 162 121 184 163 206 214 177 229 79 79 196 243 83 104 66 176 156 166 75 123 78 83 151 209 116 62 37 66 73 99 65 74 136 96 228 101 54 67 151 128 189 216 196 48 158 53 77 89 152 221 33 36 92 156 76 166 95 142 130 163 202 178 127 63 113 124 77 113 79 27 134 141 
110 99 169 81 142 20 138 187 154 168 47 118 123 129 127 42 245 67 119 53 42 164 224 127 216 92 190 48 163 102 145 97 119 73 188 208 164 59 180 60 73 104 196 101 48 176 69 112 36 151 47 140 132 75 93 36 93 207 140 93 209 81 96 49 18 69 50 91 85 119 158 95 48 182 84 122 35 122 139 111 28 104 116 127 140 39 41 120 147 96 159 156 67 209 155 68 26 189 182 145 
118 90 61 160 53 79 204 48 103 40 64 114 217 102 73 183 145 65 178 115 119 206 89 69 222 196 101 156 95 98 103 45 147 98 42 51 207 87 140 73 193 41 87 96 143 58 188 196 83 174 104 76 122 105 41 187 113 173 150 45 55 231 82 217 85 71 57 181 131 82 232 64 68 140 173 234 110 146 77 195 105 158 61 137 75 158 198 48 189 167 199 132 99 89 124 185 163 197 166 15 
98 40 68 219 177 175 38 204 175 192 152 63 175 110 26 76 96 151 92 141 151 124 219 128 133 130 200 177 165 31 116 205 109 83 98 139 72 88 124 223 100 152 127 214 115 68 184 63 74 137 72 203 193 133 159 106 109 104 207 163 37 222 146 185 126 64 178 141 80 56 90 64 148 99 31 127 60 144 217 145 106 175 207 89 210 201 85 199 192 211 78 184 63 134 218 134 166 107 100 203 
141 61 206 110 73 50 58 96 151 58 192 198 45 44 110 134 103 104 211 72 85 96 159 111 177 122 94 95 110 160 187 65 220 86 214 52 70 177 74 212 75 65 208 185 79 176 220 62 114 163 99 93 56 123 135 201 115 209 120 121 191 94 146 189 77 166 95 123 116 39 144 27 60 68 69 30 91 196 68 209 100 42 86 113 102 140 150 76 145 224 220 62 87 218 186 177 21 65 71 187 
77 163 51 137 31 43 86 79 94 87 151 157 36 69 152 191 105 57 147 186 125 134 220 159 56 79 163 187 205 86 109 57 170 183 113 68 87 184 211 128 66 193 204 144 96 106 218 156 104 74 70 135 85 180 203 146 51 199 194 187 160 104 78 231 211 189 172 190 66 100 73 200 204 147 107 49 197 75 24 96 175 91 208 182 197 63 97 91 172 132 67 102 142 82 74 220 147 134 217 147 
124 65 170 183 175 46 68 130 65 157 110 82 40 98 67 140 171 123 128 115 135 124 213 105 180 212 124 94 112 125 160 140 102 211 64 119 220 157 152 166 118 122 29 103 85 251 77 190 178 58 49 83 102 215 58 204 134 172 49 120 172 164 203 129 83 114 92 96 113 62 125 206 184 58 154 158 184 163 61 189 145 128 113 152 55 197 53 73 103 43 146 200 187 67 105 163 188 125 177 174 
45 38 119 85 83 229 69 90 215 74 128 191 166 109 141 134 139 104 153 50 99 128 162 24 50 77 121 193 42 43 241 130 100 187 174 211 187 80 117 41 149 224 219 127 53 79 154 184 109 77 45 90 117 154 75 101 55 51 45 171 206 154 82 124 144 137 180 139 134 145 123 98 109 89 153 145 75 91 226 86 26 80 128 91 131 86 72 94 75 143 136 208 166 56 58 208 196 123 151 241 
179 127 56 55 87 109 58 181 47 61 103 96 177 156 191 200 184 221 199 95 175 125 111 40 77 157 195 64 177 94 88 60 66 123 162 218 123 184 136 194 170 80 228 161 213 145 96 163 203 4 187 177 167 61 180 174 54 147 193 196 30 128 192 235 233 147 68 106 150 133 53 111 131 213 99 34 107 135 61 44 119 104 118 131 91 17 114 97 173 104 177 183 178 71 41 175 225 164 204 104 
