P2
100 100
255
68 26 134 131 168 62 63 113 158 196 32 190 53 145 55 200 76 128 138 172 64 50 125 189 215 185 209 104 166 27 165 112 38 77 136 111 76 163 21 68 121 60 151 85 149 103 27 81 205 114 133 195 192 199 139 102 169 116 215 20 159 161 185 183 154 162 94 111 27 152 171 85 190 224 164 184 100 134 118 193 194 66 81 68 138 61 217 97 90 77 175 133 155 20 186 145 197 26 105 235 
103 54 128 34 164 34 80 95 171 87 177 159 234 115 25 178 159 35 47 96 164 105 185 54 102 102 39 186 24 144 202 177 191 32 108 126 119 133 181 55 40 114 119 108 230 110 54 215 177 81 195 146 201 38 24 139 62 234 68 22 23 69 16 81 137 222 67 198 116 140 175 140 136 61 130 162 124 184 102 88 195 121 224 178 186 48 166 122 87 67 105 127 196 108 41 146 137 52 183 57 
146 139 123 133 88 17 131 133 92 123 185 70 29 104 119 154 46 161 47 73 142 159 58 52 172 130 78 171 47 89 215 182 200 43 200 107 181 42 92 204 68 185 116 9 45 109 80 32 213 167 97 103 201 222 23 170 138 146 33 114 24 153 43 75 94 109 169 204 22 108 163 190 69 17 135 50 157 103 205 106 176 149 181 188 100 186 25 192 73 40 54 101 63 154 77 86 27 111 52 70 
197 63 174 106 232 131 123 160 212 102 103 74 52 68 199 68 46 204 209 62 27 166 190 150 142 165 189 122 119 209 188 172 79 183 195 155 184 146 42 42 61 66 99 101 36 158 170 79 164 204 177 187 93 28 61 230 37 132 42 177 176 188 77 138 89 113 204 159 190 190 66 116 161 131 213 172 102 53 171 96 227 117 108 61 185 171 132 74 176 176 142 66 191 170 109 176 116 22 90 231 
194 44 49 98 210 102 73 145 61 199 145 100 118 137 131 200 108 28 148 41 202 193 64 196 168 140 228 54 75 129 95 25 110 111 172 32 105 80 191 151 225 193 89 170 60 166 52 138 97 219 110 39 123 46 27 108 162 82 140 120 87 147 208 143 203 20 170 74 184 164 181 188 78 134 106 82 133 81 54 143 171 162 167 191 209 98 35 105 102 224 119 62 51 214 136 49 25 35 183 200 
57 102 59 113 37 15 124 75 187 85 152 99 156 166 67 55 38 33 213 70 72 24 45 77 204 146 57 126 32 59 10 45 177 85 200 139 215 175 51 100 207 89 116 158 149 64 172 199 104 181 68 162 129 146 124 58 106 51 120 153 214 138 74 236 56 47 104 148 182 176 160 215 142 168 144 219 73 149 99 47 172 123 230 68 80 61 237 217 93 54 181 59 119 191 101 45 55 179 134 105 
191 49 75 193 84 68 163 106 108 85 107 225 131 40 42 207 38 187 225 48 202 89 102 118 51 170 172 67 113 188 200 144 183 34 141 28 152 159 122 158 86 81 46 91 67 41 227 179 229 93 70 196 26 209 135 27 133 46 207 62 103 94 123 188 88 162 30 111 146 218 77 152 125 63 209 155 69 176 184 69 140 179 196 111 145 78 116 95 149 115 94 214 85 175 34 141 198 196 186 210 
123 77 74 188 69 142 152 164 142 146 57 92 117 61 195 75 75 22 107 209 80 37 235 106 37 147 154 178 69 128 118 64 67 144 170 150 68 52 150 156 66 103 82 106 75 73 105 69 187 109 187 200 146 193 134 47 91 61 65 154 150 29 112 168 123 141 46 220 56 71 153 179 171 109 55 113 89 134 136 74 228 102 146 127 31 158 230 43 200 148 169 217 87 135 102 191 61 131 102 109 
106 119 76 60 54 42 118 226 43 117 168 192 124 236 51 208 187 111 36 95 140 77 103 170 80 166 190 149 80 94 182 195 42 227 106 93 226 37 45 127 40 174 92 112 183 209 104 89 123 155 159 116 195 148 38 208 144 53 148 116 161 115 70 129 88 62 126 180 18 214 117 175 148 180 196 42 132 66 77 202 109 92 89 177 95 182 201 193 111 43 121 89 58 101 99 202 148 18 91 58 
75 109 117 59 69 138 109 195 235 215 163 159 200 90 38 196 40 82 176 65 156 155 40 169 132 19 44 155 76 201 87 116 129 46 53 77 10 11 231 155 115 64 146 178 79 82 142 220 77 53 199 137 68 160 166 144 54 166 193 124 103 51 172 60 192 50 70 168 186 48 135 130 95 136 145 99 77 141 34 204 94 139 108 154 186 130 89 67 154 87 141 92 56 136 189 193 132 105 107 112 
66 78 126 43 65 130 74 34 22 136 94 199 59 157 202 82 184 34 171 78 108 52 128 40 162 114 139 171 54 125 129 127 60 108 171 90 159 186 91 52 129 65 77 86 86 202 231 202 165 111 218 149 78 75 147 98 187 70 25 17 208 61 213 59 83 196 53 61 96 149 112 126 189 92 113 158 181 120 119 160 109 183 64 168 76 150 184 67 19 196 207 114 230 216 73 148 90 17 63 119 
186 20 81 190 182 127 243 45 208 196 219 49 220 156 175 114 106 153 86 135 84 234 72 212 86 103 189 171 155 143 214 167 74 109 74 110 183 147 105 168 121 127 191 170 139 208 107 150 133 143 147 194 179 171 127 155 102 184 203 98 89 154 121 168 220 67 109 67 43 166 60 105 63 101 190 230 216 162 174 82 69 135 161 118 174 179 70 160 173 50 102 129 201 205 124 67 226 134 85 208 
86 138 151 122 187 184 198 159 207 179 140 136 81 100 215 139 31 75 70 94 175 34 101 200 232 169 155 160 193 116 190 80 194 28 144 208 225 86 174 116 124 50 65 113 224 214 207 173 184 220 15 193 52 134 179 102 164 177 206 94 156 57 114 102 171 157 70 59 161 123 95 119 46 36 100 130 158 76 20 16 154 44 168 190 57 134 146 170 131 75 63 186 87 70 31 177 61 128 150 109 
143 198 205 123 68 155 51 188 73 133 85 143 24 49 215 140 227 52 102 150 55 153 148 198 106 161 193 111 150 104 176 139 154 171 143 210 47 129 132 97 114 193 109 183 151 114 106 37 208 49 77 60 28 156 108 82 15 152 117 133 18 121 78 150 202 161 170 181 163 81 215 104 37 88 158 92 92 98 122 198 122 47 150 209 101 66 99 206 147 171 197 31 71 95 113 141 73 82 222 172 
138 171 127 156 196 61 116 139 76 77 119 52 124 126 28 154 221 74 147 131 119 63 65 138 64 201 188 212 58 151 135 79 84 55 107 96 226 151 126 98 165 63 133 142 95 133 38 125 190 140 62 220 129 172 92 93 64 80 125 201 89 172 230 208 133 131 155 74 205 98 174 34 187 145 96 142 55 112 235 242 49 119 73 157 90 88 51 182 160 142 179 171 102 66 86 86 200 144 206 103 
64 149 208 211 27 61 95 125 136 157 75 217 78 94 83 57 103 72 130 195 137 120 92 43 133 99 180 113 128 167 199 83 192 166 72 189 78 59 164 195 159 184 147 205 120 178 184 131 189 109 62 159 88 123 34 204 55 116 175 99 17 118 156 112 140 83 86 213 204 28 84 128 143 99 133 45 234 80 141 179 158 79 113 88 93 105 37 66 242 175 127 71 188 40 97 101 55 138 85 111 
53 138 200 199 95 91 62 115 197 222 153 228 133 201 31 162 85 131 152 129 165 150 112 116 166 122 204 144 192 85 92 24 164 23 156 92 200 61 27 40 82 70 115 28 203 56 49 122 77 210 33 228 177 141 186 131 208 87 71 177 121 191 96 164 86 61 65 88 156 133 52 84 100 240 114 86 97 74 196 89 147 138 50 158 170 139 82 83 177 155 49 62 83 189 156 237 99 163 234 119 
45 199 29 72 101 124 207 199 101 162 174 70 17 176 136 116 94 21 85 50 67 206 80 66 41 46 72 155 58 143 88 80 86 35 212 211 123 45 169 84 141 164 204 105 67 160 160 118 25 102 12 155 148 199 156 152 95 194 9 200 179 36 122 182 110 176 181 77 86 176 29 179 20 144 49 117 37 195 67 191 199 184 195 211 156 149 119 23 47 154 188 30 237 215 47 133 166 73 26 191 
181 208 135 62 158 111 116 193 201 190 155 147 80 221 15 81 57 159 30 79 54 30 119 81 172 142 95 191 156 107 183 66 170 16 68 167 46 77 99 67 105 219 101 86 138 210 135 197 145 209 197 86 113 28 92 203 69 101 169 118 22 134 46 125 175 130 85 154 114 77 145 54 162 122 94 122 50 230 208 160 161 149 32 46 134 138 100 149 178 136 104 44 206 137 155 173 55 108 173 18 
81 88 155 43 117 159 34 94 199 43 49 182 107 99 81 121 229 70 133 138 129 185 177 164 59 224 59 70 110 136 143 165 61 108 61 133 62 80 114 42 200 160 190 208 86 102 107 99 219 186 209 121 205 122 58 160 116 194 24 18 194 232 127 138 169 113 179 193 238 190 134 135 32 195 128 67 42 159 141 179 156 175 72 57 156 98 97 145 122 60 80 224 141 48 71 47 70 89 113 109 
192 117 116 176 88 169 76 88 203 201 62 32 181 102 166 149 53 126 92 182 34 178 182 76 51 191 212 71 134 101 73 117 160 155 100 157 73 117 196 105 146 58 100 224 81 88 200 157 30 94 86 102 182 209 214 110 138 204 122 110 17 38 147 128 57 210 202 86 98 175 127 90 200 74 51 223 167 44 208 84 102 181 38 109 88 88 125 75 151 200 56 56 93 183 90 141 59 184 33 53 
119 168 178 222 174 161 94 46 210 53 110 114 180 142 69 166 82 125 68 215 71 207 231 27 90 133 170 98 180 157 51 109 153 150 123 187 29 114 137 87 198 189 81 172 165 86 194 193 206 71 185 43 143 118 157 144 134 72 199 127 208 97 115 91 68 111 104 170 169 226 40 210 155 115 153 166 197 160 154 163 129 151 137 146 43 197 84 160 151 70 143 115 19 146 66 148 123 193 53 142 
135 194 135 82 85 148 161 214 117 234 219 131 146 240 66 78 178 229 211 194 148 90 58 125 213 228 206 128 29 118 85 185 198 122 47 197 92 62 192 155 161 92 151 142 61 46 19 207 79 107 143 42 207 48 104 48 213 178 105 148 108 197 57 91 216 19 81 166 34 58 129 32 177 165 93 62 39 159 68 81 137 88 65 218 107 28 175 104 94 64 116 170 241 49 244 108 48 95 22 201 
118 199 73 91 217 98 112 134 62 216 102 95 54 66 16 54 72 149 65 177 103 141 65 77 49 70 189 76 172 181 97 165 83 53 72 122 164 148 173 191 146 122 189 69 64 141 79 173 195 160 52 149 108 191 69 173 56 82 126 231 205 111 112 53 220 62 142 76 132 110 56 212 71 131 85 159 69 63 57 79 240 199 166 114 222 60 181 178 91 195 215 79 139 179 49 142 179 161 183 41 
90 128 81 128 93 94 192 221 74 148 99 206 28 124 47 93 175 95 194 138 218 187 73 65 190 92 174 50 124 100 48 208 172 189 202 206 152 134 37 197 94 98 50 119 23 67 73 84 151 83 159 156 149 174 204 50 180 40 78 203 77 151 52 123 105 130 65 201 53 78 90 208 107 242 193 164 139 107 124 71 160 177 167 245 185 104 187 72 74 131 110 146 117 47 19 41 66 77 30 45 
91 52 233 113 193 145 213 70 158 199 71 99 173 68 188 73 207 121 59 104 142 122 33 165 136 86 99 166 190 223 158 186 217 165 97 64 140 157 70 200 64 36 122 215 163 132 69 91 91 179 99 22 218 160 127 96 83 187 211 156 139 146 200 80 65 146 113 137 122 34 142 224 59 36 55 17 45 98 30 160 42 97 55 43 131 195 65 127 155 147 92 164 153 113 205 82 207 140 27 154 
87 97 126 76 122 237 82 149 34 231 51 54 27 130 132 218 93 206 94 43 91 117 138 100 96 48 121 115 112 145 184 51 200 117 204 48 72 95 159 138 161 52 177 138 114 177 59 124 230 140 104 137 132 210 59 164 99 150 114 200 103 117 118 130 127 172 158 88 160 135 165 54 162 122 42 132 25 155 82 154 152 99 97 84 117 198 139 215 32 33 123 136 179 173 97 153 121 165 140 52 
39 205 230 160 117 155 102 168 85 94 198 100 199 190 107 75 225 58 69 67 66 186 207 88 81 122 59 183 167 212 70 56 122 71 167 216 116 214 223 77 111 217 205 183 192 236 50 104 167 115 223 182 120 199 161 66 154 203 56 79 74 53 127 120 194 163 196 19 132 68 42 92 180 20 93 176 73 163 183 132 218 190 37 31 131 80 73 20 186 143 180 140 101 93 201 98 131 66 68 161 
119 155 194 211 150 196 187 73 152 168 87 114 120 186 62 210 145 134 157 104 88 113 142 114 198 63 101 181 87 75 179 199 167 176 224 203 95 75 16 168 121 72 185 67 183 112 166 67 63 164 118 105 106 171 170 32 129 163 163 152 159 59 112 183 128 156 68 127 66 199 218 175 160 176 170 59 74 76 170 187 145 115 171 158 140 167 180 78 30 183 85 177 207 182 120 72 119 119 150 159 
159 139 204 76 108 177 160 194 92 152 74 58 92 71 76 182 71 105 208 130 238 157 54 195 84 106 165 131 50 53 105 117 71 127 114 87 70 146 57 204 98 94 49 151 197 127 128 89 64 27 182 128 146 93 94 123 161 165 83 111 76 128 36 214 17 86 124 98 125 50 164 149 206 42 103 144 171 59 121 73 56 84 157 30 137 75 69 241 63 126 147 30 33 188 157 53 66 169 183 147 
41 161 51 101 192 69 201 95 108 197 184 172 12 133 210 63 33 86 125 187 172 96 178 49 162 97 157 176 51 114 87 189 19 148 215 145 166 114 136 101 142 151 13 95 81 63 152 64 70 134 123 191 183 232 95 160 224 98 40 58 58 111 172 78 200 77 100 157 47 193 56 101 159 72 224 76 186 141 105 133 49 139 98 105 145 93 39 217 160 163 80 117 192 140 14 120 52 145 142 106 
187 96 136 192 127 119 103 56 81 174 178 82 195 148 95 112 46 218 229 26 15 206 69 226 75 158 115 45 160 73 171 70 200 39 189 97 115 64 81 106 91 157 231 165 71 158 93 77 130 187 77 30 53 3 111 186 116 63 105 149 137 54 97 54 189 65 124 154 161 82 118 57 212 98 200 133 26 168 221 141 90 57 74 133 207 42 118 223 82 55 217 124 207 48 212 81 87 206 180 49 
71 153 181 103 136 51 110 88 45 144 122 85 75 197 213 198 144 138 72 163 155 197 108 131 138 200 157 211 44 191 35 206 83 120 156 56 152 81 160 104 98 241 129 103 41 179 137 71 148 183 23 105 125 92 186 161 73 194 112 114 208 209 104 124 33 182 66 27 104 81 196 127 195 218 141 238 146 144 144 212 78 12 86 190 49 81 119 110 94 186 93 152 125 135 108 62 121 152 110 214 
165 40 124 200 212 109 47 115 89 116 155 139 215 50 214 172 109 223 90 27 132 166 187 54 187 71 210 115 42 178 103 127 65 156 53 181 87 81 64 199 90 146 91 45 61 57 82 170 160 70 122 61 105 122 174 237 141 107 191 58 184 62 138 169 137 145 85 95 61 124 194 22 34 220 196 77 126 77 224 71 127 146 146 178 114 168 172 175 232 49 155 182 76 185 63 202 147 4 78 142 
159 132 185 205 157 102 90 145 197 203 145 34 111 67 61 212 171 127 157 66 170 191 95 186 185 114 142 59 65 208 164 165 155 184 46 148 192 144 42 203 130 83 56 98 173 69 91 151 193 182 122 24 87 195 82 83 165 89 165 101 222 209 177 80 70 115 113 123 66 114 96 112 97 69 93 170 152 89 71 192 196 199 97 116 57 221 63 73 97 105 171 74 131 67 85 107 104 205 118 195 
47 84 139 114 240 100 124 184 155 210 243 126 190 188 102 99 127 221 71 156 106 124 22 73 183 234 111 161 59 121 219 97 133 80 147 202 195 168 198 170 179 141 96 101 126 84 111 109 137 98 32 159 141 205 58 162 158 33 213 117 155 112 40 153 169 113 75 168 135 40 94 76 111 147 160 81 32 192 218 170 215 200 146 94 183 139 73 164 70 108 155 33 223 191 159 107 51 198 28 147 
217 129 189 185 13 122 217 104 56 93 129 184 138 154 133 183 211 25 116 238 90 73 80 107 64 197 155 202 138 48 136 199 231 104 129 64 73 163 73 208 51 76 209 162 158 81 200 59 145 41 51 44 178 136 151 135 99 133 195 149 227 135 47 84 162 156 42 74 78 146 76 78 147 112 33 158 79 202 54 147 112 41 160 108 159 80 162 158 122 168 107 67 193 139 94 208 130 71 31 84 
141 83 77 180 198 79 120 55 181 150 89 135 26 184 177 177 120 97 195 87 163 92 98 204 167 79 69 132 84 121 211 212 145 238 143 203 90 36 94 130 147 162 124 116 157 92 69 174 19 69 34 203 126 204 116 63 146 70 62 180 203 217 43 175 193 65 114 57 93 196 161 108 28 105 124 165 146 177 232 140 60 107 29 110 203 106 125 203 232 28 62 88 175 231 114 93 107 180 133 134 
107 109 99 144 193 158 158 82 118 161 144 156 182 208 85 52 128 50 92 185 98 123 97 77 59 107 119 173 193 35 150 149 163 216 150 41 51 111 169 178 173 91 162 80 55 145 176 160 66 72 77 145 206 163 167 117 151 217 129 137 182 129 80 204 197 79 17 215 78 89 41 166 182 216 209 91 63 151 40 87 165 57 101 85 75 95 108 208 116 98 152 161 46 220 139 56 175 99 210 43 
49 126 102 99 61 181 74 133 98 147 163 94 17 60 52 70 172 156 219 155 147 143 92 124 134 62 173 45 107 130 169 84 206 61 169 222 98 108 72 142 183 199 42 50 46 112 159 84 106 62 195 128 53 27 192 152 30 108 188 9 157 55 64 108 49 132 149 50 31 33 198 154 115 168 128 61 178 80 190 25 158 215 114 155 143 160 140 97 48 75 216 170 97 171 160 120 88 181 145 120 
217 53 178 199 29 109 75 72 91 191 201 89 156 128 133 198 181 187 19 89 201 115 144 163 169 201 55 86 54 195 120 85 63 192 180 64 132 80 118 69 33 164 137 203 128 70 216 223 178 91 221 66 191 18 159 204 131 87 115 124 143 128 74 112 184 188 51 126 93 138 59 207 101 138 42 166 226 113 187 178 84 107 146 87 223 162 147 44 130 195 133 148 158 165 203 86 209 157 125 181 
111 35 191 122 161 163 31 59 181 146 215 241 46 54 196 86 160 190 34 205 121 149 49 28 62 211 120 47 119 52 156 154 179 202 56 123 159 189 173 108 35 191 77 165 76 129 173 81 89 234 159 81 95 199 136 146 140 141 155 198 107 63 62 94 156 202 113 183 66 29 163 207 61 148 193 148 231 102 17 50 147 100 188 166 128 34 83 70 143 40 89 102 159 162 84 95 125 181 228 122 
193 174 107 71 61 189 163 136 242 226 70 127 205 48 153 127 44 95 121 132 239 186 27 184 219 138 99 173 32 192 202 135 177 64 46 63 75 29 78 150 98 120 79 87 88 87 61 201 43 190 146 181 183 153 23 51 43 80 37 230 96 190 135 48 190 75 195 77 155 182 176 157 139 167 145 135 123 43 72 167 62 159 203 159 77 71 87 169 122 38 195 65 146 199 73 109 130 95 105 83 
41 101 138 89 247 188 89 158 144 106 57 40 113 156 107 92 212 58 78 183 155 121 138 60 82 197 180 205 172 210 230 92 194 140 44 181 43 124 123 143 69 67 133 77 107 57 83 135 57 169 144 68 204 225 68 148 186 138 75 40 111 97 159 105 189 105 216 107 218 118 169 78 127 86 201 165 136 114 26 103 33 178 47 183 155 191 220 132 160 169 125 42 109 170 84 113 132 106 89 226 
220 76 154 172 59 54 132 90 152 70 173 199 133 200 117 196 96 117 155 51 184 161 112 53 89 81 79 113 76 67 187 87 48 199 186 92 98 23 96 161 137 173 49 86 181 77 209 179 88 83 54 201 99 183 138 60 61 86 196 47 146 61 54 132 237 128 115 98 114 188 171 66 74 193 36 197 63 77 150 156 112 72 142 129 40 123 218 186 94 19 189 211 195 179 153 70 106 219 62 22 
114 53 38 63 64 140 18 173 187 200 152 68 106 141 72 226 46 111 185 118 209 147 89 80 82 86 45 32 158 185 207 97 166 137 178 229 139 156 145 75 85 207 133 42 226 100 223 140 185 185 127 124 56 44 112 62 92 174 185 65 188 208 120 71 32 137 173 157 97 213 170 208 240 147 60 148 198 103 112 22 159 90 181 183 147 199 84 144 12 52 120 199 96 190 142 137 187 149 153 112 
80 182 146 131 78 182 138 95 180 79 165 136 60 113 163 166 148 142 222 164 103 73 197 158 140 73 213 91 182 159 129 188 216 163 139 36 190 140 104 149 199 30 90 89 182 201 184 41 86 69 201 32 56 125 230 102 108 60 91 181 71 187 109 199 139 64 89 103 45 141 122 194 187 229 115 175 82 182 124 172 33 176 61 90 237 106 204 97 159 107 164 51 55 89 79 70 155 149 120 103 
7 151 34 172 103 123 120 148 143 215 152 230 177 208 160 197 68 95 212 65 194 131 71 140 126 130 89 175 139 60 187 216 196 156 69 148 55 23 115 141 179 216 61 85 162 163 201 41 101 87 189 112 55 155 210 149 59 64 140 138 88 180 77 155 115 122 83 115 65 91 111 89 42 197 186 29 228 109 180 121 169 191 46 192 166 167 98 184 179 184 32 225 67 27 126 149 146 217 182 177 
154 138 82 205 196 44 128 18 118 163 47 182 141 135 228 107 124 87 77 59 107 163 187 133 105 173 137 191 193 180 175 70 163 183 65 34 223 143 108 167 205 160 35 173 93 223 99 84 99 49 190 139 128 60 95 145 80 142 187 30 115 139 83 142 163 177 96 75 72 181 98 66 193 146 61 190 78 140 83 154 8 147 180 128 145 165 212 178 190 118 104 188 115 135 128 44 200 194 126 223 
114 61 28 87 138 44 190 109 173 42 205 94 200 43 181 137 193 173 118 66 141 42 64 81 191 171 194 168 163 171 139 137 57 170 89 148 171 149 141 122 205 159 168 224 102 84 84 37 94 107 136 192 163 110 99 58 44 173 143 223 202 120 98 178 104 157 193 203 153 55 140 89 185 74 131 29 229 29 181 120 79 209 130 181 180 132 49 196 116 123 138 40 132 59 122 97 194 170 128 68 
104 107 160 141 54 53 50 51 108 104 187 119 31 127 90 181 196 40 166 143 102 59 179 20 157 171 169 203 23 80 109 192 119 210 150 94 161 140 168 29 196 230 185 166 225 106 154 165 133 93 154 64 80 149 161 70 93 82 59 32 37 83 104 56 128 63 141 41 85 164 82 167 105 204 76 44 166 75 147 215 105 55 217 22 137 139 182 171 70 73 128 148 59 166 211 108 182 133 172 170 
152 187 107 97 202 96 139 51 130 120 111 170 126 95 164 130 204 171 116 84 178 20 164 146 235 160 233 106 106 50 99 200 82 49 215 222 135 183 10 61 201 53 104 71 126 64 82 80 172 99 186 82 182 148 144 139 197 201 101 203 145 73 80 86 71 227 96 207 85 107 142 97 36 179 204 185 60 218 221 209 201 206 114 108 168 93 51 159 107 100 189 52 100 161 118 111 230 151 154 70 
94 6 67 212 52 178 66 174 34 151 158 177 82 121 104 19 181 164 72 122 126 157 75 191 86 48 172 146 102 125 208 211 42 143 98 195 105 78 61 174 47 235 106 88 33 99 156 42 159 182 112 115 38 110 207 38 212 55 145 25 229 233 56 159 57 69 127 82 108 169 195 48 108 85 123 157 115 21 67 123 124 122 43 219 75 102 230 196 67 148 135 59 40 147 170 120 202 27 206 192 
104 209 130 118 38 43 227 91 67 25 96 153 42 94 212 177 195 159 154 54 124 208 99 179 166 130 171 147 226 219 196 159 185 87 175 163 160 116 191 175 187 91 211 175 170 143 233 46 136 194 75 109 129 206 234 151 77 75 36 199 173 198 67 175 218 207 96 171 232 32 228 215 185 145 59 112 211 139 119 159 91 52 186 205 192 80 77 104 158 168 131 73 133 147 14 138 90 145 102 153 
79 215 124 48 61 168 237 115 115 85 107 166 185 52 127 60 146 174 56 214 111 179 171 212 59 200 49 144 8 38 96 184 187 133 63 72 137 73 224 101 95 182 101 101 90 165 192 30 96 145 28 94 55 222 29 216 102 58 62 102 77 56 81 141 117 33 46 203 180 127 201 139 118 57 164 45 111 116 183 126 183 127 126 148 160 171 198 148 190 93 116 36 170 112 150 56 206 98 161 12 
117 207 33 69 205 188 202 124 25 155 96 51 163 74 89 196 175 119 131 31 74 128 22 186 188 236 206 39 236 164 147 105 66 56 154 186 68 70 82 136 209 51 57 215 221 46 71 74 45 161 163 121 115 57 198 72 123 96 180 183 144 162 53 207 78 33 142 199 96 60 189 64 154 174 196 191 94 75 78 88 109 65 214 110 155 151 213 199 212 16 109 228 146 184 63 109 57 75 130 87 
129 139 179 126 85 181 209 52 120 155 59 143 202 182 78 137 202 106 163 101 203 162 120 80 159 190 180 196 183 60 153 142 6 139 123 182 67 162 111 204 106 166 159 153 119 184 155 131 162 115 63 136 67 167 79 61 176 186 54 76 143 72 179 66 75 160 46 70 120 118 160 113 58 162 71 226 128 133 141 167 171 107 33 105 48 231 172 30 195 39 190 89 52 101 140 178 58 47 129 111 
55 188 187 75 93 163 98 67 129 33 203 104 196 92 103 178 118 38 193 79 113 169 160 97 108 107 188 109 40 187 179 38 72 130 148 100 215 98 177 77 129 167 116 128 141 41 195 139 63 187 20 84 141 45 83 228 107 82 180 29 52 129 202 172 195 166 33 157 60 132 72 47 90 160 199 75 148 54 237 93 176 93 190 76 87 56 104 155 172 175 68 205 105 94 225 208 129 27 97 193 
160 42 111 116 96 68 178 170 168 142 199 72 148 171 59 197 120 191 48 62 205 46 58 135 131 146 143 48 214 208 176 39 129 148 216 152 193 37 199 65 59 223 100 194 83 106 189 98 78 122 121 220 157 164 199 189 143 205 50 41 226 119 76 194 195 140 85 205 128 73 121 190 165 75 82 188 184 121 78 196 206 122 126 146 47 211 199 94 148 123 46 126 174 79 163 149 75 116 233 120 
74 131 116 98 77 130 97 74 80 197 72 192 61 107 100 92 112 131 154 191 81 122 219 204 166 87 159 77 151 125 73 208 190 203 85 155 121 207 193 192 67 88 92 164 22 36 95 36 214 130 75 76 165 130 34 118 109 145 51 64 112 71 159 80 134 216 69 12 190 169 41 160 25 31 123 20 192 51 154 164 96 211 86 69 78 107 221 131 212 46 183 181 127 21 223 112 81 78 77 86 
119 159 176 93 98 65 66 62 201 57 183 46 39 58 164 63 65 220 213 154 173 22 101 163 146 175 68 110 171 114 134 87 187 101 66 52 169 80 16 133 71 50 205 228 228 93 122 87 122 157 72 194 112 187 168 109 206 200 144 148 186 214 194 157 75 192 40 148 64 101 95 82 125 130 146 141 197 67 66 53 49 41 57 79 215 78 159 178 43 169 51 132 112 152 193 83 57 122 43 136 
58 56 45 46 143 67 61 193 130 197 196 131 188 206 147 199 175 134 51 168 57 149 122 174 103 89 110 128 111 146 219 123 80 59 88 73 182 134 57 43 96 223 55 146 69 103 134 211 67 185 122 183 160 168 109 96 164 151 167 117 165 89 87 138 95 91 91 108 107 234 191 228 88 209 24 133 77 213 129 165 157 71 135 68 46 200 130 102 179 97 134 92 136 80 163 182 124 56 41 117 
126 215 89 151 83 137 144 55 210 95 218 163 151 151 104 148 243 159 91 119 77 134 138 33 76 148 141 115 70 193 87 26 131 122 49 43 131 138 246 167 9 90 61 70 102 158 164 30 84 137 182 169 148 171 145 202 166 130 63 102 141 25 59 100 137 183 83 110 111 144 146 201 215 175 36 118 148 84 144 151 80 85 104 159 113 122 32 153 147 204 66 194 129 92 124 140 198 220 10 131 
189 162 81 66 174 91 73 54 214 175 104 119 179 88 65 60 131 218 81 158 153 103 75 164 208 89 122 15 124 96 92 149 75 75 91 195 181 178 91 146 195 141 108 46 91 64 89 89 131 160 57 170 127 234 129 172 140 73 73 194 205 96 159 90 63 142 192 72 43 197 165 151 35 170 110 127 127 216 90 63 68 69 210 110 87 74 112 65 92 187 133 163 53 71 215 63 50 166 163 189 
55 189 147 119 111 160 164 184 112 187 73 171 198 221 177 106 90 117 188 204 93 215 44 236 50 195 115 208 112 105 132 41 137 60 60 30 133 46 52 67 150 56 27 80 59 59 139 32 94 144 93 176 78 134 114 109 166 31 88 234 136 98 148 158 155 90 49 178 141 74 138 108 178 159 164 93 61 124 226 21 75 156 75 128 74 57 98 87 210 131 55 32 186 163 134 18 121 81 169 193 
56 204 123 88 93 83 232 16 142 45 71 85 59 207 162 110 184 162 128 171 91 128 62 182 94 61 174 222 158 120 200 227 48 125 79 129 75 172 105 40 178 100 92 120 134 135 47 175 86 201 124 169 79 22 138 109 167 79 116 193 59 110 233 32 212 223 131 86 155 96 133 157 197 144 93 157 74 231 123 118 89 115 54 207 72 49 175 58 146 193 205 58 88 43 128 209 180 179 175 195 
68 129 228 170 109 170 184 90 124 103 29 211 51 224 165 141 167 42 151 72 115 124 99 177 140 212 12 179 64 139 121 120 180 100 166 172 184 106 148 75 44 155 79 96 97 67 171 31 215 152 115 109 72 202 99 60 221 120 183 177 117 92 238 73 63 181 193 187 186 103 130 128 125 218 89 93 128 145 200 242 91 39 68 144 169 95 195 248 162 168 108 38 193 158 60 87 47 55 95 138 
228 138 130 168 50 189 118 54 53 18 204 172 80 119 181 144 184 171 96 63 210 37 185 56 72 191 218 158 157 191 88 196 58 193 176 68 91 49 30 157 148 210 212 210 193 48 205 82 113 90 188 236 128 221 189 89 84 108 180 75 62 227 188 91 132 185 115 173 104 43 73 104 71 201 177 116 78 197 124 72 189 80 123 172 18 169 170 33 99 224 134 62 54 67 88 53 129 103 223 155 
224 123 51 169 181 85 156 96 112 184 64 215 131 121 21 43 77 194 185 144 131 88 56 219 79 59 182 145 135 173 75 211 66 190 168 107 122 23 171 63 102 144 176 77 213 114 160 105 185 226 7 192 11 154 72 122 122 110 117 167 141 43 192 154 143 59 70 197 124 56 185 140 192 79 173 66 206 132 78 150 72 187 113 106 145 44 203 209 130 51 129 192 220 205 145 98 215 80 159 161 
180 188 76 179 131 177 176 72 37 82 155 55 212 98 223 110 62 192 180 148 119 64 96 139 164 79 181 56 54 110 61 91 212 60 248 68 78 53 181 129 72 79 174 158 176 58 175 77 57 56 108 133 142 165 15 243 138 109 68 201 52 178 79 203 106 38 90 145 119 153 145 198 61 164 218 65 80 166 200 98 85 83 60 86 216 177 173 145 216 87 183 167 60 92 151 152 163 125 135 57 
101 182 237 76 150 197 197 100 92 188 185 84 177 56 107 151 149 184 92 44 59 10 103 91 124 67 197 129 46 50 96 126 147 123 139 146 13 83 213 132 228 70 135 144 143 95 197 109 164 137 175 62 98 129 173 196 202 166 189 152 172 23 34 130 202 119 132 161 80 142 117 203 154 161 141 165 108 158 142 55 95 52 93 128 74 75 28 54 211 110 85 158 216 175 108 172 169 32 149 44 
94 88 200 160 184 139 103 163 221 137 59 193 189 45 42 116 81 133 101 215 228 211 195 195 50 176 114 172 183 182 25 65 113 89 161 8 217 39 105 102 67 68 46 129 174 26 86 138 174 180 98 133 188 170 61 181 173 157 197 50 65 122 103 166 104 112 178 128 237 104 158 44 132 215 54 196 78 228 63 26 112 59 182 142 118 86 156 166 70 29 55 242 86 28 135 201 163 56 77 115 
163 128 200 156 171 138 126 220 108 124 140 36 129 63 192 218 44 165 117 104 113 137 23 194 152 162 66 47 92 141 175 91 159 153 68 15 142 120 175 116 166 192 104 173 141 98 73 84 174 96 167 60 65 34 77 106 153 58 65 157 75 68 228 189 174 62 178 185 40 151 227 48 174 23 95 73 184 216 101 41 80 135 188 158 163 184 130 85 149 65 157 199 211 124 108 188 217 192 198 123 
65 69 118 169 220 149 89 121 67 155 217 168 39 163 140 221 223 223 192 183 61 121 190 97 97 159 168 104 50 195 17 65 136 90 183 179 172 181 80 120 76 103 126 28 95 198 94 68 234 154 177 94 130 121 217 202 183 138 144 171 143 130 97 66 153 90 14 204 70 205 158 55 84 81 60 51 151 91 180 203 226 146 151 137 144 52 179 203 90 183 200 244 179 51 67 211 86 30 101 119 
211 215 93 162 102 160 58 126 62 179 96 147 45 215 75 153 109 193 162 100 210 241 138 159 78 178 55 169 197 68 133 45 169 123 46 223 130 218 108 131 93 205 163 45 182 206 116 127 32 70 88 75 114 95 118 122 123 116 58 102 236 139 79 124 61 73 199 119 82 90 161 137 205 36 90 198 96 112 94 89 70 54 206 93 205 126 189 153 216 93 204 41 104 35 140 198 63 46 139 125 
132 86 154 42 168 216 150 42 193 85 66 139 128 148 24 165 130 66 165 174 106 232 199 140 80 27 54 189 104 150 80 159 23 152 63 148 101 42 116 198 77 93 168 207 99 22 145 88 147 84 91 143 71 86 140 87 142 63 94 129 22 41 213 51 110 172 83 174 82 64 141 52 159 116 66 68 72 115 90 209 147 98 98 209 100 54 62 170 64 150 161 53 188 193 35 200 221 98 148 171 
127 172 142 61 195 84 170 155 180 179 87 129 153 43 157 198 149 100 168 211 202 105 238 175 57 159 56 118 127 234 170 59 93 192 160 161 152 185 58 68 155 192 164 144 80 39 117 162 123 112 56 57 84 155 162 43 195 69 203 183 189 116 181 235 96 129 106 135 44 142 41 225 109 164 41 191 144 99 151 60 56 187 207 19 76 191 114 27 239 87 176 46 162 193 166 46 213 184 28 159 
122 170 214 153 199 179 123 80 80 227 150 158 206 48 54 190 56 175 104 81 213 83 117 150 201 119 42 180 219 52 59 184 161 167 129 181 113 167 205 146 107 217 204 113 147 30 97 181 198 68 47 211 46 119 100 82 194 161 29 57 190 50 98 166 158 128 146 118 73 171 204 204 116 176 42 103 224 223 202 122 213 167 112 68 149 189 163 110 130 147 158 90 209 15 181 202 176 43 136 51 
69 168 188 70 141 220 70 101 133 108 147 69 185 61 77 163 103 25 49 178 148 157 15 121 142 209 91 173 70 210 102 221 143 138 156 75 86 63 128 176 146 95 169 211 164 80 26 132 104 85 50 117 83 98 135 107 174 90 145 37 38 74 162 86 215 145 120 60 121 125 21 151 136 68 145 96 91 95 163 35 167 74 153 122 43 71 73 62 52 165 109 158 117 180 150 209 42 63 161 193 
120 199 39 198 190 178 118 92 81 193 29 86 74 95 140 66 161 160 149 134 83 123 127 238 166 71 49 51 204 69 107 198 89 59 165 125 130 87 243 167 205 27 83 73 92 165 131 47 199 203 197 103 191 36 144 51 64 161 119 84 58 205 173 166 186 212 166 106 50 60 150 108 35 133 159 194 114 186 221 177 139 198 189 76 166 162 93 58 93 35 19 194 147 60 107 130 135 112 114 153 
50 26 96 197 183 82 176 119 58 51 85 214 58 65 102 118 55 140 189 135 137 124 69 121 58 54 156 212 183 216 95 216 34 117 132 156 125 162 25 150 219 43 58 173 27 107 136 177 99 72 22 80 119 173 88 195 74 60 128 135 230 91 47 129 28 136 124 152 208 57 85 176 181 82 181 221 44 94 117 78 175 177 40 87 234 61 96 180 169 168 201 220 84 199 188 68 169 26 149 134 
128 169 180 223 124 166 39 189 120 120 30 145 201 109 75 162 60 55 153 158 197 86 100 46 51 125 44 179 82 67 174 123 153 219 115 121 186 104 161 195 132 174 131 56 202 138 115 184 169 83 58 113 78 121 192 26 222 87 50 175 150 83 74 191 166 51 149 82 25 91 70 219 187 152 234 141 196 124 130 147 85 56 167 212 111 181 167 166 38 161 56 108 65 191 143 125 189 144 135 43 
197 144 179 70 68 110 203 159 187 79 154 193 129 78 49 136 93 136 72 131 4 152 57 159 31 120 193 42 73 51 237 133 82 32 67 155 127 134 108 64 124 176 27 57 76 164 64 91 195 189 154 200 112 160 157 89 95 148 146 243 82 86 32 141 198 81 218 73 63 87 101 65 87 122 184 121 97 216 176 145 160 59 121 158 125 118 105 184 118 124 191 192 40 115 202 188 184 57 223 161 
117 20 206 72 131 108 175 211 132 74 64 187 49 97 172 77 96 186 118 83 175 67 184 101 54 128 63 169 152 130 85 210 207 163 42 102 86 69 111 46 97 31 64 127 189 46 97 101 65 186 148 189 60 46 69 201 129 116 107 57 207 139 178 117 139 130 109 84 158 85 202 167 36 87 216 52 85 125 65 68 87 118 207 161 143 130 95 182 117 153 83 67 176 123 130 98 144 148 166 156 
53 172 22 61 100 110 111 32 33 53 127 175 142 148 53 76 231 84 205 60 47 159 90 87 71 101 43 63 124 63 217 134 48 223 212 236 147 148 64 154 103 60 199 161 58 171 175 195 76 192 142 137 162 169 39 205 207 154 101 116 100 156 175 184 99 71 183 178 173 222 123 51 173 163 224 60 86 187 84 64 157 72 101 78 122 82 149 181 137 123 102 95 158 218 181 172 142 92 115 137 
133 50 165 212 66 108 194 98 78 171 154 36 95 95 55 212 98 99 138 136 90 171 112 69 210 123 158 117 142 135 196 111 236 137 150 199 95 59 70 159 105 142 44 191 116 20 155 183 112 131 180 149 215 128 183 209 133 168 196 168 105 87 176 164 172 185 76 99 152 193 140 78 111 156 233 170 166 235 179 204 62 79 76 196 80 182 167 70 192 124 96 184 214 48 89 181 122 51 85 81 
90 197 166 209 87 175 92 46 180 83 115 200 160 125 77 43 93 145 38 133 165 148 129 91 122 180 167 234 129 92 139 169 88 139 79 153 50 91 132 209 169 58 184 99 128 159 23 205 101 197 218 88 77 71 95 53 116 187 173 245 106 183 165 151 215 102 176 42 43 220 115 186 147 135 25 183 49 56 130 130 138 128 63 58 215 121 64 179 106 163 44 78 124 164 71 136 30 58 18 82 
106 106 72 98 138 119 129 164 69 67 131 202 47 65 61 167 131 107 68 41 169 147 75 213 38 238 81 179 91 148 208 177 45 175 149 46 56 87 157 233 131 94 94 74 213 135 96 104 100 177 66 75 99 89 150 188 25 161 124 189 134 38 77 121 65 92 65 143 71 86 104 89 81 132 160 101 222 62 173 41 203 25 118 14 208 153 143 189 167 66 168 100 157 64 132 236 81 218 155 134 
97 161 88 159 88 190 59 191 149 190 136 43 57 157 199 158 57 27 141 98 126 84 116 51 114 130 205 237 98 237 209 125 84 184 220 149 59 151 92 48 80 107 111 150 119 184 127 152 158 214 178 179 212 168 166 128 33 126 167 86 74 33 106 166 83 137 183 81 26 162 9 129 96 77 199 170 120 189 223 79 242 129 162 36 127 32 213 194 200 151 101 60 133 101 222 150 106 152 137 34 
94 127 208 155 189 134 112 215 135 171 117 73 148 71 92 108 108 101 108 55 88 74 179 14 193 73 152 229 114 139 154 115 93 165 83 148 201 130 120 49 1 40 113 94 197 195 77 144 195 56 121 70 209 170 210 109 122 179 162 195 31 87 140 30 207 115 108 78 117 100 198 42 127 128 77 196 61 79 153 178 101 51 65 115 183 88 126 148 106 132 64 158 166 91 54 201 52 128 143 197 
193 18 82 152 127 60 66 88 112 158 223 88 52 185 163 61 128 128 187 209 153 119 77 217 208 107 135 132 52 137 143 241 200 104 122 137 235 36 203 228 93 70 176 153 210 152 113 82 160 52 142 75 153 69 116 152 238 117 228 60 125 115 52 203 157 206 135 167 151 188 75 211 189 99 49 63 231 96 48 86 152 128 129 95 108 72 180 189 79 114 116 80 62 175 99 70 154 137 40 165 
85 136 57 210 196 176 24 74 60 52 79 195 148 60 114 187 240 187 164 171 69 60 84 149 161 165 71 179 59 93 81 113 113 114 123 41 161 90 67 96 71 209 176 45 94 101 95 155 56 140 125 189 197 162 119 133 205 117 181 185 210 56 129 19 78 134 199 70 119 173 88 80 102 159 141 69 148 135 113 30 32 69 119 33 39 13 89 67 114 61 248 119 102 57 163 195 190 191 101 105 
124 37 142 163 113 86 22 187 29 217 56 175 115 188 201 135 93 7 123 53 82 104 141 71 139 125 110 114 66 57 158 110 234 84 181 82 62 105 82 97 223 102 122 140 205 123 175 200 110 170 208 93 180 111 216 199 179 83 95 141 99 36 85 131 113 153 97 48 95 80 121 192 205 207 129 65 33 129 105 135 44 156 135 59 165 43 219 63 133 77 107 32 192 134 52 204 178 133 89 70 
226 130 162 142 39 46 124 123 197 152 59 149 28 142 162 144 67 188 59 175 180 109 196 162 107 191 36 145 18 214 113 97 74 22 115 134 218 60 133 121 97 38 120 140 209 97 115 188 168 86 114 115 238 84 46 119 150 128 61 61 134 66 68 134 184 62 107 207 101 200 118 208 210 83 125 92 130 67 222 128 43 94 172 203 85 50 82 59 157 127 64 93 75 103 104 176 186 189 106 42 
71 133 173 147 174 103 182 184 120 98 127 141 174 164 124 187 60 209 145 91 102 180 57 80 150 91 178 247 174 108 198 197 179 116 176 41 142 140 241 140 190 139 119 168 51 25 204 235 47 119 115 119 166 47 219 49 54 53 70 95 126 97 163 95 222 98 49 198 124 95 170 77 85 39 224 185 203 97 98 34 80 73 194 62 59 126 68 50 62 102 117 233 232 36 179 216 195 160 227 62 
129 184 168 132 53 228 98 136 130 216 112 22 188 164 200 63 103 210 73 114 88 178 61 22 155 166 72 90 181 103 25 34 223 217 189 182 213 164 149 146 181 216 108 69 235 180 131 91 47 91 23 110 145 190 96 157 185 80 55 169 167 211 206 184 74 54 195 159 56 143 118 78 150 96 173 95 125 106 231 246 204 175 203 203 73 171 91 214 196 154 88 151 98 152 165 68 118 139 59 79 
137 88 230 93 151 71 138 126 169 143 108 105 195 67 152 66 97 143 229 181 208 75 193 121 47 43 124 237 28 82 141 60 66 232 124 92 110 46 142 125 198 94 177 179 42 170 174 144 193 101 151 197 65 189 40 62 89 102 167 199 98 119 226 50 144 208 143 92 223 182 129 88 96 141 111 118 168 165 56 73 171 146 83 160 123 43 185 127 116 191 127 194 136 46 144 142 45 176 183 118 
147 124 180 183 140 143 27 163 175 101 118 112 148 198 107 187 85 157 194 135 62 111 116 62 121 54 40 127 77 135 184 24 131 187 113 230 146 43 81 119 75 42 78 172 151 105 121 81 103 67 205 194 47 149 56 201 97 133 174 174 135 161 141 138 159 86 231 115 66 111 108 159 161 217 148 212 179 158 66 79 85 133 112 89 54 61 74 107 66 70 130 144 197 55 137 59 229 133 178 167 
58 190 72 133 97 229 69 123 143 162 120 159 41 48 78 85 165 190 183 154 121 172 169 232 113 198 80 65 96 116 116 73 128 139 74 95 108 124 107 102 110 69 201 186 174 71 167 129 15 49 39 70 127 211 194 161 96 190 213 150 206 152 26 92 68 223 177 92 237 57 216 180 166 109 113 72 184 153 107 97 172 188 23 23 155 104 110 61 40 160 214 133 173 125 172 30 210 108 239 118 
99 81 156 186 184 98 218 214 182 157 96 63 92 130 106 84 135 161 155 117 212 41 216 83 54 52 34 70 121 143 211 92 169 159 109 202 168 144 153 93 180 215 79 37 185 222 201 30 59 209 78 85 188 148 176 15 126 23 98 44 162 105 92 73 179 43 160 165 191 75 226 185 141 67 195 192 19 66 140 202 214 150 92 122 118 139 163 161 163 30 180 74 122 117 88 241 188 162 136 85 
