P2
100 100
255
99 109 114 105 84 174 186 171 53 32 158 139 120 214 100 75 27 139 107 82 208 74 89 49 31 229 223 122 139 110 125 239 49 149 119 169 191 85 140 64 43 102 161 115 169 98 64 165 98 163 170 188 82 148 107 41 69 44 75 204 143 156 61 232 208 192 112 103 86 73 99 48 128 82 153 84 123 126 78 46 121 71 180 140 14 177 46 101 71 32 101 183 48 116 146 131 123 99 94 168 
36 192 56 120 147 225 190 34 183 92 155 186 61 221 67 183 174 226 125 145 106 71 236 187 101 115 134 215 152 39 66 106 207 100 93 94 89 68 121 43 192 120 103 231 199 93 122 81 158 132 36 50 65 172 64 164 55 123 117 83 127 149 141 172 19 113 133 102 115 154 61 190 49 227 206 113 36 156 30 198 107 96 69 87 104 62 180 157 34 141 102 231 202 117 183 176 183 154 197 62 
108 78 130 22 156 146 202 151 137 184 58 221 153 174 136 50 101 98 163 164 80 83 62 108 223 227 127 178 136 125 237 123 213 149 95 57 227 152 46 117 210 37 27 100 191 85 117 197 121 65 20 165 183 175 139 68 131 205 128 191 178 162 36 77 73 182 140 178 69 205 70 169 73 168 124 172 134 60 95 119 59 136 30 191 42 67 129 75 151 104 136 119 35 87 190 38 227 156 45 168 
60 152 154 180 210 164 198 163 161 173 76 96 201 185 49 65 182 96 174 44 159 116 152 181 125 63 197 210 236 129 91 128 140 53 82 117 172 80 99 53 79 175 138 138 25 97 197 133 124 205 104 83 157 172 45 171 42 121 41 117 125 37 74 165 152 180 177 201 78 195 162 136 63 72 153 61 94 148 136 39 84 97 74 140 199 96 207 204 96 221 109 115 77 92 220 187 94 100 85 125 
166 240 116 35 113 103 187 153 216 172 111 112 139 219 168 194 125 143 197 160 176 229 191 74 41 153 58 115 91 67 139 31 90 162 151 196 159 87 57 196 127 148 124 244 28 106 61 70 196 154 181 42 62 179 126 48 43 72 189 168 179 32 175 187 113 140 57 75 119 223 117 32 140 206 86 173 124 44 113 54 144 61 99 126 202 100 93 158 169 178 89 168 186 59 69 220 160 102 86 114 
187 60 146 226 48 188 74 181 143 160 132 201 122 199 115 104 184 204 180 94 60 24 223 118 160 74 160 221 166 60 121 61 123 183 12 167 80 202 148 78 69 52 219 95 29 114 27 150 82 56 64 169 100 117 165 74 49 156 118 221 146 106 205 196 127 207 33 31 156 129 191 78 87 39 108 201 73 55 118 125 96 126 153 49 104 132 182 115 46 138 33 217 157 154 62 30 219 167 230 145 
101 106 141 201 26 44 158 134 47 128 149 71 190 97 225 70 132 119 199 92 75 60 92 29 27 170 10 238 101 133 55 104 110 177 123 81 38 191 32 227 201 135 216 73 154 44 136 193 198 110 23 79 60 106 106 128 185 64 137 132 224 169 179 74 164 66 201 150 153 126 51 169 220 150 160 93 242 234 151 153 55 191 86 186 184 91 139 187 161 66 170 217 133 182 195 93 82 199 140 176 
239 56 96 75 109 186 39 170 62 174 183 80 89 141 128 20 182 104 138 178 103 54 88 32 97 191 163 82 83 29 150 78 135 122 103 213 195 149 132 189 117 114 201 142 97 132 186 62 79 95 190 172 141 165 200 212 146 65 206 182 145 13 188 54 203 61 105 143 94 188 112 175 86 144 26 135 71 69 130 56 205 190 108 151 70 66 75 183 192 138 128 135 45 53 56 105 51 182 67 146 
241 134 27 199 119 129 161 165 150 118 137 185 117 80 53 221 68 96 196 138 56 211 124 153 181 240 158 23 138 175 124 128 71 93 153 59 147 118 72 116 213 142 194 164 57 106 49 42 47 156 55 190 151 87 69 191 202 153 218 53 154 223 83 61 57 196 171 202 191 76 127 129 214 74 127 163 86 152 169 22 96 100 124 107 185 230 116 60 160 99 131 205 160 154 107 82 146 97 193 136 
62 124 123 57 86 196 177 152 164 150 74 65 25 48 47 102 32 126 112 135 170 173 141 64 155 115 105 108 148 112 120 198 166 47 55 201 86 54 179 205 132 83 43 104 214 126 201 90 75 170 206 50 120 237 181 160 63 173 22 180 158 152 79 77 179 44 132 58 162 59 166 76 36 76 75 177 144 135 191 139 46 142 135 151 54 195 33 148 41 54 52 69 130 211 147 79 85 31 161 87 
146 59 137 217 212 103 166 122 103 152 58 128 172 130 7 56 107 92 126 135 89 51 139 201 144 228 224 189 72 166 155 105 38 215 125 111 67 106 94 78 38 126 94 101 236 222 200 34 133 128 108 59 139 53 20 194 41 132 147 106 192 218 29 50 156 18 97 156 46 193 213 85 157 101 164 151 102 46 118 114 180 120 43 208 142 142 185 61 38 161 65 43 154 70 179 180 143 178 57 133 
193 25 180 160 181 111 170 155 215 82 76 52 132 152 166 195 123 12 68 70 50 162 55 114 114 110 187 180 101 49 37 40 127 152 178 99 182 117 199 52 75 88 161 186 73 86 111 193 167 156 87 138 55 181 71 197 103 80 100 27 150 150 91 220 55 104 110 82 126 44 186 207 70 137 116 202 61 195 159 198 148 35 81 177 39 192 116 87 85 179 28 178 143 221 141 32 129 95 200 96 
236 14 110 211 75 175 169 44 62 170 133 129 187 69 188 139 184 43 51 112 138 214 163 76 127 162 186 56 17 82 150 213 156 148 199 124 167 160 220 169 165 80 179 162 82 48 164 85 156 156 217 219 143 146 169 219 87 82 237 155 178 85 135 191 106 71 82 151 62 210 122 85 178 80 118 159 30 230 127 157 190 140 204 62 15 169 183 77 208 219 207 119 187 167 156 195 125 70 98 151 
101 127 69 174 201 191 49 140 138 114 138 195 119 209 85 42 79 170 91 70 70 197 158 128 16 80 118 61 120 120 139 98 151 93 198 144 208 109 66 211 59 93 118 87 119 178 133 194 126 102 47 189 49 183 211 201 43 161 36 180 138 45 102 109 172 132 192 60 96 77 195 59 82 234 109 159 106 106 168 197 36 86 99 127 121 155 209 136 222 43 59 73 114 216 148 127 130 100 97 175 
91 104 74 120 94 62 154 178 91 137 133 222 78 187 135 90 74 40 104 138 92 110 236 194 175 107 193 209 77 119 90 158 190 163 203 208 185 87 165 129 142 149 175 57 65 98 36 53 174 112 121 110 222 186 192 79 74 105 137 182 157 178 148 160 126 154 109 86 155 163 42 185 162 95 58 144 145 150 103 116 165 59 178 146 101 194 221 234 210 186 99 142 90 73 126 173 188 47 129 26 
208 129 210 188 146 179 78 73 77 109 104 117 172 172 117 77 103 174 118 213 143 175 179 91 127 88 18 111 123 120 50 91 97 91 176 62 133 198 104 148 47 159 123 204 114 117 121 31 83 55 98 190 177 69 179 118 198 151 205 24 137 163 149 132 120 44 88 141 133 166 141 141 138 237 130 101 178 104 96 29 125 70 153 154 190 210 209 79 223 221 113 104 212 134 49 73 39 71 178 243 
194 119 140 192 71 68 99 37 115 80 55 151 101 212 176 135 137 104 212 80 126 163 170 161 16 144 21 133 99 136 69 119 104 225 195 42 231 103 209 83 138 224 73 129 104 140 119 83 178 180 149 178 71 191 93 168 71 215 194 96 125 109 205 144 71 183 155 186 63 141 119 120 212 60 97 65 208 98 87 199 194 171 136 207 64 209 125 192 220 177 104 33 28 194 127 142 196 132 157 240 
87 176 77 43 88 151 113 62 170 165 184 60 134 194 147 139 142 200 106 152 70 106 58 107 52 73 204 206 107 214 128 84 65 138 84 220 63 143 121 96 218 38 123 60 131 170 147 230 132 36 189 126 153 55 42 134 95 203 32 164 169 126 39 70 189 151 54 135 113 16 48 80 162 223 126 117 121 64 79 106 31 180 57 64 109 56 199 203 150 171 158 100 73 115 108 104 15 221 208 54 
89 174 154 208 136 50 83 102 113 131 148 119 145 187 78 28 105 136 106 127 81 154 40 117 110 159 28 63 150 196 105 127 97 90 71 171 197 69 156 129 186 130 199 203 40 144 132 92 161 40 47 177 70 135 170 174 127 240 91 169 133 167 112 236 204 182 160 180 80 73 57 188 91 215 91 98 103 81 217 116 70 65 53 61 164 239 66 232 145 91 209 158 200 38 86 161 101 227 92 178 
185 37 182 66 102 132 82 144 112 155 147 224 145 230 200 201 129 177 88 17 62 178 156 105 35 189 51 146 70 172 190 201 114 122 162 143 13 124 66 162 59 184 197 58 125 216 70 146 158 172 194 118 184 81 151 112 203 31 216 214 93 141 88 81 137 172 99 138 101 209 233 76 117 148 140 190 64 65 146 220 133 169 36 191 171 125 156 194 53 105 239 153 200 37 119 72 176 139 128 206 
231 105 147 200 129 158 91 117 46 144 131 141 167 98 99 189 94 197 81 146 139 155 91 179 95 197 231 143 158 179 124 131 120 148 80 222 71 194 228 138 75 66 83 195 61 56 111 141 146 184 94 94 183 197 30 187 109 69 121 82 142 139 82 58 64 130 159 99 34 137 129 153 104 103 148 202 199 65 203 121 129 168 206 68 40 216 21 68 202 212 67 197 188 104 158 128 105 65 35 176 
85 209 211 173 124 98 80 133 76 194 70 88 154 127 150 81 135 138 141 122 213 214 190 180 89 110 63 106 136 162 24 55 147 151 118 42 120 156 182 67 168 120 148 237 151 185 59 171 75 57 129 187 202 180 91 46 36 50 94 180 177 52 112 171 121 24 34 178 148 54 217 200 77 154 39 46 148 206 165 73 185 104 96 74 103 138 198 201 192 193 179 184 35 69 103 91 11 184 47 154 
97 94 136 168 189 93 230 147 135 13 104 95 71 143 128 70 212 115 203 189 97 200 138 145 124 196 102 169 85 71 64 163 79 41 146 46 161 186 139 68 205 49 66 180 113 62 119 166 54 188 200 150 117 189 222 52 148 182 61 197 106 103 104 179 173 155 97 119 131 104 55 50 190 205 170 186 45 190 171 150 185 145 223 92 71 143 111 21 171 213 41 35 154 217 143 68 30 120 148 82 
226 172 21 155 190 48 61 163 157 99 37 223 231 83 31 200 216 155 139 17 134 215 181 206 221 23 79 142 211 119 40 127 61 195 183 187 46 214 59 192 203 179 111 58 217 69 150 196 78 159 142 59 192 57 153 123 98 195 129 156 210 97 220 46 187 125 126 133 185 68 123 141 9 89 41 56 136 236 18 144 12 70 120 168 77 140 113 172 138 102 90 212 150 140 194 117 152 159 194 51 
35 201 31 162 112 111 136 49 84 81 119 46 22 48 185 136 129 189 116 106 224 142 81 115 58 208 97 18 130 198 86 170 108 181 150 124 127 69 146 23 151 99 55 74 28 86 125 193 197 48 162 173 42 180 196 73 121 143 142 76 168 76 215 172 95 145 151 140 87 213 133 104 172 124 151 168 223 160 78 210 122 67 118 149 143 116 67 100 107 75 148 172 95 49 144 87 70 85 72 59 
185 71 232 67 134 107 146 101 212 60 214 45 164 157 146 167 57 177 196 149 158 96 108 155 68 134 76 118 135 19 192 135 190 162 45 89 148 78 171 163 93 120 80 184 146 120 217 116 146 116 157 63 150 184 151 94 151 181 62 203 240 161 217 54 178 198 161 95 168 216 85 233 234 38 132 37 181 92 178 223 66 42 172 238 92 217 55 28 89 153 178 216 117 194 126 111 125 163 96 176 
95 106 80 173 180 186 88 79 202 95 82 209 129 127 59 187 80 92 75 214 126 125 78 186 71 178 136 225 9 151 121 10 177 160 98 147 121 193 133 135 104 34 25 76 121 174 183 102 206 105 139 181 131 183 119 180 45 73 92 187 214 197 190 57 180 61 127 131 184 192 49 15 40 190 43 46 97 191 31 120 50 209 136 57 111 145 47 35 176 193 124 105 32 82 95 139 108 26 45 88 
41 102 133 29 106 54 20 195 156 193 11 58 160 185 119 241 23 201 127 149 109 140 70 107 139 161 25 200 71 43 126 145 74 45 67 85 45 115 154 150 131 87 144 30 92 103 87 146 199 35 68 154 234 175 73 53 55 152 146 149 190 170 58 67 77 51 220 73 53 127 131 166 94 15 79 195 47 80 187 226 55 39 151 104 183 90 161 181 99 178 110 97 135 33 182 69 145 102 171 67 
180 200 161 189 141 195 62 95 186 54 198 122 90 101 50 187 143 47 113 81 218 191 96 155 207 157 31 62 188 173 80 119 87 27 175 103 95 75 200 129 46 64 136 79 155 198 118 195 203 217 107 111 106 73 218 44 218 127 132 151 158 143 77 58 59 190 90 71 191 46 173 62 133 49 73 181 137 57 118 186 58 224 26 123 161 69 164 159 82 130 186 211 174 202 156 211 141 181 67 165 
30 39 61 199 137 228 111 148 41 196 112 234 162 155 164 189 91 178 105 25 120 204 92 61 146 149 49 72 49 206 148 79 195 96 19 135 187 140 173 17 212 116 47 193 110 209 43 149 166 207 98 34 121 71 190 77 197 136 94 29 204 80 186 185 44 182 155 240 31 87 157 98 82 56 113 162 86 111 162 186 183 118 93 113 242 155 88 67 211 140 45 63 97 138 185 45 166 107 80 191 
125 162 63 29 60 73 173 12 82 51 39 228 56 130 132 108 107 137 118 106 25 175 86 235 84 108 115 142 203 192 166 107 32 180 230 116 165 161 202 83 186 97 192 170 183 139 44 80 83 176 156 44 62 48 106 230 34 134 130 111 161 87 143 49 143 211 127 108 113 190 134 213 96 130 192 130 162 128 103 171 176 98 67 151 192 154 182 193 164 178 229 45 139 184 193 47 110 63 215 33 
223 77 98 105 82 62 93 135 155 53 240 73 188 97 203 167 129 180 53 187 229 207 88 231 57 95 185 194 82 77 142 134 194 199 59 194 187 113 173 103 55 53 213 179 116 162 240 36 122 35 179 100 181 179 127 205 113 178 171 123 125 198 72 203 184 121 190 52 196 116 95 229 123 93 216 182 144 132 46 40 137 184 128 123 231 61 173 203 36 94 184 144 82 61 216 56 52 232 25 62 
30 188 177 53 129 171 128 45 35 105 70 122 189 213 134 146 61 176 174 124 111 158 148 161 226 206 133 52 101 156 175 154 105 175 217 173 29 134 32 174 188 167 175 115 196 123 151 156 237 70 67 118 122 166 80 99 112 204 43 63 225 167 120 190 177 59 88 124 64 106 54 157 95 87 164 127 115 199 164 58 66 131 92 199 63 80 152 235 197 60 88 223 146 94 77 73 185 81 122 100 
63 140 213 119 102 31 116 143 99 134 155 196 65 129 55 129 121 146 167 236 29 125 201 168 207 210 208 138 176 124 213 134 130 119 157 194 231 151 103 135 153 227 232 87 183 85 21 126 201 99 213 168 63 160 34 127 107 56 145 153 78 132 26 111 97 186 145 180 27 129 174 178 59 154 165 94 127 211 30 118 188 159 120 228 178 31 87 115 103 208 126 226 30 221 180 62 61 75 203 96 
45 66 105 183 150 42 217 56 131 139 153 108 58 137 178 151 143 196 179 182 75 107 211 125 142 96 205 137 38 43 10 64 103 155 31 174 106 38 75 101 129 144 170 109 49 61 41 225 68 148 21 69 59 49 35 155 83 141 58 61 86 161 27 122 161 189 42 235 64 172 112 28 69 150 222 104 164 57 57 175 170 189 77 95 84 94 13 172 117 152 167 190 214 53 199 201 196 62 189 228 
196 170 153 211 120 85 182 235 159 71 229 63 113 130 144 17 32 149 100 92 78 156 159 178 171 66 194 163 158 185 84 130 88 67 159 86 137 211 70 194 151 95 238 43 186 155 236 147 213 182 125 122 188 108 168 61 227 50 89 124 196 69 167 91 140 168 211 154 127 112 67 82 187 201 91 86 206 166 125 41 116 160 21 56 146 66 137 120 159 151 115 202 111 95 228 114 232 50 123 108 
73 38 92 194 166 37 112 145 130 148 36 178 75 129 90 177 178 85 29 123 140 134 43 190 27 67 101 146 190 210 213 69 137 125 90 171 50 227 124 120 195 104 170 170 70 163 233 43 40 197 218 30 145 144 65 47 132 205 25 101 63 149 57 147 200 142 147 110 82 171 63 78 50 68 145 20 64 164 7 171 75 172 113 144 227 219 55 134 70 132 124 212 63 36 101 88 108 193 103 122 
195 94 175 60 50 76 99 107 160 110 13 165 179 157 148 178 101 62 174 74 249 191 184 223 131 82 186 205 163 154 21 43 123 44 117 227 183 151 122 181 204 196 191 90 134 84 82 62 124 92 171 197 63 72 179 114 91 189 153 215 76 166 59 191 65 52 240 149 79 40 170 63 155 59 100 102 149 146 183 136 35 60 114 215 124 112 206 100 21 90 102 188 225 182 96 154 34 159 128 205 
153 131 168 163 98 53 44 131 160 72 114 93 91 96 177 141 90 137 192 167 213 96 47 220 121 199 145 143 163 165 136 215 118 134 160 147 101 162 45 154 50 52 40 202 93 65 203 196 77 152 144 118 155 192 38 199 78 76 177 28 36 150 212 47 168 100 77 127 73 140 106 114 129 195 99 188 169 64 156 195 44 131 172 198 178 75 136 195 172 123 225 157 90 118 84 90 156 142 133 76 
188 107 37 175 71 91 73 171 198 159 79 40 128 57 70 166 115 132 138 163 56 72 158 157 84 171 178 125 44 75 104 148 190 207 89 174 56 231 168 120 168 146 113 186 118 67 120 189 39 131 64 123 149 133 218 140 145 158 44 178 142 60 59 222 209 142 44 88 77 134 141 184 190 138 131 98 177 155 138 47 31 193 51 233 77 100 210 146 169 98 198 108 184 176 190 170 21 72 102 175 
73 53 160 99 104 106 213 150 124 161 107 63 102 219 39 197 48 130 76 52 157 70 111 219 171 62 38 180 109 55 205 141 43 134 119 193 184 170 150 108 58 56 187 33 183 42 105 193 74 32 92 99 158 76 45 224 38 166 119 125 77 206 165 204 128 109 224 228 83 124 203 197 162 182 30 32 156 190 56 158 208 46 201 28 162 54 144 169 112 76 113 163 153 55 115 152 52 178 125 166 
87 67 139 87 108 222 80 88 133 172 39 122 72 169 212 170 102 114 88 66 13 198 162 165 213 131 108 117 160 203 146 190 184 74 20 163 68 129 102 92 138 138 88 101 200 106 186 171 60 66 129 93 66 47 53 100 165 70 125 179 43 119 127 199 154 152 33 118 81 111 87 120 195 45 228 194 127 48 102 152 115 168 131 205 71 220 200 114 126 168 185 216 199 119 207 205 79 107 186 209 
88 79 74 150 210 174 84 147 66 132 136 196 193 27 164 199 184 168 236 167 157 205 142 122 53 110 187 28 28 74 178 213 51 187 139 120 110 176 162 154 135 8 205 49 41 43 99 193 171 64 115 141 122 103 162 151 65 63 72 146 105 29 177 184 234 191 119 129 48 47 173 167 86 124 155 224 156 230 59 75 56 58 193 63 128 183 47 182 72 152 188 70 150 126 81 132 52 195 59 109 
111 111 190 64 183 53 51 128 203 28 80 128 136 192 170 150 180 17 201 62 91 35 160 197 112 193 85 251 202 144 194 89 171 110 227 84 211 98 214 46 63 200 67 38 102 91 136 104 155 37 141 118 49 142 203 53 82 54 71 196 172 62 167 78 104 125 220 196 126 177 85 190 21 189 98 140 118 181 183 65 41 96 187 225 141 152 169 40 201 208 107 105 220 172 77 125 150 210 49 148 
63 154 118 149 153 160 204 177 110 108 91 178 45 130 61 124 235 151 91 88 196 186 186 132 187 182 69 144 111 231 232 132 102 144 204 140 49 62 86 186 208 24 143 120 18 185 104 85 75 104 207 65 165 172 239 126 184 135 21 216 191 66 115 153 127 89 140 239 104 170 123 231 190 107 76 155 98 55 133 49 150 110 100 209 92 223 156 165 220 85 172 168 204 159 81 222 35 64 225 41 
45 179 110 62 161 203 123 131 171 58 56 121 139 48 203 127 187 92 191 144 97 155 151 94 129 56 126 202 49 152 59 18 208 209 77 187 184 233 171 99 72 41 235 210 118 150 234 206 204 60 210 56 171 199 193 132 95 142 201 200 54 169 192 96 78 147 34 116 31 122 92 146 73 55 78 69 114 82 123 93 160 123 149 71 152 161 164 47 212 146 124 141 210 23 175 138 101 141 206 94 
111 97 193 233 115 180 86 138 44 66 150 90 198 156 101 67 20 166 201 164 177 47 66 45 43 118 117 127 87 123 88 76 215 163 166 62 155 166 201 193 216 40 80 35 192 136 59 124 96 225 208 140 64 113 212 218 118 71 224 12 94 189 116 80 30 171 180 115 79 191 78 125 216 122 179 191 153 45 115 107 198 211 188 34 148 119 111 155 45 110 167 197 228 46 95 213 197 212 200 40 
114 96 198 128 88 57 139 158 147 145 111 210 70 47 175 31 109 191 202 153 27 83 205 203 202 166 164 204 28 215 162 167 74 74 45 221 167 92 155 71 109 199 87 38 107 184 227 203 141 183 46 131 202 165 169 194 85 225 103 197 116 212 130 76 189 225 126 134 113 56 125 237 157 141 211 90 77 182 140 170 62 44 143 32 221 203 204 70 96 202 45 218 71 84 42 152 55 92 168 129 
54 154 131 128 66 57 159 31 122 120 61 160 150 128 194 56 118 152 223 116 195 83 67 100 131 58 160 72 210 176 45 209 170 27 144 182 21 60 84 144 125 198 95 177 88 44 50 107 99 151 80 149 217 116 105 151 218 217 66 40 107 145 185 124 85 155 111 103 33 63 166 76 41 204 63 207 108 173 219 173 222 147 160 222 70 147 80 110 101 127 74 128 153 67 26 145 64 194 43 197 
159 71 25 86 154 186 190 74 110 67 234 222 28 192 197 165 50 174 171 83 80 68 214 77 62 48 184 189 161 184 204 104 140 180 169 75 185 102 220 19 210 126 82 100 142 222 34 77 161 111 236 96 118 92 165 166 29 175 141 125 152 43 93 77 200 116 156 122 143 177 95 171 218 194 159 87 148 191 174 117 232 192 34 47 205 77 147 161 57 54 198 181 209 156 208 70 178 121 191 68 
81 172 96 222 190 97 163 120 74 46 185 199 105 173 150 108 88 168 123 109 84 65 38 152 123 191 122 58 222 162 35 91 188 130 111 175 56 188 193 61 172 180 194 173 11 193 119 125 177 155 102 67 84 203 92 78 167 48 63 199 27 142 70 130 63 182 129 137 136 203 202 212 228 51 139 22 150 208 207 37 232 131 182 49 66 111 108 157 153 193 218 25 198 88 24 158 194 196 63 143 
130 141 68 110 197 231 99 145 65 77 123 204 86 58 198 113 34 73 56 123 75 176 199 161 111 161 163 81 191 78 186 134 41 169 217 91 171 79 50 247 53 220 185 196 120 191 177 97 115 28 190 118 125 154 101 182 183 143 146 64 70 73 142 31 188 135 186 215 185 68 36 132 93 129 24 191 96 43 59 85 153 63 182 99 24 152 142 217 177 205 43 24 188 43 87 106 48 37 117 150 
193 190 121 101 146 100 66 213 175 152 185 133 109 131 207 191 207 197 91 97 170 224 120 26 201 188 53 69 213 87 79 69 161 164 102 77 54 79 203 197 55 116 202 165 192 148 119 118 94 72 120 157 117 191 51 151 228 114 145 133 55 172 70 126 77 113 104 171 123 144 92 51 211 54 79 227 214 84 137 158 63 38 88 158 162 146 237 124 181 187 86 122 155 75 149 201 91 81 120 217 
96 224 171 85 117 131 98 75 163 198 39 97 49 194 206 191 51 191 117 125 160 45 203 101 96 126 82 125 134 103 172 95 173 42 87 155 169 194 57 98 47 103 73 137 181 114 177 82 166 74 36 153 68 103 138 164 72 110 166 129 74 165 163 198 73 194 186 129 226 72 78 93 93 54 112 220 158 184 194 221 133 183 71 126 93 86 81 99 111 98 95 199 115 166 98 91 153 69 141 61 
154 80 43 64 112 78 79 126 101 207 73 73 148 167 53 216 204 151 185 86 145 199 151 160 140 87 77 24 184 142 72 16 34 60 85 133 171 209 84 43 54 139 99 146 182 59 190 93 117 29 221 57 89 97 172 134 166 142 203 155 189 194 164 98 120 185 169 98 146 103 145 130 54 173 101 145 117 45 152 74 180 237 106 99 153 205 104 110 87 119 146 130 82 68 158 86 129 89 175 197 
213 131 95 193 98 36 196 54 166 84 129 160 53 210 160 38 153 137 85 147 121 64 188 97 203 90 157 192 132 100 151 120 136 179 104 48 124 220 109 121 123 70 151 118 107 166 113 216 153 165 168 166 137 60 83 158 60 55 106 53 92 218 162 114 163 166 52 132 176 104 167 150 94 126 114 62 145 88 235 138 163 211 164 117 147 200 91 66 69 66 79 155 76 190 152 178 59 191 109 228 
119 94 178 116 57 179 193 181 225 35 104 155 200 170 204 187 181 167 203 162 208 76 218 126 131 134 212 104 120 194 79 170 52 123 98 100 122 96 150 125 197 189 162 123 176 91 135 39 69 198 192 40 161 203 16 157 188 91 113 160 152 62 196 146 152 130 37 113 171 163 193 118 68 86 167 49 83 178 201 98 62 191 197 105 222 193 165 57 225 222 157 136 111 169 184 174 135 96 116 205 
121 153 198 198 182 72 142 42 123 85 61 79 155 161 184 167 130 142 184 174 147 114 87 90 182 204 183 91 74 152 53 62 36 106 158 216 195 117 123 117 16 100 64 241 101 115 93 57 209 57 190 192 176 179 210 90 99 61 116 207 95 78 79 209 91 148 53 52 31 72 128 78 90 142 31 173 193 136 182 87 96 111 131 159 156 139 167 86 202 124 102 104 153 136 98 183 130 190 115 75 
86 164 173 228 174 205 161 101 28 171 94 237 133 65 159 150 228 73 226 79 118 72 155 226 45 72 105 173 63 93 139 136 37 201 162 57 66 51 123 118 49 228 194 177 171 192 97 108 110 40 200 175 183 189 25 134 94 174 222 206 174 167 63 163 44 191 206 69 166 81 226 93 243 163 130 44 56 49 96 52 239 126 91 110 180 160 197 151 49 60 219 66 86 133 70 79 62 241 160 72 
137 234 236 206 181 142 120 61 129 101 61 163 105 95 59 131 139 89 111 222 113 155 94 88 96 62 188 80 72 159 76 149 107 241 119 140 171 108 241 180 82 171 40 179 119 161 160 83 106 63 41 226 176 219 199 186 107 94 227 68 57 211 147 189 58 213 55 165 103 145 84 57 112 207 176 103 5 19 136 133 62 210 83 84 58 161 60 196 8 32 189 36 126 161 137 212 194 224 189 48 
162 233 168 199 73 71 169 220 27 126 40 70 134 186 157 74 191 146 151 177 183 192 151 50 42 121 74 171 57 162 120 216 127 85 44 177 112 146 110 58 82 162 69 74 89 19 67 208 139 163 135 179 165 78 207 124 177 63 103 204 58 123 119 167 220 86 207 78 187 94 59 228 164 61 98 165 189 145 234 205 155 38 106 164 197 115 200 148 66 109 120 56 116 99 94 194 79 163 110 110 
54 226 181 157 192 199 183 177 130 78 47 89 194 144 173 198 151 179 58 122 143 83 61 66 211 176 162 192 72 146 51 111 102 192 56 99 171 174 85 110 140 183 196 161 179 111 249 19 124 200 75 144 100 174 66 118 237 173 79 131 85 202 176 47 161 110 46 154 123 150 208 90 113 155 194 118 102 143 126 65 73 98 72 147 152 164 192 201 31 183 138 65 61 86 38 145 118 86 102 48 
120 129 92 200 205 182 130 170 173 128 28 117 92 131 18 79 44 147 200 117 153 126 47 71 145 176 195 170 90 79 67 185 45 145 72 192 181 216 157 87 98 84 219 129 40 132 35 137 96 44 27 201 160 143 132 116 109 116 160 173 174 133 209 135 167 197 115 113 103 190 60 111 91 88 142 83 238 26 72 177 151 149 199 155 111 99 149 79 160 26 155 101 200 227 197 125 178 143 34 76 
124 158 194 186 43 156 97 115 189 90 186 157 168 36 156 133 186 159 222 196 167 172 55 200 187 43 102 191 230 28 91 182 197 92 167 193 156 149 163 90 35 161 97 184 42 194 110 216 223 150 101 168 177 128 155 153 108 137 112 126 172 150 191 229 101 149 134 134 129 91 43 207 141 202 56 184 143 131 99 138 153 224 191 226 148 104 225 147 82 132 233 112 132 170 154 70 152 183 76 201 
84 181 138 91 82 72 176 213 158 157 203 137 139 185 66 114 45 56 165 219 125 229 27 137 166 134 112 100 189 156 215 71 97 96 222 19 143 29 38 33 152 172 143 121 78 37 45 65 198 36 54 221 111 52 98 223 132 96 95 73 70 168 163 166 149 58 149 202 153 57 122 149 171 41 89 66 74 101 157 123 146 54 77 87 85 169 79 135 118 118 169 178 184 226 12 73 217 187 46 149 
67 74 21 133 107 180 223 122 147 113 130 173 156 77 232 33 156 127 203 48 175 161 73 202 193 84 85 166 173 145 51 83 139 147 170 227 53 103 42 116 113 34 141 77 92 135 199 62 65 187 115 50 95 57 56 102 130 213 226 47 175 67 119 23 208 40 113 112 170 111 80 109 52 239 119 34 17 127 123 175 168 104 169 176 33 43 105 240 41 77 101 78 89 178 107 121 201 120 136 126 
186 101 111 35 53 237 79 210 143 76 76 219 95 28 202 141 123 155 193 146 101 123 50 70 214 82 42 118 170 86 114 47 182 50 176 144 183 116 72 212 118 215 199 140 139 68 96 175 151 141 50 226 172 149 169 194 205 181 168 75 83 156 164 162 76 153 110 115 141 118 215 106 27 109 158 107 134 161 137 61 168 189 122 136 211 71 82 41 74 133 52 169 183 26 217 111 150 152 168 105 
170 61 210 175 84 75 234 109 91 188 150 187 82 165 101 119 147 119 70 116 101 141 200 116 58 48 58 36 200 94 187 53 42 192 141 157 92 172 58 124 184 28 191 119 168 111 225 68 97 134 167 202 166 231 183 137 54 59 70 74 197 68 94 129 104 102 124 174 127 54 34 95 104 65 190 132 208 99 32 35 129 52 44 122 210 221 108 212 148 58 154 162 55 119 225 83 175 139 229 190 
205 165 184 152 105 86 151 218 205 84 53 30 109 61 181 109 211 56 168 195 82 152 19 145 84 110 99 115 133 78 220 80 117 141 57 210 100 70 179 159 216 129 211 53 101 175 110 169 171 177 35 199 64 26 93 173 101 180 169 73 112 189 200 145 65 93 190 56 77 98 167 171 84 66 99 197 55 39 144 56 83 117 111 151 55 74 101 34 130 115 30 105 194 151 216 165 81 183 185 151 
201 224 201 184 137 187 212 99 52 208 141 171 118 48 186 123 144 170 190 96 74 62 107 193 63 101 90 195 56 175 66 216 120 87 59 150 21 213 50 35 82 115 178 179 102 190 68 73 140 89 174 155 91 37 146 180 140 207 155 33 161 122 78 30 178 149 141 61 177 140 129 71 187 175 172 124 34 118 76 35 130 81 107 164 116 199 50 81 184 187 185 201 111 158 192 164 152 76 102 116 
126 120 120 46 237 142 171 68 80 39 194 144 183 200 169 232 97 179 34 87 157 119 62 185 135 153 60 80 139 199 32 57 182 152 120 182 155 210 51 176 183 58 46 181 143 174 136 193 143 219 67 132 154 168 203 147 38 114 76 92 124 164 183 183 218 177 23 217 151 62 110 127 83 72 25 216 132 131 27 69 192 62 108 213 176 226 95 40 125 160 115 101 89 121 120 60 76 111 127 59 
55 98 76 137 203 84 34 219 110 142 112 126 154 212 80 150 217 157 69 81 149 74 171 37 131 6 141 90 209 142 171 65 164 144 105 96 69 164 81 33 146 72 38 197 184 70 130 40 95 100 69 137 106 37 64 202 156 83 173 60 73 87 172 159 165 178 113 218 204 61 53 72 73 82 65 89 95 181 40 106 68 164 87 161 76 104 162 143 187 19 158 203 88 89 202 25 205 177 50 190 
46 117 168 18 84 148 108 200 108 142 81 96 23 83 199 80 183 158 66 165 91 72 174 204 102 141 59 70 195 155 107 116 126 104 89 105 72 152 209 45 90 235 151 79 206 53 32 165 54 128 31 174 129 195 144 184 193 115 233 162 39 135 150 93 224 189 62 222 146 217 192 63 189 46 199 139 108 180 146 147 212 83 168 172 85 189 109 157 184 98 89 168 70 75 113 194 82 99 154 104 
70 80 175 205 114 87 33 86 71 19 176 180 185 198 195 78 202 66 70 131 76 227 47 47 182 212 77 91 173 204 215 74 181 203 111 109 94 42 194 46 44 106 47 205 87 60 200 69 30 218 156 185 91 117 164 102 230 130 182 52 206 64 182 222 127 107 119 144 88 183 92 127 149 39 145 94 145 47 158 169 62 201 134 76 169 95 137 97 94 67 193 48 167 49 136 118 48 176 161 87 
55 130 147 86 138 167 75 47 164 192 228 188 202 125 236 124 124 83 12 224 102 207 172 137 220 222 24 45 161 123 189 189 61 181 75 216 100 58 197 122 132 96 206 150 137 120 171 135 181 83 124 246 68 174 135 135 75 60 159 175 129 131 85 115 97 119 73 187 139 111 198 84 169 203 183 147 92 210 108 113 197 235 203 148 170 150 97 38 104 107 128 63 136 92 163 76 144 200 68 153 
198 103 217 211 47 43 76 120 142 205 82 137 60 92 42 74 226 106 209 45 204 150 187 128 237 124 122 121 134 189 124 51 50 133 225 115 76 113 153 180 130 151 98 70 187 103 203 201 67 199 139 70 50 66 99 216 59 208 120 37 208 91 153 199 91 133 181 235 188 99 211 113 9 32 179 79 91 185 191 17 120 123 27 188 33 127 65 63 136 35 117 228 71 175 101 98 144 64 127 111 
136 195 200 65 103 76 121 160 40 60 92 160 96 24 219 175 146 160 203 87 77 161 225 124 56 196 95 223 96 198 136 115 164 176 115 85 135 155 175 245 215 195 90 147 181 74 186 214 56 202 137 84 123 191 45 194 183 117 83 209 78 193 153 45 197 78 35 112 190 107 107 28 74 57 120 51 155 184 32 180 88 150 175 218 209 135 99 92 164 224 30 143 162 161 16 68 175 36 142 123 
48 120 161 169 153 183 63 137 42 109 119 33 82 173 139 177 199 65 30 129 208 184 95 88 182 55 156 108 125 34 26 184 221 183 27 46 190 143 148 198 221 94 35 33 171 175 209 179 177 179 214 122 174 107 70 159 130 153 169 206 116 185 98 52 92 203 83 97 137 150 187 183 42 51 138 179 103 186 163 68 137 141 196 45 57 98 72 120 54 192 77 52 163 152 183 40 165 150 200 163 
172 80 148 73 155 209 36 150 192 169 86 197 85 86 113 141 109 96 212 51 85 60 51 60 60 59 153 129 226 74 180 145 163 43 114 200 151 36 50 194 136 181 157 139 38 154 104 202 138 115 83 116 161 127 190 72 81 115 88 115 118 160 33 131 188 173 199 215 195 196 151 208 95 92 80 207 197 46 94 198 162 162 55 107 75 134 222 171 152 27 197 177 127 146 110 133 150 63 42 165 
128 123 138 134 120 109 203 122 214 111 173 216 177 98 77 69 139 111 74 55 160 132 78 44 67 67 52 95 149 130 136 42 108 130 170 89 69 126 39 103 148 77 223 102 93 143 94 191 183 170 113 139 117 45 205 174 126 14 67 116 156 181 85 172 51 124 96 156 139 147 134 62 206 132 118 194 134 169 139 161 179 34 223 74 86 41 197 158 157 61 155 137 223 147 138 39 100 85 205 45 
180 61 191 168 94 24 141 82 201 100 91 111 140 38 144 103 136 180 77 200 141 137 86 105 112 30 67 15 130 250 51 129 132 125 176 151 119 150 101 87 154 195 25 60 158 129 224 52 58 133 77 195 148 186 203 90 37 122 69 128 143 65 74 159 133 176 71 201 122 155 40 110 176 37 44 141 179 44 209 172 30 111 156 165 115 121 180 115 177 123 59 107 145 43 168 86 192 213 117 100 
136 164 132 151 25 189 102 78 93 91 182 108 56 43 150 114 122 157 161 34 202 136 109 142 205 49 83 68 83 207 118 161 156 142 195 78 67 130 220 99 164 98 130 120 187 147 22 183 145 58 63 60 176 111 177 134 125 219 99 55 221 42 190 117 174 190 135 226 121 178 90 204 133 180 59 43 142 172 210 56 176 83 107 122 95 85 84 127 228 56 229 111 202 181 174 157 76 154 145 102 
46 82 99 136 214 74 117 134 85 197 174 73 173 84 83 177 210 218 113 222 221 130 105 152 190 162 38 122 126 188 116 154 213 221 64 129 146 148 160 48 111 75 175 94 130 51 39 147 59 80 192 151 181 192 195 56 74 91 223 84 117 23 167 34 150 188 31 209 157 220 221 166 167 241 66 105 147 161 29 99 119 81 181 27 145 84 182 73 167 185 212 40 175 124 138 137 203 200 104 161 
118 193 198 158 215 85 98 76 47 222 218 231 194 102 85 145 203 56 165 58 164 236 178 87 81 128 111 57 181 126 210 203 22 30 51 84 71 214 16 82 159 59 76 125 210 74 199 189 157 182 31 152 104 128 53 68 160 138 33 186 139 129 204 236 105 166 126 205 146 108 74 149 136 83 93 89 182 105 90 99 71 169 121 35 77 90 192 79 135 87 97 223 215 157 219 152 228 150 89 137 
75 41 80 201 165 59 197 106 114 37 135 166 99 206 83 106 71 141 166 158 97 206 124 192 118 161 147 137 140 176 90 67 233 125 147 179 202 158 145 100 45 92 177 111 128 201 66 61 196 185 156 108 143 27 190 155 181 24 105 72 65 40 214 75 111 210 80 69 43 61 140 77 249 110 112 227 103 55 122 128 180 97 69 45 190 110 35 77 94 196 56 201 97 59 210 105 129 158 199 126 
185 193 36 89 201 213 226 141 146 147 48 227 168 213 209 174 151 123 73 132 204 98 222 26 81 185 89 102 148 78 39 110 174 45 158 209 47 222 112 169 65 172 165 217 203 36 188 137 147 168 181 159 122 95 123 139 137 129 64 89 182 161 98 117 48 79 44 169 187 171 63 131 70 167 147 102 88 179 215 172 78 136 156 146 55 72 90 101 146 142 164 119 129 147 95 64 20 201 117 87 
179 88 82 57 28 198 146 142 111 154 94 96 195 215 131 53 200 89 144 207 143 196 58 198 116 214 212 95 110 175 146 185 218 129 48 233 101 175 145 79 194 175 119 190 150 75 106 110 149 176 208 182 36 119 223 92 151 121 138 149 84 154 124 209 176 30 86 209 104 145 147 39 214 144 118 96 166 56 101 144 26 158 166 139 117 92 61 174 205 157 151 156 123 82 19 49 74 205 89 85 
135 135 202 149 92 26 167 68 168 230 128 84 102 82 75 238 104 180 101 15 116 154 40 101 209 83 191 130 127 20 129 180 210 125 138 165 145 22 188 61 57 102 178 170 185 151 141 21 79 199 117 233 51 240 66 113 202 191 61 157 183 74 58 170 82 152 159 145 41 72 96 180 140 49 118 26 177 106 93 100 100 115 211 73 55 137 101 143 197 50 178 184 79 179 115 205 186 63 180 100 
66 60 118 124 175 246 190 157 141 147 102 124 178 151 122 144 77 177 118 41 154 170 97 92 161 52 131 150 129 121 223 156 77 179 197 168 81 49 101 221 102 80 112 119 172 145 87 182 102 226 146 87 189 52 176 216 81 180 129 189 85 223 193 46 49 71 69 60 173 150 141 218 68 183 67 75 179 98 230 40 143 108 57 217 201 193 179 57 149 100 233 108 59 67 155 189 211 107 71 237 
89 52 153 114 203 147 189 62 83 123 93 124 62 92 210 159 195 21 60 207 126 93 39 50 144 81 205 192 53 219 202 141 36 158 222 57 126 176 163 80 121 128 213 140 65 184 155 150 180 205 185 120 52 193 240 91 128 191 98 91 119 186 133 207 177 211 188 165 219 214 177 157 229 109 62 140 129 205 217 73 57 175 151 165 114 96 116 182 82 95 63 145 37 128 212 109 110 201 91 98 
67 57 58 84 97 133 136 60 94 42 212 216 101 199 131 112 33 74 23 30 176 116 51 152 82 109 169 40 194 77 163 143 155 199 105 52 58 183 202 139 71 200 168 173 65 25 197 219 104 139 144 124 45 117 40 39 29 225 165 166 154 112 142 46 177 134 160 140 20 25 90 76 76 243 165 148 123 54 40 221 111 104 132 178 50 203 188 103 82 146 76 209 55 86 95 94 93 105 50 220 
122 127 140 69 6 150 175 191 126 72 143 220 58 172 63 127 101 79 41 187 77 87 143 172 209 59 67 55 91 36 157 67 120 114 104 161 230 93 197 76 12 121 166 215 61 144 201 31 87 53 195 207 49 121 78 190 76 135 114 110 164 56 94 174 204 53 75 152 122 91 67 107 209 35 95 94 157 179 114 118 189 91 67 53 158 198 195 40 142 16 111 79 179 124 187 81 140 81 179 175 
54 77 142 64 63 103 200 130 110 198 56 70 177 159 212 242 212 182 121 174 164 121 138 208 242 63 189 191 129 101 216 78 156 56 72 191 86 112 158 157 102 78 100 87 179 74 144 57 60 70 74 190 79 149 86 90 110 197 54 28 184 63 134 191 80 56 189 220 92 75 111 72 21 112 56 113 41 175 107 203 188 97 91 82 192 103 173 44 153 107 146 168 43 209 172 240 91 154 202 207 
183 203 95 130 51 127 34 166 97 114 87 105 216 65 102 117 216 105 115 200 151 108 56 96 107 163 99 40 122 158 160 76 168 151 56 179 218 79 34 156 67 89 173 209 60 84 72 105 153 47 179 135 180 74 70 101 181 94 127 97 168 79 72 59 193 199 135 219 53 186 138 111 54 177 74 130 147 96 91 193 143 75 165 191 161 94 87 186 71 192 86 215 162 86 79 102 72 168 163 159 
154 65 52 170 109 67 77 134 210 180 107 74 123 124 206 132 54 84 201 93 143 188 161 22 95 180 97 101 188 48 126 114 44 95 45 39 131 85 132 217 104 119 220 88 166 150 66 164 210 68 59 212 90 40 130 138 33 163 216 177 177 199 195 174 119 108 144 224 132 132 74 149 182 55 173 139 103 149 67 36 135 42 163 48 190 54 205 179 195 56 84 60 157 62 211 117 175 205 106 100 
121 113 109 143 153 143 83 50 208 130 38 146 112 60 82 67 33 81 133 123 123 239 201 61 85 150 206 174 220 47 184 82 169 53 165 206 53 97 97 36 48 95 137 180 75 195 168 102 132 112 125 94 91 181 64 43 29 135 52 141 57 149 119 27 207 77 114 178 73 95 41 138 199 192 189 148 78 74 122 127 104 229 151 188 245 100 105 221 123 77 53 35 140 193 166 119 116 28 146 65 
132 34 106 131 189 189 98 95 92 42 210 155 169 136 201 166 57 188 81 63 181 66 201 125 88 53 221 161 234 120 146 71 132 93 63 168 114 62 196 150 84 183 194 168 130 75 122 237 101 90 79 65 92 118 131 161 111 185 47 198 44 105 94 175 120 118 152 163 84 235 128 148 175 175 98 96 19 28 194 114 166 36 150 166 145 196 84 97 19 68 209 67 58 154 25 156 144 64 107 76 
145 130 161 87 73 59 175 46 150 201 135 168 121 103 186 88 40 74 220 161 117 133 31 98 161 173 123 58 208 57 8 149 202 131 80 203 80 127 42 135 66 140 154 158 65 49 45 70 47 186 185 30 53 58 159 185 175 85 131 52 157 157 80 172 93 117 210 140 74 154 82 51 118 88 109 168 167 104 187 45 149 140 172 26 149 113 200 80 64 149 65 130 64 93 160 18 191 43 159 175 
113 190 54 74 115 131 172 99 160 162 16 75 102 95 133 75 80 68 127 166 67 193 157 27 89 115 14 74 151 145 121 130 82 194 193 134 158 169 189 190 40 129 56 207 124 80 120 45 117 131 66 205 139 176 17 141 134 180 139 220 95 81 53 188 58 75 142 180 143 192 133 109 116 232 45 192 46 119 90 99 181 111 183 59 140 245 128 180 91 240 195 132 43 219 102 180 171 208 139 121 
178 65 152 34 147 102 64 77 97 88 105 183 155 51 106 109 53 136 196 98 94 82 174 123 145 211 56 158 96 200 186 226 92 124 26 189 175 63 171 91 57 34 67 129 130 107 196 25 83 125 9 119 67 135 57 209 22 188 203 174 96 189 186 62 219 65 64 109 179 220 177 47 222 49 206 110 60 172 191 144 189 141 186 233 124 138 73 182 201 166 60 173 158 92 140 175 110 86 84 143 
