P2
100 100
255
171 183 100 214 157 130 173 36 215 85 137 106 50 130 64 231 166 173 159 177 180 190 229 119 150 129 205 214 192 181 156 230 51 77 105 148 211 82 78 130 68 213 46 72 34 164 88 177 172 33 45 111 117 22 164 140 102 94 145 180 156 131 97 44 96 43 134 139 179 146 152 213 171 130 181 101 166 100 181 206 135 36 168 44 57 171 102 87 162 220 35 70 166 177 171 176 220 78 41 184 
52 129 170 159 77 119 164 71 107 144 168 192 82 89 105 190 200 47 58 164 25 146 75 93 125 122 142 87 154 220 92 60 148 150 76 82 176 153 101 182 196 99 193 210 194 102 85 169 186 26 100 99 126 150 99 121 57 199 178 152 198 164 91 111 187 192 155 105 177 111 91 60 99 78 83 189 58 100 54 83 139 137 189 89 158 69 65 195 42 174 95 185 223 183 31 174 232 168 74 198 
142 128 115 68 95 56 37 199 161 43 160 134 119 200 66 71 152 128 160 140 56 172 190 82 101 203 53 202 186 175 133 100 158 138 75 176 56 158 124 64 224 71 181 130 123 53 174 188 214 56 158 73 205 216 35 181 224 210 106 45 57 215 152 191 59 106 122 80 150 89 85 42 67 101 169 64 147 31 63 70 111 97 118 152 68 136 34 84 64 231 102 149 125 125 190 112 151 167 115 168 
185 220 193 89 223 178 117 131 100 72 87 111 201 63 128 146 38 84 27 99 127 65 125 170 130 187 159 194 62 146 47 102 77 134 207 95 43 179 182 66 189 114 157 57 195 218 66 119 229 148 102 143 220 184 55 181 113 217 141 180 83 125 90 177 166 73 147 46 19 185 65 126 140 175 192 75 158 13 148 140 209 225 116 153 66 159 48 85 150 211 140 74 183 70 107 176 203 185 201 135 
114 183 172 83 81 185 204 214 195 98 86 175 16 205 162 86 209 156 200 147 227 170 137 208 196 214 152 194 108 79 137 64 152 63 134 38 166 204 211 107 153 181 184 179 72 117 160 122 192 212 179 178 182 117 226 182 116 118 155 103 124 122 75 211 171 181 45 196 86 148 123 28 70 22 85 102 29 160 153 161 81 70 150 17 215 44 165 124 116 177 101 223 81 93 146 209 206 113 121 59 
173 217 53 229 203 159 151 141 31 50 146 82 3 186 174 84 71 197 83 138 62 118 80 82 89 165 209 209 145 194 140 115 55 201 99 209 44 24 147 186 104 90 106 144 80 38 87 104 186 178 136 79 186 148 190 122 167 99 139 117 68 115 156 173 50 70 172 64 188 194 182 180 173 98 76 180 34 199 135 61 128 154 99 60 129 107 38 144 41 104 53 30 61 54 203 146 49 80 173 87 
185 38 108 86 118 152 47 213 209 145 192 164 86 167 15 175 102 191 173 76 55 65 206 98 194 124 217 201 130 154 208 54 127 111 39 91 126 115 115 103 70 82 110 55 139 125 181 50 57 65 109 174 99 120 197 87 8 148 75 73 107 139 107 77 78 68 187 114 56 75 101 209 157 26 132 44 55 56 227 155 170 67 96 80 98 180 204 181 202 18 147 17 118 160 202 82 165 204 93 129 
155 51 215 136 92 207 127 128 202 144 116 17 95 127 81 139 114 233 94 180 148 61 172 62 46 98 61 143 151 224 99 183 126 62 195 227 210 170 174 74 22 212 91 61 77 219 90 144 196 162 34 57 83 122 106 104 204 50 215 76 57 67 166 71 137 161 93 46 176 79 29 150 57 139 139 133 71 200 179 100 97 49 53 29 203 135 47 84 109 175 50 189 53 27 124 201 135 44 83 144 
99 173 124 100 145 161 189 166 46 71 151 104 201 201 115 112 165 35 168 178 142 69 92 159 120 154 55 89 52 34 134 81 68 178 178 81 181 231 37 130 186 49 225 97 164 163 149 52 64 157 181 212 89 37 97 126 84 27 165 51 130 47 107 134 120 49 76 67 177 117 82 68 146 24 38 88 98 114 25 192 34 120 137 222 94 106 203 170 53 72 119 165 211 43 88 66 117 178 210 75 
199 141 54 84 220 58 203 75 78 121 228 219 130 121 194 236 160 41 98 176 174 167 109 208 73 167 128 161 194 119 124 54 81 241 80 179 240 170 131 83 64 55 181 170 80 108 184 87 194 135 108 170 232 218 221 34 87 201 135 63 54 129 180 207 143 96 79 158 191 44 152 92 117 100 91 221 47 170 72 225 157 53 90 204 138 143 142 130 80 124 104 158 133 153 175 81 190 221 135 144 
87 142 197 38 69 58 71 197 70 152 189 83 77 170 189 58 100 153 145 222 57 179 202 28 110 142 137 46 80 48 168 198 184 65 91 93 16 96 181 152 210 112 169 193 78 40 193 151 186 154 196 161 192 64 124 211 188 177 147 76 139 103 176 56 137 148 193 172 53 80 141 182 88 73 191 116 108 136 110 147 191 111 71 198 61 132 189 16 180 103 161 81 102 65 70 158 57 195 102 48 
157 118 142 170 155 87 126 96 84 57 65 147 167 91 62 54 96 112 181 181 95 165 186 117 136 55 44 122 139 148 58 64 86 193 215 56 137 136 68 225 240 170 143 92 99 176 60 54 50 192 129 215 131 168 184 148 174 175 206 45 199 70 228 168 128 62 57 160 178 88 92 71 111 124 221 164 39 105 200 119 227 99 158 211 125 88 174 40 190 73 85 43 173 139 180 58 179 100 134 74 
203 171 100 235 69 83 95 56 162 89 238 210 192 179 140 201 51 181 107 109 222 164 66 194 111 222 161 216 225 66 148 120 220 114 61 205 91 135 191 196 22 83 191 24 232 147 49 118 124 128 29 181 202 175 203 60 174 185 205 133 74 212 147 176 80 201 221 67 121 70 95 117 106 32 117 59 231 90 114 185 92 127 73 107 53 177 96 45 193 88 119 104 115 161 179 39 183 193 134 188 
183 127 14 197 84 88 162 63 107 124 144 90 73 102 58 142 196 183 181 87 104 220 125 122 141 180 182 186 73 228 85 120 37 89 110 94 178 185 120 137 205 196 140 68 85 197 194 71 19 168 98 19 166 219 130 43 86 198 99 206 221 171 30 59 93 60 71 118 156 196 117 92 159 108 70 141 80 149 188 180 61 85 103 188 79 95 200 205 94 139 194 92 202 26 204 72 55 142 147 78 
155 127 156 177 21 207 121 122 201 52 201 146 99 194 211 127 59 83 66 135 154 206 114 106 130 190 168 95 56 74 180 68 72 69 87 165 175 121 94 192 193 83 163 46 126 174 175 138 67 216 139 98 169 172 159 64 49 100 62 66 163 88 117 57 134 108 86 58 183 60 123 190 219 120 81 67 106 166 215 122 173 149 190 95 224 41 82 118 85 105 222 145 167 189 55 92 49 125 88 148 
199 136 209 172 67 94 166 151 71 206 60 219 123 226 162 217 197 159 77 219 102 102 105 186 117 59 59 195 56 166 16 96 152 83 165 138 64 101 211 28 116 195 170 198 102 195 140 191 105 82 222 238 107 53 90 216 76 115 64 195 80 119 42 150 191 154 149 124 102 65 103 80 64 95 90 189 75 174 84 164 69 206 202 174 165 136 140 182 114 211 120 203 218 183 195 169 161 35 143 120 
145 132 172 73 25 144 81 111 199 143 187 162 87 132 159 69 132 217 205 206 127 176 162 220 104 70 65 77 180 75 79 104 145 124 54 230 215 178 19 89 90 196 233 224 219 82 96 78 149 182 210 170 167 187 155 102 164 128 120 142 197 127 119 175 154 104 109 182 113 149 110 114 203 221 50 101 110 122 126 174 131 101 29 45 127 165 140 84 172 153 9 77 198 228 145 175 125 71 74 162 
64 133 52 149 111 237 58 99 169 243 160 184 214 211 222 42 164 96 100 140 193 96 61 148 93 75 171 160 153 208 48 203 109 109 131 185 116 71 221 126 28 185 104 131 137 76 110 225 105 220 28 145 173 163 95 164 124 40 91 199 59 127 146 167 100 161 166 211 198 62 73 158 71 115 174 64 85 214 162 93 201 227 214 14 113 43 53 233 39 95 123 122 53 117 34 99 179 99 201 92 
192 133 97 88 102 98 152 208 165 74 47 142 75 213 81 156 43 143 62 211 210 170 179 168 164 135 175 186 195 204 188 151 227 196 128 143 116 146 91 69 169 158 154 101 122 110 18 214 200 168 68 205 169 41 48 198 220 142 109 103 37 171 28 101 166 112 56 149 89 86 124 148 125 165 170 90 49 200 133 74 81 136 78 56 202 81 174 190 46 230 129 218 129 118 226 138 84 99 180 120 
193 125 148 32 41 83 126 134 162 161 37 199 89 73 81 117 70 174 32 112 184 138 177 221 88 138 97 128 79 103 169 64 141 174 112 70 43 144 117 100 55 129 184 176 136 192 224 37 116 192 136 98 149 129 39 130 186 51 124 84 150 50 34 46 209 105 135 115 195 169 197 112 119 88 160 130 100 219 201 193 95 183 84 90 234 119 200 101 89 164 134 104 129 202 152 206 38 143 161 178 
114 118 80 183 136 174 78 63 100 44 79 166 183 240 218 166 189 11 94 237 95 17 150 125 175 122 159 70 33 202 226 154 213 129 201 123 88 132 211 109 106 175 103 102 177 64 131 114 84 148 56 71 58 74 35 146 59 26 105 139 46 53 178 145 54 132 136 130 125 229 155 53 71 160 182 197 145 173 179 78 223 100 189 78 188 122 98 174 158 70 127 131 63 198 168 146 210 149 11 51 
132 91 165 197 182 184 55 173 230 95 48 85 143 156 108 75 227 154 78 100 133 159 154 184 217 81 32 126 79 202 92 49 43 208 69 75 87 183 184 146 180 193 111 104 182 101 155 69 115 187 192 197 75 131 190 117 29 129 101 154 159 201 53 109 55 130 212 199 87 36 83 95 125 203 67 139 238 176 54 45 185 95 106 55 213 78 125 140 185 63 40 147 136 80 127 77 134 163 130 147 
125 144 79 224 213 58 199 61 171 73 46 136 48 185 159 111 62 114 132 68 165 190 137 79 22 40 102 123 102 129 124 108 240 164 178 164 82 86 218 237 15 155 212 155 102 187 84 129 184 182 67 203 97 57 86 152 99 105 131 46 86 174 132 128 100 170 60 219 111 40 202 225 140 97 196 191 49 142 51 44 191 104 88 83 27 195 197 165 236 199 107 136 97 13 78 62 170 23 93 228 
162 145 83 156 187 107 187 180 77 75 188 136 213 129 227 113 120 77 56 157 98 157 221 114 161 99 37 154 122 182 65 204 183 167 171 188 126 187 97 44 107 62 63 78 99 114 106 59 101 110 215 140 201 60 75 97 40 136 184 231 176 190 31 40 122 59 104 65 162 46 234 204 86 58 150 157 86 32 161 90 75 109 132 54 26 101 159 195 76 206 193 52 69 193 195 103 101 30 131 98 
159 163 160 42 217 142 189 118 212 186 119 106 121 100 86 179 62 234 241 130 21 83 75 168 98 103 120 88 112 133 179 164 66 80 191 64 120 198 136 179 192 136 37 192 140 87 62 37 146 189 44 54 98 69 85 74 141 167 153 176 135 211 202 131 228 28 120 41 166 44 111 66 174 91 109 120 135 82 97 201 161 67 144 139 116 241 36 188 202 34 27 25 206 90 96 74 114 80 81 65 
136 111 146 178 154 225 74 146 216 14 148 45 117 64 86 45 72 101 199 208 154 9 54 99 94 60 177 181 32 152 138 34 112 189 56 107 79 43 56 130 168 24 150 31 109 141 221 113 194 100 119 134 194 177 97 170 85 39 192 163 63 104 204 97 212 201 62 184 78 95 85 71 144 204 51 118 116 107 126 106 45 137 127 136 170 175 183 90 199 173 159 194 150 153 41 156 152 35 88 99 
167 117 191 193 163 124 96 79 157 191 205 142 105 87 69 201 219 113 139 184 118 239 197 63 89 131 38 121 195 85 108 107 45 185 102 126 40 192 141 183 145 125 94 139 67 49 132 130 32 75 200 36 173 125 166 224 131 172 150 123 143 62 184 72 107 80 189 130 62 70 82 73 59 110 67 182 109 189 168 187 125 171 69 109 70 223 144 219 40 178 88 106 47 178 150 64 102 70 182 33 
73 107 44 207 148 170 88 128 149 31 155 216 82 101 170 159 211 157 71 153 119 164 103 106 69 213 158 207 168 11 226 22 44 144 69 195 83 148 78 201 90 79 141 112 144 23 51 145 164 98 61 93 216 74 214 185 170 115 87 174 76 130 85 138 57 47 155 163 196 49 145 51 76 100 188 212 110 186 183 18 176 114 102 147 68 136 113 141 182 48 68 169 171 108 59 180 68 146 122 107 
60 104 120 234 90 192 33 147 21 208 99 95 29 56 176 123 76 139 123 103 74 194 189 120 139 95 176 172 102 100 38 124 72 76 169 73 158 42 214 76 153 179 190 148 117 162 204 157 181 65 85 136 232 171 105 109 108 147 207 58 178 151 125 207 132 93 148 196 98 113 160 131 127 85 57 52 53 199 204 93 172 91 140 36 124 213 152 111 28 104 87 19 66 129 165 122 88 101 69 175 
77 169 187 65 83 213 143 84 63 122 46 167 112 153 196 124 30 141 61 116 88 144 118 168 179 74 149 138 123 171 14 174 243 148 102 141 112 63 120 85 151 192 148 145 228 203 111 87 82 162 76 60 188 123 103 48 54 183 178 184 65 174 109 139 52 140 213 214 126 157 134 154 134 141 214 153 200 100 35 57 24 125 64 222 177 38 143 31 180 183 205 179 154 198 181 189 95 213 129 67 
88 80 223 127 148 78 105 140 91 116 101 112 198 77 43 202 193 62 98 160 88 60 94 201 69 70 178 108 89 242 93 153 169 38 211 142 70 187 220 144 69 163 176 183 222 230 170 144 27 198 169 190 121 96 65 142 109 104 205 174 98 148 25 80 188 125 179 101 185 128 171 68 98 88 165 187 23 59 190 151 63 83 95 112 58 236 86 151 193 208 91 127 214 186 64 194 28 161 106 198 
173 142 126 155 149 139 146 94 124 122 156 187 184 139 69 87 104 193 161 183 214 150 41 95 50 38 223 150 112 188 125 161 189 108 74 61 41 167 64 117 194 70 84 132 85 89 111 195 144 193 197 185 51 19 48 86 71 137 38 138 132 63 145 185 58 136 74 188 153 79 97 74 60 153 108 157 82 68 111 66 128 63 191 232 93 96 114 218 181 204 117 114 220 179 126 142 136 58 56 59 
122 158 72 59 170 204 116 61 136 167 114 92 214 164 173 185 152 54 178 203 188 207 161 31 172 124 129 53 202 66 170 130 135 131 55 137 95 182 199 49 146 62 242 126 45 27 104 123 220 63 66 82 170 56 56 221 43 10 45 146 147 217 101 66 40 173 127 98 65 135 24 88 87 19 92 169 187 57 129 182 218 107 96 167 92 181 24 16 108 171 152 227 99 189 149 53 79 101 38 167 
64 138 56 87 200 179 166 167 142 179 138 232 107 132 92 55 126 121 68 137 144 101 166 94 153 143 115 54 75 86 70 68 59 121 108 172 220 184 152 167 124 72 154 153 122 113 174 128 193 219 82 82 118 189 88 213 35 175 63 107 47 144 11 65 163 103 132 147 141 35 104 132 153 191 55 163 104 47 173 99 153 208 214 27 153 28 146 74 129 159 112 170 178 74 51 117 48 39 67 101 
142 204 179 106 223 85 198 97 65 87 93 129 108 74 44 163 187 151 28 161 169 48 55 25 169 108 91 139 85 205 124 180 151 182 201 65 55 116 111 177 108 106 142 177 171 51 87 104 171 222 181 84 201 33 190 149 151 200 130 102 99 112 233 92 62 157 94 31 161 199 41 36 60 178 162 46 187 155 106 125 98 96 162 227 151 170 38 166 143 132 75 121 93 39 26 141 120 206 120 152 
213 210 160 115 58 76 39 124 90 73 66 218 184 97 188 37 222 108 174 144 170 167 171 211 54 208 97 165 160 74 39 35 167 151 148 127 140 180 42 59 128 126 121 90 48 179 135 92 37 77 142 95 50 23 41 119 127 163 194 61 149 155 55 87 182 161 131 207 177 81 201 192 120 154 68 103 195 108 188 201 170 169 111 111 156 188 143 87 80 93 81 120 41 98 231 131 107 114 176 43 
69 154 171 225 108 205 68 94 56 169 163 95 62 134 139 127 76 91 177 86 175 67 35 26 54 150 83 159 211 8 191 53 163 205 102 216 110 83 191 170 36 223 218 129 182 198 63 135 97 119 176 189 85 86 57 96 137 46 133 216 203 78 99 177 163 178 48 26 149 123 163 89 130 49 196 53 35 166 53 202 12 177 178 215 126 186 197 94 186 187 136 156 148 72 57 62 144 181 88 179 
109 139 141 91 210 109 193 64 109 31 209 79 114 29 106 79 102 30 94 140 218 175 90 152 90 82 101 123 108 150 212 174 155 224 89 243 209 226 35 132 63 130 47 34 231 71 71 128 126 139 88 73 180 128 110 50 183 103 198 180 66 196 98 114 47 216 172 48 162 64 41 143 231 58 66 165 177 102 93 170 183 127 179 192 86 207 76 69 106 183 82 64 160 153 19 147 138 119 154 68 
183 191 126 61 123 168 69 164 187 163 126 168 100 124 206 51 145 107 169 91 199 33 103 207 200 88 28 140 49 47 144 131 46 101 200 192 165 70 90 94 196 58 185 171 168 71 179 99 36 75 171 104 178 137 60 27 138 81 163 151 109 55 32 64 230 39 91 114 167 141 155 143 113 212 136 136 86 41 140 174 148 167 23 131 28 102 162 132 213 128 159 64 173 73 186 116 105 68 100 96 
110 221 102 186 112 193 132 184 99 178 74 155 36 181 136 188 85 139 133 115 155 175 240 84 36 168 56 118 194 167 147 174 185 88 16 185 27 216 91 157 97 213 68 130 178 59 86 61 182 80 121 133 214 126 77 170 120 166 160 78 116 179 129 136 139 59 74 96 199 85 161 170 203 19 19 96 81 184 93 146 72 47 30 35 113 117 121 196 158 53 171 100 163 206 37 106 214 49 178 79 
54 164 112 161 159 197 162 89 87 191 88 174 119 65 132 142 26 115 156 100 208 185 186 199 207 57 159 131 59 219 198 166 190 120 57 214 94 38 63 95 150 187 168 220 88 182 106 61 137 102 29 206 85 219 17 128 56 215 100 211 173 61 177 164 108 134 117 204 105 49 114 192 181 219 37 74 182 219 41 238 64 160 73 140 166 235 29 82 100 75 67 145 92 84 87 62 24 146 42 26 
194 182 168 18 178 100 90 238 225 151 194 176 186 98 143 166 176 210 200 192 207 86 132 99 144 46 91 134 81 215 88 159 78 45 66 201 64 162 185 118 29 128 117 59 149 161 120 91 76 136 21 108 75 73 177 50 85 117 132 102 51 114 140 137 94 148 184 51 111 19 59 167 104 62 82 101 156 181 163 161 129 237 63 59 185 59 39 153 146 111 172 54 79 112 150 34 187 23 175 32 
198 186 163 85 104 181 51 157 153 224 201 40 84 70 105 67 221 94 180 188 158 201 110 129 145 225 49 30 67 146 58 80 57 209 139 129 93 111 214 169 195 73 243 115 125 113 74 166 182 143 120 121 98 121 68 83 208 222 87 180 184 182 185 98 181 191 53 16 130 177 49 223 126 74 98 194 66 107 154 51 169 53 139 156 18 242 133 40 60 65 70 103 63 129 142 129 80 161 94 122 
170 202 43 95 142 126 72 146 119 111 222 208 43 47 118 216 67 210 67 143 156 76 75 177 159 202 184 170 42 161 156 196 27 61 188 200 158 141 119 219 182 209 146 72 125 116 142 154 207 30 129 131 114 223 189 8 40 93 77 208 181 141 79 154 105 208 133 191 193 39 85 127 129 74 59 61 175 127 150 82 192 144 206 76 199 148 162 247 73 43 47 149 103 81 48 132 159 162 168 35 
196 198 94 38 125 106 53 172 104 220 41 67 54 140 180 216 48 199 39 181 117 63 50 149 194 93 178 176 131 55 130 126 118 41 196 104 204 165 95 90 123 105 231 166 100 178 141 208 159 196 169 79 144 125 51 162 188 208 123 101 76 36 200 37 96 209 88 193 174 219 200 145 199 81 171 62 208 47 37 88 53 156 136 204 173 69 189 166 77 139 23 189 135 200 193 20 24 29 178 186 
172 105 204 150 34 117 102 62 109 84 178 165 211 109 225 84 41 67 65 107 105 203 74 84 55 186 153 174 95 191 74 77 203 192 75 51 226 152 70 175 162 94 90 197 91 116 72 76 102 141 38 201 128 194 171 225 204 51 212 83 188 109 157 56 133 174 198 53 162 214 72 153 118 145 36 178 61 205 234 83 176 45 49 68 129 54 194 166 218 26 90 123 172 163 59 63 218 173 192 130 
164 185 147 96 109 83 150 213 37 49 79 152 125 106 116 179 108 175 39 90 80 181 123 194 160 82 117 157 95 176 68 68 65 191 118 134 190 111 87 85 73 204 136 131 59 139 35 95 82 179 73 170 99 119 166 40 88 157 89 133 130 99 136 52 46 38 191 204 30 197 57 148 128 167 33 139 67 114 189 132 79 173 125 24 116 127 12 207 66 159 59 179 56 46 84 234 193 194 177 157 
133 77 185 111 142 107 160 90 118 188 57 110 142 56 88 122 168 59 191 160 189 60 176 171 46 161 88 152 98 80 232 146 95 62 199 34 80 189 112 205 176 205 23 181 109 96 125 167 205 108 162 158 95 112 126 149 198 116 158 194 46 52 112 76 126 200 119 88 81 146 77 97 140 208 70 85 178 95 24 123 37 57 157 140 48 122 64 203 138 126 129 141 163 124 78 190 93 62 182 150 
176 49 205 216 174 203 93 246 51 83 108 55 102 134 204 161 189 144 168 55 156 114 243 144 111 140 207 116 185 122 186 170 116 182 93 152 130 147 65 207 124 170 148 40 74 53 156 148 164 161 158 180 83 196 78 142 157 95 174 47 59 88 137 192 215 99 127 135 165 82 23 211 200 127 129 82 74 69 32 188 52 60 79 189 195 104 161 76 87 41 162 106 129 211 32 151 21 83 147 172 
36 222 160 150 39 185 192 85 106 167 217 74 91 223 90 42 185 92 47 180 189 14 184 135 31 134 150 59 63 173 131 193 96 163 59 163 105 224 117 55 218 189 95 170 155 125 193 100 200 141 67 163 156 204 181 85 194 92 204 41 238 95 209 80 147 128 160 71 210 112 67 65 192 234 207 107 33 55 107 131 225 108 68 161 210 82 40 181 164 44 84 147 63 55 160 111 81 71 110 153 
57 184 201 92 45 200 100 69 110 155 213 56 97 59 100 99 108 209 218 104 176 47 81 63 162 188 52 160 212 151 30 90 68 40 113 154 199 210 176 177 109 218 136 117 79 93 109 53 129 191 205 170 87 71 119 64 188 64 199 190 78 183 202 91 74 182 181 131 107 95 134 82 174 125 78 129 185 90 96 143 24 121 142 54 125 147 205 138 149 152 20 141 219 88 66 34 167 109 203 143 
209 195 98 123 196 170 113 178 54 133 183 152 169 106 101 31 163 181 176 135 226 130 129 130 137 168 198 28 71 104 48 190 126 183 88 84 62 208 87 130 155 46 175 79 106 35 56 95 97 177 117 185 28 217 99 69 31 209 161 174 106 162 8 176 159 115 58 134 162 166 153 89 61 37 73 81 111 226 109 40 139 213 75 115 87 110 115 77 92 116 117 91 73 212 45 224 205 140 212 235 
67 191 27 95 182 63 113 108 128 41 174 57 74 107 83 181 127 118 57 192 66 35 96 147 162 133 104 165 189 142 108 106 29 54 225 202 126 72 162 17 62 79 57 88 17 177 94 46 194 197 74 160 38 135 63 150 139 184 199 142 123 93 151 92 167 134 183 158 48 150 99 135 177 188 9 111 220 61 236 151 153 63 110 92 108 154 65 185 197 176 190 95 135 139 159 48 120 103 134 152 
55 200 180 88 155 47 215 157 64 71 186 27 185 177 111 197 162 231 87 87 215 140 175 114 182 109 66 202 142 198 211 161 171 109 142 206 121 72 72 165 141 154 152 129 100 78 37 29 92 91 126 67 170 74 128 19 127 126 200 204 212 144 49 141 193 136 122 145 133 119 143 136 76 60 30 101 224 117 130 115 90 164 142 46 178 41 199 164 167 144 103 153 235 137 64 61 28 121 106 74 
79 93 195 19 72 65 149 153 89 137 46 55 191 127 43 76 150 27 183 214 196 129 98 181 86 228 204 82 58 142 77 68 185 65 91 175 179 69 36 70 149 101 139 228 107 195 158 155 178 157 73 145 131 90 95 99 213 222 80 192 223 119 30 146 57 43 205 47 32 54 22 130 145 162 246 117 118 183 34 160 37 109 63 113 166 88 99 106 129 60 134 219 153 122 149 212 82 79 163 175 
122 177 215 164 166 228 193 48 74 114 63 157 199 197 193 144 63 198 67 74 51 94 135 180 141 76 108 72 54 51 153 104 182 70 168 106 207 99 43 188 95 171 154 57 85 84 161 115 150 197 54 127 169 73 122 82 123 146 183 104 76 109 151 33 177 113 145 140 193 196 211 108 183 176 131 75 68 54 138 168 204 68 72 200 13 163 127 150 143 217 45 94 136 26 51 205 88 118 83 71 
213 132 120 229 45 39 96 244 66 118 159 137 97 88 238 119 208 36 34 77 190 68 100 143 74 19 182 62 147 121 80 70 121 127 158 89 155 182 130 117 59 90 177 184 86 153 147 136 99 148 113 113 182 226 150 94 163 207 74 185 236 44 168 184 31 83 187 184 95 97 41 151 135 16 80 93 193 207 116 221 232 135 68 86 89 149 145 120 200 100 120 73 201 181 71 185 31 53 47 181 
197 217 109 148 101 216 170 191 130 81 96 234 144 186 115 170 25 58 16 137 171 229 86 140 85 125 177 73 121 13 70 215 122 52 131 139 200 161 50 224 118 170 10 97 138 175 114 75 168 154 111 28 200 186 107 57 200 124 139 150 41 186 97 52 126 135 44 145 117 70 126 129 185 171 59 72 175 110 14 52 82 44 108 53 32 57 78 165 153 182 187 196 55 195 48 128 150 142 80 127 
159 154 137 71 107 182 199 98 99 222 194 121 91 181 33 125 104 200 177 163 151 121 119 217 119 60 117 82 168 220 91 35 118 169 83 94 161 102 181 225 28 201 133 82 100 141 53 117 158 135 117 168 145 117 145 155 164 166 79 118 168 225 89 42 102 159 110 45 112 139 23 122 159 89 132 66 101 76 17 126 120 78 62 107 74 206 78 129 137 165 85 117 87 107 124 86 38 66 204 194 
146 116 114 142 33 178 143 214 189 125 132 207 71 190 44 65 62 59 144 191 241 49 119 128 221 60 221 93 143 195 104 122 48 84 113 214 75 67 92 138 94 128 81 68 166 133 93 108 31 212 71 111 176 127 36 57 173 136 158 124 171 47 145 204 212 50 73 60 18 166 115 188 216 124 210 199 101 119 112 86 129 128 207 183 58 142 137 122 172 142 124 85 82 67 209 155 188 90 80 58 
199 85 105 127 173 219 117 70 67 168 59 94 47 106 200 110 162 149 121 65 126 174 155 196 105 227 42 104 116 80 207 42 140 74 78 155 114 49 202 49 64 206 85 185 217 92 97 77 162 98 124 132 85 103 119 115 93 152 15 110 155 37 28 92 68 84 19 163 141 74 179 180 105 179 46 125 154 159 168 127 135 216 145 43 133 38 37 86 26 30 153 81 85 72 123 135 213 23 65 181 
199 96 143 217 200 36 96 139 158 107 107 231 136 153 203 146 49 169 114 169 107 146 61 68 172 145 221 141 63 148 183 71 73 104 83 130 219 26 186 198 57 128 150 78 173 130 63 85 239 131 87 120 138 68 189 106 122 138 161 157 168 125 79 220 70 212 21 168 150 64 109 104 199 182 121 53 80 30 128 103 175 71 62 54 145 73 179 239 198 124 192 97 113 70 104 100 43 196 99 209 
87 158 180 198 221 87 92 229 191 126 55 178 58 162 41 140 116 181 51 158 94 88 160 124 165 132 163 164 180 209 141 59 199 122 110 148 124 171 32 156 210 44 73 188 157 155 96 156 71 92 65 202 159 158 219 49 149 80 116 105 167 198 54 63 68 176 64 118 29 118 196 148 101 230 132 163 58 220 186 133 220 204 47 82 93 56 221 80 102 125 165 105 203 154 170 98 48 32 156 197 
233 80 118 223 167 158 38 40 179 79 112 182 181 10 210 176 156 148 75 197 55 92 161 55 119 72 225 70 67 203 178 59 87 36 101 112 131 49 194 189 71 78 48 65 170 150 134 112 98 21 64 218 136 154 187 15 189 220 86 134 189 79 66 95 217 44 64 58 187 147 116 128 181 61 70 40 59 180 79 178 67 117 72 90 166 136 57 57 180 113 122 30 33 90 66 211 86 135 34 147 
236 66 73 121 149 174 157 77 73 110 165 144 135 201 197 69 58 120 225 118 207 188 53 92 170 145 133 225 135 184 56 206 177 193 36 141 188 182 55 229 157 44 72 37 162 182 67 129 105 136 176 102 136 45 117 189 130 148 135 226 136 166 105 149 227 149 41 115 147 23 30 158 181 82 199 238 63 69 227 151 87 139 153 135 85 184 57 118 76 158 158 147 217 25 45 59 151 155 192 199 
225 55 38 153 98 231 58 163 122 171 52 168 30 92 139 87 130 188 212 71 76 166 111 70 153 187 159 207 224 228 203 90 171 121 100 71 45 158 28 162 84 59 52 49 133 198 227 45 170 161 77 172 216 93 97 127 90 100 55 118 176 161 136 197 219 184 157 116 66 86 157 178 194 164 53 184 167 61 93 56 105 197 119 150 162 41 62 203 28 91 116 96 78 217 198 158 125 116 97 62 
174 86 81 22 197 115 70 69 99 103 207 136 19 86 190 93 215 132 49 142 61 155 205 195 98 93 125 190 34 56 130 25 157 89 92 157 206 75 206 151 18 170 73 138 97 79 185 117 59 154 53 170 79 177 227 165 165 182 116 123 32 191 179 124 151 213 100 156 40 130 88 95 124 78 39 50 227 66 135 89 212 123 213 87 67 143 103 70 128 120 71 25 40 180 198 170 17 167 67 134 
90 172 46 126 220 185 142 56 106 74 106 108 86 29 159 189 134 83 154 82 134 29 102 97 119 227 196 158 120 46 50 166 204 136 69 198 36 199 73 147 143 146 138 161 165 99 55 120 33 179 212 195 132 83 203 198 74 112 69 65 150 123 64 122 108 185 92 142 100 98 184 40 135 98 87 96 34 59 122 19 149 125 137 77 174 188 91 128 196 137 35 53 158 131 160 159 223 116 92 123 
148 152 194 72 93 233 138 145 104 61 120 124 62 69 151 204 106 89 107 188 138 209 195 170 194 24 194 129 73 71 56 170 113 119 203 151 132 221 110 67 174 95 180 135 117 191 140 28 138 165 175 224 128 190 41 172 84 132 135 153 81 99 79 156 95 116 103 223 156 180 129 187 57 181 83 118 58 142 165 136 84 28 187 46 82 66 76 144 194 194 37 84 66 129 70 44 176 218 187 66 
77 204 93 38 129 53 236 112 23 91 183 161 46 213 97 225 96 102 203 145 114 68 128 120 156 107 216 66 154 140 66 55 136 148 137 122 126 196 169 88 148 149 182 68 69 166 106 217 144 70 219 156 77 85 29 63 121 53 175 44 166 192 183 182 93 132 66 41 41 56 191 160 159 184 130 159 167 185 75 80 108 90 169 84 120 36 75 174 40 140 81 192 174 158 97 187 136 206 46 150 
75 27 132 70 95 165 36 53 234 93 86 166 171 145 154 155 185 103 108 211 191 228 136 58 100 174 168 149 166 46 65 128 19 95 152 165 71 154 173 135 106 64 63 171 57 202 94 73 103 75 171 56 141 79 92 45 55 77 215 155 138 88 221 78 171 57 12 177 184 67 174 63 201 203 163 16 243 136 59 81 76 220 93 14 135 162 214 175 88 85 190 174 70 148 56 225 48 186 122 135 
129 72 62 57 124 37 145 213 117 154 173 176 181 154 138 158 216 120 104 124 74 37 168 195 30 49 157 77 148 201 119 20 121 76 158 160 146 133 182 29 106 93 83 109 183 164 59 125 115 190 109 215 173 109 245 217 64 78 206 73 136 72 216 127 107 100 193 43 24 65 30 129 183 221 67 80 115 149 90 175 70 124 184 68 94 67 98 116 176 142 144 63 82 102 139 123 51 141 142 114 
41 90 221 144 69 31 130 127 206 99 173 223 111 126 197 71 126 144 110 126 136 138 192 48 119 206 22 136 41 93 149 140 48 158 49 158 121 197 105 198 119 163 47 196 219 108 48 62 48 185 89 121 28 109 96 50 161 163 180 186 186 91 48 78 195 147 135 56 173 148 89 108 187 169 185 195 100 193 166 91 162 128 87 173 52 215 213 242 103 115 136 141 126 97 168 95 116 224 116 66 
62 165 175 144 157 73 189 198 118 142 129 222 64 33 224 141 34 75 135 143 139 144 79 194 38 125 213 111 228 197 53 213 75 98 226 60 67 86 52 77 107 114 113 42 198 172 157 22 15 88 142 151 179 130 207 131 138 231 191 72 119 177 184 134 76 11 168 55 247 60 70 155 66 63 135 154 31 131 112 47 115 167 177 183 176 32 185 82 64 83 45 102 150 78 142 193 165 112 50 56 
200 63 192 83 185 92 132 120 154 111 177 99 185 51 95 70 114 191 201 78 183 50 115 173 169 103 61 157 84 176 82 203 114 206 153 72 136 200 161 129 221 136 57 201 123 82 43 161 67 120 174 64 71 66 72 144 65 173 69 119 204 77 99 60 64 52 59 46 195 193 186 217 147 176 139 117 191 154 114 22 43 130 125 166 124 210 115 79 83 20 170 138 70 92 125 114 110 169 144 86 
167 187 175 134 58 31 94 234 228 62 138 82 169 180 119 170 71 102 21 51 226 118 109 190 58 238 148 46 43 143 62 111 102 170 100 56 197 97 154 169 65 177 132 157 168 186 70 158 188 55 76 171 226 133 80 82 217 216 46 166 200 179 172 145 50 126 164 46 132 170 68 142 23 60 38 144 93 187 191 177 177 184 40 150 120 205 183 213 42 165 216 68 159 129 163 175 140 176 181 41 
77 215 102 191 170 151 54 148 209 41 30 70 74 68 162 198 108 74 133 79 36 160 94 169 74 71 113 45 194 208 69 165 125 104 146 144 188 120 58 97 94 60 179 144 74 185 44 156 89 231 67 94 95 67 102 147 179 76 130 105 36 49 56 145 79 67 177 58 67 131 86 184 208 182 167 33 135 138 82 109 165 146 105 56 189 188 104 161 127 140 172 212 126 80 193 214 121 46 88 90 
123 104 205 154 131 87 42 131 69 118 194 144 147 177 112 46 57 29 148 71 188 104 170 214 25 205 127 198 135 207 151 135 48 79 137 229 165 146 205 56 42 149 180 87 136 45 34 23 58 170 108 102 55 218 143 167 181 88 190 190 191 181 108 115 94 48 35 205 168 202 71 95 88 35 141 173 161 177 177 66 166 170 83 36 199 128 126 89 40 44 95 172 55 100 121 170 149 44 82 130 
72 162 180 89 77 124 109 57 103 140 138 181 194 232 215 41 56 25 62 45 232 144 202 136 149 195 112 104 193 116 112 159 80 66 56 71 149 138 217 29 113 129 185 94 176 52 218 72 102 73 194 152 39 143 220 206 122 174 124 220 83 170 153 192 68 173 54 145 75 40 102 57 206 167 246 152 10 68 147 70 36 128 137 232 187 31 53 117 97 115 193 220 205 116 195 221 120 121 87 66 
99 120 75 50 28 221 101 103 62 119 41 221 139 134 110 67 64 76 100 70 182 73 105 184 209 73 135 122 175 148 91 153 224 143 66 140 99 182 68 63 164 186 133 157 61 75 174 198 76 212 95 201 207 139 147 78 124 195 93 38 209 169 198 95 80 118 239 81 192 90 154 44 74 86 152 204 97 105 140 210 211 174 122 52 185 146 169 210 145 195 80 136 39 105 51 228 77 190 103 75 
230 67 162 188 204 78 52 54 136 215 99 77 75 166 136 198 50 192 116 84 147 94 80 157 71 214 91 215 43 148 124 91 192 180 33 191 129 101 192 174 187 133 162 195 72 98 227 116 168 75 89 237 205 117 132 94 139 51 122 101 206 154 187 65 184 36 180 69 75 133 195 206 63 155 85 91 114 109 150 180 172 65 166 164 98 26 79 175 30 145 69 33 84 143 159 37 147 75 53 114 
144 216 93 223 175 172 146 184 127 59 140 38 235 207 135 184 200 113 211 123 151 213 25 17 56 56 188 180 154 67 51 97 69 58 41 117 233 185 68 87 131 126 87 215 77 206 226 76 189 78 150 206 140 212 139 149 100 233 171 73 72 54 107 105 25 74 93 99 99 44 208 162 95 46 95 234 144 164 144 190 194 193 178 118 141 137 178 78 114 163 72 59 112 196 204 34 168 63 40 148 
142 72 142 187 190 67 130 202 39 162 150 164 162 51 184 191 115 57 104 171 146 172 115 127 174 193 145 121 217 133 162 124 59 70 88 83 157 69 119 79 190 40 113 114 203 181 105 45 53 106 128 48 106 217 24 51 119 80 172 151 34 48 123 179 169 203 185 23 92 117 242 221 80 187 150 52 180 208 57 113 20 130 109 222 55 175 134 196 80 33 53 151 172 145 206 179 135 16 63 97 
16 32 55 35 173 169 138 194 219 60 217 66 42 137 161 125 64 203 156 86 180 77 140 91 96 127 173 201 94 70 100 91 210 68 64 131 123 102 185 224 124 114 172 184 70 108 113 61 38 210 153 98 158 28 196 125 138 195 98 169 80 217 128 202 164 135 115 163 55 87 165 172 49 152 92 77 62 232 123 106 210 157 52 67 154 140 56 155 202 46 112 172 206 63 67 201 90 200 73 233 
214 190 157 66 123 147 216 221 129 73 173 106 71 175 83 138 120 53 108 179 48 154 213 213 61 43 185 82 197 187 123 165 82 51 159 42 139 197 175 161 112 188 20 152 67 186 190 113 175 83 127 33 129 43 145 175 158 69 236 163 87 99 194 103 156 74 138 237 113 152 68 86 92 63 87 33 139 80 164 111 73 70 148 62 191 230 100 50 12 133 137 56 49 154 86 118 168 171 71 77 
222 206 221 81 145 59 82 185 125 88 87 105 85 50 114 35 87 147 205 70 204 220 143 175 184 34 151 226 194 121 146 112 106 33 212 130 136 109 222 201 183 83 191 179 228 36 161 112 213 121 132 39 102 162 71 111 153 200 216 11 206 84 179 133 166 71 136 87 149 177 213 237 88 34 199 37 234 135 73 189 100 144 182 142 104 97 159 44 222 209 125 139 173 47 65 219 63 73 171 127 
75 184 25 181 31 92 114 81 190 129 70 211 56 47 77 89 63 134 80 153 140 109 144 175 194 188 152 226 191 189 42 54 104 35 184 92 215 215 240 119 82 133 171 86 44 61 149 142 189 174 115 96 205 114 100 21 184 61 104 68 131 144 131 153 80 151 81 137 147 125 153 92 97 46 64 188 79 177 86 14 95 215 199 158 110 210 170 65 112 95 35 116 187 196 79 223 83 129 157 153 
192 89 152 27 147 144 20 94 165 113 49 161 153 192 74 145 179 182 38 206 180 186 138 154 205 194 170 125 167 190 206 219 96 158 216 77 14 68 31 154 45 110 115 157 200 137 113 191 190 79 132 53 145 190 201 106 123 70 177 49 41 89 127 146 91 196 66 119 138 178 144 59 90 199 174 121 103 61 29 97 178 169 114 224 157 105 92 115 82 79 100 138 119 149 165 137 97 128 28 53 
132 66 174 161 147 151 151 185 102 77 104 86 81 168 61 146 98 96 93 220 142 148 57 183 212 100 29 68 46 68 139 118 190 207 93 153 188 177 35 127 150 173 137 121 95 101 110 189 175 106 130 150 177 152 122 232 122 45 45 118 58 85 73 78 61 109 151 227 111 197 66 194 194 210 161 85 163 177 123 93 44 144 185 181 60 173 56 174 138 170 202 101 101 52 85 42 122 112 160 167 
110 96 88 83 97 69 127 155 24 151 80 159 118 190 75 21 216 81 234 162 61 239 83 71 71 114 70 66 212 42 140 49 147 190 196 153 224 184 30 130 163 48 118 117 117 180 148 74 102 99 169 131 151 163 74 118 139 139 210 213 65 196 147 63 179 167 31 236 69 182 95 13 186 65 96 113 176 127 86 130 36 54 113 25 59 192 143 179 82 55 192 45 77 190 73 199 76 205 62 177 
196 111 67 163 204 65 105 127 190 243 37 145 83 86 167 107 177 183 65 61 57 175 61 100 83 83 85 112 124 170 58 65 132 197 67 62 166 40 107 36 101 173 118 55 238 213 174 158 173 125 59 5 171 200 59 123 204 73 61 149 154 161 141 38 173 83 156 231 109 49 235 130 154 100 79 206 72 200 88 71 117 181 150 171 69 179 149 18 162 102 14 119 56 164 156 156 235 66 55 28 
207 118 19 72 143 141 149 168 167 48 112 218 42 171 26 189 142 73 26 70 136 172 143 196 196 180 122 74 108 164 128 187 78 223 214 62 106 94 206 194 79 167 168 81 60 76 240 127 84 187 230 152 207 145 31 223 52 75 48 70 179 61 56 127 73 115 167 197 123 108 105 40 149 180 199 221 121 229 164 89 120 172 181 135 206 85 195 159 180 87 100 35 201 86 82 208 72 126 101 210 
118 131 134 110 122 160 134 97 172 94 26 50 221 190 160 85 89 82 145 132 200 179 187 77 85 169 158 90 43 164 34 28 162 62 39 50 105 167 185 122 129 28 71 49 178 179 109 94 198 147 189 122 146 193 71 178 208 203 200 191 139 85 144 160 106 190 45 168 178 135 140 185 182 89 161 121 199 165 137 31 228 111 69 71 215 107 42 47 130 86 107 97 169 162 51 114 35 157 190 125 
93 174 62 108 38 204 153 74 72 169 142 106 173 105 137 202 103 206 102 195 76 55 7 37 133 85 74 228 122 199 134 65 67 131 92 186 66 110 150 67 147 72 182 61 115 188 123 61 81 153 205 86 94 168 115 148 62 41 180 81 159 183 38 57 105 216 51 150 172 205 55 146 188 161 98 65 35 85 120 151 43 174 200 191 87 99 204 129 51 238 168 77 144 103 189 196 41 94 166 92 
101 130 120 159 179 85 178 150 229 142 126 107 147 154 58 194 50 211 82 100 188 88 153 204 104 96 115 103 143 189 183 77 64 56 34 75 170 193 181 27 32 203 126 145 183 196 108 158 120 92 226 80 125 149 118 41 90 54 101 18 130 22 190 43 106 110 82 50 67 232 189 160 204 148 166 84 201 112 154 134 174 134 81 65 138 89 73 180 116 80 150 129 63 52 61 44 163 54 50 182 
97 70 159 50 168 87 65 86 59 214 70 89 91 26 213 214 103 173 70 205 158 48 114 147 98 95 225 151 53 216 129 111 206 152 172 176 113 147 163 229 112 187 59 105 162 191 125 211 40 69 150 211 199 92 114 171 131 212 147 139 141 186 30 184 110 126 204 150 156 224 102 27 130 160 102 165 192 172 136 86 160 116 114 132 86 84 48 196 33 79 84 167 68 84 23 166 179 59 89 45 
82 178 156 132 114 227 120 178 38 111 227 88 184 93 163 120 185 115 190 159 135 47 139 81 85 124 119 68 190 83 53 81 122 135 161 126 174 162 198 112 138 110 50 128 138 129 155 171 89 154 171 165 175 55 145 92 216 158 104 138 160 68 170 69 118 59 69 235 52 194 176 221 180 161 122 147 195 229 217 190 201 163 185 150 122 85 191 165 149 236 226 171 165 213 146 175 40 191 108 161 
141 200 103 126 116 101 68 53 97 140 120 141 169 161 162 202 219 149 213 174 235 209 118 94 36 210 143 167 65 178 78 121 231 199 83 141 155 127 85 134 96 120 124 72 43 74 82 49 215 98 190 201 76 35 77 95 69 72 171 189 86 89 46 73 91 46 127 104 116 170 126 98 96 184 56 190 183 128 213 68 106 242 129 222 121 65 214 115 169 165 75 123 217 147 40 122 77 115 79 153 
141 183 133 184 62 76 63 129 79 165 138 96 195 244 99 103 93 206 38 78 122 89 234 180 62 166 157 133 207 110 133 143 93 67 98 109 174 36 204 149 194 193 67 173 209 215 59 64 197 106 38 226 157 89 114 135 198 141 136 230 145 148 95 50 58 198 28 156 166 154 110 152 148 164 208 103 169 66 129 63 152 187 103 187 127 142 185 105 67 52 92 145 222 209 190 129 152 157 40 140 
155 33 61 125 125 32 128 190 102 204 59 215 148 228 162 193 26 198 77 185 34 176 128 213 135 108 144 192 73 62 72 202 152 66 103 162 137 174 182 218 63 81 49 62 67 134 126 185 184 57 66 131 128 77 191 191 58 27 210 71 161 77 73 227 158 250 199 79 141 108 172 242 106 84 202 81 180 164 160 198 78 155 176 53 84 131 134 156 36 129 61 147 169 29 156 64 179 74 42 98 
