P2
100 100
255
60 172 107 119 100 150 32 141 216 89 149 140 125 153 96 123 179 128 170 172 46 46 142 158 165 109 135 130 159 82 122 164 112 125 78 94 61 53 140 131 198 124 83 120 146 204 82 191 171 118 143 50 155 88 59 139 66 178 120 132 223 123 29 62 166 122 190 175 190 83 47 95 78 195 164 122 140 185 114 97 52 113 75 148 37 164 158 232 181 152 154 82 159 32 30 41 174 156 54 165 
93 169 186 139 174 116 176 216 131 117 137 155 89 123 174 141 87 144 189 200 52 206 142 200 72 66 69 75 172 169 107 193 190 124 179 173 114 113 56 68 153 48 152 149 192 154 120 206 97 91 51 101 65 40 112 202 92 125 172 212 63 105 123 206 62 65 42 126 222 105 155 78 118 165 15 48 108 122 229 92 118 141 96 203 106 152 70 82 115 162 61 220 143 71 146 172 191 118 72 97 
67 151 59 151 155 187 135 199 144 185 91 123 171 146 128 173 213 206 83 171 63 136 207 75 49 142 169 170 99 128 207 121 90 168 149 144 57 72 51 48 63 60 151 92 118 101 95 210 143 21 167 83 68 33 125 10 62 163 94 140 181 99 119 55 61 157 200 187 118 144 92 117 93 90 83 207 114 116 217 142 79 93 126 161 136 168 35 156 108 89 75 202 135 220 76 121 82 84 187 168 
230 155 158 170 96 225 128 215 63 227 219 54 128 194 149 90 166 196 90 34 48 127 86 127 27 190 117 122 100 222 169 80 84 208 210 183 71 234 199 154 161 104 196 112 170 205 33 130 191 240 215 175 110 97 106 188 91 141 144 166 206 196 61 176 156 137 178 131 61 94 185 195 66 161 163 160 179 232 240 121 118 196 140 123 178 93 151 133 89 47 229 62 114 148 71 53 145 130 96 134 
146 163 172 165 217 44 40 73 138 128 101 38 135 211 38 72 181 132 90 176 101 185 118 54 51 120 136 174 136 190 101 93 110 139 204 84 57 132 186 73 18 240 77 168 96 173 186 92 32 158 94 85 43 165 180 87 65 108 126 54 93 154 195 65 159 169 100 140 59 155 194 132 223 161 52 133 83 98 210 181 107 74 216 232 100 67 140 115 81 142 117 170 47 81 65 173 166 70 64 82 
193 49 51 172 116 165 66 159 211 73 47 105 153 57 212 116 193 153 83 152 132 144 197 131 115 172 20 156 102 229 112 124 63 32 165 160 106 81 175 119 199 28 38 92 45 218 184 134 83 34 185 160 81 72 49 37 177 153 43 158 63 75 90 199 107 127 182 22 143 42 165 73 230 172 165 162 125 97 192 117 95 21 51 194 76 105 70 171 191 153 76 57 206 183 43 43 168 179 74 60 
52 58 211 98 132 146 231 140 211 129 124 141 212 35 98 199 155 55 35 103 38 87 87 224 70 152 74 72 196 69 135 102 70 158 68 157 144 98 201 154 132 176 157 158 75 171 121 60 174 208 96 82 148 60 169 176 94 166 189 127 112 151 176 67 103 148 120 127 171 191 57 194 126 95 55 161 172 142 214 128 43 153 145 67 224 187 169 138 172 178 40 52 132 120 97 104 206 76 130 98 
232 109 195 125 112 232 66 199 113 85 155 94 60 211 63 182 53 181 110 65 202 205 188 164 82 51 156 124 209 41 205 51 46 167 111 128 106 54 85 167 134 68 72 159 215 106 61 208 136 70 145 194 54 17 100 39 129 157 27 138 193 28 151 114 147 160 177 58 101 63 190 64 99 172 81 197 108 53 144 138 180 39 103 164 27 207 222 103 71 167 71 97 228 100 180 117 134 121 189 84 
76 47 84 200 165 31 176 216 39 103 209 49 181 159 126 68 160 161 178 130 158 84 119 67 138 154 44 111 73 136 154 43 37 204 58 170 196 55 82 205 182 112 43 48 176 209 100 111 102 171 187 209 209 145 116 193 173 191 127 140 163 75 194 155 35 156 105 181 205 38 210 215 73 99 206 64 198 185 66 182 206 209 98 90 210 139 53 73 155 150 183 83 125 44 215 99 192 81 170 144 
168 110 120 171 182 38 28 22 191 141 67 99 173 100 180 223 77 50 110 121 200 142 109 38 54 173 226 46 102 170 144 158 67 145 86 195 226 114 167 119 207 83 214 95 164 95 38 123 86 57 26 122 140 178 136 91 41 55 93 126 173 52 236 27 206 60 113 169 134 186 190 212 83 119 85 134 48 202 91 202 122 161 159 67 92 161 46 40 19 117 103 134 132 198 128 199 27 144 81 178 
60 75 200 58 82 36 104 106 165 155 134 230 127 160 56 100 191 28 79 159 152 95 175 55 148 94 92 95 91 142 99 80 23 68 53 46 113 194 110 26 165 112 157 102 118 182 185 65 101 85 61 69 199 151 47 69 85 134 199 190 139 87 97 180 139 155 38 112 48 157 61 65 143 123 170 67 163 128 63 201 205 175 107 143 221 197 158 78 149 49 144 156 32 210 51 170 34 115 169 200 
199 205 132 111 226 214 150 206 205 41 165 64 204 167 203 49 106 150 182 236 216 33 170 157 193 160 189 215 124 159 109 71 144 195 208 56 73 101 171 72 67 156 192 148 159 159 171 147 120 138 153 193 73 101 181 92 155 181 157 178 208 146 182 190 200 53 123 119 131 207 35 134 234 173 167 123 150 33 31 239 85 204 141 183 63 70 52 113 141 97 177 160 131 32 59 85 160 72 133 86 
181 180 50 182 121 162 179 187 95 150 162 46 183 99 26 123 101 87 167 50 135 58 209 201 137 44 185 34 61 121 133 160 70 150 197 44 80 132 207 48 86 59 206 149 100 97 205 126 96 211 93 174 52 156 211 178 181 188 116 121 19 147 162 177 82 164 18 31 126 148 168 91 137 180 197 174 67 31 171 116 197 62 104 36 92 117 64 181 179 140 105 207 156 233 24 127 210 147 165 109 
175 96 144 9 111 51 80 93 149 46 99 47 191 113 182 204 143 129 158 70 98 146 194 187 59 101 213 62 227 32 120 217 74 28 168 135 138 120 144 105 104 94 92 110 53 135 150 184 170 132 229 182 52 91 53 90 190 87 87 99 85 188 143 59 165 167 243 73 180 148 61 223 44 69 78 162 199 56 220 85 54 182 70 220 138 170 74 162 87 55 57 88 221 77 146 115 175 127 71 187 
202 207 166 11 73 244 100 186 94 175 100 79 90 175 136 190 175 94 85 145 210 130 171 207 150 126 212 212 118 138 116 169 46 63 67 71 176 105 47 216 113 135 123 140 81 136 83 129 167 224 115 133 162 92 152 192 63 145 17 99 192 53 195 162 53 140 212 171 129 204 91 81 81 181 18 194 155 172 82 133 163 207 101 67 14 170 93 109 44 147 100 244 150 208 146 132 213 176 72 172 
60 85 104 71 157 130 189 213 45 161 121 91 177 161 206 185 126 111 121 219 218 190 216 114 41 123 175 120 165 115 130 47 182 143 193 172 187 64 137 94 85 138 117 110 123 98 57 197 129 166 89 92 35 71 165 151 179 207 216 208 129 162 106 133 199 123 56 171 120 178 80 110 234 99 228 227 127 186 80 81 135 110 27 65 70 73 218 178 104 198 189 80 99 38 47 153 196 145 68 137 
107 104 203 83 113 181 128 82 201 197 206 170 143 47 217 65 42 193 122 111 210 113 185 174 149 152 112 109 76 72 89 209 136 17 191 81 66 49 133 176 217 147 155 53 75 200 138 115 135 20 160 176 97 155 124 134 192 162 137 72 163 52 127 122 110 45 120 38 70 180 71 150 185 93 38 58 148 107 69 126 73 38 218 93 172 136 182 88 127 139 135 157 38 176 209 135 123 107 164 38 
118 185 78 209 177 222 119 185 50 191 204 50 61 222 202 163 150 177 117 101 202 22 74 70 143 126 154 39 172 138 92 128 32 51 227 225 69 142 132 105 101 154 180 98 176 228 84 151 232 124 36 90 110 85 105 179 139 82 26 53 184 66 99 161 65 180 188 170 87 178 81 234 53 132 45 39 148 159 155 56 137 172 112 194 166 122 185 24 203 123 68 69 116 108 51 171 183 151 68 95 
139 91 101 77 220 196 64 44 119 138 112 61 142 134 98 42 183 100 108 195 67 67 85 81 104 141 108 87 66 165 196 138 64 33 98 132 165 54 57 141 124 73 126 55 185 148 165 59 231 174 42 139 91 227 20 54 218 203 37 156 174 58 54 76 136 80 197 82 69 140 74 120 97 59 211 144 209 238 53 185 98 154 90 197 177 116 142 21 143 87 171 175 87 23 182 132 204 144 138 174 
156 82 109 42 210 99 160 180 160 183 70 207 215 111 199 57 161 158 177 135 46 68 130 70 211 33 185 77 181 156 133 27 101 222 207 146 109 49 210 107 210 182 60 73 180 215 62 161 83 179 84 129 214 184 144 82 142 52 169 171 91 58 37 119 115 239 184 112 175 100 124 158 149 30 126 64 175 163 83 167 53 133 117 142 61 191 93 85 42 108 160 176 94 18 142 202 173 116 145 192 
76 56 190 167 204 86 152 180 207 108 223 169 166 110 108 83 141 138 111 109 103 180 163 41 163 40 86 53 94 210 65 81 189 57 47 154 194 210 124 159 188 78 137 108 141 116 204 186 186 226 70 43 112 126 181 222 124 192 187 54 47 118 99 116 150 101 69 116 169 181 217 149 189 191 155 156 186 169 64 171 126 119 167 50 156 110 37 49 97 39 116 168 211 204 130 140 104 77 171 139 
230 186 212 110 137 82 204 27 211 202 27 96 209 163 132 105 179 51 146 181 70 206 1 41 89 150 161 95 64 178 147 194 208 167 129 146 129 74 72 107 203 123 118 46 95 30 140 123 99 62 77 182 38 58 163 94 164 107 110 156 101 176 188 206 200 53 144 54 131 78 92 232 115 76 179 130 141 128 34 152 116 116 107 149 182 99 155 54 231 210 104 101 117 160 182 164 76 207 146 52 
119 23 87 79 92 203 164 33 176 176 177 140 143 203 181 124 127 56 226 120 96 85 105 149 82 183 144 101 93 42 70 158 98 26 78 142 75 205 129 160 81 172 74 179 65 43 184 20 193 194 184 90 183 205 184 129 58 102 101 90 193 48 96 228 114 131 50 172 36 178 204 164 180 118 223 63 204 84 117 58 183 113 202 189 71 108 54 83 163 118 177 111 139 192 142 181 202 178 204 154 
64 203 41 146 203 174 156 42 179 33 172 166 128 89 18 126 73 134 109 166 63 151 164 163 66 209 175 163 178 181 59 162 57 189 183 188 162 136 175 215 141 92 111 205 50 181 93 96 166 193 128 192 196 109 73 219 66 55 169 134 197 128 146 212 4 99 107 53 107 126 98 158 142 79 189 91 81 47 119 73 180 118 164 79 169 126 51 203 147 178 112 55 70 56 84 216 180 135 194 167 
99 87 124 98 197 23 161 195 214 22 151 195 134 32 132 121 238 217 105 62 68 109 181 138 101 105 62 92 112 198 56 188 142 65 72 44 147 27 136 119 55 78 71 85 106 78 41 71 70 77 166 130 78 151 155 214 107 75 160 34 84 135 45 129 120 43 65 102 27 152 42 140 54 24 177 103 173 123 110 107 109 232 178 70 220 74 66 79 122 146 101 173 74 179 135 162 140 74 34 111 
182 111 115 207 49 182 190 113 89 134 165 235 167 158 73 145 37 74 117 95 187 184 59 75 202 71 57 128 166 211 145 78 129 53 80 116 39 65 120 182 70 207 201 34 76 108 130 181 80 37 220 141 105 186 40 38 110 192 54 13 64 165 77 96 167 61 212 63 104 80 208 88 119 48 153 174 133 109 125 148 125 61 115 24 92 226 42 93 123 140 132 74 200 151 230 224 66 94 134 162 
198 174 123 130 206 68 161 189 116 183 88 50 136 85 202 125 144 184 204 143 26 199 169 176 139 129 112 178 121 136 233 204 130 204 121 67 230 30 77 37 125 215 175 146 170 197 82 74 66 166 198 198 97 108 191 70 146 103 19 49 110 154 39 240 77 78 155 76 38 118 132 148 29 221 85 131 125 166 202 226 132 115 154 47 85 198 93 47 151 25 68 172 154 97 91 95 213 107 155 240 
51 195 216 180 114 104 105 139 118 204 122 172 200 224 193 63 88 148 155 182 147 228 142 82 65 148 135 53 209 166 30 141 168 98 55 143 116 203 95 132 199 210 166 156 182 128 129 186 192 122 68 213 181 211 26 198 65 150 50 136 133 63 158 159 191 202 163 235 155 188 199 202 190 62 164 148 105 176 33 173 201 148 139 53 165 48 114 155 29 208 157 169 106 202 160 182 142 186 150 64 
72 175 103 64 171 73 122 173 57 106 90 18 40 84 161 120 74 203 146 45 77 209 173 179 100 104 119 203 66 170 44 61 159 58 172 133 197 97 234 130 90 192 55 171 74 207 108 111 130 95 126 206 134 31 176 160 34 183 141 67 99 210 106 43 170 115 110 152 133 138 166 128 139 95 113 223 182 220 104 198 28 203 180 123 185 57 103 232 65 98 250 134 229 64 170 124 71 176 141 61 
73 149 25 153 206 160 93 143 74 192 191 110 40 195 64 182 29 39 92 81 135 193 139 133 189 125 183 169 119 114 69 177 74 157 64 112 130 145 81 104 118 179 86 38 163 105 142 162 124 54 49 209 25 114 44 70 139 95 167 117 131 108 152 66 148 234 56 45 137 146 194 34 34 80 24 141 84 202 121 192 68 159 169 117 40 186 40 152 94 146 129 86 178 120 213 110 143 119 76 191 
138 188 49 117 237 156 145 74 143 101 90 74 67 193 148 129 51 224 180 183 55 90 100 41 43 191 143 80 63 124 89 146 34 69 144 170 73 35 165 87 108 43 61 168 125 180 191 153 15 144 185 186 183 96 190 128 160 107 44 94 114 138 167 102 156 176 84 62 166 146 162 135 161 188 90 53 202 96 35 84 139 204 166 87 153 79 178 231 88 123 157 178 63 160 138 128 201 146 140 86 
176 92 151 83 148 152 53 183 67 143 93 81 157 150 76 147 192 160 97 206 143 126 103 65 147 131 163 54 137 155 181 119 161 143 183 163 106 166 141 36 119 87 69 196 90 86 215 118 111 207 188 230 75 141 83 127 36 83 159 171 198 85 88 83 200 83 176 150 132 101 56 25 20 68 66 158 114 169 21 176 58 235 143 115 194 54 168 93 104 76 111 180 180 184 86 69 66 188 61 106 
205 48 60 176 98 60 39 66 195 68 55 192 119 172 116 63 204 63 157 154 160 187 129 207 235 181 96 75 182 188 162 235 67 78 38 191 146 29 204 194 107 40 160 121 198 123 98 175 36 63 180 218 35 70 154 38 129 51 114 203 190 126 90 135 32 56 143 204 126 151 126 91 221 70 141 159 219 205 128 111 117 211 167 74 77 56 121 80 116 198 172 123 130 46 143 103 76 146 146 76 
103 147 163 131 51 228 132 183 129 116 74 126 98 127 127 179 45 111 177 40 152 59 95 64 77 148 50 170 116 223 65 169 215 173 27 213 167 122 108 57 166 222 221 72 82 189 185 140 112 102 183 211 115 179 213 94 68 141 208 112 32 69 46 27 182 134 143 195 59 70 176 133 189 150 113 180 109 72 98 91 85 183 145 211 229 87 113 53 55 123 29 64 60 178 146 120 93 16 127 100 
130 94 106 143 38 129 225 215 44 34 209 181 90 81 37 21 102 205 87 201 45 81 32 218 69 153 66 230 77 40 98 80 193 63 66 196 229 56 92 218 133 139 33 161 95 119 61 186 122 68 102 102 130 157 85 233 178 152 54 174 52 66 84 92 216 40 164 151 53 85 141 129 121 124 63 39 134 118 166 77 89 126 209 108 136 146 101 114 198 87 119 70 182 152 179 53 20 144 50 100 
81 84 62 118 146 83 181 40 148 53 199 157 129 225 212 35 117 184 168 190 213 213 178 117 118 167 55 64 87 68 101 81 28 131 93 66 44 184 179 232 123 64 78 67 97 129 155 98 147 163 37 152 174 127 72 233 200 213 104 123 205 120 129 193 136 191 204 172 160 216 79 166 174 68 137 192 126 169 233 89 67 60 225 63 180 161 73 175 214 177 139 160 45 155 176 202 80 195 117 70 
129 158 176 163 108 226 222 161 217 177 196 159 138 54 99 201 140 121 192 146 219 76 98 208 233 175 184 82 172 191 213 216 61 119 75 197 109 125 117 66 198 92 84 161 93 97 213 147 69 20 78 122 74 162 125 87 141 132 169 84 75 181 89 129 130 97 49 23 51 62 114 217 77 31 40 209 185 151 182 119 95 63 193 213 167 182 76 79 176 192 110 56 56 198 112 220 124 113 128 207 
145 178 196 27 54 122 204 121 122 74 77 90 54 112 39 121 165 197 167 189 159 142 62 86 73 149 127 68 45 122 50 222 92 126 125 61 73 140 147 59 48 150 88 197 161 149 218 150 21 2 198 42 180 148 106 68 175 217 65 158 67 200 178 149 57 97 230 181 163 124 150 187 127 76 136 95 111 100 217 205 98 82 77 150 164 167 219 85 145 71 44 186 150 110 83 178 146 77 56 145 
218 151 165 141 102 48 131 192 89 52 190 48 130 50 108 115 153 74 133 158 105 223 135 188 106 87 174 170 58 207 215 192 93 138 135 89 167 153 58 40 103 175 58 122 164 124 217 46 125 168 71 140 107 73 202 156 127 101 163 77 200 173 33 171 34 94 167 159 51 176 67 176 140 156 212 237 169 218 148 167 109 57 74 237 155 96 199 109 67 51 221 53 115 16 170 66 80 109 110 193 
24 80 170 104 143 79 88 186 41 133 105 155 92 205 179 103 185 42 126 214 239 152 116 185 142 176 93 177 137 64 153 33 18 83 96 164 99 155 231 198 139 99 28 110 116 57 51 88 172 78 84 56 176 106 236 228 182 101 160 192 149 109 58 143 119 96 79 131 239 202 218 220 177 148 160 33 45 161 143 77 208 85 70 151 70 51 28 40 45 188 188 131 114 77 183 75 106 221 58 153 
217 142 85 54 222 107 64 43 162 123 184 29 192 19 104 210 112 134 94 91 76 187 208 81 134 135 38 163 81 203 49 74 215 99 135 83 116 111 49 101 42 84 99 121 230 212 69 86 113 132 195 37 141 17 172 70 197 190 85 113 186 116 85 206 61 237 48 86 203 112 172 167 198 32 150 31 167 139 179 77 40 203 140 151 41 149 51 55 179 227 126 37 29 122 165 164 180 154 100 75 
174 220 124 79 136 74 187 192 110 108 51 202 96 91 78 41 222 71 152 173 128 54 76 20 209 143 104 165 191 106 23 175 84 218 122 145 145 97 46 138 140 207 186 128 63 200 194 131 178 98 84 164 98 204 144 171 178 163 158 98 206 25 109 152 113 139 77 128 92 164 49 201 148 172 142 169 183 156 80 111 87 160 85 154 63 194 104 44 99 190 196 216 140 82 81 83 116 48 202 131 
66 39 186 194 89 76 81 83 181 100 51 124 86 94 226 75 56 104 119 33 185 33 29 184 107 101 147 126 177 48 146 111 55 89 54 96 220 45 118 213 101 63 140 211 130 193 166 52 132 133 29 57 205 71 189 50 215 54 74 79 204 230 141 70 97 25 163 175 46 132 81 51 127 140 89 60 108 214 204 98 191 150 178 125 131 57 54 102 180 157 109 52 60 224 198 136 77 73 69 49 
140 122 116 59 106 67 29 157 170 166 64 96 166 87 108 150 71 172 221 191 48 154 92 200 62 206 35 36 98 142 177 177 136 128 65 72 173 85 98 182 127 197 68 82 146 131 144 131 214 155 95 168 26 65 53 134 49 194 67 15 143 148 113 157 192 62 154 68 126 66 139 100 199 156 211 172 152 154 191 189 94 115 83 159 86 56 135 176 181 76 153 63 186 114 155 217 15 45 178 195 
155 201 158 150 110 177 163 27 73 111 39 129 52 163 146 232 175 67 59 102 64 91 162 169 93 99 141 153 115 218 116 192 85 183 96 133 170 88 150 194 114 145 70 85 90 146 114 209 75 71 132 168 155 234 119 95 63 64 206 173 130 135 201 100 219 111 45 148 192 75 122 53 61 78 187 103 166 39 145 123 204 148 167 229 51 146 178 105 155 61 163 75 136 136 234 150 138 188 101 141 
52 246 181 153 28 205 177 140 129 118 114 156 219 144 129 59 178 60 49 201 98 198 210 127 133 179 142 145 209 210 57 97 102 19 48 96 159 133 48 63 193 97 175 79 152 36 139 98 91 179 87 59 106 99 86 127 95 59 193 199 70 157 136 57 187 98 129 209 164 93 82 143 119 231 130 111 137 137 183 99 142 71 82 157 45 183 25 163 41 82 100 92 135 173 36 63 215 210 120 139 
111 137 178 168 143 20 69 48 49 75 68 130 64 54 48 233 202 65 90 132 149 79 220 60 125 119 165 173 116 50 182 131 124 164 91 166 66 32 87 94 114 89 199 250 144 232 43 59 168 93 132 180 128 66 160 66 171 111 147 120 132 101 86 21 190 49 75 153 90 159 68 29 120 220 84 199 162 40 131 221 202 156 67 177 193 66 149 33 53 162 86 197 81 98 124 230 106 142 100 91 
58 82 73 129 170 156 37 185 149 91 189 178 157 153 173 97 131 178 177 109 111 120 175 96 43 223 166 140 133 147 90 89 168 62 135 155 191 105 202 98 187 227 181 115 61 86 115 211 189 221 82 77 156 40 171 115 192 115 165 167 110 58 118 161 213 59 93 138 199 152 131 193 80 59 140 95 202 134 134 115 67 126 78 158 59 170 191 225 171 162 213 120 43 74 222 163 127 118 67 87 
231 148 75 86 196 99 137 140 106 120 202 160 151 40 65 102 63 116 55 77 161 54 34 161 82 127 168 209 75 223 120 32 150 133 206 173 106 201 117 165 219 154 105 140 60 112 66 139 52 168 122 68 32 76 169 178 179 112 87 161 167 134 64 116 32 163 203 67 84 82 42 208 29 106 79 104 100 166 54 93 214 224 110 214 80 160 198 90 45 140 129 66 188 215 172 128 174 114 179 197 
179 90 117 145 176 73 122 141 59 142 80 137 134 66 122 91 181 53 167 104 91 121 210 170 158 115 183 126 212 65 45 232 51 173 128 155 111 61 151 211 156 62 74 185 92 51 186 85 42 140 152 86 106 63 154 108 178 73 85 143 36 185 184 65 144 188 134 94 90 137 102 26 142 52 149 154 182 62 186 92 192 41 40 82 32 166 46 136 110 50 171 173 219 112 106 207 117 87 170 176 
175 35 139 50 204 145 150 57 158 101 118 143 185 217 82 119 124 44 130 137 101 213 89 122 118 80 85 106 84 154 218 87 68 139 40 162 51 56 63 66 178 194 88 120 124 70 47 138 138 93 156 93 194 71 78 146 182 192 194 48 111 106 45 113 183 151 117 66 61 66 124 194 74 198 144 125 164 143 38 96 178 121 191 84 86 84 99 184 100 210 126 91 225 90 41 161 188 58 139 154 
199 94 174 139 172 194 157 179 214 98 84 18 81 50 148 80 192 105 212 66 60 122 53 130 52 166 220 150 119 137 39 124 78 173 61 48 24 207 208 151 114 106 192 217 97 182 189 135 169 78 205 167 69 114 84 194 98 111 49 183 35 67 148 52 144 117 167 86 198 160 59 79 197 165 98 74 69 221 166 188 152 172 247 101 111 82 108 117 75 71 110 20 101 187 79 126 68 215 54 66 
231 68 65 78 103 151 74 215 134 114 196 89 186 143 164 104 119 51 198 127 92 91 178 131 85 72 94 79 43 192 86 54 98 149 146 54 132 130 195 146 166 45 101 35 130 89 89 48 97 151 163 67 93 63 85 197 202 113 131 207 134 97 81 180 119 90 122 127 198 142 214 177 211 120 55 192 42 113 146 67 115 35 233 154 171 117 51 30 78 25 69 202 143 163 146 89 83 67 144 67 
140 122 114 85 219 31 146 169 132 77 193 125 215 74 43 185 118 102 131 93 163 175 209 219 72 125 175 74 162 107 168 196 80 185 78 149 101 174 70 197 205 26 204 58 66 84 172 181 80 98 174 170 92 147 145 67 96 80 38 201 193 132 91 217 115 188 142 140 27 191 46 207 116 40 51 192 227 119 178 196 184 205 84 72 137 77 111 179 120 217 175 138 60 134 60 89 37 118 155 202 
199 94 170 133 200 145 85 59 130 132 213 95 57 169 95 155 165 189 79 213 157 214 126 179 49 85 48 156 77 173 137 112 152 114 73 110 149 24 78 194 54 100 139 118 66 42 177 49 175 176 83 44 170 59 132 185 129 132 194 215 55 166 67 126 38 175 208 90 185 197 126 124 138 231 75 125 169 174 151 115 113 81 213 67 84 100 118 162 187 173 91 228 73 151 58 55 156 118 106 65 
93 196 112 30 133 45 48 219 192 69 169 63 117 107 129 122 234 178 137 83 129 194 127 134 60 76 56 118 66 120 202 151 133 98 195 175 167 92 88 143 27 184 195 101 68 87 167 140 56 188 39 230 160 169 85 95 145 75 87 180 122 133 58 151 151 58 123 93 188 78 202 204 133 34 121 55 116 73 88 246 120 76 105 32 64 204 93 110 130 108 107 97 184 72 78 198 23 116 148 116 
54 69 207 152 166 180 112 37 215 196 156 129 136 199 172 63 102 67 161 110 168 182 185 132 153 37 138 85 65 122 211 95 168 148 137 242 166 95 71 68 179 147 105 231 75 128 231 78 215 134 97 142 130 129 176 131 119 171 212 39 71 99 68 198 69 79 128 148 139 162 148 101 146 64 168 123 151 187 135 47 141 220 76 212 116 70 169 123 26 150 239 148 211 44 100 105 192 138 81 215 
65 140 98 213 174 165 83 48 91 120 196 35 160 124 87 74 113 47 198 57 150 99 216 92 157 132 126 52 9 167 22 120 240 142 149 37 179 159 54 208 108 203 206 189 127 135 234 104 198 78 129 246 193 232 112 231 57 108 229 42 14 159 56 105 81 120 56 154 73 223 96 82 55 158 234 244 73 88 87 221 35 143 191 181 157 229 101 78 175 101 105 140 193 69 165 142 226 65 102 167 
197 42 79 87 111 7 222 85 209 219 179 157 16 154 121 95 182 152 143 102 170 73 30 183 129 134 100 107 151 119 51 98 69 81 121 104 164 216 36 66 124 143 88 163 107 50 14 109 106 190 83 79 218 173 68 128 59 162 162 199 52 195 96 132 156 185 109 211 56 135 140 150 44 128 211 71 199 233 56 133 193 97 103 36 25 226 121 128 183 209 170 99 59 227 163 172 183 159 225 194 
44 114 131 23 166 98 74 104 184 187 134 110 66 222 119 92 212 78 106 173 179 94 131 151 201 140 51 57 89 177 182 90 142 108 49 199 176 119 35 102 18 212 202 112 116 96 195 112 192 157 208 157 57 117 225 103 76 80 137 202 144 118 154 130 188 85 125 151 64 243 38 162 129 37 99 210 65 91 168 93 53 169 106 85 209 96 118 57 128 166 101 102 168 76 99 202 114 90 154 178 
162 155 94 218 111 185 132 191 101 218 201 55 134 193 203 222 118 160 118 132 162 40 113 165 144 109 31 207 168 67 192 42 121 115 180 156 31 77 95 60 170 148 228 144 161 197 36 68 141 89 30 144 123 172 226 135 198 135 106 227 214 68 49 227 200 145 195 171 130 187 75 97 108 82 102 167 162 96 170 94 192 126 55 100 204 214 61 43 166 112 166 166 164 214 82 150 86 55 143 191 
166 141 97 77 177 112 39 157 172 55 142 137 85 75 172 34 225 210 212 56 213 80 228 67 83 184 201 193 138 69 162 33 84 122 159 183 230 30 151 182 180 50 98 164 64 75 53 189 93 89 27 78 99 222 129 234 63 159 76 208 134 81 210 80 103 245 61 86 216 96 138 170 213 107 198 87 31 148 37 162 234 37 183 84 118 185 97 50 56 172 191 137 25 156 183 118 84 215 175 116 
98 146 106 121 81 63 56 182 194 182 184 156 54 177 71 201 148 152 223 196 162 151 107 85 74 106 162 82 66 144 112 69 188 16 176 221 88 153 63 87 28 96 75 180 128 146 133 103 220 77 164 237 92 129 23 54 31 131 90 149 177 50 32 67 48 210 172 168 124 64 138 101 96 116 137 76 202 108 89 205 127 128 124 72 161 196 110 209 55 195 87 212 156 78 88 65 167 120 131 28 
140 171 27 156 88 24 223 225 165 146 87 170 67 213 151 132 171 128 52 140 143 216 164 57 94 192 219 105 131 187 120 199 131 109 164 124 50 146 84 200 85 132 182 203 37 142 76 203 112 127 180 59 241 92 208 101 23 89 172 74 111 88 218 197 96 134 108 179 68 44 56 84 110 60 175 40 137 162 122 80 131 138 60 67 142 178 122 218 115 163 99 146 226 139 98 94 120 155 59 104 
83 91 184 179 59 25 59 186 178 70 53 52 128 124 145 195 182 69 147 135 70 63 147 169 157 173 152 186 91 143 143 86 74 165 108 27 186 160 127 168 50 75 99 49 97 63 101 61 62 206 52 140 27 40 95 167 86 58 85 208 86 181 167 71 153 89 122 94 87 79 169 129 36 58 89 182 90 129 179 39 80 127 82 60 158 120 54 192 214 193 80 52 62 92 71 80 28 110 153 34 
147 113 171 186 172 201 89 31 124 108 105 160 14 132 61 64 64 130 73 214 120 38 51 198 211 98 176 69 145 177 149 150 51 81 60 196 164 220 174 172 196 154 126 200 189 110 242 35 112 175 107 90 68 87 90 46 115 185 122 54 211 197 92 52 65 36 49 185 106 178 83 12 200 151 183 141 227 152 145 116 30 146 187 47 142 90 106 29 190 165 45 101 75 182 78 103 114 92 185 133 
203 150 77 106 207 199 69 241 148 210 200 90 106 37 170 209 61 222 154 99 108 139 86 225 163 127 173 103 55 133 107 95 144 159 110 113 232 66 192 225 56 64 209 189 81 118 203 190 105 159 48 149 179 20 219 52 62 218 26 210 166 170 117 136 73 64 102 219 73 206 154 150 210 19 27 68 95 72 195 141 98 104 200 185 122 78 122 189 207 122 175 65 91 101 173 179 76 183 114 74 
179 133 76 161 40 105 98 139 138 184 58 203 92 128 201 226 170 160 143 197 182 131 148 122 85 146 31 138 44 157 201 176 115 217 159 99 195 43 210 203 77 83 202 83 124 146 207 158 137 173 147 167 65 158 61 104 144 150 136 189 72 188 79 179 26 122 147 203 35 94 204 151 114 138 99 215 39 113 168 78 204 37 64 105 203 141 212 180 79 144 62 174 174 159 139 150 157 233 89 120 
164 222 196 145 119 86 65 179 55 203 113 78 213 38 117 39 171 132 157 79 121 93 103 112 197 121 96 171 156 120 128 86 171 146 115 63 155 188 152 128 33 189 236 51 135 106 210 75 48 194 112 136 198 175 129 55 201 136 229 101 173 132 116 98 31 148 130 189 119 124 178 107 213 67 126 74 24 154 95 145 190 218 41 61 130 62 193 129 208 53 52 109 184 181 129 213 107 59 136 239 
197 59 68 142 150 85 135 229 180 106 109 209 11 106 111 99 142 147 165 174 101 168 180 77 118 147 169 161 193 102 175 180 159 140 105 60 172 83 133 26 30 79 122 18 155 163 200 180 165 78 184 80 138 212 60 206 99 208 108 56 209 171 68 20 57 201 136 166 91 147 90 249 81 104 105 129 159 110 98 133 172 97 144 117 162 205 163 139 187 58 24 43 194 156 216 85 89 107 159 122 
49 88 127 27 228 183 111 89 52 180 171 125 175 164 198 59 183 153 120 143 209 140 40 64 192 65 48 90 44 138 29 64 202 194 206 160 209 124 184 141 99 182 45 152 69 45 132 129 133 139 216 234 227 191 89 102 69 162 193 145 148 125 27 220 183 70 130 162 162 202 38 184 200 110 189 20 94 28 161 200 84 105 166 75 200 137 138 46 115 193 98 70 63 127 160 89 126 113 60 67 
213 124 185 171 205 30 189 212 124 32 77 189 142 81 52 145 56 46 107 67 118 213 163 167 141 88 123 224 178 109 71 73 67 92 88 194 154 56 157 147 230 14 173 203 78 81 115 200 134 207 155 200 194 48 60 65 84 111 157 74 163 57 191 203 131 193 143 141 75 177 137 133 128 131 50 43 115 49 201 83 120 81 41 102 136 66 110 141 131 32 192 126 55 155 233 190 140 31 99 150 
121 92 137 160 220 199 205 56 46 171 119 73 105 87 49 91 157 113 46 79 194 97 70 118 32 69 37 109 125 59 47 56 94 119 88 154 148 99 125 204 162 68 23 47 169 209 167 66 109 152 101 204 82 202 4 83 94 159 46 206 200 71 192 161 74 198 62 94 188 104 159 99 166 58 66 58 22 110 181 97 70 41 230 88 120 82 221 196 185 44 38 159 193 91 176 122 102 101 234 72 
75 203 123 189 186 162 65 141 141 156 205 62 181 65 209 186 171 44 46 102 116 138 155 211 131 71 158 75 170 72 156 163 117 154 173 207 101 132 124 117 184 144 112 52 64 100 80 45 158 45 113 91 115 72 103 90 224 199 83 134 30 103 152 67 199 95 148 120 62 80 115 217 173 130 93 208 82 87 178 245 74 69 155 133 74 188 176 119 180 87 94 77 152 66 32 113 152 94 104 135 
132 234 108 87 101 178 248 48 171 142 30 95 42 199 177 114 44 210 112 52 167 68 79 79 100 179 159 23 85 87 63 204 212 166 146 145 40 140 117 161 124 103 167 18 158 111 83 140 56 17 112 55 129 86 43 108 166 130 172 140 93 133 92 124 116 105 88 187 212 184 192 212 74 96 144 114 67 158 60 128 99 53 70 101 151 50 99 103 163 105 130 82 181 121 198 73 171 147 41 216 
65 176 225 130 106 186 25 113 79 195 80 112 113 147 41 157 241 179 138 22 203 95 94 95 157 45 120 185 92 160 71 57 174 161 162 5 83 194 130 62 29 183 169 160 134 102 74 146 185 115 158 74 34 196 64 138 63 136 203 175 39 41 201 162 57 145 148 53 105 103 108 54 151 106 238 199 71 17 41 145 160 47 36 152 189 26 178 181 137 141 201 136 35 197 158 40 184 53 228 54 
125 239 185 66 91 122 100 38 128 202 158 195 109 203 117 59 71 183 240 112 185 48 153 172 201 203 98 209 88 180 210 119 100 78 192 72 150 128 191 21 50 195 178 199 166 57 184 97 93 50 182 111 58 136 79 59 68 194 182 62 103 84 16 209 110 50 137 107 178 50 76 218 55 114 139 160 58 66 88 192 51 61 152 87 25 190 79 227 205 136 54 175 76 203 70 182 206 39 195 76 
107 145 141 188 105 156 94 205 89 111 162 62 188 199 150 107 85 69 184 113 40 112 184 154 207 210 158 141 80 47 83 176 120 109 153 97 137 222 18 194 16 190 99 39 149 83 13 81 204 207 199 133 103 69 116 233 50 65 226 77 155 110 230 147 77 100 21 86 149 155 82 108 233 135 138 195 95 131 180 119 41 169 213 148 155 196 104 162 46 121 192 156 182 193 171 165 115 159 142 41 
73 91 183 208 124 85 212 65 219 112 72 121 80 52 156 75 98 41 248 117 190 195 147 206 45 190 209 182 198 108 58 91 84 84 107 118 151 203 127 61 73 75 132 66 100 31 128 168 171 210 124 166 104 87 158 44 144 75 171 48 57 91 178 51 142 190 137 74 47 104 146 84 182 190 105 137 74 172 93 127 213 135 160 148 192 76 201 55 72 79 57 195 190 67 77 137 208 192 168 197 
109 76 29 198 212 154 92 154 171 62 183 114 78 125 223 91 124 76 162 145 114 103 110 105 183 74 92 52 195 117 64 80 59 201 111 66 70 109 24 68 92 168 85 172 118 81 111 211 180 207 70 206 78 192 155 132 141 93 129 91 178 152 60 185 197 135 89 122 225 173 109 87 170 208 41 47 86 59 149 187 206 83 85 113 172 126 80 116 139 103 147 190 77 168 88 73 127 67 107 42 
213 43 81 105 170 210 50 133 238 65 166 217 133 129 148 92 103 62 113 116 118 97 94 190 97 116 88 174 90 38 127 95 60 188 160 128 103 167 208 46 80 149 145 136 90 62 202 117 94 184 55 142 220 100 15 89 134 53 81 87 63 99 111 217 34 218 148 128 85 67 174 157 188 217 88 162 172 56 139 175 200 107 201 174 94 63 29 100 94 209 228 86 149 176 51 155 191 113 197 145 
107 225 99 205 177 77 136 187 101 35 223 231 171 72 105 102 150 231 101 43 61 159 153 47 142 24 165 113 105 33 101 111 143 51 101 222 60 186 159 192 218 102 107 130 58 85 87 147 147 102 123 196 63 166 45 92 13 115 211 62 172 101 89 124 144 212 75 167 158 85 168 187 65 145 21 152 104 185 221 163 121 171 139 231 218 206 136 94 182 72 32 118 184 74 169 224 75 183 150 95 
39 38 165 119 104 20 69 133 82 93 195 170 79 182 68 80 118 75 187 163 43 97 108 143 198 36 168 152 141 200 40 190 211 176 119 72 171 167 69 209 80 122 55 27 179 47 150 52 156 155 150 138 109 108 36 145 74 75 145 196 187 98 186 186 160 107 68 54 146 200 146 87 91 95 204 105 193 16 94 203 171 220 69 171 115 152 54 113 46 56 172 204 96 195 105 157 188 47 89 57 
199 221 105 51 98 107 182 228 73 131 159 53 178 95 44 174 98 104 164 108 65 32 157 235 169 96 205 189 174 221 121 159 56 133 117 153 66 95 214 178 47 24 156 137 155 229 146 179 214 79 115 113 106 233 63 104 195 66 176 179 103 178 196 191 115 86 146 104 60 184 134 51 107 203 81 65 141 120 193 109 99 99 110 112 141 208 98 92 57 173 43 199 96 148 160 186 200 63 180 181 
82 105 73 113 174 110 53 170 53 233 155 183 217 73 54 137 124 21 153 106 46 61 150 84 195 221 124 64 170 121 157 216 89 190 158 55 48 92 172 75 77 43 191 211 77 219 75 68 186 167 101 236 102 160 223 49 145 154 191 75 127 227 66 26 99 192 126 124 165 58 161 82 99 112 188 48 105 19 48 146 153 157 187 41 148 181 50 168 56 218 87 88 94 207 45 203 107 57 150 92 
35 95 124 116 107 114 102 128 142 152 106 21 101 179 84 131 79 185 184 146 99 182 153 190 176 175 110 45 67 110 169 175 67 72 125 193 9 123 210 91 171 202 118 92 169 52 96 102 103 125 159 56 215 96 160 73 156 19 197 199 59 110 55 103 190 173 102 61 80 155 62 82 228 104 215 192 56 60 115 172 166 182 167 84 48 98 213 177 116 226 225 91 196 131 114 155 132 58 233 198 
79 136 120 241 57 77 102 99 207 130 183 27 147 21 222 67 112 66 53 81 93 171 89 227 77 131 230 64 89 117 171 188 159 177 29 161 59 59 145 101 187 206 135 113 106 37 187 82 188 38 139 97 58 60 223 110 95 106 148 79 155 69 42 79 147 149 167 195 99 40 172 64 75 115 29 48 38 31 130 134 103 104 107 56 160 195 74 66 99 129 100 210 156 104 144 32 164 65 159 213 
121 76 55 80 211 212 37 149 160 144 150 56 158 220 162 200 76 171 50 116 139 143 199 41 109 94 196 47 58 232 134 66 163 173 170 217 43 131 90 133 201 149 49 188 153 48 70 61 172 112 122 146 183 87 71 123 211 100 211 197 64 96 146 112 188 77 107 123 213 63 98 181 182 162 115 53 99 186 74 181 157 212 178 71 183 172 153 111 123 115 92 207 140 167 143 95 200 99 145 113 
21 73 91 62 201 102 168 66 35 57 211 60 205 24 164 135 172 98 105 147 32 60 205 54 173 135 52 97 153 194 63 125 104 234 126 112 120 168 55 104 107 98 198 19 187 148 81 81 150 138 178 117 232 110 76 163 36 241 74 194 51 133 157 54 207 208 165 19 128 156 204 102 202 112 128 116 92 171 120 54 123 40 74 188 129 86 216 54 150 18 179 92 147 48 91 186 119 105 155 52 
136 165 202 116 70 167 72 136 199 152 104 151 167 90 201 20 170 188 138 64 53 127 185 87 154 229 151 67 73 175 57 156 124 212 226 120 80 193 29 89 41 129 177 74 114 250 188 138 89 168 145 36 222 189 108 66 226 217 43 72 53 50 127 237 208 150 62 67 67 154 151 59 149 158 193 164 48 138 54 50 88 52 159 152 198 177 125 44 185 151 43 82 100 76 97 147 211 210 73 203 
174 163 56 218 199 187 28 228 178 164 107 63 54 82 139 143 174 233 204 130 127 95 161 135 16 157 119 179 152 89 143 83 218 179 145 72 154 147 175 71 113 189 152 163 112 190 113 81 179 211 209 36 133 216 199 158 126 118 53 140 66 186 199 101 94 72 85 59 208 172 46 85 193 151 159 168 32 139 217 130 139 133 233 95 129 154 236 175 102 94 39 77 191 150 175 181 189 147 91 206 
67 229 190 96 190 216 63 187 68 141 42 104 128 181 104 197 71 91 128 57 77 182 135 65 170 137 93 119 54 148 122 40 164 175 111 173 109 167 71 67 75 106 96 98 90 151 222 163 144 63 146 169 128 193 150 178 186 208 68 97 154 153 178 162 215 167 76 149 160 82 43 194 95 184 54 195 207 69 226 145 106 200 38 84 224 160 166 64 141 150 137 156 130 87 111 145 34 103 138 190 
85 112 113 199 105 68 132 66 73 111 185 162 109 113 166 135 103 180 211 77 56 29 222 92 186 89 60 127 88 80 189 128 155 143 172 248 194 166 122 93 73 137 208 191 178 31 101 112 161 137 77 149 140 53 89 205 224 209 192 76 19 202 73 35 193 82 87 55 214 116 192 115 197 162 133 57 116 165 42 215 110 52 62 163 173 137 83 91 108 143 172 129 168 228 48 64 79 79 62 116 
177 158 244 188 104 84 144 85 180 205 109 12 151 124 115 178 19 192 135 54 83 130 105 54 211 37 209 239 66 101 42 89 109 162 40 161 69 230 79 112 102 162 45 165 119 133 57 99 58 68 108 45 86 37 60 111 197 41 104 131 152 87 206 60 60 202 111 155 73 147 111 222 92 23 54 189 109 45 85 73 73 130 112 123 131 84 145 125 92 156 143 128 182 70 85 110 229 115 230 75 
74 212 92 162 188 125 202 103 181 56 32 169 153 130 35 68 47 69 204 57 98 164 76 83 162 76 147 199 116 75 164 208 62 196 53 160 158 103 183 202 77 219 131 27 155 216 157 118 66 117 211 108 168 140 151 123 174 101 93 61 98 77 87 45 59 68 94 151 104 47 101 39 153 101 101 138 92 75 57 145 124 144 70 177 137 108 209 218 209 158 205 175 162 163 46 196 88 174 163 215 
81 72 96 206 45 87 53 52 44 87 147 36 217 74 132 161 81 131 156 111 209 140 137 47 60 57 202 48 113 99 87 194 192 221 168 162 166 24 187 160 165 107 23 85 91 88 60 73 41 236 201 109 82 252 211 71 230 91 179 22 178 128 77 78 212 183 139 76 240 140 123 100 205 36 115 41 146 101 109 66 67 78 137 144 96 89 178 66 43 88 125 167 218 71 91 135 40 46 90 87 
191 113 78 169 197 94 110 49 53 209 194 130 179 100 205 203 47 156 104 65 163 207 147 164 80 116 37 164 82 117 43 156 125 79 47 118 176 139 71 107 131 124 175 189 108 105 141 104 92 169 242 208 32 138 198 203 45 148 72 110 93 110 118 216 115 128 146 181 152 196 166 201 115 139 154 73 101 125 45 155 121 107 50 129 12 98 168 55 143 197 198 62 42 82 218 103 180 180 166 157 
93 166 127 137 70 112 96 85 216 66 65 223 173 118 99 95 173 75 122 52 32 170 98 114 95 118 114 157 31 116 210 219 51 49 75 211 143 157 155 142 60 166 165 45 137 225 67 73 200 128 86 199 85 193 187 49 138 168 189 200 126 122 62 150 160 168 155 217 127 120 57 45 92 148 113 71 44 220 39 208 150 169 96 82 88 148 106 144 98 138 161 177 127 110 120 169 92 84 7 78 
134 13 14 203 152 54 73 157 168 64 149 17 4 151 147 56 75 175 152 178 219 162 86 160 143 94 107 80 129 175 168 121 151 208 34 49 119 57 101 138 103 101 18 166 92 74 178 88 142 166 21 53 96 142 61 18 82 241 84 202 184 71 227 127 28 115 48 155 171 89 78 176 52 61 181 138 128 58 191 99 198 68 142 144 7 81 63 53 98 46 213 49 172 176 131 228 166 109 109 103 
122 159 56 73 50 99 74 65 63 49 73 69 51 106 141 174 16 161 95 112 45 66 167 23 91 77 37 148 156 126 217 138 200 93 196 171 192 133 162 48 30 183 140 112 72 124 126 154 171 224 151 79 86 122 137 43 187 129 109 144 195 182 164 38 138 116 157 200 80 178 208 109 139 101 59 181 152 64 73 108 143 214 50 144 237 77 120 161 163 157 59 202 148 157 147 154 138 84 209 31 
