P2
100 100
255
142 53 174 183 69 180 63 136 38 181 201 159 123 115 231 201 149 26 75 148 134 81 81 159 211 188 81 208 28 150 127 134 172 157 112 37 22 114 175 43 183 61 46 108 83 95 60 193 181 114 184 161 42 83 216 14 146 69 150 174 156 130 116 185 201 55 175 208 143 196 155 98 130 115 120 130 58 159 95 41 171 144 49 56 192 104 142 151 128 61 154 117 157 125 120 119 126 75 87 89 
203 36 182 14 159 72 146 86 148 117 80 42 109 68 205 105 148 204 153 95 173 101 79 57 69 36 186 197 138 168 143 207 57 130 56 14 102 104 206 98 146 80 65 118 80 137 202 208 83 202 48 152 105 78 154 116 164 28 40 193 170 216 212 199 183 86 138 73 142 163 77 127 212 56 70 109 112 61 192 225 140 53 221 26 164 95 114 171 106 146 65 159 180 178 184 206 102 59 176 158 
99 151 164 188 114 125 176 122 200 126 66 43 120 159 159 218 93 115 151 171 96 119 72 166 186 57 68 65 24 164 139 192 159 186 194 220 93 95 36 120 222 154 47 133 204 177 74 190 226 94 197 128 55 191 203 210 129 118 177 134 81 146 175 145 9 131 136 45 190 95 124 113 208 112 155 16 135 83 114 44 124 104 201 85 166 122 214 77 69 138 64 199 120 94 39 93 85 226 173 62 
154 212 152 94 89 158 181 216 174 180 77 182 20 214 114 208 53 30 165 93 150 138 98 68 42 86 165 139 43 96 71 147 149 86 131 48 144 168 176 199 216 66 50 162 131 100 112 113 139 127 167 105 54 142 66 153 230 107 85 157 80 152 184 191 163 37 134 133 184 131 136 200 123 55 197 213 122 198 82 213 166 107 164 158 186 119 40 224 172 126 55 139 129 92 133 184 15 60 139 132 
111 138 162 204 113 207 160 113 80 126 132 126 72 138 226 40 228 177 201 79 68 149 133 88 138 125 91 40 116 144 162 100 217 107 133 79 141 130 69 169 100 180 131 65 206 117 115 166 174 183 137 176 73 84 154 98 220 33 84 102 207 85 176 66 77 206 174 227 136 90 87 101 101 95 37 84 18 172 41 76 116 186 58 75 75 43 66 179 68 34 37 138 225 129 133 168 60 75 57 189 
136 148 168 116 95 163 219 191 66 155 87 208 130 127 58 196 141 140 172 236 40 97 81 175 224 49 117 167 147 178 187 156 122 29 149 170 163 97 158 129 75 138 236 115 190 136 125 110 192 29 205 206 84 199 167 114 169 155 142 171 220 174 141 89 117 74 144 86 192 107 236 201 179 17 218 86 208 96 157 148 223 134 112 208 169 161 97 152 226 27 31 96 94 169 194 84 250 168 185 192 
136 236 228 50 137 114 155 85 70 198 153 150 179 72 11 156 82 126 201 165 202 139 111 76 65 169 158 60 115 168 140 152 67 191 74 184 181 171 172 152 193 128 190 161 80 162 151 151 136 222 95 103 75 201 83 58 111 192 152 194 97 194 176 44 88 119 70 131 78 99 167 69 106 214 104 78 235 89 137 149 51 46 177 167 63 80 57 72 79 106 172 112 155 82 68 136 214 112 57 181 
196 214 43 171 42 192 146 60 82 94 72 144 231 172 128 126 152 57 228 134 88 199 179 71 111 189 187 198 83 155 91 102 155 54 184 113 125 114 230 131 71 43 206 84 118 96 78 46 73 56 159 23 79 72 113 42 24 179 149 221 69 150 166 149 134 221 29 137 80 173 231 84 207 82 154 149 78 89 53 220 98 197 238 86 75 105 73 152 78 74 51 48 67 222 104 49 68 146 74 200 
189 149 133 35 117 151 70 154 164 78 181 76 77 82 83 60 177 91 138 103 30 127 189 121 75 74 168 51 89 114 91 184 195 120 168 173 191 203 207 148 211 101 107 185 123 144 171 147 100 157 206 145 113 201 157 122 205 171 137 68 90 138 40 181 84 20 233 83 228 122 59 95 185 157 85 158 50 176 183 119 200 71 104 154 125 219 103 202 163 74 146 215 72 38 189 214 79 18 191 174 
144 71 102 196 178 36 183 76 86 120 47 177 179 87 117 76 131 242 30 194 22 149 13 63 180 47 141 155 147 194 198 211 85 111 179 165 111 193 140 193 165 173 185 192 151 59 199 172 107 112 95 193 144 80 130 162 222 123 44 166 69 80 199 194 150 180 94 50 206 223 93 119 91 69 212 140 145 46 130 158 46 166 95 191 169 245 104 108 168 98 173 81 68 122 168 45 124 115 91 193 
71 190 75 95 180 223 52 154 60 104 121 18 104 188 149 126 46 93 213 55 121 210 200 56 163 156 209 188 93 214 43 98 170 120 39 122 91 83 204 179 122 187 79 143 155 64 223 223 142 121 122 184 168 76 102 201 117 62 102 132 189 210 214 87 112 51 188 195 186 178 56 209 143 214 38 221 104 100 149 227 112 75 92 76 60 32 185 202 133 169 113 202 197 61 142 128 146 117 89 57 
90 56 126 134 38 189 174 105 129 192 167 110 210 231 174 118 93 94 58 202 86 95 207 74 88 82 40 79 115 211 61 205 213 165 140 90 36 48 99 252 144 216 207 202 46 47 45 39 215 188 204 69 174 186 76 205 75 60 174 187 78 83 76 216 103 39 155 52 100 26 215 83 74 35 202 222 101 144 227 130 150 44 29 66 58 110 96 214 134 75 196 127 53 207 125 187 65 107 153 184 
8 70 50 186 27 119 76 207 243 209 113 106 89 156 76 93 184 100 155 102 217 133 45 115 121 190 48 75 73 78 106 71 64 75 116 103 142 138 208 189 232 101 66 107 108 69 188 25 136 164 236 39 162 60 190 201 88 145 200 63 111 205 133 94 190 159 129 149 160 47 183 171 126 197 170 204 77 63 154 109 154 167 119 88 108 101 89 133 89 173 46 34 122 77 155 230 167 181 124 119 
143 208 169 89 109 51 136 102 144 209 61 132 65 186 48 124 169 138 146 106 207 74 54 180 93 165 169 240 197 186 76 221 181 117 94 21 173 106 118 104 202 216 137 197 114 87 123 158 40 163 113 73 218 159 25 121 172 100 79 94 163 97 216 118 60 48 233 90 155 186 61 96 196 247 60 187 88 102 102 69 167 231 139 49 116 49 187 182 186 168 103 190 66 103 93 76 157 17 57 50 
199 220 217 230 205 120 220 127 137 97 114 195 217 103 32 121 171 207 146 125 89 230 166 178 115 164 52 205 24 72 48 74 226 150 209 21 131 205 137 182 94 103 70 170 194 170 117 88 225 140 44 36 78 48 157 165 75 210 194 222 203 93 109 156 108 86 21 162 90 51 60 56 74 238 164 126 53 128 163 82 82 160 177 194 159 53 35 65 230 96 104 157 130 178 151 180 191 85 174 86 
176 164 75 27 87 181 95 144 145 104 37 91 63 170 186 120 56 133 185 199 179 79 208 162 248 115 91 36 178 124 149 93 160 128 143 226 134 212 138 132 217 210 188 32 111 84 122 102 172 158 90 71 120 167 127 176 74 92 169 96 110 202 13 178 79 36 82 128 155 127 212 78 124 45 204 214 146 240 87 139 76 107 207 98 90 122 88 58 39 227 51 227 144 46 141 165 176 159 86 52 
175 167 120 153 92 190 108 13 30 181 210 190 202 49 53 192 251 100 195 158 50 191 223 141 183 188 162 94 47 102 235 178 37 88 89 59 63 93 43 117 132 71 160 123 146 155 190 86 53 95 58 77 195 87 55 18 124 129 48 32 200 186 59 92 101 111 117 34 145 201 161 144 87 112 94 184 114 168 99 182 73 22 95 203 73 77 144 129 56 158 182 52 178 160 32 141 180 146 156 102 
196 120 171 186 30 172 41 82 53 155 41 116 81 78 121 77 168 88 70 62 142 181 21 130 147 110 147 232 184 109 55 65 177 186 107 114 125 185 138 221 175 184 191 24 149 155 215 66 79 76 57 193 105 198 74 93 186 48 31 116 103 165 161 68 115 210 142 125 91 136 41 49 89 104 51 189 132 188 149 181 123 173 140 120 223 98 202 119 110 117 233 78 151 42 53 167 213 161 199 159 
218 161 45 131 84 96 80 130 40 84 204 166 187 94 118 106 222 187 90 194 107 77 150 163 96 122 79 180 186 43 144 39 116 189 43 89 168 151 95 32 148 204 102 207 118 188 35 62 178 43 96 26 234 219 158 90 138 12 26 87 116 82 48 113 164 143 69 38 163 103 160 186 89 161 53 187 93 41 55 168 219 83 84 193 114 218 195 223 99 177 212 118 168 95 104 241 45 142 201 40 
146 61 50 137 148 67 59 91 55 185 143 174 37 51 74 63 179 237 133 116 178 120 144 94 97 109 96 159 236 202 92 66 69 104 156 143 163 75 197 123 106 133 33 188 77 118 156 190 18 193 71 161 116 153 80 164 190 164 178 168 56 172 204 159 35 191 41 68 208 93 164 77 30 189 108 190 102 181 130 50 104 128 45 33 99 128 153 169 93 126 42 138 130 147 206 118 76 173 35 194 
185 58 211 124 155 172 121 192 175 44 87 158 108 98 173 70 126 212 73 83 67 155 131 64 118 138 154 94 151 56 77 182 151 229 98 105 64 161 32 219 60 172 116 155 35 102 179 59 74 82 185 46 141 37 212 64 118 90 104 156 67 46 74 171 179 202 195 25 167 144 146 125 153 232 114 181 186 84 123 99 117 63 167 85 182 94 60 99 87 203 132 69 128 44 79 109 99 133 147 137 
89 142 113 153 170 204 128 80 34 168 79 91 106 162 231 136 149 66 191 198 75 191 176 83 117 57 102 124 59 173 164 126 94 189 100 179 159 159 60 45 44 104 80 105 89 49 70 197 81 195 60 41 70 89 45 184 74 74 97 159 95 106 100 11 196 179 118 91 155 72 100 132 177 163 123 13 39 48 131 35 108 87 119 52 45 205 102 98 157 233 239 80 97 181 147 189 216 162 22 178 
68 159 62 188 131 150 31 225 103 11 83 208 196 108 93 101 102 72 26 63 71 109 84 34 158 80 70 155 144 212 185 94 118 208 80 180 152 144 66 94 76 186 49 156 64 144 140 54 184 71 132 11 48 117 54 99 57 160 141 172 23 78 225 107 200 216 128 204 85 92 206 149 115 73 182 51 97 192 204 132 22 29 84 191 122 177 203 28 194 81 199 188 181 88 112 198 121 173 97 99 
148 111 211 111 125 58 154 221 25 88 153 200 124 198 101 187 159 122 165 224 179 50 112 233 96 47 143 75 169 86 58 40 186 135 113 102 38 178 128 172 92 147 160 147 202 72 85 194 82 76 40 155 84 144 123 179 112 210 99 125 116 200 107 116 98 63 72 237 106 177 220 186 174 94 145 96 112 134 147 138 141 60 69 29 150 164 188 204 136 98 93 52 24 40 132 153 122 97 195 62 
233 208 160 89 218 122 77 41 117 107 207 75 50 51 116 54 195 193 164 67 65 197 42 117 151 109 44 60 97 89 74 169 108 158 103 197 15 212 168 34 118 181 121 214 75 156 212 117 57 32 107 52 91 62 145 200 227 152 201 163 173 47 222 128 151 98 7 78 171 199 149 83 184 68 153 136 171 56 16 215 136 63 148 102 45 153 199 43 57 116 36 121 232 165 146 75 90 161 78 63 
74 166 183 151 166 122 45 83 158 120 203 132 113 70 83 75 106 241 200 155 190 240 81 162 63 104 154 148 203 120 60 161 204 69 163 199 81 78 223 101 230 237 18 105 94 187 95 158 149 67 136 128 198 69 180 74 122 111 85 83 95 92 42 175 94 25 45 72 139 15 106 81 128 138 170 77 64 75 143 51 53 154 207 96 145 171 99 194 106 69 153 143 185 155 70 111 127 100 95 122 
57 33 112 99 135 59 198 44 85 22 178 152 68 197 136 166 178 71 158 164 229 71 129 184 185 42 186 230 198 135 200 190 48 94 30 96 86 165 149 91 82 140 176 152 51 115 112 156 58 113 87 185 80 197 76 80 175 49 197 212 105 179 118 191 106 210 68 59 52 84 79 220 96 44 50 193 70 181 138 234 95 112 90 86 183 73 61 17 162 116 140 68 124 184 79 94 124 185 133 209 
96 43 182 143 37 179 171 93 81 157 189 99 226 175 192 60 78 24 63 111 117 134 121 216 169 68 150 133 183 159 66 195 80 226 100 43 89 137 50 131 211 75 166 172 137 140 83 168 153 137 168 110 93 139 110 146 184 42 121 103 211 124 69 130 183 76 66 177 133 153 199 134 105 218 44 70 168 161 64 120 100 178 69 74 70 166 25 133 133 164 219 143 56 99 186 222 75 78 86 160 
191 30 185 134 124 63 79 183 81 185 123 84 99 155 55 173 174 153 181 177 177 170 67 49 204 195 148 203 86 143 109 134 167 198 72 176 146 121 166 223 210 228 72 178 72 95 31 103 55 70 98 64 126 147 207 98 202 187 208 142 187 90 150 193 95 74 42 183 25 198 26 120 115 209 180 57 170 205 104 105 110 215 70 175 136 121 39 95 177 144 137 143 60 35 125 177 163 167 67 178 
99 57 99 53 233 233 142 42 59 147 106 78 185 164 84 206 63 62 137 133 102 92 103 83 96 66 143 74 136 194 52 73 148 184 130 39 66 93 117 208 187 155 193 190 145 48 110 112 150 73 100 75 124 108 155 12 39 81 142 148 148 86 72 101 91 175 85 85 41 142 73 136 139 149 87 39 92 84 136 207 166 60 249 63 73 36 84 83 163 156 164 179 166 222 66 202 58 137 144 221 
234 134 73 183 38 86 141 211 178 95 162 72 60 26 143 190 95 111 107 43 198 143 90 181 51 114 200 199 209 193 139 37 182 190 184 175 146 133 176 181 187 104 146 164 141 20 103 194 34 120 15 197 178 195 158 47 131 167 126 147 51 90 169 195 211 172 57 199 157 233 109 60 99 155 74 77 91 56 164 142 100 164 160 148 220 197 198 90 23 119 150 91 52 164 135 193 177 180 62 182 
34 125 88 52 86 42 152 92 99 130 71 174 98 42 108 154 189 74 238 70 209 87 170 73 213 121 155 102 162 57 183 74 42 106 169 169 119 131 168 191 169 164 95 170 81 156 173 101 67 42 200 168 235 25 155 144 117 66 217 130 97 175 148 107 122 179 212 161 210 173 173 153 120 25 93 200 153 74 144 142 72 127 48 167 199 33 88 94 226 215 99 143 168 96 71 118 144 195 173 170 
185 236 150 70 92 103 191 153 119 118 149 61 198 148 186 194 23 143 56 52 84 181 140 63 155 44 139 96 176 88 165 168 154 121 194 179 171 76 201 159 44 190 52 43 146 247 127 148 104 213 132 50 65 71 64 154 77 114 50 95 96 49 160 41 217 165 189 37 204 63 88 119 177 209 199 135 187 144 96 178 128 154 95 33 117 136 76 148 112 96 62 137 94 202 128 201 135 150 192 172 
191 158 94 186 172 178 168 107 78 187 72 153 103 32 145 91 160 166 171 196 126 16 105 214 143 212 105 178 127 83 57 32 158 224 96 142 162 187 65 158 209 60 64 188 111 87 97 145 179 109 41 191 217 75 165 137 117 113 112 95 86 195 147 182 94 64 182 222 80 116 160 171 176 215 28 119 140 59 101 83 126 102 62 181 118 65 202 181 24 58 114 245 130 194 191 144 71 168 198 229 
64 88 56 136 152 117 69 54 165 60 149 195 53 168 142 160 64 129 75 104 197 88 157 164 124 84 32 90 179 87 167 148 108 134 151 205 105 152 56 185 121 91 85 151 168 43 199 200 25 111 182 63 110 73 135 100 172 38 171 36 67 190 220 148 111 152 87 34 184 207 116 163 185 128 32 47 48 62 126 29 116 117 167 51 79 91 139 118 205 73 56 122 19 211 61 183 113 53 191 74 
18 215 207 177 179 85 109 92 80 74 205 91 160 160 106 109 73 170 109 87 153 56 72 35 170 174 109 139 86 178 39 158 71 202 78 205 150 74 141 217 141 178 130 47 155 115 182 53 216 117 109 175 38 42 116 23 190 127 140 70 144 101 70 89 168 104 56 176 59 159 170 91 209 171 174 224 165 44 81 184 177 157 96 167 81 38 168 89 154 197 135 135 120 110 52 103 218 194 79 115 
88 48 95 83 235 104 164 189 201 155 206 203 150 58 25 95 45 156 77 81 208 204 212 220 64 44 67 38 61 199 156 112 61 208 90 91 154 176 68 62 189 94 156 103 131 198 139 79 99 148 178 106 56 35 134 99 42 190 169 118 207 170 59 39 47 132 102 144 109 78 222 107 81 61 94 221 146 106 64 173 55 70 106 208 236 195 118 156 30 36 90 93 53 226 151 160 45 72 202 93 
45 195 34 155 208 240 47 189 64 159 94 118 209 209 133 60 122 92 147 177 64 155 164 99 98 60 137 197 98 230 171 101 46 68 72 203 161 198 165 119 63 109 113 197 70 64 190 172 107 75 104 186 147 188 150 107 174 155 215 157 51 137 57 84 151 164 91 158 139 129 152 142 28 211 223 119 159 158 128 65 92 125 61 193 103 207 94 184 144 189 109 38 216 126 140 16 50 160 147 176 
238 178 187 84 181 38 230 74 239 219 231 74 131 119 202 125 151 173 102 192 38 20 164 53 24 185 210 85 208 119 165 112 163 178 111 193 216 79 164 128 114 174 182 138 109 138 139 191 93 81 114 49 170 46 108 93 156 137 133 55 97 173 146 162 28 209 124 210 176 35 107 84 146 73 93 187 129 46 149 203 65 134 154 59 193 146 105 90 207 216 44 87 61 35 120 209 36 21 117 94 
133 158 203 78 98 202 169 92 55 187 108 103 170 67 105 30 147 175 68 98 215 150 104 150 145 96 61 154 85 80 30 110 118 77 165 127 120 86 171 67 196 107 134 96 139 90 58 72 101 34 68 78 87 70 206 54 147 140 154 148 170 49 203 81 81 157 100 106 157 53 138 80 119 156 25 182 56 104 181 135 147 212 97 71 152 24 120 131 35 84 175 89 79 133 62 41 93 73 158 99 
29 192 88 83 98 66 103 94 199 90 138 232 104 75 116 132 121 224 191 207 83 211 45 12 110 185 218 63 125 131 182 76 59 109 92 19 219 171 125 192 66 143 154 65 54 107 230 28 188 100 138 124 192 87 141 52 158 60 164 117 53 126 55 140 30 72 177 224 112 105 27 215 86 120 21 164 26 103 72 114 190 62 144 81 90 65 228 122 51 126 37 121 78 101 131 94 48 140 44 111 
193 65 54 82 56 68 131 235 182 77 155 61 19 189 189 147 89 132 219 137 87 101 181 40 176 133 177 55 89 211 40 133 86 24 150 147 96 187 61 56 54 199 55 163 192 196 191 66 150 134 111 197 240 52 105 50 38 73 91 148 137 89 151 129 194 163 113 186 97 164 90 95 104 54 52 81 137 189 160 75 161 116 43 169 119 100 82 165 85 39 91 184 88 141 80 84 127 149 228 103 
163 124 129 23 97 152 58 207 180 221 157 144 76 116 76 200 161 118 99 167 83 16 177 189 224 199 63 177 21 235 117 170 111 112 146 193 103 206 112 92 131 27 62 176 30 154 103 232 147 232 141 182 28 20 89 243 92 105 83 206 61 157 190 47 160 69 75 123 47 87 132 133 28 140 161 86 63 200 101 79 44 212 78 157 166 120 130 47 71 183 170 43 34 145 181 77 155 208 97 204 
145 113 71 148 162 47 118 60 169 66 50 132 190 111 138 40 194 60 212 61 156 164 168 192 192 128 81 173 195 53 36 61 133 91 82 197 181 140 178 127 155 98 150 78 149 47 51 211 93 152 80 68 118 156 36 193 183 66 60 10 76 98 233 85 140 185 85 120 75 152 74 190 154 80 137 44 190 103 52 149 172 239 70 180 182 103 118 224 107 192 141 184 123 97 44 139 119 166 84 131 
51 93 56 206 147 81 75 209 87 115 85 172 135 214 48 67 99 65 64 145 209 61 60 97 24 78 207 180 33 71 130 81 83 120 103 87 50 195 39 202 191 13 110 112 47 150 126 157 186 34 160 172 37 140 159 213 129 86 198 88 41 197 175 131 208 151 138 208 185 137 194 142 85 115 120 70 85 122 69 222 170 187 123 225 144 98 54 78 158 220 229 92 136 194 183 114 178 142 124 113 
232 198 143 102 215 69 124 72 120 208 82 49 132 67 161 218 137 139 176 136 129 66 70 111 127 136 57 43 136 133 144 67 111 50 180 195 49 190 184 99 140 68 194 121 199 74 194 64 166 28 215 197 65 24 142 100 115 138 43 64 120 86 125 94 196 166 161 142 133 187 207 89 187 114 159 125 163 37 203 119 67 165 147 38 152 133 43 137 218 168 60 42 100 125 142 90 167 177 167 135 
84 84 181 45 191 15 57 182 76 100 26 144 171 82 221 126 43 195 150 88 145 45 44 149 182 139 31 209 189 114 121 87 157 224 95 169 157 204 52 155 180 86 205 164 154 45 161 122 205 95 194 217 187 90 29 100 134 117 178 155 161 51 170 146 189 118 201 80 27 226 202 183 213 236 119 54 161 202 132 49 43 105 103 96 107 124 97 82 153 73 91 50 128 212 108 102 50 174 77 96 
123 144 71 117 152 28 200 71 196 243 141 12 227 76 157 79 219 172 111 119 155 212 143 188 198 130 171 70 132 135 111 205 146 206 228 55 106 148 60 140 67 246 192 93 94 44 113 80 36 91 133 51 36 66 201 98 160 46 41 133 92 106 65 98 209 179 112 28 179 202 68 117 216 143 59 147 51 173 160 71 38 61 96 148 109 188 70 184 30 214 148 95 114 96 66 201 171 140 179 162 
101 210 132 122 193 94 99 157 81 129 117 170 247 201 189 46 108 210 104 234 100 150 51 98 174 128 104 101 52 232 224 192 68 167 100 236 219 122 124 62 197 217 215 83 115 121 51 170 69 153 169 75 185 92 28 176 232 108 137 202 87 159 118 152 174 41 76 41 224 76 229 133 115 141 146 164 52 207 193 248 134 169 103 124 151 149 28 176 68 55 176 123 106 118 194 150 225 119 88 49 
115 64 213 178 197 169 187 165 29 155 140 89 138 151 65 67 204 143 185 95 150 222 109 60 84 198 204 181 188 94 160 121 106 63 168 81 129 114 141 158 198 159 129 86 67 121 96 116 47 67 154 132 85 178 36 53 94 194 159 143 144 110 181 127 57 149 91 177 71 29 67 145 137 160 37 45 93 43 149 118 178 187 117 152 128 72 108 127 53 133 82 81 73 38 189 172 196 50 173 198 
121 209 173 135 35 193 128 121 138 108 82 69 37 108 104 185 44 119 174 86 24 181 172 131 189 218 133 29 189 127 11 169 94 207 151 135 83 133 155 50 173 129 198 53 48 129 158 81 206 208 220 127 92 100 193 181 166 30 157 190 155 178 73 59 43 16 176 70 234 180 199 121 49 89 63 66 48 139 117 162 151 189 83 209 75 206 107 64 93 183 202 149 189 163 173 121 179 102 33 135 
129 115 166 189 188 93 201 51 118 79 119 169 97 107 96 195 91 225 105 201 194 56 96 64 80 191 74 213 148 239 190 164 107 123 108 138 110 182 136 153 202 194 99 41 137 126 195 55 135 65 56 189 135 44 137 231 82 72 230 126 161 143 156 41 157 63 205 191 206 185 139 234 182 54 89 158 60 80 71 125 153 157 138 160 153 142 141 100 42 201 72 112 124 155 115 141 73 200 147 42 
124 135 90 39 58 67 173 186 193 168 107 176 202 190 154 69 185 73 36 20 202 79 27 135 72 199 78 127 154 71 85 52 207 192 192 46 82 65 198 175 194 32 118 115 214 165 219 77 147 181 190 137 121 192 76 81 205 87 163 190 62 133 155 46 41 95 223 127 42 177 145 44 154 170 242 90 51 147 181 101 170 86 112 204 183 45 102 127 62 139 94 141 129 57 80 171 205 191 60 87 
208 137 19 130 158 124 80 74 160 39 219 154 58 131 212 121 105 137 80 98 126 69 154 182 175 101 155 176 114 243 136 154 198 101 149 94 211 194 219 206 150 103 175 75 183 73 183 156 101 140 209 177 199 138 176 114 200 120 189 94 172 79 90 75 37 64 60 125 231 9 86 231 201 121 73 43 163 148 49 75 170 63 155 156 176 61 73 186 67 72 136 91 58 149 158 40 111 157 46 74 
56 50 131 177 166 217 161 44 193 235 192 67 214 100 189 60 173 132 189 192 150 189 129 155 118 85 115 135 58 152 40 165 106 128 92 118 132 115 66 157 125 26 154 94 156 172 201 178 184 158 162 58 221 176 48 68 109 46 114 159 106 209 55 53 104 105 215 77 211 158 212 110 148 158 211 107 113 81 153 178 142 196 233 157 143 32 234 150 148 35 120 198 44 81 212 95 130 205 184 32 
70 153 116 77 132 57 200 71 113 109 190 117 72 179 113 90 95 153 180 182 199 78 80 122 123 172 131 38 96 70 106 100 184 97 102 118 227 112 179 49 92 64 67 46 46 56 139 114 134 223 133 35 120 134 179 149 116 82 16 17 176 109 75 171 99 98 22 190 156 167 142 125 62 147 68 84 189 194 54 158 124 81 47 146 50 22 8 195 71 153 69 29 163 14 108 87 86 68 95 140 
116 181 105 73 97 91 184 125 68 105 101 214 110 189 201 210 153 94 194 111 170 150 166 76 79 111 172 148 82 70 136 107 188 176 229 191 93 157 183 131 167 130 157 131 199 146 150 139 56 209 160 81 135 27 173 126 230 104 63 40 179 192 110 220 140 218 55 135 119 62 186 187 58 172 148 85 135 175 198 105 180 155 47 131 239 71 181 20 188 81 149 73 122 163 72 53 143 194 183 31 
163 70 127 187 115 120 146 115 120 107 196 146 112 186 117 91 173 193 18 174 104 141 190 68 153 185 130 162 78 142 132 115 100 162 93 161 142 75 100 85 127 68 89 171 162 133 69 218 101 52 125 70 94 42 142 178 30 170 125 185 207 127 169 142 58 127 58 35 58 18 50 197 126 153 64 229 221 124 174 108 25 121 58 132 214 96 185 117 134 139 92 131 101 32 27 154 91 173 104 73 
156 82 117 46 185 16 136 69 199 55 172 188 208 41 79 152 85 48 84 217 159 140 229 151 58 102 194 168 38 140 62 40 77 187 143 173 179 215 159 148 54 191 159 109 42 174 185 80 133 141 231 94 118 154 43 16 218 41 144 87 170 172 156 221 137 145 230 186 134 39 188 123 74 113 35 18 174 227 148 127 163 170 184 166 168 48 110 52 64 199 163 56 142 27 115 227 122 114 139 158 
71 60 212 99 229 161 134 103 131 161 66 48 83 167 43 66 168 29 46 176 228 72 50 60 137 133 108 111 117 170 123 39 121 228 197 79 101 178 71 104 212 64 184 60 121 95 47 64 128 198 78 64 60 108 199 102 124 182 81 87 83 129 215 50 169 63 162 37 66 159 118 68 128 41 169 75 68 167 45 183 214 197 148 23 45 67 39 60 189 42 101 161 65 228 192 148 110 41 132 103 
200 33 181 204 152 228 117 216 157 121 212 207 208 97 112 125 145 203 160 91 108 24 179 47 152 83 95 223 107 105 182 172 154 152 85 149 177 28 141 43 100 185 97 148 78 120 211 137 173 117 85 207 172 183 137 220 161 156 33 222 31 151 144 194 169 50 139 204 176 42 119 158 180 81 56 167 42 45 157 24 114 52 147 108 144 46 103 195 60 78 57 61 141 25 61 187 112 221 212 90 
64 118 49 42 78 105 148 62 94 69 29 150 66 62 110 80 123 190 189 226 178 103 95 213 245 179 181 43 207 152 53 60 189 79 50 86 100 124 73 95 179 85 119 231 211 196 202 59 139 193 89 223 163 144 183 70 88 127 117 67 137 82 75 175 186 116 143 110 106 21 180 158 141 188 127 131 165 45 180 171 100 190 115 76 148 125 143 100 104 69 92 38 36 177 87 143 124 112 32 93 
71 78 52 162 86 159 113 173 181 69 103 32 21 115 169 235 145 176 177 198 116 115 190 80 168 50 94 97 179 93 196 49 185 127 193 108 134 57 193 119 26 123 120 190 175 186 31 189 23 97 116 62 52 88 142 42 79 144 180 121 175 200 137 103 11 114 75 182 70 144 93 103 150 152 62 217 142 119 139 162 78 104 60 150 154 122 100 127 56 138 25 87 76 155 36 108 201 209 174 120 
115 34 26 146 167 65 74 22 136 182 51 88 79 20 169 152 147 93 195 82 93 207 149 144 204 145 57 127 144 162 111 184 168 190 181 56 69 173 156 176 63 107 189 177 215 90 120 160 187 65 150 68 77 221 196 190 53 48 134 153 57 227 68 178 70 68 95 157 90 60 217 121 148 19 31 60 69 213 194 167 104 179 95 50 197 57 197 147 188 48 63 93 53 102 130 204 116 51 136 215 
215 198 51 207 166 62 58 65 112 102 78 174 201 81 183 90 110 162 194 110 217 97 247 153 177 80 52 84 192 30 59 99 122 200 61 142 179 22 151 158 71 71 78 105 143 36 231 148 151 125 20 155 89 105 152 98 124 156 79 153 90 134 141 69 46 73 244 219 188 94 37 59 65 50 98 46 29 54 106 69 164 201 65 201 182 129 112 174 149 50 37 172 153 190 54 176 194 128 84 36 
93 57 68 122 124 197 85 89 235 99 132 136 195 167 57 116 118 40 53 59 77 65 38 134 133 87 62 59 134 191 76 138 190 163 208 208 215 92 53 94 41 227 84 65 62 113 125 76 164 182 89 208 72 39 173 168 178 121 152 198 207 34 181 56 106 161 27 70 184 94 99 127 155 120 143 71 107 188 119 57 66 126 173 73 139 163 59 49 56 176 109 56 131 188 61 82 95 188 21 160 
32 112 64 73 156 111 100 76 215 202 109 153 134 178 10 56 144 233 72 146 81 131 41 178 160 98 105 40 116 99 102 48 57 47 117 80 97 204 98 179 139 189 195 113 97 150 53 29 224 225 215 99 123 46 106 153 179 83 99 217 214 28 143 163 120 144 179 169 162 214 96 136 172 148 169 195 110 170 202 133 50 103 160 207 143 229 112 82 203 181 146 49 77 144 66 88 206 104 147 54 
187 146 57 187 92 91 123 171 232 131 221 214 75 11 25 95 99 187 200 105 76 203 105 102 27 147 68 112 121 133 157 133 96 199 93 232 102 34 97 192 128 194 72 102 210 91 132 85 120 139 174 123 159 203 135 180 180 113 135 153 161 175 160 122 204 164 222 26 158 65 56 149 131 102 178 83 94 217 33 163 207 145 211 153 141 138 105 136 103 163 212 60 189 94 100 150 82 114 101 23 
185 192 75 54 131 49 81 200 218 226 66 86 53 166 176 123 173 161 130 127 128 181 73 172 44 186 114 197 184 129 111 75 144 92 135 95 212 104 140 91 103 67 50 100 58 169 193 72 87 230 67 68 157 155 155 154 64 170 101 185 160 99 68 133 68 166 124 109 126 197 94 169 157 122 97 144 175 66 75 195 144 202 121 160 88 92 122 52 52 61 209 239 61 176 190 137 72 118 211 161 
72 199 45 108 197 57 192 115 160 219 170 147 187 62 99 65 227 210 95 163 52 209 164 32 91 72 46 57 150 160 154 185 116 138 108 130 133 206 128 128 131 159 79 76 166 115 110 182 86 91 97 132 105 151 200 89 146 166 135 115 159 145 109 122 124 190 179 190 183 226 26 94 93 65 101 136 191 74 138 127 224 86 153 56 136 72 104 154 83 169 42 65 215 247 88 33 51 106 124 137 
155 185 139 51 144 218 113 109 127 116 156 177 99 188 204 83 133 194 89 49 169 71 136 134 106 20 110 59 115 179 178 168 206 156 65 169 44 227 97 115 119 119 58 63 228 72 156 122 187 121 35 112 189 71 185 120 55 93 155 196 32 210 110 72 93 204 155 164 110 171 163 76 137 177 162 101 21 184 68 23 101 46 34 51 154 85 134 184 77 88 91 58 168 221 230 78 129 196 105 96 
66 207 186 144 206 209 156 161 59 86 207 29 168 63 138 58 174 92 187 78 40 181 40 148 137 166 207 218 126 161 132 137 96 66 51 218 119 119 185 153 187 163 103 162 217 57 185 33 219 107 159 84 151 90 16 77 185 101 36 59 107 181 203 62 104 60 172 107 43 70 118 58 67 245 110 200 25 94 93 24 44 85 100 142 205 31 126 206 87 138 171 173 55 80 98 196 102 118 164 192 
137 27 123 36 192 140 217 94 105 49 123 116 214 169 192 175 78 182 139 103 97 220 200 117 53 184 41 190 109 74 73 107 75 204 135 178 77 241 129 98 211 172 55 138 223 125 87 106 186 211 136 102 68 23 79 71 135 100 189 53 96 246 116 90 170 155 130 136 133 114 60 100 150 122 118 50 125 147 81 28 104 83 143 189 68 51 168 163 144 155 94 216 22 118 75 58 181 112 189 235 
24 106 189 65 179 165 235 100 178 197 208 182 22 190 69 33 165 72 207 39 103 187 94 70 79 122 60 154 78 202 172 138 176 95 121 96 88 176 37 58 140 119 215 156 74 188 121 170 98 200 79 138 86 57 89 175 177 102 92 144 66 194 147 196 71 34 148 122 41 162 31 18 147 164 115 126 131 95 148 200 68 137 116 171 86 160 141 97 216 56 67 138 79 231 178 175 78 173 193 23 
134 233 88 196 183 185 124 107 229 196 153 62 118 47 186 117 76 61 46 40 96 177 81 28 223 105 49 171 105 123 178 85 28 109 207 211 41 163 146 24 44 200 72 99 99 95 201 49 172 85 165 195 151 170 93 178 131 18 139 9 212 20 160 135 12 109 154 92 105 76 61 170 79 227 198 225 38 193 83 194 126 168 131 126 56 111 99 57 161 58 46 12 161 54 155 41 157 84 170 215 
81 137 145 22 83 58 65 27 177 57 198 117 155 147 196 47 180 144 154 204 125 95 188 166 154 80 68 83 168 107 211 58 192 71 127 218 81 135 147 107 74 43 238 100 159 92 182 66 39 45 137 175 214 59 180 40 195 185 140 50 133 119 106 151 65 134 191 103 148 189 57 190 158 174 173 138 126 220 167 147 178 111 227 95 156 116 105 81 77 117 132 120 161 99 101 76 200 128 188 171 
67 112 128 42 179 176 196 126 102 166 82 218 150 134 101 189 239 63 93 117 199 143 90 53 90 55 219 145 209 118 156 128 173 172 175 216 62 185 213 202 124 88 220 117 184 19 49 67 174 117 189 129 199 125 141 186 116 136 195 72 119 112 105 219 131 88 111 124 195 195 142 93 177 156 112 74 148 134 187 89 139 173 204 197 120 213 213 146 108 230 210 105 157 125 48 19 195 54 80 109 
180 212 106 197 132 111 87 202 187 31 210 197 102 110 162 242 100 148 197 84 143 51 146 105 68 113 144 207 48 187 114 112 100 53 214 140 77 150 201 97 126 71 163 119 165 43 88 92 142 197 174 173 232 172 111 126 135 140 206 83 178 150 214 75 142 98 140 52 95 217 173 48 172 153 113 198 169 127 61 164 88 187 56 42 164 131 165 53 123 59 35 86 57 89 168 205 179 132 84 137 
198 165 152 129 189 71 188 53 30 111 163 192 238 195 80 75 38 148 218 224 113 203 216 137 92 173 168 217 141 73 107 142 78 198 105 164 98 30 128 236 148 122 101 194 168 134 232 126 147 107 55 167 22 188 66 207 128 172 199 214 55 110 78 73 54 173 111 88 216 194 138 38 116 152 69 238 88 61 80 115 127 41 152 125 117 96 201 72 129 118 143 141 52 75 33 218 55 180 35 39 
198 187 117 199 124 54 76 119 65 186 102 116 73 82 89 204 69 126 188 142 126 63 33 182 149 170 190 222 80 21 112 93 74 192 158 187 211 172 194 199 76 166 105 51 106 185 146 80 204 170 140 65 148 211 31 52 71 105 85 94 50 166 80 139 206 192 157 59 20 184 127 50 157 83 85 101 207 88 182 138 104 161 99 62 24 59 92 165 32 107 77 126 201 45 203 41 170 33 192 85 
135 48 166 169 151 185 144 60 199 103 175 147 165 74 83 66 78 235 117 134 108 31 83 191 167 50 175 55 165 155 213 59 80 219 95 211 44 74 97 165 143 152 119 60 173 147 130 80 181 156 100 151 192 190 65 103 81 74 159 90 75 102 50 227 199 171 192 79 36 148 135 128 169 88 208 84 127 116 96 71 111 150 34 192 49 56 197 143 147 176 136 94 137 66 162 6 180 220 22 222 
119 44 58 185 12 159 201 155 183 166 140 118 108 163 136 151 152 183 29 35 188 67 163 45 170 89 163 141 140 110 73 97 177 170 162 141 213 187 100 81 90 113 162 146 164 40 142 118 136 166 63 69 57 143 199 153 185 154 146 44 45 33 42 71 24 44 166 101 196 137 162 120 228 140 143 90 124 92 64 122 131 151 132 30 54 50 148 76 211 46 20 54 95 137 97 61 148 145 194 203 
149 89 155 78 196 118 45 164 98 69 111 148 188 189 202 124 165 31 120 89 228 113 139 144 168 105 60 80 205 153 156 141 110 190 135 213 205 174 99 74 228 179 74 57 158 109 189 51 57 192 216 64 73 107 95 99 188 49 168 125 119 94 158 214 205 169 159 157 59 132 157 123 175 183 33 204 94 95 174 201 197 62 167 111 153 97 150 79 56 187 105 72 221 32 180 152 221 171 173 63 
104 180 162 41 198 67 197 138 202 216 147 148 47 68 120 196 44 21 141 61 193 214 175 120 138 215 202 90 86 38 124 123 74 153 77 184 169 90 76 8 205 146 36 87 92 149 23 90 59 106 70 156 143 221 138 57 55 30 221 122 80 69 96 77 58 200 68 40 172 104 50 210 176 229 149 111 64 88 67 195 105 121 56 188 202 173 165 50 75 149 184 175 193 153 41 231 47 195 64 90 
106 197 176 202 57 78 128 173 111 77 54 128 103 155 200 83 179 84 231 138 107 186 147 111 161 81 52 120 148 68 185 110 142 244 86 112 116 165 143 173 77 154 78 181 146 91 193 61 75 205 223 22 130 44 121 154 139 207 52 197 106 141 200 158 184 52 205 41 64 132 219 135 136 69 167 141 192 63 136 153 128 91 199 150 139 133 61 54 232 88 163 62 69 44 57 156 130 158 36 82 
122 42 63 218 180 140 78 95 54 194 78 201 44 174 201 189 50 127 225 161 221 136 150 216 150 92 223 47 144 150 61 172 172 201 209 57 88 73 216 63 105 155 152 50 188 143 133 192 51 194 210 57 32 116 112 165 57 172 218 161 56 111 164 170 25 97 64 167 135 210 211 223 107 174 206 85 91 153 202 124 173 116 122 164 196 188 207 194 227 190 113 156 216 159 58 155 121 40 162 141 
204 206 69 169 82 211 173 155 182 49 127 187 174 203 162 99 114 168 166 99 184 94 50 64 68 34 151 188 132 212 198 117 124 43 165 96 181 240 175 25 58 101 56 67 145 53 103 121 103 158 136 144 92 83 136 84 196 145 140 133 177 82 229 98 189 36 170 94 181 98 30 117 136 143 117 109 167 167 37 119 117 116 76 200 213 57 177 180 121 141 225 45 128 66 160 156 38 52 75 41 
76 95 173 175 220 85 120 97 102 188 68 223 131 161 226 195 174 142 173 174 181 47 140 91 60 96 122 145 131 208 96 131 49 91 185 74 93 127 78 174 67 68 125 164 76 184 100 77 52 90 121 162 191 70 165 223 7 139 153 33 152 49 223 135 186 110 28 48 105 136 132 64 207 58 245 239 45 68 139 45 137 140 86 69 179 155 154 54 154 46 211 227 162 229 75 172 110 77 87 155 
25 78 148 77 29 69 239 29 58 143 104 139 134 153 224 118 213 57 59 163 131 84 214 140 80 62 220 133 67 167 180 118 91 143 45 111 145 96 126 205 73 67 97 167 229 218 66 65 207 173 126 63 220 202 198 49 73 195 149 133 179 94 138 92 139 174 121 173 206 118 129 173 56 153 75 124 62 147 23 133 203 9 161 81 118 170 187 154 219 46 116 91 143 74 76 98 151 184 34 119 
135 53 98 86 118 14 244 75 50 64 49 30 51 202 76 166 102 71 108 184 49 218 38 112 78 47 174 76 111 101 209 59 46 182 157 128 149 205 189 118 103 53 63 168 132 199 54 34 49 103 106 28 167 180 57 65 46 75 77 147 14 72 48 82 117 153 116 206 141 197 158 170 35 136 107 106 56 96 204 180 109 148 85 111 176 176 182 151 227 105 130 181 131 180 154 93 124 99 50 216 
44 155 102 221 166 201 252 189 140 52 235 228 96 95 177 125 188 86 124 99 194 144 69 50 97 183 44 125 116 12 170 177 71 200 94 104 105 175 96 49 178 197 36 144 163 60 51 146 61 178 111 205 129 185 111 132 129 157 120 22 202 105 138 63 199 181 182 156 200 105 146 57 61 204 148 47 143 158 208 132 119 118 85 191 61 74 26 200 118 223 130 65 75 61 108 101 112 156 204 124 
152 125 139 47 199 80 139 111 125 105 149 99 200 188 167 29 145 68 166 199 60 147 190 119 113 74 109 164 85 226 178 85 121 166 71 75 63 123 170 172 149 84 225 172 83 131 133 102 15 102 196 198 101 227 122 34 140 47 105 109 161 157 138 130 176 233 70 104 154 102 136 49 172 102 191 124 148 151 156 137 205 58 163 160 93 68 108 118 116 204 92 98 162 109 156 109 102 167 219 188 
68 143 94 105 105 196 173 22 200 123 63 166 124 177 95 212 41 155 208 138 98 93 179 121 84 126 162 27 83 95 125 76 75 158 142 162 89 68 32 153 108 90 113 90 80 129 113 175 104 42 244 20 94 104 192 112 65 150 48 50 204 159 96 77 143 195 30 68 135 43 82 91 67 63 167 42 112 89 96 97 63 134 112 29 101 88 192 51 145 195 187 78 62 112 162 58 128 176 145 57 
31 125 188 57 92 187 189 133 212 119 132 92 124 87 137 222 187 197 169 183 100 104 116 59 127 68 72 68 170 123 78 27 172 167 141 131 89 59 205 219 228 64 55 151 112 171 123 234 106 84 178 187 190 33 75 179 69 172 187 168 197 130 128 140 124 160 178 211 42 139 113 146 111 43 182 220 72 189 150 138 54 164 14 219 142 103 108 200 221 172 204 151 182 191 71 106 154 129 109 185 
67 180 144 167 112 26 190 76 78 134 155 153 240 186 22 173 109 35 70 210 156 97 183 89 197 52 96 231 78 65 194 92 106 149 133 201 118 57 188 250 150 232 230 101 155 202 152 175 36 115 87 102 134 185 48 145 203 100 130 186 58 40 140 84 121 28 103 176 108 187 169 93 187 218 76 179 103 204 196 142 163 121 171 110 207 93 88 169 84 166 172 176 207 190 142 87 149 123 93 127 
10 63 136 111 212 121 207 147 63 133 32 43 176 130 106 43 182 40 211 104 80 188 115 167 181 206 54 108 170 144 182 234 210 156 163 124 209 113 89 48 195 175 162 214 86 37 89 159 112 20 177 100 224 60 160 123 224 126 125 55 85 105 26 80 128 145 58 211 58 173 68 234 36 151 189 121 45 164 86 105 153 80 219 186 233 78 122 197 63 54 129 145 103 126 102 86 139 48 168 219 
194 219 153 89 152 132 52 63 141 208 157 198 210 173 65 113 68 182 140 43 102 37 81 36 182 101 55 199 90 61 173 128 131 126 92 65 88 74 91 122 226 117 170 103 199 98 203 188 25 197 203 49 112 114 39 129 127 176 97 173 164 193 98 107 167 136 147 207 49 52 51 172 182 128 148 127 153 59 117 61 179 68 133 96 103 78 196 173 190 78 65 200 190 79 86 45 47 74 216 201 
138 65 152 150 86 67 149 138 139 75 205 123 136 92 133 78 110 66 48 176 174 143 162 81 121 78 58 144 147 110 150 86 98 205 3 112 141 64 150 221 62 219 191 80 46 87 54 145 202 169 148 147 150 118 154 65 138 125 16 107 116 125 80 165 165 70 142 110 131 102 70 150 112 51 150 36 104 98 121 234 34 162 135 115 165 99 97 138 113 191 154 141 86 187 48 143 189 40 199 61 
44 221 214 39 106 79 118 122 64 199 153 182 85 51 27 158 114 62 120 146 67 71 85 235 110 155 125 153 171 183 94 138 65 131 162 227 65 84 200 72 106 98 45 224 203 208 81 153 18 145 142 63 151 182 22 94 90 84 109 107 178 157 210 35 105 190 72 88 121 194 116 101 74 46 65 51 19 183 162 52 142 53 55 157 165 110 71 123 45 39 56 69 210 202 118 27 121 212 88 32 
10 123 124 186 151 51 93 35 53 218 55 139 46 203 150 211 113 195 142 193 81 155 173 169 164 83 34 144 47 103 213 164 169 136 141 76 158 116 57 160 113 180 31 185 127 110 148 52 120 115 124 67 77 36 130 79 205 62 148 147 92 97 237 180 41 140 47 190 122 169 156 181 186 169 58 211 177 40 182 70 100 33 142 93 204 58 86 201 63 71 69 91 217 100 220 102 206 146 143 150 
