P2
100 100
255
73 218 108 120 205 139 107 138 171 48 121 139 185 77 208 117 146 141 221 174 137 106 186 73 176 147 38 101 75 54 203 180 183 112 100 189 213 78 154 110 133 177 76 147 38 210 106 47 205 72 167 55 84 195 127 53 93 67 196 60 95 62 192 147 195 115 55 62 53 217 193 128 87 185 202 42 203 76 240 152 236 92 184 177 67 37 59 130 80 162 192 186 202 175 72 204 186 40 83 191 
60 215 215 197 126 173 100 110 221 62 142 220 126 225 159 141 178 233 191 209 31 141 128 160 134 174 111 123 81 150 43 66 68 43 120 72 71 68 213 61 46 136 169 55 193 167 123 150 200 207 134 186 181 164 209 100 133 164 85 247 189 45 93 124 61 100 183 183 107 195 138 177 78 155 192 67 51 77 70 154 55 118 86 213 239 177 219 219 192 95 57 70 168 56 147 71 145 147 18 121 
95 78 158 140 97 104 124 143 233 55 82 207 53 160 73 65 53 93 163 129 88 169 60 93 67 50 70 170 110 59 105 133 58 102 128 197 133 194 121 161 214 169 98 77 47 153 117 177 56 173 214 197 163 213 61 190 158 140 138 158 69 161 106 162 60 62 197 127 103 167 135 145 189 179 228 94 145 176 129 143 54 218 117 197 169 109 165 80 74 135 122 29 75 133 198 114 128 193 49 134 
167 165 34 59 80 163 143 128 199 55 80 147 132 92 203 125 194 90 219 64 116 100 116 229 18 94 144 73 223 154 205 97 231 112 204 180 216 198 130 207 74 70 122 45 237 37 71 31 187 102 145 192 180 164 74 83 172 55 126 120 115 73 62 148 144 142 63 137 60 69 215 193 226 64 145 120 53 72 116 150 167 123 76 92 170 62 79 62 60 28 159 45 60 192 146 120 148 161 74 166 
70 100 54 8 192 54 92 157 57 64 212 101 185 139 110 124 37 186 204 135 62 76 162 176 177 79 89 195 117 54 56 159 110 99 36 244 33 113 140 176 169 106 111 142 135 178 74 157 84 128 116 10 190 66 155 138 70 176 184 191 145 113 83 37 64 128 42 233 136 183 63 85 56 132 114 203 57 212 197 213 146 218 105 182 72 71 100 59 191 212 85 183 79 54 78 94 80 87 106 27 
58 81 111 92 45 239 178 207 88 152 74 166 63 117 96 65 86 200 82 191 189 134 182 202 93 150 138 42 201 59 156 91 132 205 56 14 237 111 165 115 113 80 130 200 112 13 113 63 165 55 113 173 110 149 95 165 99 78 81 151 213 102 75 103 214 139 165 31 177 232 47 194 163 184 62 151 123 114 155 130 181 147 153 78 97 106 126 152 65 136 98 116 146 116 134 115 172 135 105 161 
58 130 191 102 84 73 172 96 187 85 98 98 226 251 103 47 116 205 49 55 165 111 55 100 30 184 71 217 46 155 234 40 11 158 129 218 72 187 52 115 183 63 81 98 200 199 191 199 168 166 198 94 93 69 214 61 65 147 235 204 93 20 215 183 175 73 216 124 127 192 180 122 188 158 102 131 149 149 59 145 152 159 224 180 76 111 231 68 105 60 187 143 82 133 193 55 222 62 150 45 
137 240 137 195 132 149 194 188 159 92 65 74 143 180 90 152 132 194 84 188 157 76 156 134 71 137 173 183 105 107 114 104 132 43 125 129 36 202 169 170 154 39 86 219 146 105 77 160 52 133 208 164 237 103 205 108 191 72 128 101 109 168 154 57 192 134 140 32 178 148 163 188 68 35 193 178 173 60 171 211 58 126 157 199 208 91 183 75 67 124 179 93 102 61 182 85 62 181 43 70 
69 114 71 172 127 135 70 57 111 156 168 51 167 110 138 209 188 164 189 57 38 94 80 10 141 218 186 11 98 125 157 66 35 106 151 193 144 87 39 149 122 97 156 142 166 173 145 68 56 110 201 88 125 134 203 135 81 67 166 106 182 170 160 130 63 202 110 163 178 75 194 120 74 66 131 84 54 135 162 55 119 138 89 129 117 170 73 111 79 50 154 219 61 38 153 87 83 203 54 93 
61 105 240 71 92 198 156 141 189 187 164 200 44 51 91 167 173 162 130 115 86 151 83 162 142 59 104 151 114 50 200 83 96 96 78 147 162 181 125 63 146 59 176 111 118 152 218 155 210 83 218 48 135 60 111 98 116 55 43 150 139 128 158 100 191 153 188 69 102 86 192 94 87 91 199 183 144 224 141 213 240 29 180 30 84 110 194 165 202 141 74 172 152 186 201 140 48 125 50 162 
95 197 146 175 30 166 76 24 52 224 172 104 233 81 174 122 174 124 232 195 123 187 121 164 89 158 44 142 196 137 63 96 184 214 76 130 171 156 196 41 142 168 106 215 77 79 73 117 164 57 191 174 145 144 70 70 64 38 193 159 66 151 172 41 82 189 131 42 249 87 154 215 110 189 130 173 157 114 24 95 207 180 180 68 111 183 191 90 46 48 170 121 35 73 63 120 132 197 57 161 
67 171 77 11 149 170 196 120 108 164 112 61 207 71 28 173 92 108 198 158 16 184 175 140 182 100 174 58 123 194 154 184 120 97 88 159 103 197 150 170 113 80 137 76 57 193 144 193 25 31 134 141 47 134 161 196 89 172 120 218 187 163 101 116 177 104 41 145 49 154 14 175 72 119 51 54 142 73 128 154 67 40 68 155 79 197 131 200 216 133 147 223 182 166 47 213 62 152 124 140 
210 47 135 181 69 170 232 199 170 98 42 75 52 179 169 41 129 169 208 171 161 112 155 109 205 124 50 65 68 180 62 216 79 200 214 36 81 123 31 56 81 63 138 243 122 175 84 168 188 64 195 46 188 174 232 50 117 197 20 164 144 107 93 111 172 227 68 91 61 80 186 144 36 151 93 53 41 166 163 47 86 140 124 69 160 71 168 73 178 135 190 201 209 88 151 124 121 58 105 101 
180 33 61 138 194 146 114 174 78 60 152 191 95 133 178 175 130 69 130 116 17 173 85 155 47 111 46 76 121 66 182 169 154 108 71 123 181 145 176 87 75 162 132 62 246 202 123 72 36 214 90 131 60 54 171 51 87 135 214 123 183 45 67 79 61 99 137 191 112 146 171 95 41 83 163 198 58 98 32 143 179 82 34 185 176 165 97 87 122 77 74 43 120 84 167 67 138 122 196 131 
57 136 60 108 202 213 56 37 187 42 121 164 77 168 33 54 162 209 100 134 176 127 223 36 138 96 210 73 68 85 58 159 206 77 140 50 129 207 103 68 132 59 216 60 58 123 78 199 56 182 76 167 162 83 237 182 77 184 82 46 109 113 169 137 231 125 167 14 122 191 95 99 63 166 32 138 187 123 126 100 118 110 116 111 192 196 120 233 76 87 181 128 197 95 81 81 127 64 33 62 
197 156 147 99 76 196 120 184 79 73 21 201 214 65 125 114 164 168 165 108 71 110 194 132 193 95 81 125 103 108 127 135 128 150 31 179 163 136 153 141 193 151 146 34 56 160 49 147 213 21 146 68 193 162 90 41 178 175 192 102 84 36 105 191 61 53 79 149 189 161 59 14 238 220 94 45 156 53 194 102 31 60 137 194 96 101 148 104 222 107 221 88 70 131 114 136 125 59 167 206 
208 117 140 146 96 59 105 35 92 190 156 183 157 136 134 35 56 122 189 143 171 176 135 154 103 130 55 50 12 165 123 185 67 139 177 73 84 135 70 174 165 99 214 208 150 102 131 128 70 204 111 73 131 162 121 153 41 79 153 76 82 221 172 108 194 97 96 144 147 145 12 179 122 82 153 150 102 117 153 99 193 48 207 111 131 102 78 93 120 137 207 168 224 221 196 160 214 57 180 50 
135 175 78 79 106 82 124 195 116 84 131 40 238 167 123 148 140 181 164 56 53 41 41 189 121 171 103 176 198 56 34 92 191 82 37 102 165 98 77 154 70 92 98 213 45 85 184 153 207 155 170 160 182 128 153 113 56 102 200 201 122 88 118 37 39 130 74 29 165 106 54 128 47 128 38 26 159 183 84 219 161 161 145 52 152 205 113 106 87 218 33 105 82 165 111 39 74 76 151 91 
99 129 21 169 67 141 109 85 211 238 60 137 114 7 153 92 168 130 48 206 113 138 188 107 66 50 87 142 135 204 76 180 134 155 169 101 152 110 108 191 165 201 146 210 89 98 110 118 181 167 101 135 119 118 157 117 99 144 165 115 219 217 124 200 46 155 110 152 179 149 112 83 208 140 162 88 46 156 59 122 42 130 168 57 143 187 55 42 239 226 175 199 22 103 36 96 80 111 116 131 
77 152 104 64 198 98 214 145 85 209 166 204 114 185 135 170 70 38 120 82 186 192 120 151 108 202 74 202 76 190 87 69 43 101 134 51 97 196 63 53 105 172 81 165 198 136 66 102 157 73 177 94 165 196 214 80 101 86 172 112 132 170 204 81 88 184 180 83 67 178 164 220 31 178 106 113 46 73 136 170 179 66 46 63 149 195 60 103 146 164 104 61 197 199 119 72 189 136 204 169 
60 153 56 54 215 51 106 232 163 131 154 66 115 47 115 189 73 146 114 46 119 222 118 105 228 87 192 162 156 222 61 173 63 219 50 185 189 138 106 111 60 193 201 211 200 72 140 143 42 101 63 113 38 62 114 165 199 198 72 78 111 179 198 211 212 133 76 101 11 36 152 158 128 40 195 130 145 147 161 203 157 188 166 194 118 163 101 123 85 107 69 189 202 173 103 141 68 207 80 150 
161 83 104 151 63 120 174 71 76 83 192 67 77 138 155 172 180 106 167 171 121 82 109 162 78 206 103 123 156 126 155 164 223 72 150 51 75 208 181 25 25 49 65 61 141 103 168 115 199 152 27 224 71 84 47 39 99 37 151 148 124 65 223 125 101 19 182 175 114 136 92 161 166 168 153 6 137 150 87 219 162 60 148 98 141 124 141 238 174 88 208 115 124 128 163 114 135 136 43 160 
100 181 216 85 183 199 119 217 156 31 229 66 38 240 196 111 112 156 74 111 183 94 106 153 124 182 103 24 96 229 162 31 135 138 109 171 11 41 94 117 63 180 77 180 168 50 144 120 55 226 186 114 80 192 174 73 60 57 217 96 128 234 180 53 160 173 73 150 210 39 148 146 209 192 70 191 80 35 173 236 32 147 56 153 200 162 103 237 115 106 72 47 198 128 161 236 38 144 222 34 
62 206 122 154 177 102 200 233 91 24 100 219 77 102 187 175 128 70 65 116 190 169 212 104 146 145 171 132 142 78 218 165 104 73 208 153 91 125 217 214 140 170 179 199 37 105 129 200 221 85 185 170 75 151 207 200 212 204 78 64 158 149 119 133 86 118 142 89 73 76 185 130 137 142 80 105 78 150 152 222 196 48 187 192 74 73 92 68 150 178 125 141 121 68 47 183 158 85 64 189 
138 94 57 210 69 202 60 89 59 182 66 139 211 83 192 99 194 226 131 103 123 189 61 207 92 190 191 172 185 147 209 99 83 111 214 219 159 171 43 201 96 22 46 159 156 204 32 209 188 83 208 196 212 112 191 160 86 31 218 113 83 93 110 164 191 125 63 164 82 100 181 226 37 113 114 125 102 106 225 116 57 26 73 201 173 219 171 168 180 201 158 138 239 84 219 63 105 84 74 141 
75 200 56 113 88 223 187 94 150 158 153 77 71 104 141 57 30 117 82 135 95 59 118 135 9 174 120 94 168 101 81 122 81 216 126 137 143 204 161 144 127 175 114 97 67 152 116 174 170 191 69 179 32 154 98 113 184 204 80 200 77 23 135 64 156 28 184 44 47 176 151 80 186 117 193 72 159 56 77 22 43 108 119 32 194 156 44 162 196 164 234 185 154 150 63 71 91 224 108 171 
98 166 242 136 134 70 137 87 234 81 222 75 122 144 69 86 151 83 20 73 198 110 86 159 67 99 215 111 142 94 62 25 92 209 23 153 120 129 112 58 176 224 141 68 35 37 88 68 195 189 143 199 41 177 98 102 124 198 200 29 42 186 195 68 135 103 123 160 58 143 177 77 67 91 45 52 195 163 82 94 195 96 6 45 220 177 187 65 61 79 141 232 118 120 167 68 141 153 159 196 
60 103 124 171 63 106 218 92 21 74 113 142 83 42 184 121 83 141 74 100 170 84 44 96 230 32 66 180 182 69 61 97 195 139 145 94 202 116 90 230 175 185 179 91 147 154 131 67 44 184 76 141 30 190 44 131 197 68 35 91 103 218 73 193 210 127 95 144 204 170 163 181 91 77 100 78 70 140 171 171 180 157 97 141 50 140 198 90 128 92 145 98 111 67 151 157 155 124 128 158 
211 160 81 183 178 194 164 77 171 56 70 59 77 63 223 145 59 151 58 119 40 147 194 77 19 203 139 48 70 88 89 148 86 67 147 152 110 57 81 174 63 163 92 104 142 196 111 154 71 103 116 167 152 127 191 67 41 183 139 145 70 99 92 199 117 202 78 150 196 219 40 181 99 90 203 193 88 64 215 36 185 136 177 80 122 139 111 51 141 112 115 71 153 192 86 221 95 179 176 205 
24 63 121 88 183 76 178 192 182 212 169 141 25 226 202 157 119 175 95 112 212 120 101 15 59 174 141 23 147 185 99 183 207 39 171 112 108 136 200 87 65 99 48 23 134 170 96 103 37 213 120 117 233 43 99 88 183 64 93 93 168 194 175 182 88 42 202 200 172 86 42 52 69 58 65 100 126 141 199 114 85 177 196 186 56 64 52 165 150 68 145 120 107 158 23 47 121 93 85 60 
68 61 136 210 121 198 102 84 186 196 85 83 109 149 121 222 117 164 90 111 65 120 183 68 228 78 228 52 155 211 221 140 144 97 74 180 39 46 134 39 78 122 103 162 124 184 94 194 159 132 98 56 186 90 88 207 84 83 65 142 120 92 111 67 192 78 203 89 85 66 210 104 39 190 40 91 60 184 168 163 109 226 169 176 133 72 75 139 164 50 3 162 83 163 130 78 209 37 133 163 
51 186 116 212 77 108 123 196 209 191 115 214 83 141 81 204 116 91 46 55 46 147 56 94 154 193 181 218 118 42 58 141 154 180 106 105 155 118 80 76 119 198 123 94 211 186 164 117 192 28 49 198 64 101 117 152 184 35 37 176 173 41 133 105 89 52 152 230 75 106 209 90 88 109 165 181 112 107 238 102 114 226 222 68 220 105 110 100 194 173 130 129 186 179 158 129 101 149 71 78 
103 49 78 215 211 134 124 130 83 61 108 122 207 49 155 102 149 136 80 214 64 80 171 121 101 142 75 171 140 74 158 135 150 75 93 160 71 176 30 90 156 71 229 185 120 111 99 78 152 32 130 148 185 233 99 36 48 55 126 82 207 200 79 41 70 67 148 224 156 230 92 172 195 180 140 209 172 175 53 138 144 106 127 152 80 8 39 204 127 50 98 82 46 104 206 187 182 46 200 219 
130 206 113 148 80 65 172 99 137 77 52 192 85 64 157 81 170 129 63 154 227 54 138 204 45 206 46 48 251 218 153 166 65 200 53 211 65 16 100 62 215 89 159 119 194 76 191 76 23 94 125 46 106 96 99 151 100 97 66 104 58 62 47 45 22 177 61 21 153 180 198 81 120 189 121 156 98 84 211 145 135 165 125 191 195 55 184 65 181 59 57 52 96 66 206 201 118 192 182 120 
185 222 85 127 169 184 77 56 76 112 48 72 96 152 63 72 231 53 203 79 188 112 92 201 141 75 188 74 140 107 147 14 63 52 162 203 62 70 164 69 60 131 166 150 60 150 158 168 123 47 78 184 94 105 94 97 65 176 163 95 150 90 111 75 61 185 178 20 181 47 112 238 94 111 135 185 220 9 106 100 154 68 148 91 203 145 166 177 90 74 162 204 59 37 59 168 105 55 155 181 
155 148 64 82 131 226 152 94 152 212 153 169 42 40 97 54 129 188 145 180 70 116 131 69 198 154 146 86 179 91 141 51 36 130 117 167 231 195 199 67 87 85 178 174 65 224 202 77 88 86 33 27 28 98 196 136 152 99 172 101 129 90 190 175 173 144 161 170 170 54 79 163 213 169 197 194 91 135 66 96 46 180 198 112 74 128 79 72 159 85 126 111 160 173 215 144 106 126 78 48 
65 15 168 127 39 22 176 71 130 64 18 106 23 166 184 72 68 85 177 175 113 126 96 57 227 169 107 162 85 121 65 70 187 41 199 58 17 49 172 139 123 103 48 121 63 131 87 187 59 62 109 86 153 56 201 162 39 173 115 236 146 66 236 81 170 222 180 119 210 90 147 178 131 123 134 165 153 100 159 31 144 160 126 134 81 101 38 78 182 118 144 178 137 73 198 42 130 90 117 217 
202 81 81 155 187 123 129 106 183 56 122 39 53 72 60 41 108 228 187 116 156 130 62 79 142 164 194 36 58 90 200 210 190 87 162 142 162 220 152 193 26 86 133 216 151 148 148 188 57 140 82 85 220 66 73 133 187 199 174 182 115 90 84 116 80 85 107 69 108 91 73 173 126 196 62 56 89 66 144 91 73 199 106 121 160 190 37 154 71 224 222 152 82 183 53 45 175 136 116 74 
29 61 106 155 122 57 194 197 180 215 115 38 230 113 140 174 105 70 187 192 205 62 152 186 164 144 65 142 191 85 41 162 220 67 103 218 131 79 198 220 39 205 159 124 209 108 97 21 94 175 156 71 220 125 198 68 212 170 207 109 123 191 189 55 161 56 162 167 145 177 123 219 185 25 115 205 161 130 105 97 135 191 161 106 139 157 211 208 188 168 74 42 234 188 77 140 69 88 77 161 
168 69 166 171 111 38 188 71 192 126 162 79 168 149 166 52 189 168 89 76 164 131 187 149 79 171 212 175 44 54 137 211 171 103 152 186 186 96 201 28 193 84 90 40 199 88 211 174 72 112 74 112 125 215 114 62 180 76 168 190 227 188 72 241 176 176 87 175 205 211 105 142 30 99 127 131 57 192 63 38 72 170 210 187 137 197 55 142 155 105 172 165 184 84 38 135 85 7 193 185 
117 187 180 149 57 66 211 203 175 202 74 126 91 197 185 132 171 172 206 160 73 206 68 153 195 160 98 112 194 101 68 211 64 155 60 90 216 221 159 159 29 142 144 186 154 188 197 161 224 155 48 90 43 205 75 71 214 114 189 52 57 172 180 84 109 90 128 184 89 121 84 133 107 195 189 214 109 142 80 114 190 174 57 208 171 45 168 60 64 30 84 173 68 209 131 64 196 198 228 53 
208 67 170 36 240 151 197 126 196 105 78 49 154 67 103 223 161 163 122 141 50 84 112 85 32 53 188 173 173 176 168 172 134 135 141 188 119 96 181 95 119 44 55 51 177 136 30 26 122 156 169 141 111 47 210 135 103 78 179 118 207 110 99 165 94 64 100 194 178 171 170 84 231 144 28 195 122 189 178 86 58 215 155 49 131 120 71 182 138 148 107 196 188 97 218 110 101 34 76 96 
159 98 46 143 176 121 57 21 28 180 117 223 116 192 43 210 150 143 62 128 110 109 117 119 42 146 167 220 93 56 106 153 70 39 122 136 195 13 156 88 225 76 138 30 63 203 184 96 72 47 207 58 203 52 193 99 54 137 180 127 169 60 121 127 135 67 139 149 184 96 126 159 202 89 212 56 98 129 199 101 107 159 127 145 216 170 24 70 139 204 91 176 64 136 207 175 150 205 134 110 
91 76 28 145 190 204 73 188 99 122 134 181 97 215 80 219 209 59 91 108 165 127 42 201 140 28 82 64 107 44 199 163 138 39 204 114 163 206 124 54 180 139 144 163 154 221 90 109 109 76 144 166 116 64 178 227 78 90 218 233 184 152 109 168 75 182 177 78 143 23 55 130 58 205 131 242 147 196 95 34 67 226 81 73 129 138 154 24 139 90 210 99 116 105 44 200 78 36 133 214 
84 168 107 99 122 177 123 183 108 101 84 76 47 115 176 194 89 82 29 166 97 53 113 121 176 104 102 185 141 149 154 129 220 19 186 232 139 164 112 132 61 175 166 104 136 205 215 91 66 122 104 120 236 125 174 149 26 157 119 151 202 209 122 30 207 183 47 80 92 107 199 133 148 171 228 88 186 113 172 185 86 190 89 249 195 202 181 131 100 105 106 99 38 101 185 131 112 124 59 187 
89 66 130 87 41 45 68 97 54 137 67 24 23 138 40 117 75 117 118 167 86 196 166 91 55 136 130 136 160 188 72 127 61 71 127 134 103 147 119 162 135 227 119 75 134 56 112 212 125 96 223 106 106 194 64 91 156 202 150 49 207 25 198 175 83 65 121 127 189 222 73 60 161 173 212 133 215 64 135 74 195 133 92 43 44 123 104 35 159 33 174 214 40 185 202 203 105 115 103 77 
172 158 176 228 154 68 186 55 160 143 138 120 91 122 179 66 199 111 95 157 171 127 39 194 157 154 196 191 112 64 214 115 119 190 67 130 87 191 100 129 85 74 61 159 210 201 221 155 132 184 149 22 138 186 68 63 149 105 171 169 238 132 158 224 172 178 79 142 186 80 79 162 51 93 156 181 138 206 171 220 223 59 55 168 205 161 138 161 161 85 93 185 45 158 64 43 159 93 170 189 
200 186 109 186 232 152 178 118 87 91 218 111 190 161 210 165 227 56 123 66 70 86 9 57 191 65 134 174 120 111 181 91 208 61 25 169 59 174 96 122 190 85 56 71 109 46 104 200 229 66 78 139 168 169 49 181 211 61 195 191 144 106 56 104 196 27 40 135 116 68 229 114 128 168 141 110 56 192 116 170 109 143 152 192 50 220 143 66 69 116 162 132 119 126 81 158 159 93 185 197 
133 159 128 189 112 158 30 78 160 173 62 167 179 107 187 80 85 158 209 82 210 169 78 141 135 149 115 114 96 71 152 44 80 99 178 130 182 57 140 35 204 34 151 120 182 56 119 162 151 47 128 150 146 122 247 133 170 106 183 105 77 193 68 188 176 30 120 143 59 193 191 29 248 178 121 123 68 205 143 202 194 213 188 79 220 250 92 211 180 50 44 62 141 176 173 185 161 45 68 242 
177 178 182 161 148 141 95 114 101 169 128 78 159 233 119 131 134 83 82 130 107 95 151 171 50 98 108 155 182 134 204 201 57 185 111 156 137 123 221 133 98 179 97 180 37 140 205 180 35 215 219 154 182 124 232 100 48 103 47 40 212 132 154 113 183 36 56 196 181 181 109 190 108 224 169 53 196 59 100 170 184 179 162 104 68 89 200 113 82 137 220 21 62 60 168 81 237 69 195 126 
105 102 70 163 93 93 161 168 74 54 89 69 142 204 25 81 66 60 119 74 123 134 178 180 153 138 46 187 34 80 156 206 197 97 183 137 190 149 217 219 72 69 129 123 83 211 22 85 100 69 117 115 32 174 111 65 186 127 102 125 113 83 83 216 184 204 181 121 135 6 112 55 75 165 84 113 76 143 188 163 38 153 180 75 216 131 102 88 190 105 104 126 138 212 165 74 199 127 120 95 
89 78 66 94 175 53 148 172 180 143 181 49 88 58 230 145 41 80 123 145 53 167 184 128 166 56 195 137 167 183 133 135 27 54 147 152 189 106 44 103 47 86 54 131 118 211 175 45 68 186 101 153 24 115 192 161 51 48 190 144 165 77 139 39 37 30 82 48 53 142 165 104 137 207 169 166 186 58 212 88 47 78 172 87 171 60 178 168 227 71 161 60 142 173 191 169 76 78 44 153 
87 55 170 38 68 153 171 32 188 121 168 193 133 105 184 153 46 37 192 199 136 59 78 159 170 135 183 180 170 128 184 90 148 94 146 104 52 63 61 124 167 135 69 199 193 55 135 217 56 113 176 84 107 171 48 108 100 186 60 227 102 104 151 207 206 161 117 186 161 89 197 110 183 195 164 122 193 46 72 170 192 53 59 56 78 142 232 203 204 47 70 48 118 149 164 125 21 120 45 177 
200 170 107 99 114 102 61 37 117 33 197 137 60 123 184 51 52 135 122 30 41 168 171 110 113 82 85 101 122 112 210 151 131 45 156 200 52 65 143 87 133 69 142 206 175 181 143 189 177 208 141 57 184 174 65 46 155 118 160 189 104 105 192 145 51 79 229 148 140 142 226 169 105 41 146 158 211 54 177 26 133 155 216 154 117 155 201 81 61 181 104 113 129 143 211 146 128 59 151 50 
196 185 129 86 197 27 143 150 217 170 120 170 164 136 28 141 172 170 193 163 111 99 149 184 201 238 162 210 46 123 68 101 206 117 57 67 175 106 81 146 91 96 134 134 70 158 58 150 159 60 75 81 121 137 99 80 172 100 176 25 210 74 189 116 214 142 104 173 42 110 237 151 159 205 89 212 120 98 182 120 202 182 213 11 238 84 56 121 110 55 52 159 202 47 76 216 188 71 166 64 
80 18 196 116 56 120 67 184 64 163 49 62 224 149 148 96 169 201 58 172 115 155 47 170 63 74 117 209 123 196 230 74 115 198 147 104 100 74 36 120 156 178 96 182 175 171 181 121 119 114 83 159 74 167 201 169 118 58 106 49 143 208 62 157 14 116 199 53 123 232 126 130 53 129 121 84 79 146 60 44 192 169 60 143 141 134 111 188 54 134 101 120 124 182 165 46 91 45 72 140 
175 153 122 30 227 127 200 44 67 58 192 190 106 96 182 153 46 173 135 168 218 193 62 239 30 105 141 118 191 138 182 101 115 128 174 40 100 240 187 135 118 90 238 162 122 208 78 222 143 124 131 127 109 54 191 166 49 105 51 148 123 101 143 88 137 103 174 80 141 168 95 201 127 93 216 138 98 157 60 203 171 132 193 160 153 46 92 204 67 59 189 37 87 208 157 128 49 106 176 157 
109 38 197 30 184 129 114 152 63 120 171 190 138 161 240 151 116 51 33 184 213 211 65 166 104 56 95 189 218 187 98 32 130 140 96 156 166 133 65 94 143 84 99 84 228 114 145 178 187 205 97 56 167 75 19 117 123 35 63 90 144 73 125 180 12 89 87 27 104 148 88 117 108 166 230 130 8 170 218 209 126 32 112 136 93 154 60 104 62 70 56 69 187 157 207 34 147 165 196 140 
194 164 85 220 188 139 137 82 25 114 31 123 59 219 81 124 230 48 138 96 88 125 25 90 96 180 166 199 99 107 216 159 67 80 43 225 235 197 63 189 166 135 95 150 178 47 235 141 165 80 206 115 156 83 69 102 220 196 28 193 165 123 192 197 56 100 121 89 135 109 181 181 132 108 154 35 106 100 74 129 219 24 99 174 99 122 163 101 71 101 150 191 87 212 148 200 165 170 140 208 
70 69 105 88 31 75 97 92 60 85 56 148 115 53 108 215 79 121 118 210 72 106 134 156 154 162 150 47 56 23 188 156 195 110 136 150 195 64 166 65 192 127 106 191 79 185 89 78 105 86 68 167 155 205 184 92 154 177 107 184 158 133 75 88 84 56 189 76 136 176 163 86 176 88 82 96 238 187 113 119 189 225 42 105 174 90 76 56 69 58 147 144 57 173 66 80 85 206 84 174 
51 22 61 87 132 147 214 78 149 98 112 185 42 69 117 78 205 184 170 17 102 72 202 223 144 84 74 97 83 82 57 108 73 96 20 77 89 218 85 106 89 129 53 197 188 134 131 203 127 198 189 105 161 111 195 141 159 109 95 90 104 164 192 177 74 222 90 229 65 30 16 31 91 68 151 217 26 113 156 76 30 46 77 143 95 187 186 109 62 152 91 176 201 148 114 100 229 116 76 63 
129 155 178 185 78 190 51 215 45 134 174 105 117 80 170 103 161 136 54 83 42 147 68 105 42 140 50 120 143 125 82 184 152 177 173 175 219 162 23 99 112 139 154 125 176 161 210 127 116 106 123 147 129 41 76 94 175 121 155 163 111 21 95 179 98 44 206 157 161 164 111 73 140 218 96 178 64 24 225 182 81 17 96 70 92 220 106 39 118 98 118 175 167 194 211 199 157 63 113 11 
60 221 171 172 88 113 110 77 127 124 196 96 193 29 47 121 96 188 46 155 50 99 12 150 230 111 177 157 64 146 109 84 109 45 139 164 56 146 11 123 121 50 130 78 94 178 204 51 83 80 109 202 100 104 163 50 83 98 51 71 191 148 108 214 61 211 48 41 168 80 22 199 161 212 195 204 137 86 122 86 53 74 103 196 111 112 160 138 132 103 25 83 63 111 128 216 75 132 118 60 
81 72 61 158 134 129 160 182 185 157 216 148 38 181 204 187 204 43 230 83 119 171 98 90 45 70 141 140 151 78 74 50 97 51 196 178 128 79 84 36 240 136 176 181 40 46 89 179 135 180 97 224 84 199 150 218 208 154 204 151 193 212 130 148 191 136 204 144 97 133 48 98 117 59 138 201 109 107 53 21 143 126 90 154 227 76 78 167 64 167 140 195 52 124 100 232 183 104 86 124 
188 227 209 206 162 195 133 210 151 47 187 152 153 188 22 101 74 77 209 150 48 73 187 210 123 35 215 199 192 77 137 192 131 130 164 133 197 166 50 99 41 149 164 181 94 57 121 210 160 167 207 140 184 179 34 197 64 136 17 200 193 37 43 27 188 147 97 99 122 44 180 165 100 96 216 168 70 127 77 49 180 75 200 38 106 80 113 107 225 42 44 121 154 195 187 37 198 57 184 139 
183 184 125 166 172 114 190 144 103 46 92 117 99 197 35 172 100 155 192 163 159 212 148 54 125 136 157 238 228 97 140 174 119 75 138 18 197 70 34 27 105 123 77 170 208 140 200 226 124 92 96 208 172 209 223 68 122 138 118 89 56 70 141 105 48 136 156 149 180 171 227 230 164 144 192 90 138 56 173 119 117 180 155 100 65 87 174 166 176 134 111 85 126 44 70 198 211 90 121 60 
90 103 73 73 36 100 237 166 210 140 175 161 71 119 160 103 72 214 183 97 158 53 158 92 137 189 31 101 137 69 12 115 144 200 113 124 122 172 127 173 153 141 177 203 145 163 146 169 188 62 121 87 53 122 73 111 57 120 191 73 52 166 174 109 187 31 212 54 73 84 179 80 183 94 137 217 81 44 175 112 176 89 66 146 153 147 207 196 206 140 207 107 142 192 122 110 194 31 55 208 
69 135 185 86 152 44 138 208 199 65 196 44 210 107 186 210 195 51 95 52 82 50 169 15 142 116 131 180 20 115 152 141 76 15 23 85 137 86 192 129 173 32 124 126 34 138 209 151 198 138 192 24 27 89 185 36 74 97 192 68 177 209 193 167 147 119 59 72 128 150 97 161 128 68 97 51 68 137 194 202 231 174 177 182 31 134 206 156 97 150 63 72 237 16 161 191 137 138 174 203 
130 167 67 119 41 13 153 78 187 248 72 98 188 87 96 131 49 135 193 157 52 210 44 135 178 121 182 50 202 199 182 99 143 60 173 75 154 136 87 77 119 169 162 142 48 123 116 111 205 52 105 84 179 52 102 164 75 92 56 88 126 162 24 65 121 98 134 114 179 213 56 85 81 117 176 192 197 187 176 148 183 107 110 215 226 111 123 237 63 186 140 144 178 122 233 171 179 201 79 109 
148 165 55 24 219 52 204 67 129 117 44 87 154 212 61 142 235 109 221 189 82 17 66 176 215 153 82 94 109 68 109 195 117 137 149 162 47 86 208 66 190 103 66 92 138 150 72 18 184 114 187 115 113 133 45 63 77 127 87 181 94 225 156 102 118 44 165 204 144 179 57 161 187 60 105 186 58 150 29 220 149 134 145 205 233 117 231 206 52 70 86 42 181 73 63 191 133 84 185 109 
124 142 53 185 211 123 105 80 115 148 77 93 137 107 84 200 221 81 47 129 110 84 121 75 216 147 50 83 89 152 47 107 157 147 180 38 72 184 114 67 150 102 119 147 222 139 18 51 120 74 158 229 53 82 123 190 39 137 105 238 163 106 63 125 185 226 189 160 82 20 149 77 116 146 98 103 124 95 38 34 109 136 160 158 74 135 140 76 175 181 129 198 119 66 153 76 59 65 149 62 
125 124 108 101 187 202 168 38 181 149 179 44 115 93 123 138 94 187 201 94 30 115 160 97 172 82 30 85 165 185 215 131 191 118 171 116 122 175 168 107 192 79 85 69 108 197 198 68 203 103 58 149 207 190 179 74 141 139 176 37 176 99 83 41 163 66 192 170 113 159 147 20 100 97 163 35 137 206 36 130 109 90 38 41 135 184 112 146 47 46 54 197 187 194 68 91 86 91 79 231 
201 92 125 164 135 152 88 199 164 166 148 59 147 96 68 155 203 130 203 185 78 123 238 135 59 108 103 95 50 198 206 203 57 199 125 61 87 59 187 201 85 170 118 31 37 75 182 85 61 49 168 14 219 79 168 219 67 123 201 97 59 124 50 104 198 111 171 74 114 93 62 186 155 24 77 45 179 41 157 197 96 139 75 136 159 115 224 72 51 175 191 163 94 105 81 63 71 73 211 93 
104 183 114 135 157 180 150 84 194 206 143 98 96 78 106 35 165 206 55 235 48 86 19 161 71 144 197 86 168 160 140 145 174 43 129 142 190 104 87 77 79 24 107 224 74 119 99 186 21 186 155 178 193 47 75 35 149 224 127 117 106 138 140 123 196 69 187 30 47 118 115 121 132 116 32 87 218 70 74 190 61 105 125 191 198 129 133 136 198 193 73 101 67 191 36 121 97 102 229 120 
80 95 132 79 103 194 195 126 221 196 56 98 69 106 149 78 34 205 167 225 195 60 109 89 169 135 149 130 59 111 153 56 221 93 123 168 112 76 102 156 153 179 207 159 183 195 66 91 79 164 203 103 30 73 109 91 159 201 198 181 189 45 82 88 123 120 51 115 15 211 76 88 182 134 181 59 145 150 235 140 56 74 132 158 93 212 24 154 189 74 190 187 72 217 142 77 99 64 100 153 
106 104 156 94 95 198 118 113 43 141 91 107 180 82 73 127 143 132 34 60 32 148 135 37 138 194 160 44 66 78 205 184 164 65 183 23 67 71 130 162 145 195 127 32 113 185 54 59 122 118 151 70 104 79 121 223 181 41 196 89 116 109 51 123 156 116 44 87 84 122 170 63 53 199 187 44 187 96 201 179 114 167 212 62 86 79 196 99 41 149 103 117 67 96 53 180 150 197 202 157 
68 134 65 210 141 63 62 163 140 31 176 25 115 210 155 112 193 86 135 26 164 190 111 153 72 38 169 130 73 96 131 195 86 118 70 168 106 41 206 91 101 58 164 62 90 58 69 60 140 174 142 138 133 114 112 99 131 152 83 20 29 60 214 105 50 140 84 105 69 85 234 54 183 111 180 131 186 84 160 78 87 40 212 52 208 141 113 95 173 166 168 201 117 93 97 147 65 124 197 137 
52 32 87 87 100 146 115 186 86 174 18 251 28 36 88 54 121 179 114 136 70 212 130 108 210 193 134 184 42 114 150 96 88 210 49 135 173 160 33 141 218 70 67 67 163 200 51 148 40 138 187 247 171 179 114 55 41 95 76 78 151 74 23 67 152 154 128 61 63 126 137 100 210 127 205 62 81 211 102 65 57 130 86 96 121 168 216 200 85 46 70 203 161 88 138 105 116 37 159 116 
53 179 201 172 51 46 21 31 177 101 188 131 108 82 201 51 14 27 155 132 108 227 30 176 55 156 133 201 183 212 161 140 47 181 106 174 196 202 154 146 117 64 181 222 108 166 119 110 142 202 124 171 106 130 96 60 160 95 214 72 32 191 184 62 76 76 166 74 38 161 206 189 129 74 116 76 30 237 169 178 183 161 219 130 71 38 161 88 29 179 175 200 136 93 104 160 100 179 198 146 
126 41 78 201 88 100 103 210 37 192 115 97 168 167 157 182 147 147 128 177 104 122 177 204 183 189 87 63 136 170 169 192 85 153 42 27 94 32 54 65 83 180 47 68 180 187 62 108 32 191 31 174 89 125 39 35 123 58 105 64 157 84 63 133 135 28 127 66 209 62 186 138 52 152 151 149 178 58 79 71 83 165 60 204 205 67 121 189 81 175 42 111 144 110 88 191 89 22 152 152 
120 122 73 171 213 154 90 161 94 74 104 79 129 153 98 63 173 123 167 56 53 205 188 144 129 195 216 201 94 151 25 151 184 51 161 90 113 95 181 204 148 113 123 137 62 196 129 153 94 94 168 80 191 217 166 160 177 109 112 106 151 70 113 88 129 162 85 209 50 190 190 151 111 207 193 133 208 225 56 182 65 96 88 151 79 198 182 175 180 54 149 92 94 137 166 33 175 24 163 67 
169 21 66 118 149 131 65 109 171 130 83 18 162 20 170 67 128 211 174 198 194 71 148 195 195 159 79 54 39 111 229 128 90 34 62 60 125 76 124 161 72 179 69 224 184 78 179 69 162 130 111 121 131 198 136 128 119 69 113 227 185 107 227 150 175 52 59 50 155 139 87 78 148 153 92 172 121 71 83 100 102 138 159 30 69 89 55 54 140 69 194 114 74 85 196 204 208 137 32 59 
53 112 124 177 127 106 159 205 62 93 186 44 65 95 43 91 129 168 104 153 109 109 109 113 107 65 180 23 156 116 179 151 113 102 175 87 29 40 81 121 153 77 200 28 39 94 202 53 218 76 78 131 178 99 103 153 189 128 133 129 64 78 213 100 39 146 112 185 126 96 136 146 181 50 75 183 90 60 137 128 121 156 188 85 91 229 99 173 103 59 127 53 38 155 87 179 135 183 206 134 
188 121 108 202 164 108 163 206 111 210 94 72 186 116 122 246 160 153 220 37 127 83 134 137 212 199 216 77 220 243 84 156 145 58 126 234 30 127 24 67 215 161 57 215 157 185 210 109 52 80 36 184 187 192 45 157 56 154 110 114 39 195 52 92 106 161 149 32 187 99 75 113 146 50 68 123 158 104 43 209 132 192 233 51 72 79 123 97 121 161 92 92 86 207 59 34 92 60 158 204 
23 138 110 165 21 89 165 127 171 93 116 102 94 119 43 55 90 192 191 100 169 89 155 80 78 102 94 185 147 75 171 152 90 173 135 83 54 113 160 126 131 167 38 37 109 62 115 139 95 99 140 79 71 195 56 192 115 174 224 120 205 24 207 38 178 178 133 115 133 155 13 121 104 44 124 138 150 50 96 23 115 209 166 36 104 191 185 34 131 64 127 191 139 85 135 157 177 129 154 61 
70 42 93 198 58 189 145 179 69 124 178 152 138 191 65 152 28 72 210 96 50 236 184 89 45 90 79 38 69 77 73 70 218 173 89 165 168 32 74 168 82 86 173 142 124 57 230 63 187 107 52 100 114 154 196 188 132 155 145 148 84 128 194 150 204 174 101 46 136 75 162 45 138 117 93 74 169 34 24 115 146 91 199 107 72 158 132 104 113 201 134 129 74 123 135 209 220 208 146 144 
142 161 85 40 173 143 160 83 155 107 210 122 221 189 95 169 20 113 64 149 114 173 205 66 84 133 140 100 140 139 200 93 136 168 197 38 182 231 89 207 144 48 94 203 98 99 87 63 171 138 151 67 147 154 127 199 129 52 93 85 69 91 177 111 133 36 74 87 59 86 179 53 141 211 79 154 171 115 123 106 185 188 199 156 140 29 144 153 46 142 149 103 159 111 127 45 192 151 15 148 
110 157 170 151 60 231 202 162 177 76 66 174 114 83 188 51 183 119 164 183 63 66 51 84 71 217 178 32 158 185 55 145 20 129 93 203 71 193 98 187 92 162 195 214 58 202 225 78 120 39 21 130 84 158 199 156 108 100 95 145 146 168 67 99 162 141 184 45 190 85 204 171 160 183 94 117 142 191 93 98 189 71 192 160 100 92 119 98 201 194 131 185 86 100 110 162 168 70 81 101 
214 106 190 48 84 147 98 26 36 75 134 112 162 88 80 192 92 103 200 151 65 225 104 98 39 43 82 236 161 118 43 164 175 220 138 169 172 218 171 71 181 227 184 191 205 134 195 124 94 137 62 108 116 53 31 179 94 96 87 38 89 90 43 86 69 151 48 100 69 46 146 213 144 140 200 54 117 58 81 151 231 141 175 147 151 94 234 160 119 58 74 99 54 154 35 91 194 90 166 118 
165 217 60 75 72 211 150 131 163 154 200 134 20 184 43 87 184 41 221 179 94 96 68 222 20 85 27 155 95 98 232 88 134 85 185 194 137 176 30 53 111 216 49 124 158 82 40 193 186 224 60 92 65 125 176 205 93 183 195 193 100 67 52 52 93 168 129 152 74 112 60 196 171 103 59 185 89 171 156 208 146 91 197 164 86 107 82 36 37 109 97 147 135 177 151 85 183 199 180 188 
77 37 61 161 115 214 182 200 157 129 123 166 193 35 116 50 64 148 105 131 150 167 46 127 60 108 39 120 125 127 183 94 137 187 45 114 177 175 193 208 211 100 49 208 99 184 173 158 83 124 112 80 107 83 227 83 105 38 120 104 106 133 212 193 92 110 96 144 151 55 93 220 186 113 114 114 44 142 115 105 157 159 56 120 68 50 138 63 67 62 164 127 158 97 82 136 185 36 171 176 
52 201 49 36 149 133 35 152 144 155 174 85 167 198 70 149 55 103 64 196 72 138 179 194 125 234 58 81 244 42 152 123 176 139 155 199 61 46 74 136 189 88 161 186 144 159 198 203 198 128 152 76 59 190 170 70 170 216 181 112 31 176 123 92 77 21 119 142 87 146 165 191 198 236 56 227 120 97 174 92 122 104 143 91 186 186 91 162 155 145 82 43 169 209 174 83 212 132 180 131 
138 109 108 226 153 28 132 231 128 126 60 220 89 48 57 198 173 216 54 86 128 222 89 197 51 193 205 70 100 200 163 184 48 156 175 207 20 59 111 119 59 160 184 81 92 111 178 69 182 134 201 162 150 21 193 142 44 139 203 145 152 181 197 100 63 223 57 54 203 37 80 171 158 92 123 44 101 223 139 115 193 47 210 160 193 86 215 167 177 155 64 122 144 113 68 79 167 217 177 53 
71 193 166 63 127 143 30 203 137 93 204 221 201 216 51 122 141 113 175 198 188 201 153 177 39 216 123 79 55 125 27 188 23 51 107 174 29 99 66 29 85 174 209 64 172 154 173 150 122 177 110 30 18 156 92 35 74 116 106 28 81 134 52 145 125 152 107 122 189 93 160 189 116 190 82 126 131 108 97 107 188 130 159 69 41 124 61 50 123 38 190 51 136 78 70 206 203 203 37 166 
129 151 191 206 130 54 212 62 195 138 122 147 150 81 55 221 78 216 198 72 221 216 99 105 66 91 69 196 74 68 88 209 195 161 125 125 102 91 177 224 55 77 75 70 53 114 119 136 176 18 71 207 210 182 222 154 42 148 163 215 148 85 50 169 187 68 138 161 166 209 108 142 78 133 194 212 102 193 171 223 102 160 231 66 116 234 196 105 133 168 124 84 43 67 148 165 129 161 193 162 
182 145 120 96 84 204 118 93 144 66 105 203 58 56 180 124 94 52 140 69 143 75 169 214 189 146 104 167 131 76 160 80 178 92 50 120 65 53 117 127 116 136 101 200 200 216 48 171 160 113 110 82 159 180 125 201 88 187 108 199 141 44 196 186 151 38 174 102 186 119 116 61 208 206 86 93 169 164 182 165 135 154 136 146 131 238 108 230 85 208 111 185 130 50 57 93 201 115 98 99 
173 84 53 146 43 33 52 134 142 189 181 111 80 186 43 95 185 18 38 170 116 54 125 209 107 125 121 27 97 127 57 124 108 93 139 98 49 125 195 135 185 141 169 105 82 188 211 90 167 144 66 59 130 152 201 68 18 75 224 182 214 216 150 209 105 140 162 95 180 139 62 186 121 65 57 167 199 147 40 70 132 46 95 135 130 87 173 202 145 102 171 185 174 198 192 234 125 220 167 150 
153 170 25 116 57 195 112 139 99 225 76 191 127 199 135 218 132 166 161 87 224 180 196 170 183 186 73 34 180 199 24 100 146 80 64 238 61 183 205 68 106 224 72 128 101 24 84 60 182 169 50 188 178 105 63 58 180 155 58 84 131 173 100 105 108 44 208 91 197 209 50 145 173 191 85 96 85 125 138 162 76 99 150 68 176 151 31 73 55 163 157 147 163 232 53 74 135 176 80 212 
39 197 184 139 149 174 219 176 181 107 35 82 123 210 201 159 121 88 125 213 130 153 105 55 127 167 170 207 60 138 184 79 50 240 93 136 125 168 166 216 114 64 159 207 71 214 130 197 59 64 162 164 112 113 97 138 84 150 124 102 81 130 190 66 85 168 194 70 114 129 60 231 45 186 77 52 188 136 90 111 183 134 44 43 150 140 176 29 128 156 47 144 20 47 50 58 85 68 36 119 
76 189 73 61 171 193 40 166 130 166 10 196 115 176 28 69 214 151 80 42 79 112 95 87 109 92 173 166 45 57 188 209 104 189 82 133 149 51 164 89 86 179 220 131 170 126 203 113 234 152 107 198 114 113 96 52 186 79 80 29 74 182 176 160 212 86 172 201 130 134 167 220 234 148 241 45 236 191 186 61 152 108 95 55 183 75 163 174 132 139 131 172 159 88 146 75 74 168 221 124 
