P2
100 100
255
96 65 115 91 187 140 105 91 52 195 25 99 168 24 183 119 69 219 71 144 143 97 136 177 205 70 176 89 226 133 130 159 107 63 174 110 91 70 83 58 117 157 45 187 113 184 164 65 104 101 217 227 131 229 122 65 215 149 139 161 102 160 35 232 29 74 169 116 61 215 183 183 241 104 154 109 208 126 69 48 45 32 174 186 145 141 223 92 138 77 183 79 54 15 93 116 118 139 119 116 
143 132 187 100 207 179 81 44 111 69 74 157 57 107 73 75 51 75 118 236 47 8 62 209 138 197 120 213 130 20 142 62 105 167 64 95 105 104 56 100 202 95 120 62 106 76 147 164 100 32 214 71 106 124 70 90 193 103 214 94 176 93 102 119 99 145 87 153 135 91 201 121 86 173 142 45 115 170 134 195 91 206 55 153 53 194 75 120 67 192 53 218 80 218 204 50 154 191 161 194 
72 83 79 183 223 69 117 110 153 50 119 200 99 159 47 112 29 154 146 116 193 48 110 169 188 135 83 140 193 190 50 99 156 80 113 131 89 155 155 214 200 186 115 198 195 108 91 175 117 65 178 44 63 170 47 48 52 201 171 90 184 63 118 156 109 183 180 66 54 190 117 146 86 76 110 91 151 135 74 170 158 187 33 190 104 51 202 121 212 20 131 61 71 176 198 155 78 19 180 107 
155 200 216 183 230 52 225 154 55 66 64 91 113 55 159 143 85 104 186 121 175 173 114 70 87 179 228 69 48 34 85 156 140 87 75 102 130 156 139 216 215 181 157 39 41 200 230 103 28 167 208 173 33 106 108 83 176 213 105 139 66 58 77 43 121 149 88 169 60 220 152 201 144 89 111 235 140 82 195 117 191 64 187 90 167 51 164 135 44 159 99 140 82 129 195 183 186 90 195 35 
115 203 70 143 180 141 86 11 67 98 144 131 149 124 56 154 121 72 126 112 189 113 161 138 54 61 51 131 221 100 75 107 52 124 138 68 68 207 49 155 169 191 67 37 147 202 53 217 54 167 214 75 210 28 193 42 79 205 167 78 140 198 209 95 173 66 188 125 81 160 145 158 120 127 101 84 153 61 144 205 75 113 138 156 144 220 109 94 228 189 104 153 123 46 112 99 19 202 172 193 
206 122 117 176 115 184 209 192 48 212 66 47 24 110 151 135 51 221 191 176 59 20 99 47 36 16 8 122 135 68 187 175 232 132 182 20 143 222 113 159 101 197 38 175 53 203 103 196 114 172 138 97 80 160 213 62 148 75 142 182 44 197 172 155 73 97 155 60 195 48 54 77 140 180 219 219 134 143 212 131 131 107 147 131 201 171 157 64 44 42 79 213 135 81 180 106 219 123 48 142 
122 229 203 106 131 197 76 47 56 171 162 86 110 195 229 55 236 12 69 111 126 79 77 70 186 224 126 155 81 141 108 66 117 230 174 133 106 114 47 98 158 183 204 124 102 127 105 208 95 47 109 69 173 124 161 165 128 79 77 92 203 211 89 169 88 48 110 170 16 146 93 179 116 190 75 112 93 184 214 207 133 74 125 110 189 101 108 171 58 111 184 217 201 121 154 90 185 222 214 64 
104 135 155 177 115 104 120 210 105 150 113 34 71 54 165 58 72 143 214 54 78 103 174 84 132 137 88 98 205 160 198 190 162 72 78 80 151 179 79 239 68 131 180 143 184 170 68 155 69 47 174 57 152 36 159 221 107 163 16 44 204 116 127 44 170 62 83 190 114 211 108 73 62 119 221 191 166 37 77 153 101 67 200 127 137 83 35 79 141 72 149 73 124 208 92 170 84 164 141 163 
122 208 191 54 102 147 238 119 184 77 74 104 218 87 61 245 160 167 161 110 88 153 195 141 55 210 185 113 200 76 62 68 108 81 176 89 92 55 32 142 71 120 90 75 72 224 133 91 124 179 22 112 93 99 58 23 79 147 51 96 46 180 144 201 188 235 120 114 65 118 120 50 219 71 140 184 107 71 119 172 119 87 67 128 125 163 75 102 186 136 79 207 122 127 111 186 184 205 111 71 
140 197 73 97 115 170 32 58 145 189 89 26 209 109 119 160 174 31 136 38 189 152 117 170 160 60 175 50 162 181 155 142 54 197 92 114 236 106 162 192 40 39 203 215 93 45 139 207 188 202 98 219 63 71 41 34 96 158 232 115 57 173 150 94 123 78 37 128 202 198 86 218 47 58 144 67 53 186 120 109 66 145 170 155 82 95 114 145 96 224 90 88 117 188 229 147 129 216 56 87 
106 140 68 37 79 55 43 209 112 40 125 130 125 154 110 228 49 27 213 108 186 134 109 52 226 123 135 21 170 145 158 146 160 183 140 160 217 91 121 63 91 179 142 33 221 172 200 168 114 66 22 123 59 124 127 153 183 240 179 90 218 169 98 88 138 162 164 75 215 219 191 206 133 69 120 152 211 173 223 151 160 59 173 121 83 69 90 56 140 161 224 38 79 218 50 60 105 207 80 185 
156 208 157 184 145 206 122 104 149 92 74 196 161 71 24 111 152 70 115 160 149 161 53 174 228 201 41 76 92 57 140 110 58 211 162 122 99 75 198 146 87 154 201 129 40 122 90 181 152 100 69 27 48 165 127 69 87 27 185 141 46 170 149 93 178 115 203 25 201 137 132 170 92 58 104 92 165 224 164 83 195 64 174 133 54 169 72 67 199 126 35 145 179 66 56 111 204 175 154 148 
95 147 37 241 80 161 96 64 134 66 197 63 60 219 219 161 41 94 65 212 222 178 100 71 208 61 186 65 147 56 91 130 195 106 33 39 184 175 240 105 191 125 110 161 64 163 148 38 224 109 192 100 128 130 181 164 187 199 165 80 176 181 135 106 118 92 122 109 125 174 128 59 82 205 204 121 62 18 161 71 74 68 133 208 166 124 225 95 156 160 104 235 108 41 175 134 213 126 166 36 
153 172 191 188 215 182 110 57 88 90 70 95 207 79 41 79 113 219 99 109 189 71 164 205 156 102 134 143 132 42 91 90 191 78 84 46 141 48 123 89 27 93 193 122 81 52 192 123 47 121 86 173 74 156 196 187 224 138 62 127 61 34 75 65 51 193 219 41 224 134 182 182 227 148 114 130 59 91 184 150 103 56 189 58 36 201 196 97 186 108 133 186 53 87 139 122 53 91 78 25 
195 193 90 124 109 225 125 41 146 80 173 67 138 77 236 212 60 99 142 188 164 33 39 202 128 111 126 164 88 49 87 148 171 101 59 85 77 136 219 70 158 80 71 129 119 177 64 39 198 215 66 26 132 160 166 106 56 147 112 55 147 208 184 118 113 52 173 114 73 159 39 86 227 77 158 188 100 147 177 211 116 80 118 168 137 150 54 232 213 116 67 223 89 105 202 106 128 144 171 188 
76 211 177 174 45 171 79 86 147 105 212 66 100 86 181 112 212 84 121 113 173 162 155 118 89 189 223 52 157 121 82 136 73 114 232 207 133 118 225 70 155 190 204 123 68 34 111 115 108 127 96 149 193 73 131 68 136 161 94 91 167 14 197 157 162 159 96 75 109 142 87 31 85 34 122 91 29 140 129 61 94 147 71 188 77 61 133 93 95 142 158 72 50 150 121 116 156 110 74 68 
121 146 136 89 136 53 99 251 87 156 73 196 29 71 49 229 147 62 66 28 161 165 177 107 90 165 166 65 104 28 182 151 66 166 86 83 124 94 156 53 85 76 79 144 163 88 202 102 168 151 180 89 214 107 177 127 109 62 139 53 128 143 93 103 190 93 105 154 86 50 39 71 178 40 93 143 183 43 213 92 110 122 161 92 48 77 172 194 58 114 123 105 105 50 192 72 54 61 118 44 
186 126 139 189 188 200 93 161 39 117 229 110 46 185 225 174 110 202 166 206 30 106 58 208 58 189 136 148 200 52 137 122 220 183 87 162 155 56 62 31 235 63 146 153 77 22 124 148 48 74 61 176 163 104 124 111 77 110 128 187 24 151 68 54 82 38 125 176 99 72 77 39 106 195 125 97 74 116 204 213 150 84 33 87 103 150 183 125 161 41 238 154 50 164 114 191 202 202 61 132 
141 180 53 106 101 218 67 82 55 133 61 29 185 161 89 13 175 57 81 143 149 156 81 102 70 195 125 74 65 186 88 92 125 48 151 83 97 86 177 30 154 105 38 138 136 129 150 136 183 165 29 74 117 218 156 77 149 163 188 202 156 135 75 192 69 156 23 120 119 60 112 154 59 152 132 80 55 188 116 222 121 223 110 151 43 149 163 217 242 52 93 127 148 116 137 120 205 60 136 84 
27 142 108 70 111 221 74 104 190 90 132 115 72 56 187 182 96 152 232 127 177 58 167 209 69 74 38 37 181 98 186 61 108 87 187 119 154 102 49 247 107 65 174 190 127 75 87 66 182 131 116 221 117 230 155 175 177 154 129 181 29 144 217 121 106 45 122 72 52 134 40 67 102 49 224 160 209 74 97 122 50 189 128 104 58 208 181 85 120 30 182 212 174 228 205 173 185 163 240 145 
100 80 203 55 218 158 107 159 128 171 179 59 171 203 186 242 166 145 218 177 70 137 47 95 137 145 183 176 195 99 59 201 58 127 30 151 186 22 144 211 178 28 59 211 74 146 158 167 126 170 125 186 137 78 69 174 168 47 36 185 66 195 72 165 92 111 57 153 114 127 211 99 63 106 83 224 53 182 53 122 188 189 88 122 64 127 40 84 36 222 132 131 79 174 228 162 212 111 135 209 
49 156 84 95 196 188 36 162 200 134 183 96 102 80 42 105 124 126 176 209 98 77 205 57 185 112 41 213 114 126 126 78 180 61 22 112 119 157 161 94 24 79 175 134 151 155 125 153 20 59 133 101 193 60 228 32 151 51 215 137 170 237 50 213 164 144 222 230 73 173 62 221 111 219 192 148 213 153 117 154 49 199 42 194 53 211 125 67 176 58 74 117 235 74 156 231 60 118 111 213 
164 118 96 134 246 90 199 159 134 57 34 119 180 167 169 220 85 36 37 184 35 183 47 143 65 193 176 192 111 130 186 162 137 43 138 97 147 109 211 68 162 159 58 240 66 168 163 206 143 146 113 113 90 52 76 113 97 209 162 73 184 42 126 30 163 65 202 137 185 94 84 202 96 133 182 138 172 97 76 87 113 187 113 85 141 33 146 204 207 124 183 80 210 146 53 146 143 177 146 205 
172 34 85 208 187 156 180 72 56 108 139 102 94 136 57 160 175 131 87 142 130 209 178 52 58 117 110 170 193 186 128 37 140 99 211 142 153 129 202 192 158 209 26 140 211 151 148 92 97 150 142 192 139 167 180 57 113 30 191 109 59 133 148 64 220 86 82 101 71 203 117 42 42 174 191 229 22 201 175 74 203 150 82 99 34 57 86 87 48 28 146 178 74 113 193 71 211 193 59 99 
134 140 90 163 159 57 134 104 113 76 91 33 33 220 74 90 34 202 83 141 188 100 189 197 53 127 211 71 205 213 102 195 95 114 48 80 169 152 195 125 155 201 125 145 224 153 129 93 207 163 213 99 111 102 129 24 129 171 53 135 205 131 88 79 86 233 115 198 217 154 160 79 112 176 107 157 75 56 124 155 171 93 133 140 67 114 146 185 147 160 150 90 68 145 133 169 146 216 163 214 
243 61 113 100 147 189 91 100 167 204 138 153 54 172 75 149 120 163 85 119 79 186 155 193 55 129 117 189 160 192 37 160 202 155 79 125 20 76 128 153 137 44 214 174 135 127 188 58 124 185 21 108 151 96 178 13 21 145 132 123 81 222 52 130 56 179 60 135 123 176 42 64 197 146 63 211 62 181 124 129 79 47 184 166 68 141 132 66 201 135 160 118 128 74 96 138 167 212 213 161 
32 47 190 20 130 150 160 121 60 35 73 218 107 77 53 134 90 169 100 158 59 167 182 92 122 38 152 220 157 227 102 50 149 24 53 159 98 52 146 164 166 151 184 116 42 223 63 230 140 196 161 60 69 143 219 139 165 160 162 159 56 116 61 146 132 44 69 158 122 140 116 110 126 105 47 68 72 26 169 141 153 184 99 198 204 168 63 74 50 59 83 213 38 160 210 194 52 53 89 73 
174 192 25 106 231 21 146 183 47 173 197 64 196 159 153 144 168 183 108 130 195 151 189 50 141 187 175 96 201 191 136 32 165 106 178 50 24 44 97 215 217 156 163 180 165 188 143 150 89 51 202 58 76 97 60 140 92 227 126 100 175 152 10 158 157 67 17 115 58 99 131 52 9 25 106 17 88 146 160 187 236 49 96 162 150 35 166 214 122 56 154 184 37 218 211 118 67 196 110 94 
178 128 55 227 214 43 124 66 51 152 66 95 55 110 69 121 197 45 172 117 160 28 192 110 122 64 149 112 187 85 186 71 210 174 104 197 170 210 200 127 160 176 90 59 176 60 54 38 133 139 97 65 100 163 144 140 84 196 65 134 99 127 176 158 78 185 214 33 146 146 208 220 65 168 132 49 96 87 103 145 137 98 29 127 125 84 157 34 107 86 51 161 164 25 184 108 224 162 105 194 
150 109 41 183 150 87 131 157 125 46 102 182 25 51 11 44 168 130 225 117 111 157 138 75 104 179 192 159 47 91 40 187 56 187 149 72 150 121 124 101 182 202 121 147 65 57 37 86 69 113 88 210 53 175 96 134 48 103 110 151 170 138 123 160 192 120 32 121 125 151 63 129 149 126 59 194 197 225 107 44 105 193 55 102 154 206 236 93 69 82 155 106 83 46 113 218 226 112 212 222 
167 71 61 121 171 137 148 96 74 125 110 180 77 57 187 179 84 36 27 23 108 87 169 68 53 58 82 107 162 122 177 70 42 99 201 159 189 106 36 202 185 34 114 138 86 169 145 69 193 222 128 214 20 151 133 100 149 78 50 64 67 155 78 56 198 221 37 191 65 230 170 68 67 172 208 60 172 94 65 51 220 155 62 100 101 212 65 146 132 148 61 85 99 145 99 176 97 50 231 49 
125 168 174 214 182 68 195 172 121 140 118 56 123 186 158 41 64 76 119 55 144 172 179 61 192 15 173 33 124 11 101 55 162 109 115 167 155 48 47 71 113 135 229 184 85 30 178 53 73 192 177 166 37 197 141 123 141 166 193 91 189 92 184 73 79 63 170 126 58 199 168 59 196 143 108 81 123 38 110 193 43 190 184 214 172 141 188 122 207 37 115 149 69 85 79 212 177 96 140 129 
135 47 88 48 36 52 121 75 203 154 31 31 191 85 57 192 149 80 185 136 130 70 151 174 185 205 230 140 31 93 69 107 171 49 144 63 202 148 179 54 202 105 192 199 150 94 181 185 136 132 171 89 203 128 160 43 152 88 130 162 222 87 99 158 116 164 121 43 83 175 100 172 176 64 181 155 90 117 75 51 138 141 210 165 95 38 98 73 191 11 62 173 76 85 198 113 196 167 117 90 
134 14 129 132 137 98 65 167 118 87 56 180 77 65 153 53 123 93 114 104 184 56 15 64 209 195 40 116 201 186 116 182 106 209 123 122 181 59 53 153 143 83 99 121 181 162 195 114 51 170 136 119 134 177 178 149 62 158 69 216 107 72 103 149 100 93 57 235 145 188 126 129 163 114 107 218 134 20 126 54 240 139 143 170 95 111 90 165 161 228 88 65 22 148 88 219 50 146 86 177 
211 27 217 141 212 129 156 47 100 45 187 55 117 70 194 141 88 126 149 27 213 69 201 199 162 98 68 120 219 103 235 101 49 148 226 34 179 122 143 135 153 67 42 81 190 74 106 31 116 163 188 41 161 88 231 174 128 122 175 160 28 66 214 111 129 162 115 111 197 205 150 159 100 191 225 59 156 36 200 208 38 169 41 25 146 55 165 161 211 193 82 95 139 143 97 226 167 60 111 48 
56 146 127 52 49 93 185 130 126 204 150 143 224 56 185 224 80 160 98 52 113 190 22 161 162 226 33 62 200 105 199 173 197 113 166 56 68 72 79 229 208 96 53 164 106 169 88 38 86 79 151 195 220 172 12 97 50 109 27 145 220 176 77 214 107 104 93 96 160 42 47 85 66 110 195 163 148 63 87 25 200 180 82 77 55 143 61 175 85 155 50 137 80 129 199 105 99 220 77 223 
134 90 202 138 54 69 212 165 204 46 211 55 182 120 39 57 130 93 185 170 224 93 128 71 76 101 145 204 163 41 201 150 136 142 202 44 137 194 63 178 156 57 149 117 100 163 104 114 226 41 81 179 177 220 34 58 129 145 117 203 93 129 137 124 147 127 153 97 55 68 76 90 101 231 223 46 98 42 55 125 65 168 128 81 227 108 113 39 197 111 29 80 139 215 179 205 52 233 196 90 
38 213 204 122 205 207 214 186 65 177 180 149 107 177 61 104 163 163 226 246 245 197 82 204 146 118 244 10 142 93 124 30 186 194 176 50 123 148 154 145 224 90 33 50 218 80 105 25 165 199 222 133 177 93 82 218 84 141 25 227 103 175 28 79 54 185 75 162 190 111 53 129 182 44 97 159 161 175 78 180 76 70 195 170 59 80 135 82 60 61 97 190 237 73 23 93 100 85 82 118 
192 238 131 66 185 119 204 132 217 87 131 218 75 194 138 157 154 223 94 101 78 72 195 148 43 102 95 112 186 90 56 140 125 164 70 193 100 148 123 162 136 126 109 70 195 134 89 195 189 24 158 108 86 159 38 89 143 125 180 174 177 167 62 170 165 140 170 91 55 152 153 109 44 201 181 14 70 217 63 84 178 30 71 195 182 130 211 154 67 68 79 50 211 88 90 126 71 68 227 131 
91 244 76 164 63 106 71 153 77 221 210 210 197 113 104 67 105 165 164 65 217 15 207 89 197 76 187 97 169 206 158 67 70 120 97 186 155 226 149 138 152 82 39 209 144 53 37 133 183 144 131 66 149 131 53 202 45 216 4 198 62 53 97 132 141 148 238 57 175 166 98 106 117 167 139 24 55 188 16 59 191 76 75 79 162 78 78 230 192 187 214 114 61 65 136 189 78 89 148 191 
168 48 76 109 54 162 174 232 43 90 71 199 212 81 122 37 180 215 167 161 232 179 154 33 99 154 133 63 62 52 164 215 171 59 139 77 131 70 145 126 114 178 84 56 114 140 42 96 186 104 65 126 228 175 85 156 39 196 34 95 80 146 67 52 93 105 143 137 101 74 111 214 171 208 49 89 68 131 93 57 63 100 137 135 119 34 143 135 53 89 149 98 186 151 32 74 168 58 75 149 
119 221 7 148 149 80 202 191 218 64 97 210 239 105 236 117 41 28 227 160 212 195 182 34 187 110 32 156 13 59 150 38 154 128 201 189 77 169 136 200 152 173 94 171 154 162 80 157 149 34 94 34 95 62 97 182 181 74 221 183 170 43 77 49 48 197 84 165 105 124 20 75 180 117 117 115 52 160 166 88 166 221 76 39 221 170 136 179 79 168 189 106 132 237 209 214 204 160 110 88 
198 221 172 40 109 102 49 39 45 149 102 204 40 225 101 100 232 86 44 139 165 168 74 104 144 92 68 150 89 219 187 73 117 185 220 16 143 128 191 183 195 122 26 104 170 213 65 27 135 90 78 134 14 160 90 24 171 124 123 45 139 62 34 156 22 79 222 208 178 169 158 176 226 65 115 57 163 151 193 97 26 187 206 78 106 154 181 195 232 87 70 31 217 124 146 132 234 235 74 163 
98 26 119 47 135 92 88 194 43 46 46 164 154 193 131 129 95 202 113 161 107 140 184 58 154 178 60 14 135 79 109 45 168 106 181 68 171 197 80 177 135 178 200 197 197 82 150 168 140 185 184 123 176 136 100 121 202 62 215 171 46 157 201 85 125 97 72 49 77 101 144 98 185 59 123 218 32 192 201 181 168 191 118 102 154 123 207 155 182 105 142 119 139 61 96 45 65 55 194 55 
45 130 175 104 82 159 89 70 55 52 176 218 64 136 180 81 224 25 21 131 135 137 85 139 93 83 209 99 59 195 66 129 61 129 192 119 183 25 193 45 221 67 201 101 176 174 163 64 191 165 132 74 113 176 96 157 107 59 167 58 118 228 205 197 44 82 128 73 119 84 84 119 105 137 122 56 221 122 186 142 192 162 116 131 189 82 104 142 131 28 88 133 193 182 114 123 73 41 111 48 
167 186 128 169 61 170 132 167 211 101 164 114 101 182 124 185 155 76 56 60 60 110 79 102 30 46 82 142 69 119 199 219 74 201 143 126 141 149 97 132 97 185 153 160 108 80 169 56 164 69 139 53 99 92 72 124 128 160 196 60 45 143 109 144 27 30 170 93 100 98 175 208 70 204 203 116 200 182 91 163 149 173 231 175 150 157 30 81 36 175 172 76 125 52 107 120 128 214 146 149 
134 86 147 93 106 69 56 185 50 74 52 185 66 130 191 57 183 98 113 144 148 116 77 109 158 114 203 158 153 201 201 162 215 193 146 56 179 194 176 172 139 123 152 189 83 116 177 189 193 93 134 100 142 136 167 96 75 132 39 247 150 101 149 203 163 86 200 185 129 75 45 88 184 103 94 92 167 156 105 77 209 78 6 123 132 106 172 171 191 192 135 159 101 71 228 105 33 123 119 228 
102 228 98 153 121 192 140 167 71 145 79 67 131 135 147 83 172 39 165 197 65 173 180 150 196 154 158 150 227 148 122 88 63 132 123 94 40 124 53 231 157 110 46 196 64 61 192 207 223 52 90 182 87 177 111 178 148 118 97 175 103 121 63 191 132 208 41 135 146 208 67 124 233 129 47 108 139 111 55 66 179 231 108 214 38 110 27 152 157 150 99 208 52 203 106 109 220 115 46 129 
191 137 103 76 156 186 78 222 198 34 128 213 124 202 95 156 203 134 177 80 191 178 150 181 148 145 196 184 117 101 57 152 106 30 114 40 195 81 98 150 144 178 59 66 52 161 15 62 142 116 105 143 108 84 96 162 179 196 106 52 171 71 92 38 107 198 40 110 144 79 87 126 24 87 44 80 47 55 137 28 221 191 105 135 76 144 81 152 114 56 118 82 86 162 179 86 50 111 146 156 
78 71 142 175 59 101 125 100 147 114 41 14 222 40 166 95 97 177 170 45 131 112 120 64 69 145 112 114 170 204 78 218 195 189 179 115 36 85 204 159 135 180 249 225 57 194 134 142 38 119 137 34 176 137 76 181 119 120 198 126 114 182 166 130 122 108 108 186 111 88 165 131 102 119 71 215 70 107 65 136 146 223 175 195 109 205 142 120 141 224 148 83 143 163 116 63 87 56 107 16 
179 84 127 233 181 58 28 56 45 105 28 60 90 49 58 120 193 159 165 47 119 193 81 100 130 178 179 120 179 93 197 186 165 69 165 112 168 205 207 138 197 94 101 103 223 246 127 198 74 222 129 191 164 156 37 44 223 202 192 186 125 135 89 102 85 162 66 85 188 147 167 91 54 101 101 183 176 135 180 196 90 82 189 115 62 70 214 77 48 219 76 188 101 117 100 177 176 148 33 112 
218 95 44 186 187 123 105 95 84 55 134 201 157 115 114 42 145 80 172 178 226 35 95 108 214 64 181 171 156 27 109 91 180 74 176 221 64 101 51 74 162 161 91 164 49 177 99 173 109 50 188 206 26 204 135 220 62 105 104 84 145 37 66 188 199 108 172 61 129 72 142 186 107 70 148 215 202 125 220 69 64 40 42 71 182 154 144 79 173 89 95 198 105 218 106 67 138 178 113 103 
215 153 57 150 108 190 138 73 196 67 62 64 60 85 127 221 197 138 182 227 20 162 87 98 223 238 181 148 90 90 193 175 66 138 83 64 142 121 163 68 212 187 226 58 146 238 102 71 64 205 224 117 139 210 44 119 124 190 167 163 88 160 211 30 173 61 156 71 34 117 63 110 42 77 37 99 169 165 16 98 167 128 114 95 173 104 74 205 50 102 205 41 170 126 106 68 205 220 195 220 
67 65 138 19 221 29 30 234 96 201 110 82 58 82 132 119 137 26 209 148 174 140 154 198 54 42 93 85 105 101 57 181 212 68 17 63 75 108 102 125 43 42 129 210 62 98 111 177 127 20 121 194 70 87 74 178 222 201 160 100 90 138 92 91 224 217 164 180 103 122 166 56 191 187 16 146 31 157 113 198 200 223 185 34 153 218 134 153 166 187 98 231 69 96 61 183 175 173 172 47 
100 83 105 179 101 192 37 173 98 25 41 163 169 147 229 163 79 204 60 69 174 94 189 28 144 189 93 218 217 56 169 163 203 89 110 123 147 131 91 76 87 76 195 47 224 76 125 197 59 201 124 215 151 141 70 170 89 33 68 146 31 88 111 176 63 193 85 202 224 37 141 184 87 208 84 215 38 154 203 121 130 82 189 218 204 198 213 180 201 78 96 126 65 109 224 217 146 144 185 81 
181 26 80 24 83 196 74 83 46 124 79 107 207 157 245 135 45 79 47 102 90 197 178 113 117 112 105 137 181 221 128 204 116 56 108 64 114 31 135 157 74 87 117 230 101 44 96 84 92 146 204 84 124 172 116 126 108 209 118 73 168 195 197 14 62 66 223 128 93 159 27 192 163 143 149 194 176 87 154 73 178 133 46 66 39 169 98 192 66 193 106 137 194 157 136 182 160 104 50 42 
152 159 127 22 194 206 222 73 137 157 186 131 94 188 40 141 119 81 176 71 152 145 80 110 52 143 146 202 122 70 138 38 37 205 44 170 41 138 115 109 46 43 172 171 244 144 189 192 163 115 169 45 101 111 149 176 50 41 77 135 164 46 192 83 94 57 117 113 150 105 86 140 207 90 183 177 78 162 116 64 57 82 76 18 165 48 160 123 151 117 100 96 35 90 90 129 91 115 123 118 
89 34 140 165 123 124 214 98 185 147 146 130 122 202 129 57 84 165 118 69 217 165 209 154 147 94 68 205 180 50 131 137 102 87 184 147 164 86 193 215 76 201 91 154 68 210 235 78 176 160 178 160 234 129 102 151 149 168 91 180 47 184 64 156 171 56 227 42 46 178 20 109 73 92 190 140 108 85 152 95 45 106 81 94 215 212 202 187 118 74 103 47 176 80 26 21 192 168 160 149 
179 72 60 160 170 140 79 233 98 208 190 103 189 112 61 197 104 169 91 160 118 164 181 191 148 221 56 134 126 195 134 45 57 116 168 28 86 14 77 95 96 106 166 100 81 64 121 86 176 198 123 146 228 177 161 184 112 136 40 147 136 90 150 119 161 190 105 144 161 81 24 111 37 201 148 78 124 102 150 88 33 111 66 138 229 165 59 178 236 223 111 76 96 140 115 49 135 102 57 167 
108 149 81 153 167 95 171 206 39 78 107 115 199 90 82 217 161 98 128 133 38 213 192 93 58 228 112 195 77 180 169 120 151 83 242 101 89 207 192 38 213 200 23 174 136 75 46 77 220 49 26 200 157 94 17 120 162 72 63 211 67 68 198 61 96 173 107 174 20 74 70 98 133 52 164 117 230 239 60 222 145 75 91 216 106 44 144 132 105 51 87 55 218 119 170 53 125 93 213 154 
161 76 76 156 167 203 70 40 66 90 214 51 157 216 70 175 32 223 164 144 224 111 159 61 174 41 36 203 159 108 134 54 40 163 102 26 167 195 205 107 101 163 205 155 121 155 190 226 102 185 196 152 63 149 150 62 57 142 180 115 112 205 192 150 165 25 82 197 178 148 138 64 46 45 35 160 182 133 73 127 115 165 155 161 61 103 175 113 146 49 219 123 142 136 171 58 215 146 98 109 
225 150 99 164 170 121 84 77 74 199 101 218 219 52 148 166 205 160 58 50 123 76 58 105 51 137 81 141 144 158 86 64 173 111 160 53 122 72 168 68 89 163 79 139 146 218 141 211 54 48 93 153 42 228 100 35 140 120 218 113 55 131 210 72 210 154 139 98 188 231 128 199 172 206 127 136 62 106 77 172 93 73 62 204 229 53 184 61 112 127 90 212 66 184 115 125 124 31 167 225 
139 194 184 104 95 130 100 179 170 157 105 45 58 143 132 164 240 90 115 120 100 143 138 164 124 44 132 159 89 66 169 131 177 111 174 54 179 39 239 177 30 129 155 141 163 125 180 24 89 28 189 60 104 125 168 169 67 211 103 160 195 214 82 186 157 107 110 130 222 30 175 180 134 181 53 167 217 122 51 67 60 69 109 179 82 224 193 155 85 113 213 156 202 213 148 117 197 188 157 232 
173 60 144 85 80 182 113 154 178 113 91 186 120 37 43 198 184 119 153 54 87 217 26 102 229 219 67 112 162 109 82 111 152 81 76 169 116 96 86 152 191 105 192 210 186 45 20 189 36 52 224 125 154 59 91 73 136 187 202 108 28 80 146 63 36 172 112 86 161 190 117 129 136 54 125 126 79 174 116 165 205 217 77 122 54 138 66 87 136 142 184 109 131 103 155 81 63 10 142 66 
85 112 239 94 85 80 118 113 97 165 218 207 126 74 101 120 162 44 69 74 81 116 66 176 191 79 28 60 117 102 215 87 140 175 115 110 26 123 105 76 196 164 201 178 212 88 56 126 184 139 82 195 86 176 100 140 154 104 75 211 106 123 156 103 209 165 111 194 63 118 189 131 186 102 68 175 188 98 98 188 60 85 82 193 212 104 192 100 75 128 141 65 130 222 68 38 174 114 135 166 
64 206 204 189 199 197 205 93 67 136 169 140 50 188 69 79 62 174 159 23 200 95 184 135 85 93 213 80 154 93 113 176 210 49 128 72 210 59 124 176 196 173 168 84 157 57 147 82 138 80 226 102 105 52 198 171 60 105 134 194 73 220 185 174 81 64 132 46 219 55 22 166 125 46 204 68 83 121 93 209 237 149 100 96 158 54 194 101 184 122 76 58 191 148 79 49 86 161 181 99 
145 187 146 101 86 198 148 104 147 182 102 122 178 169 119 146 138 50 27 173 60 72 53 158 172 198 82 78 103 157 46 42 176 109 179 23 125 85 172 44 159 133 73 136 64 101 15 156 87 69 119 171 194 126 132 81 82 38 192 162 88 169 45 219 64 200 172 130 159 59 33 86 48 96 40 75 113 195 76 111 105 38 90 139 44 182 232 232 61 87 111 149 144 97 121 60 25 160 140 159 
120 75 66 108 177 178 190 125 71 213 146 55 19 138 189 56 194 210 85 78 69 67 104 190 112 223 162 141 184 90 86 90 56 146 112 201 208 58 119 155 103 87 108 16 84 142 171 222 196 135 196 62 74 182 184 87 160 202 183 166 85 144 220 133 23 15 77 228 188 182 44 100 127 125 136 220 84 70 172 193 165 66 172 69 139 176 128 205 67 203 142 101 184 94 123 118 175 167 64 188 
66 144 87 199 129 210 121 93 155 46 100 164 213 182 62 178 218 98 76 123 86 47 127 101 183 134 204 121 37 103 108 177 172 101 40 129 116 136 154 133 214 32 144 75 177 157 76 176 194 149 107 226 174 196 167 176 217 107 205 75 212 78 57 94 132 107 115 173 118 97 179 132 217 197 146 154 182 80 166 94 154 206 199 64 137 239 64 41 126 202 123 137 160 112 51 137 57 168 47 115 
86 73 178 126 176 164 168 93 221 100 210 177 69 178 146 113 46 158 90 197 129 141 127 66 145 57 175 220 168 194 64 147 88 98 65 138 66 237 159 87 141 28 120 105 66 247 54 142 155 134 148 133 53 87 170 92 51 222 59 91 203 104 162 125 96 72 64 189 95 164 132 60 105 142 125 12 155 218 174 24 146 110 79 117 54 220 207 18 191 60 134 59 51 40 51 164 211 104 175 75 
236 92 115 217 51 156 87 173 77 140 169 167 198 79 124 150 66 129 113 207 60 62 184 49 104 126 62 227 73 41 132 102 54 121 73 114 63 135 41 103 51 197 32 122 194 66 108 158 240 185 139 231 81 113 123 132 158 21 102 191 219 181 185 125 56 190 138 212 179 125 118 102 86 62 138 206 69 168 80 230 91 217 96 43 111 177 194 184 198 96 19 106 139 110 167 191 35 32 111 74 
150 125 103 39 65 114 45 64 100 44 15 93 12 115 160 87 140 48 168 92 32 133 209 133 195 145 34 124 91 21 140 188 100 239 114 97 160 218 58 101 87 230 192 113 178 93 136 32 146 79 166 57 111 94 82 77 125 174 50 220 35 96 90 71 162 136 199 42 52 80 193 156 184 137 84 148 161 149 185 174 84 84 211 191 74 122 207 118 81 223 55 63 140 161 55 77 80 41 167 190 
24 174 53 151 222 17 125 168 162 73 116 141 160 46 193 182 181 34 122 38 30 234 36 222 160 23 96 35 222 151 56 104 49 142 139 114 117 111 141 218 97 170 118 80 138 85 183 193 159 165 36 128 136 64 57 168 174 145 70 137 67 137 126 140 182 42 166 231 27 223 77 71 204 196 65 189 194 121 35 115 68 77 203 193 84 82 176 180 216 218 12 78 145 222 224 144 67 79 179 196 
147 164 163 172 151 82 125 212 104 142 189 190 124 186 169 210 40 151 54 85 118 176 128 134 124 29 180 185 57 216 118 193 64 92 98 202 99 141 76 107 69 111 128 51 36 177 236 53 143 172 82 164 112 194 81 71 227 100 154 150 163 75 116 131 55 74 151 62 198 182 149 157 146 128 173 156 15 101 155 213 49 41 103 106 179 90 77 87 175 188 183 133 196 94 114 140 216 185 196 179 
167 223 37 145 101 66 87 173 177 183 150 169 71 76 222 118 107 70 74 82 122 141 64 110 168 225 159 192 114 163 169 198 22 146 169 111 182 57 179 86 210 83 49 64 182 88 50 172 117 133 189 135 72 135 175 189 47 70 100 133 157 90 193 133 148 122 86 147 79 126 164 220 215 175 176 48 177 145 122 167 179 90 42 101 220 35 52 164 76 70 130 192 68 124 55 99 81 48 127 22 
151 199 176 85 70 62 183 64 148 137 100 84 108 190 196 153 124 156 173 168 147 144 163 159 109 123 219 119 38 194 66 222 193 194 113 171 196 124 174 71 57 165 210 41 198 169 179 69 66 52 55 26 154 141 85 38 115 91 180 115 80 89 156 176 141 200 122 114 175 109 121 185 130 214 61 66 110 215 184 133 46 158 100 167 74 81 230 94 166 145 212 199 69 12 75 73 150 157 145 99 
64 129 218 80 142 67 27 201 137 45 68 206 198 61 119 123 162 174 181 162 173 111 170 172 204 84 52 166 181 220 83 156 122 113 107 249 56 127 189 127 150 146 24 57 111 109 114 169 171 184 105 175 126 105 139 36 146 165 186 107 143 128 144 8 216 227 159 79 113 183 84 81 189 102 179 75 85 217 167 133 98 111 209 52 103 165 35 75 27 174 90 93 62 209 174 130 133 206 61 82 
25 202 237 130 124 83 218 139 103 80 194 57 89 224 137 210 120 124 217 177 141 211 141 137 82 109 26 151 174 44 60 147 217 217 143 192 31 186 53 76 208 175 185 122 134 88 146 56 142 124 228 81 109 35 131 203 176 33 166 110 146 182 225 211 106 88 25 148 188 128 51 56 142 110 77 53 76 222 207 19 192 215 204 183 77 140 137 67 113 101 73 157 30 174 197 188 215 30 88 194 
27 224 83 75 174 54 197 208 139 34 219 188 178 54 127 79 130 83 77 40 50 183 133 160 143 88 96 171 218 125 201 144 156 144 206 132 239 182 58 208 70 73 161 69 65 91 93 179 201 43 55 109 124 154 162 117 141 191 99 167 201 144 119 146 177 55 41 162 205 79 83 80 31 83 115 170 104 156 102 162 165 65 119 74 94 120 86 21 41 132 29 95 85 60 163 135 13 60 179 143 
58 140 156 159 230 17 103 117 215 125 89 203 165 43 179 172 130 82 104 123 95 106 180 227 97 84 189 66 94 41 86 166 70 194 168 88 156 241 62 209 81 208 132 197 121 127 156 19 132 86 212 87 187 36 141 212 167 149 93 57 175 95 186 175 115 140 126 78 100 127 171 9 174 122 127 183 162 148 139 160 54 158 148 200 52 171 81 174 110 119 79 94 220 122 189 157 126 29 204 113 
62 219 137 148 204 176 181 93 101 130 72 181 174 121 192 152 77 183 114 149 69 57 104 7 127 175 101 136 97 191 52 166 10 56 97 155 135 162 137 175 193 86 44 163 162 136 179 40 127 127 19 135 103 88 75 156 161 24 46 198 103 139 126 124 36 33 215 222 33 157 79 101 171 177 123 179 114 70 181 213 142 90 105 86 196 164 62 215 70 128 173 124 77 100 11 163 26 125 202 132 
194 120 189 146 59 121 153 186 90 192 102 65 42 148 42 27 53 175 94 45 180 155 170 146 210 112 213 133 169 86 175 100 208 199 64 217 149 222 81 200 142 111 158 211 124 237 209 155 211 130 99 72 209 131 186 92 183 187 124 215 83 159 179 214 204 156 66 156 211 147 138 32 89 127 47 91 206 105 93 183 101 110 66 163 72 97 168 177 97 116 117 81 192 119 161 46 62 171 107 130 
90 93 117 92 222 114 135 223 116 194 176 216 156 209 24 183 207 45 120 51 112 46 86 176 185 165 150 145 129 146 202 23 145 151 76 53 224 55 109 154 158 64 19 148 63 202 14 201 148 94 156 50 147 29 135 118 229 148 154 74 225 196 106 76 146 208 115 54 78 100 157 75 139 200 76 118 19 106 183 165 122 137 28 118 153 174 95 221 171 39 66 66 74 154 86 44 73 166 193 193 
159 211 130 122 168 187 85 95 154 201 66 126 87 179 212 210 130 57 200 172 95 104 163 50 127 197 117 85 43 94 200 88 97 190 174 194 165 189 136 148 91 168 167 215 151 193 67 28 145 134 210 109 234 68 137 107 129 149 114 115 95 167 64 129 110 113 64 58 94 149 135 229 204 42 74 171 40 163 91 216 81 136 166 97 36 28 71 213 84 190 55 164 154 16 174 125 183 230 92 94 
193 84 97 202 100 211 130 165 133 90 36 192 25 219 159 228 77 140 159 202 189 107 57 108 77 213 31 100 88 226 82 100 68 94 91 75 60 170 181 102 200 138 69 173 95 130 188 195 88 113 95 173 180 166 86 199 212 43 93 165 138 70 216 127 196 80 222 97 75 231 116 160 121 165 124 165 71 169 135 150 54 184 66 78 118 141 102 151 139 52 197 81 152 134 77 203 180 44 115 156 
196 182 106 209 70 66 47 113 180 223 132 132 173 183 41 21 83 179 143 41 117 207 188 92 214 33 212 176 94 120 145 200 84 170 128 99 101 108 60 43 90 199 227 139 200 55 110 72 48 162 73 172 179 96 192 197 127 165 48 142 54 75 150 120 204 90 168 34 49 177 51 123 72 38 180 166 103 59 191 72 81 124 44 70 238 125 151 79 202 83 206 49 66 112 221 167 140 207 40 239 
47 131 154 103 119 157 140 155 223 170 195 61 56 135 144 222 225 212 120 62 120 85 128 52 116 83 223 227 58 144 205 125 179 113 89 184 128 49 173 216 169 165 218 136 162 137 143 66 167 70 92 208 176 125 183 176 140 86 15 185 76 171 171 82 53 210 187 204 161 79 73 170 58 61 153 102 136 82 91 63 89 128 96 31 150 233 159 31 196 196 49 145 90 135 146 148 174 188 123 63 
136 212 118 40 64 188 121 64 177 40 188 133 158 215 197 101 98 230 181 99 43 229 61 25 152 155 105 216 59 203 177 62 176 79 33 138 173 179 69 177 142 120 214 73 46 217 152 34 145 165 117 159 60 82 83 200 182 79 50 208 48 156 154 195 176 155 195 150 87 177 121 49 88 171 171 127 87 63 191 56 179 177 155 79 119 132 158 31 210 128 208 175 54 34 102 68 88 37 169 95 
155 158 97 72 82 85 48 225 62 221 124 172 164 100 186 109 204 96 71 51 43 77 117 223 158 124 226 101 147 122 61 220 127 190 44 202 172 87 155 112 115 54 54 70 75 142 53 191 155 90 92 67 31 154 150 191 100 223 200 39 82 182 158 116 165 97 78 223 6 75 130 131 131 73 134 138 180 80 163 32 145 168 112 109 200 162 133 157 114 231 72 157 57 149 139 169 186 95 23 150 
65 65 201 146 49 184 90 127 162 156 74 78 151 223 61 72 74 48 36 156 236 121 19 94 223 58 193 122 43 123 113 196 102 90 77 225 135 202 123 223 121 91 144 66 131 220 108 176 56 209 80 111 147 73 184 178 171 70 149 184 135 70 29 48 62 45 201 109 72 199 229 131 176 104 166 117 93 23 151 93 24 92 35 29 57 212 68 200 211 115 81 172 75 125 214 106 153 184 170 107 
54 200 197 46 185 167 54 84 68 111 177 245 59 169 46 130 168 32 151 133 65 64 166 133 104 209 123 173 115 217 147 39 213 182 151 20 216 81 192 122 51 226 59 91 57 224 50 174 30 184 43 161 111 160 121 129 239 71 217 96 75 193 209 169 215 41 79 92 142 102 188 165 47 170 175 103 190 197 122 98 123 99 174 61 108 132 98 185 63 70 118 248 209 161 62 69 168 157 107 83 
44 206 185 121 214 89 179 138 42 90 149 122 136 35 217 205 198 164 115 147 88 32 236 192 113 101 63 76 233 182 56 168 46 92 152 168 124 122 123 124 155 161 135 163 243 40 167 198 168 130 36 133 185 36 157 90 87 33 31 171 88 190 50 24 16 138 101 164 98 124 141 97 143 143 33 53 85 218 105 206 122 67 169 37 118 92 161 122 143 218 157 81 155 142 148 130 22 199 66 59 
121 91 187 98 42 220 193 177 42 178 57 55 231 207 26 154 231 151 156 58 106 113 119 68 72 57 105 37 41 165 195 137 151 64 11 128 80 65 235 227 115 117 79 114 164 185 160 116 202 152 199 132 122 39 179 179 208 68 42 101 181 175 64 192 159 123 157 219 42 148 68 55 79 176 37 136 38 118 202 127 160 142 124 220 125 186 196 126 135 142 60 52 108 27 81 167 64 198 64 139 
189 56 26 135 212 141 145 85 72 234 54 145 98 148 67 200 162 78 192 46 76 88 131 131 199 165 167 63 162 243 37 62 125 131 110 194 23 82 103 202 98 90 175 138 130 185 56 126 64 107 148 105 60 52 94 214 44 128 181 110 156 140 203 120 163 121 120 102 108 176 35 151 131 183 64 59 229 145 117 200 128 118 61 194 80 196 119 163 134 60 114 152 165 204 60 159 163 228 195 213 
195 78 130 159 39 97 209 147 183 206 22 161 83 143 88 191 82 140 81 122 103 180 50 125 154 79 130 116 154 98 167 147 75 149 51 198 193 32 168 116 156 85 213 60 146 119 132 58 63 199 77 103 178 140 72 158 58 153 138 24 93 190 141 134 224 83 114 132 92 62 178 95 163 241 48 80 155 50 172 138 225 138 71 212 89 132 144 200 166 202 210 62 233 77 53 126 126 207 143 80 
154 142 81 72 104 56 82 131 80 183 125 167 76 126 20 105 200 107 169 214 73 126 195 84 122 96 157 105 52 62 211 153 41 178 63 138 213 124 195 164 169 112 228 174 135 129 177 106 163 60 115 99 139 35 168 186 156 63 172 145 80 29 152 95 179 196 203 142 126 83 117 47 182 225 179 210 47 68 79 97 125 172 138 192 211 78 68 79 145 205 74 56 190 144 178 167 179 171 33 151 
119 18 63 161 192 162 108 161 183 170 185 30 99 41 171 194 64 72 146 72 216 59 76 204 86 39 65 162 192 172 144 194 40 109 119 130 183 144 217 144 118 48 167 90 161 184 55 179 197 214 146 66 121 132 215 91 199 177 47 43 125 137 55 61 103 46 39 103 199 165 121 41 64 82 85 91 102 199 76 180 84 71 85 94 182 158 65 134 183 48 45 106 165 186 209 58 218 140 104 100 
171 138 73 232 159 217 134 48 102 93 183 86 185 139 61 133 163 193 139 119 131 164 81 137 223 213 115 198 156 91 85 222 131 87 88 73 177 103 99 175 98 229 28 157 43 92 133 89 93 44 143 112 158 143 171 75 84 146 162 112 112 21 111 154 161 171 102 191 215 42 103 199 139 223 197 66 187 144 52 139 199 33 153 178 179 41 159 48 130 35 71 166 181 52 179 187 146 72 176 116 
65 121 75 237 53 241 159 156 150 154 131 89 159 107 136 35 194 115 107 177 66 112 235 106 147 39 132 164 69 102 118 72 141 57 62 44 172 125 222 151 114 186 36 94 37 15 146 97 176 123 188 142 96 60 171 127 203 129 194 159 87 102 194 15 132 221 165 56 217 162 74 75 58 73 149 59 215 176 77 113 161 156 143 87 118 109 196 174 187 62 87 105 114 104 119 207 101 106 22 171 
153 147 21 161 166 87 180 78 206 89 177 184 131 230 159 64 107 82 75 81 180 87 171 133 48 90 80 175 102 218 127 51 36 51 118 49 180 138 151 218 179 174 39 87 127 145 159 163 182 49 88 120 103 119 196 148 57 121 191 144 59 130 176 172 106 37 174 115 204 183 36 92 49 61 192 32 175 198 76 169 101 66 69 15 213 148 140 61 87 93 49 71 186 77 120 83 59 141 58 204 
