P2
100 100
255
57 200 80 127 92 146 33 139 214 89 142 152 117 184 58 149 188 136 188 182 13 22 193 199 210 123 102 159 138 67 105 150 119 115 77 89 41 28 165 151 239 113 99 92 190 239 34 246 176 158 172 22 184 59 4 184 37 158 119 132 228 88 5 17 171 92 250 160 201 96 7 54 69 249 194 82 167 221 120 81 16 108 57 167 19 169 131 238 197 171 177 77 170 34 17 16 207 192 36 194 
31 170 204 115 195 115 170 226 149 86 173 159 100 118 201 133 45 191 225 241 7 213 177 208 52 65 46 86 237 209 58 234 236 87 184 186 119 100 35 62 179 40 151 172 243 172 77 235 93 98 32 93 85 33 90 202 109 104 173 235 41 80 132 231 57 55 2 157 241 70 151 40 91 161 8 51 66 144 232 99 108 159 90 233 107 185 78 74 95 167 30 233 174 52 174 170 202 146 47 91 
61 180 67 204 136 223 128 210 140 241 63 138 206 159 144 185 204 234 91 220 78 109 215 62 57 107 219 181 84 106 202 98 86 200 162 124 15 56 20 26 12 32 144 113 138 76 128 255 176 12 159 64 69 12 155 6 75 216 46 111 229 70 125 36 51 206 203 203 147 113 94 91 107 53 25 217 126 113 249 119 34 93 124 195 175 173 4 175 124 99 12 219 128 252 62 131 70 66 207 145 
252 180 138 172 120 227 109 225 53 230 255 29 131 213 189 97 219 244 112 32 53 155 83 158 27 245 115 112 57 222 207 100 57 216 200 227 54 233 206 203 192 121 224 116 158 233 7 116 243 254 225 184 72 95 120 205 60 111 176 205 226 208 13 180 168 138 239 98 12 128 220 225 49 191 199 176 180 251 244 110 105 190 176 140 181 82 170 132 69 10 240 34 123 168 47 49 133 130 118 138 
164 152 162 137 248 24 25 7 137 136 54 40 167 209 26 63 163 175 105 230 57 211 124 1 3 138 154 176 145 216 90 113 135 118 229 88 69 114 190 101 2 252 65 165 57 172 182 54 22 188 43 63 29 225 191 29 86 76 131 45 97 153 222 70 163 210 102 110 63 177 205 147 236 178 24 117 109 97 239 197 58 48 204 245 126 76 185 78 93 148 78 223 60 71 58 172 188 81 45 58 
192 43 36 159 115 134 55 182 229 68 22 73 182 17 223 118 222 123 78 155 160 112 189 131 111 209 11 173 128 250 72 108 6 29 172 164 81 41 216 139 232 31 0 55 42 255 189 108 38 10 191 160 72 27 39 21 199 131 17 190 24 67 108 229 112 158 186 13 168 14 180 26 245 193 169 131 162 57 240 82 105 24 15 233 94 88 72 226 223 152 83 53 207 219 21 33 169 189 29 52 
49 15 240 57 162 138 233 171 235 105 132 187 209 30 81 218 193 29 30 68 0 54 68 254 27 122 33 22 215 15 104 111 63 194 17 167 189 123 201 184 143 201 146 169 41 221 150 74 188 254 78 48 155 31 179 163 42 168 216 110 111 159 158 41 90 178 134 113 210 205 62 252 130 85 21 156 234 125 228 148 5 175 151 61 248 197 194 162 196 195 1 18 104 95 51 75 220 30 116 88 
253 117 233 131 137 244 35 215 130 62 135 72 64 236 78 192 43 165 101 2 219 210 221 200 102 36 198 129 241 26 251 32 9 208 143 160 120 29 40 178 136 74 73 209 249 97 21 210 116 55 110 234 25 7 111 7 110 196 13 120 241 2 185 125 169 169 205 21 74 37 231 43 54 171 60 194 135 47 143 168 196 5 81 171 15 210 250 57 32 169 54 78 235 116 198 150 172 90 227 80 
47 6 45 249 189 19 210 242 17 113 231 23 201 183 114 23 194 143 215 101 176 74 110 34 148 147 38 107 28 164 153 57 15 223 34 178 219 17 114 222 234 134 29 55 241 235 90 64 120 222 187 220 250 168 137 170 187 252 172 128 145 26 218 166 12 153 70 198 226 12 226 238 68 109 247 19 177 176 63 165 216 227 87 71 253 137 23 63 152 146 189 52 152 7 234 80 182 69 201 134 
215 85 98 207 201 9 26 14 251 151 43 82 214 120 238 221 28 48 99 129 249 122 78 14 57 163 237 7 80 161 168 168 57 147 49 216 253 107 206 119 231 106 224 80 156 94 27 121 96 25 31 96 148 223 161 73 7 40 68 109 227 71 240 5 232 56 137 185 171 214 201 237 86 116 77 162 27 227 72 206 117 212 157 79 123 154 34 15 2 102 125 140 121 209 107 211 8 159 104 217 
18 76 232 19 96 38 106 64 158 149 118 254 99 160 8 66 181 18 75 160 134 99 214 12 189 66 57 89 78 160 91 81 6 81 39 36 122 186 69 1 169 65 154 65 142 232 174 54 101 56 12 81 189 154 0 55 100 171 229 193 128 107 98 185 156 159 9 121 57 182 56 3 163 132 199 53 186 99 62 241 226 218 121 124 214 182 142 80 125 7 120 174 23 220 9 208 13 110 162 207 
252 213 123 121 249 238 181 236 247 24 177 68 247 216 200 38 111 183 161 240 250 9 176 128 193 169 202 241 164 198 80 26 114 246 253 76 68 99 198 38 9 182 202 148 211 124 164 161 139 165 120 245 44 70 242 84 183 193 151 175 235 133 210 205 251 51 140 132 148 243 1 138 253 195 172 124 172 16 2 247 50 242 126 178 77 12 9 77 141 63 216 155 122 22 20 59 193 64 108 102 
226 171 11 184 81 188 187 218 89 138 176 30 250 91 21 111 92 51 163 49 101 57 233 236 124 53 233 10 32 126 180 186 65 192 229 12 43 115 221 48 74 27 223 156 54 84 252 108 77 250 48 218 5 151 212 198 183 224 92 98 11 173 201 217 57 161 18 31 167 117 202 77 126 190 215 166 25 7 215 136 185 33 131 34 80 109 29 235 184 143 97 245 147 249 8 91 209 145 168 109 
165 99 135 9 113 56 86 53 158 26 101 0 214 129 213 232 160 114 175 80 91 177 208 189 43 98 249 64 242 24 133 232 84 2 145 118 145 135 143 115 98 64 91 67 4 145 132 218 145 106 240 194 12 92 47 67 212 55 102 88 65 216 147 4 191 201 255 48 231 136 22 244 47 15 49 175 255 39 234 36 23 233 72 226 99 220 94 170 59 30 47 81 255 35 124 108 229 114 57 192 
244 235 171 11 42 251 69 207 57 177 63 73 108 160 127 209 201 95 112 175 248 106 211 217 140 97 250 250 158 178 131 180 15 79 29 26 181 81 46 205 115 181 146 149 73 121 30 163 166 239 146 104 153 105 197 192 34 118 19 98 220 18 227 177 16 173 243 209 146 253 84 87 70 222 14 201 165 198 32 142 186 214 70 28 5 173 59 89 45 130 51 244 149 235 160 98 220 210 46 175 
58 46 105 28 173 95 200 244 2 189 133 63 203 139 242 252 122 129 116 217 238 183 239 83 12 151 175 125 188 136 136 44 210 161 209 230 195 10 136 114 56 148 90 75 107 70 4 195 87 229 77 63 7 71 152 175 183 219 235 238 125 162 92 108 240 149 16 217 95 221 43 137 252 100 242 240 110 177 39 93 187 129 20 40 14 84 239 179 116 220 211 80 109 20 5 144 249 128 38 121 
120 108 206 70 142 187 126 93 235 253 212 213 180 33 235 15 5 198 98 124 231 102 188 191 143 134 135 138 80 16 101 236 142 6 224 40 61 44 96 161 253 115 163 27 44 219 120 109 168 1 187 191 71 192 150 162 184 184 169 30 188 43 169 123 101 41 87 9 77 167 46 201 187 102 33 69 165 120 60 113 83 1 235 58 197 140 192 74 96 159 180 138 34 179 202 111 124 104 135 30 
123 192 48 220 175 226 120 214 37 224 191 51 19 227 206 194 142 226 155 72 243 2 80 21 139 102 200 28 190 188 82 115 18 18 240 230 54 165 170 97 74 161 188 65 187 227 37 150 241 108 14 93 91 26 68 223 166 71 7 50 195 25 129 192 54 198 236 196 72 212 40 251 10 135 6 19 181 154 150 16 149 206 131 181 179 116 247 9 207 99 84 65 94 118 67 224 213 154 71 90 
168 57 85 52 220 229 64 33 100 174 85 36 152 132 119 33 227 130 112 191 33 82 75 35 110 133 76 81 76 190 214 110 52 17 106 144 223 27 63 153 113 69 128 24 226 187 201 17 253 206 14 168 83 239 11 5 235 197 22 198 213 31 9 92 134 78 223 34 56 129 34 139 109 49 243 128 239 240 52 229 53 154 72 202 202 122 167 15 155 94 170 164 85 0 197 149 219 121 132 200 
188 91 101 26 217 113 204 243 203 201 49 250 234 141 237 52 203 164 224 128 10 69 148 33 237 14 225 27 174 172 146 23 67 249 220 168 84 39 205 83 240 196 44 57 240 211 27 169 80 178 44 155 238 243 177 70 150 43 203 210 64 25 11 109 108 254 220 133 167 119 149 200 177 36 140 66 181 193 31 163 18 131 77 147 33 213 67 79 8 124 178 213 128 8 122 211 217 82 136 253 
31 28 218 154 248 100 157 169 220 85 235 220 159 91 117 38 164 157 72 129 124 190 185 31 192 27 68 21 81 246 51 66 195 53 23 186 229 227 103 196 211 38 125 136 145 123 201 226 209 244 67 56 93 135 209 234 99 200 186 65 44 152 90 84 170 71 26 106 152 214 234 160 198 252 128 175 222 204 71 168 123 117 210 28 168 110 15 55 51 31 121 179 230 218 161 163 101 57 154 157 
236 177 214 122 108 47 222 4 222 218 7 84 214 200 128 92 199 48 156 195 70 252 1 43 66 159 185 67 57 231 164 191 221 193 129 125 132 27 17 93 254 109 126 37 117 29 170 96 113 38 73 203 34 67 185 80 196 88 141 163 59 212 191 242 225 32 126 30 116 76 89 242 126 25 166 122 168 86 31 152 117 123 65 148 170 113 152 3 252 232 83 52 126 167 233 192 43 244 184 10 
99 26 98 78 52 247 175 2 163 194 228 137 169 211 189 149 104 37 244 153 91 93 83 179 66 208 178 71 117 17 86 188 96 15 23 139 40 240 123 134 45 186 36 162 79 31 202 5 197 237 207 62 228 247 237 112 51 59 91 79 206 11 64 251 113 151 11 194 39 172 224 172 218 86 233 32 232 43 74 13 239 142 227 185 19 124 18 83 210 141 184 93 142 231 112 239 223 232 225 180 
72 246 52 181 193 187 148 4 180 7 214 213 134 51 2 117 35 118 106 170 54 131 218 211 50 223 147 175 199 234 20 142 18 252 175 190 189 167 148 235 173 112 64 226 33 208 121 106 201 200 118 239 225 69 42 254 30 51 173 114 253 147 163 246 0 78 101 0 110 107 46 192 174 78 217 90 26 1 111 49 197 109 201 19 204 116 19 226 181 186 139 67 81 67 31 214 230 172 226 186 
73 78 132 85 239 15 208 237 243 15 179 253 112 12 179 126 253 247 77 11 42 139 196 124 55 109 57 64 114 195 16 220 151 47 27 9 117 5 168 110 55 62 65 83 128 27 45 40 17 43 178 134 20 178 172 235 108 76 184 10 69 160 52 157 113 0 37 92 16 132 39 176 56 4 194 116 175 151 149 120 92 252 161 33 243 65 38 39 140 133 97 199 43 185 173 155 118 45 27 77 
165 122 85 237 56 191 177 97 64 162 204 253 203 146 79 142 11 64 88 84 182 191 11 95 200 34 13 152 193 249 134 70 155 27 85 84 26 26 77 231 65 237 240 27 81 124 153 220 67 17 238 151 79 221 9 2 101 177 31 11 31 169 74 130 135 49 220 69 68 13 239 116 128 1 185 176 111 116 140 177 138 9 92 4 103 243 6 105 105 105 108 91 233 199 247 226 38 46 139 176 
254 182 115 105 226 39 200 193 79 176 69 36 110 43 206 117 135 225 214 129 8 217 184 200 133 105 91 187 115 120 249 226 168 195 92 19 252 36 36 36 108 235 212 147 188 246 82 65 57 151 206 230 41 88 201 50 156 128 3 38 107 152 21 243 65 57 147 68 13 100 177 196 23 237 35 107 121 198 200 254 165 116 187 9 49 254 95 56 149 26 8 165 149 85 78 53 239 68 195 251 
66 241 202 182 105 104 66 115 131 253 102 196 191 254 213 54 102 193 161 170 175 243 151 104 4 173 126 21 215 160 10 113 231 81 57 120 91 201 75 150 230 239 157 170 233 143 166 216 211 94 25 246 232 252 19 219 72 175 37 161 130 69 214 126 212 243 189 236 160 203 235 240 223 42 159 184 64 214 7 155 220 140 169 14 204 7 123 145 22 213 194 234 66 215 205 246 164 201 144 11 
46 193 73 52 186 51 97 191 19 121 57 18 7 86 163 132 59 243 114 23 95 226 182 194 88 124 93 213 62 158 16 18 173 69 170 160 194 74 254 130 56 226 48 185 62 193 134 101 160 89 83 247 175 19 204 132 17 229 155 59 79 250 110 38 206 144 96 206 132 109 201 170 132 81 141 244 191 217 116 216 14 200 178 143 231 20 117 249 22 64 252 147 253 64 221 81 63 210 126 29 
36 148 11 187 255 208 83 174 29 186 192 102 3 195 2 185 12 14 31 93 93 226 150 130 222 102 189 145 156 154 55 160 47 176 34 139 148 172 35 70 132 235 98 2 192 116 168 208 167 61 61 230 13 135 23 74 154 64 208 93 114 110 178 35 168 251 20 30 168 128 230 38 42 94 6 130 50 204 135 235 54 166 197 124 27 246 49 126 42 188 145 28 211 81 215 69 164 130 83 195 
175 207 10 113 254 148 123 79 152 81 80 45 60 207 159 102 17 243 213 228 2 46 112 13 4 198 144 22 43 100 95 136 24 18 151 160 20 2 148 36 83 49 61 175 122 208 201 129 6 170 223 239 224 112 237 89 186 125 27 93 81 146 184 116 190 174 39 59 228 173 176 169 131 240 113 56 230 112 28 88 173 238 174 60 186 60 209 231 70 91 179 167 58 145 107 163 216 163 159 51 
223 38 162 60 157 137 35 186 40 148 42 60 162 171 51 136 228 150 90 209 122 109 96 66 130 148 200 49 151 189 201 76 177 154 215 211 97 223 144 27 83 71 63 196 107 72 233 130 86 214 246 246 75 130 70 155 23 58 136 162 213 74 119 73 228 85 225 185 140 87 25 17 16 52 17 184 100 187 0 187 4 249 110 133 249 44 198 70 85 64 103 184 222 232 29 84 35 250 34 69 
243 49 44 210 86 41 34 23 199 17 37 222 159 229 140 32 203 67 207 138 172 204 115 227 246 199 96 78 234 229 185 252 56 63 28 225 173 5 249 206 105 32 176 116 199 134 132 172 6 31 200 254 13 64 153 21 110 41 97 230 200 115 50 102 11 10 118 205 156 147 124 55 249 16 176 136 223 192 111 73 134 234 157 34 86 2 88 69 143 218 151 110 168 50 156 70 36 130 153 70 
101 123 181 143 8 245 121 234 146 125 21 121 91 147 106 195 23 124 202 33 139 14 81 50 74 185 13 159 93 246 14 164 253 221 4 224 155 109 126 26 186 248 239 54 100 220 191 148 84 62 229 234 68 198 244 44 44 118 223 92 12 60 19 5 197 112 171 199 61 45 169 134 246 144 103 219 133 83 85 91 67 184 140 226 255 45 95 20 54 109 27 63 49 223 147 85 106 1 82 114 
112 55 101 137 28 129 253 228 44 10 251 236 58 76 33 14 66 228 53 207 1 35 21 242 82 134 49 236 72 18 118 95 194 10 50 245 236 39 110 239 125 167 26 148 111 79 27 230 152 67 108 114 114 201 96 242 184 137 1 165 18 27 92 104 250 24 216 154 0 75 176 167 152 113 70 26 94 91 174 77 82 155 245 88 120 156 122 78 206 101 136 22 214 182 205 12 22 193 44 104 
67 63 56 95 168 43 230 48 187 17 188 186 93 255 247 30 109 211 189 213 241 238 228 74 125 183 11 71 81 74 109 76 1 144 88 35 4 189 215 255 98 10 98 38 83 134 183 58 142 173 7 134 152 100 3 235 250 233 76 136 209 113 113 202 118 220 234 175 180 209 91 163 171 88 98 206 117 161 248 73 34 78 255 17 212 180 44 217 220 191 175 145 47 126 210 204 55 221 86 65 
88 185 184 197 135 251 249 190 216 176 194 207 137 3 120 211 125 78 171 131 215 66 48 211 247 153 240 52 174 246 237 217 40 85 35 219 75 100 72 19 200 35 67 166 75 64 236 189 19 8 69 95 50 169 113 53 164 107 216 82 88 227 94 113 112 103 56 14 48 27 118 248 43 27 30 255 214 183 228 130 124 13 230 214 232 159 46 67 203 253 105 69 16 193 145 236 104 94 159 245 
138 176 247 13 2 137 204 81 157 82 40 84 16 96 8 133 161 226 186 188 189 157 55 78 77 148 106 33 46 119 25 224 58 115 84 68 49 161 184 29 43 142 34 183 184 167 244 158 19 2 204 23 198 122 59 40 209 241 39 168 61 221 216 135 14 105 246 213 171 155 145 215 91 55 151 73 123 99 225 219 128 54 76 163 147 171 227 94 140 9 4 222 135 78 36 188 182 40 44 142 
239 140 186 181 66 16 178 240 119 47 195 40 161 39 112 144 148 47 112 166 99 244 103 186 134 67 207 165 5 205 213 196 56 151 133 41 185 130 47 31 90 172 30 94 138 135 222 44 142 174 57 103 77 55 205 172 104 79 138 74 246 211 9 170 32 98 190 191 59 197 0 232 147 181 247 254 170 232 182 201 92 5 73 242 131 76 242 104 12 43 231 54 95 6 209 62 43 91 142 208 
12 83 215 121 116 61 75 227 35 123 73 171 76 229 152 90 197 4 170 237 249 177 140 188 157 175 91 213 129 29 136 2 5 33 58 205 61 148 241 216 180 72 19 88 121 38 56 97 161 58 51 22 190 115 252 231 163 138 140 203 163 135 11 155 139 123 83 145 244 220 254 238 227 154 151 25 3 211 138 86 247 57 50 183 69 10 13 38 3 215 182 150 96 41 219 50 119 249 7 139 
235 149 92 62 224 102 39 41 132 90 178 38 251 9 81 228 124 156 83 111 94 231 222 77 128 117 4 194 101 207 23 31 236 75 149 90 150 120 3 77 43 58 117 144 253 241 74 42 129 130 198 13 126 7 199 84 215 229 57 145 221 104 92 234 44 237 14 70 232 95 227 165 200 9 178 20 164 149 213 72 45 247 169 143 23 152 29 9 203 252 121 10 14 141 179 179 178 177 116 18 
184 252 136 40 137 47 234 231 100 121 53 254 88 45 101 42 228 23 176 173 163 39 35 15 238 114 77 211 202 139 28 229 68 236 135 173 150 63 27 180 171 243 230 105 50 245 254 123 182 116 70 139 86 231 161 163 175 166 169 104 247 19 116 166 145 117 22 117 79 211 28 225 150 179 181 175 187 158 30 83 90 130 36 199 13 197 139 30 79 195 196 236 171 95 44 49 145 12 219 116 
73 3 208 212 86 63 47 76 204 111 43 101 93 105 248 75 55 77 147 28 238 15 7 209 94 78 119 158 214 43 107 117 28 28 66 78 242 17 136 219 59 77 117 224 148 191 183 43 148 115 1 12 202 46 187 20 253 39 50 79 193 237 154 38 74 17 196 170 16 103 61 38 135 121 100 57 135 248 229 85 219 159 199 98 137 17 50 113 212 210 138 6 18 229 201 104 71 31 16 14 
122 136 83 54 76 43 17 197 208 190 14 72 160 67 64 147 44 190 255 243 8 186 40 226 75 202 2 33 93 138 222 228 165 116 65 99 167 70 52 199 146 192 59 51 127 138 168 161 250 180 40 204 1 41 7 173 42 231 31 5 193 180 97 151 207 79 169 44 130 14 167 98 220 166 238 167 153 150 212 175 80 76 39 140 61 41 130 185 197 44 201 17 196 91 182 240 12 37 217 200 
149 188 170 125 101 217 220 0 29 81 16 173 0 166 154 245 230 21 18 69 53 97 173 196 83 111 148 142 83 232 70 243 63 184 69 157 173 39 153 215 125 184 34 97 54 130 135 234 68 9 155 188 164 244 101 121 13 45 211 224 123 106 212 83 253 74 24 130 168 55 152 57 20 57 232 86 185 5 174 134 233 151 180 235 14 167 221 66 176 37 141 41 132 138 237 127 150 183 138 181 
40 248 226 170 0 213 237 139 167 91 132 200 227 129 161 35 166 33 25 235 100 183 238 154 132 206 133 167 236 241 18 107 134 5 35 49 194 123 44 54 211 69 217 39 186 27 113 105 59 221 110 5 140 68 54 130 49 16 230 197 26 192 115 25 232 60 117 235 193 38 41 123 86 245 117 89 148 117 245 109 181 22 82 152 11 194 1 218 46 77 80 61 117 222 35 6 226 228 95 125 
108 120 199 200 173 12 58 10 9 59 48 140 76 5 12 247 209 35 107 129 178 98 227 12 132 112 161 186 139 42 217 124 121 192 72 155 43 40 47 52 79 70 244 252 156 242 34 38 192 73 142 211 131 84 192 43 210 151 111 132 98 72 87 18 211 44 17 144 97 174 43 26 104 219 65 206 198 7 137 211 189 161 21 180 221 32 123 30 36 147 79 195 108 47 117 248 73 138 70 111 
28 45 43 127 146 212 30 228 190 84 248 161 183 146 194 93 147 240 197 114 103 140 199 93 37 249 182 134 168 137 81 61 185 32 150 156 180 137 251 82 175 254 182 126 63 63 109 223 191 242 47 94 142 0 153 87 214 105 145 184 67 9 116 200 251 37 93 133 241 198 100 217 49 31 153 48 245 90 113 84 0 93 44 157 57 206 207 232 165 184 218 154 41 19 247 163 124 86 34 47 
234 175 91 71 232 108 132 99 108 108 236 199 134 13 74 101 55 101 63 85 157 26 0 194 97 166 223 232 58 244 91 12 123 133 220 157 106 233 127 200 233 177 120 141 29 140 50 168 14 173 142 53 44 24 224 188 190 81 90 172 174 172 67 99 29 199 214 28 30 76 7 220 14 64 39 70 65 135 65 122 236 236 111 248 65 165 241 104 39 158 144 21 171 221 183 94 185 137 209 201 
238 82 113 162 217 26 149 164 76 121 79 162 154 62 98 58 197 49 214 127 78 145 241 187 162 128 188 107 244 20 24 227 56 171 145 129 122 24 162 221 136 48 31 216 120 9 208 90 51 135 164 60 120 23 132 79 224 64 101 174 17 184 202 42 195 206 101 109 83 109 100 3 151 6 187 176 213 23 170 54 196 6 39 66 25 151 21 149 115 23 231 164 254 73 70 226 119 98 195 188 
166 3 171 33 220 161 174 61 136 94 119 145 172 248 37 105 139 40 98 184 63 240 110 123 103 83 80 100 101 177 223 95 64 163 18 174 49 60 31 22 235 199 87 83 109 28 30 142 111 39 134 49 215 48 68 139 175 209 244 36 105 105 39 76 179 194 120 74 67 4 147 234 28 223 181 118 168 132 12 75 192 94 197 51 44 90 91 229 101 220 144 62 231 61 35 199 184 24 150 140 
232 39 202 177 195 241 199 179 241 107 55 5 87 39 160 45 229 77 199 64 39 134 18 113 10 214 253 164 125 142 47 140 66 194 47 2 5 210 203 171 140 100 207 218 75 198 169 98 210 60 231 201 40 92 97 187 120 116 44 180 19 42 171 43 147 96 172 94 234 145 10 73 195 200 102 22 36 252 192 178 141 166 255 65 98 58 79 103 39 56 112 14 67 184 37 86 79 247 4 8 
242 40 12 67 114 150 69 225 154 156 237 45 223 174 171 115 160 36 198 152 54 79 225 139 63 49 68 45 39 187 69 62 51 126 185 6 115 157 208 149 169 36 94 8 134 60 72 21 86 156 143 92 75 70 48 230 211 112 126 198 146 109 46 228 112 85 102 96 203 151 254 215 239 106 52 181 6 138 175 49 78 4 244 152 204 145 3 17 56 3 45 239 134 170 142 50 94 60 138 15 
161 140 74 81 239 2 178 151 137 91 233 97 254 77 44 171 121 102 115 75 197 194 254 241 23 138 229 52 191 115 199 241 46 227 46 160 116 208 78 239 219 1 202 27 30 96 169 175 78 118 213 204 83 133 158 64 68 63 41 211 214 114 70 226 127 199 161 194 19 207 37 233 83 47 25 202 244 100 216 231 227 213 37 41 146 45 140 191 100 240 165 121 16 95 81 99 29 158 187 205 
237 78 166 171 199 190 55 27 106 127 209 56 54 213 92 137 209 252 91 227 167 245 148 234 36 79 41 143 68 225 123 93 169 101 39 101 161 20 63 221 9 89 139 73 43 12 165 40 166 245 66 27 180 21 138 208 109 152 251 217 62 167 47 95 38 179 233 83 172 242 93 99 121 250 59 147 202 199 126 80 156 80 234 30 72 86 155 195 188 216 73 245 88 185 16 59 205 103 95 19 
98 225 112 12 117 33 8 253 192 68 198 26 88 102 103 121 239 171 137 64 144 222 152 121 54 55 73 131 59 119 230 157 136 66 206 176 167 100 88 155 15 192 224 95 62 62 146 125 31 180 36 238 149 186 68 104 138 30 55 207 128 115 49 145 134 20 103 56 210 51 195 216 129 13 127 21 77 50 72 253 91 75 58 2 15 214 60 139 141 88 112 81 212 34 91 207 9 120 141 73 
13 33 215 164 199 162 147 2 236 224 170 161 120 203 206 64 82 47 155 74 180 175 235 124 138 35 148 67 19 103 251 99 171 135 160 246 206 88 69 45 154 179 50 248 9 105 254 93 212 134 101 183 153 114 189 156 89 160 236 43 85 80 39 251 60 63 136 158 145 188 196 74 178 40 224 107 191 198 113 23 162 209 81 218 65 80 221 149 18 119 253 155 221 41 85 82 186 166 89 239 
17 126 82 250 202 160 101 20 81 135 241 8 177 154 74 33 143 49 255 56 157 58 234 70 172 121 157 18 2 182 10 101 247 115 134 16 217 175 32 212 74 209 241 181 145 111 246 115 230 38 159 255 224 250 117 243 23 77 247 25 0 201 26 127 47 101 44 137 62 215 114 83 29 194 252 253 60 100 106 218 20 122 229 197 150 244 105 89 166 93 114 111 239 43 147 153 221 33 81 214 
246 26 87 43 86 5 253 90 202 254 239 161 2 169 104 78 231 142 182 99 146 59 20 207 160 98 113 98 174 139 42 53 23 55 136 116 159 252 11 55 149 119 45 208 77 8 3 118 134 218 31 35 248 203 11 134 25 208 197 250 56 199 68 107 199 189 119 246 9 128 165 188 7 89 231 65 194 252 27 118 253 102 129 36 27 252 163 158 161 227 152 57 39 238 206 173 210 172 233 239 
40 89 118 12 152 108 40 101 234 232 169 55 38 238 121 76 224 85 67 160 236 76 112 122 240 106 22 34 53 198 202 40 125 122 8 243 191 94 17 86 4 210 199 129 90 60 193 124 248 150 213 178 54 145 232 87 62 70 121 204 143 85 172 94 183 77 134 186 73 253 27 169 111 27 108 201 60 57 168 74 59 174 123 73 214 59 112 71 153 160 109 112 202 36 66 237 73 64 149 183 
144 181 66 226 117 211 143 254 132 232 208 10 145 213 243 228 81 170 90 155 161 23 131 185 173 87 27 232 161 47 205 17 137 119 189 162 32 62 54 22 184 176 240 176 143 185 31 73 125 86 7 109 123 178 250 124 187 157 72 244 199 68 9 255 220 142 211 178 110 240 60 92 141 77 105 161 176 58 184 104 214 123 59 89 243 243 17 18 171 128 158 179 144 251 83 187 77 31 129 212 
198 133 83 87 197 138 10 188 200 56 137 113 73 88 168 39 249 216 198 27 228 32 231 39 105 194 230 218 166 42 171 15 69 141 148 234 240 15 160 199 173 43 67 167 49 44 51 190 68 85 13 69 114 252 152 251 53 136 70 243 140 99 238 69 60 250 44 97 210 86 153 166 224 91 189 69 24 147 21 154 247 30 207 51 84 213 64 0 8 207 214 171 15 173 215 133 75 241 188 146 
109 175 113 135 71 77 14 209 195 229 218 195 57 209 46 204 133 127 252 229 172 160 106 27 14 67 143 75 44 157 137 38 198 12 226 214 69 143 27 69 31 61 40 240 118 136 136 69 235 75 186 248 78 88 9 32 12 161 94 184 183 19 35 29 3 255 154 158 149 23 129 79 133 119 158 67 234 86 116 237 158 119 113 78 214 200 135 255 60 242 77 239 183 63 113 59 177 94 110 13 
126 169 19 165 100 0 221 234 162 117 49 192 72 249 187 169 192 164 70 160 164 239 165 47 56 246 227 86 141 210 73 211 150 80 186 141 23 127 87 223 77 172 211 219 13 131 73 217 133 91 192 44 243 84 244 118 4 106 168 72 79 71 249 181 99 181 124 220 22 17 23 55 72 15 206 17 173 195 143 42 164 125 7 21 129 230 115 249 114 166 61 184 252 123 70 98 153 193 40 93 
44 101 208 226 13 11 8 192 196 43 19 17 124 116 148 247 209 5 182 162 16 27 160 160 185 173 124 200 50 122 169 63 60 191 110 28 196 196 138 142 19 66 92 25 59 51 131 63 61 217 39 111 22 33 99 167 57 9 96 242 58 166 194 68 189 88 139 48 41 33 216 168 28 30 98 200 46 101 184 44 71 151 62 17 179 112 32 201 230 201 74 32 8 93 85 47 13 125 182 41 
156 135 189 217 199 202 66 10 119 84 125 185 15 136 43 54 10 100 39 229 94 38 20 190 234 58 204 44 155 185 142 130 51 36 45 205 168 224 223 206 179 175 158 195 197 109 241 6 140 161 76 78 61 66 92 8 112 189 166 20 233 222 95 3 10 11 14 210 90 170 95 4 236 176 213 157 247 153 114 90 11 110 215 15 165 59 98 4 198 199 2 88 79 197 54 65 84 57 213 109 
220 189 36 70 216 208 53 247 193 220 227 57 113 34 175 229 44 232 162 81 108 182 48 236 134 128 157 79 14 119 75 74 120 171 88 86 246 48 188 245 45 34 204 181 102 139 223 208 94 176 29 175 175 27 251 0 48 211 15 253 164 172 98 147 64 6 112 252 87 243 149 158 215 8 24 70 85 70 235 190 57 75 253 163 113 96 116 246 235 164 198 44 87 98 207 181 55 190 134 74 
169 155 76 192 31 110 72 139 134 166 14 222 92 152 244 238 216 198 178 232 197 159 183 142 51 131 14 159 41 199 193 192 98 239 193 70 189 13 248 208 44 29 248 23 113 136 254 134 142 226 138 193 24 198 23 95 141 176 155 182 52 188 90 186 28 134 140 236 14 52 194 173 87 135 63 252 2 72 196 96 207 28 44 102 205 174 252 183 32 146 21 211 208 170 127 177 156 253 81 144 
211 217 247 157 87 55 33 216 53 217 139 75 251 31 160 16 188 159 129 92 101 52 88 112 229 133 54 203 192 126 149 93 150 185 85 64 182 234 137 143 25 232 231 14 130 120 227 68 30 218 133 121 226 236 147 0 182 155 234 60 172 130 103 114 15 135 170 205 124 90 214 92 221 64 101 33 6 182 55 124 243 229 14 23 122 62 194 96 234 13 6 112 173 245 171 222 129 6 124 240 
233 55 89 163 136 34 93 249 236 67 77 252 6 60 109 68 134 152 194 213 68 200 208 56 115 184 211 200 179 58 190 212 161 101 109 22 213 44 144 2 16 33 129 20 155 170 251 206 189 66 216 110 122 234 55 200 90 226 98 26 241 210 83 7 11 198 126 166 65 165 75 250 98 72 87 140 153 104 107 135 157 74 165 108 143 209 171 163 238 45 3 15 221 135 244 50 70 136 134 135 
6 54 158 15 246 193 79 92 53 174 176 137 163 194 202 63 246 178 97 174 218 144 17 13 220 18 5 52 24 117 1 28 245 206 245 139 243 98 214 159 99 188 8 170 63 39 138 146 141 150 230 238 234 225 33 58 12 197 220 167 154 99 13 233 228 24 141 155 159 237 2 181 244 124 219 15 126 8 186 207 64 137 170 27 251 189 133 23 89 231 101 22 78 142 169 35 103 78 68 74 
226 105 209 195 236 15 209 225 116 1 104 228 142 75 39 161 47 3 78 8 91 217 166 213 170 69 141 237 191 100 12 55 44 73 35 237 165 56 138 129 251 11 174 247 46 39 127 199 113 213 183 241 235 37 25 27 87 104 141 71 160 36 250 220 95 236 107 128 64 159 149 146 124 136 50 15 105 28 246 59 82 78 14 121 168 68 102 128 127 1 186 138 31 164 242 226 176 29 92 190 
102 93 119 165 237 184 246 5 20 207 103 30 84 53 47 118 202 80 19 55 245 90 20 159 4 44 16 116 163 51 41 17 117 113 26 154 153 117 147 216 152 23 0 54 205 207 154 67 84 154 60 211 90 233 1 70 80 191 40 230 242 72 235 201 38 237 25 77 229 118 143 67 205 11 77 57 4 85 211 61 50 10 245 89 142 87 216 224 191 39 19 142 184 94 149 79 121 80 238 54 
40 209 132 201 224 185 36 120 105 159 249 21 249 69 238 177 167 45 19 93 69 120 174 225 106 2 195 56 197 95 123 158 93 165 187 197 100 160 99 93 183 136 97 40 78 83 72 39 131 29 93 37 141 41 106 107 238 248 48 155 26 97 179 41 240 47 180 74 83 52 109 240 171 94 60 232 51 75 190 255 59 72 202 163 52 214 227 140 173 76 85 88 154 23 25 135 150 52 134 164 
127 252 114 34 67 186 249 60 178 134 22 87 44 239 174 137 6 219 98 39 204 91 71 85 54 229 189 20 108 72 65 249 202 146 183 150 33 145 143 181 114 126 181 8 186 133 64 160 3 7 76 28 92 47 6 96 163 156 143 147 113 154 53 146 131 79 98 240 216 223 224 220 56 99 165 128 38 197 5 171 82 1 47 97 183 9 80 109 212 81 140 110 222 95 253 41 183 182 10 235 
51 220 229 111 86 193 7 76 59 193 84 135 113 119 26 180 251 226 168 5 235 77 86 65 156 42 118 218 42 159 58 15 181 199 203 1 82 233 143 70 17 184 167 151 153 136 13 177 200 107 143 57 4 204 19 142 10 140 213 178 4 33 191 144 59 182 152 18 74 128 115 53 184 81 251 248 74 0 43 189 208 46 4 168 178 16 187 236 125 145 243 135 27 225 134 3 183 10 250 8 
110 241 179 69 68 92 78 21 122 227 180 219 93 206 135 24 26 213 254 110 232 9 168 183 203 222 114 203 85 191 228 141 46 38 227 57 141 140 229 26 35 184 185 232 203 58 236 57 67 11 243 113 62 137 80 23 22 211 181 41 100 86 9 230 143 0 119 136 216 21 75 251 39 78 168 196 32 62 108 236 59 14 134 116 16 232 60 255 234 116 50 183 35 226 46 174 250 21 226 74 
66 113 118 205 59 149 112 232 70 145 171 8 180 204 166 89 52 66 170 110 11 97 243 148 221 242 204 115 82 5 27 195 139 116 195 75 155 236 13 244 7 173 83 16 198 47 5 43 242 224 241 144 129 88 108 252 50 26 222 88 165 72 239 169 63 117 16 82 192 176 76 96 234 173 128 187 76 159 208 93 14 200 230 153 198 235 136 189 29 133 196 177 215 229 221 170 117 162 114 34 
71 115 227 206 120 53 229 71 255 126 48 92 25 31 119 74 114 15 254 128 228 214 139 227 15 255 216 230 227 134 6 80 72 61 120 110 194 210 87 64 16 28 163 81 110 18 145 167 204 245 104 223 75 81 155 41 186 97 235 44 23 97 163 50 152 224 173 54 4 77 178 99 236 201 103 170 84 148 106 124 236 154 165 147 221 44 251 31 61 46 56 196 197 59 42 125 214 226 197 220 
80 92 5 216 248 125 62 146 174 39 187 86 90 116 252 114 157 32 146 143 153 107 111 76 196 88 36 11 223 109 43 76 13 244 122 19 23 112 22 33 111 184 75 210 147 92 139 213 183 213 34 230 60 229 187 151 115 117 87 79 196 133 10 187 222 129 89 107 232 168 116 63 178 249 18 50 111 31 164 231 210 73 81 141 208 144 78 100 165 77 132 212 70 222 74 11 125 75 103 32 
218 49 90 74 200 226 48 146 254 58 194 226 108 135 185 86 69 41 97 92 128 131 67 220 81 118 86 222 70 33 103 103 57 211 151 108 94 193 226 41 36 161 128 96 109 69 250 87 96 252 2 174 237 92 0 108 151 4 40 76 63 132 97 212 7 220 193 139 63 68 211 154 232 254 40 199 223 21 169 219 251 79 209 231 66 14 11 43 112 254 254 98 123 158 2 134 171 117 202 173 
110 240 92 216 205 20 152 191 60 0 228 250 206 30 118 107 169 245 79 36 35 174 195 21 130 0 153 90 111 19 107 117 177 27 51 243 58 191 152 196 249 80 108 102 16 99 32 172 159 103 93 209 42 189 30 115 10 105 227 16 172 103 65 146 180 248 22 191 156 92 205 182 64 165 14 171 108 192 229 153 147 168 168 228 249 243 133 86 203 35 22 130 224 60 176 241 34 217 143 106 
1 26 194 110 103 2 21 141 99 117 228 175 48 183 39 77 119 28 184 199 28 106 89 150 203 3 155 124 177 195 18 213 231 174 150 33 152 160 48 218 93 162 29 9 227 26 188 38 163 148 132 122 83 98 30 110 18 93 173 248 197 58 210 182 137 123 67 32 123 213 142 93 58 59 212 84 242 5 108 242 232 241 59 184 93 156 6 97 45 18 163 210 125 226 79 132 195 12 60 53 
216 247 135 10 53 89 179 231 62 139 143 37 169 109 30 229 73 119 179 90 47 20 198 253 145 72 215 222 232 242 108 191 53 159 156 143 53 75 246 161 5 18 187 169 202 246 159 198 252 84 71 104 132 253 31 63 199 44 172 193 74 220 249 241 116 71 167 82 32 251 158 26 97 242 35 10 151 104 242 100 116 121 142 101 179 255 103 78 46 156 23 229 68 141 210 227 195 61 188 228 
90 95 84 124 199 65 13 204 33 240 123 199 252 39 36 121 91 20 193 94 26 30 133 39 241 227 92 14 210 157 155 222 58 236 161 15 60 111 192 91 72 26 242 219 67 236 65 62 189 150 108 242 74 184 236 39 108 159 245 68 133 255 45 7 110 189 157 137 187 8 158 73 65 106 166 32 99 2 3 166 137 201 183 45 126 218 30 179 18 241 79 48 57 239 32 214 77 66 133 45 
8 109 142 80 97 124 132 164 157 156 92 2 68 246 50 142 84 200 229 128 92 184 168 186 162 196 107 38 17 70 184 224 53 63 110 184 3 137 239 101 179 208 90 106 188 17 51 71 139 102 160 32 227 73 159 21 171 5 231 229 40 128 8 55 249 221 107 67 86 201 53 42 244 60 251 191 42 52 88 216 163 222 174 93 6 78 225 171 113 239 234 47 228 99 134 143 131 2 241 224 
86 165 140 241 32 48 60 94 249 152 174 21 163 23 246 36 120 24 43 57 103 159 50 254 72 137 238 20 100 102 209 195 176 182 30 191 4 55 123 126 187 252 111 81 117 28 217 49 254 31 109 83 57 21 230 63 69 113 138 87 171 71 20 41 149 133 188 217 72 19 223 4 81 135 39 37 47 30 119 156 71 106 109 34 167 200 50 29 112 166 114 203 155 95 164 0 155 17 165 221 
110 79 41 83 238 246 6 185 141 186 170 24 156 240 158 211 31 191 48 140 138 133 201 27 94 95 208 60 45 241 146 71 152 217 210 247 35 147 86 104 230 144 13 193 182 34 44 18 168 118 89 117 189 67 37 78 237 70 219 247 72 57 167 113 239 82 93 143 233 69 71 248 230 140 116 39 60 204 41 209 173 248 237 47 203 189 147 92 146 143 61 214 118 162 148 111 249 60 177 79 
6 25 93 18 188 57 165 39 15 72 233 66 228 20 182 174 163 79 122 153 17 52 216 33 191 99 11 112 163 199 24 152 91 251 132 92 98 157 54 73 110 72 245 6 216 165 71 95 156 117 188 112 236 110 90 162 16 252 68 198 5 155 166 16 197 195 206 17 166 207 207 59 207 73 155 89 51 221 103 2 137 30 9 223 86 51 211 13 193 0 219 110 143 20 71 236 109 74 149 52 
119 212 202 105 16 211 76 175 196 132 122 143 139 68 215 3 179 210 138 27 17 89 196 84 136 222 144 41 44 181 7 135 109 230 254 136 76 208 19 61 33 170 208 35 95 253 193 110 91 158 163 25 212 231 126 18 245 245 16 74 3 25 117 239 209 185 46 69 8 162 146 69 166 173 232 196 33 119 9 37 58 13 167 140 218 185 135 31 220 120 30 35 91 76 67 143 242 203 35 221 
226 173 40 250 242 228 21 247 168 184 89 32 65 84 106 167 198 236 224 139 102 81 175 164 11 133 131 184 164 31 177 90 238 206 182 33 173 178 173 75 147 225 127 145 135 241 108 50 182 243 224 24 139 231 242 161 124 95 47 144 47 180 250 106 104 50 50 15 200 186 6 95 229 145 195 174 10 131 236 146 154 110 243 65 129 124 239 212 103 75 0 72 248 137 182 200 231 147 80 231 
50 250 233 111 227 240 40 221 54 122 29 99 132 200 81 241 50 68 152 54 78 219 143 55 220 133 102 110 54 130 107 46 135 188 125 146 119 211 63 42 72 51 53 62 106 155 252 148 150 9 142 196 155 238 125 216 183 244 51 104 192 139 177 153 239 154 85 138 199 76 37 193 64 180 54 229 215 27 240 187 117 201 29 86 244 171 189 44 144 167 105 150 110 56 116 195 9 138 118 204 
103 77 131 226 119 69 124 57 42 123 180 168 62 102 147 116 82 206 250 82 25 32 217 71 235 100 61 98 38 48 208 147 184 138 182 254 241 158 96 86 29 156 198 222 220 12 75 83 208 158 81 132 177 44 72 237 242 255 238 84 5 203 28 24 235 68 65 18 232 141 198 145 201 203 139 13 113 208 18 237 127 3 65 171 208 145 63 98 128 177 219 126 191 252 37 6 71 53 81 88 
153 140 253 254 96 33 138 96 183 213 80 3 184 100 116 216 0 237 136 19 29 141 114 30 247 19 207 252 17 112 25 81 84 177 3 140 58 245 90 63 83 166 9 155 149 157 59 53 44 65 133 43 36 10 8 75 236 7 111 113 171 48 251 64 30 220 63 170 27 156 61 241 115 14 66 220 84 20 75 56 54 144 131 117 112 93 151 127 60 128 113 156 207 5 69 131 255 86 249 87 
97 240 115 150 225 136 202 95 187 35 13 158 178 155 4 33 28 56 206 51 99 224 76 37 164 32 164 247 139 64 155 231 50 231 48 197 144 93 183 206 83 241 103 14 184 219 180 91 10 80 233 61 170 157 150 166 206 53 36 30 81 48 102 49 21 28 60 169 109 4 77 33 150 110 58 181 64 16 74 185 136 186 67 217 123 75 223 235 225 122 241 213 195 169 23 244 70 153 171 237 
62 23 98 233 16 70 42 13 60 58 153 2 243 92 159 157 72 118 137 125 252 179 115 31 46 32 201 14 102 77 64 246 202 234 179 219 185 11 243 198 162 94 19 97 72 94 52 11 28 240 255 83 51 255 220 75 249 63 163 16 219 156 83 88 224 182 153 38 250 148 110 118 223 36 96 16 136 93 130 38 54 78 155 146 61 89 205 41 48 95 124 187 244 37 82 169 48 24 118 48 
219 72 88 185 206 97 121 52 65 230 190 90 210 120 207 214 17 164 75 13 172 245 187 209 100 128 0 172 61 142 27 193 84 88 15 116 181 121 19 103 138 135 201 220 109 113 129 70 51 180 246 231 19 134 198 213 52 182 34 135 112 114 81 255 136 126 182 219 184 210 194 242 96 130 146 85 130 116 31 172 95 96 5 100 6 105 168 17 155 195 239 47 13 108 239 131 189 158 191 134 
79 158 127 158 9 76 43 50 218 66 60 220 174 101 91 123 220 50 109 8 5 168 103 81 71 104 135 122 11 131 247 236 8 46 35 223 139 172 160 127 79 151 172 38 121 252 65 102 212 137 44 232 102 238 179 56 156 177 238 202 138 145 30 128 169 224 158 237 130 145 9 12 109 176 112 63 50 247 35 242 154 144 110 25 94 172 108 158 67 157 152 179 135 131 111 211 65 39 2 74 
124 1 1 247 203 43 52 152 154 27 139 11 1 194 118 22 45 215 170 207 249 172 79 190 118 58 110 83 155 219 219 88 167 248 17 41 99 15 120 121 120 120 8 138 41 69 183 83 184 150 15 40 115 191 10 0 27 249 53 225 167 22 237 95 12 115 12 201 155 88 34 181 36 8 186 120 105 17 223 98 227 47 117 179 3 105 36 19 74 6 235 60 203 213 94 247 195 64 95 126 
76 172 27 102 12 89 74 34 24 48 52 39 55 89 132 161 22 171 59 110 23 39 171 7 72 56 5 119 143 131 217 161 228 81 230 168 233 168 142 34 1 214 112 126 54 167 173 165 192 242 140 40 51 116 164 36 222 167 76 159 246 222 158 20 153 155 166 208 75 157 219 112 118 100 45 224 165 30 90 108 133 236 26 161 245 20 131 147 206 156 39 226 162 176 181 153 163 24 228 19 
