P2
100 100
255
202 246 72 248 145 129 192 14 249 69 181 99 22 153 73 227 210 164 174 163 245 219 242 111 177 161 242 214 206 236 171 249 51 64 94 166 204 49 94 112 35 219 19 21 22 209 59 202 187 23 54 117 92 7 185 156 111 66 182 226 146 106 61 24 75 19 116 184 188 166 199 226 211 134 202 62 196 55 169 232 156 24 174 1 21 178 91 74 172 213 3 20 154 175 159 192 216 95 30 210 
57 114 173 181 79 122 167 7 79 169 225 209 72 101 99 207 246 34 36 168 1 117 66 85 98 118 180 62 165 255 109 29 120 123 29 44 220 193 108 226 208 99 211 201 193 98 92 203 192 29 105 59 85 144 134 94 5 220 182 176 246 151 56 82 183 212 158 66 174 97 101 22 120 85 79 169 14 61 58 92 138 146 212 113 162 6 42 235 10 167 85 182 240 196 10 177 242 202 76 233 
105 97 114 65 72 38 27 240 213 45 174 102 155 217 51 33 141 149 177 161 17 180 203 42 51 235 43 200 210 241 142 55 180 163 93 227 37 199 126 12 246 71 192 158 75 68 228 188 238 22 180 46 247 254 17 188 230 209 66 30 12 234 159 181 57 103 157 47 178 75 105 13 9 72 193 18 140 26 5 68 81 116 91 132 59 144 26 62 66 244 69 130 134 100 222 97 136 188 123 178 
189 236 184 75 232 203 117 138 74 16 108 118 208 27 134 133 21 71 10 89 105 21 110 160 166 210 183 207 62 181 17 134 76 141 242 45 34 181 231 17 177 122 157 53 209 246 25 132 229 171 48 105 226 203 10 171 134 247 108 189 103 117 39 183 215 95 181 1 17 183 81 82 148 172 171 88 180 4 191 140 219 249 122 202 59 198 37 64 171 230 116 90 235 6 86 206 231 232 215 164 
90 190 221 89 94 200 232 237 251 80 53 213 15 222 197 99 249 205 214 147 229 193 137 217 253 240 130 255 123 103 114 54 180 9 157 7 171 243 246 90 179 197 211 240 47 107 194 135 217 198 225 222 206 152 230 213 130 99 160 61 123 111 40 237 207 220 17 223 94 192 111 15 43 17 42 124 29 129 156 183 41 22 129 3 248 22 173 118 150 185 109 241 68 125 175 232 206 126 104 59 
216 214 48 239 209 208 140 110 7 59 190 103 0 201 179 48 75 197 70 133 20 125 31 67 71 161 222 237 131 186 169 144 14 198 64 207 15 4 177 253 86 65 98 162 57 37 55 70 227 177 140 98 234 189 199 112 191 61 124 87 31 137 171 206 38 69 167 45 197 223 188 220 227 68 44 182 19 233 159 66 90 148 116 72 124 106 23 181 0 63 45 25 78 15 238 162 42 58 157 93 
237 32 108 47 115 126 15 240 221 144 199 217 37 155 2 176 109 210 176 79 50 51 253 73 192 127 211 244 96 138 193 9 115 63 27 118 97 115 144 78 64 35 133 15 180 159 178 0 42 86 78 171 110 102 243 28 8 157 87 41 106 141 108 72 31 71 202 98 32 75 68 222 157 12 106 31 14 12 241 159 164 27 114 44 105 239 224 205 213 2 122 16 132 212 230 38 153 207 84 122 
138 8 237 180 53 232 113 106 228 168 103 9 69 116 88 186 109 242 122 181 121 64 157 21 23 80 56 184 163 229 48 247 169 48 245 254 241 177 212 35 4 228 67 33 92 227 102 176 198 129 14 50 73 132 133 129 189 35 254 90 39 32 213 52 157 161 85 5 171 48 5 178 10 147 169 152 61 200 223 102 81 56 15 6 235 139 23 88 122 234 54 236 9 20 162 246 161 5 89 174 
97 231 148 67 132 176 196 153 29 87 165 86 224 190 123 101 160 0 189 215 151 25 111 139 121 130 50 90 19 3 174 92 40 170 171 67 174 238 21 134 196 58 242 113 138 206 140 14 38 178 169 252 72 50 70 94 53 7 195 0 156 29 130 158 103 6 26 19 221 128 92 49 165 8 4 73 111 118 6 225 31 141 139 215 63 120 222 187 65 50 148 145 228 40 54 38 148 184 222 45 
185 152 48 41 232 6 250 89 103 93 235 249 95 139 210 255 142 31 71 196 206 167 100 216 76 195 156 199 231 90 132 40 44 241 88 231 236 187 146 74 5 12 206 151 37 115 210 78 234 172 140 205 254 241 227 31 108 187 167 13 57 158 227 251 134 67 63 152 254 55 207 97 142 103 60 246 46 162 15 240 144 26 45 241 123 172 110 114 29 113 57 158 166 207 214 44 183 225 121 131 
58 133 208 7 55 8 30 208 82 199 197 56 82 153 237 10 86 156 180 226 0 185 250 0 99 162 128 11 77 35 189 247 233 66 114 57 3 82 173 129 220 84 190 243 56 16 238 167 218 187 199 141 183 43 99 216 234 179 173 32 139 127 194 9 108 125 223 191 41 87 180 182 78 83 214 127 130 157 81 177 195 120 16 217 60 131 240 10 205 134 197 40 59 40 57 179 46 238 99 34 
197 114 132 205 135 43 85 51 30 43 3 162 151 73 11 51 39 101 205 187 58 194 202 149 120 20 27 147 137 134 28 23 69 238 212 41 112 142 51 247 255 219 143 84 92 183 48 35 13 210 107 230 141 157 226 140 162 231 229 0 223 20 237 147 80 63 12 169 228 90 79 47 61 128 245 167 45 115 220 150 241 73 190 224 113 44 187 25 225 77 65 36 164 189 215 39 195 48 145 52 
210 191 75 231 91 29 86 27 167 102 249 219 206 186 169 229 24 247 78 149 226 208 18 223 92 242 181 209 242 47 134 102 243 96 13 232 104 123 249 178 9 33 179 6 248 126 7 152 101 124 0 210 229 187 192 53 195 199 228 168 38 226 180 171 37 250 250 52 108 37 113 92 118 10 155 56 239 79 66 175 64 100 30 80 23 162 50 6 243 45 94 118 129 156 174 35 216 249 170 192 
205 167 12 222 106 87 175 34 113 107 162 87 44 93 52 152 237 172 215 32 92 230 151 113 167 185 184 237 67 237 90 128 33 52 87 100 220 180 144 133 247 204 119 82 67 240 204 48 9 168 64 3 148 233 158 37 72 247 64 238 252 175 27 28 85 13 16 75 154 230 159 37 172 109 38 113 24 148 225 172 82 67 85 232 37 64 227 202 105 155 202 90 243 16 214 94 11 134 123 32 
149 98 139 226 6 203 143 99 244 44 209 157 68 203 251 100 27 60 41 96 172 196 82 81 151 252 224 100 32 73 185 64 71 24 46 201 168 136 41 212 213 108 186 22 144 181 169 118 13 232 170 74 213 172 158 63 18 90 48 71 210 97 114 49 110 61 109 9 239 61 128 221 228 132 95 74 61 172 238 111 215 125 234 55 238 43 39 147 98 135 251 119 190 238 11 76 6 90 59 174 
214 171 247 205 21 94 159 140 5 199 16 227 152 244 170 249 252 207 62 245 51 77 73 230 115 47 70 213 61 179 5 111 132 48 212 178 58 111 236 10 152 205 174 208 116 255 172 201 85 86 232 241 97 12 40 216 74 86 74 225 89 127 20 169 177 164 143 109 119 28 90 83 12 67 58 192 43 216 47 174 49 230 221 221 192 184 120 195 130 217 140 249 250 236 242 203 164 11 139 121 
120 112 192 22 15 141 45 116 203 192 190 205 58 124 161 54 108 239 216 228 98 215 183 242 124 34 56 35 172 30 44 115 196 137 42 223 239 204 22 44 89 248 254 253 234 93 131 88 200 192 231 209 161 217 185 91 175 114 116 127 228 87 112 170 166 143 72 245 140 164 70 92 233 245 23 54 83 161 139 196 133 121 3 35 122 174 147 38 204 196 7 92 204 236 131 226 100 55 74 189 
37 108 24 131 138 242 10 75 194 247 153 223 232 239 211 14 189 77 61 115 247 70 45 157 117 26 198 165 197 204 43 197 83 91 153 189 99 74 247 152 21 173 123 134 115 67 115 230 121 232 29 176 221 180 82 199 155 15 42 241 40 119 188 153 101 210 183 221 216 37 25 185 45 108 209 57 51 253 182 81 247 231 224 13 139 14 2 239 1 109 131 137 64 122 17 56 212 102 223 83 
248 118 74 114 101 60 178 237 199 94 38 129 40 226 67 193 51 120 59 237 221 178 206 194 151 114 201 217 191 216 196 181 246 246 122 130 113 121 41 77 214 200 203 66 132 88 18 250 230 158 65 200 190 13 50 210 217 149 124 104 0 199 15 91 209 156 36 156 96 93 132 174 152 212 143 79 15 219 160 59 73 114 71 4 230 80 204 174 4 249 103 254 154 86 236 124 75 64 196 104 
194 126 161 35 46 79 127 178 187 197 34 236 99 46 65 118 45 214 10 87 185 155 217 248 107 172 90 88 101 127 160 14 150 219 117 18 16 134 104 97 31 134 178 163 173 206 238 41 119 228 116 122 141 133 3 158 182 53 142 52 147 13 14 5 221 99 113 82 214 150 207 99 80 102 189 154 106 223 205 205 72 246 81 95 255 124 196 84 106 184 168 79 109 200 146 220 1 136 194 234 
117 100 95 191 137 204 23 5 92 8 57 177 161 251 235 142 216 6 99 245 50 12 164 115 170 143 200 79 27 212 245 183 247 134 229 150 111 120 225 95 112 223 115 107 194 9 146 107 42 161 17 30 19 60 44 166 59 9 107 149 48 33 202 178 32 171 119 101 84 224 210 49 24 158 230 194 189 203 169 87 232 83 229 37 222 154 95 175 156 11 101 146 60 241 163 132 215 161 4 44 
98 69 208 255 204 221 39 162 249 103 47 68 162 138 88 70 242 175 76 111 161 138 139 205 219 74 26 100 60 237 52 18 3 215 71 59 103 186 210 154 219 243 87 86 168 100 171 17 119 200 180 204 84 107 218 130 23 129 76 162 179 213 49 102 4 148 217 209 71 24 47 55 166 217 61 169 243 207 41 41 193 42 107 12 251 81 123 109 227 20 11 157 123 39 89 53 105 199 158 185 
117 163 92 227 235 9 254 27 160 17 9 145 50 172 164 77 30 93 155 51 160 195 147 48 23 30 131 120 132 104 124 112 255 195 178 209 100 52 228 243 19 147 225 175 76 205 67 173 210 223 6 203 95 73 75 141 100 91 156 18 64 204 144 128 90 153 2 229 98 13 206 223 151 101 206 199 6 170 21 15 236 87 50 74 13 218 254 152 242 212 118 121 63 4 48 22 213 28 112 240 
190 150 78 186 197 138 210 174 48 62 197 128 233 105 234 126 96 60 25 212 129 171 242 131 206 96 34 140 81 212 11 213 178 146 233 227 174 253 61 6 124 44 15 85 103 91 84 37 53 82 247 148 200 23 19 61 50 126 174 242 162 225 17 32 145 37 74 34 154 30 243 250 46 48 161 173 37 23 206 123 101 105 123 41 11 78 152 215 62 213 233 35 69 197 195 55 102 28 173 109 
187 158 143 1 233 185 229 144 219 179 99 95 122 65 62 204 32 241 249 105 15 45 31 207 91 63 126 77 62 124 204 200 42 93 216 59 81 196 148 178 200 169 20 216 145 121 80 40 171 230 53 53 137 48 89 94 181 147 152 168 120 214 251 136 226 5 90 33 207 24 80 35 212 66 85 100 118 78 54 205 188 20 180 177 138 249 5 238 241 30 12 9 204 89 57 56 116 32 66 50 
149 118 127 201 168 222 59 175 229 5 163 24 143 19 103 19 78 126 247 234 141 1 20 92 114 16 172 204 5 133 141 15 128 233 39 71 97 32 2 109 175 18 177 11 112 162 239 74 231 46 91 118 179 200 83 229 52 32 181 152 16 77 206 79 207 220 55 223 90 114 51 30 134 204 13 142 133 80 84 125 10 163 91 138 191 165 188 67 232 161 142 214 139 161 50 189 160 32 98 68 
166 136 207 187 187 95 59 79 163 221 244 154 92 106 25 204 247 81 123 241 155 237 242 13 70 122 2 151 189 98 83 87 5 174 109 112 40 217 174 219 146 158 79 132 4 33 166 140 1 62 195 7 217 106 177 250 133 181 127 119 145 6 193 55 112 31 249 167 23 14 86 78 35 88 32 201 65 203 197 248 148 152 64 80 59 230 174 246 14 213 78 125 4 180 183 79 57 37 183 25 
52 108 17 242 130 172 70 112 118 24 169 232 58 66 192 205 217 170 74 196 115 195 86 103 85 221 166 248 217 8 247 1 34 145 37 196 77 157 58 212 58 48 175 78 183 20 4 108 169 113 20 71 224 83 237 230 226 130 92 193 21 115 78 151 52 35 165 215 248 30 154 46 29 84 182 254 130 218 190 22 209 113 54 133 28 158 84 127 228 5 43 206 167 128 38 185 72 126 97 93 
40 80 133 236 43 201 16 199 1 207 85 58 14 42 216 154 93 140 124 79 17 184 230 135 163 61 194 230 49 117 43 146 20 88 192 56 174 7 250 42 168 164 217 200 89 164 235 170 220 17 84 122 242 185 55 104 103 179 191 67 180 200 139 225 109 88 165 232 80 119 175 149 132 81 53 42 54 246 214 69 221 39 143 26 156 232 184 130 30 103 84 1 36 106 211 86 68 50 28 156 
82 182 240 30 69 242 147 65 20 139 59 193 135 137 219 99 5 174 42 81 63 169 117 169 208 19 128 117 140 174 7 155 239 152 85 121 109 87 155 89 179 208 157 154 237 208 137 112 91 191 66 7 193 159 127 25 29 190 172 234 53 175 125 114 15 115 221 215 102 166 158 149 174 167 246 143 219 70 37 55 0 97 68 252 233 31 178 8 221 198 218 174 185 222 214 207 119 238 131 20 
108 75 238 89 170 72 76 126 95 63 85 70 230 55 16 218 233 70 86 130 85 48 98 209 28 64 195 62 93 252 78 134 156 10 224 145 18 198 216 120 10 177 163 237 254 245 200 119 31 253 195 223 110 62 49 175 100 127 228 228 120 183 29 46 185 133 188 130 195 100 217 23 117 99 156 203 7 43 238 190 13 52 113 129 21 244 53 147 207 209 56 144 223 201 45 245 13 147 129 245 
160 149 125 162 110 172 140 68 97 138 152 229 213 112 37 61 55 186 170 224 232 155 29 94 56 24 241 162 82 193 115 159 226 84 91 34 8 158 45 92 238 47 54 124 70 105 107 242 108 248 217 242 40 3 20 49 25 168 36 102 105 5 136 221 58 119 27 219 133 38 117 66 42 180 148 163 91 41 133 34 152 27 253 233 52 69 71 226 215 244 105 73 231 189 118 165 127 21 12 44 
97 146 83 7 179 251 118 51 141 175 128 73 224 151 147 234 195 50 159 202 238 249 144 1 217 99 142 40 216 29 196 114 140 121 23 128 66 210 194 3 177 44 251 165 35 8 97 128 233 29 89 60 158 49 71 247 45 10 56 137 184 239 136 18 53 155 92 70 74 164 33 73 71 1 104 215 204 69 93 213 240 114 51 205 79 236 9 15 98 182 130 249 47 183 125 34 92 98 25 217 
46 159 33 69 255 229 169 170 163 185 136 249 77 134 112 29 153 151 46 134 137 67 221 79 137 153 85 36 98 53 51 25 44 145 92 196 244 242 141 154 106 89 192 188 139 106 200 134 231 214 57 55 70 215 69 234 16 221 44 109 39 147 1 75 161 69 166 122 141 10 93 149 135 232 0 187 95 2 175 85 191 214 217 26 160 6 182 21 116 139 91 188 165 41 37 129 11 8 87 59 
174 236 169 135 229 79 240 62 55 102 87 150 58 74 29 184 185 165 17 214 208 41 59 12 189 115 66 163 70 250 146 233 139 226 215 54 21 92 101 211 118 79 127 182 193 40 69 118 225 230 183 102 216 28 231 127 125 211 152 59 90 102 255 101 47 168 48 19 127 241 15 10 21 222 159 7 229 146 70 113 109 99 188 235 156 206 27 157 155 97 37 131 109 17 2 148 139 216 117 160 
243 235 181 125 48 84 15 98 89 78 30 232 190 103 181 8 249 122 147 140 183 200 176 221 27 247 113 170 206 72 36 23 217 127 153 142 136 213 4 41 105 117 151 123 47 168 134 51 20 64 161 101 26 1 18 145 105 202 224 60 141 160 18 80 222 164 154 226 168 48 235 201 113 174 25 108 252 103 222 190 186 161 85 133 136 213 123 98 95 76 84 111 26 124 255 158 58 120 219 36 
22 188 199 219 137 218 53 88 41 163 181 77 10 107 126 124 48 76 202 38 183 44 30 6 47 149 53 189 229 5 212 4 150 228 57 246 129 64 250 182 0 214 223 105 227 215 45 152 57 120 165 231 70 86 53 52 109 25 157 255 245 80 53 189 173 220 30 33 119 116 176 75 136 58 214 64 46 155 51 246 4 214 214 213 89 193 219 59 204 195 109 201 139 71 63 63 173 203 59 204 
128 157 138 55 237 88 212 60 100 28 253 72 79 3 141 54 110 1 88 120 247 170 58 173 107 104 76 140 86 128 210 211 186 233 40 255 240 243 6 157 38 131 18 42 233 6 68 101 118 157 34 54 204 138 118 51 182 111 240 208 17 198 114 146 12 221 207 3 151 59 34 139 236 65 81 193 212 102 106 176 176 118 182 182 61 243 34 49 129 221 32 66 191 154 11 125 152 140 132 11 
225 187 109 73 129 177 13 197 231 167 140 211 121 110 224 11 188 104 208 101 254 27 69 253 219 111 10 119 32 17 175 97 37 119 242 210 187 40 109 61 248 64 218 195 208 34 208 83 33 74 203 82 160 166 43 15 177 77 190 202 134 66 13 45 241 10 91 139 176 148 187 142 106 233 152 165 104 13 146 200 196 195 15 172 19 111 151 175 225 148 193 28 178 24 219 112 132 32 104 67 
99 217 92 219 80 230 107 230 118 188 51 159 2 183 124 224 90 147 147 81 166 187 248 19 6 170 74 105 244 174 138 211 230 76 13 169 15 252 56 163 80 247 13 151 184 48 91 76 230 39 163 115 217 142 87 146 153 142 148 74 95 175 175 160 160 31 71 115 219 103 174 229 235 14 18 41 54 244 102 125 94 30 14 26 77 98 106 221 199 7 222 53 154 229 31 100 248 6 189 75 
58 197 145 128 188 200 179 74 77 236 99 178 87 17 135 146 20 122 142 113 201 179 218 200 242 39 171 165 65 242 216 185 217 107 48 222 88 18 55 93 177 232 179 245 82 207 137 24 114 85 15 231 53 254 3 159 41 231 85 223 198 55 197 185 112 160 149 210 104 56 140 234 189 250 19 33 161 230 19 249 30 168 6 147 163 248 19 38 104 17 55 143 61 93 92 44 7 168 3 9 
216 230 166 3 218 87 100 255 226 129 207 220 228 48 139 186 181 223 207 191 243 83 102 93 160 4 62 119 108 231 95 203 93 29 45 239 61 172 201 121 9 114 129 31 168 161 153 95 41 156 10 75 44 85 211 57 51 83 123 113 54 147 123 123 55 138 251 36 139 11 39 165 106 10 88 72 173 230 204 203 92 251 11 5 189 37 2 189 117 131 196 57 74 87 164 23 219 6 173 6 
227 227 193 45 59 175 4 180 208 244 231 31 79 67 100 55 235 42 186 197 202 254 120 141 173 245 27 9 19 178 2 64 31 204 118 142 59 132 227 191 212 74 243 99 103 101 53 173 219 153 117 98 126 146 43 76 223 212 102 206 196 206 199 88 186 237 59 1 100 185 5 237 106 33 43 192 56 67 168 20 181 62 162 139 0 255 130 0 30 80 76 69 22 101 113 111 67 208 48 90 
216 247 14 110 174 147 72 127 97 115 246 251 33 43 144 253 51 239 70 117 206 31 48 187 142 245 193 145 23 192 154 205 13 26 253 209 143 174 112 209 202 211 161 33 104 81 146 174 233 37 143 147 143 242 218 3 12 110 18 238 213 122 79 166 55 248 181 238 246 40 55 154 94 25 38 17 223 115 169 85 200 176 202 41 253 162 157 248 44 1 12 146 73 95 14 123 160 187 156 13 
211 246 110 7 134 135 30 222 91 239 25 31 32 144 185 226 43 204 31 201 99 39 19 165 210 90 230 230 145 37 156 108 77 7 227 91 247 222 102 86 128 119 235 198 86 192 158 204 162 196 198 52 149 100 38 153 226 252 141 53 62 22 223 24 106 220 79 183 180 243 194 189 194 52 166 63 208 5 15 56 63 189 99 234 224 75 200 186 44 117 4 224 156 247 187 17 28 1 214 182 
220 86 236 152 35 65 64 61 85 39 205 165 250 66 228 51 25 84 0 79 81 239 54 52 50 230 139 214 99 218 31 23 237 177 89 49 245 175 71 176 174 34 61 221 110 135 55 73 102 142 8 238 140 200 165 226 199 59 225 77 237 78 172 32 136 209 200 71 156 246 42 140 129 190 11 222 10 216 245 56 156 6 22 66 122 25 255 152 218 10 51 106 161 151 39 53 238 209 231 137 
209 185 176 120 132 98 158 229 6 3 58 132 109 80 144 183 128 217 45 99 39 178 105 196 150 46 123 129 55 201 93 93 12 244 103 133 212 133 85 40 69 245 154 151 23 106 12 53 86 156 64 183 50 115 172 7 51 181 93 96 155 116 129 24 32 1 235 250 11 210 59 167 169 153 40 176 33 131 192 113 77 224 112 10 122 114 6 241 29 136 45 154 44 39 29 244 202 206 162 163 
155 53 241 130 120 131 167 88 123 200 6 109 114 50 63 113 191 31 218 187 205 47 163 166 39 213 43 189 100 48 253 154 97 2 197 30 84 237 95 229 218 196 9 179 88 67 89 158 231 119 183 148 87 78 100 119 201 126 193 205 38 22 89 46 119 255 98 57 69 155 78 86 157 251 30 58 189 66 5 148 28 40 159 165 38 128 32 213 112 138 143 143 212 158 100 175 61 59 201 156 
235 3 254 231 182 216 44 255 1 62 84 62 85 116 233 179 225 122 168 8 139 107 248 159 72 142 222 121 217 110 236 160 115 187 61 117 143 178 73 230 136 218 154 25 94 45 184 126 192 167 165 237 83 236 79 148 195 111 189 21 52 102 145 250 205 70 160 144 188 82 9 219 223 159 149 62 49 61 11 229 19 44 40 214 231 82 202 55 38 42 202 77 155 242 0 158 5 81 107 185 
30 211 150 172 13 255 204 89 127 178 228 13 109 237 93 11 191 84 40 162 198 17 221 183 3 160 186 1 56 206 118 190 118 217 57 176 119 234 129 32 235 212 56 153 178 139 221 125 241 161 29 204 135 194 202 52 222 40 250 11 243 98 237 44 154 164 165 65 205 72 20 68 240 237 241 84 14 41 109 128 253 83 78 201 214 86 18 223 197 49 89 174 41 49 163 149 68 23 116 139 
27 214 223 78 34 196 111 89 110 146 231 29 99 6 79 100 115 223 247 91 169 43 21 28 209 229 38 194 218 122 9 47 37 17 84 173 213 209 215 229 82 252 166 111 81 71 85 40 118 180 238 155 69 47 159 23 189 15 199 180 45 181 241 55 72 217 206 164 95 78 138 57 172 153 45 117 195 33 106 170 0 142 125 67 145 138 246 106 119 166 10 117 216 49 45 36 167 93 229 138 
255 215 77 151 184 192 133 239 37 161 226 179 208 114 90 9 215 180 227 149 233 107 127 156 116 164 239 23 32 75 45 222 136 191 50 68 19 208 60 152 134 37 221 64 144 26 25 83 104 223 110 228 0 219 46 11 6 228 176 190 115 176 5 206 167 135 51 161 169 170 157 69 11 17 80 88 109 228 118 35 116 238 84 89 41 90 76 69 106 97 129 121 83 253 29 243 251 128 250 246 
62 229 9 74 203 19 113 116 125 46 201 28 38 113 66 230 150 83 34 254 46 16 90 183 183 97 107 217 177 119 66 80 8 21 251 242 161 69 203 6 54 52 17 64 4 158 84 5 222 195 48 144 45 157 9 150 120 216 183 143 142 76 182 82 158 108 229 143 40 187 103 114 234 255 7 111 241 69 247 140 183 28 77 60 91 187 46 188 220 206 190 81 164 147 146 39 120 67 119 157 
21 239 191 107 170 28 245 199 43 48 236 32 175 171 96 242 183 227 104 83 239 111 190 107 173 59 43 217 146 248 233 190 222 92 136 241 132 51 48 167 145 182 166 143 112 72 9 12 70 80 127 19 178 78 146 2 104 104 194 249 235 157 31 141 222 98 102 117 144 96 174 166 61 28 23 61 232 102 150 133 59 194 161 5 227 22 236 194 210 129 118 177 237 164 72 55 2 121 114 57 
51 54 225 22 48 58 200 186 71 168 51 73 240 98 41 39 180 19 198 236 237 130 56 188 47 244 231 83 52 134 24 29 195 2 114 186 221 59 18 7 124 58 172 250 94 208 160 169 174 144 49 124 115 51 119 74 234 243 97 227 255 126 19 135 26 36 238 5 9 35 14 134 187 182 246 110 97 228 12 138 16 72 50 86 201 78 60 78 142 6 128 239 152 122 178 254 88 44 148 193 
94 180 223 152 211 239 254 54 34 103 21 171 252 230 229 143 30 235 87 63 1 43 144 194 118 31 149 5 58 50 153 98 201 10 144 135 232 87 26 199 93 145 213 32 119 84 150 144 150 226 69 161 162 44 141 61 133 126 207 88 63 122 132 41 188 72 146 113 204 199 250 131 223 184 145 57 12 65 112 162 219 84 67 213 11 148 115 139 106 250 49 105 127 12 6 233 96 129 99 22 
228 112 160 251 1 7 49 244 46 82 156 109 71 109 243 148 202 34 26 47 207 9 70 175 58 4 215 32 155 107 60 74 151 112 184 110 209 228 112 131 48 105 188 230 97 137 164 160 58 166 96 105 225 255 180 50 138 196 74 232 249 45 190 183 1 50 232 204 61 90 27 177 173 12 88 76 216 248 120 223 236 136 35 88 45 142 114 155 210 114 125 16 223 223 71 242 25 7 15 194 
217 239 128 122 127 217 173 198 116 89 103 235 162 205 116 157 14 11 15 116 202 231 81 121 67 111 221 42 90 0 70 243 135 18 170 138 212 209 4 224 94 204 2 51 164 170 119 72 194 153 107 18 186 185 68 54 239 103 178 154 16 248 73 4 91 119 22 147 141 81 167 93 196 170 50 88 240 125 12 24 40 19 130 60 17 46 46 203 149 164 209 175 52 212 0 120 183 148 68 131 
194 169 135 30 87 191 231 47 81 234 219 87 87 188 18 88 94 222 187 218 194 127 142 232 124 37 135 87 171 246 51 26 115 204 44 77 161 44 165 238 15 254 135 65 87 167 39 117 210 106 94 218 180 126 139 152 211 169 40 103 220 248 66 15 103 204 84 57 111 123 10 124 158 51 98 52 67 46 21 132 108 69 59 114 39 254 74 148 107 157 36 104 79 114 136 61 24 26 242 194 
176 152 112 133 3 211 165 254 239 160 134 207 41 226 42 35 8 37 152 248 255 27 118 136 226 77 255 109 151 222 84 125 36 45 102 233 69 62 95 128 71 116 84 60 209 128 82 64 13 237 58 97 159 151 27 63 175 146 160 97 220 15 123 229 202 5 56 46 0 220 130 254 227 100 236 228 44 115 90 37 150 162 250 233 22 153 157 119 185 164 107 104 32 72 210 135 211 69 49 27 
218 59 62 100 172 229 99 62 55 182 50 53 20 111 234 112 200 186 96 52 92 160 151 223 81 240 37 82 121 47 210 51 174 61 73 174 149 37 202 46 16 216 96 189 226 113 107 75 200 83 122 148 55 79 128 94 109 171 1 67 128 38 26 68 36 67 21 205 146 51 181 192 90 166 0 131 163 145 192 101 125 231 164 37 123 28 7 43 12 7 139 47 65 96 158 141 225 20 50 245 
197 86 179 252 240 37 84 115 168 95 110 245 133 139 234 127 18 155 80 156 99 188 67 12 217 156 238 102 21 131 178 37 61 60 109 127 255 8 228 224 36 160 143 58 155 96 10 56 255 165 85 94 163 65 210 74 145 123 155 207 164 94 81 231 45 250 3 170 135 0 82 117 254 167 106 11 68 12 102 74 167 18 62 27 171 62 190 250 230 91 234 87 92 31 57 126 5 212 60 235 
96 181 171 196 232 78 64 235 188 128 56 174 7 216 49 179 116 197 12 140 72 90 174 163 183 155 188 221 189 234 101 49 244 83 105 161 111 180 11 142 231 36 47 190 160 122 115 182 32 99 38 211 194 199 244 3 195 28 72 113 177 242 18 17 18 209 61 74 26 142 203 145 63 237 127 193 31 247 187 140 241 255 33 52 97 16 255 99 103 145 176 69 235 181 159 84 10 21 147 253 
248 98 99 229 216 160 3 11 222 69 79 233 204 7 202 180 192 156 60 196 21 81 145 17 115 63 217 49 34 219 190 50 105 7 90 110 147 18 242 244 62 17 17 58 167 129 157 102 90 15 69 239 157 154 231 5 210 248 46 127 176 58 55 107 218 37 13 52 212 166 94 118 244 55 16 36 0 214 47 181 16 76 91 89 221 161 39 22 215 103 94 22 29 70 20 244 106 160 33 154 
255 20 47 100 118 207 174 79 33 142 186 143 139 198 209 29 51 144 224 140 244 238 23 72 164 132 124 248 96 196 59 255 191 241 37 176 227 201 32 243 182 32 48 15 173 169 67 133 131 157 186 124 153 22 95 193 120 182 175 235 140 165 63 155 245 138 4 115 157 1 6 163 179 72 212 249 63 25 248 150 37 142 172 169 76 213 54 164 48 151 194 139 237 13 39 59 199 165 220 252 
249 62 25 192 118 252 59 148 77 186 50 177 16 115 136 90 156 220 249 77 30 177 109 33 170 196 134 204 242 229 195 83 164 95 115 14 14 182 26 196 46 55 33 63 165 232 246 32 182 197 50 232 218 105 84 119 89 45 6 139 221 182 157 210 229 193 154 132 44 74 136 241 243 176 54 253 193 44 94 49 94 248 115 162 188 18 27 209 6 70 93 110 21 230 246 197 109 88 88 2 
181 111 67 1 190 118 72 81 71 68 223 182 3 97 181 75 204 117 30 134 40 186 215 224 118 88 153 253 17 52 122 2 210 115 50 143 200 67 248 165 1 210 79 131 110 37 197 130 3 151 32 199 84 225 245 173 144 212 98 104 6 249 181 121 144 227 65 176 2 127 69 73 112 35 17 17 255 75 115 93 244 147 245 72 75 160 82 10 117 135 43 25 8 231 209 230 6 224 26 131 
48 195 48 142 239 194 128 52 66 10 138 86 62 8 187 239 115 28 175 72 128 8 107 100 129 248 180 193 90 52 11 162 251 103 58 203 9 228 84 119 152 173 143 212 169 131 53 122 5 220 236 186 123 54 249 228 30 91 39 78 158 166 45 110 140 206 45 185 106 102 204 0 162 91 54 95 14 20 138 1 123 148 181 65 159 254 33 145 246 137 7 30 160 110 146 168 228 66 67 105 
137 166 192 9 126 238 164 195 76 18 112 110 30 23 150 216 126 75 57 236 127 236 248 217 244 19 193 147 21 77 18 163 128 84 247 127 141 220 84 70 199 54 199 164 116 228 188 3 169 160 211 240 124 236 32 177 113 99 145 202 62 98 49 184 103 153 73 241 141 240 153 247 14 204 26 113 50 158 148 148 90 8 215 8 31 35 74 140 201 231 27 27 38 132 70 17 179 238 230 2 
29 196 77 28 138 6 241 83 18 92 196 182 60 227 45 251 64 50 247 163 99 58 106 116 171 106 222 26 142 154 77 64 115 182 132 140 92 251 168 45 173 135 197 20 65 195 100 229 123 8 251 168 46 39 18 30 80 32 164 52 197 230 175 199 100 131 56 49 0 28 190 205 181 186 171 169 188 250 50 17 127 108 158 89 148 17 78 181 22 161 31 210 181 155 48 179 124 231 5 149 
8 18 167 49 84 165 32 14 250 64 45 185 154 137 176 189 225 118 136 219 182 250 127 3 88 199 180 159 146 29 63 104 17 104 132 200 74 135 197 141 96 0 24 147 61 210 105 48 112 69 224 28 189 28 109 14 28 80 238 122 115 74 235 39 188 16 6 198 211 64 178 23 240 206 144 15 254 125 34 68 30 241 96 16 107 160 215 241 71 79 178 171 59 185 24 224 46 199 99 146 
152 38 68 45 135 7 109 206 84 123 226 209 248 124 144 181 237 133 62 122 23 30 154 191 18 16 152 37 191 246 146 6 90 41 194 159 145 111 178 26 72 107 33 134 182 160 9 106 125 245 106 232 162 125 253 247 82 49 214 11 115 79 246 175 77 132 254 42 13 59 1 138 185 231 62 30 101 169 96 153 26 150 233 14 63 69 106 76 183 161 157 65 62 91 119 116 50 138 171 113 
10 105 249 183 42 27 90 150 224 68 173 228 69 94 186 21 114 147 84 88 113 132 219 17 130 240 14 120 10 51 138 180 26 165 45 150 138 194 94 222 151 184 35 184 230 80 20 16 41 178 65 85 10 105 41 8 171 183 188 240 213 47 25 47 194 177 136 71 167 162 47 99 182 154 208 201 118 203 208 61 140 147 100 210 16 244 254 249 47 139 139 119 143 119 174 85 93 227 105 45 
50 162 173 184 176 43 229 205 96 115 101 237 49 20 234 177 32 93 163 143 137 137 97 237 7 135 227 105 240 212 27 221 40 72 234 32 56 107 43 81 114 135 115 35 203 200 178 3 7 88 150 165 177 160 240 141 115 249 236 39 135 159 195 166 102 4 181 48 254 33 36 146 60 40 138 178 29 110 91 32 120 157 211 224 200 36 209 74 51 78 15 70 186 94 196 244 196 99 54 3 
245 11 234 85 230 85 93 94 177 124 171 113 217 25 45 3 102 193 199 44 238 26 72 169 188 106 49 171 100 156 45 232 143 248 191 39 179 255 190 143 248 113 69 219 86 73 42 208 33 108 188 42 26 91 67 119 45 223 75 120 213 42 84 20 49 35 56 45 203 204 214 230 184 202 127 146 196 160 129 14 0 136 105 185 113 220 106 42 45 9 205 179 90 66 154 135 129 152 188 77 
214 231 184 153 17 5 111 230 226 9 109 63 212 191 89 204 56 73 20 53 245 119 69 203 74 251 174 49 14 138 2 127 54 179 83 3 231 129 128 202 69 192 159 196 160 247 48 189 174 7 70 210 246 116 48 50 234 228 44 183 224 183 171 160 51 163 164 1 137 218 16 136 20 43 34 187 76 183 249 175 152 182 23 113 98 251 188 246 25 199 228 69 163 149 203 195 171 174 175 32 
88 244 105 197 185 149 30 167 203 0 23 26 71 50 186 220 134 94 104 35 39 146 66 212 74 45 99 40 222 225 52 170 121 108 116 115 224 110 32 79 50 58 199 131 33 225 6 140 51 251 67 57 107 66 78 198 213 53 149 131 23 48 29 179 23 54 184 30 88 158 75 206 243 212 215 12 118 148 88 68 159 168 66 32 225 225 83 189 134 152 164 217 134 44 244 245 105 43 61 43 
114 129 223 179 137 65 39 145 70 97 210 176 176 208 115 34 15 8 177 14 180 117 172 247 20 215 104 241 178 228 130 157 40 69 166 231 173 122 251 35 1 173 204 104 120 1 16 3 76 142 77 118 8 223 162 201 225 110 241 170 191 162 105 113 120 16 4 247 189 217 51 109 80 21 167 213 168 197 188 20 175 177 47 6 192 102 135 112 11 18 93 212 44 97 133 166 120 43 30 86 
17 146 181 109 59 133 66 30 94 111 144 194 235 246 235 30 32 14 44 19 241 182 249 172 156 188 131 133 202 92 137 162 56 40 51 22 177 181 245 6 140 113 209 97 231 34 216 33 64 40 244 147 13 180 228 211 100 191 111 255 111 156 166 206 52 204 40 137 61 3 82 6 227 175 250 151 6 42 197 63 0 130 122 229 187 4 45 108 92 73 221 236 235 123 220 244 111 97 110 34 
72 161 32 50 15 214 118 112 54 71 19 246 122 172 91 14 17 31 110 57 173 68 90 223 210 82 124 150 207 125 57 126 218 123 28 154 107 185 18 76 215 240 154 164 3 37 217 251 66 237 113 192 222 115 145 43 155 213 75 0 209 168 210 96 74 146 249 74 190 60 125 32 80 67 174 209 114 75 135 219 247 214 152 54 166 176 204 194 156 193 67 153 23 101 4 238 52 229 100 54 
240 67 187 199 209 49 48 49 154 217 91 49 49 182 130 210 33 204 111 100 143 88 51 180 68 245 56 225 37 140 134 57 218 225 29 194 154 65 223 220 239 169 153 195 43 83 224 127 184 73 40 247 215 125 121 68 140 8 122 80 205 160 210 28 229 22 210 68 82 176 204 239 84 145 83 67 78 125 169 224 168 44 202 206 56 8 75 186 8 186 6 5 79 126 149 31 173 90 61 98 
128 239 72 237 201 186 149 189 148 75 112 6 253 221 179 236 246 117 233 151 125 254 5 5 23 7 236 205 156 34 33 90 31 15 37 90 229 213 78 67 141 150 41 241 74 223 247 52 229 67 125 249 122 220 112 167 99 249 208 31 71 12 111 119 11 24 76 111 71 31 201 208 72 30 109 254 116 177 166 231 239 255 167 103 177 149 211 79 116 212 66 25 110 194 241 22 195 74 29 164 
133 10 121 182 212 47 91 254 23 172 132 148 166 28 248 189 150 66 91 175 135 196 105 119 201 203 131 146 236 167 187 107 59 43 49 27 150 31 89 39 200 23 130 139 209 198 89 13 11 125 145 34 104 233 24 26 144 49 234 186 30 49 144 218 164 227 244 15 51 132 246 252 60 185 185 40 224 221 52 112 8 105 96 242 42 218 178 254 29 10 36 207 184 124 249 187 130 4 19 105 
13 19 32 20 156 152 107 197 250 35 235 18 12 108 138 139 69 227 189 58 221 81 146 61 62 139 184 222 88 38 92 50 227 24 72 147 101 123 228 228 99 113 187 214 47 105 133 7 18 252 132 123 173 22 241 87 124 237 113 228 49 252 100 217 176 102 144 197 60 71 162 202 55 123 103 74 12 243 120 126 244 187 14 46 153 126 8 164 230 40 82 164 225 31 71 218 63 249 93 227 
239 227 193 22 153 163 239 217 113 45 218 123 76 208 88 123 137 18 114 179 44 172 212 220 22 11 246 41 234 229 109 206 44 38 144 32 162 252 171 144 114 234 1 141 50 210 202 137 207 38 147 14 166 25 183 212 179 38 249 151 44 118 237 103 187 91 170 238 106 183 79 71 53 28 91 1 133 70 159 85 17 24 148 0 179 247 75 2 11 98 144 48 36 163 36 92 192 217 75 59 
231 221 228 67 166 36 81 187 93 68 78 78 36 38 144 19 80 139 202 46 204 247 143 226 174 19 156 246 196 132 169 115 119 20 238 113 147 77 238 227 191 83 241 194 250 9 215 75 217 85 112 31 102 172 69 109 129 220 234 3 226 49 160 161 179 68 110 43 129 219 248 254 50 27 198 1 255 181 42 250 73 181 229 166 113 118 155 9 219 238 165 129 188 11 24 252 0 83 155 91 
80 186 22 157 31 99 155 35 200 138 63 214 42 36 90 41 0 148 37 162 138 110 137 206 248 247 180 233 194 204 13 1 119 21 211 115 223 247 253 92 103 143 142 115 25 41 170 144 221 195 135 121 223 91 109 2 166 73 82 54 114 105 118 150 71 161 97 167 162 149 191 110 51 14 28 203 49 194 55 12 109 207 252 133 75 218 161 13 136 50 39 120 246 190 70 248 85 170 160 185 
222 65 165 17 156 158 5 90 190 120 30 196 181 223 59 199 175 202 18 246 222 244 96 154 213 211 226 158 192 180 230 228 96 188 208 26 5 42 32 169 50 85 135 160 251 131 137 244 238 54 163 48 153 235 209 86 112 66 212 44 30 57 156 189 106 250 20 110 162 205 164 23 86 213 206 121 92 57 20 61 221 203 90 238 211 94 104 129 67 83 72 118 140 166 192 150 84 131 5 5 
111 11 171 174 144 168 188 193 110 86 89 83 49 168 12 132 113 112 91 238 141 192 18 188 235 88 19 70 9 20 120 151 197 255 120 166 238 224 25 122 131 194 126 119 96 126 97 185 225 125 103 116 204 179 116 247 144 4 13 84 25 68 39 82 51 89 158 245 93 195 12 222 199 243 139 112 165 191 130 81 14 115 209 211 63 168 64 199 134 201 234 69 107 25 69 4 97 92 221 201 
89 125 58 57 70 76 167 117 10 155 57 142 83 208 44 3 216 29 255 192 6 254 18 12 29 91 89 44 245 16 157 36 140 192 236 148 236 181 30 153 142 0 152 76 93 214 154 41 125 60 210 117 188 158 33 136 170 179 255 235 46 245 147 77 180 211 31 238 23 226 107 5 208 52 84 125 206 152 40 102 22 59 92 22 3 192 166 196 41 19 220 37 68 239 46 199 86 222 58 188 
198 63 20 170 224 2 113 108 200 250 39 149 43 74 169 107 167 226 86 78 50 224 27 76 92 95 76 118 116 191 52 46 138 229 27 15 183 6 96 17 98 205 92 41 241 227 159 162 162 115 16 3 153 200 21 107 213 82 60 153 144 176 128 27 188 79 206 228 142 52 239 91 160 95 46 236 32 204 54 32 94 203 141 162 70 240 181 9 187 86 5 110 51 179 143 166 253 13 53 8 
225 107 11 72 133 134 179 149 214 17 137 236 13 217 16 233 167 58 4 57 137 185 134 198 197 177 98 38 142 191 166 197 63 236 224 79 60 111 239 226 42 210 224 39 10 76 246 148 91 248 239 198 217 120 27 255 46 21 13 30 234 44 23 150 59 98 195 230 90 140 68 37 137 236 236 243 76 251 190 46 140 201 194 162 224 78 230 146 166 87 127 13 241 71 33 227 66 165 88 246 
138 128 118 138 110 189 135 118 188 49 19 29 228 230 152 35 122 107 139 177 254 233 191 83 113 194 207 88 48 153 8 11 165 63 47 41 54 142 217 142 164 33 49 57 189 242 93 97 251 143 202 153 110 209 84 226 251 251 195 211 166 79 152 142 81 229 44 159 224 121 122 190 236 101 197 93 234 198 153 23 246 135 76 5 237 114 13 9 100 87 74 91 206 155 14 144 10 149 233 90 
77 160 9 129 34 229 159 59 91 173 148 74 215 136 135 238 78 241 100 232 30 56 2 34 131 103 65 219 141 209 131 59 70 137 93 238 7 93 158 30 161 36 209 56 120 246 110 49 73 139 220 75 79 186 77 146 53 30 197 33 150 185 33 6 104 248 24 127 194 240 52 118 246 169 87 79 24 51 104 197 11 214 226 250 87 88 200 148 56 253 148 49 156 96 176 193 18 65 209 42 
105 110 156 147 211 37 184 194 226 145 143 76 157 165 20 224 60 207 35 90 187 74 203 206 130 53 76 81 133 217 200 45 22 24 4 74 178 244 164 20 4 218 88 140 200 238 83 144 102 105 255 36 98 157 112 27 90 23 70 18 105 1 189 49 73 82 77 17 21 233 228 158 215 178 220 66 241 125 148 106 169 97 69 35 134 69 33 177 128 31 202 111 20 14 70 19 167 13 1 203 
73 9 156 47 222 27 74 99 35 218 2 100 92 16 205 227 125 179 55 219 163 10 137 182 47 85 251 125 30 231 100 88 195 200 163 214 132 155 173 247 132 207 30 71 165 175 89 247 26 22 189 247 206 105 103 191 132 228 134 173 124 178 26 199 89 98 233 138 191 238 102 1 120 155 94 153 199 223 166 98 143 112 84 146 33 39 21 201 13 48 79 152 72 38 5 212 206 3 106 5 
31 186 187 121 116 242 90 222 30 120 242 100 218 65 164 131 202 125 219 150 140 12 127 70 60 146 111 68 201 22 22 83 133 105 168 127 155 152 248 121 170 98 36 159 129 159 194 210 69 121 166 207 187 67 152 62 234 184 114 116 139 54 192 11 86 47 44 252 19 199 177 225 208 184 114 159 223 245 229 215 244 203 216 170 114 70 215 181 187 245 236 164 186 221 129 175 10 215 69 196 
148 231 101 93 102 89 40 11 85 136 93 120 174 167 163 219 222 158 247 224 249 237 143 95 12 255 162 197 64 174 30 92 245 204 83 159 194 152 70 108 41 152 113 41 4 68 102 41 233 61 245 246 75 10 30 63 47 68 186 207 105 46 38 30 113 5 144 112 112 203 117 126 64 192 33 246 229 123 234 50 85 250 107 231 121 75 244 139 207 183 29 137 211 158 9 121 44 92 89 168 
189 213 152 247 59 48 57 94 77 177 122 90 201 250 94 63 110 222 28 56 76 86 245 176 58 144 192 110 252 105 114 186 105 66 100 120 162 13 215 132 205 196 25 201 225 237 28 25 197 120 52 250 135 95 97 174 219 160 164 226 161 171 98 20 57 201 0 190 166 147 80 150 174 171 248 118 226 9 100 2 187 193 115 214 151 162 190 62 59 38 65 150 237 253 211 163 186 210 17 146 
167 25 55 160 141 25 91 199 68 221 1 224 179 238 156 201 19 219 26 217 23 185 140 244 102 59 160 188 43 27 54 254 150 45 74 176 176 230 235 226 39 68 34 20 8 122 139 191 237 60 73 103 123 51 192 186 5 16 243 24 155 38 91 240 200 252 241 56 143 63 160 253 127 48 230 95 206 184 208 228 67 171 190 57 36 143 131 182 35 130 57 136 200 0 179 60 171 54 43 119 
