P2
100 100
255
198 226 178 26 212 210 97 176 68 3 184 172 72 88 98 125 63 251 62 24 2 67 52 51 19 57 193 243 0 244 102 212 59 124 150 133 152 172 95 204 229 11 72 179 14 122 143 102 176 155 25 35 103 0 204 101 209 88 26 234 192 103 41 47 197 64 33 105 12 146 164 227 62 221 179 109 213 59 60 75 195 145 189 63 192 104 43 161 255 250 112 0 125 9 29 0 229 170 115 79 
26 157 250 80 185 209 152 89 176 28 213 126 185 103 212 85 249 129 103 134 179 133 250 110 6 37 82 217 103 45 86 211 7 158 199 223 203 224 122 125 197 173 134 151 242 160 5 161 76 107 133 92 156 141 203 41 39 197 77 50 70 175 213 104 64 96 179 124 248 115 144 30 7 50 87 246 55 63 211 32 177 92 44 212 207 140 3 206 4 97 247 33 229 28 152 204 115 187 142 153 
81 11 179 140 25 202 102 167 147 210 227 237 80 73 16 84 209 76 33 156 167 129 127 176 148 77 124 143 76 124 5 241 179 175 194 75 157 240 214 158 16 54 217 82 139 53 36 209 240 163 197 206 193 132 174 142 246 228 117 37 51 100 122 229 68 111 165 115 207 224 49 101 28 121 1 41 163 36 30 208 74 171 50 184 2 64 197 179 61 12 190 247 209 22 225 148 43 153 34 206 
22 245 58 38 133 191 44 209 160 227 125 13 146 27 209 16 163 178 105 35 140 143 47 13 89 144 113 139 58 21 192 130 83 20 230 138 26 87 175 249 46 214 40 152 165 3 169 207 165 216 160 164 250 170 198 127 254 131 158 33 50 222 162 156 58 206 174 21 252 252 219 155 47 76 194 221 149 164 183 61 233 213 32 87 249 47 56 11 51 219 85 148 30 240 184 15 53 17 28 96 
152 74 206 165 41 139 63 21 202 183 191 102 87 249 222 26 128 64 211 86 178 126 250 161 174 126 254 245 44 80 125 243 131 213 40 148 208 153 228 93 127 254 137 5 211 140 39 186 70 122 107 147 27 37 92 10 79 147 89 139 5 192 37 206 161 97 8 41 147 198 239 164 57 63 197 138 188 208 182 135 160 62 181 171 160 120 214 80 28 72 8 54 78 57 77 224 94 70 50 151 
8 58 81 141 168 18 114 93 44 18 9 56 113 13 122 70 196 171 175 45 209 181 122 130 244 84 213 104 190 241 14 97 79 192 89 89 123 52 29 40 220 210 173 101 13 183 44 85 145 193 69 156 78 250 73 100 27 126 64 128 130 135 39 156 61 103 10 163 168 103 102 69 88 221 216 143 193 252 220 20 138 232 57 118 125 17 102 220 73 117 10 90 161 9 239 154 156 79 139 239 
60 127 212 236 235 180 131 16 177 244 55 228 18 81 5 24 40 95 174 47 112 128 0 43 241 171 100 93 150 93 122 31 43 234 129 28 50 163 94 243 155 108 239 6 243 165 233 162 187 92 150 108 137 254 170 35 217 13 217 50 153 20 96 163 165 140 242 27 91 180 197 254 177 60 25 241 136 250 144 145 187 14 206 10 0 21 11 161 113 81 92 144 169 71 251 144 96 6 208 192 
189 21 167 155 137 51 198 78 3 103 151 143 20 236 72 228 38 111 183 145 41 45 224 177 67 70 2 202 39 189 146 73 247 107 162 211 104 200 149 37 184 91 35 57 100 56 62 73 39 32 40 147 135 203 130 197 36 249 49 75 245 244 27 207 212 52 171 22 130 148 124 68 5 150 168 113 217 111 166 103 110 155 57 190 143 242 51 72 55 66 66 0 246 89 44 29 248 1 72 241 
73 128 198 114 54 16 154 181 179 34 250 43 26 101 25 101 220 21 62 182 225 147 146 176 183 235 126 28 190 242 222 122 170 10 19 194 21 238 166 36 141 97 181 149 43 143 127 205 54 77 150 238 125 139 242 93 67 2 127 94 83 177 173 47 122 181 169 43 213 222 75 76 229 22 246 24 78 249 37 172 250 109 113 196 122 143 97 172 117 133 12 36 214 203 16 155 249 95 132 186 
128 35 12 95 40 60 51 211 197 72 239 182 16 162 70 18 166 77 241 224 159 84 194 24 195 81 158 24 223 177 28 228 63 41 183 16 80 255 193 42 243 215 239 10 33 170 167 248 43 169 247 6 141 152 224 114 22 184 132 243 66 9 72 201 4 63 147 1 132 179 31 130 46 87 173 237 154 4 180 26 29 204 61 147 67 169 253 233 78 48 16 126 180 49 73 116 131 171 208 99 
175 71 29 117 224 137 247 47 187 165 183 69 31 30 233 211 76 255 14 70 240 7 176 227 39 117 20 84 110 90 107 196 159 168 198 158 20 129 72 205 65 78 108 248 229 84 198 205 0 176 250 80 17 90 169 220 191 186 100 250 49 108 210 88 80 7 107 64 20 207 93 63 239 63 31 108 124 244 12 106 76 18 141 116 104 76 217 226 32 198 255 82 176 193 21 132 100 224 72 184 
99 244 252 231 171 136 61 21 118 203 205 152 239 175 208 250 227 28 243 42 112 113 16 130 116 229 161 201 103 90 86 168 131 104 227 202 64 217 104 80 67 96 232 74 93 145 101 9 192 92 96 71 51 246 121 134 79 226 80 73 79 209 53 129 218 236 180 34 33 207 6 235 218 104 40 244 28 86 250 193 1 30 186 135 93 33 172 2 201 82 52 194 22 29 6 35 181 227 124 239 
151 48 201 59 55 28 101 184 22 99 27 156 175 128 179 74 152 168 164 119 119 36 140 250 144 194 28 35 25 213 208 181 138 31 100 45 230 244 124 89 63 75 18 173 187 243 11 81 146 241 253 224 26 141 50 95 132 43 62 230 135 239 136 94 3 67 94 79 2 39 85 135 200 63 60 128 89 130 180 145 83 54 242 7 141 62 249 201 130 172 10 72 97 224 41 44 144 109 172 199 
72 29 21 168 149 62 120 46 23 45 27 13 254 9 129 169 76 233 230 119 179 86 255 40 204 94 249 94 5 5 165 148 101 160 171 224 62 234 245 128 11 249 17 191 226 128 229 67 119 95 37 133 123 124 104 124 175 131 9 208 47 93 93 218 43 237 228 103 143 182 97 35 228 142 61 225 66 218 4 122 174 109 5 195 243 237 192 13 213 146 36 113 93 154 232 19 255 27 4 240 
231 236 22 165 80 130 160 155 115 221 90 136 211 183 88 114 224 40 3 56 64 176 191 201 199 179 246 253 138 9 171 174 242 148 84 13 90 220 7 228 98 73 58 245 172 94 178 90 109 166 151 12 177 4 245 59 176 249 38 229 130 159 236 253 162 214 96 103 191 44 34 138 160 126 128 191 129 131 223 234 23 160 27 55 44 123 187 248 50 150 217 212 252 195 75 239 103 124 144 126 
207 110 92 141 37 134 222 5 24 71 117 199 30 182 12 190 61 139 161 68 220 64 253 176 229 167 101 230 74 66 48 157 249 110 176 124 206 107 3 133 235 210 135 248 251 115 226 132 228 22 245 125 195 140 246 167 251 82 214 14 157 162 50 131 89 37 173 20 219 128 93 23 167 204 191 88 155 22 30 151 51 52 42 92 187 78 215 74 165 82 61 221 156 196 187 218 25 230 69 93 
13 108 25 240 59 114 244 49 49 32 81 130 70 109 135 224 61 249 215 114 100 184 1 210 67 183 73 75 39 3 0 127 7 123 184 35 68 204 180 176 191 166 108 103 205 112 244 216 202 164 116 110 233 179 134 63 156 118 9 4 217 34 155 222 113 107 26 63 78 80 107 211 1 93 164 167 217 240 142 102 251 31 8 62 78 108 25 14 107 117 89 93 98 188 168 38 188 183 209 151 
175 205 15 141 10 190 137 221 17 113 115 30 14 242 92 159 60 43 101 114 64 227 8 176 29 16 99 214 68 254 163 48 1 128 31 220 153 172 112 154 21 10 143 123 28 80 54 185 7 144 58 65 40 177 222 53 216 218 30 176 109 124 209 236 54 173 245 201 185 213 40 195 55 251 193 211 216 156 106 210 166 47 16 130 60 223 89 75 145 130 111 242 86 199 30 65 178 28 244 222 
1 33 22 123 56 98 191 74 210 197 81 233 54 107 214 35 152 176 193 145 230 43 197 117 140 45 239 26 92 129 167 9 242 202 89 151 21 170 85 106 80 125 19 136 141 87 228 52 253 26 2 134 135 26 187 149 157 32 194 253 154 93 110 132 141 40 93 92 141 236 160 244 132 53 94 34 235 109 197 90 115 205 204 89 103 118 79 92 6 178 156 88 133 178 4 58 118 77 206 96 
116 184 180 107 130 216 167 158 251 6 25 226 64 143 58 54 65 147 151 120 109 154 79 157 74 204 198 211 199 147 251 127 168 163 84 203 128 205 22 236 179 216 180 88 86 131 170 114 90 20 171 250 16 239 29 203 216 201 59 186 140 217 74 129 93 225 21 155 189 158 201 223 123 243 207 235 29 117 36 197 0 185 152 168 212 37 88 96 37 91 76 40 3 93 118 221 79 164 148 205 
50 88 18 69 220 212 231 242 185 175 222 6 22 19 134 140 195 128 248 37 214 96 77 117 114 49 18 223 109 165 164 109 7 73 37 20 40 152 52 237 23 186 62 156 115 222 20 34 251 155 118 122 115 96 42 67 123 172 42 159 132 208 34 241 6 65 8 219 248 219 3 22 47 175 169 199 95 48 159 126 79 2 225 28 98 205 148 135 50 138 145 55 208 186 221 41 185 140 238 234 
36 176 7 122 171 235 239 160 189 125 3 199 217 163 4 218 45 25 148 147 140 107 17 92 220 74 140 78 94 23 104 76 55 245 111 62 231 233 171 130 167 129 105 24 37 78 210 159 245 120 151 202 129 227 98 198 130 32 223 210 25 122 78 195 232 129 31 60 40 202 179 202 18 12 19 112 176 227 223 67 41 187 45 10 44 80 81 82 42 129 20 162 3 162 241 116 240 204 188 244 
214 81 38 245 251 121 20 184 100 118 136 171 208 73 157 151 86 62 66 4 154 217 87 113 209 115 235 179 230 193 233 190 202 150 235 149 218 111 147 103 107 57 42 246 172 31 94 197 46 29 30 173 151 132 205 129 51 28 128 4 42 148 41 9 134 44 80 131 27 196 190 137 179 2 14 174 142 23 36 98 157 129 87 74 26 210 193 181 244 178 82 31 13 69 33 254 181 141 238 232 
244 148 125 87 144 27 92 11 213 138 103 255 68 82 117 214 131 251 50 58 70 126 136 98 212 166 240 142 87 135 65 122 182 241 19 70 231 140 157 101 47 195 42 141 21 163 227 11 242 66 118 157 102 85 135 146 80 47 233 194 31 137 213 3 139 148 108 71 191 10 237 42 159 245 131 69 86 31 108 173 67 76 28 230 83 205 67 237 148 115 55 31 17 73 123 20 43 41 170 232 
0 241 67 212 224 169 113 8 48 60 107 57 10 15 211 253 15 217 0 179 3 235 234 144 180 12 122 78 74 202 54 67 46 80 174 255 169 210 249 179 75 200 218 227 31 21 113 150 97 91 118 178 238 60 177 82 148 93 7 73 218 221 238 181 109 47 104 123 52 146 248 87 154 242 135 34 46 71 171 35 225 31 227 70 108 242 165 101 60 69 44 183 234 80 246 89 52 237 23 241 
191 193 223 34 72 103 158 64 9 123 72 50 154 145 252 106 159 222 97 111 76 39 185 208 3 70 29 236 52 89 5 213 122 94 137 114 57 160 25 97 179 77 204 162 115 53 141 244 209 131 199 109 181 245 43 107 59 71 104 226 145 239 206 209 109 171 94 135 11 84 28 41 3 108 116 244 73 65 146 147 147 8 58 189 78 203 197 73 23 219 77 76 125 194 104 53 238 67 58 3 
188 143 89 226 89 252 148 152 182 177 131 225 118 235 6 155 67 172 128 209 173 80 171 74 182 36 218 194 41 76 166 15 91 143 200 219 32 103 34 112 135 84 83 221 137 104 120 209 165 41 44 72 166 191 22 238 112 141 118 213 171 225 71 37 42 247 226 185 151 136 98 19 5 222 117 169 160 167 234 49 139 93 14 107 42 199 247 115 201 81 2 170 154 105 132 67 46 213 226 202 
47 252 72 128 175 227 171 250 18 243 155 57 183 109 27 161 143 67 51 195 227 131 10 239 174 110 30 52 36 231 78 152 216 77 21 245 169 215 209 88 91 169 4 245 76 139 168 37 93 67 99 100 99 8 96 210 136 39 120 83 245 214 81 197 115 150 74 127 241 183 248 40 221 36 232 110 96 237 100 232 97 174 186 252 61 197 231 149 76 63 70 33 185 51 221 152 215 186 248 78 
11 58 31 214 252 49 16 150 168 216 71 63 134 249 58 35 41 57 199 118 62 255 46 65 31 66 86 200 46 182 82 187 27 134 185 242 17 29 195 235 128 22 105 6 160 247 66 14 10 28 156 86 26 245 231 97 99 208 82 20 7 175 254 250 192 169 243 169 107 19 63 227 25 2 76 61 87 232 10 142 232 184 108 246 53 144 63 166 250 201 198 54 28 202 114 233 255 244 90 139 
151 210 246 109 32 148 33 57 250 254 24 152 32 161 130 166 118 216 238 19 217 181 185 211 108 250 115 193 251 127 128 82 183 209 116 158 201 75 179 76 42 184 108 190 139 251 152 199 226 138 43 28 249 221 163 135 190 182 94 210 239 147 174 41 217 55 198 32 80 147 15 22 136 245 122 161 11 108 180 185 117 11 141 170 149 152 40 148 27 125 31 20 135 225 11 181 210 196 210 180 
188 59 187 109 160 4 40 86 234 153 180 195 179 109 28 60 29 36 219 37 2 33 28 222 210 167 121 136 52 14 53 114 37 13 253 36 182 171 122 194 164 104 100 66 180 63 251 116 242 246 91 231 209 145 154 132 95 249 214 123 187 202 36 206 236 141 138 254 134 6 90 76 1 130 52 237 33 136 29 144 7 107 106 4 179 237 201 215 164 162 159 92 110 41 23 103 32 13 61 225 
71 156 81 75 165 164 228 3 72 72 237 9 42 134 244 138 232 110 188 49 254 25 170 253 75 152 215 74 10 99 80 195 252 103 53 125 48 251 174 81 60 225 17 226 48 184 206 245 214 199 91 187 108 63 101 250 193 200 211 93 117 19 47 56 59 3 224 33 70 50 126 189 127 78 132 57 61 25 157 204 232 60 158 198 3 4 142 83 227 28 98 164 120 141 187 247 22 137 255 113 
92 67 130 22 70 106 1 109 3 155 144 173 204 51 52 230 237 11 169 63 234 115 194 17 56 55 187 121 98 89 137 15 79 182 8 244 0 44 34 101 46 125 88 232 14 60 67 89 64 89 239 142 217 128 82 71 250 165 211 107 42 47 241 29 87 42 85 189 87 235 168 22 51 19 247 186 14 21 255 17 49 117 99 213 131 217 13 70 15 185 116 19 32 141 131 136 84 251 100 102 
14 32 2 183 121 12 108 112 142 129 161 87 202 191 245 215 104 164 86 70 120 149 80 78 89 31 161 196 156 213 136 49 145 26 111 194 253 72 112 67 189 5 137 183 175 56 215 233 90 137 180 204 172 48 60 242 253 20 83 49 24 240 236 21 159 108 209 172 109 5 155 64 211 99 130 135 26 33 115 129 240 18 88 49 179 113 134 76 75 34 1 206 48 221 182 118 25 200 135 213 
203 123 0 83 26 60 132 84 246 29 40 201 55 41 72 254 240 250 118 211 154 247 157 192 156 140 240 176 201 176 34 149 112 228 217 207 58 178 191 147 170 73 153 156 223 83 142 91 232 232 177 58 223 212 50 143 97 99 225 94 228 249 88 89 7 148 52 57 225 131 125 37 35 0 67 110 6 12 207 43 92 234 238 125 70 74 226 245 167 21 186 242 163 196 105 117 147 222 208 81 
183 231 66 89 141 211 28 102 150 0 66 216 85 97 243 131 250 9 184 231 35 88 20 1 23 223 12 132 248 245 157 139 75 222 213 117 63 125 52 104 65 205 139 136 31 28 171 213 191 96 163 108 128 249 50 84 128 17 24 162 136 106 121 17 2 160 200 159 49 53 94 110 177 92 196 226 164 67 97 221 247 201 26 137 222 213 29 34 224 161 210 47 111 212 221 192 30 85 131 233 
11 181 72 194 207 138 19 56 184 157 3 19 131 248 117 10 255 199 183 70 89 173 49 204 97 36 120 149 226 84 142 57 230 19 234 76 167 191 72 161 148 117 191 114 98 211 138 123 38 158 207 193 44 183 255 10 110 47 134 127 219 248 83 128 202 214 154 7 124 24 37 169 129 92 160 99 119 231 249 219 58 102 55 8 244 170 219 54 38 229 88 0 72 173 32 141 96 212 10 197 
28 240 30 81 241 124 181 102 102 160 204 43 143 153 119 82 204 219 160 199 66 63 123 40 113 139 208 61 153 202 111 3 33 53 247 166 142 41 132 56 245 148 40 149 218 250 110 52 43 144 42 105 119 183 132 172 16 234 84 25 73 197 47 23 190 183 131 43 126 248 189 82 99 58 27 176 164 231 142 199 165 133 68 22 55 145 128 223 242 29 164 27 222 252 170 1 185 208 200 226 
52 235 21 44 11 116 141 61 27 46 151 96 216 139 225 229 60 231 33 98 187 100 159 16 34 230 130 183 127 145 202 109 155 104 181 100 179 215 242 0 113 182 52 37 199 250 152 250 79 108 93 187 185 71 199 204 233 247 197 81 42 147 101 208 68 50 32 63 207 36 83 191 125 156 131 60 149 226 199 252 220 15 159 238 107 147 25 166 178 248 76 120 126 67 144 163 80 31 131 128 
197 251 9 202 188 159 249 59 238 22 32 216 179 41 63 1 129 159 97 82 244 176 242 160 39 214 85 168 152 235 101 103 240 41 232 219 152 250 12 18 146 18 124 151 124 182 1 41 133 126 152 80 128 96 96 108 142 207 238 23 117 107 67 181 221 175 119 115 124 30 201 188 142 108 218 127 26 211 134 113 105 65 189 226 105 110 70 38 229 220 206 243 111 200 138 17 203 105 233 206 
232 133 212 77 172 98 218 149 142 77 126 182 240 25 171 120 249 127 217 235 11 155 239 109 233 22 227 44 135 0 118 150 90 152 187 171 25 36 255 188 248 18 209 213 185 59 132 79 34 191 62 187 128 251 177 62 77 139 114 218 58 206 162 81 84 73 147 239 220 97 238 100 40 72 13 238 123 9 159 181 152 252 87 85 194 2 8 93 213 15 34 97 167 55 44 162 38 227 242 137 
191 69 53 72 43 11 136 250 53 94 25 69 180 113 146 109 1 157 219 33 87 119 250 47 81 238 109 46 223 66 145 181 4 44 119 24 25 94 187 7 236 128 152 83 64 217 96 168 133 170 49 60 137 246 39 131 87 164 25 83 199 166 240 206 27 245 188 43 102 237 132 62 180 134 68 58 247 54 189 212 87 157 117 71 112 237 30 188 163 198 97 178 177 112 17 225 197 145 253 134 
128 46 223 66 126 191 206 217 147 196 139 147 115 57 94 111 189 1 135 219 185 85 136 36 163 67 198 125 88 198 150 252 15 124 141 158 84 55 105 223 45 6 46 87 133 11 202 113 200 132 242 202 114 105 65 43 52 170 226 61 179 252 106 143 225 137 44 235 202 18 28 53 66 69 90 187 0 218 2 58 79 163 6 17 86 16 235 98 41 255 173 20 0 252 75 72 246 6 44 113 
152 10 50 0 110 114 137 128 235 174 87 69 155 72 50 56 79 147 58 166 187 74 201 245 247 81 230 173 134 184 70 27 221 74 215 254 206 231 178 183 151 39 14 160 216 248 93 202 243 155 69 101 215 144 0 15 248 28 104 109 222 94 69 202 187 95 191 131 101 48 26 225 41 106 9 248 49 166 37 51 105 129 219 13 27 177 29 138 228 94 147 247 245 78 110 247 243 144 46 210 
223 235 86 188 227 120 247 65 218 179 108 47 146 126 255 61 183 192 163 54 85 55 112 153 38 66 89 161 105 155 41 69 203 197 36 95 203 194 140 120 199 140 75 220 118 27 164 206 125 58 218 153 236 143 65 136 40 251 220 114 52 183 48 29 183 247 67 194 26 0 91 170 6 183 43 128 72 229 22 17 171 28 5 203 245 195 37 219 46 221 5 237 145 169 206 94 56 126 141 79 
237 166 27 183 52 147 35 151 31 110 149 179 177 35 15 215 134 74 21 152 140 202 46 211 250 15 233 16 93 200 24 139 32 117 169 217 56 99 197 1 58 221 184 101 130 62 174 107 253 89 15 86 184 15 128 22 10 159 50 17 188 212 46 252 250 70 27 147 244 127 182 41 64 149 219 114 141 151 93 181 224 77 73 80 242 213 126 103 119 33 250 134 81 35 118 190 227 14 197 168 
108 69 104 180 17 219 133 182 63 38 23 238 70 193 224 208 159 165 232 221 254 82 141 145 151 82 135 223 224 101 111 156 72 187 147 212 110 140 164 145 241 1 51 200 226 56 64 167 224 35 53 125 78 233 220 238 238 43 253 112 228 228 242 109 217 86 148 239 241 14 70 39 82 56 166 119 184 146 79 211 13 17 204 168 243 75 105 65 224 195 152 225 125 18 211 117 132 158 143 247 
22 140 4 132 103 115 155 245 53 89 131 80 166 146 66 117 140 8 244 69 228 56 170 110 7 206 53 176 135 25 195 197 216 29 152 208 228 125 138 51 154 113 45 99 108 147 101 224 18 107 171 70 232 50 140 210 87 125 75 121 64 34 234 239 84 150 204 134 211 31 13 156 38 176 220 141 12 71 24 118 180 116 148 181 13 35 204 24 232 247 138 96 87 229 6 108 128 177 10 110 
248 98 254 153 95 154 30 210 151 48 201 38 179 169 81 226 8 51 27 196 131 105 91 127 88 13 190 216 60 22 106 154 66 255 33 170 145 78 107 183 120 113 222 124 143 116 115 186 117 192 25 132 160 228 233 162 178 166 51 136 157 80 255 250 174 69 227 1 67 137 241 81 24 188 125 209 29 253 60 131 60 88 205 91 152 55 23 108 45 183 69 140 147 168 254 80 201 5 248 23 
129 174 168 110 102 4 190 241 231 78 201 199 187 109 108 23 157 178 61 121 42 70 170 146 255 94 144 18 169 89 24 253 86 85 43 144 240 26 189 56 120 27 121 173 11 99 202 249 110 242 202 236 205 13 172 92 191 93 125 162 74 192 8 179 105 99 117 159 251 244 174 110 132 221 33 143 61 154 40 172 199 178 61 96 193 199 218 88 214 110 52 13 196 151 163 73 83 76 133 120 
127 138 59 60 130 202 213 19 144 7 47 148 197 62 103 92 77 179 199 252 10 82 76 101 163 200 57 180 138 159 179 95 61 226 106 47 51 88 168 172 52 99 22 35 48 199 113 79 182 222 208 218 138 106 98 220 152 144 177 45 111 132 32 248 165 52 247 51 135 67 173 157 150 180 27 70 52 86 25 68 23 48 50 62 104 139 242 31 0 68 188 48 163 15 47 80 92 58 244 239 
90 81 185 204 241 132 167 57 225 148 136 82 32 102 177 108 16 238 71 254 140 252 250 249 63 155 149 194 214 111 222 141 250 41 79 166 77 139 209 207 175 46 109 164 65 205 153 162 1 165 62 107 182 153 255 214 209 100 96 86 137 170 177 51 145 29 106 162 180 53 142 237 218 68 62 117 246 210 32 97 253 197 63 25 132 246 119 98 66 185 180 236 230 209 6 50 24 196 40 147 
45 158 4 34 31 160 130 117 30 241 91 184 133 84 155 193 246 41 144 111 85 219 123 214 68 234 70 248 162 73 73 228 55 47 166 124 39 74 87 36 158 75 108 27 9 121 217 238 215 59 190 197 137 26 158 142 53 244 57 246 31 141 99 237 60 209 27 78 173 172 80 57 25 80 43 183 102 193 84 46 227 114 139 179 58 57 117 145 168 63 70 38 0 106 25 242 254 93 130 36 
30 81 249 187 212 184 56 252 54 118 67 154 54 42 159 202 41 207 161 26 182 42 99 32 201 112 254 250 19 204 153 159 69 174 152 74 184 36 134 185 166 239 64 43 139 116 122 209 228 195 231 188 40 99 148 19 74 117 56 162 204 93 225 31 239 154 154 135 216 102 240 103 136 190 217 204 15 173 173 65 94 77 66 230 198 235 211 83 73 175 48 20 54 146 159 193 180 88 208 225 
86 209 222 207 28 194 140 41 22 115 51 65 1 162 32 80 67 227 202 58 108 132 26 153 186 39 172 255 81 61 96 148 132 61 248 73 127 92 132 4 188 196 191 248 252 46 151 203 64 169 104 41 76 245 86 103 241 55 161 186 111 106 99 229 82 109 228 104 39 240 135 102 46 12 198 135 100 10 60 149 2 58 185 91 155 44 242 165 127 153 16 39 82 122 108 230 169 115 204 66 
154 153 143 239 233 12 207 43 22 29 232 117 43 173 172 6 56 181 131 49 245 20 70 238 130 155 216 27 237 22 160 125 228 165 177 161 97 23 42 144 235 15 253 63 48 199 149 13 181 34 193 162 234 163 180 43 78 123 29 182 188 124 219 226 113 77 167 138 102 76 149 250 129 143 33 88 177 247 251 54 61 3 91 70 95 159 190 88 186 157 37 89 236 63 235 7 101 59 219 222 
74 125 154 31 173 209 169 8 84 249 77 201 127 10 244 142 180 186 92 73 237 255 35 191 95 185 215 99 214 164 219 116 209 185 193 33 119 127 69 29 227 132 208 237 195 100 230 164 228 67 127 31 80 133 149 54 153 70 72 94 168 223 101 104 140 99 229 196 46 218 91 65 67 84 10 245 165 15 85 255 202 93 151 20 139 229 20 83 150 164 50 147 85 235 248 7 9 22 245 69 
101 161 74 9 198 217 173 134 24 205 94 149 85 168 13 47 92 22 178 205 44 20 231 138 104 117 25 135 27 228 103 61 101 186 42 203 85 148 223 34 141 247 57 139 136 133 64 14 130 88 142 62 89 224 153 146 101 32 173 12 183 169 23 86 117 16 242 148 102 126 156 124 31 8 155 139 115 150 11 134 0 210 11 170 90 203 204 103 161 64 109 134 45 208 162 214 231 2 234 76 
244 98 119 185 184 157 79 106 190 155 103 134 243 189 198 39 121 54 104 69 65 237 31 95 6 207 92 14 217 163 50 131 195 195 179 207 66 104 65 236 34 105 35 92 212 145 184 210 73 144 11 109 38 91 186 232 78 16 153 225 242 175 158 200 76 231 30 149 29 60 138 217 203 103 61 249 79 220 96 172 121 226 154 209 50 15 183 132 68 101 236 21 1 100 16 164 255 202 172 109 
101 179 221 110 151 25 20 129 71 2 137 239 120 217 118 25 50 156 251 17 99 199 43 156 242 96 2 78 148 101 190 197 19 139 35 241 226 24 90 38 7 75 216 236 11 100 75 71 28 176 153 208 72 107 180 33 189 227 64 114 251 239 52 97 211 203 227 77 125 60 128 249 40 140 71 58 21 14 30 125 171 141 220 233 21 36 119 117 152 192 40 10 236 121 132 117 6 145 103 41 
15 69 24 65 25 112 180 112 164 223 240 69 135 250 148 63 83 217 153 231 209 107 178 70 205 181 73 183 214 203 59 12 179 252 156 226 218 204 201 114 194 153 223 130 8 252 80 200 208 3 58 79 134 27 131 188 86 18 76 63 192 12 154 45 126 9 123 194 76 19 242 110 188 106 244 199 44 255 2 206 133 27 73 165 187 16 243 184 249 151 186 64 188 137 211 27 146 88 134 232 
235 66 100 39 223 143 91 13 195 127 72 51 145 107 81 61 220 57 113 17 139 240 225 15 72 236 167 147 113 45 137 169 83 158 75 72 243 26 197 40 128 61 152 233 69 118 138 233 237 210 168 184 221 60 161 178 207 234 32 76 80 26 99 80 136 255 238 161 131 110 141 197 97 26 57 246 228 235 228 46 14 100 146 98 141 88 82 100 117 218 236 101 124 239 127 194 182 255 100 9 
247 123 99 216 134 54 151 205 147 240 140 145 140 31 180 254 27 227 8 53 101 201 104 179 55 101 111 107 91 139 73 70 87 215 220 42 243 248 177 70 160 252 203 122 110 247 49 137 248 130 203 21 67 240 35 68 135 36 98 251 142 228 42 182 117 13 58 45 119 126 187 113 69 244 87 238 4 139 253 240 234 57 124 173 155 192 75 115 188 174 49 226 69 12 160 210 49 55 42 90 
208 123 243 203 151 195 94 238 209 98 139 13 88 92 3 205 95 60 63 25 35 45 20 158 59 171 46 182 39 95 220 57 86 61 66 98 162 41 100 56 7 184 153 47 146 254 100 224 19 156 31 117 90 168 96 255 87 158 19 71 121 60 48 111 42 186 212 249 152 118 40 33 18 45 59 7 175 121 182 21 70 195 101 184 109 206 4 196 179 140 24 247 19 239 165 191 11 97 144 139 
241 227 42 192 253 98 160 66 60 67 110 33 52 213 125 72 153 171 62 143 194 209 115 78 78 237 9 143 75 152 69 84 177 17 146 80 223 148 20 215 67 234 108 33 45 57 113 124 4 227 119 147 71 99 6 128 140 158 139 199 236 30 56 86 20 51 3 254 63 107 203 68 251 4 6 173 68 67 224 233 196 244 57 65 168 230 77 58 136 168 252 112 20 76 239 23 115 81 91 255 
93 173 123 1 236 60 247 121 47 84 219 254 173 154 248 117 123 209 128 188 20 9 116 84 55 231 26 201 199 101 211 143 251 29 210 44 158 14 51 253 189 140 30 199 237 116 233 33 240 29 229 249 242 151 128 44 84 120 216 104 123 244 110 205 230 105 246 203 17 167 87 40 8 253 93 60 114 161 20 216 79 27 144 130 195 238 244 222 2 8 53 227 189 64 99 233 252 82 249 52 
80 173 84 144 237 244 53 186 170 80 45 252 43 118 55 22 8 25 23 225 122 29 121 195 89 86 42 51 130 31 98 249 15 219 113 100 76 68 59 213 83 194 178 183 121 221 101 227 103 201 167 222 18 115 57 11 67 95 111 154 45 131 93 238 173 157 249 83 25 243 238 163 135 226 18 119 58 146 227 217 88 196 75 190 76 226 166 222 130 46 10 144 170 83 38 86 4 123 15 49 
130 152 63 160 67 20 112 106 207 123 91 192 155 66 214 138 227 129 126 99 43 86 90 247 180 75 178 45 177 242 9 120 227 138 165 25 214 47 253 59 40 242 142 150 202 220 214 247 233 189 27 49 166 65 33 1 72 33 104 64 247 151 58 57 74 35 134 19 123 82 121 10 75 140 139 116 16 225 163 57 17 214 27 29 165 91 56 111 113 74 20 125 34 141 80 110 17 61 61 73 
234 39 63 198 95 116 63 248 177 231 167 166 228 136 56 216 68 254 207 71 21 71 106 21 227 246 8 117 245 210 139 136 252 200 177 4 164 199 78 233 67 168 156 58 58 180 25 85 115 106 243 42 170 107 168 193 221 30 128 18 218 80 155 234 155 220 40 226 36 165 191 231 124 250 179 146 5 170 101 100 215 87 0 19 226 130 132 182 241 169 205 156 200 202 175 164 152 103 15 69 
63 92 60 108 1 133 111 79 6 149 126 53 113 47 40 19 46 181 44 39 70 134 8 248 190 242 141 77 53 177 40 125 147 253 29 128 59 190 2 209 157 198 176 79 209 4 104 27 89 136 183 79 8 112 150 38 251 70 31 180 163 112 186 73 102 22 98 39 240 214 25 89 86 25 163 111 191 170 251 223 200 104 136 89 83 189 106 182 176 145 44 53 137 59 72 222 88 4 83 176 
47 17 60 177 116 117 109 183 71 69 191 214 193 116 188 83 123 60 18 49 207 143 210 207 5 192 231 32 72 46 11 110 233 60 147 43 121 6 58 37 247 44 73 106 213 88 2 167 29 171 193 119 153 160 30 132 139 180 190 26 40 110 55 126 228 17 56 76 151 240 175 173 246 55 194 55 74 33 254 206 2 179 226 11 214 196 177 192 138 5 17 89 99 68 232 224 108 148 139 221 
33 98 244 55 126 126 54 219 185 109 45 249 70 86 153 242 227 74 146 56 12 32 242 174 155 93 160 103 59 40 98 181 179 60 117 107 79 146 116 89 127 157 74 88 245 229 162 15 135 185 182 29 58 181 149 136 117 48 137 64 206 57 147 188 198 243 72 101 202 167 103 89 52 184 64 137 22 166 177 241 242 36 197 10 170 55 233 187 124 174 40 148 169 242 71 153 89 183 133 249 
149 55 118 201 107 180 8 40 126 88 81 39 92 15 139 130 206 248 111 240 96 246 237 185 58 229 222 156 240 36 149 47 222 205 182 77 35 113 196 214 105 71 134 0 210 183 192 76 29 28 104 92 198 219 19 166 100 239 35 50 43 19 204 182 33 254 49 46 30 50 175 133 196 57 151 194 61 113 67 227 197 175 179 72 207 207 164 56 8 56 165 117 126 224 214 77 103 122 196 158 
133 106 155 176 78 212 1 1 69 197 111 201 197 1 222 208 29 15 234 254 176 170 106 195 84 28 167 212 102 109 129 210 236 124 219 114 57 174 3 59 111 49 37 211 79 203 170 196 242 59 38 141 110 247 0 62 218 60 200 161 182 124 6 227 251 140 12 242 223 238 13 94 33 42 184 250 63 230 186 127 87 157 108 47 184 38 28 206 214 87 232 238 29 248 250 194 235 43 254 84 
78 219 108 223 3 205 34 1 139 70 12 166 250 91 243 188 106 134 58 250 30 247 2 33 155 216 129 32 161 191 13 108 45 126 53 144 212 236 235 18 147 90 51 120 143 165 192 42 143 174 105 8 28 9 181 24 211 76 211 185 101 227 253 190 230 151 156 170 19 52 127 236 65 11 62 24 234 219 53 237 106 125 118 157 66 151 92 0 170 105 159 98 61 175 64 195 185 63 193 201 
137 44 243 81 212 119 219 20 115 137 118 6 117 22 140 132 29 112 15 240 36 54 195 47 216 168 83 25 6 30 79 226 228 122 80 224 145 69 222 201 243 249 185 225 75 18 168 131 237 50 108 222 188 27 193 180 224 130 144 204 154 51 221 175 105 19 91 189 229 13 2 136 55 85 116 101 187 235 250 243 84 60 77 232 72 221 144 42 196 72 155 114 153 62 131 227 50 106 37 72 
135 109 86 105 240 98 198 37 147 167 25 45 253 98 177 153 32 14 140 183 96 168 62 210 40 233 244 215 159 1 238 199 120 124 66 180 96 179 220 2 100 231 154 26 111 163 239 141 78 119 164 74 250 9 85 176 3 11 169 218 191 1 93 156 98 235 210 37 241 106 211 192 177 129 222 141 98 91 12 240 90 146 120 122 221 230 198 229 169 61 222 207 128 216 121 45 224 244 50 39 
238 206 97 190 43 89 14 115 195 223 146 66 148 234 40 60 30 3 176 244 85 23 245 37 201 196 144 171 173 11 123 168 63 91 15 164 165 10 158 107 22 14 212 49 51 110 133 223 149 97 116 176 4 206 146 45 218 55 253 248 28 24 167 134 180 107 172 206 215 30 104 122 39 170 33 26 69 98 183 60 86 152 123 184 144 142 255 120 110 194 184 227 125 237 27 155 175 195 38 230 
68 242 153 77 219 112 161 118 143 92 25 180 189 237 33 103 178 234 166 63 56 172 143 40 186 72 240 115 33 223 116 191 33 3 162 254 203 189 159 6 199 241 206 63 9 37 172 252 179 0 38 173 200 95 75 169 195 180 154 9 142 246 18 74 210 68 53 115 116 241 10 9 83 180 175 98 234 170 245 206 43 157 29 113 166 94 163 65 181 194 26 73 181 148 41 195 140 177 86 246 
27 84 90 134 245 1 228 164 129 59 175 61 140 197 117 57 77 140 50 250 160 206 32 113 49 241 182 147 14 181 168 209 210 255 23 234 51 160 228 146 175 114 34 248 89 183 14 66 80 66 237 38 38 3 11 82 98 76 230 85 95 11 54 85 14 193 105 164 94 160 64 8 150 207 136 209 180 251 227 147 110 115 101 14 198 72 81 0 124 185 53 75 102 168 212 22 79 210 58 58 
158 223 75 213 11 90 149 43 10 12 100 98 127 202 44 73 64 249 85 225 40 46 129 50 108 75 53 226 71 70 124 181 172 103 90 185 8 139 138 147 126 31 5 82 227 45 130 13 220 220 25 2 203 239 5 139 215 59 167 76 72 147 81 51 46 156 4 76 82 17 83 126 49 42 198 90 242 187 155 122 70 174 52 185 81 137 59 247 202 165 194 161 57 92 244 162 68 102 112 176 
59 43 104 124 21 147 155 47 36 165 19 188 38 29 230 172 136 180 90 10 193 109 5 96 205 219 108 42 231 31 6 202 40 94 211 105 3 144 187 41 72 75 210 151 7 60 192 122 167 214 203 134 183 165 90 5 114 34 84 183 157 166 77 106 47 39 126 160 124 142 191 41 146 211 85 63 210 1 11 19 162 254 167 86 91 178 46 188 12 198 128 13 194 118 197 43 155 2 204 215 
78 245 73 177 0 38 111 73 243 41 177 146 185 204 5 27 209 230 15 14 127 246 59 171 229 170 245 210 15 88 132 225 42 8 240 167 226 179 235 0 55 130 249 30 214 136 1 20 21 210 60 91 239 159 251 173 33 24 85 75 180 10 210 83 255 49 243 229 70 159 158 236 189 5 117 52 23 101 194 58 73 104 80 95 84 158 111 206 212 235 204 50 38 142 35 122 213 168 248 191 
7 135 103 210 44 201 43 10 213 66 84 97 47 87 176 176 231 13 180 86 226 19 176 107 81 235 92 254 178 145 29 225 105 77 41 193 123 134 215 149 198 7 171 118 114 68 67 254 157 16 32 84 190 148 250 213 110 170 48 42 220 53 35 41 238 213 140 110 165 118 156 210 25 154 165 224 138 187 181 17 112 99 169 179 211 30 210 137 69 235 221 46 101 114 14 214 138 204 240 144 
3 183 40 107 224 249 164 3 169 49 27 215 109 226 26 158 81 91 142 117 108 175 221 154 230 34 78 220 61 76 213 224 130 73 199 146 167 81 62 18 179 212 91 224 161 177 17 203 94 41 140 153 92 175 145 3 249 95 220 100 204 166 232 191 141 174 225 155 153 179 91 142 188 31 33 179 69 175 74 171 88 220 102 46 105 15 142 138 224 216 92 254 92 79 189 214 173 237 191 142 
214 165 201 118 12 181 246 176 240 154 143 212 16 117 54 22 25 243 113 253 153 76 201 162 175 253 104 138 0 232 41 206 184 97 212 162 206 176 200 145 40 120 199 107 62 108 222 189 145 252 208 25 57 252 34 3 65 16 108 189 234 208 247 212 189 97 188 85 200 105 189 95 186 149 229 173 206 14 14 107 251 175 17 101 10 107 229 225 180 130 22 155 111 120 76 24 121 217 69 9 
129 58 243 33 199 235 17 44 11 64 89 136 220 114 161 183 165 164 170 196 105 144 49 207 140 166 224 72 89 78 166 69 235 140 159 11 189 148 182 193 122 47 93 191 24 31 67 186 126 10 230 156 3 104 255 175 77 18 137 227 249 199 192 159 40 35 233 34 63 199 187 66 47 5 59 158 203 161 6 36 221 173 109 59 67 215 14 97 138 44 42 133 39 153 246 144 150 248 12 127 
212 253 161 145 19 194 78 138 124 96 135 153 36 107 79 82 248 37 157 58 9 217 12 42 236 218 133 87 133 238 225 178 167 95 253 175 27 168 93 252 181 46 237 190 132 131 90 127 209 155 161 114 17 166 203 53 181 130 161 244 70 235 10 19 230 25 164 36 112 99 13 97 143 205 226 207 103 169 126 98 254 152 110 157 134 10 241 94 174 27 76 113 207 153 111 215 252 189 230 214 
119 120 131 200 112 113 94 80 19 95 167 82 39 237 116 179 228 204 234 56 111 78 21 76 48 41 3 116 66 46 20 253 136 136 141 150 16 114 239 199 98 194 28 38 247 198 120 155 78 145 230 172 220 49 74 124 98 129 74 141 38 188 134 252 25 114 231 107 4 90 64 16 17 166 214 56 188 27 9 227 165 225 134 46 167 223 21 94 97 84 127 27 115 176 191 32 9 79 108 208 
208 96 160 14 130 196 41 51 13 118 28 206 127 187 108 149 237 75 127 159 190 121 123 118 121 141 95 207 6 131 14 105 109 33 13 43 75 34 108 5 118 251 171 222 173 53 26 254 153 202 223 0 223 154 69 26 25 101 212 230 94 231 234 144 39 188 73 180 134 189 241 17 86 181 106 72 56 191 65 61 251 205 173 145 108 151 41 67 53 251 107 124 172 118 102 96 37 73 110 254 
34 166 70 177 124 184 197 50 228 207 111 235 98 205 3 195 21 50 198 40 87 237 161 24 41 204 136 227 204 245 35 24 114 56 26 100 179 81 230 252 158 139 86 237 214 116 56 199 206 54 98 87 146 232 161 155 58 85 66 4 159 190 72 162 71 183 34 230 5 61 158 127 11 154 81 93 224 158 4 52 71 136 57 148 192 113 90 40 153 228 67 186 196 35 219 129 121 213 97 255 
13 122 59 158 142 209 229 212 218 140 4 77 184 179 74 211 121 32 97 147 212 32 36 122 241 205 205 21 172 186 116 203 251 134 66 9 75 134 198 168 167 105 36 155 212 236 205 204 8 9 205 105 64 84 44 51 223 232 47 8 44 186 216 166 89 105 173 112 71 25 106 210 17 138 129 88 187 112 26 248 73 19 28 51 213 26 102 11 15 91 209 234 142 129 32 241 78 178 242 235 
24 63 16 135 89 246 54 44 201 238 98 23 75 48 171 36 24 178 85 169 31 71 105 18 25 24 190 156 117 12 58 63 203 95 14 59 125 91 196 225 232 96 128 113 88 80 201 25 200 131 248 104 54 202 172 239 213 101 73 183 76 204 219 66 99 154 9 64 208 25 127 240 218 102 101 26 231 207 254 239 71 141 222 17 61 172 64 9 180 100 175 221 177 2 217 41 61 193 125 241 
90 9 181 42 230 109 236 63 220 5 15 245 124 32 200 176 202 4 35 40 169 214 225 21 109 115 188 160 247 208 232 99 200 119 108 145 164 13 232 118 121 61 55 149 112 180 165 0 84 156 10 2 23 253 85 119 78 105 205 234 139 35 207 42 8 144 219 21 51 34 205 175 134 160 171 47 54 223 156 128 233 140 27 134 217 136 207 6 97 90 111 136 77 90 114 239 143 37 155 247 
251 87 139 127 205 244 242 145 95 189 38 213 126 168 214 249 92 95 56 231 33 8 67 17 127 153 176 212 56 222 162 146 176 226 144 141 45 64 16 76 13 220 157 79 47 1 64 28 98 66 52 64 255 97 156 250 243 47 103 105 176 180 53 72 176 219 49 14 180 124 58 33 249 64 189 148 17 88 56 28 191 25 173 227 252 46 185 76 232 90 153 172 22 122 97 143 114 232 247 156 
130 77 237 29 23 90 99 104 119 229 192 87 59 216 47 90 10 232 67 232 132 131 5 113 67 118 77 65 23 97 56 65 145 61 85 194 92 8 31 179 142 233 156 13 13 206 42 69 179 128 201 150 108 71 16 228 193 220 99 58 150 49 243 161 235 146 181 21 249 72 12 24 231 237 230 202 14 128 34 241 136 63 68 85 74 179 233 73 234 105 107 44 105 76 78 141 238 188 252 12 
200 162 81 190 174 8 56 17 17 137 113 225 174 139 61 205 14 87 198 29 104 130 50 209 94 38 216 48 151 123 82 159 175 219 11 195 42 81 26 255 110 78 24 157 5 122 152 173 38 111 43 145 166 80 144 145 191 108 154 76 127 4 197 230 115 10 243 242 157 218 185 101 193 137 74 74 69 181 73 189 224 130 12 170 254 232 27 113 255 210 6 67 13 243 212 157 253 5 177 98 
86 225 44 72 23 181 158 221 111 168 77 5 33 64 197 31 102 60 57 49 63 162 244 49 234 117 242 90 242 226 131 110 48 34 38 31 145 123 35 29 13 241 145 195 116 216 215 27 173 229 134 3 157 174 51 56 186 215 105 92 158 255 208 247 15 49 81 172 231 125 236 163 80 119 7 20 18 127 20 124 219 110 232 201 166 6 136 199 56 211 251 81 168 232 6 12 255 185 28 201 
103 92 243 63 153 123 121 147 207 172 18 207 171 98 2 250 147 122 138 226 176 41 184 91 25 115 94 192 244 99 61 215 168 200 0 215 195 251 136 128 48 218 177 148 6 168 150 166 149 35 12 12 84 50 158 120 247 184 131 113 250 177 154 167 71 239 240 38 212 209 222 227 74 17 49 65 162 134 233 101 201 96 174 183 115 247 83 61 80 148 93 198 217 4 72 50 192 164 138 247 
208 15 195 76 189 9 236 28 104 133 103 156 86 229 87 125 94 41 80 193 221 41 37 13 12 250 85 156 188 191 22 93 254 205 104 14 96 94 23 186 39 65 147 52 75 66 132 171 210 250 198 100 105 98 104 94 223 87 6 152 223 18 49 228 133 222 23 93 200 188 25 160 41 230 104 222 133 50 34 252 21 129 149 240 118 39 128 14 12 108 79 33 27 221 228 14 167 130 230 179 
