P2
100 100
255
185 10 172 176 42 223 64 171 41 193 199 198 134 66 253 233 126 30 25 155 158 25 32 168 238 198 88 200 10 129 153 159 179 152 102 0 7 135 149 36 193 31 12 83 40 104 18 242 186 85 211 180 25 68 238 1 178 74 192 227 187 95 119 192 235 4 184 222 127 202 177 113 166 114 126 130 27 148 108 37 208 103 57 18 237 136 137 148 155 46 133 95 170 114 99 149 124 44 75 104 
217 35 197 6 190 30 172 80 130 107 58 21 116 21 238 51 140 254 183 59 203 106 49 54 9 7 240 222 105 196 173 250 5 100 6 2 96 125 210 80 111 62 41 87 80 160 239 248 64 222 35 149 84 90 190 106 174 24 20 191 217 218 242 216 194 57 167 56 121 185 76 103 242 17 31 97 77 25 196 244 99 58 240 18 188 47 96 175 82 129 54 195 184 164 183 220 131 42 180 143 
84 148 199 188 147 83 236 147 210 125 35 8 96 197 184 221 72 73 121 209 73 75 16 181 224 9 78 74 25 163 159 199 170 215 255 253 73 84 20 137 231 158 47 152 249 155 11 211 251 36 184 112 24 205 230 223 150 115 176 174 75 120 222 162 8 141 152 24 176 64 156 76 245 80 143 13 134 102 74 25 84 116 221 75 188 83 247 74 68 121 68 192 93 81 23 49 79 236 207 26 
137 233 157 98 82 213 220 249 150 175 51 235 6 211 139 235 52 21 176 128 125 183 41 58 21 44 204 172 41 68 58 195 121 76 169 36 178 203 194 218 252 73 35 182 136 97 66 110 147 105 199 84 40 151 38 144 232 79 69 143 108 188 169 222 183 7 122 155 223 128 135 196 136 68 196 242 82 251 38 206 205 135 157 188 193 123 6 249 185 138 0 187 158 45 141 236 4 16 113 164 
106 163 149 241 124 202 140 92 12 153 155 140 66 163 244 25 255 206 234 56 29 128 120 119 174 106 69 22 109 131 189 105 232 54 137 56 147 165 76 175 47 178 120 73 231 143 127 160 234 206 114 207 88 95 163 98 232 14 100 67 238 51 191 61 39 235 180 243 120 79 58 134 107 84 46 89 9 146 43 68 142 232 3 42 52 40 68 224 4 34 31 183 252 128 103 165 60 35 20 238 
158 172 150 111 62 160 248 209 5 120 81 241 164 126 62 214 183 115 184 235 34 78 70 232 253 37 104 158 137 187 176 129 142 14 199 206 148 103 203 110 28 118 235 104 187 113 163 95 237 27 224 245 44 211 155 117 215 153 131 145 241 191 113 99 140 57 122 76 178 107 245 204 179 1 243 60 230 80 141 173 225 142 115 218 153 157 92 143 251 19 15 47 51 200 194 113 254 165 211 247 
161 242 251 8 116 75 197 57 67 183 136 165 216 69 1 159 43 173 244 146 213 179 64 69 7 219 169 63 125 206 144 135 76 231 84 229 174 166 167 163 249 143 254 192 72 187 178 184 159 255 108 100 87 246 66 49 87 219 167 199 111 193 218 22 78 135 78 116 62 54 207 69 113 206 97 89 252 77 144 138 30 30 168 154 72 60 66 81 57 61 209 83 147 93 30 181 232 94 48 228 
239 238 10 221 3 238 122 12 50 91 84 138 230 216 119 140 141 62 250 171 68 193 191 49 90 192 212 250 98 187 43 97 140 13 181 112 141 154 246 128 22 24 220 64 108 74 35 13 74 22 157 20 32 36 144 13 18 158 133 255 45 136 201 168 174 224 2 146 81 207 253 42 217 47 194 185 17 106 70 242 113 217 242 93 85 107 46 175 65 41 55 24 45 234 79 52 38 159 80 209 
212 173 146 16 106 177 32 171 174 74 179 83 74 110 63 32 206 92 116 141 10 150 194 94 36 22 211 45 97 127 74 237 248 99 175 199 177 239 235 171 212 76 108 180 97 173 151 125 53 152 197 113 135 200 140 131 253 169 119 72 91 102 38 227 31 3 254 88 254 120 44 49 238 191 42 157 34 184 233 142 207 35 61 179 107 229 118 204 186 59 158 221 44 12 223 210 48 1 223 216 
154 32 120 242 171 9 204 78 63 88 40 206 209 101 124 37 152 247 17 181 9 188 5 48 229 39 184 169 169 208 227 228 45 107 211 162 97 194 131 186 153 179 180 228 188 3 232 190 84 122 80 211 176 104 127 162 227 153 52 164 39 96 230 216 189 213 75 27 202 250 74 89 58 65 253 112 137 44 138 193 47 208 114 187 222 247 98 108 175 83 220 25 35 154 199 33 159 111 117 185 
41 222 37 57 190 233 29 168 62 63 100 13 84 207 183 147 20 101 244 57 145 219 221 13 171 146 233 236 69 205 56 93 206 75 23 114 109 79 247 222 96 249 58 176 194 51 240 236 102 156 134 170 218 19 84 240 84 17 93 160 199 243 238 43 136 47 231 226 194 216 56 218 149 246 35 238 89 101 119 253 86 56 42 34 66 19 237 217 164 156 144 254 240 27 139 131 187 128 79 6 
57 3 102 124 8 223 168 117 172 206 171 77 216 245 213 135 92 45 46 239 80 99 239 49 73 85 17 53 132 214 51 209 234 190 178 69 11 25 121 253 159 225 218 198 8 36 33 31 239 197 219 25 147 212 49 245 89 66 209 186 50 69 72 228 53 6 186 4 124 8 245 28 46 32 204 249 53 120 246 147 202 41 7 64 35 137 72 212 126 33 198 109 48 223 103 229 74 107 188 172 
5 24 2 181 25 108 39 228 255 238 120 95 67 157 94 51 209 88 183 92 247 127 50 94 102 178 5 82 29 88 104 91 74 82 86 54 142 158 217 207 232 81 36 141 99 13 211 14 111 161 232 16 173 43 225 199 87 184 236 44 122 222 178 55 215 147 153 151 205 38 194 170 121 204 207 231 28 56 153 118 161 164 140 68 79 75 98 120 115 159 21 12 122 27 186 248 215 237 110 136 
187 232 165 108 94 33 163 116 153 247 23 177 40 249 27 96 165 103 141 88 234 46 14 244 60 209 208 254 201 237 74 219 165 95 61 11 189 67 114 85 245 229 143 210 84 70 110 182 8 166 97 52 222 191 29 130 181 52 61 90 173 99 246 124 46 30 246 115 127 211 19 94 221 255 4 199 34 89 101 78 214 249 180 37 81 8 191 222 202 196 112 232 34 94 77 51 141 13 1 51 
232 231 228 237 191 128 234 170 113 116 76 189 233 93 29 99 237 249 175 131 90 251 168 202 97 151 71 248 21 35 50 54 250 193 209 2 135 194 154 207 108 126 22 158 241 192 83 41 229 162 19 12 66 57 173 165 73 245 188 217 247 77 73 178 124 79 17 181 106 34 7 18 45 237 190 153 31 131 133 35 64 131 171 179 128 19 28 62 248 98 91 159 122 168 185 187 182 53 222 100 
226 147 27 15 106 237 107 137 171 131 23 56 32 189 226 96 59 126 197 207 182 95 227 204 250 71 106 16 235 151 112 120 177 123 181 254 95 239 148 166 239 204 245 10 91 88 127 83 157 143 72 29 118 167 152 195 83 40 165 63 123 221 0 194 28 25 92 165 143 129 253 41 116 21 222 219 128 243 39 179 41 66 227 82 81 110 81 31 1 254 0 255 151 11 145 212 205 133 52 33 
162 150 115 197 96 245 131 2 19 170 249 221 244 6 36 235 251 66 224 205 52 171 235 149 208 188 157 49 20 108 242 221 8 51 31 38 72 43 32 104 127 67 145 97 141 159 222 74 22 78 52 95 198 49 60 7 87 102 22 8 193 211 60 89 112 117 86 29 180 248 200 127 61 132 119 224 79 159 61 213 42 21 94 236 34 39 147 146 7 156 242 28 199 182 6 117 222 128 137 75 
183 145 176 200 12 204 20 43 56 179 22 143 78 27 152 69 150 102 86 3 154 223 1 149 137 75 152 225 239 86 35 23 230 164 124 147 133 229 135 255 187 177 242 3 138 165 250 69 46 62 54 237 96 232 74 106 190 42 1 145 127 149 163 67 80 204 154 81 59 110 5 17 45 70 7 224 142 216 145 225 153 221 174 115 233 69 224 148 138 135 253 71 139 20 64 179 228 212 252 201 
228 197 38 130 96 89 86 127 3 46 219 161 182 55 135 111 250 184 78 210 80 35 193 159 109 123 55 185 167 15 195 0 131 186 35 41 180 177 48 16 153 236 106 228 118 213 17 2 190 40 51 4 255 249 140 46 144 15 26 107 103 24 44 113 173 177 83 1 158 110 161 236 106 196 12 195 110 8 14 181 214 50 94 208 140 249 195 229 105 162 228 106 227 103 53 254 8 163 247 23 
141 40 37 161 136 24 40 71 63 173 183 159 13 40 32 2 196 241 114 108 174 162 161 87 107 68 43 178 251 196 110 32 16 94 192 185 190 75 204 94 102 131 12 236 37 106 131 220 1 197 41 198 89 197 59 208 236 142 176 192 66 223 194 177 12 230 38 41 230 110 150 86 8 224 140 243 71 172 160 5 96 153 21 4 47 157 165 163 107 112 15 171 130 184 222 92 88 200 32 213 
190 10 236 149 146 196 100 182 222 34 90 163 92 65 211 9 120 243 94 62 59 151 116 44 92 134 160 79 187 57 77 233 178 244 100 106 61 195 16 223 17 201 143 131 19 110 170 30 57 51 186 26 119 19 222 5 91 105 76 193 50 36 76 202 210 190 200 7 158 156 174 132 182 251 114 195 184 76 132 128 111 20 208 43 196 61 22 120 66 212 105 35 137 18 19 132 52 98 123 111 
83 136 78 135 206 246 116 52 35 165 80 108 79 166 231 115 161 14 255 204 53 246 210 60 97 60 76 152 45 231 218 126 37 242 108 185 208 173 17 30 34 116 27 109 61 17 85 243 49 231 45 23 69 71 49 187 31 63 53 191 116 115 62 0 214 184 98 92 191 89 88 124 215 175 98 3 1 12 146 32 102 87 108 33 25 201 118 108 136 242 240 65 78 222 153 227 221 205 29 179 
5 149 29 195 124 169 35 236 124 4 34 220 244 109 89 88 129 35 15 35 62 113 64 10 160 97 77 206 127 217 188 84 115 202 44 231 169 111 77 76 68 179 5 188 42 144 156 25 175 43 88 2 28 123 25 95 18 147 149 198 1 29 253 94 252 207 130 236 87 87 233 153 98 19 212 17 57 255 208 126 5 4 47 171 131 168 205 12 231 71 253 223 225 81 79 247 116 188 93 116 
152 103 230 133 119 70 198 254 8 87 140 208 135 250 101 185 219 131 217 255 194 32 106 244 120 29 167 69 230 51 42 11 185 118 95 74 21 182 135 178 87 147 201 131 231 66 72 239 53 55 15 181 60 119 142 236 79 214 82 153 161 237 94 117 102 34 25 250 81 222 243 236 172 105 122 99 105 121 184 131 122 58 75 40 180 191 248 221 104 72 105 19 15 3 123 150 148 49 241 25 
230 210 163 98 254 138 91 30 113 125 230 84 29 59 123 37 229 209 186 63 73 206 4 86 159 88 23 69 77 86 97 201 135 174 54 215 1 246 172 24 76 237 90 227 57 166 224 141 32 17 100 27 64 4 156 226 252 178 222 152 177 36 236 155 156 75 7 80 181 220 152 66 192 21 140 175 164 52 5 254 142 58 151 75 36 141 213 52 14 113 16 94 235 169 159 82 99 167 39 60 
46 166 184 186 211 106 44 37 167 102 201 135 141 39 55 61 65 255 243 183 223 255 46 157 39 103 131 152 237 88 14 137 237 10 167 245 84 35 229 83 248 251 0 70 115 222 63 164 181 28 124 110 209 79 199 78 132 69 59 58 63 64 2 183 102 24 21 83 110 2 91 73 105 128 219 71 8 68 126 26 33 159 215 89 154 206 67 238 96 53 142 173 189 203 63 68 91 97 109 133 
55 8 136 128 172 31 241 3 29 14 217 134 31 244 155 171 185 52 144 167 254 21 134 182 241 11 202 246 216 128 244 240 38 128 19 80 57 175 131 88 107 180 199 173 69 152 103 184 24 73 70 209 66 234 74 93 228 8 209 238 100 212 95 247 142 247 20 4 19 64 67 233 68 10 54 204 33 223 113 250 64 117 83 85 235 58 34 1 161 155 128 48 93 211 89 95 87 203 114 226 
89 18 172 149 4 222 222 54 73 156 211 58 234 153 221 37 85 2 38 76 139 98 150 255 160 9 167 131 223 156 22 187 38 254 122 38 101 140 7 113 209 74 159 218 111 168 82 161 141 153 196 63 117 185 129 175 213 35 123 107 218 114 41 158 228 50 16 199 154 151 182 182 114 243 21 10 157 182 36 95 115 222 81 60 18 135 17 127 106 191 247 159 8 60 190 232 48 60 43 144 
217 31 209 113 154 6 26 204 92 188 139 64 116 160 32 167 155 128 176 232 175 184 17 8 210 232 129 202 77 153 58 145 191 216 31 194 153 145 153 234 246 219 48 211 27 46 29 84 61 78 102 2 94 141 252 72 251 185 223 165 207 52 156 198 58 29 4 199 15 232 21 136 112 217 183 3 181 237 102 92 93 233 60 239 113 106 14 98 191 177 147 171 41 9 172 176 168 159 53 187 
121 53 95 25 232 251 127 35 53 182 80 82 180 154 26 238 49 13 122 115 70 81 118 83 97 58 141 51 128 234 43 35 135 210 114 28 47 120 130 212 213 173 212 201 163 2 108 123 171 24 112 73 118 125 158 6 13 74 115 144 114 112 62 71 82 182 99 99 53 172 52 125 158 196 53 47 74 46 157 218 147 52 254 56 63 18 72 27 213 209 164 239 166 224 42 244 37 156 119 252 
250 89 67 201 1 119 179 216 205 105 144 21 57 18 133 188 115 141 137 15 222 171 93 230 16 90 248 195 227 190 160 14 209 229 230 211 152 148 165 183 211 120 107 209 172 16 97 201 22 137 8 227 178 224 176 33 130 191 127 191 56 64 208 240 250 164 3 214 179 250 138 29 88 134 42 27 39 0 153 180 45 173 193 127 254 206 247 97 21 89 207 66 8 193 146 235 191 217 22 185 
19 111 51 22 77 20 173 58 65 128 53 182 83 22 87 186 240 16 243 47 255 58 152 56 235 87 173 130 157 58 190 93 15 110 219 218 83 107 165 214 226 194 41 156 39 215 180 85 46 36 202 218 248 3 156 168 129 41 234 173 48 215 180 94 137 182 214 201 255 199 226 175 110 15 69 239 132 11 155 148 47 105 38 179 217 35 66 55 234 250 60 158 188 77 23 120 140 217 207 156 
191 252 178 61 91 52 246 172 98 132 180 72 216 156 167 228 16 124 29 50 100 197 122 59 157 41 130 118 216 98 185 186 166 164 243 181 213 79 253 152 44 235 18 32 125 247 105 158 75 208 108 66 13 26 53 181 34 85 18 118 56 43 161 5 213 207 239 5 231 70 106 161 190 207 182 115 193 118 101 163 150 133 108 6 120 180 17 143 116 113 40 126 72 251 142 215 112 124 204 205 
194 181 118 187 222 210 223 139 77 224 43 137 90 17 116 45 212 196 167 199 91 13 69 222 174 248 93 167 128 97 11 18 196 255 114 137 148 235 37 148 253 50 18 227 134 65 125 137 195 84 44 237 246 70 160 103 117 101 118 102 22 216 167 224 60 13 192 228 36 80 142 174 196 248 12 112 140 36 110 80 148 76 69 182 104 75 246 209 17 24 125 254 95 179 178 153 28 155 234 234 
70 57 1 141 132 110 23 17 199 48 146 213 1 167 121 191 88 146 43 119 242 119 136 209 118 79 33 87 177 48 165 132 126 155 133 232 97 200 10 218 93 119 48 172 228 11 226 213 6 67 198 50 90 23 147 62 190 15 143 0 66 223 251 182 119 125 86 23 241 213 97 200 252 121 30 24 37 65 121 9 110 109 185 22 68 102 159 147 212 51 68 93 14 245 29 243 118 36 239 41 
16 230 236 154 180 107 96 121 99 37 189 102 158 163 98 125 90 191 135 59 149 25 45 32 183 182 105 129 28 197 27 178 68 199 80 198 135 27 191 245 124 215 92 34 190 120 217 43 218 107 83 162 6 6 92 19 235 152 149 71 184 70 21 38 170 119 58 216 54 172 172 104 233 166 183 247 199 29 40 176 184 169 46 226 37 12 216 91 181 231 114 169 91 132 20 97 247 214 41 138 
56 26 52 69 243 97 170 221 248 153 216 207 173 30 16 96 3 147 96 88 229 197 225 251 14 17 13 3 42 250 189 111 41 210 93 72 137 230 80 66 193 71 165 61 109 193 144 26 87 120 194 112 46 32 173 83 11 252 189 141 193 180 26 12 12 159 74 195 102 46 226 123 43 22 40 252 162 100 45 173 41 80 80 248 254 233 96 193 20 11 118 95 59 254 172 183 26 78 227 72 
44 190 35 149 239 243 49 229 32 165 72 85 230 195 123 10 152 83 179 174 69 167 179 130 65 59 117 194 116 243 194 100 28 13 59 251 146 214 185 105 47 109 135 211 15 4 254 200 102 60 94 233 184 224 127 117 203 138 240 167 26 103 44 63 141 220 40 157 118 125 185 126 31 231 240 136 189 142 171 4 43 161 25 222 115 253 73 185 161 234 110 4 246 102 160 12 5 196 161 232 
247 218 217 94 200 28 243 36 240 227 254 37 148 127 254 136 139 192 85 222 11 16 169 61 18 203 246 99 208 119 166 140 203 170 77 241 246 32 138 132 109 201 196 181 105 110 154 238 51 49 157 50 169 9 129 82 131 150 156 50 98 194 175 217 12 248 94 219 212 19 77 50 154 91 103 192 154 36 181 239 33 155 198 47 222 173 124 91 251 247 11 109 36 9 82 198 12 1 149 82 
161 201 197 74 78 217 184 94 55 247 137 89 150 61 127 2 144 211 67 69 215 147 130 161 142 105 21 177 34 105 26 149 112 43 218 107 81 100 208 21 212 85 110 91 154 114 17 80 101 19 25 62 52 76 212 56 128 118 139 156 162 43 236 46 83 122 65 136 143 51 176 69 125 146 19 182 40 114 183 169 167 211 61 89 146 16 90 99 5 43 171 68 32 111 5 9 70 71 144 68 
5 191 61 109 68 30 108 88 255 36 159 241 119 21 125 149 129 238 239 252 101 254 56 16 119 203 247 7 112 121 207 69 19 54 100 8 226 232 122 231 73 133 164 36 51 114 240 16 231 117 96 161 183 96 170 3 193 57 169 125 16 103 22 119 1 51 225 232 125 97 5 251 87 109 12 156 20 49 16 128 237 39 142 89 73 28 240 147 52 163 27 137 40 53 94 49 41 160 20 109 
236 83 17 49 54 62 117 243 215 52 167 0 11 227 228 155 48 110 251 145 107 58 239 31 222 123 234 21 80 248 28 109 52 23 135 169 52 199 45 11 18 247 53 205 182 216 207 23 195 94 84 234 251 15 85 4 15 39 92 132 167 30 148 111 196 144 156 225 89 192 70 53 81 28 29 56 154 199 146 63 144 112 32 195 119 89 24 154 105 24 65 213 38 155 56 73 83 142 238 121 
168 95 132 9 47 152 10 242 213 231 141 150 72 138 65 232 183 140 103 181 100 5 237 209 234 216 41 155 3 248 90 208 108 82 195 196 110 247 142 87 97 33 47 189 4 181 74 251 130 234 131 219 16 12 110 242 46 56 77 232 51 142 244 65 133 63 93 144 12 97 174 120 24 148 188 64 86 222 114 15 3 212 67 128 158 141 149 4 60 219 184 50 14 121 209 39 128 239 56 190 
148 97 38 163 201 5 86 64 211 48 17 133 240 100 107 37 218 42 237 79 175 209 188 176 221 165 50 171 213 4 35 10 103 44 87 216 182 136 160 93 154 47 172 72 166 37 21 251 37 179 34 75 131 157 18 237 239 2 48 7 39 92 233 93 167 186 54 98 43 185 61 235 129 73 161 0 223 111 70 128 162 252 25 193 203 108 115 237 62 175 127 187 81 111 44 135 94 161 39 110 
27 80 9 198 190 51 71 247 85 98 115 175 161 232 13 9 99 56 39 189 230 21 68 85 0 45 195 241 14 71 116 71 62 80 101 47 56 196 9 230 196 1 138 98 20 182 106 170 198 6 157 159 14 156 166 229 95 97 220 44 13 232 181 165 218 172 165 224 202 172 247 146 84 140 111 21 93 107 45 231 204 235 104 227 188 82 64 85 147 231 245 74 131 229 212 128 227 116 129 116 
232 201 153 100 223 55 87 26 80 254 100 29 116 12 160 215 135 103 174 137 152 62 57 82 135 118 55 17 168 144 158 31 95 24 180 226 20 206 191 82 112 15 190 116 244 60 200 75 184 3 236 214 50 23 148 71 146 147 50 44 142 90 155 93 206 167 194 151 153 208 253 41 218 114 172 154 156 19 235 121 8 144 139 10 185 123 36 128 228 176 36 36 103 127 121 106 141 167 142 139 
81 37 166 42 213 14 36 181 17 87 23 136 174 52 223 94 5 197 128 95 141 15 27 124 182 117 26 221 196 149 108 33 152 238 104 216 174 239 55 195 216 46 239 200 137 4 183 124 227 109 222 224 179 75 10 118 117 99 186 195 185 11 210 181 204 143 210 44 22 252 255 183 208 240 101 6 196 254 139 23 25 93 101 63 83 104 106 46 172 82 80 3 94 229 121 68 42 198 79 72 
132 169 36 113 176 18 232 78 218 254 106 10 237 35 180 49 225 165 63 121 147 214 173 199 209 159 177 37 136 164 116 242 144 220 231 21 55 171 23 174 59 254 233 68 38 34 115 98 30 108 141 22 24 72 193 103 130 16 2 105 58 110 69 51 255 165 69 5 204 236 28 104 246 145 52 172 52 171 189 81 31 18 126 131 106 174 41 229 16 245 110 102 93 113 30 215 174 128 235 185 
71 247 130 123 235 86 77 159 41 161 98 203 248 201 207 51 78 253 92 242 98 155 44 57 192 170 68 64 35 251 250 227 21 147 51 244 234 84 98 6 197 223 228 37 75 136 9 153 42 193 198 65 219 65 2 195 230 103 117 224 84 146 95 193 183 8 60 42 253 52 237 109 92 131 122 138 0 219 239 251 147 173 123 128 122 135 6 193 90 6 191 136 91 86 217 188 244 79 55 62 
104 59 243 231 181 221 229 216 26 172 148 39 159 150 64 82 247 118 227 74 207 215 118 35 50 219 226 199 190 85 196 105 110 61 157 74 112 109 123 127 226 154 94 99 34 135 94 76 25 18 153 111 49 223 18 29 76 190 159 128 131 91 212 129 44 179 99 163 44 11 74 155 181 207 37 14 73 25 155 101 223 185 97 152 126 57 71 157 53 147 69 43 40 14 238 190 207 49 161 187 
138 233 189 129 37 202 134 93 128 115 47 78 8 84 79 190 31 132 192 100 6 195 232 113 200 252 117 1 232 139 10 179 64 228 179 165 49 171 146 55 199 151 242 59 11 147 136 69 236 235 230 145 104 64 180 171 180 33 183 226 137 218 66 7 36 7 224 32 234 218 233 75 15 110 30 43 25 140 96 174 146 219 90 216 63 220 74 64 92 175 250 174 223 196 178 138 211 106 4 135 
112 73 164 219 255 87 229 59 133 28 115 213 83 107 96 216 102 253 59 249 208 63 75 36 30 206 60 222 190 254 190 139 87 85 77 143 110 190 154 175 252 241 62 14 163 126 228 32 155 62 0 196 174 8 133 253 49 25 236 124 194 123 201 31 123 34 234 179 196 215 139 247 217 21 63 140 59 37 96 118 186 149 140 183 152 126 145 107 31 245 26 136 132 164 114 134 82 206 192 1 
160 166 88 12 67 14 181 216 240 177 83 193 240 234 184 68 190 52 41 22 245 49 26 100 72 230 64 143 146 50 31 13 252 235 182 9 38 27 213 196 241 22 79 90 245 182 249 73 193 204 221 167 130 212 49 31 193 52 197 220 8 145 194 40 44 89 234 145 27 163 157 44 155 226 252 72 57 131 195 55 186 35 114 224 223 28 74 122 50 121 73 132 157 37 58 186 230 254 78 29 
222 145 3 118 179 165 43 76 154 40 230 168 32 132 229 127 66 170 64 98 119 7 151 197 197 68 156 155 141 253 125 150 236 58 164 77 236 180 248 200 150 113 165 83 228 29 191 196 97 116 206 224 225 106 198 143 238 95 228 113 181 23 88 35 6 34 36 146 248 6 61 248 214 111 47 35 151 173 15 36 208 69 191 139 195 19 9 187 57 64 162 62 65 150 173 19 131 124 34 37 
62 26 119 218 169 248 209 16 224 251 193 18 234 105 230 53 178 154 176 215 122 224 113 193 87 92 136 165 6 143 23 167 102 116 62 153 157 106 46 145 128 19 154 108 168 183 239 161 201 144 202 33 229 190 39 42 92 42 131 193 69 230 55 5 119 103 218 67 252 183 231 127 136 196 228 113 88 91 156 165 118 206 255 138 192 20 229 175 145 46 157 223 43 88 211 71 135 229 192 15 
61 194 110 38 140 39 203 52 100 126 212 107 66 197 120 58 66 144 200 209 226 78 72 131 121 211 115 28 105 61 77 93 185 120 55 147 227 133 190 8 86 43 73 42 11 28 149 110 122 243 110 20 126 134 185 149 149 98 3 11 176 97 54 160 86 85 1 222 195 156 189 122 60 167 40 81 200 245 62 129 89 77 2 169 27 6 7 196 16 153 44 9 148 5 135 67 67 41 93 128 
128 202 88 69 74 116 194 86 82 80 72 221 137 215 184 219 162 122 249 85 155 167 175 71 72 59 224 124 62 56 124 92 200 180 227 233 85 133 179 99 199 176 180 146 230 157 149 158 31 229 178 94 115 12 156 137 225 101 34 14 171 186 102 234 141 236 45 171 148 81 185 187 70 202 129 83 133 193 247 70 216 167 4 128 238 70 173 9 196 25 159 27 110 156 93 42 120 223 192 21 
176 10 122 193 77 100 120 98 150 131 230 184 106 229 89 89 212 202 11 204 78 128 181 70 186 179 95 217 55 173 171 111 113 186 88 143 145 68 68 92 133 83 90 217 202 169 32 223 95 52 144 15 51 29 127 186 0 230 118 180 236 126 176 117 14 111 58 20 42 14 14 237 145 190 48 250 239 108 187 92 16 86 56 123 212 48 213 154 125 134 93 156 72 3 30 152 47 186 102 22 
179 41 100 14 235 6 126 34 203 64 195 232 222 34 79 134 89 56 61 243 172 134 241 117 32 106 218 232 29 169 14 47 94 225 163 175 204 252 206 165 61 240 190 109 39 223 205 85 140 132 236 103 87 130 0 4 225 6 129 90 167 212 146 251 118 135 246 242 168 28 230 120 30 102 31 4 213 255 162 121 214 162 219 176 151 44 125 55 33 240 162 8 172 1 135 238 114 124 117 184 
72 23 232 92 245 178 116 114 161 162 62 38 72 190 6 54 143 28 46 154 240 81 31 72 111 158 91 130 83 156 83 3 132 249 219 36 89 202 71 70 214 64 220 45 157 113 24 38 90 237 100 2 19 74 232 128 151 163 28 52 54 117 254 32 202 8 188 12 38 180 127 28 146 27 191 33 85 166 24 219 231 210 132 20 11 37 0 24 199 37 60 151 42 248 230 173 128 30 159 129 
243 8 205 255 149 239 131 210 171 155 255 241 240 123 125 90 182 211 166 113 101 11 210 13 184 53 44 241 80 86 226 235 164 204 82 156 199 2 106 20 70 187 103 201 40 123 231 167 163 120 104 238 153 174 180 243 214 214 27 241 17 121 126 244 227 10 137 208 200 33 73 155 218 96 12 193 30 28 204 0 105 28 185 92 186 46 136 246 19 76 15 33 174 13 55 208 91 255 246 93 
21 134 6 6 85 124 150 74 65 26 34 124 67 71 102 88 100 203 203 248 184 96 66 221 254 213 223 23 200 165 59 63 205 84 11 71 83 120 78 70 240 55 94 239 207 246 195 1 186 195 72 250 164 150 189 93 55 108 118 70 157 46 33 217 183 140 123 69 109 15 206 206 106 190 122 161 158 40 179 205 94 219 117 38 143 150 157 93 115 23 82 17 33 207 102 180 94 104 38 72 
46 32 17 185 69 211 104 154 167 70 103 35 24 107 184 238 188 159 234 243 78 130 199 29 209 4 82 82 205 94 181 58 225 141 179 85 153 24 191 159 8 86 109 248 156 182 36 193 13 114 110 23 22 35 189 18 45 161 176 102 179 201 127 119 2 65 61 182 53 179 73 92 138 185 7 239 160 132 108 177 45 55 43 182 146 105 108 87 46 171 12 83 26 207 14 110 237 217 230 123 
146 8 17 124 224 60 63 10 148 185 64 100 105 0 206 162 132 67 221 59 109 254 126 174 242 189 77 103 132 205 98 220 209 250 223 40 42 193 193 209 13 103 228 223 235 41 78 166 191 52 147 66 47 239 207 219 73 19 137 150 41 228 63 204 19 43 46 168 69 43 248 142 150 27 15 16 31 248 196 174 55 218 71 24 241 62 237 172 253 60 20 69 7 95 175 231 124 62 111 247 
254 255 41 243 191 18 25 41 98 104 32 199 245 23 197 37 106 137 244 108 226 66 255 167 224 32 15 35 239 26 11 85 157 203 75 187 171 14 167 172 64 28 85 110 173 24 241 172 183 107 0 145 91 81 161 112 102 180 72 158 60 92 176 80 59 80 246 220 226 70 1 60 18 28 97 31 17 55 100 19 205 249 30 246 187 130 121 166 158 14 1 166 127 200 32 222 223 132 67 11 
106 9 62 123 99 186 80 43 239 90 110 107 193 142 26 112 139 23 22 4 79 49 13 163 150 85 36 35 153 239 52 177 209 142 213 250 245 74 37 56 44 252 48 78 7 144 124 96 164 229 62 254 60 11 166 181 224 102 151 225 252 38 236 49 122 194 0 21 219 79 79 101 165 120 171 94 90 188 86 37 53 148 190 87 165 215 56 32 17 221 97 49 135 192 41 92 56 224 5 202 
10 105 28 32 131 103 117 19 232 235 94 139 131 169 3 38 140 231 71 115 89 122 4 213 138 54 52 47 100 75 127 26 40 5 128 77 89 225 106 187 128 243 226 76 78 153 8 5 242 238 252 90 87 17 94 184 166 84 122 250 232 0 159 165 96 187 201 207 191 216 89 147 152 128 220 202 70 164 192 107 20 50 175 254 129 240 78 61 240 238 125 56 99 186 22 57 195 137 128 9 
221 136 36 206 88 103 119 154 249 142 245 237 100 3 13 110 132 206 200 126 28 197 75 53 0 123 34 124 105 143 162 136 83 249 98 237 110 12 75 230 144 234 43 74 241 64 141 59 86 126 193 127 188 202 104 225 162 133 151 145 175 154 170 104 255 208 239 17 132 29 38 146 166 70 198 95 94 228 4 192 239 158 219 143 125 149 54 129 72 198 214 73 208 103 119 141 104 81 113 19 
231 247 75 54 100 13 28 245 240 249 23 59 57 204 222 144 156 142 110 130 162 190 95 214 4 184 112 236 179 124 90 43 172 100 141 87 222 85 107 121 104 16 50 100 60 202 197 69 34 245 49 28 211 146 128 156 12 191 87 242 144 96 33 119 46 149 103 131 111 193 103 174 163 115 117 139 192 72 55 203 141 203 103 158 53 83 98 8 37 45 221 251 36 169 194 136 77 136 232 142 
79 200 36 130 253 10 236 131 160 226 180 182 218 64 99 53 237 218 71 201 18 249 156 2 77 14 13 48 202 168 209 175 119 149 108 94 128 236 101 124 102 164 83 85 145 100 104 193 73 39 121 134 105 125 222 50 195 185 117 150 153 151 96 133 128 179 198 234 192 225 24 92 60 12 105 131 209 69 138 122 234 58 131 41 108 38 73 130 94 186 5 6 246 250 67 3 32 64 101 106 
145 240 96 46 155 237 129 65 174 102 146 238 86 244 196 41 122 230 86 16 188 81 167 138 104 16 61 19 108 180 184 206 224 147 24 189 30 227 74 119 105 153 41 67 241 70 159 162 218 145 5 122 251 36 232 143 46 115 189 252 23 236 89 72 91 228 189 172 81 160 203 67 146 238 159 117 1 181 48 19 118 5 38 34 176 51 166 203 53 54 67 45 145 242 251 82 131 215 76 107 
16 195 241 161 220 217 181 151 37 49 210 22 220 59 143 35 193 87 241 70 25 191 28 129 123 182 250 252 102 159 167 154 116 27 6 223 83 109 192 193 218 178 105 153 250 20 224 26 231 135 161 53 134 76 5 74 183 71 28 55 71 204 217 4 73 26 208 118 30 48 98 35 24 252 111 245 20 49 96 9 22 38 55 116 233 0 145 232 56 148 216 205 5 66 73 230 67 101 206 204 
150 10 83 19 201 172 233 62 69 38 88 121 241 171 214 217 25 225 115 121 109 215 222 95 20 252 22 231 109 71 44 109 88 210 106 193 49 254 175 66 237 208 48 148 220 121 66 86 223 222 117 116 22 10 75 86 147 107 183 13 93 252 83 40 177 193 118 158 125 102 25 109 123 161 102 23 100 181 41 18 111 58 178 186 28 42 160 175 132 154 101 237 1 112 12 65 177 131 243 250 
5 75 185 40 160 209 232 85 168 229 227 238 10 225 20 25 163 68 244 16 114 242 112 74 60 99 7 174 52 208 165 127 197 55 141 114 82 207 0 24 156 134 210 210 94 186 106 203 82 219 43 104 60 40 110 165 166 88 65 138 72 201 151 217 30 32 172 94 44 206 25 0 135 213 132 86 142 92 185 209 64 110 98 195 96 142 190 57 226 13 78 178 48 250 231 214 47 179 195 6 
121 254 52 244 221 231 158 103 252 228 147 53 136 46 236 127 72 56 24 37 48 218 57 25 252 106 62 171 142 93 192 77 1 81 223 254 26 172 176 1 52 209 74 127 114 102 239 2 226 47 199 220 127 199 103 198 131 4 141 3 245 14 193 170 4 91 156 101 100 64 60 222 87 246 250 234 33 252 77 175 159 207 117 122 63 64 100 14 177 18 12 12 217 39 161 6 179 86 208 225 
72 113 175 29 59 2 61 9 200 42 190 141 144 121 220 36 190 179 136 204 100 95 197 159 183 77 87 40 203 108 206 33 222 85 107 210 106 153 143 55 85 35 248 102 140 43 226 44 19 45 129 168 236 45 202 16 229 240 145 51 110 127 100 178 40 117 230 97 148 233 58 235 166 219 204 139 138 233 222 169 202 124 245 42 147 112 102 47 50 73 123 95 222 60 92 53 196 147 197 231 
3 141 164 38 196 207 216 104 106 199 102 232 161 158 58 240 252 16 73 99 216 161 62 30 58 64 216 127 245 103 132 136 161 152 185 227 61 212 224 214 135 86 238 110 181 12 1 68 164 107 197 167 237 112 140 238 120 125 243 76 88 95 91 219 140 94 131 96 228 203 137 86 223 177 92 29 179 159 183 61 163 230 253 202 141 235 254 169 101 255 193 119 150 96 3 10 230 52 53 131 
168 223 105 234 103 121 97 213 239 37 213 191 63 77 169 250 123 185 210 34 130 42 126 65 82 80 151 233 44 228 141 107 97 55 242 123 79 169 245 116 154 28 175 145 147 8 35 90 158 215 208 187 254 184 115 162 156 167 203 91 207 187 247 26 145 102 131 29 101 232 221 16 197 189 118 251 161 129 20 157 71 218 33 2 179 107 202 26 149 65 32 70 69 105 154 202 211 124 89 149 
248 194 200 152 187 21 179 31 16 73 159 188 253 203 86 70 20 165 240 254 104 209 230 161 100 196 144 249 171 49 75 144 43 199 115 197 42 29 151 255 150 94 129 229 190 136 243 100 121 99 60 165 8 221 21 210 106 196 242 234 17 67 56 83 59 179 68 111 236 251 177 7 130 141 79 240 88 1 72 85 163 15 203 94 86 97 230 65 139 104 134 152 29 82 12 222 16 226 33 29 
243 174 94 239 136 41 35 102 51 219 103 127 77 57 54 222 71 119 175 181 112 42 16 191 147 224 186 242 47 3 134 87 80 237 165 203 218 185 249 246 63 200 76 34 84 216 156 32 200 179 122 31 130 251 37 37 7 128 59 59 39 186 32 123 242 254 200 65 2 224 152 38 129 87 77 129 244 89 214 185 92 177 56 38 7 11 107 211 8 85 59 99 195 43 221 40 147 14 242 60 
108 24 209 178 207 185 173 63 240 92 227 122 151 58 60 44 42 250 125 121 83 16 61 198 172 39 206 37 164 158 239 38 84 248 106 251 4 86 118 205 140 143 125 75 202 127 109 34 213 183 128 137 240 215 11 101 98 46 204 104 47 99 16 229 211 211 179 53 33 151 142 155 199 94 246 46 140 116 91 24 126 128 4 219 56 21 236 106 175 219 135 54 158 38 177 0 178 241 8 245 
126 1 8 175 1 203 190 189 202 162 119 98 116 195 146 183 134 167 24 19 202 41 196 12 170 68 180 152 181 77 87 75 162 206 144 176 226 228 103 83 42 75 189 162 211 19 139 109 126 147 7 41 35 129 237 127 214 189 174 17 8 25 48 49 21 17 197 102 218 127 201 110 248 121 158 110 110 36 64 166 99 166 146 30 8 1 176 40 232 16 9 61 118 122 96 40 163 165 227 214 
142 108 141 80 239 114 31 171 75 83 137 147 215 181 225 111 196 6 102 42 228 86 165 177 180 114 35 46 233 205 136 138 72 244 182 224 202 198 97 35 226 171 83 55 190 101 188 47 50 236 233 47 16 74 84 62 221 28 170 101 98 116 145 241 216 215 191 148 17 113 172 110 178 224 23 247 72 45 214 213 227 21 165 82 187 122 176 36 26 239 119 37 245 13 189 132 255 216 184 11 
87 218 148 9 235 36 233 138 215 225 125 195 8 26 108 191 18 12 126 29 254 252 216 121 136 221 211 56 73 8 113 155 23 153 82 215 140 99 69 4 223 172 11 80 57 162 25 47 5 90 18 147 157 255 165 44 50 20 239 168 33 23 80 23 49 235 73 6 154 77 44 217 196 255 137 133 5 53 28 191 69 114 24 206 247 170 185 58 68 143 230 193 246 162 22 244 32 195 41 88 
89 244 172 241 76 38 146 225 122 23 48 140 70 168 209 90 186 89 251 160 74 223 175 132 150 42 9 116 172 86 189 68 124 251 90 80 146 165 163 213 51 155 51 207 152 53 248 46 40 232 238 7 110 40 125 184 174 232 37 221 121 152 199 151 217 48 194 38 34 130 249 148 164 28 202 112 238 59 155 174 166 122 212 128 146 163 72 43 227 29 216 52 30 3 69 143 135 148 10 43 
97 38 57 216 221 140 98 63 11 244 63 246 59 177 190 194 8 140 246 190 240 161 135 215 152 102 243 36 127 159 51 184 167 228 247 8 88 11 243 56 121 205 159 27 200 137 127 200 30 220 219 17 18 97 149 200 41 171 249 144 9 106 208 161 27 71 33 183 128 254 203 240 107 176 249 89 33 186 208 158 224 83 137 198 233 232 224 230 253 192 118 191 238 171 24 159 119 45 206 154 
233 216 64 154 34 202 192 162 244 37 150 190 175 191 188 54 80 206 170 46 198 107 30 63 54 13 201 211 109 247 204 131 136 38 184 92 205 254 175 4 59 84 54 73 166 7 125 104 104 193 122 154 103 77 157 102 198 136 137 135 176 56 243 108 186 47 183 66 175 76 22 134 105 134 150 111 183 158 22 90 107 91 93 200 220 26 178 219 107 110 233 14 152 1 171 165 36 48 27 0 
90 110 166 152 233 90 129 112 78 230 60 238 155 153 247 199 173 169 203 187 213 20 133 85 30 90 116 113 95 252 69 147 57 66 231 24 80 115 88 192 43 33 118 193 94 237 65 83 15 82 114 203 240 60 200 248 0 153 198 7 199 17 245 144 177 138 4 60 115 120 115 33 209 30 247 247 36 56 101 25 134 156 93 36 170 169 168 29 145 53 229 253 184 255 45 199 131 73 35 192 
11 91 184 88 25 36 252 1 47 173 92 162 136 157 232 119 242 54 58 183 138 69 223 104 69 29 243 123 14 197 203 78 104 118 4 104 156 59 130 221 47 27 74 202 248 223 56 54 217 220 109 76 226 244 221 36 56 218 144 92 175 52 158 80 188 193 105 226 254 95 158 190 44 165 81 83 48 166 11 121 240 4 166 54 101 146 198 130 233 50 75 42 123 40 84 71 168 186 21 101 
106 10 81 45 117 9 255 46 10 33 18 3 17 187 57 206 77 60 84 235 50 244 3 111 96 29 170 83 144 97 235 32 24 182 143 118 129 198 240 121 104 43 29 177 117 191 9 28 50 61 106 25 165 214 37 16 0 37 83 131 3 53 44 76 111 173 143 253 173 192 208 179 3 142 76 134 44 89 204 173 88 168 61 93 219 237 235 177 242 74 110 195 138 184 127 58 97 117 13 207 
43 160 105 251 184 206 255 194 139 24 247 254 80 112 159 109 189 95 164 114 217 153 24 5 73 224 7 87 116 0 221 196 17 185 94 71 128 205 58 13 195 219 12 177 216 66 55 155 79 215 75 233 149 223 78 160 138 209 111 1 218 67 145 52 233 233 186 144 199 115 170 53 25 211 164 9 146 159 248 132 92 112 74 223 57 58 23 207 134 244 144 35 71 63 71 123 127 192 235 94 
116 141 126 44 247 57 113 146 147 69 139 55 207 181 162 23 149 4 183 253 6 167 181 159 101 87 133 199 53 231 213 65 145 191 31 85 50 140 192 159 129 101 252 209 25 145 160 110 11 82 214 238 118 250 140 21 156 35 96 140 195 204 146 124 179 246 49 83 154 57 143 21 167 131 214 131 159 140 158 164 214 52 167 151 110 19 82 112 99 249 68 114 145 143 190 103 91 217 241 239 
63 177 85 130 63 228 147 18 208 103 61 183 105 161 47 250 39 153 223 128 96 83 199 140 34 114 168 3 45 72 153 79 43 187 131 213 85 34 5 155 110 109 66 34 44 149 114 231 58 52 252 4 75 109 247 89 59 173 16 31 213 142 104 48 157 236 30 60 145 46 100 63 50 24 140 16 91 67 106 76 60 105 134 32 84 77 191 12 171 224 219 67 60 137 175 40 134 195 188 31 
6 94 239 32 42 215 212 144 224 117 115 90 113 43 143 241 232 186 200 188 132 100 150 32 143 76 37 44 200 116 69 29 192 139 125 132 40 15 203 244 229 42 51 124 91 147 97 251 81 93 235 189 182 33 23 233 71 231 208 159 242 153 134 180 139 131 187 239 28 166 143 183 104 19 177 246 29 192 139 144 40 203 6 254 134 59 98 215 227 204 202 175 193 192 85 96 159 119 99 192 
78 235 128 220 131 6 221 33 78 157 210 169 245 242 17 201 136 5 80 231 162 48 193 110 221 17 63 230 79 51 255 90 143 122 143 245 143 31 223 254 138 240 235 52 180 202 176 194 16 131 65 107 147 222 36 175 215 79 160 194 6 11 120 25 99 7 88 175 146 215 142 100 243 230 75 177 106 210 231 113 177 122 164 113 212 120 80 209 76 163 144 225 244 224 152 93 153 158 78 131 
13 7 160 138 246 162 225 132 23 113 19 22 212 142 108 21 189 18 222 90 68 217 79 199 238 245 36 108 162 188 188 244 229 168 169 140 250 73 99 43 220 211 217 236 78 16 37 200 136 7 219 74 250 19 191 92 243 149 135 40 89 98 8 60 113 179 5 216 50 219 19 241 4 131 214 92 14 182 97 126 173 82 228 236 248 67 120 235 57 28 160 182 123 154 56 42 121 3 201 236 
195 234 180 77 168 153 34 2 128 213 149 201 254 221 41 95 37 205 139 23 69 40 61 28 206 88 58 197 71 29 209 139 151 109 64 27 92 85 46 107 228 98 193 94 211 82 234 196 18 224 227 8 102 128 1 160 150 197 91 211 166 249 89 52 202 153 131 241 35 64 6 170 186 139 165 167 172 80 125 18 223 59 115 66 127 76 192 199 187 70 51 251 216 73 69 8 6 21 231 193 
148 58 203 178 74 12 137 144 147 68 235 92 139 82 118 81 116 18 14 191 228 110 196 80 108 69 63 126 114 116 189 74 86 226 2 119 191 2 185 243 34 222 192 68 36 78 22 141 255 199 129 179 181 94 187 55 145 136 4 122 143 76 39 186 221 8 106 86 101 72 52 165 141 41 186 0 97 72 116 255 4 204 140 93 158 66 105 116 97 199 174 156 38 199 5 186 251 13 221 30 
47 249 233 34 85 33 131 122 36 240 138 203 55 53 9 158 112 50 127 190 8 80 59 255 75 132 147 190 192 184 67 129 46 142 162 254 41 38 222 28 56 104 45 233 222 241 34 173 22 166 166 1 192 218 26 77 44 35 85 81 189 210 222 36 75 190 14 48 101 238 88 77 30 15 43 9 8 206 210 19 161 13 55 201 189 108 48 96 19 13 1 76 242 252 72 10 149 244 98 9 
7 108 135 181 191 32 40 21 2 249 26 162 39 242 135 210 125 219 173 207 63 185 205 154 150 35 14 164 10 77 232 210 195 173 113 64 174 134 29 146 96 185 9 221 124 96 121 28 123 126 104 71 79 13 103 51 208 54 141 132 57 93 252 211 27 107 4 238 104 210 150 204 203 178 28 253 189 27 191 43 113 6 161 40 242 16 46 243 40 45 67 46 246 111 246 68 252 141 156 162 
