P2
100 100
255
76 31 85 103 238 108 91 89 4 208 6 93 143 10 176 84 15 248 75 137 131 60 125 204 254 35 189 109 254 102 144 202 98 28 184 88 71 83 67 54 136 149 31 211 80 203 214 6 84 72 229 237 158 245 111 22 241 184 167 179 95 194 6 240 10 23 154 148 39 250 218 182 250 123 170 116 199 110 41 55 37 41 188 233 176 100 246 36 137 59 224 22 49 13 82 154 113 128 112 99 
150 161 253 58 249 186 76 20 106 51 45 194 31 72 36 24 60 90 115 252 40 0 41 231 116 253 95 240 167 4 148 21 117 170 66 87 119 129 33 65 229 107 139 52 124 93 148 172 97 6 249 52 91 170 41 85 246 105 225 122 166 86 114 97 115 183 74 206 121 62 203 95 111 158 145 54 82 159 167 226 41 226 51 138 14 219 19 101 1 209 1 243 63 242 227 40 135 209 182 248 
80 79 74 199 220 16 122 95 188 46 94 252 56 176 35 102 39 195 159 86 247 13 110 157 218 156 59 131 227 232 50 82 192 102 126 128 100 180 200 231 190 214 102 222 194 128 112 195 88 41 219 16 64 157 11 2 22 206 229 63 173 47 99 137 105 204 180 80 33 230 123 116 94 79 88 80 181 131 24 194 176 234 39 239 89 10 223 137 203 6 132 65 11 223 219 131 33 12 170 72 
183 205 235 188 248 40 255 186 10 52 40 57 96 55 138 127 103 55 170 112 216 224 124 56 49 174 254 17 35 5 86 199 126 48 22 83 160 174 129 237 232 167 174 30 55 235 224 74 21 163 253 188 0 128 86 62 176 249 69 159 17 26 66 24 84 140 73 178 18 234 135 247 128 64 65 252 134 83 209 82 192 24 199 86 174 23 171 115 18 149 124 176 88 144 219 183 166 58 224 3 
94 234 55 157 194 175 85 2 57 79 144 173 127 113 15 167 158 72 125 132 251 92 175 158 2 35 27 149 240 75 54 137 14 92 181 88 68 235 51 156 207 191 54 0 168 227 41 238 21 197 224 79 248 14 235 30 108 234 136 47 105 218 246 82 147 36 251 133 75 212 140 181 128 154 49 29 198 37 168 222 82 108 159 193 124 220 81 116 239 214 134 181 144 22 102 57 13 226 192 227 
252 95 83 195 75 188 223 239 15 240 8 27 23 69 191 132 11 247 180 153 55 19 42 53 21 0 5 158 128 62 233 185 232 95 198 11 167 247 114 158 104 255 28 175 66 210 59 212 95 228 135 103 40 149 244 39 151 46 167 224 31 203 204 162 66 112 201 25 196 22 6 26 134 243 247 243 114 157 207 148 112 112 148 101 229 155 162 66 25 55 99 245 184 91 228 116 237 119 51 155 
91 251 206 111 148 213 80 24 50 208 156 67 73 201 233 42 249 2 45 81 157 88 19 21 166 234 155 207 101 146 128 10 146 248 211 147 75 116 3 89 170 195 241 102 85 137 81 249 85 27 91 55 217 140 204 150 139 93 23 73 230 247 48 143 94 49 101 161 6 172 67 241 105 227 40 108 97 220 227 251 166 62 110 102 211 128 79 170 33 95 220 235 240 124 207 59 238 253 207 69 
81 149 188 215 125 129 118 242 81 161 110 43 77 16 204 0 22 144 239 45 54 82 176 55 154 124 53 85 251 187 220 182 200 51 63 40 118 246 39 244 74 85 235 132 238 153 28 170 39 23 188 53 203 11 187 240 93 195 6 42 237 100 102 22 214 32 20 227 108 228 75 61 14 135 255 199 165 1 27 144 73 9 197 135 134 55 21 59 143 16 185 50 149 208 110 159 75 185 138 142 
114 219 255 50 78 131 249 98 191 18 49 86 244 95 31 254 159 157 210 70 37 151 217 149 41 232 224 131 218 70 30 63 103 59 194 86 91 45 22 143 77 143 43 43 29 238 162 86 83 209 16 133 63 45 2 7 37 156 39 44 29 187 139 202 233 239 132 67 42 127 154 52 231 29 169 246 80 62 141 188 135 96 82 110 122 181 67 119 196 114 35 221 101 147 128 252 230 189 122 32 
193 185 83 107 105 202 4 66 125 233 77 26 216 66 128 184 162 2 102 20 179 153 85 158 193 44 195 43 157 199 202 121 35 234 50 83 254 64 171 246 7 3 196 212 81 37 156 242 227 203 75 246 18 91 19 6 99 206 240 153 34 188 159 93 101 20 18 156 243 206 63 223 7 44 143 35 54 200 124 81 16 156 220 207 106 78 122 177 81 251 92 88 89 203 245 168 94 244 1 86 
101 132 76 5 101 59 40 236 106 30 139 174 91 192 91 235 43 10 245 126 213 156 85 40 245 139 132 13 210 125 144 154 171 227 132 154 253 43 114 50 107 214 152 6 243 232 232 206 126 60 10 153 34 115 101 196 200 247 195 74 251 182 119 72 132 138 143 30 233 231 188 216 100 27 74 146 248 178 225 167 201 48 176 108 74 28 90 31 135 187 237 11 64 230 21 9 114 227 49 182 
139 231 201 201 129 213 96 95 122 88 41 201 163 37 5 71 159 7 123 199 185 171 39 208 234 241 25 28 71 55 130 75 51 254 206 159 63 48 215 146 65 147 255 100 30 106 48 226 141 108 51 4 66 201 128 55 57 25 190 157 26 171 125 89 167 155 203 18 191 181 124 197 82 23 78 64 211 228 152 95 196 65 226 172 51 175 25 77 255 148 12 174 227 67 12 130 197 170 148 166 
60 154 16 254 71 212 69 45 119 52 197 35 56 233 233 203 13 94 24 227 228 217 98 77 239 6 239 34 138 42 71 150 238 67 0 13 213 215 255 95 248 84 107 175 13 149 143 34 244 78 221 122 102 162 241 180 209 188 149 46 171 239 165 64 122 99 120 90 125 222 123 29 45 238 219 92 38 11 138 54 22 76 166 208 161 112 249 84 148 155 105 255 115 1 209 154 229 82 202 19 
197 183 185 239 219 219 127 65 68 51 49 106 205 45 27 68 96 220 96 113 208 35 146 223 181 65 110 156 118 10 48 83 242 31 78 35 128 37 130 94 17 57 228 133 62 31 247 127 39 109 45 229 57 138 190 191 235 176 28 145 7 34 58 59 32 245 225 30 234 141 181 211 242 172 111 108 28 44 202 168 81 14 195 12 3 191 243 98 223 92 165 200 39 43 137 127 42 63 27 2 
214 244 85 146 135 228 131 40 175 85 199 70 188 23 254 245 10 75 133 193 169 3 13 210 102 96 125 144 120 21 61 144 215 78 0 38 55 151 240 21 203 93 58 140 107 158 3 7 183 226 21 7 154 195 166 129 13 151 144 35 145 232 224 144 68 58 208 121 29 165 30 64 244 25 180 223 58 144 214 201 132 78 117 175 124 161 37 236 242 97 55 227 86 127 226 83 173 166 208 191 
40 243 195 179 20 197 98 49 155 113 232 67 125 93 221 80 236 82 96 84 174 194 167 96 52 226 235 36 173 128 40 118 81 136 241 220 137 127 253 15 135 219 244 122 83 8 104 104 116 122 85 166 245 35 123 16 135 139 117 107 203 4 227 187 180 151 65 28 131 149 86 1 51 43 141 94 12 178 106 74 73 154 73 200 60 8 130 109 80 160 186 82 14 184 147 127 183 82 61 17 
162 194 122 70 149 33 90 252 84 137 40 203 30 22 55 250 153 36 40 22 166 150 217 124 83 184 147 70 68 4 201 161 24 192 71 36 140 105 209 57 42 27 59 123 162 69 220 75 207 135 176 59 252 80 181 145 135 74 162 13 110 139 107 51 183 52 85 157 97 40 14 43 170 26 39 176 225 22 253 71 106 153 147 50 53 49 224 188 33 80 152 131 127 3 210 71 13 52 110 2 
191 159 178 218 185 234 48 219 37 155 253 90 24 175 241 167 85 251 154 232 24 69 60 246 26 226 138 134 218 35 139 91 223 194 28 137 129 44 57 31 248 40 128 164 96 12 118 164 28 46 29 190 185 140 106 71 56 101 114 181 9 208 29 50 65 27 84 224 101 31 73 13 100 209 121 88 64 83 208 250 196 50 20 98 102 155 196 159 152 24 246 193 19 177 117 210 239 241 8 111 
144 230 13 82 94 211 44 98 44 124 59 13 183 206 105 8 216 38 34 159 141 144 53 80 21 252 163 67 78 210 76 105 144 52 139 29 86 53 170 22 188 65 0 153 174 139 172 160 230 179 27 39 129 241 195 61 183 189 209 233 137 157 45 228 57 188 11 128 140 11 135 126 51 130 115 20 59 218 99 252 117 218 122 152 11 155 152 220 252 33 91 117 178 112 181 109 239 48 125 106 
9 154 76 21 65 229 68 97 231 73 125 130 53 21 203 214 44 118 254 135 169 63 156 214 64 24 11 28 182 123 196 83 75 89 221 72 150 62 41 254 73 71 169 219 151 50 112 7 228 108 118 229 125 245 190 213 175 176 136 190 14 198 220 127 110 11 115 82 33 110 22 42 122 40 244 170 232 68 119 92 14 186 100 86 6 205 188 73 163 25 198 228 216 233 204 215 233 163 247 117 
64 39 223 23 215 142 113 153 147 156 203 29 179 207 201 253 196 177 227 245 36 126 0 61 162 182 187 237 227 98 15 197 25 145 22 149 201 18 146 236 176 19 64 241 53 141 185 153 132 235 146 217 94 82 71 212 167 34 19 169 57 245 90 180 51 73 20 157 107 88 213 70 24 71 48 221 17 179 47 120 246 239 102 140 12 105 18 74 27 219 175 145 60 154 239 183 244 93 163 255 
52 155 60 79 214 215 16 165 210 110 208 110 53 75 6 141 120 127 219 234 99 94 250 11 174 133 32 224 82 104 154 50 198 23 12 99 117 188 202 115 8 82 183 103 155 166 91 165 9 37 132 70 227 2 240 11 123 62 233 139 158 242 23 218 172 135 230 230 69 186 37 237 124 217 199 140 232 156 103 184 19 244 41 206 15 217 150 61 215 48 76 112 252 65 142 244 48 99 87 221 
155 105 83 118 250 48 249 210 173 29 44 110 233 186 147 253 79 30 47 196 18 194 47 146 55 243 185 209 138 151 194 139 163 8 112 123 135 70 219 6 196 168 27 246 52 228 157 252 140 177 96 88 58 65 50 103 103 249 171 56 213 12 125 20 149 62 201 137 233 90 107 211 88 138 190 115 224 64 66 98 85 242 76 92 142 17 159 208 216 80 225 42 202 128 43 151 115 201 180 230 
172 35 54 247 247 184 164 58 11 77 170 120 89 99 23 212 211 129 45 139 135 239 209 21 26 116 109 205 244 229 136 43 164 108 218 190 185 124 200 215 194 239 10 104 220 194 127 94 61 152 179 243 162 186 214 50 104 18 220 102 41 154 160 23 246 24 107 69 94 216 121 24 31 163 246 247 1 247 225 60 218 179 48 59 22 5 115 67 40 29 153 168 49 140 218 46 233 240 34 51 
98 153 65 174 203 30 139 100 136 77 104 9 12 233 47 96 45 241 28 129 231 80 205 191 10 155 227 40 222 223 56 204 39 96 20 93 185 199 229 161 196 226 109 190 236 185 92 121 205 194 238 106 121 98 128 12 152 156 19 156 240 129 32 47 100 243 95 245 224 162 150 51 111 212 122 174 63 7 116 128 220 48 125 122 58 113 184 182 149 198 137 36 5 180 174 140 171 235 215 249 
251 49 77 104 155 217 64 128 183 223 140 164 53 236 54 181 135 190 69 114 102 248 119 191 3 151 136 232 189 209 0 165 248 151 83 80 20 57 165 191 93 10 231 211 183 124 179 47 97 224 17 93 143 49 171 0 18 165 115 150 72 239 6 153 13 224 39 163 92 178 4 53 242 124 5 237 32 176 79 119 58 46 210 181 15 125 147 28 201 148 163 88 172 51 69 147 162 230 249 167 
12 18 211 0 133 158 159 137 48 22 74 255 83 44 25 107 116 191 81 183 61 185 165 65 122 26 160 246 209 230 62 44 120 3 31 201 128 9 128 196 183 140 242 92 13 231 13 250 116 214 190 20 71 194 250 168 212 178 152 209 24 109 34 120 121 0 17 152 106 163 89 89 101 63 32 21 49 31 203 153 201 233 46 239 201 165 15 55 56 22 47 238 23 154 249 214 55 36 83 35 
170 232 2 114 249 7 118 190 15 192 223 84 247 204 189 144 176 230 114 116 244 155 206 45 179 208 183 70 216 172 139 2 192 92 179 49 8 28 120 248 231 205 186 167 177 208 120 138 92 15 238 17 78 98 44 120 84 225 171 114 151 187 0 199 182 35 2 84 40 97 142 60 9 15 69 2 89 165 151 191 252 25 72 173 173 44 155 240 110 14 133 218 5 237 213 129 41 216 122 92 
231 132 13 236 239 19 166 51 38 134 31 42 25 131 70 97 197 25 213 90 185 3 176 134 134 9 192 92 232 79 195 81 213 218 61 234 161 226 210 150 172 165 65 35 233 27 61 14 126 122 113 15 74 144 148 139 46 191 50 145 108 140 167 136 29 198 230 12 128 117 234 235 29 182 101 56 69 34 94 162 117 77 9 120 143 35 183 35 130 72 34 182 203 21 233 130 250 207 119 238 
146 86 36 204 157 71 105 144 172 38 84 203 18 30 8 8 197 159 242 110 69 150 104 42 125 184 226 152 37 60 21 188 7 174 154 15 178 141 164 88 165 250 115 144 42 36 10 78 79 118 89 230 45 199 105 149 49 107 109 200 180 124 99 169 184 136 39 115 109 139 60 108 169 122 15 227 229 246 74 21 58 211 30 87 202 236 252 78 69 59 181 105 30 20 123 224 245 110 225 226 
174 48 75 93 154 122 115 80 31 82 120 159 31 70 181 219 40 35 19 14 85 91 205 23 16 19 76 92 166 156 209 47 28 93 254 201 170 66 8 199 201 11 140 161 27 214 184 61 238 235 133 250 18 163 131 122 171 84 20 37 43 176 41 57 207 234 12 192 67 255 155 61 71 208 210 40 218 41 76 36 253 196 45 106 107 238 60 151 108 140 37 30 121 129 57 212 89 61 237 54 
158 202 216 215 221 58 215 160 92 116 127 1 101 253 149 33 55 60 141 59 127 150 205 24 217 13 167 6 80 8 51 36 191 87 87 191 162 3 23 24 72 107 254 232 43 9 168 16 93 205 227 147 30 227 153 93 144 208 238 72 253 48 206 21 68 47 170 139 41 223 192 35 218 152 97 58 153 2 100 197 53 229 216 254 174 168 209 119 250 44 88 185 79 65 28 216 211 60 170 107 
150 7 64 5 32 53 95 21 240 152 11 34 216 47 60 227 149 63 206 156 113 36 142 178 213 230 239 112 32 115 24 91 205 35 140 26 245 175 196 18 207 56 220 237 142 75 162 217 180 133 172 54 212 102 157 51 116 64 150 199 247 106 53 141 80 204 145 5 90 214 72 188 222 17 173 145 78 130 61 24 162 113 199 213 72 19 102 9 197 4 18 179 82 91 215 124 209 185 116 104 
101 0 98 156 119 76 55 153 87 105 60 203 92 2 186 31 105 103 135 87 201 65 16 15 202 253 25 115 210 250 147 208 89 247 110 127 206 30 25 148 156 36 52 141 204 151 240 94 57 174 132 126 115 173 225 170 49 137 26 239 67 39 63 190 84 62 64 242 140 189 146 95 183 116 124 231 99 22 132 73 252 174 152 201 102 84 83 182 213 250 79 38 7 165 82 240 58 167 44 195 
235 3 210 158 234 105 172 43 92 27 240 69 126 66 207 144 101 131 164 15 236 22 252 229 193 132 24 114 238 75 247 117 16 143 253 6 225 92 122 178 163 5 23 66 206 53 83 26 103 134 211 8 134 34 247 173 104 109 180 189 16 48 244 103 143 189 72 130 222 202 197 205 57 231 233 52 135 38 216 207 46 209 49 6 139 38 183 174 205 214 74 97 165 159 41 242 162 48 127 17 
54 171 129 10 38 83 185 132 162 209 126 171 247 39 236 248 58 127 79 13 122 237 10 186 220 221 0 58 212 134 245 184 211 118 140 51 48 30 18 249 205 87 54 189 134 179 52 28 114 66 138 210 246 166 4 87 13 98 18 133 211 232 70 231 94 72 81 128 162 20 16 52 20 134 219 189 133 32 90 6 197 182 85 39 75 181 24 203 98 125 39 118 65 117 216 80 68 236 34 255 
131 83 244 118 56 74 236 162 210 60 200 28 221 99 26 14 99 106 226 153 234 104 161 36 35 68 161 234 161 22 203 188 150 114 253 49 115 240 24 204 190 31 152 102 113 169 60 113 250 16 82 235 215 245 32 69 98 133 139 200 40 123 132 161 124 100 184 49 37 37 33 53 45 251 224 18 108 21 48 104 35 214 115 80 235 98 87 19 216 130 24 69 128 246 163 215 22 243 248 73 
33 236 242 143 222 229 226 178 49 224 246 191 128 229 10 119 200 163 245 246 248 194 86 217 158 93 248 6 165 122 103 27 179 198 159 11 102 188 189 115 244 71 19 50 232 78 139 25 144 240 225 121 205 79 107 254 73 186 0 229 120 165 9 83 13 207 68 149 231 110 44 138 166 16 102 157 166 162 72 233 74 40 220 209 66 72 152 96 37 59 113 178 246 24 4 65 61 52 78 98 
238 247 109 20 227 120 229 147 252 69 86 244 18 238 114 187 191 241 76 67 82 53 195 157 21 57 113 97 176 31 46 156 110 190 69 248 124 128 147 155 172 113 77 80 235 104 80 214 213 16 146 147 55 216 6 67 125 149 197 209 190 214 58 201 192 170 161 91 6 162 174 136 19 222 204 9 13 240 62 88 234 0 13 238 174 169 206 176 36 45 51 8 217 37 101 127 25 38 220 140 
105 255 38 153 46 127 33 129 35 236 253 245 219 118 68 16 91 166 197 39 211 1 229 92 222 99 226 73 167 246 130 46 25 129 79 233 183 232 139 148 135 79 17 220 170 62 24 169 227 177 108 52 118 177 31 211 50 212 1 216 62 56 78 128 160 153 255 1 215 202 82 90 139 163 185 7 52 176 0 42 236 11 21 42 216 42 46 237 215 187 218 146 59 43 159 233 63 55 152 213 
189 14 56 119 25 171 174 254 24 91 24 239 222 45 127 24 206 228 215 172 255 195 138 18 71 177 158 30 26 23 220 244 182 66 148 46 96 35 136 127 139 215 75 31 109 148 12 124 227 77 9 112 247 187 113 198 15 185 6 106 30 116 9 17 52 106 161 158 104 82 90 209 191 234 35 59 57 86 92 51 13 109 122 112 131 10 128 156 62 94 135 91 214 173 29 57 196 65 59 192 
82 236 2 166 122 85 209 221 224 26 58 221 254 74 241 87 54 22 234 194 240 215 162 5 237 86 35 195 14 22 177 6 130 146 207 249 63 218 138 235 148 180 106 212 128 193 71 202 139 28 76 34 107 62 60 182 210 76 247 190 197 17 84 27 22 226 84 156 112 135 13 34 188 106 137 73 50 193 138 39 202 235 36 46 242 190 112 188 25 203 213 103 166 254 241 223 239 175 76 73 
222 239 192 10 95 85 15 33 30 173 76 255 40 255 132 84 253 44 46 166 190 205 22 96 183 47 43 139 77 240 211 28 103 211 236 6 119 106 207 193 248 103 3 64 216 254 78 27 162 61 94 145 5 196 76 5 231 162 147 39 153 0 22 197 0 77 250 238 226 161 137 189 254 62 89 5 158 134 244 91 1 211 211 65 128 166 193 198 238 95 51 1 239 110 140 160 243 240 49 177 
45 8 98 36 155 59 98 221 7 10 48 178 132 222 164 178 78 241 76 154 103 151 186 14 157 164 51 7 162 105 129 25 177 73 187 12 192 208 37 203 141 202 205 224 217 89 191 163 126 205 227 111 191 146 130 93 236 55 230 169 34 159 255 35 109 79 53 47 33 99 170 61 199 43 108 254 7 185 202 232 163 247 76 66 122 124 250 199 190 80 159 116 115 24 104 2 20 66 195 37 
12 122 165 118 95 150 67 37 17 29 173 231 29 168 216 106 250 6 10 98 139 111 85 145 97 72 218 114 18 255 68 108 20 143 255 82 209 0 206 38 232 49 203 69 208 200 187 27 188 202 140 9 110 222 97 167 142 11 160 14 134 241 228 185 1 96 144 70 136 29 96 146 69 143 155 42 255 102 209 155 207 199 88 132 211 26 106 170 137 7 58 128 228 213 119 123 57 11 136 2 
192 204 135 150 32 195 127 168 237 107 184 96 62 241 128 188 165 51 44 34 75 96 63 60 5 7 22 138 96 122 213 221 57 254 176 139 131 197 53 124 95 180 153 174 70 80 223 5 193 22 115 12 98 75 50 123 137 187 229 62 24 188 60 106 32 16 182 91 58 44 188 238 69 199 213 147 238 186 107 149 147 229 233 230 135 181 16 64 8 221 205 56 120 12 87 94 170 207 160 151 
140 76 153 87 108 41 27 204 39 96 51 174 67 105 227 39 204 94 112 190 129 109 95 88 154 120 210 200 154 229 198 183 218 215 192 53 213 219 178 207 127 93 190 214 96 123 174 208 192 92 116 89 193 173 188 105 63 175 19 251 185 114 154 233 195 46 195 193 130 65 18 79 184 69 86 92 173 138 121 74 200 68 3 168 148 74 164 173 232 202 140 210 124 29 223 92 18 162 151 232 
118 249 101 184 88 251 130 159 65 117 54 17 129 107 179 92 168 32 146 220 4 218 181 166 217 172 191 126 235 189 108 85 60 127 155 101 24 116 10 245 169 89 11 255 14 59 180 252 232 27 119 219 31 167 69 154 137 126 85 221 126 128 22 246 156 237 7 130 129 247 38 138 255 106 54 58 167 88 7 37 179 254 78 236 44 114 25 193 184 143 65 227 1 235 141 78 242 91 29 157 
224 118 82 90 201 244 100 220 194 23 158 213 92 247 58 188 228 130 183 86 219 233 160 176 181 172 222 186 87 77 61 185 86 6 111 42 233 72 116 188 185 213 22 4 42 158 10 27 147 116 115 152 119 81 115 185 180 231 86 28 230 35 120 12 77 232 5 75 186 90 79 107 4 109 2 86 38 35 170 7 250 206 126 130 62 169 91 192 84 54 141 90 73 176 215 44 15 82 153 180 
91 47 154 213 48 95 138 104 147 82 49 3 247 1 182 76 71 198 203 21 112 80 108 7 53 107 83 71 162 210 72 244 231 194 236 119 32 40 252 172 159 188 249 248 37 249 144 185 9 125 170 16 184 147 51 231 104 113 200 87 93 204 182 111 106 69 100 249 141 27 143 159 64 155 56 241 15 110 50 182 167 243 172 228 75 218 111 96 140 248 162 73 167 186 137 47 83 40 88 16 
225 71 137 246 199 1 5 21 33 81 2 35 114 2 49 135 228 149 217 12 105 234 62 133 117 233 229 127 230 90 247 175 151 78 217 119 186 220 217 181 196 47 108 116 225 254 103 231 73 232 143 185 140 138 28 37 224 200 203 202 107 134 46 114 107 164 22 76 238 116 190 62 44 46 77 243 229 163 186 215 55 94 239 95 38 70 244 54 16 232 97 192 91 97 103 197 180 157 25 154 
247 106 32 193 209 98 97 57 40 40 95 249 145 147 118 17 136 109 166 199 249 11 119 107 224 18 171 153 163 15 112 62 233 68 169 234 12 128 11 77 194 183 72 209 51 222 67 210 142 41 176 225 9 236 140 216 46 87 66 41 177 18 86 206 188 127 206 32 153 80 176 208 84 79 139 235 250 89 235 41 47 13 42 22 212 203 131 31 203 62 120 248 112 255 107 32 138 222 101 86 
224 151 7 144 103 223 132 46 236 47 57 51 39 62 105 238 240 135 240 253 10 138 52 56 231 246 227 169 87 51 242 207 75 154 69 11 180 102 155 84 234 213 244 23 184 249 93 41 16 229 243 71 130 247 12 148 89 242 138 185 107 174 213 17 223 37 153 36 21 113 76 117 34 48 22 55 209 208 17 76 160 128 91 114 176 64 32 238 13 108 242 30 203 120 74 40 220 238 254 246 
10 26 117 9 227 3 8 255 67 184 88 87 17 106 113 114 172 10 242 172 199 113 181 202 25 45 64 70 136 63 69 233 250 72 6 42 36 122 77 148 23 5 124 227 44 91 69 219 158 5 129 227 63 78 89 198 245 245 138 95 77 104 72 84 228 241 215 184 111 124 200 28 218 174 9 142 6 168 106 220 184 235 175 14 161 247 152 151 171 184 112 227 52 113 53 231 219 174 161 18 
66 43 63 200 68 249 36 186 115 20 10 210 163 202 239 197 22 243 70 22 215 73 210 31 146 192 86 230 216 42 166 212 191 90 77 124 111 159 56 49 112 55 233 41 250 25 106 221 7 220 93 250 183 174 38 184 85 29 75 189 20 75 127 204 65 230 55 203 251 10 185 188 88 218 86 217 46 162 213 150 156 93 216 246 209 247 220 163 212 55 75 128 72 87 246 219 185 140 209 37 
201 15 73 26 54 197 22 104 22 123 33 76 231 156 252 156 8 88 60 118 112 193 198 147 84 83 68 104 246 238 99 206 105 23 93 55 87 12 125 154 41 29 149 229 113 18 61 74 78 163 207 59 131 209 79 106 90 219 97 59 146 245 193 2 15 73 246 146 70 152 8 249 184 166 151 223 208 42 195 31 211 140 43 30 31 228 109 203 23 216 130 146 240 172 144 175 170 67 36 7 
143 136 161 14 227 216 242 93 145 183 235 136 59 198 48 178 103 60 206 60 157 134 47 120 10 115 183 243 91 39 166 27 29 240 50 175 40 173 143 83 26 42 206 157 255 135 236 193 181 87 197 8 52 116 143 166 37 37 62 152 202 20 195 88 43 29 109 109 129 78 69 143 214 93 189 157 31 182 124 11 12 54 53 16 175 23 203 131 159 120 63 83 40 48 85 127 54 144 159 88 
71 7 125 163 169 113 243 72 243 138 185 105 139 206 154 44 62 188 141 37 249 200 219 165 177 77 10 210 192 17 136 145 59 55 208 160 210 79 232 228 36 212 89 141 52 216 245 43 154 146 191 199 252 134 70 143 156 171 50 191 38 220 35 143 201 56 242 30 15 166 3 102 50 114 226 180 69 75 132 68 31 117 38 92 239 247 253 234 97 77 56 17 201 50 27 1 232 209 198 160 
164 27 72 140 191 121 29 254 103 215 181 89 249 105 50 209 116 184 82 187 116 185 209 220 178 234 49 133 145 251 136 41 37 85 161 12 102 1 72 99 101 121 163 82 47 6 82 27 202 207 146 190 254 187 181 182 149 162 23 167 108 75 134 123 199 224 118 173 176 47 3 62 21 195 152 26 108 107 163 108 12 76 75 108 239 190 41 227 251 237 95 93 66 161 141 26 170 51 67 149 
101 131 74 177 204 88 166 228 29 33 118 136 239 114 57 221 162 117 179 172 30 242 229 93 8 250 130 217 22 164 190 138 151 112 251 95 46 241 204 3 246 238 5 207 96 75 3 14 230 21 9 245 140 97 6 107 163 73 56 250 74 37 193 22 63 176 66 202 17 40 57 105 145 30 157 110 233 244 54 246 131 72 71 236 90 45 112 101 115 44 93 49 224 84 172 51 139 70 246 148 
168 89 32 138 156 212 31 32 30 73 210 28 187 245 62 187 0 241 216 188 248 69 147 11 220 16 36 218 166 74 118 50 3 171 136 20 150 233 204 82 111 208 222 183 151 158 216 241 76 169 216 164 22 139 133 44 12 149 170 84 134 207 190 121 188 17 89 210 231 159 167 11 23 48 15 215 224 129 18 106 81 154 156 153 65 84 172 78 120 27 234 131 143 133 154 37 232 140 119 126 
235 144 69 200 168 152 42 38 48 244 83 250 244 47 117 154 204 153 40 14 82 95 49 61 38 159 83 181 146 200 90 80 192 121 210 27 99 16 203 69 52 209 73 167 162 226 154 208 26 54 117 136 1 236 108 2 152 128 228 108 45 172 229 75 233 184 104 103 204 253 104 248 217 216 135 142 12 119 72 223 88 63 21 254 255 37 173 24 127 87 56 233 10 236 110 102 97 8 190 255 
133 247 211 79 83 138 66 194 163 161 71 42 21 137 125 188 249 50 83 147 70 178 162 193 118 13 111 133 60 50 215 177 173 108 197 32 224 33 238 174 21 113 182 154 154 162 165 23 83 35 228 30 112 172 197 190 60 225 96 152 248 231 54 221 145 101 103 143 215 20 175 196 142 200 55 150 249 132 55 62 78 30 100 171 63 225 239 162 96 138 220 138 236 230 181 82 228 232 187 255 
215 57 134 68 25 204 124 126 219 85 121 221 120 3 31 217 187 95 159 5 71 244 12 113 254 247 23 98 164 105 92 101 186 70 29 170 78 77 66 191 208 72 203 207 197 23 5 200 14 26 236 145 140 36 78 45 162 193 220 116 10 74 127 59 44 165 75 44 201 193 129 94 140 46 119 118 36 169 130 186 232 250 60 132 23 171 67 75 158 173 171 112 121 134 186 87 52 6 140 53 
83 77 242 76 80 32 66 96 65 142 208 243 80 48 65 138 158 37 28 32 33 84 6 193 251 39 10 30 130 116 213 77 147 207 100 123 6 132 73 42 202 189 249 220 227 93 48 107 206 129 40 207 84 184 116 132 162 78 72 255 95 132 157 96 221 141 76 253 53 128 215 129 194 127 75 158 208 47 73 213 65 107 25 212 209 112 205 81 37 112 168 6 140 249 50 24 223 101 120 162 
32 235 245 189 213 242 227 66 63 146 200 172 49 211 22 83 35 190 161 18 194 70 225 135 100 62 241 92 151 71 81 235 214 8 114 80 243 67 94 211 197 211 190 41 173 27 158 95 108 90 254 95 116 17 233 198 64 99 173 194 81 240 238 171 85 18 108 39 225 11 9 153 158 46 238 55 114 142 75 227 251 142 86 51 134 21 232 99 233 145 43 30 194 117 88 25 68 170 192 118 
138 240 157 64 77 252 177 111 143 218 72 148 235 169 72 180 171 48 10 198 9 71 30 152 160 206 31 102 62 150 0 22 225 127 194 12 87 83 226 36 160 151 23 147 60 114 3 142 62 32 91 228 227 122 94 43 110 2 180 215 116 178 6 221 29 233 173 132 181 61 16 58 12 82 9 18 127 216 33 98 92 14 60 115 27 170 246 254 81 111 125 144 142 83 148 40 21 181 121 159 
91 60 13 99 170 178 204 104 74 206 153 19 3 127 191 19 248 246 64 84 13 82 68 228 146 244 207 155 207 113 112 115 29 167 103 250 248 54 113 170 74 93 82 6 79 171 183 233 243 129 215 75 65 191 186 108 154 221 171 208 93 151 254 147 11 12 70 234 164 192 58 63 121 83 161 238 41 42 224 245 214 48 210 22 122 174 127 249 3 255 136 116 204 33 167 150 166 182 41 211 
56 119 91 243 151 225 125 90 179 35 95 149 206 218 34 193 235 98 60 151 38 29 101 108 230 144 219 150 24 115 67 199 231 76 20 133 93 172 186 97 219 2 186 75 219 192 73 182 225 137 101 247 172 221 189 187 225 133 213 85 220 98 3 55 153 91 79 226 92 59 225 144 254 198 146 140 221 101 174 80 167 216 213 72 134 239 39 37 164 250 107 167 184 123 39 149 11 150 41 134 
55 69 179 137 241 210 177 114 254 55 202 169 65 158 116 94 36 173 103 250 116 118 165 14 139 35 211 234 174 204 63 169 57 64 25 130 40 248 152 71 171 2 115 86 63 252 41 176 144 162 182 155 8 102 177 103 11 246 60 97 253 78 184 118 111 53 55 204 112 141 135 61 76 115 127 7 194 239 206 13 165 90 41 143 3 246 247 9 218 53 143 11 44 11 27 182 228 79 206 84 
240 94 79 247 21 140 59 205 44 138 216 155 241 63 149 133 72 121 102 255 28 56 172 45 103 145 69 235 48 14 98 60 22 105 45 109 43 126 0 96 26 239 17 92 215 9 65 193 255 192 124 231 99 134 97 145 163 16 82 233 253 229 216 109 9 207 130 230 198 123 119 102 59 6 145 212 17 200 55 248 69 243 51 13 115 185 229 175 217 109 3 89 134 80 204 190 13 11 109 54 
172 99 97 19 13 138 42 28 80 16 18 109 9 125 208 68 131 27 157 113 3 136 242 89 229 153 19 144 31 8 181 230 135 241 131 108 191 248 29 120 35 241 199 145 169 78 164 11 166 83 174 61 112 101 61 14 99 217 21 236 0 87 126 65 201 162 211 32 12 68 223 181 179 112 30 156 142 128 216 194 91 110 228 250 42 81 212 121 33 241 29 43 188 151 24 42 24 9 204 228 
19 202 13 137 247 7 120 158 218 28 138 141 192 49 237 232 162 38 117 30 6 232 14 239 154 1 99 19 234 166 3 100 18 144 171 124 124 89 171 242 63 197 98 78 141 98 200 222 167 150 29 118 147 40 34 206 209 128 6 158 55 144 139 129 169 20 215 249 22 248 22 77 243 222 49 231 183 101 34 67 30 32 231 241 46 95 186 174 248 232 15 22 137 243 227 166 20 59 223 222 
160 144 145 150 123 29 143 226 63 178 209 210 152 216 201 214 11 153 23 84 90 164 146 162 150 3 213 221 19 255 105 180 25 78 102 214 133 127 70 107 13 106 132 33 12 154 249 37 147 209 52 158 131 238 59 63 230 94 155 179 167 54 129 124 23 27 145 62 210 163 116 200 152 149 207 147 7 116 168 218 46 2 90 133 174 70 36 39 181 189 173 112 242 65 126 114 218 162 214 167 
204 245 15 121 103 16 50 197 199 208 136 155 46 43 248 84 126 38 20 90 126 163 65 145 211 243 163 199 93 158 203 243 20 148 211 77 203 65 205 32 223 45 2 71 198 96 21 172 121 92 224 171 63 153 181 255 17 35 128 114 182 56 181 141 155 153 72 159 58 134 192 250 255 162 174 23 226 186 110 171 177 47 18 134 230 33 7 147 48 82 123 205 42 120 0 62 76 30 113 17 
171 191 196 64 46 52 237 61 175 172 60 26 97 254 181 192 125 190 227 194 151 166 199 163 115 146 253 94 6 206 60 252 239 253 98 172 195 95 199 57 65 164 205 1 196 186 178 27 50 27 39 1 149 160 38 31 104 83 205 123 65 65 174 224 139 205 149 117 174 116 105 190 104 224 17 35 137 254 234 128 5 196 119 136 72 43 231 88 217 146 247 209 28 1 33 68 195 167 143 87 
22 154 241 68 145 46 5 234 156 17 22 252 213 19 149 108 218 171 162 194 195 149 148 185 204 56 12 171 175 219 65 188 123 109 85 253 57 127 198 109 126 123 12 11 110 102 98 206 153 184 104 173 126 95 192 32 183 185 201 60 168 160 158 5 239 235 152 86 143 201 49 34 231 118 215 68 93 220 204 161 117 114 221 45 106 154 24 34 10 230 72 86 19 218 184 113 111 218 42 97 
6 237 243 137 94 83 243 134 93 29 196 39 98 223 161 213 125 98 234 175 189 222 142 110 89 111 9 190 188 0 19 179 217 245 112 212 28 250 58 74 235 206 228 154 162 83 127 43 119 135 223 52 134 8 116 224 218 46 216 145 188 188 236 226 126 49 24 154 186 99 13 40 186 144 72 22 29 253 226 15 188 229 203 174 33 120 114 38 86 99 56 156 24 154 241 235 247 5 65 217 
8 244 65 63 221 50 189 247 177 10 226 218 164 27 132 83 90 76 48 6 52 235 104 168 158 105 74 191 232 122 192 165 193 126 230 109 243 201 57 231 39 29 186 62 63 107 62 221 206 20 22 118 132 201 171 138 168 250 115 145 242 172 134 181 162 42 0 182 214 44 50 55 24 55 108 195 120 145 96 205 162 4 110 54 101 104 38 16 18 160 20 97 34 18 164 119 5 20 178 142 
17 143 159 171 255 0 68 88 235 149 78 246 198 36 236 214 139 58 119 79 104 55 231 253 80 94 247 10 101 37 103 164 35 229 164 85 163 243 25 219 76 223 144 245 130 89 183 7 145 67 225 72 207 13 175 230 143 179 55 17 192 110 211 206 113 179 138 67 92 118 204 3 174 104 117 171 195 174 177 180 12 183 142 243 39 210 52 179 121 88 74 92 251 133 195 183 151 20 229 90 
43 219 105 132 205 228 223 72 83 140 36 162 217 96 210 144 53 178 103 159 63 29 76 0 127 206 63 135 85 198 42 216 1 0 82 201 106 207 140 192 252 55 9 168 153 150 212 49 92 133 9 162 124 63 73 152 137 8 51 234 130 134 110 127 1 24 224 237 6 124 25 128 193 205 95 234 90 37 245 214 149 93 64 103 200 164 6 238 37 147 176 124 46 89 5 174 3 153 250 178 
188 133 212 170 51 128 171 198 104 216 63 22 25 146 20 13 29 181 82 12 230 181 156 190 238 100 223 128 170 44 159 123 241 238 25 237 164 238 82 209 176 91 162 215 122 232 230 138 205 156 113 32 218 118 204 84 232 188 158 213 39 177 242 228 214 123 27 171 251 165 117 17 33 147 47 50 233 107 92 195 122 145 45 199 67 57 191 209 76 80 118 71 185 158 187 19 43 221 101 132 
80 61 99 77 223 124 160 232 98 194 212 238 183 234 9 237 216 14 105 6 62 26 84 170 226 163 146 157 103 157 224 14 154 180 62 16 239 70 107 177 198 69 17 166 34 234 4 221 182 64 185 29 135 3 129 160 232 127 211 40 235 209 67 63 143 224 79 10 97 106 199 88 169 209 36 143 5 81 229 164 107 172 1 101 132 199 83 246 222 21 36 45 59 155 61 33 75 215 251 184 
170 249 137 126 157 225 64 93 196 224 63 138 82 202 206 233 135 8 214 196 48 62 189 1 90 242 93 83 34 104 230 86 53 194 217 229 185 235 156 149 71 203 185 209 163 241 54 24 137 132 245 99 251 44 174 112 156 178 120 90 42 203 18 114 84 119 52 23 104 148 103 242 211 10 89 159 39 147 67 246 27 126 161 95 5 22 33 247 95 239 67 199 155 19 175 143 217 229 88 49 
180 60 94 227 48 248 98 143 100 114 33 212 6 239 168 245 67 121 193 207 229 77 42 64 95 226 35 91 53 235 85 97 74 50 102 40 10 178 242 60 222 169 60 216 92 160 251 240 115 75 116 219 210 161 101 255 204 48 58 150 169 33 245 114 201 68 241 104 72 244 140 204 114 173 149 184 27 181 109 199 62 216 50 106 104 172 83 205 132 7 195 72 180 149 86 238 181 10 105 189 
222 202 108 239 59 73 6 101 213 223 117 143 197 172 3 27 82 162 174 16 83 239 217 92 230 33 235 200 51 99 179 229 87 207 118 72 82 72 7 37 40 232 248 164 243 23 89 82 21 130 57 160 195 115 193 210 128 139 28 173 0 38 201 153 248 98 179 14 21 198 22 127 38 20 199 190 70 38 254 32 62 94 28 32 242 118 207 72 250 31 196 22 75 121 251 223 137 208 4 255 
6 169 179 76 129 147 131 157 215 165 217 38 38 183 118 252 240 236 109 44 97 113 101 18 120 85 237 254 41 170 213 129 223 135 74 213 115 50 213 247 163 206 242 147 141 121 180 42 168 22 119 251 214 126 199 188 117 87 2 206 59 186 206 63 43 227 201 242 143 86 29 169 38 33 176 110 160 32 94 61 86 137 91 27 163 245 191 21 227 199 21 168 51 144 169 177 165 221 96 51 
109 241 134 50 34 239 149 57 238 17 248 149 144 239 236 98 64 243 183 112 50 249 20 22 209 178 86 242 18 221 227 40 230 54 20 149 202 217 47 200 165 141 225 22 5 250 137 27 170 204 107 161 16 55 67 226 225 73 10 245 23 142 162 200 241 135 230 150 84 196 103 52 30 212 226 140 69 26 212 61 218 181 134 88 82 108 205 24 205 157 231 212 59 17 100 41 77 13 196 57 
134 167 94 86 77 65 34 238 48 247 119 214 209 128 208 78 197 75 58 58 38 76 71 231 152 155 240 100 149 102 52 248 148 194 29 248 151 96 148 123 87 41 6 21 8 131 9 188 149 66 78 41 14 148 156 234 133 242 221 43 83 179 197 124 146 92 75 249 4 72 168 146 140 76 167 110 176 84 219 22 139 207 75 78 241 188 176 158 101 242 49 138 35 162 184 185 183 99 6 158 
59 2 183 125 42 197 33 155 179 160 39 24 185 236 54 51 94 2 20 161 236 107 6 124 236 52 239 131 0 117 102 235 97 104 70 254 134 189 95 246 122 116 175 49 162 220 72 151 30 224 44 145 166 89 213 228 179 60 146 221 106 76 26 30 35 25 200 123 12 215 233 134 211 139 193 80 62 0 188 114 15 112 5 6 31 252 47 193 209 97 75 187 40 155 228 123 159 192 199 96 
46 216 204 43 217 157 71 92 81 74 205 252 15 168 39 131 190 20 131 173 49 62 202 141 98 222 111 151 140 241 135 3 231 195 183 6 244 102 200 133 9 233 45 61 0 241 65 169 5 163 20 177 75 184 145 169 253 65 254 104 65 251 209 213 240 24 77 52 157 122 189 183 2 174 170 94 224 231 116 87 139 43 182 28 103 95 117 170 37 50 140 255 226 159 17 58 215 165 60 45 
2 239 185 98 252 34 192 121 26 77 137 124 164 18 254 234 213 172 95 117 52 19 252 220 116 106 8 76 245 169 3 158 22 42 166 182 97 97 133 131 131 183 127 194 247 30 211 210 202 122 39 156 179 38 174 51 69 2 17 150 98 249 38 17 21 156 84 197 78 131 117 133 131 130 8 2 38 235 91 216 117 74 194 30 154 60 186 92 159 242 154 28 193 162 162 151 1 217 52 42 
141 57 204 107 26 247 226 195 20 176 31 33 242 222 5 151 231 151 150 38 129 107 138 28 36 64 92 11 6 183 234 152 193 15 4 125 72 55 248 249 83 104 48 83 149 219 147 94 199 165 221 150 147 33 200 195 214 68 18 72 178 167 19 253 161 139 162 230 31 172 60 13 68 187 4 112 9 86 221 130 209 154 140 255 160 186 204 113 154 171 2 9 121 3 42 229 26 216 67 181 
217 23 25 115 230 149 123 74 67 232 25 194 62 156 17 238 215 90 246 15 33 73 177 163 226 217 173 16 168 242 8 41 137 152 134 193 20 39 86 198 73 59 214 107 107 218 6 168 63 75 138 102 54 31 70 226 32 109 220 126 146 147 209 135 172 145 152 122 112 202 6 197 110 210 28 47 247 135 133 250 107 123 76 184 40 238 141 201 151 73 132 171 202 211 44 152 144 227 191 237 
228 76 176 169 36 76 210 151 197 210 4 166 59 112 83 200 74 114 27 129 112 197 24 134 182 47 138 137 136 114 212 179 45 178 15 240 242 35 211 77 168 95 246 45 129 96 113 15 73 235 78 118 165 190 48 196 18 134 173 11 80 234 116 115 234 97 113 152 41 54 156 122 146 249 40 64 144 28 184 128 232 126 73 251 68 121 175 249 153 206 240 64 246 84 9 130 132 215 131 23 
159 115 54 94 62 37 62 154 40 236 112 213 30 110 3 133 243 82 210 222 38 164 233 80 101 72 148 57 47 19 237 181 23 230 34 129 228 97 240 149 158 149 255 179 114 165 172 94 221 6 137 115 117 8 207 204 185 64 228 123 64 24 137 109 164 234 204 137 163 58 70 46 239 240 232 249 37 38 87 63 120 189 130 231 234 86 5 84 154 237 62 17 192 122 233 202 220 212 27 189 
117 6 13 191 225 198 72 150 213 217 219 27 93 34 209 247 82 57 182 54 238 46 24 210 85 48 37 185 197 179 187 184 24 69 135 112 190 124 247 118 139 47 171 50 173 189 44 177 224 214 196 67 96 171 245 43 209 229 14 33 139 155 65 53 131 7 41 112 187 192 95 30 71 33 107 58 57 249 33 223 94 65 56 66 186 208 13 113 215 33 28 95 188 218 234 21 234 183 99 117 
186 167 53 242 148 209 133 49 75 59 220 70 234 141 4 141 187 244 156 121 123 176 95 132 244 219 108 225 186 47 91 223 96 63 67 54 216 100 96 214 49 241 10 167 5 106 150 55 65 27 112 123 195 156 213 40 85 160 138 118 74 13 141 139 165 178 93 208 251 49 93 201 158 237 218 75 245 141 2 142 211 22 191 213 170 27 193 11 103 10 10 219 236 7 232 197 130 54 167 109 
10 96 72 246 17 248 204 150 180 170 146 102 154 81 174 21 210 78 119 173 43 76 249 119 123 18 152 197 92 129 87 48 115 43 69 9 207 160 231 184 99 253 21 77 17 0 125 88 172 94 212 148 96 45 205 131 219 112 194 199 61 96 231 5 99 246 169 13 214 217 90 77 16 40 179 3 214 186 58 135 210 134 136 96 148 130 206 177 229 19 112 111 63 130 86 228 63 99 3 156 
141 176 6 175 167 75 240 81 230 57 220 188 172 253 173 44 73 86 80 63 215 105 220 89 33 35 65 191 82 225 101 66 17 28 143 17 205 126 151 219 203 212 43 33 164 130 135 163 188 48 34 137 124 119 240 147 10 92 241 164 70 93 228 215 116 31 199 130 252 188 24 86 44 31 229 24 205 254 47 162 68 25 59 14 227 126 136 27 98 126 19 26 196 61 86 61 9 136 57 230 
