P2
100 100
255
137 184 223 138 171 61 122 22 101 233 112 178 253 226 112 10 107 231 110 60 165 17 155 137 176 255 20 34 104 232 254 183 180 194 134 205 186 45 169 166 1 243 88 158 3 209 95 41 238 205 60 95 34 142 147 200 104 60 4 221 103 104 211 89 68 176 53 44 27 19 64 40 140 114 222 177 103 196 104 173 77 152 97 227 185 14 203 58 92 223 248 133 130 82 137 248 102 183 252 118 
124 119 9 35 3 241 71 52 130 165 89 221 247 235 250 75 156 62 2 110 154 112 78 233 199 121 170 189 32 84 125 204 158 231 135 29 136 60 163 31 50 114 255 219 140 142 249 75 33 153 236 162 109 163 74 64 134 239 143 140 93 194 47 131 216 239 198 101 105 93 106 128 231 187 105 48 193 166 85 176 30 143 78 35 8 98 57 229 79 192 78 186 15 80 234 64 203 215 53 163 
125 127 182 162 146 153 33 227 157 221 121 171 127 201 150 143 95 29 202 225 118 190 190 255 34 33 211 48 22 170 227 246 200 133 161 76 44 77 165 209 69 118 107 21 201 122 49 99 128 215 32 121 186 201 57 186 154 83 85 99 151 70 252 110 124 220 46 109 175 188 155 51 95 145 172 135 122 39 184 206 87 224 10 156 162 109 112 19 102 125 104 251 193 231 144 163 45 245 179 90 
141 145 72 154 202 225 240 106 178 61 218 213 128 208 49 171 60 87 245 206 36 9 64 101 124 169 196 236 99 148 235 83 228 201 111 253 204 30 99 185 197 145 106 215 0 165 180 67 45 107 206 22 107 30 56 11 68 99 215 65 159 121 233 183 213 194 168 194 203 63 141 87 62 3 233 237 212 30 90 7 200 37 56 241 245 145 92 248 82 144 132 23 31 255 133 66 221 33 231 20 
90 182 153 11 174 206 230 91 137 197 226 69 229 7 26 67 250 36 144 95 233 172 229 155 100 220 97 13 2 71 88 158 166 43 125 172 64 76 191 18 23 236 109 172 105 10 202 130 161 44 141 81 246 235 205 86 7 150 8 62 81 213 176 41 97 63 33 236 95 189 233 48 157 239 91 114 190 250 171 255 117 130 225 59 219 137 252 187 49 250 178 250 58 90 14 53 221 103 89 117 
57 89 244 222 67 238 158 172 206 205 144 97 158 236 157 5 2 245 140 146 10 246 248 34 118 122 37 117 54 114 195 189 164 200 234 136 143 30 154 122 18 97 252 238 24 126 30 127 170 225 32 3 92 111 1 118 252 154 46 122 151 67 174 144 23 21 194 111 212 229 33 59 62 127 211 160 65 38 8 71 225 33 102 188 62 5 214 36 182 98 234 25 240 42 146 115 109 33 215 97 
100 178 188 106 249 85 90 110 57 88 35 172 64 115 85 204 245 131 167 66 111 73 196 244 225 87 203 129 8 112 220 111 250 59 8 41 232 41 250 127 76 86 176 214 48 50 65 102 238 248 224 133 242 7 66 166 32 206 2 86 251 2 71 58 185 208 190 67 69 63 105 49 45 214 15 215 197 80 88 41 5 157 184 32 11 89 183 243 239 172 179 22 101 251 115 49 172 137 240 37 
243 151 149 220 222 131 214 43 116 185 248 113 99 132 188 56 150 59 149 191 227 142 205 74 108 189 255 133 174 243 221 181 103 184 156 85 123 217 56 158 87 48 207 253 30 176 191 13 130 160 127 204 185 198 178 35 37 78 39 43 130 17 81 118 28 128 166 28 18 135 93 54 11 71 73 134 73 132 163 131 16 81 255 211 154 120 76 107 115 20 74 66 177 255 214 128 127 177 181 158 
167 133 204 91 145 90 79 209 117 18 0 138 222 13 255 95 151 76 184 130 206 38 223 195 87 190 69 76 118 160 183 81 180 221 217 151 202 225 56 153 145 118 215 219 72 36 42 168 199 17 65 50 170 107 109 69 54 17 245 24 177 8 195 194 246 156 240 110 176 234 195 204 89 248 254 153 168 247 176 215 120 156 58 206 61 67 241 26 32 131 135 199 24 182 5 128 123 22 40 19 
217 64 207 4 132 178 211 72 3 26 254 37 109 59 199 63 92 96 94 236 1 27 123 85 73 216 41 245 153 21 205 121 190 152 189 114 172 211 111 253 45 230 15 88 242 88 93 245 47 69 26 237 145 16 10 214 196 71 98 133 198 151 124 176 16 43 178 87 50 79 102 116 87 55 11 204 17 17 236 82 105 242 6 214 17 3 82 127 48 126 195 153 155 136 148 52 66 27 112 54 
73 219 168 51 45 126 70 211 218 233 7 118 208 187 194 124 96 182 208 207 150 35 1 46 100 1 241 208 112 236 73 103 93 240 106 40 70 246 151 223 61 220 21 235 189 80 192 41 41 59 173 117 90 133 63 121 142 33 235 135 28 153 35 51 72 95 57 132 64 74 75 236 127 234 180 155 246 154 65 206 94 173 90 169 29 140 175 77 85 83 153 114 76 121 228 246 230 223 1 187 
132 167 238 79 134 14 108 107 140 247 154 148 19 170 163 2 89 212 104 213 77 56 35 140 122 131 199 254 55 8 184 251 219 195 226 129 18 229 27 213 146 184 101 12 194 101 225 199 91 70 31 193 78 85 164 182 58 243 121 40 95 51 149 205 179 81 66 147 230 64 246 132 186 36 194 254 153 160 138 78 132 5 90 186 204 0 150 251 245 240 50 222 34 215 212 85 90 100 201 40 
232 88 3 4 214 57 47 50 171 9 34 51 215 196 187 206 186 174 249 20 146 98 245 241 45 255 160 164 64 148 147 236 131 10 12 16 70 216 157 47 180 203 170 150 115 239 119 89 95 145 8 203 78 91 114 137 43 208 63 140 51 194 75 19 76 58 221 2 115 126 124 21 31 101 196 5 43 19 121 244 83 85 32 178 62 246 150 29 87 134 231 122 34 86 200 66 242 52 56 255 
186 125 236 157 118 110 147 218 55 62 161 31 50 63 191 162 85 61 156 172 172 78 19 234 144 236 177 123 217 122 148 92 113 94 117 3 79 11 103 94 242 2 198 118 58 198 172 86 174 228 119 171 95 31 201 152 127 65 12 47 238 209 14 224 19 200 6 216 197 253 5 63 63 89 143 1 51 50 104 174 8 127 69 250 151 192 82 118 129 6 159 173 39 118 84 61 253 112 48 240 
224 58 54 145 33 152 86 252 19 182 190 98 28 114 210 176 234 45 169 186 89 27 241 132 180 134 228 53 152 114 210 114 170 248 158 5 81 216 13 116 86 141 10 247 192 19 152 191 182 8 240 70 180 38 149 215 186 154 119 83 19 113 153 221 93 7 122 50 11 225 33 214 60 43 11 174 52 111 152 141 82 14 209 172 106 84 234 178 4 184 62 2 96 2 162 244 92 225 227 193 
165 30 76 181 84 31 158 6 113 174 127 32 209 228 251 139 15 176 144 23 128 192 92 79 87 2 114 253 122 68 186 26 79 111 93 116 94 44 87 17 141 90 173 213 194 48 144 186 224 19 194 109 27 77 243 132 97 240 83 175 140 61 138 228 225 66 213 205 22 15 7 114 62 228 196 118 81 158 202 136 185 152 138 163 238 121 189 211 0 238 66 140 114 114 218 94 159 129 231 34 
173 103 173 102 212 221 148 62 140 43 9 69 162 247 40 201 167 71 87 194 10 60 190 227 173 45 143 15 16 128 158 118 120 83 137 20 131 179 143 81 80 205 248 235 29 213 35 95 78 231 23 204 24 245 93 82 111 67 129 186 176 205 48 198 181 225 184 122 252 182 179 59 251 151 189 88 217 34 50 62 33 46 220 160 173 236 113 19 15 127 82 193 82 60 94 1 51 55 48 109 
122 22 155 68 161 79 77 137 169 139 119 41 24 211 21 186 211 18 92 82 39 70 22 150 167 70 36 17 164 58 115 50 20 93 96 114 250 115 6 75 60 74 121 241 2 59 206 179 27 246 126 120 52 4 7 164 132 25 74 201 208 111 165 251 139 37 78 9 114 191 147 26 215 6 13 91 203 167 248 152 38 116 122 86 133 65 59 87 233 40 71 243 54 26 128 225 158 60 182 234 
94 166 107 46 200 127 138 126 37 163 140 103 173 141 55 7 74 245 97 114 80 244 199 44 17 56 166 199 218 8 206 241 59 227 251 84 170 172 246 64 186 211 100 7 117 34 30 248 187 119 39 230 52 122 22 249 100 152 199 224 126 227 53 89 63 77 46 211 70 89 79 111 80 99 175 219 15 250 64 231 243 135 197 3 175 204 107 171 49 68 232 248 133 86 116 3 105 21 8 103 
94 186 132 7 248 163 163 62 164 185 25 86 252 2 2 2 221 145 55 45 61 10 62 54 133 221 92 212 45 131 77 13 27 102 196 236 225 194 198 201 179 223 162 215 177 51 121 200 163 68 249 42 186 21 249 126 197 46 25 188 91 190 169 249 45 152 117 22 254 228 158 199 126 119 187 237 104 31 85 26 228 73 150 177 150 255 230 34 42 159 94 220 105 104 62 176 195 232 130 26 
205 108 246 84 207 77 140 39 197 245 94 121 206 189 176 126 64 204 213 118 36 198 147 53 205 195 25 166 164 229 65 137 111 116 3 3 10 3 80 135 234 170 209 94 75 104 62 53 159 229 248 43 124 240 191 233 185 102 48 152 102 92 200 97 76 128 196 14 115 25 57 95 243 210 24 151 71 83 223 120 63 71 133 138 195 92 108 74 195 243 28 0 246 202 53 150 137 60 238 163 
161 147 15 92 32 66 150 11 58 63 35 4 88 80 253 35 47 224 134 122 140 255 110 123 106 161 251 238 29 197 28 222 35 198 124 63 62 35 180 228 113 108 244 183 10 112 106 212 182 143 103 154 223 36 137 132 99 11 122 52 206 82 125 175 47 163 153 152 138 244 207 124 173 124 226 248 207 98 254 240 217 185 81 22 251 161 60 0 58 239 179 21 96 76 131 82 238 149 233 15 
111 18 63 184 77 91 149 62 51 97 129 94 86 37 173 178 145 152 111 205 7 78 183 223 140 183 103 92 254 3 157 214 154 152 237 9 124 69 105 67 1 87 105 23 251 146 80 4 72 71 143 237 253 89 107 52 89 163 11 29 159 151 244 2 111 223 205 111 159 134 166 73 249 141 211 35 236 234 135 214 91 83 20 67 139 19 193 29 203 31 208 104 140 239 134 235 33 145 33 7 
43 136 138 107 244 196 172 51 130 201 202 2 126 124 101 127 142 98 26 65 180 162 66 79 88 212 222 245 65 0 178 21 140 254 250 229 201 221 142 244 74 178 111 0 21 208 125 85 23 163 183 2 53 86 49 196 182 128 229 127 45 86 77 245 127 149 180 171 145 72 52 130 143 213 95 179 33 126 53 243 155 116 172 37 10 3 47 161 199 84 102 230 8 85 125 196 122 252 168 179 
244 28 121 103 247 87 174 126 128 212 6 111 189 74 251 134 220 150 98 72 143 0 212 74 253 222 210 58 199 234 37 62 50 143 213 69 191 91 11 129 243 180 123 88 108 61 37 85 163 117 153 248 244 150 118 253 244 54 249 215 66 228 158 137 223 244 139 53 176 94 163 139 158 43 217 139 19 176 82 23 6 89 190 197 221 230 141 54 131 79 158 163 137 239 98 131 10 214 63 109 
99 74 178 223 67 67 150 96 80 205 55 22 138 151 52 22 202 132 104 4 203 224 236 40 53 222 196 221 115 254 251 105 118 73 212 38 59 42 195 19 113 104 17 254 18 9 148 10 176 41 151 199 134 235 175 108 4 236 69 115 80 165 32 47 204 19 213 186 18 34 91 184 219 97 129 10 143 3 29 150 88 63 155 227 71 128 16 160 56 172 141 58 64 43 36 249 231 149 109 51 
31 167 75 69 91 52 131 199 89 123 195 30 246 37 110 190 167 245 175 80 124 176 13 225 178 103 195 25 214 209 120 185 108 67 66 183 145 224 40 40 202 75 149 82 154 165 193 69 129 198 235 9 32 16 235 177 159 156 243 54 103 160 86 17 199 42 19 145 14 124 104 120 138 240 39 151 43 125 43 103 207 121 193 195 221 159 45 79 211 68 75 161 152 116 154 61 79 155 219 228 
137 27 91 22 98 114 224 82 227 255 146 228 230 146 245 253 1 39 98 232 93 138 209 8 251 175 177 4 3 206 73 208 169 216 188 226 218 243 36 139 31 102 2 18 87 40 73 153 49 21 222 208 78 240 246 163 220 218 82 149 142 106 56 236 171 115 136 17 62 116 180 147 252 104 209 35 227 127 216 208 203 102 230 172 133 102 109 183 183 218 177 175 57 98 106 108 248 172 244 207 
94 207 241 162 165 9 23 73 72 176 154 19 233 176 0 214 251 74 187 214 163 88 142 204 216 5 109 28 51 23 251 166 112 149 206 191 248 120 39 15 63 160 142 102 185 12 177 14 167 254 198 133 111 172 185 173 218 107 73 44 36 157 133 144 62 73 121 35 24 198 67 133 74 214 152 248 159 203 198 178 238 113 82 210 45 5 49 173 144 195 187 51 5 180 223 23 154 219 13 49 
32 157 249 134 107 58 9 148 95 138 107 116 15 161 57 103 108 181 206 22 172 12 232 75 94 45 11 153 136 225 179 251 250 149 92 0 55 238 86 100 189 238 152 67 54 169 23 157 26 11 255 8 136 144 138 50 48 212 53 233 128 33 12 162 206 146 105 91 25 197 197 188 16 55 245 218 254 236 127 51 86 94 223 159 32 252 153 211 19 115 137 101 135 44 252 169 59 80 80 167 
3 169 242 25 121 39 102 201 5 246 208 46 14 10 220 35 85 197 12 7 252 21 194 63 30 211 112 214 205 11 172 96 83 43 246 7 171 131 79 66 249 68 22 15 10 208 96 76 55 242 5 3 201 56 239 193 35 240 107 2 126 233 179 168 222 65 246 124 254 102 32 57 76 96 186 228 97 68 243 59 119 99 29 81 75 239 25 230 157 88 106 146 217 85 178 99 223 173 115 181 
101 27 89 158 67 60 203 221 117 69 38 151 15 148 81 193 190 37 242 251 25 80 170 167 131 45 172 86 32 165 11 190 90 27 198 122 166 175 65 38 181 167 1 88 195 5 170 105 180 134 189 253 118 210 57 43 155 230 224 203 187 239 125 25 170 92 138 26 18 65 58 49 213 152 65 57 144 110 158 47 172 152 110 127 153 78 133 10 163 236 79 136 41 140 185 242 233 76 255 203 
33 237 129 124 160 244 234 97 249 29 127 229 72 232 166 181 215 255 110 138 131 88 41 142 50 249 248 67 208 138 46 144 184 46 43 164 203 170 228 18 228 124 181 63 65 101 92 144 71 130 72 145 205 77 142 55 9 88 198 86 173 97 254 121 26 48 156 204 243 125 131 193 111 180 227 238 5 54 61 217 201 198 24 96 83 139 5 171 219 192 5 41 90 180 216 64 242 63 83 218 
17 129 62 19 39 106 49 99 24 75 27 225 88 48 223 146 169 176 146 122 227 6 37 237 169 45 152 219 168 73 89 106 245 26 77 180 175 17 187 188 25 69 179 136 43 58 177 139 116 87 245 201 49 1 251 158 27 171 192 54 225 133 170 250 104 125 3 147 100 150 88 11 238 143 32 158 90 244 247 210 161 76 24 207 141 112 94 24 58 30 109 213 211 47 86 41 218 247 159 238 
68 159 251 115 137 73 206 10 247 11 16 171 137 137 127 209 237 233 165 110 20 95 42 150 220 182 57 224 72 78 176 187 55 226 17 96 167 68 28 219 156 183 34 239 161 255 150 129 17 182 161 99 2 245 241 53 149 83 198 68 164 220 55 11 186 239 93 199 160 125 132 92 248 84 202 66 199 150 129 249 24 178 211 99 248 254 35 164 93 8 3 164 33 252 146 131 235 47 253 43 
214 0 9 66 165 227 162 182 162 36 100 214 210 7 1 54 35 72 120 98 239 31 130 231 151 19 209 162 118 4 250 239 53 244 225 165 99 133 124 107 73 173 87 53 181 24 170 218 21 6 138 207 248 176 21 28 80 4 219 119 130 222 84 236 245 84 114 221 152 224 227 26 62 85 242 172 176 193 134 121 161 80 137 183 176 203 114 70 156 166 183 245 27 158 20 66 220 191 142 83 
104 73 177 73 72 107 252 249 106 3 235 133 48 233 189 79 59 150 112 148 118 113 186 71 180 106 103 90 120 135 188 146 155 28 46 205 239 212 145 178 64 202 131 174 123 107 173 166 212 146 217 68 158 36 168 50 9 79 224 121 231 231 18 73 180 18 86 64 219 107 223 60 113 102 30 160 230 182 237 254 161 49 16 108 20 229 1 51 172 3 177 36 246 38 187 166 110 203 141 53 
119 65 100 35 7 1 224 182 153 206 160 189 189 79 57 135 45 129 73 79 181 60 252 55 23 9 249 44 168 58 37 244 255 96 130 227 216 29 72 68 3 184 195 44 237 191 166 41 240 226 186 170 200 242 10 209 186 16 247 155 144 24 156 82 76 175 51 98 170 16 195 157 94 122 193 196 128 79 22 230 119 73 244 15 54 186 114 215 140 89 78 63 151 100 72 229 4 92 139 123 
255 70 143 101 254 227 159 99 227 17 143 204 31 7 43 102 192 206 127 207 8 116 249 235 201 172 243 240 39 3 32 28 57 22 63 91 42 181 3 94 39 122 9 227 26 189 187 246 168 245 160 223 59 151 49 41 125 120 32 84 16 161 132 164 67 200 111 59 108 196 9 131 84 139 31 165 133 200 60 193 51 201 115 43 211 194 49 147 100 116 106 211 247 28 12 47 97 231 23 150 
238 170 130 83 94 146 144 248 9 204 6 131 201 191 62 87 174 12 254 242 75 214 251 54 242 31 14 240 41 194 60 157 2 186 145 198 44 128 78 119 69 252 86 148 78 12 57 180 114 91 226 252 117 162 6 40 242 122 38 24 11 140 193 84 183 17 111 157 155 96 58 46 141 105 207 40 48 38 50 191 198 5 94 253 236 11 86 220 187 29 86 236 201 173 68 54 129 89 145 208 
83 202 63 68 240 149 189 112 169 65 149 235 13 162 187 29 77 142 39 65 4 143 246 90 43 110 88 86 110 56 136 100 169 115 184 189 200 226 33 214 0 169 13 161 108 174 207 85 156 164 168 89 237 235 126 98 62 50 56 24 86 13 210 178 100 147 93 188 74 236 230 11 32 39 127 118 241 139 18 225 196 143 209 222 228 162 53 89 199 149 51 106 20 198 36 214 219 190 196 184 
169 210 147 223 93 188 147 93 247 208 35 161 117 174 237 219 232 107 42 90 11 186 3 194 89 144 23 25 180 143 185 113 23 68 185 150 130 223 208 12 163 163 147 55 4 163 191 200 99 110 57 192 220 158 9 43 209 234 201 147 88 28 237 109 215 139 177 147 202 81 229 26 2 21 17 18 175 143 233 187 246 226 132 135 52 238 155 250 249 35 131 82 203 168 123 147 128 238 62 219 
124 142 47 107 60 76 80 5 135 99 5 54 9 107 198 122 48 227 97 202 224 26 109 175 209 10 210 157 90 161 149 76 169 164 76 60 250 140 81 63 92 159 157 106 168 141 148 232 95 2 116 96 120 67 212 11 123 23 212 108 234 189 50 201 210 43 57 170 99 244 38 126 130 154 187 183 120 27 121 29 179 129 25 71 12 161 208 98 250 55 178 43 58 133 32 50 27 185 140 33 
78 251 182 218 105 165 41 130 225 203 65 2 192 239 187 42 138 46 40 88 212 66 238 228 153 115 123 87 56 38 208 89 198 101 76 56 164 13 218 21 83 27 29 0 254 222 246 96 80 86 90 73 153 181 91 122 190 220 225 252 160 16 109 243 63 166 132 217 248 62 243 78 110 187 159 165 200 232 50 163 129 11 26 223 33 250 124 205 38 110 247 114 202 6 17 62 125 189 206 7 
165 236 50 185 144 194 59 54 79 49 68 119 158 186 236 106 242 120 80 146 32 193 192 130 122 55 68 208 108 79 72 243 29 30 107 208 119 226 120 21 224 254 216 187 143 43 253 187 143 163 236 150 143 133 86 93 29 114 75 87 44 75 8 224 157 225 147 137 10 248 246 104 92 83 142 203 172 30 114 202 228 103 23 33 228 132 78 35 238 40 18 223 126 27 2 48 191 6 211 58 
113 77 126 223 126 130 189 49 253 236 214 221 236 75 143 71 10 153 98 183 222 161 180 18 44 13 45 32 13 98 153 205 166 34 111 160 40 58 15 119 161 151 169 36 201 24 130 172 220 132 62 167 115 81 122 27 41 220 128 190 32 28 30 106 45 161 251 39 227 144 50 140 171 171 195 86 63 22 253 172 29 62 101 79 107 61 156 196 169 155 27 18 157 179 250 211 51 248 94 232 
199 168 42 45 62 239 149 40 2 235 79 130 216 87 243 153 20 54 1 110 50 18 239 69 89 81 128 25 187 2 243 211 48 243 154 92 238 250 69 1 245 178 242 21 24 196 163 83 1 226 239 229 165 106 163 187 226 13 75 42 197 0 28 21 197 81 152 169 130 191 77 149 139 251 104 130 120 161 52 136 28 19 237 166 196 19 248 146 246 45 18 135 238 198 28 195 30 169 89 107 
238 4 184 23 208 144 107 52 172 116 169 29 63 234 232 191 171 56 64 42 65 24 55 177 198 38 16 149 218 84 183 30 254 158 68 198 42 138 210 107 178 20 16 209 55 2 152 218 38 212 194 182 178 84 183 117 229 171 251 111 88 253 193 183 225 74 191 36 246 30 241 179 168 247 104 210 89 161 70 207 133 38 170 118 251 21 237 233 144 104 219 108 252 152 170 190 72 50 251 93 
112 174 166 177 173 74 40 94 223 26 57 79 133 141 203 221 199 186 34 230 137 188 227 121 17 45 81 161 134 225 132 35 136 14 98 171 124 253 12 85 77 153 114 98 228 57 103 174 90 65 146 29 208 17 70 110 16 0 225 127 97 170 66 120 148 168 93 55 253 52 118 246 232 127 104 147 72 167 13 128 112 42 74 195 135 2 115 65 243 122 240 27 143 36 205 204 44 142 194 143 
152 179 124 114 224 131 42 220 175 86 84 254 204 39 251 181 210 128 76 6 235 251 201 84 115 121 115 24 168 131 217 121 147 228 130 17 17 122 49 235 97 185 108 135 254 73 11 175 208 161 238 6 230 40 65 112 32 205 2 235 65 52 232 100 85 156 8 168 66 52 129 116 108 248 67 208 169 118 29 5 233 88 141 198 128 130 160 250 67 131 165 225 255 29 28 205 45 22 242 75 
151 175 0 23 198 128 68 201 166 175 57 124 113 137 8 164 167 48 23 235 89 252 221 176 153 63 134 242 32 0 120 57 65 162 63 144 251 141 54 97 23 140 197 31 87 210 38 134 51 156 119 62 125 68 245 23 80 95 96 202 1 140 142 126 117 16 137 87 126 189 37 152 244 101 252 116 73 192 84 137 177 181 101 127 65 105 228 25 23 42 138 215 147 150 49 66 138 109 183 210 
167 192 191 210 228 53 202 137 67 116 191 200 37 168 215 12 99 17 255 220 67 190 106 21 123 200 151 52 27 143 1 104 225 52 20 222 142 35 70 177 0 63 31 221 64 168 136 113 104 178 46 155 232 140 72 123 105 127 5 90 3 70 221 65 206 92 117 209 251 45 188 70 225 241 146 31 89 132 227 45 166 139 50 126 236 248 243 222 228 106 225 34 17 111 106 27 5 73 202 143 
34 27 41 7 91 20 200 41 60 216 105 182 63 128 209 151 109 236 246 130 231 233 221 61 198 152 203 11 102 108 138 41 242 190 117 44 159 154 222 124 109 53 11 180 67 131 46 65 32 100 63 222 132 245 16 207 208 33 176 54 192 180 220 221 128 237 38 50 75 211 64 205 106 228 60 201 68 66 214 145 32 28 214 3 173 86 215 85 67 75 112 130 254 145 167 24 171 79 0 28 
66 65 72 152 73 26 62 84 50 243 88 255 9 129 255 26 40 30 201 193 18 83 77 151 122 239 173 155 124 228 94 22 86 250 193 62 152 139 236 60 28 243 115 226 156 229 91 28 255 93 90 196 246 246 139 64 138 232 2 184 47 160 194 186 169 72 150 12 14 207 82 208 206 135 83 101 70 13 44 110 234 103 143 95 192 169 155 253 114 84 234 225 223 112 62 250 215 243 253 147 
82 147 235 160 78 113 31 15 121 125 77 209 33 38 210 23 33 32 118 10 40 203 66 254 40 5 234 121 101 31 174 197 248 239 74 250 249 50 227 100 182 244 106 76 200 68 177 197 22 225 16 81 194 62 116 73 135 27 19 217 21 195 18 14 158 84 146 113 22 40 10 53 226 180 187 129 135 123 51 172 130 221 44 101 194 138 253 123 119 171 130 93 228 92 77 95 197 95 213 211 
103 86 136 125 119 253 215 18 214 95 144 30 19 197 206 96 244 33 200 104 173 216 61 118 117 65 213 119 145 223 52 124 250 103 73 140 152 72 225 172 15 178 198 24 12 100 20 21 120 113 42 179 161 96 67 219 167 12 73 1 149 76 106 178 164 141 210 200 80 131 35 45 17 82 51 140 4 31 147 126 77 2 31 233 182 239 162 64 233 62 153 48 234 23 100 19 174 95 83 120 
17 29 72 30 128 96 74 135 116 174 152 42 217 156 65 138 24 86 47 225 69 72 60 154 254 249 30 82 71 46 128 175 223 118 248 178 48 144 134 133 254 58 236 46 170 151 184 182 131 47 27 174 159 193 89 35 128 194 40 128 69 226 112 42 8 38 209 222 242 234 184 212 158 212 47 51 127 137 254 140 84 95 13 32 212 243 85 130 206 113 37 221 192 228 20 226 49 239 239 155 
160 194 177 1 70 230 19 186 64 134 162 59 9 105 69 39 9 199 187 101 132 250 102 168 106 223 186 110 25 122 133 177 7 189 104 188 14 163 200 156 206 94 211 7 128 161 242 225 149 145 113 0 74 215 232 61 41 159 69 243 217 151 234 0 11 236 54 214 5 216 29 76 209 185 236 121 7 68 153 76 106 27 29 7 205 249 209 168 1 191 210 151 95 203 129 161 96 33 156 129 
3 163 180 105 152 197 98 69 254 73 53 111 9 21 97 8 26 18 55 83 26 77 252 73 149 242 208 180 175 144 102 13 163 27 170 230 227 70 89 72 56 229 95 234 20 15 139 127 241 119 143 100 235 134 58 188 67 125 178 220 58 13 229 143 217 161 21 140 143 76 182 27 138 203 48 49 161 104 41 174 86 147 216 91 15 112 25 1 135 41 106 165 147 169 190 136 180 48 200 235 
132 236 77 255 91 164 179 100 205 4 32 66 90 214 53 28 205 230 129 32 63 193 93 254 175 84 172 121 30 211 185 81 64 106 235 9 161 29 129 21 35 196 29 14 252 75 199 255 64 167 23 251 17 240 251 22 233 75 106 19 27 149 225 191 22 179 100 36 243 27 108 116 5 30 41 228 208 172 160 206 147 140 63 96 35 193 117 162 107 208 170 251 136 72 26 180 100 113 127 157 
138 207 97 83 100 234 89 64 122 52 173 99 54 242 37 97 134 132 5 254 223 145 34 44 221 105 248 73 250 145 238 188 1 144 239 180 202 205 49 145 161 137 41 134 163 73 193 2 220 135 61 238 203 75 211 85 170 168 55 210 189 130 37 29 197 93 18 248 93 215 233 141 45 93 14 221 35 116 211 88 145 176 82 222 196 45 141 13 144 112 156 190 156 76 211 10 113 140 24 111 
160 93 21 83 134 182 54 48 208 105 154 155 143 24 68 33 50 59 232 119 45 171 130 167 231 173 29 151 127 214 76 9 0 211 94 99 191 26 221 228 50 123 18 57 29 87 184 133 29 196 130 212 244 111 71 47 88 234 140 64 29 184 57 71 7 136 241 223 26 10 108 66 213 253 114 104 202 13 178 2 155 16 172 52 87 81 55 115 43 126 10 192 17 216 172 233 217 6 103 35 
221 243 195 154 15 2 130 144 153 205 44 15 247 123 161 18 40 212 130 183 14 221 10 156 87 245 41 10 61 65 181 221 170 17 127 169 254 208 16 21 142 194 46 116 133 65 65 158 236 129 23 141 49 18 221 212 191 244 222 74 151 96 92 241 154 170 79 81 220 2 66 46 95 254 212 110 194 220 13 136 95 11 106 61 131 67 178 249 192 165 18 105 192 108 14 66 30 118 120 224 
178 51 241 85 88 177 143 238 150 247 84 223 44 171 7 97 64 230 74 223 149 32 99 168 227 131 199 9 85 82 52 190 141 88 17 40 88 246 0 180 237 162 180 92 224 201 117 66 156 71 108 202 184 211 148 108 168 127 62 20 146 187 150 148 200 14 42 63 186 80 39 208 43 44 6 138 153 198 238 73 39 145 97 242 58 79 78 190 181 68 165 24 56 154 108 175 173 213 102 203 
172 123 12 218 61 84 171 125 119 115 194 17 151 155 252 165 242 14 188 155 116 247 86 114 218 144 42 11 210 139 49 108 191 174 56 184 174 245 90 183 246 13 184 212 189 254 243 95 187 173 207 62 13 246 170 120 184 120 95 116 116 197 111 112 252 50 76 255 195 37 77 78 123 205 204 205 237 191 58 120 43 139 48 55 222 190 120 115 96 131 127 4 91 137 159 144 55 134 238 208 
113 12 162 7 14 38 110 104 177 140 87 77 241 116 233 228 196 39 67 80 184 36 110 61 156 47 221 101 240 38 206 145 159 255 128 60 228 236 57 28 117 195 224 44 228 36 101 253 217 173 102 161 96 170 254 184 63 86 188 247 11 65 157 131 157 198 223 25 181 146 46 172 105 113 5 147 144 172 213 249 126 107 208 88 106 7 181 215 133 71 210 213 117 202 190 30 238 92 195 222 
37 214 111 110 78 54 228 63 128 140 136 138 56 80 140 140 35 132 245 25 74 223 83 247 142 133 138 100 186 96 186 202 133 187 228 173 71 46 216 95 187 54 8 141 153 13 245 134 215 173 178 216 196 111 54 208 211 235 196 119 136 255 136 160 0 58 99 155 43 150 142 0 104 205 224 179 160 187 75 87 171 98 105 226 39 191 66 3 217 126 88 66 1 149 252 121 140 207 240 106 
167 173 218 88 111 183 138 158 250 206 145 97 112 113 158 201 126 90 12 21 137 72 45 216 56 38 200 118 144 12 130 95 68 177 117 234 203 201 217 115 150 57 228 127 104 137 77 1 149 138 50 33 13 215 70 167 242 189 65 144 29 129 189 195 15 17 211 42 84 191 87 15 214 254 176 172 251 195 90 124 180 99 114 115 221 237 80 136 166 67 9 177 38 70 83 49 197 63 9 228 
84 144 163 38 99 167 115 239 37 34 218 106 69 27 101 97 110 112 62 7 227 106 32 183 165 252 78 106 55 231 18 77 69 147 41 84 202 24 240 62 66 124 211 156 171 109 77 38 11 161 49 228 102 71 200 238 115 55 114 117 243 199 60 122 134 51 66 62 35 228 9 66 75 43 31 208 222 160 7 94 58 156 178 202 9 203 94 55 119 0 55 112 218 10 211 29 112 155 41 204 
249 213 205 115 126 243 162 94 127 251 201 125 106 117 246 226 50 178 72 128 114 160 65 109 47 55 178 197 65 36 27 36 199 119 6 208 83 173 224 170 216 15 163 170 144 39 105 190 188 148 204 202 112 75 43 1 251 118 46 241 231 177 233 220 179 245 125 86 92 2 45 85 209 237 81 101 242 68 63 2 145 144 225 27 199 245 158 23 205 1 126 167 26 82 191 127 232 97 76 167 
131 48 114 74 151 159 201 205 64 228 220 124 163 175 78 255 209 179 162 90 185 224 48 171 243 222 45 225 175 227 166 1 245 71 80 148 104 87 197 234 227 80 81 163 92 84 182 70 100 202 141 141 104 205 177 17 218 107 120 224 246 13 91 59 163 52 233 161 185 101 163 236 3 1 255 84 108 59 254 26 130 123 63 183 226 47 35 29 10 151 68 19 76 44 1 80 141 144 103 36 
196 250 56 100 1 205 165 200 7 208 221 200 20 229 186 213 212 172 239 216 214 252 230 103 23 51 132 44 230 236 231 65 182 100 108 158 189 188 201 76 169 124 173 173 177 160 81 230 31 151 172 56 60 114 40 23 80 65 40 76 16 189 219 165 233 150 125 199 186 183 31 18 86 28 191 104 67 222 58 195 96 53 130 138 120 240 101 77 76 248 95 219 253 21 22 249 144 151 89 244 
100 150 196 236 28 158 43 96 132 31 30 197 72 232 76 37 215 35 155 4 191 112 254 193 240 27 81 26 245 49 152 77 45 77 124 4 53 250 249 66 121 85 33 45 1 122 73 210 188 219 165 73 216 206 191 121 217 249 63 209 211 27 89 223 155 12 3 51 106 225 222 100 174 214 16 178 248 47 147 13 135 166 137 138 150 58 3 214 111 139 35 95 170 202 143 195 137 117 72 250 
218 139 18 122 247 22 194 125 179 202 52 87 25 147 100 240 185 169 234 48 119 232 135 158 53 59 201 142 37 216 140 124 71 25 2 242 205 85 241 223 173 228 36 56 185 95 204 111 94 227 211 142 11 253 139 67 25 60 143 143 97 147 133 67 72 71 213 50 147 195 178 44 38 150 82 88 217 73 66 48 187 91 94 109 111 221 64 31 141 113 178 230 159 230 171 6 108 191 243 162 
119 88 40 202 103 81 173 3 220 145 136 162 95 214 251 73 127 55 136 248 113 239 35 148 124 130 1 48 171 173 156 177 79 40 174 18 179 63 8 191 11 139 213 200 58 28 165 171 201 73 144 26 222 159 42 238 169 255 72 147 91 226 160 167 77 225 89 2 25 64 239 241 175 142 69 88 159 118 116 200 219 89 85 156 246 234 209 169 90 86 142 253 75 48 171 57 105 155 245 12 
129 66 141 72 190 239 104 36 29 178 160 114 101 92 31 13 22 95 75 212 13 26 195 65 237 167 21 219 40 114 44 205 176 202 8 50 160 250 104 80 153 109 251 49 15 78 66 247 226 63 68 93 176 72 227 244 219 62 189 223 173 155 31 182 24 72 137 254 192 15 253 35 10 28 106 6 223 50 71 10 208 90 177 76 19 85 216 155 72 75 140 106 142 139 34 241 137 63 84 228 
227 144 4 59 189 33 141 255 236 86 60 153 9 198 85 121 176 78 121 34 57 83 111 129 7 106 153 107 131 103 127 116 2 66 48 182 237 147 211 243 204 173 200 99 183 249 234 100 239 90 183 101 224 29 74 217 121 240 51 190 183 64 163 120 161 178 39 229 253 97 231 138 169 15 170 0 120 218 35 148 203 244 249 120 8 94 125 172 212 243 25 66 103 36 80 58 187 39 162 78 
100 83 180 204 69 253 129 5 111 182 186 239 64 37 224 149 20 204 68 232 244 57 207 255 213 192 53 14 111 68 13 229 223 106 133 26 236 174 128 39 6 149 236 73 75 25 35 5 124 235 34 221 84 2 170 215 229 118 181 87 15 47 150 187 221 202 169 233 19 196 152 124 237 154 223 101 24 251 220 53 100 49 58 236 167 154 189 50 242 128 144 29 24 159 231 203 106 66 241 76 
138 90 50 40 121 144 67 62 113 246 99 242 103 61 209 55 106 238 128 231 28 187 180 75 149 164 216 86 45 224 102 245 140 233 202 138 253 100 119 217 163 147 255 126 229 37 56 249 18 65 252 168 59 224 72 79 174 195 135 94 117 20 47 105 140 56 97 254 149 27 237 115 20 68 207 217 53 160 237 69 137 235 17 64 27 189 134 201 179 246 59 55 242 202 40 49 177 99 113 108 
231 124 6 95 85 203 61 177 53 154 211 253 86 237 46 130 214 251 154 234 72 36 78 239 157 147 173 84 129 50 127 177 184 116 1 248 46 163 174 152 182 221 201 79 65 242 99 150 87 158 30 107 137 167 141 119 102 99 63 111 114 90 68 231 114 51 14 207 40 148 26 254 203 80 69 159 179 29 234 123 96 111 122 98 133 58 204 91 179 179 238 35 222 157 54 15 147 134 3 202 
243 128 1 236 195 82 34 78 224 53 107 95 211 248 44 206 13 195 134 184 85 120 217 39 103 198 181 59 222 10 53 40 55 96 185 244 59 43 58 170 53 176 53 139 59 18 190 244 249 129 36 88 136 177 83 206 214 198 115 190 197 94 50 190 184 74 142 214 110 198 246 138 139 113 29 224 134 252 210 131 198 89 31 113 186 27 181 22 42 127 7 213 124 182 188 65 85 107 106 104 
203 165 215 120 106 92 248 162 213 50 151 73 137 243 110 243 198 210 127 129 223 224 102 155 75 93 15 239 97 173 143 142 237 89 99 212 167 11 183 94 46 39 116 195 47 216 199 226 179 8 21 105 18 30 71 88 200 215 0 232 35 18 175 223 103 24 147 135 184 111 158 147 112 50 140 23 119 192 226 219 245 101 19 29 146 158 5 11 225 119 149 152 38 29 26 145 62 129 113 123 
12 105 10 157 132 60 175 113 190 53 199 101 7 182 86 83 80 159 137 193 226 40 27 168 85 71 95 103 237 202 29 104 111 5 206 28 170 113 218 220 17 66 30 3 51 1 142 246 178 199 68 78 15 132 223 151 218 183 232 114 193 79 78 33 144 233 200 123 214 52 146 166 166 209 50 130 118 128 22 10 18 212 122 82 131 68 131 78 4 197 104 23 114 238 102 78 148 136 232 129 
161 254 117 142 113 26 197 171 78 166 147 38 205 99 13 71 53 36 118 126 219 88 225 31 179 24 111 224 194 59 212 43 75 38 218 157 255 181 228 221 68 40 241 176 71 29 21 111 217 122 57 125 202 204 167 24 104 57 65 80 144 164 27 10 239 173 9 70 34 14 81 12 166 132 155 117 226 25 75 216 135 236 0 130 192 33 183 247 25 109 115 210 210 12 139 116 16 79 213 24 
51 138 236 190 138 212 211 56 11 168 88 5 150 97 54 1 223 176 57 93 192 64 124 29 171 64 181 178 189 8 147 98 175 150 218 179 115 14 91 139 92 236 102 242 19 180 78 182 163 144 120 212 10 59 0 110 155 25 237 53 202 14 6 228 142 238 103 54 2 132 171 204 194 41 147 55 90 219 177 92 254 242 89 139 209 179 160 235 36 98 104 36 29 116 97 157 60 148 79 22 
178 51 76 89 180 12 184 25 9 134 15 144 4 17 213 49 77 84 127 79 36 219 171 164 74 191 120 197 245 147 49 198 44 170 170 232 171 8 199 193 27 199 186 126 181 215 3 222 254 154 233 197 182 172 8 115 194 13 137 116 119 187 18 51 228 241 229 31 221 235 136 67 113 214 200 44 28 162 87 4 143 235 227 170 131 209 203 122 99 215 134 161 41 220 53 169 38 87 84 174 
64 67 33 226 218 108 100 242 214 87 166 235 69 111 96 211 71 132 71 135 169 217 234 184 37 46 51 142 22 132 53 186 143 224 95 19 129 43 154 135 37 93 167 186 74 187 192 97 126 131 44 125 144 163 22 202 97 201 242 36 109 19 32 65 176 89 50 136 231 33 147 197 233 35 5 63 11 181 220 90 203 161 75 52 63 48 39 147 108 164 181 231 15 10 150 247 90 92 73 217 
206 227 218 235 47 54 83 5 252 203 143 237 134 66 109 199 98 209 109 33 119 27 129 57 188 241 92 239 22 155 23 249 139 16 109 19 2 109 133 172 108 230 156 22 35 136 193 138 98 253 82 44 101 100 68 7 34 198 47 106 89 65 169 216 58 85 146 179 191 105 236 111 232 145 181 108 139 219 143 235 186 85 133 12 213 184 129 253 225 91 242 31 109 32 157 162 116 7 212 82 
89 67 228 199 209 38 156 98 90 5 132 253 119 248 118 74 204 77 178 215 180 242 144 119 216 20 220 46 211 188 252 52 54 13 227 226 134 192 211 215 35 88 24 253 142 79 156 44 158 184 162 37 82 30 68 108 124 21 109 236 121 5 166 171 89 149 202 246 33 6 23 160 32 76 23 19 52 32 3 0 112 179 189 95 24 226 1 216 141 224 133 216 250 121 173 204 104 55 76 159 
229 181 133 174 99 150 207 117 239 72 108 254 153 35 139 159 10 61 72 85 139 55 244 65 240 150 177 128 67 52 16 244 253 86 196 23 102 130 172 132 101 213 142 148 114 131 13 228 127 89 40 4 111 237 171 100 44 224 177 132 79 228 27 68 123 37 133 169 160 69 142 11 23 66 108 16 102 83 196 13 94 235 56 76 40 27 226 154 68 125 126 160 95 61 111 1 31 160 44 79 
160 245 227 235 192 225 154 159 225 11 253 85 32 118 230 237 1 191 39 246 119 255 172 30 233 211 33 133 119 48 101 215 177 190 17 86 127 187 224 57 102 173 27 163 33 70 219 134 230 154 139 4 195 123 20 206 4 189 107 125 230 187 90 20 19 102 181 60 200 39 125 186 48 241 117 183 174 64 159 29 116 248 51 136 232 254 156 92 79 71 33 25 111 197 48 74 111 111 158 215 
213 45 172 183 31 52 203 224 146 253 124 92 153 46 185 2 197 93 169 209 238 222 145 74 146 243 215 134 203 95 185 213 217 219 191 241 50 34 192 253 39 93 35 203 169 169 69 130 61 52 151 221 97 2 8 14 47 97 34 64 120 52 245 85 23 59 133 123 220 242 244 2 198 8 39 119 201 227 4 47 99 184 82 224 90 163 177 185 206 206 109 59 94 106 47 136 50 20 166 129 
124 67 171 69 147 14 160 209 154 155 19 96 98 118 111 20 254 69 150 33 42 152 244 149 254 72 216 25 147 114 139 56 106 59 188 217 171 36 192 40 77 127 227 65 38 165 17 121 26 135 11 156 164 42 89 33 92 242 142 90 242 93 114 39 7 56 33 96 93 89 201 99 47 212 61 135 20 140 175 124 15 64 118 100 164 24 17 94 143 89 171 159 72 225 189 51 5 234 203 168 
134 81 61 191 24 88 239 22 104 23 13 104 239 59 64 192 131 30 193 109 152 200 54 13 249 249 61 195 83 62 114 30 166 77 37 30 242 69 136 12 186 18 76 59 166 32 221 199 79 220 136 63 145 124 23 209 91 212 191 2 34 253 77 236 77 85 25 157 91 51 249 7 73 153 166 245 139 154 90 241 67 187 50 156 82 199 247 5 192 146 238 89 114 81 135 220 139 193 144 0 
103 9 15 253 158 190 24 215 225 229 154 38 171 85 9 47 57 191 82 171 186 130 246 149 97 131 240 221 169 28 145 209 102 37 96 142 62 103 123 255 59 154 142 212 86 18 237 16 11 99 20 255 229 116 195 100 98 62 238 135 2 249 178 231 144 15 195 188 61 58 92 63 126 103 22 164 34 175 209 138 127 213 249 44 247 188 31 206 213 249 83 205 0 156 241 126 206 62 51 252 
144 25 223 106 54 23 73 76 146 42 231 205 8 23 74 160 117 55 245 62 33 81 170 91 236 94 86 43 87 183 207 32 246 114 247 30 29 194 52 213 58 31 215 163 26 227 239 86 99 191 125 56 73 88 180 227 101 212 86 114 200 92 127 204 53 194 78 107 108 10 169 15 49 73 16 20 75 208 65 254 59 11 40 75 105 109 160 71 153 250 241 34 56 249 202 213 3 15 54 239 
20 219 13 131 1 32 55 96 62 92 132 154 14 40 164 185 93 44 176 220 103 109 252 168 34 80 146 202 246 77 83 19 169 230 71 25 73 189 240 126 64 255 234 176 58 95 235 154 58 38 81 157 64 156 215 146 30 249 243 203 174 87 56 250 210 195 215 188 50 80 22 249 214 111 107 17 208 44 26 115 208 101 207 169 197 31 116 90 194 136 82 116 163 67 39 224 120 156 237 112 
140 7 165 200 228 48 37 140 12 170 108 83 16 96 4 112 161 141 123 85 178 149 226 80 180 231 130 36 143 116 175 123 57 221 71 154 231 197 133 195 83 103 18 126 37 254 18 255 185 11 27 108 89 237 54 239 167 219 31 103 166 192 214 172 53 121 58 69 138 61 115 222 183 52 155 209 196 182 65 205 186 108 133 175 58 224 1 53 69 12 177 244 209 75 77 139 187 118 195 206 
14 31 129 57 82 247 80 88 222 57 135 183 155 97 183 160 116 71 141 22 126 107 166 12 41 22 136 217 43 20 253 119 120 199 172 238 238 35 73 30 203 252 246 132 17 90 128 180 85 49 50 113 128 151 76 132 45 40 24 172 210 156 53 109 167 149 230 144 134 175 124 50 78 81 209 155 66 117 252 29 11 67 108 68 118 43 44 74 56 170 121 204 171 2 34 229 248 138 166 249 
210 98 3 27 45 89 51 230 1 57 128 113 203 181 204 233 220 213 241 90 227 81 126 17 31 186 209 53 185 82 50 22 45 75 196 253 100 199 126 182 190 28 239 166 226 124 81 221 240 5 203 183 206 82 218 202 50 188 204 177 17 92 175 249 254 188 11 130 172 112 62 141 122 247 69 14 127 163 13 31 122 112 91 159 100 5 113 73 167 75 182 226 199 25 3 183 232 186 199 91 
