P2
100 100
255
82 189 153 164 103 243 233 247 154 36 138 7 74 21 124 3 229 66 116 239 218 62 213 89 122 127 206 163 38 94 186 199 115 170 206 252 209 22 167 31 91 71 179 108 181 191 120 171 75 145 25 151 165 226 155 178 197 129 171 31 79 215 23 169 187 81 189 2 248 74 251 59 211 38 182 161 24 159 5 171 152 37 236 104 0 45 43 116 39 230 194 208 0 69 86 87 126 216 216 198 
223 10 84 126 164 172 194 225 164 148 109 241 163 28 134 66 248 198 98 52 10 25 125 84 83 210 54 54 19 137 71 123 113 117 156 71 0 251 198 132 134 93 62 84 4 101 139 220 218 245 142 101 1 72 146 76 65 67 233 75 242 103 116 58 133 17 135 156 179 81 108 151 105 237 54 39 141 163 196 112 58 230 216 57 149 36 207 79 52 39 46 148 240 56 117 199 198 47 195 54 
111 129 64 82 85 146 86 57 8 31 176 80 63 95 33 46 16 37 33 48 178 86 142 69 218 116 159 145 244 190 102 89 67 73 53 250 56 33 167 64 24 95 63 187 245 230 158 6 215 206 110 194 255 78 107 18 30 123 124 81 194 42 61 212 78 173 219 82 156 173 253 171 229 137 59 157 89 20 22 117 26 1 250 30 25 167 126 127 146 13 41 226 239 187 60 118 211 184 93 78 
51 243 84 131 151 169 98 17 237 148 16 213 237 131 112 10 120 249 35 24 177 107 171 216 186 190 43 49 75 153 143 191 189 43 119 130 80 55 164 138 23 153 133 158 93 245 185 64 196 226 40 156 251 38 143 81 50 83 189 30 9 133 248 8 188 248 231 132 249 73 74 220 12 2 70 34 96 231 34 128 214 202 47 66 72 16 7 91 96 101 248 213 200 235 11 127 162 93 112 174 
193 65 191 44 13 31 204 254 79 54 153 223 175 110 71 223 160 234 233 207 22 194 79 0 43 226 50 18 39 246 0 215 95 56 147 66 17 84 219 133 75 137 19 207 50 12 228 13 172 139 35 244 253 154 248 208 124 38 195 54 133 160 75 35 140 211 14 244 252 250 74 205 154 124 149 124 188 0 158 233 35 215 5 94 79 199 18 192 192 128 147 192 49 10 110 194 198 81 0 238 
117 105 137 228 38 255 146 212 43 227 103 248 111 223 114 43 123 98 245 81 74 139 22 178 160 74 160 232 115 174 156 73 146 13 141 72 56 31 202 211 182 133 105 203 205 79 191 49 197 14 109 1 27 128 214 69 149 57 250 26 167 199 113 85 170 118 106 92 220 229 83 197 246 87 243 124 167 151 248 234 64 155 108 62 61 132 35 203 92 190 75 40 128 230 203 53 97 225 217 242 
190 10 152 11 188 238 160 211 87 130 136 27 108 244 154 2 139 59 111 88 32 224 20 124 13 63 160 1 191 19 40 143 181 225 60 23 196 255 197 7 43 231 79 93 133 101 35 128 229 164 128 158 27 128 25 245 54 170 254 113 168 190 191 202 45 108 109 106 188 31 186 27 120 140 19 221 208 119 5 86 56 76 15 34 145 180 122 145 213 45 116 225 93 193 39 41 45 73 114 138 
0 105 52 8 48 228 50 155 123 142 117 163 189 8 167 116 187 61 220 169 8 146 34 42 207 23 219 93 200 74 104 48 62 10 151 156 103 35 206 60 8 184 198 116 112 238 129 95 93 155 123 238 49 17 135 150 130 86 167 70 234 69 56 13 59 148 138 132 180 217 247 161 255 81 77 67 68 195 246 117 117 252 170 103 226 121 35 117 218 227 133 186 253 223 130 62 85 121 74 219 
50 162 179 139 152 32 249 123 176 112 66 198 144 252 80 172 231 72 251 92 129 121 51 238 38 113 172 86 148 96 157 146 13 42 78 245 214 51 111 73 26 42 34 131 18 236 14 33 169 4 207 127 113 26 108 196 95 232 8 125 139 175 27 235 37 72 139 240 150 142 138 203 3 13 54 196 23 53 211 4 32 55 238 132 132 43 6 254 142 66 125 237 209 253 163 193 16 242 250 120 
235 32 127 154 63 119 229 144 9 98 34 209 169 42 18 187 247 90 52 24 155 235 21 103 108 161 201 141 88 68 232 101 41 68 4 55 47 198 159 21 179 116 125 10 248 202 244 38 128 76 53 133 151 45 139 189 240 120 249 115 233 136 223 8 47 106 71 220 64 115 44 158 255 249 167 179 95 0 160 168 55 196 90 207 175 29 236 41 119 159 13 227 0 222 208 82 199 169 139 176 
35 61 146 44 103 84 155 165 5 205 212 142 184 93 182 137 227 93 119 130 217 136 69 170 134 142 107 206 0 23 90 32 190 154 168 91 36 248 100 99 147 232 9 131 17 234 20 43 236 96 218 6 158 160 225 40 228 8 208 38 176 137 14 162 252 109 233 67 134 116 202 147 157 17 182 226 104 126 93 179 86 100 45 111 249 192 23 239 66 228 61 100 139 59 63 81 137 142 15 190 
217 18 22 54 26 45 191 175 183 70 198 237 149 59 77 53 106 6 146 142 40 240 130 4 146 61 185 250 232 241 42 253 151 200 3 1 70 213 71 154 107 193 100 179 67 42 86 95 6 208 78 160 231 187 158 202 219 151 78 231 189 120 148 200 138 20 112 152 23 217 101 27 246 62 81 11 158 234 111 102 225 215 16 201 209 78 248 37 231 198 215 157 218 42 204 204 149 137 225 72 
161 49 96 106 131 72 155 220 207 168 67 230 208 117 177 190 30 145 182 237 250 136 67 119 86 109 82 59 101 103 182 78 55 176 108 255 11 52 31 5 252 47 135 65 201 175 176 100 73 187 238 169 110 215 11 97 223 80 187 190 234 14 86 199 152 28 212 165 220 0 6 181 22 8 52 108 208 119 88 139 56 122 1 29 65 251 128 247 135 186 163 214 78 65 187 202 19 177 117 128 
176 245 58 251 255 28 34 44 91 94 252 110 187 223 30 61 236 136 78 100 228 74 16 109 128 64 244 160 192 153 109 149 230 225 36 131 69 110 20 65 22 56 6 23 19 139 19 29 6 202 135 152 180 8 136 191 247 191 212 175 136 78 253 102 243 244 31 214 208 22 123 113 215 79 14 227 175 116 64 156 163 141 31 87 164 67 18 12 71 138 162 222 235 60 208 224 74 149 206 66 
245 162 128 118 21 240 50 157 40 200 16 210 67 90 191 242 251 43 94 38 81 194 231 154 75 15 148 26 103 118 134 233 138 161 80 16 134 85 237 185 132 193 233 188 123 151 117 186 214 164 111 146 61 122 233 166 137 52 140 152 177 102 207 225 101 3 175 117 92 113 22 186 152 192 60 233 38 12 195 102 100 245 51 102 122 173 160 144 49 174 149 33 194 168 76 191 217 238 185 186 
247 9 193 63 105 249 133 75 229 13 6 204 137 85 25 202 61 108 192 149 162 57 67 107 240 112 99 215 154 6 190 86 89 113 92 198 47 11 143 105 38 138 146 114 83 58 182 210 189 47 203 121 128 131 16 38 247 94 125 71 107 154 178 70 208 253 81 163 43 255 134 239 240 255 253 158 190 176 148 54 19 238 118 51 82 175 214 27 231 22 252 136 136 26 61 137 76 76 34 244 
170 27 87 132 236 181 186 149 235 0 146 4 31 208 245 34 161 118 119 210 201 101 144 23 97 39 97 159 60 185 174 129 30 44 168 61 67 254 209 229 159 240 226 130 86 39 60 193 19 47 144 150 162 53 237 15 249 138 112 179 70 209 95 78 101 0 210 55 35 239 4 70 51 146 191 162 96 76 79 85 109 22 86 205 230 113 247 54 110 140 36 109 243 218 106 14 176 17 227 141 
111 61 113 63 178 155 165 139 138 160 191 227 239 152 185 244 104 153 93 107 71 250 150 246 0 49 39 165 137 185 141 7 173 70 58 211 67 232 33 47 242 173 61 209 100 144 69 123 118 153 183 198 248 96 145 150 149 144 219 179 43 73 57 32 75 136 181 29 229 120 39 101 72 216 109 44 142 196 87 218 78 166 107 224 29 121 184 11 115 179 144 41 102 22 71 213 154 50 204 78 
171 155 208 157 78 159 202 123 185 114 177 20 185 0 66 38 195 1 166 7 189 164 196 20 87 193 248 103 213 192 97 38 69 52 215 243 88 134 186 150 51 137 143 70 216 171 203 187 99 175 10 236 167 170 136 221 3 136 183 222 238 82 128 241 252 27 200 171 87 254 5 54 203 147 225 243 172 153 140 42 141 141 99 5 190 231 178 146 239 77 26 116 246 145 246 67 40 162 121 40 
176 120 121 254 33 138 138 14 242 165 51 70 68 11 69 191 170 128 176 126 199 64 24 17 2 183 218 75 255 55 144 139 76 113 136 115 11 58 190 81 199 49 155 150 152 193 26 41 190 14 204 28 221 48 234 108 5 152 124 116 154 167 112 59 224 72 170 237 164 209 154 119 174 242 108 162 124 14 69 207 14 10 29 49 150 131 15 220 92 56 87 24 211 129 229 29 233 110 52 41 
77 67 199 240 58 114 83 228 203 74 222 183 46 150 176 202 110 108 70 175 86 83 23 236 38 86 62 51 168 12 33 148 8 115 4 163 154 168 135 22 196 109 158 196 18 232 253 59 12 209 13 134 159 81 156 126 240 154 254 189 175 110 141 124 199 242 101 10 83 21 200 219 228 73 63 87 128 150 110 44 21 248 190 66 129 0 83 66 147 119 39 31 58 31 138 158 53 198 100 254 
150 114 89 184 144 110 107 248 100 206 25 171 243 215 131 110 27 130 103 141 252 178 58 59 144 190 22 214 192 206 255 45 206 146 164 180 178 135 32 224 56 70 253 72 87 113 162 27 253 203 115 80 201 225 42 238 185 96 90 63 193 226 15 217 234 154 242 170 254 204 177 185 204 8 1 53 158 226 22 173 78 95 59 60 20 79 155 200 51 90 19 38 65 242 145 120 107 111 237 38 
179 202 101 109 205 100 106 36 19 145 200 149 201 112 41 190 141 177 134 146 90 129 144 126 7 146 14 255 179 62 84 21 32 68 198 66 202 216 38 115 136 4 8 101 145 187 120 188 4 211 26 113 212 190 222 232 46 245 255 46 7 145 63 54 250 71 184 236 26 112 72 13 61 63 140 105 230 138 63 250 39 194 161 117 219 69 129 83 76 217 197 65 101 190 193 199 126 233 163 48 
233 187 212 249 165 38 9 81 117 115 60 221 227 27 59 21 46 163 34 95 132 242 171 31 167 32 28 200 251 235 167 245 156 250 100 87 214 245 30 48 39 152 177 94 146 58 223 241 39 80 125 245 188 221 182 226 141 116 247 232 115 172 23 122 85 138 120 189 173 151 253 248 171 158 74 82 51 146 33 44 199 39 82 44 31 92 22 62 208 11 50 87 57 78 217 87 62 70 26 183 
215 114 27 235 12 78 154 216 140 161 107 10 68 255 239 10 83 190 138 41 168 88 211 198 197 159 6 210 159 105 117 111 176 61 96 206 7 238 171 10 166 119 53 94 122 214 47 167 127 134 235 226 5 175 27 157 56 150 175 193 203 67 238 208 96 127 85 154 106 231 80 152 52 128 194 216 166 129 37 152 136 111 205 19 157 177 158 4 172 87 93 69 102 6 47 162 8 130 30 245 
215 160 248 177 36 158 222 227 122 138 88 200 251 115 196 143 151 93 179 211 183 190 215 29 188 227 74 164 242 44 7 56 47 155 113 51 246 225 162 113 158 43 5 22 126 228 91 250 159 35 36 193 96 79 16 5 168 202 62 102 190 62 185 32 91 113 163 69 255 93 131 96 1 195 240 142 30 214 107 20 133 184 198 117 92 199 172 169 217 162 159 82 47 249 200 67 4 104 166 219 
100 36 197 23 34 5 34 96 255 69 48 144 87 116 14 7 69 66 51 72 137 84 244 242 173 75 210 169 37 96 10 77 70 85 19 57 145 207 3 208 15 196 132 100 128 21 241 179 238 178 212 51 51 169 67 162 92 60 92 64 23 244 22 112 169 68 127 120 18 61 134 210 174 75 137 46 225 28 223 135 9 167 82 219 216 116 39 22 155 81 209 220 224 190 168 231 215 26 215 189 
127 159 40 143 8 119 237 37 99 114 111 116 124 244 1 81 50 158 47 30 186 22 142 184 96 24 33 140 199 206 18 236 85 28 135 172 13 216 15 142 82 246 2 203 132 223 102 47 71 133 5 17 12 15 253 82 203 118 170 101 143 115 65 158 149 118 112 213 149 215 110 112 160 203 230 246 221 22 172 246 87 107 198 173 138 178 17 169 222 108 84 92 134 158 146 124 128 106 230 140 
4 235 199 97 230 124 231 205 104 93 217 238 118 201 157 199 191 100 121 175 74 12 226 30 128 116 124 158 221 22 203 48 93 84 80 87 37 55 154 18 38 244 19 102 249 87 2 34 43 228 157 156 243 156 223 152 9 49 208 231 81 105 210 241 150 49 120 37 233 93 215 105 113 50 225 146 121 143 82 249 246 115 161 191 211 145 4 55 22 63 59 217 85 78 46 162 92 83 215 236 
4 235 223 43 142 69 9 22 75 63 133 57 48 37 218 209 251 54 17 53 121 79 149 135 42 142 235 109 189 45 128 106 47 14 142 179 247 254 117 188 179 215 249 199 71 178 62 138 231 42 129 16 51 85 184 254 218 102 48 24 6 59 52 214 23 129 151 180 128 63 199 64 4 90 239 111 168 143 196 87 154 145 234 244 188 9 230 171 234 183 47 219 217 239 50 37 25 80 247 149 
189 95 105 83 93 128 122 218 73 85 103 97 181 200 207 86 125 70 16 53 78 206 2 148 111 39 87 16 20 120 29 121 164 199 215 223 104 14 211 193 48 232 248 2 3 227 53 125 250 21 118 27 218 92 85 194 148 167 58 81 34 40 135 227 169 118 124 157 61 225 106 218 190 37 42 149 59 46 52 84 84 47 105 236 84 126 199 126 114 224 4 110 31 138 156 194 127 80 201 234 
251 178 68 196 170 45 222 50 65 173 137 155 159 207 203 231 64 14 154 165 206 246 20 180 83 131 251 153 133 130 38 64 41 201 186 145 22 104 4 217 222 225 94 118 59 83 52 93 23 84 149 241 115 220 195 183 149 191 240 250 189 215 129 70 163 164 79 50 130 160 139 10 57 99 201 112 73 228 34 68 51 50 114 141 53 230 127 95 201 20 91 172 191 132 212 98 175 143 143 145 
16 79 220 18 212 72 124 77 162 164 58 247 19 99 199 68 2 80 27 226 39 149 98 13 101 43 64 93 196 244 113 199 76 127 11 25 93 147 99 164 35 183 201 147 41 45 177 1 9 192 142 185 249 63 206 226 76 218 195 118 196 162 243 194 196 49 41 124 162 138 99 72 9 177 21 204 252 51 235 135 117 153 27 221 158 174 118 85 239 3 35 71 7 51 49 69 84 211 229 167 
48 3 250 103 6 222 234 126 185 224 15 107 53 194 222 9 56 223 97 62 230 52 165 159 91 229 130 48 97 111 240 103 230 117 38 180 55 55 85 18 241 38 177 75 243 10 197 137 240 108 226 214 127 69 117 175 1 170 184 131 48 44 245 190 119 34 220 144 33 27 18 156 57 19 168 58 73 122 216 192 92 70 186 217 210 227 197 40 90 148 141 72 186 232 197 190 130 142 58 31 
69 45 47 110 186 212 95 224 142 203 173 176 191 81 129 57 7 115 125 139 61 154 92 235 149 134 198 54 31 63 118 13 116 40 184 63 181 180 41 249 226 103 82 138 232 224 144 213 109 201 15 217 155 207 28 232 14 244 88 38 100 80 238 225 114 210 242 181 45 157 82 73 48 207 99 231 186 20 9 7 204 135 139 111 122 90 215 27 60 17 7 87 238 240 59 35 101 224 7 142 
203 64 66 14 59 152 246 4 146 87 45 14 153 205 231 208 112 241 167 50 240 144 107 166 170 101 138 49 66 218 239 51 102 60 167 60 81 176 45 249 210 46 217 5 166 121 169 186 3 37 0 165 187 131 103 143 61 40 41 105 93 124 102 42 86 170 26 9 107 171 61 39 90 16 178 205 108 151 76 230 248 22 197 35 188 189 183 0 222 144 128 30 28 23 135 20 114 252 248 248 
252 95 71 39 219 187 179 45 236 45 82 197 112 241 45 202 56 19 182 78 98 138 172 173 211 147 253 76 54 215 186 66 52 194 38 249 198 63 97 31 64 195 161 251 183 190 150 96 11 142 149 120 140 11 210 132 222 241 143 198 221 227 3 15 176 204 89 102 96 30 16 27 226 209 230 66 151 92 203 122 68 245 99 141 33 135 50 138 184 229 106 130 34 146 143 255 11 240 82 140 
141 231 207 90 88 81 19 154 188 81 54 80 184 249 100 88 72 118 144 72 134 76 45 120 31 164 10 165 109 252 97 122 225 176 15 145 123 167 119 82 221 4 60 60 230 56 20 234 5 27 68 224 134 167 14 253 204 236 200 20 153 18 195 137 2 143 182 29 2 85 61 109 190 103 56 21 244 239 253 119 139 228 191 14 22 234 111 69 41 65 133 191 198 66 202 234 84 62 205 190 
143 219 52 207 3 131 128 241 22 117 11 140 221 11 104 2 211 105 176 30 161 51 98 176 96 207 217 236 220 173 36 87 60 224 200 56 171 97 202 71 181 40 42 245 217 157 246 125 81 56 42 136 21 49 56 71 135 76 18 207 201 241 76 135 249 233 117 19 78 212 116 213 18 160 204 209 60 155 224 26 64 68 228 143 156 177 46 191 205 52 66 8 207 57 98 118 60 221 176 37 
111 130 171 149 118 201 249 200 136 124 70 51 225 244 131 241 162 233 19 250 17 136 74 45 36 82 200 251 232 121 182 158 228 240 213 106 239 49 136 85 90 87 133 50 195 189 42 173 175 91 210 215 82 75 142 41 84 140 1 89 70 5 145 201 183 232 31 6 250 230 236 75 66 144 132 60 102 230 47 240 99 132 20 161 139 183 44 46 173 158 171 39 116 47 34 5 117 169 126 23 
34 145 73 96 223 234 52 106 160 63 247 48 69 12 54 254 94 189 79 42 205 82 82 129 81 1 25 62 153 230 47 233 153 42 250 150 99 51 159 233 84 189 29 123 73 168 6 241 163 85 225 187 230 136 23 48 155 91 128 163 161 54 68 89 180 249 44 231 26 70 25 173 195 174 156 183 26 238 35 21 103 17 225 104 65 192 134 112 253 118 123 55 227 135 50 163 191 134 249 191 
199 71 249 151 86 99 89 231 104 21 69 220 240 198 130 174 254 190 167 157 160 182 162 8 233 168 53 78 247 56 72 103 208 229 236 92 23 228 153 49 214 156 146 219 212 190 209 58 57 25 183 64 186 237 185 237 84 10 77 231 48 206 214 124 171 86 54 212 213 50 239 67 197 138 126 184 150 151 243 85 220 42 102 225 186 62 226 153 18 249 93 9 36 90 156 160 100 238 222 239 
242 120 131 203 69 230 185 151 215 64 63 50 160 111 101 189 215 4 39 100 120 55 156 208 186 7 215 173 253 205 5 233 142 20 113 23 242 45 148 255 158 215 164 110 181 21 153 161 221 177 44 193 84 246 117 203 238 8 14 220 24 77 85 252 213 71 192 47 228 120 227 218 164 150 115 208 215 173 80 238 159 193 244 72 40 248 35 104 119 50 97 147 21 69 28 93 232 79 9 58 
215 246 164 135 240 29 134 142 64 164 96 253 57 74 11 152 151 52 146 170 106 51 254 153 32 89 19 168 218 195 6 187 214 62 143 192 59 240 243 51 9 116 144 141 100 213 244 98 147 80 180 101 165 138 40 179 108 182 25 27 247 26 88 162 158 93 55 11 90 24 254 79 151 166 53 169 208 228 58 255 222 99 64 253 167 138 133 97 130 169 7 189 223 82 162 93 9 67 137 250 
114 60 24 20 139 63 248 180 208 8 31 142 59 220 101 75 18 227 69 168 155 187 61 232 216 192 17 252 242 125 60 33 57 11 138 168 193 209 248 230 158 235 175 211 204 97 150 121 60 136 67 151 170 123 53 179 61 236 9 157 81 200 113 250 101 70 147 138 9 113 185 251 126 230 238 239 54 210 153 115 112 8 76 225 62 21 149 206 103 183 80 103 152 236 70 171 185 147 164 189 
66 145 81 205 25 201 161 137 43 143 146 6 67 140 177 95 177 136 190 250 142 204 133 97 166 152 205 36 221 44 5 198 116 200 94 245 89 126 17 217 187 201 22 86 164 191 61 120 251 222 189 176 197 109 141 3 231 40 156 10 131 214 198 187 145 68 81 11 151 37 183 112 255 109 18 20 19 111 218 33 171 59 244 65 202 130 53 151 101 232 6 178 173 27 130 251 211 177 178 211 
80 101 237 185 214 126 80 152 125 207 162 142 204 119 73 3 180 218 55 247 14 203 139 235 74 12 65 13 152 251 168 120 211 228 186 50 177 47 150 94 78 96 178 156 212 253 143 88 111 170 176 169 240 166 248 151 45 35 156 46 65 85 144 81 53 144 186 229 168 51 215 211 248 183 27 230 96 49 41 179 44 103 226 239 115 81 148 249 97 64 225 23 14 54 74 137 162 184 212 2 
191 21 95 81 253 190 78 75 159 77 167 70 173 115 100 135 207 125 139 189 78 73 171 65 151 83 136 10 248 148 121 171 26 200 199 140 186 17 226 31 2 135 221 231 48 190 87 108 11 186 87 188 103 164 211 67 211 76 156 130 168 158 208 39 241 197 126 21 222 207 17 200 62 190 47 22 255 231 170 152 144 59 43 224 22 0 222 150 138 238 32 78 237 138 75 111 208 62 214 109 
237 72 43 192 168 22 215 209 209 211 50 255 245 69 229 124 161 15 103 153 176 49 247 219 116 38 155 89 39 45 156 175 77 220 242 66 116 225 151 44 160 84 147 49 184 203 233 18 176 160 109 97 120 52 152 49 64 88 2 95 29 58 2 133 254 48 79 189 72 89 192 132 176 29 9 102 148 172 194 114 141 210 161 12 85 85 27 249 109 228 117 34 65 86 64 32 255 210 31 169 
11 93 186 34 115 45 51 45 196 216 205 111 110 191 111 98 220 121 144 24 19 188 119 217 41 86 180 17 56 106 171 203 3 85 10 252 74 194 185 83 228 77 88 66 164 121 11 90 48 177 173 246 113 8 99 216 138 172 232 41 40 218 146 171 93 126 78 250 171 221 126 187 51 5 137 89 61 53 86 202 227 132 39 58 121 242 1 197 26 115 64 72 90 110 229 141 32 97 75 46 
246 68 16 237 16 223 80 72 191 85 234 248 109 158 162 30 108 16 251 55 13 102 43 12 32 155 62 100 112 106 251 141 199 182 225 191 155 224 210 191 82 229 179 135 205 1 71 205 190 163 177 80 227 187 16 8 146 234 242 196 162 180 229 164 183 79 4 27 252 218 254 199 136 232 226 247 179 84 139 98 243 74 235 173 22 32 17 92 173 170 55 94 111 142 68 140 93 199 217 3 
224 157 16 3 152 224 241 113 74 7 67 120 211 249 185 106 237 2 95 114 82 167 216 94 230 15 196 147 93 79 57 205 218 185 199 214 207 52 206 106 28 180 97 228 20 55 19 97 150 189 251 4 64 69 35 60 53 98 116 31 181 6 246 55 240 2 177 37 52 82 245 80 167 49 155 65 50 35 106 37 31 67 132 137 19 53 241 98 5 94 153 224 251 105 155 200 49 36 192 119 
186 135 58 93 195 240 42 188 239 68 178 9 89 42 225 89 214 103 155 57 82 18 211 133 215 90 215 0 128 13 105 248 164 169 7 198 142 97 147 158 1 77 155 245 171 228 68 152 236 127 199 206 228 153 78 111 8 247 11 93 108 118 192 227 80 49 80 8 14 44 87 217 41 139 171 31 102 238 120 240 59 64 200 96 203 137 229 37 89 74 101 106 138 238 221 103 231 62 210 78 
154 52 9 155 208 110 103 43 226 193 146 6 117 250 226 85 122 252 123 148 235 161 89 59 19 60 211 184 83 225 9 118 100 177 232 154 63 217 124 119 164 94 68 110 112 55 168 175 246 250 128 6 80 31 165 154 137 112 21 43 68 106 95 193 164 116 20 228 200 249 105 40 96 216 73 132 106 123 197 209 196 19 94 85 62 204 242 209 153 185 241 119 66 63 225 205 254 216 122 118 
213 167 124 95 221 111 58 154 136 151 200 20 230 8 146 82 205 210 152 71 118 65 17 145 203 76 151 4 82 140 5 152 161 120 222 235 155 84 221 64 57 129 188 75 199 141 70 70 119 85 22 92 75 43 121 1 69 111 213 214 206 171 77 232 120 198 176 73 172 16 30 156 139 119 49 14 74 21 202 60 26 129 152 104 173 250 205 14 178 35 28 234 255 109 151 14 167 139 5 127 
189 32 85 211 218 71 127 92 60 53 212 175 77 33 124 164 225 165 172 63 199 128 119 159 163 197 193 145 140 112 112 33 200 201 160 218 99 16 54 56 104 46 141 0 220 232 162 33 195 14 213 134 233 235 149 79 178 132 240 25 168 149 75 73 229 241 187 172 98 130 28 215 17 175 120 78 9 212 81 154 221 102 111 52 22 194 196 250 211 16 18 73 68 143 15 139 26 139 178 152 
40 243 128 237 155 47 65 102 103 83 13 191 221 254 244 84 228 95 241 191 116 173 214 92 102 192 66 217 39 30 229 218 83 164 41 236 0 164 95 166 49 20 170 241 255 74 219 32 35 170 165 98 64 112 169 229 188 163 136 29 163 134 46 160 34 155 84 127 123 244 192 42 118 141 14 254 48 164 20 207 103 218 162 32 41 231 102 14 1 74 78 253 219 222 107 182 10 96 212 250 
103 218 31 103 81 175 194 182 249 227 54 154 199 116 0 131 160 52 92 106 220 70 141 214 152 168 200 133 61 64 142 43 144 233 2 199 71 26 88 124 178 44 220 214 245 42 71 84 117 189 19 5 65 193 212 29 7 250 136 162 183 137 56 109 206 51 150 225 13 189 13 73 177 116 149 106 153 195 79 83 239 228 148 70 71 109 124 222 157 198 155 186 168 159 161 45 13 228 238 244 
75 231 36 241 216 187 222 140 224 208 54 99 127 42 71 82 234 130 76 109 149 165 171 106 41 73 117 167 154 204 159 65 155 89 132 113 0 192 189 235 85 217 2 76 255 89 124 150 237 2 195 31 6 115 65 232 38 222 221 199 182 254 0 149 19 35 14 102 121 17 42 81 204 175 136 215 249 167 242 0 167 254 141 234 24 165 97 213 117 137 244 232 67 5 187 45 48 43 36 129 
252 28 83 67 110 186 25 12 71 215 138 145 211 235 84 209 92 2 195 131 140 100 190 5 203 31 126 87 47 156 209 129 26 213 166 134 45 146 206 8 24 164 48 175 221 151 233 240 35 34 17 65 13 107 47 107 214 202 48 15 93 44 98 53 139 22 81 141 54 4 77 187 96 51 119 65 114 12 136 88 61 253 119 64 226 104 250 145 31 218 174 58 113 44 197 120 228 144 155 240 
175 202 207 135 245 170 255 133 20 51 160 84 249 177 56 153 228 246 115 152 101 68 6 179 208 0 64 123 250 244 114 145 105 76 183 92 4 221 53 231 210 90 89 64 192 252 117 209 246 157 107 253 159 151 142 248 91 200 84 24 99 202 120 61 125 89 235 182 148 140 80 51 63 86 157 213 218 58 244 230 29 182 239 232 115 116 17 1 16 17 233 117 11 218 101 55 238 243 113 130 
80 103 187 53 49 13 242 123 123 66 205 240 28 119 10 96 194 23 219 187 52 247 122 87 246 254 126 249 246 223 198 245 5 165 204 146 232 254 108 103 30 254 190 231 222 38 180 72 162 208 13 180 127 178 230 54 97 31 44 74 240 118 152 176 98 208 112 181 194 21 241 227 104 236 200 224 56 86 118 73 249 112 194 231 87 206 94 114 3 77 210 64 254 176 145 213 192 43 32 124 
35 209 240 170 77 118 234 160 113 47 211 37 37 222 197 163 152 246 158 95 179 177 59 227 43 17 74 174 14 224 15 101 201 86 108 88 87 45 20 33 226 243 63 15 251 72 154 28 15 56 126 39 186 165 148 12 108 65 180 80 247 59 106 2 167 24 27 7 126 234 14 150 155 50 20 122 230 5 227 172 169 97 168 181 50 175 216 143 240 153 89 249 40 252 193 140 219 231 253 175 
129 40 194 49 24 158 184 250 152 158 123 227 253 49 104 51 20 46 55 239 63 223 157 242 79 58 117 210 142 234 193 129 166 80 6 119 48 215 96 168 83 64 81 157 215 48 197 35 157 59 186 174 79 150 46 115 97 224 46 203 187 125 200 172 157 24 69 215 219 229 69 142 56 219 71 64 101 72 150 69 249 234 175 253 182 210 185 145 186 99 72 132 149 158 224 51 212 53 59 140 
177 216 199 119 253 59 127 150 3 152 57 217 205 11 133 224 158 170 47 200 121 244 166 30 132 117 72 68 94 174 249 183 209 204 13 239 32 138 174 23 252 254 126 78 192 56 183 250 132 31 193 185 75 171 45 184 202 197 127 171 107 140 186 123 114 241 60 168 77 61 152 125 118 24 226 133 212 201 98 139 181 242 159 101 193 96 237 134 181 5 44 190 228 193 233 53 65 135 25 30 
166 206 99 0 190 135 254 62 233 22 3 100 42 93 239 103 68 138 110 155 239 42 247 206 28 93 253 249 152 149 158 106 147 63 148 47 69 154 185 120 95 162 51 213 136 80 113 243 243 146 189 92 57 188 201 70 82 146 157 47 96 192 234 131 42 190 42 132 47 152 41 239 230 160 118 101 191 0 243 59 232 128 74 100 111 134 125 34 74 54 166 80 9 134 245 200 254 22 216 129 
102 160 54 134 145 64 252 39 190 37 114 114 177 113 156 64 10 5 177 245 156 34 183 142 244 40 178 150 168 63 17 153 167 54 124 33 129 196 97 135 36 60 185 153 193 87 182 112 216 146 233 73 220 158 43 252 146 150 68 212 221 44 29 119 15 107 207 144 243 92 230 204 13 148 198 189 158 174 101 183 34 149 182 113 136 14 145 19 249 245 138 0 70 87 110 165 167 91 122 69 
120 214 26 69 89 84 166 11 102 213 178 128 153 132 15 222 214 118 181 21 144 207 203 101 51 145 153 239 73 125 137 50 130 195 48 140 142 49 212 188 14 192 186 147 97 194 203 98 250 136 116 118 155 171 243 125 206 101 185 190 98 145 241 11 106 185 140 25 25 168 167 226 66 55 102 56 127 182 78 171 109 233 149 132 117 25 84 30 164 43 214 247 101 102 84 234 73 134 5 20 
30 227 104 42 221 74 76 26 53 201 232 142 129 1 18 171 200 145 42 243 144 145 160 242 41 99 75 153 95 112 75 151 84 175 208 41 122 112 33 60 104 101 172 146 211 19 173 44 233 13 217 57 165 137 210 205 25 155 73 70 68 11 147 100 138 126 220 182 167 154 46 248 219 233 29 178 177 127 242 59 26 117 89 16 187 254 16 195 118 187 204 9 26 64 17 98 123 104 233 250 
247 185 220 188 242 229 253 128 63 226 81 182 49 155 103 99 64 154 221 28 241 90 30 237 45 118 157 11 162 4 179 216 217 71 155 220 203 117 128 86 220 148 25 175 148 16 120 163 137 188 123 226 5 56 156 122 107 217 171 186 127 214 211 210 2 91 187 12 254 31 129 245 16 98 138 15 94 53 171 146 70 195 139 82 58 43 4 18 49 105 132 166 210 173 68 31 81 244 81 39 
174 7 94 205 90 250 71 144 51 225 100 102 119 81 174 184 183 184 246 55 184 75 0 213 18 109 1 41 151 205 234 14 145 192 38 125 167 43 192 106 197 167 212 133 18 209 180 32 16 38 140 249 137 106 126 96 134 9 5 84 71 25 101 12 116 179 14 157 16 32 75 212 139 79 89 39 69 223 118 218 31 39 155 17 52 220 139 203 93 247 40 144 121 215 221 3 19 188 37 221 
60 212 11 91 205 171 127 23 54 129 27 43 23 82 220 180 76 130 170 61 88 57 176 164 105 156 240 42 22 247 170 144 145 91 30 74 153 161 89 60 145 76 191 108 26 104 110 170 135 153 219 31 80 174 241 248 134 193 100 180 230 118 154 87 213 66 155 218 163 17 234 249 232 73 177 146 122 5 120 178 185 211 249 116 78 76 196 97 75 160 56 130 134 215 47 106 23 60 251 124 
76 114 93 121 58 250 255 178 236 107 189 59 80 109 45 247 142 199 36 38 227 85 137 199 225 156 125 76 45 234 39 168 192 86 192 43 4 74 140 122 104 166 137 109 112 224 34 194 49 180 161 63 164 102 121 85 117 133 58 0 239 56 49 143 179 64 189 88 109 137 33 113 44 194 159 103 85 176 132 51 12 147 133 176 197 210 8 98 121 199 182 223 80 214 35 230 222 114 10 165 
44 161 179 74 99 252 111 201 112 214 218 243 79 222 39 198 132 88 225 59 153 197 37 229 228 44 26 22 185 142 64 4 49 99 148 20 239 118 112 252 76 210 250 154 48 17 180 189 253 179 164 146 39 156 192 139 168 221 222 105 119 123 95 122 81 86 22 47 136 155 92 192 193 22 75 93 161 111 250 111 238 174 23 33 46 228 239 94 113 219 74 114 254 153 82 112 159 221 19 109 
125 25 151 167 250 187 104 210 96 33 3 170 216 133 102 113 183 65 202 238 21 153 227 112 187 91 122 159 147 22 226 57 74 38 10 129 72 107 199 213 222 105 242 147 33 202 25 154 34 157 133 157 86 239 26 209 62 193 52 32 229 185 208 150 58 215 98 98 210 102 2 34 208 2 163 51 24 228 156 180 243 158 176 32 93 7 135 161 211 175 45 152 32 73 230 238 241 99 201 28 
145 225 112 8 163 99 112 115 219 245 117 65 32 195 176 221 10 113 66 176 227 44 186 10 224 225 247 80 41 195 137 59 99 186 120 222 111 59 251 119 179 169 248 249 13 119 5 195 135 153 46 86 93 115 144 26 146 249 4 216 29 6 113 230 157 199 41 227 104 255 104 251 208 66 83 182 222 134 70 193 198 85 252 93 185 43 157 190 207 177 251 108 139 50 62 163 20 30 139 126 
84 120 110 201 199 183 38 253 239 123 191 214 17 123 53 99 79 60 154 171 223 177 14 227 79 17 28 63 138 198 198 139 105 69 172 167 199 246 158 61 24 106 122 33 136 163 135 156 192 174 227 204 79 252 94 68 132 207 229 198 12 103 23 76 26 7 10 227 229 187 77 250 163 155 234 236 151 153 76 217 146 131 190 79 41 138 248 229 17 176 227 232 95 63 220 15 182 175 122 215 
14 58 19 99 250 20 212 195 67 150 213 90 14 115 202 163 123 193 196 150 110 197 17 187 217 119 36 36 198 123 103 132 163 70 163 7 141 12 121 34 231 221 119 131 17 18 12 107 210 179 161 13 83 77 82 81 149 104 227 8 137 242 250 53 32 32 173 189 111 92 173 31 78 165 197 216 36 148 6 238 47 132 163 236 97 230 196 115 43 203 17 154 180 17 95 91 41 230 121 117 
103 71 135 215 147 14 34 81 124 65 55 188 186 79 51 168 103 238 153 16 251 238 135 117 43 130 2 94 106 254 162 252 28 101 220 135 96 170 108 80 169 224 17 192 172 95 249 172 143 253 64 155 244 156 208 96 146 255 39 74 8 51 53 128 5 95 206 19 136 80 106 63 219 104 184 15 247 122 133 37 202 113 171 148 214 249 249 217 173 227 113 202 108 66 41 166 131 224 161 171 
176 69 247 151 99 48 50 5 178 41 81 145 205 48 103 65 103 177 50 20 158 202 61 105 168 34 221 149 4 118 4 219 210 22 83 162 103 19 182 100 150 78 227 52 240 39 139 165 105 160 91 208 21 219 179 91 26 30 206 134 223 2 209 93 176 186 46 185 123 123 202 57 9 92 51 104 126 68 214 58 50 197 11 31 70 93 203 35 53 144 176 57 227 153 106 6 37 162 83 128 
167 29 86 63 183 109 102 48 235 251 149 207 121 238 161 41 36 194 193 138 19 142 156 235 200 191 194 169 101 226 184 57 10 142 182 43 8 82 218 236 25 6 9 0 164 145 6 75 179 61 208 48 237 233 254 169 126 218 199 36 150 68 217 55 67 213 139 244 162 202 134 122 176 227 148 95 55 207 89 248 150 255 230 252 111 152 222 88 176 243 0 130 66 23 172 150 144 125 9 180 
220 142 177 58 142 18 140 2 19 187 115 94 4 193 9 167 121 73 19 45 135 40 70 18 115 227 210 25 224 96 34 154 131 148 215 237 134 133 124 37 242 49 215 105 242 181 141 203 208 100 40 155 252 187 140 253 215 196 116 143 186 213 222 81 25 223 170 58 46 219 19 20 236 207 53 48 14 245 69 190 54 195 100 253 51 64 10 180 248 13 218 221 11 184 63 106 248 137 90 225 
72 242 30 128 52 105 28 76 210 97 23 235 211 58 172 192 19 92 163 25 230 133 65 163 142 50 55 58 136 141 148 164 205 225 19 194 246 171 123 212 217 200 191 48 140 131 141 33 193 169 247 235 203 109 189 72 141 162 109 94 231 120 30 90 77 132 55 211 9 224 14 116 98 242 236 68 71 90 44 33 251 170 108 153 244 193 146 21 139 113 208 110 111 205 157 54 236 28 241 44 
136 58 238 80 199 13 25 23 203 142 201 107 189 43 125 213 86 171 27 87 83 193 193 20 116 204 193 203 1 175 127 3 62 134 61 160 215 48 160 159 210 45 137 206 243 145 127 63 96 247 175 63 4 244 244 25 175 59 1 5 60 157 30 216 135 205 67 39 109 239 178 61 110 176 50 195 188 118 181 42 122 117 164 217 217 50 146 223 246 13 130 240 94 141 179 67 122 70 187 111 
87 21 2 77 27 68 235 185 46 226 234 188 96 12 166 234 211 41 208 13 141 145 236 207 170 105 246 53 93 123 11 90 127 208 171 212 19 222 15 206 247 183 135 243 82 146 128 156 153 220 3 172 223 26 130 60 40 135 69 114 105 145 48 205 21 157 119 173 178 80 155 132 12 102 48 31 161 90 63 67 163 242 248 157 119 248 28 213 127 104 42 32 116 96 254 148 113 88 242 142 
123 67 99 180 62 4 212 139 229 193 59 251 32 218 188 73 23 135 249 230 181 56 38 133 207 240 162 101 54 34 129 204 87 75 77 168 62 165 216 66 204 146 7 209 236 71 201 101 207 99 206 22 167 137 2 200 152 244 181 103 2 198 114 107 6 154 68 32 166 190 213 99 5 190 137 57 118 121 35 59 146 30 171 14 79 82 222 180 78 255 36 166 59 126 249 146 58 71 15 160 
183 42 143 54 225 241 197 87 191 204 209 36 247 86 80 192 135 223 76 3 102 83 220 134 129 167 115 83 213 254 191 26 105 216 149 83 72 160 173 150 47 248 197 153 8 168 245 209 137 100 185 207 110 20 119 131 40 223 86 185 71 156 67 93 38 255 179 84 195 183 65 14 171 116 209 238 126 102 56 16 159 93 51 103 100 237 23 160 63 167 47 223 9 24 25 215 91 201 28 101 
73 230 176 136 87 152 70 220 135 154 87 128 116 207 188 35 183 30 228 121 219 114 111 53 177 58 150 63 245 12 98 127 16 11 26 101 196 40 89 68 108 29 1 165 213 182 42 180 93 152 221 51 111 227 255 223 234 237 146 114 167 133 24 45 33 211 35 232 53 239 168 248 217 19 252 185 19 212 231 30 40 38 35 9 177 58 229 247 91 222 69 204 17 196 61 181 219 112 162 6 
41 129 48 20 185 44 249 4 99 90 81 52 75 5 67 54 8 139 59 74 186 110 249 232 78 239 225 202 228 133 207 93 33 206 14 26 192 201 204 30 55 232 94 30 82 93 9 84 33 23 121 118 126 187 142 40 240 177 88 91 181 170 163 118 133 34 108 36 189 31 169 55 228 184 227 31 65 47 146 245 24 238 218 42 100 229 222 100 171 244 165 235 10 13 253 37 176 235 159 66 
70 180 19 64 132 77 192 121 213 180 193 127 214 229 48 140 232 211 58 9 246 220 10 171 190 88 106 45 154 66 49 88 201 100 166 32 217 18 65 39 113 165 132 235 18 10 201 224 205 237 121 44 68 54 166 7 243 177 164 121 80 99 67 132 43 47 145 153 215 44 7 44 199 61 21 90 139 84 170 98 59 106 11 172 147 61 60 252 117 143 180 207 216 40 24 226 38 212 237 145 
148 195 152 164 222 69 149 99 178 56 244 30 146 187 176 87 61 181 175 136 13 101 67 124 8 40 83 156 212 161 250 147 44 90 98 142 235 105 144 71 18 77 223 173 181 196 116 143 133 171 190 184 137 70 47 44 94 150 19 250 118 50 186 120 250 135 44 6 37 130 67 16 27 227 48 250 38 247 231 230 56 251 141 112 236 26 152 154 195 22 41 235 12 70 13 50 119 31 232 106 
199 231 175 83 101 76 136 184 94 107 197 102 46 67 20 206 129 232 193 199 21 109 250 29 12 157 17 196 193 248 202 50 211 196 32 153 225 20 130 221 90 184 46 144 7 156 101 136 63 137 64 242 58 112 149 40 135 224 173 236 34 24 210 92 192 21 8 127 91 24 204 56 40 244 130 112 229 16 128 238 254 63 32 149 203 44 97 85 129 252 213 249 169 238 225 155 196 144 249 234 
75 97 98 73 130 33 23 178 37 135 95 218 218 54 179 49 34 188 44 87 49 64 52 72 210 28 64 57 57 164 210 151 245 87 238 17 52 112 142 192 78 211 36 136 2 250 76 153 168 236 125 194 80 203 157 31 227 170 194 231 214 59 243 52 75 178 109 188 226 82 66 214 172 155 37 207 7 43 69 236 114 96 39 142 36 205 80 207 235 134 181 129 106 178 220 26 72 251 92 193 
133 208 254 198 229 64 107 92 243 209 65 220 42 212 36 34 112 17 109 203 64 87 3 74 21 191 125 33 195 28 46 243 209 100 223 231 215 103 35 191 251 9 181 46 238 185 183 49 43 242 45 92 75 232 188 234 231 169 48 82 171 142 95 62 76 106 238 65 234 157 153 91 151 163 146 144 234 67 144 125 73 126 149 164 64 68 19 255 121 38 81 52 78 152 165 72 195 22 68 195 
5 87 44 102 78 33 245 184 149 198 247 136 103 78 44 220 156 209 89 183 118 149 228 213 127 118 164 138 37 183 57 53 66 131 206 136 126 155 114 243 31 216 90 91 63 13 230 194 186 54 203 130 20 100 27 146 168 46 227 22 235 178 90 56 220 115 2 91 51 50 166 205 107 73 241 104 224 201 212 108 56 195 206 28 92 31 6 33 159 227 147 81 238 69 29 32 83 206 246 18 
123 77 144 59 7 5 242 191 70 213 226 207 35 247 222 155 155 149 80 102 230 124 45 4 38 169 182 190 79 2 9 241 174 87 40 155 137 129 177 210 202 169 139 234 209 91 91 168 146 157 186 0 165 22 190 66 108 61 93 184 7 46 192 130 154 59 84 164 117 131 146 63 134 125 74 10 42 193 190 107 88 192 22 83 75 69 174 148 81 73 192 234 131 29 192 0 60 61 75 205 
46 44 42 73 124 143 73 204 181 0 136 240 37 120 3 3 235 114 252 88 228 131 221 203 62 225 82 70 124 215 29 94 1 61 129 104 150 167 11 160 244 188 5 83 215 136 195 188 153 155 210 92 232 7 117 32 9 17 110 31 13 231 126 126 103 197 231 16 65 77 153 210 105 187 141 88 57 96 37 135 129 12 70 212 228 4 121 192 156 62 180 146 19 36 110 229 179 160 16 27 
156 214 212 253 246 183 154 250 136 52 105 8 70 135 102 239 134 117 53 198 89 96 224 86 50 215 51 188 79 203 160 254 169 114 245 174 209 8 216 150 129 220 130 83 81 155 7 214 202 37 90 81 147 219 61 53 170 169 56 239 86 98 25 170 68 130 246 21 136 206 57 222 53 41 205 151 108 35 133 127 213 119 97 252 78 33 36 228 74 222 83 146 37 219 196 80 198 244 13 211 
203 104 203 130 174 186 127 160 108 55 228 183 22 131 208 102 38 86 148 239 126 115 181 244 142 22 131 108 195 138 128 120 250 230 125 110 74 74 243 211 241 155 91 136 86 239 227 119 169 16 208 86 1 200 192 179 27 108 115 43 19 75 23 192 55 35 93 37 164 173 35 219 139 217 224 141 60 29 233 247 126 156 38 55 31 113 99 67 229 225 72 193 211 160 62 47 160 129 175 48 
190 0 26 181 108 166 188 63 8 253 190 254 186 143 88 67 189 60 231 161 50 194 111 226 174 37 23 169 46 179 202 249 157 173 120 79 199 172 74 208 153 205 255 55 116 113 215 183 151 190 29 201 116 222 17 122 24 20 54 224 147 141 66 238 43 188 41 190 201 221 65 222 24 255 12 93 88 28 106 83 78 198 253 146 244 82 102 202 239 35 52 83 112 220 79 211 10 81 157 154 
