P2
100 100
255
118 91 90 75 66 167 204 176 50 3 166 120 84 228 105 61 18 180 99 56 237 8 70 59 9 249 233 148 180 148 98 250 20 170 134 179 221 32 106 26 18 112 153 97 226 69 79 164 99 198 222 246 76 180 128 24 70 51 56 225 155 187 47 225 251 208 65 109 112 51 76 2 154 36 188 95 140 86 69 23 122 36 203 144 4 203 3 104 69 12 57 171 31 109 134 130 96 95 128 226 
14 192 55 111 186 233 242 19 166 59 170 247 58 233 47 251 210 223 104 153 130 44 251 197 91 112 134 235 153 10 78 125 220 110 80 62 48 49 144 21 248 85 68 240 200 98 92 65 196 111 10 19 43 179 61 178 44 104 66 64 127 192 165 181 2 127 138 69 137 155 4 233 52 235 229 146 28 158 31 190 99 68 66 52 97 3 221 148 42 134 136 254 216 101 235 232 202 135 181 53 
92 57 91 8 160 177 222 171 136 178 40 251 168 223 141 30 87 75 206 221 84 99 59 65 237 242 132 215 128 137 251 116 237 184 63 40 240 176 40 89 208 7 3 114 242 60 70 201 129 38 10 145 227 201 189 11 105 195 85 237 176 140 8 95 72 185 116 181 32 209 37 172 83 154 102 178 123 55 73 98 10 122 32 192 14 48 157 79 168 130 136 141 10 27 214 41 228 149 8 200 
57 170 150 223 244 172 244 147 169 159 31 61 215 170 29 88 194 98 204 26 196 93 144 185 155 29 213 248 241 151 67 123 164 38 63 126 196 98 73 41 31 185 113 148 11 103 246 162 171 225 134 94 177 181 32 180 15 156 14 88 134 20 73 202 164 171 204 212 73 221 200 178 27 52 154 35 68 145 182 2 46 59 55 116 242 39 211 248 50 233 119 93 25 91 248 233 83 90 85 125 
213 255 87 0 88 97 214 171 242 182 101 82 122 253 206 219 128 137 233 145 150 254 222 19 33 154 19 100 42 20 161 29 70 190 129 226 142 56 0 238 130 172 96 245 32 139 19 49 215 179 233 34 31 232 115 21 9 41 229 200 222 26 233 199 67 137 32 35 146 227 138 33 161 209 114 201 138 20 104 49 140 8 74 99 187 104 61 199 166 215 90 197 227 22 89 227 142 76 57 92 
203 15 168 240 18 174 92 235 130 192 109 220 84 187 145 99 164 251 163 114 62 3 224 130 181 56 173 224 186 48 94 54 88 185 2 173 51 252 155 42 20 51 232 101 36 135 18 158 44 22 25 170 49 82 192 61 32 143 133 244 186 118 223 188 158 219 2 19 145 173 216 33 94 9 67 222 57 7 158 128 52 165 169 40 94 165 202 135 58 152 28 249 151 140 64 8 220 178 228 165 
70 94 183 191 33 43 160 171 49 118 199 16 241 99 250 38 119 92 246 67 85 1 121 3 30 189 13 254 76 160 22 112 99 223 112 45 28 231 4 240 221 109 241 88 192 30 123 215 241 73 17 81 37 80 110 139 195 66 173 107 226 226 185 69 164 45 215 161 205 93 5 199 221 136 153 52 244 253 130 157 55 249 76 177 220 49 170 192 171 62 168 210 136 241 191 73 67 216 183 220 
249 4 123 74 95 210 35 178 21 221 177 16 90 179 152 1 192 76 130 187 124 51 90 17 69 243 195 52 61 8 140 37 117 107 93 219 174 173 122 199 141 72 221 131 69 137 192 45 32 109 238 182 125 222 205 221 156 45 251 192 157 4 235 33 226 61 76 129 54 218 74 185 37 134 23 116 36 49 93 10 222 197 77 192 61 37 55 186 226 155 137 126 8 6 63 96 18 173 20 181 
252 154 6 187 133 139 181 160 154 111 131 211 95 86 11 234 12 50 196 142 0 219 103 191 217 248 190 4 139 214 87 142 64 95 206 17 196 145 45 101 228 131 223 181 17 108 24 20 2 178 32 226 146 52 28 218 204 173 238 21 126 250 78 26 53 250 231 230 171 51 128 143 255 64 156 171 72 138 159 21 53 82 121 101 241 245 94 20 168 92 111 197 167 160 121 61 181 89 229 156 
12 138 154 46 61 179 187 204 175 161 35 52 1 24 44 97 13 91 86 154 226 200 175 30 211 112 89 118 185 137 73 207 209 32 14 228 63 25 200 206 122 33 10 132 238 134 235 60 73 145 217 33 104 244 159 182 42 209 3 212 185 135 60 94 196 19 167 15 188 36 200 24 4 30 23 179 152 141 229 100 23 164 120 152 45 230 41 149 8 22 7 67 83 213 131 80 46 7 180 54 
149 3 141 238 246 122 220 162 87 192 25 117 215 130 0 1 86 119 111 162 88 16 125 217 162 239 221 226 86 173 140 77 20 233 131 97 47 108 88 87 33 91 105 121 237 226 240 39 141 141 109 10 168 9 9 230 35 118 149 135 204 237 27 41 180 6 88 148 25 179 213 54 184 104 169 170 57 25 82 93 176 81 9 253 160 191 236 8 1 169 19 36 155 53 165 195 187 230 41 147 
198 3 216 168 184 104 203 187 220 64 73 38 122 192 156 255 130 1 25 51 35 198 7 81 141 60 204 218 108 49 21 35 165 146 202 78 214 114 233 36 48 48 168 217 69 91 125 220 206 178 74 182 66 202 56 202 95 70 85 3 200 193 76 222 0 137 88 100 122 33 248 207 61 95 130 214 67 228 191 213 135 10 39 212 14 192 94 49 79 154 0 207 182 230 132 31 157 54 221 68 
255 3 87 220 66 186 168 32 8 217 129 93 189 20 213 116 198 30 12 145 141 249 174 25 138 208 192 56 1 34 113 244 179 197 248 157 204 148 236 187 223 44 231 162 72 44 176 45 195 189 254 227 136 152 198 231 113 89 252 159 193 65 111 245 83 17 88 145 22 231 121 80 217 68 123 149 17 246 96 193 193 157 238 57 5 161 213 80 213 246 197 120 201 138 166 231 96 59 72 185 
84 126 21 157 236 190 4 117 171 130 151 249 139 235 33 50 92 202 31 74 66 247 146 105 0 53 125 49 155 94 101 91 140 68 218 126 250 109 42 225 0 116 122 85 97 176 153 247 151 82 52 225 1 176 246 245 38 222 8 199 179 37 53 94 190 125 197 21 56 83 212 20 91 255 126 183 77 139 141 244 31 106 82 106 118 188 255 167 251 7 37 62 94 246 146 147 107 110 100 218 
111 72 67 117 83 63 140 204 94 160 164 237 72 229 123 109 15 40 84 154 77 128 246 204 219 78 220 217 22 109 95 178 244 209 197 228 195 31 192 118 129 139 163 59 9 115 17 28 161 117 152 114 252 218 208 98 38 107 145 174 195 197 158 192 147 140 56 79 167 133 25 203 182 53 37 182 143 164 72 79 169 52 169 193 63 201 223 238 240 200 124 172 57 56 146 205 207 20 156 11 
212 114 216 210 181 168 33 18 78 75 124 110 177 194 137 91 107 228 95 248 124 157 227 92 123 73 20 107 155 118 46 63 111 91 211 73 116 250 91 122 7 147 100 226 81 112 141 2 54 33 69 206 222 22 182 146 254 195 250 2 136 133 119 132 128 20 115 169 127 172 141 186 138 249 135 56 223 72 60 10 143 11 172 135 221 254 230 98 229 233 142 131 214 107 29 69 42 65 215 254 
197 97 155 211 81 50 80 8 130 81 30 139 102 236 217 132 105 108 213 83 120 201 210 159 1 111 6 150 81 108 71 130 77 252 219 16 248 47 197 28 146 215 39 116 122 178 130 73 172 183 167 209 82 220 65 196 33 237 205 74 133 103 219 116 67 194 143 208 46 135 98 123 250 17 69 22 236 53 54 241 200 224 167 250 59 239 156 232 228 171 107 12 13 186 118 162 218 134 138 251 
37 208 26 46 77 148 156 27 159 194 218 58 144 252 137 155 181 253 104 120 70 127 20 121 5 82 205 245 129 221 164 51 42 119 87 254 27 149 159 54 234 12 109 10 138 221 183 240 149 31 248 83 167 18 24 149 111 207 3 165 232 146 27 3 221 172 6 157 123 1 53 66 136 243 122 93 94 26 33 93 12 220 65 26 136 7 250 214 142 191 200 87 50 104 77 101 6 243 236 61 
63 188 189 248 151 19 111 101 124 123 126 142 132 235 89 19 86 130 129 97 22 174 21 139 71 181 6 4 144 211 67 115 86 58 72 183 203 86 166 120 201 103 235 237 11 137 125 45 207 7 22 175 32 152 153 217 137 246 105 192 141 213 90 233 223 161 186 162 42 87 51 229 53 233 84 118 110 99 250 141 42 54 61 26 154 252 71 248 183 104 223 169 212 23 31 180 118 238 46 191 
170 5 218 10 97 177 62 135 118 183 138 250 135 244 247 229 153 178 76 8 14 219 175 73 40 204 12 131 54 212 214 199 92 116 174 140 2 146 76 155 23 228 215 8 153 243 19 183 176 146 250 101 239 53 191 79 202 25 238 230 100 136 55 73 134 189 93 163 107 243 254 95 152 156 109 228 34 71 149 231 120 152 29 207 203 102 207 219 13 84 246 181 240 8 141 18 155 139 115 253 
253 100 171 224 158 185 60 85 8 144 93 159 228 56 125 189 88 232 60 114 166 154 105 222 73 200 254 169 133 182 143 106 134 185 84 251 77 199 229 122 41 32 49 235 33 4 123 143 120 240 65 104 232 243 14 202 133 45 88 63 151 139 49 76 15 123 161 75 13 148 108 148 100 67 131 228 197 58 223 87 141 194 206 75 40 235 0 68 226 208 36 252 238 75 126 178 53 28 33 197 
26 229 234 196 140 48 91 124 40 224 42 88 149 104 166 82 148 155 157 154 237 238 227 169 47 68 21 83 127 200 2 65 196 126 121 32 150 188 205 11 195 144 126 236 176 220 14 178 78 37 98 184 234 184 109 2 37 21 99 201 235 24 116 159 98 27 38 232 148 58 235 217 52 157 35 4 161 248 193 56 185 74 99 47 117 108 228 228 240 205 223 242 15 56 83 108 0 235 48 167 
109 53 121 191 232 80 250 180 165 7 100 88 19 134 141 55 229 113 229 248 104 214 145 148 147 247 104 220 98 15 81 165 56 7 169 9 181 231 105 30 250 28 10 177 115 33 83 205 28 248 206 115 115 196 255 9 169 188 63 186 86 97 69 221 181 151 111 144 123 78 46 16 217 253 182 230 1 169 208 167 231 169 243 77 30 148 86 20 188 245 5 12 174 218 160 72 17 85 132 52 
236 199 25 137 241 38 59 176 172 117 23 254 235 99 32 234 239 173 111 9 171 224 227 222 234 16 102 111 213 109 19 95 54 203 175 252 8 248 11 217 208 220 145 29 244 28 168 235 91 127 173 33 187 35 140 116 109 215 161 174 228 86 254 20 195 141 112 123 205 82 108 104 10 75 11 61 158 241 19 168 10 0 151 187 88 142 80 196 112 81 88 230 159 179 196 71 178 155 235 45 
31 198 34 212 103 113 109 52 88 38 136 25 6 51 191 161 102 210 133 64 238 180 37 155 65 235 77 0 114 254 59 209 84 165 179 133 125 32 156 0 125 72 25 75 14 81 136 234 232 12 198 154 12 242 191 72 93 145 163 66 162 60 220 175 70 112 177 134 59 218 160 121 154 106 198 210 226 172 105 226 103 37 84 173 115 147 21 63 87 28 134 181 122 21 171 47 31 53 89 10 
235 60 247 61 97 86 164 62 200 16 236 27 155 187 179 190 25 231 184 131 200 100 112 167 83 135 31 153 114 6 248 139 206 147 33 73 175 81 192 152 92 119 69 164 158 134 216 145 154 103 187 36 176 195 155 81 160 177 72 235 247 177 254 62 226 206 192 83 165 204 82 249 255 9 122 39 218 114 183 242 26 21 171 251 64 239 37 28 90 155 226 229 87 177 107 122 118 188 68 224 
64 126 88 222 232 179 43 54 195 83 30 254 102 85 52 181 33 88 29 231 112 115 88 194 55 215 135 251 4 183 160 2 170 199 114 133 127 217 133 104 131 30 18 54 149 211 170 82 215 138 170 235 105 197 134 179 38 22 95 173 239 197 193 36 198 36 95 135 237 200 24 8 28 240 21 40 128 186 6 128 46 216 128 55 151 187 45 35 216 240 129 137 8 90 56 132 95 19 25 60 
19 125 126 4 134 4 0 232 129 247 11 35 172 197 95 241 4 214 122 124 77 140 37 105 133 200 3 222 15 5 149 150 61 39 30 84 47 107 182 191 156 97 128 24 71 84 83 148 241 38 42 186 254 157 74 63 16 140 175 140 228 210 39 28 94 5 230 75 15 138 153 207 89 7 65 236 16 77 220 245 58 24 187 67 200 72 162 205 64 189 135 111 128 9 230 81 148 134 207 43 
234 194 184 218 132 228 62 100 215 37 211 112 53 95 4 209 150 0 101 39 226 230 47 190 247 154 4 63 200 199 18 81 38 2 167 62 81 67 232 122 42 48 182 33 164 199 122 219 231 254 120 99 114 69 214 15 223 109 136 186 142 114 28 10 16 214 67 33 240 33 164 65 132 40 84 189 161 21 114 185 33 232 12 100 176 70 186 155 45 118 192 237 201 250 160 213 164 241 18 168 
19 8 61 197 118 221 102 161 27 222 140 248 200 140 165 249 66 208 65 7 84 245 34 10 156 175 46 19 1 205 129 44 221 76 14 162 242 161 179 1 222 90 18 207 76 230 33 180 154 201 67 31 149 10 244 74 208 121 108 26 234 47 237 245 12 203 188 253 26 53 187 89 92 49 98 185 81 137 161 222 204 88 47 100 242 145 98 47 217 132 9 49 109 180 229 19 146 134 92 236 
136 180 39 15 7 98 198 0 72 31 34 249 10 142 136 121 140 148 103 62 8 205 100 254 77 59 112 124 248 190 218 105 9 195 234 90 158 196 231 80 187 58 181 199 228 160 32 50 35 172 151 12 10 11 127 225 27 118 102 60 174 49 155 44 119 234 100 124 112 244 105 244 109 116 238 150 134 141 110 168 177 123 71 137 198 157 185 208 203 162 254 33 153 230 237 39 119 41 216 8 
238 30 105 112 88 3 54 133 147 16 252 60 225 101 248 175 117 183 12 196 244 214 77 254 25 105 212 220 35 49 150 145 192 245 10 238 229 113 170 114 48 30 209 190 116 174 245 22 137 21 187 78 225 191 96 242 135 213 186 88 90 195 50 201 234 109 211 33 198 94 52 228 138 44 213 186 135 123 2 0 152 212 117 123 249 29 161 231 7 39 203 121 76 7 251 23 29 249 16 34 
16 234 211 10 162 193 101 39 9 85 70 98 192 250 121 143 78 215 174 96 96 183 118 150 241 197 162 33 50 187 195 207 77 147 227 227 28 163 19 176 202 154 154 135 215 150 177 152 254 46 6 99 135 192 45 60 132 217 4 53 249 167 76 240 188 65 59 108 64 87 30 188 56 97 156 149 123 250 142 5 30 161 109 226 26 81 129 253 201 6 57 221 138 48 48 47 228 88 161 125 
50 117 222 138 113 1 86 137 61 126 189 211 4 134 6 154 125 137 174 245 18 93 243 195 195 253 221 160 207 96 235 151 157 138 165 213 247 159 109 136 140 245 249 62 212 50 12 92 218 57 251 205 50 179 14 105 88 41 146 143 48 116 31 77 66 194 149 181 12 131 210 206 66 131 200 48 130 251 8 91 186 124 78 248 190 17 53 156 90 214 120 243 6 254 225 58 45 48 213 84 
19 38 86 223 151 35 245 69 166 124 189 122 21 170 160 156 130 217 198 218 26 90 231 126 182 79 229 133 15 46 10 76 108 154 24 228 129 28 35 133 103 158 194 138 45 27 3 241 4 151 9 77 65 13 13 150 61 185 10 31 52 192 5 128 159 209 13 251 26 179 89 8 73 193 230 106 188 8 73 172 188 169 63 79 114 64 8 175 119 147 189 197 218 6 243 185 192 74 214 247 
243 224 131 216 150 78 180 235 179 10 254 1 100 152 182 0 27 192 61 74 65 160 190 168 193 32 194 156 170 214 80 139 43 25 211 63 129 219 67 200 160 131 243 0 197 168 239 182 226 227 128 165 192 139 165 77 253 8 46 152 222 65 190 72 192 164 229 191 115 99 22 67 209 240 90 35 237 177 119 9 146 204 6 35 138 46 181 90 192 160 112 244 134 51 233 99 240 46 97 96 
81 14 84 194 171 36 135 120 153 169 5 241 37 127 59 169 164 63 26 153 137 148 2 222 21 69 84 148 200 223 222 19 169 108 60 154 40 251 121 143 247 113 176 169 79 136 233 29 26 204 243 13 138 177 51 20 161 227 10 99 39 149 44 159 246 125 176 86 95 199 40 25 15 66 167 0 5 148 2 175 28 152 76 118 230 246 46 169 12 145 86 247 78 2 107 65 113 185 129 148 
227 54 151 59 29 50 96 125 155 69 8 205 199 149 173 179 130 13 172 57 254 222 230 223 107 74 243 237 203 192 15 32 98 2 105 226 203 132 116 179 202 235 217 34 98 63 30 74 120 72 193 204 48 42 199 131 88 194 176 243 77 207 6 226 26 27 255 175 56 32 198 77 177 64 73 105 137 173 170 157 30 27 136 240 140 91 207 81 23 66 65 233 250 158 116 139 12 188 157 234 
157 173 211 158 91 7 39 140 179 30 88 99 62 81 185 190 62 162 255 191 231 111 15 232 122 209 154 124 195 187 128 230 78 174 170 126 119 201 20 208 2 37 5 242 82 12 240 234 22 153 180 136 210 193 23 240 59 59 221 33 17 126 233 61 158 97 67 147 35 141 108 107 131 239 65 191 180 64 132 180 2 160 202 231 201 20 176 186 216 84 242 156 117 127 54 87 145 146 142 91 
207 127 42 230 83 80 49 148 194 185 35 36 115 62 73 201 143 136 155 156 75 74 192 186 102 156 188 98 27 92 129 162 216 242 29 164 17 252 205 123 145 146 118 203 104 65 142 194 16 132 85 150 137 111 236 106 151 152 55 219 151 6 57 221 232 117 48 78 84 136 161 228 255 141 145 128 171 191 143 31 18 200 27 248 70 49 209 197 143 65 203 143 243 230 204 185 3 73 89 213 
60 54 154 102 111 133 212 161 115 180 85 19 130 248 7 222 22 126 57 14 139 65 72 244 169 48 7 173 96 46 220 172 32 178 93 193 236 160 161 98 47 61 211 20 222 22 74 216 37 13 109 80 191 55 25 245 30 149 90 122 46 207 189 232 133 109 239 236 74 151 218 242 155 223 4 21 168 197 54 162 198 63 222 4 198 20 164 184 75 52 92 154 148 2 143 157 12 189 156 152 
43 15 140 48 75 240 40 65 166 207 3 129 65 187 224 167 124 122 52 12 11 202 176 142 238 153 146 108 178 234 160 183 198 67 26 164 7 157 104 100 169 176 54 65 222 106 208 160 43 20 143 84 33 42 50 81 227 77 94 178 30 85 146 223 130 134 19 96 46 98 48 105 215 31 248 247 106 15 63 189 93 193 117 202 60 234 253 132 119 193 255 252 192 120 230 247 81 74 173 255 
74 99 71 182 237 223 57 139 33 142 149 202 215 13 193 227 224 199 253 174 159 236 163 117 54 143 228 16 11 80 179 220 68 206 157 104 70 216 153 185 123 7 197 4 5 20 116 178 219 39 73 173 154 104 196 164 41 52 28 160 121 6 201 230 250 228 116 120 25 9 172 155 61 164 165 253 209 241 15 31 47 37 192 8 123 187 38 191 85 154 241 10 177 141 76 139 64 227 46 105 
83 77 199 66 223 57 42 133 218 28 71 135 122 254 226 196 197 15 209 18 65 16 158 217 88 206 84 253 203 185 208 86 217 95 253 52 212 53 206 19 22 203 40 21 123 70 170 94 188 4 108 110 19 158 199 64 82 57 47 203 183 52 155 32 78 152 231 220 136 222 100 249 14 176 75 189 88 241 250 64 42 108 199 241 137 127 218 16 188 255 100 62 219 153 69 149 140 221 36 144 
68 158 105 149 144 189 214 197 66 109 54 177 25 106 65 141 236 135 50 80 242 181 239 114 216 185 9 169 73 243 244 129 70 189 231 134 47 38 70 182 224 16 153 119 8 199 106 30 52 132 224 55 209 183 245 130 194 147 0 255 241 26 111 179 142 74 168 253 121 221 159 238 211 134 34 195 103 71 109 0 170 114 76 218 118 238 180 215 229 102 157 222 242 210 63 238 17 21 248 22 
6 195 90 10 151 249 138 163 185 57 49 95 154 28 228 124 196 94 200 192 121 171 206 89 122 1 81 245 7 176 14 8 237 235 45 173 245 247 197 107 67 45 253 244 91 181 253 236 222 55 210 27 210 229 176 147 93 124 207 215 37 169 213 77 80 127 26 76 10 156 100 125 66 33 60 58 109 92 116 91 194 165 187 35 129 169 153 2 237 187 116 110 247 13 198 140 60 182 201 109 
101 104 197 245 108 231 50 154 27 48 136 111 235 158 102 41 0 204 221 186 233 29 44 18 10 133 130 88 94 105 56 41 221 185 220 52 209 211 241 193 227 36 36 26 239 106 67 101 89 252 234 134 58 86 199 253 155 29 225 7 94 246 119 72 24 157 197 77 64 228 75 95 237 145 185 182 136 10 115 83 203 212 176 43 125 109 105 136 9 114 152 248 233 22 35 227 204 222 238 37 
78 90 250 119 45 56 140 189 141 184 97 251 79 39 181 20 126 180 247 191 15 62 242 222 192 211 175 247 14 204 176 187 79 39 5 245 190 93 151 51 95 227 100 33 92 251 249 191 161 232 43 123 185 190 175 235 61 231 98 231 143 243 85 81 175 240 101 170 111 21 118 249 191 181 255 59 51 220 171 221 64 13 184 2 250 211 250 26 99 243 44 247 26 100 41 130 27 75 179 114 
53 128 100 104 34 6 165 10 168 115 18 165 183 115 174 31 70 189 250 71 239 52 14 117 137 50 182 69 228 201 16 248 154 16 139 220 12 33 88 145 108 224 76 185 65 18 18 131 86 177 92 147 243 84 68 170 213 242 37 40 122 168 199 111 110 123 114 73 27 31 172 54 24 211 9 243 123 190 253 204 239 135 130 238 39 116 48 97 99 107 10 177 177 52 3 177 82 224 2 195 
180 66 18 78 124 203 191 29 123 41 239 236 31 250 211 221 56 220 164 35 67 71 243 25 58 31 195 253 210 166 210 111 188 226 157 59 214 108 226 10 235 119 97 108 160 221 17 80 173 117 249 109 108 102 179 215 3 233 180 135 141 10 90 48 236 94 168 129 169 224 108 194 230 234 137 68 164 235 199 123 245 197 4 8 229 78 197 155 46 47 205 200 255 163 219 51 224 136 233 1 
74 208 97 240 223 115 169 126 87 32 237 238 127 177 139 93 57 213 93 118 55 31 39 155 139 234 130 16 252 211 0 49 233 174 74 226 15 179 193 5 216 220 220 205 9 226 129 146 166 137 86 26 42 250 105 34 198 34 28 231 14 175 12 143 53 185 129 144 138 216 234 247 242 18 147 19 172 213 225 12 253 136 174 2 38 99 82 200 155 215 225 18 204 70 2 171 221 191 36 157 
114 159 78 120 196 251 61 120 58 43 100 213 82 7 237 127 23 99 16 110 18 203 241 177 115 165 223 59 215 87 188 176 12 212 215 91 167 92 43 250 6 233 187 249 110 189 175 61 121 23 188 127 101 178 117 235 187 130 123 6 8 82 147 21 181 141 227 201 171 77 43 125 87 120 8 184 53 33 61 33 148 46 212 115 7 167 121 251 234 217 11 16 173 8 56 105 2 5 146 147 
243 234 97 88 134 90 26 248 228 144 178 144 109 138 252 251 220 209 80 115 195 245 79 10 241 195 42 17 223 112 70 76 193 154 88 79 54 61 197 250 52 111 218 183 204 145 97 148 56 24 127 125 124 225 22 185 249 90 183 142 19 170 43 82 85 83 118 178 154 179 51 19 255 9 70 237 215 102 140 178 33 21 65 149 208 163 242 113 238 241 60 147 210 77 158 247 87 104 113 246 
51 252 169 78 136 120 46 71 191 186 6 107 20 215 254 215 7 191 139 98 157 47 233 86 42 142 51 133 109 117 183 88 185 23 102 172 173 242 3 106 20 56 47 169 181 147 227 101 216 76 42 150 32 114 140 206 58 110 179 152 63 182 140 193 64 205 238 147 253 32 88 96 53 20 142 254 149 216 204 230 125 222 22 137 59 93 96 103 136 75 86 252 89 225 117 102 186 58 149 37 
160 53 3 54 83 90 41 106 132 224 34 78 107 194 36 241 253 205 233 64 118 219 165 181 177 104 55 7 170 143 25 6 15 46 81 166 224 251 57 20 43 175 53 198 211 51 183 84 141 17 250 24 86 69 214 160 179 168 204 170 255 218 178 95 130 190 178 104 144 117 131 166 61 222 119 164 158 50 195 60 187 251 100 82 163 212 68 127 77 138 185 167 37 33 187 48 172 42 231 244 
222 125 117 219 107 8 232 23 218 43 133 202 57 251 202 8 153 118 53 143 125 15 230 57 223 68 123 189 135 42 181 112 170 207 95 0 93 216 75 155 120 34 155 140 97 219 87 255 140 167 168 147 164 28 35 151 24 10 83 38 106 230 199 146 210 179 7 122 238 78 206 207 100 156 141 81 128 61 249 149 218 226 221 130 140 240 79 10 30 33 33 185 42 234 176 154 2 242 92 242 
161 114 172 92 35 235 223 215 228 25 54 165 217 174 216 231 170 161 232 130 241 50 230 143 138 108 241 96 117 221 44 186 44 127 113 87 140 108 165 125 247 198 157 145 221 79 170 28 17 233 195 18 216 220 3 192 179 44 66 197 171 22 245 161 116 134 34 141 148 185 225 105 34 105 161 45 88 200 202 67 44 246 254 52 243 233 185 28 239 230 169 152 104 187 211 202 162 95 90 204 
100 139 219 249 195 33 126 20 81 50 46 34 176 152 192 161 127 166 238 218 195 118 54 67 177 220 175 96 56 178 5 34 28 103 198 247 253 131 107 103 9 113 17 250 73 70 87 58 209 22 199 228 181 241 234 55 52 63 108 212 103 82 56 206 40 184 32 48 20 56 155 23 97 166 2 210 180 122 203 46 73 136 175 182 177 153 147 83 218 128 60 112 141 158 91 188 129 180 135 67 
100 213 198 232 171 223 153 130 9 189 110 252 177 25 163 200 239 40 235 65 106 65 193 233 0 8 144 157 43 64 139 149 9 243 195 17 70 21 112 121 26 249 226 220 164 213 83 96 117 12 237 180 229 203 3 142 105 211 250 225 175 208 29 168 45 222 200 20 185 76 255 58 250 167 110 34 41 10 81 47 248 123 94 120 189 186 199 121 4 45 233 22 87 119 18 72 45 246 208 32 
160 242 250 241 175 120 119 11 152 69 53 211 78 59 2 162 99 83 143 241 138 157 107 36 42 57 231 79 74 174 58 140 76 254 142 156 177 100 244 164 73 152 31 215 95 198 166 74 55 16 17 229 189 248 234 197 141 47 234 43 50 223 167 229 39 240 21 149 103 131 83 39 99 254 169 113 6 17 139 123 30 203 83 66 20 185 13 204 2 18 194 10 140 171 185 231 182 245 254 10 
161 249 170 252 15 82 163 233 3 144 19 77 126 190 188 34 175 181 187 186 234 210 179 27 15 134 22 228 64 203 138 231 99 84 18 161 127 166 70 48 40 185 28 70 115 1 50 239 175 177 146 165 153 64 208 119 170 10 68 229 28 128 88 212 228 96 245 37 215 37 22 236 178 51 109 195 220 165 254 228 150 15 80 187 250 143 228 164 64 130 133 65 92 55 78 210 69 145 79 111 
42 223 224 153 231 215 188 214 118 75 13 108 238 149 163 185 122 234 38 95 190 64 72 7 251 180 186 226 7 155 41 78 117 187 55 90 169 165 43 112 179 211 219 200 183 65 255 7 123 193 52 134 88 205 80 87 250 175 31 134 102 202 213 45 155 127 26 154 130 197 253 49 77 192 232 123 83 168 146 83 84 111 76 169 153 225 203 217 1 192 149 10 20 84 35 178 82 93 57 39 
84 114 94 217 234 227 139 175 206 141 30 79 59 135 0 89 35 169 215 104 150 130 58 11 128 189 181 143 47 52 72 233 56 170 62 230 159 232 172 93 112 94 225 141 41 140 7 149 69 26 21 226 156 183 133 148 118 121 195 210 201 168 211 126 161 197 123 138 73 225 7 110 54 94 193 97 236 3 20 183 129 119 223 125 138 79 128 92 139 9 214 100 242 237 187 160 209 124 3 64 
150 156 173 208 47 174 77 142 224 102 203 156 183 30 178 113 245 164 234 243 201 176 5 222 232 26 59 182 253 11 34 189 238 35 214 210 188 190 180 63 7 206 122 240 29 197 105 255 242 133 120 218 165 157 144 162 69 124 126 101 217 177 199 252 106 188 125 145 129 75 30 232 157 229 31 227 148 113 48 120 138 244 214 240 135 90 242 125 39 153 253 87 120 153 189 78 150 229 51 239 
25 226 154 84 40 55 218 222 145 190 242 109 129 188 59 125 27 34 167 224 132 250 13 177 152 174 114 107 190 136 241 37 76 76 235 1 102 12 0 36 152 210 186 103 15 14 47 57 235 28 36 246 126 16 113 229 105 121 104 43 42 188 185 189 179 4 181 209 146 46 110 120 190 3 89 36 71 96 140 122 172 9 46 95 40 215 49 117 114 92 197 204 177 233 7 75 248 171 36 175 
25 73 0 128 83 197 231 122 141 112 116 198 140 81 249 14 189 162 243 11 194 160 66 229 190 61 86 160 230 189 36 77 170 173 178 241 23 128 31 108 75 20 128 68 66 139 248 32 52 190 102 6 124 58 38 79 125 206 234 42 196 62 131 12 217 32 106 99 179 105 80 76 31 247 152 23 7 119 95 231 157 129 196 227 35 43 120 252 15 39 101 34 43 174 78 103 212 110 136 173 
181 85 99 6 11 248 92 244 190 93 84 232 99 7 249 171 119 132 217 152 106 151 33 40 233 61 6 75 217 77 99 20 206 0 200 168 233 90 49 233 110 247 214 112 151 86 98 180 177 170 51 255 158 172 178 203 226 200 168 38 55 172 209 141 64 157 122 123 188 111 226 71 25 87 204 79 165 197 122 46 175 186 96 107 245 23 52 14 76 141 65 178 184 19 231 84 185 164 166 93 
176 36 231 214 109 32 247 99 91 250 159 206 77 200 58 103 154 144 14 143 102 182 242 84 60 44 59 35 236 80 221 3 22 201 115 166 71 202 54 136 199 26 238 109 167 123 244 49 64 158 170 207 174 241 234 171 51 59 76 77 250 44 96 165 85 87 162 213 151 29 0 117 82 26 192 136 225 43 23 24 156 52 12 139 232 254 114 249 162 42 148 198 4 88 238 106 197 148 248 254 
240 198 188 135 95 42 150 220 220 65 33 8 74 56 199 116 216 55 222 244 33 133 0 118 89 118 53 95 154 49 235 85 146 189 58 223 125 61 180 212 225 99 238 34 75 199 125 165 200 181 38 231 67 16 57 154 106 232 159 40 135 225 200 168 26 101 213 10 61 112 178 217 99 4 91 231 67 26 124 17 61 139 64 165 44 74 85 17 137 79 1 128 214 158 222 195 87 218 227 197 
251 253 195 190 160 196 236 98 12 244 124 182 87 46 170 118 137 192 208 74 23 14 70 244 56 78 83 206 40 216 24 233 137 98 63 125 4 246 44 22 26 126 206 230 60 207 48 9 133 73 201 201 53 10 188 175 124 244 150 11 151 126 87 13 217 114 101 3 171 164 155 42 197 180 166 160 12 139 85 26 109 95 92 154 121 181 4 55 205 197 244 198 141 168 179 142 160 37 67 124 
126 85 125 2 252 141 178 47 54 31 211 146 185 216 178 248 98 199 0 107 174 135 3 199 144 142 33 106 131 207 15 32 225 131 130 233 166 228 24 175 215 28 15 219 171 200 121 237 145 234 58 124 186 194 240 119 18 104 85 104 112 173 177 208 253 167 1 216 191 53 114 134 47 82 4 254 133 129 21 78 178 11 58 245 169 239 113 5 121 161 93 100 54 112 136 22 78 98 122 0 
50 63 54 126 247 54 16 234 148 177 96 150 188 210 27 145 221 134 81 55 138 42 205 1 101 3 164 81 226 159 176 68 168 182 78 121 85 209 45 24 126 55 3 235 234 62 141 6 69 79 73 118 112 1 22 240 147 59 198 41 39 56 233 139 205 176 65 238 217 17 19 43 47 45 28 74 44 187 4 58 35 175 68 176 54 97 172 141 182 9 138 224 92 54 208 7 229 188 57 220 
38 91 220 15 40 144 113 186 77 177 73 83 28 84 182 78 240 199 26 227 54 46 177 205 96 111 33 48 241 207 87 130 90 90 88 75 48 157 219 15 92 238 151 79 244 40 18 154 1 111 26 156 100 207 164 190 248 99 229 169 21 140 141 54 232 206 24 246 187 239 218 73 252 51 199 102 85 219 129 147 224 34 206 158 86 218 110 189 221 96 120 162 52 93 131 249 70 77 187 107 
81 76 187 201 67 63 30 92 63 10 203 193 210 226 184 53 224 39 4 151 33 246 15 19 232 249 74 90 200 189 255 9 212 221 117 125 114 28 203 38 33 63 19 225 93 60 214 71 17 215 123 207 73 122 177 85 239 97 207 59 227 19 196 242 128 74 76 130 41 164 107 101 188 11 170 108 143 36 191 170 54 234 134 62 155 88 121 102 74 12 179 41 142 1 95 111 13 187 174 79 
44 96 136 72 169 203 71 13 205 195 252 191 211 158 248 128 158 30 4 253 53 205 195 172 229 243 14 21 168 100 206 249 22 238 49 251 80 47 197 130 149 123 221 128 154 138 185 117 169 85 115 248 47 199 101 176 49 49 169 207 156 181 41 83 111 118 25 197 175 139 225 93 177 216 231 118 91 206 101 106 255 233 224 123 168 155 88 4 125 79 92 66 120 111 214 93 146 231 16 191 
229 95 242 249 4 10 23 142 121 195 21 117 57 66 35 67 253 94 247 9 245 150 240 169 237 146 111 107 152 191 155 23 34 155 243 141 86 114 173 240 117 166 82 19 201 123 237 216 51 195 116 32 14 10 56 242 5 216 131 25 241 76 141 246 70 168 157 246 225 77 216 123 1 31 215 35 100 192 211 2 85 91 22 188 27 156 7 33 143 6 107 241 37 166 78 76 124 41 119 119 
185 250 253 10 109 102 146 156 16 53 106 210 104 12 218 197 143 158 243 53 50 175 252 90 8 245 45 251 64 225 138 90 178 173 122 94 163 199 223 242 234 227 89 170 192 35 174 245 24 239 160 91 137 221 29 242 185 105 63 244 45 187 133 22 223 91 31 134 225 88 75 4 83 37 102 37 128 255 21 245 44 133 152 238 221 116 111 37 162 245 17 131 198 146 5 35 231 13 142 152 
39 105 143 164 133 241 67 133 40 125 122 33 90 161 163 192 215 60 28 137 222 213 94 27 205 45 188 122 94 18 5 228 245 225 4 30 249 149 129 245 243 73 28 12 221 153 222 200 170 192 252 114 166 56 22 205 108 124 209 217 117 161 77 32 96 224 101 57 162 206 184 243 16 34 155 199 118 218 176 40 169 130 243 24 18 77 66 88 33 176 77 20 182 136 180 30 168 160 194 165 
165 84 133 92 153 233 19 114 240 186 67 230 41 50 109 172 100 55 221 37 54 0 3 33 60 8 157 115 235 81 220 201 199 19 74 198 130 22 38 251 170 233 154 123 36 137 56 239 165 99 79 131 210 136 241 64 104 124 48 146 109 140 4 160 203 191 229 239 245 232 183 200 54 92 66 233 186 41 56 190 207 189 45 72 48 123 238 197 195 33 233 231 95 153 58 172 165 52 36 192 
154 161 155 135 133 77 189 102 229 86 201 215 181 62 68 56 143 77 82 48 199 154 90 19 18 53 31 98 120 114 126 5 82 106 189 50 76 126 2 48 141 100 227 119 97 140 101 223 196 175 70 132 87 38 201 202 110 13 39 115 142 183 68 169 54 136 83 170 102 163 104 74 240 140 140 209 134 227 159 195 169 6 223 78 47 53 220 157 169 58 170 107 235 149 111 35 79 92 214 0 
216 32 180 188 52 10 168 88 239 86 108 121 119 38 121 73 163 195 51 196 135 148 28 132 147 24 63 8 145 250 29 114 160 167 230 180 136 167 75 57 193 203 1 41 138 110 223 64 23 164 24 244 182 182 200 85 26 121 69 120 121 46 96 188 157 174 43 251 86 176 34 121 223 18 28 181 206 33 242 163 6 108 127 162 117 101 219 114 199 134 13 104 182 52 158 67 211 238 125 134 
137 203 144 200 1 250 102 106 109 56 214 59 7 13 179 112 151 201 181 18 200 132 124 134 207 37 59 17 43 216 139 204 172 167 221 45 31 116 251 65 186 134 96 114 195 186 16 207 126 27 55 67 170 85 199 101 108 223 114 29 249 40 180 122 217 222 121 240 89 213 98 223 172 195 33 38 173 179 240 56 167 79 108 148 101 110 46 107 249 50 255 101 188 230 205 163 60 171 185 103 
30 35 98 99 245 20 88 175 60 189 216 34 225 84 57 222 251 247 91 253 249 147 136 171 179 169 17 110 90 193 113 191 243 244 7 95 145 113 192 42 95 84 202 37 96 52 43 178 14 36 190 156 203 226 214 5 80 100 255 57 151 2 191 33 153 204 24 249 151 251 233 185 179 252 9 119 122 182 5 126 92 41 175 7 160 42 233 71 174 201 207 1 206 137 153 171 213 247 89 147 
97 250 239 135 240 53 91 62 48 230 233 251 205 68 93 166 223 1 165 55 193 242 194 61 94 165 124 1 211 104 233 211 11 5 62 98 26 249 0 80 191 57 72 113 232 64 241 230 154 208 20 173 91 107 20 27 134 124 19 230 118 139 237 249 92 219 115 214 131 80 32 166 176 84 67 62 179 112 91 87 17 189 83 9 79 66 193 59 140 56 75 243 249 140 218 136 252 151 53 163 
21 36 76 243 151 12 212 112 121 9 129 216 70 226 75 107 44 176 226 181 57 218 151 239 85 165 179 141 136 199 54 33 240 159 194 239 209 192 163 116 17 62 213 132 115 218 29 14 232 232 190 127 125 10 232 120 213 22 71 51 2 20 233 52 128 221 82 11 21 1 113 76 252 144 123 232 108 18 94 93 210 117 40 31 193 128 26 38 60 219 30 200 102 18 252 69 140 144 189 101 
216 224 20 94 237 208 241 122 190 138 0 235 179 250 202 230 167 122 11 115 248 108 237 22 56 234 82 65 159 51 37 107 222 24 168 246 54 244 105 174 40 179 144 234 251 16 183 122 125 189 178 201 97 81 142 114 168 127 63 87 243 188 93 130 16 72 2 177 237 180 73 133 34 193 130 59 49 207 254 203 37 168 170 163 50 76 81 69 178 111 184 143 132 138 75 62 1 252 134 35 
221 50 57 9 9 196 157 179 128 126 75 63 253 243 105 37 195 39 137 220 132 221 57 186 145 240 205 44 143 170 162 200 221 108 11 234 58 159 144 68 226 212 101 195 197 78 133 77 170 204 223 222 33 146 234 77 166 71 152 185 64 142 126 205 213 23 59 225 119 135 131 11 234 126 116 96 191 15 113 177 15 180 201 172 132 41 40 183 246 152 139 212 155 84 1 20 66 215 47 49 
177 141 236 160 70 21 155 27 143 231 174 38 84 57 57 244 85 173 116 2 119 148 28 75 242 58 186 111 164 5 166 203 250 111 150 176 146 21 228 14 47 88 207 210 180 186 140 20 26 241 80 249 36 250 13 113 223 236 36 194 227 26 62 162 74 159 203 112 41 67 108 238 99 31 104 8 207 81 98 105 88 79 234 11 52 132 114 140 203 42 242 203 97 205 107 248 226 9 163 73 
59 46 90 112 162 255 211 177 184 196 81 159 228 144 124 174 78 211 90 32 194 195 129 105 198 30 93 139 138 93 218 180 38 182 225 164 34 21 70 232 107 41 87 120 144 140 117 194 95 240 164 36 230 6 203 215 86 176 162 206 42 227 219 19 54 10 46 47 187 144 121 245 43 238 35 96 225 113 234 4 124 89 51 255 241 206 192 26 147 60 246 131 33 58 171 215 254 87 27 252 
35 24 175 113 200 167 225 58 77 104 118 131 61 55 242 149 212 0 57 241 114 93 33 17 119 25 241 199 42 252 237 146 38 193 221 49 137 227 202 69 124 137 226 168 24 188 205 140 217 206 197 158 27 246 251 100 149 218 77 99 106 200 180 211 187 227 235 173 245 252 202 163 245 73 58 166 103 242 233 60 12 197 197 168 81 67 150 190 44 79 43 187 11 112 231 120 80 195 44 99 
20 69 9 45 66 112 167 48 89 13 253 254 88 185 119 104 10 54 18 12 221 96 49 188 57 101 151 20 172 43 147 168 206 198 58 50 6 224 223 113 33 233 214 194 78 4 236 234 86 137 169 80 50 116 4 21 22 224 150 164 206 115 128 28 157 172 137 143 27 27 65 72 73 249 199 180 120 44 9 234 103 121 158 208 41 206 226 85 60 152 29 217 2 74 66 112 116 58 68 255 
109 113 164 63 4 141 173 190 103 67 130 241 43 190 63 111 112 51 11 223 71 72 128 185 250 16 33 54 46 10 198 15 116 114 113 174 249 49 215 102 5 97 180 255 61 110 190 19 98 15 205 221 13 111 84 206 27 160 98 110 182 53 92 223 214 39 37 134 125 101 62 84 243 14 109 53 166 219 87 140 189 111 68 7 165 209 243 30 142 8 103 69 178 131 201 30 147 71 173 176 
34 45 197 37 31 58 206 168 131 217 65 50 183 135 230 248 251 208 142 178 191 143 128 241 243 5 238 248 130 113 234 64 176 75 17 245 81 109 179 180 54 40 58 53 186 53 175 37 12 74 89 186 46 167 71 121 81 232 16 11 209 9 119 196 101 53 214 220 55 33 137 82 15 98 14 126 32 218 125 186 196 79 68 80 228 141 168 0 169 107 174 200 49 239 190 254 37 201 231 213 
186 189 47 122 41 147 18 156 119 154 51 94 227 39 47 118 204 75 103 221 189 126 51 68 136 199 102 37 135 166 139 43 214 154 30 199 240 54 42 190 78 116 166 253 47 52 26 70 188 19 195 92 204 74 65 126 227 63 121 101 186 64 75 62 203 208 181 236 29 184 115 124 2 231 75 126 140 105 75 190 174 35 184 213 185 86 116 225 46 226 55 217 146 53 47 66 79 165 215 153 
142 26 56 165 74 41 49 115 237 238 76 54 106 128 197 169 9 78 250 98 192 190 195 19 64 182 74 135 167 61 86 84 39 96 1 12 119 51 137 238 56 114 235 103 173 116 21 215 249 22 30 214 70 22 155 157 4 149 245 239 226 235 255 225 156 130 147 252 149 154 44 125 195 38 165 100 111 136 36 0 126 1 188 45 216 45 226 173 212 30 65 44 147 41 246 105 165 194 107 58 
150 73 97 174 165 111 72 46 208 162 16 176 70 33 74 34 5 55 136 104 113 244 212 56 46 130 223 176 252 50 201 44 223 33 159 226 25 116 72 24 23 66 162 238 80 244 199 56 113 74 82 70 67 163 45 8 10 129 46 130 2 190 140 22 215 84 112 214 40 80 20 171 247 227 247 175 86 89 98 123 128 241 148 234 248 109 88 235 153 54 35 7 144 241 155 124 138 1 150 4 
139 12 129 142 186 180 105 96 48 7 253 161 188 168 212 203 46 213 100 20 168 22 244 111 42 7 223 181 246 135 176 22 140 120 10 160 95 36 188 176 44 214 222 212 100 38 142 255 103 93 102 60 68 107 115 161 123 186 24 252 46 61 62 154 149 108 199 150 20 245 88 137 192 191 115 99 9 6 244 146 171 15 153 197 135 240 50 70 10 24 208 34 44 199 8 138 152 85 99 52 
199 108 134 55 78 54 194 14 196 254 145 164 143 77 167 119 26 85 251 155 72 164 22 114 207 228 89 35 250 34 0 135 255 147 64 234 70 171 5 118 64 159 191 199 35 35 52 69 34 183 231 19 26 8 188 238 180 88 138 22 163 178 65 181 101 147 206 136 58 153 95 43 110 58 92 196 205 101 221 55 133 103 185 3 130 115 202 80 67 149 27 135 80 60 158 9 211 35 160 230 
130 202 12 26 123 111 191 84 210 163 3 44 76 114 103 23 74 30 153 139 24 196 188 11 77 132 10 51 202 132 83 136 42 194 214 123 139 197 242 217 20 155 63 215 124 24 110 16 107 135 13 251 107 212 3 130 128 194 138 242 69 50 0 246 59 70 168 201 174 174 173 95 131 233 48 191 22 110 38 120 193 108 180 43 145 254 134 199 96 244 225 105 2 216 69 210 150 207 108 107 
209 59 138 24 159 105 53 33 102 53 83 238 157 34 91 125 52 104 179 59 117 83 193 107 139 226 52 130 61 190 216 243 82 103 11 235 195 21 187 86 11 27 19 110 96 75 196 21 56 96 6 108 42 111 17 228 19 214 221 233 71 202 235 7 234 60 34 126 206 246 197 42 232 31 219 103 54 167 218 157 248 184 195 255 142 146 46 169 253 180 57 236 192 107 110 168 100 58 100 151 
