P2
100 100
255
65 16 167 115 175 32 33 121 209 227 12 230 59 117 30 248 44 100 118 193 41 18 104 210 219 234 214 80 175 5 175 90 36 46 163 119 43 145 8 56 100 41 186 86 130 106 14 63 222 83 97 223 253 242 130 74 202 91 235 3 140 141 208 168 210 177 42 89 3 185 170 71 191 250 189 171 76 156 116 230 224 72 80 84 154 39 244 124 90 18 183 107 214 0 248 153 204 10 134 254 
113 32 140 19 148 28 95 87 167 115 185 158 241 156 22 212 149 7 13 76 193 126 244 57 75 126 29 228 6 135 228 201 239 17 105 120 146 144 213 47 43 122 83 80 249 125 75 242 189 32 196 199 212 12 21 128 50 249 58 1 23 63 20 84 138 246 26 192 137 127 188 118 144 57 113 194 108 221 71 100 214 123 221 215 214 20 162 107 47 58 84 121 178 110 16 157 150 41 165 24 
149 148 142 170 70 5 116 178 56 137 199 48 7 107 87 188 9 132 37 28 160 190 5 24 170 153 95 169 4 89 224 237 203 23 203 115 214 23 68 214 24 224 124 3 60 95 93 24 249 226 69 65 220 233 9 187 163 152 22 96 6 172 38 88 67 75 186 214 28 84 183 233 85 9 122 43 133 55 246 68 226 184 188 219 84 199 2 223 87 15 16 59 21 189 18 55 0 92 26 28 
212 39 162 69 253 169 137 194 232 78 65 81 0 7 244 80 45 223 254 62 8 173 182 140 155 179 243 90 113 244 208 216 96 207 190 134 235 127 4 18 69 55 124 103 27 209 194 89 176 239 174 173 83 15 29 253 45 117 3 211 221 176 75 138 107 104 206 194 208 241 4 100 192 156 247 215 58 29 183 83 239 113 95 8 187 182 131 67 168 193 146 13 210 198 94 180 84 1 104 238 
226 25 27 66 248 71 24 142 75 239 159 83 125 155 159 193 104 0 126 29 246 196 29 208 213 120 248 38 93 134 88 15 91 93 164 21 87 78 221 158 222 242 50 153 15 163 46 137 80 236 85 8 131 47 0 103 185 55 174 90 34 175 254 166 235 0 207 34 179 195 216 181 68 138 75 73 110 91 39 114 163 148 146 214 243 81 26 115 121 250 139 22 46 201 127 28 18 10 234 209 
61 118 48 142 2 8 99 55 179 106 123 96 150 177 33 39 27 8 219 71 29 11 45 55 222 130 56 144 26 60 0 0 182 35 252 158 244 225 1 95 226 53 82 156 160 20 180 203 88 171 42 139 144 153 123 66 75 9 116 189 218 147 42 235 38 37 84 133 170 209 188 235 125 178 119 250 31 177 89 38 198 132 254 71 21 43 252 235 104 3 248 14 104 199 108 23 70 195 129 66 
194 58 39 183 90 71 188 89 67 67 112 246 117 24 20 231 19 234 238 60 233 102 54 93 38 204 160 10 117 182 240 189 218 14 153 3 189 163 97 167 115 62 1 78 16 28 243 233 252 100 68 236 10 221 132 36 103 22 215 17 75 64 155 223 82 153 7 101 129 248 23 156 152 79 235 138 16 200 195 56 156 229 247 90 153 53 144 108 130 131 84 239 79 200 17 160 241 232 234 229 
144 30 37 181 90 159 144 192 172 177 49 101 71 0 194 74 85 12 104 217 94 2 239 126 24 170 152 174 16 174 150 12 16 141 182 165 84 64 161 145 64 45 68 113 58 35 67 51 227 114 199 240 177 228 162 51 92 12 75 210 166 18 102 220 166 114 4 237 48 54 148 237 198 115 24 94 101 158 110 22 241 135 171 87 18 194 247 2 203 173 172 247 91 168 93 234 24 164 48 72 
128 141 73 10 17 43 146 227 0 115 176 224 98 245 27 212 186 104 10 109 153 93 97 199 57 171 223 138 88 82 225 216 0 239 95 108 240 33 19 116 17 173 87 100 169 218 76 45 141 153 176 89 223 173 0 254 110 3 170 128 184 130 33 127 49 56 90 187 0 225 126 204 177 170 246 11 114 53 23 232 67 41 56 189 92 198 248 192 92 22 143 112 15 106 40 220 166 6 62 62 
75 130 90 51 66 132 138 196 255 255 161 177 218 39 46 255 10 35 173 75 181 154 5 198 141 2 41 197 55 246 73 84 101 31 1 51 2 12 239 206 141 32 144 197 94 58 144 244 82 26 253 136 41 151 159 118 52 177 223 106 110 24 210 11 210 31 44 162 238 34 171 165 59 105 142 76 27 149 14 239 105 117 139 147 208 134 98 23 185 97 167 107 16 114 172 221 152 117 80 94 
64 93 168 30 45 109 38 32 19 147 47 245 55 201 209 42 228 17 183 30 95 9 138 44 168 64 168 198 23 144 111 127 44 101 213 65 191 186 94 44 124 67 36 102 73 228 255 216 133 123 249 173 61 52 149 62 235 55 6 0 254 54 254 49 92 200 40 58 70 190 96 158 234 93 77 171 218 91 138 196 74 221 40 160 45 130 226 45 16 239 240 114 253 227 38 146 103 13 64 151 
225 4 80 208 161 114 255 6 245 228 245 30 228 187 201 110 95 145 82 135 53 235 89 203 74 121 223 168 150 195 233 161 67 107 55 125 223 129 74 177 143 150 251 175 171 251 80 142 137 170 174 230 200 166 112 146 72 167 230 96 94 160 103 154 252 49 95 40 45 199 5 102 25 81 237 250 222 202 155 31 50 177 181 149 206 217 77 147 200 32 92 95 208 228 98 27 243 183 89 216 
56 137 177 150 227 214 249 155 249 195 162 137 57 118 254 117 15 85 57 106 197 42 133 196 251 230 201 152 242 88 223 25 187 32 113 237 255 50 155 83 148 1 16 126 215 215 239 163 253 253 5 225 68 107 222 108 135 195 243 74 165 2 111 93 158 159 81 16 158 145 116 129 38 37 74 139 181 75 16 10 135 11 214 214 55 107 133 160 113 64 66 174 79 81 4 214 34 103 115 110 
157 204 196 75 34 167 8 189 80 161 42 177 10 11 231 147 230 39 132 176 39 124 112 225 130 188 235 73 190 99 202 151 154 150 145 231 44 102 134 94 141 253 126 213 168 84 103 4 213 18 33 37 30 163 98 96 8 190 143 166 14 116 48 174 244 209 224 247 191 48 255 48 26 41 191 53 99 85 109 211 90 17 123 198 64 19 85 201 151 188 243 7 75 59 116 137 73 88 248 180 
131 163 153 211 189 31 116 185 33 52 100 15 107 95 29 168 244 60 176 145 116 46 20 105 29 253 226 233 0 174 146 86 71 34 103 66 243 144 111 77 211 8 131 161 97 142 8 143 220 118 59 228 139 204 52 99 26 103 168 206 64 159 242 234 120 156 208 80 222 115 234 19 230 162 124 144 50 138 249 254 48 98 64 200 81 98 32 179 169 136 174 189 121 49 90 75 203 145 231 111 
37 158 216 211 15 7 105 138 139 187 44 213 85 97 73 33 70 97 141 213 129 157 85 10 166 118 178 117 141 190 198 92 172 216 51 207 43 33 192 235 176 187 173 237 136 239 210 89 254 55 46 149 104 106 17 229 27 119 175 47 5 118 191 116 133 86 110 206 187 25 34 110 180 118 152 24 234 79 134 202 201 72 70 93 68 94 19 28 254 176 112 53 196 26 52 111 55 140 47 91 
55 113 223 242 100 60 3 122 216 236 125 241 113 242 21 149 43 146 152 99 180 161 136 126 178 158 208 149 184 59 69 14 197 20 121 100 226 37 6 49 57 34 118 27 221 72 19 117 22 227 41 245 239 144 220 128 237 85 82 179 88 190 55 207 89 10 73 65 169 101 44 45 81 253 121 53 105 84 197 53 171 125 5 150 210 174 85 97 151 201 40 50 91 184 164 254 96 226 242 93 
55 249 29 22 121 84 224 245 98 195 219 53 3 191 163 142 63 21 25 42 7 215 54 17 4 39 88 164 69 137 37 43 44 34 234 207 101 26 197 97 144 163 222 70 70 172 162 120 10 123 8 136 168 194 176 181 78 194 0 239 229 21 92 166 80 221 208 42 42 178 24 192 8 175 59 108 25 175 26 222 191 237 179 204 164 153 129 18 51 159 250 9 251 219 16 127 204 39 13 231 
203 233 128 60 207 94 85 232 198 226 203 153 30 245 2 52 49 208 11 91 60 6 131 30 168 163 121 225 135 89 208 26 210 0 42 143 12 33 103 70 119 232 74 94 161 247 170 251 141 213 242 115 110 14 105 213 36 54 199 131 17 140 21 129 207 117 32 189 108 37 106 25 167 169 107 133 12 244 224 186 173 124 39 2 152 129 60 178 189 117 103 21 216 130 181 218 55 149 162 1 
78 41 168 24 85 216 32 110 238 30 20 163 109 95 86 148 252 65 165 122 117 230 184 154 21 250 1 42 82 111 154 206 54 122 44 127 73 76 123 13 214 175 234 204 86 66 101 50 224 225 214 148 249 118 11 173 103 202 0 14 235 251 137 161 198 127 231 245 239 253 116 154 30 253 114 63 18 191 176 216 142 171 10 35 188 97 48 120 144 43 98 250 147 19 41 13 20 103 107 132 
193 135 101 202 44 211 80 88 202 243 44 22 190 64 161 157 62 126 64 216 5 184 224 69 7 195 249 60 166 85 23 154 185 191 61 168 73 131 225 75 130 38 62 246 81 66 243 144 4 114 46 89 245 211 219 65 167 216 121 90 17 44 195 96 27 231 242 47 83 230 129 66 224 57 13 252 214 9 246 37 93 240 0 120 81 57 81 28 138 221 4 51 89 217 101 188 19 213 6 7 
111 172 205 212 195 142 113 45 234 30 91 128 198 159 38 149 63 157 16 244 63 215 247 10 49 159 170 99 199 142 40 126 173 168 165 201 8 101 169 47 219 181 57 190 138 83 251 229 221 62 223 44 161 136 143 170 156 55 227 149 233 70 78 51 42 137 91 219 224 246 34 215 124 140 203 185 211 189 196 217 143 168 145 143 32 190 45 207 155 14 152 146 1 128 35 182 134 214 2 145 
150 223 109 63 34 145 153 225 132 254 234 175 179 241 67 64 179 245 250 221 189 58 32 119 254 236 235 122 29 111 61 167 247 155 23 238 69 68 229 122 188 62 179 160 34 28 3 247 80 135 149 21 231 13 127 13 238 203 101 192 68 225 49 32 246 22 74 228 27 33 121 17 223 183 121 32 5 168 23 39 142 105 66 238 142 12 224 109 53 25 74 216 250 26 255 102 23 67 13 198 
73 210 44 107 249 55 115 109 3 230 135 130 7 36 6 44 58 126 57 213 73 155 40 39 30 55 217 94 213 223 56 186 62 21 16 111 212 135 213 255 146 102 237 67 38 163 80 202 191 185 39 184 123 252 64 194 25 90 94 251 232 85 127 5 242 24 143 52 122 122 27 219 61 135 109 154 50 6 2 38 238 221 145 79 252 21 235 229 85 223 241 73 138 211 31 158 162 144 174 7 
93 110 71 98 75 110 172 241 62 179 110 201 26 154 31 77 190 38 214 113 251 202 45 62 223 75 222 23 125 113 33 218 219 190 203 233 182 127 41 214 56 54 60 163 4 85 70 79 197 84 135 163 174 188 214 31 161 7 57 216 40 174 20 95 93 132 62 227 38 104 71 245 88 243 247 177 145 76 104 75 188 165 214 251 181 119 174 50 67 145 68 131 127 46 15 45 30 27 23 21 
48 28 250 73 231 124 222 32 206 224 59 70 183 53 242 28 225 125 59 86 162 142 14 189 181 98 103 214 226 234 199 241 235 215 84 21 105 147 35 218 82 2 127 255 189 119 14 30 89 220 87 17 250 192 138 62 104 236 226 134 132 164 237 73 48 181 137 176 136 19 138 234 21 6 18 7 1 66 4 181 24 59 71 46 112 238 19 117 169 131 112 184 130 104 252 43 236 151 10 191 
46 112 105 72 110 249 31 190 15 241 5 40 11 122 162 237 127 245 74 30 105 102 116 123 102 18 102 154 128 129 238 8 223 114 210 5 55 91 192 131 159 10 183 118 109 186 34 116 253 131 77 164 129 236 44 172 59 151 120 229 104 89 112 163 104 208 142 49 151 163 168 16 188 110 14 173 2 146 60 149 196 119 63 39 99 208 99 232 18 0 145 142 193 179 92 136 95 167 164 27 
22 243 238 208 131 186 126 151 89 54 239 89 205 205 79 51 244 47 33 52 38 242 232 88 94 136 15 233 213 211 65 65 108 75 165 242 90 232 233 89 129 244 218 221 208 252 40 65 214 146 219 195 90 238 193 73 147 225 30 57 44 39 94 96 217 185 210 5 132 30 0 115 181 5 106 182 78 197 233 157 222 203 27 28 125 75 78 4 188 185 195 179 54 57 223 72 112 12 42 197 
98 161 183 246 129 181 248 52 200 204 101 119 106 193 58 239 189 107 132 65 68 91 159 132 212 58 118 164 99 23 216 202 180 173 249 218 70 52 18 177 122 27 201 52 208 120 206 36 46 214 79 110 78 160 168 9 106 181 189 206 130 20 72 179 149 167 27 97 52 247 244 172 168 175 190 47 44 62 215 178 154 134 233 183 140 207 172 79 8 190 45 177 240 225 142 69 100 109 174 199 
158 126 208 102 79 205 194 190 67 166 61 42 55 55 43 180 42 123 210 179 253 127 9 223 61 68 189 154 6 8 139 118 21 132 101 88 16 150 12 237 88 115 32 137 219 161 143 73 73 3 174 99 116 100 108 120 164 199 75 99 26 169 23 249 13 63 119 92 155 48 184 131 236 24 64 108 227 49 130 22 44 25 202 14 106 14 66 253 16 146 171 5 8 178 209 0 14 185 204 164 
9 190 35 83 233 27 200 90 132 248 184 181 6 160 255 73 6 80 143 210 190 74 188 42 180 70 144 228 38 133 108 195 12 119 223 170 162 146 127 56 164 177 11 42 74 86 146 45 54 127 109 216 159 253 58 185 254 111 6 77 15 94 211 22 206 24 96 194 41 241 53 77 145 26 241 52 219 164 88 168 42 167 105 66 162 68 9 248 168 201 78 81 195 166 10 79 2 145 146 101 
249 131 135 202 104 97 66 54 34 177 211 49 246 178 67 85 37 236 238 21 9 248 37 254 25 182 94 44 197 48 153 78 253 20 220 79 147 19 51 133 67 207 239 190 68 184 55 65 150 251 89 31 3 1 123 180 85 58 98 190 123 25 79 26 179 70 161 212 187 18 110 14 233 109 228 112 20 182 240 149 71 47 48 99 224 9 129 252 32 47 239 154 241 16 248 45 108 203 158 20 
34 143 186 112 147 22 108 111 7 158 100 59 65 250 237 223 131 156 48 198 161 222 108 119 134 234 196 252 43 193 27 222 21 84 196 28 199 108 189 75 76 245 95 101 36 188 185 85 145 176 27 72 155 100 174 190 51 225 86 138 212 194 92 158 2 228 44 4 55 58 241 119 249 250 176 254 128 125 114 207 84 6 80 217 13 89 131 77 42 248 66 123 123 122 76 50 146 167 85 228 
225 26 117 217 227 124 37 137 62 103 173 149 226 0 249 182 128 245 61 23 145 150 224 27 199 40 201 79 48 191 102 165 38 196 56 171 59 50 52 212 102 162 83 33 52 67 56 151 149 47 141 53 118 148 185 249 156 131 187 60 227 49 144 207 144 125 51 84 43 115 240 24 9 221 249 78 110 42 223 48 155 163 128 204 112 165 180 177 251 48 144 217 34 170 77 229 174 2 97 123 
210 118 188 213 161 97 66 167 230 250 154 3 74 7 36 249 168 98 159 47 210 205 111 243 240 113 120 49 12 235 195 219 206 196 22 171 214 154 37 244 163 80 3 68 202 35 44 198 205 208 168 4 74 188 67 85 207 89 194 88 217 198 237 68 14 95 127 143 56 150 94 85 72 52 98 209 120 81 32 214 204 215 62 146 39 251 78 79 49 118 203 84 109 64 93 90 71 241 77 233 
19 101 157 82 253 79 166 212 138 222 251 145 246 230 64 67 117 212 63 202 135 171 3 70 193 234 142 187 13 106 232 53 162 31 133 244 220 200 253 233 192 119 111 76 155 88 122 116 145 83 17 186 152 212 47 206 217 19 247 96 162 144 5 139 225 114 39 207 154 34 86 19 118 146 149 74 27 227 249 171 222 218 117 100 229 161 69 153 70 140 139 5 250 190 191 122 51 255 5 176 
230 119 168 238 11 114 238 58 36 92 157 233 154 204 126 191 230 14 80 248 53 39 67 143 18 199 142 219 129 24 148 212 226 97 101 61 32 150 31 197 37 19 224 165 127 50 205 2 113 32 3 44 177 98 148 99 58 181 180 176 235 162 13 106 188 173 28 84 75 159 38 50 192 124 12 182 56 204 51 144 97 27 163 98 183 34 212 183 113 160 98 77 200 107 57 199 166 56 19 82 
163 57 88 195 207 62 92 48 222 134 54 128 8 238 192 218 97 55 186 36 183 53 69 255 177 41 74 94 34 85 229 237 149 243 128 232 83 24 86 137 184 186 123 86 162 82 70 234 2 40 38 243 149 225 123 57 170 56 73 164 234 225 40 181 230 70 134 20 125 188 168 108 23 82 143 157 195 227 252 173 19 107 27 102 211 142 85 228 241 26 44 112 187 252 142 80 78 203 142 150 
131 104 58 147 193 175 188 38 73 136 155 166 163 221 84 5 92 4 89 233 105 144 73 62 45 67 121 177 243 15 131 115 202 218 193 12 42 84 221 183 191 40 211 42 33 138 197 195 37 62 93 163 242 189 183 122 140 213 138 160 174 107 63 239 244 46 2 254 31 109 5 137 196 220 254 77 3 140 42 24 168 48 74 94 43 102 71 213 99 58 151 161 35 228 109 65 180 77 253 14 
47 141 77 120 47 206 96 125 63 167 160 65 14 13 20 36 188 183 252 174 151 167 81 149 140 50 149 35 69 144 219 89 229 9 199 219 117 109 80 159 208 232 7 38 19 123 143 64 77 25 255 105 48 17 237 195 8 82 215 7 173 46 44 110 35 108 121 40 36 2 194 201 100 205 169 34 179 79 191 25 150 236 66 119 161 145 106 51 50 87 215 206 69 179 152 91 82 204 122 134 
243 14 208 205 29 111 30 29 63 209 205 38 132 155 153 234 241 224 8 78 210 143 148 157 166 221 47 79 40 192 98 27 33 241 177 53 151 66 114 49 16 179 127 203 96 32 240 251 189 49 227 77 181 21 178 248 132 80 129 141 175 129 23 99 210 236 53 116 99 124 65 241 108 94 17 208 242 130 225 226 58 125 170 79 235 147 158 47 143 228 146 170 205 213 209 43 207 145 115 162 
149 13 243 154 163 154 12 79 187 127 224 255 32 0 244 110 155 242 34 224 127 142 41 34 5 244 101 11 100 5 211 132 215 235 34 108 177 214 197 99 20 227 50 176 28 174 227 58 76 248 182 62 54 212 125 181 161 122 147 248 139 40 60 105 142 234 90 190 9 11 159 215 19 140 247 137 241 82 4 59 158 83 215 178 105 26 78 20 121 12 92 128 174 154 111 77 94 174 250 136 
239 155 135 58 38 240 184 132 249 242 76 132 236 50 155 146 5 46 151 172 254 230 31 199 243 122 73 148 21 226 214 170 149 22 14 10 38 3 64 154 53 106 50 56 111 103 58 211 1 195 151 194 250 200 9 51 12 53 25 250 100 197 164 15 210 25 220 30 132 170 234 181 123 183 175 108 156 42 77 166 73 181 229 146 59 75 93 189 117 16 215 27 151 223 34 106 85 108 128 70 
14 110 148 115 254 179 117 194 131 92 54 16 68 150 136 126 242 26 42 217 181 148 97 41 39 225 230 216 216 239 236 123 211 122 20 210 33 137 118 195 14 70 101 55 88 30 89 141 40 160 104 44 207 230 41 196 222 142 62 6 122 97 193 137 215 82 237 126 223 99 200 62 157 38 234 216 158 72 6 101 40 176 36 243 170 200 255 166 126 185 103 16 78 216 84 126 130 131 99 237 
220 15 200 203 40 29 100 76 165 47 169 234 172 197 125 208 79 101 186 33 200 208 131 4 105 72 95 89 85 30 182 66 19 192 212 63 119 3 100 191 132 178 25 43 189 30 226 215 37 49 48 196 72 228 107 25 40 59 184 46 148 80 39 151 246 99 80 67 135 211 221 46 70 214 29 202 56 63 205 207 90 27 159 155 38 133 241 246 78 8 222 241 212 219 127 71 71 234 34 1 
100 53 30 25 74 129 14 155 193 241 192 40 62 164 64 232 23 150 216 117 203 138 88 25 54 37 39 23 215 239 214 128 161 161 163 250 153 120 172 87 62 248 108 40 243 120 250 152 240 194 97 142 56 22 122 31 104 218 191 16 251 238 140 16 8 114 172 126 99 232 156 216 250 139 60 166 245 109 139 12 201 74 202 187 142 188 72 133 1 64 92 214 119 196 114 116 205 142 146 130 
78 220 187 160 57 190 168 100 228 92 144 103 50 108 185 179 204 160 239 194 102 64 203 203 108 89 255 94 192 189 92 209 233 146 146 33 230 160 80 131 238 11 121 39 221 217 194 38 54 51 246 27 30 84 250 96 56 55 86 217 21 198 118 225 168 57 87 122 6 143 133 229 216 250 123 164 112 193 144 195 30 176 58 49 244 103 252 56 150 99 201 39 56 66 81 86 171 158 96 63 
3 174 36 191 63 120 131 118 126 226 129 234 233 219 146 239 87 107 245 19 251 147 50 161 117 117 67 164 169 63 184 221 196 149 17 131 29 5 127 120 176 222 2 90 216 188 252 25 107 48 218 99 8 188 223 146 31 26 148 126 71 177 73 192 101 145 48 101 64 68 75 116 55 199 241 16 253 93 199 138 157 196 11 216 156 183 107 191 217 222 23 222 31 4 156 114 173 235 199 222 
131 166 70 248 234 53 127 10 156 165 16 193 152 136 244 65 129 42 32 73 97 183 178 172 79 187 163 214 183 218 197 35 174 218 42 11 254 130 96 193 225 182 24 171 59 239 86 67 103 47 191 107 142 41 76 130 36 166 192 7 89 154 67 160 211 154 89 22 52 190 96 64 189 192 14 201 87 151 83 151 5 169 215 109 196 173 210 223 194 73 66 208 82 148 113 8 231 233 117 238 
107 48 16 95 126 11 191 106 217 42 237 45 252 13 221 144 196 210 73 29 155 33 60 88 199 233 194 174 197 202 155 142 12 175 103 174 150 138 171 102 240 174 206 225 99 43 77 13 56 117 168 253 168 121 107 20 43 213 128 239 241 120 71 180 117 162 208 206 143 46 142 102 203 75 158 19 254 13 183 90 76 238 115 230 162 134 46 192 116 138 171 10 175 32 102 117 247 225 104 67 
128 115 201 173 22 0 47 29 143 98 228 100 18 90 69 216 240 9 149 137 134 15 189 3 146 216 228 197 16 85 135 189 142 237 177 109 190 119 214 0 211 235 188 177 240 109 122 174 176 84 193 30 77 127 207 32 119 46 32 5 1 38 110 47 160 2 114 30 69 195 33 146 71 254 70 20 146 86 170 235 127 65 244 6 151 156 219 191 57 87 145 169 10 215 247 71 187 119 186 195 
183 182 118 58 203 122 103 36 130 159 80 209 101 63 184 180 199 223 117 95 206 25 179 161 244 161 233 111 79 55 99 244 96 18 227 238 152 179 2 3 228 68 90 53 82 55 64 87 209 85 203 77 191 123 175 137 229 214 73 238 115 90 93 81 62 244 64 223 69 119 157 92 5 198 243 190 38 225 222 236 237 223 108 95 169 64 51 184 71 119 206 11 127 180 143 95 234 175 195 84 
87 1 1 240 1 167 76 162 26 128 197 182 34 86 100 8 201 148 48 99 145 160 59 225 59 54 159 188 110 165 249 250 2 154 133 243 118 53 21 235 28 250 86 84 27 49 148 37 158 224 95 90 20 119 239 7 238 40 148 11 255 254 8 177 19 5 131 89 96 164 211 43 92 58 108 136 91 18 32 119 123 123 22 217 51 102 234 248 55 161 177 2 27 124 170 103 232 24 236 248 
103 224 123 154 19 51 227 51 75 10 102 170 49 93 243 150 231 162 178 63 94 195 122 201 207 126 168 167 240 221 235 205 236 37 194 196 210 121 232 176 188 66 219 152 197 117 253 59 126 201 52 135 113 202 253 170 16 36 16 234 172 193 69 205 253 230 78 202 244 16 248 249 244 172 63 150 215 121 89 180 69 2 223 250 239 102 37 70 196 212 132 76 123 136 7 142 74 118 96 145 
94 244 100 28 38 162 236 138 117 53 88 170 178 26 119 32 120 213 28 233 79 230 178 220 43 203 15 179 2 42 51 213 185 104 73 18 172 7 231 120 107 242 47 98 113 189 236 16 76 142 8 100 17 245 26 234 68 35 62 89 54 34 67 106 86 20 14 215 215 136 230 118 107 26 210 6 119 83 190 105 229 145 133 146 165 154 251 148 190 71 135 10 192 97 139 50 202 101 146 7 
150 236 16 73 218 218 232 148 4 132 98 37 200 33 86 224 228 106 93 0 39 111 14 162 177 245 203 10 241 181 186 128 43 30 171 215 28 78 99 125 216 11 28 228 239 3 82 91 43 141 213 94 80 47 238 37 132 80 188 168 139 173 31 222 62 33 162 253 106 51 197 77 158 231 200 240 95 63 23 98 114 19 255 89 128 147 246 238 230 0 92 226 147 240 69 131 16 41 110 54 
122 135 198 105 58 180 226 58 107 209 55 113 223 234 32 153 230 73 141 112 254 220 94 88 172 181 190 212 192 45 191 130 1 168 132 163 1 148 112 239 87 159 151 174 90 188 137 157 161 117 85 128 57 147 86 74 225 241 61 31 164 9 229 21 40 156 50 70 129 90 159 107 44 174 64 251 128 122 161 137 167 99 29 86 1 242 192 6 195 1 228 39 31 63 156 188 27 0 141 120 
56 202 198 53 73 147 95 12 118 0 211 104 233 48 137 215 119 23 189 78 119 198 161 129 117 129 194 118 16 178 187 33 50 113 170 133 255 51 190 95 159 163 124 86 113 24 216 176 21 228 10 98 128 59 42 249 86 25 234 2 30 146 254 176 227 159 23 200 21 173 47 63 89 204 221 28 167 44 242 58 218 66 183 88 97 6 119 173 172 161 9 241 133 72 254 235 107 12 119 252 
213 49 88 101 77 34 210 175 175 120 220 21 131 156 54 233 85 182 6 42 230 16 14 138 172 166 135 9 242 199 180 32 152 128 208 162 202 21 201 48 35 236 109 193 104 64 220 64 40 83 159 229 198 168 196 207 115 237 47 6 252 88 31 218 224 128 66 205 101 63 88 199 180 65 81 224 250 157 46 234 213 79 163 147 3 251 242 111 144 163 11 112 185 93 183 158 74 79 246 142 
16 94 83 106 93 120 88 102 37 186 53 229 53 118 54 97 85 108 148 234 20 141 228 198 170 64 146 42 198 130 26 233 244 251 92 186 87 245 194 170 18 50 44 147 15 13 91 34 243 134 40 25 188 115 47 83 122 178 48 75 102 28 204 101 158 251 71 3 245 219 35 157 7 38 87 11 195 12 170 147 83 244 90 77 63 124 228 122 226 50 200 208 120 19 227 62 60 65 69 105 
133 152 221 40 111 65 50 12 229 2 166 15 27 53 149 79 5 244 224 172 177 2 116 160 198 228 56 133 211 100 106 78 194 58 81 7 181 48 11 109 37 53 195 246 250 104 107 92 151 171 75 222 136 237 172 75 235 203 144 131 234 231 190 128 79 197 4 121 51 125 74 58 110 172 143 139 219 35 48 23 47 28 42 66 250 41 168 216 3 180 17 113 72 155 200 27 32 82 36 133 
58 6 1 33 175 53 22 198 118 213 203 91 221 255 148 203 170 107 9 185 19 181 132 199 82 101 127 169 76 184 232 119 32 37 36 36 227 149 24 48 86 251 41 161 89 131 122 236 20 187 118 222 165 136 102 102 199 159 180 126 210 93 88 133 124 80 96 77 85 250 208 225 36 234 9 94 101 229 148 207 182 61 114 54 58 234 150 114 193 55 152 105 148 40 171 222 130 21 42 140 
116 231 87 137 107 103 131 64 215 120 230 200 123 186 132 134 241 164 37 125 98 122 138 10 21 157 163 150 65 251 106 7 121 128 19 5 127 142 246 151 4 80 23 70 59 180 214 12 94 164 245 213 161 191 168 209 175 101 46 94 115 33 13 119 136 178 34 69 107 150 194 213 214 176 23 142 189 108 152 169 82 35 112 201 99 162 23 181 180 207 45 231 104 88 113 137 211 229 11 115 
181 154 46 31 162 61 66 13 207 199 125 98 231 91 43 64 124 217 55 162 167 92 22 196 202 102 163 5 149 57 89 169 86 32 102 238 188 205 59 141 244 119 109 23 45 11 100 55 95 212 70 176 158 254 107 216 175 67 82 236 238 108 135 102 60 159 212 76 14 251 164 174 36 206 142 98 99 254 107 25 40 8 249 109 67 67 95 10 41 176 172 145 30 48 243 58 37 200 195 184 
19 236 115 113 87 191 148 160 139 216 72 216 201 254 183 133 100 97 218 219 62 225 3 253 11 233 125 248 98 131 120 12 169 13 23 9 143 29 29 21 193 26 22 62 35 26 124 24 69 136 35 205 23 142 98 125 200 1 61 254 158 56 134 195 197 88 25 185 178 27 145 81 178 147 155 65 24 123 252 11 91 161 86 97 77 33 115 92 241 120 20 26 196 170 104 0 107 30 193 209 
34 224 166 82 59 44 230 1 123 23 79 98 18 234 203 122 203 189 160 202 63 102 13 212 69 45 217 240 207 100 196 246 39 146 85 148 34 223 125 26 203 91 66 128 132 161 63 201 46 217 141 166 87 3 110 131 162 58 147 220 1 133 246 11 226 239 98 61 174 56 159 148 192 179 86 162 95 241 132 105 78 149 35 232 42 38 220 40 173 213 195 7 45 16 140 218 231 178 233 214 
63 159 232 162 120 234 183 106 109 70 5 248 18 227 149 117 184 37 187 57 136 124 75 212 138 237 5 195 8 173 87 102 217 113 183 203 226 127 141 68 16 148 62 123 103 32 211 3 229 154 93 66 23 225 114 65 238 109 185 227 99 41 244 79 26 235 194 200 165 121 168 127 124 243 74 100 152 179 223 253 82 51 66 190 199 92 193 249 179 211 92 27 230 161 64 28 52 6 65 157 
238 145 105 173 62 253 119 64 56 5 246 221 62 105 209 138 229 236 102 39 241 9 243 14 55 217 232 202 167 244 55 244 47 197 206 15 118 5 34 148 171 219 217 248 251 6 229 105 104 62 203 255 139 234 220 79 70 71 211 70 38 248 236 88 135 199 133 165 127 49 43 110 39 229 192 148 88 241 151 31 234 33 102 151 6 138 202 20 67 248 131 75 2 82 69 48 118 64 230 207 
230 83 20 198 189 43 143 92 106 188 19 233 179 128 15 11 15 182 215 126 109 84 32 247 38 14 218 121 150 186 38 253 5 185 165 92 143 22 207 40 133 187 169 75 222 82 197 95 188 227 5 213 3 162 63 109 82 122 118 146 121 12 246 168 131 69 87 193 91 25 190 140 240 60 190 75 221 118 19 166 76 203 78 122 167 36 192 244 144 10 176 234 252 244 134 127 248 96 151 199 
200 250 27 234 107 198 157 73 9 95 159 67 222 107 237 103 47 219 166 166 136 43 45 160 149 82 178 36 55 125 59 105 229 13 254 72 83 25 214 104 65 101 223 207 219 74 162 59 1 35 129 155 145 185 6 251 155 123 41 237 14 184 34 251 65 26 60 177 111 143 164 243 5 197 225 55 83 165 198 103 81 69 29 80 242 185 203 164 213 40 189 143 14 80 175 179 187 97 108 40 
84 203 251 76 159 239 229 107 54 239 197 87 177 1 90 133 161 182 76 30 48 9 90 91 111 2 209 107 11 31 96 127 131 118 178 162 5 38 252 125 233 64 120 117 162 59 240 108 195 156 184 23 98 110 164 227 255 156 216 181 209 27 20 125 216 139 95 163 21 162 95 214 134 164 189 137 87 202 107 41 56 40 67 148 98 29 12 43 232 80 89 150 248 199 70 189 161 17 119 4 
69 47 250 208 244 174 88 146 241 134 34 222 186 17 46 92 70 166 116 233 245 229 185 224 61 215 124 191 183 225 8 24 67 75 197 3 216 14 57 84 21 77 29 130 163 3 105 113 172 210 84 150 222 218 27 225 180 152 185 13 13 127 73 160 75 100 240 123 251 137 150 25 164 227 13 220 75 232 44 2 108 39 174 152 149 44 129 159 39 11 39 251 46 30 100 236 177 7 55 107 
214 109 198 158 184 175 103 224 70 114 137 4 113 6 169 255 53 197 145 84 117 139 4 206 179 182 60 32 77 172 186 76 174 177 84 16 136 133 175 146 142 246 107 187 162 114 24 67 216 56 216 44 64 17 75 142 154 57 87 197 65 15 229 245 207 30 201 241 32 176 248 35 195 18 105 70 227 234 102 13 77 113 195 141 203 211 158 101 120 67 172 208 214 109 90 201 251 202 208 116 
26 8 110 159 239 132 62 138 64 191 249 173 29 209 150 252 239 252 236 203 67 162 185 89 100 152 201 72 64 210 11 0 131 95 173 162 155 160 58 157 62 77 170 10 109 225 121 84 249 150 207 66 151 94 239 216 248 102 121 175 171 155 69 61 203 39 16 251 62 213 156 18 20 34 53 7 178 85 175 239 227 149 144 158 172 38 225 253 90 227 198 254 222 28 68 234 65 26 76 126 
234 239 78 178 95 191 72 159 83 196 108 148 50 225 79 126 130 221 180 122 218 248 149 140 27 218 3 198 220 83 174 16 181 108 31 234 158 216 126 123 48 253 144 24 170 254 140 123 19 90 92 69 111 69 94 80 119 98 69 98 255 124 79 115 45 44 206 122 77 97 192 119 216 26 113 242 69 144 103 42 65 52 208 110 238 121 188 151 238 108 233 2 64 18 158 222 18 34 116 163 
121 111 155 34 165 254 142 27 202 39 70 114 139 178 0 179 116 63 195 155 105 244 243 184 34 16 52 182 98 152 78 151 21 203 14 181 73 5 99 225 32 46 202 216 88 10 124 89 159 73 95 161 22 109 135 86 160 80 77 110 6 10 252 3 62 218 88 169 59 14 116 46 173 121 36 71 80 136 83 234 153 74 51 199 120 33 56 163 58 199 193 2 238 254 9 218 255 75 175 173 
140 199 123 21 183 30 170 201 204 216 55 128 137 43 157 224 123 76 203 250 219 112 251 217 31 175 32 101 126 251 167 63 54 185 151 152 175 209 35 61 158 217 140 132 47 33 145 160 104 62 59 34 64 169 164 15 209 77 226 219 206 124 160 245 109 158 86 132 51 148 55 255 65 173 28 218 131 95 137 12 58 229 196 15 60 208 147 2 249 79 230 22 164 221 192 16 249 239 18 171 
133 179 205 126 229 205 139 53 82 239 176 195 214 17 57 216 7 213 74 79 235 92 129 152 195 147 7 174 239 42 28 229 141 148 94 205 72 198 246 123 60 229 237 111 163 22 117 238 247 12 21 223 37 108 86 40 237 166 19 34 199 47 110 220 205 146 189 107 70 194 237 211 93 225 8 114 239 242 235 86 236 166 133 26 131 173 204 94 172 188 139 42 251 17 228 210 185 34 136 41 
74 163 204 76 149 255 84 136 136 112 120 77 178 41 63 168 64 25 36 199 125 178 3 124 163 220 61 179 79 214 90 252 185 128 145 54 64 19 120 179 164 95 211 227 169 91 6 142 68 65 42 153 92 92 141 100 197 115 120 5 47 69 221 34 215 130 144 40 128 133 19 130 98 72 156 75 111 89 162 31 195 66 181 92 16 19 35 77 16 155 110 142 80 177 195 254 25 52 179 188 
142 219 3 233 178 241 137 56 42 254 16 47 75 50 127 81 157 176 116 120 40 147 88 245 199 58 32 61 252 71 105 210 52 55 215 134 149 93 251 168 216 20 35 55 88 144 123 25 206 218 213 59 227 36 123 12 21 184 80 42 45 243 184 196 243 238 208 93 8 58 158 133 21 119 148 184 120 218 242 185 169 240 220 26 205 180 104 25 99 12 13 202 159 54 70 141 104 104 118 131 
29 11 109 206 187 90 203 96 69 35 40 203 18 62 69 127 50 156 226 155 153 124 83 99 16 10 138 237 204 245 64 243 27 143 165 195 146 189 3 143 220 33 67 149 10 98 136 188 84 77 4 28 92 155 90 230 32 58 95 139 238 46 11 111 13 143 143 138 244 15 31 188 176 85 213 246 18 63 143 67 190 226 53 92 235 30 91 171 158 184 213 248 89 194 206 5 158 10 153 171 
118 208 218 239 133 212 22 216 149 145 37 169 224 84 35 151 72 22 181 187 230 63 53 16 53 141 34 173 43 27 182 117 173 252 126 106 196 122 196 206 124 176 105 10 234 156 150 187 149 96 55 114 98 86 243 21 246 82 60 182 161 41 20 205 196 42 179 86 3 85 38 253 229 157 242 170 254 133 122 165 69 62 166 245 128 178 159 206 39 162 48 101 26 242 110 149 248 151 111 26 
239 124 192 44 48 139 221 143 196 97 207 203 160 86 5 103 104 113 42 166 1 167 71 189 3 139 214 7 77 2 246 121 49 6 56 167 160 105 80 26 130 236 8 13 66 200 19 97 206 212 179 251 74 190 199 38 70 167 133 248 95 68 31 170 192 65 217 79 68 45 83 24 74 90 198 108 65 231 211 161 144 23 153 197 121 97 132 177 89 157 250 200 4 79 241 249 228 4 240 186 
83 1 216 51 110 82 172 220 116 54 7 207 26 65 215 57 67 223 83 43 228 53 188 86 12 142 9 169 153 129 43 238 213 161 1 80 106 22 128 58 61 25 56 125 210 1 110 63 19 245 188 228 14 26 41 205 158 91 127 33 248 147 200 102 127 111 82 99 149 59 204 176 14 76 247 43 50 113 60 66 91 162 230 196 181 131 122 191 135 170 54 28 222 101 114 72 113 143 154 155 
28 220 12 10 71 127 144 8 15 22 107 236 130 164 44 50 237 101 248 27 35 135 97 69 33 80 0 15 126 23 246 105 36 248 234 237 154 161 35 134 90 19 209 206 9 195 227 199 60 191 136 173 199 204 19 213 219 166 126 112 103 195 167 200 60 84 236 195 166 238 138 13 153 152 234 72 48 253 53 36 191 26 135 26 136 75 183 232 163 87 87 103 197 242 179 181 179 52 87 152 
152 8 204 217 40 98 223 96 88 202 139 31 76 92 69 227 60 59 122 102 69 206 137 14 236 122 150 85 161 149 216 121 253 100 155 214 113 52 35 157 100 177 41 186 130 3 180 231 86 181 230 119 248 108 180 198 126 184 231 152 98 67 224 205 195 239 30 120 160 239 184 95 119 132 241 206 212 236 190 203 29 79 92 247 55 183 227 31 223 91 96 194 214 50 101 175 151 16 77 85 
60 255 178 249 85 171 79 5 178 61 106 237 177 118 82 4 47 146 32 133 181 185 90 46 86 237 197 252 160 51 154 192 39 178 54 136 7 100 151 249 217 27 186 118 154 190 5 234 113 240 250 70 21 18 92 14 125 220 209 251 133 186 193 143 237 54 164 22 12 250 133 191 162 165 28 239 40 49 130 131 110 158 47 0 222 101 6 222 106 180 33 99 122 167 38 116 11 14 16 47 
109 132 70 66 107 112 123 146 85 82 114 219 11 11 40 222 93 124 24 23 140 156 43 226 32 242 36 174 71 193 241 201 31 228 121 41 33 66 189 234 106 104 125 78 208 168 97 121 102 213 16 72 120 44 136 226 11 155 155 198 105 47 43 123 42 85 33 126 65 91 51 100 29 139 149 71 242 5 166 37 221 6 114 1 248 165 125 249 177 24 156 124 141 72 170 251 38 241 141 113 
80 190 72 140 34 193 44 198 174 211 115 30 43 194 196 203 46 28 155 98 157 67 74 1 99 146 242 243 80 240 247 105 95 225 249 156 7 138 38 1 72 107 89 191 115 201 166 184 134 235 180 240 254 199 206 131 21 105 171 58 90 28 107 221 103 116 194 69 17 140 0 121 77 101 243 205 104 203 247 75 247 131 152 12 161 17 207 190 207 146 88 57 100 105 229 144 90 170 103 25 
70 105 252 156 225 143 130 218 149 212 91 66 137 70 111 120 78 96 62 9 69 54 197 2 207 46 124 228 104 126 167 142 38 200 42 144 223 124 158 59 0 15 134 87 208 182 81 181 239 40 134 16 241 206 245 107 99 225 176 206 14 100 171 18 238 92 83 53 76 84 210 49 135 134 95 254 62 34 185 184 82 20 13 119 238 88 131 154 118 178 15 151 181 93 22 239 43 112 154 238 
198 11 88 185 135 32 54 75 119 175 224 67 1 232 154 6 126 112 189 222 190 137 51 235 250 71 127 158 52 164 140 249 250 78 80 116 250 8 226 255 82 76 205 202 248 141 118 34 161 38 143 70 146 56 132 156 254 86 242 49 129 116 10 217 184 218 114 211 146 240 68 252 208 99 9 37 255 47 49 107 132 92 160 88 112 84 166 219 17 147 103 98 26 217 63 49 167 155 18 216 
51 171 69 236 239 219 20 54 75 14 46 183 178 0 102 194 247 196 167 161 54 30 106 148 183 210 39 181 26 106 29 94 90 144 122 22 179 116 35 95 34 221 194 5 119 107 121 119 11 125 159 221 250 184 158 145 223 132 183 174 215 11 150 9 36 104 250 76 101 209 57 92 121 193 168 68 147 128 139 38 11 25 132 16 9 4 89 51 122 66 254 120 114 47 172 245 237 204 103 114 
136 3 167 190 109 53 5 229 27 232 34 197 100 226 229 169 78 0 137 50 64 119 188 77 141 163 88 90 17 28 139 103 252 36 218 56 40 120 91 59 254 108 108 176 244 139 173 206 107 203 249 75 224 129 240 248 192 39 99 163 107 6 102 129 83 188 105 23 77 52 99 182 214 229 152 41 27 101 109 128 38 182 109 15 169 10 233 20 137 62 74 43 246 172 52 197 201 109 79 37 
254 146 193 147 19 32 102 101 185 125 9 144 30 127 140 179 63 225 0 175 195 119 191 189 125 176 24 160 17 215 133 60 64 13 108 138 238 7 174 137 88 19 116 120 239 97 97 232 155 86 99 80 239 92 3 85 183 159 10 54 96 64 74 151 195 21 95 235 103 181 158 244 215 38 126 84 160 64 243 162 9 74 214 213 75 45 34 24 203 130 71 110 24 69 99 184 232 188 135 37 
57 161 165 114 183 111 169 208 90 115 138 145 153 151 97 191 12 255 150 60 72 202 18 72 172 29 197 254 199 81 198 249 184 154 209 5 162 98 237 183 248 112 144 153 60 12 246 251 10 101 153 123 199 38 244 1 49 56 81 75 110 84 183 65 236 61 28 236 150 117 173 55 112 7 231 211 208 93 76 11 68 42 215 19 36 104 48 17 32 69 146 242 243 7 209 241 255 202 234 45 
179 194 195 140 25 249 91 163 143 233 90 26 212 190 204 9 99 247 40 104 91 179 58 4 195 203 23 95 239 82 16 43 239 245 202 225 242 181 158 133 195 223 95 69 255 212 108 65 46 68 12 94 164 243 112 170 241 37 25 157 166 244 216 247 90 23 242 175 11 114 138 16 190 69 160 115 154 122 245 255 237 210 205 223 31 208 99 235 186 161 61 198 67 131 197 46 123 134 11 51 
107 41 226 109 196 50 146 135 187 179 59 99 198 23 139 17 118 141 246 211 219 31 198 139 33 22 100 251 13 48 150 36 75 254 166 46 83 16 143 166 197 61 186 177 20 197 220 172 220 57 158 239 48 226 31 13 104 118 168 253 125 92 255 41 122 237 144 111 249 219 127 92 110 132 110 120 190 194 58 52 173 132 31 182 101 18 204 106 90 191 160 196 126 27 156 166 23 170 228 68 
181 100 223 251 165 126 3 163 159 118 110 142 145 219 116 179 90 161 207 143 31 133 85 56 124 18 22 151 60 123 213 7 99 176 90 234 189 1 48 124 76 5 66 210 137 112 124 46 111 17 254 216 50 135 28 199 95 125 184 216 137 214 163 125 196 66 252 83 74 126 89 173 131 248 154 220 214 174 80 49 45 164 116 111 13 3 31 71 47 72 107 119 196 21 146 24 254 169 213 203 
49 216 65 111 61 241 54 84 173 193 79 156 15 8 54 99 157 182 211 117 100 218 194 247 133 238 51 12 123 91 89 35 136 111 54 51 123 117 67 84 113 66 238 211 239 21 175 126 0 10 5 42 143 231 200 155 90 234 230 164 211 185 17 120 34 249 232 79 249 32 236 213 158 78 122 31 178 122 101 85 175 191 20 4 135 59 79 27 45 190 207 148 177 111 150 8 253 119 254 118 
67 91 182 227 209 60 237 250 186 192 41 40 61 123 114 47 160 179 134 77 241 39 222 79 24 32 17 55 134 157 237 55 211 194 88 240 174 145 137 69 199 253 65 15 192 232 205 23 68 244 56 77 222 153 188 7 157 8 81 6 179 127 72 71 203 4 185 198 185 58 231 192 113 67 193 235 7 78 138 254 225 165 85 107 97 120 160 190 195 1 176 23 98 124 85 249 169 164 126 97 
