P2
100 100
255
52 229 129 123 250 115 84 141 210 7 123 137 194 61 229 121 105 166 227 210 142 133 197 49 231 156 34 61 52 44 220 201 174 141 64 181 240 45 175 86 146 220 85 191 15 243 123 1 198 58 182 1 96 234 141 3 81 55 209 28 62 75 187 129 224 135 33 64 37 241 238 163 56 192 237 37 253 20 252 162 246 117 219 163 64 42 50 118 42 156 226 193 239 235 52 207 237 6 48 190 
4 223 249 234 115 166 126 104 243 0 157 232 82 245 145 118 177 242 248 238 21 178 133 180 113 165 112 130 24 149 1 65 56 7 109 72 68 47 239 22 3 167 192 45 253 159 136 147 231 208 135 184 221 208 252 121 163 206 100 254 198 52 58 135 11 108 168 236 119 197 128 212 84 149 187 70 21 54 52 181 10 129 73 254 249 224 239 250 222 86 6 40 189 34 153 27 186 171 25 110 
49 94 148 116 127 53 111 124 252 2 49 242 37 172 49 11 23 66 206 105 66 181 82 75 24 21 34 225 123 48 125 150 58 83 158 231 170 221 160 175 230 197 126 24 23 196 109 235 7 221 215 207 195 210 25 171 200 150 144 146 44 153 117 220 50 67 229 103 82 219 142 117 207 204 244 95 171 232 125 178 63 237 114 225 154 120 204 45 66 141 160 14 52 134 233 80 146 238 32 143 
192 212 1 16 41 168 127 164 203 30 71 152 142 53 209 121 187 51 251 64 123 88 145 241 5 100 140 70 253 163 204 100 252 96 214 192 222 254 121 239 66 21 122 5 252 20 47 25 173 87 172 232 202 225 73 99 159 70 146 106 124 18 67 128 147 152 48 157 36 44 219 200 242 37 147 105 16 79 138 169 183 93 63 59 197 49 24 42 13 19 149 13 59 191 189 98 148 190 54 145 
21 72 16 3 195 53 42 182 8 69 225 74 223 134 133 106 6 224 210 115 29 47 145 183 212 71 63 198 90 54 6 200 113 83 44 253 13 119 152 149 155 70 144 116 149 240 7 173 82 99 124 1 237 16 144 159 16 176 234 241 124 134 42 20 4 166 28 253 115 171 42 67 29 151 121 240 50 225 221 250 150 236 138 190 69 83 73 43 236 247 40 236 79 50 33 98 56 61 89 14 
11 97 79 95 23 248 191 247 45 146 20 162 75 133 69 28 80 201 57 240 234 185 219 216 58 190 171 19 239 24 187 52 128 230 66 2 248 83 193 135 76 45 130 251 70 2 133 0 172 40 110 193 62 125 73 197 69 40 34 133 203 119 27 62 254 154 146 35 209 241 37 241 158 201 68 183 96 97 156 161 163 149 154 73 68 107 116 140 54 153 93 106 178 104 113 103 196 117 124 149 
49 110 224 89 58 72 170 63 190 37 79 66 255 255 129 17 70 251 26 23 160 96 24 89 20 223 81 254 35 181 245 48 2 189 157 225 71 196 41 93 178 54 64 98 229 252 213 242 171 166 228 85 61 57 225 14 65 190 253 219 86 16 230 231 203 45 220 136 146 196 236 144 236 205 73 99 162 151 44 126 159 180 238 188 49 97 234 17 121 50 193 154 77 144 216 53 242 66 191 43 
166 248 124 236 141 121 234 191 187 52 12 64 157 236 96 188 163 188 43 173 199 68 171 114 45 170 227 204 59 101 106 92 114 7 106 131 32 195 169 183 194 21 51 250 174 112 26 197 56 135 229 146 252 89 242 70 200 44 129 103 109 163 165 48 216 162 137 8 175 190 202 222 88 34 194 181 212 34 194 225 18 159 203 210 238 86 246 70 78 78 161 91 106 0 191 108 18 212 20 66 
63 132 88 152 148 130 53 37 108 147 228 12 206 95 147 223 205 187 190 68 14 73 35 0 174 248 208 4 102 136 141 53 33 130 187 214 170 98 3 178 114 42 150 175 182 199 109 51 43 87 199 99 104 151 252 146 60 33 211 132 213 222 184 126 68 206 110 204 181 93 211 93 44 73 157 42 49 128 147 37 132 123 50 105 69 164 30 93 29 49 188 237 48 1 187 65 103 221 13 62 
8 106 249 51 58 242 147 131 182 233 187 247 13 47 62 203 184 221 161 135 102 159 46 190 113 23 128 140 117 24 209 49 57 84 31 166 159 185 96 51 143 13 185 150 111 177 231 186 214 82 235 4 167 32 152 127 102 38 15 169 133 99 153 112 175 138 219 62 85 90 176 51 110 49 214 178 138 239 150 230 255 17 170 19 89 113 229 195 211 124 57 169 146 236 197 125 40 150 23 162 
80 195 138 159 19 203 57 21 42 228 180 76 251 61 216 154 193 153 252 243 130 188 119 188 81 172 38 182 230 139 2 130 189 211 92 130 161 162 240 30 108 179 92 212 43 52 77 118 170 35 242 194 196 127 34 64 31 3 253 195 72 180 177 24 29 217 101 7 255 69 188 209 61 213 148 162 170 90 4 63 245 185 180 63 116 236 184 49 36 41 145 145 7 17 19 126 142 253 5 176 
59 166 95 7 199 186 225 88 125 162 81 34 219 66 23 185 97 105 222 190 16 244 213 125 165 92 190 27 161 219 168 208 84 100 90 139 64 198 172 191 116 90 172 77 0 224 172 249 7 7 128 108 16 128 204 216 69 207 104 253 225 187 106 146 188 114 17 118 16 199 4 180 80 120 41 27 110 89 152 178 15 1 84 178 27 242 151 254 229 141 170 247 204 192 12 255 21 182 78 133 
205 29 183 195 68 212 236 231 171 124 37 53 26 225 183 16 117 225 207 166 154 86 184 130 254 133 15 57 14 165 65 232 94 241 225 9 88 149 7 23 27 62 103 251 84 214 84 201 204 31 213 37 217 212 243 38 72 232 1 223 185 86 94 108 152 255 53 64 75 50 176 138 8 173 105 41 13 204 197 1 99 166 111 59 195 51 207 68 211 111 225 255 233 103 173 85 141 69 101 116 
225 7 59 155 215 193 72 233 54 16 165 197 42 175 174 182 144 27 108 77 0 167 68 133 56 119 46 87 98 41 223 197 197 73 76 132 186 116 185 74 86 181 137 66 249 234 128 73 27 255 96 92 62 64 165 31 89 131 250 81 220 40 65 66 66 117 149 178 66 199 158 75 20 33 183 223 13 115 11 158 184 40 21 174 221 161 65 115 119 93 69 56 90 85 153 43 180 122 239 126 
44 160 16 114 228 236 43 23 180 44 94 213 80 170 10 20 176 211 69 154 241 149 215 11 141 66 239 83 84 41 68 152 197 84 105 0 118 201 87 88 143 44 251 55 64 124 47 224 19 179 21 200 173 100 250 184 85 196 74 31 74 85 181 113 251 141 193 8 106 198 61 81 31 199 13 141 227 110 124 134 123 95 129 130 239 233 91 242 64 60 223 122 197 74 83 41 135 77 1 3 
232 146 165 59 50 241 100 218 82 52 17 218 226 16 121 143 153 208 143 95 37 89 216 135 202 118 51 96 106 110 126 114 116 165 2 202 184 165 144 107 193 160 181 2 31 196 2 130 236 12 178 66 243 208 100 21 219 218 242 98 84 5 114 216 59 31 100 144 203 209 26 11 253 220 102 45 166 21 182 130 23 20 159 204 96 114 184 128 230 117 221 35 73 130 145 119 123 66 175 192 
215 83 163 172 63 1 107 43 77 216 162 179 187 122 136 27 37 118 191 151 211 215 158 191 94 167 10 59 0 190 130 193 36 161 219 72 66 133 16 149 170 85 247 217 124 56 166 168 74 237 106 34 156 198 73 173 37 32 160 67 82 239 174 82 236 115 55 152 186 157 0 179 143 32 168 179 119 94 155 98 223 14 244 105 115 121 69 52 86 112 252 169 246 239 231 159 235 23 185 38 
138 212 39 23 118 88 113 207 129 86 87 6 254 188 101 174 134 191 211 33 23 21 5 211 104 193 136 183 250 49 13 92 251 97 35 94 146 119 72 165 62 54 79 250 55 57 216 172 196 133 185 173 233 148 122 108 34 88 231 189 104 94 138 28 33 150 73 32 142 68 14 127 8 95 12 24 190 222 74 216 208 163 132 16 172 189 109 102 89 224 17 127 107 162 126 18 61 13 187 60 
124 139 12 159 61 139 87 43 225 251 6 115 102 3 185 52 155 161 43 226 90 139 226 124 45 30 69 183 112 253 43 224 120 142 173 109 182 98 93 176 210 240 149 229 60 105 100 130 198 201 75 165 99 93 199 116 91 165 207 104 226 249 127 235 18 146 133 129 163 184 112 100 221 122 196 74 21 145 35 101 25 168 155 41 148 185 23 2 240 242 199 245 12 121 29 81 36 113 97 178 
42 175 96 28 226 105 218 122 53 229 219 217 119 236 93 193 40 31 155 34 196 207 139 158 128 215 13 211 70 225 61 54 22 112 110 60 111 219 64 33 77 153 81 141 228 159 53 85 184 92 226 46 189 219 238 34 97 57 217 79 168 215 191 84 34 189 223 53 38 206 167 232 22 227 86 106 41 18 105 188 173 9 23 44 156 186 18 103 190 199 124 37 244 195 109 49 203 181 198 192 
29 178 5 25 221 50 129 249 201 158 146 22 107 35 111 222 65 162 125 20 105 252 108 113 228 95 228 150 146 236 18 212 40 253 61 212 220 138 72 105 38 193 232 244 207 55 158 182 33 121 41 63 15 70 84 183 208 212 90 56 76 211 206 238 243 121 37 75 4 23 203 137 135 24 183 119 139 173 163 212 185 225 181 213 96 200 59 99 64 108 62 238 251 209 95 144 17 214 37 162 
158 60 120 179 36 77 205 91 96 77 211 65 49 174 191 235 232 112 156 205 88 53 117 193 37 223 108 112 146 132 191 210 234 55 145 25 84 232 229 19 5 27 15 19 176 81 197 75 217 161 18 254 21 28 17 22 118 16 164 128 122 1 229 136 67 4 204 161 97 130 91 183 179 177 171 0 134 194 31 254 166 61 143 126 177 113 171 255 221 107 204 132 123 123 202 94 109 132 2 174 
83 191 229 86 168 200 117 222 162 27 240 59 3 246 211 126 95 176 83 119 206 114 118 191 154 221 116 11 71 226 178 11 159 126 130 192 9 8 79 127 57 197 47 232 196 27 158 111 63 251 217 101 48 233 202 30 26 26 242 97 135 247 220 39 201 221 63 193 247 49 168 125 245 240 52 182 73 41 180 249 18 137 22 135 215 219 114 249 93 124 28 54 234 88 148 250 42 117 245 3 
8 228 101 165 171 116 251 244 67 4 129 241 65 137 185 212 135 71 57 127 183 198 236 66 170 112 202 158 146 60 243 175 132 33 243 173 71 104 222 248 146 179 226 199 30 77 161 225 238 97 197 215 75 134 203 253 227 202 63 38 170 149 108 167 94 115 144 100 73 30 179 161 136 157 75 87 47 155 132 245 232 47 247 177 72 10 69 74 190 204 106 130 110 75 5 236 166 77 63 223 
166 79 16 220 64 229 33 96 51 199 26 118 252 39 223 61 239 248 173 110 137 250 28 217 93 251 255 200 200 142 252 117 111 92 252 244 196 222 9 254 86 29 26 173 200 206 29 245 193 90 200 233 250 75 233 206 70 8 225 76 79 64 130 148 205 154 41 214 45 113 210 247 39 125 96 138 111 104 248 94 21 4 81 198 211 232 164 155 188 246 151 117 253 80 210 74 102 90 77 123 
32 189 66 100 93 250 182 73 137 210 174 82 60 58 151 0 5 95 98 114 82 23 104 158 2 182 103 43 184 111 90 150 44 220 89 114 179 225 149 180 129 230 110 82 53 134 91 215 211 242 22 218 23 189 51 114 213 240 37 202 93 8 98 73 179 6 216 6 33 225 178 30 219 93 233 26 147 7 39 11 10 115 113 39 232 165 8 171 250 189 241 215 149 180 57 32 69 245 112 222 
77 153 251 163 108 31 144 87 241 49 226 31 103 140 77 94 149 62 4 67 240 116 96 165 82 49 250 87 169 96 44 28 64 221 28 156 91 133 121 54 189 227 156 32 27 18 45 43 243 208 103 200 22 197 53 77 116 253 206 10 11 173 230 58 153 113 109 188 57 144 185 104 14 104 6 42 245 195 36 62 234 65 3 12 243 226 208 26 65 90 175 245 89 142 209 52 159 127 163 227 
10 76 103 191 10 60 250 48 1 69 133 146 47 1 216 143 92 158 38 102 165 89 29 83 243 30 35 220 212 16 71 117 212 173 187 67 219 86 55 249 235 192 218 96 113 177 171 62 23 227 67 161 10 222 37 131 252 19 19 93 82 250 67 224 214 157 58 165 216 154 221 242 74 31 65 68 30 134 169 156 176 202 78 136 1 185 247 81 101 74 131 66 134 22 173 198 180 85 161 146 
244 208 91 195 170 191 215 28 163 62 76 32 32 65 219 192 64 135 13 131 4 139 180 80 1 228 186 20 58 34 79 192 59 39 131 142 91 49 50 233 18 201 66 94 160 219 100 138 30 72 115 225 190 142 206 53 22 214 113 155 22 121 39 217 84 197 54 157 246 231 16 215 90 37 224 183 59 54 255 9 203 174 231 39 130 112 84 39 165 81 134 86 149 188 86 246 76 210 184 245 
21 84 125 51 228 52 207 242 204 236 193 169 21 244 209 193 139 205 82 104 202 110 82 9 10 169 139 12 140 217 95 205 240 36 205 138 76 113 230 84 7 100 35 19 130 199 64 67 30 236 153 118 248 31 116 66 179 78 76 88 228 209 225 181 110 14 196 241 183 93 9 58 56 38 87 112 159 163 224 122 62 195 204 198 5 50 37 183 175 16 156 96 91 172 29 41 136 70 59 72 
53 44 162 224 103 239 85 80 232 227 39 49 94 124 105 254 66 183 118 81 17 134 177 40 245 58 252 38 194 250 249 147 148 70 90 225 4 1 106 1 32 133 127 150 116 230 96 188 184 120 96 39 210 103 95 216 92 41 21 186 149 44 84 65 249 61 219 44 85 19 221 101 11 230 29 81 73 172 230 209 116 239 177 221 166 71 50 176 172 62 4 168 42 197 106 57 223 23 127 199 
9 238 105 216 94 75 109 242 232 176 125 237 98 164 26 255 137 41 21 7 51 126 21 99 120 216 187 234 81 46 25 142 136 235 68 102 210 158 72 56 156 251 110 87 238 176 214 114 178 12 10 252 61 74 89 141 226 28 9 219 221 44 175 85 87 41 171 234 35 132 240 70 74 114 136 221 85 138 252 94 107 248 247 11 254 90 113 59 221 206 110 160 212 246 162 152 130 132 81 97 
115 13 35 245 248 154 105 115 95 22 87 164 212 2 188 69 138 176 35 244 38 34 221 90 69 162 63 161 154 88 162 144 182 24 52 205 24 158 30 67 170 79 247 220 110 104 121 83 142 39 117 138 232 254 108 17 38 33 145 42 215 189 75 20 64 22 189 244 160 246 120 208 242 217 119 223 167 209 43 113 174 111 87 193 34 2 2 238 144 18 62 55 14 100 227 232 225 13 189 212 
91 226 64 183 61 48 152 78 147 26 32 236 107 11 161 69 157 153 18 174 244 50 119 224 10 244 20 44 252 235 175 190 57 234 28 249 14 6 109 42 217 60 141 137 199 83 230 81 10 55 161 42 100 107 123 146 117 95 59 131 10 69 9 28 3 213 53 1 191 175 231 37 109 219 146 166 100 92 237 132 143 191 152 218 196 31 212 51 173 23 10 62 52 35 202 216 90 251 199 121 
208 229 89 142 178 229 80 45 65 113 3 53 105 135 16 31 231 16 231 105 221 94 78 252 161 24 249 82 167 111 177 16 18 67 175 228 8 39 153 47 72 143 178 135 65 186 200 210 161 20 52 228 65 79 54 71 58 206 212 100 192 117 112 77 42 231 175 2 201 21 75 243 48 63 109 170 225 3 67 92 160 60 173 113 225 172 194 177 80 42 217 206 56 21 57 221 109 51 189 188 
158 173 66 54 119 226 181 55 162 216 165 145 38 16 85 5 129 193 148 174 77 118 112 84 229 176 195 59 190 75 110 61 28 133 124 177 244 248 255 60 100 54 184 224 49 236 249 38 53 67 21 17 17 59 214 123 177 93 232 122 137 75 192 200 207 115 155 148 232 33 47 213 220 191 235 201 97 110 35 66 34 184 224 114 22 134 37 80 181 85 106 98 209 220 244 176 101 97 45 25 
77 0 147 117 16 2 212 60 142 62 11 112 19 146 187 31 76 74 203 197 145 152 86 54 241 158 107 142 90 131 60 33 198 47 216 51 2 11 198 121 73 101 28 94 31 101 47 210 8 50 74 43 135 37 221 176 16 184 85 240 149 62 249 94 217 226 230 86 214 39 150 178 173 115 114 173 193 43 184 2 158 167 137 136 23 59 31 30 213 94 128 229 120 57 241 45 151 97 144 239 
208 32 93 190 205 162 85 65 203 8 109 4 33 30 48 16 110 230 252 80 147 157 6 89 170 181 210 13 14 61 247 207 181 82 190 162 171 224 172 229 0 76 112 224 161 159 182 218 56 146 99 65 244 42 69 150 182 188 182 200 123 66 97 102 34 85 103 30 65 97 12 224 154 225 26 63 83 57 196 110 46 205 100 102 189 222 24 173 70 237 234 168 33 208 11 37 217 178 84 56 
1 72 106 199 105 4 197 180 175 224 142 22 238 85 162 222 114 70 213 205 204 69 189 194 178 126 50 180 229 90 13 198 240 22 68 233 129 81 252 225 21 243 177 131 254 74 61 3 102 174 190 75 236 86 236 45 249 165 254 85 108 190 232 0 208 21 144 179 153 220 99 247 211 5 138 210 199 138 106 89 132 247 222 108 164 182 231 227 244 207 97 27 250 234 16 155 77 28 63 163 
209 53 187 194 128 9 203 43 179 121 144 88 175 205 188 11 243 184 113 66 159 101 169 118 32 161 212 172 4 29 165 251 170 98 191 247 199 49 200 30 188 101 51 10 250 87 245 166 69 70 41 89 116 242 80 33 222 63 209 215 250 212 59 254 154 169 32 157 201 212 80 165 25 92 158 129 55 241 59 3 27 232 219 249 185 237 24 118 185 115 230 193 239 61 23 171 83 5 244 197 
145 238 177 196 59 72 224 213 176 212 92 120 115 254 229 100 212 219 232 164 18 232 8 166 244 160 71 115 214 72 52 237 70 171 37 52 212 254 208 148 35 155 166 251 204 248 233 147 219 191 35 99 5 251 50 28 243 113 194 30 51 196 159 53 119 59 164 178 69 114 46 151 69 227 239 212 67 129 49 93 219 189 33 209 176 4 148 79 76 6 73 210 14 221 159 36 251 255 231 35 
245 20 208 39 252 174 213 148 232 80 74 48 129 13 73 230 169 192 115 99 4 88 81 97 25 5 219 223 202 166 169 159 111 109 135 180 100 46 207 103 120 15 52 56 183 159 13 3 108 145 198 126 70 40 217 146 111 90 233 132 254 116 98 158 103 75 108 184 172 196 159 61 250 166 9 214 138 233 182 107 8 243 189 0 159 135 43 181 164 173 86 202 179 85 222 143 72 37 70 73 
147 66 39 175 197 112 26 9 5 212 93 230 146 251 22 247 132 184 22 99 113 104 149 98 32 157 230 221 61 63 56 167 6 40 125 172 180 8 165 53 240 20 167 22 39 209 172 89 38 45 245 47 209 68 175 102 63 128 225 118 146 31 93 106 105 51 121 157 200 76 132 152 239 85 244 22 108 142 204 121 113 145 143 178 249 148 4 62 124 254 89 241 22 100 235 174 190 234 132 83 
97 36 3 161 243 207 50 222 98 123 122 240 128 252 75 227 238 51 102 86 195 148 26 252 151 12 74 69 99 19 234 187 153 46 214 96 201 196 99 20 175 134 140 150 160 254 109 128 94 32 159 174 74 46 217 246 75 91 226 251 204 150 64 199 42 215 215 82 118 20 16 158 13 253 167 255 127 219 123 32 24 251 67 20 133 161 189 12 144 107 228 120 82 94 38 199 48 31 136 223 
63 185 101 53 106 173 82 202 84 111 76 38 33 135 167 215 73 45 3 194 70 36 80 136 221 133 96 168 148 150 191 130 251 23 201 236 177 147 101 92 35 197 156 67 124 219 228 82 29 159 93 133 254 125 157 162 3 188 109 180 191 218 138 17 219 174 8 72 90 83 252 129 165 193 252 81 235 114 202 194 77 183 28 254 236 212 185 160 111 122 110 56 18 81 190 110 96 101 50 226 
88 67 171 47 3 40 65 97 2 113 39 7 16 128 27 116 81 85 119 220 97 200 161 92 36 154 107 96 159 233 25 125 60 17 168 115 60 163 116 180 151 228 105 48 143 39 151 204 114 129 238 77 117 228 83 113 129 243 170 8 220 15 235 200 67 29 103 112 179 228 72 18 160 225 214 156 250 62 155 33 186 159 86 18 34 85 58 7 183 23 188 246 3 167 226 236 112 105 115 88 
168 149 181 241 142 29 233 42 135 162 136 85 95 103 187 88 241 134 114 145 179 98 38 186 146 200 194 234 97 26 247 127 124 212 43 108 104 223 130 155 70 34 66 177 248 241 251 198 126 231 125 8 114 223 22 51 145 140 192 145 252 108 200 218 216 215 38 182 220 17 77 141 6 110 151 181 135 208 200 252 238 60 66 194 212 184 116 209 143 42 110 202 4 146 65 18 189 66 164 212 
205 185 87 217 251 173 228 104 45 90 230 105 188 179 251 170 246 35 108 9 47 46 0 15 179 56 178 192 124 121 185 61 244 21 17 213 6 227 114 147 227 28 45 41 121 46 127 216 251 66 36 161 139 154 8 239 248 12 237 248 140 75 39 122 199 25 22 136 97 46 242 83 98 156 167 121 7 245 138 210 80 116 180 196 44 245 188 32 21 128 165 112 125 147 87 191 179 52 182 244 
131 139 162 193 72 166 5 54 159 236 21 163 233 63 229 73 54 174 212 65 216 177 21 165 136 154 94 121 129 76 192 7 33 92 177 128 180 43 120 6 206 2 203 116 162 47 130 208 123 15 166 177 113 103 250 119 157 90 231 113 36 196 67 223 169 1 108 171 28 186 240 2 253 179 78 110 32 215 182 238 251 209 181 89 223 254 115 235 190 10 27 53 109 203 204 238 168 3 44 250 
204 202 210 167 133 174 91 144 49 180 134 67 142 250 124 142 158 32 19 112 104 110 155 198 42 119 130 120 250 186 226 223 69 197 92 140 170 138 227 121 124 198 85 205 27 132 204 209 22 226 226 166 200 165 238 67 28 96 4 18 251 140 179 118 204 10 4 192 203 214 104 179 127 255 141 31 202 26 114 174 222 209 152 119 23 32 234 80 60 123 247 17 53 10 166 52 251 85 217 149 
93 116 44 137 77 63 159 154 49 47 57 27 174 243 10 57 62 0 111 81 100 172 180 155 150 155 24 230 22 44 194 203 195 51 242 149 183 155 212 222 39 42 125 92 37 255 23 62 60 33 104 98 17 182 68 33 210 123 120 120 112 114 67 228 239 252 225 127 117 0 111 1 38 151 59 116 78 157 219 217 35 150 193 34 243 110 114 83 181 72 80 159 132 231 154 54 231 117 120 116 
94 41 17 81 206 64 161 182 181 139 176 58 56 50 247 155 22 82 131 168 4 155 174 82 186 54 233 171 199 198 162 153 10 21 193 131 212 120 11 119 14 91 63 123 141 227 215 55 60 181 72 190 1 139 201 155 0 20 214 192 202 28 169 20 5 22 77 18 4 179 204 106 151 253 186 185 226 43 249 77 13 45 158 106 176 36 221 167 225 53 174 13 113 206 183 177 52 29 28 171 
47 21 187 5 37 148 182 35 198 155 163 240 124 63 197 143 28 42 227 184 133 14 36 196 203 167 210 185 213 133 209 76 132 62 132 83 3 22 27 134 182 126 28 210 240 28 103 214 22 127 216 61 90 179 14 82 60 180 9 245 113 95 170 240 230 197 111 169 190 103 195 109 229 235 174 116 201 27 67 206 181 0 5 47 52 144 236 198 227 48 88 61 102 178 170 88 2 94 21 172 
190 198 66 88 135 83 19 11 137 30 217 104 23 136 219 22 2 110 93 16 55 141 205 112 131 27 25 113 94 89 207 152 168 41 142 223 16 83 142 23 152 49 135 232 185 174 131 241 198 226 172 53 166 223 40 49 145 93 159 239 57 120 190 128 43 34 227 118 141 163 234 202 142 20 169 186 227 13 196 24 123 169 214 167 94 141 203 52 5 240 111 129 146 162 210 135 132 3 174 18 
236 227 143 91 187 31 143 136 235 201 130 204 195 144 16 190 169 155 239 157 141 66 196 202 215 252 179 216 28 156 77 109 235 94 34 14 161 72 53 174 103 74 95 169 42 141 34 126 148 76 61 67 156 137 116 69 213 117 189 27 205 66 239 127 206 151 117 160 40 128 253 168 188 219 70 250 108 101 217 136 238 215 204 12 247 22 32 119 101 6 30 164 237 46 95 228 235 9 192 79 
55 5 199 95 16 105 71 191 38 167 15 34 237 179 118 88 154 253 38 199 75 145 49 181 42 33 133 222 160 227 252 47 86 207 139 107 64 67 34 97 169 184 78 199 234 197 196 118 153 118 58 205 31 182 233 199 86 10 129 63 132 247 70 145 7 85 185 2 121 236 137 173 21 98 93 98 68 141 38 17 195 175 59 157 125 147 135 237 41 112 122 96 113 227 201 41 80 47 74 150 
165 141 165 0 246 125 209 17 57 9 219 210 102 116 218 188 19 184 115 172 252 186 56 249 25 72 125 148 215 173 233 68 138 118 203 14 103 249 235 138 114 75 250 144 137 225 66 252 148 91 136 150 105 40 208 171 63 122 1 155 108 89 147 56 159 68 211 49 106 178 70 215 119 85 233 138 97 195 42 226 191 96 210 163 169 54 48 195 19 64 202 0 54 221 185 140 3 109 179 174 
77 0 198 6 189 106 123 147 37 100 201 172 101 156 255 194 81 65 10 211 229 228 46 186 80 6 54 242 234 218 114 27 106 164 91 162 182 123 39 43 143 39 100 63 235 97 128 212 201 233 107 37 150 49 7 149 112 10 56 66 169 40 109 222 12 56 74 7 97 166 104 78 99 208 249 111 2 149 237 236 148 3 121 169 79 135 23 140 47 49 31 71 249 139 254 5 159 201 229 151 
195 198 80 252 236 172 182 54 24 86 1 96 64 243 86 140 255 37 108 67 98 125 18 35 121 194 218 203 64 100 235 166 22 40 53 249 246 228 25 252 197 134 84 161 202 4 250 130 155 25 221 100 149 66 21 69 245 205 13 235 170 147 232 232 5 117 152 103 148 69 209 237 139 85 165 2 62 83 36 161 247 9 81 196 76 122 162 72 22 61 160 245 55 213 157 255 184 161 124 246 
32 36 75 121 10 60 122 103 47 82 61 178 135 8 133 235 63 101 156 253 28 63 112 134 153 182 156 14 34 9 224 156 211 65 98 187 216 49 200 62 216 121 90 229 72 195 50 22 131 70 55 184 145 255 223 50 161 179 133 174 166 155 42 59 71 59 200 34 153 168 170 96 200 88 80 75 240 221 127 104 178 254 50 97 221 89 48 16 8 29 146 151 12 197 34 82 66 236 64 217 
42 17 56 81 130 139 211 79 132 78 137 215 22 37 155 44 225 201 197 3 72 68 207 239 181 102 66 83 86 95 11 109 27 73 3 36 108 235 65 119 83 125 5 221 249 137 160 226 126 218 208 124 185 88 235 189 172 133 62 88 58 211 209 169 32 247 99 254 61 23 11 30 88 71 147 217 9 126 136 49 21 49 40 132 106 194 239 117 41 171 67 225 214 166 75 97 246 138 76 56 
125 131 192 228 39 182 12 252 19 153 223 69 152 86 216 80 167 161 38 50 44 158 26 125 27 130 33 85 169 129 57 218 132 173 178 198 231 156 2 86 78 185 157 112 228 195 227 168 98 112 146 150 87 31 49 71 201 93 195 198 96 17 112 161 69 42 235 144 146 180 108 68 104 239 93 217 74 11 220 205 38 1 76 36 76 226 70 34 128 107 95 230 193 184 226 187 133 40 123 1 
61 235 211 162 77 92 127 41 134 89 253 101 245 4 52 131 110 200 29 169 30 64 10 169 250 116 186 167 44 179 97 81 124 50 184 201 59 167 9 115 98 36 88 19 34 186 209 57 69 78 108 200 114 90 198 60 80 123 29 28 227 150 73 236 29 221 6 54 218 90 2 183 140 236 219 239 146 98 151 100 55 91 125 249 149 74 132 166 129 101 14 72 72 107 145 246 37 129 104 67 
44 13 17 183 140 133 167 209 221 180 229 134 21 198 224 176 210 22 248 61 100 193 88 64 43 50 152 113 193 65 46 47 85 40 208 184 114 76 48 34 254 130 212 203 28 16 104 196 141 242 120 241 92 199 180 221 226 150 206 150 222 249 151 140 186 137 216 168 77 176 52 81 135 64 154 201 111 91 26 7 178 159 61 152 240 41 99 172 12 201 190 249 12 100 134 244 230 57 79 98 
243 217 245 230 220 201 146 218 168 11 232 170 137 176 0 89 49 65 239 178 53 35 177 218 133 35 249 188 255 81 124 241 101 140 146 119 230 190 10 92 30 125 212 203 76 7 121 211 170 135 241 138 196 170 18 245 33 177 9 251 216 35 43 20 223 173 72 60 150 44 213 185 131 84 224 204 36 130 74 53 186 89 221 22 124 47 115 96 234 32 26 116 149 245 194 26 222 43 192 152 
204 183 149 192 213 85 202 180 106 41 91 111 83 184 18 211 88 145 240 150 177 211 137 7 158 118 171 254 252 67 127 182 83 60 143 19 251 22 20 14 108 89 77 164 247 159 254 248 114 114 81 228 183 234 238 70 156 149 147 83 47 67 161 113 51 163 201 183 237 198 254 239 204 173 170 105 157 43 199 151 83 184 142 131 63 91 183 216 167 121 141 59 123 34 50 231 233 38 162 43 
108 60 58 21 20 116 242 214 250 179 213 198 15 102 187 95 46 236 162 129 197 24 147 115 178 190 13 52 148 72 2 105 137 232 86 102 102 204 160 148 152 162 222 245 164 193 160 177 191 49 111 29 23 104 56 122 11 76 219 53 61 139 187 60 201 21 205 12 53 72 165 78 187 120 106 221 92 2 207 102 220 62 22 133 180 180 203 207 239 129 214 119 178 240 105 135 225 6 41 249 
39 116 219 89 159 59 127 202 199 5 218 12 197 143 193 211 192 1 99 39 87 47 174 12 108 118 97 181 18 130 142 156 28 6 5 108 180 38 221 174 192 13 141 95 38 158 229 130 203 154 181 18 17 79 246 9 23 70 216 61 223 221 196 142 155 130 53 43 107 144 101 137 135 39 87 12 21 172 209 226 245 205 204 174 20 151 220 176 61 190 67 31 246 2 158 204 182 143 188 225 
148 213 45 108 27 7 182 60 210 246 58 76 229 110 54 163 8 116 176 173 14 229 30 142 221 161 206 4 236 200 180 75 171 21 149 46 172 120 35 74 122 158 156 142 14 120 119 93 209 24 98 91 222 28 129 167 85 33 27 53 103 160 16 41 106 89 170 118 158 233 44 36 80 83 182 213 251 248 191 142 178 60 65 236 253 129 99 248 61 206 172 109 195 117 255 218 184 205 35 130 
136 141 59 1 248 29 198 43 132 96 24 70 157 246 52 150 243 98 245 211 78 10 3 243 224 155 78 80 91 81 104 202 120 129 127 173 23 65 237 78 183 121 18 53 169 162 19 5 248 132 203 126 128 144 3 40 50 120 102 191 115 231 187 106 142 45 175 235 125 212 53 178 204 61 97 181 28 192 12 223 154 136 121 254 243 143 249 234 8 19 94 53 211 17 70 203 146 85 199 105 
132 123 58 176 237 108 122 83 124 137 57 110 123 67 109 199 252 58 5 152 116 82 106 41 238 136 12 72 62 158 3 100 164 141 227 24 71 209 96 31 122 121 109 127 228 103 8 52 98 44 170 227 13 74 146 218 38 128 141 250 204 69 24 159 227 250 170 193 53 24 180 47 153 128 64 93 139 109 26 5 131 126 203 186 82 127 177 66 206 221 115 207 128 38 144 41 40 86 143 59 
143 103 103 116 194 218 168 25 195 144 187 0 158 122 116 121 85 233 249 109 5 85 133 120 207 51 14 40 144 172 252 111 243 143 220 90 102 174 139 80 179 63 40 39 107 237 219 66 211 95 65 188 250 237 237 58 135 163 192 18 152 66 81 16 183 25 198 169 125 159 132 0 106 87 180 14 121 239 1 144 139 102 20 41 106 224 126 124 41 1 1 188 240 204 48 84 49 106 29 249 
217 53 111 172 160 178 72 232 187 194 127 43 186 110 34 125 210 97 240 229 97 90 240 134 52 91 110 95 47 241 212 246 25 245 100 38 112 15 206 222 87 185 98 15 29 36 205 44 21 15 161 4 230 91 163 251 65 120 185 53 53 160 49 108 255 134 215 65 123 98 7 228 154 13 97 10 183 2 202 223 92 116 37 165 213 109 238 54 37 230 195 161 63 128 67 7 77 75 249 40 
70 244 101 111 146 174 186 47 196 221 164 85 94 47 141 21 200 229 45 254 28 48 20 197 51 194 205 56 189 173 185 144 185 28 146 166 246 69 82 54 27 0 79 245 85 81 92 252 6 232 139 196 215 56 27 21 162 250 155 98 118 130 149 102 251 58 196 18 12 151 154 96 121 134 6 69 239 77 40 227 51 113 158 247 200 157 107 163 216 210 47 99 8 192 4 80 101 108 244 133 
77 70 121 32 104 197 241 144 247 220 36 84 46 138 121 42 8 206 172 240 199 11 84 103 213 158 181 136 4 120 176 23 232 85 146 175 137 84 94 160 154 166 230 186 179 230 25 123 82 155 197 50 0 71 114 88 172 213 189 222 230 15 75 63 130 138 10 139 6 210 33 64 199 173 202 8 155 134 251 156 37 88 154 162 57 211 7 142 242 33 220 196 88 230 121 101 92 65 111 123 
57 126 185 67 86 188 102 108 26 167 71 87 203 48 26 131 158 176 11 24 3 177 158 23 118 229 141 19 63 47 250 203 152 70 233 4 88 43 99 217 161 207 115 9 117 190 69 46 98 111 193 43 79 22 88 249 200 20 212 32 80 101 3 147 137 108 37 71 66 141 227 56 16 206 169 56 239 59 247 188 125 152 204 12 62 59 226 81 35 115 133 104 76 103 36 222 136 193 244 191 
82 117 20 245 133 42 19 187 131 4 212 10 98 245 177 110 219 78 134 26 164 176 103 188 79 38 182 145 66 131 115 233 39 108 32 170 119 26 204 93 108 14 161 40 78 23 37 20 139 209 185 143 121 124 103 63 104 139 74 3 10 28 204 82 10 127 57 120 64 84 240 34 203 103 170 161 237 76 178 36 52 37 222 36 226 121 109 58 171 188 175 213 98 89 87 170 28 121 251 187 
57 17 36 65 118 160 90 201 60 208 10 255 17 44 32 44 94 211 120 161 50 245 129 103 237 224 132 233 0 80 148 87 35 255 50 129 191 174 16 110 236 41 78 28 155 251 65 151 12 176 179 251 154 202 75 14 32 62 41 92 178 51 5 58 174 131 121 47 39 82 176 89 224 153 232 37 82 224 85 42 35 123 39 56 132 199 212 206 71 20 58 200 143 44 154 105 85 25 166 98 
70 241 237 180 63 1 0 27 171 58 190 107 106 22 255 23 17 6 169 93 118 245 15 202 9 155 129 236 179 251 172 145 0 170 119 165 202 228 177 151 125 77 234 243 73 203 153 150 162 220 149 207 124 122 121 45 168 109 240 16 37 171 235 9 62 61 149 55 33 173 248 232 153 53 110 83 9 242 140 227 178 191 212 99 29 21 163 101 26 207 191 236 143 91 100 181 106 234 239 130 
150 1 89 196 48 96 129 229 4 230 92 65 177 173 122 240 151 153 114 223 80 104 214 216 175 178 52 43 153 174 225 218 66 143 14 30 120 19 70 86 71 241 30 57 199 185 55 92 19 180 20 191 53 146 20 28 107 11 116 54 142 49 20 106 145 7 141 34 239 36 213 147 38 152 179 145 184 70 82 54 58 189 62 253 248 29 80 182 85 223 20 115 163 130 66 224 56 22 186 128 
80 149 66 172 239 138 58 157 110 64 95 76 159 129 116 17 170 108 205 73 58 247 249 125 158 229 224 214 99 174 7 195 205 39 170 64 123 90 206 201 125 122 112 185 25 205 106 173 56 49 145 33 182 255 168 192 223 102 105 117 178 50 123 67 160 153 80 241 14 202 177 180 76 219 205 139 238 227 18 238 30 123 29 149 83 220 220 161 160 19 111 49 91 161 165 0 214 11 172 20 
188 16 41 128 171 156 3 71 217 159 54 13 162 6 150 76 91 236 229 235 200 34 140 227 229 138 46 39 14 96 252 114 85 14 61 42 116 36 98 198 30 244 40 226 189 76 178 22 217 111 124 141 119 206 176 96 149 60 132 245 208 79 255 119 200 55 1 13 167 98 63 55 178 150 108 199 134 59 90 99 118 152 206 19 45 51 26 22 159 73 209 89 49 56 199 249 244 160 31 32 
12 109 109 201 100 105 144 236 31 104 237 17 46 79 35 102 125 165 127 189 117 73 94 135 125 21 212 18 189 141 207 149 134 113 212 52 21 34 32 145 168 44 190 26 31 98 209 38 229 71 41 152 196 88 77 117 233 127 132 112 33 44 240 59 8 179 114 171 150 98 158 167 184 52 96 224 81 74 144 146 106 203 192 79 77 249 69 205 54 4 124 69 28 205 56 183 136 233 205 124 
234 132 78 247 146 108 165 253 139 223 79 67 221 143 148 252 185 146 234 27 104 77 119 112 252 181 240 41 238 249 98 165 175 36 123 246 29 114 16 44 232 205 53 235 197 184 236 113 45 39 35 161 217 250 40 143 28 145 94 134 26 212 49 59 61 139 167 11 209 124 14 78 142 33 36 141 189 75 10 250 104 215 237 49 27 88 136 58 111 189 85 77 74 238 6 14 78 34 187 227 
16 130 92 189 11 66 200 127 203 66 145 97 112 147 33 41 103 211 180 94 146 81 160 79 47 90 56 182 147 25 221 147 113 201 149 84 16 68 189 172 110 217 32 30 77 24 66 141 104 95 113 33 46 246 7 186 124 157 246 159 234 14 224 20 204 225 119 93 107 153 5 94 124 27 111 159 172 21 83 20 79 206 202 9 114 212 238 31 95 53 136 225 160 41 117 186 227 162 155 30 
29 7 85 238 54 224 166 222 93 104 177 145 159 251 66 127 0 24 250 80 23 242 175 60 10 94 102 9 48 58 63 64 213 219 98 162 165 9 50 160 27 113 226 136 120 34 255 43 240 76 34 64 77 128 250 232 116 198 162 134 84 103 220 135 231 209 114 0 146 76 166 35 138 142 104 30 234 10 23 95 182 94 223 97 87 181 153 89 68 231 112 119 100 147 128 250 239 212 179 145 
188 165 77 8 212 165 148 33 199 85 246 146 243 222 64 190 2 83 53 151 117 235 230 20 91 149 105 126 105 140 211 88 104 188 252 40 235 243 57 243 140 27 76 212 78 80 52 8 183 121 154 31 171 128 128 207 136 10 76 57 19 74 209 100 153 28 68 43 14 36 204 31 125 238 61 143 172 152 137 73 213 242 212 146 163 21 157 137 2 103 190 117 179 108 173 12 243 147 6 182 
119 149 163 180 20 250 239 164 163 51 23 202 101 39 182 20 196 131 184 224 59 49 30 75 75 255 220 15 166 253 23 149 14 157 84 237 81 192 88 202 52 157 213 219 11 255 229 45 82 12 6 98 85 177 246 166 70 76 71 125 138 208 22 73 208 110 201 24 202 37 217 212 149 212 64 134 177 189 63 105 190 68 206 184 114 70 126 119 217 186 130 206 60 128 101 222 223 13 86 108 
247 54 235 37 67 112 126 0 10 42 100 80 172 40 26 188 52 126 252 125 83 253 98 102 16 37 102 245 176 142 0 154 199 246 125 148 216 255 214 53 227 237 210 198 246 182 227 128 93 172 47 111 126 46 12 182 105 58 82 21 61 60 22 45 82 170 16 74 37 15 160 235 139 170 211 44 83 30 97 135 243 172 158 152 198 44 252 141 112 45 36 66 60 185 24 56 254 61 180 110 
222 236 36 42 26 214 149 154 160 169 241 147 3 253 8 48 213 6 243 233 80 91 63 246 6 109 1 164 91 47 255 90 148 86 233 197 129 212 3 54 90 254 29 109 168 53 1 231 237 251 6 60 34 132 230 227 68 195 248 199 114 16 19 20 63 143 106 121 18 153 16 193 222 125 12 229 49 221 146 207 186 77 205 135 47 94 99 13 3 134 87 144 145 173 131 78 240 210 176 226 
50 2 48 166 117 237 209 218 158 107 112 192 177 14 118 14 39 136 108 135 139 156 1 144 54 108 8 101 119 109 196 108 110 232 47 132 170 176 191 201 251 113 17 209 57 195 234 156 111 148 125 85 100 58 245 91 119 45 93 71 83 157 237 210 55 83 115 120 146 18 50 254 178 106 94 155 38 159 89 110 185 170 36 95 56 56 149 33 59 21 202 141 193 57 78 128 204 21 154 205 
13 227 7 31 161 162 27 176 144 169 205 52 151 194 63 169 44 69 25 179 30 148 207 185 149 247 64 92 248 21 135 95 211 177 166 247 11 5 55 149 235 86 174 183 128 155 205 213 202 117 139 19 59 229 178 8 181 211 230 122 6 203 135 45 96 18 146 132 104 189 198 235 185 253 47 227 123 79 215 87 119 107 115 61 194 184 74 174 213 133 77 55 204 215 225 35 249 103 208 92 
124 85 97 244 152 26 109 240 107 136 43 247 74 64 74 234 143 237 26 40 133 250 98 205 10 206 248 61 73 198 193 180 25 183 217 212 4 9 86 122 1 205 201 70 57 123 177 39 190 143 253 212 187 1 201 169 24 157 209 159 170 209 232 82 18 233 66 6 214 16 94 161 181 59 100 42 129 222 119 142 234 62 234 211 244 60 247 169 226 145 64 117 130 86 9 78 150 240 204 45 
6 240 179 44 153 150 27 228 151 56 244 239 236 255 2 137 120 130 218 211 185 214 172 183 14 240 123 28 31 161 23 226 0 26 132 198 36 47 59 9 77 225 210 70 152 174 170 170 160 240 108 12 6 182 61 13 55 140 129 15 69 141 54 193 89 163 95 128 242 57 155 203 134 197 97 123 108 68 63 91 179 130 155 44 3 124 63 51 112 22 233 14 141 96 93 230 234 221 49 146 
98 185 195 249 118 27 206 20 193 190 115 186 126 67 25 234 25 233 221 73 249 230 99 91 32 71 75 201 89 55 75 220 238 223 98 105 123 61 211 244 28 67 98 49 36 139 101 124 160 0 77 204 211 196 244 180 29 182 207 224 129 39 9 204 200 27 139 149 206 239 111 153 33 129 195 235 104 206 178 254 79 159 247 82 102 249 184 91 122 201 147 37 6 20 152 172 112 185 202 181 
250 199 107 95 53 214 121 81 173 47 118 239 50 56 233 109 78 14 148 59 104 13 176 213 182 187 106 167 159 71 178 53 187 83 43 149 25 5 120 106 154 175 106 221 235 233 6 194 180 64 136 65 156 183 156 216 79 190 80 248 132 10 244 202 139 4 188 83 188 119 141 70 200 235 100 56 191 148 237 179 134 192 162 172 97 254 97 224 41 235 87 187 169 3 65 96 219 117 111 126 
195 80 68 148 10 19 27 108 124 230 193 132 63 203 3 109 240 1 27 197 92 52 153 247 87 129 100 5 58 161 8 95 100 60 164 49 16 133 212 165 186 117 161 85 90 182 255 79 153 162 8 41 134 155 218 52 14 46 230 181 228 244 154 249 122 157 130 76 216 154 27 221 96 61 40 218 247 169 25 35 123 45 51 112 161 89 171 197 148 89 212 223 227 198 198 236 129 225 141 162 
122 176 27 106 22 185 122 157 91 219 33 225 153 253 150 239 170 152 180 52 248 201 194 175 201 176 61 26 229 193 21 88 146 63 15 248 5 181 251 65 111 246 60 163 106 24 88 57 230 192 28 179 221 83 37 17 181 179 5 63 113 207 55 86 89 10 213 34 201 196 58 183 197 206 55 111 81 100 105 165 61 91 165 3 189 131 27 40 16 144 177 126 194 250 37 91 152 170 37 242 
24 250 174 131 143 194 232 194 170 78 38 71 95 206 201 191 142 59 149 240 145 195 133 34 158 196 184 251 23 173 189 81 63 251 116 114 128 156 161 241 121 37 216 202 37 253 158 207 68 25 179 144 128 117 80 170 103 157 137 98 76 101 241 61 46 149 247 28 99 129 46 249 8 207 80 52 199 141 36 105 186 177 34 36 135 184 237 0 122 211 35 179 8 34 64 8 108 5 18 134 
58 203 26 30 174 230 21 187 123 212 8 223 106 171 15 74 250 133 65 30 53 146 98 74 124 71 183 140 14 51 191 214 122 231 67 143 128 27 201 92 23 186 217 160 203 151 220 67 250 165 107 215 127 123 74 8 215 89 55 31 47 215 236 151 248 70 164 234 146 138 150 234 242 117 241 7 243 228 236 7 198 134 54 8 188 59 155 205 141 131 155 210 180 31 149 29 43 166 246 98 
