P2
100 100
255
227 247 114 47 118 9 178 85 170 62 250 48 127 182 160 57 22 2 113 241 72 120 92 37 125 13 118 149 239 241 179 157 44 151 28 142 162 13 197 87 111 58 134 113 52 229 51 213 226 67 205 155 46 136 137 253 69 159 0 223 248 53 154 5 157 242 210 59 20 177 87 6 103 122 96 96 77 228 41 181 96 111 88 170 164 182 163 8 37 180 219 69 174 108 219 17 32 168 98 10 
228 127 232 196 177 149 159 179 229 93 4 220 149 72 4 248 20 72 222 90 86 97 103 208 146 17 254 52 222 254 51 134 199 188 39 254 222 56 191 152 21 54 228 23 99 246 87 76 155 162 146 130 99 72 223 44 174 32 97 81 131 29 63 83 85 177 226 38 207 141 82 85 128 21 144 58 175 182 33 78 43 216 230 74 131 103 176 32 153 179 76 143 215 188 73 179 52 218 2 11 
210 206 147 48 183 105 144 111 143 182 20 191 102 79 128 233 93 8 128 0 51 125 194 198 111 255 223 154 249 13 122 36 101 45 128 244 60 252 141 232 102 141 103 222 81 40 80 38 135 111 229 100 29 248 245 34 62 253 73 142 119 135 192 220 72 65 14 133 188 1 92 143 213 96 29 189 26 53 89 65 176 254 200 129 101 113 180 202 105 96 61 19 168 171 26 35 239 145 97 232 
16 148 211 50 10 94 236 63 65 54 159 230 29 111 160 236 198 105 103 134 1 75 35 76 44 185 177 250 193 116 182 10 90 44 61 134 27 75 41 98 213 108 144 185 75 53 109 81 131 49 58 78 65 203 93 108 249 142 33 163 186 73 138 66 117 232 168 9 58 228 144 64 72 12 222 62 209 130 91 169 48 220 227 165 227 169 192 130 63 24 56 68 99 56 200 223 92 218 45 184 
23 192 123 7 49 95 217 178 20 74 116 27 174 216 105 172 128 56 67 171 121 243 172 241 74 127 255 4 99 177 227 158 167 161 179 31 6 221 7 233 245 251 52 12 107 231 182 173 203 85 26 2 187 162 200 165 33 127 19 190 65 172 234 92 10 111 248 239 44 192 24 169 136 197 22 141 163 246 30 210 19 252 75 118 83 41 173 216 218 65 255 72 254 169 117 239 144 131 49 217 
54 141 130 164 144 95 1 26 243 49 127 10 79 67 111 211 95 203 11 200 192 99 248 219 54 24 188 0 141 228 22 253 7 206 198 5 180 168 54 254 158 10 29 228 240 60 140 167 110 175 93 241 177 112 85 182 82 37 83 171 19 58 42 84 108 11 97 7 234 51 52 90 123 135 193 170 203 40 49 73 64 179 80 252 254 181 12 96 22 169 56 34 123 227 0 39 15 95 116 75 
136 225 21 167 19 7 9 5 119 195 199 201 20 194 76 137 87 149 9 249 225 221 249 251 25 118 204 34 129 23 255 200 221 4 3 129 74 211 93 189 12 160 9 4 2 227 116 42 63 63 186 86 68 85 198 72 220 189 153 1 193 52 39 177 77 60 176 114 161 177 24 73 86 144 220 241 184 169 94 112 252 2 164 150 184 67 131 148 237 132 127 253 119 242 30 61 132 237 95 66 
82 202 118 17 186 197 146 145 236 107 128 171 50 52 49 81 128 59 50 56 125 102 37 248 9 85 110 97 202 137 158 89 4 184 176 232 93 204 12 79 25 150 109 191 123 157 61 47 166 68 2 223 252 160 65 96 152 190 3 190 27 94 101 54 63 243 153 136 94 164 238 211 64 86 254 120 56 147 146 151 105 59 68 31 189 4 221 161 196 156 88 223 38 99 234 240 118 122 202 46 
178 122 63 160 12 41 241 139 80 29 45 210 192 59 10 202 40 181 158 179 157 250 38 188 91 95 249 47 219 88 108 98 188 139 130 137 236 34 113 207 238 251 214 124 199 169 181 26 221 104 117 118 75 90 108 179 215 141 234 152 196 4 229 180 251 236 59 142 70 217 35 91 150 77 54 3 196 159 12 100 88 197 252 75 63 130 52 0 183 28 146 230 4 79 225 104 46 56 55 210 
85 214 141 10 248 116 170 61 114 232 250 143 57 25 157 75 205 119 37 11 194 64 94 179 36 56 199 165 145 20 186 20 187 195 99 202 33 194 112 87 9 247 187 47 18 82 219 246 110 236 218 216 133 204 36 186 66 49 224 109 6 40 99 176 211 17 36 202 216 200 170 106 200 227 210 137 69 208 214 155 185 183 90 63 35 70 197 143 19 161 102 253 0 182 244 145 244 93 154 214 
113 8 149 57 7 32 158 1 142 28 132 70 71 93 210 133 43 255 221 75 143 30 10 217 19 133 187 1 19 40 39 56 122 123 7 201 105 106 217 202 169 153 30 51 57 104 24 77 149 132 33 180 131 57 191 131 246 234 56 177 100 13 242 238 38 45 159 79 97 212 201 227 39 158 79 106 84 202 34 145 106 162 17 65 32 251 88 195 80 103 166 94 23 231 124 158 94 53 7 12 
236 213 21 84 79 208 18 138 86 37 59 46 184 223 210 81 245 224 165 65 235 112 34 239 190 170 176 97 252 253 202 169 15 142 47 234 213 216 167 25 62 231 192 6 205 89 192 88 97 155 242 120 255 224 82 156 116 160 224 90 146 131 154 94 205 251 216 162 245 118 182 233 59 87 152 43 148 234 79 0 174 53 209 145 26 12 254 121 226 166 181 172 151 165 44 36 122 120 174 72 
68 190 105 126 121 187 38 24 74 189 67 135 133 49 82 9 50 250 222 52 4 170 106 35 164 62 101 198 252 253 0 3 25 48 13 114 224 159 206 191 112 192 235 199 246 3 136 95 3 192 147 134 191 182 222 48 141 234 220 124 58 104 1 123 125 198 251 120 113 69 63 115 23 3 29 46 167 158 103 54 67 221 103 81 69 208 80 207 205 216 155 240 136 21 126 18 210 34 142 175 
146 251 154 19 252 6 201 55 23 103 100 138 60 69 23 156 89 184 251 52 59 161 4 142 45 250 110 137 239 6 18 80 102 204 156 235 176 150 30 93 168 21 250 101 218 173 158 26 213 203 255 218 240 28 199 110 202 248 151 238 95 0 209 87 75 245 59 230 60 150 93 125 253 28 166 163 106 198 241 175 211 235 248 203 80 163 223 114 139 204 62 66 240 178 57 147 55 182 231 207 
41 6 126 78 103 194 12 91 226 163 43 37 85 40 36 64 9 18 32 52 208 223 234 58 27 172 73 166 157 19 211 122 206 200 56 32 196 88 158 154 226 249 181 223 104 195 156 83 54 3 188 234 236 85 3 42 40 142 95 5 160 248 183 114 196 3 50 35 128 195 122 9 152 102 106 52 244 171 173 70 236 222 169 226 133 96 97 255 109 254 73 9 22 15 201 157 205 71 115 113 
247 164 9 181 186 187 76 121 81 178 54 172 142 205 115 198 116 3 196 192 181 203 247 25 122 175 193 206 65 117 216 45 1 61 20 159 132 193 75 135 87 179 154 33 72 46 83 160 205 84 53 125 223 193 170 72 160 187 168 152 84 177 238 160 40 36 41 181 255 246 235 97 23 21 219 93 249 152 61 58 143 108 10 86 154 126 138 99 130 120 60 35 75 248 161 244 172 72 134 134 
133 161 41 81 135 118 241 23 180 189 205 156 189 37 184 159 164 113 255 140 153 173 235 80 198 77 215 202 131 22 82 247 46 116 186 48 216 221 89 120 35 224 232 141 165 129 73 41 1 206 22 53 171 29 187 118 241 184 3 154 88 235 4 107 111 221 206 79 7 90 42 229 39 5 138 192 33 168 170 153 70 179 107 106 45 110 161 104 104 122 28 173 20 156 164 92 115 177 87 224 
127 79 101 199 130 185 109 61 158 211 114 64 137 22 250 73 55 74 229 84 5 83 206 32 77 59 252 237 254 138 211 65 142 168 242 7 35 114 42 68 18 10 52 121 51 178 4 91 32 23 48 189 140 143 235 213 47 84 80 213 117 228 119 184 232 107 254 77 115 203 95 32 238 111 193 134 9 192 221 139 44 77 91 90 75 236 88 206 65 235 238 134 146 247 132 179 219 107 77 211 
18 87 190 195 114 40 157 127 66 107 67 166 153 88 132 229 157 134 193 40 249 53 198 192 132 142 166 48 119 149 101 225 142 10 183 109 132 168 52 80 9 218 171 238 92 251 103 63 35 27 10 53 86 211 92 134 115 232 52 237 136 3 70 199 138 240 121 45 128 218 56 49 125 247 21 149 251 84 40 172 21 14 38 254 149 8 172 210 104 66 79 255 74 154 239 105 139 28 202 230 
253 152 64 45 141 47 207 133 7 203 84 208 96 80 101 210 77 22 175 16 114 132 148 254 98 174 75 177 174 106 100 193 200 70 252 113 131 151 202 128 96 3 210 88 69 59 73 61 64 235 54 130 144 6 204 105 172 160 61 59 45 52 38 54 168 161 214 231 246 191 51 246 245 193 86 130 195 213 183 31 87 154 144 175 231 146 245 138 180 120 3 40 167 95 163 16 188 233 237 165 
180 249 87 227 44 158 76 74 98 184 161 173 63 159 185 98 235 55 157 55 215 7 193 111 254 200 80 167 71 208 116 115 241 10 204 108 244 249 114 85 120 47 208 99 6 136 72 246 94 130 167 112 226 110 198 213 47 56 251 51 222 17 100 16 58 40 189 70 85 19 221 40 102 130 171 5 246 120 58 193 165 199 152 71 67 56 32 197 17 202 56 140 235 1 104 180 26 124 128 84 
99 207 177 163 212 139 180 244 185 105 162 227 103 213 247 67 8 183 230 130 123 7 233 192 99 176 141 34 162 97 177 49 110 96 161 231 216 162 111 175 111 202 208 144 27 130 107 30 225 241 3 5 44 72 120 247 2 209 162 229 167 216 31 185 119 207 10 149 10 60 127 83 161 203 165 131 46 91 93 140 70 54 194 251 113 179 123 117 70 210 129 145 146 32 218 54 76 85 193 111 
75 226 135 8 224 70 150 216 92 234 228 82 192 108 91 2 55 14 249 182 79 243 14 172 49 73 186 204 73 98 107 185 169 148 171 73 114 140 8 126 75 74 114 180 44 157 103 28 69 6 63 196 74 48 53 242 60 214 43 235 177 100 14 210 85 121 81 108 234 2 129 231 180 4 16 198 40 186 95 217 8 187 222 165 246 220 152 130 136 23 66 228 250 82 229 219 144 34 157 214 
204 213 200 221 33 158 150 75 173 74 192 37 15 198 100 226 241 190 83 196 118 12 21 237 197 204 156 237 38 149 48 253 29 16 143 126 109 33 75 238 136 103 135 72 19 209 174 62 114 47 164 128 113 74 65 39 213 3 24 217 233 207 204 172 112 33 9 212 178 164 26 20 132 100 100 3 241 11 205 236 204 255 166 22 250 14 17 179 42 216 178 196 71 126 252 44 187 161 184 186 
247 207 7 9 52 234 160 107 251 47 34 40 174 36 107 225 66 180 27 1 181 113 169 90 63 193 174 80 140 234 148 213 255 9 55 194 62 101 173 23 76 110 210 179 143 225 93 165 187 37 246 214 180 224 198 56 206 100 105 59 173 51 59 185 83 125 175 122 199 74 78 44 124 198 3 214 74 245 135 183 28 64 9 239 8 94 174 238 11 64 215 222 175 232 91 192 39 209 46 70 
66 139 222 137 76 64 125 97 38 108 176 19 232 162 191 42 37 42 224 121 163 156 34 191 1 2 52 100 10 254 60 114 140 237 79 83 1 34 57 125 43 98 138 26 44 27 47 176 140 216 242 128 168 7 152 207 72 35 173 181 117 127 62 60 187 71 105 210 172 177 245 52 19 173 78 7 200 114 52 119 166 104 183 200 245 232 100 32 66 147 51 71 44 177 56 160 38 7 85 65 
117 245 61 244 184 156 186 118 100 228 255 71 58 136 169 159 165 29 185 11 10 62 89 131 234 188 154 80 103 96 52 213 158 211 33 169 161 101 149 180 10 202 94 97 132 69 229 110 122 33 222 217 92 166 56 198 155 247 183 196 110 41 98 153 58 222 211 202 89 173 24 31 76 234 136 130 147 227 193 136 228 166 173 188 127 59 76 117 118 11 217 223 235 230 114 209 255 180 205 195 
117 158 57 156 101 115 232 101 203 201 143 113 54 19 252 205 102 210 195 80 121 222 176 175 117 0 155 209 129 90 81 135 28 106 105 5 219 128 28 169 27 160 106 206 252 90 54 253 126 28 235 219 114 36 81 175 151 4 226 159 100 44 60 116 228 180 35 118 225 115 81 141 105 55 97 173 247 107 65 249 235 35 210 187 166 138 197 54 211 205 119 5 120 238 224 75 45 31 161 28 
100 237 242 131 199 111 73 4 74 122 252 60 105 227 222 246 221 171 59 218 215 165 200 104 211 99 62 145 225 240 250 206 11 191 168 127 71 43 33 161 202 217 227 120 66 91 170 207 147 191 39 167 9 223 46 162 196 18 210 45 148 202 40 96 24 82 114 138 21 161 217 49 189 175 90 39 209 47 150 60 211 119 17 220 203 50 88 102 72 232 240 200 246 77 230 251 74 101 167 33 
5 66 21 71 21 201 155 235 88 175 155 122 142 148 25 182 49 242 43 62 55 90 159 101 238 214 101 9 119 164 9 169 209 149 68 83 186 211 20 40 6 153 185 21 74 60 63 103 238 222 49 137 134 149 95 156 38 128 35 218 71 131 10 127 212 155 142 57 175 240 36 196 224 168 155 179 87 105 234 193 117 131 41 96 72 107 248 32 132 130 161 70 83 166 55 148 153 65 212 37 
54 81 147 32 139 155 128 245 2 12 22 141 114 72 195 7 166 160 0 43 128 6 171 35 213 191 141 40 242 92 123 19 51 187 201 131 47 152 189 44 206 107 95 154 113 145 227 124 173 147 26 33 175 240 214 67 155 79 250 158 1 95 26 154 200 87 11 91 204 62 86 205 228 251 105 138 173 171 7 72 32 245 60 246 179 115 36 119 65 239 186 130 72 50 25 134 73 44 155 232 
21 10 172 183 96 43 93 114 45 28 222 81 77 58 92 226 78 94 4 4 224 105 167 132 51 10 56 237 219 37 234 127 98 2 53 129 237 183 17 116 199 92 200 217 113 30 152 211 114 57 255 125 184 79 239 40 62 52 115 218 145 121 206 185 78 242 57 49 8 209 218 115 202 188 152 118 11 174 255 93 73 69 115 51 246 85 219 255 199 223 241 238 149 161 168 50 122 41 138 77 
69 6 175 90 177 166 171 212 92 15 8 151 53 113 214 125 44 243 216 4 18 105 215 87 185 254 146 55 201 229 160 58 117 244 111 217 102 83 144 54 106 92 206 199 163 216 122 82 88 105 198 205 68 111 174 52 247 118 192 210 27 4 198 202 116 100 98 117 135 88 21 206 64 240 140 76 104 133 24 189 157 145 137 143 84 183 72 158 11 222 75 142 50 111 57 194 183 165 112 29 
31 147 241 212 125 46 88 16 82 232 36 192 252 219 194 17 226 135 158 244 245 244 225 117 248 215 15 189 130 223 169 80 30 109 253 169 229 141 187 143 7 115 57 64 83 161 73 196 191 191 33 85 117 4 148 47 216 184 198 230 43 207 17 7 26 54 48 240 182 88 164 41 185 114 169 151 92 161 154 161 219 27 24 120 17 180 184 247 211 48 114 149 64 74 193 173 253 250 104 94 
83 84 122 252 154 93 172 46 176 225 196 140 158 42 26 73 107 232 220 48 193 77 135 216 13 95 86 156 228 234 250 192 5 221 154 155 80 116 243 241 142 217 129 176 56 81 210 93 213 109 244 44 3 66 172 230 23 189 73 56 249 96 147 122 59 22 18 129 162 44 236 209 157 125 152 118 8 160 6 198 81 93 214 34 164 226 107 218 203 253 11 196 88 250 164 175 112 115 101 231 
64 193 47 121 152 240 234 211 128 130 34 104 194 245 108 108 226 211 238 120 215 189 94 3 145 219 27 151 220 105 78 239 255 133 195 111 212 81 9 179 108 87 209 105 2 149 236 48 164 194 141 111 245 192 223 208 240 240 241 234 10 4 154 66 90 229 20 219 131 205 142 97 198 175 230 210 94 122 22 89 207 45 21 249 222 238 241 115 50 86 53 30 162 244 235 150 12 16 48 47 
35 110 34 125 239 114 109 75 31 239 12 115 6 167 83 150 199 12 7 165 1 245 247 244 35 37 31 44 227 223 245 87 200 248 179 206 103 223 194 166 102 43 6 249 105 154 47 12 249 241 38 3 120 16 148 172 248 113 156 196 207 203 19 60 206 39 188 208 66 3 198 126 147 57 181 69 66 108 62 178 63 120 175 21 43 42 139 117 160 137 234 127 108 6 182 223 243 180 65 1 
227 217 94 188 104 125 187 138 80 49 62 182 209 181 164 223 211 196 232 211 194 162 209 78 110 111 200 252 30 166 228 223 72 151 198 175 175 214 240 63 208 1 189 43 176 172 139 22 45 52 60 193 0 148 9 46 149 225 98 11 25 161 65 217 107 167 187 143 240 255 66 57 9 50 248 109 147 35 144 167 131 136 206 233 137 149 77 63 98 182 23 220 207 74 33 222 1 198 103 70 
200 3 154 180 137 217 137 193 40 36 78 43 210 169 56 147 39 12 164 157 50 85 109 162 72 161 97 172 85 121 252 177 234 83 114 233 212 109 72 37 252 48 0 143 164 193 119 35 71 213 177 20 42 151 156 29 106 107 103 71 54 126 105 172 183 47 136 216 151 119 94 145 131 107 243 141 76 44 235 245 192 13 164 176 176 95 11 41 203 170 173 201 97 65 30 5 227 245 3 207 
201 124 173 198 17 13 190 94 120 153 22 7 245 205 249 186 250 162 10 72 86 28 68 219 169 71 240 151 156 152 33 157 107 138 65 92 99 144 109 122 175 79 191 106 11 92 111 243 162 35 120 93 231 35 228 73 129 151 80 192 237 57 12 111 71 139 144 22 3 240 53 83 81 222 14 131 66 95 4 243 192 254 33 135 24 33 14 53 252 134 47 79 14 56 214 104 247 74 255 66 
53 201 251 92 183 172 190 20 135 78 138 194 17 245 81 206 129 46 126 196 37 235 134 134 178 12 148 133 132 234 122 6 70 184 133 10 82 165 216 38 133 133 186 211 250 127 220 204 203 54 173 194 166 31 156 68 81 229 124 88 252 44 0 237 59 38 152 54 6 205 47 69 64 166 105 123 85 249 65 210 70 45 196 90 172 206 39 44 191 219 193 69 3 202 182 121 174 104 162 96 
64 250 138 108 247 250 161 194 188 61 92 130 177 219 110 57 162 132 145 214 135 67 50 22 51 75 111 127 37 165 40 26 37 101 241 245 164 21 179 53 238 167 168 80 64 248 251 194 34 139 115 95 29 102 128 120 38 210 123 22 215 159 27 189 79 49 73 239 88 198 220 102 16 254 189 33 155 20 244 135 146 105 140 233 198 90 222 251 129 90 8 2 250 171 110 85 206 243 32 199 
144 182 91 145 43 244 241 173 69 206 240 60 143 190 81 6 83 79 186 62 17 181 233 119 156 181 192 252 6 13 149 9 110 174 50 96 238 99 146 133 157 184 138 103 163 174 14 124 82 255 15 227 79 168 222 156 183 144 154 216 161 38 16 80 153 169 15 196 80 51 210 138 191 193 225 216 255 179 193 191 145 204 133 218 71 6 56 149 227 234 14 151 20 250 147 237 50 51 70 170 
73 224 248 23 20 166 68 207 240 254 125 128 46 56 147 84 144 198 216 60 223 65 228 40 22 177 186 144 45 143 183 246 192 130 251 252 18 47 57 243 37 22 237 50 128 160 89 89 233 24 107 167 54 42 218 19 224 223 38 37 192 225 195 131 233 178 137 110 119 71 34 207 229 168 240 165 145 209 144 172 190 135 235 227 78 253 45 112 96 191 51 32 187 111 87 209 247 176 122 3 
1 37 13 40 129 39 112 192 224 84 56 27 171 43 187 252 178 234 209 27 209 124 248 109 247 226 234 51 25 248 157 58 80 230 242 160 76 57 87 192 5 179 121 131 125 137 186 213 31 65 49 89 61 68 78 16 107 147 192 149 4 12 129 241 220 79 74 13 203 81 18 243 129 16 242 195 66 201 121 29 141 140 99 159 50 30 159 65 86 15 11 177 6 66 49 69 252 165 128 19 
126 216 194 109 73 146 13 84 152 14 40 89 243 131 83 185 49 245 176 133 175 41 186 137 136 87 52 227 103 214 68 140 28 106 105 223 253 10 183 142 161 190 5 67 80 68 115 113 176 181 167 126 211 129 40 95 159 224 143 239 248 207 225 124 115 149 120 134 171 173 64 212 126 232 54 34 67 212 224 34 104 222 50 88 118 176 134 133 66 68 173 47 17 246 198 138 190 253 23 59 
95 52 43 83 234 28 243 13 31 158 140 214 131 154 8 74 212 57 212 14 254 97 23 180 160 7 131 159 131 124 105 215 49 90 201 177 241 224 141 238 43 229 220 69 55 81 134 166 234 134 183 25 174 239 112 89 25 0 91 242 33 125 73 90 181 13 53 5 49 22 11 118 47 170 230 87 26 212 208 209 22 142 51 105 211 4 73 249 143 229 132 165 136 40 108 250 79 194 68 192 
11 31 228 181 91 77 175 140 69 89 196 143 140 234 100 188 241 85 11 141 29 230 138 195 95 196 217 45 240 112 168 187 26 161 154 203 130 15 111 196 174 61 145 72 86 173 57 226 52 42 211 39 187 121 64 211 93 188 18 207 238 3 24 116 251 243 3 111 105 253 92 198 133 80 177 53 254 21 153 50 133 185 180 157 175 46 169 46 255 133 5 12 92 190 11 220 49 143 5 57 
53 14 139 231 61 128 103 200 229 253 132 78 15 214 215 9 214 60 67 164 223 217 81 196 230 245 128 1 118 221 100 36 216 83 243 174 25 182 62 141 71 99 74 207 49 232 230 24 4 11 82 86 254 134 21 37 125 206 20 99 247 103 41 5 75 8 6 178 78 2 12 84 241 144 29 58 175 35 208 183 211 187 229 254 102 190 204 231 174 37 194 197 125 120 55 38 147 158 33 223 
89 174 23 115 5 148 114 40 157 123 212 109 235 222 12 158 72 219 228 105 101 138 173 187 9 160 100 221 5 78 51 141 133 26 10 77 181 24 40 68 243 142 102 229 135 161 86 20 118 181 173 85 68 200 236 0 157 105 132 138 239 174 218 2 212 223 193 125 34 50 122 241 84 242 5 79 241 41 241 89 62 53 64 1 132 160 134 149 48 226 118 244 55 18 25 221 167 222 123 128 
47 2 159 148 85 167 82 185 156 11 162 116 22 216 97 0 116 235 87 12 253 143 147 221 230 163 176 100 10 68 178 218 115 73 99 142 241 252 41 27 125 110 17 124 75 23 188 247 243 136 46 16 14 117 245 45 182 224 76 74 87 152 135 73 186 103 111 82 6 41 144 84 110 179 4 12 110 47 25 76 201 92 26 125 108 230 185 166 164 10 111 51 214 85 189 252 115 146 69 207 
175 198 121 211 232 118 71 54 208 252 222 104 11 161 13 80 54 209 137 172 244 137 245 8 241 48 253 148 78 22 68 183 213 64 230 190 35 228 162 102 65 7 69 171 58 85 81 100 40 32 102 162 129 193 48 189 73 115 36 93 76 235 97 123 198 233 24 100 2 56 29 237 78 12 53 224 124 165 193 14 42 120 0 36 205 162 229 185 96 183 101 232 150 236 231 7 89 186 218 85 
191 122 125 239 32 236 186 249 11 138 182 156 59 12 248 166 141 165 14 13 121 57 155 49 125 58 227 203 226 84 124 181 53 242 67 174 28 137 254 64 154 138 7 119 197 246 251 61 40 216 100 160 99 5 229 235 212 26 115 214 68 245 128 96 203 216 28 59 138 6 103 203 75 244 164 33 18 12 203 45 105 181 200 150 232 60 113 18 148 0 235 76 193 26 77 244 83 38 52 162 
198 236 13 79 65 210 103 23 94 216 44 156 154 34 192 167 119 201 99 254 218 201 5 172 66 113 82 17 113 168 67 8 21 44 95 49 130 231 97 20 238 224 28 151 0 124 245 106 240 52 151 120 231 5 39 1 141 216 92 132 103 61 141 108 67 136 152 226 25 206 179 101 105 225 161 135 94 250 13 84 2 82 19 139 0 96 110 209 139 241 88 46 210 207 219 91 52 190 144 57 
165 7 49 235 130 104 138 0 186 197 228 7 135 86 172 115 200 89 245 172 85 189 236 160 92 236 115 1 181 219 100 233 192 14 101 60 46 245 26 213 154 207 118 85 216 160 0 154 200 189 81 59 209 190 8 59 101 248 35 142 201 172 89 199 82 19 82 187 183 11 35 62 21 92 153 200 166 102 108 153 109 156 99 249 211 98 211 106 220 116 111 103 177 15 23 242 138 132 89 118 
80 24 185 160 153 204 204 7 159 178 217 187 152 142 118 187 185 59 114 181 24 156 40 108 129 5 235 181 63 178 212 159 169 39 219 40 176 218 143 15 47 213 245 125 116 171 123 96 234 182 34 172 68 131 73 246 226 42 151 185 192 18 231 215 140 166 252 73 157 108 191 66 124 54 206 109 90 172 51 62 212 213 27 246 66 164 6 220 252 7 79 223 72 186 94 105 248 164 136 49 
90 244 21 193 81 116 22 214 189 158 161 77 10 32 215 194 190 50 178 129 223 67 190 92 231 107 189 229 40 126 179 183 69 146 15 96 113 187 208 216 203 233 215 201 113 76 76 104 232 38 129 202 142 99 45 197 248 78 87 134 146 132 133 22 252 17 22 149 95 158 222 226 1 99 40 132 5 110 2 32 16 25 232 120 106 9 132 207 248 246 170 18 249 185 223 165 214 60 155 183 
246 10 15 61 239 91 9 14 154 180 223 212 185 239 52 23 218 245 128 170 110 39 20 9 73 46 109 202 56 198 47 59 105 55 198 123 101 234 29 210 56 131 25 15 5 3 125 203 18 139 132 220 88 251 155 75 237 154 93 211 188 127 141 197 67 194 172 71 61 87 144 194 54 0 50 183 2 157 35 124 238 181 63 208 121 183 114 7 136 45 214 229 47 11 7 158 50 6 98 25 
67 176 119 4 100 181 133 149 26 110 204 97 24 37 105 206 40 88 136 207 153 5 107 194 139 214 201 196 168 132 175 120 80 33 235 52 55 69 110 107 209 227 33 92 197 86 153 118 112 50 52 140 13 208 173 133 102 224 116 41 1 248 55 115 255 196 7 165 201 13 177 98 180 214 165 183 93 60 96 75 16 163 231 151 221 124 28 175 231 129 154 104 199 20 242 79 117 255 62 83 
219 221 133 249 106 212 99 250 95 236 109 188 62 148 155 67 170 216 174 98 5 207 19 58 41 8 14 161 5 120 181 3 25 16 99 88 154 197 121 26 55 235 102 45 228 224 171 117 156 138 24 35 191 188 156 26 200 209 177 182 193 101 196 31 215 190 123 71 124 112 149 240 197 179 160 248 27 236 249 191 117 231 13 127 214 52 10 5 251 76 84 205 221 173 231 113 254 60 132 154 
199 206 151 50 35 107 178 95 47 125 115 34 30 160 44 41 27 220 174 210 156 12 46 99 182 207 88 98 123 165 113 81 75 235 224 116 184 231 70 122 219 177 52 65 40 218 34 207 58 118 1 106 185 221 23 42 121 231 157 209 172 72 183 81 108 223 61 24 188 132 19 200 25 181 151 12 188 23 73 198 70 100 117 19 238 108 144 249 34 225 41 62 61 183 85 149 201 169 199 217 
0 47 66 140 223 9 173 85 140 59 43 41 245 30 77 175 44 93 192 150 91 47 65 103 106 217 183 220 219 40 105 8 129 227 235 198 241 41 230 157 191 217 101 86 201 150 206 92 215 12 234 47 153 189 173 101 124 103 221 21 250 255 201 76 63 99 195 92 30 179 196 188 11 126 122 197 166 140 128 170 130 0 34 41 47 96 224 8 158 123 83 42 73 194 106 72 47 247 212 104 
170 33 133 116 3 128 234 214 104 125 114 220 91 232 80 175 47 240 107 28 44 67 19 18 185 240 198 13 208 103 209 238 68 212 11 12 43 185 172 163 42 34 237 90 6 191 156 162 172 175 110 96 183 136 227 233 72 7 221 106 119 106 31 137 45 231 45 91 122 62 132 216 7 169 197 53 172 60 58 54 76 73 16 94 183 16 94 174 148 159 244 245 88 226 61 66 182 137 54 68 
12 74 225 55 202 90 248 232 132 174 54 164 43 151 70 95 136 34 1 145 160 29 78 90 61 22 130 63 49 233 5 131 53 75 202 112 26 55 228 60 81 109 152 32 75 253 5 170 52 122 195 193 222 176 111 63 202 69 77 206 157 227 220 231 7 170 204 206 118 82 254 76 77 34 49 24 236 53 16 186 180 234 29 125 70 53 121 135 117 191 110 74 67 2 228 250 167 183 248 134 
101 216 52 184 170 255 235 52 65 137 1 219 208 189 63 203 38 225 250 247 192 244 88 254 206 223 117 3 232 201 109 221 208 141 144 32 197 157 41 164 0 142 164 72 99 78 5 186 4 36 158 41 227 167 219 65 80 234 172 238 135 237 127 29 173 39 35 254 183 64 40 107 242 129 139 153 193 191 24 213 179 158 145 50 202 172 97 154 220 1 134 124 233 170 48 88 248 18 17 114 
248 236 187 76 79 97 184 34 112 241 97 222 120 27 233 36 103 31 109 41 205 167 97 33 26 163 214 155 34 169 84 217 189 26 4 243 193 221 200 18 126 247 237 4 17 9 46 106 218 192 193 206 106 86 94 192 95 46 255 217 22 8 77 135 8 148 241 208 205 116 194 240 233 148 66 95 129 109 110 34 161 152 120 4 14 213 54 119 117 218 203 14 95 237 184 226 145 106 189 91 
59 169 182 89 5 218 153 30 49 21 174 70 97 63 0 50 21 161 99 23 32 228 229 76 204 209 74 35 73 60 107 6 129 98 166 132 60 126 162 168 53 22 103 60 251 37 129 90 199 56 87 81 155 22 85 150 61 240 124 162 214 87 119 206 136 137 121 168 159 201 52 206 134 180 65 141 143 182 62 93 220 190 51 202 193 49 65 229 73 55 34 223 53 52 23 82 116 132 223 188 
106 72 245 19 242 178 169 186 117 147 200 238 150 49 114 37 208 66 193 128 28 135 222 119 174 57 147 30 143 128 117 116 29 177 106 21 225 18 123 71 94 25 95 237 179 98 39 16 123 37 217 234 99 6 16 151 250 65 244 109 65 43 195 168 47 49 18 64 143 38 249 161 158 6 189 210 31 118 152 219 231 171 1 58 167 80 53 62 218 135 104 176 33 109 122 252 155 138 33 139 
201 68 233 86 186 4 198 55 190 142 86 219 216 60 81 223 59 62 212 34 59 3 235 44 177 21 47 33 163 166 88 14 224 204 119 226 138 108 249 151 159 119 162 238 251 43 210 33 20 67 56 11 222 88 174 119 62 99 76 154 123 128 196 123 29 32 117 103 231 105 143 218 216 143 230 83 27 190 100 139 153 129 59 5 66 236 93 16 205 176 222 248 176 102 253 131 14 183 45 10 
135 161 13 113 181 178 139 230 221 140 250 105 217 125 35 103 76 249 86 206 59 101 193 167 44 171 98 45 65 134 142 1 101 137 163 51 139 27 47 86 30 9 10 242 178 63 68 196 130 192 60 113 48 64 248 255 128 31 9 135 94 111 33 211 4 101 200 250 114 240 166 68 220 85 111 224 123 218 95 82 217 95 207 6 118 120 74 58 234 26 119 199 222 26 227 179 169 86 17 129 
54 16 55 175 40 200 191 48 115 67 161 59 178 175 119 109 196 115 180 193 110 146 51 135 47 211 41 182 149 22 208 142 219 109 184 76 144 237 52 102 234 137 69 30 61 76 119 143 109 72 55 8 24 65 234 32 228 82 29 89 81 207 84 183 209 139 104 23 38 215 51 91 52 76 168 150 45 92 115 170 101 147 4 242 74 103 137 92 4 163 223 84 227 151 46 41 81 198 182 38 
184 212 62 164 103 242 94 52 38 5 159 171 21 174 175 35 153 245 2 2 14 179 133 1 166 25 208 174 155 107 21 5 182 26 78 62 218 27 216 46 144 116 161 11 30 249 93 96 46 196 143 183 84 123 57 99 251 73 225 28 169 248 254 15 178 140 252 3 194 210 154 198 167 162 185 58 214 131 83 238 190 67 170 113 181 197 8 212 195 191 158 0 43 248 115 23 149 237 250 172 
140 119 30 38 171 3 82 165 154 135 86 20 185 81 37 23 115 15 251 56 211 31 8 20 89 66 19 178 221 56 253 85 184 119 244 122 12 243 215 50 129 58 23 82 42 166 83 173 89 181 27 74 190 136 83 210 64 122 36 126 14 67 94 20 144 254 51 66 165 136 101 16 248 145 1 185 59 94 32 122 87 199 167 230 27 98 20 202 120 171 27 28 196 101 171 243 196 162 40 171 
112 39 129 146 68 80 181 212 218 55 156 165 10 243 184 62 219 5 188 219 149 17 0 4 232 200 146 91 108 3 37 40 17 78 212 198 24 226 247 88 178 115 229 213 62 19 162 154 12 72 38 109 139 176 239 23 112 10 149 48 49 140 85 174 150 48 208 184 136 241 144 140 59 246 177 102 251 138 142 66 190 117 170 44 158 117 141 119 11 103 108 120 123 131 57 45 68 76 98 71 
61 182 67 6 6 124 145 9 171 70 48 170 54 53 26 246 157 220 26 33 48 219 43 200 220 8 182 126 81 79 140 194 78 167 192 191 67 15 152 59 185 26 80 62 191 22 148 38 62 103 147 8 66 195 225 195 219 113 170 102 183 194 109 226 87 189 9 225 1 160 78 216 16 178 56 199 96 238 79 38 78 141 57 245 52 212 173 139 9 116 202 222 188 137 207 124 108 165 59 157 
166 128 170 212 126 240 243 222 91 144 4 10 193 193 209 5 199 227 25 143 63 215 49 13 239 186 73 207 83 216 217 177 76 25 187 139 166 123 195 16 232 144 82 215 54 248 189 218 184 41 51 222 220 246 176 114 40 92 252 178 61 194 202 36 211 172 204 85 27 194 92 70 57 25 2 54 93 53 105 105 94 19 252 154 227 184 163 39 98 10 85 78 227 77 58 27 164 173 140 185 
237 176 184 155 200 149 29 164 1 131 192 246 68 176 115 215 143 116 180 33 200 76 9 119 65 68 159 223 197 103 20 22 84 74 128 24 139 99 37 247 224 51 99 158 10 255 46 84 12 127 215 181 65 63 231 250 243 120 60 118 179 163 253 113 111 140 69 155 145 124 27 121 231 29 59 74 247 150 9 8 41 235 207 210 146 155 113 237 236 50 135 69 207 237 208 219 21 216 145 76 
252 195 233 4 1 200 183 101 173 96 162 214 126 52 104 157 110 179 57 246 136 168 47 6 246 185 168 231 17 226 233 131 134 104 72 2 159 91 238 109 127 247 230 36 120 120 195 113 153 133 116 86 149 37 202 190 67 213 196 71 138 27 153 62 209 205 171 224 44 109 64 99 5 175 185 175 142 101 114 245 10 219 175 107 220 96 234 91 183 95 85 86 111 63 87 15 34 173 7 199 
61 208 59 211 77 34 81 237 181 227 176 85 93 47 116 111 231 206 110 58 84 121 27 6 90 184 154 75 116 224 58 17 194 81 96 226 79 196 177 201 121 251 6 94 133 68 145 53 105 69 162 202 111 3 135 199 83 102 49 86 217 152 142 25 239 49 33 222 156 22 164 218 233 215 12 251 224 216 127 52 169 160 177 18 111 106 119 111 182 116 22 229 206 171 37 62 157 194 23 13 
33 227 54 175 232 171 84 124 67 5 133 43 230 161 46 104 212 142 169 198 160 99 64 159 45 6 156 202 63 8 53 156 89 132 183 115 66 74 63 166 135 131 13 228 35 201 132 249 147 117 62 12 141 234 218 97 245 210 122 235 233 90 116 81 62 234 159 131 7 165 217 248 91 68 41 100 72 93 116 149 147 95 8 255 178 187 26 187 149 192 53 73 1 124 98 122 195 166 31 194 
101 205 2 236 90 188 193 36 102 119 230 53 54 220 188 52 126 148 14 243 139 186 50 56 133 135 206 28 99 237 143 102 83 79 212 41 31 96 229 67 78 158 88 160 39 168 152 131 165 240 135 115 238 248 125 187 73 9 250 12 241 184 98 237 11 212 239 237 219 42 233 122 114 104 44 243 130 58 29 184 67 17 4 169 33 216 38 48 13 197 114 146 239 64 230 217 199 2 186 76 
46 164 154 63 221 59 227 164 187 31 239 53 243 34 207 8 129 200 5 97 214 240 225 255 90 121 233 122 77 5 65 55 174 158 23 19 128 146 225 146 235 173 60 106 53 204 116 109 37 227 255 113 103 253 247 234 56 53 53 235 110 25 17 55 7 177 199 118 83 203 229 188 14 24 156 19 21 56 177 37 222 71 123 238 220 108 239 115 144 16 127 116 22 176 20 40 151 166 126 236 
181 24 208 39 43 224 165 10 70 73 226 242 116 3 11 7 214 181 179 22 105 221 191 147 67 113 233 194 67 222 25 144 139 88 9 132 65 122 223 62 203 89 220 74 211 146 244 117 141 222 114 62 252 59 111 200 201 88 107 15 45 84 176 184 68 176 223 110 72 29 235 172 225 249 153 249 195 93 64 246 168 246 249 123 128 51 197 137 120 39 57 29 233 181 191 141 135 115 164 16 
154 57 145 2 223 168 179 130 132 154 69 99 67 221 56 161 7 79 76 216 102 247 66 43 107 207 141 167 231 122 163 219 120 107 255 107 235 90 169 172 208 13 133 250 73 65 237 132 166 84 201 209 99 185 67 38 212 150 164 165 161 123 5 181 62 121 51 51 100 224 93 144 143 91 120 124 71 63 243 114 185 77 251 248 213 42 182 255 182 47 230 67 226 73 9 35 43 1 191 152 
67 14 185 57 98 128 212 124 74 237 59 96 204 225 164 193 55 127 22 254 105 171 47 17 25 167 64 170 150 141 217 41 250 102 19 61 21 51 201 103 123 176 20 163 163 107 99 127 248 250 78 129 50 154 47 67 175 118 173 239 187 6 242 47 213 185 14 4 120 120 78 136 146 160 195 216 195 21 168 82 38 90 26 131 210 129 137 134 80 233 114 243 108 109 191 7 58 210 183 124 
221 55 10 18 167 93 74 0 115 103 36 7 20 48 210 4 249 79 115 246 7 93 90 106 196 223 205 61 223 185 192 240 124 135 13 162 102 251 47 39 209 242 58 168 176 26 239 166 180 205 31 2 27 83 245 119 254 77 207 128 95 96 251 240 47 214 142 234 168 120 104 30 110 227 244 127 200 148 155 92 45 20 54 50 243 31 168 126 96 89 139 255 125 196 9 205 89 64 11 4 
40 227 49 137 45 82 171 174 10 188 17 122 50 59 202 108 143 19 90 139 25 65 105 157 223 77 105 20 201 80 153 40 187 255 238 235 189 48 101 12 230 33 62 30 4 12 192 147 135 112 133 39 80 40 128 94 78 56 117 187 32 31 158 138 231 174 219 136 225 163 32 107 232 144 33 135 209 191 253 153 181 225 125 84 175 187 237 162 189 38 87 247 216 183 211 81 128 46 4 55 
240 120 7 229 166 135 74 90 116 115 60 31 127 116 11 202 62 70 178 147 198 130 237 146 129 33 183 124 81 48 41 88 208 138 11 124 171 98 141 135 34 100 63 120 176 130 228 199 52 23 30 75 166 170 216 24 14 159 170 38 84 60 141 235 153 13 166 61 13 173 116 55 177 126 23 129 19 150 1 56 11 84 128 234 95 210 168 74 249 141 115 139 192 244 114 160 26 190 191 24 
176 213 68 22 68 181 187 210 229 184 107 230 130 105 134 123 147 156 49 132 84 249 79 128 184 83 114 68 17 87 150 183 240 96 35 248 186 148 225 170 74 175 104 18 7 157 45 244 96 231 205 27 236 228 94 117 53 202 71 251 236 57 41 108 149 154 57 44 195 249 221 54 192 33 200 220 137 135 199 237 72 159 0 28 177 204 3 23 170 171 189 47 204 142 85 195 166 34 220 57 
129 122 180 237 14 173 37 212 209 12 183 225 252 241 78 235 47 3 150 250 165 52 176 249 246 224 239 227 243 199 23 35 238 8 18 37 181 103 8 165 84 104 81 163 85 72 38 44 136 221 179 52 58 13 128 49 181 123 1 237 197 167 204 82 20 34 12 26 102 206 155 96 19 19 187 192 45 84 31 223 154 10 136 168 154 173 193 169 16 89 217 219 228 152 238 51 133 176 52 220 
87 36 173 4 229 165 195 1 29 13 86 155 249 171 127 128 122 175 90 30 218 213 165 8 25 54 157 147 123 232 209 161 95 89 94 82 127 202 168 203 196 20 73 95 117 158 227 134 48 32 116 13 130 214 244 16 122 154 31 117 197 147 134 104 43 206 36 198 100 218 32 211 174 52 146 83 243 48 233 110 150 182 162 94 142 171 62 172 223 215 202 74 219 65 173 87 8 139 228 218 
202 212 154 46 55 42 50 206 182 16 92 218 176 221 52 254 234 104 15 167 215 13 9 226 171 57 218 217 240 87 155 160 253 161 74 255 228 38 1 12 25 31 130 18 206 234 118 245 38 14 174 3 46 3 245 23 163 186 150 161 16 34 108 54 231 224 5 51 14 89 205 94 64 94 201 189 197 68 217 195 186 200 250 17 86 176 172 231 22 234 142 0 235 76 196 169 98 72 245 218 
37 223 162 108 44 101 150 219 205 186 182 164 71 15 51 125 208 79 140 194 60 192 140 232 220 43 16 76 61 20 46 92 72 159 47 201 171 44 215 43 138 70 132 111 150 202 112 46 139 96 216 100 30 239 84 2 171 249 155 102 244 143 31 230 172 195 61 139 82 228 29 239 71 46 182 172 79 140 14 213 32 34 85 228 8 200 159 37 4 170 222 23 0 103 131 24 166 152 246 72 
31 11 30 144 70 139 98 117 34 121 244 76 181 46 40 250 157 145 58 153 183 33 35 139 222 20 196 87 174 145 44 84 226 227 129 75 22 2 177 27 59 86 2 99 38 70 112 248 103 99 83 113 97 120 174 17 70 149 58 146 241 207 144 54 86 77 167 144 208 47 46 90 151 135 30 224 36 87 131 148 62 82 88 197 234 166 51 227 107 232 10 115 95 166 125 93 179 219 146 8 
231 40 118 75 113 142 114 62 182 157 242 70 204 182 85 234 154 13 180 41 51 198 121 146 109 10 113 90 78 133 146 64 129 26 241 27 42 35 133 57 174 25 114 24 5 176 49 3 68 42 145 180 154 248 208 50 136 158 149 93 43 202 79 119 113 245 86 8 191 238 237 96 252 19 133 162 121 208 232 95 80 181 93 187 164 236 169 9 157 230 71 44 90 183 21 42 252 107 98 183 
229 32 150 100 12 83 57 123 248 160 194 4 167 121 98 99 67 81 100 196 158 71 54 160 200 26 29 28 116 231 154 206 167 229 153 80 192 116 255 148 118 65 68 184 93 57 74 178 108 28 17 114 67 20 176 232 168 181 70 55 138 35 3 237 119 93 123 12 102 153 161 173 34 22 147 170 120 204 142 66 189 198 135 48 74 194 2 184 169 137 126 127 50 37 65 64 30 246 185 130 
223 64 244 17 34 234 129 74 197 184 216 170 151 162 206 74 60 184 47 203 223 165 64 138 102 44 243 133 219 164 15 152 96 166 126 73 183 168 79 203 111 145 138 56 252 63 33 177 38 145 67 231 92 22 236 102 8 21 219 144 41 47 62 250 229 22 100 241 4 142 169 43 139 27 90 52 71 70 206 100 134 71 213 65 237 178 157 58 144 220 19 99 252 203 124 149 95 174 44 34 
79 192 238 17 110 46 10 218 4 222 215 105 252 45 113 89 47 227 151 179 3 13 215 38 159 45 145 108 7 62 254 104 212 8 69 158 242 26 208 234 126 235 124 51 138 135 197 32 249 14 19 139 194 77 182 101 93 168 85 188 202 46 75 54 125 254 121 203 79 30 144 56 211 84 167 81 213 246 186 157 247 214 26 172 243 242 123 240 224 182 187 218 43 136 236 2 82 137 50 110 
119 213 12 22 217 229 175 173 163 48 226 157 162 48 46 68 162 80 140 188 63 149 162 59 179 9 13 35 31 7 40 230 54 195 221 169 3 243 203 136 217 6 152 2 25 6 5 158 193 91 238 132 177 239 44 34 132 40 205 60 26 137 117 44 248 19 79 32 209 227 137 19 192 178 180 244 62 207 228 149 25 20 21 21 237 2 247 117 247 68 67 236 58 145 242 223 148 99 21 245 
109 71 25 116 110 23 202 201 167 164 97 19 99 63 213 123 172 10 228 100 164 95 202 86 26 177 50 225 239 51 7 207 253 12 37 108 8 167 44 79 209 196 148 15 197 227 14 29 41 60 116 196 144 168 185 46 101 144 155 179 200 253 52 104 94 37 180 121 14 81 250 12 255 250 215 97 193 118 223 233 79 67 76 66 1 106 101 153 121 131 182 111 50 197 126 111 182 143 42 137 
