P2
100 100
255
167 140 138 87 135 131 141 196 58 51 100 153 141 112 117 172 124 178 157 100 12 100 138 145 135 120 114 178 28 158 65 128 139 77 104 81 149 138 90 134 170 80 124 142 88 186 160 83 103 139 67 106 170 54 154 69 142 44 67 150 209 76 117 53 101 97 124 150 58 164 103 196 144 128 151 132 227 102 132 150 115 147 139 59 113 151 111 122 172 165 150 59 76 46 65 91 156 203 96 124 
119 198 205 83 134 210 76 156 125 73 124 183 201 163 178 125 199 71 109 82 145 156 227 170 102 90 121 126 179 41 162 169 107 203 195 161 119 161 160 187 112 128 172 136 129 142 130 104 111 137 91 146 138 166 127 98 74 185 160 43 148 91 176 117 70 113 108 93 201 125 109 87 118 114 59 173 137 151 119 115 177 139 114 128 121 121 114 199 93 65 125 103 171 131 172 141 83 133 121 180 
165 131 127 164 134 155 108 89 122 211 170 132 144 82 119 141 131 77 29 132 204 114 126 93 167 82 164 128 110 134 104 196 194 122 125 160 156 123 152 177 115 60 203 101 139 136 127 172 189 133 188 191 110 152 151 74 132 147 86 99 85 124 82 122 67 152 122 112 176 138 124 160 70 95 127 73 193 137 39 126 157 158 97 162 41 135 120 155 91 38 137 181 117 103 216 108 74 83 119 122 
129 182 72 95 79 122 93 111 201 172 124 96 184 115 174 113 152 120 86 58 93 182 37 84 114 151 114 171 152 136 137 87 46 101 227 107 52 137 180 176 148 198 114 94 88 58 176 160 188 161 98 108 148 115 166 127 232 97 100 127 119 143 104 139 124 108 202 69 129 190 150 114 83 106 106 113 140 165 201 137 131 178 36 140 160 124 113 85 107 235 130 115 65 199 103 102 146 121 102 93 
129 40 143 120 125 104 96 118 103 97 135 116 141 155 232 98 119 118 186 96 93 90 159 82 122 186 205 139 122 65 131 164 138 137 87 76 172 149 202 161 134 162 94 100 121 93 78 101 139 108 71 131 88 89 102 91 129 85 64 132 124 134 71 176 86 102 106 120 130 154 179 131 50 59 182 113 200 121 101 186 85 78 109 150 133 145 175 106 51 156 99 125 111 144 48 233 86 77 32 137 
84 51 129 158 128 130 143 50 86 119 128 89 121 51 139 162 138 117 102 148 191 144 89 105 142 140 123 179 148 232 87 67 110 172 167 97 161 95 109 81 172 149 165 119 85 141 117 155 111 100 63 116 79 135 143 158 91 75 134 112 82 97 106 83 46 92 82 90 192 163 135 103 85 176 127 162 144 127 129 51 155 190 109 60 98 118 82 150 136 139 111 70 115 115 155 132 101 158 153 173 
84 73 186 186 234 114 122 130 98 193 93 210 132 81 83 55 146 127 131 39 75 74 68 105 215 139 131 110 184 110 127 122 63 121 190 51 146 116 52 150 85 149 131 127 187 126 139 153 145 109 92 144 162 174 148 131 171 115 117 126 202 79 59 160 115 147 161 99 151 148 170 206 117 123 106 188 129 178 96 174 210 106 138 127 115 32 111 124 90 165 57 147 158 54 141 190 159 84 211 123 
149 124 87 112 154 142 126 163 99 65 85 73 132 186 156 129 72 60 133 107 122 141 142 199 47 123 67 199 120 151 95 130 134 136 207 127 140 153 107 94 153 97 144 94 174 147 105 45 114 133 147 174 72 140 190 151 108 175 138 118 148 154 131 108 223 99 102 112 92 127 189 104 128 99 201 175 137 120 103 154 63 92 137 125 114 154 145 62 132 73 118 104 146 117 134 54 211 97 127 199 
114 103 138 137 135 113 185 136 213 118 202 130 117 175 137 130 121 123 131 120 116 143 103 208 108 168 122 73 126 202 152 123 209 90 58 148 114 189 134 119 88 110 134 87 83 87 119 139 119 97 106 148 143 148 170 129 130 90 174 123 124 177 90 108 107 113 140 112 154 115 115 164 126 110 211 122 110 168 138 139 150 56 148 105 185 112 151 115 85 76 96 88 110 175 130 125 146 139 72 102 
143 100 118 137 125 122 136 180 104 40 130 184 134 179 159 102 123 157 134 164 102 59 180 91 159 80 79 60 129 185 102 218 143 119 92 120 70 186 115 108 235 117 171 79 81 193 134 162 74 193 126 102 96 191 162 169 90 197 148 143 85 82 122 190 68 123 153 101 184 160 134 88 39 125 186 164 132 80 93 117 68 132 74 168 148 127 176 203 92 61 129 120 125 141 115 147 159 106 116 139 
107 113 104 101 123 111 145 100 124 189 136 161 116 128 165 165 138 220 68 162 133 74 163 210 139 64 69 123 182 106 71 107 111 108 104 128 77 134 91 147 123 76 131 145 201 60 198 177 96 183 137 118 78 82 190 199 174 146 135 172 103 164 177 152 57 102 56 140 75 136 129 31 122 63 131 156 127 146 126 84 95 25 186 175 123 133 134 176 85 109 204 149 102 111 136 108 106 148 67 92 
122 180 171 130 133 98 118 111 90 186 133 180 184 190 174 206 128 76 133 113 94 101 127 72 102 215 197 165 133 75 117 113 115 108 138 115 40 117 169 88 154 123 147 106 132 125 141 81 153 70 58 158 124 199 161 83 69 164 48 149 127 148 153 80 143 209 212 27 129 201 79 215 163 136 110 163 75 59 192 125 74 15 139 147 142 134 135 69 119 78 96 104 93 80 111 109 123 125 174 164 
151 122 175 152 90 113 69 97 69 82 78 161 141 117 216 95 85 113 185 127 170 26 78 176 116 97 14 82 99 129 144 176 160 107 54 89 179 147 168 65 65 128 116 114 147 130 36 156 128 199 147 191 127 151 137 106 107 100 144 172 70 132 99 134 127 63 144 124 124 109 116 103 118 46 130 148 135 116 121 83 120 118 156 118 75 150 166 145 135 106 17 88 129 133 108 34 173 143 195 217 
79 110 111 89 154 109 117 149 109 122 138 79 142 131 78 109 72 123 181 79 171 106 150 102 122 110 190 75 106 66 195 131 92 138 156 128 157 184 217 111 84 154 108 215 221 143 148 95 172 135 81 140 118 181 172 173 179 110 129 229 93 163 171 182 97 135 146 130 101 126 107 121 173 180 96 167 139 224 98 128 113 67 98 133 153 145 192 72 129 111 99 130 100 110 122 120 182 100 91 142 
239 209 83 118 131 165 182 202 144 139 102 80 181 149 167 171 122 88 116 142 150 202 170 169 124 142 137 158 115 64 174 140 221 133 147 110 58 236 67 173 129 151 44 152 168 149 106 63 159 134 173 115 141 97 126 34 111 162 126 144 188 117 119 178 133 191 151 121 178 104 124 174 105 140 170 128 66 135 179 192 46 129 37 137 114 103 114 193 128 108 169 117 153 206 133 202 111 178 146 95 
161 101 47 165 80 68 167 46 116 66 102 204 114 173 123 152 100 83 131 158 110 119 165 154 131 164 115 165 117 150 141 130 149 68 95 185 134 64 21 171 141 196 115 151 181 117 135 82 168 28 132 181 110 187 198 97 127 88 107 114 119 150 75 83 119 134 176 128 127 82 118 126 83 158 98 146 142 86 73 84 102 136 144 169 132 161 127 43 203 95 122 179 157 121 132 161 120 156 153 97 
11 147 105 125 83 147 159 100 29 41 161 92 80 135 159 172 146 201 133 99 100 153 96 200 73 100 146 164 55 33 121 155 49 64 135 79 76 105 97 88 161 207 152 101 206 125 221 119 156 182 119 137 172 107 91 115 98 149 105 121 172 113 133 235 108 94 55 79 129 129 61 224 99 158 185 187 132 121 86 56 175 90 67 73 115 163 72 64 105 135 77 156 125 136 200 92 97 161 134 145 
99 179 128 168 28 130 104 160 110 109 125 68 91 163 149 126 125 147 162 97 110 134 121 93 109 110 146 120 89 187 189 121 120 126 124 116 141 110 59 78 70 96 76 169 104 144 89 119 26 72 150 146 81 121 121 42 175 130 68 107 144 184 137 124 144 108 143 162 144 123 125 201 139 251 158 123 138 147 114 142 99 58 115 176 130 131 61 60 103 143 133 159 92 141 51 145 208 125 188 177 
67 47 112 183 114 152 141 106 195 107 75 128 119 127 124 124 159 142 171 126 138 145 185 111 111 76 151 127 68 70 120 80 194 120 138 140 127 164 122 180 163 180 74 91 187 154 123 125 239 24 120 89 114 100 160 170 105 72 107 181 177 69 69 80 75 92 164 68 152 126 161 184 79 129 148 143 121 125 139 120 162 116 151 162 154 73 79 67 47 101 113 160 138 132 80 122 110 137 144 76 
183 130 210 72 74 185 137 100 220 128 42 137 138 140 127 72 155 128 108 67 157 115 124 97 108 108 160 146 117 178 208 177 104 105 45 166 107 119 18 168 133 111 127 111 144 170 107 129 78 11 127 125 72 130 121 102 125 162 105 191 157 207 144 129 64 116 135 121 107 204 146 153 134 130 223 127 38 99 137 117 100 131 168 97 147 104 47 138 119 128 112 137 47 159 180 154 57 126 122 158 
65 165 124 130 134 186 150 131 115 209 154 70 93 111 119 177 161 123 198 129 115 147 132 60 81 74 131 121 96 94 188 135 113 110 140 122 113 88 152 146 135 158 152 94 66 122 86 133 163 85 76 162 131 68 78 79 69 112 128 81 103 152 133 143 89 144 126 141 173 136 93 137 107 201 94 161 72 123 129 76 159 92 114 103 155 156 146 184 127 172 176 115 121 146 129 126 131 196 147 179 
83 188 88 100 143 151 143 110 142 183 99 221 145 104 29 174 142 120 199 164 99 144 104 166 181 127 132 102 126 19 174 151 99 231 155 138 136 124 86 163 162 155 95 108 76 117 158 95 167 67 95 103 110 196 111 131 101 130 173 128 107 119 118 181 138 144 71 113 127 113 96 110 128 124 132 132 133 116 136 117 131 187 141 107 81 128 110 79 127 185 125 85 31 146 146 125 133 182 164 139 
124 70 98 136 165 109 114 132 130 123 162 113 150 42 198 136 131 104 138 29 86 115 163 128 163 134 136 94 164 133 190 138 130 173 216 195 209 131 102 165 172 114 53 202 130 70 59 139 111 62 109 126 165 114 139 85 115 120 71 49 99 115 144 115 117 110 90 90 97 155 122 68 133 47 133 169 171 77 108 173 131 82 151 68 118 163 179 113 165 195 119 102 85 97 96 220 130 110 168 151 
132 183 179 139 196 124 81 112 124 92 72 166 120 143 74 181 113 201 132 90 155 92 136 64 166 164 156 106 89 91 92 152 180 208 60 101 120 103 124 58 43 163 98 188 132 151 155 109 137 116 133 100 172 80 138 117 160 106 204 215 81 76 167 74 165 94 148 154 100 127 157 122 117 129 188 121 129 65 62 211 69 101 41 188 41 173 152 136 113 89 115 86 115 59 84 75 147 147 102 221 
67 153 138 187 189 149 86 46 87 86 107 29 121 116 137 204 84 119 64 114 34 134 192 123 130 102 129 125 83 180 86 131 132 56 198 128 106 126 158 134 137 146 144 164 143 84 178 173 158 135 77 116 187 93 134 111 170 56 95 152 113 194 234 98 102 139 158 89 145 192 175 144 106 137 150 37 136 150 189 122 121 132 179 162 165 169 149 148 47 80 128 143 126 82 143 56 121 205 98 137 
128 151 138 56 150 157 139 158 129 139 142 145 96 134 156 157 100 161 75 118 161 108 143 217 129 118 113 126 130 95 46 149 144 88 86 160 111 111 85 127 215 158 147 142 68 114 99 126 128 170 136 141 113 236 110 105 106 119 159 127 107 119 114 123 103 112 133 131 98 149 100 111 121 112 60 128 68 129 75 150 135 55 116 150 122 183 186 144 136 130 90 157 168 109 86 132 135 149 116 68 
161 155 129 206 143 221 195 118 118 108 189 122 66 120 124 109 148 166 165 155 95 142 130 48 109 136 159 195 97 79 111 85 54 170 137 146 116 146 129 98 173 126 60 187 179 55 142 165 150 142 96 68 110 97 45 196 182 126 116 156 159 137 132 144 141 230 114 184 84 97 131 92 126 175 179 95 82 144 233 124 69 157 46 145 81 148 225 88 225 65 70 108 195 77 76 90 102 144 131 121 
129 188 123 189 91 178 136 168 93 163 199 61 152 60 141 155 132 41 147 112 215 130 87 131 101 138 82 104 111 143 153 139 112 153 116 123 119 218 134 50 143 199 123 238 75 108 126 125 67 77 88 118 52 95 117 106 111 128 167 131 172 126 123 207 74 84 155 74 170 92 127 117 166 115 140 144 169 129 155 119 56 211 136 174 142 119 194 87 80 149 114 93 114 88 233 108 128 172 124 146 
125 44 138 120 168 77 83 189 105 178 136 73 94 178 127 126 118 145 138 173 93 152 113 93 133 88 126 176 48 92 58 192 69 99 198 126 73 96 151 171 97 112 145 95 115 128 154 122 14 113 79 119 75 128 222 132 173 160 163 118 126 165 212 178 146 101 127 151 63 38 122 121 121 111 165 80 61 205 74 168 222 92 135 145 68 109 140 99 157 205 122 122 131 180 147 118 145 132 92 147 
164 148 196 177 84 130 134 92 170 168 82 146 50 97 137 131 156 118 237 62 118 154 104 114 105 187 169 144 168 149 171 131 103 124 109 106 108 142 114 120 144 143 79 118 182 223 145 129 197 93 129 140 137 200 114 154 127 107 111 145 143 109 144 87 170 152 130 143 42 182 100 94 115 129 68 148 87 75 163 150 116 106 114 204 94 185 115 92 69 108 109 35 76 188 113 140 164 179 114 192 
130 116 99 169 122 119 131 91 156 98 110 115 187 171 120 115 75 82 141 66 82 82 139 133 107 162 179 121 137 48 148 152 79 64 221 51 112 212 126 106 159 62 157 152 174 93 168 101 160 149 88 128 116 77 166 161 106 236 145 107 145 115 53 115 121 72 196 146 166 68 49 102 106 121 120 189 142 175 113 96 109 156 65 70 91 213 188 156 144 99 143 127 130 113 125 155 114 85 52 148 
143 112 42 125 181 84 116 53 144 51 161 62 109 98 222 97 195 114 170 59 187 132 143 133 105 140 164 106 90 169 120 111 169 148 68 72 134 196 107 112 49 175 91 136 118 173 139 244 142 106 143 107 134 65 112 136 118 134 118 108 171 135 124 117 42 43 184 121 149 110 139 163 137 125 66 101 135 111 110 206 192 135 202 158 107 83 85 80 184 140 110 205 88 154 187 134 19 171 166 184 
105 123 119 128 101 134 95 163 113 88 108 93 109 36 123 134 206 87 170 154 142 58 125 107 89 98 155 69 64 110 163 54 81 155 76 127 101 137 52 150 117 135 53 116 83 62 138 158 119 166 187 117 130 173 152 161 136 114 151 127 115 128 180 73 100 73 150 94 159 177 196 74 128 136 153 167 26 91 241 60 138 172 113 137 166 147 119 133 113 102 144 57 128 86 142 105 115 201 95 138 
35 48 87 214 143 105 166 165 106 140 120 110 205 179 176 169 166 155 80 114 166 90 62 102 94 67 92 98 113 136 187 102 153 125 153 134 206 163 107 78 134 120 156 210 104 85 111 116 60 194 164 174 134 111 141 209 158 108 150 124 136 155 126 46 199 123 134 90 157 123 179 106 216 161 170 146 24 64 141 108 136 115 107 91 123 108 191 116 128 103 99 168 84 124 186 76 73 124 136 213 
187 170 34 90 136 42 184 132 131 67 120 152 119 60 88 216 145 198 158 135 82 161 116 113 160 174 128 134 168 88 80 156 169 133 141 121 130 203 139 123 108 146 82 175 123 59 99 115 139 134 212 124 214 179 102 147 88 64 133 75 182 188 153 130 55 87 100 134 178 171 156 26 137 121 161 167 73 98 127 97 159 130 130 135 80 153 209 159 141 84 178 167 154 136 87 97 120 119 142 117 
216 142 100 164 121 159 101 165 94 94 98 185 142 159 164 158 192 50 146 193 114 129 102 28 127 146 123 189 220 188 145 176 162 186 138 170 58 103 127 142 60 188 168 117 78 126 153 179 134 172 139 126 97 126 65 162 71 36 120 116 136 117 148 102 121 116 119 105 107 42 119 172 168 171 108 157 127 62 125 146 128 133 136 138 122 134 134 124 209 165 168 132 133 194 172 141 113 101 147 207 
48 160 161 125 180 153 103 120 107 185 41 60 91 145 138 86 219 127 148 98 128 88 149 118 66 75 100 135 137 160 151 100 138 122 151 156 138 148 131 185 151 180 125 89 171 112 138 127 92 200 231 146 132 106 205 87 148 138 115 141 131 151 134 130 107 161 185 80 172 36 84 104 89 155 121 156 110 117 133 174 114 123 53 23 180 117 119 65 89 167 113 76 142 120 103 150 167 152 38 145 
141 164 103 94 128 136 100 67 125 106 107 141 149 129 87 111 117 125 101 102 116 104 125 110 174 86 111 98 91 104 118 40 105 132 173 141 147 89 91 42 142 125 139 192 203 130 126 147 97 189 69 73 105 114 122 191 133 140 79 121 133 173 124 106 146 108 173 120 71 135 138 153 105 121 65 166 187 157 190 203 89 179 84 89 93 91 88 217 144 134 101 115 153 159 94 81 197 115 143 134 
78 154 123 146 125 147 137 124 39 23 143 122 143 127 130 134 148 179 108 125 207 142 116 111 38 144 103 122 184 178 180 106 114 177 108 160 210 189 196 50 59 151 137 142 165 223 97 161 115 142 96 115 148 129 127 122 202 165 111 131 121 159 127 177 58 121 122 131 108 125 161 95 105 185 140 130 106 159 103 145 114 49 110 169 154 154 28 106 122 185 97 81 155 108 109 157 110 138 191 95 
112 155 119 123 137 104 141 122 171 123 109 146 177 146 99 76 165 99 66 153 134 121 208 102 60 151 155 200 110 182 149 104 150 40 184 160 115 226 95 129 88 58 154 135 65 119 111 116 188 122 89 112 171 159 165 68 180 133 151 108 129 146 97 124 119 105 177 140 98 60 110 130 155 171 126 72 62 145 95 123 58 98 118 189 159 154 49 122 174 185 118 180 74 104 96 91 122 93 224 212 
133 131 222 85 189 99 114 79 180 154 137 95 185 46 183 171 126 65 210 192 77 108 171 56 167 90 181 109 117 51 166 111 157 98 115 148 62 32 209 116 127 110 136 116 144 84 90 160 127 142 138 212 167 136 205 83 124 111 73 208 124 213 127 69 157 85 105 157 175 166 149 130 87 121 98 195 112 130 198 184 89 177 89 159 146 23 56 148 155 80 95 64 95 105 118 144 109 160 168 166 
193 124 58 134 25 99 113 187 133 150 80 105 136 152 79 148 62 79 168 122 117 155 136 131 120 184 90 105 129 124 104 99 124 88 81 109 139 168 208 111 138 66 137 136 42 178 61 187 166 180 83 125 148 137 115 140 167 112 97 145 139 90 189 171 77 201 126 45 174 196 148 127 161 149 105 118 186 91 118 120 170 106 142 154 179 181 94 195 107 150 94 201 126 159 105 179 145 169 149 114 
117 97 116 156 147 148 188 172 162 106 102 76 93 147 76 59 119 24 98 117 108 44 91 111 167 103 115 145 164 125 180 225 46 178 102 81 71 79 138 192 124 104 104 71 121 108 139 164 103 89 151 129 138 124 138 93 90 164 128 91 94 150 74 186 236 99 61 137 156 113 79 108 87 123 97 206 37 136 93 123 110 149 54 136 114 96 120 159 129 132 142 107 120 134 119 112 126 96 120 72 
122 69 128 91 136 115 77 135 121 120 86 105 85 111 140 143 159 161 84 102 116 157 166 165 187 99 161 145 150 176 96 31 138 103 116 147 131 126 97 131 121 37 120 90 143 148 167 193 139 99 79 133 159 91 93 23 156 113 124 171 155 78 89 108 122 149 116 181 115 70 120 147 69 111 109 201 142 110 99 139 71 130 162 40 139 149 80 159 127 162 190 141 149 141 113 184 138 133 135 125 
111 144 142 171 134 177 197 159 164 124 140 122 134 105 179 157 100 158 94 82 86 72 124 137 140 123 63 116 113 134 147 109 108 218 144 152 169 133 181 77 107 190 159 237 81 98 117 186 63 76 146 110 188 187 138 87 132 142 141 169 148 212 147 133 147 159 126 137 100 94 157 189 97 133 87 98 87 140 137 130 176 76 117 119 139 220 82 123 40 160 55 166 106 135 163 131 103 80 94 133 
139 174 96 124 63 123 74 131 37 125 200 144 147 142 112 147 90 51 116 200 73 116 144 149 156 86 154 74 84 180 77 71 142 155 133 141 95 148 147 56 107 200 155 73 167 57 141 140 145 157 133 141 216 67 121 126 69 112 144 79 135 151 71 180 131 124 107 121 163 63 169 66 91 174 182 133 105 160 66 119 189 162 88 52 147 143 170 139 121 57 155 177 150 82 171 206 144 52 219 161 
72 111 114 114 77 148 108 131 119 115 65 128 160 100 149 142 167 177 143 123 150 141 166 132 103 141 108 145 210 90 158 184 98 103 132 157 127 104 119 117 133 89 150 136 217 86 137 200 144 135 82 89 113 228 196 171 201 121 210 152 143 136 172 107 168 88 100 164 160 96 44 138 161 66 125 117 149 160 97 136 91 116 158 97 139 153 84 142 119 143 172 176 155 33 138 99 113 88 89 153 
121 84 74 69 114 64 136 126 93 143 106 52 166 88 39 118 123 89 135 86 175 146 175 142 115 125 149 170 102 133 140 201 151 83 122 129 222 91 175 150 90 118 100 58 91 139 121 213 129 84 142 85 163 48 156 175 116 138 144 148 35 130 126 179 125 81 161 158 193 133 81 187 87 114 137 127 107 160 125 106 111 185 134 144 27 99 148 96 164 160 118 92 134 150 87 176 175 89 82 60 
140 148 219 192 146 165 134 132 141 134 114 107 102 205 160 121 27 112 110 101 129 121 70 179 162 118 168 127 151 137 102 93 146 129 87 112 132 106 103 102 146 113 232 169 103 122 134 210 100 97 113 116 190 121 123 93 155 92 90 102 140 152 144 151 109 128 144 84 156 164 227 124 53 139 185 111 127 174 50 191 151 104 171 126 124 96 81 127 118 137 130 88 137 188 164 164 122 101 185 80 
114 87 139 160 142 40 130 128 132 75 212 216 165 159 150 97 163 117 131 181 121 98 100 137 140 163 113 102 99 79 90 136 125 147 59 73 133 122 114 107 93 59 179 203 117 117 114 142 142 124 174 184 126 99 111 150 200 173 179 140 124 132 123 124 155 128 100 194 217 165 139 78 125 120 54 178 105 174 99 120 112 127 142 98 190 111 123 128 124 83 123 131 120 175 95 159 49 144 84 119 
162 81 137 77 149 161 207 77 189 29 142 81 165 130 114 165 76 187 200 149 110 52 124 174 198 112 106 114 167 93 118 96 94 221 141 134 82 109 93 150 69 140 105 118 139 173 149 65 112 174 125 137 147 58 88 174 156 100 135 124 115 119 137 232 137 144 226 59 150 81 189 83 136 112 125 160 95 136 92 79 131 148 151 105 129 164 143 74 99 122 129 140 97 92 102 113 98 80 161 146 
95 105 121 127 138 142 186 30 130 80 114 123 97 71 178 133 95 129 138 179 121 174 133 227 109 204 131 128 177 75 222 104 136 105 117 135 93 138 109 134 115 146 76 106 134 139 187 191 106 91 99 156 138 131 127 223 142 117 122 155 195 120 148 141 147 137 151 91 93 117 128 176 121 104 152 159 186 164 74 92 152 159 76 78 128 165 135 96 124 121 90 171 164 140 82 146 35 215 145 133 
136 82 85 130 65 157 114 61 46 122 106 116 178 158 140 126 149 110 148 83 105 111 182 130 120 117 159 147 140 74 149 114 143 90 190 182 134 156 116 25 139 113 142 137 101 121 132 202 147 41 167 173 119 80 171 107 117 124 150 170 141 138 163 202 85 112 119 164 93 193 139 82 119 78 123 103 133 171 52 111 185 103 99 113 116 131 125 125 150 144 150 61 77 85 111 171 135 121 68 132 
109 96 159 106 144 115 127 153 90 114 57 135 127 116 81 117 83 172 83 102 140 68 164 31 151 129 196 183 119 170 96 117 72 163 124 37 169 69 92 140 93 205 120 77 84 158 115 131 154 104 158 153 40 173 142 133 150 78 104 192 141 140 152 113 131 85 137 147 222 129 235 109 151 165 130 177 32 118 156 126 101 128 104 184 101 203 127 150 143 106 96 95 154 128 99 97 100 96 225 129 
62 171 123 163 46 140 194 115 86 100 123 122 101 169 106 138 123 127 145 41 161 97 119 110 115 130 137 151 103 104 73 183 97 81 222 70 68 160 164 57 186 202 171 126 193 109 146 160 97 97 136 101 146 230 142 147 211 92 187 137 115 117 99 188 156 116 129 173 116 161 95 92 72 77 221 79 177 86 117 107 85 150 105 162 86 24 142 124 137 127 127 57 109 104 104 182 124 174 221 137 
169 135 92 141 149 122 205 43 34 65 162 135 94 203 118 60 152 179 192 130 130 88 66 160 113 187 130 120 122 11 92 113 147 89 101 117 108 97 143 182 145 117 204 146 137 177 79 111 113 134 123 107 119 154 128 99 139 85 100 136 132 137 142 237 160 131 101 69 102 107 79 163 108 140 120 109 187 169 159 117 104 106 86 155 151 176 124 142 131 172 123 91 187 101 157 128 157 147 221 181 
160 169 94 77 200 186 188 79 61 200 86 209 94 85 225 144 117 110 55 64 176 204 122 135 168 164 156 142 201 91 126 156 105 160 97 100 123 99 121 86 191 109 106 136 110 96 175 119 213 137 128 118 132 127 127 112 192 87 157 172 208 118 127 179 132 89 193 127 79 203 86 136 160 142 121 140 120 65 107 148 170 93 203 74 71 136 99 76 194 158 30 178 106 198 186 115 107 106 137 160 
160 119 88 103 164 179 183 118 44 135 166 90 64 129 119 120 119 120 95 138 83 97 171 120 75 80 128 191 132 181 173 44 140 110 135 198 136 127 180 119 147 125 36 126 179 174 110 129 170 93 93 139 116 136 122 90 174 99 144 109 121 142 126 77 96 11 135 190 108 156 157 66 142 60 103 89 123 124 75 84 82 146 41 205 140 225 147 165 130 122 63 125 88 166 98 134 203 48 167 120 
128 145 109 158 134 194 87 95 155 192 79 178 142 99 177 142 171 148 168 116 49 173 140 98 59 142 70 115 137 88 32 106 122 113 162 214 155 132 51 166 144 103 90 104 155 140 167 105 73 97 123 117 66 128 124 175 139 110 190 191 197 129 107 124 163 183 138 177 107 147 129 184 124 120 140 138 108 164 170 102 147 153 86 144 116 31 213 129 111 59 125 111 86 67 63 130 142 146 177 85 
155 145 128 163 135 94 102 138 57 105 156 173 154 219 112 122 149 126 185 130 124 210 149 135 144 161 63 132 157 137 123 99 50 147 118 135 178 115 60 107 120 123 116 167 100 61 127 149 91 113 156 150 148 63 119 126 166 203 74 61 196 239 108 65 175 117 155 100 156 142 117 160 109 99 85 126 75 58 131 162 163 173 155 127 116 131 132 106 176 147 25 51 129 139 130 112 113 138 109 130 
35 151 118 145 64 64 159 71 149 126 138 96 149 193 106 145 114 197 89 136 123 70 93 107 225 127 145 100 160 105 116 112 118 129 204 186 157 114 170 173 162 86 121 139 124 130 121 164 137 127 111 65 149 139 100 161 74 118 129 137 99 125 109 104 89 116 77 191 114 99 173 136 126 149 129 101 39 158 118 135 88 130 149 161 130 111 176 121 153 114 119 85 94 86 122 119 131 167 168 215 
121 112 125 64 122 107 157 22 104 145 132 105 146 110 67 105 187 54 168 73 83 161 197 77 157 126 124 143 125 138 189 110 119 137 39 90 175 125 216 145 96 131 82 116 102 76 153 154 156 173 99 156 160 132 168 112 110 134 125 127 70 123 133 109 91 161 195 88 121 166 178 120 161 115 128 152 150 141 124 128 116 169 75 126 177 114 56 103 105 141 143 170 108 122 89 170 91 136 125 49 
127 83 160 167 108 98 155 168 103 153 150 179 97 143 110 204 123 140 34 81 168 194 77 148 151 162 159 85 171 161 148 122 101 138 183 118 235 155 118 124 134 145 152 170 75 128 128 139 191 90 146 60 132 140 130 156 177 58 155 161 131 224 139 202 129 132 152 110 125 91 200 105 114 135 143 191 39 131 150 136 130 117 126 122 109 118 148 161 95 161 132 183 145 102 80 147 88 54 98 105 
205 109 138 141 97 131 119 151 139 142 96 66 159 127 84 108 118 118 139 81 121 108 68 125 85 192 128 217 49 115 161 79 158 140 52 108 99 26 121 102 113 133 91 112 179 206 152 228 34 116 106 130 90 147 94 178 139 193 38 124 179 153 146 68 100 190 124 168 175 102 88 43 133 58 71 72 120 89 130 35 51 150 112 198 84 131 85 177 162 87 135 140 131 127 98 152 12 125 91 184 
128 201 45 99 181 172 96 157 139 66 154 135 67 170 146 143 171 180 157 175 171 145 73 105 119 240 90 95 146 86 63 96 146 47 145 114 122 164 77 125 139 123 84 122 114 155 129 65 8 124 116 144 162 169 40 73 76 167 94 106 149 139 68 150 122 55 107 142 105 134 113 152 161 88 67 179 96 103 157 156 148 202 74 152 147 214 72 145 183 157 203 115 131 38 133 84 148 87 52 157 
62 191 119 95 178 115 132 91 124 161 140 177 147 151 131 96 68 163 116 136 113 121 112 152 96 116 71 204 186 56 193 111 187 44 153 88 92 89 153 199 178 177 36 103 147 181 164 57 173 119 131 177 148 193 171 87 158 165 187 133 187 123 102 194 140 162 147 152 116 110 166 112 125 186 165 81 92 148 100 139 40 78 120 83 218 169 158 153 70 125 100 162 152 104 144 206 183 132 169 121 
111 110 105 144 178 135 34 128 131 111 101 162 93 127 83 79 88 139 111 118 176 121 132 117 131 59 110 69 103 98 134 156 104 173 142 81 146 82 120 215 165 101 181 171 143 130 113 192 74 193 177 158 81 125 85 128 129 96 76 122 74 72 78 222 118 102 186 46 121 224 129 134 99 124 59 171 126 172 123 117 103 189 113 96 158 153 136 114 181 110 76 172 162 126 135 115 23 141 56 108 
110 114 155 99 160 77 136 124 113 123 99 153 122 140 135 141 121 156 111 91 98 142 149 158 147 131 192 117 150 140 102 153 221 155 115 94 154 118 126 135 98 152 85 178 112 158 193 153 213 115 61 151 205 98 41 101 149 134 150 119 168 115 138 135 131 67 127 93 82 128 179 131 130 117 185 126 94 153 175 38 82 201 31 118 134 166 117 136 175 111 78 106 109 80 119 119 107 139 130 131 
130 73 79 126 156 132 152 138 130 176 131 113 125 107 63 155 132 131 133 143 126 98 151 68 178 167 127 112 210 119 101 149 144 183 100 126 164 150 163 188 110 123 86 142 29 120 60 142 162 166 172 139 190 124 158 205 213 127 121 132 165 100 82 121 168 116 22 116 86 85 153 234 122 129 97 130 122 91 100 55 155 118 100 55 191 160 167 106 151 91 190 172 200 119 110 87 157 52 82 91 
103 128 96 89 58 152 56 54 124 97 64 98 134 39 118 79 92 203 107 133 93 146 127 183 159 203 90 89 83 108 23 126 134 150 127 100 154 108 122 185 186 212 97 115 151 49 103 109 125 179 114 91 70 145 136 130 195 138 130 119 148 151 135 123 134 134 111 100 130 111 93 162 137 87 111 173 147 126 193 228 191 79 133 167 116 112 119 106 127 125 145 105 181 86 115 144 83 58 44 113 
116 116 67 170 74 120 149 174 127 127 119 214 169 133 158 168 129 116 84 66 158 175 176 128 121 153 134 129 155 103 84 81 148 136 199 87 174 42 145 20 140 88 143 148 117 149 111 157 92 109 127 112 172 164 104 124 112 156 185 111 132 162 97 157 156 116 145 94 139 175 97 104 146 135 148 48 128 117 129 153 63 116 136 98 162 134 91 182 189 2 121 152 139 145 160 118 56 163 195 169 
90 173 164 89 136 102 148 167 146 67 139 131 73 169 90 131 137 51 125 116 81 112 214 169 121 142 121 109 138 45 153 97 102 150 110 161 40 158 145 158 181 91 93 117 130 115 191 94 72 126 154 120 137 138 174 112 146 101 125 128 181 87 104 117 207 156 129 102 185 189 91 111 143 192 151 178 100 148 113 151 129 122 144 126 98 144 221 218 175 169 139 83 116 121 91 126 111 93 118 172 
88 124 90 131 126 126 102 77 153 163 157 96 82 122 184 92 223 165 59 210 101 155 163 211 122 128 123 149 121 71 192 58 174 126 194 142 105 170 199 176 55 146 173 113 155 125 148 115 124 126 154 154 166 152 107 121 98 124 101 147 137 66 116 158 103 170 113 67 125 78 98 74 123 127 90 118 149 179 112 178 119 199 114 102 111 105 97 153 97 114 192 122 77 136 138 119 176 169 185 113 
168 178 80 121 51 158 96 32 157 156 104 133 122 116 179 117 132 128 128 197 143 131 124 153 70 34 118 118 153 141 130 128 120 69 169 154 97 121 94 152 107 119 140 170 73 133 124 221 233 70 145 94 168 174 33 119 171 70 159 116 168 113 67 172 136 171 115 138 118 147 36 70 46 99 132 137 73 175 165 98 106 88 92 64 218 95 124 125 146 120 213 127 126 187 131 187 185 129 202 110 
139 174 167 157 87 112 138 107 161 83 35 127 186 165 138 158 92 123 148 193 113 139 127 123 96 121 73 140 87 185 124 142 66 133 92 161 118 145 164 87 131 133 149 180 73 141 137 142 143 136 106 99 45 121 139 95 125 103 198 173 109 143 191 118 117 94 189 209 74 95 126 143 51 131 48 131 197 134 124 221 80 172 139 145 97 76 118 33 99 60 101 72 128 118 155 139 164 137 160 117 
86 134 217 43 181 159 138 132 168 162 158 57 124 111 91 112 130 79 125 205 105 119 187 149 150 201 137 89 24 140 164 131 123 63 117 153 142 45 124 127 182 194 167 125 157 81 205 130 140 95 69 116 135 123 157 206 200 86 127 191 77 121 181 133 168 27 150 144 128 110 74 187 98 108 101 87 176 159 157 125 124 140 105 116 111 185 150 112 149 57 120 100 97 115 137 197 77 170 137 158 
121 80 154 60 151 55 114 74 168 137 123 128 176 94 187 183 62 101 173 110 66 112 125 136 55 152 157 222 102 111 158 145 68 62 151 204 114 127 132 89 176 224 143 128 161 180 160 157 149 92 181 65 186 95 137 158 63 53 107 190 127 66 147 138 118 228 166 96 178 165 158 218 108 99 111 175 76 48 45 179 166 127 77 175 158 137 118 119 138 97 134 124 134 146 112 142 130 133 135 89 
131 120 82 134 120 102 60 167 140 138 163 87 180 134 131 141 71 127 163 179 96 112 144 79 118 176 125 206 171 76 114 171 99 64 133 162 189 63 173 85 103 133 145 112 132 135 82 144 127 98 84 127 76 132 170 51 120 114 225 153 118 64 196 163 106 74 98 202 128 118 53 119 109 123 96 94 142 74 160 126 137 157 152 217 169 142 184 150 123 106 154 138 104 151 121 159 113 149 98 195 
153 184 103 114 119 169 207 90 167 129 19 167 136 151 116 163 110 143 175 142 152 104 139 130 149 105 130 176 40 142 178 149 124 112 144 162 105 129 119 87 119 166 171 107 102 127 100 191 170 119 90 171 163 162 42 111 193 116 102 25 91 189 133 138 151 56 80 108 115 123 87 82 118 147 88 68 204 150 195 120 121 125 15 131 108 51 124 128 118 112 127 155 145 94 73 111 140 92 160 163 
25 71 147 152 164 78 144 122 134 131 135 91 161 137 155 112 113 174 116 139 89 194 111 90 115 146 108 140 126 135 86 208 209 140 129 126 116 91 149 198 192 74 64 217 113 203 84 143 125 160 168 26 134 95 74 101 152 85 127 134 150 99 107 131 75 164 134 206 69 151 40 99 129 181 152 133 94 177 193 159 129 90 77 66 108 149 128 103 168 142 149 122 142 124 117 92 77 180 103 138 
141 118 134 139 121 128 135 92 124 89 172 97 134 125 141 48 99 164 67 117 146 80 76 101 119 131 126 164 152 126 165 116 115 100 138 133 128 86 99 125 108 66 115 141 124 108 166 123 151 149 105 81 173 225 105 153 175 30 96 105 155 95 150 73 42 99 104 164 47 107 81 121 138 125 149 101 210 201 84 171 148 125 44 149 65 149 83 136 135 132 168 97 145 62 160 140 34 51 109 126 
48 74 132 136 114 87 170 81 134 84 116 119 39 78 138 109 121 137 172 79 201 177 86 67 136 175 66 95 174 47 42 115 125 131 163 157 110 138 128 144 142 163 132 192 90 89 154 74 122 153 106 72 204 88 130 120 159 85 102 216 168 164 53 117 151 38 115 181 87 178 99 120 90 145 166 35 121 118 97 18 85 136 98 119 81 165 107 217 120 126 170 24 185 122 101 142 141 106 211 134 
133 194 89 130 114 137 122 128 157 138 125 126 93 165 44 32 142 202 129 110 64 202 94 166 138 112 130 166 40 110 72 150 32 129 128 124 119 100 169 91 95 95 183 30 117 132 93 126 73 115 136 144 222 95 186 119 123 59 168 89 156 80 110 106 155 95 140 158 130 192 98 128 94 118 146 153 118 107 199 124 104 145 98 110 147 125 154 164 144 124 111 94 95 106 125 87 168 173 204 112 
128 143 153 223 108 170 110 86 175 99 167 71 97 149 121 127 186 114 179 119 119 136 161 135 143 173 69 132 207 81 66 173 131 143 67 158 92 182 122 190 129 125 190 78 105 156 145 165 82 102 86 154 161 74 247 110 127 175 108 126 216 101 136 96 206 131 77 150 97 72 129 126 28 98 150 133 169 110 136 97 125 136 159 101 152 137 131 76 50 152 165 37 65 136 106 114 104 168 143 158 
110 99 122 136 123 162 153 103 93 103 109 230 69 184 85 101 77 152 83 79 101 186 168 154 137 80 112 157 85 142 139 134 107 89 118 132 174 44 75 84 137 157 134 159 99 135 114 115 133 67 188 174 62 106 158 22 196 91 144 149 200 112 116 170 103 200 172 78 152 151 151 94 103 102 33 101 154 194 128 102 129 185 70 42 140 108 84 151 172 221 59 158 157 147 105 119 211 157 166 185 
137 131 103 162 11 108 189 160 187 168 118 135 95 152 121 87 129 172 158 208 105 128 157 141 149 177 175 108 123 145 107 178 159 150 149 97 125 130 166 130 107 176 174 99 77 174 216 198 148 171 193 127 130 183 108 89 78 84 158 134 167 174 129 120 136 151 171 125 185 152 112 140 181 94 119 98 105 63 95 147 193 107 35 135 94 103 189 117 131 151 53 134 156 86 133 107 110 135 88 56 
187 75 146 106 107 240 92 65 50 62 135 173 218 116 98 117 99 196 181 108 125 73 151 132 77 93 173 155 150 97 153 80 229 93 128 122 160 86 117 126 111 41 110 123 63 115 143 139 99 99 131 131 125 53 132 152 156 91 175 168 199 212 139 182 106 110 144 140 114 213 145 116 137 93 131 175 154 102 75 91 179 131 73 157 56 153 120 146 91 106 146 137 119 92 179 181 80 159 120 137 
142 141 160 130 108 175 93 93 66 70 132 186 126 141 153 138 138 111 85 152 122 140 128 127 151 189 78 170 190 136 149 103 85 116 134 192 42 159 142 170 216 116 124 153 179 185 149 121 215 182 126 174 109 111 177 41 122 122 81 194 127 200 42 128 116 50 125 143 65 119 96 58 83 162 234 147 118 161 145 94 128 202 103 170 69 102 137 144 116 19 133 119 226 89 66 164 168 218 130 192 
164 170 85 139 77 175 70 93 56 77 188 105 130 135 116 125 159 193 170 151 165 96 116 109 113 121 83 173 42 133 101 166 135 94 146 192 25 82 129 162 164 123 113 87 147 156 109 87 57 136 124 107 131 121 70 156 51 69 80 113 139 132 192 178 127 125 162 152 99 169 33 115 129 102 114 140 107 89 85 166 116 226 96 98 105 112 116 68 139 51 169 105 169 201 178 86 111 43 65 180 
194 141 195 89 67 111 112 87 45 159 98 130 180 196 58 136 207 123 156 154 120 116 173 164 171 147 148 163 126 140 109 142 125 116 49 131 79 106 164 104 171 160 166 148 107 112 108 134 173 137 128 89 223 90 159 98 27 116 109 177 50 157 124 87 51 131 42 102 104 124 174 94 65 138 114 125 132 210 141 98 171 146 169 143 58 183 50 63 94 195 164 103 171 120 90 123 128 125 139 214 
71 178 107 135 130 97 166 85 139 154 90 227 149 134 114 223 80 91 153 112 167 138 204 30 132 103 185 172 187 151 121 43 59 129 18 67 127 82 141 160 138 159 150 181 169 169 121 120 178 51 164 63 197 157 129 109 137 47 115 77 188 121 151 184 118 130 49 166 99 115 154 187 78 157 165 92 113 186 100 126 89 184 122 118 100 123 99 47 121 118 153 197 106 100 188 147 74 181 94 129 
89 66 120 83 72 218 163 195 170 132 48 81 165 152 91 142 102 120 108 76 195 143 134 129 140 151 132 90 159 147 115 165 139 73 154 99 110 93 111 152 108 170 123 205 124 179 144 152 71 111 102 68 147 115 103 139 127 119 33 117 139 116 138 95 52 159 148 78 114 84 156 172 80 90 113 165 160 92 24 169 145 73 92 150 112 91 151 125 123 47 159 117 184 96 108 141 98 89 127 149 
90 137 122 88 124 191 135 82 128 186 158 136 148 76 148 143 75 132 165 88 94 115 101 106 125 131 102 160 80 91 68 94 115 156 49 113 102 95 118 204 195 112 188 98 113 108 210 136 165 104 148 177 150 106 203 135 113 168 111 101 131 165 121 142 70 112 24 153 119 109 151 131 142 70 50 88 120 157 226 141 53 123 128 120 139 127 132 105 159 161 184 150 99 73 116 31 151 219 129 123 
102 126 146 115 144 123 156 133 162 75 95 165 176 128 160 214 205 34 136 86 91 126 114 67 179 87 169 90 152 137 160 155 146 158 139 192 109 102 158 72 64 153 120 135 135 142 107 17 47 168 113 44 81 143 126 180 84 91 104 118 123 92 192 137 57 180 142 74 82 95 126 192 74 205 102 64 93 144 127 132 136 126 97 171 133 73 166 99 169 83 76 112 166 91 81 163 179 127 116 188 
190 80 125 156 225 133 164 131 128 124 133 127 173 146 147 134 156 142 128 195 78 123 135 72 119 115 197 179 117 132 106 181 168 167 134 95 39 101 100 118 72 126 79 160 39 26 148 67 156 51 36 141 186 119 196 139 125 94 69 87 93 112 144 91 140 128 130 114 134 134 135 104 181 128 217 87 125 94 85 51 128 114 139 167 165 32 120 151 178 166 163 106 50 62 85 98 150 127 165 117 
74 123 150 82 111 71 104 147 113 128 206 82 130 139 139 122 23 217 131 131 67 111 114 71 120 105 149 36 95 99 84 56 72 83 84 178 149 104 25 98 82 170 143 129 76 148 120 80 204 162 127 108 138 161 107 161 191 124 93 124 151 135 179 122 132 112 122 137 193 97 90 138 201 151 177 194 86 116 81 129 120 51 131 118 37 187 149 153 180 148 147 105 137 115 128 164 194 154 160 90 
126 193 101 174 158 12 38 106 16 110 163 231 97 95 79 125 70 156 123 109 130 179 43 108 157 100 113 135 92 163 101 93 88 131 65 108 111 155 79 127 109 51 117 130 76 131 113 94 96 109 115 124 178 90 115 142 102 160 129 148 180 113 138 151 85 47 141 158 159 146 160 122 161 135 121 89 123 109 143 141 115 146 96 104 169 120 69 65 150 224 64 136 73 129 143 149 135 57 132 77 
159 153 123 157 17 166 173 153 93 140 106 91 65 71 195 136 176 152 119 53 137 140 134 135 129 131 195 139 162 179 190 158 130 128 133 84 119 107 132 86 51 180 76 180 122 166 123 92 209 152 87 16 182 87 101 59 151 157 53 144 178 158 155 134 28 62 138 200 135 102 158 86 117 94 73 123 130 83 109 120 126 86 124 103 120 120 195 143 121 140 127 157 110 161 100 90 228 118 79 113 
55 62 237 158 76 98 159 96 199 92 121 149 94 122 111 193 112 130 85 160 163 87 165 139 79 150 76 119 159 137 130 146 173 131 40 167 152 147 78 146 115 126 204 174 53 107 111 143 153 143 121 105 134 132 138 156 184 193 84 162 231 110 201 111 158 176 187 103 116 139 165 134 111 89 126 98 147 150 130 134 101 66 104 141 121 184 156 143 135 184 166 118 158 58 51 128 112 87 72 156 
128 73 147 155 106 116 123 117 70 177 52 88 69 165 154 174 149 125 84 130 153 68 18 118 123 127 148 115 133 140 63 111 131 135 153 75 144 92 128 177 147 106 125 100 121 150 130 132 125 192 102 69 132 140 177 164 173 114 100 163 140 88 62 145 86 160 51 126 108 105 131 142 104 200 67 122 106 125 71 194 130 179 199 235 131 140 136 73 125 117 76 125 139 160 156 78 92 169 142 124 
