P2
100 100
255
106 101 183 186 130 132 120 98 22 137 210 129 74 158 203 164 168 26 131 170 106 134 135 136 178 108 108 227 115 178 99 125 143 165 125 108 37 85 199 94 172 95 99 166 122 113 115 155 147 141 119 158 75 102 187 27 117 71 102 128 134 162 138 163 162 112 178 176 162 192 126 67 87 116 105 144 92 193 84 74 142 177 47 104 149 74 167 118 100 103 168 152 149 110 128 86 129 132 104 70 
127 49 138 24 130 126 113 71 168 130 128 102 93 134 160 151 129 136 121 131 135 126 125 54 126 78 122 168 165 134 104 166 109 171 121 28 139 86 146 123 177 89 86 153 98 108 154 136 156 187 66 157 133 54 112 126 155 73 65 167 131 187 142 162 169 110 112 115 179 136 108 147 138 103 115 171 163 136 123 160 176 48 152 56 141 137 122 143 113 168 122 127 178 199 129 172 77 81 193 151 
101 185 104 164 80 165 118 91 176 95 135 74 139 116 129 203 119 157 184 130 129 155 121 149 136 113 60 57 35 141 119 172 140 128 145 193 159 102 63 122 166 166 50 131 128 200 128 166 152 145 212 178 124 153 180 160 114 107 204 101 82 176 139 116 12 84 118 102 208 128 85 162 130 154 191 45 154 65 150 63 164 76 122 97 146 167 159 68 68 157 65 185 163 90 89 143 90 212 137 111 
189 168 145 134 81 110 115 181 197 147 108 133 68 197 96 186 108 71 124 64 185 93 144 78 124 142 132 109 59 118 81 109 188 151 99 133 116 107 126 154 173 58 65 139 152 82 156 148 97 126 127 130 74 87 104 131 223 122 134 174 59 112 200 163 129 61 137 121 148 157 138 205 85 43 154 126 165 145 125 221 124 73 204 133 141 139 68 153 166 135 125 93 106 140 126 141 29 113 169 96 
144 98 163 174 63 213 177 125 133 93 110 99 76 115 125 59 153 148 148 108 137 184 148 59 102 147 120 110 123 142 130 68 202 150 112 144 136 84 64 107 149 181 145 56 178 89 98 141 126 154 139 150 52 72 127 115 211 83 84 140 155 127 156 72 117 129 172 172 124 130 126 69 109 116 28 52 48 197 67 85 97 126 111 114 105 59 64 130 119 38 100 93 130 150 178 133 79 126 101 146 
107 130 187 160 157 147 181 175 123 185 103 125 97 140 87 127 97 172 159 239 54 123 147 124 191 76 132 176 169 119 197 186 116 122 99 116 180 104 109 122 123 161 244 108 189 155 92 112 130 73 182 160 133 121 182 116 112 178 173 196 196 108 174 81 100 85 182 159 209 85 227 199 193 67 194 115 157 129 178 118 222 97 149 138 169 156 143 148 205 33 49 148 148 131 140 61 242 119 127 141 
104 231 148 91 165 154 107 120 73 212 187 148 149 118 24 134 123 90 158 181 189 107 154 133 123 120 147 43 113 105 102 152 60 151 64 124 170 200 199 109 143 101 127 122 71 142 92 119 129 162 84 148 60 156 96 91 144 122 140 176 57 207 140 62 134 120 100 147 99 150 114 54 139 217 165 66 214 165 92 147 84 68 183 157 82 103 69 101 108 144 126 150 163 64 106 91 191 173 130 130 
141 195 76 125 76 132 165 112 131 99 83 171 220 128 179 84 151 60 180 93 133 209 105 149 125 199 158 132 87 100 148 94 142 105 193 88 112 83 169 121 123 65 118 153 129 149 121 90 100 94 139 49 129 116 74 83 47 205 147 191 133 181 131 130 95 180 53 130 135 135 132 141 195 125 109 113 135 59 36 175 95 148 220 107 64 141 97 97 76 107 46 131 141 194 133 46 98 122 73 198 
164 123 120 56 128 127 120 137 98 85 159 83 64 59 118 87 152 106 139 71 56 104 133 151 111 132 120 53 118 120 126 126 127 143 181 149 211 123 151 122 181 124 104 151 139 116 201 185 146 144 216 184 85 211 175 83 162 194 143 111 94 175 43 117 132 37 170 96 145 126 78 150 133 120 131 188 74 183 117 94 201 111 151 91 138 211 113 147 138 76 113 156 100 73 124 219 119 92 157 115 
165 133 82 141 157 109 156 104 111 164 108 154 148 51 107 120 108 216 109 208 39 98 44 90 141 68 106 155 118 158 140 173 136 139 140 163 144 199 151 209 176 146 191 162 114 109 139 150 133 118 109 138 102 61 166 111 183 92 35 188 103 68 136 164 102 148 110 74 204 197 113 146 136 134 154 175 115 63 105 98 75 113 81 202 124 233 123 129 161 154 129 140 98 81 116 136 91 122 59 214 
95 114 124 145 129 151 79 141 41 159 137 31 128 154 110 107 77 135 147 71 99 199 179 103 154 169 169 138 149 228 33 77 138 158 58 105 71 70 149 119 151 129 99 107 109 148 169 199 175 92 110 187 120 135 154 151 161 110 154 114 174 179 122 140 93 57 152 167 178 131 105 134 147 188 43 176 123 75 181 143 128 94 146 129 39 91 121 190 108 180 89 142 156 90 125 152 108 98 147 116 
128 121 170 115 71 149 182 123 94 133 138 156 214 177 140 106 108 137 135 155 74 95 182 100 86 75 70 135 93 162 64 183 135 128 111 119 70 106 70 250 114 207 195 220 97 89 111 120 140 124 188 113 196 159 112 149 46 55 141 187 111 100 104 205 153 67 126 91 80 51 150 138 96 83 153 200 148 157 157 117 104 70 110 132 89 85 134 228 187 118 132 153 119 190 141 153 77 108 111 201 
15 136 96 166 55 117 110 121 203 170 105 116 119 126 56 132 166 116 119 101 151 126 42 142 118 205 90 114 126 68 89 47 54 101 143 144 171 122 130 150 233 162 101 78 112 115 111 105 159 173 243 121 149 142 161 162 136 101 168 120 70 189 92 154 159 160 90 123 113 129 109 179 157 136 131 130 136 110 129 98 170 197 83 137 145 128 78 151 63 196 123 52 120 141 121 207 129 132 140 110 
95 117 143 66 155 74 112 89 136 165 117 95 122 136 69 153 157 174 168 128 172 97 95 128 145 129 124 218 207 134 86 210 204 143 135 59 137 142 92 108 150 149 147 184 154 111 180 140 99 175 108 148 214 127 26 98 179 144 102 100 178 103 184 97 77 64 215 64 182 167 130 111 124 213 115 172 139 97 137 73 121 153 105 66 157 106 130 133 146 129 64 152 116 112 114 102 194 43 105 58 
167 163 143 224 219 100 168 90 168 76 153 205 176 151 28 145 119 166 97 127 140 132 163 149 126 178 36 165 56 111 46 115 195 102 192 44 98 221 114 155 81 81 118 185 131 143 158 131 222 119 65 65 159 45 138 183 63 176 201 221 147 142 153 96 98 93 30 134 86 69 129 96 107 232 141 102 120 125 188 137 97 191 187 212 185 117 37 86 194 142 144 183 183 188 115 172 196 121 133 88 
114 182 140 108 71 134 108 155 127 83 59 153 97 130 137 144 93 125 122 150 116 60 169 128 243 152 74 122 118 104 182 68 105 133 100 194 168 124 153 87 161 218 142 55 111 107 80 120 197 177 115 110 146 190 102 98 65 142 202 129 97 177 24 163 135 46 73 91 153 98 172 137 131 82 184 166 163 234 135 89 110 154 137 115 116 139 105 88 88 204 115 197 93 91 154 126 153 183 122 130 
188 188 141 108 59 124 87 28 101 193 130 165 163 105 120 152 252 146 160 108 42 213 162 140 126 188 181 147 81 60 183 122 66 133 139 94 56 137 125 115 101 75 163 169 168 119 165 90 104 114 66 55 133 128 77 88 168 156 70 56 214 164 51 76 121 105 148 95 116 145 108 153 141 88 67 131 143 149 130 143 135 41 80 121 108 121 146 109 111 150 132 80 118 143 60 163 143 168 169 148 
216 100 165 124 127 134 101 123 77 132 59 78 131 130 90 116 189 60 53 128 132 124 121 93 161 155 96 240 124 121 81 135 135 207 73 78 151 143 132 194 162 160 132 79 134 117 180 85 123 144 48 129 105 162 88 65 141 111 60 80 75 186 172 115 150 204 127 160 120 174 91 103 148 137 97 152 125 125 164 141 85 117 98 114 211 154 181 90 87 96 156 114 126 136 41 154 126 111 136 102 
135 116 65 129 82 107 105 152 88 136 130 124 197 128 77 139 176 196 107 144 161 122 97 201 85 143 104 137 206 81 99 88 122 182 66 130 95 128 150 63 109 164 77 181 127 147 58 114 101 47 153 99 141 182 177 126 133 10 41 63 177 135 107 98 123 109 57 104 188 59 152 143 71 105 87 178 74 77 101 150 222 127 80 146 97 194 143 176 71 191 198 109 113 97 154 183 84 122 152 105 
150 79 67 120 145 119 109 113 48 192 108 193 66 64 131 119 163 234 156 103 128 81 133 78 83 147 143 158 174 187 85 97 130 115 114 110 130 126 124 148 118 96 121 134 118 113 177 154 33 193 140 116 125 113 100 126 132 194 160 127 53 124 216 143 54 143 101 102 191 71 192 76 82 158 80 145 151 181 100 96 145 100 81 70 146 90 154 170 77 142 134 94 153 105 193 127 67 150 40 151 
142 117 181 99 193 141 118 202 130 105 103 152 131 134 125 118 109 161 53 113 111 152 151 137 144 131 144 113 106 55 103 123 127 133 87 147 61 105 103 185 98 139 85 181 135 100 158 100 141 116 193 68 162 85 201 113 167 100 130 106 148 55 107 146 149 217 151 50 175 129 104 93 115 210 100 168 178 77 117 71 113 124 117 143 170 123 94 65 111 132 157 114 98 122 135 70 137 166 177 158 
95 149 149 178 126 152 112 117 50 195 130 97 157 157 209 138 134 127 141 198 98 131 142 103 139 59 164 93 78 125 121 154 145 142 134 114 116 141 115 141 71 86 140 145 113 84 67 141 128 157 81 120 84 125 49 171 126 143 139 133 75 113 149 65 179 125 161 133 123 55 114 128 141 165 136 67 86 78 77 61 127 100 129 84 99 189 83 95 173 176 220 97 117 136 131 138 205 122 15 163 
125 170 100 116 107 135 33 200 76 21 143 165 146 148 94 94 80 114 64 97 84 74 131 115 156 54 89 109 147 176 200 107 116 215 128 134 104 177 57 117 86 177 108 127 89 168 102 77 215 101 168 71 77 131 91 152 121 166 108 115 85 118 201 154 130 225 96 173 79 124 180 115 116 124 149 85 130 143 180 141 128 62 127 212 97 186 152 45 139 134 130 154 121 79 150 138 105 160 102 83 
124 122 191 90 164 43 119 187 95 134 166 162 109 128 69 137 111 94 112 141 164 71 100 174 70 70 129 144 116 132 97 82 181 120 140 134 81 142 94 129 101 168 103 170 180 77 162 136 119 102 89 122 157 171 109 118 156 153 108 102 81 124 123 128 96 99 113 205 133 135 145 134 188 117 170 83 158 182 97 148 153 57 63 20 122 111 126 159 175 147 101 79 39 87 138 172 89 135 128 108 
235 165 165 108 171 139 66 53 169 87 182 73 78 44 149 74 119 149 137 121 68 151 74 152 144 135 70 66 122 74 50 105 80 140 154 133 102 173 148 72 152 121 160 193 103 140 206 99 138 49 116 84 124 114 130 177 205 121 183 160 177 102 203 104 170 142 10 115 171 182 172 104 118 125 166 93 154 122 86 176 115 62 116 128 123 166 184 35 132 114 123 131 216 163 131 75 90 131 116 100 
109 119 133 110 125 140 47 132 95 142 183 134 79 113 114 91 140 184 162 126 145 219 113 136 120 72 178 101 165 157 118 186 127 121 128 125 106 135 181 125 135 167 112 138 76 123 129 107 107 114 189 158 125 48 157 76 142 157 119 153 141 143 85 168 59 49 111 42 166 47 101 109 130 123 128 71 114 75 129 86 100 152 149 104 117 128 126 150 95 85 164 113 184 106 131 149 157 112 79 111 
94 127 71 68 104 117 158 101 134 53 144 193 117 146 132 154 125 133 179 144 202 122 101 133 132 82 176 211 146 121 164 136 60 64 42 118 111 137 166 84 54 98 119 130 34 84 105 94 104 150 109 154 122 154 92 51 132 87 139 189 98 150 146 143 71 178 115 121 88 105 98 192 134 89 71 193 117 134 167 220 124 145 146 66 127 124 99 34 172 82 154 144 154 162 88 63 164 178 165 139 
97 83 203 158 85 117 117 142 93 166 128 137 219 195 165 137 92 119 120 158 118 173 84 146 146 130 144 157 141 166 131 180 146 158 81 95 75 141 105 126 201 125 169 124 159 110 126 178 165 132 115 157 65 98 76 119 114 113 120 75 178 102 106 97 134 114 110 160 83 146 214 96 136 185 130 125 204 110 94 147 88 120 62 133 122 193 86 122 170 145 157 146 120 139 157 151 107 134 137 186 
171 45 150 155 91 115 137 160 93 180 98 111 68 115 85 182 191 183 187 119 159 165 131 84 197 150 175 170 96 134 151 73 144 137 107 160 154 100 182 209 138 237 105 138 110 148 71 150 35 60 93 120 155 124 172 159 156 139 165 120 168 137 98 150 136 138 124 169 99 150 29 110 123 147 139 118 115 137 147 161 142 197 81 124 140 112 115 71 140 101 109 114 80 99 86 173 110 139 118 114 
69 84 155 81 221 197 158 98 131 114 138 107 186 170 131 169 135 114 152 153 144 152 101 88 137 94 168 104 158 161 104 137 145 120 144 112 106 64 102 170 127 134 169 122 127 86 155 83 148 117 96 91 119 119 157 32 132 75 164 119 180 65 148 158 138 110 71 74 30 113 93 132 122 106 118 38 137 136 109 143 189 70 236 82 120 84 156 133 110 108 122 132 168 214 135 147 81 113 177 172 
156 171 126 168 84 60 96 209 130 88 185 134 53 71 135 161 86 78 75 83 119 93 121 132 80 144 161 184 186 154 124 123 155 138 123 146 107 118 160 140 161 90 179 112 107 24 113 129 79 99 68 128 138 158 134 91 90 135 88 105 36 116 131 133 176 148 122 158 106 131 84 141 113 182 146 140 132 122 191 112 148 157 134 154 164 188 154 96 36 160 105 105 125 132 125 138 165 146 133 174 
127 123 121 138 113 130 125 152 140 101 82 165 124 64 158 124 125 121 233 102 130 119 203 95 174 153 136 72 169 86 181 57 72 133 110 114 153 167 124 152 123 135 144 185 128 108 112 167 93 91 172 122 203 100 175 139 126 106 194 86 149 128 118 121 123 154 221 110 154 147 131 119 114 102 117 158 170 131 98 97 97 156 57 157 119 33 157 136 165 165 148 93 149 114 128 131 132 140 131 185 
174 224 110 130 93 153 123 133 120 104 119 62 183 100 204 160 81 166 92 101 56 144 187 125 131 42 182 68 116 72 95 160 139 82 137 197 138 123 157 153 49 133 81 93 164 240 162 122 164 219 166 34 129 108 97 121 113 152 96 73 134 59 109 92 219 107 123 65 179 71 68 82 160 226 216 161 145 182 133 187 132 181 100 88 112 100 131 186 152 83 123 154 111 140 77 194 143 187 121 122 
175 136 69 193 129 147 118 72 76 155 101 147 158 52 175 148 114 128 140 150 170 21 160 150 90 169 100 197 163 75 124 87 118 189 73 147 148 127 115 135 155 106 119 147 96 100 65 139 159 165 32 139 147 82 147 177 138 98 128 80 138 173 128 140 137 125 169 190 134 162 176 141 134 185 51 137 100 133 93 116 132 135 78 173 126 44 153 152 80 104 116 222 162 213 209 135 109 161 159 182 
86 117 119 160 171 170 115 84 135 102 141 175 115 175 174 131 45 124 119 84 157 62 171 124 152 102 29 106 133 132 153 191 75 106 160 180 101 104 112 156 153 64 133 123 116 127 169 134 50 149 122 83 135 125 104 144 166 125 194 70 70 154 180 105 97 182 101 68 131 183 140 126 128 141 28 132 117 69 136 109 158 106 145 132 97 71 124 81 132 89 43 160 48 169 104 135 92 109 143 115 
26 137 184 197 179 61 160 63 58 126 219 81 190 159 117 93 59 142 75 123 132 122 107 33 148 168 91 159 134 155 53 140 58 200 60 206 152 132 96 192 156 142 173 119 127 150 124 63 212 104 145 204 79 121 142 28 130 104 135 77 102 142 125 141 165 85 56 126 109 87 191 65 127 169 104 189 129 128 135 173 171 97 146 114 138 64 127 113 129 169 146 96 150 112 94 104 176 147 116 84 
139 112 131 98 210 130 170 153 139 187 146 198 120 96 35 136 80 134 55 73 118 209 197 193 115 72 128 76 93 145 131 108 87 202 65 113 170 115 62 41 124 122 140 158 155 199 90 134 111 179 130 73 86 39 101 117 101 134 105 108 220 173 121 95 87 111 128 99 159 128 178 102 131 115 144 190 128 137 149 166 68 48 132 173 204 152 120 125 111 68 68 110 78 140 128 99 69 69 174 101 
93 171 32 133 168 224 51 142 104 118 104 160 123 223 178 114 82 107 121 135 37 128 150 67 138 114 182 193 81 152 151 83 111 128 88 127 173 158 145 140 123 90 77 173 121 114 136 144 89 156 152 138 104 139 172 99 130 173 160 122 77 172 146 114 165 120 134 143 156 134 117 126 33 191 199 132 125 175 89 117 145 82 126 113 87 156 119 135 124 154 142 118 139 155 87 45 107 115 134 130 
228 144 152 106 114 46 219 142 239 173 209 135 84 75 140 150 125 169 117 159 60 35 159 57 28 158 181 86 223 129 193 79 125 193 149 134 185 119 187 114 170 153 148 95 161 168 121 152 126 118 79 45 156 92 84 110 187 89 89 124 85 160 128 113 44 158 150 148 124 69 128 124 167 56 121 151 92 108 111 170 126 107 119 71 160 115 81 99 169 189 102 65 141 82 165 223 116 44 83 105 
101 122 209 140 163 139 163 115 43 140 84 159 187 77 88 105 172 135 120 115 228 170 70 135 138 74 119 137 131 60 64 80 167 118 113 176 158 79 136 116 173 132 158 142 125 61 111 71 123 51 127 110 122 107 144 53 171 168 173 165 149 52 168 119 65 185 131 70 172 50 89 83 137 140 73 140 130 113 158 94 137 180 152 50 151 84 154 163 117 137 159 97 132 155 112 70 117 75 171 139 
60 161 116 59 130 107 85 146 149 134 80 220 91 128 89 85 136 155 130 169 60 172 37 10 128 169 187 109 133 138 157 113 99 154 64 33 193 116 151 142 45 132 110 89 110 138 180 41 147 80 172 95 185 100 116 109 112 70 127 121 99 170 108 160 108 94 117 216 99 115 76 175 58 178 77 148 67 152 121 97 151 93 165 109 111 105 178 110 96 86 107 90 134 151 163 138 109 117 69 108 
136 50 101 123 102 79 132 219 115 130 141 123 28 150 127 99 136 156 184 151 69 142 133 106 135 111 118 91 156 142 115 169 135 26 193 120 153 154 82 99 89 154 54 111 192 169 184 114 106 172 148 158 172 94 125 100 109 104 74 164 100 138 190 121 210 177 80 147 132 141 108 135 111 82 77 134 124 152 180 91 180 164 58 137 147 130 130 180 58 119 128 111 134 126 112 131 166 156 220 89 
161 152 96 43 149 139 121 169 128 174 175 87 114 100 86 158 139 92 107 96 63 87 124 173 202 122 121 203 102 155 160 134 98 148 103 168 86 131 73 99 162 28 142 159 88 140 131 173 170 200 111 133 69 52 68 247 140 144 92 152 79 162 136 32 190 85 59 105 92 61 97 137 51 112 132 104 45 172 91 131 89 208 141 182 167 125 133 83 81 136 155 37 130 174 148 113 180 182 142 218 
144 127 105 98 116 92 159 49 112 89 118 166 134 127 169 78 174 76 164 41 157 119 143 214 156 84 119 205 163 120 61 115 170 144 65 173 135 183 201 157 148 144 145 140 133 99 96 168 145 136 138 39 110 164 53 150 119 126 80 13 125 148 220 64 97 170 116 143 108 117 90 149 179 147 123 96 154 95 36 171 186 181 121 115 131 98 162 202 158 208 187 159 161 85 72 121 147 186 120 171 
110 165 104 210 112 110 82 167 122 131 57 184 99 116 107 130 113 99 97 111 182 95 65 139 89 112 220 121 56 111 142 91 155 163 156 128 41 174 87 177 158 51 74 128 105 114 151 87 184 65 197 176 68 101 151 179 156 112 169 143 86 165 119 91 201 92 105 151 171 103 127 137 139 84 130 133 76 116 108 214 144 140 147 192 102 124 55 87 170 139 143 95 157 148 115 136 128 179 85 87 
218 212 121 105 193 153 169 113 160 131 62 79 146 126 153 213 101 171 136 164 110 128 119 142 134 161 59 73 110 94 133 103 127 74 164 158 120 171 188 109 174 113 197 95 154 130 177 52 123 55 188 182 80 29 118 130 73 86 35 105 76 133 101 106 121 137 134 95 100 162 159 146 160 86 145 91 181 137 122 148 116 191 184 124 126 189 123 154 145 170 102 71 120 148 145 92 197 190 193 162 
86 131 201 35 151 32 84 177 133 106 55 182 155 122 185 152 122 186 191 83 135 98 60 169 169 170 53 156 153 86 137 142 155 134 92 124 96 176 33 115 130 141 175 119 157 102 141 165 178 69 168 165 166 101 90 94 156 138 132 110 116 94 127 101 176 89 192 115 36 179 144 167 211 235 135 116 112 141 139 130 77 134 149 155 133 142 117 145 137 88 164 88 161 129 68 145 66 139 58 115 
77 102 137 92 142 100 171 86 170 211 174 27 162 112 128 138 175 202 152 146 141 193 128 148 183 87 166 98 145 126 150 142 139 175 225 82 152 97 103 96 63 213 139 118 141 126 99 62 74 81 124 75 49 95 212 104 188 75 93 170 139 72 55 152 141 197 160 81 146 137 132 165 130 119 109 95 40 153 100 61 65 113 65 174 108 200 134 137 79 186 182 119 142 100 124 190 115 131 122 139 
136 174 173 162 142 88 127 138 123 94 137 102 236 166 109 59 151 158 167 198 152 123 56 143 103 86 145 139 77 161 173 157 125 188 139 204 185 166 176 116 176 201 136 144 163 74 101 192 104 102 146 92 156 126 63 107 226 159 153 182 136 176 142 118 161 95 93 39 187 106 180 153 123 137 172 187 125 119 131 238 117 127 84 148 177 167 99 161 47 102 122 110 127 147 172 100 202 165 122 37 
103 108 174 124 212 114 152 121 47 133 159 130 106 179 62 54 158 174 135 102 106 230 113 94 127 173 179 147 190 129 115 161 136 90 188 111 167 149 126 187 161 164 160 76 112 96 100 155 112 108 183 136 145 137 103 121 113 219 175 133 182 130 141 127 141 117 112 186 97 104 45 132 93 107 59 111 112 67 141 139 116 192 116 178 173 93 157 83 41 115 84 119 109 111 135 150 175 78 184 213 
117 136 152 103 65 122 88 171 143 135 115 40 62 141 120 134 108 110 155 68 40 164 120 150 181 149 120 110 146 126 12 126 124 185 125 97 133 103 181 51 148 128 133 48 95 122 185 158 168 179 187 113 52 158 211 195 148 45 96 144 181 129 107 101 57 36 112 142 216 116 162 162 86 72 105 98 104 128 145 128 191 155 52 148 92 189 139 121 104 193 157 118 159 132 132 103 151 77 87 116 
144 160 181 142 135 92 168 60 104 141 160 117 95 122 102 168 54 194 152 154 148 46 118 138 137 179 92 157 110 150 186 188 126 170 152 100 144 165 142 126 135 155 141 112 115 111 133 93 78 70 116 167 90 102 182 137 109 124 177 108 131 163 116 55 184 112 174 211 225 125 160 223 153 134 153 179 60 134 51 124 103 153 136 143 106 125 165 99 54 160 119 85 128 89 136 137 78 150 105 79 
94 92 116 116 58 121 174 114 138 148 118 158 154 152 115 71 143 94 30 16 163 145 20 167 104 173 145 113 177 133 141 101 149 157 189 79 136 99 184 153 150 94 166 124 189 116 150 74 109 119 148 118 96 128 111 123 221 123 133 153 123 124 119 48 39 148 191 95 127 194 80 46 105 122 223 112 71 163 168 152 97 140 129 184 149 64 133 107 77 127 108 131 92 124 108 159 162 135 42 140 
192 154 77 135 155 90 120 92 119 54 138 159 94 127 196 119 153 101 99 127 145 119 190 164 141 132 154 194 79 188 148 175 147 148 134 115 179 206 164 225 129 61 166 65 121 124 185 104 76 171 206 125 112 176 163 88 160 141 143 72 119 131 75 124 64 88 83 85 214 33 114 213 125 173 109 122 145 107 85 127 121 73 110 187 157 107 125 178 78 77 107 119 50 147 106 57 117 184 124 117 
74 74 108 122 135 168 121 128 147 216 142 128 193 96 131 61 110 91 207 150 181 153 118 118 147 76 98 114 104 134 103 191 129 181 118 84 111 148 93 173 123 64 182 102 166 118 132 193 153 170 107 141 201 122 120 123 149 109 111 97 155 162 85 113 89 75 183 92 166 127 188 73 157 99 164 133 148 71 105 190 178 187 205 177 96 59 239 124 153 25 88 114 39 65 186 160 127 174 166 118 
123 113 135 113 107 78 206 92 121 96 128 157 118 158 106 132 144 150 158 160 128 122 142 70 147 130 149 53 103 144 138 105 194 68 151 88 210 96 163 101 133 84 73 86 75 96 94 155 140 143 148 53 127 115 177 165 86 53 63 61 130 103 103 186 94 110 53 153 98 159 100 120 97 127 95 80 191 137 48 186 155 108 103 143 79 117 26 183 119 105 136 52 152 22 75 100 106 100 114 155 
140 155 135 69 109 69 176 168 47 165 141 209 82 126 217 204 147 72 140 148 177 149 165 76 103 155 124 174 93 120 177 121 142 132 215 120 104 187 142 160 114 89 150 135 132 110 155 138 91 156 148 69 158 83 196 94 235 85 96 62 180 188 135 208 97 175 65 88 76 42 134 172 58 133 166 114 138 169 144 142 130 158 103 156 237 97 189 69 115 130 142 117 103 134 55 64 156 126 173 71 
153 128 114 127 160 163 174 140 87 76 126 99 111 128 148 124 136 187 31 141 138 166 176 75 98 194 170 118 153 90 86 127 57 100 95 176 169 66 145 80 152 57 118 113 112 87 104 211 131 98 127 117 150 120 157 118 63 115 131 185 177 91 187 167 116 149 87 65 104 21 85 164 110 107 120 204 205 142 111 170 81 158 95 145 212 142 120 77 106 106 119 81 146 72 21 131 136 154 143 116 
138 117 139 120 141 75 134 131 144 37 143 141 120 98 116 176 105 40 116 194 147 188 152 185 83 81 169 116 102 109 128 46 57 142 117 151 108 179 112 148 47 147 100 135 78 125 165 99 125 150 197 97 163 178 91 92 212 85 124 53 175 138 161 182 174 166 156 125 102 115 155 123 128 138 37 99 141 140 84 136 123 137 153 156 185 118 99 56 115 146 195 110 105 69 87 199 124 126 167 129 
63 100 162 138 191 140 154 88 97 174 97 60 141 144 126 78 193 31 98 203 217 74 104 50 181 131 125 65 150 164 155 125 107 129 117 136 119 142 106 150 222 70 143 93 87 73 139 91 169 143 56 127 103 146 159 79 93 205 134 125 146 142 139 86 125 115 101 104 97 138 104 119 112 57 102 127 48 185 114 138 122 185 178 24 75 107 84 104 182 91 141 163 134 153 141 124 102 54 99 73 
154 57 153 146 113 202 88 222 161 78 164 166 181 66 132 163 102 196 109 65 132 78 124 90 127 114 136 206 131 118 131 118 94 103 137 153 134 59 172 71 160 190 102 104 129 85 192 112 187 140 67 181 193 172 99 198 108 110 93 172 110 176 141 123 117 128 138 176 148 90 157 135 143 66 117 151 80 62 108 54 119 86 96 157 96 89 75 129 137 64 93 95 99 41 80 165 131 142 124 61 
118 101 102 83 49 80 174 47 137 109 28 183 107 52 120 90 144 175 183 127 191 125 134 189 208 120 134 63 215 134 52 85 173 87 97 135 120 102 111 128 127 123 153 207 223 137 200 109 95 152 110 202 186 169 172 49 125 153 98 89 100 128 115 108 136 106 158 157 73 27 159 104 176 134 97 99 205 64 140 112 85 152 157 142 154 76 118 93 114 116 119 74 63 155 75 107 154 110 28 138 
128 142 81 135 106 110 125 197 187 101 98 50 17 120 142 234 105 194 129 138 148 105 122 136 122 101 98 120 153 75 213 39 143 117 205 131 87 84 169 85 108 169 131 132 195 191 35 124 66 80 124 95 94 141 105 64 106 91 146 160 185 153 147 64 19 160 95 133 83 97 117 117 148 113 120 195 83 105 168 139 147 153 148 121 126 139 120 160 61 104 111 146 126 105 105 145 129 202 123 123 
84 119 105 164 114 111 112 37 79 129 37 75 57 40 140 158 157 120 170 114 84 170 168 120 164 109 40 148 159 125 155 141 126 136 135 122 119 152 123 135 128 99 140 126 192 138 161 168 184 77 165 71 108 199 161 130 36 88 111 151 72 207 74 153 135 123 143 144 146 93 125 114 99 13 51 100 122 184 159 162 143 146 123 128 149 59 153 120 133 38 129 153 95 118 89 118 78 36 156 149 
150 147 105 129 135 114 93 90 130 71 117 142 144 136 165 137 90 188 152 95 157 128 238 163 120 123 120 142 148 70 98 114 89 171 44 99 176 80 122 99 79 112 96 147 108 51 213 118 102 175 43 193 68 136 124 81 123 129 134 121 118 170 93 48 34 91 242 213 146 123 72 58 126 134 106 61 115 91 113 117 122 157 101 142 118 141 107 179 163 96 71 198 182 112 76 141 158 131 133 88 
118 101 75 122 175 206 92 142 211 108 156 162 178 189 102 101 97 64 87 122 115 83 64 106 142 140 95 82 109 130 106 107 144 184 195 159 189 112 80 133 39 205 139 58 129 80 167 59 178 134 127 146 95 76 170 115 139 125 188 176 150 29 133 91 85 121 61 125 143 114 121 150 107 148 108 52 129 145 158 107 95 87 153 66 109 118 112 71 110 136 151 120 88 180 134 74 130 160 117 103 
60 121 110 114 188 151 82 135 197 173 167 144 125 189 19 79 187 233 129 172 94 125 74 134 178 133 152 32 130 122 69 73 118 90 103 85 105 163 127 108 151 121 121 145 119 169 106 120 185 212 162 83 160 70 170 115 179 58 69 181 165 63 130 173 165 106 150 131 138 168 103 126 199 168 114 137 149 159 212 158 115 149 143 170 129 209 160 135 166 125 178 41 56 96 106 127 220 70 167 98 
155 185 87 164 102 73 99 190 210 123 200 184 55 21 116 99 72 164 200 90 117 211 148 147 61 182 97 100 117 111 163 88 92 157 90 220 58 91 120 150 108 123 108 130 124 116 107 119 161 179 152 93 128 217 170 134 198 113 120 163 142 193 139 136 150 107 152 36 190 95 77 185 93 142 157 107 148 203 87 132 173 151 149 144 162 128 151 113 139 132 221 50 167 121 70 188 57 155 89 31 
145 129 95 80 166 94 127 142 189 207 115 119 41 103 117 96 195 179 150 158 88 187 48 122 109 161 96 154 188 146 145 110 124 106 92 102 202 126 174 66 70 112 96 140 88 136 156 97 144 209 151 106 112 200 183 103 133 159 118 128 193 84 110 124 116 170 135 87 148 203 117 166 138 128 81 125 157 38 94 139 184 186 116 162 135 105 143 102 65 108 203 177 118 190 131 173 96 98 116 172 
64 154 47 82 137 103 133 108 171 189 155 107 123 59 84 108 179 208 128 130 81 170 149 58 158 130 74 90 108 99 108 196 79 151 105 169 127 142 150 130 168 139 88 77 197 147 114 108 121 138 72 138 91 177 141 137 99 152 181 85 121 133 101 131 119 197 113 152 176 227 39 121 122 118 128 141 170 77 107 131 218 117 169 124 162 114 163 186 53 101 114 125 187 240 109 65 76 142 159 179 
147 142 175 123 103 202 97 157 90 138 149 122 143 126 214 138 120 148 140 87 157 79 105 135 102 39 154 113 123 187 134 128 186 149 136 162 61 204 117 131 138 78 128 65 208 104 111 91 147 93 71 85 137 121 121 98 106 67 124 131 41 188 131 56 151 173 127 146 147 166 116 116 80 122 119 86 39 202 90 63 98 97 31 69 107 122 105 166 95 118 137 61 190 202 203 75 104 152 140 80 
125 223 127 121 132 143 133 186 139 127 204 81 121 103 141 80 152 97 139 83 106 117 51 168 183 164 163 171 148 113 89 141 80 98 126 199 155 169 175 112 150 141 96 138 177 94 155 61 205 80 145 124 188 157 49 115 184 161 57 66 149 157 185 120 133 105 130 96 57 122 116 108 123 222 76 156 76 148 133 89 64 133 155 175 120 69 132 141 117 145 131 143 122 93 125 133 138 163 129 118 
83 107 155 100 193 113 171 139 139 62 153 116 139 191 136 122 138 125 160 82 70 232 171 132 84 131 103 125 109 118 127 110 50 201 173 114 139 202 89 127 159 139 84 113 227 106 106 149 124 126 132 111 124 38 101 60 146 67 169 86 144 225 153 147 188 108 141 130 176 116 90 119 189 83 137 81 152 103 142 64 97 139 105 171 108 92 174 153 120 171 53 158 105 141 129 47 186 98 144 176 
107 130 145 139 206 106 236 165 176 123 117 126 39 116 122 75 159 110 167 117 92 144 71 66 104 149 131 99 131 190 133 148 155 132 96 94 76 113 127 95 87 102 215 108 54 183 109 135 124 172 119 167 114 145 71 155 181 117 125 148 75 197 144 133 118 68 124 155 30 119 36 110 160 122 81 164 149 99 119 197 97 169 133 140 49 179 96 142 144 111 58 103 109 163 116 122 126 118 146 54 
122 136 137 148 151 146 84 155 128 163 113 112 121 55 131 63 124 130 110 65 136 131 128 39 194 81 36 187 76 161 102 84 78 149 117 152 69 157 108 66 39 201 53 74 77 90 153 128 119 150 134 166 187 140 79 102 145 56 146 46 163 30 127 89 51 129 135 117 108 148 107 128 81 176 137 195 43 131 78 211 86 130 147 131 67 157 139 93 120 91 89 19 112 74 148 126 143 80 121 205 
90 165 106 16 106 117 89 53 157 102 207 88 130 176 157 102 153 100 171 164 146 113 137 149 131 80 44 137 118 102 219 142 146 53 152 230 57 117 175 150 55 109 200 141 166 135 129 86 56 53 127 177 163 73 119 72 127 130 147 37 154 113 94 116 129 185 126 101 118 146 44 152 175 119 139 96 99 189 111 102 119 96 143 143 173 123 118 112 104 158 114 142 114 135 109 106 200 131 179 117 
119 71 89 90 169 148 173 149 76 107 64 205 128 83 143 122 229 125 146 175 178 148 127 79 118 43 217 144 161 167 186 120 201 199 167 153 117 157 203 160 120 71 119 132 142 25 102 120 193 144 147 85 154 138 137 139 127 131 143 50 155 109 110 213 140 110 95 161 169 134 143 113 129 126 114 121 121 105 171 151 108 127 144 182 102 183 144 128 99 168 224 75 143 165 114 33 155 74 124 88 
195 203 111 128 166 110 54 137 142 36 192 202 150 153 101 194 77 99 159 127 147 60 172 156 62 149 149 173 95 141 86 90 116 100 184 154 120 127 160 74 102 125 133 89 200 90 142 135 104 123 128 103 195 136 116 81 90 113 177 106 142 100 169 136 104 95 111 125 127 204 133 90 138 119 94 147 196 110 104 179 109 151 83 82 150 154 105 122 88 52 73 110 42 74 188 203 139 141 123 123 
137 138 107 78 157 124 184 75 48 151 196 156 202 191 105 72 64 133 157 151 146 206 202 111 123 143 198 190 104 97 142 152 110 183 96 129 147 66 124 171 123 172 69 159 151 99 212 158 184 89 31 124 41 119 111 146 150 149 165 187 115 151 124 70 59 111 146 65 191 127 105 67 136 169 57 230 73 120 104 146 89 74 113 154 156 96 161 107 71 122 125 143 105 108 54 177 133 123 67 122 
157 200 160 146 109 69 114 149 81 158 91 110 70 114 120 128 112 158 195 105 138 103 56 173 149 124 194 196 115 77 77 157 87 130 142 180 208 175 141 161 134 137 129 68 164 146 122 138 188 121 147 102 180 174 18 72 123 82 156 129 77 161 124 134 171 133 118 80 50 125 95 129 192 118 156 65 125 136 154 93 150 98 150 90 63 99 77 123 114 121 108 150 199 70 178 53 199 56 140 117 
163 80 112 166 104 130 107 100 158 132 130 180 177 127 113 86 123 185 139 136 141 110 110 183 163 66 139 73 182 141 189 77 50 178 87 177 114 90 80 122 171 194 97 45 139 167 149 124 140 124 68 182 130 164 109 96 54 104 104 62 110 87 100 207 136 121 206 147 44 146 114 107 144 57 177 129 135 106 128 132 99 169 65 110 28 96 161 175 111 128 124 139 115 116 153 13 183 200 39 132 
131 84 127 194 71 110 220 123 159 201 160 160 130 126 156 123 174 198 82 58 174 94 119 117 168 107 117 89 95 149 61 122 206 136 195 112 188 138 99 122 141 144 139 139 127 68 140 161 147 187 110 97 77 178 150 182 149 117 116 69 106 98 35 98 35 82 126 68 113 149 123 109 213 137 92 76 143 136 108 88 176 136 78 53 107 124 123 120 190 102 32 59 73 167 85 90 122 109 134 193 
130 67 146 77 159 153 59 177 122 53 82 150 123 197 142 141 136 63 135 135 235 150 108 116 95 97 101 126 183 108 189 137 162 147 92 201 195 151 102 127 232 169 51 78 125 95 159 46 112 153 122 131 130 151 159 130 147 67 117 156 133 75 160 178 189 123 127 166 110 156 138 153 122 123 100 168 121 136 123 188 143 117 169 136 119 76 101 119 84 143 82 105 185 58 114 193 135 114 166 131 
125 142 176 85 152 99 163 144 190 198 174 103 96 112 157 183 80 36 174 99 144 142 131 110 178 178 171 128 102 77 118 98 139 134 81 132 194 129 99 17 131 86 67 85 122 94 21 140 111 121 127 144 157 160 128 71 115 38 127 87 132 122 115 130 90 127 77 87 195 125 55 202 101 200 165 79 121 130 109 205 148 121 82 168 160 202 144 54 122 155 135 152 150 126 128 216 81 195 108 92 
105 154 169 156 42 118 108 118 78 123 120 74 139 107 137 78 140 96 210 107 143 129 112 90 190 125 97 99 97 52 156 161 139 229 123 142 86 162 122 131 117 167 144 150 108 130 149 118 124 182 209 97 162 110 81 135 95 177 131 167 70 130 159 160 138 90 218 82 108 132 187 77 103 138 129 165 145 116 102 143 96 63 117 180 133 107 56 67 235 137 115 88 104 126 35 152 159 164 74 116 
157 65 129 213 138 120 60 122 89 138 95 125 30 116 212 158 102 93 148 122 197 113 170 230 108 120 150 67 173 143 72 164 204 170 159 124 100 123 187 86 84 110 112 74 179 150 143 195 71 169 155 117 115 170 77 115 122 183 168 178 119 85 129 149 22 132 114 115 104 176 219 149 136 149 154 97 142 116 194 80 118 160 70 112 152 140 186 149 170 169 109 119 128 148 105 176 139 51 122 143 
133 197 127 187 137 223 122 113 130 105 117 124 153 219 135 150 155 130 172 143 177 77 82 114 77 61 104 125 166 136 164 121 132 114 144 126 163 224 155 42 91 122 109 61 129 91 75 143 110 117 153 120 101 94 111 66 192 148 164 122 167 112 177 114 164 28 123 118 153 129 40 88 164 147 88 72 152 146 57 148 148 145 55 174 174 99 119 143 134 181 169 78 113 121 151 147 64 44 132 98 
59 83 134 195 143 127 68 81 124 137 106 160 103 163 152 150 136 107 150 131 142 81 149 121 98 102 167 178 173 169 124 115 40 116 148 124 114 113 70 154 92 112 130 135 51 134 142 60 81 81 144 108 144 142 133 193 16 127 116 65 102 89 123 127 196 75 106 38 127 183 148 141 214 88 231 197 92 67 172 64 118 102 64 142 188 149 146 133 163 52 136 180 142 205 149 130 103 126 142 99 
43 60 107 46 35 138 229 70 131 109 111 112 134 167 186 117 171 53 121 143 101 152 204 175 75 99 190 120 115 140 112 153 105 165 95 118 81 140 152 184 101 102 128 138 180 205 113 76 127 123 142 51 216 170 171 112 154 147 154 171 204 131 118 146 99 140 142 130 146 136 100 153 66 121 98 158 66 135 36 128 129 39 103 111 144 200 167 187 207 27 157 140 171 109 67 135 141 188 70 139 
164 129 106 138 102 33 190 113 90 122 87 63 89 219 95 122 133 142 128 128 55 150 71 146 62 117 143 112 75 86 137 139 78 129 169 159 155 211 137 114 67 64 135 104 151 201 97 80 53 156 133 32 187 108 117 123 103 116 102 159 28 94 102 98 101 133 87 166 99 219 116 167 88 125 147 71 132 106 170 189 124 112 139 126 132 124 122 120 184 134 156 165 124 176 184 140 140 85 101 225 
84 175 117 196 144 202 248 139 172 77 225 189 112 78 201 147 189 105 92 110 168 111 117 114 125 150 95 163 88 79 116 130 117 214 80 137 77 139 142 100 146 174 132 115 115 64 28 134 44 138 154 170 127 155 145 109 97 106 122 43 141 149 133 101 160 120 127 126 182 93 119 51 96 177 128 89 104 146 160 89 144 171 107 155 58 141 34 128 101 181 114 94 102 99 153 79 73 111 171 157 
182 109 165 53 138 104 165 78 106 144 134 143 152 181 124 45 129 128 115 150 128 120 200 82 148 60 91 135 115 227 119 105 87 142 117 64 108 139 145 185 172 69 127 131 137 114 120 58 49 107 174 145 108 144 70 112 119 131 89 74 123 113 136 99 168 197 119 122 190 143 94 81 202 71 107 104 107 193 132 126 199 64 158 125 71 117 121 172 138 146 111 107 168 83 126 107 118 125 202 147 
106 113 145 85 158 156 194 34 191 133 53 139 144 196 151 134 45 114 152 181 108 138 161 77 142 182 152 56 130 115 101 100 108 134 119 106 142 133 93 122 104 67 151 142 128 109 149 115 147 32 223 112 113 119 140 133 80 142 81 73 153 192 126 125 97 158 61 79 138 41 60 117 87 116 195 65 140 135 85 131 86 167 93 32 160 99 170 86 124 170 149 82 54 88 147 142 118 155 103 91 
67 167 123 90 135 125 163 121 159 152 130 138 127 144 130 203 126 207 133 134 68 153 83 102 131 61 127 99 148 117 151 20 160 195 185 108 147 119 208 186 231 86 122 181 153 200 150 128 148 119 126 158 181 39 137 138 79 124 166 190 138 131 86 93 116 191 115 178 54 109 89 99 110 72 149 186 114 162 164 97 124 127 73 173 139 152 100 180 189 136 202 97 110 156 53 116 99 155 120 187 
59 122 164 111 92 75 153 133 135 117 107 139 220 124 33 126 77 73 42 140 113 147 172 66 166 94 143 222 137 137 129 120 74 180 125 142 93 134 150 243 168 174 230 144 124 184 134 157 89 131 102 128 77 140 136 122 173 136 91 113 112 80 164 134 131 112 122 149 77 158 193 126 140 209 123 136 72 152 153 173 147 120 128 108 207 72 143 126 141 142 197 135 160 112 144 61 126 82 107 121 
7 125 115 79 143 89 185 168 127 145 48 76 130 123 138 128 162 65 201 129 96 151 145 125 132 172 77 84 182 105 175 214 190 90 155 110 164 159 114 114 173 129 114 188 73 95 145 120 98 102 116 117 199 104 121 153 195 104 144 106 65 155 64 98 155 117 119 161 119 112 117 221 78 175 147 157 87 104 76 77 136 110 207 124 214 89 154 150 112 84 94 111 81 92 147 128 128 85 132 139 
212 205 132 115 157 127 81 122 128 205 155 173 151 131 99 119 106 163 123 73 157 61 134 95 139 159 81 198 110 118 126 147 101 143 119 99 80 62 144 136 211 137 149 92 117 120 169 149 83 136 180 86 118 129 105 88 106 156 98 138 166 143 165 153 132 122 164 176 93 38 89 164 172 117 89 84 129 41 133 109 137 79 129 130 72 115 200 144 201 151 77 141 138 116 123 78 83 129 200 210 
124 81 112 129 94 125 139 100 123 124 168 149 106 106 153 102 133 134 81 166 115 175 131 94 136 89 70 141 181 105 117 100 93 186 17 67 102 123 120 128 92 215 139 124 70 88 110 187 132 143 172 121 120 138 115 74 133 146 45 61 91 165 137 145 120 123 180 152 164 136 94 135 81 58 113 115 150 147 160 212 59 119 161 128 157 128 115 172 148 160 113 78 139 143 110 93 137 65 178 102 
26 194 191 43 113 133 104 114 88 152 167 157 136 50 120 114 165 78 113 109 129 85 120 210 159 178 104 111 147 125 125 185 90 138 182 203 118 122 157 115 155 141 62 172 178 167 124 127 14 131 123 124 107 137 19 147 142 131 142 129 175 114 190 58 137 157 132 138 153 140 149 134 112 97 137 87 31 143 121 81 119 126 40 105 143 158 115 151 94 99 117 90 169 155 157 43 91 142 95 64 
30 144 74 156 116 89 136 95 122 189 109 119 96 151 176 181 90 169 111 167 116 134 137 176 155 135 60 123 84 130 137 108 118 102 174 92 144 94 97 150 112 161 56 138 156 103 171 132 139 69 175 95 75 59 166 130 169 70 156 162 127 149 148 142 79 177 86 131 122 118 165 109 167 102 98 168 162 111 184 93 89 73 117 141 167 116 129 147 112 145 119 148 130 92 191 141 169 153 90 126 
