P2
100 100
255
100 204 83 93 167 150 159 124 124 111 99 175 114 100 190 105 180 121 164 136 101 79 117 97 126 132 89 134 103 65 121 146 212 76 142 210 188 123 105 142 121 144 67 100 103 140 70 96 213 88 155 105 105 145 119 118 153 117 144 104 129 37 199 184 158 83 96 88 100 127 142 99 124 182 133 77 159 123 184 136 190 73 147 202 91 49 67 186 116 122 165 195 164 123 125 151 118 68 120 177 
107 147 133 152 166 147 74 112 129 118 124 167 168 203 192 186 204 225 140 171 41 95 127 118 164 159 124 108 129 121 102 115 81 92 115 95 79 101 152 117 108 94 143 73 131 132 110 138 133 179 151 187 129 122 167 92 102 130 73 233 126 35 135 108 128 108 204 129 111 209 167 131 124 192 169 52 80 98 88 125 94 140 102 168 212 115 137 138 111 105 110 106 111 95 103 115 111 119 12 135 
133 78 125 173 65 147 150 179 152 126 116 161 72 171 149 113 89 121 106 168 111 168 42 134 131 92 115 121 117 111 86 115 93 138 86 164 88 167 85 148 201 136 74 121 79 102 148 132 123 132 195 194 127 192 110 212 122 132 85 174 98 160 130 113 101 72 161 175 112 122 128 170 167 114 135 79 119 118 134 104 44 152 100 159 174 89 116 122 144 163 85 48 93 136 134 153 141 128 69 127 
138 129 112 106 123 163 125 85 157 85 98 118 141 143 193 154 209 125 177 66 121 162 83 215 54 76 106 127 186 139 223 139 177 153 197 171 216 128 127 183 100 126 109 90 153 122 141 72 205 104 115 144 143 116 56 71 183 38 104 128 109 125 95 174 168 94 149 135 84 148 163 166 191 90 176 139 135 73 80 128 152 155 89 137 132 142 138 120 110 78 148 106 94 193 110 147 177 95 99 185 
110 139 96 46 140 91 143 115 96 108 134 155 149 137 89 148 77 115 188 161 116 118 186 132 122 72 121 192 172 99 126 116 78 98 29 204 101 108 141 201 183 162 72 168 104 121 129 116 77 161 84 71 135 112 137 121 115 197 117 149 162 92 128 99 118 89 67 163 158 185 102 157 107 139 149 168 90 201 123 165 138 201 71 143 108 65 128 79 151 165 124 134 79 118 130 90 119 124 152 65 
103 74 152 77 73 229 129 155 147 175 119 197 59 110 130 97 70 184 114 131 140 92 134 114 127 101 110 131 171 101 99 139 150 183 34 28 225 150 122 97 142 113 89 140 161 28 68 125 183 85 83 143 149 176 131 139 121 116 123 183 225 94 122 156 137 93 178 38 140 185 106 139 182 142 57 123 146 143 155 95 204 149 103 85 135 101 138 197 80 142 91 167 120 143 162 178 148 129 113 170 
89 158 143 120 114 64 122 140 194 127 119 154 204 232 73 118 156 151 74 106 202 106 96 118 67 132 74 178 53 129 207 39 64 133 98 196 126 179 66 171 186 72 123 92 173 139 165 136 109 150 159 131 121 110 204 113 101 101 139 127 130 45 130 123 133 96 212 108 100 186 131 96 123 108 135 169 135 138 149 162 102 136 209 184 102 98 216 121 85 72 147 117 140 92 172 85 170 80 113 41 
102 227 150 138 123 180 159 123 128 152 111 93 143 127 100 108 101 201 132 209 116 84 157 135 101 106 131 163 145 147 126 168 152 87 168 129 41 188 129 163 116 56 118 190 120 78 118 100 36 118 149 188 226 120 125 145 179 99 168 106 87 197 159 67 173 111 144 63 129 106 123 149 46 74 211 139 127 90 147 138 111 92 118 142 184 122 129 81 81 165 200 116 142 124 188 66 98 141 82 133 
103 73 50 194 103 112 81 76 131 169 119 98 130 107 129 128 175 135 191 54 71 157 130 24 110 193 160 23 104 85 177 119 37 85 113 154 129 75 119 127 111 142 161 87 104 151 175 91 107 123 181 120 137 133 131 76 149 111 108 82 110 117 122 157 70 129 126 119 181 60 173 148 114 60 105 136 55 143 175 130 103 134 121 154 160 204 107 128 142 79 112 136 119 100 96 152 59 180 101 121 
116 86 231 89 130 140 161 153 198 146 144 137 76 124 128 124 115 114 98 98 80 140 125 131 181 98 83 164 98 114 135 116 136 86 136 132 124 126 166 79 151 115 180 80 145 120 205 127 206 63 200 105 95 87 76 67 109 69 68 127 185 155 196 128 209 151 139 60 99 122 209 147 64 139 179 190 144 149 86 149 224 120 211 41 90 81 139 125 137 163 127 196 135 126 206 145 125 107 83 138 
117 200 155 199 73 136 92 26 60 195 158 131 218 155 133 82 150 92 210 150 151 191 161 118 149 142 94 91 154 107 119 65 129 205 52 108 161 152 151 124 180 157 154 206 109 129 85 143 134 87 126 158 100 159 108 64 95 73 132 124 101 96 151 57 135 157 176 86 242 135 127 222 150 147 139 173 123 139 59 128 153 138 181 56 82 139 182 147 101 117 194 105 100 134 103 82 117 154 114 145 
83 197 60 25 104 166 163 160 68 167 149 91 203 64 49 131 137 160 118 132 28 126 131 152 201 103 166 96 92 158 140 166 151 117 63 184 157 192 110 146 136 73 101 51 124 156 114 148 104 53 106 173 86 133 105 173 104 133 135 174 131 97 68 73 113 94 125 175 94 117 44 180 67 78 136 105 173 52 102 126 131 105 54 135 127 161 123 130 169 129 123 173 142 147 95 165 109 126 162 122 
191 65 92 113 77 122 232 171 189 75 82 99 85 141 147 65 119 117 219 176 162 139 123 90 159 97 128 117 126 192 60 133 79 167 130 108 75 99 60 103 127 73 177 236 157 123 129 127 153 98 176 76 165 142 222 124 159 156 40 117 106 144 118 159 194 148 89 151 44 145 201 132 90 123 62 71 74 124 128 109 92 117 124 89 122 89 114 83 142 164 159 151 190 87 121 160 97 42 109 100 
123 80 60 148 177 105 154 128 106 103 99 176 140 95 183 182 118 117 136 160 108 166 153 192 28 92 60 65 141 88 133 150 99 142 99 106 198 173 169 99 73 117 131 81 243 169 114 92 114 153 86 163 96 58 198 70 62 119 151 162 140 122 120 100 92 87 127 202 157 100 184 102 67 123 145 173 105 78 58 115 146 137 97 186 132 186 151 59 169 58 78 31 162 65 183 89 105 153 144 179 
68 115 116 73 161 154 68 52 195 36 158 121 71 152 53 128 144 174 153 137 125 103 232 84 120 121 177 86 48 127 47 123 220 50 174 95 166 218 118 45 123 140 176 90 56 126 117 154 87 185 127 132 148 61 216 134 113 114 138 59 144 141 150 160 213 139 145 27 121 193 150 115 142 134 56 138 138 152 113 68 145 118 125 82 132 154 163 176 135 125 141 136 151 124 72 128 135 49 65 129 
116 178 87 149 143 161 148 148 81 101 26 131 172 111 129 76 202 127 196 122 99 149 156 97 166 74 122 159 131 118 122 153 154 131 71 125 106 99 168 178 186 125 94 71 80 128 112 188 175 34 111 91 142 116 105 79 144 135 145 117 141 98 96 161 124 84 62 176 152 106 93 35 224 213 69 34 145 96 211 72 49 112 108 171 114 111 111 73 170 72 208 133 69 111 89 151 153 49 168 221 
200 157 115 124 142 110 100 27 99 167 152 180 124 136 95 53 87 137 150 87 135 130 116 115 162 90 92 51 24 152 88 178 94 99 142 96 95 129 132 199 147 168 175 147 171 148 97 90 107 151 98 129 103 114 163 149 82 133 173 107 108 191 148 132 161 76 146 152 102 152 68 159 121 131 151 118 87 149 126 95 163 115 171 87 148 81 144 146 163 164 171 192 144 199 154 174 171 97 155 88 
95 130 117 138 85 121 174 190 129 57 167 123 160 132 147 89 175 144 123 88 94 69 89 168 143 105 76 131 157 112 53 145 137 64 83 94 188 73 110 169 129 127 132 183 37 151 149 131 220 176 158 134 142 98 180 93 88 114 170 216 161 120 84 95 44 113 60 49 184 150 108 171 94 169 62 64 125 144 98 213 107 171 159 91 127 219 153 112 95 186 53 86 55 152 132 114 91 129 117 128 
71 112 66 169 115 142 135 139 130 225 113 140 97 20 123 149 168 96 63 137 167 114 149 109 129 95 155 97 165 158 104 130 148 180 113 105 133 106 127 211 130 152 113 195 123 128 124 77 149 123 134 91 137 148 121 117 84 100 122 117 177 188 109 131 129 194 91 173 194 111 154 65 122 162 119 108 77 144 87 172 125 99 186 132 100 159 93 100 228 134 123 158 57 97 88 125 117 88 132 90 
114 127 131 114 134 89 166 175 139 120 113 174 134 134 169 130 102 91 82 143 141 176 132 160 90 176 125 191 68 143 111 75 62 72 166 35 65 147 68 73 139 200 90 189 161 123 118 167 123 56 131 140 146 172 190 138 103 116 128 141 90 119 215 128 138 147 146 115 117 155 184 132 107 136 126 94 115 120 176 150 196 120 69 128 107 205 103 137 102 133 84 88 141 201 129 103 178 91 226 112 
139 121 107 80 213 49 91 158 119 126 123 119 131 104 148 164 88 104 118 110 135 181 98 134 228 95 154 177 177 208 105 131 104 153 38 150 117 152 145 111 94 165 160 180 125 150 125 111 54 95 88 158 66 65 147 107 187 170 56 98 154 143 198 172 174 120 122 124 58 110 107 181 137 100 207 116 147 117 130 178 133 133 99 179 146 107 157 148 103 92 74 121 160 132 99 148 134 142 128 117 
127 121 113 127 141 154 147 50 51 99 177 71 103 98 124 118 133 122 192 128 156 118 127 113 132 117 99 147 150 103 117 115 184 93 158 80 82 183 121 36 95 84 119 120 104 137 143 164 182 169 37 191 114 132 102 54 81 57 94 154 143 123 221 110 142 76 117 196 164 146 130 132 151 158 105 32 146 113 141 174 118 103 129 68 95 135 110 161 117 74 226 100 158 142 130 123 158 98 89 88 
167 182 201 81 201 204 140 188 146 51 175 74 71 195 128 129 119 155 97 134 123 77 115 111 98 114 63 51 131 232 148 55 114 123 88 147 32 108 108 128 76 140 122 118 111 126 128 147 48 152 162 129 116 150 144 110 103 92 172 146 83 219 135 131 114 125 150 107 180 27 112 171 145 128 93 197 139 35 121 218 108 158 130 160 166 116 71 224 144 102 114 48 153 168 187 164 50 185 197 87 
112 181 132 98 166 92 138 189 111 65 69 199 99 69 211 107 129 94 72 103 198 138 139 148 96 182 122 112 112 109 190 175 80 117 159 133 146 143 157 125 113 164 140 213 57 132 91 126 204 72 162 128 98 168 212 147 190 190 94 104 124 145 126 100 82 123 127 75 77 124 168 101 163 125 118 132 119 146 166 201 117 73 138 212 114 129 113 57 100 114 128 125 182 103 100 124 152 92 46 150 
95 128 133 201 135 148 90 120 117 167 108 157 148 133 162 130 155 140 98 116 110 130 104 133 91 138 140 138 162 154 149 66 55 152 160 194 108 112 88 140 105 15 91 119 102 217 35 128 182 118 218 149 154 146 143 113 97 78 177 151 107 128 84 183 179 100 91 107 141 74 105 169 52 98 163 146 124 155 206 139 95 93 74 185 132 208 194 181 172 155 193 163 179 132 228 44 100 100 109 148 
119 214 44 170 73 162 163 109 161 117 126 97 86 146 149 116 61 163 66 160 100 98 155 104 42 187 114 145 134 71 75 82 129 212 157 160 104 120 187 107 133 118 117 112 83 171 147 140 125 124 133 137 41 106 146 92 123 157 114 165 74 87 171 56 129 54 154 91 61 134 117 130 153 150 151 134 171 121 130 59 95 133 129 29 155 143 87 152 143 138 189 157 193 111 102 111 119 129 85 113 
117 184 234 104 169 123 100 60 229 113 189 115 138 118 51 125 164 127 69 68 152 120 111 106 55 143 169 133 123 77 89 34 115 133 20 107 159 102 119 108 152 192 121 120 75 57 145 138 157 177 176 152 93 153 151 125 174 150 192 48 73 194 151 129 143 95 140 136 100 163 151 54 117 72 85 57 140 127 125 134 145 126 23 88 197 116 169 103 92 68 94 218 158 96 110 135 125 187 178 160 
100 138 161 127 114 142 151 133 90 81 87 132 114 88 156 120 73 125 118 74 161 80 63 113 219 57 107 113 154 132 35 83 175 92 95 124 138 154 119 213 125 179 146 139 181 125 98 135 116 128 87 119 55 156 94 164 151 114 123 119 122 189 80 115 158 90 132 125 171 185 116 133 104 135 144 76 104 151 197 180 162 109 99 126 101 98 155 83 153 117 162 155 81 108 114 119 132 156 97 142 
180 122 72 168 151 169 114 117 144 51 40 90 136 95 229 101 78 151 109 115 106 131 211 77 101 178 99 129 78 134 133 113 117 100 135 172 114 70 146 122 104 129 113 117 119 172 121 195 107 126 151 113 123 119 177 105 107 156 165 116 136 71 134 177 154 185 152 170 143 205 111 135 166 133 132 202 128 140 166 104 169 105 118 132 98 177 137 58 112 152 88 60 121 168 77 159 116 148 166 129 
28 46 101 121 147 95 151 146 154 194 137 105 28 204 124 127 130 136 133 141 225 131 121 54 126 174 144 36 113 125 104 163 169 66 143 87 153 155 140 110 117 74 96 27 103 145 136 138 92 180 82 98 148 126 80 108 196 59 140 134 115 175 131 151 59 77 187 157 107 53 72 47 83 98 47 89 85 116 155 131 132 105 203 181 120 67 124 122 94 131 95 144 126 144 20 83 90 121 123 48 
129 75 115 176 125 166 100 72 143 170 129 122 137 179 112 174 158 126 69 137 128 71 213 103 213 110 195 138 99 158 159 158 160 129 57 136 74 106 171 99 120 129 72 176 121 125 98 183 136 146 143 117 138 75 133 198 104 125 119 94 97 141 136 58 144 100 182 135 82 109 159 107 91 132 111 105 49 196 117 117 71 198 152 139 102 79 96 101 173 37 3 133 147 121 164 97 121 50 184 124 
86 122 150 186 70 148 170 144 117 206 119 169 72 96 132 145 95 142 129 107 33 184 108 59 186 169 177 191 155 26 129 160 193 122 137 132 107 80 123 109 89 142 113 105 177 183 114 159 205 42 90 130 133 164 151 164 149 101 94 125 114 30 96 124 112 100 134 221 130 77 181 102 145 150 194 112 139 69 203 165 163 208 164 129 190 167 80 150 134 133 165 91 160 125 130 77 71 168 92 59 
72 103 120 189 146 108 144 136 69 94 135 86 146 87 114 142 170 92 142 158 145 119 124 162 141 132 88 154 104 78 161 105 122 130 133 110 138 200 48 118 115 88 147 128 130 161 77 81 173 25 164 134 143 217 73 124 53 78 105 141 141 215 131 70 89 115 112 145 98 211 65 104 144 131 157 120 170 144 131 174 127 118 166 118 118 16 91 175 108 129 129 112 81 103 188 141 144 87 211 225 
172 160 155 118 99 78 197 119 148 118 74 133 66 116 102 111 184 109 124 108 200 61 158 159 76 168 75 63 246 206 101 148 109 135 106 163 126 85 88 135 214 127 183 107 164 41 121 112 51 147 92 63 138 106 67 140 116 152 106 80 124 55 95 99 107 107 100 43 112 178 168 121 101 164 98 149 85 97 177 163 128 143 90 143 137 88 159 139 190 133 115 46 141 107 205 126 149 132 168 81 
133 156 67 145 139 125 57 125 120 89 84 98 95 169 103 122 232 120 124 54 148 135 120 126 126 121 135 108 114 116 116 20 118 40 171 174 131 103 171 127 58 117 114 137 49 121 114 119 93 80 110 148 157 140 128 158 112 152 117 126 98 58 143 47 140 128 127 126 159 128 144 228 140 153 170 207 183 39 141 107 99 63 120 67 169 121 126 146 81 116 119 157 64 75 57 120 87 70 119 170 
122 108 75 118 120 225 120 136 141 178 129 195 55 70 128 116 155 198 139 165 67 127 148 60 161 138 107 111 119 119 180 39 65 124 83 161 200 152 128 76 111 123 141 130 77 174 155 125 126 97 62 41 59 152 118 136 124 88 120 85 81 160 126 112 146 169 164 194 116 76 120 112 211 161 155 144 59 162 103 133 105 177 178 79 121 128 134 63 135 114 149 123 118 133 180 105 113 163 114 72 
58 107 191 140 103 83 144 88 112 126 25 99 39 184 157 115 58 127 121 136 74 109 106 108 214 153 79 188 96 111 73 112 175 37 185 118 81 100 151 140 164 86 75 132 128 169 138 164 124 91 139 143 155 96 173 128 77 105 143 217 101 122 207 67 117 190 135 155 171 146 114 166 90 103 154 108 105 147 124 71 131 96 117 110 127 149 98 131 158 145 158 129 125 107 121 33 102 101 83 194 
179 122 96 110 105 92 165 157 161 106 120 103 92 116 99 76 131 219 131 148 164 82 122 69 99 145 179 114 107 126 152 220 208 109 105 84 166 216 152 127 103 99 157 209 144 159 122 151 49 112 67 101 193 94 91 130 168 207 147 159 144 139 67 113 119 139 150 109 156 122 132 131 96 168 115 67 148 65 98 73 108 186 163 175 130 156 105 133 64 145 176 133 130 160 87 60 109 94 158 121 
128 64 141 119 143 115 189 215 187 177 86 131 167 154 115 132 57 57 158 179 199 52 111 112 142 134 142 95 128 110 73 125 183 123 133 199 174 90 138 169 57 159 145 146 162 149 137 91 86 190 119 116 120 162 150 132 156 184 163 136 152 188 149 114 104 94 185 159 146 133 169 178 164 52 104 199 102 105 109 156 169 132 111 93 118 132 184 193 143 107 48 65 218 134 130 93 67 139 127 173 
120 74 116 128 119 66 177 105 204 161 169 69 123 102 137 109 137 151 57 131 171 172 206 177 143 164 226 168 99 81 103 171 137 83 115 127 122 149 213 27 169 64 122 112 141 75 166 193 140 149 132 131 134 148 159 101 132 82 117 164 200 158 103 180 202 152 136 194 196 189 132 120 73 135 92 119 48 124 126 67 130 116 199 135 97 131 83 174 100 104 125 142 134 140 81 104 82 25 142 149 
85 141 142 99 59 89 200 141 153 197 60 105 68 134 126 164 127 117 142 109 128 126 118 91 150 181 126 94 174 152 118 179 91 155 113 125 210 168 119 161 22 149 130 131 109 139 168 178 227 104 65 93 97 152 108 135 156 80 143 102 104 141 205 112 103 116 92 156 115 112 122 132 157 156 144 220 147 118 121 155 162 101 82 182 133 97 185 42 45 73 98 134 131 186 117 130 126 149 228 78 
145 136 125 36 172 109 137 110 163 129 88 106 178 115 140 204 154 140 159 176 106 53 150 77 73 120 155 122 133 184 161 162 153 156 107 195 136 140 134 104 117 84 62 45 113 82 51 54 180 170 106 161 147 123 159 151 115 66 127 90 157 133 90 171 54 54 93 208 146 142 174 113 181 116 51 139 117 123 194 59 110 193 113 89 88 125 103 149 93 138 125 151 176 122 186 85 139 31 75 137 
171 139 54 112 159 124 86 46 128 147 147 180 78 135 131 179 146 105 104 171 155 121 76 171 69 115 115 188 137 68 150 141 124 44 81 99 210 26 168 134 171 126 112 73 107 131 196 144 117 95 165 73 198 38 211 105 46 138 132 132 200 94 143 145 161 84 163 119 168 106 120 162 155 131 131 97 90 126 149 89 70 158 120 110 174 193 44 133 179 152 95 124 103 166 182 146 104 169 161 134 
112 129 69 149 136 167 97 121 92 156 158 128 66 135 128 199 172 110 79 130 140 102 111 148 144 49 95 68 115 66 169 141 122 32 141 132 118 216 147 91 183 145 169 170 119 154 77 92 111 135 91 145 161 88 135 211 137 86 159 156 114 141 159 136 120 147 136 118 178 55 89 98 106 166 90 227 167 166 67 82 125 201 136 135 102 110 121 85 125 70 140 76 161 126 52 158 119 73 111 146 
101 110 154 139 169 172 162 116 127 65 155 127 122 89 190 123 105 118 123 128 153 75 165 70 117 68 102 201 150 144 122 163 168 15 174 228 106 197 108 164 117 156 200 155 153 161 185 96 111 87 107 135 196 137 196 100 55 117 112 120 211 207 109 83 144 170 91 92 94 138 149 172 131 143 135 126 122 150 143 175 80 192 138 234 159 192 131 80 56 93 133 144 61 164 151 173 130 149 118 147 
135 101 99 146 90 51 64 101 104 164 105 46 35 132 119 117 77 147 122 126 70 164 173 78 123 84 151 170 162 133 134 155 55 125 94 151 149 127 95 115 134 231 114 107 83 75 76 223 152 69 127 144 129 148 43 69 186 166 132 99 119 60 153 144 125 108 132 143 204 171 118 115 158 127 170 112 188 56 110 119 185 102 128 123 94 154 145 74 132 84 120 172 103 211 126 149 112 164 81 76 
185 131 172 146 148 119 137 70 184 85 126 168 116 145 142 45 130 90 80 160 103 166 37 187 169 101 186 135 116 95 183 142 95 163 89 141 75 143 70 126 149 115 56 144 129 136 143 109 122 138 172 45 159 143 117 129 131 72 144 192 208 154 110 229 122 138 135 111 148 131 113 183 91 90 123 144 132 213 123 159 157 66 43 132 157 136 159 115 179 138 90 169 88 173 73 132 134 119 186 113 
144 126 120 146 208 124 124 141 147 76 156 139 196 95 152 147 185 89 124 117 95 136 17 127 195 102 95 119 125 64 194 130 133 106 95 112 122 120 79 98 147 138 137 114 99 53 89 170 201 65 122 92 194 191 98 130 165 130 150 145 188 137 99 90 144 37 102 149 135 96 215 139 170 176 105 137 106 135 96 131 135 185 122 196 97 190 94 101 115 119 150 165 92 86 99 114 118 140 145 142 
177 176 91 135 161 139 60 109 152 122 108 168 121 155 133 88 152 141 192 104 198 117 130 109 109 125 133 132 67 75 120 90 126 87 169 112 190 90 143 69 170 61 103 107 202 126 79 123 173 78 83 131 175 165 236 151 187 103 120 65 128 205 119 123 163 58 153 132 86 213 136 58 228 182 164 153 119 136 105 134 145 218 216 53 176 230 66 139 170 98 67 61 182 138 142 120 171 92 91 220 
152 152 111 102 148 102 127 75 147 160 145 114 174 164 92 104 124 140 133 182 154 106 101 142 60 77 71 186 127 94 188 173 42 123 135 147 105 108 216 129 69 99 92 151 83 162 215 140 47 204 174 144 144 89 213 141 69 83 127 75 160 148 141 70 127 94 97 176 159 144 158 207 124 172 195 80 192 101 105 166 145 156 174 120 125 137 140 154 152 155 175 28 127 131 128 124 221 51 170 112 
98 90 147 196 107 150 139 184 103 127 118 141 108 168 125 110 131 118 115 65 154 93 198 203 153 116 138 135 78 123 108 211 181 139 137 139 175 141 225 224 106 101 102 152 130 162 39 106 133 101 122 133 111 166 153 128 156 101 85 124 98 58 102 188 122 148 126 124 154 13 113 111 117 182 135 95 97 144 157 120 33 132 159 130 157 180 131 141 186 160 116 90 175 188 149 95 162 125 143 76 
130 148 107 148 136 38 157 159 126 133 158 40 125 81 207 99 109 68 72 125 114 182 194 168 139 59 136 105 101 165 114 112 119 93 103 165 169 92 86 95 87 91 55 112 77 169 142 36 138 159 130 112 85 97 118 187 117 74 121 103 128 126 107 66 63 98 87 78 108 96 125 103 120 151 136 160 128 104 171 84 118 111 169 72 130 108 124 176 220 88 145 125 179 146 194 163 105 120 60 136 
136 109 153 85 111 190 137 22 152 83 189 151 121 149 121 178 78 29 165 215 164 107 115 119 114 99 149 160 127 87 147 107 166 129 158 132 113 118 120 148 155 144 135 190 130 78 179 205 93 102 137 109 124 165 77 135 155 208 106 193 114 136 134 174 149 122 97 204 125 79 181 146 135 159 167 149 128 68 59 128 206 112 103 54 116 146 211 220 176 75 50 33 176 112 167 163 95 149 117 186 
215 134 141 164 80 127 117 110 99 54 177 168 135 94 113 102 92 169 158 43 27 194 141 112 83 136 138 75 151 142 213 142 97 113 134 181 134 41 127 139 102 146 193 148 173 163 178 133 151 190 106 115 202 129 88 43 170 146 131 140 148 89 173 163 125 118 237 179 134 125 219 133 75 91 129 122 137 102 168 54 152 160 232 143 126 181 167 107 130 123 108 91 135 146 213 120 126 108 145 91 
128 139 105 117 211 22 173 169 178 141 139 134 127 97 42 95 189 180 139 199 86 124 98 121 122 191 147 205 62 91 71 119 182 137 80 124 190 151 115 118 86 110 168 105 101 159 79 190 186 41 82 157 87 125 80 90 140 115 160 38 226 149 122 106 221 103 111 182 60 66 177 135 130 169 157 182 132 122 122 131 165 152 224 10 229 135 89 121 170 123 83 129 175 80 55 205 130 127 125 50 
101 95 165 161 99 134 58 125 103 185 80 88 198 112 175 101 194 145 77 140 159 135 61 112 94 121 99 203 94 158 212 123 141 135 166 102 145 131 83 126 146 174 117 169 128 149 167 125 89 117 101 111 115 110 163 141 164 120 79 36 138 165 66 163 25 150 213 119 161 232 85 94 122 157 174 61 118 155 83 81 147 117 54 107 164 140 81 146 105 156 82 174 178 124 121 117 103 83 87 83 
176 154 84 68 205 151 159 114 138 126 166 131 132 93 150 106 76 107 179 122 181 196 126 203 34 153 148 90 163 107 117 132 95 114 136 103 136 232 149 153 146 110 226 176 109 194 120 198 116 152 97 100 122 61 174 128 38 121 103 166 159 142 140 127 109 143 131 113 178 180 119 184 151 94 146 101 117 114 77 181 103 164 147 182 135 29 142 214 128 46 132 74 141 144 98 116 91 104 196 138 
135 82 152 124 146 158 112 156 115 171 114 210 169 154 172 100 160 36 62 155 190 133 143 162 123 122 147 141 180 147 79 84 158 139 129 152 160 111 91 142 117 141 126 143 209 167 160 139 171 120 113 75 186 98 32 87 111 63 55 121 84 102 131 146 20 121 124 52 91 138 77 155 119 129 208 154 44 193 196 184 99 59 74 108 90 180 96 76 78 94 85 71 135 165 169 68 131 129 160 114 
195 130 120 138 130 98 99 106 38 142 56 153 82 169 77 108 199 138 174 121 104 96 36 138 67 115 109 162 143 98 192 103 117 112 34 134 225 172 99 134 141 157 103 137 149 100 170 127 177 131 181 154 136 147 134 145 140 150 43 146 154 74 141 158 100 77 81 95 152 159 138 122 124 132 92 78 153 117 105 90 190 88 150 152 134 164 161 118 114 154 145 140 120 193 119 145 94 153 162 164 
116 121 140 61 48 84 74 83 94 81 34 121 98 112 82 191 131 143 83 158 107 143 150 173 158 156 113 90 112 73 142 111 182 158 175 107 178 84 128 86 142 162 170 155 107 176 128 125 85 107 84 140 191 147 151 127 113 155 87 172 112 118 117 118 88 54 120 124 118 148 157 109 154 98 137 125 215 157 63 127 187 188 33 170 116 132 127 111 126 123 160 100 118 151 108 124 145 175 109 121 
69 46 53 94 132 158 217 60 140 155 83 124 65 135 81 110 154 101 99 33 137 86 168 151 113 74 83 115 108 87 117 102 113 111 46 118 71 202 116 123 146 151 100 167 137 114 95 153 106 172 110 88 132 146 131 100 144 66 140 78 146 122 174 174 137 187 81 199 123 55 33 28 98 89 124 190 78 76 178 138 78 79 126 155 111 182 144 101 119 118 114 124 187 87 165 124 161 89 77 108 
176 179 164 147 124 179 93 162 74 101 114 137 82 64 125 132 109 117 123 119 69 157 117 84 109 181 91 152 91 140 109 112 174 182 129 129 193 159 71 140 145 99 153 119 129 112 176 89 132 147 105 134 162 129 110 118 155 135 103 135 110 27 76 207 130 93 171 147 178 148 96 125 177 190 100 147 65 48 232 166 140 115 104 114 122 216 147 88 137 83 140 129 140 219 178 211 188 87 105 61 
92 201 118 188 85 139 113 126 103 166 151 136 124 83 74 148 119 132 111 142 76 139 37 139 192 94 173 168 89 119 143 75 73 41 100 124 52 130 31 134 146 66 169 131 144 188 178 69 119 83 87 193 89 111 117 37 69 63 74 114 161 176 161 198 99 153 98 29 120 101 46 214 185 133 170 150 136 76 87 70 102 62 84 125 78 149 188 112 136 101 87 126 36 143 111 186 121 114 169 90 
137 126 110 129 146 103 141 148 139 129 134 179 76 131 185 211 157 130 172 111 124 119 115 148 35 89 108 174 107 97 145 55 165 92 146 191 127 73 116 50 163 131 134 107 75 84 69 161 92 127 74 205 77 199 121 199 187 132 156 157 154 157 114 128 176 171 131 112 104 89 41 132 117 78 96 149 129 118 111 37 107 98 129 139 210 111 53 174 111 129 101 125 92 154 71 163 132 146 119 161 
129 235 175 177 110 127 111 147 123 98 134 134 170 191 94 94 103 105 169 115 44 123 200 134 143 60 180 221 131 93 117 153 164 116 168 147 154 137 105 81 120 178 125 111 122 102 116 213 176 194 164 167 105 175 71 139 90 92 25 136 131 70 60 33 146 114 126 156 90 44 116 145 69 116 211 128 109 124 98 52 188 58 168 71 62 125 127 102 215 110 95 157 189 131 178 112 170 109 130 82 
112 146 104 145 121 148 145 103 67 65 145 129 113 210 130 127 92 162 153 175 136 194 132 117 95 139 138 144 151 127 152 166 152 88 140 20 147 117 126 44 102 152 83 167 168 129 157 209 132 71 109 140 159 188 129 89 83 124 81 103 63 95 122 74 80 104 114 112 120 126 194 209 118 123 212 78 126 135 146 92 161 182 181 67 130 109 143 112 174 149 84 119 133 96 138 164 179 144 82 83 
60 157 86 132 93 109 232 128 154 95 108 118 134 178 132 93 107 188 205 70 110 78 173 61 96 145 54 144 118 62 26 117 195 160 159 142 143 139 83 201 176 133 123 147 122 127 146 168 200 130 172 140 89 140 151 102 111 158 164 142 44 197 134 153 105 78 212 100 93 98 197 123 181 69 171 180 86 85 136 122 135 121 122 165 117 108 210 114 166 155 163 98 101 135 137 77 165 53 66 157 
107 155 144 132 153 31 148 212 219 122 155 73 225 78 183 217 184 101 110 96 51 117 113 29 172 76 167 171 55 134 139 129 134 28 44 62 95 139 138 87 116 58 102 168 37 115 139 178 177 103 205 74 39 101 129 73 120 121 162 58 138 154 136 197 161 101 100 109 178 188 82 183 90 100 140 123 122 94 119 178 221 137 106 157 45 115 120 145 148 111 61 126 230 93 114 184 100 134 140 178 
78 124 143 142 134 31 124 108 162 250 155 120 140 65 152 105 87 157 213 139 89 115 112 161 127 82 153 104 130 207 129 123 110 100 200 110 118 164 143 84 108 171 170 115 93 154 113 127 183 90 117 76 125 105 74 166 65 141 95 133 168 133 84 93 109 139 87 141 202 190 69 145 91 153 135 174 135 132 159 149 193 153 158 192 194 98 125 190 108 134 111 180 162 106 216 124 179 162 136 85 
153 190 68 61 140 76 191 100 97 136 90 117 107 174 59 135 229 153 199 168 119 24 124 123 155 178 131 111 132 41 94 160 115 148 179 139 101 112 183 40 163 97 130 136 102 143 131 97 129 98 178 106 97 140 89 144 110 182 73 157 72 190 123 147 85 50 172 152 178 136 111 89 166 75 93 164 96 114 112 197 143 102 187 165 221 90 189 147 94 134 94 29 148 132 37 109 117 131 173 153 
98 168 77 211 179 142 97 68 113 159 113 98 157 159 57 204 163 103 114 101 105 120 121 103 178 164 131 93 114 163 115 116 134 159 132 58 61 142 139 106 174 105 172 174 184 175 56 83 171 133 144 235 97 145 101 155 72 123 76 204 121 153 105 93 129 196 209 120 107 17 120 126 83 135 134 167 113 84 129 110 108 146 107 129 81 131 98 115 133 143 140 194 147 92 162 145 134 44 136 103 
139 153 94 82 121 172 196 58 149 184 148 86 79 67 171 179 124 130 147 65 50 161 182 75 128 142 93 133 191 198 178 145 139 97 128 150 126 191 196 145 207 117 124 103 136 153 177 114 175 117 63 109 162 130 118 96 108 106 166 58 202 126 124 64 124 110 154 161 123 142 160 55 101 107 112 57 178 161 68 105 82 78 56 57 174 144 135 177 54 126 107 206 124 164 92 114 136 89 134 178 
131 143 142 111 109 121 95 161 139 140 170 73 96 95 110 186 175 169 136 133 63 168 224 132 93 142 96 125 48 144 179 165 123 145 132 117 61 120 170 178 122 165 130 48 103 112 108 123 95 80 182 60 204 99 131 163 71 172 219 151 116 92 51 142 148 106 114 149 115 89 122 137 169 38 57 132 178 98 108 160 131 174 128 101 109 145 207 147 62 125 139 158 125 75 96 111 71 48 163 147 
136 130 144 151 184 199 102 132 132 194 126 109 145 122 76 95 104 156 104 212 82 130 24 123 97 100 193 124 122 113 97 163 157 109 116 112 124 153 94 107 126 97 142 205 74 168 151 135 82 117 177 156 167 32 135 98 134 161 97 159 91 150 132 145 137 78 183 47 88 80 80 155 172 95 60 104 194 92 113 157 70 98 82 134 178 105 168 106 185 109 95 114 126 161 68 157 117 122 195 113 
75 116 183 119 118 175 142 79 194 113 76 131 131 73 187 127 76 154 186 128 125 107 142 77 132 107 119 156 106 66 132 100 182 150 121 132 87 72 164 139 169 197 183 131 155 161 123 67 79 184 192 146 86 116 64 66 160 156 200 139 151 81 85 115 150 105 99 93 75 200 134 109 138 95 145 117 138 187 177 124 76 62 113 173 130 209 79 178 141 132 157 142 64 207 139 59 142 99 69 184 
151 64 121 120 125 206 174 133 99 100 155 149 165 125 120 158 133 94 126 131 97 128 134 106 165 166 187 81 70 138 163 163 151 37 124 49 44 94 159 114 125 170 139 55 110 151 40 62 138 157 112 100 157 135 152 195 106 69 173 138 166 117 110 76 176 142 105 107 107 105 118 113 100 152 205 31 131 139 142 189 82 181 220 114 124 100 125 109 87 182 80 131 55 118 108 127 132 222 164 116 
57 153 117 149 112 112 129 132 117 76 146 74 138 164 142 151 146 108 163 48 119 197 99 115 46 67 140 115 82 65 146 144 131 100 120 157 97 56 202 132 119 104 131 111 88 95 119 115 100 104 108 99 111 66 174 138 167 143 94 37 58 138 228 125 105 117 115 115 120 103 212 78 150 90 188 100 143 114 143 121 125 52 151 72 121 154 99 133 129 101 170 115 164 96 110 91 102 116 125 94 
73 50 138 143 98 89 172 115 115 111 65 245 49 30 141 113 153 106 91 112 91 182 146 162 138 161 172 118 82 150 139 164 132 168 81 122 153 147 74 167 157 144 79 103 169 160 41 153 77 101 181 232 195 155 149 108 120 128 129 67 96 99 69 134 129 182 149 112 84 165 96 103 188 93 169 89 78 148 100 90 119 122 135 132 108 132 233 148 83 75 103 179 179 132 118 118 142 49 150 146 
38 120 156 187 38 84 46 74 159 149 133 151 81 134 130 136 11 72 143 167 84 176 99 157 98 185 130 157 188 165 123 134 99 193 88 144 129 147 113 150 90 47 119 202 140 128 85 77 100 150 98 119 84 137 62 112 144 98 189 132 25 210 134 117 94 154 197 140 43 156 150 138 100 104 89 92 87 197 193 117 209 138 230 169 107 60 175 73 65 143 120 133 160 113 143 142 80 121 153 160 
92 127 86 179 130 107 69 187 106 151 125 140 120 166 188 138 142 152 167 132 121 130 139 171 181 205 124 83 89 118 124 157 107 195 102 36 73 118 40 45 143 132 135 95 162 189 92 144 127 205 42 163 138 115 55 37 138 117 99 146 177 131 108 166 132 117 90 124 138 87 157 151 87 133 113 162 140 43 111 82 123 108 46 139 169 103 157 188 73 118 70 126 123 90 108 116 120 25 102 179 
163 105 76 158 181 175 154 135 62 152 98 62 101 182 65 122 198 142 135 44 70 149 129 147 100 160 167 160 139 137 77 117 167 95 155 127 94 156 122 192 190 106 106 95 107 187 179 130 129 131 199 126 208 178 134 127 121 118 159 90 127 145 76 108 103 154 90 176 80 181 201 127 160 131 113 160 182 192 130 126 96 62 140 153 105 175 140 174 200 90 180 137 124 107 117 60 126 113 152 113 
95 70 137 93 129 103 120 149 121 91 144 56 111 34 198 88 172 176 116 161 125 144 157 132 126 181 125 80 63 174 151 124 78 58 102 73 136 122 150 117 122 126 134 216 126 115 131 114 113 133 91 100 154 170 102 159 86 78 88 198 159 138 189 178 112 80 117 111 142 175 110 98 122 176 77 125 100 82 71 137 86 127 116 39 142 139 94 133 119 66 181 142 98 123 139 153 145 138 35 92 
121 152 142 150 177 129 179 164 104 101 129 73 132 136 116 119 101 120 81 111 66 140 171 98 97 104 141 38 114 86 149 108 99 126 125 123 71 81 126 100 99 108 214 71 51 80 140 125 200 114 112 125 161 150 146 184 131 122 133 153 113 125 182 154 88 119 80 199 86 105 85 103 167 66 55 146 93 46 95 75 115 107 131 93 138 213 134 138 151 124 93 40 97 103 119 175 119 140 178 149 
131 82 139 152 190 131 144 142 80 193 107 77 140 86 97 227 132 192 203 48 148 145 123 161 173 216 184 148 197 237 94 134 113 89 127 183 66 138 92 124 194 116 52 166 115 168 179 111 61 123 54 205 109 134 50 175 86 174 141 91 53 121 104 122 154 189 117 93 125 76 125 143 118 124 100 106 119 147 95 164 161 168 234 91 115 103 142 145 139 134 123 157 128 168 123 53 121 97 126 121 
63 149 140 125 33 125 109 106 142 120 83 98 71 96 55 85 101 172 199 108 189 79 150 84 112 119 138 139 108 139 110 123 61 138 137 103 93 157 133 89 131 120 81 61 152 122 158 113 85 100 172 133 111 151 113 219 134 190 195 79 175 80 184 63 157 127 150 148 147 155 52 148 79 79 131 113 121 80 110 22 148 196 104 69 79 163 144 61 169 77 138 163 105 125 160 117 125 87 114 103 
135 110 123 163 117 128 133 135 46 120 201 141 119 136 108 186 123 123 170 143 77 203 189 129 89 107 60 119 95 89 135 143 223 114 87 188 145 65 98 177 128 61 113 123 139 132 178 84 138 131 125 151 146 183 132 132 134 104 132 156 141 146 127 171 170 107 103 85 143 90 126 80 154 84 89 133 118 67 41 146 105 133 160 102 58 133 109 118 153 172 154 138 50 94 110 174 153 144 115 105 
98 105 146 78 129 115 165 137 100 167 173 103 169 154 125 145 66 145 133 119 133 118 132 105 102 111 175 65 180 107 159 115 176 159 133 68 127 165 122 151 122 68 113 146 123 122 117 122 160 157 134 117 127 175 142 133 133 89 150 147 118 125 145 121 133 109 136 148 109 142 133 86 130 181 135 150 116 83 110 143 116 133 143 166 134 37 141 174 82 175 101 89 140 116 92 80 152 142 30 119 
101 169 178 117 111 193 165 137 174 105 122 130 125 138 199 119 167 106 137 126 119 149 70 146 67 179 133 51 152 126 105 91 27 104 78 176 60 174 104 171 131 154 176 166 122 147 180 119 163 66 111 168 129 139 154 147 144 124 124 186 121 116 108 112 113 169 136 117 111 124 165 132 174 153 124 104 94 196 126 60 148 105 178 131 70 122 75 81 152 201 95 164 120 78 123 114 122 128 112 96 
172 149 131 106 106 176 67 56 80 107 165 144 106 146 133 163 138 78 131 175 42 199 158 105 72 50 59 194 145 114 98 165 142 154 183 201 121 179 123 94 135 175 163 193 156 96 157 103 128 102 75 105 131 134 97 189 58 133 94 60 118 133 67 137 67 129 78 122 126 115 104 167 187 105 198 136 150 123 62 155 177 103 191 115 103 143 128 188 95 123 122 148 84 120 48 135 137 114 100 177 
119 165 81 113 109 178 150 105 139 139 157 73 89 128 126 125 156 88 129 119 109 75 118 196 44 57 58 163 75 139 140 124 118 69 123 186 147 132 100 88 141 160 104 143 136 105 82 137 136 186 113 123 100 84 120 127 114 174 142 179 126 109 83 95 128 190 159 188 136 80 116 215 121 86 99 131 141 128 200 175 105 152 188 190 127 130 77 61 85 75 107 150 143 129 158 154 135 171 140 152 
105 95 100 163 129 167 160 185 113 147 172 138 208 75 105 93 92 165 126 124 135 182 122 109 95 132 68 144 103 118 178 78 176 131 44 91 139 199 185 210 166 109 78 197 137 171 119 111 59 83 99 127 115 100 146 101 106 30 143 146 125 112 190 142 124 161 78 161 157 92 151 183 203 117 122 82 78 83 135 132 122 146 117 159 138 40 141 107 99 114 131 78 107 149 87 119 161 100 192 145 
89 133 86 39 94 103 90 129 166 97 136 118 190 177 64 124 107 147 109 214 123 96 149 187 75 156 53 97 226 80 187 141 132 91 146 153 131 86 109 137 129 147 168 200 160 193 154 118 171 146 185 135 111 155 184 126 146 222 131 127 59 142 145 138 58 51 86 156 72 98 138 144 211 212 54 223 121 98 129 74 159 140 175 119 124 155 111 125 107 180 145 27 139 172 118 125 177 160 151 171 
166 121 124 140 166 29 152 224 141 80 71 188 110 33 38 167 198 200 87 145 136 141 77 185 86 134 165 95 126 174 133 143 78 106 124 156 123 122 169 78 115 121 151 147 149 90 204 122 117 150 129 118 108 38 185 131 70 128 143 130 93 112 169 119 102 203 47 120 194 55 47 194 131 127 153 67 73 228 164 92 137 32 189 106 139 113 190 152 121 123 113 121 153 148 121 100 180 125 106 65 
127 145 173 87 93 134 68 172 119 142 167 167 135 166 120 69 156 68 131 172 183 196 114 114 93 184 162 123 85 97 59 137 115 87 78 149 23 142 83 55 77 127 199 57 192 132 177 130 82 129 163 46 34 107 127 87 97 80 69 105 154 129 65 100 167 137 100 125 135 139 168 154 99 189 84 121 158 148 130 105 191 124 176 108 95 87 45 70 124 75 136 100 125 56 49 176 168 133 26 194 
167 122 146 157 127 82 211 105 176 97 135 99 171 143 94 205 129 164 169 88 157 156 92 158 128 108 77 143 56 81 106 165 153 111 162 126 76 120 138 187 141 88 50 89 73 89 164 176 199 104 92 184 176 173 194 132 123 116 123 181 165 136 104 125 114 112 138 172 106 175 105 79 118 140 129 141 114 132 105 171 129 183 161 54 133 181 214 101 143 124 104 145 83 122 140 158 145 124 193 105 
125 102 118 129 109 201 130 111 107 85 85 172 67 92 123 142 165 109 131 124 176 133 180 188 197 98 111 181 101 138 121 120 115 86 76 88 113 123 76 153 78 92 100 176 146 141 104 148 154 157 78 94 163 131 95 121 120 200 131 147 175 83 157 131 166 85 121 138 127 118 83 43 219 160 98 145 150 178 118 147 111 118 116 139 165 219 113 237 126 179 144 197 89 112 53 80 118 82 129 76 
124 85 41 123 101 97 76 158 168 135 158 108 93 170 98 78 133 35 112 141 146 53 98 137 152 92 119 53 150 88 99 160 117 127 117 137 83 86 160 105 127 161 160 150 88 164 138 119 163 125 124 80 87 158 163 135 36 113 205 177 125 194 122 156 89 132 190 122 142 137 97 121 137 63 132 118 159 124 113 109 127 42 141 168 93 96 163 214 173 168 134 138 123 211 144 217 97 208 193 121 
183 164 42 126 127 191 75 119 153 233 120 147 94 137 121 139 87 196 137 144 195 120 218 171 108 199 85 41 116 188 62 120 103 137 113 216 123 162 164 94 91 181 151 87 92 46 83 77 124 137 99 180 138 136 142 96 182 132 112 113 165 145 152 132 128 89 149 140 156 220 52 97 106 134 118 66 92 140 165 122 89 87 154 127 163 174 36 117 100 181 153 166 126 142 130 54 81 190 139 188 
134 127 183 112 178 153 163 171 195 139 58 84 148 212 155 128 120 113 93 181 125 113 70 77 86 139 167 169 113 95 179 68 37 211 63 156 124 174 134 128 87 89 113 193 113 134 106 127 75 115 149 183 93 115 157 89 66 142 112 141 86 156 138 69 138 190 132 119 130 125 119 161 115 169 59 108 122 131 136 129 171 94 106 62 179 101 125 100 131 109 95 103 31 58 32 121 62 119 60 105 
95 172 138 91 121 155 64 117 141 115 24 153 104 171 46 41 185 166 98 130 138 80 62 103 97 118 129 194 112 93 127 200 71 117 104 96 173 135 132 74 136 185 204 107 137 93 113 157 164 112 85 187 111 125 151 110 116 66 104 46 109 156 123 172 166 109 141 172 115 130 199 126 217 181 244 105 229 150 122 126 106 70 129 96 115 126 179 105 120 144 116 133 110 139 142 123 113 171 191 158 
