P2
100 100
255
130 125 160 187 173 164 173 149 105 66 104 105 128 116 64 47 174 144 61 156 135 111 140 123 152 72 158 148 141 90 97 118 149 185 117 185 190 54 188 48 78 79 150 140 128 148 75 110 78 105 13 103 209 234 149 184 148 174 135 120 143 171 128 89 137 97 123 120 126 141 189 103 123 93 101 172 56 85 76 196 184 144 209 177 127 118 146 158 126 147 105 178 31 143 165 60 178 160 122 125 
121 82 153 104 107 138 142 178 99 106 152 141 92 94 87 80 168 122 176 106 67 105 115 108 127 162 60 140 117 99 88 170 151 97 130 137 107 165 138 165 149 69 137 108 106 150 152 125 116 197 121 58 124 123 114 159 156 146 132 152 197 164 66 138 162 126 167 126 117 89 178 82 115 121 99 24 148 96 133 150 154 116 145 61 104 107 144 125 150 124 126 157 146 149 162 173 149 78 110 95 
94 82 75 121 128 137 102 98 130 64 100 109 38 104 41 40 65 140 86 30 91 126 156 133 173 64 200 181 164 205 106 109 60 83 26 222 108 130 158 135 125 163 143 130 159 212 91 91 120 161 76 166 132 126 77 102 81 140 141 121 120 66 79 166 138 145 210 129 108 95 137 128 141 81 154 189 129 92 24 109 125 20 175 122 94 147 109 185 81 110 137 220 191 164 112 100 123 93 96 70 
99 199 121 66 78 127 138 125 173 84 93 167 145 81 176 77 158 131 70 110 103 145 105 127 113 135 82 78 126 198 162 118 94 44 124 101 80 108 118 71 125 173 161 155 52 183 213 109 148 149 50 193 198 140 166 147 94 117 164 92 107 104 212 71 137 196 131 147 234 134 152 150 104 63 63 125 133 211 103 83 141 160 121 159 76 119 100 80 153 90 175 135 146 149 82 93 124 139 162 179 
137 91 135 49 95 121 126 130 59 82 101 194 127 170 108 172 123 208 132 111 136 111 93 47 127 177 114 102 124 163 127 149 59 148 190 117 69 128 195 104 110 139 126 108 34 125 114 111 144 78 129 178 142 108 173 138 163 90 132 151 84 80 154 133 99 124 69 188 156 143 138 131 145 66 196 141 96 68 198 176 120 127 94 93 146 145 113 115 145 84 125 132 140 117 103 168 126 43 69 160 
131 146 155 124 123 153 133 150 118 148 148 232 70 135 183 65 187 125 200 52 127 141 73 136 151 116 126 216 170 175 97 104 167 83 80 94 142 134 149 106 105 180 90 204 131 41 169 79 123 81 142 41 73 103 151 118 185 82 129 136 130 102 96 141 172 78 163 112 145 145 154 114 188 52 129 67 124 173 231 129 147 121 175 115 138 166 108 154 87 97 126 63 155 181 104 135 73 118 127 180 
157 107 81 122 175 122 128 111 151 108 121 96 93 208 130 77 181 92 155 124 139 154 109 142 64 79 148 55 104 87 137 108 98 140 101 126 102 128 138 83 140 146 133 131 169 136 139 179 125 143 163 121 136 165 81 185 37 172 166 117 123 152 125 111 128 117 72 156 105 28 122 45 83 196 132 111 151 80 95 105 111 44 26 40 92 144 130 96 178 44 115 118 134 200 55 147 123 106 75 180 
90 127 49 119 144 180 81 134 185 124 104 87 132 82 100 59 121 112 148 121 88 129 108 87 197 113 184 149 166 127 172 139 138 44 88 184 58 113 171 121 129 204 217 94 95 129 80 145 66 153 78 161 93 56 137 142 173 65 93 140 126 73 72 105 94 123 113 154 120 148 218 95 155 86 138 93 57 134 236 94 161 228 166 103 158 147 68 154 178 160 169 157 160 156 92 93 92 113 78 185 
62 101 122 155 173 95 152 127 215 170 122 116 134 172 77 112 129 116 158 148 132 100 110 168 138 147 86 87 74 140 98 111 90 122 154 145 192 147 140 80 112 136 54 71 34 152 52 130 212 37 136 137 179 110 135 173 127 140 94 117 194 146 76 218 65 72 130 177 136 91 119 140 126 103 102 126 95 113 176 80 93 91 148 182 92 82 124 199 133 98 97 124 108 218 167 136 79 121 125 179 
180 119 136 142 99 77 115 197 51 119 78 225 151 106 96 147 174 127 87 100 101 153 117 163 159 89 167 153 131 155 151 158 119 131 51 117 128 169 137 23 207 130 118 81 139 189 206 100 125 69 112 115 79 125 126 105 177 126 202 172 207 161 143 88 61 129 140 180 108 180 34 99 140 211 153 159 49 117 141 96 38 127 107 120 89 41 215 52 111 193 90 145 81 136 119 110 170 133 114 107 
82 48 107 102 62 140 127 139 60 111 107 88 105 115 153 136 181 106 71 77 142 102 65 92 135 171 148 118 117 131 165 103 95 124 204 149 119 214 126 59 101 127 124 140 108 132 100 108 118 100 143 82 189 168 128 96 156 58 146 122 208 166 94 183 178 95 124 82 149 63 146 109 175 104 136 137 59 146 162 165 44 154 93 137 145 141 117 147 158 132 42 105 98 153 83 67 182 182 59 118 
142 127 98 100 117 141 172 125 102 157 184 180 187 86 148 120 131 39 161 116 92 168 169 59 145 90 160 181 158 147 113 190 89 102 117 52 80 176 98 198 121 137 140 109 138 47 92 129 79 142 79 111 131 173 175 180 115 135 96 139 160 151 101 185 165 92 173 121 91 126 170 96 149 144 87 116 139 152 94 170 177 110 100 143 114 105 177 85 212 150 156 157 110 119 208 168 118 185 153 84 
156 130 175 117 192 133 176 118 109 90 122 153 104 177 144 115 121 85 150 235 127 137 58 121 63 97 107 107 109 155 97 98 49 213 64 229 52 53 83 66 130 37 175 76 124 152 148 98 108 127 228 91 123 211 75 66 175 129 174 201 233 86 122 154 86 128 124 95 155 72 118 206 106 71 148 90 206 87 125 179 37 130 17 111 68 209 144 179 155 191 83 121 137 122 134 125 93 139 163 144 
112 171 115 203 168 68 95 85 111 121 169 170 194 164 31 72 163 134 95 74 152 61 50 133 101 102 153 194 129 96 125 148 184 148 124 110 78 81 42 77 38 118 106 104 96 100 85 142 92 128 139 110 169 105 187 155 123 218 135 90 105 161 174 143 171 172 62 108 121 103 101 79 119 156 81 193 187 108 106 117 106 88 78 81 190 55 96 113 116 97 110 145 142 145 214 129 164 96 202 152 
133 195 177 141 137 156 110 126 125 114 74 127 132 96 101 169 150 73 162 105 162 210 134 198 120 103 173 52 155 176 157 146 152 123 59 116 117 169 150 117 125 137 125 97 175 92 108 151 126 90 171 185 136 169 221 111 79 67 97 126 109 137 221 159 156 96 195 85 165 115 127 124 187 112 138 144 60 98 123 109 152 178 96 106 99 135 136 109 115 185 154 94 154 175 97 165 134 133 128 152 
215 117 190 141 155 133 77 72 139 78 85 194 159 79 100 119 110 152 96 85 152 121 139 159 215 175 79 191 81 67 104 87 97 181 161 160 97 14 126 160 71 105 122 173 93 41 93 164 128 132 138 96 66 89 122 126 179 59 72 139 113 114 161 105 145 179 86 90 110 174 174 141 138 147 139 155 130 117 90 97 23 146 181 148 154 113 163 87 132 137 195 121 169 130 143 94 121 122 33 143 
160 126 100 162 141 120 151 106 120 115 143 94 127 218 176 114 194 185 167 219 151 146 125 112 112 127 167 90 88 149 126 98 125 135 146 118 144 155 139 168 186 165 148 144 165 107 125 113 77 101 74 89 122 40 187 127 157 84 151 114 41 169 60 82 110 66 210 100 128 154 116 55 145 162 142 146 145 103 93 48 172 91 132 125 150 100 127 80 124 155 122 145 150 114 164 62 168 132 197 176 
111 87 151 107 182 91 142 151 124 126 174 182 128 117 214 175 68 114 62 91 76 126 139 163 121 101 97 85 80 146 99 123 209 130 108 120 143 135 112 116 121 110 99 120 104 139 123 89 177 172 182 115 177 73 176 136 174 170 190 204 89 88 41 99 75 72 211 121 115 144 109 90 160 115 99 104 83 208 63 136 104 86 134 125 97 187 143 87 60 99 80 79 155 83 68 135 86 119 156 68 
116 203 136 137 43 98 184 154 96 78 145 137 196 23 117 77 108 123 145 109 188 180 132 99 168 166 147 146 130 120 55 107 153 98 146 139 165 152 205 103 124 153 145 77 164 123 151 121 70 151 52 186 209 189 176 143 106 191 143 138 205 60 94 154 139 137 168 91 160 139 108 71 114 173 114 173 127 162 82 135 156 82 126 79 159 193 124 169 186 84 117 165 142 88 211 81 118 124 110 67 
142 110 65 204 125 131 153 106 141 150 26 59 151 78 44 107 195 106 104 159 183 151 60 79 76 170 151 133 144 86 166 93 90 168 126 146 102 138 110 148 122 115 124 174 132 128 86 117 207 43 196 109 169 151 134 60 75 102 95 83 100 208 165 54 163 124 113 120 192 111 105 83 99 225 60 201 113 128 73 134 81 127 117 107 165 155 68 123 88 105 124 105 126 74 142 116 174 164 133 96 
106 126 151 241 131 134 108 137 101 143 123 131 136 117 138 102 121 147 110 135 100 149 101 136 116 85 151 123 150 110 110 200 65 124 111 86 90 127 153 135 152 153 102 128 108 146 208 123 45 146 72 120 91 65 203 159 157 157 163 117 120 130 136 99 134 148 149 78 77 73 133 111 153 116 157 103 78 78 108 114 123 204 140 151 162 99 43 121 151 139 72 138 151 117 137 96 39 138 133 145 
110 69 120 100 194 97 141 218 102 136 129 112 177 130 67 117 113 124 71 88 141 214 68 136 121 148 76 181 102 124 179 95 156 103 124 99 124 164 93 126 99 107 155 132 127 118 176 92 135 129 79 164 226 150 137 230 123 106 83 40 192 204 55 158 132 96 130 128 182 183 202 202 197 48 72 34 206 199 105 155 131 148 108 139 53 156 176 114 132 74 64 113 120 190 128 94 152 66 152 72 
130 144 123 99 167 113 83 87 112 139 115 113 126 171 115 122 82 126 100 164 146 191 80 73 85 111 123 215 137 94 161 63 133 106 160 48 182 109 110 88 91 73 75 56 133 109 144 208 92 129 56 115 129 112 139 149 147 159 135 131 76 174 124 154 190 68 157 181 124 81 104 62 49 149 184 96 122 188 117 126 98 191 200 131 125 56 128 80 159 124 205 105 144 115 105 121 143 152 198 132 
134 119 111 150 167 85 129 137 77 171 119 172 147 86 149 127 150 114 108 94 90 134 146 44 183 80 76 200 184 165 98 151 91 172 59 119 139 161 84 77 135 92 116 104 136 92 113 173 135 134 109 124 193 174 134 197 178 87 200 179 91 128 106 105 102 79 81 136 113 178 130 132 169 86 41 152 136 87 118 104 155 84 117 132 125 149 59 113 115 98 108 128 40 154 126 49 68 123 126 122 
157 119 124 133 96 101 182 116 175 118 162 120 95 151 193 42 60 142 86 127 106 44 138 118 111 83 31 185 143 131 149 55 126 73 84 145 80 123 199 123 96 144 149 116 130 115 102 146 105 173 220 156 49 145 136 134 107 113 95 125 193 142 147 181 81 150 129 137 135 116 127 88 98 118 191 139 85 134 139 146 83 155 127 80 166 137 105 51 155 144 138 128 133 117 106 108 75 80 83 136 
176 193 127 107 75 101 173 121 132 129 143 124 165 128 103 156 80 113 144 139 153 131 141 52 105 198 111 154 188 115 109 146 148 139 135 103 201 199 98 181 154 89 8 101 125 157 162 146 79 78 83 148 134 133 103 26 116 119 150 130 122 138 125 70 138 173 94 111 147 112 93 96 123 163 133 171 78 128 157 103 122 147 118 83 116 223 123 135 149 103 121 123 141 155 148 115 129 163 143 172 
171 125 142 36 113 113 43 165 173 53 125 163 54 136 79 129 133 101 130 105 72 109 149 124 201 140 143 205 112 136 132 100 104 141 135 54 111 131 111 175 51 208 188 146 113 127 157 111 183 118 171 82 129 190 132 168 158 152 131 100 118 133 31 119 181 121 64 165 115 115 123 170 106 144 193 123 147 87 129 168 76 151 87 144 161 116 61 79 193 165 231 144 140 133 106 154 232 90 224 211 
142 133 114 111 131 179 180 89 144 57 131 91 188 147 27 54 61 189 112 63 145 71 122 99 151 101 53 122 149 227 135 153 142 101 75 144 53 135 130 74 133 133 125 114 139 122 144 122 147 168 56 106 109 79 139 154 115 130 168 98 116 167 95 194 112 160 155 127 124 123 156 135 103 141 153 236 158 63 166 143 117 65 158 95 140 127 116 94 176 179 107 97 101 99 91 169 86 70 121 161 
90 147 205 151 206 106 239 117 103 141 130 123 70 108 145 141 123 113 96 139 118 122 187 39 112 141 159 101 230 97 157 76 83 53 75 146 131 81 177 85 103 142 130 134 134 128 112 142 93 122 140 141 144 89 170 118 95 131 191 168 123 152 206 148 178 144 83 56 166 162 111 179 181 37 190 178 164 83 113 125 229 124 182 157 138 74 60 147 138 123 117 128 109 136 93 143 46 50 196 204 
100 139 159 86 164 113 82 101 85 140 82 86 111 97 144 107 136 97 129 101 160 164 171 125 80 133 229 63 203 130 105 55 118 107 138 143 184 152 122 139 175 140 197 148 159 135 85 71 175 112 109 114 83 59 189 144 146 163 123 125 126 156 93 133 73 185 124 115 179 153 203 44 116 111 150 137 182 178 143 107 146 172 118 143 165 99 129 111 148 113 90 118 194 205 37 113 25 89 205 123 
111 57 54 153 67 101 122 137 91 140 156 125 178 217 130 126 155 144 97 149 116 114 79 156 97 89 157 80 127 85 131 79 114 119 234 238 119 85 127 159 144 131 163 77 26 117 132 135 156 74 162 98 122 131 90 134 158 146 125 111 61 124 95 217 161 173 173 190 59 178 162 164 182 125 138 98 95 85 153 107 82 25 158 139 144 141 185 185 132 173 60 109 123 174 92 211 99 146 152 206 
176 102 89 157 103 99 153 103 125 158 137 99 135 170 224 144 91 105 176 123 126 183 85 121 140 139 209 183 160 70 114 155 131 200 138 137 105 122 108 115 133 195 107 92 56 68 91 159 85 133 96 152 114 115 168 133 178 120 178 149 110 207 66 105 111 116 154 77 168 102 79 101 132 78 193 123 121 134 144 90 146 136 128 78 28 159 87 58 183 123 147 145 180 150 154 147 178 89 118 107 
103 138 146 86 215 123 120 128 118 119 73 139 53 134 180 142 72 43 98 128 106 142 154 86 120 57 39 82 162 137 69 102 129 133 106 33 171 123 92 116 54 113 132 110 142 116 132 81 97 188 97 192 180 139 146 166 114 121 115 70 108 130 151 177 105 29 77 146 95 74 54 113 31 200 131 133 135 63 132 78 128 97 58 174 173 144 99 142 142 108 116 126 123 144 72 135 164 130 132 114 
90 124 185 72 95 219 117 131 203 202 75 167 135 105 209 46 104 200 169 60 146 53 119 152 145 219 148 145 55 146 203 145 202 143 113 98 59 113 118 98 214 100 207 124 163 73 172 90 149 160 187 225 75 157 155 88 122 143 135 140 64 100 178 96 127 117 201 79 108 77 133 175 72 133 157 84 126 128 227 113 113 110 101 109 127 114 128 122 134 103 169 157 217 142 130 107 97 181 114 122 
130 33 144 139 163 135 144 128 130 225 136 168 119 46 184 42 108 85 119 82 117 136 162 165 197 180 107 118 138 140 62 127 106 133 155 128 110 181 104 195 113 143 62 106 180 157 103 135 164 134 82 225 198 115 137 145 100 155 116 98 146 40 121 129 168 187 134 215 124 143 132 137 140 158 101 123 136 135 87 110 214 80 193 62 158 128 139 66 109 133 102 170 227 143 130 51 178 163 57 168 
132 145 108 80 76 156 130 89 189 58 110 58 201 132 207 131 181 138 160 127 132 176 178 92 149 172 124 142 61 151 144 101 146 92 86 138 148 210 142 168 141 72 144 68 107 73 180 133 110 102 50 166 99 92 168 97 127 98 35 69 139 85 105 105 141 206 137 116 156 181 136 132 143 123 202 154 158 161 150 126 203 126 114 98 130 129 111 111 134 168 95 60 139 73 150 113 85 148 176 124 
199 129 51 129 110 96 214 139 124 118 98 115 115 127 137 131 137 106 129 104 106 115 113 98 142 144 199 129 138 154 136 121 151 166 115 131 134 131 77 129 93 156 107 184 206 201 95 119 76 86 161 110 106 105 169 163 140 147 125 141 137 232 24 113 121 135 149 68 51 126 69 128 209 168 147 35 97 82 139 65 74 129 54 103 85 133 31 111 115 127 163 160 136 165 90 183 127 179 122 113 
120 172 126 146 134 86 119 114 113 127 96 153 93 214 122 96 144 99 86 50 76 132 141 149 54 192 100 194 139 197 93 113 133 102 126 195 174 113 96 128 114 46 144 92 195 139 36 161 113 70 36 139 104 110 55 147 177 134 116 56 166 131 172 83 58 129 131 87 67 138 70 142 138 124 66 122 162 177 140 118 185 162 102 92 111 215 121 134 125 155 172 104 116 138 109 145 87 152 175 127 
139 118 140 126 73 105 156 153 94 82 112 148 138 111 126 95 146 176 97 63 186 98 51 181 131 150 223 118 174 134 117 132 85 219 200 76 104 114 144 123 181 133 102 201 128 161 216 111 68 45 88 138 98 60 37 149 111 159 136 129 137 135 95 90 177 175 155 64 106 132 135 185 77 184 221 131 80 195 181 108 91 47 127 121 203 204 105 150 126 136 129 91 144 150 54 79 146 155 106 124 
166 142 151 102 101 170 209 152 189 164 48 143 119 145 75 170 159 137 62 157 102 83 161 125 82 86 107 145 219 81 119 113 173 136 107 154 139 140 87 70 48 147 151 91 152 126 81 117 130 91 205 108 148 121 172 133 118 184 42 130 104 120 85 107 106 228 109 116 132 182 118 38 148 105 107 142 167 152 107 121 170 107 137 97 145 127 140 102 94 152 163 107 128 39 69 121 164 153 124 109 
82 118 111 135 189 137 75 59 118 156 133 111 131 98 62 210 116 138 76 37 120 151 140 161 54 119 97 132 77 146 151 147 167 139 154 81 124 143 134 139 157 172 121 120 163 129 105 173 150 141 202 170 200 160 110 84 120 170 90 177 130 42 97 125 108 223 43 129 112 118 29 108 159 123 114 163 76 204 70 127 129 91 116 64 139 125 160 150 185 156 128 75 137 128 95 161 209 186 190 99 
101 152 197 151 138 163 51 168 114 72 132 170 209 122 132 94 144 119 177 181 120 131 197 94 150 132 119 109 186 151 42 175 133 177 176 148 125 170 83 96 120 114 139 118 179 126 161 142 139 27 200 155 109 170 97 155 70 131 128 166 100 146 158 162 93 78 146 131 110 104 173 126 211 115 152 96 114 111 229 92 114 102 153 129 129 147 171 146 117 173 154 57 139 50 201 145 52 119 202 140 
132 159 118 144 142 196 125 79 152 149 79 49 88 83 100 153 193 116 67 143 86 147 166 190 156 86 178 126 127 143 112 121 117 120 158 20 158 92 85 129 101 160 122 76 194 95 121 90 148 132 87 141 86 127 179 132 121 117 35 206 107 52 139 216 116 62 96 126 120 161 114 157 201 84 113 167 148 169 127 153 196 120 138 135 68 142 80 95 151 142 124 102 36 45 136 87 180 143 109 131 
174 205 129 191 125 68 168 82 65 206 121 148 126 88 63 126 82 119 126 99 100 141 197 138 85 58 122 172 112 142 73 110 226 142 111 204 132 215 177 145 85 150 117 147 104 142 209 126 117 108 120 133 94 141 138 117 114 146 64 133 171 83 143 195 127 72 136 116 109 119 137 118 97 102 143 101 168 158 133 140 169 172 48 126 151 171 89 122 123 136 91 145 139 126 208 151 55 87 123 143 
121 128 129 102 189 76 130 136 119 53 122 81 118 198 148 161 133 180 150 136 120 108 42 132 117 196 98 230 182 162 80 110 132 47 83 131 141 209 144 170 115 135 88 211 139 136 201 131 141 160 142 134 105 160 119 117 31 149 104 133 75 113 145 128 172 110 189 149 81 127 152 158 140 158 185 127 72 114 80 109 62 128 82 182 122 90 169 217 94 106 58 178 162 142 137 119 129 121 156 127 
90 178 109 182 133 156 120 72 126 83 118 39 74 154 126 138 159 78 178 139 107 110 157 73 147 173 194 105 112 141 55 161 144 124 165 196 141 125 85 167 106 150 98 63 118 209 140 76 182 161 146 100 135 115 106 127 128 77 88 102 126 109 160 149 98 146 92 94 142 30 175 134 139 140 118 111 114 151 115 129 154 130 130 155 126 153 102 161 112 181 59 101 123 51 144 238 132 122 134 212 
41 154 164 198 143 68 83 132 71 191 139 84 144 78 134 94 97 204 31 133 64 128 75 151 130 67 130 116 79 209 153 75 140 138 147 95 107 138 95 144 165 64 162 108 162 159 162 63 119 160 90 136 164 111 165 175 120 88 181 66 61 52 93 128 70 149 103 157 93 56 157 182 192 162 35 122 142 98 118 160 138 130 131 146 62 142 80 193 168 138 199 52 74 113 121 142 89 164 210 123 
134 97 61 114 139 113 124 138 195 108 171 129 141 83 70 96 171 84 120 97 165 104 131 92 199 89 182 75 141 141 140 110 61 118 161 143 160 119 121 32 118 148 182 133 105 101 45 56 35 133 147 128 91 101 154 76 130 65 103 131 87 114 177 63 156 115 151 91 117 185 135 146 144 126 53 132 140 135 175 182 197 151 118 186 105 122 178 183 71 137 43 156 195 128 103 64 180 88 206 102 
143 83 133 113 89 99 199 109 134 153 131 203 178 73 150 123 112 134 79 93 109 138 132 194 78 125 89 146 107 130 82 114 143 117 138 109 153 188 170 124 147 151 187 47 163 165 151 42 98 84 172 108 154 127 147 123 146 94 122 173 140 110 107 170 169 81 42 115 49 162 175 150 156 40 110 54 92 103 133 140 118 115 127 16 145 162 126 172 61 174 130 142 69 62 65 141 161 160 110 123 
133 141 151 124 129 147 139 143 171 116 125 87 151 125 149 171 186 158 124 81 85 163 97 180 105 74 136 75 117 98 167 153 30 108 123 153 85 182 156 135 154 107 121 46 89 111 125 149 126 168 99 174 171 115 125 184 111 211 157 133 118 139 157 122 115 182 135 144 170 126 165 163 112 99 95 50 53 28 79 108 125 142 141 148 144 137 103 201 48 65 132 155 138 66 178 99 111 139 132 43 
225 96 25 174 126 182 76 62 150 106 140 132 149 81 191 135 152 51 205 149 93 172 133 128 62 104 116 120 68 155 144 82 119 163 153 180 127 112 112 97 165 178 148 190 122 95 86 124 136 124 110 132 131 115 117 131 103 142 162 131 180 178 132 162 104 137 110 128 190 127 145 206 94 132 138 131 217 146 156 69 215 52 153 91 138 64 125 118 197 110 127 108 135 118 140 76 123 166 136 114 
198 128 132 121 104 133 196 136 111 95 135 103 118 146 111 111 156 118 131 154 105 203 213 107 228 16 122 172 61 109 65 127 125 115 105 109 175 77 127 148 110 163 82 116 113 128 22 80 147 117 175 129 58 48 52 99 49 139 90 90 110 113 151 155 181 112 147 117 131 126 171 167 139 113 204 81 111 131 169 67 82 110 186 146 128 132 135 118 76 142 154 173 137 136 163 122 112 72 97 126 
103 110 106 166 99 167 84 130 186 72 106 54 57 60 194 120 130 53 152 81 160 104 188 81 169 56 122 78 166 125 64 139 147 181 87 201 174 58 186 191 5 135 181 131 116 150 101 103 149 173 120 103 121 200 147 140 112 171 52 95 168 160 131 215 137 117 143 108 130 33 91 150 92 114 94 94 129 156 106 120 105 85 212 143 195 149 148 123 155 156 112 174 101 188 155 70 170 134 210 89 
174 110 115 106 125 104 54 103 144 101 90 123 158 170 218 167 164 181 184 74 136 140 145 141 83 87 140 107 128 137 126 158 168 92 181 128 145 128 69 179 111 158 98 83 169 144 128 189 150 132 100 101 79 116 92 107 189 117 116 101 100 140 128 106 175 61 78 187 123 124 124 145 132 153 130 140 118 82 105 162 118 58 128 67 133 137 172 199 202 103 193 124 158 80 127 106 140 141 139 151 
210 94 101 140 155 87 151 173 188 153 115 96 160 78 193 159 138 124 97 82 147 59 108 170 188 88 103 121 154 138 64 83 140 99 219 214 184 138 146 154 81 101 170 150 194 176 99 148 71 64 102 117 94 111 126 90 89 67 136 140 129 87 125 227 153 119 149 81 116 127 51 140 128 140 87 30 156 129 164 147 123 119 177 57 144 235 134 30 122 79 57 137 130 117 120 25 184 115 34 101 
150 75 91 158 133 124 99 98 131 141 131 212 84 106 69 199 120 105 211 128 118 94 69 126 82 99 137 102 92 183 133 110 146 156 111 148 140 107 142 93 138 147 159 30 172 128 131 83 222 18 131 67 117 227 126 129 93 129 177 97 86 168 149 148 115 156 139 207 111 144 112 223 96 103 124 159 132 136 100 144 173 161 136 114 56 174 152 189 168 114 29 81 141 160 133 146 98 100 184 125 
137 185 104 188 179 126 116 172 178 53 131 130 155 128 168 126 214 95 137 201 60 100 189 133 62 150 155 170 68 87 170 114 115 133 127 148 79 145 126 156 52 112 116 158 164 97 168 126 114 209 96 170 34 116 106 193 151 154 173 104 122 163 139 179 96 101 128 82 178 173 169 138 134 182 117 153 96 94 51 127 113 184 111 84 105 145 169 133 45 118 122 135 221 182 125 216 108 135 178 156 
60 203 69 128 144 153 208 122 174 182 91 129 178 78 81 171 199 132 127 75 156 92 142 201 119 115 112 179 137 125 172 94 145 138 111 140 115 102 133 168 92 68 170 131 138 65 104 132 86 125 93 90 81 213 122 135 102 174 142 182 100 183 96 85 125 88 185 207 110 147 123 69 108 129 98 127 146 118 147 164 204 240 129 141 138 145 121 203 127 140 204 93 189 204 86 112 102 118 161 126 
100 120 144 140 148 107 147 96 122 117 138 96 72 99 58 147 209 123 133 180 183 161 117 133 85 57 170 185 147 185 123 121 147 83 76 75 60 148 121 136 66 110 104 110 153 72 189 155 171 15 116 116 121 90 38 162 144 157 175 177 192 156 85 94 136 128 70 52 161 132 67 152 125 189 108 125 201 135 174 105 131 162 91 185 101 114 111 196 129 168 195 119 144 27 102 136 78 122 145 161 
183 71 119 135 120 101 99 55 156 181 69 154 162 129 114 176 64 72 211 116 82 176 136 43 145 128 99 158 127 204 215 164 68 169 84 84 120 92 150 42 74 140 111 161 200 86 150 178 130 73 107 122 90 101 131 169 114 162 143 68 132 115 83 110 100 65 44 188 153 127 131 156 48 114 69 99 99 76 190 46 147 198 112 145 116 130 204 75 135 201 115 85 158 133 157 172 167 75 101 155 
94 114 117 110 165 176 143 131 88 63 190 156 219 126 76 98 116 162 181 107 155 54 106 168 159 105 50 121 170 143 116 179 121 153 177 75 37 128 107 207 201 148 78 64 159 207 137 149 141 82 121 175 96 161 163 236 77 152 45 114 75 220 175 140 184 111 212 128 141 169 127 136 146 103 123 124 215 151 144 122 109 171 167 133 101 62 121 62 62 135 150 185 54 173 150 148 145 127 167 162 
119 137 113 110 149 133 144 73 135 117 139 123 141 116 111 98 195 99 160 132 152 138 165 67 163 143 189 227 221 117 144 145 83 153 182 94 201 128 153 169 128 177 183 134 139 136 119 161 137 196 59 127 130 201 221 144 172 89 144 155 166 102 149 190 164 173 106 143 121 73 144 229 122 173 157 182 88 143 132 91 133 160 130 149 78 199 142 72 22 93 193 109 230 112 120 134 108 121 82 146 
138 219 215 136 102 140 152 92 74 136 209 93 119 160 125 124 126 199 85 146 106 178 63 192 28 54 99 114 74 151 107 138 113 151 131 145 62 110 127 134 234 211 105 88 148 132 133 138 68 96 135 61 94 179 82 113 166 150 169 118 210 29 81 51 160 21 115 100 172 121 116 83 119 135 120 88 212 106 134 100 89 144 121 100 135 109 179 169 141 158 98 141 70 237 128 105 123 166 142 140 
170 143 149 92 51 112 154 161 116 95 173 128 193 81 55 95 125 147 63 169 97 112 102 215 132 126 150 188 135 182 129 154 126 124 67 175 30 111 123 176 168 122 166 101 109 100 105 131 150 49 114 95 149 106 88 151 141 196 145 167 213 161 166 142 132 131 100 131 171 131 140 119 138 157 85 105 68 112 84 160 227 177 96 132 142 199 127 179 185 150 76 184 156 113 136 65 149 116 146 87 
102 139 150 98 153 132 186 122 110 110 124 159 134 39 119 142 194 212 100 101 118 163 202 75 138 182 90 106 58 176 130 94 139 117 84 242 127 163 139 108 163 193 99 110 171 47 126 138 99 81 186 217 147 142 100 158 149 114 96 89 141 185 150 157 173 151 64 161 61 139 203 138 98 101 120 132 130 123 82 180 128 158 180 102 119 163 186 122 156 125 55 200 197 121 155 41 110 180 90 141 
148 121 152 66 149 101 162 90 196 31 57 131 145 166 138 136 91 162 176 114 151 134 194 139 15 143 153 145 89 87 90 103 96 126 87 98 83 157 127 122 135 142 84 112 90 129 150 156 207 111 142 152 53 127 112 103 148 121 162 105 84 121 147 118 135 111 64 88 131 170 100 169 190 179 88 169 131 3 133 125 124 168 158 65 141 183 115 53 145 99 92 148 131 124 133 149 206 85 170 140 
107 196 93 109 167 72 218 145 166 81 176 72 119 84 120 49 94 20 98 147 155 108 96 105 149 33 104 124 107 58 128 147 158 129 87 74 72 185 88 114 94 143 100 117 161 156 147 73 178 197 146 137 177 200 79 145 118 182 107 111 169 124 131 184 115 119 118 156 147 113 123 187 103 146 146 122 82 119 66 217 142 89 153 156 82 10 145 128 162 147 145 77 98 148 89 147 196 74 74 101 
72 166 71 135 110 110 158 53 174 163 98 84 86 73 67 134 139 116 122 124 86 106 102 100 103 124 133 200 142 119 70 73 85 212 150 85 133 142 110 147 43 103 165 91 76 102 139 149 161 126 152 182 151 208 140 145 134 72 96 196 143 155 140 107 62 155 89 111 91 100 124 199 158 85 74 98 188 125 51 125 163 140 107 86 128 134 126 123 151 86 167 215 62 92 43 154 117 73 122 75 
112 178 138 131 159 104 115 105 124 107 142 115 156 117 130 95 207 182 23 145 72 189 98 179 129 118 140 85 48 168 137 138 143 118 132 117 170 93 76 127 129 142 122 79 139 102 214 84 192 90 111 144 172 103 113 123 126 78 130 53 149 126 201 166 158 104 177 95 197 87 70 177 121 135 79 102 134 136 171 136 70 133 140 72 102 198 115 168 60 101 212 111 104 84 109 83 100 107 147 205 
165 156 184 216 131 120 154 80 113 116 124 197 85 93 51 115 132 134 175 101 150 88 98 166 140 93 119 78 101 93 160 123 131 122 173 154 131 156 115 80 127 177 125 153 155 103 130 112 80 158 179 127 60 116 116 159 146 147 123 102 85 132 145 226 117 148 124 84 196 95 149 133 116 156 142 87 125 140 133 111 48 164 190 47 128 115 103 97 135 167 160 144 164 170 159 33 67 174 54 117 
88 80 52 136 171 140 125 81 148 134 125 174 81 159 97 125 118 124 141 118 141 93 125 206 73 82 101 131 166 115 132 97 170 151 106 158 166 133 99 155 101 128 183 167 124 137 155 115 87 134 84 158 96 112 94 60 163 114 85 113 128 23 159 47 73 152 103 136 93 80 136 133 106 138 113 112 69 139 155 132 40 141 130 71 148 111 153 124 144 178 86 170 129 148 173 102 38 155 43 127 
135 121 101 94 132 104 121 119 44 185 131 93 85 145 113 214 111 115 120 152 123 116 112 156 178 110 208 144 123 171 208 169 185 113 77 146 198 122 100 149 78 113 118 99 137 96 67 128 103 174 124 135 155 164 150 183 82 213 115 124 157 78 202 56 121 93 85 109 148 95 131 149 142 50 131 121 77 126 132 151 198 161 173 80 144 83 189 143 112 98 97 72 85 132 138 130 131 142 157 119 
115 101 125 124 135 153 137 98 191 91 200 78 117 106 110 153 141 187 144 79 223 148 75 114 189 146 120 146 126 130 58 142 141 120 119 133 108 125 120 65 176 105 121 179 61 170 129 138 143 93 157 83 91 129 140 99 97 73 125 104 119 126 111 133 215 126 217 52 158 113 98 180 74 125 89 83 132 120 116 133 125 107 86 127 130 165 69 112 164 133 119 148 128 202 126 156 126 151 32 110 
129 185 138 152 170 188 135 223 147 125 201 147 56 130 82 109 70 118 118 104 201 117 111 162 133 57 111 134 134 109 143 24 128 111 111 76 130 127 65 135 55 190 133 156 66 76 95 105 162 98 127 142 119 173 110 130 121 162 127 116 89 131 141 89 164 157 111 137 129 178 149 103 105 59 82 145 133 71 223 132 176 135 33 79 104 119 184 86 98 134 101 123 150 114 76 99 86 157 65 87 
67 60 90 192 183 124 101 124 53 87 44 165 126 151 169 105 185 144 116 121 83 198 140 160 107 70 147 179 84 12 146 111 152 89 65 177 160 166 163 147 164 85 123 176 106 106 104 85 103 192 107 98 166 130 115 190 113 131 126 128 132 119 200 104 150 151 100 143 145 154 71 108 133 36 185 82 135 143 131 104 178 161 95 45 165 74 113 119 126 99 105 98 120 121 169 160 202 146 105 103 
154 137 106 104 177 69 175 180 175 219 126 103 123 174 178 128 122 80 138 134 179 90 118 88 129 127 167 147 115 134 153 114 113 126 98 234 172 90 233 131 160 102 125 244 13 96 124 146 72 80 137 71 166 62 105 119 143 130 68 141 45 128 108 170 147 126 28 118 104 133 71 157 202 92 108 205 195 84 51 142 127 169 198 139 146 26 90 149 152 103 172 131 106 148 112 105 102 44 91 99 
61 150 154 112 197 147 121 139 225 94 177 143 65 100 101 161 98 126 98 148 120 100 49 190 138 88 65 148 153 102 136 78 164 133 117 88 128 148 184 134 56 88 142 73 160 198 85 149 141 94 160 131 111 130 129 152 117 159 230 99 128 109 81 147 99 130 88 165 123 114 159 196 187 124 196 192 110 148 160 151 76 108 144 118 77 174 184 126 115 196 127 173 67 42 158 121 114 110 65 171 
88 143 109 100 191 113 106 184 129 121 107 150 103 176 170 132 94 141 107 176 96 133 94 210 129 141 91 94 128 184 134 122 122 96 106 27 95 35 185 104 135 144 129 160 128 128 31 175 128 162 193 83 146 156 103 161 188 162 169 77 99 152 167 131 76 130 86 144 136 136 92 80 145 155 159 121 73 152 110 142 97 111 95 166 95 152 170 114 144 187 117 128 136 76 79 148 132 127 92 63 
144 114 147 124 183 66 121 125 70 124 52 174 94 146 130 91 111 130 168 52 130 130 103 83 97 91 96 139 148 215 105 145 101 57 164 161 51 190 176 121 107 157 73 159 89 96 157 91 151 225 48 138 177 94 140 91 92 213 139 142 120 38 132 114 40 76 138 102 75 118 136 86 168 126 92 133 124 84 102 36 144 79 145 113 146 159 234 130 138 208 145 156 136 138 138 146 162 144 128 203 
94 157 134 131 64 107 137 67 148 79 141 161 105 134 171 149 75 168 80 125 94 154 61 149 178 53 159 190 45 78 125 117 211 137 149 86 72 108 141 110 140 153 114 129 148 134 158 184 136 152 167 155 125 155 151 152 128 74 225 86 215 105 123 113 193 131 141 167 115 150 111 150 82 53 100 131 101 122 147 130 67 152 116 41 139 146 206 78 79 198 207 109 181 123 87 80 144 171 143 156 
175 83 72 76 154 63 172 130 169 161 161 138 87 151 164 118 66 213 171 87 109 161 98 119 125 182 107 102 127 117 217 126 93 109 118 140 15 164 154 125 101 113 118 63 154 127 64 122 89 59 170 83 202 145 185 92 169 190 181 71 134 119 135 114 80 151 130 174 135 105 176 113 112 140 144 66 130 108 53 127 132 147 153 159 90 161 161 140 151 137 124 157 89 126 185 195 125 93 57 96 
140 164 97 88 157 91 148 120 94 115 73 121 75 122 33 122 174 63 85 103 118 78 159 136 121 118 113 63 147 128 82 182 122 176 231 126 133 147 158 126 126 55 168 150 172 135 180 186 116 53 146 188 175 183 103 210 112 133 182 140 167 116 219 142 138 140 133 132 46 123 111 127 133 195 119 111 117 151 120 147 56 153 108 202 109 114 83 114 137 71 192 134 6 125 145 125 125 159 73 146 
146 163 73 175 130 87 100 154 130 171 26 182 110 92 154 199 95 86 121 124 128 152 118 97 163 104 106 151 113 163 97 141 157 125 135 193 153 189 140 127 116 107 185 83 157 151 124 128 117 128 162 163 122 132 191 53 133 104 171 106 149 142 80 138 119 89 85 155 86 126 125 92 149 182 149 107 119 114 96 50 184 91 72 112 127 163 101 102 155 57 129 121 114 123 130 117 120 78 122 118 
142 105 133 103 131 45 97 20 115 130 193 82 191 125 162 107 92 136 62 165 161 163 111 134 103 129 185 108 51 142 113 90 121 183 141 189 114 81 137 100 160 77 120 201 224 85 131 157 159 190 125 154 75 123 130 130 133 82 107 77 155 151 110 156 132 229 154 122 71 191 135 127 159 156 127 145 142 122 163 133 89 105 201 177 114 116 150 121 170 66 87 150 53 70 100 108 85 103 168 162 
91 130 47 107 100 143 138 146 132 115 128 126 129 118 86 131 214 129 132 84 109 121 172 220 131 128 134 64 153 189 107 154 80 104 93 143 51 136 57 167 158 102 146 193 142 84 140 110 122 125 122 137 116 123 68 85 86 171 51 74 116 104 83 139 118 145 138 151 200 123 129 171 69 103 98 134 129 64 42 121 208 146 162 195 187 150 112 144 139 159 125 89 92 168 187 75 72 143 159 111 
66 117 113 112 109 44 123 102 132 171 145 154 114 224 94 147 62 98 137 143 178 114 128 95 185 128 95 175 99 123 86 163 149 128 161 110 78 95 185 118 150 118 53 177 142 52 114 100 119 90 128 136 132 182 110 156 99 230 115 76 62 127 154 135 79 110 148 49 144 111 129 73 89 143 84 117 69 93 56 140 133 142 86 112 113 80 184 199 156 160 143 121 123 131 125 124 149 136 75 98 
146 91 154 143 118 138 138 137 104 206 132 114 167 147 119 171 162 173 97 112 120 128 124 184 130 160 112 140 196 217 194 13 123 172 173 110 147 201 212 185 136 184 181 78 111 199 232 196 144 132 111 153 129 61 122 111 45 185 105 97 145 144 106 48 125 181 146 91 143 193 63 115 112 140 134 169 186 175 38 101 125 95 99 161 114 206 109 187 81 188 33 168 127 102 80 142 136 164 118 148 
145 134 150 103 111 202 138 124 90 198 54 103 119 207 150 75 119 25 153 93 188 173 85 101 215 83 90 133 214 100 76 106 106 128 111 177 108 124 73 155 113 89 120 93 124 125 131 169 139 113 143 86 102 203 173 124 145 164 89 133 90 138 63 140 117 127 53 124 81 126 104 181 178 114 215 209 136 159 136 126 139 88 115 100 99 84 176 178 127 145 120 107 97 138 114 105 215 61 88 112 
85 145 130 38 219 67 149 127 97 79 98 153 49 109 146 153 122 99 152 112 185 59 159 181 122 122 188 181 194 70 115 170 20 158 89 128 106 142 138 70 99 141 55 75 166 77 90 87 142 119 145 84 152 124 134 27 145 205 115 84 119 121 160 127 126 121 172 68 120 124 199 116 157 95 122 73 158 44 134 152 90 119 156 97 169 215 126 99 139 147 153 217 58 122 193 135 114 208 85 159 
95 104 101 53 156 97 223 139 170 201 107 65 186 134 113 86 127 142 124 89 155 137 106 175 177 140 125 140 102 143 125 106 110 177 134 65 225 118 117 143 118 122 166 122 73 68 151 197 165 213 164 148 78 131 153 122 229 128 127 102 139 64 120 67 134 118 104 100 157 116 103 135 132 59 103 90 82 169 176 79 149 76 85 178 175 134 133 231 86 84 115 109 121 91 82 146 123 132 135 159 
86 128 132 149 123 143 164 117 206 148 208 50 171 168 111 80 63 150 149 193 130 120 43 178 112 101 115 79 161 149 136 106 101 121 73 138 134 99 98 57 116 105 147 200 154 128 145 197 141 209 190 139 146 154 89 147 93 81 67 204 79 70 158 62 146 90 79 130 117 110 129 83 134 164 116 133 130 205 162 142 155 125 128 174 169 136 191 89 166 117 71 197 48 73 85 151 66 62 158 91 
135 165 144 78 151 152 100 167 124 126 180 140 75 53 114 116 154 170 116 182 88 105 129 137 118 82 131 133 131 164 191 138 165 220 133 136 226 59 151 149 64 114 30 164 101 111 74 99 59 148 61 206 123 122 98 107 144 163 173 149 96 51 154 161 204 46 21 164 125 84 114 142 46 143 155 126 129 112 145 141 155 136 43 139 192 62 170 147 137 164 113 136 98 130 140 94 98 130 215 129 
84 133 150 93 135 118 66 189 116 136 113 218 189 73 114 91 58 139 73 64 35 121 111 77 134 136 51 72 153 143 176 156 132 136 128 89 127 60 195 131 121 144 143 157 93 150 70 112 119 124 173 114 68 107 105 85 139 97 130 238 168 144 156 79 45 201 56 112 140 98 157 149 140 94 68 149 7 87 144 204 140 94 121 188 70 110 89 122 221 86 160 80 140 131 208 39 56 203 85 140 
106 115 145 192 189 157 120 82 122 131 43 163 41 152 89 136 167 104 151 122 137 134 110 126 13 127 72 96 141 105 82 133 153 107 191 127 162 51 112 120 133 64 117 107 175 108 147 133 127 161 137 93 156 121 195 161 115 128 150 68 140 113 89 132 151 94 140 49 149 83 85 96 186 145 121 106 160 110 168 125 145 133 190 169 151 117 111 235 104 137 110 133 140 203 169 81 139 82 157 107 
51 76 135 54 100 88 153 131 156 112 240 95 66 128 52 115 84 196 70 131 142 159 168 112 128 141 164 73 128 215 94 105 118 109 110 99 176 118 184 157 97 176 112 158 101 110 149 156 95 131 140 122 82 121 132 114 181 113 174 105 164 163 145 140 186 173 90 123 146 90 152 197 113 153 183 101 134 108 158 144 98 155 208 17 78 52 106 112 116 121 143 157 168 65 116 89 54 125 149 107 
184 83 81 37 37 115 201 151 147 114 153 174 73 144 147 143 94 188 84 163 135 104 47 94 145 165 143 126 93 73 88 238 136 151 117 120 165 125 132 166 185 190 162 210 144 79 171 93 104 201 217 107 94 77 145 139 97 138 67 93 121 133 127 181 120 54 166 163 75 159 176 88 69 186 126 109 102 134 100 131 116 139 48 147 163 81 170 90 46 121 207 129 180 130 147 33 40 89 151 165 
125 107 124 80 135 168 121 138 162 125 75 237 98 112 1 126 144 168 128 89 119 125 127 103 147 160 109 48 166 135 113 132 66 147 129 52 78 183 55 205 148 141 126 167 204 126 114 98 77 146 152 130 130 90 72 38 79 90 85 65 74 147 172 189 125 150 126 71 155 160 101 126 119 145 174 137 33 143 121 94 159 111 128 110 238 129 125 150 115 76 154 78 127 100 159 160 143 90 98 91 
128 121 143 144 170 186 189 156 131 130 179 49 128 98 170 163 78 72 93 117 86 133 138 95 145 144 117 191 163 151 88 131 155 168 137 116 173 112 108 109 111 178 139 122 80 192 85 156 164 97 61 64 185 164 126 88 112 134 104 123 140 124 62 99 134 176 137 96 191 139 122 179 129 83 117 130 72 104 101 105 164 128 62 130 157 34 126 186 164 156 64 102 123 117 154 71 104 173 52 217 
138 115 139 190 112 158 151 143 139 138 120 135 134 148 124 169 90 94 199 202 177 100 128 151 187 125 192 69 189 85 65 105 168 238 133 139 54 88 215 157 152 171 155 185 47 125 125 84 145 47 194 155 86 101 136 107 133 58 131 85 57 165 85 147 72 100 163 139 140 158 129 121 189 144 137 73 109 87 161 140 184 159 116 144 76 159 175 154 146 141 49 162 115 93 149 141 101 145 91 151 
208 45 88 172 84 83 218 98 99 130 129 150 126 137 134 102 168 134 184 147 119 168 171 123 107 90 85 115 130 217 133 181 191 93 180 152 129 147 136 157 114 208 187 131 148 112 161 108 182 132 130 105 130 181 98 74 127 65 148 117 196 171 39 198 108 215 64 137 203 134 129 166 86 150 24 52 100 124 91 147 65 128 229 103 129 124 125 183 208 122 86 162 73 111 77 120 69 167 124 83 
