P2
100 100
255
135 123 121 171 160 154 155 82 168 100 94 114 132 107 55 238 118 203 130 203 123 157 213 109 130 101 160 184 191 131 136 214 78 120 167 135 208 119 49 154 112 157 121 123 75 109 115 111 102 71 38 76 151 83 124 119 103 128 110 123 148 169 145 68 107 75 154 102 121 124 102 165 133 155 146 136 138 137 197 182 121 116 184 88 101 110 134 164 176 231 75 117 182 153 185 161 209 55 127 133 
75 115 130 149 84 75 138 130 140 106 113 157 95 75 87 129 162 103 120 188 73 183 103 86 175 124 101 118 142 191 100 107 180 180 134 132 122 107 88 146 130 85 181 218 197 157 90 103 162 26 119 138 162 141 68 147 107 148 150 133 155 170 131 143 156 170 132 153 191 128 93 137 82 43 102 207 96 142 86 107 163 160 171 68 117 130 95 145 74 165 104 213 181 115 105 154 188 102 99 165 
176 164 107 118 125 71 55 167 114 47 96 174 90 144 72 114 188 109 140 114 122 155 114 129 148 172 132 169 114 122 127 151 121 114 64 133 77 103 105 123 190 94 173 103 162 40 116 204 149 92 145 108 153 175 119 137 221 225 146 89 115 194 117 205 101 121 82 121 123 103 66 114 128 132 146 106 167 41 114 82 154 82 169 177 76 152 45 112 80 214 143 186 121 157 146 128 167 150 105 144 
194 130 182 160 213 152 143 151 118 135 59 126 177 94 135 151 82 141 48 96 152 127 147 155 95 112 129 137 110 113 84 73 116 143 173 142 45 154 133 126 206 137 139 66 141 187 123 88 233 126 146 174 214 165 106 187 94 126 172 172 63 135 140 187 109 48 113 99 48 162 45 168 94 184 210 62 141 42 110 161 192 196 114 102 104 112 102 119 125 115 174 47 142 123 135 110 156 126 112 101 
139 183 113 96 69 177 119 194 145 119 119 141 18 111 134 75 151 114 149 156 205 148 124 142 130 191 182 144 92 57 160 76 122 128 105 78 129 158 175 127 130 136 154 128 100 157 118 91 164 226 143 119 151 79 224 152 71 168 150 153 135 136 104 181 131 133 74 146 78 96 113 50 103 27 135 82 44 185 171 140 115 133 178 37 126 115 155 107 87 176 124 209 94 68 88 122 214 102 110 53 
135 212 71 222 170 120 189 171 93 40 97 61 26 171 190 131 68 189 94 182 106 132 128 143 91 119 127 144 139 188 105 78 102 186 142 212 74 69 122 133 122 124 161 92 124 35 138 140 132 185 94 60 121 97 180 134 139 152 177 159 113 88 139 131 66 106 199 92 139 126 178 128 114 147 116 161 77 161 120 85 166 122 63 36 159 102 123 115 93 151 59 33 40 122 175 129 61 99 196 78 
119 76 81 123 99 187 73 151 162 101 194 111 141 160 30 200 75 175 183 65 130 148 157 130 174 95 226 146 162 159 223 103 119 152 74 67 149 98 74 131 67 136 77 130 90 84 157 102 71 43 135 143 123 136 158 138 16 100 62 114 95 155 76 82 134 51 139 106 140 100 140 162 186 120 167 91 97 110 215 151 136 122 60 140 138 127 149 158 168 86 168 36 104 108 168 120 163 205 106 154 
170 93 165 94 140 164 166 139 179 121 132 28 125 142 117 101 114 215 69 166 181 38 201 103 75 117 102 98 132 182 150 125 86 91 150 196 125 108 129 125 129 176 113 137 79 164 120 111 212 189 73 101 121 129 82 85 218 85 173 61 89 113 128 131 117 167 153 87 154 106 99 133 103 92 102 110 82 160 144 92 158 39 86 94 172 131 82 104 91 120 43 146 96 36 89 154 124 107 90 115 
137 124 97 130 139 141 130 183 68 52 142 122 113 217 63 164 185 90 129 137 135 119 76 177 148 179 60 67 97 76 87 73 143 169 207 143 210 211 86 110 123 37 204 79 186 124 141 95 117 138 192 181 109 27 119 162 143 52 121 109 116 127 81 112 132 100 139 107 123 109 68 97 146 110 79 104 115 110 55 152 69 75 123 228 122 113 185 170 41 100 82 184 196 87 132 93 81 147 155 115 
216 114 123 126 145 114 143 82 51 150 226 191 158 106 132 197 183 124 113 150 122 181 112 195 71 110 106 125 147 170 105 121 148 230 80 125 244 146 113 96 126 116 162 198 125 99 123 151 156 104 79 137 182 192 159 62 61 214 107 104 77 106 136 172 135 122 84 183 134 34 109 75 81 117 147 197 100 181 133 158 171 82 135 169 137 88 175 158 134 138 147 188 95 104 129 124 196 198 124 158 
145 139 188 71 146 122 106 187 63 102 149 106 44 186 146 102 105 109 115 178 108 126 154 61 166 117 173 117 144 140 147 144 136 108 67 124 98 110 169 175 134 148 131 144 108 81 142 130 146 118 134 197 200 91 129 159 132 120 108 130 159 72 118 96 176 175 117 161 87 102 102 141 81 60 166 98 69 118 140 111 167 128 122 182 89 130 125 64 158 79 126 126 151 107 127 140 102 156 102 123 
110 121 146 125 184 132 161 137 141 129 122 112 190 121 105 55 147 123 159 125 128 123 156 88 140 137 69 106 132 144 87 115 103 130 231 105 159 94 85 140 224 110 161 110 110 182 71 109 119 176 147 194 119 143 135 181 175 130 183 85 175 135 180 190 167 81 117 157 120 128 110 95 152 134 183 122 49 116 177 84 179 116 123 197 116 146 112 58 163 113 102 72 205 100 140 101 174 145 124 102 
154 152 161 241 47 135 164 87 179 65 217 184 159 179 120 168 80 125 136 76 176 110 112 156 129 201 104 226 149 98 123 165 155 141 116 121 112 146 138 212 38 124 209 117 217 166 99 81 154 133 56 147 175 142 212 94 144 129 185 97 124 194 103 189 133 158 163 110 121 116 78 139 93 55 79 92 221 162 155 170 117 149 131 160 101 201 146 76 132 132 149 80 103 147 135 35 145 136 96 202 
164 84 36 169 57 142 156 102 114 119 108 124 108 115 62 145 158 181 152 137 118 207 86 180 97 112 183 121 141 217 119 104 42 133 150 87 137 181 91 105 162 148 173 56 133 146 186 100 30 156 145 100 185 205 97 48 105 150 138 173 180 161 58 130 128 106 121 157 169 122 82 139 169 78 144 175 127 131 116 169 42 150 157 144 128 134 168 210 56 131 186 146 161 36 123 48 100 159 167 125 
197 165 177 134 38 193 106 152 149 120 145 106 136 186 126 168 97 110 89 173 103 217 156 128 136 132 122 62 90 67 194 98 70 115 127 123 145 123 140 173 163 62 141 138 86 162 148 151 110 201 107 123 121 192 111 60 126 130 73 83 123 62 152 57 145 150 68 124 139 83 141 153 169 107 70 74 142 159 177 141 120 181 150 138 132 70 129 90 56 71 180 173 141 133 128 149 104 154 125 119 
131 94 141 111 109 101 131 122 125 208 109 177 95 204 174 191 137 109 103 152 150 135 162 141 85 63 53 134 64 159 90 65 177 150 116 99 101 85 188 61 80 168 118 118 125 135 94 192 130 78 162 234 102 100 134 191 79 142 54 171 69 99 78 104 207 119 188 163 114 106 107 101 120 132 131 123 117 135 129 125 150 181 144 112 135 99 162 106 99 196 78 151 193 137 134 129 124 107 180 121 
180 179 156 121 95 144 122 136 176 96 200 104 142 129 106 146 175 120 144 186 154 137 134 175 85 108 109 119 188 132 110 78 99 79 70 239 176 115 23 133 95 129 146 193 204 87 67 106 106 173 125 127 196 149 117 90 143 142 87 156 171 166 101 151 107 73 153 124 78 86 159 130 173 200 73 154 148 84 79 156 97 68 50 55 142 101 91 143 137 115 25 73 147 194 158 130 149 150 54 129 
129 160 114 173 80 233 100 120 143 226 188 131 200 175 233 82 132 116 145 159 145 161 77 94 62 132 139 155 115 201 110 189 152 129 112 181 135 116 193 100 37 190 89 88 166 118 107 182 85 205 36 117 131 102 96 124 97 75 148 161 109 117 96 202 144 109 143 154 140 95 126 136 119 98 127 73 134 184 140 137 152 223 201 16 87 87 94 228 113 84 83 134 44 111 110 153 136 133 113 77 
145 177 141 59 145 141 132 178 113 58 57 160 116 191 153 119 31 169 110 177 127 170 153 139 162 155 152 150 197 121 181 106 151 155 103 127 85 168 138 87 108 102 113 149 109 134 15 177 145 157 134 203 151 78 70 185 208 136 114 145 95 135 42 148 130 78 81 121 70 79 115 123 85 128 196 101 76 118 110 111 96 153 142 105 174 116 150 203 115 141 159 185 100 152 173 154 95 138 166 130 
184 116 142 40 36 71 147 94 140 132 83 146 100 98 125 95 128 127 70 144 177 137 117 185 68 93 124 167 57 81 162 117 140 114 116 123 90 180 140 150 104 150 173 187 94 181 211 40 113 165 150 73 194 122 81 107 189 68 75 118 178 98 73 96 176 104 143 155 152 194 187 151 163 91 133 92 135 204 164 180 119 129 115 57 160 91 188 158 71 149 96 135 153 171 113 178 80 135 107 126 
76 132 67 175 123 140 124 124 113 130 98 106 207 175 200 193 111 51 136 218 133 30 162 154 151 103 118 62 85 135 140 130 155 152 164 87 55 162 193 128 120 123 117 97 155 117 112 151 119 159 100 124 91 99 24 114 74 46 147 82 34 75 159 110 82 100 145 168 164 236 110 68 121 177 134 192 98 137 193 69 190 108 141 113 161 83 153 193 120 127 139 123 102 136 203 143 210 137 27 74 
162 112 127 140 131 123 69 187 212 87 76 102 119 156 135 87 177 110 116 109 93 175 180 132 221 130 42 142 151 150 130 119 83 130 97 97 66 134 150 139 127 137 143 114 193 138 139 118 105 171 204 195 93 159 142 119 35 96 136 118 137 150 56 161 123 113 168 188 108 81 117 139 85 115 73 109 235 152 60 50 141 147 73 110 134 95 101 170 139 103 70 140 155 136 168 109 172 115 95 115 
176 118 84 205 187 105 151 106 152 125 83 81 79 202 145 152 135 153 100 89 164 174 102 120 21 118 76 101 74 169 104 134 199 120 146 117 55 121 138 213 16 147 198 134 130 145 87 94 159 140 119 221 107 39 98 168 123 120 103 109 151 144 135 98 108 190 113 148 121 63 199 207 129 98 148 185 98 114 92 123 148 120 139 124 40 171 127 200 230 167 120 117 140 69 113 112 121 18 57 161 
130 164 125 116 142 81 123 151 103 131 119 136 176 138 196 135 126 100 131 114 68 156 168 73 112 82 89 136 165 153 118 196 171 191 120 137 87 126 136 95 101 78 102 58 126 140 136 79 144 140 182 130 189 131 133 142 27 142 199 164 207 129 79 116 111 88 144 98 168 131 223 155 123 122 162 96 126 99 120 63 54 112 145 99 97 134 146 175 110 188 141 69 100 139 184 146 112 63 87 86 
129 196 190 75 119 95 136 97 206 193 137 127 114 132 108 156 111 229 226 156 28 132 129 127 102 153 151 120 154 145 149 136 117 47 143 63 155 201 95 172 189 98 103 165 135 60 44 23 93 123 38 73 69 90 131 49 101 188 142 168 157 206 164 165 222 121 161 114 133 123 155 109 122 112 132 147 151 126 137 162 99 122 102 96 88 200 64 139 142 89 55 47 213 118 149 140 135 125 132 85 
95 91 168 159 126 230 90 111 127 25 135 92 96 118 72 75 58 79 146 173 168 57 97 157 84 103 138 128 66 192 135 56 102 140 132 152 60 109 120 154 179 38 93 49 152 129 207 156 131 145 154 157 207 158 114 120 131 48 200 176 117 134 208 134 220 166 105 143 97 78 130 135 179 164 126 97 85 130 168 89 117 108 168 165 153 205 192 151 156 186 177 172 121 104 33 102 99 63 83 135 
118 91 183 196 146 150 141 78 161 164 149 118 153 54 113 190 143 152 189 133 79 241 143 126 97 188 94 94 203 68 139 134 118 200 141 141 53 152 107 119 167 99 141 175 128 62 98 118 62 96 205 108 132 143 123 146 129 143 178 92 147 110 109 93 137 130 133 91 110 134 107 99 91 124 110 159 149 172 132 136 114 188 96 149 84 168 105 130 63 140 96 79 115 200 110 52 150 97 126 96 
103 134 68 166 162 152 160 145 186 43 129 147 105 131 143 107 178 98 91 120 172 124 130 143 56 204 158 158 118 21 210 125 53 131 107 134 79 137 115 153 145 124 92 146 114 46 114 180 113 58 117 115 168 77 184 129 119 125 122 133 127 144 154 122 119 64 130 123 125 73 140 71 138 141 156 161 88 150 177 14 116 152 144 132 115 109 141 171 127 94 114 138 157 90 143 124 64 158 152 149 
79 137 141 233 129 143 133 105 96 220 139 149 121 91 134 87 55 97 90 123 131 190 152 126 109 138 159 122 147 82 41 125 114 66 139 136 140 74 168 119 133 208 159 102 147 152 168 105 142 120 67 152 224 102 148 113 87 119 222 49 196 110 108 154 139 102 154 138 117 69 120 87 108 117 97 111 64 136 193 146 134 143 98 105 98 181 117 94 23 118 103 81 99 166 113 162 112 152 108 195 
71 156 121 112 103 167 141 143 119 75 31 104 101 146 158 158 108 100 82 164 113 135 164 120 151 126 182 168 102 159 54 197 247 170 150 165 116 45 77 118 108 117 151 86 191 169 79 62 73 98 80 110 159 85 80 140 84 180 162 125 106 163 89 160 95 166 178 177 147 99 127 172 89 115 161 166 180 127 62 92 55 158 105 161 120 92 104 91 131 118 118 192 116 130 131 119 70 120 119 115 
64 81 212 167 129 78 131 149 104 158 118 160 158 96 79 153 151 54 142 190 87 76 69 197 109 132 167 152 124 194 106 178 182 126 201 135 131 188 217 174 127 90 194 139 197 130 131 178 24 132 135 148 138 127 77 115 114 81 179 128 80 121 24 123 164 156 188 72 121 156 123 117 77 58 177 180 99 80 126 100 129 115 104 123 101 202 130 123 141 157 137 126 137 152 80 127 46 175 75 134 
186 141 154 157 180 100 112 137 172 89 161 155 139 172 101 123 154 187 154 133 198 144 52 136 59 56 135 115 137 183 140 137 141 153 62 86 122 143 85 147 151 125 129 130 101 80 133 149 177 149 177 135 70 36 74 119 130 114 75 172 169 123 130 146 66 138 121 154 173 123 73 106 87 105 77 102 52 96 106 111 125 93 135 234 136 152 156 196 143 159 159 159 192 117 165 130 134 91 103 93 
144 167 51 111 147 149 115 61 148 111 111 119 156 165 195 124 108 93 195 201 141 169 181 76 132 149 115 63 189 104 148 151 106 127 97 114 116 157 185 87 92 119 231 89 80 45 91 150 181 109 47 106 161 111 42 189 41 27 35 152 115 134 72 116 29 201 157 129 69 96 16 120 89 40 110 123 120 47 162 125 200 106 141 118 86 125 48 42 149 180 175 200 148 211 170 128 55 115 123 123 
79 135 131 121 128 117 141 136 120 167 138 149 147 141 73 88 92 89 123 129 189 148 123 123 174 80 138 104 53 136 96 108 127 106 139 99 144 122 150 180 179 56 114 106 91 104 150 143 150 226 124 116 157 123 145 193 56 138 91 87 49 128 52 40 158 154 95 182 162 103 92 121 177 138 108 142 158 85 178 137 120 149 158 59 172 49 94 129 113 177 118 166 197 147 134 121 97 68 49 154 
100 169 188 76 222 132 150 133 77 70 73 89 156 95 59 157 188 140 39 119 131 99 52 39 110 68 120 125 105 169 100 136 183 129 184 80 100 130 119 147 100 140 155 144 136 67 103 91 115 173 149 68 184 78 137 178 182 126 116 138 83 123 206 56 86 143 142 97 189 164 93 81 112 119 160 96 130 145 147 129 88 84 131 166 146 123 68 171 154 175 119 114 75 63 92 92 113 187 131 117 
154 184 123 105 96 45 122 134 80 44 124 189 154 92 181 94 177 106 196 174 133 131 172 200 114 171 84 139 106 111 90 48 116 183 159 86 147 135 123 78 151 112 92 64 57 191 150 127 59 124 121 92 76 77 60 97 154 104 144 81 129 134 121 109 148 134 132 181 171 117 159 160 108 104 104 88 149 96 144 218 149 177 139 103 178 112 163 92 82 113 77 109 78 68 207 103 149 122 121 98 
131 110 149 230 75 120 87 97 90 147 147 114 132 179 155 112 109 134 137 137 143 87 61 48 69 148 118 122 188 13 166 116 201 183 153 188 84 92 133 179 81 234 213 156 144 181 108 119 139 101 167 131 106 67 110 142 163 67 84 178 163 60 144 163 155 138 91 18 177 130 147 115 132 43 182 49 25 160 107 152 40 130 134 221 169 179 169 139 168 180 170 115 133 87 63 41 106 148 113 156 
117 120 162 130 177 128 177 87 117 63 156 89 162 113 73 108 119 110 136 157 136 149 124 117 70 52 128 104 116 181 213 135 118 147 136 229 171 207 69 107 138 87 76 29 215 128 77 167 137 100 144 138 160 126 101 40 155 115 165 104 133 156 107 82 131 187 112 118 174 135 116 184 226 47 45 142 142 99 96 114 196 182 143 202 112 160 110 93 93 138 129 93 133 137 66 189 124 102 178 127 
139 164 151 57 114 124 126 133 124 156 143 116 82 142 189 85 108 91 116 72 151 55 130 144 180 56 46 149 131 79 97 158 52 65 148 154 142 131 59 151 133 62 154 150 120 133 152 150 38 113 135 126 200 107 107 120 95 106 140 102 89 46 61 128 191 77 133 85 179 157 98 158 146 190 121 113 66 75 144 140 98 124 65 87 39 91 132 96 199 89 99 105 133 138 119 131 69 136 91 132 
175 233 165 156 148 143 160 127 78 173 101 160 109 158 133 113 94 132 99 161 164 124 216 135 74 177 41 124 149 161 117 139 131 142 44 207 77 137 143 174 118 130 112 80 148 104 56 41 118 120 88 155 212 107 63 190 86 193 174 112 156 212 91 94 115 111 106 71 175 80 145 115 146 25 17 141 106 133 88 170 52 64 48 111 164 128 177 167 120 99 129 144 171 144 57 115 185 89 185 116 
85 127 76 187 136 167 150 119 159 143 93 120 146 104 118 89 34 131 171 78 212 195 112 181 166 137 171 97 47 125 109 143 158 133 67 166 155 56 126 135 122 122 171 194 77 159 75 93 166 155 44 117 115 181 66 98 106 195 130 200 149 54 165 146 68 86 88 196 120 44 93 154 171 141 101 128 207 210 67 183 135 172 129 100 149 221 98 143 73 131 130 105 129 49 106 104 48 122 94 106 
178 127 172 52 143 145 95 222 210 165 141 124 131 148 152 141 165 184 142 182 124 124 160 91 108 125 118 151 54 171 114 108 60 121 126 141 107 150 168 84 55 142 102 104 136 123 89 60 113 113 55 138 111 60 145 54 120 165 157 120 53 77 164 117 142 161 132 118 89 28 131 187 87 116 47 156 135 142 113 103 161 191 120 113 172 141 80 106 175 66 141 47 67 135 134 121 160 44 199 64 
118 142 123 131 144 168 112 108 107 190 165 115 115 136 98 70 155 138 173 113 123 159 99 112 93 201 135 62 118 104 104 109 83 201 174 113 122 92 155 151 128 93 242 163 148 111 103 110 134 132 117 143 66 90 102 119 163 233 74 152 170 144 178 119 175 131 65 107 160 111 102 147 167 121 145 215 124 147 162 93 176 54 111 162 38 218 133 83 92 53 88 143 114 152 170 153 133 114 140 153 
108 154 98 81 107 109 66 187 147 70 202 125 113 109 82 174 135 161 74 170 109 117 110 107 177 158 172 197 69 136 144 189 83 90 128 125 194 110 174 230 158 218 111 112 124 157 172 130 186 30 95 117 87 206 163 17 83 72 130 170 152 161 73 130 153 154 93 143 137 45 117 81 167 116 125 109 129 181 131 118 184 102 185 119 127 118 196 242 102 108 84 158 142 65 95 141 185 125 200 66 
179 137 93 66 118 73 84 124 105 167 90 128 137 125 155 201 53 193 47 160 136 93 116 103 173 87 134 132 114 107 103 151 161 130 164 116 150 116 85 105 129 105 227 126 152 127 143 211 108 146 146 102 112 161 62 127 145 164 70 142 143 49 168 50 81 182 96 184 175 184 214 110 205 114 177 97 208 95 119 118 52 128 169 121 114 94 117 101 114 163 59 148 122 154 185 53 20 74 119 189 
120 129 170 108 56 158 145 125 132 143 149 160 177 146 199 116 89 50 123 135 147 125 99 121 54 135 189 129 123 146 109 121 174 210 60 107 157 131 54 136 172 144 118 149 71 112 93 107 92 98 74 167 131 190 143 235 191 37 167 109 145 146 130 79 159 135 142 37 202 188 103 166 78 95 63 124 132 161 220 130 199 106 87 107 169 109 137 167 207 61 138 176 194 186 76 75 150 141 138 133 
120 201 109 68 84 53 170 150 87 89 97 173 142 123 83 192 107 135 34 74 117 159 174 151 129 123 117 186 137 132 49 47 121 143 133 145 170 105 138 145 127 125 114 75 92 176 108 150 114 205 74 154 142 89 131 123 148 148 103 172 80 72 143 86 60 68 157 162 111 181 52 142 94 180 30 105 106 120 171 151 82 122 141 118 132 144 21 166 117 179 116 200 96 58 130 179 177 184 183 154 
116 100 140 125 165 87 101 149 129 105 124 144 176 62 128 151 140 92 152 130 173 135 194 130 85 118 131 110 91 120 215 162 94 120 201 76 74 150 134 132 121 212 122 159 135 153 162 161 175 71 140 125 81 158 158 185 213 71 125 113 56 93 122 115 100 152 137 133 95 139 77 85 114 138 113 138 114 124 123 100 83 78 125 112 123 138 104 142 170 133 142 107 106 87 59 210 122 100 153 134 
119 105 146 200 125 188 136 202 106 137 135 68 100 148 177 147 118 168 156 113 175 174 239 124 152 122 169 112 157 150 132 180 157 178 124 185 72 111 56 176 96 125 169 116 58 96 126 178 119 153 168 128 121 144 73 102 119 83 155 71 56 63 107 145 226 129 83 134 145 112 42 160 169 98 76 94 132 98 85 139 92 127 131 161 130 131 115 88 132 27 115 132 98 134 91 114 43 90 181 123 
68 232 186 130 66 127 119 79 87 169 180 128 73 134 117 77 170 115 62 205 175 12 123 92 102 110 123 106 100 112 116 191 68 111 83 149 94 190 102 124 204 154 147 187 109 76 118 67 160 123 123 108 185 218 150 143 125 144 152 88 198 128 172 111 113 86 168 141 202 157 114 63 146 209 178 132 91 147 72 133 171 135 63 126 193 116 58 138 134 44 115 116 89 48 155 81 99 114 112 133 
84 132 177 116 59 199 94 45 84 155 184 91 76 130 119 129 93 150 146 113 201 53 137 102 119 123 67 126 151 175 58 127 104 110 152 134 156 213 133 115 140 134 89 135 133 116 137 98 109 200 175 184 106 129 84 101 151 104 154 203 108 181 155 139 59 140 121 93 163 149 152 111 195 101 116 117 162 137 88 95 94 104 153 42 127 157 174 172 185 89 36 163 219 142 105 56 151 147 126 148 
168 178 129 97 213 126 96 129 76 87 144 101 138 101 163 107 112 151 128 119 217 162 143 117 147 131 146 55 123 139 53 162 75 177 131 109 120 210 108 109 167 63 127 105 76 58 91 107 91 131 138 145 95 183 149 121 65 134 93 165 98 95 23 131 158 90 93 109 111 167 112 128 125 61 73 89 86 199 132 46 176 171 42 149 145 131 162 75 77 155 103 60 76 161 124 124 168 170 178 165 
120 143 43 109 161 110 121 98 137 51 106 136 105 105 101 126 111 156 80 130 141 135 99 108 133 164 141 117 200 161 147 143 70 87 144 162 95 135 108 30 81 104 92 151 40 193 103 98 156 156 95 174 23 137 114 151 126 147 219 151 101 124 96 122 178 155 123 181 58 114 61 156 126 135 30 77 196 53 197 123 122 117 155 132 165 111 115 146 157 148 177 108 118 118 142 58 102 138 118 140 
102 170 166 61 118 116 181 120 97 98 118 24 181 164 103 136 118 233 61 120 120 168 122 171 166 150 96 150 170 153 194 131 121 122 165 120 108 93 104 174 89 125 140 72 91 71 66 44 152 126 106 131 101 117 112 41 149 146 208 132 155 129 130 169 115 169 155 182 123 149 104 113 88 87 46 153 158 137 110 124 131 141 122 81 138 118 144 139 118 174 87 90 219 113 57 98 85 86 90 91 
115 138 172 16 127 124 109 111 110 101 48 38 135 157 78 121 126 72 169 183 153 118 145 186 135 195 136 53 124 131 121 118 117 124 68 169 124 149 98 123 169 136 105 150 123 121 160 100 161 153 98 179 152 135 70 116 147 194 66 115 195 108 41 173 99 48 161 90 107 90 43 137 109 158 247 105 143 137 56 192 126 140 99 150 123 147 144 123 114 104 110 175 159 117 122 172 124 110 180 131 
156 175 207 163 130 217 138 55 130 136 106 125 129 165 146 145 102 147 48 143 124 148 144 110 150 127 77 130 78 75 112 159 161 122 195 77 187 97 74 175 72 198 106 91 59 90 202 76 131 169 39 99 176 103 123 94 117 169 163 126 145 95 157 27 114 150 134 176 142 128 162 89 127 139 104 137 125 42 159 196 158 51 82 160 15 183 143 161 177 170 73 98 171 77 129 133 97 79 66 118 
198 160 85 201 90 81 147 248 88 160 174 165 129 63 232 82 215 37 85 117 110 131 139 119 125 49 142 139 86 114 112 49 85 131 138 68 107 145 125 93 69 64 172 132 88 168 126 108 134 87 170 120 122 190 114 134 193 221 134 124 154 55 146 194 58 118 126 162 129 104 61 129 103 39 118 119 160 169 83 223 198 99 105 131 139 160 175 89 139 58 125 121 154 134 62 123 98 109 77 164 
179 151 89 185 75 206 153 182 135 112 96 224 98 167 97 185 105 123 37 145 138 230 143 165 104 176 125 112 159 29 80 153 112 82 88 103 184 123 102 212 148 123 20 151 115 143 113 127 117 148 101 105 218 150 143 87 158 124 98 176 75 129 131 120 161 175 80 121 109 60 89 167 176 198 70 60 123 99 41 101 127 69 86 75 53 72 110 126 159 201 114 215 59 174 102 100 111 150 117 79 
98 125 141 111 158 192 158 147 121 139 141 158 96 174 51 159 90 139 128 115 111 118 71 198 144 85 122 115 178 193 145 77 96 124 134 135 181 148 203 207 111 156 165 90 102 126 120 117 115 168 145 124 117 114 127 131 115 114 128 121 127 177 108 75 137 102 143 34 83 134 39 155 192 122 174 105 129 103 12 122 133 91 99 103 115 153 139 113 171 199 126 153 77 113 137 120 52 115 123 164 
117 81 88 154 62 143 111 173 145 96 154 168 101 160 36 113 126 136 99 129 212 138 133 90 205 43 186 63 96 172 128 119 55 135 137 194 97 109 88 125 113 110 120 68 116 179 126 151 108 175 83 128 188 100 98 46 170 131 139 156 121 76 156 179 221 103 79 72 34 112 125 128 157 158 136 174 149 124 134 138 129 99 159 140 91 146 121 147 156 114 159 68 129 45 174 165 168 113 113 102 
118 106 156 153 187 209 128 82 104 117 131 132 73 102 167 114 112 116 129 113 169 180 155 168 148 136 79 133 111 121 160 37 111 88 77 136 87 66 162 81 124 135 97 154 206 76 69 81 101 149 90 104 115 132 66 140 96 144 94 148 179 54 54 117 112 142 16 106 134 103 127 171 124 202 127 92 105 172 135 163 113 164 100 48 131 74 67 131 69 114 141 116 160 48 89 137 197 25 113 124 
203 107 91 156 147 36 147 181 165 117 106 141 103 141 148 149 91 183 145 185 109 102 96 119 111 129 151 175 119 157 188 102 84 155 59 169 151 44 144 165 124 92 195 115 193 174 126 154 156 92 90 144 97 61 171 154 99 151 149 105 160 160 57 194 92 174 96 120 157 124 141 128 134 198 119 112 147 55 162 121 164 123 61 85 126 119 142 226 167 167 153 112 128 115 156 65 94 130 131 152 
115 99 191 168 210 98 127 180 210 130 92 157 101 118 40 91 112 126 105 182 140 126 146 81 123 121 132 116 131 124 177 106 159 162 139 85 137 135 60 172 132 117 129 207 133 184 91 133 104 53 124 192 131 110 152 92 110 138 155 113 139 146 91 131 133 147 68 162 73 95 150 184 154 223 127 128 93 194 168 160 153 155 116 118 133 135 146 57 68 100 156 145 153 90 196 137 80 77 166 136 
188 65 120 206 120 127 75 64 123 87 144 139 154 31 225 181 127 142 86 216 83 106 184 101 125 97 233 101 103 186 152 126 67 68 105 133 117 88 135 127 109 127 87 136 166 163 112 118 128 38 77 196 95 131 142 84 138 194 137 145 197 146 143 83 207 104 116 124 152 131 135 139 130 68 130 56 111 139 136 120 133 161 52 135 118 92 136 86 126 93 166 87 39 147 126 185 59 105 65 140 
147 125 98 146 178 133 143 125 121 83 138 132 148 175 162 124 124 120 213 104 165 141 128 116 175 124 122 139 173 170 53 146 128 144 48 95 150 162 137 164 134 82 97 61 170 201 53 148 72 137 106 84 133 120 123 198 112 94 90 191 140 120 155 175 206 162 88 106 139 50 114 125 195 142 187 194 87 116 204 144 130 131 129 94 94 152 91 82 150 135 113 145 198 68 52 63 102 172 160 151 
167 47 98 103 80 186 52 180 161 130 39 97 119 66 145 132 96 148 134 42 130 100 114 107 139 176 193 186 205 231 216 86 152 130 82 132 82 97 31 119 121 107 128 32 106 137 167 57 118 133 110 124 177 82 116 109 124 146 111 90 137 136 139 182 212 190 188 97 90 101 189 122 137 172 98 128 142 86 119 114 136 146 106 110 140 66 108 137 59 118 150 85 129 203 140 122 126 152 160 122 
156 58 157 51 182 74 95 58 133 134 148 92 39 78 197 95 225 169 70 135 79 126 164 164 73 153 100 132 115 76 172 75 113 66 140 147 200 141 161 148 95 125 113 106 84 141 170 95 119 185 120 147 59 128 210 124 184 106 136 177 95 139 136 112 146 122 144 135 72 164 106 116 146 122 68 95 157 71 146 61 172 109 189 104 65 100 130 121 144 111 99 47 72 131 143 117 95 120 124 166 
138 131 65 80 184 116 164 55 150 128 76 169 144 123 125 123 162 141 142 96 153 88 117 62 118 180 216 124 146 53 109 168 152 164 102 150 65 160 42 180 86 121 89 116 106 71 63 124 86 146 184 192 141 120 145 163 121 132 144 52 98 85 146 122 81 157 142 104 95 62 157 104 124 125 121 79 91 128 109 90 182 100 100 89 187 130 142 112 132 163 83 95 156 151 187 160 217 158 109 148 
162 101 198 131 63 210 108 98 130 117 181 124 103 120 113 159 89 85 148 140 118 180 126 114 140 59 160 89 124 67 96 132 99 148 167 179 124 204 132 50 157 134 127 91 92 159 96 58 102 148 137 147 124 153 115 172 60 168 80 109 138 69 114 97 111 83 138 179 139 122 99 127 92 155 138 152 70 121 198 87 58 126 149 114 141 100 72 116 188 165 111 141 118 112 127 78 171 166 148 118 
139 215 109 101 153 116 230 139 66 91 172 152 30 202 148 205 131 151 157 137 119 77 152 114 143 95 183 137 170 127 58 59 149 96 153 97 167 140 154 145 126 170 119 129 123 142 96 141 165 120 170 117 118 127 113 113 161 107 201 36 128 144 174 132 134 93 78 34 83 95 162 105 113 156 94 148 122 132 134 132 83 73 186 108 90 120 75 168 64 126 135 129 174 151 151 181 138 186 102 112 
128 39 89 88 166 142 40 89 188 132 122 111 194 157 144 126 126 89 72 208 215 208 139 105 90 118 155 142 193 69 110 135 38 65 192 122 106 172 155 91 138 124 98 200 90 148 120 132 93 145 114 93 95 126 73 76 93 121 188 183 164 96 193 126 168 111 21 157 160 92 169 105 164 161 176 36 222 127 81 91 140 184 90 11 161 178 201 124 106 150 205 148 78 101 103 226 70 166 124 81 
131 106 92 96 69 70 176 220 156 187 131 134 127 186 90 135 147 86 151 116 119 44 178 215 119 80 198 133 109 143 83 36 163 120 126 145 104 159 152 39 133 62 134 76 197 118 126 136 107 141 131 135 186 90 227 182 46 115 197 132 136 93 187 89 127 66 133 96 33 127 59 76 172 179 57 123 101 117 132 199 129 99 143 114 148 127 88 153 129 126 97 39 145 89 137 125 52 121 90 143 
76 81 188 105 102 85 170 108 156 140 197 219 149 155 212 133 140 175 149 164 169 104 157 93 71 165 56 146 99 149 184 94 120 162 60 167 117 184 158 157 80 139 107 212 191 138 129 117 109 185 134 162 61 158 146 85 113 147 184 141 114 150 81 117 168 111 153 41 180 106 130 119 202 191 113 178 80 116 125 117 191 132 112 128 113 180 168 216 147 71 155 153 112 78 178 105 133 196 129 138 
80 162 128 107 89 146 120 139 131 172 163 204 87 77 214 99 54 56 109 142 180 153 64 130 67 141 151 107 185 119 75 210 115 133 159 94 123 61 75 85 112 93 77 115 147 145 96 48 24 138 133 94 136 93 169 139 156 215 138 117 105 197 184 102 51 55 157 135 227 84 123 130 122 95 96 122 33 153 125 112 134 177 130 137 114 37 157 104 127 132 82 128 116 70 99 127 141 101 85 107 
154 118 152 81 150 93 164 145 130 101 138 92 146 75 141 128 100 192 195 147 130 115 152 177 100 143 100 155 86 194 127 177 76 149 107 98 101 151 127 112 195 156 45 179 155 133 73 112 103 156 106 82 140 45 93 171 112 117 40 108 196 116 131 94 149 73 92 93 183 140 161 201 99 145 130 91 148 103 126 30 81 135 148 158 181 130 124 124 140 65 132 94 47 135 101 71 111 177 102 96 
125 142 118 115 115 58 81 240 239 109 175 122 121 170 149 103 92 131 29 89 128 81 142 127 42 224 124 50 82 175 117 96 151 106 141 123 154 71 189 140 40 111 84 109 172 129 91 129 208 107 83 135 127 121 141 150 137 131 92 152 131 176 158 153 88 91 127 88 162 118 135 149 43 117 89 99 115 208 143 148 201 161 57 183 144 157 120 133 124 126 196 81 149 123 131 159 108 165 187 126 
68 122 125 183 150 135 87 126 215 95 86 108 71 92 144 170 77 48 167 139 57 149 117 119 92 92 156 87 121 193 86 167 152 122 184 177 159 145 113 133 148 88 170 128 129 141 93 184 135 207 58 129 92 114 129 100 140 95 118 75 48 83 135 108 137 79 180 91 45 106 101 148 158 155 129 53 170 160 72 159 143 118 148 86 144 143 131 129 82 129 169 166 155 127 143 187 130 93 120 136 
140 81 117 123 125 112 99 146 96 132 170 102 131 150 90 85 104 47 126 128 176 68 172 169 53 193 148 141 91 186 191 106 72 146 114 228 134 178 155 140 89 129 138 59 181 91 74 43 38 196 138 82 130 213 99 131 138 66 125 211 136 202 112 135 65 81 68 167 156 181 100 124 132 48 105 122 166 154 108 105 159 153 132 85 209 153 108 62 88 76 98 137 106 103 105 206 185 74 134 167 
117 180 132 56 149 70 153 90 150 178 136 167 149 176 195 121 78 43 96 72 221 115 164 95 172 209 77 79 123 150 89 145 139 88 128 117 119 102 165 89 89 158 147 123 131 67 234 123 138 101 145 149 83 94 211 139 153 169 141 188 59 191 123 163 105 134 81 157 91 120 125 125 176 143 229 173 42 91 101 132 70 84 158 227 183 120 75 128 120 155 135 152 164 105 111 127 104 145 64 136 
126 83 136 47 43 231 102 57 141 161 64 183 145 102 131 111 128 123 133 118 186 117 160 136 187 55 134 95 134 167 125 175 231 145 108 98 77 163 108 61 120 144 111 96 126 126 124 142 86 180 77 209 177 154 106 128 97 173 126 109 224 149 161 66 118 96 231 150 174 132 188 54 77 139 139 212 77 137 108 191 148 127 98 93 207 121 123 224 99 213 87 123 58 155 101 164 111 144 82 96 
214 72 111 132 148 139 42 88 131 206 154 110 97 163 103 189 68 153 139 50 154 141 118 131 75 177 154 131 108 115 114 124 160 127 36 124 97 160 161 114 144 91 175 165 106 168 228 131 93 138 136 215 170 121 182 161 151 97 133 128 165 114 164 130 139 69 142 75 46 92 149 179 44 149 115 112 147 96 140 125 162 132 132 109 150 62 97 178 58 105 121 83 72 163 170 43 114 63 56 129 
135 144 111 167 149 122 100 149 115 44 167 114 137 195 98 133 148 146 161 91 176 166 121 34 101 125 133 156 142 97 68 138 116 117 40 143 238 150 81 136 79 94 141 191 120 188 168 139 134 145 178 130 170 145 177 128 105 200 139 110 95 93 125 99 87 137 99 100 132 55 212 125 155 127 119 205 183 104 122 151 153 132 187 167 93 140 152 129 91 115 123 122 111 211 151 103 136 37 111 157 
121 125 168 164 171 95 165 132 71 93 165 174 157 119 125 160 84 43 118 137 157 146 125 139 147 193 147 99 202 90 95 142 48 97 130 138 139 107 165 125 186 59 118 85 206 164 118 71 97 85 117 99 128 202 28 83 78 107 117 111 79 34 101 127 170 133 140 42 148 122 235 180 97 170 94 132 125 192 123 103 73 158 171 146 79 129 92 145 134 107 143 106 162 153 142 148 125 61 108 71 
48 97 86 103 189 193 172 170 184 94 193 108 72 168 180 108 80 174 116 122 125 111 133 127 140 116 125 139 87 128 83 144 127 108 59 145 150 76 117 222 147 123 175 149 103 111 119 113 61 166 170 75 146 74 160 162 168 147 85 114 113 147 153 188 135 170 85 119 54 103 189 113 42 187 109 122 126 181 126 109 166 126 84 92 181 135 108 145 168 125 145 145 129 93 110 187 127 157 56 239 
176 139 122 115 95 131 192 219 137 107 112 68 76 142 125 156 135 90 128 123 54 144 205 187 126 97 132 134 148 115 143 116 132 74 160 88 115 132 152 182 91 129 97 165 138 160 169 83 139 129 94 50 98 71 98 131 130 114 169 169 128 79 151 140 118 54 106 232 140 117 79 102 142 103 117 108 171 151 149 134 124 115 157 121 201 164 126 119 31 174 112 115 129 93 132 152 101 119 49 137 
193 189 180 98 124 123 104 188 162 154 77 130 130 112 92 109 97 115 188 98 168 176 104 132 182 56 157 203 150 129 120 127 128 96 174 159 123 149 182 172 121 104 145 178 181 62 117 155 176 155 160 97 83 169 135 150 178 183 135 22 180 122 195 90 153 109 157 133 184 118 143 223 133 90 210 106 146 95 111 131 122 95 139 112 94 70 150 118 209 150 82 176 153 96 134 181 116 63 182 173 
92 148 55 202 48 94 81 138 165 147 141 175 72 109 67 147 126 118 127 97 167 141 138 131 137 131 92 178 155 176 110 121 85 92 152 74 209 138 228 146 55 108 196 60 116 79 120 107 146 142 100 66 184 132 66 110 209 52 133 131 148 178 125 194 119 154 68 90 121 113 117 80 137 86 108 172 103 161 118 26 81 222 136 187 141 159 178 127 88 142 23 117 135 178 143 172 65 90 145 117 
128 116 152 56 163 148 73 130 145 121 115 123 130 158 100 100 169 163 79 159 129 133 173 161 140 177 120 94 141 190 187 194 148 123 224 122 27 94 55 143 48 143 106 156 145 106 100 127 125 100 90 127 97 148 191 165 125 63 131 56 90 131 92 106 82 153 110 174 122 150 95 103 121 162 106 81 116 89 88 129 137 126 170 169 110 100 81 86 103 90 159 164 95 102 104 133 112 139 54 104 
133 121 171 150 157 92 112 176 59 60 126 71 115 128 127 141 106 79 140 189 153 114 109 176 193 115 69 101 110 123 159 90 116 158 63 132 139 139 50 139 175 156 124 140 103 68 109 149 119 99 168 184 133 129 133 194 114 127 106 165 104 109 104 73 71 127 154 123 135 186 116 164 195 145 189 61 172 163 115 110 83 170 129 140 87 174 63 150 183 119 171 128 98 83 105 92 148 137 112 130 
113 64 129 109 132 79 95 186 73 165 102 163 153 126 122 39 194 130 216 134 126 220 135 131 126 145 54 95 179 67 78 88 164 191 151 123 199 192 24 112 188 103 80 155 158 149 152 136 81 148 129 150 101 168 125 117 109 98 128 158 139 135 120 51 172 128 22 208 116 131 123 36 155 79 160 92 138 107 132 177 130 61 138 38 116 188 105 165 117 93 147 84 104 128 104 199 96 112 68 102 
161 152 125 148 159 122 102 168 179 204 48 169 130 117 133 133 191 135 44 46 110 129 121 130 107 103 102 149 163 98 54 118 104 158 115 115 148 68 114 52 114 103 146 74 230 138 193 101 182 136 112 22 203 197 91 123 173 83 62 134 169 166 131 80 135 83 117 232 73 55 229 163 175 83 118 181 119 156 150 119 138 160 152 188 55 130 119 61 125 147 27 114 124 151 141 92 213 130 85 54 
190 176 70 107 160 151 125 183 116 79 92 186 91 116 88 151 109 126 54 89 106 139 155 206 148 198 131 143 80 132 98 185 104 191 204 43 146 73 164 157 141 127 123 131 114 92 203 96 120 134 212 111 143 181 58 186 103 132 93 111 128 77 111 116 92 139 148 160 171 81 142 80 162 126 159 147 162 207 132 146 131 139 104 111 171 76 158 171 197 110 70 130 126 139 136 147 80 93 118 165 
105 123 126 85 167 103 148 71 157 132 90 77 215 154 182 137 64 60 144 96 138 130 157 72 62 140 118 126 33 156 83 118 145 95 32 127 150 189 153 101 96 22 95 42 178 123 127 94 154 122 172 81 179 137 51 130 169 145 207 131 90 145 87 186 132 139 46 165 134 152 147 153 132 79 127 151 159 106 117 84 163 103 63 128 192 112 74 81 168 86 143 153 134 171 123 81 55 163 129 165 
126 190 112 82 42 160 108 89 56 159 123 134 135 68 140 172 136 136 105 149 134 44 34 96 136 69 140 237 110 150 138 79 60 79 81 138 115 170 153 110 153 119 155 73 136 127 142 71 101 193 116 133 110 154 163 173 131 127 160 134 132 152 41 113 140 158 82 173 146 177 94 183 129 95 117 54 50 118 110 99 76 136 154 140 90 96 225 106 75 205 186 144 160 113 203 205 63 136 111 136 
89 151 88 172 136 145 118 113 238 154 100 147 118 154 89 164 36 216 126 118 140 104 105 209 75 130 151 108 139 160 163 103 108 91 72 68 180 143 207 33 109 160 164 125 154 122 139 181 131 80 193 122 147 106 96 114 111 126 136 28 159 45 185 41 138 144 122 91 107 234 122 158 162 122 110 137 163 85 121 168 147 165 97 99 163 149 105 179 64 120 108 175 118 116 60 75 162 123 112 133 
126 120 181 58 111 135 75 74 89 177 126 60 65 39 219 200 76 123 91 162 126 82 93 108 149 91 203 186 85 147 167 148 222 107 200 142 94 100 93 164 92 108 123 140 109 205 171 177 102 108 96 165 122 77 163 147 108 200 163 99 166 180 51 172 143 168 160 160 122 209 92 53 105 119 154 180 125 117 101 94 184 120 148 149 143 141 71 206 109 115 91 194 97 142 117 121 116 116 54 99 
139 116 129 136 158 133 142 135 109 100 166 50 128 121 183 77 169 115 133 164 160 87 154 118 119 97 154 130 113 133 109 77 110 170 106 122 196 149 134 102 99 168 130 103 117 106 116 130 97 185 209 126 155 43 130 142 201 131 66 157 180 125 140 125 158 70 123 153 126 141 131 181 113 134 151 137 169 129 143 160 143 128 109 129 149 104 143 159 114 227 216 152 129 162 156 143 83 148 160 116 
129 174 122 158 131 113 105 104 114 102 138 150 177 102 159 153 216 140 187 124 217 182 88 92 67 154 124 142 109 169 126 154 217 158 108 114 114 96 111 162 146 84 133 134 88 113 60 128 164 144 133 158 97 56 132 137 94 120 170 180 67 134 126 107 73 98 107 107 90 128 116 74 140 131 75 129 136 115 128 108 122 226 156 197 97 74 145 72 104 147 134 102 223 127 132 95 115 141 93 154 
100 148 140 132 122 105 63 172 111 109 160 147 154 233 130 154 74 196 128 122 163 81 223 132 66 196 121 165 164 134 154 109 80 64 68 99 192 58 137 168 118 155 125 144 195 198 98 128 200 119 26 173 186 103 128 96 182 138 112 235 136 119 120 80 79 194 99 129 181 129 167 169 119 171 156 112 115 120 161 127 117 134 61 112 117 145 123 156 76 99 124 97 173 142 116 82 125 111 78 97 
113 94 132 81 109 93 162 179 143 179 105 150 110 195 172 121 84 167 130 126 123 187 119 123 176 154 120 162 100 95 96 155 132 92 124 119 96 121 140 142 121 87 74 99 126 130 113 133 132 57 46 167 145 118 145 192 119 87 162 114 143 124 52 137 119 237 144 139 94 153 157 228 74 126 157 86 139 139 115 147 78 95 114 48 131 133 178 133 53 126 71 162 143 122 131 131 153 94 64 85 
