P2
100 100
255
138 115 151 76 135 179 164 104 107 123 44 106 193 42 177 159 129 185 46 117 143 147 147 143 155 117 111 71 133 164 121 113 162 112 166 138 132 74 104 51 94 135 60 164 159 160 120 123 104 135 150 158 104 132 142 109 122 104 126 139 134 117 91 206 105 133 188 87 82 154 147 152 233 85 128 101 225 141 96 43 89 22 105 129 116 177 186 140 173 108 118 132 73 44 113 81 136 149 123 144 
135 116 128 144 150 109 127 73 159 112 107 123 82 150 118 120 48 60 158 217 104 25 87 181 168 140 146 178 88 41 142 101 96 161 103 82 90 76 75 135 171 77 100 75 77 68 168 141 89 54 153 131 127 87 141 75 140 101 127 70 184 85 121 149 92 109 105 105 177 118 164 148 55 170 175 45 159 181 100 166 143 119 101 146 86 169 131 144 122 176 124 199 98 196 182 107 192 170 145 129 
79 86 99 143 224 116 128 129 125 113 143 134 149 155 54 124 19 114 131 137 131 95 143 172 155 116 105 146 153 141 37 138 121 57 96 123 81 134 114 194 218 164 123 159 143 113 75 154 143 99 133 93 46 194 96 123 79 182 115 119 198 146 146 175 123 155 167 56 127 141 95 178 98 107 133 143 124 153 121 106 142 148 24 149 122 99 135 122 224 93 157 63 121 127 180 179 117 41 165 151 
129 178 179 122 199 90 198 125 114 71 121 137 129 60 181 165 77 153 199 178 125 117 73 149 136 160 134 134 133 72 120 105 159 140 137 113 88 138 150 131 140 195 134 56 28 161 238 134 47 157 163 159 86 80 115 131 175 180 152 136 118 87 136 60 168 126 131 159 116 195 167 160 173 118 158 176 148 107 184 165 158 120 173 124 106 81 142 176 78 132 64 99 125 113 172 132 210 123 167 88 
140 165 87 145 147 107 109 35 94 116 119 95 172 138 108 89 80 49 157 107 140 169 145 123 108 83 127 123 152 133 104 73 100 165 91 47 96 169 52 158 129 191 152 99 115 160 71 198 117 113 172 88 179 71 157 53 56 125 193 105 171 143 161 108 195 128 130 78 72 114 190 136 136 79 149 141 111 132 124 183 98 138 85 103 164 221 163 77 208 138 70 129 102 73 142 138 74 138 152 125 
137 157 158 158 148 161 145 128 82 177 131 74 51 154 111 138 93 133 202 202 100 47 147 65 109 36 11 94 166 139 150 173 220 172 161 29 84 130 122 142 103 127 67 123 37 197 144 182 127 120 141 107 144 173 187 84 166 109 122 149 61 190 107 150 132 80 113 107 148 69 114 129 169 124 190 199 162 124 221 143 171 78 110 160 118 196 152 113 77 28 54 177 95 102 126 128 202 101 66 131 
164 210 168 144 144 187 45 76 86 128 135 129 147 164 212 71 220 29 89 141 96 91 128 132 206 216 101 114 63 157 82 118 89 209 146 75 138 128 93 118 165 182 167 128 119 119 135 148 133 75 165 81 110 77 126 183 133 59 125 110 157 178 144 195 126 60 90 140 56 122 160 127 154 153 103 88 114 114 207 145 96 141 142 119 165 68 140 201 90 114 149 135 140 147 112 132 133 190 217 60 
128 141 130 120 145 81 108 176 126 118 121 21 39 131 129 123 118 174 129 82 126 141 148 108 110 169 126 116 154 129 170 199 126 95 100 119 186 124 133 234 74 168 130 160 135 188 111 98 109 74 96 126 102 60 128 131 160 137 32 94 160 176 156 63 133 96 137 144 103 179 137 100 110 110 160 127 119 121 119 184 133 117 199 117 177 117 48 102 119 123 102 95 101 224 80 145 97 136 123 190 
157 205 134 98 110 160 220 149 179 136 136 125 188 116 96 200 153 175 121 143 136 145 170 126 71 187 132 96 155 98 99 71 132 111 159 134 85 65 45 157 77 111 131 107 122 165 105 96 162 131 79 79 131 144 105 89 122 140 68 148 69 174 138 167 131 206 144 160 87 71 79 92 134 128 125 128 154 78 105 154 70 122 50 164 129 135 83 118 139 139 136 196 142 94 85 130 127 219 120 113 
97 204 56 68 126 145 114 64 167 142 85 46 137 156 130 133 172 64 173 59 191 139 146 166 134 82 151 60 160 113 103 163 79 149 141 143 220 140 104 123 82 90 215 220 153 115 137 174 152 211 129 189 125 53 71 128 87 118 224 77 96 159 162 106 149 134 127 92 164 184 115 213 82 94 124 93 86 170 117 133 128 153 127 108 62 161 83 90 100 198 100 78 156 128 213 126 173 187 119 137 
113 191 43 97 58 41 46 155 141 91 82 89 164 105 131 222 127 120 183 112 151 95 148 56 207 106 157 31 122 167 172 161 131 122 171 120 181 147 175 78 91 125 134 108 202 117 144 137 109 97 51 95 86 173 153 109 177 226 172 112 171 164 59 146 180 191 182 138 199 137 189 177 166 117 156 186 149 118 213 136 116 142 185 136 96 118 67 135 170 129 188 79 130 207 125 102 91 172 123 183 
164 183 107 169 164 162 154 129 183 95 115 142 149 111 117 160 109 121 106 108 116 122 70 134 189 167 60 124 113 110 167 151 63 160 116 81 136 141 178 180 111 195 136 158 52 143 129 139 171 105 93 58 34 133 164 139 118 28 122 112 64 134 184 131 188 78 159 31 215 92 147 145 152 102 139 130 128 186 149 68 200 44 124 104 59 109 136 56 151 113 56 117 113 118 114 80 213 166 198 136 
140 89 126 225 139 112 159 81 168 150 177 93 65 209 138 124 113 123 115 123 195 125 82 83 183 117 128 106 181 103 159 115 152 138 99 62 153 137 218 96 124 164 112 106 132 178 110 64 161 135 163 71 156 104 130 109 162 212 180 113 194 131 111 140 155 60 98 136 89 133 173 136 126 165 134 161 82 50 186 94 124 90 107 195 128 127 163 101 148 200 125 197 142 87 126 108 175 164 127 58 
111 163 199 145 192 146 93 57 157 130 88 75 198 125 57 127 135 225 77 119 148 120 172 134 126 154 150 91 160 73 133 96 141 126 148 98 171 64 98 132 50 139 153 131 89 79 131 80 60 119 134 124 87 174 206 152 212 101 108 112 112 56 83 71 115 130 212 129 162 153 190 154 208 130 166 158 116 140 144 149 123 109 177 113 105 198 142 85 144 124 93 175 71 138 126 112 132 131 131 46 
174 149 81 100 80 208 127 33 114 87 148 106 96 137 216 146 127 138 184 165 107 127 71 148 155 166 114 180 61 74 124 152 118 130 116 130 124 132 193 135 117 69 80 104 166 193 124 80 218 150 115 113 115 114 166 83 95 97 83 126 173 172 146 96 161 70 139 148 126 179 85 111 140 136 134 149 136 109 134 224 76 116 160 174 121 106 145 195 184 157 78 174 141 68 122 133 86 122 121 151 
125 168 98 126 96 142 61 127 124 100 188 87 75 79 146 160 189 98 154 149 185 128 126 139 123 157 145 120 140 115 131 138 61 110 222 190 165 112 136 134 178 151 169 167 49 123 147 113 63 133 136 135 147 114 168 111 95 181 75 77 138 49 138 115 148 127 134 125 78 132 113 68 123 24 124 92 116 91 179 56 118 160 127 167 135 128 139 72 92 122 118 84 97 114 94 108 134 158 154 113 
81 106 153 115 84 73 109 246 92 179 110 152 20 137 38 132 143 113 94 63 178 189 143 109 98 143 190 48 136 105 164 142 101 121 105 121 107 129 110 77 122 129 135 170 144 115 160 135 137 154 208 118 169 133 174 80 84 47 100 95 172 152 74 150 212 145 126 128 64 69 92 95 156 58 136 113 148 93 169 100 101 83 182 128 50 100 126 198 93 150 90 74 83 91 168 53 110 112 106 80 
148 96 89 123 184 168 147 114 35 84 209 148 68 210 202 206 132 154 150 155 36 145 110 162 101 121 171 156 153 65 136 158 199 156 139 192 177 122 52 53 219 129 158 148 56 42 95 103 101 111 95 119 113 74 140 159 106 158 173 174 128 106 133 125 98 97 161 119 76 116 81 128 120 143 123 110 86 159 181 182 114 112 78 110 73 174 116 88 144 57 230 99 88 155 125 160 170 160 130 158 
108 131 120 120 116 227 98 56 70 179 105 48 202 124 92 19 133 72 131 132 123 138 104 123 123 140 85 83 55 163 133 53 104 44 157 130 159 131 202 39 101 141 77 119 98 146 123 113 119 102 25 107 74 198 122 99 93 138 168 166 182 82 111 161 74 118 49 84 92 106 91 178 135 169 130 136 76 154 136 141 172 227 107 105 79 158 192 214 207 77 81 186 113 93 103 154 171 105 146 62 
81 130 143 129 154 204 113 94 152 128 141 131 98 99 167 154 149 186 203 146 208 92 151 200 119 125 69 48 183 67 174 42 153 122 148 162 126 146 87 208 135 36 164 152 97 103 64 118 123 168 96 212 110 211 112 142 174 148 78 120 42 100 175 132 116 85 174 77 73 181 59 146 66 134 200 95 141 78 77 157 103 188 146 111 128 212 196 84 82 77 145 166 134 196 211 132 129 140 199 179 
136 143 124 98 221 165 139 165 110 187 137 91 122 148 174 217 136 110 216 124 110 150 93 135 84 100 167 129 157 122 115 225 111 108 41 121 169 47 152 189 197 76 66 171 118 132 123 195 96 119 110 158 172 95 104 137 139 129 52 207 76 136 57 169 143 146 111 166 100 170 162 123 131 136 124 222 132 170 58 149 123 150 69 103 119 151 59 100 40 226 91 134 121 192 163 140 186 137 104 152 
45 147 110 115 174 137 67 158 202 158 110 86 146 113 122 70 160 98 130 181 73 63 145 103 182 87 129 144 144 156 88 106 166 108 45 123 161 123 120 73 88 59 147 176 147 141 162 141 45 90 108 142 151 125 183 129 181 49 194 119 172 199 90 209 99 121 216 222 59 155 89 207 110 208 172 156 151 112 160 129 123 158 91 129 104 209 99 60 125 105 102 122 210 99 170 195 73 167 137 172 
172 162 110 119 226 125 148 118 95 80 22 103 135 163 199 147 150 82 29 170 79 174 34 102 81 127 118 161 81 96 195 195 113 89 164 70 161 150 132 128 121 151 96 202 78 116 159 143 144 125 133 126 121 40 115 120 132 176 147 88 128 98 157 39 149 116 170 136 128 85 59 193 135 135 187 159 122 122 88 75 142 128 148 79 157 77 115 182 167 162 141 112 221 165 58 114 166 153 104 123 
137 38 111 156 129 120 192 106 108 150 112 84 97 171 86 119 141 141 144 185 127 171 148 109 92 155 136 138 125 145 152 42 121 104 214 98 127 134 176 127 98 132 39 176 205 102 160 93 150 106 109 136 138 134 149 66 91 109 147 116 84 86 134 127 163 136 53 143 51 146 85 65 58 187 129 136 70 136 135 94 182 130 138 142 90 105 60 114 81 31 159 203 128 88 170 129 132 147 105 150 
170 112 117 129 115 110 84 92 91 81 55 128 81 207 123 85 24 132 129 158 141 161 164 205 112 90 178 106 125 202 142 120 141 115 81 64 132 99 119 96 120 174 143 101 200 117 165 72 217 136 165 131 103 108 122 74 107 190 88 110 167 173 134 147 89 163 140 141 198 124 138 106 144 135 117 107 89 103 156 180 117 134 179 160 75 121 115 207 123 126 166 140 121 115 95 194 126 198 123 166 
233 142 153 106 141 153 113 66 142 156 145 122 116 120 96 106 93 143 88 108 59 134 186 202 120 101 100 134 127 174 78 154 146 128 117 167 16 104 88 110 173 117 168 129 93 131 171 95 152 151 33 159 139 137 145 31 25 137 165 92 74 152 107 101 107 134 84 110 160 167 120 79 134 185 117 179 139 139 162 119 103 82 151 99 126 155 125 113 202 135 143 149 94 102 122 161 143 190 156 154 
58 97 169 44 122 95 126 122 144 47 77 186 136 127 127 161 66 146 159 93 83 162 200 116 126 102 127 195 106 210 148 61 182 125 78 124 66 98 160 135 142 155 122 145 72 167 116 207 165 179 141 93 103 100 177 105 121 121 165 119 107 149 124 176 148 102 131 125 143 109 129 137 148 146 96 118 98 17 124 89 101 121 149 147 207 171 121 88 52 117 127 189 113 119 178 139 79 134 126 107 
153 156 86 116 169 97 181 155 81 164 159 45 153 121 106 135 100 142 91 117 149 156 171 56 98 159 169 118 112 213 139 92 108 126 145 99 38 71 63 143 200 119 136 198 123 166 162 157 108 96 157 128 112 70 72 162 101 231 87 129 198 113 22 119 120 97 37 142 91 113 118 35 17 88 141 46 80 108 147 133 161 121 120 142 143 26 139 139 138 100 183 143 69 196 197 112 96 174 101 128 
136 88 100 170 188 74 84 79 131 176 105 145 96 111 114 154 193 69 126 148 129 64 206 85 131 111 101 150 145 127 174 73 207 118 157 162 198 196 198 85 146 177 157 79 119 118 52 100 185 157 96 128 114 186 176 128 133 203 120 126 92 133 189 184 140 169 202 117 164 169 175 147 102 165 170 49 132 137 105 105 154 114 47 174 107 129 106 62 86 156 72 108 127 57 121 90 204 113 107 137 
141 142 51 148 128 100 155 138 89 115 110 148 44 116 41 87 138 94 184 95 155 148 173 116 81 126 147 183 132 133 133 160 116 203 114 121 127 104 87 115 201 147 100 109 92 76 76 93 56 108 123 194 118 144 124 132 50 127 101 112 133 122 133 165 195 105 30 130 120 139 89 152 126 175 110 164 163 207 144 71 145 175 112 108 101 156 208 107 62 101 120 145 136 119 127 207 156 140 134 206 
153 151 50 150 194 165 175 114 118 162 97 198 130 54 168 116 133 77 39 59 127 90 134 107 99 105 92 113 128 86 142 90 71 80 134 106 204 146 129 200 165 54 76 117 135 113 114 97 153 211 79 135 33 146 140 73 108 70 99 102 102 137 111 73 131 137 100 155 102 207 183 117 105 126 174 81 109 141 57 64 162 113 71 137 80 138 139 96 178 115 93 138 80 149 148 146 146 39 225 43 
97 138 136 175 129 110 136 188 151 170 139 123 152 126 151 43 84 95 124 88 171 196 142 106 129 20 132 69 161 27 152 82 133 129 141 100 176 101 67 115 159 167 202 122 120 100 198 105 56 173 128 190 68 128 133 159 144 132 139 125 136 139 126 123 100 83 178 75 86 168 121 85 172 151 101 141 99 75 146 198 31 139 130 135 183 109 161 156 154 30 149 111 84 102 135 192 143 144 116 149 
90 90 117 85 81 85 152 120 173 185 48 30 135 130 66 145 164 151 172 133 153 111 154 112 161 157 178 172 47 74 118 126 140 66 180 110 150 122 144 109 173 149 115 167 140 117 205 149 91 127 122 121 141 159 133 39 182 134 112 118 201 62 151 174 165 114 95 103 99 139 163 132 117 126 177 127 155 103 93 75 122 165 224 119 124 63 113 132 137 53 122 168 68 114 182 74 186 96 152 103 
162 43 165 109 131 131 91 162 151 69 94 126 63 123 132 110 172 80 77 157 138 48 8 104 216 127 136 101 142 134 78 157 116 137 119 80 159 96 86 124 102 131 142 105 152 173 155 137 53 183 135 146 145 182 135 99 103 177 126 198 142 101 138 100 122 152 45 217 186 170 127 171 112 104 91 206 163 18 99 36 228 93 133 140 60 144 106 144 108 207 154 143 81 129 155 200 34 120 138 171 
184 86 227 151 183 170 143 99 167 62 142 39 147 139 117 169 112 81 129 94 191 122 143 163 134 66 117 125 203 127 225 90 96 143 148 62 113 148 170 97 140 117 86 141 157 117 165 82 174 192 166 92 183 132 170 167 172 122 131 128 90 105 180 108 114 139 151 68 156 211 103 114 141 133 183 68 173 26 135 221 32 105 35 74 150 74 119 122 209 152 139 122 107 129 145 202 176 82 118 88 
72 116 123 94 65 165 186 97 84 197 175 120 147 85 121 137 100 188 162 94 137 130 44 129 112 234 102 134 124 74 146 164 149 79 193 99 95 115 132 138 182 104 95 134 75 147 122 81 59 149 151 136 197 135 62 112 121 121 100 122 230 116 73 194 157 127 99 67 141 107 78 122 126 81 171 142 193 138 116 102 213 153 128 115 40 102 119 144 75 181 55 167 157 146 113 135 134 199 122 142 
167 90 139 134 49 94 191 191 171 34 226 138 130 124 64 114 174 115 152 188 150 77 93 103 127 159 109 142 187 127 169 99 124 184 149 56 160 133 109 146 130 86 147 139 95 128 152 97 164 72 125 130 125 176 73 58 160 160 119 195 143 160 144 90 171 156 109 152 78 104 127 139 147 209 192 104 133 130 61 161 101 125 145 132 212 172 157 55 110 112 38 95 125 134 193 192 81 223 125 113 
62 186 172 105 186 160 197 183 105 116 127 99 87 124 116 92 122 116 154 243 231 180 92 190 84 144 218 26 111 68 142 73 193 135 196 107 171 111 95 177 137 114 128 83 189 83 75 35 192 153 178 157 128 129 62 169 145 96 49 195 87 155 49 113 130 164 72 146 143 152 109 140 200 80 127 135 160 194 138 118 79 136 155 119 58 91 131 70 86 59 88 201 211 136 46 137 134 115 69 158 
149 224 162 130 118 111 177 83 175 111 167 198 131 149 175 131 107 126 141 142 107 143 184 120 64 138 74 132 195 142 63 126 116 95 98 147 68 167 97 143 103 140 148 47 117 171 116 178 168 93 162 75 147 113 84 119 153 89 137 128 178 113 119 138 150 101 184 96 128 142 114 71 70 123 155 20 118 176 46 85 125 70 127 148 164 87 213 148 102 136 112 105 183 134 75 158 114 99 234 75 
90 235 114 171 77 105 123 184 125 205 161 180 180 109 159 128 155 147 135 94 229 84 119 102 170 52 149 145 159 151 184 85 125 111 117 141 120 192 173 132 145 120 69 200 87 45 48 103 134 112 148 83 178 91 79 177 49 214 8 179 126 80 133 147 92 99 168 109 137 125 117 130 92 126 94 104 47 206 83 78 132 133 137 115 117 118 135 222 140 146 201 82 98 114 118 149 95 123 92 167 
140 88 110 138 109 154 168 133 68 133 138 162 177 128 75 48 148 201 110 93 209 98 160 96 122 131 115 91 131 123 115 148 117 71 94 140 169 111 169 97 80 142 146 130 118 128 70 70 144 145 130 113 209 152 60 121 71 208 95 115 133 176 124 92 135 153 132 87 113 80 131 212 128 177 61 124 143 170 94 126 113 89 153 168 78 61 136 91 43 126 167 92 162 97 52 128 117 62 96 96 
163 153 27 98 176 92 153 140 198 104 145 123 177 144 220 136 30 51 220 120 124 179 203 61 133 132 26 107 22 110 121 67 188 76 175 138 130 114 138 133 114 188 64 124 186 130 115 112 162 97 163 55 106 57 140 154 155 57 180 129 109 75 54 71 76 141 112 175 102 137 73 108 187 129 95 157 98 129 194 138 134 183 128 31 148 141 152 141 130 131 167 79 90 215 182 203 176 105 152 104 
134 138 96 87 147 168 89 94 96 104 134 156 44 142 72 122 177 121 81 123 104 134 118 144 99 140 98 135 104 156 158 115 119 111 164 36 164 139 127 175 129 149 60 157 116 156 54 48 106 132 75 126 31 127 86 78 125 92 94 96 130 117 47 124 101 136 178 182 125 159 189 164 191 61 138 102 141 183 148 106 53 160 207 90 88 162 110 192 226 124 95 114 177 148 151 101 202 197 99 123 
146 43 130 79 112 142 77 132 104 83 83 110 172 126 87 90 115 152 153 169 93 151 153 97 175 195 71 21 110 58 101 131 161 140 139 115 132 155 131 158 138 150 204 166 122 114 101 150 162 121 122 167 121 84 74 142 171 64 190 201 66 115 158 137 156 109 146 52 136 73 110 138 172 76 142 186 100 218 203 119 174 136 165 138 183 116 158 104 176 165 151 87 166 100 97 103 112 42 188 119 
74 114 160 130 55 168 110 99 102 123 154 203 117 103 133 53 138 79 75 165 107 159 64 100 138 136 201 67 130 145 46 131 107 100 136 163 156 110 177 84 146 85 160 132 136 144 144 126 156 114 155 132 99 115 133 143 77 111 143 118 121 217 183 209 83 70 108 101 122 132 110 85 137 131 92 123 176 134 162 118 144 132 148 104 165 128 111 101 98 88 118 107 149 143 135 160 134 100 89 87 
136 161 111 195 85 120 98 194 191 103 142 137 157 136 86 157 147 106 131 132 48 154 117 138 120 97 138 147 48 111 189 178 94 153 100 121 136 103 149 127 100 171 171 125 161 87 120 120 140 117 161 105 129 148 136 135 92 135 163 55 70 108 152 178 21 45 161 134 145 148 175 139 99 203 202 91 160 157 71 183 125 125 207 117 142 135 49 90 63 135 107 122 128 105 170 148 89 222 84 113 
115 141 171 100 115 96 92 163 55 51 60 181 122 163 162 74 169 114 136 101 190 124 55 116 125 85 132 123 105 149 173 136 212 172 105 120 144 166 163 129 171 157 101 158 79 129 127 165 143 104 168 114 101 100 143 87 87 92 60 244 105 132 96 173 124 149 193 137 146 138 83 128 162 140 138 120 175 176 93 81 215 98 11 86 132 151 162 191 138 191 142 120 78 129 235 153 53 82 89 220 
86 141 144 117 158 145 157 183 78 172 148 119 153 169 97 55 149 59 182 175 128 113 202 118 181 118 130 176 193 103 163 132 61 112 96 89 139 112 110 205 126 162 91 143 128 100 208 160 183 119 67 146 142 169 153 202 160 148 158 135 82 111 106 139 109 183 84 153 166 174 96 122 157 153 57 153 107 118 109 106 176 180 134 184 43 93 28 108 125 158 144 136 106 163 79 136 192 145 67 97 
114 155 123 64 114 132 60 213 175 69 87 218 158 125 144 112 176 173 178 102 156 122 147 175 122 123 121 161 145 125 57 115 132 82 150 73 153 89 98 94 106 150 104 122 96 119 38 111 119 108 75 119 104 126 81 135 190 167 156 78 117 112 65 103 134 153 129 158 101 67 76 166 129 58 87 60 97 74 96 101 191 120 79 120 90 112 46 105 146 61 79 48 82 146 142 130 102 135 106 93 
88 92 153 144 120 108 114 80 107 156 35 28 141 87 147 127 157 127 137 76 150 143 113 125 77 177 134 150 198 133 91 164 157 121 132 150 80 124 144 146 92 132 250 125 123 130 148 93 102 74 94 58 141 91 142 119 134 126 166 170 136 107 150 158 125 159 113 128 84 137 187 101 152 77 86 123 119 127 75 100 119 136 190 168 141 128 180 153 162 206 133 123 85 94 88 146 149 135 123 15 
127 125 115 174 114 111 47 89 60 145 99 100 65 100 111 105 153 147 123 87 138 140 104 67 179 135 130 83 129 125 137 194 180 58 109 117 160 197 195 101 164 137 68 89 201 236 150 155 74 152 143 170 186 177 98 74 216 192 181 147 174 108 133 76 59 130 107 111 121 181 121 138 138 148 159 136 116 113 157 178 129 74 143 174 92 93 185 118 89 205 53 198 86 142 113 161 144 144 98 77 
138 129 88 183 131 146 86 145 121 75 169 160 160 82 153 73 157 55 178 157 145 61 76 94 211 126 168 188 105 40 92 121 120 67 196 204 108 67 98 70 136 106 115 128 88 132 140 127 82 61 208 184 80 177 138 221 115 125 144 122 102 92 46 172 210 108 120 86 130 64 111 162 125 73 153 163 139 159 177 92 76 67 86 137 147 106 182 124 149 111 63 155 100 164 73 95 130 138 112 119 
178 157 125 157 150 155 121 103 156 141 58 130 118 103 148 201 159 103 120 206 37 189 123 155 211 233 122 147 148 124 132 144 59 150 81 113 108 136 135 51 184 116 123 101 103 202 92 107 129 145 171 158 164 157 83 78 169 121 194 102 72 143 178 72 121 124 114 107 48 164 47 128 100 116 132 146 122 119 27 125 132 136 136 73 167 148 115 173 95 65 157 104 139 105 134 102 117 196 149 200 
124 104 159 34 163 56 56 214 138 219 145 59 107 63 149 165 108 104 166 117 154 170 120 135 127 36 124 117 80 157 52 131 182 69 32 89 119 111 135 104 61 99 155 141 108 110 152 134 85 74 114 164 78 159 57 157 184 161 189 141 146 176 115 117 186 128 114 137 94 158 106 95 159 200 56 158 66 104 124 174 218 136 185 63 98 181 135 138 103 209 80 237 82 71 141 121 122 131 173 127 
134 124 151 151 137 124 42 103 78 51 84 123 147 102 218 124 138 158 68 133 131 115 167 46 138 123 90 137 195 104 121 107 217 109 155 124 179 105 126 140 63 102 147 110 200 122 169 167 129 149 159 180 119 102 102 160 106 66 87 113 89 158 111 142 40 117 125 217 198 65 106 189 74 126 106 198 30 102 178 96 103 79 158 187 180 135 191 199 183 100 119 156 71 135 203 227 95 120 139 119 
157 67 139 17 107 155 135 59 125 112 130 137 168 125 227 133 131 61 36 81 64 169 158 74 151 152 152 179 130 172 157 148 132 89 123 72 149 63 140 182 106 140 92 221 100 71 127 128 105 129 152 113 118 128 160 156 125 198 131 74 198 143 166 58 103 50 199 134 113 151 45 128 138 137 115 161 132 137 122 124 144 141 43 97 77 120 85 181 105 137 86 79 146 145 138 210 143 143 69 89 
119 181 85 85 159 201 188 54 149 128 122 88 135 126 32 101 139 107 147 81 121 133 117 121 99 171 106 159 156 108 99 87 114 163 39 128 66 107 82 161 78 72 129 183 213 161 137 183 108 136 115 87 153 136 129 164 113 48 96 122 112 101 171 85 146 90 169 126 176 135 103 170 199 60 178 202 134 125 140 112 113 110 112 50 96 124 112 153 147 102 150 104 35 129 145 102 143 84 89 152 
114 91 136 170 84 136 187 162 137 128 99 157 124 177 109 101 141 147 104 124 179 103 145 87 124 151 123 155 123 84 131 80 145 120 159 140 115 142 163 203 109 158 123 198 151 150 223 111 196 151 164 123 165 132 130 159 158 125 141 175 121 137 112 145 109 108 177 116 83 198 48 93 100 71 145 90 142 84 178 124 72 119 125 108 159 137 156 147 141 76 150 82 150 118 20 68 141 132 118 108 
194 132 49 194 149 174 131 175 72 201 177 126 127 118 72 128 132 119 102 107 164 146 126 130 118 192 82 149 111 149 97 49 86 153 170 108 72 40 92 64 92 81 169 165 124 118 165 134 150 132 99 103 149 166 136 198 84 116 59 103 173 103 190 154 118 152 133 131 149 123 44 153 60 209 145 127 139 83 152 62 70 154 71 176 198 139 78 129 163 208 163 59 140 110 84 80 98 146 46 187 
154 171 106 136 116 79 173 161 52 136 95 101 148 71 111 189 159 79 89 98 43 166 160 124 122 131 96 146 122 197 160 119 103 60 226 154 144 154 159 85 173 168 65 139 171 95 122 127 190 73 45 147 179 132 49 142 154 54 78 176 100 110 211 128 134 111 144 144 44 113 86 138 136 99 202 105 231 214 133 151 158 71 143 185 104 58 174 159 122 106 113 107 188 150 128 44 108 115 178 181 
104 81 115 168 164 167 124 63 116 162 209 81 138 182 106 99 112 200 109 106 156 145 152 131 130 62 67 188 132 145 170 51 88 124 68 47 180 147 172 133 78 106 131 117 85 163 132 183 137 205 121 143 102 153 145 82 109 98 184 159 88 198 184 177 102 91 74 155 122 146 103 112 118 44 107 113 133 125 127 146 143 160 135 171 66 103 127 150 167 76 200 140 123 138 191 75 196 119 91 129 
209 175 137 124 198 90 119 112 109 154 108 183 152 58 183 164 207 119 118 88 166 60 139 151 98 118 113 100 165 113 84 45 105 123 108 83 152 132 135 73 146 127 68 113 129 212 131 202 81 44 67 177 78 172 74 117 130 129 149 117 129 86 190 78 185 123 170 111 154 137 153 135 130 144 78 92 124 71 83 121 130 82 116 152 195 76 187 94 67 166 129 174 125 141 109 142 170 52 134 190 
119 125 156 157 165 140 140 106 168 137 151 50 91 190 179 150 224 131 149 87 127 99 116 142 131 84 152 192 127 81 125 91 127 93 148 93 143 63 233 185 44 144 124 127 160 85 205 34 85 19 138 91 114 88 112 159 131 199 129 195 146 162 118 118 172 108 159 141 231 84 140 137 107 138 54 190 178 89 71 120 41 114 130 154 125 225 123 159 80 85 205 173 167 192 114 163 117 137 127 207 
130 91 136 95 136 134 103 186 133 151 66 147 91 72 91 144 162 137 106 121 112 187 63 78 205 140 126 102 126 98 69 174 122 121 117 147 157 105 107 117 169 132 179 214 109 129 52 110 69 80 181 84 186 83 132 100 115 196 112 133 67 73 165 59 27 161 163 122 127 147 115 160 110 55 176 136 137 185 81 145 176 180 144 100 134 99 121 97 115 107 190 72 172 79 111 107 96 27 116 79 
66 149 217 115 90 123 160 134 140 190 227 175 166 105 144 116 141 85 117 126 136 152 119 161 133 119 47 116 130 103 216 113 129 146 146 72 59 125 145 114 124 136 143 141 121 93 64 152 133 147 139 181 121 170 66 191 135 137 92 140 138 114 130 119 201 189 153 136 131 140 121 113 180 75 77 199 176 147 118 166 69 56 135 140 214 118 187 125 107 122 106 129 118 191 138 123 122 165 166 173 
102 146 133 128 151 129 120 155 96 93 108 105 62 163 108 109 95 159 160 35 204 138 129 130 93 129 135 71 117 132 141 123 207 86 124 65 131 52 166 140 146 133 120 138 136 141 107 97 175 98 150 131 95 93 118 140 60 149 86 183 58 136 121 141 78 120 161 118 179 117 92 180 91 95 168 70 58 84 113 181 180 156 115 142 185 84 132 75 121 117 108 106 175 185 108 83 92 162 148 84 
186 140 146 141 104 154 123 141 156 134 125 107 119 130 157 105 97 54 51 128 120 83 85 126 199 188 132 59 148 180 104 63 126 94 167 100 157 117 121 68 178 119 138 137 114 121 31 165 114 111 155 114 162 99 163 122 56 124 208 113 64 171 98 223 97 166 120 119 134 62 98 129 89 135 80 120 112 150 112 125 171 64 115 172 62 183 220 204 45 63 68 157 174 144 93 88 32 143 157 160 
149 138 126 169 170 155 178 144 124 220 139 130 79 154 189 104 127 165 155 93 115 58 147 142 85 129 114 116 111 71 56 71 81 123 122 142 160 65 126 116 137 94 138 87 81 112 98 213 145 110 111 38 101 175 124 62 142 114 182 127 75 152 184 119 59 30 80 183 209 163 32 151 132 169 127 143 127 108 127 127 124 79 141 131 152 155 119 146 119 144 139 66 105 143 85 91 180 161 118 141 
105 164 115 141 127 143 142 87 124 98 147 168 215 142 96 152 199 73 82 92 144 68 162 57 146 152 190 83 112 87 155 164 125 145 118 93 144 88 124 168 191 57 98 115 138 103 73 147 156 155 165 178 168 123 117 142 171 71 198 90 177 57 105 133 116 163 163 127 138 148 121 121 157 140 99 167 113 53 116 149 106 174 172 57 136 233 118 43 88 156 139 111 113 117 66 143 108 175 59 83 
154 103 122 118 122 109 162 65 192 142 225 160 123 201 176 132 125 129 110 135 142 172 97 116 149 79 136 133 134 187 116 102 146 138 110 119 131 222 183 124 124 53 126 159 60 220 97 108 190 122 116 102 105 71 150 59 106 130 52 85 144 134 143 140 80 96 140 160 86 184 86 39 150 175 123 19 115 130 143 43 114 131 120 93 109 193 153 28 161 81 133 124 113 86 91 95 116 167 149 68 
220 79 144 124 88 166 115 140 124 143 124 166 135 137 99 166 62 137 169 135 95 115 198 117 95 81 94 166 144 79 176 144 122 138 109 144 120 145 94 149 81 143 52 149 128 115 159 113 211 120 158 228 58 91 150 117 157 26 127 149 152 125 121 135 96 169 122 193 140 121 126 91 143 109 117 176 125 137 100 138 114 183 145 99 80 173 136 164 114 79 37 155 166 147 137 185 64 53 113 93 
122 152 90 62 121 82 37 116 153 80 12 56 32 107 108 107 117 94 181 75 119 145 142 172 145 164 51 103 143 54 98 152 68 228 116 109 122 148 141 103 130 204 133 81 166 94 88 77 83 121 98 48 138 109 100 129 158 130 87 180 65 94 63 77 118 91 139 116 89 92 154 108 188 161 141 114 183 172 120 125 49 62 186 126 118 167 149 114 123 192 82 83 98 170 92 116 126 111 125 140 
56 148 86 192 194 37 93 157 117 118 91 137 118 79 154 138 206 41 127 114 65 230 67 123 120 54 117 84 196 136 109 108 81 103 99 102 75 139 92 193 129 132 166 73 158 107 168 135 134 178 97 140 88 93 90 129 146 138 129 111 78 162 107 151 198 73 125 178 61 197 129 102 143 126 87 126 209 147 42 160 102 124 166 138 120 96 168 208 170 126 11 132 163 206 227 119 126 148 126 165 
152 180 171 191 176 125 118 200 151 97 134 149 79 156 137 165 66 150 86 86 155 208 129 100 93 85 142 156 90 176 166 205 126 98 78 150 70 188 85 86 115 137 150 68 63 204 190 79 113 143 121 172 87 126 106 117 197 97 183 127 168 124 104 130 96 113 157 119 115 205 185 123 91 84 140 150 26 89 114 210 94 89 153 72 154 108 120 146 126 200 191 164 136 152 99 166 194 207 154 190 
117 135 72 175 104 115 133 100 156 159 156 187 99 110 190 169 86 99 135 73 161 95 73 77 108 162 150 142 132 121 129 143 34 137 126 159 166 78 149 133 195 125 104 96 165 114 90 145 105 171 156 88 138 137 188 135 78 114 72 174 142 128 206 152 119 98 85 83 107 145 98 194 178 176 163 79 132 107 138 124 126 136 128 71 155 34 114 180 105 56 118 177 99 131 122 136 118 82 161 61 
116 208 150 104 101 98 140 113 125 98 152 135 120 138 218 103 124 116 123 100 112 120 119 169 144 101 178 144 90 179 123 164 121 139 130 128 182 164 150 83 75 128 209 92 152 155 182 132 111 95 143 126 150 103 128 63 114 127 160 126 137 101 142 123 158 170 91 115 200 68 120 162 147 197 113 98 79 182 138 138 101 114 81 194 98 130 212 146 110 135 171 188 125 62 117 125 106 145 124 134 
137 110 158 88 104 100 125 156 106 84 128 145 149 107 83 158 116 150 196 138 144 76 197 170 214 110 101 161 181 231 97 112 92 152 115 229 43 127 125 153 169 177 109 106 122 116 134 120 192 145 100 164 98 115 97 39 99 151 130 146 128 86 102 31 186 171 166 73 75 161 129 119 154 96 145 100 81 185 128 109 94 108 185 113 99 184 121 125 62 123 124 152 116 206 146 148 162 192 88 62 
60 143 219 123 149 107 172 121 114 123 133 80 95 206 108 195 81 131 199 200 95 130 102 172 110 133 69 100 101 111 104 104 225 152 172 154 34 130 66 87 172 146 133 80 91 140 169 79 162 134 237 151 85 91 179 132 119 24 116 81 105 127 210 196 84 137 52 93 197 158 98 120 95 77 82 84 116 193 183 42 203 172 180 196 130 180 156 97 143 90 105 168 38 193 163 144 177 81 115 167 
107 182 103 80 111 50 210 177 109 75 199 125 199 82 83 53 164 120 113 86 95 142 168 152 131 66 126 154 156 120 213 116 105 167 179 150 211 149 75 183 109 109 133 69 88 60 119 142 126 64 91 141 123 102 149 84 120 144 79 195 145 113 135 101 196 81 91 132 180 146 124 116 79 123 148 145 83 150 108 115 182 123 114 99 136 147 143 34 72 105 98 83 132 94 111 165 62 108 175 175 
98 154 175 135 132 72 152 151 155 125 111 149 124 86 119 127 108 107 86 161 82 151 131 136 122 77 123 118 65 48 81 130 134 152 172 119 124 222 113 200 79 147 153 146 99 163 133 99 121 105 197 124 162 67 113 189 193 90 126 95 158 97 158 150 86 109 111 136 85 137 136 50 133 147 103 201 125 122 99 146 110 142 152 157 65 124 106 122 98 149 139 123 159 108 128 141 105 38 179 164 
87 211 166 184 174 132 146 148 123 125 116 198 108 153 173 182 100 188 174 156 72 82 132 26 138 144 145 128 138 194 130 110 32 105 107 103 174 114 129 148 134 120 86 125 171 120 140 27 161 80 56 111 62 124 85 157 190 107 67 169 76 146 149 100 85 40 131 194 130 188 126 67 160 149 141 128 168 136 125 214 137 72 153 66 154 136 120 140 132 111 126 169 115 111 30 147 87 101 148 91 
189 100 106 110 138 126 137 129 77 125 139 120 64 128 91 42 80 116 146 91 137 131 204 110 183 125 151 139 133 139 194 80 165 147 126 198 83 141 106 124 97 134 179 168 159 242 188 176 219 99 85 106 197 145 124 88 144 195 92 193 137 139 124 127 195 184 113 144 177 131 169 49 137 95 48 124 173 137 100 173 74 74 95 131 105 131 151 135 126 167 86 83 218 83 141 71 86 119 113 119 
92 131 119 119 227 137 117 147 137 153 134 187 133 159 82 133 200 86 162 89 154 68 119 156 127 158 133 95 143 157 149 34 138 114 95 86 137 40 150 128 105 80 22 127 86 159 39 171 119 129 121 91 158 86 122 85 227 177 109 118 212 181 155 122 170 193 156 131 62 84 113 70 107 191 118 109 37 135 135 146 115 109 53 135 170 143 95 136 126 65 104 104 89 181 152 64 84 115 127 208 
135 180 81 82 184 147 95 141 98 123 70 85 108 130 209 168 159 108 161 133 141 141 121 100 157 140 172 86 48 94 174 109 140 180 140 160 146 133 94 129 107 131 113 231 133 131 81 75 178 163 164 121 164 92 96 75 94 118 109 144 141 119 121 147 160 129 106 99 95 107 162 182 180 72 56 196 78 159 109 155 126 156 147 118 116 61 113 126 81 120 43 135 107 14 120 89 149 238 135 137 
205 130 152 180 150 169 157 189 160 62 39 166 54 124 159 214 75 176 121 176 146 131 127 146 54 205 41 148 129 216 103 117 88 137 82 116 108 174 127 148 160 102 81 122 84 106 137 122 59 158 71 123 154 174 90 136 214 42 136 179 115 122 158 127 130 111 179 108 97 217 104 107 111 149 81 148 130 164 163 101 38 153 144 55 136 112 127 107 146 92 217 119 95 122 71 161 123 88 109 116 
138 145 103 168 120 86 99 159 148 217 167 123 145 177 77 15 114 198 102 65 166 179 130 96 147 37 187 148 138 142 93 169 122 139 129 132 152 151 118 114 146 136 163 105 141 82 132 64 85 189 117 186 124 91 205 183 91 190 73 123 101 124 106 76 132 94 120 51 86 162 81 120 116 98 121 110 140 145 137 123 111 168 113 116 210 123 103 76 147 131 215 86 85 122 186 121 110 216 84 200 
101 99 121 125 102 135 147 135 230 165 163 91 98 91 184 188 143 188 108 102 167 58 151 96 74 57 208 157 105 120 145 118 121 92 89 159 142 88 128 183 177 115 193 104 182 156 94 104 192 134 68 174 135 128 171 163 170 69 28 168 125 157 133 125 66 191 173 172 194 43 118 130 138 88 94 95 106 143 88 92 133 70 110 74 98 221 114 110 159 161 99 141 127 110 121 112 198 161 136 79 
168 173 121 29 102 126 95 63 129 71 130 129 175 195 162 109 133 213 155 85 45 204 95 24 107 125 126 185 98 181 126 83 128 105 65 130 147 142 99 151 121 92 165 114 100 181 139 74 119 114 117 175 100 117 132 157 136 147 91 171 73 154 172 153 121 174 158 103 132 125 154 83 141 134 115 77 102 111 130 65 132 123 176 103 160 155 111 38 217 103 187 140 39 53 130 126 101 59 138 145 
173 100 76 70 80 156 66 139 102 197 136 118 115 71 153 136 205 147 89 59 49 94 155 176 124 84 211 98 110 154 72 170 118 135 99 149 197 117 161 103 128 111 97 126 129 147 108 172 138 112 109 143 76 115 157 133 66 156 149 48 81 182 119 133 187 105 61 165 21 78 88 75 85 71 95 166 173 75 119 45 122 121 151 141 165 140 94 113 126 194 91 183 85 137 99 154 190 63 109 107 
83 116 216 171 52 140 138 105 151 166 146 127 120 209 68 92 51 110 96 98 226 168 78 69 204 125 139 117 79 118 123 146 160 98 76 196 151 212 167 147 147 64 110 133 105 211 143 201 86 185 135 74 84 64 133 137 178 70 152 144 168 47 33 70 114 133 171 104 129 180 189 94 123 70 142 163 135 127 101 62 33 67 64 62 85 167 123 216 183 140 126 136 113 102 204 91 102 136 133 101 
105 146 153 50 153 144 38 78 53 162 153 207 109 155 104 137 143 81 153 94 81 99 120 102 98 198 111 199 74 188 183 82 178 101 128 82 192 60 174 140 132 184 139 136 123 203 34 143 90 207 137 146 155 116 94 90 165 69 172 118 71 133 218 115 196 57 114 146 132 97 154 101 83 122 164 98 114 168 171 103 137 147 176 117 109 172 73 202 98 91 93 217 186 152 119 83 123 92 149 130 
106 178 143 142 182 139 140 186 56 83 176 109 115 106 163 176 185 161 133 174 138 101 215 165 151 90 127 95 224 209 98 205 89 138 83 151 152 157 118 115 186 146 168 128 220 115 114 188 122 158 21 114 152 24 142 140 103 101 45 191 66 124 61 34 12 122 126 124 148 115 176 66 159 187 55 115 126 164 136 196 150 82 114 46 78 145 129 145 146 122 165 126 115 127 132 133 44 171 130 110 
111 130 174 126 139 199 157 152 64 147 125 102 213 152 98 139 229 160 146 86 80 94 71 123 112 66 117 72 105 116 125 117 97 122 22 107 111 121 223 199 165 161 136 139 181 139 158 134 183 83 181 123 106 107 121 104 137 102 94 152 162 164 104 131 123 91 157 192 102 117 70 102 138 166 104 162 62 162 180 152 116 149 110 147 83 209 192 130 110 116 122 108 94 58 132 119 137 169 58 105 
161 86 26 136 195 143 181 87 132 234 87 97 134 139 109 170 120 75 144 110 128 117 93 89 170 113 177 114 136 242 74 88 131 102 84 143 63 136 159 218 125 132 129 181 131 145 103 85 83 134 160 91 102 122 112 133 67 148 137 126 169 133 131 82 173 73 94 97 68 148 69 107 132 162 106 75 148 183 130 153 150 84 40 210 128 121 91 121 96 38 99 137 119 186 135 148 181 232 182 159 
152 74 93 142 65 163 177 128 123 208 48 132 106 176 133 145 107 161 138 139 110 176 87 114 131 107 87 95 173 79 111 97 102 118 100 144 151 38 113 151 142 113 185 126 173 129 157 116 54 157 74 85 189 98 100 125 99 175 94 111 97 138 163 134 209 73 116 118 134 134 197 64 164 232 121 128 141 121 159 128 181 135 86 164 126 136 106 132 166 199 180 65 219 91 114 160 129 135 142 127 
160 184 131 50 146 87 100 124 135 121 120 117 115 120 44 79 159 142 133 149 117 93 128 126 143 119 162 150 96 119 181 126 105 115 97 138 198 146 151 169 140 79 191 145 162 90 144 103 111 120 97 84 161 70 129 169 134 101 119 164 122 35 168 81 204 145 189 168 82 141 160 64 130 174 127 165 57 101 70 131 94 121 150 140 188 76 119 73 108 166 85 100 189 174 133 138 145 121 39 107 
111 63 115 127 153 109 151 173 152 114 153 75 99 42 126 146 48 96 99 96 198 75 131 209 122 33 115 142 196 129 107 191 94 144 67 146 176 167 162 179 99 63 122 125 148 187 100 171 172 212 102 101 157 93 174 140 127 128 80 56 97 116 52 108 79 89 56 96 216 144 174 77 89 137 62 125 148 154 117 121 74 76 124 121 178 110 133 152 153 66 64 127 145 150 184 89 183 107 124 86 
132 110 95 223 186 230 131 73 131 137 154 107 120 161 124 152 132 129 82 106 139 135 80 103 155 168 162 177 124 134 115 204 161 144 136 94 127 79 95 133 144 217 48 134 86 79 115 127 120 129 169 84 110 92 127 111 98 129 187 108 158 64 82 142 159 184 113 170 170 41 104 193 138 209 137 84 137 179 94 154 186 44 120 125 154 91 118 92 168 61 129 113 123 119 130 129 151 91 186 125 
126 150 89 229 91 196 105 197 114 135 137 81 190 138 101 62 159 163 69 181 90 153 172 110 181 63 124 122 46 78 145 110 177 125 59 86 141 95 215 120 114 130 95 117 75 54 169 145 149 147 113 107 68 79 118 140 187 144 208 112 115 83 135 85 168 194 162 94 202 119 46 86 112 115 126 118 209 105 87 110 122 187 140 76 84 86 159 171 143 103 59 87 156 77 148 189 137 153 42 185 
169 96 49 149 179 157 131 129 130 114 121 145 92 127 148 87 148 122 59 142 142 76 111 170 114 137 93 163 149 217 164 34 124 81 87 74 142 178 160 199 116 135 57 136 84 138 193 111 147 85 136 106 85 91 155 118 119 158 147 119 47 166 119 119 112 91 144 136 163 197 67 99 74 97 138 107 145 130 105 146 139 114 97 14 203 179 175 91 114 64 98 129 188 104 167 112 118 181 54 117 
