P2
100 100
255
62 142 141 144 127 170 117 106 107 119 150 128 151 177 97 119 91 94 115 139 123 130 95 41 55 147 189 96 95 74 175 182 80 138 94 170 153 130 173 105 74 122 137 132 121 127 53 163 99 133 111 135 70 94 85 61 84 39 100 160 122 125 107 238 169 146 158 120 61 104 107 87 94 136 107 49 104 166 77 122 118 137 151 160 65 145 120 127 74 88 142 211 127 111 160 170 146 125 67 116 
56 188 49 179 103 172 130 47 202 133 107 138 67 196 85 131 127 236 150 131 74 108 176 175 144 154 155 177 174 118 51 88 192 85 99 125 122 120 94 123 127 168 140 225 189 117 148 121 122 135 62 80 104 115 74 132 139 157 160 91 169 108 117 162 37 96 155 135 89 179 117 142 86 188 176 79 57 129 46 207 96 132 119 119 127 122 126 179 27 112 71 176 189 169 130 119 116 177 215 73 
129 100 166 72 164 114 154 125 129 197 75 197 161 134 157 131 103 127 127 116 76 71 59 144 201 212 149 120 175 109 161 134 121 118 127 76 144 102 121 145 184 71 59 94 134 116 157 206 76 102 36 189 135 150 96 121 154 215 166 127 140 188 127 63 99 117 163 125 110 207 106 125 62 161 154 143 156 122 139 147 127 152 39 173 69 81 104 82 135 70 114 73 125 137 162 38 195 149 89 137 
76 138 120 121 173 155 153 178 178 186 139 140 187 206 81 46 184 139 147 125 123 145 159 117 89 99 124 167 206 116 116 127 120 99 101 84 148 53 113 66 143 133 168 131 123 103 147 110 86 181 77 107 140 105 61 152 89 93 73 151 150 104 56 131 153 205 122 165 121 162 107 90 113 102 151 115 161 141 101 87 147 143 95 161 144 144 146 169 143 207 94 159 140 144 153 149 106 119 102 132 
123 198 141 109 161 125 121 138 148 155 124 162 134 161 124 150 85 140 127 173 200 184 139 128 106 171 108 130 139 118 140 66 99 131 166 162 178 114 105 155 97 99 146 232 25 75 101 150 120 119 118 53 101 123 131 124 83 115 151 101 138 50 119 179 153 173 125 114 89 201 72 23 91 165 58 135 81 65 155 97 149 119 128 143 215 77 133 122 156 109 64 134 116 110 45 158 169 118 134 120 
124 99 131 134 82 204 61 121 154 102 155 182 159 220 77 86 204 140 203 69 105 46 202 84 98 92 154 183 150 127 149 135 171 125 26 178 116 135 154 114 115 73 195 85 20 88 80 103 119 101 136 192 145 157 133 75 107 145 125 133 107 115 186 204 98 178 73 44 147 90 159 132 62 113 153 149 97 121 79 94 140 88 136 85 146 100 135 115 32 125 47 184 145 153 79 66 197 134 238 89 
131 167 97 207 19 45 157 86 72 146 105 116 124 104 188 97 120 146 138 144 59 122 64 122 25 144 9 177 134 99 97 59 121 126 128 111 74 160 103 194 185 172 192 71 108 86 114 176 156 156 29 51 137 135 135 131 108 54 108 159 211 118 134 144 183 87 165 121 104 156 123 145 230 170 129 134 228 129 176 160 56 138 87 193 144 146 98 183 150 106 143 231 106 136 194 127 102 181 93 126 
194 125 62 106 128 161 87 184 114 120 162 135 102 107 113 98 174 134 138 121 104 56 136 54 123 151 138 117 105 124 165 117 161 169 100 192 214 107 145 110 84 154 176 142 121 91 137 82 141 59 146 144 169 116 193 210 151 111 148 109 129 60 142 120 125 41 131 160 128 164 158 105 130 145 31 176 106 90 163 128 193 198 149 98 108 95 103 120 163 119 119 177 78 111 57 113 89 189 123 113 
201 114 53 216 107 122 137 139 155 128 137 159 141 97 104 205 127 145 155 154 101 158 129 124 148 231 134 40 175 128 162 135 113 84 105 109 99 96 136 135 118 178 171 95 111 104 77 66 87 132 129 141 193 148 110 157 200 135 191 80 183 129 90 126 62 147 120 153 213 130 92 140 174 136 107 134 106 174 203 23 147 148 166 96 132 213 135 108 151 126 145 214 165 151 90 147 110 138 127 110 
114 108 98 69 112 211 167 104 157 103 126 80 76 79 65 93 60 170 147 115 122 140 112 109 108 161 131 106 107 78 160 158 133 88 110 151 110 138 153 189 112 131 70 70 182 146 132 149 55 192 141 65 118 196 200 147 91 142 128 147 132 165 101 51 158 81 95 134 106 119 114 121 128 128 123 138 131 120 153 174 98 85 154 150 119 158 29 142 85 95 97 72 168 202 168 53 140 63 135 118 
152 124 161 177 175 84 122 89 100 111 103 158 121 137 29 118 126 69 145 106 114 105 149 109 128 196 229 140 61 124 170 144 129 200 121 112 131 107 155 97 45 157 108 75 231 214 147 36 107 147 124 125 106 104 97 146 70 169 179 67 171 127 64 60 136 85 106 161 72 207 192 149 127 117 140 130 138 74 152 139 178 157 90 133 127 103 122 126 82 136 124 91 142 92 196 175 107 119 118 83 
136 109 109 142 145 119 128 114 207 86 141 88 133 118 169 147 118 34 106 89 84 128 113 148 93 152 169 137 131 76 111 93 84 131 125 125 158 133 159 70 104 124 116 119 132 132 91 166 114 137 92 93 42 171 132 194 110 148 114 92 110 111 109 197 101 78 138 56 176 53 130 193 145 171 112 194 79 169 118 185 165 76 125 115 62 181 140 135 88 200 125 139 98 199 120 29 95 145 176 128 
146 87 127 201 104 149 168 58 118 127 138 167 196 129 122 161 180 74 123 77 143 178 149 126 134 120 120 117 36 141 182 153 136 102 144 95 119 164 200 165 120 110 119 160 151 100 136 130 118 116 169 172 150 138 142 144 62 74 188 133 159 112 155 135 159 120 81 159 114 155 157 133 117 147 106 155 47 218 159 113 172 102 176 129 49 192 152 83 202 137 213 99 170 192 169 150 152 111 142 121 
117 111 108 189 162 195 111 168 96 101 84 140 100 119 138 26 49 119 143 70 65 152 150 157 34 114 103 119 86 131 176 129 136 118 114 169 164 74 141 164 112 72 140 142 144 190 109 124 106 168 40 128 124 151 176 157 49 112 71 159 91 102 154 123 167 102 185 114 151 72 180 111 71 184 88 126 143 71 191 138 69 65 162 152 161 117 151 102 195 86 81 88 134 140 111 104 127 110 141 140 
68 159 144 145 138 51 127 152 79 111 102 184 147 152 128 70 121 62 125 118 139 69 194 179 113 148 159 146 133 132 64 120 143 114 210 182 138 140 144 142 159 137 166 41 125 69 63 77 175 132 91 86 196 161 174 63 107 96 128 213 104 116 140 135 104 163 153 93 119 188 123 163 145 144 109 100 104 159 127 148 176 56 181 108 147 189 196 228 185 182 69 103 121 95 104 139 173 78 122 42 
156 125 173 170 113 189 137 120 66 144 87 124 112 98 96 65 98 119 147 128 147 195 134 111 95 135 26 159 93 133 85 111 98 86 108 44 130 146 99 180 103 137 154 145 145 89 71 112 109 86 125 114 123 134 139 81 152 103 140 49 152 187 185 93 115 77 64 117 122 122 120 94 175 180 123 145 125 151 141 71 121 131 138 174 159 163 120 60 192 207 74 70 223 158 99 106 37 89 132 205 
189 149 149 176 82 88 126 66 103 55 103 150 103 188 133 131 167 89 194 87 166 125 138 134 35 182 76 114 112 174 107 94 131 204 166 76 201 150 220 139 160 234 129 114 78 95 91 85 192 129 136 146 74 169 119 100 120 187 192 125 117 117 129 172 103 174 167 124 81 141 141 121 175 101 130 125 120 145 117 154 125 128 97 173 114 156 78 155 182 186 68 51 47 202 161 145 166 121 195 198 
135 141 123 41 95 115 78 93 194 140 144 70 118 139 158 126 96 140 76 187 111 87 118 110 100 46 208 163 81 170 86 125 120 158 59 186 108 89 85 148 153 73 169 108 78 124 116 216 82 62 129 165 123 104 132 95 108 154 94 164 116 110 51 128 134 132 104 121 118 36 62 96 194 193 132 155 154 96 138 146 57 142 47 115 88 112 156 159 195 163 119 104 139 128 139 151 66 153 169 64 
112 108 126 166 138 105 60 89 63 136 186 116 159 132 66 104 126 145 86 163 130 149 124 90 143 102 100 122 123 152 142 130 165 132 117 126 170 47 160 167 109 177 165 173 81 155 156 140 115 69 72 145 124 112 185 139 118 234 101 107 121 121 141 240 179 206 133 197 118 57 75 136 147 182 130 76 115 61 162 89 110 80 58 105 138 219 63 216 106 89 151 93 158 86 137 146 110 151 145 175 
208 66 137 117 117 93 111 120 144 123 132 147 158 215 131 135 117 191 100 37 124 135 134 150 38 171 103 172 86 132 163 205 125 168 152 176 28 98 66 173 129 138 176 105 100 131 127 117 133 197 139 113 131 117 100 150 167 65 187 141 99 132 117 91 150 148 152 113 116 172 210 52 80 167 172 117 94 93 113 142 143 185 92 171 127 157 113 120 88 130 225 129 161 76 91 133 204 140 137 147 
187 101 123 177 103 136 124 147 107 149 167 145 114 134 73 158 101 155 151 182 103 129 77 139 133 175 210 121 191 184 115 154 104 106 75 192 53 198 224 139 113 105 125 143 105 103 78 113 175 134 114 117 121 158 96 127 68 93 164 93 134 164 123 43 129 116 110 131 85 114 152 177 111 132 134 142 202 141 185 168 151 132 176 62 81 155 48 81 169 194 120 151 137 123 187 90 151 108 49 151 
136 189 185 155 114 150 94 112 117 155 94 99 193 127 131 65 92 124 116 95 191 145 141 177 148 146 97 136 109 132 53 46 103 184 118 82 82 110 158 124 125 109 186 230 102 139 116 165 121 84 167 139 161 139 70 87 58 77 128 157 120 124 103 187 150 33 27 133 111 41 195 186 102 110 72 103 136 129 138 124 135 144 117 136 88 177 174 167 147 181 138 121 75 87 127 54 25 139 36 156 
107 132 158 146 150 132 161 111 113 40 91 91 115 182 92 128 198 99 180 128 111 162 131 146 121 148 74 120 72 134 50 122 107 73 94 103 136 132 174 138 138 79 118 186 102 101 149 103 77 133 158 179 165 132 193 99 139 127 47 208 134 81 151 134 168 143 114 84 127 134 81 98 131 153 170 147 84 207 132 132 134 115 149 110 127 112 139 51 164 127 116 62 110 182 122 75 46 157 143 114 
152 153 19 172 130 55 92 135 156 64 57 189 228 63 62 143 190 96 175 29 103 132 116 176 187 29 60 175 193 119 65 160 124 122 174 131 119 138 97 167 166 119 81 92 123 112 90 164 90 189 112 96 197 86 170 98 87 176 92 141 178 164 151 71 117 88 111 188 161 63 144 175 5 101 78 87 139 207 13 115 16 127 81 154 44 123 142 153 168 128 147 195 95 96 189 157 130 158 132 119 
71 205 19 117 121 135 173 62 51 120 129 66 74 54 148 134 159 163 127 152 185 99 125 79 53 168 114 34 150 153 111 126 135 202 119 106 99 113 113 54 186 127 139 99 47 148 132 162 153 130 103 196 68 127 203 75 154 103 135 130 135 126 152 154 120 180 115 109 141 187 109 110 188 140 105 130 223 139 53 186 163 136 149 120 179 83 106 146 110 123 132 143 61 87 113 134 108 146 45 108 
120 113 218 110 175 143 122 145 223 97 186 68 175 127 105 141 116 122 205 165 108 68 105 121 55 140 134 77 141 103 127 90 172 179 83 123 117 82 149 196 65 125 121 206 109 142 209 92 156 174 117 95 128 165 178 152 141 207 62 155 234 162 171 59 130 147 122 153 137 228 86 216 210 107 146 62 148 72 132 201 111 71 190 157 117 143 102 57 112 171 137 136 154 212 147 112 124 138 134 119 
127 84 93 125 139 189 143 106 192 169 127 172 168 162 138 211 135 152 114 164 144 135 70 185 87 131 157 192 41 122 87 38 184 105 57 173 138 168 145 179 67 36 87 91 87 118 197 126 196 76 103 126 153 170 100 155 82 136 120 203 158 178 173 145 161 108 159 126 130 184 119 46 59 133 113 53 68 175 56 118 102 134 189 76 78 101 65 34 130 145 145 76 78 86 136 120 105 79 66 113 
65 84 139 122 69 108 108 132 189 124 25 89 113 172 142 231 49 187 170 180 149 150 114 78 183 125 119 122 119 113 107 143 140 51 106 77 36 154 129 116 104 104 159 81 99 159 106 109 145 54 93 121 214 206 60 46 95 173 119 158 140 123 91 135 61 103 162 98 110 75 111 127 84 43 85 153 118 113 154 201 52 54 122 142 107 115 139 127 146 169 71 83 104 76 126 50 101 74 106 88 
118 209 142 167 152 114 87 71 125 124 188 134 126 96 101 164 156 97 130 133 211 140 139 127 161 135 98 76 156 141 134 164 132 54 152 146 114 109 175 112 95 83 99 122 131 185 115 162 173 160 108 124 108 72 224 113 216 157 127 111 155 181 134 117 118 159 103 103 137 56 205 86 163 60 66 135 126 109 92 167 90 176 40 146 165 52 153 131 130 167 139 176 144 138 119 211 96 121 122 120 
94 73 112 170 160 235 116 148 99 134 79 172 112 170 182 136 122 143 156 52 154 151 143 117 81 129 111 124 124 163 145 141 166 120 25 104 131 116 127 97 186 150 129 185 155 182 104 116 179 213 136 64 97 121 140 127 118 153 117 45 173 114 130 136 80 132 128 227 37 128 123 137 69 97 103 119 92 76 182 151 167 151 134 112 243 130 98 82 215 110 91 81 82 99 148 78 191 75 66 137 
116 147 93 44 131 53 150 45 111 74 64 202 109 104 108 82 74 74 135 155 63 146 70 192 82 149 165 135 134 151 124 122 64 168 214 160 176 116 162 89 188 143 216 101 123 137 82 118 127 159 130 73 126 89 79 237 97 128 155 154 143 123 133 122 170 188 138 68 118 138 162 172 84 120 147 110 194 117 64 156 136 67 106 140 199 119 166 174 112 191 175 53 123 127 137 130 60 94 224 58 
138 121 112 94 82 114 136 124 169 104 184 88 114 119 145 158 181 178 92 166 211 138 146 148 87 130 117 161 142 148 131 132 198 128 124 135 136 95 178 128 90 135 207 145 93 151 238 107 114 60 112 121 139 169 169 164 87 136 102 167 163 201 102 176 140 165 172 85 129 125 130 229 75 138 196 126 126 183 102 85 91 146 139 154 212 95 172 167 73 145 126 166 145 117 179 110 74 217 93 92 
126 125 140 93 91 160 149 52 91 139 93 148 203 176 135 125 43 123 184 143 131 110 178 177 208 207 104 138 149 123 135 112 155 201 206 120 52 100 59 186 177 158 201 91 176 97 118 180 217 95 124 155 105 140 115 141 113 195 91 74 164 134 159 146 134 49 137 137 85 129 79 124 144 105 171 108 137 144 195 105 108 101 78 169 119 79 181 162 156 110 123 230 159 136 129 99 133 44 81 74 
148 164 151 104 69 61 150 153 147 133 127 170 119 127 124 104 92 115 152 189 105 152 167 145 219 151 172 139 128 158 125 141 96 93 170 170 140 141 140 103 188 124 198 122 151 131 43 166 141 152 167 132 86 145 56 162 141 85 138 143 117 122 22 139 127 161 135 162 45 129 129 153 80 181 126 135 108 171 130 145 215 189 161 211 138 71 139 84 111 200 123 209 75 182 136 59 100 136 191 154 
76 104 138 145 121 112 185 40 87 134 121 95 103 99 200 167 163 173 124 147 138 115 120 162 95 147 181 101 76 69 22 49 143 174 69 115 88 50 110 74 151 141 138 86 115 107 74 143 124 141 38 39 71 100 75 183 103 103 122 141 123 125 47 96 115 118 129 222 121 165 129 56 107 117 199 98 145 120 40 156 146 206 95 116 58 157 45 124 83 168 108 187 218 94 135 220 216 68 114 138 
145 127 179 214 81 73 138 242 144 126 154 115 124 111 102 56 79 111 151 124 107 146 125 191 148 97 152 162 154 163 122 93 130 106 118 107 114 173 73 177 157 66 195 92 110 113 206 119 129 134 81 89 155 77 173 41 197 106 129 98 165 57 137 112 99 143 116 116 113 124 116 144 140 150 100 132 173 173 175 129 84 102 95 74 182 145 94 153 126 159 94 169 103 139 180 115 225 98 168 135 
52 60 119 144 114 53 84 169 110 126 67 126 124 95 116 171 193 109 64 97 144 142 94 165 35 69 160 175 118 141 148 135 103 166 117 196 60 209 138 90 135 62 146 150 48 190 227 61 58 155 193 83 194 105 72 76 107 177 46 96 94 132 66 116 151 161 116 136 71 137 96 124 98 72 123 38 117 164 39 119 136 192 148 169 184 168 67 96 130 115 166 144 48 125 135 117 144 192 78 95 
150 139 196 50 71 107 73 99 201 158 26 133 132 185 121 200 72 126 173 100 226 154 133 200 140 144 132 167 109 124 54 55 144 123 100 226 135 177 104 211 190 144 167 140 174 130 134 47 171 115 149 171 85 100 139 121 140 158 124 137 92 114 123 152 103 84 207 112 98 49 145 49 131 54 141 128 167 120 186 115 33 107 73 195 110 123 172 124 26 117 150 151 199 205 69 153 74 124 91 180 
151 91 128 189 153 107 57 121 142 110 140 70 127 101 178 97 123 112 139 155 193 77 76 211 161 190 144 156 118 143 159 155 165 97 124 185 106 129 69 108 96 70 71 162 138 126 163 149 122 174 115 71 110 128 52 164 105 123 119 23 58 182 158 33 174 127 107 111 115 107 143 139 90 139 153 160 161 86 179 208 85 103 114 148 122 132 100 206 113 162 208 146 65 136 121 77 149 139 122 62 
125 92 36 119 59 104 94 192 186 148 136 103 159 74 95 125 79 89 143 155 39 94 129 122 61 177 111 150 82 60 75 145 123 148 141 158 109 140 136 100 190 124 117 114 134 125 97 129 69 117 43 99 130 151 202 178 161 179 35 126 147 120 126 200 160 162 50 102 107 129 117 142 134 145 114 72 172 120 132 65 50 194 73 219 73 146 228 105 193 142 152 76 135 131 104 157 119 108 115 127 
114 40 143 133 113 69 226 145 132 140 114 117 76 173 90 167 130 135 101 95 172 99 162 197 120 76 76 198 135 68 167 111 57 99 154 183 123 184 160 151 116 84 168 111 133 103 143 126 134 71 72 149 129 105 122 199 92 187 143 118 110 193 135 179 91 122 209 164 151 114 187 157 138 138 53 120 167 147 77 174 225 32 174 124 130 111 121 153 155 96 142 196 151 109 88 101 95 186 90 184 
140 131 129 119 140 202 132 125 102 126 85 76 137 147 198 129 85 92 153 125 13 195 139 186 139 96 78 174 131 126 130 212 172 140 14 135 119 115 108 92 107 90 124 141 141 132 165 186 84 131 128 107 103 86 65 123 116 63 163 147 109 154 106 148 176 173 102 147 119 128 120 166 157 134 155 130 177 93 154 116 127 136 120 208 136 142 127 86 104 147 129 154 206 150 129 169 116 157 211 154 
90 60 104 116 179 117 138 129 136 86 121 124 170 126 121 147 123 144 218 180 129 127 97 128 58 74 134 115 44 117 127 207 37 163 103 134 156 126 179 124 149 11 204 119 84 69 60 212 117 85 161 112 95 148 133 142 98 88 124 156 121 129 157 130 178 161 114 149 76 95 196 199 140 88 91 192 111 219 128 137 69 82 154 124 134 129 56 129 79 126 139 119 116 126 115 125 41 161 129 147 
157 157 120 59 151 51 131 97 186 37 136 77 123 134 122 110 159 15 194 120 110 55 177 171 136 109 86 243 210 92 175 94 134 157 194 122 167 141 225 73 109 182 90 61 88 117 104 105 112 123 179 140 88 89 208 40 129 80 144 154 161 115 189 142 152 111 140 167 115 137 71 141 28 206 138 98 147 132 125 65 71 116 128 126 146 174 118 69 218 148 110 142 209 199 72 117 133 154 114 159 
44 127 111 169 138 124 148 161 156 131 137 192 97 153 44 138 223 173 144 79 140 161 136 149 149 149 117 95 141 219 188 171 138 108 173 147 72 88 130 144 177 72 142 162 33 121 113 141 107 69 157 90 120 142 206 115 168 153 44 179 121 106 135 137 97 107 94 215 90 114 93 223 173 78 110 123 73 40 145 109 128 96 165 178 62 126 136 127 211 70 179 113 169 120 106 159 59 123 149 62 
80 165 110 118 160 142 120 89 115 107 101 145 149 67 182 173 193 108 175 98 71 158 103 130 137 111 168 156 102 116 101 68 175 179 119 204 126 185 101 134 142 33 196 184 143 116 217 165 186 52 218 134 139 170 209 138 151 130 172 122 78 177 107 132 95 173 77 150 78 87 117 167 93 82 94 143 149 74 124 96 116 87 119 119 186 100 172 107 189 107 98 179 162 48 140 117 136 97 192 62 
122 109 190 213 120 135 135 123 60 88 184 65 168 159 144 100 84 131 144 142 123 131 137 90 75 105 79 170 85 143 123 134 213 149 111 75 105 109 122 139 205 96 120 48 131 166 54 148 102 180 174 148 110 155 225 131 83 126 221 50 127 136 102 153 90 185 161 157 95 132 136 172 172 102 179 199 175 82 136 163 133 218 203 22 170 159 151 175 86 107 182 153 192 78 145 196 175 202 167 60 
162 92 149 122 131 74 116 125 120 114 115 165 60 65 165 89 113 193 142 122 103 112 170 182 214 115 155 165 126 226 93 148 50 111 95 197 148 115 178 90 128 135 75 100 101 128 208 219 103 140 105 126 217 143 182 158 143 189 158 168 82 171 168 106 204 212 176 104 81 113 137 173 124 97 169 134 143 124 107 121 39 72 102 111 168 184 167 139 78 156 43 131 138 84 75 180 84 163 159 144 
117 187 166 176 105 123 155 78 86 92 135 181 99 140 214 89 161 109 195 159 159 122 133 83 124 70 130 67 190 149 86 174 185 42 170 153 30 99 99 119 138 132 112 169 148 130 99 85 115 117 73 153 123 156 152 131 225 160 92 43 69 121 183 109 64 186 106 138 80 93 149 137 60 151 132 160 108 136 166 140 201 189 190 176 113 178 118 153 127 122 127 89 93 124 115 107 43 158 102 200 
132 72 34 134 187 174 135 137 119 137 211 204 26 139 194 116 47 126 131 141 111 92 162 138 107 63 175 136 117 210 127 122 96 123 195 97 149 138 185 30 145 154 64 119 95 225 55 102 126 115 179 78 111 85 90 122 59 127 101 151 142 80 87 134 156 137 146 116 110 121 114 148 203 139 177 160 113 143 125 145 215 196 64 115 178 128 106 124 60 100 144 121 165 152 199 88 135 123 140 125 
80 123 145 149 113 78 157 149 46 127 120 119 91 115 157 141 134 115 164 59 118 96 45 97 105 122 118 109 192 121 84 136 129 91 143 120 110 215 201 116 121 139 167 132 26 136 77 109 179 177 116 111 128 162 78 126 137 62 112 172 54 102 118 135 71 166 143 129 142 191 125 167 166 87 136 35 122 202 184 104 212 126 192 94 96 171 138 114 169 147 191 34 202 142 93 142 163 201 101 131 
120 123 64 132 216 207 132 172 132 142 142 203 83 101 157 68 64 50 99 106 128 141 159 145 93 118 114 151 161 67 138 93 99 130 228 145 181 62 102 238 103 195 155 149 134 212 204 127 78 74 165 88 147 123 84 126 165 126 170 118 131 41 104 43 163 128 154 227 209 58 29 170 79 151 97 177 153 78 70 129 113 93 157 73 70 97 170 131 132 192 85 35 212 120 119 98 108 76 78 187 
141 132 153 119 128 106 103 183 120 171 177 142 138 104 149 135 194 184 121 74 130 154 163 126 164 120 110 136 182 67 92 61 133 181 111 89 56 111 205 141 78 106 183 158 142 126 138 78 132 131 130 186 149 159 128 106 201 136 111 127 120 133 120 168 65 149 112 127 84 103 151 86 160 112 84 215 190 68 125 140 136 99 155 145 106 137 228 123 124 140 129 95 109 116 126 140 95 59 130 139 
135 200 121 136 97 117 150 127 130 213 68 97 105 166 156 155 110 147 116 155 162 61 172 114 141 72 108 148 159 66 98 125 161 79 101 140 191 145 112 134 101 142 112 95 196 86 129 60 109 95 46 136 119 73 159 113 90 124 141 89 130 144 194 198 85 172 132 139 183 104 90 83 146 118 76 188 143 154 116 182 188 148 133 111 134 83 70 137 82 142 102 147 151 118 83 76 114 91 147 116 
174 109 108 98 165 67 128 172 74 125 110 96 181 132 80 186 142 109 130 106 174 166 138 97 97 70 106 58 198 106 133 72 127 125 68 103 112 139 110 70 65 99 141 101 146 127 174 120 95 42 188 89 128 136 134 101 155 105 216 138 132 132 100 93 67 158 103 121 167 106 158 84 49 131 78 147 80 50 113 93 173 148 113 117 169 148 140 73 144 95 98 95 140 116 106 137 90 141 125 157 
140 120 78 159 103 123 151 94 115 147 156 117 86 173 122 67 102 148 125 145 89 106 142 149 181 105 186 180 93 146 124 147 101 104 104 97 162 211 155 80 127 138 148 101 123 124 143 178 144 132 146 189 124 86 136 170 102 112 124 111 82 207 117 85 114 90 96 145 124 158 123 103 71 100 80 44 183 118 225 127 118 134 117 74 145 130 85 126 128 120 131 115 142 137 130 204 127 138 104 188 
85 71 151 151 78 127 130 142 224 115 147 164 185 120 124 142 191 137 178 189 132 115 161 94 144 161 190 161 103 137 127 124 100 105 115 117 75 117 133 105 132 170 133 76 140 109 90 106 118 158 141 123 114 187 63 115 198 131 156 111 137 98 133 129 184 141 75 83 197 137 146 136 110 69 196 104 104 165 174 137 122 138 148 150 168 141 127 88 199 154 142 129 141 153 112 138 110 125 130 187 
141 168 177 153 169 115 159 117 164 132 80 117 109 151 124 125 129 112 131 134 109 81 132 157 165 144 194 122 91 117 95 133 61 145 117 149 133 99 138 134 61 81 107 234 123 162 127 55 186 86 180 155 146 121 171 124 150 92 124 203 67 60 110 181 132 112 81 128 45 123 100 136 83 119 71 140 207 129 123 139 123 88 95 137 145 143 188 131 191 85 141 98 152 108 145 172 149 202 129 100 
71 107 149 189 158 181 152 76 126 156 83 224 94 135 112 107 182 100 190 101 105 139 121 208 103 124 74 187 137 118 112 123 111 155 119 93 93 128 124 84 79 178 137 114 142 175 126 169 125 72 157 192 135 133 125 92 84 135 201 189 124 125 102 174 52 152 210 135 105 81 163 125 237 180 139 120 137 83 109 116 231 127 106 120 190 141 148 178 102 123 189 107 58 117 122 147 110 206 113 126 
117 225 202 173 150 174 88 127 101 138 115 120 137 129 110 97 174 154 85 191 85 160 94 135 147 110 152 98 53 127 90 149 138 228 102 131 109 107 224 191 93 187 62 136 148 114 148 120 153 121 90 226 99 183 161 183 72 140 213 136 51 196 97 114 85 191 88 181 97 151 79 122 116 149 182 134 5 28 131 138 92 206 94 105 98 138 118 123 17 49 149 59 130 124 97 130 205 192 131 97 
152 133 180 136 120 90 133 128 63 106 66 65 156 194 123 121 206 112 119 157 133 125 122 130 67 74 126 116 60 115 106 186 150 99 67 190 130 127 147 134 134 138 111 61 65 105 89 182 106 132 123 197 180 103 216 167 168 121 144 175 94 133 157 114 187 92 171 129 149 145 134 196 97 136 129 128 158 120 188 182 185 59 142 134 129 73 178 94 99 90 118 49 145 139 141 181 106 180 139 115 
95 230 127 117 146 131 187 139 143 63 78 77 140 139 187 212 184 123 81 153 104 128 51 128 163 143 139 164 125 145 135 152 76 201 40 153 165 142 142 89 108 148 155 110 148 153 241 102 131 205 110 114 147 135 51 168 222 177 139 92 63 184 144 91 130 87 72 114 151 106 154 138 154 115 149 115 133 120 85 51 81 87 46 131 133 115 116 181 57 136 130 130 118 134 62 119 168 63 144 108 
159 140 81 184 150 129 109 188 146 116 27 153 120 123 112 70 49 87 173 108 180 149 30 130 169 163 213 193 126 142 62 126 31 125 122 142 205 162 93 81 85 76 168 94 50 105 64 75 125 114 77 176 135 93 145 91 79 110 114 135 142 94 196 147 193 178 118 87 137 156 111 146 142 110 100 88 239 72 137 136 192 181 171 190 89 123 174 74 186 123 108 116 143 178 207 98 148 170 62 103 
111 130 212 165 56 137 112 75 149 81 166 156 105 74 132 135 138 103 152 150 107 114 112 178 128 121 152 218 166 126 139 118 151 138 118 116 98 100 145 113 97 120 72 122 59 191 138 178 207 152 77 122 190 99 182 164 162 129 74 145 128 120 150 206 103 104 144 152 114 114 125 185 152 169 91 140 101 125 142 157 173 185 164 136 139 122 162 174 140 105 194 153 162 195 109 77 144 127 141 124 
131 132 118 98 144 89 110 172 165 128 161 176 126 193 110 105 68 80 178 173 158 164 66 89 176 94 152 86 141 178 144 130 115 124 198 40 176 96 125 25 117 122 108 133 133 120 42 135 151 58 109 137 131 99 84 197 157 69 110 109 145 123 145 143 116 108 119 175 182 110 110 177 97 91 87 94 133 122 178 152 95 124 105 105 146 124 120 154 126 143 107 123 206 213 54 131 165 210 112 137 
120 53 38 175 115 165 171 105 168 133 125 143 160 62 179 81 109 85 145 87 146 175 82 120 155 125 130 136 118 104 96 77 98 103 177 154 80 76 112 153 154 131 166 71 147 89 125 94 77 144 101 102 72 96 124 128 148 222 166 95 159 132 132 32 132 106 103 126 174 87 58 153 79 231 80 46 49 138 155 117 158 72 138 131 56 47 93 225 69 119 147 135 141 196 147 148 192 113 166 86 
160 119 107 102 118 167 70 169 100 61 61 159 123 80 154 112 129 176 164 164 141 89 88 105 192 101 76 158 132 99 176 87 144 115 100 114 132 160 150 171 154 126 146 177 127 46 81 180 97 118 43 193 199 121 178 169 179 164 179 123 110 119 125 190 86 147 100 112 101 149 200 151 49 132 109 141 92 113 157 81 107 205 151 167 148 125 107 78 62 127 39 176 172 66 174 141 119 137 139 114 
150 137 122 125 60 133 150 141 136 135 140 160 123 129 149 137 157 89 117 79 134 101 160 161 61 103 100 73 170 162 151 119 135 160 164 106 158 133 54 105 105 30 152 131 150 103 194 114 151 102 129 208 128 212 142 109 123 100 63 87 152 114 64 89 108 96 87 140 108 81 71 66 131 131 209 102 193 146 92 73 103 47 88 117 139 192 98 175 136 80 143 124 126 150 138 55 104 136 179 138 
146 124 175 150 94 142 130 221 141 114 72 60 142 82 125 107 186 45 119 133 137 193 35 176 48 103 139 138 132 101 136 69 92 99 51 200 73 122 178 108 205 168 182 74 126 154 92 162 146 190 32 173 92 37 132 199 97 128 146 116 84 151 209 119 100 120 168 107 91 119 177 125 78 118 94 155 40 50 169 101 136 102 158 141 79 81 119 99 121 145 90 86 177 172 209 102 111 146 139 106 
134 198 196 171 132 178 180 139 101 160 140 136 155 75 205 101 150 156 151 122 120 116 158 125 94 108 154 149 76 130 132 197 70 107 95 179 43 173 130 48 129 103 146 121 148 176 94 129 128 105 149 110 126 110 113 146 150 140 174 82 157 144 99 54 138 184 173 117 181 118 81 114 186 193 137 82 107 91 51 83 126 76 142 153 111 216 97 112 115 162 137 222 80 149 208 188 145 111 140 67 
109 161 82 100 163 127 106 108 115 117 185 97 129 126 120 161 143 157 70 66 102 100 122 178 143 138 92 58 188 151 87 86 142 180 101 124 129 196 81 177 150 136 119 130 113 115 126 131 159 158 98 134 111 139 121 171 58 140 104 98 143 166 193 163 176 206 96 193 115 123 97 124 128 60 61 165 162 134 69 39 210 109 154 172 163 215 72 69 162 145 139 144 121 102 101 100 51 124 132 110 
102 155 115 188 166 109 54 124 78 107 124 79 116 195 138 124 210 176 58 125 161 105 133 73 162 24 119 137 189 84 180 44 161 93 128 69 51 104 117 66 174 92 75 168 134 73 145 87 121 156 67 160 145 68 111 135 156 145 150 73 112 116 120 173 116 170 152 176 185 122 108 107 106 133 98 119 148 191 79 148 127 162 106 160 150 107 114 101 169 32 186 182 95 141 186 42 184 140 43 157 
76 144 121 56 136 189 69 216 142 105 117 137 17 94 215 136 132 114 120 116 132 99 185 179 108 174 87 100 151 103 124 65 158 132 76 131 97 131 181 74 82 233 114 138 177 64 97 151 101 160 86 199 174 164 122 184 138 165 240 143 56 115 183 140 157 148 113 199 100 129 139 77 135 56 219 173 138 131 185 119 200 137 134 185 72 151 126 126 154 140 61 156 126 49 125 140 92 127 123 118 
40 144 108 200 155 116 64 78 78 69 101 168 160 162 209 105 117 95 124 106 137 201 88 85 139 177 133 96 151 219 183 128 141 181 107 118 73 128 135 48 50 157 73 186 121 100 191 103 56 217 183 157 113 73 113 140 222 166 135 61 185 103 183 128 110 140 159 190 136 206 84 154 111 70 89 79 115 63 116 170 70 151 109 150 163 124 167 70 119 119 205 106 198 99 175 172 93 143 151 102 
127 170 128 115 119 115 94 91 127 188 171 183 129 98 174 106 79 140 39 184 143 200 154 108 171 158 93 73 121 155 167 129 115 129 110 169 110 66 209 122 143 68 167 177 82 120 174 151 197 118 166 244 88 122 166 96 99 77 167 135 106 93 145 147 87 153 124 151 108 84 176 53 117 189 118 175 84 227 123 142 138 236 156 180 198 144 94 67 67 137 161 84 145 78 118 66 140 146 134 105 
135 89 187 171 89 78 137 127 151 217 132 127 86 108 52 118 149 151 145 82 123 133 139 91 239 87 120 142 92 145 89 90 77 107 210 81 64 112 151 127 136 144 141 124 173 86 161 158 75 179 170 132 129 116 153 139 113 152 106 107 176 112 184 143 121 89 203 178 151 121 177 118 44 28 139 134 132 177 140 104 157 155 42 205 87 94 127 135 128 70 103 172 109 189 127 119 172 126 137 102 
96 151 134 114 109 55 106 142 116 118 66 111 59 85 232 155 154 161 152 133 102 147 162 170 124 150 149 196 133 142 168 144 138 143 75 124 104 115 116 248 155 170 92 116 104 106 196 150 88 152 120 88 113 152 65 146 157 167 105 179 123 199 178 70 165 55 45 104 124 122 151 50 102 78 136 66 191 128 68 124 124 166 201 198 195 183 89 143 129 207 46 148 123 175 62 132 124 66 124 88 
113 140 179 192 175 130 108 124 41 71 80 30 60 184 107 136 175 71 52 121 142 159 71 139 151 98 116 96 167 50 96 128 141 135 93 61 128 90 171 134 154 118 36 102 110 199 178 150 156 167 185 132 164 153 134 108 127 182 117 162 92 206 121 117 98 148 75 149 127 104 166 133 64 72 116 154 78 144 123 96 99 115 149 67 101 121 71 164 83 214 87 82 123 175 144 54 173 101 218 162 
181 93 163 55 129 190 54 180 125 148 96 165 130 131 106 87 119 140 149 119 112 124 125 86 80 116 159 148 168 91 145 101 131 80 157 184 165 97 77 134 97 123 160 160 82 157 142 160 109 113 148 113 112 144 130 97 56 76 131 74 131 180 71 99 141 158 132 186 145 140 117 221 145 132 90 182 210 112 131 188 115 132 73 156 147 149 206 137 106 22 120 116 157 139 155 102 149 101 47 133 
101 82 125 101 107 153 222 120 175 164 148 197 131 138 91 149 155 143 44 110 115 96 99 125 116 112 71 132 185 164 146 119 135 137 149 143 58 153 105 150 140 58 218 110 91 178 86 156 153 144 159 183 155 52 202 153 142 36 95 134 146 125 145 162 88 117 108 111 177 153 162 40 148 123 92 152 172 122 121 118 189 70 214 74 128 31 175 128 115 70 113 177 209 116 164 93 153 93 135 89 
131 115 189 150 140 64 133 120 125 114 70 100 160 46 162 130 109 169 113 205 158 149 139 75 75 79 72 40 116 248 106 157 86 86 115 97 114 150 127 113 103 169 48 125 182 147 226 38 91 95 138 150 120 214 185 78 119 149 101 107 179 92 54 140 131 129 106 134 166 128 52 129 134 58 101 104 153 105 150 183 77 114 187 194 138 167 133 128 135 110 132 155 92 40 178 104 180 184 112 67 
110 112 135 110 63 131 141 55 87 126 135 154 106 69 123 131 95 109 141 129 206 129 122 153 215 113 140 133 137 205 114 103 91 112 117 122 104 152 143 132 145 67 173 130 172 103 29 122 161 84 63 38 174 141 111 167 155 212 96 81 141 73 203 125 127 149 147 209 156 123 118 118 98 100 94 79 107 117 178 99 184 120 98 111 112 57 125 123 187 62 163 156 220 118 139 122 91 134 96 136 
142 139 118 170 169 134 156 94 108 206 122 118 126 72 113 128 155 128 138 196 170 105 77 130 199 128 65 135 169 157 153 109 186 202 125 173 170 181 126 57 118 101 143 142 159 99 35 113 117 137 196 120 162 148 175 100 116 88 189 108 79 98 145 35 98 173 51 176 164 181 146 140 152 227 115 131 171 153 109 72 142 127 188 90 123 124 122 85 174 138 207 78 124 141 102 93 130 132 126 143 
119 131 158 181 186 113 106 151 81 171 199 147 180 135 113 126 178 121 182 48 99 197 155 105 52 94 122 112 112 154 155 192 91 57 47 87 128 173 50 77 121 112 100 141 133 140 162 126 161 130 102 132 105 144 83 109 189 156 49 137 168 149 163 220 167 123 167 194 186 134 132 102 88 102 121 112 198 99 123 113 125 101 154 97 79 136 200 102 155 126 144 207 178 178 220 167 202 173 137 94 
122 45 97 155 194 100 126 65 104 76 143 116 161 185 95 84 140 107 119 107 132 195 91 132 161 133 106 133 145 129 147 127 227 95 105 129 140 123 113 121 78 118 137 93 141 169 99 121 150 135 115 84 189 110 151 185 144 57 151 96 127 65 189 99 126 197 68 125 70 126 168 61 246 80 112 193 105 113 157 157 154 66 139 109 187 92 48 109 152 175 108 203 76 114 177 155 117 167 212 148 
150 132 51 89 164 219 206 158 110 168 121 167 161 147 220 130 132 125 128 126 154 118 176 33 137 131 120 149 164 110 52 115 125 64 108 126 32 124 136 135 138 167 191 129 167 63 185 162 167 124 202 116 157 112 79 169 108 104 61 108 129 134 96 91 126 87 90 114 140 131 53 96 102 135 164 147 139 116 183 110 120 108 143 147 81 86 87 132 112 169 144 90 162 147 159 72 94 130 101 138 
130 132 104 101 53 167 129 105 106 185 106 121 141 187 164 73 201 143 152 192 144 169 76 209 80 186 223 140 76 143 151 168 220 171 97 238 147 197 146 134 165 126 174 198 98 125 73 138 126 144 187 131 46 84 210 126 139 162 124 105 141 140 141 196 146 92 115 188 123 167 179 72 198 152 114 143 149 106 124 114 111 136 132 96 97 138 100 164 158 169 171 109 92 93 42 115 77 135 147 142 
97 108 174 103 137 26 178 108 193 221 91 132 107 109 128 213 138 156 121 32 114 153 113 154 169 143 163 158 83 65 99 114 173 175 146 165 120 53 138 125 133 116 149 128 147 108 157 20 126 147 152 149 90 233 129 154 112 135 88 110 137 120 52 192 122 142 105 174 57 77 101 128 173 68 132 124 143 146 80 71 125 157 136 124 117 153 72 156 194 105 124 120 61 105 129 159 152 114 205 151 
87 143 153 134 207 236 136 118 100 99 120 81 116 143 144 106 111 134 157 102 101 143 70 79 112 123 167 123 90 151 236 99 126 167 171 172 140 83 142 208 66 116 149 92 196 156 63 135 110 142 141 144 152 102 150 194 75 202 90 141 138 183 164 84 61 120 90 77 142 127 181 191 143 126 102 56 139 79 210 88 149 127 68 177 168 171 150 90 137 148 154 84 93 68 139 166 168 129 125 225 
141 90 123 162 220 131 139 72 118 143 68 124 118 130 165 173 137 38 77 154 170 134 46 77 175 132 160 141 97 185 158 120 43 119 203 66 116 115 132 131 137 135 203 103 114 181 106 155 134 219 182 90 72 132 229 82 103 166 111 69 134 105 93 213 124 127 132 102 186 128 150 109 212 153 95 121 158 167 123 90 101 152 114 135 141 130 85 186 128 121 80 107 103 166 165 111 161 206 144 92 
130 54 103 144 140 180 100 74 100 71 166 150 113 218 148 114 68 87 25 47 117 165 86 118 118 120 187 60 213 118 163 122 108 161 151 43 128 130 178 176 121 161 124 97 54 46 120 205 129 146 117 159 25 131 93 60 96 226 181 162 112 148 182 123 196 100 186 132 15 33 132 81 126 223 129 120 112 106 79 144 158 108 122 150 123 202 137 119 154 102 120 159 105 132 129 79 68 148 35 180 
143 121 118 61 8 141 172 197 128 72 187 160 126 158 72 148 85 117 79 154 130 154 156 123 156 133 108 59 149 71 106 121 134 160 91 162 177 138 178 54 40 140 157 168 68 177 211 87 64 99 186 121 108 131 59 171 140 109 146 98 143 126 96 119 148 73 112 145 101 64 58 113 169 122 119 132 164 129 133 93 176 74 108 101 98 136 132 54 97 73 122 156 204 98 169 128 133 97 171 140 
110 106 99 124 107 144 168 87 76 144 46 112 109 180 142 238 142 141 126 169 148 92 188 127 234 127 128 136 156 87 127 101 138 40 134 123 127 165 141 131 149 126 148 123 157 91 112 80 115 48 46 190 125 106 99 67 145 157 99 115 158 109 141 138 62 79 161 209 146 123 70 44 40 142 104 100 99 130 114 218 179 97 113 80 140 72 141 104 136 123 119 128 54 185 158 226 141 111 121 200 
191 218 147 127 68 127 48 200 69 82 137 168 208 103 146 131 227 130 131 165 106 83 47 122 74 103 134 99 131 143 187 115 109 170 82 153 187 113 26 115 83 58 179 150 110 128 115 134 119 73 163 173 105 107 101 70 125 130 112 138 149 84 106 36 117 193 96 196 86 206 161 108 116 117 101 124 144 53 105 187 115 119 141 159 139 116 62 120 149 150 121 174 172 127 110 136 63 133 117 133 
157 109 75 171 152 96 109 159 178 131 140 101 125 152 209 93 91 126 141 83 104 190 98 53 121 148 122 73 206 32 162 166 74 105 94 71 170 117 93 192 144 123 161 99 164 181 127 111 169 132 84 223 149 69 101 138 67 144 139 124 133 153 134 123 78 86 169 195 129 115 115 173 121 68 150 175 135 125 103 77 162 83 138 86 133 87 126 144 175 141 138 73 144 83 138 132 202 220 87 136 
99 153 140 115 113 173 122 42 225 92 62 110 162 129 94 111 68 106 117 141 136 200 188 68 123 168 192 118 175 47 164 113 121 124 121 189 109 74 162 94 95 131 115 131 97 150 131 150 172 152 165 125 116 202 103 92 91 136 94 151 106 96 94 77 151 70 144 134 100 113 81 111 149 154 139 90 71 60 151 166 81 215 155 127 242 112 135 173 85 107 70 69 107 130 168 155 90 83 157 114 
76 52 100 79 171 186 91 75 151 93 172 110 144 104 191 113 67 149 64 107 193 113 154 148 128 102 219 157 194 102 117 127 103 65 124 178 136 93 215 129 139 142 157 122 170 118 123 143 93 133 61 116 154 127 134 137 97 157 78 145 30 150 146 193 94 128 116 180 136 219 167 177 157 102 81 143 32 109 136 74 147 56 118 139 181 151 147 124 81 111 185 143 75 115 48 171 128 43 107 102 
100 156 185 122 73 79 155 79 111 139 158 121 92 133 209 63 57 63 144 167 160 98 56 81 105 116 160 85 172 87 53 165 144 126 100 163 96 87 100 124 98 117 113 105 138 59 48 65 134 169 143 59 83 110 123 127 161 84 147 118 124 152 156 178 90 79 230 112 109 131 82 127 148 128 128 134 127 102 148 35 169 172 93 53 174 113 152 74 104 127 97 154 48 136 128 66 177 103 135 127 
90 171 108 140 106 134 157 114 116 163 32 102 114 79 178 120 130 102 112 196 126 136 122 75 85 128 20 145 105 160 160 123 127 171 147 181 183 148 137 113 61 103 46 133 108 136 152 120 112 158 123 145 178 133 92 148 113 164 140 196 112 122 111 124 113 87 110 153 109 214 95 102 126 227 67 155 67 134 139 80 159 115 143 82 117 195 98 144 83 216 141 166 98 211 138 143 200 209 168 117 
114 128 126 44 137 116 78 120 105 132 120 140 180 103 139 95 112 171 211 138 62 130 98 138 188 164 117 189 127 212 154 130 104 151 115 152 127 135 111 147 99 41 120 148 168 140 159 64 114 152 27 156 141 168 111 158 27 141 124 127 130 133 138 122 201 65 104 109 115 151 148 97 214 74 117 97 67 185 158 86 127 94 145 204 116 151 149 189 156 143 125 124 113 79 180 206 169 117 66 85 
