P2
100 100
255
113 181 162 128 118 129 148 71 81 181 162 198 160 188 177 42 119 126 112 107 105 70 139 181 185 135 136 137 54 146 151 153 95 123 68 158 159 133 118 97 40 189 163 184 68 120 166 143 246 110 155 96 104 100 116 128 74 145 49 172 136 132 107 123 54 153 124 148 123 115 110 87 193 122 153 93 143 106 92 103 113 158 155 118 126 76 167 139 141 146 187 102 133 90 103 197 97 101 179 161 
76 185 28 116 70 189 159 46 135 191 71 162 164 158 146 63 159 66 101 166 116 129 69 148 192 155 207 179 126 151 114 223 149 183 69 72 128 33 149 137 80 156 194 172 81 85 170 151 115 116 131 92 99 95 147 111 163 124 148 137 114 133 124 159 119 236 128 160 133 115 91 64 124 154 180 107 99 196 52 147 130 88 147 87 115 149 150 121 122 155 102 217 16 130 121 111 157 150 126 168 
153 115 158 102 134 167 84 234 147 183 135 124 182 128 98 176 150 81 107 184 69 136 114 175 103 114 165 113 78 212 145 123 147 82 82 48 140 114 141 121 85 161 163 80 163 98 137 73 70 153 103 177 203 125 110 116 126 112 149 132 128 151 139 146 126 131 50 105 187 151 189 141 107 86 91 101 117 145 176 230 156 135 112 112 120 139 108 95 141 181 157 212 136 198 141 99 148 154 166 52 
156 191 154 185 184 176 120 133 142 131 161 136 188 127 72 121 46 115 193 122 129 108 155 75 187 134 154 172 158 79 137 77 133 168 93 235 119 75 51 105 207 97 170 113 79 134 118 161 134 122 141 135 86 126 98 94 146 159 150 156 105 140 167 97 222 110 111 171 163 159 186 156 143 126 145 124 160 126 88 103 167 104 136 196 123 95 137 216 119 164 122 109 114 239 183 122 166 60 156 117 
165 137 97 72 129 141 189 56 194 141 167 47 148 80 121 159 144 140 125 128 126 199 171 109 121 192 63 123 60 157 57 123 122 140 101 95 95 145 118 133 104 199 146 101 142 66 135 156 99 128 124 139 126 120 105 57 20 142 109 52 127 112 152 70 68 102 139 208 74 151 160 120 128 192 102 104 118 193 105 191 182 124 125 54 152 145 157 115 140 158 193 202 145 112 113 147 191 103 86 176 
127 133 132 157 158 149 139 133 116 102 171 176 94 170 196 38 89 136 133 109 125 193 206 111 143 188 104 184 153 168 114 104 114 146 166 170 99 128 80 174 134 55 167 216 75 95 134 104 107 159 99 105 134 70 26 180 195 80 133 118 101 147 168 73 139 82 200 77 108 133 76 100 112 164 110 90 135 124 84 109 139 128 115 205 47 98 197 46 142 79 173 116 132 26 165 130 161 98 172 93 
171 168 97 150 243 112 102 171 112 144 85 136 45 131 116 141 139 179 160 101 108 114 138 153 179 155 165 147 97 141 138 121 177 35 82 105 129 144 197 151 52 164 135 138 110 135 47 146 132 132 174 130 244 110 122 150 130 182 108 156 141 125 88 46 111 180 151 128 130 79 123 138 142 146 107 113 154 118 73 143 101 149 124 143 82 133 128 135 130 107 101 123 94 150 160 147 134 78 154 87 
129 109 175 132 129 106 115 145 60 130 201 133 119 162 192 110 150 55 144 144 113 71 188 117 84 179 206 171 109 191 159 165 133 201 125 155 172 110 90 146 155 55 110 138 136 190 136 69 141 130 131 162 122 163 179 39 92 143 68 143 135 78 145 147 99 76 147 121 79 97 110 72 124 139 46 182 64 91 125 80 120 131 130 190 115 104 96 134 174 81 153 114 193 133 160 120 127 172 152 191 
194 83 140 129 184 120 143 224 108 107 83 120 172 114 248 131 200 55 166 139 218 88 213 102 124 155 138 150 183 157 203 100 101 132 122 198 120 130 78 187 182 118 140 158 101 37 40 143 155 120 139 96 126 170 80 123 34 118 128 93 122 41 131 111 174 78 120 176 213 131 145 145 115 151 146 84 108 131 99 131 87 110 42 168 72 117 127 138 82 182 88 170 117 143 118 76 65 82 84 116 
146 75 194 97 151 168 145 155 47 91 226 62 129 127 101 122 62 114 123 140 40 91 65 160 105 181 133 165 116 106 119 107 171 200 104 63 173 106 157 135 28 218 133 133 156 50 61 137 86 36 92 165 77 103 104 174 103 144 71 135 143 176 105 114 111 87 122 54 102 161 94 82 52 66 81 167 123 125 139 154 125 122 22 129 115 126 120 65 137 158 198 197 94 86 141 89 104 86 113 134 
156 175 108 115 97 96 127 193 139 136 28 148 136 123 128 83 128 127 174 190 148 111 93 130 117 123 140 194 100 119 105 68 137 139 143 74 139 180 101 175 111 222 92 150 115 106 168 57 124 136 172 150 92 155 132 83 185 127 125 132 47 194 94 100 159 128 113 193 78 106 137 178 178 179 161 143 142 173 125 111 172 104 149 85 129 142 196 116 94 130 115 182 154 94 134 182 125 129 105 219 
188 91 173 99 127 111 120 55 97 181 152 153 108 100 120 16 108 177 113 152 157 54 97 85 136 100 163 209 131 128 141 178 200 206 156 131 53 134 47 140 81 154 90 126 181 176 120 153 85 133 128 172 165 100 188 218 144 172 179 143 93 106 175 167 194 133 124 137 168 123 170 95 181 124 187 202 105 97 112 140 77 99 76 141 108 123 183 183 217 127 104 163 144 202 172 162 153 121 136 127 
199 128 87 111 177 93 77 122 132 118 134 76 233 130 101 105 105 137 146 105 199 142 195 122 143 133 195 134 134 182 163 121 115 65 101 117 89 118 139 144 118 114 114 141 103 152 183 128 153 109 97 195 76 165 107 184 137 216 64 70 100 119 96 57 133 112 143 87 122 124 157 130 107 154 151 128 113 23 109 137 136 123 119 210 157 174 159 129 48 174 118 85 118 167 108 146 138 126 125 168 
167 177 120 180 102 107 165 214 101 132 159 142 79 86 112 185 124 151 129 197 157 40 117 154 94 153 140 93 147 88 138 129 125 145 94 113 42 117 154 130 169 124 166 122 140 128 135 88 171 125 155 163 158 100 163 195 80 140 83 146 191 127 115 161 84 165 77 178 179 156 92 131 115 117 185 83 42 114 170 131 44 64 56 125 123 154 125 135 146 85 89 171 53 110 130 147 128 58 55 168 
142 118 52 130 108 97 52 172 130 158 184 126 72 147 173 98 120 64 106 158 105 120 129 112 200 82 136 141 173 97 134 133 178 192 193 82 124 108 128 118 143 174 110 136 196 129 108 171 215 77 188 132 188 117 86 111 117 134 108 43 60 137 166 122 148 91 111 135 131 168 64 158 148 128 67 157 100 106 129 178 132 118 131 145 146 160 221 211 63 148 158 17 154 46 160 150 135 198 220 97 
95 58 138 173 69 112 138 128 140 177 95 125 207 118 180 86 66 147 190 103 117 173 127 68 123 80 154 195 100 152 115 116 121 127 152 154 51 96 149 60 146 112 118 163 106 107 92 105 113 106 118 174 87 102 153 160 130 179 59 173 157 77 188 117 141 154 108 222 124 63 109 69 95 169 124 94 83 90 165 152 154 141 90 143 211 79 117 146 85 194 64 104 92 177 110 68 87 185 191 89 
126 85 154 152 113 139 182 65 147 120 103 100 84 142 76 141 99 38 79 163 112 72 195 158 117 23 88 122 15 110 91 89 139 79 92 132 104 148 142 102 120 114 203 138 109 159 83 99 143 134 109 165 50 146 149 156 135 149 72 210 200 163 35 211 142 138 146 119 138 114 143 36 205 115 104 71 130 115 146 101 113 139 223 170 204 135 172 83 92 189 98 117 132 86 162 67 85 126 144 182 
179 102 123 114 112 150 158 187 128 117 87 136 132 122 104 181 151 116 136 105 105 67 34 112 125 109 135 89 197 65 86 97 107 70 67 164 160 106 118 131 128 60 106 145 121 94 116 95 128 139 186 158 124 65 114 148 191 96 146 215 167 71 194 166 180 35 130 48 138 149 179 61 198 113 44 82 119 136 128 84 142 79 82 97 160 127 124 91 150 119 112 159 108 42 139 114 131 116 107 160 
147 96 108 133 148 109 105 112 89 82 103 173 90 173 111 131 88 205 97 121 78 213 103 105 73 150 170 130 181 120 148 149 84 163 179 157 181 98 175 117 179 198 68 45 118 38 109 218 187 149 92 207 108 161 91 136 95 97 150 197 86 223 148 62 112 164 95 132 148 59 129 121 155 73 134 142 62 144 91 140 175 115 133 44 115 184 110 129 85 144 143 184 180 133 155 87 150 99 123 141 
79 186 169 63 164 92 87 72 127 208 131 63 165 46 37 114 131 183 121 147 118 41 140 111 131 234 85 123 106 92 72 119 37 114 104 119 140 177 172 174 120 160 127 209 156 100 149 149 196 137 156 129 105 132 174 85 185 37 95 140 155 192 128 169 130 142 89 117 144 187 142 140 82 184 208 194 91 130 166 65 135 40 192 97 124 187 152 130 147 105 106 129 87 69 112 169 124 146 125 118 
197 132 135 111 137 136 112 78 163 140 134 86 124 152 173 187 151 181 210 81 99 150 98 99 113 132 100 116 121 194 78 83 154 135 39 114 90 123 57 94 122 140 157 130 139 116 46 146 154 114 132 97 110 168 103 125 137 105 36 127 153 106 160 173 92 126 148 114 164 114 137 76 142 126 112 124 50 122 169 145 136 94 110 163 128 103 102 133 106 152 103 116 144 227 137 113 100 108 212 114 
114 170 91 168 124 37 113 54 122 147 103 44 155 163 176 45 111 128 133 177 182 143 163 113 149 158 218 122 128 172 55 139 27 161 174 107 50 99 143 145 161 100 164 131 83 110 64 156 148 176 109 128 138 39 73 133 137 75 181 81 114 84 181 146 130 137 110 164 158 144 165 123 117 119 115 210 144 118 128 166 143 109 45 110 209 85 103 113 49 166 138 41 72 163 168 133 171 144 196 123 
120 75 156 125 88 149 144 127 141 157 183 123 77 100 161 128 103 83 59 178 62 49 197 177 163 193 90 125 230 86 86 119 96 82 119 48 127 68 57 107 104 161 130 80 163 122 110 72 130 79 186 120 162 127 100 106 145 122 43 105 160 94 144 70 72 143 169 104 85 117 138 119 128 137 154 95 159 151 144 125 152 111 110 160 143 39 205 123 118 107 140 100 160 238 97 147 117 114 55 107 
80 94 129 114 153 191 134 123 130 144 118 45 177 77 167 137 137 138 84 94 129 189 130 160 160 146 125 228 141 68 192 39 141 164 146 155 101 160 196 155 86 173 94 47 108 182 178 103 138 103 158 40 79 77 113 121 169 103 179 99 104 75 118 160 148 154 123 89 169 59 105 132 93 152 116 139 96 72 126 141 104 108 99 123 58 114 62 171 201 102 108 172 59 152 93 114 130 177 163 136 
195 107 132 73 207 145 125 183 150 161 97 178 138 78 178 149 206 115 66 120 137 103 126 106 144 140 174 133 190 131 112 145 106 74 121 96 216 159 121 176 179 164 169 145 177 80 115 154 88 173 183 168 171 177 148 136 153 130 129 193 112 161 96 68 173 168 90 152 95 50 181 150 166 62 146 174 111 124 123 125 81 72 184 153 125 164 137 106 171 69 193 116 96 170 126 154 53 164 98 62 
119 137 93 206 154 96 90 173 120 124 80 121 89 91 92 87 207 177 100 123 156 146 169 84 104 140 153 148 94 150 216 76 95 61 151 131 153 140 146 130 181 52 65 136 122 56 85 126 161 90 100 131 128 184 127 87 119 135 82 80 142 153 90 131 104 43 178 110 128 134 79 180 122 176 68 71 127 109 130 198 146 96 189 173 147 179 131 96 91 125 94 41 80 117 124 193 158 119 121 146 
99 107 124 57 131 85 70 161 105 135 202 132 159 124 153 147 108 148 93 116 139 140 45 206 122 105 136 120 132 131 95 176 149 37 112 163 86 143 82 86 121 135 81 129 136 184 148 144 65 101 174 126 115 33 152 175 82 87 153 54 119 153 158 75 142 144 92 104 19 91 119 175 140 124 43 173 95 178 121 171 134 89 162 169 160 114 126 71 211 88 94 143 120 112 97 125 148 180 127 126 
137 121 163 126 122 164 136 85 182 203 97 122 122 74 189 131 66 133 82 155 98 122 225 76 212 196 188 19 128 145 154 144 127 163 221 165 140 203 49 149 111 125 100 52 126 64 93 118 151 134 130 123 147 206 123 110 160 178 41 134 125 141 88 174 87 125 104 114 77 169 107 74 212 145 130 96 134 96 171 170 133 55 120 112 77 66 110 216 127 188 112 129 112 94 119 125 204 106 142 199 
129 144 188 100 121 78 68 162 66 142 137 102 154 148 118 155 164 111 125 156 193 99 174 107 161 127 164 101 30 117 183 188 158 115 170 148 142 114 67 25 151 91 113 87 199 125 126 101 173 145 124 106 166 132 118 135 126 117 68 114 123 89 128 127 110 159 90 90 110 145 51 137 78 147 153 125 97 158 151 204 131 170 62 117 147 117 103 89 157 111 110 80 112 148 187 123 170 165 57 42 
76 173 125 93 107 132 42 74 124 110 171 123 100 204 43 83 120 130 186 83 131 81 136 68 117 135 98 106 133 136 141 175 137 180 138 59 146 162 120 140 168 234 179 49 112 174 47 107 96 74 134 126 127 115 150 33 139 154 146 171 102 124 98 195 214 156 158 127 128 99 135 124 101 84 145 120 206 153 152 117 112 86 117 202 85 155 165 125 92 135 135 52 89 70 199 132 91 74 79 170 
56 138 180 98 138 132 147 202 122 166 154 145 63 48 117 62 165 150 99 81 175 83 99 150 102 221 71 114 127 118 211 142 160 121 129 109 146 105 59 42 197 142 93 107 56 186 144 139 119 132 55 110 169 110 168 187 78 134 138 119 106 128 178 129 161 77 220 107 142 139 107 130 159 77 114 212 97 107 127 152 92 64 123 84 97 154 80 170 106 138 124 96 115 83 155 126 112 209 153 159 
69 51 111 92 149 103 189 136 159 117 80 161 62 186 163 132 203 138 179 181 138 163 108 205 102 87 123 128 56 129 90 190 153 60 158 129 199 139 137 137 209 123 82 145 140 122 100 62 158 135 145 168 152 129 42 136 91 170 159 149 202 176 77 134 108 168 136 91 135 97 135 54 224 108 93 52 197 130 83 88 100 82 85 151 154 166 109 80 157 120 166 173 120 84 171 229 126 81 130 178 
107 186 149 66 83 147 211 158 129 139 100 169 64 188 192 93 120 203 148 81 102 133 99 96 38 233 143 154 183 151 71 73 202 91 29 204 205 172 162 42 191 145 129 111 97 171 126 157 125 65 69 127 107 68 139 129 113 87 123 43 132 106 188 80 84 91 185 136 132 177 181 142 143 90 143 122 42 131 127 131 102 103 132 123 113 132 121 124 130 152 85 120 57 174 143 136 133 151 118 149 
81 145 61 136 108 131 60 171 24 54 131 151 116 110 167 90 210 109 173 93 125 117 119 140 136 67 187 216 151 94 150 147 142 92 113 126 169 61 153 110 64 159 112 113 127 88 120 194 129 145 188 184 122 63 135 94 114 111 125 96 164 140 111 175 136 67 116 133 132 200 78 93 152 130 121 165 54 122 196 105 128 75 87 128 108 149 122 139 107 44 83 170 163 97 139 125 170 188 92 126 
104 152 161 68 185 154 156 44 167 130 106 154 112 166 180 219 220 121 104 179 66 141 71 142 170 154 144 174 36 111 152 121 109 203 48 54 113 143 20 200 169 91 95 161 105 134 173 154 135 123 119 176 109 161 224 142 134 102 160 153 102 142 68 117 96 139 159 102 88 171 176 119 144 153 160 36 109 196 101 209 111 150 112 121 174 232 141 129 74 77 71 131 56 170 77 128 138 147 222 21 
116 84 72 150 142 210 166 109 121 100 140 128 156 94 41 81 64 163 180 116 171 105 134 120 88 121 128 94 103 90 135 206 148 177 114 132 152 184 114 139 122 99 153 95 194 123 118 156 18 36 150 159 184 114 59 116 156 31 223 168 139 188 161 123 170 129 166 141 127 128 144 92 73 158 153 114 149 141 171 152 184 113 140 116 102 137 81 81 167 171 97 134 113 204 83 130 214 175 196 84 
81 89 195 158 106 96 173 146 168 111 154 181 94 159 95 118 42 191 76 117 163 92 185 106 161 118 145 83 61 116 133 116 94 121 143 129 238 204 190 130 43 139 153 108 125 150 109 157 109 114 109 84 180 113 131 138 40 92 112 128 150 127 129 108 134 54 115 85 144 85 157 125 115 164 100 123 120 133 151 159 106 59 131 165 76 153 91 149 126 68 198 33 131 128 215 166 174 177 121 83 
118 147 144 127 116 56 218 180 194 169 178 117 188 143 154 111 84 79 56 116 111 98 195 63 88 46 190 140 93 137 32 165 147 75 136 189 193 127 140 70 13 171 101 139 237 121 102 110 171 137 116 212 122 222 117 146 149 134 214 151 114 123 81 114 88 198 127 103 210 107 121 84 118 105 212 225 98 158 126 223 129 146 133 118 110 146 119 114 88 167 92 141 136 66 93 157 62 149 86 76 
182 157 109 109 174 157 179 96 129 60 121 117 46 122 85 142 98 166 133 123 16 173 156 144 119 182 149 182 104 91 129 109 58 72 90 97 74 152 126 90 40 146 98 208 81 100 101 172 156 193 142 166 144 191 125 113 178 172 66 142 30 124 161 95 114 114 130 152 179 140 126 116 150 76 135 91 143 220 138 140 153 215 119 139 109 109 47 146 123 96 56 145 212 123 79 114 150 194 118 94 
218 174 158 44 149 80 199 173 97 115 90 66 130 104 121 109 133 84 239 177 103 195 152 105 142 52 96 240 140 138 147 182 60 157 154 161 44 165 136 177 43 130 72 94 117 119 101 180 167 79 197 190 81 182 112 133 214 142 61 38 59 167 135 65 122 107 71 200 175 132 130 102 99 53 140 75 150 66 42 127 124 118 113 208 155 78 57 116 168 132 62 190 127 132 36 67 137 71 94 133 
79 158 95 37 137 118 154 142 195 83 143 159 71 97 121 79 143 147 73 127 128 129 137 70 107 84 165 135 167 143 149 165 201 177 102 117 132 127 113 183 118 109 125 178 97 153 160 155 203 133 107 162 124 178 134 106 135 110 142 115 129 116 162 104 117 198 111 204 57 179 161 126 127 76 177 164 137 164 121 135 209 72 179 142 138 96 138 46 159 144 82 180 89 118 80 195 125 107 146 126 
142 124 167 111 50 116 195 108 136 121 72 197 94 94 170 154 227 111 118 153 132 196 58 121 96 165 87 34 106 198 108 57 98 46 144 80 181 140 169 111 120 173 111 141 63 193 196 188 152 160 57 209 150 195 90 123 220 145 134 128 160 91 128 157 189 129 153 83 201 132 122 98 59 55 95 136 96 118 130 109 231 125 110 189 117 181 78 143 127 102 130 94 135 97 94 161 163 200 134 144 
121 83 143 177 63 50 55 45 126 95 123 95 120 127 187 98 112 213 126 163 176 119 155 152 209 67 232 97 57 131 133 52 129 141 107 93 204 100 111 143 114 158 103 143 127 137 79 159 161 74 134 61 93 88 114 104 127 123 154 173 128 142 126 120 179 123 38 177 120 210 97 178 96 119 142 98 63 102 144 74 137 95 88 93 85 188 173 169 131 115 199 63 134 91 73 151 82 110 176 144 
101 194 150 177 89 189 53 138 116 112 159 127 159 146 131 148 125 90 104 81 130 145 154 136 138 165 124 155 135 123 193 117 183 174 136 91 149 126 147 49 52 87 71 83 142 196 189 172 71 95 71 99 141 177 73 93 119 183 115 128 95 134 89 121 131 140 167 117 145 152 186 98 95 191 85 98 151 122 103 152 146 57 118 151 105 170 187 208 88 145 124 66 122 124 126 120 159 205 204 103 
204 141 111 139 166 122 45 79 69 125 139 96 84 103 174 132 222 181 108 85 105 152 141 92 76 86 86 175 139 121 126 134 42 124 146 141 168 123 153 71 201 214 176 108 179 100 165 96 125 182 125 129 120 167 140 50 134 94 124 164 123 157 57 190 120 132 108 90 98 206 170 138 131 141 86 219 114 77 131 118 147 82 85 120 133 192 105 108 196 75 41 145 112 131 126 90 163 55 106 128 
182 72 132 129 151 65 104 114 130 132 115 112 134 145 98 102 64 147 80 197 113 204 91 103 52 114 35 128 115 83 92 152 175 132 116 168 121 100 131 148 112 83 91 100 109 131 142 139 212 98 65 148 148 63 184 79 146 139 159 124 111 91 94 154 115 94 138 116 170 135 145 180 168 157 202 139 148 117 163 104 108 138 124 109 94 42 161 112 169 98 139 73 173 116 140 230 76 126 171 159 
130 173 51 136 108 121 112 133 91 131 96 87 131 162 175 96 118 48 83 140 114 129 133 101 129 133 110 89 110 92 221 126 127 142 152 73 150 133 141 88 128 96 202 116 50 204 202 148 87 190 226 122 146 90 142 162 150 47 134 118 108 48 74 96 111 63 129 171 146 115 109 84 147 200 75 104 92 185 107 148 105 49 132 198 146 88 236 97 198 131 96 90 216 163 65 124 118 87 113 178 
175 120 158 102 125 142 127 124 205 62 96 104 115 141 186 159 213 53 113 128 105 86 104 109 201 48 80 162 171 60 95 52 130 193 80 110 120 146 105 179 115 118 111 204 102 125 127 157 130 173 158 127 153 150 121 156 157 115 228 146 51 142 175 192 131 117 134 118 160 106 162 90 87 194 75 179 79 80 134 105 138 68 116 70 126 32 244 131 164 147 155 83 137 188 168 149 47 72 197 112 
127 113 94 119 128 109 101 171 145 74 102 53 151 122 174 154 134 162 136 125 147 115 123 188 40 136 112 81 101 117 77 141 180 129 165 86 126 134 99 147 73 194 152 81 152 100 71 117 137 116 105 136 147 50 153 75 129 83 123 112 157 97 151 87 88 147 87 137 164 142 160 124 132 71 117 80 161 171 38 146 78 134 134 155 119 65 168 67 137 85 180 95 110 133 199 125 148 90 102 144 
181 215 182 146 152 86 84 192 100 163 119 190 105 129 141 165 146 183 91 84 136 163 163 60 142 86 163 37 190 122 136 179 127 155 100 109 98 70 111 142 56 97 95 178 146 94 32 99 139 135 162 69 150 84 36 176 109 141 96 231 92 105 161 152 121 199 123 108 67 134 143 134 147 131 108 108 95 160 134 107 171 59 170 219 121 141 105 161 125 159 137 180 180 64 89 126 26 114 169 86 
84 100 2 101 187 77 72 111 143 109 54 182 133 128 86 134 108 110 119 221 113 144 163 125 97 130 99 153 139 120 92 61 107 111 96 130 175 84 117 92 67 84 107 131 45 111 73 190 144 126 124 148 138 61 185 69 159 147 119 171 101 179 124 114 171 135 174 135 118 198 56 172 169 156 139 155 81 158 168 165 132 122 164 181 147 144 204 108 98 129 122 148 144 200 143 110 187 176 121 128 
146 173 130 115 119 134 120 83 147 184 126 113 123 110 143 118 146 135 140 133 81 149 137 99 109 104 134 93 65 130 126 169 209 140 93 123 190 99 97 192 39 148 66 210 113 101 155 86 71 214 71 189 157 120 94 159 133 191 99 49 81 125 136 57 154 125 69 116 169 149 166 107 123 183 129 135 161 95 173 135 123 168 95 146 211 198 178 133 169 128 219 86 134 115 94 113 47 113 149 194 
87 128 79 101 119 131 162 103 95 169 159 95 144 118 123 77 88 161 187 103 142 142 145 141 101 100 120 118 102 132 111 54 137 148 128 130 114 172 218 173 55 62 89 214 146 159 131 37 131 128 49 155 77 143 34 140 179 142 118 79 96 129 191 216 125 176 120 104 109 155 39 206 171 208 67 136 118 123 125 151 96 29 169 67 135 155 115 143 143 128 149 84 135 76 106 67 152 67 53 79 
141 39 160 132 40 79 53 168 80 124 50 153 111 89 142 43 106 84 189 110 121 72 91 111 67 230 89 203 175 135 143 121 145 144 178 137 112 181 140 116 131 210 176 143 189 184 137 94 181 136 49 106 131 166 148 102 154 147 101 140 115 167 101 188 106 121 95 83 64 187 149 162 185 130 78 87 90 119 83 128 128 159 128 174 145 138 132 166 181 145 146 143 142 75 134 157 151 136 181 95 
143 139 124 155 159 126 104 115 141 125 155 184 63 96 194 127 80 121 75 73 75 175 123 163 50 124 171 94 136 108 133 146 213 194 128 210 180 133 129 107 116 154 164 163 197 145 130 208 109 117 80 123 182 137 166 41 131 89 43 158 109 129 56 84 88 138 144 107 104 136 25 138 122 130 184 126 69 142 100 207 131 190 128 170 211 127 182 164 86 91 183 107 161 173 161 114 209 141 214 222 
78 145 184 171 163 215 197 79 167 99 105 118 125 137 145 146 228 92 122 176 152 128 137 175 111 139 218 129 165 135 129 137 158 156 147 165 192 37 149 91 133 171 123 121 130 145 102 110 73 172 90 206 85 116 126 146 112 120 122 105 148 132 143 161 116 92 118 156 167 69 76 96 84 42 75 80 19 106 84 95 129 112 78 127 111 188 169 144 181 122 175 143 174 52 106 100 151 97 138 149 
71 30 153 85 81 138 127 161 177 116 123 70 133 90 124 92 77 102 107 117 93 117 127 192 168 189 111 151 100 121 159 116 202 104 176 133 82 119 111 95 207 33 190 80 135 118 165 107 187 59 30 163 148 113 45 27 113 146 103 183 139 141 100 85 96 92 171 118 206 213 155 140 137 112 110 31 186 87 164 89 159 85 102 99 228 198 62 148 112 148 58 156 97 202 129 118 97 203 119 202 
87 181 206 75 58 148 101 136 109 73 149 152 132 149 90 137 46 109 96 144 173 161 132 91 154 138 116 126 116 120 88 95 126 199 171 119 86 203 132 88 144 110 119 113 159 159 143 126 80 88 161 45 107 148 121 102 147 145 134 150 117 126 133 83 103 158 120 145 121 226 132 85 190 174 118 151 94 101 150 41 173 123 76 118 144 149 201 162 111 139 148 79 117 159 78 132 56 59 181 170 
27 111 91 118 172 190 165 156 146 94 77 97 95 132 116 91 78 100 92 163 137 127 159 133 113 141 195 158 144 119 167 73 162 130 107 128 187 96 62 115 104 212 68 129 106 75 99 134 149 131 143 177 152 134 39 165 126 64 118 150 152 68 195 131 153 141 117 184 114 164 97 128 121 157 73 111 84 58 92 196 112 130 110 144 68 154 118 16 175 90 91 117 155 103 204 192 98 119 147 229 
163 144 136 127 146 140 140 177 151 87 108 37 67 114 109 62 134 131 116 111 76 116 156 208 108 161 123 79 132 125 125 64 80 144 157 94 84 93 169 89 75 130 116 40 148 83 134 137 133 102 118 146 96 194 138 129 125 139 53 75 122 185 131 222 24 107 113 135 146 100 181 96 125 72 55 148 187 137 121 215 80 189 133 121 88 125 186 109 169 109 177 137 195 47 118 130 123 148 147 196 
168 118 67 121 63 119 151 127 178 123 185 106 86 166 60 88 193 171 97 146 118 95 113 130 221 173 136 105 234 151 171 116 54 176 203 107 162 110 148 156 111 169 103 139 199 69 220 109 191 131 76 141 103 151 222 80 162 137 143 201 152 114 80 74 148 74 133 129 114 149 142 129 145 105 83 164 69 81 112 114 103 105 48 222 177 134 140 95 91 150 196 150 131 68 163 31 167 150 79 113 
197 139 127 160 135 123 141 73 169 100 89 131 100 135 159 91 105 56 201 146 89 191 90 169 205 90 109 85 178 200 165 111 86 145 148 156 111 117 215 189 47 76 109 40 71 118 208 141 88 192 152 145 195 134 135 102 82 141 179 142 124 141 141 74 110 124 221 192 114 28 141 63 128 128 160 162 219 99 103 78 130 107 119 72 48 163 108 143 132 109 113 122 70 146 102 132 175 121 119 24 
144 218 121 90 91 56 129 184 175 142 64 117 155 140 147 125 81 130 162 174 85 153 128 115 169 158 142 44 151 101 206 123 140 58 184 160 218 208 107 114 151 135 142 133 186 123 138 178 165 152 83 172 149 82 134 187 98 198 128 111 149 151 120 229 159 102 167 105 119 94 112 93 98 174 151 152 141 159 131 150 73 84 89 129 76 135 114 129 117 155 50 137 103 174 132 151 77 63 129 158 
138 108 200 97 136 99 194 162 84 184 169 117 137 100 119 97 150 123 144 238 147 131 61 129 166 101 175 110 128 126 152 148 92 99 132 82 169 141 104 155 142 97 182 127 141 167 125 46 171 85 134 227 137 123 112 55 105 126 157 70 79 108 151 175 212 97 64 150 159 64 122 160 138 35 93 108 167 180 142 134 66 78 110 125 50 100 91 113 159 131 84 96 52 97 128 108 89 232 132 143 
175 179 102 116 32 47 91 95 163 125 196 78 120 181 191 206 218 127 163 103 110 185 156 156 191 91 116 57 115 193 105 102 113 151 140 195 160 199 143 92 150 83 218 148 155 171 170 139 114 179 144 133 94 139 117 134 103 169 153 167 169 165 183 93 195 138 140 153 185 64 57 123 165 114 112 139 164 203 141 81 46 196 79 87 165 193 66 120 62 111 116 89 124 95 147 166 112 76 172 155 
120 74 169 77 25 83 160 135 90 183 135 112 124 169 145 139 137 91 73 100 127 51 140 55 147 48 169 95 160 125 118 107 99 161 149 79 162 148 67 115 161 129 159 128 141 72 143 177 140 102 109 87 141 88 135 109 83 168 103 133 36 80 188 129 82 134 173 49 94 192 59 178 141 114 101 74 92 133 222 163 153 77 165 145 173 124 174 120 67 129 142 121 145 127 201 113 125 130 111 212 
105 108 169 102 128 143 149 108 68 190 152 195 143 52 110 141 57 159 162 75 159 119 117 173 170 95 194 118 162 121 134 158 113 132 152 91 88 100 123 101 206 131 103 160 146 70 154 94 119 99 199 176 192 67 79 125 155 160 223 61 76 146 111 188 34 127 172 81 102 194 90 111 166 119 128 167 159 152 147 124 122 137 174 123 53 212 130 60 157 178 65 68 125 131 131 139 169 179 146 159 
153 103 187 140 143 187 76 127 125 111 110 133 146 174 129 159 182 153 126 110 122 145 132 204 97 92 169 158 164 50 89 146 103 176 103 123 164 142 178 84 148 112 237 115 158 163 107 115 85 118 100 83 116 197 133 97 203 119 148 196 64 155 112 132 56 99 151 75 162 165 145 112 192 134 176 151 193 137 170 182 121 52 63 93 206 120 40 71 125 77 23 109 138 73 164 136 104 121 66 136 
148 158 148 46 121 98 99 130 58 50 165 157 109 111 157 48 175 135 137 72 140 122 109 93 127 147 43 75 151 148 128 147 120 179 106 164 178 41 145 136 129 176 158 103 106 140 138 109 69 108 74 211 162 99 125 184 72 119 132 149 200 143 89 77 77 106 138 131 144 180 103 121 92 142 123 230 134 103 39 50 92 98 131 177 125 114 99 134 99 39 114 124 202 18 156 91 81 82 110 170 
208 159 156 169 81 168 188 55 64 150 127 133 178 122 189 132 120 101 130 166 88 92 135 97 43 122 89 100 57 75 70 114 149 75 103 129 132 94 112 146 162 127 155 212 108 36 133 132 148 132 160 192 145 156 37 112 168 133 114 139 145 152 203 171 114 192 104 131 119 109 149 139 140 221 45 123 227 161 158 124 157 186 117 83 180 132 196 73 164 96 132 169 122 128 128 128 199 118 104 109 
138 140 150 143 191 157 162 149 156 169 167 108 98 112 126 212 109 125 120 85 104 171 33 129 193 149 125 186 174 150 85 63 165 95 102 129 66 61 132 156 167 140 60 101 76 49 121 119 129 112 93 97 99 185 117 94 148 127 67 140 149 95 143 120 181 80 125 82 145 141 90 186 124 94 164 124 134 110 180 84 167 149 63 152 175 135 78 96 71 157 105 93 86 136 80 64 101 128 95 132 
138 160 144 176 126 177 177 196 115 214 117 100 82 136 165 155 142 179 183 192 164 160 138 101 73 52 88 128 127 216 129 138 131 160 127 127 131 143 187 67 167 64 92 181 174 168 126 153 71 121 212 140 68 123 130 115 119 116 118 129 76 194 135 126 193 85 133 117 210 116 112 50 128 80 164 103 128 148 128 163 129 144 167 121 91 144 83 122 144 169 166 175 168 87 113 145 144 116 85 203 
139 155 138 128 109 200 147 142 127 105 15 186 157 186 108 30 222 133 82 129 153 103 150 175 160 139 50 120 193 54 187 108 82 149 135 109 135 125 147 109 106 44 80 80 106 154 159 160 146 196 164 162 155 140 108 138 150 188 103 179 196 128 161 155 108 41 127 95 144 119 133 60 126 109 113 127 220 89 108 123 130 132 96 79 79 43 68 170 178 124 32 149 124 165 146 126 111 152 137 167 
156 127 60 145 213 125 157 161 180 164 104 54 105 158 149 139 174 94 218 106 139 185 112 151 75 94 137 116 119 183 79 163 162 107 46 166 115 168 175 155 179 116 126 85 200 165 190 132 86 135 127 78 65 205 168 156 94 47 127 92 173 141 96 78 129 90 191 115 96 168 116 85 126 163 55 140 160 142 148 132 120 152 133 120 177 166 157 132 183 84 144 187 117 192 132 106 143 171 133 141 
131 114 111 183 101 137 207 58 153 85 165 97 100 187 162 112 125 45 105 128 107 175 114 97 168 82 75 91 135 127 131 132 130 120 134 29 197 32 97 120 59 116 116 172 86 61 127 88 163 111 185 126 181 112 123 196 85 151 84 175 146 149 86 106 63 174 63 58 102 108 174 138 144 191 93 130 120 86 137 113 210 64 57 109 238 120 142 167 138 160 102 179 147 97 115 130 166 202 174 104 
67 131 159 115 130 121 105 101 136 95 86 80 132 133 75 110 112 161 91 114 88 133 179 43 138 139 136 166 104 152 127 144 94 183 106 143 126 167 79 41 125 115 203 116 56 100 153 177 150 100 121 171 190 44 154 207 208 61 98 134 110 100 71 116 128 135 189 151 205 41 173 103 66 121 156 102 192 92 62 78 212 49 163 128 130 130 180 191 156 96 165 99 122 119 53 144 99 147 106 120 
123 160 37 104 118 116 163 146 152 66 123 110 95 118 136 177 112 152 115 91 84 76 90 146 93 117 165 91 110 72 164 179 125 101 109 139 182 95 152 132 227 88 117 67 210 150 205 165 159 137 139 154 167 78 151 175 121 151 137 206 157 132 121 186 161 174 84 178 158 74 215 119 194 134 116 91 174 150 124 165 155 222 141 164 126 106 134 206 173 125 116 108 164 61 112 147 194 79 201 123 
105 114 94 153 82 169 151 87 87 164 96 152 69 108 179 171 81 183 159 214 202 108 156 169 178 114 118 129 59 83 111 154 198 56 168 135 175 126 74 72 128 198 183 109 147 92 88 79 180 163 118 183 143 120 89 129 135 91 195 124 61 83 126 145 190 118 96 159 101 141 139 124 155 182 161 107 132 185 120 29 152 29 66 137 146 117 138 113 121 148 103 121 61 120 215 114 133 72 170 141 
143 78 82 72 88 199 158 88 115 186 137 177 134 70 140 133 55 182 142 152 88 167 131 137 170 132 170 76 78 189 153 134 91 161 161 162 224 65 64 159 106 171 140 157 175 75 71 210 126 133 138 86 75 167 83 125 167 131 188 126 95 81 91 55 109 155 171 172 151 92 210 177 67 137 127 114 60 124 159 97 188 152 109 56 117 216 129 105 165 131 125 79 128 104 46 141 181 135 132 71 
200 132 88 141 125 127 128 166 54 87 175 219 105 154 88 149 110 150 196 142 87 84 75 138 83 89 98 164 77 128 149 215 142 168 125 162 107 121 131 121 174 122 148 116 68 169 170 80 147 172 124 158 122 156 187 146 148 118 152 141 154 50 147 156 121 104 84 160 25 93 83 130 177 127 72 83 146 29 159 147 146 78 133 111 187 106 172 158 91 152 150 48 219 174 70 114 191 124 87 181 
170 180 93 192 193 140 36 122 144 88 79 153 222 163 143 181 78 166 154 203 120 110 232 123 140 150 128 151 176 121 39 77 142 156 133 226 136 140 99 87 129 116 29 122 150 135 183 145 208 79 88 141 76 199 74 165 150 112 131 189 138 134 139 146 180 163 161 144 161 194 200 192 119 57 93 231 78 171 209 105 135 166 117 178 129 132 118 103 134 84 131 154 116 149 109 124 110 88 70 153 
114 135 169 67 158 129 208 121 124 50 147 153 151 160 114 140 170 156 139 174 161 113 64 155 125 116 70 156 109 119 181 81 184 140 52 142 132 130 103 171 139 113 67 106 48 183 105 135 122 121 69 172 111 61 137 140 171 140 24 154 70 98 122 140 151 83 84 131 156 150 169 163 71 116 79 60 169 179 186 155 156 124 133 123 136 84 123 101 131 103 93 118 66 137 63 188 34 162 171 160 
60 165 106 94 164 115 118 152 217 145 105 94 36 146 72 158 138 183 121 125 198 120 33 133 130 83 93 157 148 145 132 77 72 18 115 93 117 68 125 191 82 138 131 95 84 98 172 126 127 148 89 56 100 164 210 137 124 122 211 104 167 96 135 34 115 132 100 82 170 119 190 174 129 121 84 97 96 145 138 121 53 122 93 46 79 59 76 124 86 210 77 121 145 143 165 159 136 188 144 116 
86 208 74 128 177 117 195 89 108 100 131 94 106 54 114 83 130 120 89 149 172 148 163 26 151 132 138 130 183 87 119 143 117 135 131 80 136 104 136 156 106 145 137 117 158 139 98 122 138 141 127 70 160 143 83 87 125 156 120 160 141 121 69 111 209 113 70 134 72 84 128 118 97 87 200 66 170 66 78 163 90 139 69 105 134 137 138 180 91 164 58 198 132 106 134 102 70 156 155 103 
30 76 134 162 136 159 215 66 90 132 155 98 148 53 116 59 146 122 115 160 198 131 188 136 112 120 122 187 218 98 102 70 200 91 195 147 116 62 50 173 77 127 60 149 54 209 59 132 179 142 109 118 91 146 107 108 190 102 131 121 159 110 69 131 94 130 65 63 77 180 169 111 212 100 126 146 153 192 136 171 153 142 113 194 174 92 82 200 78 159 135 118 112 80 78 106 120 110 120 56 
126 125 115 86 152 119 121 94 87 175 84 166 125 35 155 85 59 162 183 115 107 146 154 122 103 124 92 171 135 148 147 132 120 129 167 128 104 111 118 192 99 172 152 187 109 170 93 138 228 203 200 134 119 89 123 68 157 63 133 135 140 171 39 132 189 147 211 130 214 148 100 135 177 207 215 73 58 108 152 70 182 128 139 93 187 131 114 148 50 230 69 186 141 192 70 91 142 51 135 146 
142 131 109 162 130 166 153 164 138 115 141 167 106 150 108 138 53 150 125 78 130 115 159 131 118 43 117 155 110 116 58 194 180 160 80 116 105 58 201 111 49 165 198 110 123 165 182 76 81 112 143 133 122 114 119 163 91 166 174 119 165 94 140 113 163 94 112 149 199 118 99 134 142 130 83 33 83 103 146 145 162 195 45 92 38 139 100 121 95 195 170 194 118 107 124 131 155 79 137 138 
172 124 123 163 116 151 126 103 153 118 133 149 92 89 125 168 49 169 169 140 110 132 153 132 164 235 129 150 64 79 78 191 69 131 130 129 107 100 162 152 179 189 136 101 44 120 138 138 53 129 106 144 74 133 145 120 120 99 148 149 171 143 137 154 138 152 118 188 102 145 142 86 170 110 146 178 119 206 188 245 155 103 92 117 168 151 78 195 185 111 217 81 144 138 181 97 164 63 121 106 
144 153 140 138 125 70 197 140 131 100 141 230 161 125 75 41 201 114 107 130 107 196 118 163 164 128 153 96 120 175 147 94 129 115 129 137 192 184 144 226 140 108 91 175 105 157 111 77 187 119 121 98 55 28 64 159 119 103 70 186 145 108 140 126 121 114 174 134 127 99 110 103 106 155 72 73 34 79 48 123 177 101 204 139 57 164 112 183 134 127 127 175 130 65 211 124 131 101 101 196 
206 102 120 119 161 136 178 130 145 121 169 139 167 134 172 88 15 97 93 139 98 133 203 128 134 139 123 115 128 117 104 149 129 141 103 119 88 104 199 145 78 127 73 169 172 71 119 142 94 168 100 113 162 132 162 89 56 131 141 94 110 148 84 76 180 111 84 168 80 118 103 82 100 39 64 47 98 60 198 127 130 178 98 41 143 44 124 97 160 168 82 172 134 113 150 59 98 130 147 44 
161 184 120 159 187 123 96 79 120 104 189 152 71 74 235 142 105 182 92 165 130 160 121 137 172 123 53 123 179 97 97 182 211 156 71 146 139 166 162 154 146 179 131 93 75 109 187 148 190 87 183 107 119 149 60 152 83 129 142 128 147 102 64 62 56 76 181 97 166 74 176 217 141 175 175 129 108 132 157 124 175 131 138 112 166 153 114 89 43 37 108 51 98 132 105 123 89 126 125 112 
147 132 189 100 115 89 158 220 80 234 89 119 135 112 99 54 105 136 186 180 205 194 184 125 149 138 178 160 116 143 185 123 185 180 120 172 118 139 201 231 135 173 101 121 88 163 75 127 100 116 128 185 118 118 73 117 102 97 100 151 154 138 213 139 126 131 170 178 160 145 138 103 118 110 109 62 105 171 60 25 59 119 126 112 99 119 92 136 199 141 148 57 134 147 115 91 104 82 106 166 
82 142 190 95 159 67 116 160 115 152 72 149 138 143 147 64 236 81 91 114 78 197 146 126 185 160 162 79 179 105 186 140 180 103 155 177 172 80 168 78 81 86 172 152 118 206 130 120 49 145 91 120 91 106 145 81 149 162 154 82 168 55 76 99 34 141 65 99 115 154 104 65 44 143 138 84 53 104 104 99 111 149 95 162 136 57 68 162 132 103 136 111 61 195 122 137 94 134 116 116 
102 145 67 128 115 57 151 100 138 102 114 128 194 153 82 129 177 111 153 150 76 188 128 117 182 127 139 105 130 127 119 58 123 130 42 74 143 98 136 130 175 62 119 140 116 99 159 189 147 113 72 150 104 90 58 168 154 131 96 94 98 152 115 198 91 68 92 202 169 120 163 122 40 97 173 158 70 129 63 136 153 136 78 122 100 126 133 114 179 199 153 172 83 144 116 127 185 178 185 33 
80 117 114 167 194 163 85 156 134 155 167 91 172 141 49 116 148 102 89 92 102 127 166 89 171 139 149 123 144 38 87 142 103 132 74 99 87 85 124 194 145 118 91 215 168 134 127 115 130 171 118 158 145 154 115 109 107 153 168 189 67 145 103 137 108 132 158 100 105 75 126 50 171 75 90 94 104 117 229 124 87 144 147 138 148 212 129 176 139 177 45 145 114 131 190 125 116 152 149 156 
170 97 132 165 90 83 41 125 158 79 158 195 78 131 159 103 110 145 182 81 128 121 149 158 120 160 85 141 134 131 157 104 164 61 174 133 109 168 97 222 105 124 208 204 130 115 205 43 114 128 68 135 37 171 94 173 129 217 166 171 138 120 167 123 103 125 110 131 96 69 126 109 82 66 119 104 150 173 133 160 148 72 130 148 81 181 141 82 136 188 165 140 118 191 170 137 89 123 90 126 
128 116 99 109 83 124 152 56 138 74 158 179 131 106 96 177 155 75 118 153 153 160 180 171 144 61 162 167 162 151 148 101 181 145 147 123 143 156 186 158 130 134 174 113 142 120 131 139 147 146 44 114 113 201 137 163 122 147 122 118 149 140 92 182 205 178 137 160 81 121 122 148 176 180 76 84 165 116 34 82 144 78 194 193 185 108 80 70 146 129 57 100 139 94 111 220 172 112 126 183 
129 113 195 156 132 65 110 119 125 150 127 137 123 116 121 172 159 108 106 142 91 104 200 136 188 171 125 144 84 129 145 158 143 195 56 88 207 113 178 103 151 143 104 78 127 240 133 136 131 114 82 57 116 197 55 173 100 133 68 133 165 134 123 93 139 70 120 128 82 109 137 187 200 126 152 114 177 146 107 137 101 145 122 113 47 164 100 145 142 120 112 140 166 82 155 182 190 134 161 134 
86 98 108 122 85 210 59 96 144 151 158 178 142 142 104 114 165 139 170 82 64 165 142 103 104 137 133 163 76 75 227 178 93 165 171 178 142 123 163 105 102 192 186 137 107 63 185 190 130 105 66 61 109 134 94 71 131 63 91 187 148 137 117 140 118 127 135 152 137 109 103 150 145 109 104 91 87 60 175 140 53 94 144 158 145 148 121 111 85 121 151 197 183 112 83 184 135 124 132 227 
146 163 122 78 142 131 88 132 109 66 73 67 146 99 117 128 138 229 161 100 133 167 103 100 117 125 155 76 105 105 134 93 118 163 102 187 156 165 112 210 150 121 148 107 189 145 94 117 149 5 171 111 130 44 130 142 100 106 186 213 47 162 213 217 174 110 127 87 97 149 44 83 149 127 157 53 84 111 111 61 101 104 130 87 84 71 89 127 189 151 120 141 126 117 73 181 221 144 189 95 
