P2
100 100
255
169 137 144 145 175 120 95 103 157 106 182 99 153 210 116 153 42 14 111 181 49 162 142 64 99 26 141 105 180 195 197 124 124 111 97 183 154 63 192 109 170 103 110 138 138 152 70 115 138 100 112 121 140 186 153 135 147 132 91 213 142 152 171 107 181 134 147 96 89 89 100 84 169 174 51 150 163 147 133 96 144 151 160 138 111 115 96 78 83 189 121 100 162 168 163 119 121 156 144 110 
189 166 198 125 128 139 202 169 133 141 111 115 91 156 60 218 53 114 189 140 158 155 151 222 87 133 128 137 196 165 60 192 149 135 71 159 115 134 141 108 125 147 214 134 127 123 146 65 186 131 157 92 160 96 164 111 137 130 164 64 180 115 52 138 148 192 176 116 122 190 88 142 104 77 165 129 118 109 125 39 87 113 180 149 116 170 209 124 78 138 98 95 141 117 153 94 108 188 98 60 
124 148 106 123 154 167 110 90 178 139 95 114 61 157 75 200 90 108 140 11 104 86 112 211 118 175 112 80 187 130 141 119 140 59 159 192 82 203 73 188 74 189 119 112 141 72 115 110 152 58 152 80 62 148 151 137 66 175 138 175 79 80 142 135 163 119 110 87 96 116 67 120 160 107 131 114 130 154 72 134 142 159 221 130 101 175 123 149 170 171 138 31 139 147 88 76 153 76 105 156 
50 88 153 140 106 157 154 69 124 91 88 202 127 156 106 145 153 164 112 81 84 109 97 132 121 114 108 128 178 150 129 111 78 113 98 81 89 131 145 132 154 144 137 175 81 117 176 154 168 90 156 155 145 218 127 113 175 105 24 186 180 62 177 119 162 166 193 65 155 128 122 133 105 52 162 143 188 79 87 143 113 169 206 209 238 88 97 177 149 134 144 93 128 70 117 218 82 172 105 117 
117 114 82 116 105 163 146 136 86 92 174 125 167 147 52 174 112 34 114 148 103 145 104 132 48 151 229 75 165 132 193 139 152 110 132 113 86 118 106 147 154 141 135 34 121 180 170 191 179 146 133 127 100 180 198 109 125 94 88 153 138 120 138 106 113 131 168 204 91 143 63 159 77 132 27 76 149 174 140 185 127 208 159 131 89 97 109 118 234 156 139 154 235 120 112 195 99 141 56 122 
101 160 186 124 79 152 11 55 208 109 142 119 86 89 73 126 130 143 130 217 129 132 144 144 127 87 145 97 192 149 43 172 113 178 103 42 117 143 91 197 97 125 77 120 132 138 191 185 167 141 162 146 107 97 148 92 128 119 144 157 118 136 140 53 173 103 53 56 175 132 139 132 128 107 221 115 167 132 74 149 78 117 162 204 158 161 126 157 18 162 150 75 186 125 101 123 122 107 157 45 
166 183 26 87 43 97 98 60 75 133 202 180 121 141 122 107 153 133 102 187 165 141 168 147 132 115 131 95 99 113 211 211 224 111 75 71 87 107 154 200 80 200 84 63 71 139 150 105 153 101 159 83 138 124 107 151 173 94 184 19 132 118 41 99 123 96 144 60 176 101 32 77 140 138 126 135 158 107 111 60 163 89 97 152 109 156 80 87 171 179 82 184 94 140 58 158 92 188 125 108 
155 154 83 126 104 146 197 83 149 79 132 102 109 128 44 147 145 116 47 153 120 132 120 138 80 75 101 161 109 133 80 122 76 215 176 140 119 194 39 164 45 195 143 212 133 140 100 139 86 139 93 116 170 116 50 138 171 174 100 145 134 129 152 120 91 158 92 117 174 199 212 178 100 162 186 156 80 104 82 186 55 74 41 100 97 83 159 82 109 181 147 224 139 131 122 138 126 110 129 53 
176 161 144 185 27 140 207 134 165 85 68 161 208 156 106 169 48 159 141 111 186 187 85 112 118 110 198 104 157 93 102 143 160 115 115 160 229 135 148 166 173 182 189 98 184 118 153 130 171 97 156 148 54 67 159 153 131 112 145 110 198 41 138 99 149 206 110 154 130 208 122 57 96 127 139 77 218 86 130 170 125 192 145 154 154 164 125 105 128 130 138 124 119 122 209 145 49 127 146 164 
108 225 104 116 176 140 120 111 172 237 134 90 94 57 119 152 152 114 122 54 105 70 168 188 69 155 155 122 175 118 96 133 102 140 149 189 90 124 155 171 123 189 168 124 133 123 123 130 174 178 136 140 91 132 100 140 82 113 186 149 106 147 59 120 188 64 92 120 116 121 172 135 160 183 200 138 91 121 221 180 106 213 165 69 141 85 189 114 42 189 73 221 49 186 221 112 148 100 159 115 
75 120 119 92 106 59 86 76 147 74 153 66 87 108 153 166 98 138 229 164 142 114 109 193 103 109 101 91 85 128 101 29 143 105 130 113 91 166 127 159 90 124 111 33 111 152 85 121 152 89 80 162 94 136 196 133 158 126 125 177 155 133 153 143 129 129 109 84 79 160 101 163 119 205 162 56 112 174 71 75 166 170 92 131 94 205 45 157 110 63 188 79 88 147 74 91 156 149 111 99 
138 138 103 55 106 174 130 184 158 121 148 126 160 119 139 133 155 147 103 137 222 179 120 161 116 85 92 71 173 164 110 90 109 72 85 135 108 111 113 136 109 148 130 31 147 152 103 76 145 116 200 91 159 213 123 154 122 163 119 158 139 142 81 135 165 195 141 203 134 182 193 132 139 61 103 119 94 212 114 120 179 113 119 198 65 89 171 97 122 132 190 150 139 137 44 80 143 143 113 127 
141 168 98 133 172 173 80 46 117 199 160 129 169 137 127 129 119 158 144 105 129 209 102 60 92 142 117 183 163 127 111 103 80 107 65 154 137 168 131 165 113 155 213 227 161 22 96 104 68 142 189 152 180 131 185 90 155 140 121 161 78 52 75 183 74 122 131 103 144 143 128 177 66 65 115 116 108 157 119 38 83 124 140 78 43 130 108 130 164 120 195 143 86 111 90 89 187 20 158 115 
78 134 194 134 158 91 106 87 87 125 118 162 110 148 92 198 111 123 174 139 143 81 128 95 78 138 57 108 125 117 101 139 134 165 132 178 121 191 141 83 140 101 141 60 121 136 152 78 190 133 183 129 127 134 178 157 165 225 125 122 71 118 144 127 93 149 66 180 128 124 118 159 153 73 96 186 150 173 196 100 151 157 187 194 140 108 137 153 141 209 124 152 134 153 91 98 123 161 163 118 
92 126 145 136 81 119 112 93 151 85 148 57 152 93 65 159 98 120 79 117 142 150 118 112 110 183 126 172 164 78 126 126 117 167 136 79 129 169 113 81 204 130 90 127 140 156 162 165 59 87 206 152 120 153 103 110 109 144 128 61 159 133 91 70 134 104 121 130 120 149 176 63 158 144 116 132 175 147 164 121 134 215 96 126 138 51 149 206 126 252 48 130 120 27 212 156 119 154 64 183 
180 126 95 158 137 94 110 97 129 134 119 135 123 131 161 108 94 96 129 109 103 111 128 98 100 89 118 164 123 105 108 137 125 110 81 200 87 124 104 185 165 130 149 127 153 115 158 161 167 69 118 180 180 128 150 126 103 129 196 150 125 150 164 124 44 19 140 188 216 164 191 91 79 38 158 156 154 76 145 150 191 111 71 59 132 156 101 169 121 183 130 34 89 141 133 151 171 84 194 176 
103 93 136 93 116 66 216 84 205 162 115 123 211 93 124 197 93 61 198 143 196 130 179 131 143 147 177 221 173 15 58 143 99 64 156 130 124 166 50 94 118 137 169 189 128 104 124 128 89 121 52 128 121 84 140 69 123 108 60 117 71 141 40 73 95 115 127 159 126 84 103 132 95 127 110 201 137 115 132 118 79 171 157 72 68 60 92 152 126 183 46 201 58 194 128 164 117 123 147 127 
130 149 137 175 95 162 170 61 95 136 151 50 122 133 150 140 115 160 155 137 47 155 114 16 149 125 229 125 144 124 136 155 107 152 147 84 135 137 117 130 92 86 118 156 117 101 119 107 89 91 132 95 169 118 120 206 91 67 131 157 84 150 80 176 123 89 176 163 132 134 163 122 162 66 119 128 126 186 119 155 118 142 118 119 125 141 132 111 149 162 159 173 175 146 97 156 190 156 152 167 
111 133 203 170 169 87 116 96 146 64 147 186 81 83 186 169 190 124 184 54 155 58 125 163 150 161 116 111 67 176 130 198 92 52 210 126 99 148 84 156 33 122 169 203 94 153 145 102 78 96 117 100 88 128 108 73 87 119 63 129 120 65 158 140 143 139 178 119 178 155 149 125 111 231 105 168 128 132 116 150 122 39 114 201 114 22 175 121 160 134 54 169 158 137 125 158 142 136 120 166 
208 98 156 36 152 88 126 87 64 163 146 183 122 136 86 120 144 131 158 101 119 89 138 193 86 112 123 104 145 122 176 115 146 42 202 183 68 97 160 88 61 27 108 111 146 95 42 137 121 128 76 187 160 126 204 60 206 179 87 121 93 95 130 90 200 116 125 188 140 148 42 215 171 146 46 124 213 126 98 111 102 123 86 106 126 140 147 160 124 125 81 61 115 164 97 83 102 120 146 93 
107 178 142 171 100 121 162 52 173 153 84 207 153 85 100 143 169 151 195 101 149 63 114 140 139 139 91 194 148 173 104 58 145 86 124 145 140 127 104 130 107 149 133 148 30 163 148 211 151 93 98 164 126 73 106 146 115 101 160 109 172 74 166 98 128 130 176 89 80 73 167 62 132 167 88 125 185 117 137 146 142 159 107 37 153 100 133 169 52 141 108 72 130 68 174 199 75 189 141 127 
146 209 204 121 160 90 134 172 193 66 129 160 110 164 183 140 97 206 128 177 187 97 190 152 161 186 75 143 146 55 204 118 97 141 182 188 167 85 169 89 63 222 108 78 87 77 115 15 126 126 85 119 37 110 147 179 43 106 189 122 142 112 69 184 120 134 112 141 75 76 72 112 165 115 118 139 116 134 100 81 162 82 126 215 74 190 136 65 139 132 86 93 115 127 124 57 139 100 155 116 
162 173 72 79 180 140 97 149 140 134 116 158 216 119 162 83 85 134 152 91 123 155 109 156 72 156 114 174 133 176 176 205 175 118 109 108 126 186 120 93 124 140 171 158 147 120 85 111 129 38 54 115 86 136 54 147 116 115 147 127 95 108 107 125 94 87 44 178 136 112 148 189 135 98 96 115 142 145 111 193 80 97 113 90 189 121 141 75 174 120 127 128 191 163 122 131 78 60 189 160 
116 172 124 124 108 140 133 145 191 60 130 88 89 156 60 160 188 180 82 184 143 133 14 139 138 171 191 156 103 98 149 131 90 118 117 145 134 108 46 191 97 91 75 125 121 132 132 115 151 36 119 172 106 75 155 119 131 93 106 109 169 176 164 204 156 124 103 109 90 204 111 82 97 120 150 63 146 119 150 175 120 187 129 135 167 115 102 119 21 182 101 119 151 149 134 109 99 170 131 193 
162 173 120 121 29 147 120 163 163 31 113 63 129 124 89 139 105 107 94 95 153 90 114 108 122 102 138 155 91 148 125 182 132 103 41 144 154 151 186 112 65 128 182 140 90 161 138 110 220 125 197 158 97 191 99 125 203 157 68 99 87 117 30 179 90 111 146 128 101 137 138 71 116 109 44 149 86 191 155 181 101 139 106 221 121 147 133 149 116 136 179 146 125 176 94 142 106 190 124 150 
96 108 155 163 144 149 116 133 106 70 124 100 121 206 159 117 45 125 148 113 91 85 33 143 79 127 153 111 104 172 119 153 127 186 143 95 13 102 144 77 89 124 90 130 36 120 97 147 134 121 162 105 131 115 103 136 49 18 141 130 163 97 124 108 198 45 103 168 148 190 163 86 116 155 45 124 154 184 28 144 138 152 107 214 156 182 175 110 126 123 53 49 134 161 116 94 109 124 131 67 
90 133 107 126 217 106 136 175 139 179 145 95 150 89 198 143 84 111 153 57 75 94 163 160 119 166 109 87 165 155 33 111 122 186 138 103 195 121 183 106 120 170 165 106 92 103 190 64 169 103 148 133 118 172 153 177 154 125 115 156 119 139 87 138 109 178 125 138 157 132 64 103 78 129 84 83 144 178 114 122 162 88 110 110 167 108 142 159 167 99 156 130 139 210 166 128 183 105 190 154 
127 92 149 101 123 151 133 73 148 208 199 181 51 126 231 144 169 157 163 142 105 135 182 117 167 21 111 118 184 151 108 101 113 144 73 112 196 74 89 119 69 138 132 142 191 53 119 165 188 76 244 136 155 137 44 93 154 129 185 117 157 122 116 135 167 142 71 141 119 142 139 191 62 88 157 90 212 165 87 185 188 55 144 167 177 104 221 137 106 158 177 92 151 151 115 141 67 87 118 115 
161 143 190 82 177 164 154 112 103 112 134 69 144 124 135 134 132 170 140 121 164 96 131 148 168 89 95 107 187 133 200 135 66 181 121 162 123 89 122 196 109 236 186 118 154 164 126 218 141 103 57 209 122 171 93 174 113 99 156 79 100 123 73 165 113 129 101 77 43 153 205 138 95 145 122 104 126 61 121 119 158 145 120 150 133 78 147 91 104 225 146 211 166 85 170 126 53 163 88 112 
95 152 122 158 53 124 97 156 61 168 117 111 131 179 126 136 70 153 60 138 76 65 139 106 181 123 92 83 185 181 86 159 140 108 121 150 127 146 38 135 92 100 171 75 101 148 129 128 175 207 76 170 165 104 132 197 125 111 74 146 74 110 86 179 143 133 165 126 206 152 136 145 196 117 126 98 143 78 186 151 180 113 107 148 139 177 182 117 124 165 84 134 45 88 111 95 78 109 215 68 
105 159 180 70 71 107 177 231 76 72 49 192 111 129 150 115 156 88 127 88 100 48 141 115 200 149 175 110 211 158 81 88 149 134 158 140 107 77 95 78 165 104 68 132 125 197 127 183 211 102 63 130 181 159 155 44 129 154 158 205 96 58 91 83 125 81 72 108 201 157 128 106 148 161 180 78 139 111 123 129 130 215 55 227 177 98 75 143 60 168 119 84 68 150 102 145 161 124 88 165 
137 118 88 117 116 140 153 80 109 77 180 154 65 142 70 132 84 164 97 112 199 157 114 170 123 111 101 157 149 83 236 122 94 65 76 159 123 129 27 153 179 124 164 153 172 118 89 127 126 105 143 142 100 113 166 100 108 46 146 163 121 79 187 135 119 221 129 110 92 229 194 100 120 142 197 165 116 211 191 133 119 114 116 102 148 74 160 146 192 119 139 173 199 104 167 109 166 39 91 40 
87 123 183 67 99 153 160 167 148 101 129 138 139 114 137 178 91 161 208 103 46 124 149 149 92 188 96 119 113 129 175 67 120 179 98 160 145 148 90 106 159 104 164 101 87 123 84 76 136 103 223 139 154 105 152 113 155 92 133 188 112 50 124 149 160 106 116 117 96 86 130 136 96 124 169 81 160 193 104 165 96 146 96 162 159 155 92 117 103 183 128 197 76 179 125 138 111 127 144 64 
91 128 157 163 144 111 45 81 149 151 113 155 129 230 132 130 162 154 141 188 130 188 194 73 154 130 117 159 155 231 89 154 97 69 178 110 119 172 140 90 59 104 144 49 157 124 111 166 199 217 124 164 178 124 194 104 135 99 142 131 100 120 55 104 122 144 72 142 135 87 97 57 157 102 155 129 136 207 77 207 150 129 139 143 129 180 142 133 143 73 149 88 78 129 116 120 179 145 160 158 
42 156 146 137 117 66 115 74 194 163 125 109 204 123 115 120 105 159 123 100 111 49 71 203 23 81 90 90 118 132 125 178 47 129 86 144 121 163 192 164 78 155 74 124 121 143 164 99 118 165 133 116 75 33 200 142 64 143 160 77 212 81 87 145 112 96 102 81 102 81 125 220 101 167 91 99 101 207 129 165 143 137 152 113 137 161 114 185 158 147 87 167 136 166 129 138 64 112 168 128 
95 124 93 114 94 144 139 105 102 74 125 116 100 154 86 174 140 118 158 114 121 105 145 101 198 127 53 135 118 88 134 130 193 72 147 148 113 92 103 124 150 97 173 147 61 185 143 136 115 142 107 94 152 146 130 143 168 231 162 200 27 46 97 105 95 190 137 139 92 142 76 98 115 204 128 168 155 76 125 145 132 90 138 159 190 131 163 139 49 70 79 132 146 212 167 94 115 48 138 106 
119 168 102 103 171 79 180 114 73 123 83 179 63 104 58 115 133 120 75 192 46 133 174 163 90 80 140 43 118 137 162 55 183 142 130 161 58 127 126 133 157 88 115 151 123 151 151 57 182 153 119 53 100 38 187 175 186 171 183 184 135 129 118 147 174 86 125 156 94 43 126 125 148 37 168 119 122 112 86 117 122 142 119 80 105 141 137 159 141 153 176 81 67 106 117 236 128 111 142 57 
223 144 171 110 124 182 179 114 158 124 59 92 130 208 85 217 114 168 141 171 169 97 164 127 119 74 140 236 124 125 170 139 113 134 185 91 128 131 161 94 117 120 126 117 103 132 148 82 50 132 109 134 107 192 78 82 170 181 136 21 92 159 44 175 100 124 155 163 176 164 95 129 117 69 190 64 122 99 141 129 104 80 148 117 70 149 152 96 118 137 83 167 113 142 129 213 75 124 170 130 
115 75 89 199 162 228 68 119 61 93 121 103 155 142 97 201 132 107 101 119 129 147 123 190 118 203 174 131 154 139 145 128 145 85 143 160 165 92 127 119 148 120 102 85 134 120 172 28 59 156 131 112 30 104 104 123 145 158 132 146 128 169 150 138 163 35 162 150 117 64 148 193 66 95 148 92 103 128 172 195 112 97 194 114 148 52 116 131 157 122 166 181 145 93 72 48 162 163 87 116 
143 65 99 99 93 67 118 109 122 168 37 17 136 169 216 99 196 93 115 135 156 121 157 114 192 115 132 181 142 199 70 178 127 136 150 66 123 185 67 168 114 71 157 135 35 159 113 155 132 142 177 113 126 113 142 146 78 141 96 114 140 42 104 67 136 126 117 53 93 163 134 60 47 125 68 135 152 53 99 160 107 135 67 193 73 114 121 94 246 85 135 132 76 145 126 123 196 129 145 158 
79 136 233 99 140 145 177 66 143 113 109 167 120 127 106 116 92 117 138 144 55 157 142 84 135 74 77 152 113 180 106 128 53 121 80 97 41 154 212 78 88 99 103 123 180 185 125 146 184 103 176 170 159 59 132 151 118 125 117 125 145 100 78 229 128 112 104 92 86 151 104 61 105 141 102 63 131 143 139 161 148 28 215 125 105 184 105 128 138 209 194 94 106 103 140 82 110 70 117 93 
141 191 154 55 145 213 179 114 145 92 158 144 127 194 58 142 90 147 170 137 127 39 75 96 131 150 108 108 138 159 85 40 55 137 160 128 193 70 133 77 187 96 166 162 146 137 196 131 89 110 131 87 124 110 137 177 105 204 186 115 116 197 117 131 165 126 45 161 79 176 156 86 95 187 98 100 192 135 145 93 171 71 141 170 189 99 148 195 184 112 129 122 134 93 132 105 116 159 141 117 
114 131 111 189 141 182 135 139 107 129 197 48 89 128 95 97 72 151 134 114 133 192 185 102 100 147 152 126 41 120 152 73 167 133 112 96 167 137 98 105 96 101 70 146 139 148 54 110 149 144 65 124 158 169 164 191 192 124 193 168 112 26 81 95 113 133 42 125 112 72 105 170 152 150 140 158 246 121 138 131 177 127 66 171 56 88 150 124 124 138 47 179 77 220 199 137 121 43 95 130 
147 113 147 86 71 91 106 219 171 191 92 132 147 91 103 160 174 133 109 47 165 103 149 81 114 183 159 152 96 151 138 217 128 104 144 155 65 125 154 124 145 132 200 102 98 205 125 112 137 46 156 121 111 101 149 110 171 222 54 83 213 132 170 94 152 114 159 179 102 149 139 167 177 118 130 91 183 116 116 113 172 70 144 149 133 186 56 147 127 97 96 87 167 109 164 170 137 94 71 58 
105 67 87 87 79 141 170 137 208 76 35 88 198 110 114 170 108 138 136 125 154 78 136 82 176 162 153 118 88 203 140 116 82 171 135 165 150 130 150 130 85 97 152 93 176 98 167 134 24 156 138 61 97 133 82 118 166 110 136 176 127 128 157 127 119 156 89 108 169 124 135 248 85 129 127 98 36 167 184 88 153 109 131 105 79 96 177 140 136 71 125 92 78 124 144 141 152 120 186 41 
137 206 99 97 117 156 74 92 86 132 101 153 213 138 138 112 64 163 98 100 110 118 164 130 85 163 137 139 148 143 123 132 84 69 104 159 132 123 110 147 120 165 125 139 71 126 138 163 117 154 106 140 107 120 81 102 82 116 91 157 220 109 165 112 83 199 71 112 195 132 141 177 67 148 89 77 59 162 157 28 111 125 149 165 162 118 112 135 159 152 171 130 119 123 134 160 181 154 113 122 
78 100 136 151 191 106 129 116 131 170 90 140 181 122 64 122 174 144 212 24 152 108 61 119 110 72 185 105 177 136 154 125 76 55 116 153 158 131 131 122 143 175 168 115 135 72 115 115 164 191 122 39 153 147 117 154 113 107 121 194 143 168 44 89 130 102 51 85 136 96 128 113 145 154 191 165 139 145 163 106 127 197 141 157 126 73 108 146 154 228 154 87 175 135 70 163 50 102 127 170 
75 96 196 94 68 52 211 120 153 165 199 97 171 149 146 183 154 73 114 91 55 180 145 125 121 152 130 125 162 104 84 198 76 87 143 178 114 78 170 184 203 98 197 137 125 102 41 118 45 127 204 45 168 73 159 134 77 205 67 127 160 110 77 181 140 152 55 161 98 148 97 120 101 118 103 144 168 123 83 63 90 109 113 103 191 133 115 58 162 142 56 61 143 140 97 126 41 131 75 82 
47 128 191 140 72 189 59 187 115 195 184 127 107 170 139 68 116 107 135 125 224 145 137 147 115 188 129 68 169 140 169 135 229 166 141 148 139 125 65 148 63 142 102 111 141 220 127 72 117 40 147 141 179 154 108 119 123 104 76 63 228 126 145 48 140 35 100 121 63 127 123 50 227 115 114 139 165 33 145 109 198 146 137 159 151 108 132 166 92 104 207 143 143 81 149 139 112 157 88 193 
93 120 135 124 91 192 150 133 175 118 119 74 170 184 74 119 49 156 125 64 143 86 135 115 99 107 154 138 16 86 127 182 180 31 112 71 99 41 146 139 221 86 153 187 155 99 137 53 134 119 119 169 94 192 123 44 143 91 110 185 154 206 181 124 124 133 113 181 18 142 72 121 114 160 121 141 137 123 181 101 96 136 148 56 173 146 193 89 133 201 108 167 72 62 113 186 169 119 170 174 
137 104 84 154 71 174 100 112 86 107 111 135 67 157 112 32 122 169 144 68 173 111 121 139 211 138 177 64 43 157 135 130 150 137 108 109 234 136 131 88 172 166 85 188 88 135 131 125 150 186 128 44 115 121 127 113 205 135 149 89 138 95 73 111 108 58 110 163 125 98 114 117 177 112 106 27 89 107 129 137 203 137 44 190 152 123 131 102 96 64 68 101 198 124 110 151 107 178 136 202 
112 161 155 203 174 183 126 87 109 213 147 137 36 113 107 92 116 131 78 162 129 109 131 61 209 86 133 75 136 83 111 100 108 107 131 209 56 175 143 73 144 120 138 155 149 146 85 77 92 123 78 189 77 138 86 105 97 78 125 155 88 223 124 106 133 170 29 138 73 101 65 191 40 29 83 132 153 138 174 40 79 112 111 75 170 119 118 215 99 112 141 175 128 174 149 46 135 111 142 127 
210 171 176 192 101 158 169 164 57 146 109 126 30 127 222 101 183 114 124 117 158 97 89 124 177 106 116 201 123 99 73 157 80 135 142 126 96 88 229 112 153 142 107 144 100 203 212 123 124 170 174 181 69 128 185 139 174 79 70 117 151 136 90 166 128 146 116 96 89 79 143 203 147 130 143 33 91 116 105 104 93 123 123 116 118 122 100 130 173 76 240 160 116 39 129 137 143 103 121 141 
111 181 113 80 41 132 117 119 87 206 111 141 174 88 144 104 85 139 98 176 166 178 118 86 79 132 167 88 61 124 128 28 17 124 68 145 98 131 88 91 206 168 118 105 49 80 154 116 230 146 149 85 152 104 107 73 187 232 132 164 107 65 105 54 59 119 136 126 95 191 164 146 124 239 196 156 63 193 93 97 102 83 109 82 75 141 171 204 176 127 104 67 178 135 113 118 100 135 89 76 
109 99 112 175 87 85 79 73 94 198 147 18 172 170 118 130 134 130 202 142 128 168 153 88 173 163 166 118 125 209 92 128 147 54 100 49 119 134 74 132 82 105 156 168 185 153 18 191 179 203 55 147 176 194 67 89 115 206 137 121 210 192 92 103 45 98 143 125 117 93 23 132 126 83 173 129 127 59 174 156 149 204 107 180 111 139 112 97 133 84 107 110 129 116 37 131 195 113 89 95 
143 116 106 207 170 107 131 74 92 127 127 154 115 187 108 129 101 107 171 106 137 199 127 121 99 9 217 117 81 198 108 89 171 96 150 87 92 157 71 58 96 169 149 186 103 95 72 133 132 158 135 151 137 95 160 160 206 109 94 215 192 119 119 116 147 167 168 73 107 159 125 136 108 147 119 63 100 199 132 110 116 233 138 123 150 187 52 127 140 125 52 183 114 124 92 105 160 138 169 50 
129 188 60 133 115 165 130 164 97 151 112 89 100 119 135 171 131 105 150 111 121 123 153 157 157 94 156 134 99 185 122 98 154 86 121 158 168 110 171 124 176 175 154 223 132 85 121 70 126 130 142 151 181 155 148 124 163 166 140 152 133 153 150 108 180 53 105 78 131 130 238 182 10 124 119 67 106 114 95 143 118 41 144 63 175 108 168 124 135 181 157 101 158 113 152 111 129 147 129 139 
156 65 113 131 152 89 57 59 120 135 164 160 127 151 69 52 128 173 174 122 118 83 131 108 43 121 139 166 41 131 132 145 165 139 133 69 146 183 123 147 104 109 124 80 87 72 104 110 117 157 184 146 97 139 99 88 146 102 171 176 170 86 95 161 128 113 123 74 118 93 144 109 101 123 137 160 67 141 36 187 156 115 80 110 101 122 94 35 123 77 182 116 123 67 88 84 131 129 79 29 
147 118 136 91 87 134 179 148 86 125 215 111 93 80 137 175 129 82 170 127 193 58 95 202 79 168 163 150 122 134 88 184 107 112 185 143 155 133 170 70 179 115 128 109 192 89 144 163 157 60 136 185 107 110 184 81 116 167 111 85 55 218 84 125 174 214 124 123 203 118 128 144 171 162 179 92 113 135 130 118 110 108 157 88 163 83 140 151 192 86 126 113 158 134 155 83 114 146 50 168 
131 112 192 129 59 141 172 137 121 219 74 164 108 154 88 36 111 177 145 151 112 206 105 104 116 119 89 187 60 117 203 50 124 120 70 95 127 202 101 57 139 121 152 138 118 152 172 90 78 191 91 127 110 122 88 110 152 123 143 125 189 105 156 125 116 138 62 86 171 109 134 160 118 150 152 162 116 142 142 133 149 152 103 122 182 73 87 123 169 141 146 214 150 115 155 77 131 156 190 153 
139 112 198 91 18 151 186 174 134 148 88 76 111 130 144 118 105 141 159 161 199 129 144 152 148 137 96 148 70 116 160 40 96 191 183 151 121 117 72 79 180 155 54 129 145 122 30 165 62 145 82 163 120 173 71 71 133 128 201 183 93 101 101 118 121 111 156 42 213 97 125 120 118 100 129 104 145 41 102 156 120 146 185 124 175 97 160 201 131 183 123 142 103 93 163 94 125 147 128 172 
91 143 155 108 137 48 103 135 96 150 86 128 133 83 149 110 132 138 200 153 149 65 153 139 136 142 184 186 164 139 83 21 172 176 184 189 152 145 116 111 135 116 143 89 183 202 152 101 137 83 158 122 135 164 212 149 162 61 209 18 139 138 189 140 155 88 152 78 131 126 141 113 31 83 108 217 206 157 72 143 149 126 136 118 144 121 155 111 157 131 143 68 146 115 125 75 91 142 110 100 
154 141 79 82 122 111 155 120 152 109 136 150 158 116 162 178 108 140 117 92 110 151 95 84 167 157 160 119 148 139 136 120 92 181 118 125 105 201 144 166 104 34 129 152 111 153 114 154 92 139 176 77 187 175 120 185 63 23 168 119 138 151 80 101 80 159 34 144 149 124 71 140 38 131 116 114 149 143 136 83 81 92 131 128 218 117 152 94 108 183 166 137 159 165 149 105 95 102 142 131 
71 137 150 135 166 120 183 178 168 121 91 82 22 166 86 136 70 87 124 181 128 93 108 154 105 124 163 87 28 189 78 100 83 146 212 117 117 141 222 91 80 64 178 40 107 201 80 204 136 124 124 139 114 136 150 64 130 130 119 155 163 117 142 119 130 91 181 150 182 100 151 127 136 112 113 111 140 80 114 99 171 170 38 185 49 87 124 185 138 96 130 69 87 99 171 133 115 113 191 95 
149 130 106 198 181 156 122 128 151 177 55 190 147 121 59 186 95 146 209 195 135 177 127 145 137 163 168 105 131 130 59 168 149 147 139 129 122 127 56 144 118 95 134 152 111 65 40 137 125 141 166 146 167 91 115 51 109 126 103 136 167 120 115 93 151 105 104 176 128 144 111 163 199 79 129 197 128 116 124 126 184 192 109 38 116 99 133 119 125 126 87 139 165 100 58 121 129 119 49 182 
136 158 150 113 86 49 182 96 131 159 94 160 159 105 136 85 134 128 147 127 117 86 132 103 99 89 186 159 137 197 64 148 115 58 65 168 125 114 108 96 72 228 218 117 127 131 61 107 141 188 110 184 173 158 173 145 62 80 135 184 115 83 67 184 118 75 231 162 190 112 220 140 210 173 134 139 141 171 157 133 147 94 81 54 76 109 78 145 183 125 138 91 167 199 114 237 123 138 137 135 
152 96 98 117 127 111 101 117 114 26 141 146 114 114 55 133 71 177 78 98 87 198 164 149 151 144 147 101 129 38 174 114 122 111 99 126 123 96 200 179 84 113 80 102 189 142 102 58 113 154 74 137 120 102 154 181 144 164 137 200 161 128 112 206 109 71 138 149 151 122 97 141 148 150 114 92 172 125 125 116 204 157 105 113 204 133 142 119 53 136 39 156 56 106 136 141 169 96 221 164 
102 128 165 125 156 163 112 186 137 119 120 152 104 152 110 100 164 66 145 181 96 96 205 62 140 155 155 133 199 86 69 62 72 182 176 107 129 41 118 161 127 104 174 176 98 59 143 64 88 130 114 169 130 81 89 158 178 103 152 125 105 115 111 195 142 80 123 118 87 49 125 198 104 65 147 143 126 104 137 212 117 200 99 139 173 147 60 91 138 177 174 132 122 178 70 203 103 89 88 114 
143 120 125 51 185 98 160 133 162 160 148 175 201 129 70 127 154 120 152 131 30 128 127 108 117 111 50 121 103 90 154 98 124 110 154 165 91 86 152 105 122 127 97 156 142 121 177 110 83 68 128 112 121 128 144 177 119 135 128 108 71 112 143 129 112 97 80 175 130 165 121 128 187 117 175 67 85 96 127 111 124 163 151 45 159 129 164 113 167 96 175 138 97 110 149 144 83 92 79 132 
176 129 54 128 166 128 71 137 138 105 211 156 132 83 140 124 122 135 170 148 56 170 172 125 136 129 73 122 131 145 172 112 116 109 92 120 111 88 121 86 62 127 128 180 124 157 149 121 166 101 123 169 63 110 134 195 107 138 108 151 54 85 144 173 113 172 183 150 142 125 119 122 121 145 143 162 84 167 68 80 181 94 165 129 168 112 148 112 145 117 183 220 195 64 125 118 150 118 131 107 
88 121 61 108 105 127 120 150 59 99 119 39 192 159 129 165 122 137 97 188 69 78 136 189 67 145 126 127 82 101 174 134 123 131 194 119 181 152 103 59 169 79 102 85 121 158 173 150 138 72 69 74 64 108 244 120 169 41 127 140 152 109 76 153 144 102 91 54 127 188 136 103 149 122 129 96 50 136 93 131 90 104 7 206 144 171 80 167 74 181 126 106 186 89 42 87 159 114 105 144 
145 130 97 198 98 126 90 97 119 79 191 93 85 195 161 70 109 125 116 125 122 89 147 111 130 95 174 140 103 179 106 112 118 85 104 125 123 123 149 141 76 77 94 98 38 135 116 136 142 147 129 172 56 163 155 106 155 110 146 129 147 142 141 110 202 71 157 26 120 111 105 145 104 199 220 118 108 146 150 146 128 117 89 153 193 106 68 168 188 144 133 75 59 230 128 126 116 151 150 167 
118 128 114 87 110 108 145 192 157 190 150 50 92 115 106 85 183 48 141 143 181 113 62 129 122 94 131 97 228 47 190 165 188 105 164 123 52 122 127 109 110 127 74 145 126 84 64 161 103 120 70 118 139 166 65 119 125 63 144 176 40 134 123 91 103 127 142 73 88 98 134 46 151 87 99 170 130 86 87 140 151 99 177 141 49 53 84 165 167 135 99 32 163 151 89 124 197 124 127 161 
182 89 76 92 107 160 128 149 150 128 119 117 22 181 131 108 133 89 133 170 158 47 62 31 152 128 150 157 174 87 30 111 91 70 178 143 116 218 133 71 125 73 118 124 134 114 96 122 92 114 74 179 196 117 126 117 174 81 133 76 55 147 123 142 89 150 138 196 124 152 122 84 82 140 97 110 166 164 154 134 126 128 202 70 157 60 88 84 83 166 130 67 90 126 85 150 54 152 122 88 
95 128 135 67 121 136 97 110 138 130 93 104 77 147 61 131 122 179 57 143 145 185 89 142 147 63 173 71 134 48 84 104 112 158 101 136 97 120 82 143 152 72 112 63 214 49 132 111 132 91 79 108 126 130 157 131 126 100 112 51 167 126 131 169 131 128 82 142 99 133 93 131 112 102 83 109 122 128 130 123 71 122 123 176 138 123 159 124 87 156 112 211 194 186 136 137 137 142 135 179 
180 158 194 193 117 226 123 197 136 150 75 120 204 208 176 64 112 127 60 177 141 154 92 78 179 125 120 184 107 109 119 214 94 81 94 131 96 90 127 92 122 101 109 166 153 188 124 140 134 136 79 130 162 212 130 146 132 73 166 188 130 158 227 127 156 143 138 72 96 181 116 44 33 113 115 150 75 118 87 140 65 97 186 149 211 204 99 41 125 83 146 129 142 64 91 113 100 145 94 208 
127 94 113 82 210 161 36 115 68 113 134 186 106 185 79 112 99 75 93 104 110 158 38 133 155 130 175 160 113 164 125 99 56 100 121 76 116 131 69 129 218 67 109 131 55 162 131 130 56 146 121 199 140 65 222 184 223 85 95 135 192 84 130 123 175 85 145 200 166 94 138 84 171 67 118 147 170 82 108 76 97 144 215 142 91 143 58 188 164 113 87 143 143 129 159 156 58 219 193 95 
167 115 159 83 44 167 100 124 138 142 119 127 155 151 107 117 161 168 113 123 115 131 149 100 130 160 92 219 78 161 145 69 136 174 83 67 117 104 180 175 85 156 154 58 111 67 111 130 127 100 65 116 189 108 142 142 97 142 152 145 102 132 133 71 105 164 205 194 24 182 119 103 96 158 118 162 76 123 84 123 76 160 139 117 127 91 135 64 108 152 143 107 153 92 155 112 99 122 11 135 
139 143 122 165 114 124 156 138 137 199 101 111 110 102 165 59 142 162 154 133 92 113 102 64 129 142 152 137 58 130 40 23 186 164 164 124 98 185 95 154 86 138 86 74 167 139 118 95 162 98 82 185 83 39 178 125 107 110 83 102 128 180 73 137 164 62 85 137 142 79 106 130 156 158 126 132 121 174 177 112 192 81 127 107 83 64 71 100 99 115 111 169 149 137 94 101 86 148 100 89 
112 197 88 89 184 158 162 153 53 36 184 140 127 94 77 76 124 133 200 199 88 147 142 133 80 108 119 140 106 106 132 88 57 72 109 68 138 100 132 137 194 154 74 150 20 132 120 193 156 89 111 53 116 120 143 141 138 212 79 144 206 147 110 59 98 140 94 87 118 183 109 232 142 149 120 138 125 158 139 168 167 169 18 158 108 138 98 218 179 215 86 96 124 111 59 88 153 197 97 174 
161 220 116 124 104 94 118 142 93 171 132 146 111 116 134 146 183 101 119 166 140 125 100 128 180 68 213 84 138 234 148 165 139 125 125 120 143 138 123 134 161 176 129 118 134 103 84 175 140 129 109 66 143 203 91 109 53 60 205 104 126 135 107 143 80 112 204 146 183 83 167 138 88 71 129 200 108 63 30 189 153 47 63 152 134 181 83 82 119 198 65 129 169 107 165 156 144 127 136 147 
130 83 175 136 236 56 148 102 192 89 143 103 139 67 120 98 73 139 81 145 203 171 148 228 97 186 123 187 132 113 158 106 129 177 77 57 65 105 113 88 147 143 115 106 151 105 87 180 142 232 222 159 78 175 242 177 155 99 135 188 80 101 122 111 123 93 143 148 164 139 130 134 85 62 111 41 121 90 185 112 124 126 131 192 122 148 213 176 127 60 107 74 125 93 27 111 162 113 171 152 
131 137 195 104 31 146 124 96 160 85 119 146 98 90 120 103 205 143 136 124 112 124 140 147 134 78 121 153 122 179 102 147 184 93 106 81 118 182 154 104 166 105 130 93 166 127 122 178 101 167 136 69 138 101 158 161 107 139 179 111 115 90 150 102 140 169 192 180 77 36 152 148 124 197 164 145 149 169 95 164 137 176 153 130 93 117 222 102 94 130 118 102 224 168 117 109 108 142 116 124 
146 123 168 75 158 122 125 78 190 113 139 87 100 166 147 200 100 158 73 122 113 130 152 115 163 110 194 102 203 166 102 129 97 166 129 109 175 100 111 129 116 132 107 233 134 113 143 151 146 130 110 126 61 119 153 87 111 151 117 134 183 151 66 141 143 103 107 148 167 118 149 97 196 85 105 127 130 38 147 69 108 148 227 166 154 110 147 128 168 127 201 77 188 121 89 131 109 77 171 152 
153 122 101 148 127 137 121 183 105 193 87 82 164 170 82 111 76 92 130 137 158 110 140 87 98 163 123 156 173 164 124 92 144 175 61 121 40 131 119 101 118 94 88 140 117 129 144 135 163 126 158 65 115 132 120 139 121 177 111 129 131 96 134 117 157 214 88 113 110 152 93 162 150 125 157 132 126 121 164 119 128 164 35 180 155 67 191 153 91 148 171 128 76 104 100 114 63 147 124 90 
135 89 130 89 91 65 142 72 173 173 137 122 17 99 229 83 155 156 65 181 40 112 109 81 225 210 137 136 116 111 142 198 122 194 78 129 119 129 131 136 135 223 52 96 115 43 139 157 133 109 142 64 113 147 128 135 184 149 163 136 151 65 125 168 78 169 94 162 151 62 106 135 144 130 154 87 157 164 187 93 38 119 140 85 180 94 121 136 102 101 71 162 140 108 53 150 167 40 92 110 
81 209 119 153 123 113 212 154 33 145 105 105 119 123 110 175 71 93 82 154 65 114 60 111 126 155 158 48 130 114 123 112 158 172 176 154 98 134 109 84 201 99 153 49 50 103 122 115 88 112 97 66 146 107 164 81 78 145 117 173 141 131 132 75 182 109 155 90 143 132 126 143 153 156 93 121 157 149 138 82 187 171 78 165 113 137 125 192 174 134 72 164 185 111 168 133 80 61 79 119 
194 87 63 186 101 104 150 160 111 77 68 142 88 60 121 109 118 104 144 168 173 83 153 117 185 103 118 79 140 97 93 127 210 192 72 138 188 117 119 111 143 105 87 132 203 74 223 171 122 88 134 122 111 103 209 65 130 123 158 134 83 132 187 157 76 118 129 130 90 146 119 154 100 154 76 71 113 85 98 140 38 169 99 163 175 135 144 54 139 128 92 120 109 210 87 187 91 190 173 122 
151 141 71 128 152 140 95 153 208 166 177 200 168 170 180 88 73 126 124 79 131 157 65 149 144 115 65 143 12 157 122 116 172 112 97 199 102 93 149 142 84 158 173 14 63 85 108 174 114 138 148 74 202 210 103 108 134 112 92 161 135 128 129 85 173 151 106 139 202 150 159 60 147 82 100 139 69 100 163 122 63 136 33 58 207 140 121 59 153 91 172 146 173 159 164 111 96 100 226 31 
183 84 127 180 95 103 137 230 172 84 149 153 154 188 89 201 75 48 171 207 170 131 108 199 220 169 171 176 202 193 126 103 230 30 128 77 150 78 119 169 131 148 129 142 67 52 114 141 69 182 147 106 130 98 130 144 98 95 124 135 176 126 184 87 119 61 110 121 84 144 107 168 134 90 147 107 148 133 141 227 101 89 191 113 174 159 216 139 95 105 139 166 158 187 188 58 181 151 141 203 
149 60 106 113 184 155 123 84 49 131 62 101 127 121 178 87 95 92 137 130 200 190 131 119 133 145 146 152 118 190 161 126 163 101 122 158 77 108 149 125 136 110 132 124 61 107 196 188 24 106 86 59 190 194 153 66 69 135 118 160 101 82 161 157 147 184 86 151 154 184 135 160 120 134 82 97 126 130 189 121 95 130 191 137 142 196 144 176 168 110 143 111 118 68 157 158 50 142 193 156 
134 119 137 74 80 130 139 172 114 23 145 130 169 187 149 149 195 146 68 111 153 130 70 176 210 132 130 152 140 164 164 93 174 190 86 164 179 131 115 120 97 126 86 90 212 117 159 209 125 127 155 76 73 21 125 96 113 152 142 167 73 32 135 139 189 164 118 80 129 153 185 55 151 92 194 183 183 98 119 102 122 197 126 80 60 206 155 126 102 199 91 95 123 72 124 200 155 124 127 131 
145 166 109 106 97 134 200 115 168 175 134 178 98 122 96 145 170 89 140 188 97 98 195 140 121 119 76 68 90 128 146 111 109 185 131 149 138 95 173 145 174 55 97 154 186 169 95 140 102 164 124 176 81 126 138 81 159 163 84 145 148 142 124 125 173 128 72 109 145 232 140 131 150 93 95 162 132 80 37 163 113 118 134 128 91 140 190 90 129 206 162 126 56 64 178 117 197 77 245 127 
140 28 124 138 145 116 135 178 87 76 197 149 169 135 118 189 132 187 81 83 171 106 95 166 117 103 124 122 115 79 143 59 214 172 86 111 106 100 143 123 122 129 53 155 122 103 141 187 152 69 125 90 114 181 161 107 100 97 155 193 198 139 142 94 101 126 133 198 190 88 135 139 77 98 137 113 66 104 118 115 136 130 79 124 205 142 63 235 129 131 101 141 64 95 139 121 150 112 192 131 
153 98 121 47 181 129 104 77 172 141 179 84 112 117 152 131 170 99 126 93 140 137 169 174 123 62 108 58 121 134 132 129 94 133 128 129 109 129 191 123 117 93 110 100 103 98 121 27 136 69 165 104 95 215 153 82 195 131 98 49 129 142 134 84 116 165 149 124 195 213 168 138 133 119 122 116 113 117 130 72 165 122 113 99 90 158 136 122 113 138 95 142 172 145 45 136 195 121 96 134 
178 118 124 133 92 151 139 157 164 176 103 119 204 90 49 113 139 147 95 125 133 96 81 95 197 20 91 140 132 153 185 139 142 154 104 111 110 149 203 136 149 158 155 160 152 82 126 210 68 123 88 138 78 105 140 171 94 145 94 73 160 130 126 143 141 160 154 121 155 203 98 202 125 126 99 106 137 103 71 42 162 171 137 120 162 146 110 184 109 118 131 95 145 144 105 99 15 145 95 178 
238 36 169 33 129 144 70 125 225 92 124 189 200 199 135 128 116 146 48 126 134 181 105 119 138 114 122 187 218 115 44 189 165 107 189 105 132 93 59 202 106 97 136 84 211 126 122 149 129 140 125 229 73 58 118 134 117 115 143 107 128 143 132 140 194 129 90 153 81 72 139 144 172 113 166 100 58 160 119 152 118 120 148 96 127 129 129 103 151 112 21 117 170 141 112 193 163 89 104 107 
119 155 160 119 104 51 73 196 119 209 116 106 166 79 108 63 39 223 122 128 75 40 148 95 167 127 180 92 74 54 202 138 111 107 128 83 163 125 123 158 83 182 90 135 142 134 204 55 134 53 135 95 110 78 202 163 77 88 70 145 147 78 81 140 143 171 73 145 152 15 105 118 196 150 149 107 122 145 152 165 156 218 18 208 172 141 97 194 127 115 110 122 31 90 159 50 69 194 82 65 
65 150 103 66 138 196 188 145 179 104 165 84 204 98 95 145 131 167 179 147 89 82 115 112 120 129 89 84 81 109 123 222 78 149 157 97 84 154 122 192 194 120 119 33 110 124 51 194 153 142 139 189 134 183 136 60 99 27 142 152 124 144 160 46 148 101 162 129 105 180 194 136 185 95 91 158 58 127 124 108 104 30 138 46 194 74 219 141 195 69 111 140 40 116 237 195 116 140 73 205 
115 110 126 180 129 100 147 121 178 82 107 74 168 78 171 144 142 74 119 147 119 146 127 167 56 123 96 132 155 90 124 158 193 110 83 81 105 201 98 148 180 101 115 42 114 116 70 28 140 78 139 164 87 125 120 88 122 101 90 152 119 138 128 99 131 145 104 154 132 119 216 117 191 157 167 136 147 167 161 191 121 92 154 102 128 107 136 102 64 126 97 121 91 99 185 145 171 107 53 112 
