P2
100 100
255
71 148 134 131 110 136 31 111 203 99 177 125 140 129 154 89 158 74 115 135 88 112 100 105 115 62 164 81 192 143 155 178 139 135 136 78 82 101 89 115 146 172 77 144 95 174 137 141 184 86 111 110 118 122 112 103 127 204 141 94 208 162 121 125 161 149 125 176 114 66 84 144 78 138 120 159 119 138 102 163 93 143 130 128 127 154 181 224 156 133 129 83 154 58 86 75 141 120 86 103 
143 176 107 163 154 123 198 208 115 141 94 118 80 105 152 154 144 102 116 152 107 183 98 158 149 49 96 63 120 105 147 125 144 154 152 115 68 114 82 140 139 99 169 114 128 138 163 164 138 128 78 93 46 51 135 213 61 154 158 162 118 134 123 159 76 110 84 102 120 145 141 112 146 200 65 81 155 101 226 58 126 114 77 180 80 121 44 99 146 113 95 204 112 95 124 138 183 92 145 84 
77 105 51 103 179 151 146 197 184 126 149 105 125 128 82 166 223 156 87 111 44 163 160 114 51 171 109 167 149 134 211 148 146 140 112 171 107 90 93 79 128 88 135 64 102 126 68 150 95 42 168 117 59 114 85 24 50 117 147 175 136 117 99 142 75 104 210 173 93 169 73 141 84 136 137 198 67 146 130 160 135 114 102 108 91 168 75 135 101 122 129 144 115 187 151 108 111 156 171 187 
207 129 179 170 72 200 152 148 119 213 150 86 145 146 96 114 117 158 67 60 69 92 90 93 53 135 105 152 138 203 119 63 121 202 221 136 81 237 195 105 111 127 172 117 160 171 70 149 146 166 190 132 154 111 116 114 134 167 116 120 157 183 116 178 138 105 129 158 120 64 143 157 102 112 117 157 145 137 218 119 135 197 100 139 198 86 92 140 128 82 158 95 136 128 126 61 134 103 78 130 
141 157 182 189 187 83 58 127 144 109 142 51 103 183 95 141 205 98 74 128 148 133 121 97 113 130 114 194 128 157 143 67 87 147 175 64 46 133 196 51 73 170 96 142 145 122 214 135 45 129 136 110 107 116 110 137 48 150 94 62 107 176 115 76 154 124 99 168 56 99 133 107 133 110 124 130 55 130 179 163 154 112 226 153 77 65 99 159 93 150 148 123 34 93 126 189 146 57 92 110 
180 56 63 186 131 193 140 122 193 61 68 148 107 119 149 114 165 183 68 138 84 179 199 115 138 126 79 121 74 194 144 147 113 38 167 114 128 147 123 69 122 37 69 142 42 171 194 161 136 104 123 144 118 125 71 60 158 182 113 110 97 149 77 168 112 94 185 33 109 98 108 119 185 147 189 189 85 153 134 146 77 16 107 150 53 104 57 124 152 183 98 118 162 141 75 54 170 108 114 77 
116 107 131 138 108 131 205 103 182 130 90 98 222 73 112 175 114 128 47 147 126 154 110 200 118 187 110 138 161 113 174 69 127 112 118 146 104 77 203 100 133 152 164 94 112 113 94 48 161 165 117 119 114 101 158 199 146 116 163 148 94 134 200 89 103 120 102 144 129 116 56 145 125 131 85 161 123 152 180 111 77 150 139 73 205 171 140 114 123 140 94 84 158 138 150 139 193 127 138 109 
140 79 162 137 85 213 100 161 125 114 163 118 55 180 42 107 101 199 136 125 153 173 112 133 59 70 109 125 166 60 128 74 87 133 76 99 81 79 146 171 106 62 61 119 171 172 113 158 150 147 180 159 93 46 102 67 153 115 124 160 143 82 123 130 126 152 140 101 124 86 151 91 153 155 106 193 86 129 105 118 164 70 155 155 56 178 198 142 116 176 152 122 185 86 158 82 102 160 157 143 
113 102 134 139 133 106 137 193 102 133 170 101 121 97 108 129 127 185 141 159 121 157 129 107 139 188 96 99 132 104 151 29 61 185 84 163 167 103 58 190 141 88 56 50 124 141 127 154 80 131 170 178 167 120 100 212 157 130 86 127 184 121 149 130 60 127 152 168 181 63 189 142 139 58 168 101 216 162 99 202 178 188 105 108 163 141 116 95 159 189 127 111 101 86 195 124 201 88 135 149 
108 131 161 132 160 63 48 68 131 85 107 121 119 77 123 206 133 70 127 136 153 162 148 134 57 166 212 116 107 179 122 148 138 118 140 142 137 164 125 113 168 57 168 114 144 77 104 133 107 82 26 149 93 135 114 124 84 110 124 120 127 37 232 46 173 74 81 96 89 164 178 170 67 146 116 120 72 182 138 208 120 118 177 54 69 170 110 95 51 134 85 127 187 183 164 187 102 94 55 127 
102 124 146 92 65 27 87 155 162 197 156 208 156 129 105 132 185 106 94 167 174 70 141 102 98 120 130 112 101 121 163 55 127 53 64 119 102 184 157 48 178 151 138 150 87 120 213 144 93 112 116 70 212 142 85 87 82 92 167 129 153 62 108 175 90 133 89 140 29 95 81 123 120 118 143 86 139 163 98 155 125 133 104 168 227 215 172 96 170 85 174 136 105 139 106 118 106 119 146 175 
136 147 141 136 206 192 122 167 161 64 100 52 138 116 215 62 109 105 207 225 158 64 119 182 140 176 163 174 88 119 149 125 178 128 143 40 130 134 126 119 131 124 187 115 114 188 179 147 104 118 187 135 107 142 125 101 130 168 157 195 166 126 109 155 125 43 117 108 112 180 121 91 219 155 165 118 122 129 74 232 134 134 122 163 42 119 96 162 120 141 139 123 148 122 100 109 123 137 156 62 
146 201 119 173 162 142 175 124 88 188 143 87 130 104 57 135 98 116 155 67 176 119 119 172 168 37 145 57 99 90 93 136 116 107 160 122 122 141 124 33 102 129 121 170 138 106 166 124 161 130 137 124 113 156 196 163 164 141 138 153 55 123 109 133 103 116 33 34 91 179 135 140 142 130 143 157 139 130 130 119 211 97 83 63 167 123 96 135 119 102 88 165 139 176 45 161 224 155 170 91 
189 117 182 10 122 74 92 136 103 68 137 111 121 97 128 160 145 136 162 40 161 126 176 197 72 152 174 44 186 40 71 126 67 58 200 166 160 79 153 97 101 120 81 157 112 109 146 122 196 167 153 154 103 142 106 115 161 122 78 89 130 159 148 105 136 109 175 102 135 130 96 128 67 126 104 154 132 132 180 143 108 136 68 215 172 126 54 140 123 82 89 143 194 128 163 173 126 177 92 151 
145 170 134 26 115 220 132 104 140 126 134 106 86 183 123 178 141 122 56 113 161 152 130 141 168 164 176 175 83 92 102 118 78 46 116 136 110 125 56 227 113 96 107 140 126 152 138 85 147 178 88 167 127 79 100 138 102 182 28 126 114 95 169 96 87 109 183 133 110 158 138 72 94 137 50 138 162 149 132 79 145 137 162 119 32 124 132 128 43 162 150 238 179 177 130 168 209 140 102 148 
68 145 99 114 112 160 110 156 86 130 111 124 127 186 171 129 147 92 119 218 163 201 190 146 129 101 195 116 140 94 157 78 159 141 127 119 126 120 153 73 124 133 170 164 144 126 110 175 164 114 92 123 93 92 143 130 175 196 191 174 162 124 148 158 144 103 93 130 146 142 121 75 138 101 215 147 170 207 134 71 93 105 65 147 128 60 202 196 93 136 141 137 79 73 85 163 143 162 104 176 
96 69 141 109 81 141 154 56 162 153 141 124 94 129 198 113 75 187 156 101 187 129 131 157 119 151 98 77 103 129 72 179 131 38 124 126 133 91 167 191 184 176 158 86 138 114 158 169 99 43 134 101 133 107 98 108 218 106 94 120 140 130 86 113 124 70 153 113 61 197 104 105 184 84 85 59 125 101 104 140 78 87 126 131 147 107 105 126 170 109 96 169 79 139 211 147 85 144 192 47 
132 138 124 198 181 217 124 163 77 150 219 64 98 168 184 135 160 122 85 134 158 79 107 136 119 156 102 50 150 97 104 146 120 109 206 212 120 92 95 105 134 97 173 142 100 220 140 109 223 158 62 125 113 132 145 133 119 90 53 57 172 122 73 136 76 161 148 120 120 134 125 213 112 130 92 124 102 185 117 108 77 103 98 209 109 154 129 111 152 150 52 112 124 99 37 122 133 133 84 135 
100 123 169 109 208 170 113 130 161 97 129 97 88 102 70 101 149 65 106 192 111 52 88 128 61 153 149 139 54 131 176 172 128 106 98 121 112 89 38 85 120 97 86 98 137 105 135 104 202 133 130 114 82 165 43 114 205 182 131 110 126 93 117 64 102 105 117 138 86 140 113 101 113 124 138 157 180 234 72 120 135 108 139 135 152 96 95 26 152 108 131 176 123 49 105 117 194 170 163 154 
112 70 90 62 139 82 106 127 114 166 128 172 160 75 153 73 104 152 117 124 104 97 105 126 188 56 148 133 173 115 108 66 134 137 121 143 165 62 215 137 176 118 76 88 125 199 104 138 65 163 117 124 127 127 110 76 147 53 139 109 114 103 72 132 172 221 156 90 181 78 114 110 125 33 143 79 168 126 143 189 117 166 153 144 85 168 109 82 76 92 155 126 67 46 152 192 119 155 116 137 
125 88 154 204 149 89 113 197 150 139 169 110 203 135 100 130 124 123 145 112 88 121 114 51 125 74 99 94 109 181 83 91 132 118 69 116 152 192 141 114 110 132 168 86 96 77 172 135 151 180 57 34 160 95 147 168 151 193 213 38 54 82 99 146 120 129 104 156 183 138 160 83 194 141 184 155 138 142 59 160 116 85 130 127 106 108 59 49 150 99 76 168 186 172 87 127 86 107 188 103 
225 197 174 103 171 130 123 60 198 134 122 152 206 118 143 121 162 59 137 133 107 129 2 50 118 143 136 119 113 116 103 198 120 139 143 167 162 138 118 131 152 157 77 52 77 29 105 137 59 122 120 156 82 50 140 117 127 119 73 160 151 111 174 160 179 71 155 77 142 90 120 182 141 136 183 144 117 164 83 183 155 66 159 154 193 105 160 122 196 185 160 152 68 109 126 99 107 163 100 120 
119 14 107 112 143 161 175 75 202 166 126 163 85 152 187 93 131 145 147 92 77 77 125 111 96 154 114 129 61 68 55 120 100 51 124 145 111 171 170 191 129 157 120 199 56 57 171 77 145 150 114 124 144 157 133 145 68 146 117 102 169 87 138 181 156 113 93 111 24 138 185 172 151 149 185 105 117 129 161 96 124 77 174 218 116 114 106 83 123 84 119 169 172 145 176 130 172 135 188 133 
36 160 30 108 217 134 191 94 183 61 122 114 106 137 114 114 117 156 157 119 100 152 123 117 113 140 200 129 137 119 100 181 104 135 211 179 132 97 198 190 100 79 150 154 108 159 71 93 104 188 138 152 140 147 115 192 115 92 192 129 141 108 129 183 30 122 142 100 77 132 140 129 88 65 162 96 139 92 108 114 158 145 108 127 130 128 104 173 102 189 89 45 79 35 133 210 128 93 126 151 
132 95 82 91 150 67 124 143 186 73 118 128 164 100 94 79 197 176 144 131 116 84 166 169 145 134 83 131 144 194 107 116 141 89 127 79 185 74 102 108 83 133 126 140 96 123 48 103 134 117 114 97 134 126 103 191 114 73 138 64 99 113 40 93 108 82 110 105 86 162 95 108 81 43 171 94 129 89 76 74 132 216 201 139 193 129 115 122 108 146 105 144 143 179 94 145 168 99 61 154 
205 81 148 176 48 173 209 110 113 118 134 203 122 175 105 129 113 102 146 85 213 187 106 51 183 102 105 78 135 169 143 105 112 83 74 160 61 104 160 137 76 176 151 39 114 114 86 143 134 82 175 132 120 149 78 97 115 215 83 17 102 110 106 65 195 87 194 35 148 133 177 60 142 90 108 173 141 112 70 110 136 106 167 51 99 210 83 97 123 180 158 53 164 112 168 227 113 140 103 156 
138 110 130 166 167 99 108 180 147 203 111 98 168 132 197 175 133 142 146 160 81 160 156 145 184 156 135 182 128 148 219 181 98 206 149 117 205 24 143 53 118 188 142 108 137 127 114 145 76 183 152 164 145 132 165 87 150 72 127 65 116 158 111 217 93 98 193 86 98 141 93 108 31 181 139 139 128 110 223 187 87 115 124 81 144 129 127 36 109 23 122 163 163 166 106 139 187 139 119 187 
34 151 228 173 122 81 143 166 104 161 175 152 196 198 171 142 88 100 118 198 104 186 160 61 127 128 127 113 140 180 51 170 118 104 99 171 140 205 121 141 166 164 166 142 133 111 98 155 168 145 122 148 139 170 71 150 40 129 69 111 117 73 107 189 169 154 135 235 145 169 153 166 119 83 170 114 156 126 65 193 128 167 109 93 112 131 104 145 78 147 115 118 147 191 120 129 91 161 148 120 
93 171 129 74 157 107 147 146 99 61 118 28 124 62 172 112 138 156 177 63 63 140 157 142 169 94 150 140 102 206 96 111 93 44 150 107 174 134 210 127 131 147 62 137 85 222 83 111 107 82 165 173 93 116 141 189 54 133 143 97 115 156 145 50 135 83 131 104 163 176 136 95 107 93 91 199 133 220 74 147 106 213 134 96 140 105 89 128 120 150 240 76 157 128 130 168 132 133 172 99 
117 125 43 108 146 115 106 113 122 200 144 107 74 205 122 180 117 120 143 58 171 149 126 95 159 145 147 190 89 80 75 197 108 139 93 83 108 110 126 150 76 124 75 72 109 74 86 105 90 44 36 168 109 97 69 65 120 133 115 148 145 86 126 102 121 165 103 63 108 139 147 32 25 69 122 182 123 190 111 154 109 158 148 91 57 125 30 187 142 104 131 137 147 159 218 151 95 107 93 164 
104 166 119 147 210 139 165 96 143 121 82 114 68 177 146 161 132 197 125 124 110 136 125 64 95 123 142 136 98 134 97 179 44 115 102 179 115 69 188 140 139 34 86 179 119 109 114 181 23 116 116 139 133 85 129 163 138 98 127 122 159 159 111 90 129 160 146 70 114 94 148 103 185 139 69 43 146 64 42 54 107 171 165 111 112 148 146 238 123 158 93 194 67 181 168 86 189 83 114 123 
133 136 133 113 86 193 68 198 144 90 148 109 142 133 145 192 156 174 101 174 162 143 137 45 133 109 119 72 81 128 114 164 115 132 151 115 114 117 145 46 155 100 76 194 87 90 153 76 164 206 135 134 124 139 139 93 112 106 189 177 184 96 62 77 174 62 119 122 157 131 108 74 52 91 113 142 116 168 119 111 113 173 172 121 147 137 141 137 125 145 118 179 147 125 131 51 93 132 87 140 
162 93 72 146 100 125 100 121 198 109 76 138 82 124 95 99 162 96 109 167 165 147 142 183 221 175 108 95 131 146 145 202 81 97 105 151 97 125 150 161 134 110 150 139 140 78 68 143 76 129 159 175 62 67 143 69 127 113 133 172 132 149 130 173 121 108 170 174 103 156 128 135 128 118 96 183 197 217 126 160 85 187 179 129 55 127 151 153 81 158 200 141 89 72 92 146 118 139 167 91 
120 168 148 119 100 192 158 135 79 108 128 173 154 102 144 155 95 106 149 98 166 113 125 89 128 106 101 161 145 155 106 148 180 131 52 126 155 154 101 99 154 199 189 150 60 147 196 125 153 143 126 187 156 139 125 148 144 171 171 161 107 106 72 54 122 132 122 177 78 95 183 156 128 162 127 128 84 46 135 105 100 156 146 177 205 145 171 97 109 138 65 55 82 136 151 157 88 95 165 59 
154 136 90 106 50 97 171 200 57 67 160 135 136 133 87 41 150 153 142 126 99 125 46 147 72 194 85 187 101 62 78 52 127 118 127 149 177 77 65 172 157 105 94 193 81 159 98 130 82 64 64 121 144 112 48 176 171 164 121 184 86 113 66 62 149 61 118 98 126 86 95 92 86 169 51 71 171 144 121 117 142 92 163 126 127 135 61 155 194 66 110 117 151 122 151 92 11 101 75 70 
94 107 77 150 124 127 125 35 103 94 214 122 158 158 166 78 103 152 152 159 181 129 136 163 113 149 93 74 124 84 120 97 55 72 147 106 99 147 144 203 141 120 56 95 139 150 135 134 153 99 101 172 194 159 127 211 135 176 129 82 202 128 125 195 132 131 153 129 94 224 64 175 123 53 173 158 129 157 218 156 114 43 199 124 146 110 100 120 157 154 92 155 64 180 112 201 150 168 139 94 
171 100 178 123 83 148 195 128 194 159 167 120 168 115 81 191 150 158 209 161 224 107 146 216 215 195 132 123 161 130 174 220 81 158 127 133 148 150 159 109 139 145 132 147 95 132 194 105 118 31 103 151 104 175 147 119 117 144 121 128 55 139 53 176 152 108 63 36 100 111 109 130 107 56 68 165 155 122 120 114 62 120 157 216 117 201 126 91 152 143 97 46 88 182 80 139 173 150 94 156 
180 174 127 113 109 141 203 157 89 64 118 109 132 133 81 108 169 166 130 190 132 151 66 84 48 108 154 115 40 91 96 224 130 135 163 77 130 122 99 89 53 161 142 215 133 135 190 95 27 4 154 65 164 175 145 105 144 187 132 153 134 146 131 147 117 129 187 150 154 90 130 158 167 97 90 104 102 79 194 147 68 148 71 134 184 139 151 116 138 125 93 118 169 146 132 104 111 127 134 159 
151 127 148 90 137 92 93 138 62 110 135 131 90 65 119 87 159 97 157 149 85 156 168 199 73 124 132 157 115 196 225 160 130 80 151 135 144 176 144 49 94 179 84 159 196 96 172 86 93 184 89 173 144 123 199 138 152 129 189 82 160 124 105 118 73 135 117 120 45 135 122 119 101 128 167 164 162 200 110 109 130 120 88 223 177 137 151 115 123 89 213 83 122 27 109 69 124 124 81 162 
103 131 132 93 169 95 102 129 48 185 135 135 107 140 202 107 170 79 89 135 215 129 81 182 127 144 97 138 180 126 158 68 36 135 127 127 138 154 216 183 103 148 37 130 83 115 73 53 183 95 124 100 153 69 186 209 205 69 178 184 142 80 132 145 97 64 57 119 214 115 180 122 122 106 180 106 125 108 118 83 126 120 131 123 84 85 111 56 88 156 173 111 122 121 140 103 114 192 117 131 
145 126 47 45 225 112 117 41 187 168 213 22 137 33 137 124 121 114 125 70 58 148 148 88 140 155 108 131 56 160 132 134 187 164 91 116 80 99 111 114 65 110 84 101 205 187 41 143 84 133 162 58 145 39 142 67 182 150 155 79 145 126 87 147 85 230 91 124 180 131 127 185 149 127 122 86 200 98 134 106 36 149 101 178 116 117 120 112 133 172 131 71 88 107 94 151 130 132 81 123 
130 172 102 127 128 137 126 148 174 110 82 138 81 134 57 38 214 135 126 148 92 120 115 67 154 181 126 128 167 75 18 128 90 200 136 127 127 135 75 102 121 149 118 163 86 150 138 179 187 106 100 196 103 143 141 180 207 177 106 140 127 40 78 132 80 170 137 179 112 107 77 179 158 164 111 182 122 119 127 163 75 192 138 102 125 135 73 137 124 185 189 124 110 56 132 122 92 88 188 127 
94 107 167 173 147 114 135 106 154 132 103 169 123 99 138 79 89 134 84 33 142 81 54 152 170 115 180 100 132 46 177 118 140 140 43 120 196 68 112 163 156 52 167 136 107 186 158 101 90 166 92 99 209 105 184 133 178 137 125 64 215 192 86 120 122 39 135 206 76 171 138 115 121 161 90 100 76 161 139 106 166 92 161 169 84 112 127 93 141 112 70 94 108 193 159 171 91 133 119 85 
146 101 154 105 138 118 110 124 126 145 115 115 189 105 143 111 94 157 178 142 94 122 143 132 52 201 75 82 153 159 142 127 99 144 83 50 182 105 151 136 102 168 82 113 158 102 113 101 169 125 142 119 111 98 111 91 129 144 108 62 104 101 133 185 173 45 85 93 112 126 129 93 173 87 128 124 176 118 141 202 111 153 124 185 119 70 117 167 161 105 109 113 151 166 101 197 19 120 145 133 
163 217 168 172 168 140 115 84 120 147 119 89 97 155 136 218 127 114 106 138 78 101 91 141 151 93 89 138 142 133 155 150 108 162 120 115 125 138 172 159 103 98 103 76 140 145 101 171 92 132 119 146 148 224 123 65 113 81 143 123 107 170 191 105 155 160 120 178 211 95 90 45 107 146 119 104 110 82 123 67 176 127 100 187 100 93 144 146 136 89 187 109 176 171 237 179 90 169 72 91 
61 228 140 88 59 164 128 169 85 153 97 110 211 164 93 91 197 138 104 161 84 217 180 105 120 113 118 98 186 183 112 123 67 49 93 145 125 115 97 60 176 120 114 121 112 69 173 89 129 137 57 112 75 131 151 104 135 112 162 197 123 103 160 140 124 152 129 178 145 142 122 183 164 151 183 141 123 127 128 129 100 135 93 174 100 130 116 109 39 87 130 145 153 114 49 109 132 135 173 189 
101 157 150 135 95 32 75 80 96 144 93 151 53 101 114 219 125 90 84 136 111 59 155 109 99 123 125 156 89 128 154 176 107 109 117 159 129 25 122 150 162 96 138 247 132 207 52 122 144 121 142 130 154 42 134 119 120 80 182 120 167 129 94 25 166 116 133 132 109 146 89 55 176 215 99 194 117 78 79 232 213 151 127 125 120 105 171 71 111 167 156 199 57 149 149 200 133 153 134 73 
99 111 107 149 197 107 115 135 109 83 143 198 97 157 150 133 115 126 150 134 140 104 152 74 51 142 160 185 85 140 135 135 155 125 126 128 202 75 160 115 204 199 203 106 81 148 118 160 183 203 128 63 170 124 188 153 168 114 183 147 158 132 118 127 182 86 134 157 157 106 162 164 117 82 144 139 162 171 133 150 127 154 117 116 121 128 116 191 168 122 151 81 45 134 196 188 128 157 110 130 
216 123 56 128 160 54 117 173 128 137 158 129 170 62 58 117 70 133 41 48 200 86 76 131 68 91 125 131 94 203 151 70 181 168 173 198 112 169 73 139 202 135 123 136 94 89 81 116 82 151 72 82 24 119 115 152 142 137 60 152 135 97 113 138 75 126 138 135 140 143 73 191 55 144 119 132 145 192 35 67 148 182 121 183 106 155 154 90 54 139 110 102 211 188 174 169 127 93 126 172 
121 130 114 81 130 126 101 134 42 181 77 107 124 68 132 136 168 112 121 76 104 91 137 148 165 105 189 153 178 126 70 238 53 139 113 185 135 108 139 208 181 147 121 154 68 88 164 80 31 182 157 105 75 104 175 136 138 81 65 111 119 182 169 91 97 165 168 91 149 169 151 57 85 116 101 136 158 129 202 125 170 77 31 135 102 187 94 151 139 79 116 164 151 164 150 128 107 79 111 119 
170 73 103 69 185 150 139 72 186 87 116 155 196 178 120 138 111 57 174 93 154 188 55 109 174 61 74 91 70 132 185 79 54 129 131 169 84 73 128 110 126 144 103 155 144 118 91 160 164 146 174 144 176 120 147 121 169 175 127 72 143 74 125 165 183 107 94 57 55 128 82 147 135 172 105 148 171 149 61 138 166 142 196 143 130 100 91 115 124 141 123 127 189 119 100 119 181 99 108 169 
172 138 153 106 150 153 103 171 193 122 113 36 45 120 135 127 154 128 224 104 116 67 85 174 108 128 176 100 70 108 34 127 90 152 80 93 50 146 189 132 82 160 152 212 122 134 206 170 120 101 177 129 115 123 62 179 71 120 110 169 91 136 124 113 166 138 143 78 151 173 127 125 199 135 94 127 118 161 132 204 153 178 206 135 147 108 146 123 120 92 75 40 133 204 129 159 78 135 119 115 
194 120 111 126 90 125 83 150 113 80 149 128 147 107 119 109 86 69 155 94 138 163 127 146 98 144 128 121 75 198 124 64 145 188 103 104 162 104 140 129 168 67 110 121 104 120 112 122 169 147 183 47 115 54 132 131 171 142 109 225 108 87 123 131 138 76 146 160 200 133 168 108 146 127 77 203 97 75 122 83 164 117 221 131 139 93 117 101 105 66 98 158 115 113 140 129 81 63 178 111 
113 105 149 116 196 65 121 180 128 87 149 163 168 66 64 193 148 123 142 162 127 112 132 142 132 126 128 146 124 90 136 158 121 147 116 85 104 127 47 140 118 52 209 122 140 72 139 184 134 95 134 129 144 180 118 122 121 90 60 119 114 184 157 166 102 181 137 97 43 172 88 131 145 48 76 184 205 136 132 117 146 138 139 113 125 136 77 165 140 191 185 145 99 168 42 106 105 86 112 207 
161 127 169 102 167 108 117 87 154 100 224 139 49 110 133 177 111 129 87 180 145 123 102 122 62 104 54 175 87 120 151 123 125 161 107 112 95 60 82 170 116 113 136 155 87 74 193 120 169 122 100 65 162 99 135 165 144 128 137 180 75 154 82 164 35 166 178 91 197 151 172 156 163 211 117 113 130 142 187 147 78 83 195 110 116 98 88 124 159 130 112 185 62 117 109 63 112 133 104 125 
96 163 108 51 137 115 102 183 173 56 146 110 154 150 149 98 189 188 145 96 115 164 100 143 52 94 42 122 136 159 136 170 146 130 187 128 172 52 139 133 111 177 169 133 56 105 190 160 141 197 81 224 178 105 153 88 152 119 117 154 131 157 67 158 138 93 124 122 105 102 218 198 116 61 89 91 160 103 111 218 153 70 147 65 108 129 150 73 131 171 87 114 149 116 55 136 53 85 169 153 
128 104 135 139 132 206 74 87 192 125 152 102 130 142 143 57 136 89 137 155 105 172 118 176 165 59 147 101 123 143 170 59 187 161 108 223 118 105 72 88 200 114 151 135 129 131 204 60 196 130 102 93 112 137 148 99 149 159 180 35 59 159 104 138 132 93 75 140 134 94 99 159 104 85 121 142 113 174 153 73 113 230 88 155 157 58 116 94 35 180 190 127 202 60 117 124 199 119 108 160 
119 149 121 179 138 199 64 72 104 96 152 75 143 85 99 108 75 70 153 117 99 151 197 141 106 142 102 96 23 124 43 145 229 166 193 58 146 118 137 198 139 209 174 217 96 168 191 94 160 125 88 215 169 163 109 176 93 140 207 134 31 121 86 97 115 144 104 171 145 232 83 57 84 111 177 222 84 79 69 231 112 162 142 116 177 129 85 66 200 160 64 176 154 91 175 80 234 104 132 123 
150 97 51 148 142 9 196 121 205 183 130 163 37 97 144 136 121 165 92 129 200 134 38 154 87 174 86 113 137 102 103 152 113 113 85 94 150 176 114 120 85 174 139 116 129 99 54 105 72 155 134 128 183 135 125 155 123 118 132 148 48 156 132 167 104 139 64 143 103 133 127 107 122 160 190 79 207 216 85 139 140 58 70 48 38 133 83 88 207 185 198 152 122 193 127 123 152 149 161 158 
51 147 168 36 174 86 122 144 121 132 104 154 100 189 152 109 199 106 142 192 124 118 147 186 169 180 95 122 142 157 142 142 166 91 91 149 162 140 109 107 32 229 208 80 141 157 175 97 142 127 167 150 101 84 185 123 88 154 178 168 98 158 136 168 206 119 104 95 71 223 116 180 125 91 71 222 115 137 156 117 39 161 91 146 206 142 107 42 120 146 93 104 131 125 143 121 162 112 160 135 
172 128 129 153 107 129 139 140 71 188 200 107 145 169 169 206 154 102 143 105 156 63 92 147 90 140 57 188 178 95 147 67 72 70 174 169 49 80 143 94 159 116 207 108 191 211 40 103 155 77 80 181 87 182 177 147 211 123 143 180 227 117 101 191 181 144 129 124 157 136 114 113 70 131 88 193 151 145 144 85 144 150 74 94 128 158 116 134 186 96 199 164 189 143 57 100 97 79 172 170 
126 182 112 80 146 79 78 122 101 68 136 157 98 51 159 30 202 207 226 98 190 122 190 94 61 159 171 157 93 121 170 59 100 107 197 132 218 48 116 163 186 61 139 162 87 144 114 138 127 121 106 92 82 188 111 215 77 190 133 172 130 61 148 90 147 241 77 90 219 138 122 172 163 120 206 102 37 161 132 170 172 106 115 121 149 151 128 100 103 144 164 93 102 135 147 105 85 154 135 90 
104 127 89 125 90 47 92 123 198 137 144 103 47 145 95 155 154 184 162 131 154 152 89 139 131 144 186 78 147 134 90 143 142 23 123 228 92 166 103 120 45 137 104 123 147 130 91 132 202 77 137 185 147 171 43 138 130 84 92 121 138 100 22 134 86 165 194 178 95 119 149 107 67 113 110 122 178 129 64 133 87 104 163 75 107 151 83 167 32 148 139 189 124 80 60 116 171 155 146 75 
170 173 48 152 74 49 211 162 139 174 127 115 70 172 109 93 136 86 39 82 120 195 177 130 127 150 152 115 97 160 160 196 114 163 141 138 87 166 101 116 145 97 153 145 120 155 130 130 96 167 150 77 239 101 172 99 114 71 196 136 152 100 181 211 139 96 90 131 107 81 108 141 147 116 128 123 94 119 93 126 93 138 117 129 154 134 165 175 147 174 152 110 205 153 136 89 86 120 99 114 
132 79 149 125 121 85 124 178 157 93 83 98 134 103 116 146 153 121 112 121 131 111 154 167 122 128 186 156 135 162 133 117 148 130 148 51 157 129 118 190 94 86 105 82 147 133 74 93 117 183 90 171 74 41 106 137 116 119 48 171 120 189 145 138 115 129 125 132 148 123 116 97 47 130 122 171 138 161 126 42 86 112 123 136 140 129 85 164 129 165 116 113 123 99 56 114 116 96 130 28 
105 92 147 147 142 166 114 58 114 135 85 129 20 111 144 69 110 155 116 194 145 42 97 216 191 132 150 102 138 112 188 176 70 136 143 123 166 212 117 135 215 125 94 220 180 132 247 71 75 193 132 138 90 112 72 99 118 147 83 112 195 164 128 98 110 118 80 153 125 152 89 32 163 110 152 126 187 116 180 143 73 181 152 88 117 128 153 57 184 128 101 109 123 171 106 147 151 150 147 164 
125 110 130 157 196 163 90 234 109 190 166 135 87 88 145 166 89 158 123 149 124 93 136 145 193 123 194 131 111 173 137 117 175 137 131 147 149 83 218 178 72 94 221 197 62 119 188 175 155 121 121 119 156 15 190 123 74 221 37 165 147 153 142 125 121 126 103 149 52 122 116 140 206 71 45 63 81 58 145 98 145 129 126 207 132 62 117 130 181 83 159 94 149 130 133 198 110 140 90 78 
192 113 136 122 120 87 130 150 139 202 94 180 87 76 138 182 119 128 104 167 180 96 111 125 119 140 51 96 87 111 193 169 137 183 125 124 209 100 160 137 120 135 146 137 136 183 148 181 93 129 150 121 114 106 105 165 163 120 82 204 137 168 104 110 18 94 151 163 64 149 214 135 150 159 139 180 98 159 136 54 186 109 100 93 202 102 175 158 116 106 119 129 118 101 152 115 173 207 91 100 
121 229 149 144 153 132 121 129 101 176 78 109 180 99 80 58 152 110 184 65 144 134 168 117 160 131 143 143 109 113 120 75 194 102 158 105 133 128 151 144 59 148 241 93 143 88 190 76 141 175 94 153 134 118 78 100 218 116 197 148 159 153 129 107 114 164 85 168 113 154 111 116 199 69 150 139 43 131 146 157 145 212 77 98 173 102 165 160 173 103 98 148 187 130 93 144 87 122 142 238 
160 115 47 119 194 133 172 213 123 149 154 158 16 156 143 134 133 99 130 128 134 141 158 113 108 108 126 109 206 155 159 143 112 172 108 124 122 130 119 47 120 127 89 19 128 181 133 127 138 129 159 57 162 188 132 198 142 124 116 98 155 137 53 84 105 176 119 159 122 100 97 243 59 146 128 115 170 92 92 138 177 121 120 99 178 197 144 111 119 64 51 81 164 173 132 133 120 72 186 109 
117 120 90 73 205 146 143 90 95 165 106 111 189 132 195 58 133 125 145 112 200 172 65 114 159 117 90 132 65 161 60 106 153 184 130 178 155 149 152 101 146 157 85 151 127 50 155 74 120 124 204 214 187 161 134 156 121 130 129 124 96 148 56 148 129 109 118 161 128 154 73 133 144 115 153 25 66 54 133 204 104 70 177 133 152 95 117 124 149 148 116 123 52 108 168 142 140 145 80 40 
160 147 159 110 138 98 167 142 103 59 52 151 131 88 62 89 81 101 143 117 148 170 136 113 123 113 109 143 100 119 131 97 112 109 141 150 150 103 183 175 212 44 183 124 123 119 100 169 161 166 126 155 138 96 110 136 90 161 174 68 115 117 125 187 164 149 174 145 142 197 154 121 135 101 86 81 126 73 145 113 155 119 112 100 96 108 159 183 153 74 210 122 107 145 224 155 97 28 104 101 
148 135 128 155 155 219 164 102 100 140 141 119 122 131 42 63 108 160 120 147 153 157 135 83 61 104 62 62 95 135 49 102 63 166 140 189 127 83 96 199 195 108 44 50 123 206 160 55 130 139 143 151 93 149 9 89 133 118 114 176 147 116 154 126 122 165 112 136 137 111 180 131 121 121 64 67 38 135 131 147 102 67 145 139 84 85 229 119 137 75 60 181 185 64 201 163 85 122 212 95 
121 199 88 130 118 110 100 159 173 106 167 118 127 38 178 195 138 44 108 119 156 128 143 195 158 127 112 97 104 47 188 188 144 116 98 221 104 105 157 138 149 153 123 63 52 116 119 55 183 122 113 140 90 108 119 74 144 140 116 108 35 90 129 107 148 149 108 160 45 104 111 155 136 161 135 182 124 165 169 236 87 93 110 102 127 117 127 96 147 127 142 64 159 124 42 90 166 151 72 121 
166 144 85 139 138 176 243 35 165 123 48 96 69 148 163 107 75 143 131 64 111 50 91 80 147 130 134 51 59 151 99 158 224 187 107 122 40 100 83 98 157 83 162 35 136 88 107 115 117 31 160 84 163 127 83 99 153 105 198 92 62 97 133 108 104 161 96 124 176 136 125 195 87 135 121 112 97 111 104 88 102 117 95 147 125 95 115 106 111 136 134 60 132 145 140 114 105 109 67 137 
83 139 214 125 113 176 130 163 99 149 51 81 95 170 61 133 232 132 111 61 161 151 102 120 140 79 137 126 140 111 155 102 168 116 116 30 62 159 119 61 44 172 187 136 118 75 128 119 170 115 175 90 69 191 113 116 126 87 195 182 113 109 206 179 56 95 165 100 126 69 77 94 109 131 194 155 98 87 72 107 116 48 72 149 186 51 170 127 158 97 156 138 89 174 177 83 172 101 151 109 
152 228 181 45 111 166 125 102 182 182 90 120 124 166 107 108 129 140 224 156 130 101 138 102 144 123 94 206 119 180 193 101 144 116 159 92 167 112 127 17 64 203 131 155 122 90 132 149 129 89 124 104 72 118 91 113 131 150 181 110 143 100 23 140 74 101 160 71 145 130 116 182 72 145 116 121 94 137 71 135 66 120 176 61 38 150 133 192 153 128 58 152 133 134 97 166 163 95 157 79 
147 175 181 132 156 172 77 178 116 74 152 131 199 165 118 130 141 103 197 109 64 139 125 162 195 185 111 168 69 102 128 152 101 111 102 133 122 196 25 146 36 205 98 109 105 125 45 123 129 184 149 131 79 54 125 191 104 139 233 72 165 160 221 125 95 65 66 110 104 132 128 163 225 95 175 202 100 106 157 144 97 134 191 143 108 122 77 139 79 138 140 130 127 146 129 158 82 158 180 89 
99 66 138 208 102 145 166 58 186 125 145 158 127 122 186 115 87 87 233 138 145 116 143 120 106 137 139 140 172 74 129 132 100 104 91 122 112 133 162 44 128 138 89 44 86 60 112 134 130 165 151 121 130 88 166 104 104 57 118 115 133 127 206 101 94 157 102 102 82 152 115 86 119 110 152 105 94 197 76 93 171 114 101 136 158 114 137 83 79 119 118 215 200 74 126 125 164 153 147 167 
149 63 104 139 139 188 126 133 118 113 148 149 64 118 193 60 94 135 178 185 79 118 145 130 124 60 139 91 171 157 93 116 109 163 111 104 128 84 23 102 70 148 79 122 94 86 85 158 153 193 112 179 150 135 124 118 167 65 165 143 141 180 103 203 175 149 116 116 221 126 145 110 118 173 60 27 61 103 89 147 198 82 131 90 136 95 84 116 85 138 137 168 106 115 105 129 144 91 153 99 
219 58 74 144 136 119 63 119 191 130 129 150 163 158 114 118 137 91 137 156 108 65 122 160 142 120 148 132 114 82 158 86 89 148 173 132 130 140 132 80 136 101 167 174 62 83 152 153 72 128 100 109 201 87 109 66 114 97 127 118 88 71 140 224 76 220 111 86 109 118 126 152 129 172 136 124 130 114 116 115 139 146 191 117 156 115 48 146 60 151 184 75 184 199 125 174 209 131 128 111 
138 169 107 143 145 130 117 184 145 104 176 182 133 113 65 143 98 175 144 108 91 148 115 69 154 51 157 168 96 78 74 105 100 131 146 201 99 151 169 126 180 120 114 156 102 78 133 119 137 112 159 179 104 139 67 68 39 109 198 120 186 97 116 106 106 163 129 138 177 113 132 191 53 119 70 130 74 118 207 158 108 156 114 235 178 170 139 84 158 103 55 114 141 122 176 131 115 138 157 81 
90 52 122 128 79 52 108 124 66 58 159 179 108 173 106 122 136 138 141 117 132 84 171 94 152 66 187 180 98 198 61 162 174 204 86 113 190 164 91 155 69 84 92 97 136 131 115 67 107 176 183 156 144 116 48 178 125 47 110 134 154 146 136 146 190 120 73 85 162 114 175 62 137 144 162 168 136 47 83 159 121 195 83 99 136 157 109 131 56 108 177 141 69 126 167 189 169 109 120 123 
137 187 76 106 138 162 141 188 132 113 175 71 153 70 93 119 124 121 154 137 88 52 110 215 197 112 194 156 122 201 177 132 56 102 86 142 67 127 172 192 100 76 134 98 107 210 143 106 180 61 153 112 77 184 99 144 207 84 141 138 126 126 148 124 156 99 121 161 90 130 110 106 117 162 138 127 81 162 133 167 77 72 71 99 102 148 107 107 73 200 134 165 131 154 107 133 188 61 144 124 
84 117 53 76 111 154 109 139 74 180 182 152 181 111 83 120 167 44 121 93 90 92 185 135 158 172 151 134 132 85 120 164 119 152 182 110 37 66 114 57 79 90 131 198 88 202 87 119 152 183 95 228 133 136 131 54 177 150 124 124 154 130 119 48 87 200 95 109 131 127 189 133 140 113 209 105 111 43 92 103 185 108 163 41 171 151 131 156 126 126 97 145 135 165 88 142 129 54 163 140 
114 106 101 163 102 136 72 86 99 149 135 100 129 124 131 118 103 163 125 168 150 181 133 195 171 149 155 116 109 162 101 133 73 139 126 205 52 126 169 130 109 147 137 78 151 110 141 131 75 149 119 116 203 117 111 134 111 59 120 143 73 90 101 148 130 118 64 69 75 110 118 141 126 149 179 149 131 121 127 121 130 147 133 96 108 125 133 141 156 186 166 131 149 169 97 131 113 104 180 168 
107 105 103 245 109 128 148 141 161 127 181 75 119 20 158 109 105 108 67 127 62 185 140 162 121 132 205 112 98 110 139 166 137 172 50 127 111 90 166 73 134 158 159 147 68 113 163 112 129 49 170 159 78 115 163 153 122 122 160 90 142 111 88 112 115 171 105 138 129 119 124 119 72 73 22 64 30 70 163 115 136 125 92 79 146 136 129 132 87 90 81 208 164 116 125 86 125 114 137 156 
125 99 73 123 189 184 77 115 185 99 133 123 149 136 153 189 123 144 92 91 96 144 182 132 128 62 194 36 68 169 152 96 181 123 112 169 77 109 147 175 175 139 97 203 115 141 105 130 174 145 149 184 195 155 102 161 177 132 140 151 36 150 140 149 149 89 125 132 195 80 125 127 118 184 96 129 144 168 143 117 122 152 120 92 161 110 160 143 102 72 137 209 162 127 151 81 142 145 102 149 
65 137 130 106 217 149 128 100 99 41 182 41 182 39 146 96 193 135 83 145 129 137 133 106 154 174 94 109 120 189 111 99 116 174 154 132 158 143 41 133 120 125 149 107 158 128 149 70 125 155 114 132 225 93 60 115 81 194 68 153 98 104 149 128 220 223 132 37 96 107 148 142 192 157 99 140 145 121 140 119 109 108 131 140 169 124 215 108 97 122 136 70 141 81 97 132 103 149 162 61 
157 107 180 166 126 121 106 94 212 175 120 151 196 156 184 55 101 121 162 108 131 170 161 90 172 235 137 90 102 128 102 175 132 115 194 120 113 176 97 109 95 93 142 124 162 236 190 162 76 180 127 51 231 129 106 126 153 195 131 80 109 127 123 235 176 111 81 80 124 147 157 51 155 98 161 131 126 173 106 67 142 95 160 145 176 181 145 120 110 177 57 119 144 108 123 106 183 217 114 183 
132 132 72 186 152 136 81 157 192 148 127 136 45 53 177 124 139 219 167 111 156 133 145 104 22 191 126 145 145 139 103 105 178 144 112 132 155 110 150 93 82 119 181 182 107 132 101 110 158 168 171 53 104 184 150 157 94 145 78 108 99 204 141 119 113 100 120 103 220 157 99 79 151 151 98 183 53 132 199 115 104 159 225 130 145 185 208 140 127 153 76 83 130 126 166 117 137 156 104 155 
94 157 142 82 150 140 89 134 112 168 55 149 135 159 137 146 89 115 102 92 119 136 96 124 111 161 81 102 76 140 142 36 192 178 122 195 115 119 98 91 123 153 134 132 90 146 156 181 103 111 115 137 95 140 183 147 152 154 147 92 108 155 194 202 144 182 60 158 129 122 51 146 129 186 88 162 156 126 208 96 73 184 45 91 194 143 140 88 147 139 164 133 136 122 150 106 72 69 162 146 
53 149 91 168 120 63 149 73 130 93 144 160 155 177 183 159 151 145 174 123 120 28 228 109 144 78 61 153 144 112 130 74 134 163 162 229 157 197 154 106 130 111 214 166 132 118 123 151 112 80 113 173 101 64 113 159 154 169 151 69 49 210 114 122 151 103 107 102 158 90 167 84 146 112 129 105 107 112 105 195 123 109 45 168 139 103 101 114 96 99 128 115 115 155 62 127 107 102 46 152 
199 180 194 128 84 130 113 113 159 209 142 25 120 150 144 137 61 131 148 116 127 97 96 87 168 77 224 218 135 129 63 97 134 105 98 188 83 216 65 154 120 183 89 179 80 104 55 147 77 110 80 52 131 122 110 148 158 83 87 160 97 137 168 74 98 147 155 88 132 140 155 150 66 61 41 137 129 85 132 89 153 119 95 114 155 76 139 152 142 187 174 88 156 124 90 97 189 141 211 66 
48 181 69 175 156 117 185 103 129 77 69 201 126 106 76 101 138 85 151 55 146 112 54 144 161 137 151 157 86 137 139 149 112 160 49 126 142 115 145 148 63 162 162 45 127 217 135 129 123 154 185 152 141 107 114 89 116 151 145 93 135 116 73 31 117 103 134 88 119 116 118 56 156 85 140 97 130 130 37 107 129 110 130 146 128 144 180 141 140 188 169 129 119 134 111 159 143 193 115 146 
111 136 118 166 72 110 70 113 30 118 149 82 153 52 103 187 96 155 180 130 172 95 167 68 76 82 181 89 144 124 136 153 183 141 158 111 160 107 142 125 129 100 53 79 132 81 133 133 96 231 135 144 143 246 202 115 167 126 193 55 111 102 71 98 198 208 151 128 188 160 161 80 133 69 137 63 129 97 89 103 98 89 121 143 130 70 146 96 53 64 169 161 189 108 151 98 34 76 65 149 
163 162 78 157 167 133 78 46 42 123 168 168 150 95 153 198 71 143 130 108 133 174 96 125 57 65 87 130 132 110 58 103 166 100 91 110 123 159 124 162 142 136 136 143 135 115 162 137 128 111 216 184 45 137 205 133 40 118 107 81 70 149 152 183 84 113 107 132 115 172 126 164 142 134 190 61 77 101 79 122 128 121 124 167 20 68 139 115 153 199 145 77 77 57 161 67 129 204 149 188 
132 176 155 112 132 158 140 125 172 68 100 235 161 126 116 66 121 149 138 118 83 133 134 155 128 122 87 185 76 97 150 173 109 89 114 159 104 163 149 155 44 183 110 42 158 151 103 51 163 83 137 168 71 146 174 45 115 146 139 141 114 92 99 171 152 115 179 193 150 110 119 119 69 111 106 78 41 131 96 175 166 192 101 129 81 104 93 122 154 141 160 131 154 111 130 114 160 143 17 120 
189 29 44 150 101 68 88 124 187 129 130 34 29 100 181 96 110 124 143 140 184 104 72 132 182 139 111 132 100 132 118 168 153 171 56 107 144 100 84 144 83 84 50 195 146 77 151 85 99 195 63 67 88 102 119 105 130 214 126 132 206 138 176 164 76 105 87 104 186 77 138 141 112 107 175 144 126 131 148 102 175 92 170 110 20 59 97 126 125 82 123 38 147 134 164 208 134 150 127 81 
164 112 118 51 83 158 104 97 100 57 103 105 75 138 126 180 12 116 129 115 120 92 142 126 111 123 66 179 147 158 227 90 165 118 158 165 155 88 186 109 93 146 170 125 137 88 88 138 108 168 165 130 118 178 113 101 127 98 155 87 146 134 172 127 143 87 96 169 70 196 198 154 161 112 71 124 162 93 58 108 149 163 82 147 183 134 107 196 119 108 77 123 135 134 105 120 128 137 181 90 
