P2
100 100
255
63 47 94 146 117 138 96 121 108 171 120 143 51 184 127 146 118 154 139 149 94 108 143 169 199 142 161 163 180 79 153 140 71 118 119 122 107 182 52 79 149 83 110 135 172 71 103 123 174 157 166 173 137 129 145 129 130 145 133 66 170 176 166 199 108 94 139 130 51 131 142 117 189 199 143 188 126 110 146 155 162 97 101 49 84 90 163 70 118 133 128 171 107 43 135 122 191 39 75 175 
91 83 118 79 185 96 61 136 181 62 133 192 195 79 48 148 171 118 94 113 133 96 124 49 137 79 102 153 74 153 172 154 137 45 102 177 86 115 153 66 33 74 163 137 135 92 37 140 168 143 212 100 184 60 28 153 140 141 81 82 23 93 11 55 114 200 123 195 91 153 131 166 150 85 146 124 140 153 139 101 179 110 228 132 157 74 202 140 130 145 124 161 215 82 132 117 132 116 208 102 
129 97 100 92 160 36 172 89 132 74 168 93 57 87 151 119 92 191 89 130 144 134 115 91 151 104 64 145 84 66 207 123 181 65 167 117 152 99 123 192 121 137 65 16 32 164 67 98 141 118 121 154 175 139 88 157 109 128 52 172 59 120 42 58 153 142 96 190 15 138 105 133 46 26 148 121 186 141 153 140 128 118 162 112 116 111 101 168 75 110 88 136 113 110 131 123 77 126 88 125 
183 138 189 160 208 90 117 122 184 125 143 83 123 119 142 42 87 160 139 66 59 118 201 144 100 92 129 156 126 181 169 132 63 153 186 179 119 156 103 101 82 98 72 65 73 118 149 87 134 167 202 200 140 101 100 209 25 153 105 132 128 201 72 149 84 109 182 121 118 134 127 138 139 78 177 125 154 117 160 109 149 96 150 128 184 175 102 117 187 124 168 117 171 145 159 191 159 84 91 222 
153 122 138 135 167 139 134 183 39 160 87 155 84 119 107 191 111 90 169 51 148 132 131 115 109 166 189 106 53 117 105 94 135 127 179 45 170 125 116 143 230 142 133 187 104 163 95 166 140 198 144 65 76 56 123 83 131 104 108 162 130 102 152 115 118 104 141 123 144 131 119 209 153 164 136 140 163 81 109 182 178 158 187 166 147 107 117 120 77 140 101 100 105 228 143 73 35 55 117 170 
67 66 109 79 72 46 176 138 214 60 188 83 149 166 112 81 51 115 161 66 111 98 89 98 112 160 42 72 63 51 32 105 176 127 131 120 135 116 101 140 152 143 155 161 123 110 119 161 121 175 108 192 119 124 163 75 126 99 171 120 157 83 136 234 72 134 127 168 192 140 133 138 174 137 173 191 115 115 151 51 106 82 127 56 133 89 216 195 102 123 124 96 139 119 123 98 40 102 142 152 
142 40 106 205 126 97 147 127 146 145 107 167 114 57 66 149 59 135 151 33 163 57 143 151 120 104 182 117 119 194 153 106 148 51 128 50 104 101 144 155 59 140 112 139 116 56 204 136 169 52 90 148 42 142 173 19 168 97 151 121 136 132 98 151 84 136 65 126 130 183 131 149 89 44 175 164 135 155 109 144 131 139 142 160 129 107 83 95 172 70 105 143 67 128 124 120 142 157 122 158 
97 131 125 192 46 128 147 141 120 116 80 130 160 124 170 100 96 52 151 143 92 66 217 90 52 120 153 172 121 89 88 118 108 185 144 126 53 37 85 172 116 149 129 96 97 124 156 94 114 104 165 151 118 147 108 45 144 101 58 108 147 39 92 123 84 174 94 182 86 150 161 128 150 103 83 131 86 99 167 126 147 75 127 163 120 109 212 89 147 136 147 186 91 96 115 147 112 86 148 141 
78 123 97 107 89 34 91 209 90 106 99 159 148 185 73 205 148 166 118 78 144 78 104 129 139 128 148 181 92 97 129 170 77 211 101 81 132 51 75 166 76 171 140 127 202 202 131 125 121 188 98 147 162 127 91 149 173 94 122 126 148 134 104 100 131 113 162 120 36 137 110 139 129 181 148 108 153 81 122 140 152 145 136 140 76 168 144 212 120 67 103 60 102 70 146 179 133 76 118 77 
102 116 144 131 87 152 79 210 139 178 194 136 117 145 30 145 66 134 136 76 127 173 84 131 136 34 60 108 104 157 130 144 157 66 103 139 20 21 223 116 92 107 147 163 79 110 148 196 80 108 149 114 128 127 176 181 63 108 120 141 97 73 136 111 173 83 92 126 130 130 90 94 148 162 114 150 138 90 120 141 52 169 80 123 166 92 85 104 126 97 116 78 112 156 211 163 123 106 123 132 
61 61 86 61 149 179 116 77 22 110 150 144 65 101 150 131 140 53 139 120 122 92 81 44 110 158 110 144 115 129 161 140 81 96 131 112 129 154 79 101 130 75 110 82 96 169 207 167 191 139 128 118 100 94 173 141 124 86 44 91 154 131 160 70 98 191 94 66 146 116 131 86 128 122 147 151 140 151 93 112 152 150 127 143 105 155 128 85 22 160 166 153 132 179 112 151 105 22 65 86 
145 37 82 137 206 116 228 80 162 154 158 72 216 116 137 120 120 173 149 129 126 229 50 221 84 81 158 141 139 102 190 174 92 154 99 69 125 142 140 113 101 107 136 188 106 150 129 139 159 108 122 138 104 176 149 139 139 199 182 132 87 104 141 180 182 87 134 110 46 100 125 133 113 167 149 179 216 116 199 127 92 95 106 80 122 135 78 175 149 65 114 172 162 145 153 110 206 95 57 141 
121 127 117 91 151 156 139 156 152 135 119 174 152 92 175 169 48 65 88 102 153 33 72 192 127 120 103 186 153 147 165 130 201 18 170 173 188 125 192 160 92 115 118 121 234 213 180 150 127 181 46 168 40 161 134 95 192 121 163 119 103 114 136 99 198 115 59 95 168 125 82 143 95 52 125 121 131 127 40 59 172 92 121 124 111 166 156 151 137 150 55 204 93 55 63 141 91 173 178 109 
107 151 208 163 105 104 92 189 87 98 135 113 99 100 200 116 208 60 66 126 68 189 182 178 87 135 159 155 103 133 156 100 131 202 166 168 105 160 117 133 87 130 83 145 149 142 128 110 202 75 138 128 34 148 160 77 69 106 72 104 25 152 102 95 152 118 121 125 125 125 179 150 116 131 127 146 85 163 137 187 156 74 182 226 149 123 111 222 162 152 126 79 110 126 131 171 49 47 143 124 
162 180 79 110 183 91 115 95 113 151 125 132 169 155 27 156 190 94 120 105 92 148 128 175 108 153 143 182 113 107 140 127 97 73 104 157 212 118 145 119 121 123 159 138 62 124 68 74 137 169 132 213 151 130 146 120 98 53 85 148 124 187 215 118 170 112 105 120 138 99 118 69 140 93 64 98 130 69 162 191 57 136 143 100 83 80 99 141 151 138 185 126 71 136 68 152 160 145 166 114 
91 152 157 216 48 114 94 105 160 132 113 222 62 85 137 86 131 50 120 149 178 79 96 84 104 81 159 115 93 110 206 108 212 109 93 165 117 92 132 152 94 167 94 155 106 131 158 165 137 155 80 171 72 144 58 152 94 133 122 149 88 164 116 97 186 71 55 211 219 31 139 124 96 80 113 138 220 101 148 154 121 128 148 82 128 115 62 114 229 175 118 104 182 57 152 92 43 137 140 148 
64 160 169 156 64 147 117 110 173 163 185 199 155 123 115 179 130 115 134 161 146 102 93 101 153 93 204 144 208 118 121 36 124 48 186 122 176 92 56 29 105 107 113 56 179 44 88 108 122 159 27 209 121 138 146 154 179 63 62 171 154 141 132 116 86 118 46 148 88 169 110 136 120 191 125 114 124 64 212 131 130 168 89 149 138 103 113 96 202 116 58 148 89 171 139 148 103 113 228 151 
36 135 37 135 93 169 159 156 108 119 139 88 34 133 105 86 118 32 138 120 128 134 107 105 73 81 60 168 44 188 130 125 140 77 187 211 128 83 135 73 108 153 182 145 119 89 121 93 70 101 17 171 124 195 118 117 113 215 23 161 115 130 155 200 147 112 153 113 140 180 38 103 56 104 30 112 119 215 110 133 191 131 214 218 107 120 133 30 50 155 134 69 218 182 113 104 123 104 107 142 
158 185 114 53 119 107 158 149 193 159 111 169 121 194 31 115 102 109 112 57 48 50 117 133 136 119 68 159 179 114 108 115 122 54 101 198 131 133 131 87 67 164 135 68 120 178 88 127 150 170 154 61 150 119 90 194 106 152 128 102 29 103 74 87 135 119 130 94 166 126 178 132 156 85 101 115 101 217 188 140 173 178 25 106 114 167 152 116 181 153 139 129 148 139 126 115 67 74 167 57 
99 141 160 63 156 109 63 90 154 55 88 199 142 115 93 106 200 135 98 160 154 144 173 150 89 132 109 106 142 175 143 132 62 123 116 121 66 83 71 80 189 88 150 193 127 134 160 149 207 152 209 88 156 158 125 149 155 185 82 20 157 150 145 138 142 122 127 140 218 134 124 121 64 134 141 127 126 114 99 109 172 146 131 97 125 146 146 166 91 134 57 129 91 87 122 92 131 93 90 83 
146 118 130 112 129 119 127 64 184 168 103 46 147 149 164 102 45 99 119 143 67 177 132 140 91 137 174 148 101 97 124 88 97 113 155 144 92 131 170 137 144 78 144 155 93 115 141 176 116 75 122 120 130 163 149 153 116 128 168 132 30 32 108 156 86 189 163 131 118 127 105 159 155 80 107 195 107 84 150 141 133 134 107 105 94 120 162 113 155 169 112 130 141 152 91 100 96 118 71 91 
161 185 146 230 155 178 75 88 172 94 161 85 165 134 102 189 155 82 118 180 136 198 211 45 140 109 121 69 159 176 59 80 133 88 84 129 57 128 94 120 146 214 113 100 194 145 148 120 149 111 153 36 88 82 166 116 107 121 168 109 117 131 164 141 102 83 128 122 126 206 46 140 188 93 104 92 110 134 116 117 94 87 130 142 121 214 138 115 101 120 87 91 98 171 95 109 70 178 116 112 
145 167 166 115 133 122 137 205 132 215 172 94 108 240 94 122 190 140 171 164 97 130 94 134 158 175 170 119 21 109 149 201 132 85 84 144 153 80 143 183 100 132 123 126 108 114 112 151 113 80 137 61 165 121 88 79 121 150 109 103 144 163 55 142 177 21 141 116 42 80 146 75 122 146 64 86 71 130 126 146 156 68 46 201 76 86 116 112 129 116 152 130 190 77 193 166 75 129 55 170 
157 189 99 74 190 153 93 147 109 120 68 67 119 97 24 87 82 173 118 129 163 122 123 128 88 88 155 59 127 146 140 122 102 135 131 159 114 154 128 141 131 141 121 82 97 113 102 141 180 134 116 102 123 136 100 161 83 50 159 142 168 133 129 101 181 108 161 115 144 128 93 150 137 138 56 168 90 111 108 116 242 130 191 159 190 92 137 121 153 169 166 141 158 145 71 120 198 165 192 87 
88 153 99 170 116 81 209 186 129 123 132 219 48 84 101 115 176 145 137 165 191 168 109 127 150 109 122 80 156 128 118 198 113 132 158 172 124 175 41 177 137 141 40 83 66 49 109 88 104 83 182 150 113 163 137 82 198 75 101 188 111 137 93 156 122 147 104 181 96 52 106 174 132 235 133 99 164 135 122 119 108 190 121 240 166 92 209 95 86 132 157 176 117 66 24 57 97 121 94 65 
147 110 157 155 152 159 209 122 106 178 149 120 181 102 129 110 185 140 91 102 116 76 133 112 96 81 125 107 154 214 106 139 124 121 135 110 180 184 108 180 45 82 90 164 139 149 126 142 111 128 115 55 161 97 119 133 62 127 137 182 148 120 143 102 115 100 100 90 133 65 122 211 110 84 92 30 83 123 53 154 72 140 41 69 152 156 105 134 92 164 63 146 184 131 160 127 145 126 51 107 
124 86 179 141 137 211 131 112 102 183 114 69 105 130 94 149 66 176 106 94 98 131 168 75 135 110 142 78 112 145 128 99 147 147 200 94 91 147 115 148 164 109 124 160 105 113 138 126 151 171 133 104 164 176 77 174 157 135 138 175 75 170 126 100 141 140 160 137 180 111 128 109 118 134 71 99 48 142 107 139 114 73 132 146 133 163 173 186 45 69 102 113 163 116 143 187 151 183 113 75 
121 154 227 121 83 118 68 192 79 130 164 91 153 177 132 96 132 128 99 84 100 132 175 76 65 106 116 138 129 190 94 61 139 116 152 182 152 195 177 86 97 187 135 136 172 222 104 136 108 75 227 166 151 159 130 36 160 117 104 106 135 66 167 136 164 106 181 40 139 120 83 70 182 103 84 190 46 106 140 120 218 111 45 27 137 120 124 66 148 104 173 105 147 137 135 129 126 122 115 131 
123 129 211 182 170 212 137 90 114 129 94 105 178 144 125 160 101 164 183 148 112 139 116 83 173 52 115 199 109 123 144 185 159 200 176 184 112 97 10 170 110 108 170 85 154 83 123 96 126 124 157 113 138 172 167 88 151 141 146 109 184 113 149 140 102 154 124 169 110 140 191 179 151 178 108 60 114 92 115 170 139 96 120 135 179 115 166 99 64 165 136 163 172 127 108 76 172 128 118 107 
122 168 186 57 148 147 123 205 148 155 146 71 141 130 115 205 105 82 172 90 221 187 98 163 148 141 128 110 109 104 74 163 133 123 113 89 113 156 94 159 118 84 99 164 170 92 109 108 80 70 209 161 172 60 80 109 117 132 155 110 129 89 51 187 31 114 169 143 91 76 125 161 182 84 138 177 123 127 85 118 136 138 122 52 162 129 133 171 118 102 114 55 84 197 108 114 117 117 154 128 
81 137 74 154 130 116 201 126 75 143 187 133 28 110 167 51 97 129 109 169 108 142 167 56 151 157 134 131 99 94 58 193 71 175 202 120 186 81 149 154 111 119 15 148 120 45 150 108 87 105 139 159 205 214 146 130 195 87 73 41 108 112 122 122 179 130 77 119 54 135 53 117 177 122 205 145 157 105 144 95 46 122 124 157 124 159 85 172 124 134 62 147 168 121 47 158 112 108 95 110 
125 68 111 183 151 143 135 125 142 134 127 132 140 118 115 129 54 198 168 60 23 153 108 193 117 114 138 76 112 97 189 39 142 59 152 99 78 111 114 77 122 107 205 137 74 143 138 90 112 128 88 38 95 6 95 149 162 103 156 112 153 132 123 91 198 90 82 108 134 134 177 107 183 86 175 133 29 166 203 93 140 68 109 171 191 72 137 176 143 66 197 85 128 81 171 118 63 218 205 114 
101 179 123 130 127 83 93 68 118 79 145 111 85 146 123 156 193 145 98 115 150 166 75 187 167 137 101 161 67 199 85 139 137 161 106 89 107 54 136 134 139 219 173 110 85 128 97 48 137 188 18 129 103 93 198 126 102 154 130 90 211 222 104 85 58 123 90 55 151 103 147 138 124 175 97 204 153 163 173 217 83 19 69 157 91 104 143 157 136 128 116 177 99 180 163 131 99 121 135 144 
116 70 130 121 126 129 106 95 111 112 136 77 139 96 144 168 75 171 144 41 121 177 144 77 176 129 225 149 41 118 148 89 91 118 97 195 110 148 99 152 74 126 149 121 115 34 118 200 171 121 128 97 91 107 133 222 147 88 219 56 134 75 89 124 123 166 133 119 126 100 153 18 116 211 152 86 174 115 208 105 104 97 172 149 117 129 112 196 210 57 140 151 127 203 47 179 130 22 56 150 
111 117 123 127 146 92 154 89 167 141 136 102 156 130 93 165 138 156 184 83 127 114 67 139 141 96 157 131 122 135 132 118 115 150 120 118 170 86 47 149 94 78 121 124 119 105 147 113 186 157 84 118 103 191 102 128 132 107 129 170 233 224 123 142 126 135 129 106 103 81 117 134 123 116 64 127 187 87 106 159 135 183 142 78 106 149 44 80 142 95 132 98 130 57 124 147 132 163 161 147 
74 77 145 156 191 123 88 156 188 182 206 134 130 151 154 126 117 230 90 114 82 85 50 77 171 223 73 130 102 158 200 150 90 140 162 163 174 136 142 118 116 151 120 144 98 81 119 108 160 166 52 132 156 206 87 117 111 48 129 155 138 73 84 185 117 111 111 133 119 47 101 124 148 149 174 91 92 145 189 158 160 176 170 127 142 98 129 156 115 80 185 71 190 139 133 95 81 143 58 121 
137 140 206 139 29 155 200 156 137 105 95 127 96 102 116 177 188 37 152 188 121 135 95 71 123 183 156 192 172 89 98 113 237 154 161 126 128 184 114 221 64 136 160 179 188 117 157 107 181 55 91 67 193 174 165 174 134 91 217 112 170 112 97 66 128 134 60 67 142 155 129 112 97 105 77 140 105 176 41 110 171 81 132 156 132 136 111 134 128 160 116 69 145 175 139 219 93 80 55 143 
122 109 77 105 159 143 146 108 142 160 134 183 128 132 142 123 164 133 195 142 141 134 124 144 164 131 62 167 143 150 137 143 145 213 128 179 137 116 95 121 107 143 167 153 123 102 116 119 41 98 24 155 107 124 85 122 127 88 68 202 161 212 55 113 160 78 117 95 64 193 159 123 35 109 81 176 101 125 171 109 111 153 63 167 205 76 162 162 186 48 74 58 161 204 89 111 142 117 125 89 
77 163 154 151 178 130 124 123 162 188 112 125 198 196 141 93 157 89 126 135 138 103 121 94 104 146 135 176 144 81 148 177 110 226 103 87 130 121 111 118 153 135 105 130 81 159 155 99 117 86 61 133 171 141 150 126 163 215 80 112 187 154 111 134 140 117 37 179 125 69 74 196 125 195 155 115 113 164 58 138 181 73 130 95 119 113 140 157 130 151 108 147 103 181 175 49 151 109 159 79 
74 123 115 60 68 152 52 142 125 141 115 136 24 119 79 114 135 130 191 135 103 101 132 100 139 135 201 55 142 122 123 79 176 120 142 234 84 148 65 137 158 166 78 135 85 102 183 102 139 120 129 146 97 43 151 114 118 132 150 23 133 76 119 152 62 165 180 122 31 127 178 105 135 131 89 91 200 125 166 31 194 149 158 184 123 180 176 136 39 59 230 131 122 180 138 146 87 125 167 73 
159 129 146 192 50 93 134 112 158 176 195 132 190 99 113 127 134 148 32 105 152 80 94 122 182 150 104 98 87 183 122 135 98 123 159 73 117 117 117 97 53 142 141 167 159 115 160 167 134 146 218 71 199 20 145 169 168 119 67 120 120 96 128 133 106 135 71 110 88 125 67 173 56 174 68 128 128 104 138 122 112 89 132 90 210 163 143 41 114 156 136 121 119 122 157 122 198 142 135 197 
74 92 137 89 186 181 64 39 150 170 207 158 126 120 154 57 149 130 53 178 142 196 126 22 109 169 140 92 165 97 112 188 145 165 79 144 138 165 147 119 56 123 118 176 141 89 114 108 107 204 131 130 150 166 174 99 120 130 165 137 71 85 82 64 160 158 133 176 123 119 193 143 99 128 124 188 222 119 100 43 135 148 135 166 151 48 127 117 163 79 96 72 88 158 61 110 156 156 150 80 
145 200 70 96 122 143 134 174 232 158 84 145 176 36 150 121 119 139 85 97 173 134 30 168 199 166 112 201 116 119 121 102 201 102 73 121 121 68 155 156 153 114 103 138 58 67 132 134 84 168 161 119 126 117 102 44 120 102 93 212 142 192 107 92 171 134 172 141 178 198 126 127 187 117 117 165 94 59 90 146 49 126 178 195 94 44 82 150 127 93 135 97 140 167 124 87 167 81 66 99 
86 90 130 66 241 197 62 120 143 123 114 62 158 119 82 63 132 123 139 147 127 97 172 142 119 173 123 141 123 176 226 62 133 162 68 150 59 123 99 102 115 112 170 103 126 85 89 131 121 147 177 123 148 193 138 100 158 147 92 105 101 107 126 68 163 159 157 77 196 131 127 81 88 132 172 121 111 161 112 121 23 180 61 132 96 169 185 90 187 165 156 69 135 127 82 120 163 82 116 153 
187 133 100 139 145 78 172 97 138 98 125 155 96 191 108 183 110 174 126 131 163 116 94 94 73 135 72 136 67 112 162 126 98 197 143 128 78 86 138 135 179 168 72 145 173 120 185 130 133 120 96 208 123 123 170 106 124 146 209 46 168 42 68 105 214 161 148 133 117 140 112 90 67 141 93 175 71 109 105 110 144 118 91 114 83 123 193 125 116 96 162 180 130 132 181 103 148 140 98 52 
135 87 103 107 61 141 51 197 135 155 97 107 157 129 110 188 102 80 147 153 205 190 97 129 113 141 44 114 110 137 133 64 127 108 196 161 133 186 114 65 114 163 167 93 156 79 188 132 141 173 153 98 104 74 103 106 107 118 184 107 131 183 100 126 58 164 182 182 83 169 187 209 228 153 68 130 161 103 79 44 105 120 159 168 118 213 133 180 24 37 154 187 77 196 174 158 144 146 149 96 
117 150 105 105 102 173 121 65 123 62 191 174 72 112 141 91 102 99 206 138 145 75 160 106 168 52 180 61 162 135 170 142 126 191 155 88 142 130 129 148 121 125 65 140 135 163 119 97 127 85 148 74 118 160 153 92 152 126 79 143 128 149 116 149 94 62 129 110 100 162 110 148 146 201 87 187 59 172 120 109 32 150 126 138 194 103 154 143 130 90 132 64 57 122 52 46 135 156 141 152 
12 122 36 108 139 122 118 185 132 186 171 218 130 137 152 143 46 84 175 129 127 115 107 84 171 169 117 190 112 98 178 213 211 186 133 169 122 49 94 169 184 168 127 78 111 96 154 134 110 130 120 117 98 118 195 110 112 99 132 117 113 199 122 108 132 112 145 156 131 122 148 59 28 141 136 50 179 160 159 108 181 127 90 142 187 152 88 184 144 140 90 220 106 46 94 183 136 193 110 124 
185 95 142 146 146 33 105 27 78 166 77 161 155 121 192 158 92 136 137 46 133 101 196 90 141 163 100 168 186 132 150 114 163 112 139 56 194 161 139 99 163 148 84 125 133 160 165 106 95 51 189 177 112 100 104 149 133 110 149 62 130 125 99 119 109 201 86 121 96 191 117 100 191 103 105 187 115 157 111 193 34 119 130 149 102 160 230 128 124 156 143 146 159 125 143 83 146 118 135 210 
147 136 113 83 144 81 200 96 122 36 172 142 136 69 131 120 174 142 163 105 148 108 71 57 193 119 188 139 127 106 116 95 113 153 73 114 189 184 104 127 162 92 126 210 138 129 153 129 135 100 95 134 121 140 58 130 69 137 188 193 170 131 125 137 103 121 104 211 144 62 102 76 177 101 105 103 208 48 122 149 129 163 147 117 195 156 50 208 130 138 108 78 95 114 147 75 125 113 139 75 
76 60 119 99 134 123 110 76 76 100 142 145 96 164 132 137 139 72 188 150 75 129 164 41 177 113 120 214 29 96 86 164 95 166 126 59 126 133 107 107 150 212 126 158 205 97 182 154 91 129 102 105 91 173 114 119 63 119 133 76 95 145 62 86 100 126 178 96 137 130 128 193 147 153 99 115 187 63 119 196 68 35 190 50 136 127 129 100 113 59 109 130 124 126 166 158 188 140 171 102 
134 197 111 146 191 77 179 68 162 85 159 138 134 136 129 92 209 122 127 74 155 17 141 136 226 167 218 115 129 44 79 148 55 99 151 130 89 197 22 111 166 36 114 88 165 138 154 87 139 116 123 71 176 182 115 112 160 196 133 159 173 59 63 145 119 124 138 162 100 121 154 105 104 151 160 124 132 150 225 137 159 188 142 121 121 133 61 126 157 75 113 96 66 142 94 139 230 126 113 55 
151 21 125 122 106 192 63 157 46 178 126 144 120 167 162 54 157 179 102 142 111 112 130 134 122 51 186 98 137 92 156 165 92 145 67 133 99 103 117 122 131 171 126 93 92 147 167 104 169 146 129 142 62 68 174 100 158 94 101 115 198 207 124 104 94 124 106 89 145 125 122 73 122 125 142 183 147 51 130 138 128 120 69 220 96 106 205 130 75 91 89 123 56 159 169 135 142 34 167 134 
90 195 147 84 112 36 201 125 62 43 89 141 36 68 187 202 148 170 134 62 155 223 71 155 114 109 165 103 212 207 145 108 129 142 154 125 106 121 138 174 204 112 135 195 149 166 178 33 151 188 98 75 139 190 167 129 127 128 64 153 147 195 113 141 191 181 116 138 195 70 160 175 132 116 88 78 154 162 145 115 119 112 144 161 132 62 129 136 119 130 155 85 119 119 35 157 92 183 158 127 
69 179 147 66 117 123 240 91 114 121 169 113 194 100 178 105 179 133 106 195 140 135 162 191 107 154 116 93 35 36 138 157 145 169 41 134 109 127 213 103 124 133 147 140 71 149 150 48 103 161 46 94 107 195 25 134 137 85 76 132 120 122 101 171 155 116 86 189 142 88 152 163 137 128 111 98 141 148 190 148 128 110 94 180 175 192 147 178 177 148 117 69 141 137 183 86 204 95 164 26 
81 169 106 117 189 161 164 77 43 183 86 109 125 112 98 161 119 135 163 87 120 149 84 207 187 195 214 65 216 146 109 65 90 87 94 149 121 54 62 150 213 103 108 122 201 89 62 55 94 182 123 157 153 125 148 113 144 119 177 197 149 163 72 133 99 62 117 128 84 140 127 53 176 121 182 151 145 89 130 113 136 122 167 136 182 149 177 152 195 49 124 227 111 139 70 83 125 120 136 125 
158 107 161 133 121 141 182 46 137 111 110 177 180 126 137 120 169 150 192 123 132 111 163 83 146 203 147 162 189 77 109 160 37 89 107 209 124 165 94 154 125 151 125 149 143 161 179 111 173 154 46 146 69 189 119 52 123 137 49 138 124 122 138 112 124 138 63 60 130 154 176 122 142 115 106 203 137 145 120 195 161 161 92 132 105 155 149 62 185 92 147 141 93 135 142 168 99 119 112 102 
38 102 181 96 110 167 75 123 126 74 194 140 154 147 69 141 84 114 161 66 137 139 117 71 102 91 143 106 123 186 182 66 133 137 88 66 153 138 181 51 94 161 89 164 171 111 179 91 105 136 61 72 154 29 119 202 159 139 133 62 75 104 140 168 138 198 51 102 106 97 119 31 125 119 146 138 117 67 213 132 114 148 195 63 76 126 89 135 175 185 129 142 70 113 196 182 180 79 77 143 
116 31 138 115 116 97 120 133 186 154 176 113 159 205 55 160 156 201 116 133 170 82 124 96 98 93 135 84 175 217 125 98 129 187 225 135 134 58 198 80 128 143 75 174 59 143 154 138 119 164 83 149 122 154 184 173 175 166 74 99 195 160 126 148 157 138 97 184 170 76 154 185 100 84 141 147 127 79 105 156 157 162 90 165 98 160 146 89 156 85 95 141 164 70 121 91 79 159 221 82 
122 164 154 136 60 123 118 53 129 209 88 152 70 94 146 66 133 135 172 141 133 82 206 187 184 116 143 126 115 159 112 151 132 155 107 129 159 146 158 212 135 134 141 186 70 67 115 57 180 101 109 135 137 158 25 149 66 120 109 58 121 126 108 56 114 156 68 55 144 120 71 188 82 26 163 77 133 99 157 180 111 178 114 60 135 103 212 151 199 49 166 108 134 49 209 152 109 117 86 61 
135 163 136 135 61 104 81 117 174 102 199 90 75 105 186 44 119 130 204 121 142 41 103 195 104 119 151 69 113 170 163 120 128 140 50 131 147 109 53 154 131 79 215 175 161 97 145 72 88 133 106 152 71 131 185 154 177 169 100 157 118 197 188 190 94 187 85 185 83 82 118 152 143 90 180 164 171 108 137 78 65 98 98 118 127 112 103 146 88 159 122 147 159 163 200 137 82 165 53 152 
113 122 98 88 118 85 109 129 143 142 146 171 122 143 108 133 202 157 113 148 104 109 104 157 131 75 80 94 142 96 176 169 143 86 139 131 142 114 121 33 104 187 139 129 46 82 136 185 122 183 111 152 176 194 141 132 119 144 157 99 109 59 107 133 71 100 73 149 146 155 177 231 143 168 70 170 54 196 130 124 129 147 130 131 33 123 105 93 145 141 109 90 123 127 105 147 89 90 50 78 
133 201 142 155 61 176 159 36 173 66 129 118 179 110 81 164 245 154 139 84 60 138 148 59 131 142 85 83 113 125 65 52 136 152 126 97 114 105 246 181 31 149 113 120 146 127 118 129 61 130 132 123 146 154 119 143 154 166 111 117 171 19 114 87 130 200 132 148 120 159 106 117 205 200 89 96 108 58 93 131 59 132 79 119 128 81 103 105 107 214 148 146 156 96 118 150 182 195 11 146 
190 204 128 96 182 116 68 114 215 105 81 148 125 137 93 56 115 196 139 166 137 132 129 102 210 109 84 66 106 142 117 124 63 121 106 121 173 147 151 113 129 184 88 65 147 106 114 150 164 108 43 107 85 194 175 119 111 112 75 141 166 118 191 86 83 128 160 73 112 135 143 125 33 128 77 164 157 144 72 137 143 129 158 130 110 124 141 132 142 200 89 173 134 150 171 106 66 139 139 195 
103 133 174 92 167 134 166 206 85 156 121 121 156 153 162 82 104 127 152 184 133 135 91 221 92 159 137 159 173 85 170 82 100 107 109 128 99 99 85 130 107 114 34 117 86 85 146 40 128 127 140 149 131 131 118 130 131 71 116 182 102 149 163 123 119 112 79 182 97 114 128 138 154 175 165 125 109 85 199 35 56 112 62 170 85 119 81 58 171 116 98 39 119 157 173 98 138 135 146 114 
82 141 84 142 128 138 227 44 165 74 57 93 103 173 108 64 126 130 92 139 117 145 111 146 125 138 128 182 103 136 205 203 70 130 111 113 119 115 79 51 147 110 147 81 118 99 33 108 134 178 92 156 46 43 167 86 165 108 74 163 108 99 185 55 181 123 170 114 133 147 130 134 169 108 103 169 53 168 113 131 126 74 74 117 121 118 119 82 98 123 219 111 147 130 92 198 131 148 122 125 
113 103 224 198 113 119 209 102 144 155 116 151 107 217 186 162 148 105 107 149 114 94 137 128 116 149 37 119 116 95 159 119 112 85 126 137 130 81 177 64 128 157 100 71 83 95 134 124 199 126 127 157 132 174 122 33 173 133 139 135 174 143 230 75 134 124 188 163 204 92 99 106 138 176 106 88 77 108 172 227 137 25 65 106 134 144 169 240 140 129 135 48 122 146 36 137 69 95 132 118 
216 123 153 183 38 128 130 47 64 63 139 121 86 119 157 115 137 118 109 89 128 74 138 112 126 160 193 111 143 129 117 132 69 195 149 122 68 99 32 144 106 207 207 163 140 83 183 53 121 112 174 205 118 189 148 114 103 139 149 102 82 169 150 145 147 172 99 188 85 38 105 89 100 157 106 77 58 147 92 122 135 140 150 197 59 196 135 66 135 188 97 50 109 55 115 60 140 151 216 114 
187 169 87 134 108 140 136 122 93 127 117 144 91 130 75 81 134 200 115 163 153 102 98 183 128 100 146 173 91 94 115 158 121 195 121 148 82 43 122 83 78 102 145 70 173 158 120 146 135 214 11 144 66 158 80 136 163 62 117 190 170 91 139 101 147 47 54 203 153 123 198 135 148 146 168 74 186 116 131 96 86 137 151 82 144 77 214 179 139 89 89 146 167 156 145 73 146 61 141 115 
109 125 125 125 166 105 202 131 63 104 101 55 194 118 164 161 128 161 208 113 84 90 139 80 184 64 186 84 107 96 47 78 180 112 231 92 52 89 132 143 107 56 134 119 142 42 187 117 103 110 88 78 110 159 22 212 102 96 97 165 104 179 133 163 155 66 126 110 157 184 121 155 107 134 177 139 51 168 170 92 90 98 90 93 182 169 134 125 230 144 137 189 120 103 145 97 133 141 156 79 
123 167 204 82 150 143 165 102 141 122 168 128 149 114 118 172 141 172 135 55 88 21 125 136 122 120 161 148 75 120 100 91 165 98 92 81 24 122 174 168 190 59 157 167 105 127 156 87 123 97 165 106 71 156 156 167 157 137 141 119 130 32 51 177 178 116 169 130 131 90 146 133 161 142 95 195 131 124 173 81 142 121 125 97 50 136 43 120 182 136 118 157 162 148 143 150 142 119 184 88 
118 142 131 114 131 109 154 179 195 140 90 166 193 71 36 139 94 97 60 197 179 191 204 171 36 114 105 110 194 132 113 106 159 108 114 28 190 73 152 160 117 71 111 160 188 124 66 163 122 143 98 117 142 114 105 124 129 146 213 93 123 80 141 124 121 164 130 174 170 78 198 65 99 174 125 135 133 225 80 66 108 142 212 99 79 121 187 149 145 50 79 212 129 48 170 138 147 113 124 125 
108 150 167 104 111 93 152 170 156 136 164 65 143 110 210 140 26 127 88 136 106 113 109 181 130 93 131 86 107 108 137 109 132 142 54 26 161 103 151 85 197 131 96 114 135 90 131 100 117 146 115 77 54 53 64 72 138 108 47 120 139 111 208 128 142 101 155 121 49 137 206 83 155 30 69 58 134 202 78 89 75 162 128 175 126 148 105 70 175 56 121 188 198 166 113 172 190 133 149 176 
140 125 158 180 119 137 115 133 98 118 166 178 113 120 131 192 206 136 143 159 89 84 215 100 109 146 138 129 34 165 59 122 150 111 198 199 193 201 128 86 157 132 86 88 119 170 62 54 217 168 154 117 130 152 178 112 127 168 166 179 116 123 136 124 103 139 16 154 133 142 173 106 137 125 71 95 126 101 165 122 222 98 113 135 125 128 117 128 62 129 203 226 129 103 46 190 110 30 125 112 
170 196 95 106 96 120 42 99 45 108 84 170 46 144 93 181 92 168 144 79 167 235 130 176 138 135 103 108 168 53 91 72 154 143 77 211 105 206 91 147 131 141 197 99 187 167 105 133 48 52 117 87 111 123 162 163 170 151 56 159 220 142 138 149 109 104 147 95 124 83 122 152 141 48 65 140 158 81 87 140 113 111 186 64 127 166 197 174 122 87 164 84 152 54 143 113 109 90 160 84 
184 60 158 72 174 182 162 95 149 136 65 165 96 114 58 101 163 65 141 199 107 216 147 95 120 41 73 171 163 112 131 153 30 108 103 113 123 90 159 141 118 148 141 126 168 41 144 73 146 143 55 128 138 65 147 67 101 50 107 145 103 71 169 95 155 132 84 179 104 133 176 105 158 95 92 76 64 100 111 186 150 137 140 223 104 120 67 161 73 111 118 102 124 136 81 179 139 160 124 189 
137 138 156 127 211 142 149 109 161 133 121 145 135 39 175 168 183 134 122 135 189 98 171 124 87 142 115 137 128 212 195 35 141 193 149 125 124 124 126 125 167 170 196 138 115 57 78 141 175 156 62 84 148 137 151 72 119 39 162 144 104 68 206 175 82 104 170 134 37 138 29 195 151 162 55 162 160 102 137 103 63 130 224 26 102 172 83 48 181 83 123 73 144 149 142 121 182 141 97 145 
113 168 223 176 164 117 111 112 92 151 125 116 160 89 61 155 105 127 137 110 175 112 126 179 193 94 78 187 196 136 131 142 186 191 164 148 156 131 150 171 150 202 160 150 109 36 79 129 132 127 119 169 108 105 162 119 141 136 44 89 183 91 60 113 112 112 106 161 104 144 149 204 136 120 86 133 205 197 170 151 167 152 95 105 191 206 117 107 97 106 179 137 130 21 135 177 176 105 102 126 
105 153 164 55 133 187 54 72 114 121 179 62 201 120 93 146 135 52 132 151 170 90 89 129 122 198 144 121 62 179 106 190 94 147 132 97 159 108 164 142 144 130 134 177 122 75 104 146 143 95 73 86 74 111 94 114 148 59 170 93 28 136 110 130 211 130 92 79 149 88 37 177 167 64 112 120 67 155 133 40 129 71 116 147 69 123 113 45 94 143 121 175 151 165 98 142 56 85 156 214 
76 120 74 162 201 122 93 123 128 143 67 130 109 145 131 51 155 129 180 117 134 81 160 213 137 85 85 50 131 45 131 186 128 55 110 116 112 80 196 168 193 71 139 97 125 185 125 68 202 187 176 138 151 25 171 94 123 105 150 129 75 175 156 127 138 177 126 166 95 86 161 75 84 134 152 211 112 149 155 138 102 161 150 119 117 154 91 113 110 64 34 160 125 91 156 115 162 147 147 179 
86 48 120 124 125 77 122 146 55 92 145 224 91 52 131 141 86 134 140 109 117 125 68 139 106 107 157 177 158 170 136 193 76 74 94 121 104 138 45 184 206 55 51 196 49 125 175 167 114 111 57 140 131 190 66 158 115 126 159 150 219 134 95 149 104 83 120 188 161 99 133 149 148 116 150 191 76 148 89 133 159 129 27 62 235 89 97 189 173 136 197 193 103 220 177 125 177 95 135 93 
160 123 132 196 119 128 137 127 93 106 23 124 124 133 117 158 46 94 132 124 154 114 152 97 39 111 55 145 118 133 117 113 111 185 116 166 187 83 121 191 184 190 155 110 135 97 79 175 189 100 102 85 62 164 134 75 140 94 40 186 111 141 130 143 133 119 116 110 46 100 110 180 119 174 226 117 129 72 121 119 142 72 197 182 120 137 178 125 74 116 63 86 113 150 174 77 128 135 167 67 
150 148 104 93 85 84 174 180 180 61 106 185 99 70 88 175 95 140 101 96 22 162 35 120 95 103 165 84 68 121 190 149 123 53 82 165 84 162 147 103 155 127 57 96 152 135 122 55 136 134 127 152 154 131 112 132 128 98 160 220 81 103 40 92 181 100 229 48 72 131 146 106 142 165 116 104 129 198 141 121 181 97 86 117 164 132 76 159 149 88 141 144 85 152 169 137 133 126 162 139 
148 54 181 91 126 138 123 161 148 94 127 168 80 130 114 99 135 142 164 146 120 70 126 121 100 84 113 172 184 134 125 154 184 153 96 125 64 132 105 30 136 37 82 138 172 94 63 152 120 126 117 132 125 65 116 188 103 152 67 86 170 133 133 147 127 146 139 66 163 110 179 160 74 117 154 60 127 160 131 117 109 81 176 128 98 134 74 107 117 141 120 106 135 151 143 122 174 183 180 145 
131 113 58 119 155 64 82 72 55 121 149 127 182 152 60 97 220 76 158 87 61 182 125 152 120 116 94 112 93 118 182 167 70 170 189 229 108 81 98 172 124 102 128 115 105 123 117 152 93 169 163 105 130 140 123 137 197 100 72 117 98 107 173 107 139 63 128 152 207 139 73 95 200 194 169 50 119 135 121 97 128 132 73 120 95 72 111 135 97 156 166 88 107 140 194 148 104 127 148 93 
111 92 127 183 118 121 123 114 46 139 152 88 142 98 42 129 130 140 141 177 117 116 84 131 188 108 132 161 125 119 175 116 186 175 161 159 80 69 103 137 140 101 81 180 85 59 126 120 156 91 119 187 125 124 181 225 132 101 151 185 135 113 136 125 156 136 130 90 145 149 102 65 131 182 221 134 106 233 166 180 104 108 47 147 129 157 113 104 156 153 134 113 197 31 80 188 99 82 74 91 
121 139 155 131 73 205 130 88 157 111 174 150 125 168 85 114 150 153 104 124 135 109 171 129 169 128 138 138 89 133 124 151 146 106 101 169 107 114 115 178 124 83 179 75 107 136 38 148 92 123 167 143 122 119 126 92 86 153 142 233 81 162 101 163 124 147 186 61 72 182 120 132 139 118 40 137 54 53 156 97 177 97 88 126 207 143 130 133 84 159 52 55 171 163 114 159 69 104 25 111 
133 69 110 137 181 125 124 186 51 50 184 171 88 118 113 114 162 108 137 92 197 90 114 166 57 215 128 139 135 100 176 150 59 128 178 95 88 110 122 237 139 55 67 113 220 100 133 97 111 142 106 92 72 129 132 149 43 121 91 191 163 28 113 134 89 136 131 160 94 62 147 50 134 153 172 135 155 113 138 45 184 91 146 33 141 166 159 135 157 137 176 77 172 67 91 220 139 198 146 153 
116 127 159 185 134 175 107 152 120 169 158 55 136 107 178 108 69 29 127 128 95 108 152 112 113 113 164 198 126 210 151 142 75 130 183 143 103 136 143 110 139 120 124 114 126 103 94 122 188 149 132 127 176 135 113 96 44 147 111 119 60 80 100 120 55 164 176 105 75 189 28 183 162 50 147 131 137 152 196 105 212 105 172 63 87 99 217 177 207 141 106 63 176 101 179 151 123 135 178 50 
156 146 137 136 143 160 93 197 122 123 136 77 161 109 82 65 130 152 147 97 115 117 135 40 141 98 182 225 124 129 99 90 141 136 125 178 173 141 85 38 2 119 87 115 136 213 107 108 139 76 112 121 142 136 127 145 152 137 145 125 87 98 109 45 175 123 140 111 154 152 187 37 119 139 53 140 80 124 128 138 125 93 134 103 124 111 150 172 113 95 126 200 153 109 128 148 132 170 152 137 
127 77 102 94 74 140 97 128 121 136 205 129 102 122 175 113 121 128 130 199 105 108 103 203 147 153 110 98 39 103 162 234 153 136 156 175 195 117 175 160 104 90 108 115 145 164 149 135 184 64 130 80 136 153 102 105 171 147 210 73 101 157 90 190 128 192 156 131 164 123 129 179 142 108 90 96 140 149 90 65 161 167 104 158 79 59 195 155 131 88 176 68 111 118 131 139 141 113 60 122 
128 103 37 187 144 124 29 148 42 104 114 209 108 115 126 194 235 167 181 159 144 97 63 114 140 113 106 123 93 94 141 143 136 88 149 105 150 67 101 106 112 193 112 89 61 144 74 185 109 170 90 156 136 140 80 146 166 118 169 174 209 127 90 68 112 169 138 57 163 144 116 85 87 123 120 55 102 158 87 23 52 110 120 53 105 30 111 92 139 57 242 112 82 69 165 152 118 175 90 125 
143 75 91 130 133 122 126 145 52 122 106 152 130 154 117 89 104 35 70 65 134 89 105 72 161 87 124 137 122 107 180 145 198 123 131 150 99 123 68 150 184 73 149 95 152 105 144 172 105 131 153 113 128 81 189 160 114 133 72 102 83 60 62 119 140 105 53 78 126 137 150 204 123 137 105 98 67 166 144 109 110 97 163 100 178 121 202 103 92 79 141 24 140 103 90 201 153 165 86 100 
199 123 111 95 60 133 150 147 212 180 115 171 32 155 189 103 118 154 110 146 148 101 172 144 84 207 48 127 28 197 67 130 124 72 123 151 196 104 92 105 116 110 150 145 172 95 130 146 166 78 110 148 235 113 83 169 113 92 120 95 175 81 63 117 175 110 120 136 121 216 87 162 154 128 132 130 92 130 193 98 132 112 119 175 104 112 125 135 117 108 74 98 133 135 93 121 125 204 70 89 
97 105 153 178 167 105 196 164 165 80 80 115 197 176 158 199 127 165 104 122 154 119 94 135 118 141 160 240 150 144 174 142 166 78 112 88 122 176 245 99 137 169 99 188 40 37 150 199 82 166 82 132 140 54 184 105 113 48 56 118 169 121 146 133 147 144 82 151 97 67 192 107 60 65 195 153 209 81 104 61 98 111 150 119 84 158 129 81 93 131 80 209 218 126 152 183 142 125 222 103 
90 125 104 126 76 170 158 114 104 175 122 18 129 142 145 121 143 154 107 111 67 191 124 77 115 128 130 91 134 135 64 24 201 151 138 144 178 147 123 164 172 171 120 99 199 151 161 121 42 140 35 124 133 127 101 143 122 136 87 160 146 152 146 134 57 129 155 96 103 182 126 128 97 122 207 83 101 99 149 235 178 144 218 177 121 131 57 140 205 153 111 111 136 180 102 120 101 144 115 128 
177 142 236 80 113 122 121 71 155 100 152 107 198 126 186 117 71 180 217 152 175 131 122 109 59 68 153 173 46 132 137 92 75 162 90 139 140 95 157 88 180 134 109 198 68 146 134 99 126 154 125 143 106 151 105 114 75 120 193 136 70 156 196 52 173 172 126 90 137 141 152 96 58 150 93 97 157 143 68 101 172 123 139 133 153 78 138 131 140 211 83 192 118 68 116 112 75 192 140 158 
104 146 133 129 120 135 59 119 194 112 129 74 171 172 140 195 106 151 182 143 100 93 148 84 120 103 58 106 135 151 146 105 169 191 119 227 103 95 121 80 64 125 151 131 173 100 124 114 137 124 150 113 54 147 133 183 89 169 185 140 148 110 108 157 115 110 195 145 59 94 109 144 189 172 115 146 146 97 53 110 136 100 140 63 110 128 115 144 83 91 147 173 194 132 126 139 152 103 143 120 
136 162 96 157 138 217 116 168 105 123 163 171 62 101 119 89 154 195 151 186 139 130 136 201 80 147 109 116 74 150 151 104 134 162 92 130 99 135 158 152 125 64 139 162 119 127 160 134 57 100 80 126 129 156 132 168 115 130 148 134 215 124 91 69 104 199 128 161 218 82 195 128 197 144 125 127 192 181 114 91 153 155 26 60 181 140 136 102 43 129 223 115 159 134 198 103 164 70 184 101 
131 106 141 146 162 143 140 174 127 128 140 103 125 120 120 133 108 147 182 165 141 43 206 116 90 98 70 80 72 154 132 136 123 103 123 156 132 170 192 146 165 167 89 67 159 166 172 51 64 161 108 91 152 119 181 25 91 76 124 111 160 87 103 119 159 76 139 116 200 94 181 150 171 72 166 142 33 53 166 142 173 136 122 143 135 166 142 133 122 89 184 134 153 151 125 232 206 120 127 75 
