P2
100 100
255
111 247 95 215 227 232 88 121 145 64 115 150 252 174 101 177 33 29 213 151 27 204 137 98 33 11 196 188 122 181 216 190 48 72 143 137 184 102 148 103 107 149 86 194 225 75 55 33 243 18 211 238 57 237 65 197 211 184 2 240 80 251 188 210 128 21 219 62 158 2 42 163 252 227 7 192 250 100 226 11 193 191 67 106 24 207 181 149 74 247 144 168 254 228 240 168 210 82 185 169 
211 191 164 68 80 186 218 151 37 47 218 133 34 74 114 189 47 206 157 162 230 213 51 237 28 166 229 150 204 124 9 252 99 242 103 149 9 141 251 64 229 241 197 171 155 166 80 10 218 133 202 82 175 180 85 67 131 228 231 59 230 202 86 248 236 150 115 38 146 128 28 38 82 46 186 62 120 12 217 1 45 143 139 225 141 238 172 162 3 98 120 18 195 99 131 10 165 179 194 110 
38 219 65 59 125 229 209 60 195 74 170 228 89 235 137 167 116 209 205 12 141 24 144 215 125 96 2 7 126 133 51 202 179 66 191 141 17 238 36 144 47 214 72 200 202 57 135 157 169 32 239 61 96 49 232 244 75 97 204 209 45 45 183 250 255 176 207 42 4 26 42 12 107 127 136 39 209 255 56 88 209 64 223 136 116 200 127 78 231 246 79 39 141 123 130 48 115 48 116 117 
84 98 95 230 104 221 225 74 90 92 17 247 225 210 127 55 56 176 122 96 168 173 141 188 20 136 103 49 164 59 240 213 25 183 38 46 152 93 86 192 95 156 240 120 94 181 243 153 206 131 254 154 250 211 169 24 146 207 1 210 206 52 224 92 185 100 219 15 252 12 21 203 56 93 197 84 160 28 2 84 98 118 186 165 241 8 2 124 235 19 233 154 245 29 188 197 88 126 165 51 
211 148 42 225 162 231 235 95 112 111 152 53 211 216 98 98 146 51 161 208 87 47 36 24 84 184 203 146 232 9 160 124 108 25 155 46 167 223 205 61 63 32 46 56 228 212 213 190 181 103 47 248 13 228 221 78 218 61 158 116 173 207 131 120 217 182 231 187 101 76 102 110 33 68 33 11 122 103 166 212 186 199 113 162 136 131 211 155 251 152 24 75 245 133 127 151 54 152 33 27 
148 109 140 39 93 50 22 84 211 170 33 194 58 119 62 42 169 191 135 201 147 149 40 70 157 150 102 194 244 180 84 92 144 148 8 20 54 136 42 184 37 160 126 237 25 51 243 159 143 108 134 51 149 76 211 75 14 216 237 254 88 204 52 23 231 90 25 19 116 54 226 160 153 56 203 126 177 59 100 235 77 22 99 247 62 229 240 219 8 156 194 115 218 43 202 233 230 128 166 16 
186 142 31 8 67 147 63 115 32 109 185 115 223 68 168 1 235 110 196 126 198 139 233 189 247 63 122 28 70 204 212 253 227 219 147 14 46 80 226 212 80 240 160 11 140 173 138 168 243 130 207 156 140 3 101 231 161 119 174 38 72 184 45 21 169 105 119 6 220 81 34 144 110 252 236 29 133 193 129 96 169 25 31 105 81 62 29 26 129 196 12 116 167 108 67 255 53 216 7 115 
228 168 63 0 182 133 244 161 62 148 67 122 68 177 40 109 130 174 46 227 72 191 218 29 115 28 137 225 35 222 2 155 83 179 132 102 101 191 56 250 50 214 118 233 251 63 139 113 6 228 135 195 177 181 36 180 133 100 196 100 241 143 145 186 3 161 32 204 255 217 187 220 137 239 200 238 70 171 18 121 5 76 14 169 139 163 240 44 23 121 115 210 240 223 199 206 144 171 57 100 
172 157 215 132 43 240 173 177 170 141 57 190 187 227 40 219 58 228 116 44 245 125 66 94 115 66 207 194 246 172 186 98 133 132 64 232 222 104 101 125 222 114 165 12 170 130 158 144 121 50 158 178 36 68 68 158 48 162 57 165 235 68 47 19 251 177 4 150 227 202 131 24 43 178 38 152 241 86 41 240 163 178 39 233 246 199 80 211 61 22 71 19 234 170 199 244 76 27 181 208 
169 227 80 222 104 47 217 162 93 237 18 131 43 103 12 132 100 124 207 97 17 76 243 176 2 155 193 80 205 216 7 247 44 85 123 183 16 80 199 98 93 176 199 202 198 50 27 87 136 216 54 46 49 60 165 95 25 159 149 150 206 201 79 135 242 118 63 1 156 43 155 79 183 139 211 202 10 35 240 184 27 225 240 29 219 142 233 204 66 123 44 189 76 254 214 201 53 8 189 201 
144 39 184 127 142 82 135 149 161 12 61 65 104 101 145 138 149 21 248 245 45 138 209 169 202 185 11 182 168 30 92 22 196 1 99 25 77 226 37 117 12 137 97 27 166 235 39 27 90 116 119 131 72 159 255 112 70 19 3 125 211 140 159 48 220 213 102 73 122 109 2 241 128 252 123 7 140 123 1 6 191 189 102 197 156 160 2 119 1 23 132 133 154 64 45 108 110 246 186 171 
40 63 186 45 134 184 186 213 231 206 108 2 211 16 133 130 65 52 183 230 222 136 86 210 43 0 2 70 94 75 201 134 203 2 27 61 13 7 38 247 156 239 8 37 215 249 134 75 224 176 232 61 63 176 164 187 4 254 88 113 90 55 128 176 100 136 219 245 23 247 166 32 150 48 55 27 25 241 212 116 222 174 117 206 104 24 88 174 202 98 246 242 113 129 79 125 185 128 53 201 
131 253 133 60 175 171 113 43 166 237 254 118 144 215 181 75 118 66 73 148 60 248 84 86 169 63 133 157 129 1 222 203 136 82 118 117 23 96 56 140 213 227 185 205 201 41 57 149 63 92 231 202 207 10 155 133 207 46 23 107 63 79 93 244 24 46 228 156 176 218 48 239 50 114 202 187 101 203 136 41 53 209 177 104 18 52 43 123 124 24 225 201 122 202 118 161 165 7 174 56 
10 17 235 154 196 29 12 25 151 97 136 197 49 56 38 221 30 25 145 107 228 35 253 49 52 26 56 80 12 32 79 165 194 126 241 122 66 232 193 28 243 14 33 95 24 139 244 54 186 16 153 77 15 241 158 204 91 203 95 73 117 237 79 167 64 190 14 130 87 98 143 158 54 140 182 171 50 242 151 26 92 79 127 185 201 193 63 229 222 191 187 238 66 140 125 49 7 230 80 112 
136 246 232 195 60 144 163 116 210 7 69 69 224 147 123 119 79 116 126 66 177 240 52 167 108 128 180 174 254 96 134 176 28 117 153 58 106 171 88 17 168 12 0 154 149 93 201 114 1 56 230 71 5 222 203 170 114 192 254 112 129 254 58 26 72 30 178 226 216 219 236 118 208 171 87 91 191 198 226 13 52 232 24 76 21 3 201 157 187 250 30 157 164 39 199 102 34 86 19 253 
115 89 182 214 166 1 42 73 20 71 68 148 4 58 208 19 186 91 179 149 102 19 10 172 196 4 101 233 90 29 1 103 0 18 163 242 159 55 74 229 244 84 138 170 235 29 149 145 255 5 58 127 167 63 241 180 47 94 236 222 167 124 215 8 24 25 188 228 177 82 248 24 24 56 97 196 96 0 230 223 239 220 132 38 111 59 65 169 131 209 66 50 2 190 105 59 239 26 254 194 
74 25 231 52 112 15 191 72 245 165 47 39 233 127 181 231 167 45 141 50 179 87 124 151 76 137 123 250 250 9 2 135 152 118 161 213 32 111 5 179 201 50 119 238 142 163 87 216 21 119 82 204 70 84 93 137 6 191 118 80 29 230 20 101 146 9 107 163 245 32 42 67 152 250 8 153 241 63 129 195 38 96 191 104 10 33 24 89 9 245 65 229 86 176 93 168 130 70 174 65 
30 173 232 233 61 204 137 108 32 61 189 58 29 244 91 207 46 178 81 190 86 158 23 7 222 106 207 13 156 209 61 57 72 174 188 161 235 56 193 184 146 163 53 75 97 74 135 74 26 146 112 68 162 144 10 232 107 77 182 62 157 72 33 239 128 143 100 165 219 66 231 212 87 70 182 68 144 139 17 88 193 139 146 179 196 112 176 0 234 89 193 195 204 108 173 195 238 151 227 176 
49 130 225 130 224 136 68 40 226 22 228 148 10 117 201 110 199 102 203 55 61 43 53 156 168 164 67 98 4 204 206 200 92 5 238 161 168 129 32 232 17 100 199 168 83 78 94 69 75 78 225 189 58 46 125 13 90 7 28 21 83 127 74 29 73 193 235 72 228 91 88 7 146 216 104 185 6 19 117 134 223 20 207 149 192 36 196 76 195 111 92 133 242 67 9 211 169 75 156 118 
199 166 249 27 244 44 45 73 121 123 73 246 12 246 94 237 211 94 166 161 59 100 75 133 11 169 197 7 117 184 252 38 92 15 152 253 6 55 118 58 26 16 6 135 224 108 11 214 184 22 111 244 124 246 192 16 211 222 113 108 41 141 161 92 233 57 15 145 34 191 6 242 97 100 76 191 225 26 14 192 45 9 83 38 22 70 183 151 81 133 4 78 217 234 31 150 16 7 55 22 
83 108 248 161 156 207 248 31 114 118 51 179 244 131 15 147 104 55 246 141 83 119 175 169 24 214 14 193 225 138 188 57 174 90 117 236 36 6 87 197 143 251 102 153 55 199 155 220 240 68 79 217 26 36 12 38 184 97 70 34 123 29 232 164 199 213 169 150 83 62 114 56 170 204 6 102 124 42 217 125 120 119 63 6 251 145 234 141 77 109 211 34 210 116 227 218 125 254 77 0 
170 172 231 167 114 62 203 231 191 27 37 93 118 210 132 214 88 202 27 224 223 188 148 68 224 198 10 227 211 60 206 89 85 36 214 145 172 111 210 4 111 242 153 38 148 63 221 0 28 203 168 234 28 148 174 111 25 3 177 52 118 8 0 206 7 61 216 79 141 31 92 4 170 28 13 112 186 217 2 23 254 61 100 179 95 201 214 13 209 27 56 132 84 12 30 29 102 12 166 202 
205 120 116 107 136 210 44 203 70 204 4 168 182 101 222 161 115 254 56 78 167 62 101 59 120 148 182 144 35 254 246 156 167 214 172 127 42 188 233 185 23 207 121 80 250 148 68 124 70 71 64 191 85 224 2 53 157 216 162 19 14 189 201 136 103 54 7 249 38 114 168 147 89 139 3 32 181 148 214 188 153 85 99 15 251 23 254 2 189 218 188 133 208 244 8 97 12 9 222 107 
31 194 48 80 182 123 155 177 135 58 75 97 74 217 64 211 135 177 164 221 169 254 2 41 64 247 226 76 168 41 51 10 125 63 59 166 219 168 17 145 104 118 90 34 23 186 91 168 188 51 3 185 77 98 221 61 50 184 101 51 169 172 125 237 227 47 197 6 124 244 196 91 93 221 52 124 65 199 76 211 201 120 28 249 121 217 169 57 32 149 24 120 231 172 16 1 11 193 79 203 
123 140 233 234 52 187 81 221 76 15 193 1 51 242 119 196 145 183 32 190 173 68 59 86 227 58 142 231 131 63 134 151 10 193 68 94 87 255 123 202 124 147 123 61 37 202 108 29 189 0 149 102 14 203 1 166 200 215 31 171 37 183 1 215 98 64 118 193 4 199 90 133 192 10 85 85 102 137 175 206 175 112 203 206 198 248 145 60 195 107 222 71 75 128 138 93 173 191 141 239 
112 167 77 153 212 235 192 139 150 32 199 182 14 254 67 109 65 209 72 4 85 15 50 60 92 253 255 51 46 161 109 192 249 135 99 29 25 170 231 0 136 85 46 96 29 74 40 58 244 194 154 199 99 124 55 65 40 32 64 48 215 67 97 184 255 6 63 196 85 204 106 12 24 178 60 241 108 255 4 198 250 200 191 240 67 176 250 189 187 236 78 28 224 177 176 28 180 241 178 100 
105 22 88 102 182 88 234 207 206 114 80 139 243 65 203 203 4 15 249 103 141 26 161 198 115 239 92 3 182 215 59 10 238 162 72 116 183 174 199 33 230 212 221 39 62 200 196 115 232 173 74 118 12 97 183 158 215 153 47 148 28 237 76 233 48 236 39 159 226 91 105 39 54 25 168 132 41 114 24 205 96 11 48 119 84 157 227 175 161 14 187 133 43 191 147 202 111 154 159 114 
75 26 176 112 93 90 47 68 166 195 191 111 46 30 211 84 237 167 215 204 89 67 245 16 179 42 67 155 240 62 206 146 198 183 43 11 233 21 151 27 10 255 158 41 131 34 54 77 250 125 249 181 196 43 8 12 83 169 217 75 214 120 173 155 146 240 114 174 167 122 197 205 34 28 217 7 182 223 97 162 141 55 252 148 215 103 246 49 12 63 235 179 95 64 207 42 85 1 154 202 
223 50 139 36 134 218 235 220 133 107 247 69 183 22 48 101 244 132 180 25 113 72 62 152 125 36 173 69 214 64 150 26 70 212 74 137 175 135 211 151 96 220 253 101 212 208 225 210 150 16 75 251 178 216 93 227 31 130 120 114 51 45 40 90 165 78 118 72 16 61 162 108 2 253 74 170 44 76 11 175 112 42 224 80 63 13 206 32 144 216 52 188 237 33 228 124 10 225 9 192 
148 104 111 246 85 110 39 77 6 223 130 205 39 211 228 91 74 65 25 103 98 113 135 112 245 33 72 21 168 165 91 86 38 131 147 95 105 62 56 201 179 193 128 100 46 236 245 162 209 171 136 204 232 60 169 195 213 26 113 74 89 167 166 230 75 207 127 60 255 151 236 94 189 224 212 17 200 80 169 110 188 106 14 201 100 248 117 202 32 141 7 198 81 11 143 158 138 21 189 27 
157 238 233 105 4 177 105 214 151 132 52 243 56 49 58 97 220 97 255 151 72 8 53 10 253 108 209 70 223 225 39 157 121 82 116 126 193 3 84 88 246 154 68 142 138 240 202 149 250 58 101 27 118 66 122 21 103 230 67 252 192 65 99 125 50 99 102 4 219 84 157 8 69 135 255 18 105 94 239 65 70 186 0 208 212 43 115 148 87 219 53 115 114 250 19 42 162 69 22 98 
172 47 4 95 200 211 214 85 75 1 230 192 56 151 65 39 124 235 191 173 173 128 83 244 173 80 2 77 146 130 237 146 40 128 39 93 66 6 29 163 159 155 129 251 232 87 26 150 12 93 102 159 69 21 181 160 10 40 227 109 91 102 158 70 122 239 234 156 14 250 171 172 162 182 177 209 120 248 238 50 169 22 144 162 51 63 130 250 203 32 193 109 188 191 92 131 93 37 45 55 
3 240 163 101 21 226 103 254 205 188 64 144 225 204 60 226 103 80 224 100 67 144 83 212 0 151 181 132 219 156 109 120 211 142 0 104 188 214 20 158 212 176 193 3 11 162 47 152 47 121 237 227 207 140 168 52 63 66 26 229 26 96 45 98 205 113 160 4 76 55 239 202 128 9 199 97 147 253 204 121 35 85 1 182 195 128 154 121 195 192 65 233 61 247 194 113 160 118 177 107 
87 48 74 114 154 176 35 85 245 205 96 119 7 223 71 243 99 160 215 249 16 133 144 30 177 245 219 95 109 234 10 187 2 114 178 5 116 102 32 134 116 93 206 39 232 71 163 162 154 243 76 244 199 244 185 126 104 101 50 47 13 234 93 201 219 223 100 72 147 129 131 95 252 197 83 118 78 175 40 253 219 232 255 152 233 112 159 252 75 24 151 27 115 184 40 122 232 164 131 222 
2 228 63 152 67 56 58 38 213 216 54 66 182 226 205 29 169 87 27 53 156 21 7 210 28 151 114 83 98 155 153 130 0 118 131 134 219 211 142 140 102 93 19 72 63 33 116 55 229 222 23 188 148 54 169 254 106 98 238 43 175 106 100 204 166 171 57 34 168 125 15 232 46 181 30 101 180 204 168 132 153 61 132 191 97 97 28 219 147 42 101 138 184 192 209 101 16 167 102 97 
62 56 134 56 18 48 201 82 71 128 37 174 6 64 64 109 55 25 204 162 27 157 197 59 251 223 80 145 17 143 201 22 148 12 90 91 156 145 120 70 193 26 138 189 121 221 50 224 150 208 126 135 60 83 38 189 96 228 212 167 9 43 112 145 31 175 209 24 161 79 97 10 78 252 236 188 133 97 229 182 27 136 228 69 155 139 195 225 76 55 105 234 185 244 226 39 123 81 34 55 
209 227 171 191 198 43 211 175 76 7 154 244 17 42 34 62 67 229 143 220 71 22 194 177 137 157 62 64 167 173 79 56 203 36 10 179 27 93 164 101 77 171 22 54 92 212 48 103 115 66 76 104 79 40 244 197 186 124 236 173 64 55 218 57 152 111 63 76 122 21 138 182 85 14 190 84 178 154 8 56 181 174 196 106 167 241 108 202 122 219 118 143 95 207 234 255 16 43 219 114 
253 72 92 42 246 240 175 228 236 197 101 181 114 235 74 179 155 251 50 237 144 145 140 176 140 119 183 241 19 75 113 168 109 34 229 38 35 231 125 58 26 6 174 218 155 11 57 143 92 38 158 63 214 246 125 74 134 135 218 12 97 106 11 160 121 87 217 114 135 73 125 29 225 91 238 2 98 164 79 77 0 17 90 223 3 141 228 129 138 100 143 128 132 211 154 224 137 113 238 190 
30 148 47 212 187 240 0 63 83 151 59 164 149 109 138 244 64 203 39 138 170 186 172 253 200 170 198 182 223 225 38 134 137 59 44 232 118 136 182 12 171 193 205 27 69 21 127 19 47 235 86 29 19 2 167 128 96 157 161 209 141 212 123 181 143 23 135 214 83 21 180 242 93 50 183 44 166 213 134 141 52 181 219 46 131 9 222 42 76 74 129 210 188 133 82 92 97 131 171 187 
83 7 95 190 170 40 170 199 25 183 27 27 243 134 184 25 142 109 9 198 103 94 188 23 215 44 67 216 149 252 113 199 138 85 55 41 143 226 15 132 20 138 220 209 57 227 220 67 155 250 179 35 187 192 56 226 28 156 187 8 136 35 197 9 126 25 27 84 43 118 216 96 37 29 122 83 193 10 110 78 23 17 55 234 22 91 185 3 247 108 224 12 138 234 111 17 146 185 168 250 
61 71 247 53 229 51 160 113 79 171 95 221 224 14 132 224 22 43 32 93 5 79 215 133 31 137 7 202 143 114 97 250 48 52 147 185 0 115 206 70 63 10 21 159 111 157 185 205 254 168 107 183 245 88 45 254 138 119 71 32 218 156 144 243 60 187 56 131 166 64 198 116 211 252 159 4 178 38 109 113 227 12 197 119 39 185 172 183 206 244 171 36 48 5 99 102 84 38 72 111 
145 254 220 88 44 177 229 34 115 75 143 35 64 242 42 227 18 108 183 60 70 11 46 28 167 215 105 89 210 119 130 54 57 75 68 165 176 84 88 0 137 9 105 207 184 219 142 87 144 97 13 167 220 114 241 235 183 221 250 208 17 236 176 155 251 204 19 162 74 130 152 71 110 121 8 85 254 166 47 52 196 37 168 108 128 167 75 220 233 165 250 93 19 47 142 103 27 159 140 159 
54 147 132 233 53 147 127 106 41 181 155 41 35 67 129 188 80 165 130 225 250 186 134 52 141 181 112 1 22 228 61 136 200 18 174 28 96 176 165 78 181 80 32 182 37 123 94 158 215 33 17 22 237 255 114 226 143 71 135 213 63 41 146 99 2 105 69 93 15 105 56 142 80 122 56 103 255 36 84 71 240 9 0 125 112 9 114 35 173 207 93 183 134 241 251 37 191 35 173 80 
222 3 46 0 123 16 143 231 103 249 134 39 248 103 60 237 189 69 3 42 107 141 70 123 57 154 133 112 161 181 94 185 136 199 244 127 32 227 252 6 154 242 164 160 12 198 94 17 125 83 205 75 190 63 81 219 168 238 17 113 244 40 146 58 71 128 82 129 151 193 245 102 126 53 103 18 221 81 194 222 211 6 51 252 189 166 88 182 138 13 81 158 204 95 241 176 186 12 21 71 
202 72 161 136 30 243 222 82 168 17 15 53 198 210 32 253 11 135 91 105 87 33 76 55 106 180 69 185 152 159 155 215 34 150 240 246 153 74 214 14 86 114 184 31 227 111 95 56 41 248 132 33 189 198 45 220 225 159 156 172 250 181 107 229 19 195 23 213 164 143 252 254 89 20 172 82 32 105 207 87 72 48 144 52 109 162 223 215 160 38 240 7 151 245 240 161 52 76 245 22 
218 194 49 42 177 163 136 33 148 250 106 75 184 241 67 55 8 81 121 114 45 152 239 220 36 240 222 52 193 174 36 227 110 32 171 96 232 237 102 138 119 164 215 185 53 69 99 224 58 222 45 181 143 32 123 109 6 41 40 242 193 171 191 112 51 249 23 214 219 11 75 247 122 65 124 66 85 70 149 49 24 28 80 239 149 61 187 181 214 237 174 214 222 26 18 82 166 214 175 169 
36 149 229 219 155 185 205 87 16 191 40 156 231 124 107 182 192 116 212 47 50 95 49 58 139 137 255 145 124 234 204 35 2 78 120 217 75 210 232 7 244 122 230 117 199 137 49 53 229 248 125 13 159 196 81 115 202 148 27 163 249 212 62 5 139 191 47 161 223 171 246 177 244 85 185 231 253 178 119 3 57 252 232 210 73 142 41 44 112 217 176 9 215 230 33 191 63 11 209 148 
124 98 199 8 2 83 200 152 253 77 236 131 151 177 185 200 67 61 67 5 82 172 120 58 229 109 37 95 84 15 1 144 126 121 193 154 61 140 225 196 221 136 200 203 165 78 75 10 82 243 239 14 117 122 255 57 77 191 116 228 221 217 110 252 29 61 107 212 18 43 71 71 15 24 20 155 212 226 14 113 116 28 79 66 237 221 163 112 70 152 108 1 189 91 183 202 34 120 146 52 
43 242 244 167 83 251 108 169 1 204 237 229 199 126 167 128 18 200 204 94 198 228 201 98 0 132 107 135 216 149 238 40 242 250 131 49 253 191 9 166 19 195 57 221 233 200 24 120 107 70 145 159 192 62 112 202 208 2 50 54 216 9 250 86 206 63 95 65 48 253 234 17 213 227 200 220 175 48 127 7 196 153 45 65 192 26 186 141 10 63 196 109 40 42 172 254 134 159 118 222 
30 67 247 137 178 237 93 226 184 85 208 40 105 199 88 31 73 93 23 23 231 160 164 82 78 104 254 93 3 85 203 223 251 37 214 7 18 34 253 111 247 127 204 131 183 17 58 86 165 58 165 240 121 251 10 12 207 39 83 126 69 248 243 247 74 43 159 238 2 235 56 44 112 234 238 42 34 212 229 203 108 219 232 111 92 161 252 30 218 177 45 90 90 56 162 155 247 205 135 238 
228 206 9 186 93 98 146 19 159 203 46 112 113 78 84 65 193 228 201 125 223 92 114 30 174 85 112 29 76 246 50 42 67 106 158 120 247 20 181 34 200 142 14 230 163 67 44 4 57 119 211 89 202 206 140 181 228 50 234 156 253 39 65 151 210 98 56 232 244 156 223 150 188 76 209 25 92 149 15 89 195 87 63 250 101 53 74 113 125 13 74 152 167 163 141 232 190 250 191 198 
49 125 136 173 224 250 224 39 11 174 72 156 62 33 202 130 162 93 20 117 122 87 151 114 178 81 126 106 255 145 19 159 4 22 32 228 15 175 119 56 132 234 171 235 240 142 17 122 16 214 52 227 25 60 97 182 121 90 127 218 112 198 224 90 231 107 37 127 145 146 45 146 2 20 112 41 239 108 147 66 80 171 1 12 121 225 13 245 141 36 194 241 4 150 104 86 182 36 170 197 
244 221 227 235 170 218 97 248 104 110 37 219 1 93 196 36 200 38 235 193 196 166 23 200 229 159 60 227 49 69 32 109 107 28 110 78 164 133 211 160 242 244 132 169 59 252 225 112 208 151 248 199 39 251 153 176 175 116 131 37 178 27 16 237 52 76 219 82 40 152 88 172 233 60 255 54 47 7 8 164 107 123 46 83 4 159 137 243 198 27 245 244 46 27 70 30 204 2 77 255 
25 194 214 137 5 55 109 216 106 232 178 229 214 142 133 42 52 86 17 233 114 155 232 82 24 151 253 21 12 18 190 49 26 205 41 238 138 104 80 39 175 255 14 118 99 152 82 223 223 240 143 104 74 0 41 2 208 248 92 204 208 110 53 96 73 118 56 137 165 248 247 183 99 250 233 178 32 137 174 28 168 88 200 26 8 186 237 170 159 14 206 88 107 251 58 146 148 224 95 34 
54 192 178 207 44 66 128 80 39 248 67 29 210 254 96 110 135 179 238 230 88 147 70 136 203 91 255 235 92 234 11 24 114 61 174 61 134 23 49 51 10 152 67 194 247 133 36 149 226 191 33 242 172 221 126 119 58 165 25 107 224 185 115 7 47 157 166 64 38 176 47 122 100 71 194 59 191 113 193 91 190 198 169 112 59 202 14 119 78 157 54 78 81 218 35 20 230 216 174 72 
207 208 165 255 154 11 58 141 131 77 38 192 180 232 86 194 174 196 104 12 49 188 214 90 70 17 183 119 159 230 4 20 221 153 81 134 39 183 120 102 48 184 228 248 56 188 78 185 168 234 237 215 206 29 247 94 186 22 78 245 225 25 41 218 116 143 84 100 47 67 59 45 74 240 32 81 32 175 148 159 21 214 249 0 235 210 63 34 111 244 26 219 167 226 34 92 75 196 126 81 
35 133 33 74 150 215 238 114 5 68 64 76 125 79 208 110 73 161 63 77 93 86 117 222 123 32 164 75 84 244 28 100 240 26 228 199 109 34 135 32 149 118 68 245 100 25 1 36 20 39 250 247 220 211 161 166 79 246 175 170 129 195 84 205 183 89 188 89 250 187 255 210 19 60 198 40 53 157 86 141 220 57 232 123 144 141 204 41 220 116 148 185 240 41 82 57 45 234 27 255 
79 120 212 141 63 100 83 16 184 108 114 109 27 63 70 53 3 101 220 28 213 21 243 189 36 197 141 109 38 164 217 231 226 224 148 15 191 133 217 242 120 201 224 152 15 11 183 210 141 63 236 219 97 28 20 32 56 179 250 218 222 151 56 125 189 33 162 107 221 11 157 56 184 221 250 195 30 212 29 206 213 49 127 31 90 187 15 14 147 35 227 67 39 123 170 44 57 252 157 21 
228 169 173 117 26 164 226 124 98 226 217 203 176 124 170 255 218 105 205 230 233 80 29 201 20 122 125 141 76 158 2 249 48 191 236 170 255 14 230 17 139 202 224 117 228 28 132 168 236 85 220 230 45 125 195 30 131 111 71 130 74 191 123 154 93 185 242 147 176 223 247 224 217 213 151 164 207 184 234 9 50 46 183 25 105 3 112 100 153 123 141 225 118 249 69 64 8 38 39 253 
97 3 252 10 67 41 246 61 147 203 97 141 60 214 79 22 83 144 117 205 219 185 186 91 190 230 165 134 115 171 225 97 223 224 101 128 101 175 61 88 223 177 62 232 9 81 150 104 0 131 159 185 37 7 20 195 227 6 134 68 180 119 223 215 105 109 2 141 157 159 199 81 75 122 178 77 206 104 57 126 81 163 198 112 150 94 164 50 88 200 209 197 75 154 168 24 41 96 248 245 
173 77 245 2 2 57 225 156 222 209 37 119 192 101 145 12 71 111 198 139 144 225 62 84 44 67 153 166 18 30 156 54 46 148 142 216 58 3 16 80 142 138 100 194 120 81 56 124 62 222 36 116 55 126 103 86 103 25 245 127 12 125 20 232 209 43 251 81 239 24 231 40 116 5 103 197 253 60 13 146 41 193 182 230 113 18 176 153 118 248 206 126 159 3 164 178 141 125 157 236 
183 240 237 77 51 81 168 186 166 46 68 253 253 51 209 43 221 184 190 66 60 83 241 190 167 68 196 166 133 40 35 35 184 127 171 181 80 249 75 22 134 16 206 33 215 155 93 186 59 64 179 198 250 196 251 136 239 85 245 14 28 24 198 255 247 126 149 65 232 179 86 38 51 40 95 248 236 139 16 216 168 162 128 196 56 194 117 47 149 65 144 95 220 76 62 73 27 187 8 25 
131 96 21 108 84 177 77 181 200 6 71 239 242 214 244 107 169 252 102 157 89 236 12 151 150 69 229 226 64 26 94 2 16 225 225 239 136 169 108 236 167 23 165 191 171 233 79 58 50 28 177 79 213 215 175 204 52 12 112 38 101 123 130 29 116 119 58 198 245 216 74 236 39 94 36 158 193 38 236 113 34 153 246 136 253 223 128 62 97 237 128 232 230 113 121 209 28 76 211 185 
142 192 171 215 135 151 187 125 119 68 129 153 1 167 141 103 4 141 76 220 89 9 138 218 115 227 109 102 18 145 97 69 69 69 188 199 209 228 221 122 146 19 150 64 139 201 92 238 220 159 245 205 153 167 122 120 41 235 100 105 194 220 64 223 253 101 159 234 210 118 48 178 196 13 197 15 45 39 213 13 119 107 3 246 28 30 185 181 159 182 150 135 25 197 194 17 205 44 172 141 
197 48 161 145 140 197 135 239 238 192 28 235 215 159 91 169 186 67 169 227 79 104 5 37 250 103 220 207 31 221 9 87 157 190 141 226 240 195 58 118 236 48 184 232 162 88 76 89 247 200 249 248 129 15 146 29 161 19 34 64 116 4 104 158 198 171 174 246 47 232 118 220 147 20 53 242 199 16 31 40 223 131 23 75 10 27 169 233 31 30 80 154 97 143 106 208 186 220 82 251 
21 145 152 64 19 2 198 158 79 193 166 99 242 70 199 151 166 52 186 221 122 105 22 173 173 43 129 222 87 226 44 79 186 12 126 112 27 175 16 174 88 218 199 11 203 58 21 164 65 170 28 253 240 114 252 98 82 127 16 148 191 63 120 234 111 3 222 116 156 24 254 150 213 113 34 227 171 121 204 167 134 105 42 17 22 5 39 122 248 57 28 133 239 251 182 228 11 170 34 83 
246 9 146 194 249 5 49 205 191 16 135 201 33 166 110 95 99 154 1 11 142 169 173 142 99 80 220 37 3 16 140 222 64 217 37 149 125 187 165 200 0 185 8 71 128 141 125 74 196 252 133 100 129 183 137 165 169 207 88 239 108 226 156 247 82 130 183 205 168 89 84 76 148 232 140 44 126 173 225 125 189 66 126 25 164 38 170 88 57 42 45 181 56 144 127 144 222 145 230 169 
13 162 159 231 70 116 27 150 23 87 7 140 157 255 36 75 121 62 99 117 165 162 214 5 209 254 106 13 255 44 10 9 63 233 246 38 34 65 218 252 160 183 254 114 36 21 247 2 120 224 27 104 167 156 4 251 204 200 61 161 203 213 62 178 84 65 1 172 47 2 2 235 157 115 53 39 38 114 253 171 95 229 176 220 209 71 64 28 135 118 244 89 212 146 19 245 17 41 144 90 
87 173 59 17 218 122 204 212 94 191 211 104 148 199 47 0 185 179 249 228 23 253 20 172 134 202 91 210 43 96 220 36 40 16 212 104 143 5 128 29 209 173 85 252 180 199 129 48 36 122 122 213 20 33 57 116 88 172 181 63 20 198 39 204 200 65 44 233 61 226 102 40 158 173 252 135 43 130 154 83 2 197 243 36 253 205 184 211 129 24 129 81 184 118 46 230 153 180 15 254 
202 197 95 144 172 208 9 45 56 70 172 59 254 164 245 100 142 21 114 91 90 240 105 186 44 206 39 214 190 172 100 64 26 54 30 189 43 147 196 35 105 52 129 205 202 251 169 147 226 11 233 225 86 2 28 136 86 225 208 167 57 59 102 246 98 244 166 237 212 11 31 193 39 141 167 100 43 159 89 122 138 32 94 253 141 47 193 8 225 47 142 242 168 103 117 57 244 134 160 120 
67 170 55 41 96 55 54 189 4 34 212 20 226 140 148 222 244 192 184 126 121 11 221 156 88 42 211 73 15 41 131 178 27 153 212 34 220 196 143 16 104 22 135 163 96 199 227 96 22 71 105 6 105 151 253 79 110 1 116 255 228 11 127 123 80 200 79 105 244 127 193 58 252 149 169 42 94 126 17 92 80 166 11 171 195 240 123 230 144 199 187 129 134 27 8 75 121 30 29 53 
139 48 180 163 52 11 150 142 11 77 222 38 36 162 248 106 65 5 134 249 230 146 162 34 228 163 141 159 52 131 196 220 55 145 147 189 29 220 185 168 69 39 55 99 62 22 101 179 238 110 226 143 76 79 151 208 205 127 67 186 215 36 97 205 247 2 86 50 195 129 129 70 144 236 199 226 212 232 59 230 66 167 9 56 131 174 27 218 212 97 134 150 9 253 141 229 31 205 50 87 
98 164 199 137 91 213 45 198 134 236 162 73 0 149 197 11 217 82 31 231 151 195 116 238 104 175 44 113 254 84 247 200 217 117 84 57 70 136 165 200 91 154 126 209 210 93 68 150 183 59 54 173 41 197 56 127 245 72 183 227 66 202 189 163 1 1 234 79 144 60 197 77 254 30 197 185 68 26 18 234 216 147 212 53 72 8 101 96 200 16 58 52 145 123 8 82 140 87 93 207 
192 91 24 20 62 241 102 198 170 28 71 69 35 123 93 61 48 174 188 230 243 61 124 58 52 56 243 224 241 172 48 182 165 140 144 88 39 183 240 59 72 21 7 35 168 132 69 86 172 157 22 145 163 58 13 212 227 0 65 71 41 114 196 241 29 210 31 230 168 63 81 20 30 64 17 174 129 183 118 202 62 246 207 97 96 91 36 42 155 226 78 113 56 226 82 52 48 229 33 104 
127 201 19 129 68 149 191 105 161 191 172 49 89 208 96 16 156 231 88 159 118 151 136 85 39 112 150 16 102 17 80 15 69 149 89 204 102 225 12 228 120 24 155 97 248 17 130 184 202 103 11 78 48 237 89 68 94 62 51 60 88 18 103 209 176 67 155 59 198 106 130 47 0 87 105 28 149 32 254 209 70 193 190 108 180 35 108 221 165 254 23 200 158 235 65 230 76 181 212 112 
224 188 219 154 197 212 4 242 182 156 9 231 238 206 168 81 26 28 96 211 220 94 2 66 175 65 63 134 149 3 21 180 89 16 2 144 65 41 61 57 13 188 177 118 148 129 17 63 199 136 107 39 103 183 84 162 248 84 81 185 196 90 252 220 106 116 72 91 94 181 47 72 33 202 51 247 17 183 69 90 36 28 221 133 253 166 36 30 94 157 217 252 58 52 161 200 37 154 48 238 
25 13 139 120 194 89 38 199 136 95 227 202 157 175 39 71 141 118 166 111 20 241 51 69 245 193 236 241 141 226 180 177 93 168 30 79 210 13 122 11 208 41 127 129 100 203 217 176 100 134 25 218 87 53 240 119 216 51 55 118 175 5 8 98 239 11 90 159 96 188 249 121 112 106 87 220 94 15 189 145 59 53 219 137 149 130 3 140 90 75 37 171 73 21 119 128 25 226 193 20 
83 35 174 107 59 253 121 142 103 46 127 146 186 185 158 77 213 211 80 232 170 240 251 195 15 151 35 212 140 96 102 82 93 173 64 97 182 77 123 233 43 66 78 81 102 29 158 36 8 92 128 218 202 13 88 52 26 250 109 220 66 192 114 101 49 144 239 200 26 255 14 70 188 121 52 70 80 145 55 2 142 162 72 34 41 55 96 37 34 203 202 48 215 89 223 209 84 115 0 72 
34 231 143 119 77 214 231 80 190 151 27 69 89 203 214 7 53 195 199 209 21 160 133 12 77 46 246 200 58 102 23 29 253 198 232 214 9 196 14 54 51 138 144 54 162 125 176 138 143 151 2 240 167 48 101 51 74 32 118 151 203 209 5 249 89 76 146 52 179 137 146 232 80 243 241 183 19 163 121 119 211 147 190 197 31 22 6 199 164 107 200 183 92 110 152 94 16 175 177 29 
66 154 115 70 197 173 240 67 49 31 118 237 24 27 73 49 169 85 251 204 17 83 48 49 132 211 184 232 74 28 212 22 22 25 85 58 181 145 93 48 167 178 135 220 6 64 34 203 146 176 160 21 48 95 238 126 51 241 37 53 168 204 29 37 38 43 30 43 229 136 1 225 82 231 199 102 132 223 241 162 187 203 29 230 38 89 171 242 207 238 170 127 247 200 21 40 64 165 163 158 
154 246 102 87 195 0 75 248 163 224 236 240 168 12 80 241 241 54 225 90 103 64 172 201 184 97 233 15 58 219 255 228 241 172 8 60 255 94 148 129 245 226 251 117 229 190 142 220 80 19 100 58 49 240 102 32 61 79 219 196 226 98 91 211 85 60 170 235 177 124 101 65 54 138 215 157 36 124 52 193 113 14 122 249 221 146 129 126 28 203 71 131 194 23 101 101 89 252 23 222 
142 2 150 210 251 103 111 40 231 147 48 154 35 14 152 188 64 79 158 233 218 102 201 201 104 168 14 252 56 93 251 158 85 196 135 23 80 209 146 111 60 66 170 197 249 6 87 251 247 236 224 206 88 164 237 165 255 93 152 150 50 178 227 42 197 10 88 61 246 138 154 212 156 101 63 24 222 124 213 26 73 175 93 241 25 74 182 134 111 104 52 46 228 142 18 141 180 123 160 221 
127 37 185 2 11 194 84 21 148 165 13 119 62 178 230 167 224 157 219 66 144 18 124 67 184 121 10 127 135 199 33 213 223 9 203 30 116 242 86 5 129 122 81 83 245 123 234 240 173 149 176 50 25 143 205 123 170 145 226 83 10 118 187 198 213 98 162 231 116 44 69 181 106 221 176 216 94 245 127 83 149 106 159 108 92 3 247 137 68 222 180 6 244 121 13 22 136 170 137 139 
90 67 212 149 94 15 71 102 192 72 228 89 110 111 239 160 193 101 26 185 52 46 216 39 141 23 172 37 176 210 41 7 96 251 3 168 115 122 54 87 25 252 82 217 196 178 90 75 126 162 37 43 0 54 195 137 11 134 190 23 217 180 128 108 249 6 163 246 235 13 182 51 249 2 118 28 125 19 52 107 32 236 227 97 152 179 231 114 155 207 173 130 151 170 129 237 196 153 250 155 
208 140 80 239 199 252 31 243 137 149 58 68 145 237 0 36 123 127 19 62 211 49 50 141 171 159 182 69 197 140 196 57 38 249 100 221 20 139 136 99 231 12 157 52 225 205 189 248 78 79 255 1 181 183 90 211 107 232 180 237 110 125 26 187 131 239 18 38 142 197 41 208 90 208 175 48 58 66 160 5 218 185 8 156 63 38 191 224 23 64 252 14 107 31 61 222 120 188 204 45 
77 165 250 160 11 21 155 112 165 205 239 238 5 150 247 162 226 76 82 117 69 138 153 87 255 242 70 211 194 101 255 172 58 252 144 240 227 164 97 252 142 205 47 24 22 44 240 160 104 63 253 126 159 255 171 169 114 221 236 238 207 66 0 171 133 193 144 135 58 5 91 160 53 236 65 118 231 181 220 103 31 80 227 52 118 157 155 72 41 187 4 69 159 20 21 191 82 8 53 216 
67 191 132 203 58 210 178 226 11 124 104 126 90 72 42 214 0 28 74 99 105 98 94 66 154 233 148 76 60 61 94 184 104 167 115 209 193 30 32 157 212 165 195 3 91 195 230 147 123 117 62 65 212 174 201 68 19 218 69 100 134 231 106 82 134 119 103 15 86 112 220 227 74 251 154 228 106 123 171 143 187 239 87 225 117 88 13 218 251 193 58 147 203 34 126 186 8 42 155 183 
160 54 119 143 37 74 227 231 167 67 90 215 6 4 111 187 0 139 74 115 112 36 69 69 209 174 218 79 110 153 24 21 242 247 126 132 205 137 114 187 154 52 112 112 178 91 235 111 220 86 137 214 158 88 201 18 247 98 147 88 93 204 233 210 137 224 94 200 46 211 198 182 91 207 60 127 56 21 196 225 66 88 71 169 255 61 153 35 30 194 97 137 138 171 37 235 157 190 109 98 
127 80 6 219 192 31 4 146 187 245 224 170 89 176 227 104 0 97 88 26 113 160 39 241 127 91 80 219 3 81 86 50 158 111 159 151 113 18 73 179 154 248 91 17 120 137 63 229 11 46 170 80 190 216 112 47 216 8 74 100 197 200 74 165 127 133 207 235 198 57 227 21 103 132 76 59 1 193 115 67 54 78 57 48 239 103 238 95 247 34 164 74 142 89 244 50 133 167 232 42 
179 46 237 123 176 33 43 251 167 156 221 82 57 179 154 215 3 93 192 165 100 172 20 244 232 252 201 150 166 206 230 59 246 60 239 117 119 128 185 132 178 237 106 221 39 47 191 239 3 144 115 161 88 184 94 239 0 47 13 116 230 145 130 93 217 86 74 217 15 82 182 240 70 116 58 136 178 147 252 222 48 159 238 85 141 114 239 153 80 157 61 124 89 223 201 88 223 126 126 171 
154 87 66 89 193 118 119 167 82 249 9 146 5 219 149 79 69 74 185 101 193 153 172 230 242 214 102 158 193 149 114 213 231 26 151 234 28 14 71 103 255 201 106 154 39 79 168 242 0 181 108 84 250 146 201 117 79 117 226 204 5 155 184 210 61 165 136 203 197 150 237 109 46 228 132 2 10 113 155 192 0 52 221 176 92 222 226 174 115 5 103 25 200 119 83 230 47 172 140 173 
100 163 23 103 105 218 229 101 13 14 198 43 171 154 231 131 215 64 38 56 91 156 132 197 249 91 91 235 84 112 241 27 105 141 80 73 143 225 81 229 170 195 124 163 220 0 139 167 212 36 130 149 100 40 98 82 36 93 125 105 81 39 110 224 148 105 107 59 192 169 166 73 116 80 182 224 185 75 0 9 23 207 3 106 62 187 147 213 111 158 102 113 11 135 158 223 225 223 147 250 
186 155 6 205 151 167 250 11 131 183 86 143 90 230 169 220 132 117 187 205 159 119 183 172 146 195 137 22 88 236 241 20 75 227 105 220 165 85 131 247 210 105 172 57 238 159 85 188 66 232 135 139 9 46 78 79 119 85 151 53 172 42 217 246 162 253 84 135 192 233 252 23 61 140 8 97 185 20 60 110 226 15 183 119 175 212 219 109 255 209 145 94 73 85 226 210 238 67 241 201 
117 36 118 35 137 213 191 112 105 31 151 223 195 224 174 129 85 230 23 93 115 158 43 95 107 53 8 21 107 149 243 35 233 94 160 36 208 94 110 29 195 172 64 212 236 70 234 121 79 34 142 123 146 208 163 47 142 103 252 241 215 68 35 99 174 104 137 253 148 129 225 55 149 10 245 9 97 13 217 116 197 111 146 173 168 52 51 219 46 162 132 156 33 88 64 149 119 68 238 255 
228 135 219 88 148 177 147 65 165 156 117 19 123 52 220 29 230 185 150 63 90 135 92 199 20 85 145 80 58 215 240 52 30 240 132 9 141 233 203 190 61 161 211 68 201 20 226 27 205 74 150 2 37 182 61 101 254 105 47 68 216 82 190 120 179 85 212 241 190 189 100 30 75 106 88 201 147 50 214 50 251 190 71 11 16 68 121 236 189 47 5 141 105 105 74 231 243 191 179 111 
240 98 55 188 173 219 221 192 253 245 12 235 241 76 0 20 98 214 119 54 85 121 61 184 251 28 153 253 103 120 217 62 117 120 83 108 28 183 152 124 158 252 237 140 90 146 29 243 93 54 128 163 108 191 105 183 20 188 113 105 111 226 164 235 173 171 98 231 103 254 104 226 32 230 134 42 205 3 6 61 182 234 166 51 137 79 219 146 218 218 129 142 240 251 146 135 17 184 5 205 
254 8 117 49 216 218 12 177 253 1 33 142 145 236 227 74 128 232 20 122 45 198 146 47 34 68 1 242 204 15 22 226 168 112 253 69 158 121 39 209 62 117 62 42 183 212 211 111 67 98 65 222 54 95 203 42 25 209 67 70 129 239 220 68 198 236 1 62 57 3 232 245 171 107 238 149 46 114 239 204 37 170 84 71 17 225 24 9 106 68 28 12 88 79 95 237 243 5 37 164 
214 100 83 49 139 49 137 175 235 196 221 3 80 113 59 37 48 214 196 77 14 30 50 70 236 210 172 112 59 59 245 52 10 0 164 8 124 107 39 228 41 223 56 202 103 59 204 78 106 94 61 52 27 39 166 208 56 8 68 114 93 156 132 36 100 217 25 53 226 0 67 183 147 211 189 134 197 141 194 101 142 238 25 187 101 41 70 179 37 48 178 38 21 44 82 55 57 251 55 69 
24 135 126 111 60 164 209 176 197 66 122 159 213 113 89 223 102 254 247 107 115 15 69 104 225 250 146 134 131 119 16 227 38 190 94 104 148 65 36 159 242 165 181 19 196 243 39 182 83 194 41 150 206 225 126 86 66 14 171 204 163 67 145 7 218 53 245 233 142 134 186 253 250 12 3 73 68 239 171 118 183 28 255 7 152 68 191 217 143 69 205 44 22 115 224 167 179 27 125 165 
46 149 166 123 18 177 118 59 148 0 140 132 227 141 130 180 131 82 224 194 224 76 53 168 53 108 143 247 71 104 26 110 134 208 112 55 83 154 152 218 116 119 114 52 31 3 127 27 216 128 172 133 153 201 55 8 82 58 25 126 9 92 145 127 13 223 28 59 65 237 235 51 150 65 248 109 133 216 99 205 164 118 171 23 218 152 201 52 14 60 11 69 31 128 225 179 204 81 64 88 
