P2
100 100
255
228 160 208 148 58 52 185 216 22 22 16 107 147 141 116 244 240 105 119 78 9 139 225 202 251 189 10 113 56 72 115 237 126 69 118 150 69 148 132 204 111 79 112 168 115 239 178 141 73 97 129 36 238 90 63 127 205 1 109 158 168 108 194 74 13 125 216 49 18 230 42 245 226 35 70 156 217 145 204 235 103 39 42 10 176 119 180 236 251 81 83 90 47 84 102 149 175 200 78 87 
56 190 161 28 84 173 124 151 248 119 237 240 218 133 220 125 161 13 128 97 209 111 219 133 96 58 161 195 255 46 238 127 208 248 196 191 36 88 204 218 99 129 210 139 203 88 255 182 26 63 24 200 81 240 61 95 105 174 237 28 226 7 139 131 9 106 37 157 155 221 210 145 229 121 55 100 206 240 53 198 100 96 185 45 190 103 90 189 174 33 3 174 196 235 134 123 52 152 223 135 
250 190 94 188 244 109 168 130 23 199 103 239 208 16 222 107 12 86 56 228 241 221 125 10 156 64 122 138 34 13 204 151 209 237 5 198 144 173 76 164 215 18 189 36 95 121 218 165 134 200 235 177 28 238 89 137 20 176 122 54 119 37 43 16 97 194 7 15 211 95 125 220 112 78 28 25 226 194 49 8 241 225 145 89 27 32 193 74 37 64 239 233 26 34 201 119 98 13 205 39 
236 119 9 181 25 76 67 50 243 238 17 180 222 203 140 211 78 90 68 87 144 221 21 155 198 159 186 203 188 110 166 45 9 41 234 131 59 179 251 104 133 146 206 37 12 85 225 114 225 149 37 53 46 33 246 48 236 10 49 222 83 48 153 84 95 52 183 102 6 128 138 109 110 140 19 84 38 128 200 213 29 162 20 95 142 9 196 48 196 221 121 222 100 159 22 87 63 109 111 3 
106 53 32 144 210 9 130 67 4 51 79 213 151 98 224 147 29 183 194 159 155 25 109 10 70 208 156 149 201 122 227 86 220 158 142 14 136 121 219 229 142 125 169 126 32 55 0 16 126 155 35 13 149 37 150 110 82 23 75 199 41 76 106 146 11 0 205 200 90 168 120 154 77 13 167 192 213 34 98 254 108 110 102 108 145 211 254 16 67 241 191 196 72 162 1 242 61 92 14 192 
2 36 46 85 141 243 143 7 128 221 248 4 18 7 110 113 80 63 29 234 130 207 119 81 41 194 112 136 106 235 160 38 153 236 245 44 175 68 57 123 173 240 172 16 111 100 191 226 109 8 95 222 114 21 77 107 155 104 43 24 34 12 24 11 31 12 142 143 216 224 169 39 14 106 241 193 235 156 166 80 148 158 73 103 26 219 62 63 199 245 212 50 179 127 128 76 95 237 138 213 
32 132 198 221 247 133 122 244 183 142 132 193 246 12 161 21 253 53 60 31 21 127 136 13 190 177 201 42 219 138 157 213 2 9 252 83 243 168 11 58 15 118 24 248 250 87 49 145 156 128 35 54 157 95 119 136 178 217 18 202 219 58 22 131 66 111 170 172 188 116 182 228 57 186 206 135 113 106 172 233 237 147 71 89 73 44 178 120 132 249 93 131 234 57 198 168 88 162 214 54 
244 228 158 70 127 63 191 248 196 28 20 12 244 153 240 30 8 10 140 70 85 237 61 193 90 176 63 148 189 159 52 32 197 165 253 15 86 103 159 20 123 98 94 26 242 239 149 72 152 100 42 141 10 77 250 189 138 224 159 1 168 178 235 10 220 146 33 90 55 116 144 140 252 71 235 214 58 171 40 99 78 30 183 189 150 67 179 124 17 18 74 208 163 136 224 26 174 162 182 216 
56 156 78 53 175 211 216 26 229 141 154 144 208 250 250 94 113 226 7 107 225 59 60 240 136 102 49 45 241 151 157 88 248 170 97 161 180 140 120 11 102 146 167 25 37 31 189 165 185 90 136 44 64 164 106 170 238 179 225 153 61 250 8 170 112 155 112 182 96 196 156 182 6 112 228 221 137 88 115 107 76 27 191 15 222 84 205 196 48 20 181 28 6 254 8 109 43 239 53 19 
62 160 46 179 197 184 222 149 197 50 22 187 253 249 196 187 81 237 27 114 45 109 206 115 85 55 0 97 84 158 164 255 224 232 1 112 41 118 227 32 216 203 103 148 59 143 14 185 134 186 5 142 73 231 100 145 154 179 128 137 105 23 176 145 52 45 71 202 236 152 238 2 6 52 132 92 187 157 6 28 29 60 15 190 69 130 185 173 147 60 255 2 144 233 158 215 187 55 25 171 
7 218 179 72 22 85 252 88 114 134 239 253 201 38 174 171 200 186 122 110 13 141 75 193 240 108 47 179 254 50 12 208 3 105 124 106 134 21 120 89 182 118 55 42 166 36 200 149 177 158 217 179 139 48 132 246 149 106 236 95 21 144 187 216 34 198 82 216 52 66 15 26 5 85 231 170 237 49 58 45 47 46 231 226 158 187 27 127 4 20 233 89 29 30 234 176 54 71 37 1 
43 122 151 29 170 39 175 201 139 169 62 222 198 172 211 162 29 125 23 197 8 54 110 15 107 201 234 141 177 151 148 59 88 181 220 135 25 159 213 42 242 182 41 135 172 229 79 37 165 37 24 219 218 153 202 116 88 102 50 132 176 131 253 99 68 183 207 51 29 196 0 175 109 29 181 84 37 56 195 206 125 27 132 221 192 149 89 74 6 109 140 15 164 36 217 134 65 246 193 89 
90 91 149 245 47 199 33 10 99 153 102 210 163 201 224 15 19 152 207 84 221 4 17 112 213 1 0 130 183 46 80 233 182 184 13 127 140 51 156 89 99 45 71 56 157 17 4 231 122 162 186 159 97 162 236 82 69 166 227 114 27 193 144 195 47 29 191 57 107 179 46 61 36 62 217 129 38 104 235 53 71 183 73 229 74 239 84 89 213 41 19 28 162 42 176 8 170 150 210 236 
77 192 202 10 160 76 50 54 156 62 203 146 30 217 150 50 85 14 133 40 132 13 45 165 223 127 128 57 101 128 225 146 85 200 59 49 252 134 187 47 158 59 6 215 196 125 67 124 128 114 126 138 201 225 219 176 175 216 156 255 5 182 234 167 152 34 65 155 175 191 17 207 247 189 125 207 143 194 192 119 82 66 191 71 64 53 173 23 45 76 42 119 168 105 12 12 130 174 179 133 
248 214 144 71 203 201 159 250 48 44 37 79 173 191 201 228 51 158 230 64 58 229 150 138 49 129 28 64 99 15 249 73 200 165 83 207 57 252 84 200 178 229 53 152 250 205 34 36 162 39 250 161 105 118 187 54 216 76 176 141 168 76 3 115 35 230 49 47 132 165 215 176 186 238 213 66 39 184 248 233 37 174 3 31 185 200 108 150 206 24 121 199 155 208 215 166 61 232 69 64 
236 80 2 171 15 125 196 88 140 75 71 210 98 118 112 115 177 145 167 249 219 164 77 81 34 214 129 153 160 234 225 254 85 27 15 122 52 22 38 101 47 222 103 54 112 35 172 46 109 9 47 237 71 165 253 28 187 49 1 5 42 177 39 118 149 231 250 211 36 15 237 78 0 103 6 167 181 151 117 140 154 35 247 170 182 116 65 71 178 143 135 137 176 64 96 181 63 82 238 129 
2 41 186 216 108 249 115 152 53 52 242 73 11 162 229 248 38 188 79 181 69 123 191 154 103 101 168 253 54 24 128 103 92 4 87 123 141 7 15 1 183 227 182 143 165 89 199 23 110 159 225 126 138 35 78 161 117 116 196 238 138 193 128 249 53 23 110 68 75 178 16 237 147 224 240 164 30 2 141 11 99 149 45 7 152 219 135 115 13 221 126 148 146 117 232 59 7 228 169 202 
106 124 129 202 10 158 117 100 204 89 108 107 44 85 102 94 198 251 224 107 115 184 25 124 133 204 142 119 16 121 238 195 240 141 242 13 130 117 7 2 106 182 88 190 126 244 125 32 45 0 234 228 123 183 224 37 135 187 96 116 34 245 65 169 235 43 51 200 38 34 151 175 209 249 113 70 61 143 141 50 32 40 35 222 155 39 23 45 37 93 38 131 184 84 48 226 239 239 133 200 
30 2 203 186 1 108 105 47 178 18 128 23 172 202 118 13 123 156 98 49 47 231 119 204 176 26 93 156 44 10 157 152 223 0 28 153 233 144 226 161 246 109 129 166 250 222 19 32 244 46 43 45 21 149 249 251 18 113 20 139 129 80 28 29 146 146 232 44 90 64 176 125 40 167 218 253 62 60 68 77 209 27 156 236 215 63 65 74 89 24 32 172 144 87 157 242 122 36 82 123 
147 77 254 38 75 228 43 170 204 172 23 48 213 130 133 12 98 244 150 79 205 10 169 38 207 12 73 82 180 119 166 192 40 47 56 129 86 98 15 100 88 7 74 54 203 181 6 230 111 2 83 1 129 214 236 70 92 123 52 169 90 246 199 65 35 160 56 166 4 250 240 200 64 17 224 74 29 173 182 37 70 77 125 4 229 120 31 195 36 165 149 235 39 225 243 87 40 43 159 215 
114 242 102 192 23 212 150 120 139 213 86 52 165 203 208 246 128 241 215 109 16 199 188 19 48 147 245 178 83 24 140 22 219 161 243 224 187 35 252 57 94 243 242 33 53 23 152 232 167 138 17 180 237 65 39 68 16 53 215 3 75 147 50 107 173 133 144 64 99 167 183 253 168 163 20 219 40 198 168 143 200 21 3 136 213 59 161 176 204 157 148 58 35 87 38 228 242 176 56 254 
113 242 156 111 100 207 144 61 224 117 196 244 73 119 45 131 49 109 203 239 95 182 26 169 213 17 237 126 178 1 245 50 143 218 199 215 39 15 54 87 126 244 47 192 6 157 202 31 168 14 171 12 73 165 111 222 5 229 124 46 132 102 123 174 84 89 34 122 215 90 14 19 238 205 246 9 88 6 50 167 8 205 130 17 118 200 166 77 213 168 230 145 19 159 66 18 232 161 208 177 
44 37 125 154 80 181 37 131 171 129 78 162 92 45 239 121 90 96 144 55 112 13 240 65 203 107 223 10 121 15 147 206 122 147 244 242 210 206 57 126 135 105 101 166 88 131 119 132 79 59 188 79 82 173 74 36 3 81 15 39 190 74 254 222 142 130 87 89 167 139 42 0 87 93 255 176 230 100 7 248 50 140 103 62 116 173 117 46 174 201 157 31 157 37 159 186 79 212 202 71 
28 244 234 63 232 91 1 213 208 52 41 233 184 204 55 202 191 207 116 99 130 59 204 31 227 215 72 195 65 50 42 217 244 173 91 81 10 149 103 71 39 223 86 236 243 116 87 114 163 134 235 44 135 99 228 88 241 54 249 241 121 16 157 146 174 41 144 238 183 104 78 77 75 102 245 64 44 100 8 208 102 67 58 189 0 184 238 36 77 178 176 26 58 16 88 130 251 254 196 203 
56 65 41 163 243 179 83 6 126 153 50 2 70 44 206 244 147 21 28 50 64 246 239 18 63 193 81 148 66 158 50 59 162 32 148 252 71 42 67 101 84 93 221 101 255 30 243 150 219 180 37 38 246 75 91 164 121 70 78 232 113 167 235 15 108 232 212 159 101 239 141 94 152 169 243 44 32 218 218 97 17 38 208 255 134 217 64 198 13 144 130 228 171 130 72 23 191 193 141 34 
65 110 174 55 166 211 113 100 249 155 221 240 134 227 179 73 42 84 97 186 246 178 164 225 255 110 2 16 208 84 88 89 160 145 52 117 68 63 146 185 252 239 193 250 4 177 58 37 4 209 188 229 163 227 142 119 24 176 92 28 17 0 23 37 51 6 173 10 185 117 66 136 240 125 99 13 110 193 93 119 30 102 172 84 5 204 203 216 191 219 70 238 244 24 49 246 33 232 35 134 
134 201 58 202 69 217 253 24 1 39 157 19 14 5 143 211 56 231 202 181 142 205 60 30 37 236 98 232 153 82 57 81 17 102 75 73 226 154 225 193 211 59 37 243 222 6 245 184 247 244 181 61 87 4 69 237 128 140 54 139 151 108 61 252 240 214 2 156 155 33 118 165 247 218 241 22 136 174 217 95 82 221 60 169 32 162 204 172 237 89 139 93 249 50 4 113 158 76 68 40 
70 125 175 181 8 129 159 107 108 211 244 33 220 74 246 183 238 15 244 29 230 237 111 133 129 189 22 178 164 56 244 77 8 69 10 2 37 201 60 13 220 180 243 225 114 84 100 214 55 96 80 221 42 182 107 23 196 217 244 107 100 39 161 174 63 75 237 21 98 2 6 224 201 195 49 74 203 196 235 7 15 248 86 93 224 206 170 26 57 62 69 154 81 169 245 195 233 158 54 214 
219 3 246 26 84 153 63 153 7 141 157 45 104 108 210 128 140 36 77 122 103 161 76 12 236 22 90 121 33 12 28 156 2 50 227 108 51 163 187 224 3 125 99 139 71 9 175 231 18 198 44 153 36 182 237 59 191 213 125 53 32 203 210 113 192 19 228 67 24 57 181 154 169 220 254 99 33 187 138 238 212 9 17 43 35 74 236 94 143 166 39 84 152 216 97 3 222 21 149 204 
193 184 146 246 136 7 235 128 118 163 140 93 45 98 60 96 212 105 234 106 19 88 23 74 179 125 159 95 105 253 214 138 36 39 123 55 15 45 70 164 247 32 51 172 173 195 131 60 151 109 23 173 124 249 133 219 209 33 129 81 48 186 119 134 124 250 176 207 4 238 186 145 24 6 15 117 163 42 219 115 89 99 18 233 189 218 79 178 54 71 44 11 17 189 44 64 118 216 65 141 
31 173 61 213 242 235 222 75 79 53 40 36 131 100 213 138 124 147 51 96 162 138 250 231 165 91 237 61 176 28 244 191 42 116 236 74 42 253 130 18 198 79 110 238 163 152 85 128 80 53 47 51 23 9 138 190 118 223 82 20 221 28 71 25 7 4 254 39 198 130 26 178 119 6 25 167 35 195 197 143 207 138 22 136 4 229 193 62 125 153 119 51 254 129 228 146 197 157 100 72 
216 16 69 52 155 4 23 5 188 67 156 42 176 165 200 56 227 123 131 69 121 127 59 125 32 48 246 134 170 124 127 20 86 247 84 19 64 255 142 54 15 219 165 247 138 176 62 233 71 13 173 53 160 115 177 100 154 69 25 76 132 219 202 179 43 83 156 210 228 170 219 138 196 75 76 94 85 77 64 228 230 211 247 218 144 112 28 6 163 97 24 167 129 100 189 255 26 205 250 152 
119 15 234 230 58 47 190 217 223 22 216 5 131 22 194 45 175 68 185 128 190 85 128 198 24 112 65 18 40 104 204 83 70 204 140 171 108 230 70 192 166 237 101 0 14 80 216 180 183 243 136 181 181 140 229 204 22 198 114 97 189 209 119 140 68 69 162 142 229 108 151 127 121 205 84 114 39 182 227 31 77 228 128 191 86 209 17 196 211 31 219 31 83 12 107 120 127 222 16 252 
2 66 12 245 250 68 237 248 65 247 204 210 227 149 252 191 229 246 16 161 213 147 13 19 64 17 23 1 70 136 238 17 119 106 195 64 160 255 103 34 80 235 155 232 195 56 7 167 30 252 148 171 60 194 163 194 64 131 158 143 249 108 16 73 171 232 96 9 206 196 164 59 197 212 229 151 5 7 167 14 188 145 102 116 67 152 134 121 181 29 117 130 120 199 242 93 84 226 255 225 
147 120 15 125 247 23 194 181 17 14 200 218 184 14 82 252 50 146 229 152 11 172 75 149 178 208 16 202 227 42 126 204 135 197 202 150 203 254 88 187 128 63 51 161 24 72 57 128 47 37 206 229 205 200 56 240 140 75 176 57 136 125 219 52 104 47 149 61 242 151 188 16 239 243 197 161 141 108 48 91 203 109 23 178 8 242 193 73 83 148 217 109 137 103 118 146 214 16 221 223 
252 54 82 239 101 108 174 186 39 189 65 136 71 173 88 185 135 4 214 155 96 165 192 33 140 164 25 189 193 132 223 213 249 139 63 103 76 126 203 180 79 233 239 171 125 224 61 230 54 249 181 239 66 4 81 240 15 56 76 199 160 146 147 120 68 48 42 204 166 80 197 234 224 132 141 236 202 75 52 95 9 227 142 145 207 56 46 214 250 228 104 217 15 183 253 109 19 67 87 182 
65 181 225 57 188 239 188 9 31 214 4 9 52 176 108 163 200 56 46 135 167 3 250 158 19 114 88 137 94 237 174 144 182 83 68 210 109 53 211 210 51 243 60 133 94 10 22 82 146 243 255 209 221 11 155 20 196 115 197 202 151 179 114 130 11 109 182 116 203 29 102 168 49 218 202 213 183 130 18 240 158 198 75 10 233 233 99 78 0 204 197 153 212 17 175 246 239 93 66 88 
196 96 22 69 15 32 19 32 249 52 127 74 51 248 56 201 20 32 122 137 201 146 227 180 236 16 14 120 177 6 11 9 162 212 100 116 62 153 164 29 40 245 184 210 213 11 128 243 63 234 30 32 197 207 170 210 114 46 93 217 78 95 236 189 103 129 239 158 49 22 149 224 190 185 101 102 196 114 239 181 14 225 38 56 129 41 171 193 46 239 175 204 233 238 19 14 164 123 135 43 
104 74 225 248 236 227 160 23 70 1 40 77 31 145 36 140 110 209 211 152 169 101 74 206 63 89 118 74 216 141 242 136 74 250 35 174 167 140 169 100 67 98 223 248 94 229 43 73 222 224 101 44 155 188 139 198 153 178 1 203 175 194 255 146 36 193 240 69 5 215 240 0 53 252 197 197 142 93 8 38 149 53 61 100 121 144 31 47 8 168 39 42 184 102 75 243 17 36 251 62 
104 248 230 44 70 50 214 207 104 87 83 142 253 252 124 47 201 158 85 248 250 154 255 45 86 104 139 150 69 113 218 63 60 19 137 101 97 202 36 243 60 102 185 233 102 57 65 2 163 140 27 145 207 219 127 107 135 60 64 64 211 209 30 68 143 16 118 165 180 109 97 73 110 234 34 66 99 79 26 9 34 131 188 152 214 121 28 55 120 249 181 117 80 17 95 89 36 160 215 195 
254 78 224 73 193 103 10 32 142 78 126 59 221 50 126 222 10 4 185 150 0 198 104 3 101 159 164 142 205 19 214 158 107 89 44 198 8 12 239 69 6 203 69 141 69 54 49 241 243 251 214 237 206 21 184 52 205 151 34 198 141 234 204 4 173 62 117 75 95 236 60 101 105 170 183 173 111 209 238 185 168 134 178 234 211 0 32 185 97 92 157 118 24 68 192 42 159 97 212 196 
227 226 76 135 7 49 75 124 213 59 136 74 150 104 12 60 93 2 130 212 28 192 107 166 81 130 107 187 71 182 178 105 245 102 100 195 209 243 174 29 40 110 172 145 21 139 78 129 179 116 158 40 244 234 191 149 126 214 139 163 53 15 209 193 128 254 166 36 246 170 154 80 179 92 179 9 196 129 48 202 234 55 109 238 246 232 158 199 195 229 100 158 196 207 71 135 203 225 46 91 
92 97 84 247 169 107 171 172 77 16 12 44 30 213 138 75 173 5 155 205 32 13 46 124 144 136 172 59 241 196 211 224 78 178 70 4 86 93 172 162 76 169 3 14 186 205 76 196 178 46 60 56 168 57 212 97 3 197 47 122 10 49 95 230 248 143 79 195 120 209 56 109 172 207 160 251 48 55 110 196 178 194 102 255 156 174 6 221 217 10 165 195 240 16 164 190 7 186 19 31 
75 129 206 182 163 157 33 88 107 66 126 142 88 71 95 231 117 151 159 141 128 241 132 85 127 117 91 222 167 102 47 39 55 133 17 174 157 22 17 78 92 58 227 10 71 233 113 184 40 160 89 167 181 128 100 35 158 199 208 234 88 2 147 15 58 204 208 222 128 124 156 78 86 164 209 164 235 54 111 235 40 186 105 69 251 51 70 172 26 81 234 36 54 143 60 121 153 102 187 218 
33 70 90 154 22 235 163 254 111 102 174 101 243 85 104 254 18 201 26 8 75 17 212 91 193 90 29 72 197 113 254 28 107 224 253 209 241 122 189 154 16 215 189 247 44 68 70 245 17 113 112 203 140 131 211 38 157 34 252 225 245 242 246 173 39 71 51 136 175 115 223 134 189 83 107 68 24 237 252 244 185 38 229 36 33 246 44 27 32 99 105 177 148 102 150 69 74 30 170 204 
234 182 23 225 77 99 114 112 21 208 181 77 118 253 142 202 46 28 212 213 117 91 243 235 245 143 75 41 149 124 45 95 252 163 84 46 23 197 107 111 156 191 126 46 183 84 229 53 97 226 251 161 248 101 128 230 59 208 239 67 82 91 59 108 12 236 187 95 189 62 127 130 99 235 145 125 70 208 86 227 154 131 97 37 53 223 214 249 187 100 61 131 169 130 163 222 62 56 203 158 
48 150 171 49 137 177 83 184 175 217 47 18 169 150 229 77 192 124 179 25 46 28 192 162 56 116 101 157 199 61 206 114 7 188 16 255 145 115 128 195 25 124 250 185 246 117 155 197 65 236 83 53 190 239 173 251 165 200 183 68 187 172 102 175 250 17 75 106 80 179 52 238 164 110 85 33 114 150 65 26 58 215 222 64 99 232 80 220 15 248 166 248 176 4 233 82 15 31 114 160 
220 24 84 6 211 81 166 184 121 44 136 43 244 23 1 43 64 109 157 167 204 214 164 75 79 45 162 173 190 241 50 205 88 127 112 50 247 87 109 249 107 194 155 24 150 28 185 252 84 95 114 38 241 33 206 134 145 72 196 193 4 226 18 181 46 84 231 80 238 236 154 188 91 52 247 161 202 78 250 48 43 185 70 190 40 148 197 90 97 73 223 30 148 189 169 244 193 2 84 10 
32 61 184 217 116 250 90 54 197 220 105 177 142 233 240 175 9 22 194 142 188 241 36 232 98 224 120 113 243 247 197 32 227 105 141 180 118 166 192 1 72 107 226 118 44 200 154 174 200 2 168 147 237 151 14 25 236 57 145 14 214 225 33 48 163 79 248 166 60 191 214 85 74 218 195 159 128 96 41 245 233 163 137 25 62 58 4 190 191 91 193 171 128 164 115 108 219 193 234 137 
99 86 83 211 108 53 70 15 33 29 178 233 143 209 92 172 91 32 121 241 103 45 30 146 26 107 82 1 30 35 142 231 152 153 51 69 26 219 40 38 67 93 145 233 223 32 27 133 242 7 147 133 173 186 26 151 232 253 216 118 8 114 50 211 205 196 182 180 182 102 107 70 108 19 22 214 149 246 118 209 95 29 224 10 255 23 91 194 121 110 195 68 169 106 156 246 15 42 36 52 
90 38 216 68 128 89 188 83 253 52 60 122 95 54 12 127 153 184 226 155 178 73 173 248 234 51 206 120 196 123 225 77 10 210 247 222 102 138 18 174 82 197 84 7 230 148 154 17 43 126 42 118 218 113 159 185 126 92 32 203 120 3 243 222 221 69 234 4 87 149 226 108 168 46 216 251 139 122 159 95 50 234 248 137 155 77 44 57 137 29 70 83 105 180 54 212 58 102 81 208 
135 129 200 50 35 233 178 3 143 127 65 61 162 40 175 75 32 125 211 104 7 166 158 231 152 254 74 186 214 144 252 61 23 11 120 52 151 207 10 46 55 247 128 48 129 73 222 224 212 31 157 102 101 227 0 233 189 210 180 244 196 139 66 49 137 26 176 130 91 82 211 116 74 200 222 103 127 195 117 94 51 202 82 96 199 85 147 27 71 226 100 106 99 253 111 183 31 235 234 114 
190 6 5 164 130 62 224 45 62 48 83 48 212 230 75 60 130 88 148 156 96 105 156 46 164 0 248 46 159 97 96 1 151 172 166 117 39 239 26 29 90 179 64 25 176 104 48 166 71 70 145 113 61 135 160 72 23 224 202 95 251 135 130 167 90 15 171 253 14 224 198 72 197 6 92 117 29 244 3 138 122 138 60 218 175 23 46 67 132 104 143 84 38 140 51 236 250 79 134 201 
188 93 164 26 150 46 166 55 76 100 48 219 200 227 3 32 35 231 75 179 114 98 159 42 117 147 139 116 219 142 14 188 107 136 79 57 221 107 50 245 21 183 177 18 155 200 72 205 80 56 86 188 11 247 97 248 226 147 32 222 78 160 80 186 219 168 221 207 222 115 245 16 94 80 197 218 49 93 255 229 119 229 142 158 151 203 43 54 184 119 145 127 80 255 39 123 147 101 243 33 
94 151 199 112 65 235 248 43 151 135 176 101 202 192 14 197 25 84 144 32 130 174 171 54 102 221 145 48 172 132 55 213 77 158 206 98 132 243 251 108 185 188 243 5 205 1 238 130 164 187 169 161 217 215 167 192 206 129 160 225 78 233 183 147 107 124 31 243 193 83 78 77 46 143 244 65 255 154 103 65 53 134 25 128 115 6 251 120 185 51 239 41 64 152 95 198 112 234 238 187 
184 231 73 217 208 77 177 0 58 75 166 253 128 234 47 43 56 172 142 211 114 171 89 75 20 175 254 47 108 19 7 112 67 13 26 186 114 171 245 221 114 219 227 208 108 233 9 7 45 235 112 201 182 245 105 156 56 47 171 124 120 151 85 234 164 127 36 97 44 139 10 76 87 182 105 180 153 92 68 79 192 210 121 251 207 124 59 114 228 249 154 37 138 149 80 44 213 162 232 141 
190 151 152 146 228 219 216 114 67 218 148 172 61 120 199 174 135 45 89 62 115 166 167 80 225 200 123 35 222 19 34 176 169 186 2 168 108 125 173 143 155 72 181 28 138 98 239 2 190 208 184 206 54 121 200 142 187 40 243 191 203 13 46 240 26 103 137 59 13 188 121 50 254 61 233 35 88 10 143 141 93 56 215 7 94 43 76 116 212 181 10 209 208 194 166 224 126 190 29 81 
246 35 72 198 131 171 171 233 63 246 239 31 24 91 225 193 100 212 187 226 150 174 111 137 47 34 231 248 180 226 234 3 25 35 139 241 192 184 136 76 102 4 15 133 238 215 127 244 241 93 6 214 181 182 86 34 234 149 152 207 199 68 81 120 46 13 220 232 207 90 128 46 230 73 52 29 37 101 100 101 165 98 71 240 191 249 52 150 238 181 17 104 131 124 182 55 247 6 101 44 
234 252 196 204 196 231 47 163 83 229 102 234 42 135 156 124 117 225 130 84 82 145 223 19 112 46 20 216 58 13 14 156 174 226 142 230 206 218 38 112 237 149 54 9 98 230 236 1 36 125 213 126 41 165 3 118 201 205 204 144 153 83 201 48 250 217 246 197 198 235 70 114 46 216 239 27 101 153 245 32 196 81 5 149 120 23 243 230 222 94 58 202 123 45 111 193 191 134 183 85 
199 111 111 229 177 163 185 51 27 166 224 107 189 235 26 192 248 142 120 244 45 205 127 104 53 226 58 101 166 100 23 113 35 239 8 86 130 181 89 176 23 65 16 188 189 86 11 44 84 190 239 129 42 42 152 219 130 188 143 8 141 246 164 33 139 112 173 161 225 224 184 72 178 29 67 166 6 110 197 200 189 196 212 97 119 227 89 171 252 102 10 92 60 250 228 148 221 236 7 127 
56 234 212 187 85 16 138 7 84 30 37 61 161 134 65 227 174 185 113 41 37 33 9 145 214 28 47 17 131 88 135 212 58 7 253 143 115 24 170 125 131 2 19 86 128 8 163 156 66 251 157 20 55 251 72 156 72 219 39 212 43 9 64 83 53 223 76 231 28 180 158 158 65 161 227 4 23 75 230 227 43 180 69 240 73 182 110 177 162 63 200 133 1 143 244 211 21 247 142 181 
7 21 170 29 174 72 224 1 37 254 102 151 163 115 20 69 214 99 118 93 28 154 169 68 128 184 175 48 227 196 231 194 127 116 4 114 231 142 222 250 180 57 54 0 47 34 222 75 237 136 31 192 239 159 94 118 13 213 164 23 109 220 90 113 47 67 224 134 127 169 112 141 107 37 200 58 163 47 20 112 138 239 4 74 214 69 99 106 200 64 104 200 158 88 70 152 163 54 15 35 
7 13 250 186 147 22 208 145 178 111 66 252 55 231 48 154 219 54 50 120 236 159 76 118 247 223 208 91 225 88 157 4 118 62 241 17 228 108 232 206 155 152 102 218 140 9 79 108 135 68 90 58 33 119 96 245 205 80 213 221 45 253 98 177 58 119 247 175 115 54 170 50 119 103 199 189 10 83 48 148 32 178 238 71 145 14 121 82 2 201 216 141 92 192 134 84 128 95 5 152 
205 81 33 239 10 20 6 236 225 221 183 120 231 90 166 12 33 166 215 137 145 171 116 233 34 149 43 232 77 173 102 65 127 245 16 131 40 11 187 33 50 15 172 151 222 159 88 229 54 212 182 189 70 109 91 101 191 180 70 151 238 247 145 117 22 197 79 92 132 165 137 70 137 62 16 93 66 58 27 31 33 105 194 213 124 57 166 162 94 42 213 34 56 13 61 113 1 153 75 117 
37 179 50 7 253 247 32 248 184 14 198 134 111 117 134 214 243 112 108 107 167 57 32 160 18 249 35 38 144 151 55 185 131 26 71 15 154 150 58 36 212 96 79 165 0 169 143 2 4 129 103 201 254 240 46 18 147 114 110 77 59 181 51 147 224 60 8 86 198 47 24 236 72 90 128 150 124 140 90 79 94 161 68 240 126 199 1 75 243 232 195 136 230 56 84 13 154 123 39 160 
33 136 2 116 120 162 98 125 201 150 104 248 121 240 244 61 77 148 167 213 207 233 76 221 97 1 117 206 240 11 147 182 123 59 121 97 36 164 226 198 187 171 42 8 130 246 95 82 129 67 33 106 63 178 215 173 232 211 158 225 240 198 95 166 117 135 110 101 226 72 241 53 213 119 237 55 170 173 180 62 2 111 25 119 212 101 73 207 43 195 24 181 167 145 189 225 114 182 89 138 
88 15 154 251 222 26 18 86 201 189 73 73 30 105 111 36 169 254 199 11 181 11 122 34 173 33 94 88 149 166 49 96 194 127 105 92 40 96 182 192 248 49 109 159 238 40 1 234 37 157 215 94 145 235 57 54 44 18 64 168 1 6 125 240 109 68 123 72 127 233 176 30 34 248 20 220 50 213 182 18 106 183 79 2 211 76 32 6 168 170 142 138 86 130 253 167 43 246 97 162 
195 207 180 119 240 72 30 137 83 20 94 73 157 207 169 176 15 169 51 36 188 173 170 239 141 188 207 128 99 39 196 80 252 255 167 164 128 190 0 198 22 63 28 191 29 226 222 220 234 41 96 164 162 132 49 145 227 235 197 28 90 198 219 213 173 125 18 109 69 36 172 252 77 172 231 80 172 81 173 26 70 188 59 207 101 241 179 157 220 148 137 88 117 1 236 205 107 217 199 53 
26 107 70 149 217 148 201 29 185 121 244 21 153 114 0 163 196 113 229 216 250 12 138 115 151 128 15 76 217 33 64 203 156 164 99 249 106 102 122 162 7 90 45 226 54 60 96 199 78 103 102 236 205 192 149 248 202 235 108 247 113 73 162 220 220 12 4 21 171 37 236 236 17 146 164 114 58 13 148 11 95 18 201 91 156 111 140 75 205 180 191 97 165 86 72 26 72 47 149 19 
144 172 21 143 116 196 2 87 242 46 24 175 56 58 26 103 51 176 118 70 16 239 73 118 138 164 40 160 94 39 6 186 230 252 225 73 250 147 236 161 183 232 121 43 51 94 102 192 161 216 34 43 132 142 147 203 140 165 224 37 134 191 85 173 176 246 32 162 21 183 149 236 56 150 31 184 187 225 164 232 216 55 254 246 137 128 147 162 79 59 147 46 237 90 169 67 90 116 39 50 
185 215 109 255 134 124 56 208 72 186 111 178 246 112 95 254 104 172 15 116 250 243 142 50 237 103 37 23 238 107 158 82 63 108 217 83 167 79 233 26 34 133 55 142 22 48 220 100 155 52 81 140 192 146 59 84 86 61 254 197 225 77 123 123 84 9 235 75 33 132 19 182 47 155 180 97 56 201 113 100 70 24 227 120 208 46 96 161 169 0 226 215 180 242 162 24 91 196 172 117 
3 248 84 123 37 78 191 213 107 25 207 14 39 253 27 93 47 99 103 127 150 155 186 86 33 238 213 116 218 51 208 13 26 213 12 197 29 175 175 116 151 45 185 172 183 2 221 8 9 7 215 212 203 170 124 89 95 177 3 193 187 117 115 7 240 106 186 117 169 176 147 133 87 133 238 205 178 131 189 61 17 115 91 243 151 140 193 185 227 221 63 19 69 1 36 11 150 4 86 164 
28 194 74 48 198 73 110 114 71 116 176 110 75 230 230 145 241 83 7 179 145 113 131 195 231 28 9 143 3 41 235 67 250 162 232 207 54 228 255 112 6 222 150 205 114 7 115 155 128 173 204 217 201 85 195 53 125 10 147 73 84 68 29 131 58 224 222 98 145 145 21 142 195 198 163 5 141 245 158 133 41 169 27 65 16 35 30 250 187 172 183 195 137 49 242 221 103 198 143 69 
204 172 6 66 26 173 191 3 246 115 165 144 167 232 108 1 241 237 164 170 110 135 208 60 110 40 229 17 64 86 158 43 197 80 251 64 138 87 185 246 71 189 234 220 28 63 131 247 225 89 252 29 227 102 7 176 125 24 119 25 249 208 4 129 141 191 54 34 12 57 59 106 74 157 80 232 83 121 177 139 131 148 154 68 253 152 20 44 159 32 218 16 59 127 13 249 151 200 195 127 
209 97 226 91 158 141 243 214 183 33 58 89 122 239 33 170 103 59 200 137 107 152 109 213 162 26 17 134 14 122 236 74 100 168 131 210 25 55 93 157 189 166 53 219 138 229 63 141 153 143 195 191 33 233 249 166 40 171 161 161 140 49 157 143 116 1 223 223 129 72 84 132 9 119 35 227 197 95 141 232 55 102 23 43 128 142 144 66 44 16 44 12 174 62 246 82 214 119 178 46 
82 224 191 43 152 83 57 162 198 123 90 110 193 154 43 36 238 47 236 170 174 184 161 251 228 173 92 153 43 75 214 37 193 123 121 190 251 41 114 236 122 219 252 25 240 145 250 27 29 140 30 117 165 81 241 208 176 42 60 223 17 191 180 92 138 12 209 170 27 40 147 238 141 98 18 171 222 84 159 214 237 160 57 0 66 248 208 202 233 42 55 77 170 169 62 168 114 137 200 129 
239 52 223 15 202 38 31 114 213 107 221 212 99 18 185 213 93 188 182 22 90 43 126 48 3 71 101 216 45 216 115 95 133 51 237 163 132 76 184 120 246 208 199 180 211 198 106 111 220 66 199 64 226 182 129 137 124 18 79 194 63 29 125 148 114 226 237 40 116 225 170 209 20 116 136 206 22 6 38 118 242 129 34 120 68 104 73 235 129 77 46 144 187 79 150 29 193 99 229 71 
24 67 56 144 159 62 107 220 101 53 180 155 155 35 178 223 112 252 151 114 8 45 157 120 65 148 86 208 160 90 105 198 1 88 70 109 213 44 166 64 119 252 144 202 96 217 149 226 28 120 28 203 148 60 108 57 130 69 217 58 221 104 225 209 166 42 25 239 108 37 2 10 180 228 69 55 65 51 238 116 189 126 190 251 209 38 130 192 29 126 254 130 84 65 82 70 72 136 159 161 
222 127 16 152 11 169 247 39 126 167 30 200 195 66 122 224 64 188 130 221 102 36 62 220 113 123 21 238 48 61 157 192 215 150 189 78 8 10 40 168 40 91 181 114 15 218 52 202 125 238 56 144 87 230 10 154 188 217 51 41 166 236 194 206 68 45 108 179 165 5 165 156 153 62 1 17 197 162 146 25 200 162 1 170 51 31 86 191 56 126 229 74 156 137 20 221 201 176 197 140 
25 27 204 240 84 156 161 3 101 120 95 78 183 78 193 168 20 225 147 97 26 183 190 172 162 47 35 217 137 93 76 216 252 26 40 44 203 23 71 251 231 92 106 228 8 239 88 159 215 255 99 15 200 188 138 172 207 96 54 150 206 48 161 177 27 142 164 181 97 134 80 18 108 140 105 175 181 217 159 123 125 63 54 80 40 176 26 207 212 235 246 169 180 80 22 48 148 151 148 218 
107 13 198 27 31 247 165 141 208 162 130 24 193 48 156 23 102 80 125 25 131 2 24 125 4 56 200 102 245 217 105 6 57 83 187 223 59 97 18 9 86 102 7 238 22 149 101 123 181 226 186 161 159 248 18 176 135 27 25 134 238 95 125 56 1 50 205 252 23 197 139 141 59 181 70 137 233 231 14 220 65 128 38 114 35 84 28 119 144 115 120 141 233 28 192 72 1 0 81 61 
47 4 184 83 207 105 178 103 233 128 213 216 55 127 57 30 242 95 203 148 209 164 150 38 67 106 66 104 194 76 64 41 234 146 157 178 55 76 70 247 122 126 144 233 13 119 241 113 84 62 10 44 226 172 170 235 231 102 168 183 117 83 29 81 135 43 117 203 112 215 102 200 106 252 180 19 33 140 130 35 132 139 41 153 4 205 204 244 228 55 125 29 203 37 186 242 190 37 227 53 
188 143 113 242 229 27 205 183 132 235 73 175 181 216 79 10 75 175 164 20 2 158 3 136 48 182 15 111 68 81 4 76 24 237 16 98 55 99 135 118 64 152 171 33 20 128 66 232 30 21 60 90 205 32 190 220 214 94 252 174 166 150 52 191 135 66 37 88 132 226 162 144 112 65 101 255 214 68 224 97 92 120 113 125 144 214 198 172 77 13 19 139 138 6 216 53 200 209 252 206 
249 49 108 236 94 140 177 82 129 132 149 46 148 224 67 156 247 189 135 58 41 139 233 107 206 112 47 212 237 17 103 148 251 209 8 242 134 193 114 230 61 30 134 34 203 184 63 96 7 1 96 221 75 6 252 127 141 165 168 211 186 20 238 59 163 155 14 63 29 27 86 245 6 42 215 126 114 87 111 66 55 173 192 195 113 193 198 15 34 178 110 62 77 137 1 15 179 132 47 173 
218 16 150 70 211 76 106 204 179 170 82 239 68 142 144 177 50 96 25 42 193 170 143 59 45 126 147 95 65 209 152 44 35 137 220 119 208 37 63 150 96 103 121 94 190 93 148 201 191 101 255 150 32 49 199 34 144 24 82 241 182 224 1 96 86 227 119 1 229 51 126 133 153 174 22 139 237 214 165 45 240 134 46 68 129 16 26 118 199 226 27 62 223 138 105 25 250 132 204 229 
61 185 123 206 15 36 132 255 181 150 94 140 151 127 59 153 61 237 209 163 82 151 114 111 108 101 157 74 12 98 174 106 135 203 75 33 59 172 133 64 174 232 232 31 128 252 209 182 161 117 176 229 48 114 156 176 92 147 216 79 255 171 56 28 84 76 205 215 171 129 63 185 213 40 9 24 4 89 177 122 210 152 47 170 179 72 229 10 109 227 87 252 232 40 64 190 200 96 108 65 
246 29 126 179 42 245 34 29 42 80 181 174 254 215 188 157 33 229 216 21 146 116 178 58 79 106 171 243 158 117 228 92 223 46 123 146 235 156 53 59 100 52 29 56 102 125 251 205 60 129 228 134 95 86 101 94 251 164 250 95 216 251 86 206 172 8 184 247 31 255 103 221 62 182 196 128 106 44 144 146 227 89 4 219 27 78 158 127 45 169 250 112 188 31 131 218 10 70 22 223 
206 30 231 104 198 157 78 185 8 56 90 178 217 208 227 194 48 186 147 247 38 49 245 212 67 161 24 108 157 35 74 138 127 187 16 237 66 138 32 135 229 187 48 218 227 208 237 59 198 192 147 108 202 85 221 27 63 117 2 176 52 198 22 86 28 89 170 250 14 10 180 7 165 209 243 88 178 175 144 154 2 206 201 213 94 194 33 252 58 5 218 184 205 93 104 208 194 200 30 171 
210 220 133 82 88 154 141 88 75 94 139 24 222 33 139 71 86 147 106 133 219 87 211 55 188 32 152 119 19 220 133 194 224 53 59 163 38 51 20 254 233 52 141 136 114 115 25 19 19 28 33 42 114 201 53 188 5 10 49 83 243 76 251 110 56 217 214 223 194 249 3 215 242 119 15 79 208 151 102 105 207 248 76 158 141 214 69 43 212 51 110 184 117 227 202 166 35 48 22 167 
254 237 230 164 23 27 153 1 77 141 194 55 121 244 16 119 201 235 186 72 206 183 108 176 222 108 139 168 246 36 75 183 84 76 85 186 105 179 186 84 155 124 200 87 41 171 143 107 219 98 34 179 225 26 249 170 17 169 7 125 13 218 14 123 99 22 26 25 30 59 108 115 73 89 138 45 208 181 118 133 92 223 209 103 11 224 26 8 106 140 221 13 97 1 1 85 177 2 93 175 
15 191 14 94 114 162 136 120 126 195 122 223 235 229 225 251 124 172 109 63 136 39 248 27 135 141 234 117 215 58 15 84 118 210 34 77 108 6 52 68 87 112 214 137 129 128 221 107 207 34 231 43 249 83 28 74 116 33 126 150 217 113 230 197 237 163 4 223 194 170 254 198 146 252 249 145 2 149 197 207 48 233 187 79 9 133 16 40 42 8 240 209 41 165 157 49 28 238 161 11 
148 10 182 72 11 237 98 143 122 169 92 67 147 254 10 156 194 209 10 92 166 254 232 145 39 97 38 1 209 51 120 127 183 13 228 189 209 98 25 99 49 124 55 255 209 122 65 167 126 41 0 31 231 137 162 46 32 99 64 25 235 111 110 25 87 132 77 78 180 142 111 94 11 152 97 161 245 23 9 90 164 127 8 250 34 156 87 94 232 3 167 1 226 85 184 42 10 122 12 63 
156 19 98 42 159 148 217 81 9 161 219 209 221 28 99 250 76 86 87 66 158 202 104 194 225 238 15 221 35 119 53 6 102 175 84 167 70 63 41 226 160 115 249 83 190 5 176 137 131 141 166 254 246 24 222 115 13 122 219 20 187 126 24 218 137 219 26 142 5 137 79 23 67 73 0 4 10 147 198 116 78 189 187 168 218 45 75 202 196 96 229 142 9 145 214 49 242 214 48 117 
101 244 214 189 59 103 183 203 156 145 175 85 127 225 117 249 158 64 44 132 148 14 159 114 250 8 151 20 243 66 197 174 93 178 91 153 197 191 84 26 96 245 51 194 73 208 31 34 30 229 217 86 93 34 57 241 91 86 16 3 195 149 192 232 106 215 66 128 28 153 183 187 97 221 72 36 155 65 175 22 200 251 167 208 49 82 117 193 242 53 33 184 255 21 48 206 215 217 77 163 
226 97 211 179 197 17 87 248 203 60 228 66 221 124 130 105 101 130 9 160 123 239 255 127 236 77 226 147 99 167 50 216 164 231 220 107 37 109 43 160 131 138 72 241 31 13 233 16 215 36 21 218 118 185 215 161 177 158 34 115 114 123 178 18 233 38 168 137 96 81 205 183 159 193 214 26 233 71 56 63 165 203 178 108 162 10 16 227 222 154 196 157 72 3 73 112 79 155 145 95 
19 192 64 151 220 88 192 234 135 55 184 14 210 43 136 56 36 181 35 31 6 19 29 40 105 115 177 8 163 145 112 104 0 61 115 143 188 201 35 38 78 232 131 81 140 147 53 108 186 210 125 67 199 173 43 223 169 170 5 166 211 171 115 127 29 54 63 218 235 47 177 192 172 56 150 148 158 76 142 194 139 9 238 213 13 196 143 233 126 191 154 167 44 155 179 235 255 180 106 168 
52 225 121 108 186 0 37 29 20 84 213 238 21 78 76 45 127 239 49 189 240 228 41 7 197 162 10 222 94 128 72 27 103 103 120 69 51 141 14 79 101 56 210 103 148 148 74 16 27 69 57 103 221 110 50 90 13 190 66 221 255 223 79 73 135 85 40 75 101 213 89 89 218 140 168 134 177 157 214 180 119 123 180 74 85 8 49 17 214 238 115 251 133 19 236 72 154 110 142 121 
111 108 213 222 35 221 155 86 145 141 165 131 46 12 163 40 250 72 227 18 212 119 24 222 24 196 148 79 117 249 236 132 160 223 78 147 170 120 151 38 15 120 8 166 11 168 179 157 205 75 60 29 207 0 136 59 172 99 63 197 255 202 102 22 42 76 195 150 39 172 80 9 140 70 66 227 243 39 199 35 102 63 15 171 183 121 255 87 83 249 3 233 53 90 187 24 202 87 46 25 
107 32 232 254 46 2 106 46 221 118 198 252 93 202 55 183 90 132 93 200 122 115 254 205 81 246 55 205 104 30 80 127 231 124 81 119 110 163 20 124 112 96 231 189 101 95 73 176 203 109 230 199 161 214 181 161 122 166 88 77 212 81 163 55 254 204 170 29 21 174 109 36 114 127 203 37 136 166 28 180 72 27 143 244 128 138 149 243 238 220 240 168 99 113 32 226 48 134 84 66 
49 68 205 234 8 113 10 206 56 235 2 21 25 121 172 223 70 209 4 59 85 9 9 61 86 5 211 114 79 27 58 123 201 164 198 13 239 162 181 124 255 147 61 29 167 235 169 94 70 134 192 9 166 183 164 234 171 142 122 92 166 139 101 62 164 161 95 172 207 199 198 89 36 203 124 23 154 77 135 251 206 136 215 230 87 190 134 132 23 13 50 217 83 130 85 142 18 158 58 69 
