P2
100 100
255
86 121 45 192 128 87 34 39 165 114 212 151 163 236 251 139 129 3 43 88 39 202 7 206 20 1 226 3 246 220 206 193 225 103 246 17 18 175 14 85 221 231 147 181 132 142 111 102 232 24 134 198 170 96 151 31 217 171 177 15 188 236 238 234 167 44 146 97 16 96 118 112 26 155 47 205 79 202 85 246 69 178 203 90 235 140 231 234 115 128 137 59 195 116 156 13 138 119 136 13 
255 190 10 182 146 132 227 198 105 196 144 65 116 44 112 176 244 13 8 63 60 154 186 109 246 10 85 40 18 2 237 17 145 221 119 44 1 48 25 251 240 158 197 57 207 123 184 94 197 231 32 34 35 34 180 235 14 112 129 90 195 113 167 88 95 166 167 52 0 121 92 158 61 245 124 162 245 167 221 18 140 69 6 136 31 228 10 125 198 34 91 240 108 71 76 54 164 179 243 27 
94 31 51 66 158 143 126 245 239 132 236 141 208 159 20 209 191 79 135 2 81 73 105 167 92 236 175 215 215 33 220 85 235 81 62 134 72 86 35 23 46 110 65 15 78 177 8 251 15 72 128 170 40 217 159 42 39 61 138 240 106 3 74 248 48 124 244 225 65 225 45 191 133 38 183 201 8 190 11 199 78 156 43 21 120 189 25 96 165 235 220 70 35 122 240 129 152 246 149 226 
219 129 114 175 79 156 96 64 185 195 46 52 192 80 181 198 77 82 77 99 136 141 87 180 101 128 67 193 189 161 32 37 51 226 191 46 10 234 220 92 30 255 141 147 74 247 133 114 88 79 156 80 237 128 203 23 209 208 57 226 88 197 220 198 108 46 19 219 63 29 190 213 155 34 204 231 78 24 192 57 120 162 25 254 252 15 15 149 187 115 70 69 221 89 205 74 46 48 44 129 
222 84 193 236 173 142 44 248 152 83 207 83 39 116 164 226 160 35 85 75 143 56 155 185 34 244 75 244 155 209 196 114 165 54 121 40 43 38 236 9 144 89 127 71 234 14 248 217 27 70 221 102 186 20 25 246 14 94 50 79 153 210 8 122 145 244 97 226 71 21 61 67 18 42 224 37 2 183 187 174 250 176 249 61 46 108 68 128 172 196 217 24 38 82 213 216 216 76 45 163 
146 34 6 189 151 234 226 63 189 7 109 89 32 221 75 110 109 199 12 121 9 173 156 82 166 218 149 69 21 138 216 115 179 29 203 42 159 253 30 0 13 66 137 47 20 233 233 167 104 198 29 112 165 85 103 21 117 146 209 31 149 252 138 107 145 104 210 2 165 182 36 212 126 101 252 248 105 56 193 202 49 8 199 177 91 8 41 59 236 232 174 219 79 242 130 23 173 13 175 102 
227 90 22 159 60 59 163 138 241 7 48 69 235 119 137 213 131 227 65 102 252 254 87 146 102 164 156 254 108 199 136 27 204 204 142 154 60 50 203 17 189 103 117 19 101 156 73 23 201 133 105 114 73 28 188 236 168 24 153 100 50 109 168 131 30 111 139 131 152 28 78 71 145 177 133 129 20 84 132 74 150 252 143 53 164 146 172 185 50 86 11 150 188 43 127 203 194 108 77 105 
27 41 121 193 103 182 6 107 233 82 73 111 46 246 7 7 160 233 172 166 87 134 3 93 16 105 139 151 91 16 5 117 76 76 88 72 43 98 51 230 55 71 40 46 93 254 206 64 74 240 201 116 44 85 158 128 124 229 243 146 46 162 238 212 114 180 194 79 160 122 133 31 113 117 94 169 38 247 17 232 132 98 230 139 97 132 168 211 201 199 251 93 134 56 181 98 32 231 87 236 
68 26 70 222 189 193 170 178 187 241 110 179 41 11 9 18 116 137 137 173 67 246 135 67 191 229 167 48 236 125 134 35 62 187 76 161 226 48 3 248 54 110 74 89 7 47 165 204 103 40 136 137 168 128 66 250 192 115 43 34 166 153 80 94 55 54 235 138 239 80 152 46 244 7 135 173 255 71 144 240 141 201 58 42 182 130 210 128 164 243 42 145 81 70 156 74 162 35 167 106 
192 167 224 147 186 100 71 123 113 19 171 96 209 129 108 158 112 97 156 204 139 171 111 255 73 100 187 226 2 179 195 128 223 70 232 69 22 228 141 95 106 79 112 98 60 35 181 145 195 139 47 203 36 118 89 175 30 181 98 20 27 3 238 78 114 93 137 8 132 122 181 104 48 183 156 234 117 140 204 238 84 52 199 65 15 146 187 175 100 88 51 136 253 205 221 187 196 29 6 208 
124 227 60 166 79 16 58 247 113 247 123 163 163 66 109 21 117 206 114 187 151 40 104 100 157 174 119 135 52 83 250 7 249 68 9 214 118 121 135 86 226 222 81 90 145 187 252 242 76 147 92 133 201 130 163 119 149 13 254 19 178 90 131 178 24 103 170 243 1 9 106 243 77 151 118 58 146 135 159 70 25 49 167 139 200 207 199 140 209 144 110 183 200 47 41 29 199 99 60 144 
198 67 141 231 185 177 64 238 173 27 24 37 30 17 230 58 134 179 192 211 67 34 47 217 29 255 124 107 12 123 76 225 163 235 33 8 213 186 55 200 254 189 226 42 54 245 184 214 88 213 254 163 81 84 86 74 78 173 125 216 97 13 9 105 0 14 188 98 77 117 242 21 186 131 184 110 72 242 146 255 218 26 0 95 7 203 99 88 71 91 130 22 174 244 109 160 53 222 69 23 
66 231 228 162 169 232 205 31 38 239 110 144 22 68 93 160 43 181 106 90 141 232 6 125 212 64 78 104 55 55 39 86 179 103 194 232 99 65 26 3 83 231 20 246 218 52 109 23 246 11 168 162 39 128 170 232 141 231 56 209 99 107 18 148 149 0 58 37 43 242 120 203 92 70 72 79 254 253 108 225 211 74 43 103 254 93 130 36 21 41 9 189 57 103 23 232 241 166 195 51 
160 169 230 8 150 140 147 126 48 5 222 13 28 101 44 88 235 73 251 0 244 244 212 222 98 236 187 15 131 11 9 20 98 38 147 214 239 24 164 127 64 164 50 144 221 74 44 26 247 112 53 114 41 247 181 163 208 23 131 13 195 245 173 184 152 17 96 156 79 30 141 12 125 131 132 199 196 226 127 91 193 94 68 234 220 71 58 111 48 89 132 213 142 84 85 250 85 240 61 102 
248 227 91 53 35 190 137 2 90 34 175 140 168 119 45 249 81 181 0 126 228 172 253 56 197 116 102 166 42 124 94 56 83 52 18 247 1 169 67 240 123 37 192 184 179 184 138 154 95 118 57 81 4 81 149 25 170 247 55 173 8 65 121 16 129 212 171 248 127 124 194 58 59 151 91 59 223 118 155 12 226 28 254 16 60 47 34 64 42 188 171 227 229 208 143 239 237 239 89 112 
78 245 94 129 51 225 8 69 171 209 91 97 52 175 101 36 172 141 87 204 89 186 212 152 246 53 232 108 204 97 239 121 117 228 45 72 40 133 178 131 48 173 250 254 181 183 216 120 228 0 34 32 179 134 32 206 186 174 229 254 204 48 205 170 236 195 130 90 151 86 110 133 25 105 214 49 231 237 26 61 8 190 110 254 127 86 166 238 127 53 72 250 49 127 138 159 37 170 170 232 
140 18 31 149 104 89 192 19 255 53 38 130 174 226 212 147 111 177 99 79 245 108 38 124 24 56 186 17 176 242 44 254 121 71 25 114 239 149 238 141 163 210 205 49 233 9 152 245 118 18 122 11 196 182 179 91 253 29 172 98 92 235 78 101 101 99 220 218 74 186 69 10 186 83 148 115 85 157 149 147 136 14 17 124 225 68 0 179 91 60 46 95 138 79 178 41 13 197 213 51 
185 77 200 228 175 229 134 114 118 199 217 94 144 82 163 76 178 19 43 122 170 157 201 30 50 89 4 67 195 7 99 124 223 201 173 194 187 20 81 65 194 19 159 85 2 199 95 15 247 209 53 205 22 239 144 144 219 47 100 62 183 220 41 84 41 212 80 44 168 198 118 175 16 128 57 229 24 217 11 38 6 1 65 172 39 192 76 214 71 201 100 172 22 92 7 78 53 108 128 187 
168 7 253 65 182 116 209 246 223 127 19 158 25 28 113 170 71 99 119 162 24 100 40 140 5 137 102 209 67 190 190 138 205 195 138 156 65 17 14 17 54 126 13 23 180 127 83 100 243 190 247 91 19 92 75 64 178 109 242 137 225 24 6 122 21 139 11 243 117 78 131 160 206 202 34 99 177 229 100 12 206 13 206 33 146 71 24 4 228 186 41 120 185 45 13 103 251 163 194 113 
37 49 8 48 28 96 164 11 133 160 207 111 86 108 250 94 204 157 196 63 198 156 146 219 160 3 72 111 119 59 70 122 19 25 17 249 247 44 220 115 205 41 90 32 11 144 72 108 9 125 190 245 16 97 211 2 197 4 102 8 16 18 3 111 245 246 92 94 195 38 223 20 102 65 246 115 155 173 113 216 216 218 205 174 137 176 3 44 86 96 232 207 14 85 65 199 185 132 10 80 
120 71 90 255 50 165 60 225 80 77 104 165 247 83 83 138 209 89 218 218 54 53 43 20 59 122 29 40 101 117 64 34 48 215 115 161 195 158 179 164 9 31 211 45 21 31 92 208 94 117 10 14 227 55 219 103 75 230 253 11 64 13 54 41 70 188 173 207 117 200 87 4 249 50 190 250 212 84 50 121 75 8 50 226 44 99 104 76 112 176 16 224 235 127 14 218 36 157 132 50 
225 217 104 144 156 63 24 4 216 50 237 221 201 215 159 116 126 71 131 71 178 7 3 72 55 136 136 164 172 173 42 198 9 152 164 177 239 44 201 170 51 205 28 16 48 18 140 23 5 207 182 184 148 49 149 154 157 44 115 202 244 11 158 78 144 101 84 91 88 105 160 122 250 92 123 167 204 225 167 244 238 3 253 160 216 182 168 20 140 243 237 154 11 41 20 6 139 207 153 231 
13 2 199 170 40 76 254 11 241 238 110 193 1 88 235 38 22 254 50 58 11 101 51 162 126 221 225 26 111 73 54 193 90 88 205 152 122 164 217 248 62 128 204 191 110 83 237 149 65 64 22 93 61 190 104 178 86 233 92 126 132 91 86 112 235 99 175 29 9 27 182 225 86 170 138 42 3 117 173 163 136 126 189 252 183 203 194 78 62 27 38 246 252 196 154 72 121 43 156 218 
0 148 37 210 189 81 235 18 190 115 235 149 79 88 226 39 87 127 233 46 146 51 29 24 176 57 242 83 76 164 181 197 69 60 248 166 76 151 231 242 179 156 227 83 183 123 25 133 8 211 153 101 55 177 54 134 201 144 255 10 125 109 123 142 60 113 183 166 30 41 229 66 2 29 155 102 136 123 39 179 190 182 16 234 229 82 190 227 171 250 61 39 151 4 174 187 136 14 26 131 
191 112 32 9 178 120 40 201 178 136 57 174 216 188 24 16 142 245 72 30 191 44 209 214 235 209 109 74 216 169 3 13 182 42 67 93 144 143 36 37 135 204 202 237 188 188 81 166 83 86 50 52 174 216 35 205 127 69 214 34 51 98 28 141 46 130 183 54 156 72 181 71 144 59 245 73 51 27 38 29 173 195 158 246 223 193 193 115 81 79 91 156 243 208 114 70 140 143 95 232 
159 41 58 181 77 175 177 17 128 227 74 153 179 205 196 78 216 141 157 6 245 228 124 83 134 162 198 5 78 187 79 140 212 5 86 83 96 117 192 97 80 185 228 9 217 209 20 139 202 147 113 127 13 154 147 192 74 254 135 9 174 18 144 36 242 126 169 2 44 253 170 61 233 179 31 171 43 155 0 43 223 174 243 21 169 211 62 162 24 255 85 79 96 33 90 243 188 178 68 211 
154 18 138 108 109 93 202 168 200 231 56 160 227 116 204 235 63 136 79 151 155 104 135 192 241 149 133 232 129 84 213 195 52 163 164 216 220 30 250 79 17 142 103 34 86 9 178 237 46 216 98 98 214 123 130 125 206 110 254 92 125 154 202 180 71 25 240 105 183 117 48 42 1 125 243 31 107 23 255 121 163 120 98 125 240 218 200 54 13 21 236 109 177 247 66 146 182 208 90 124 
47 122 249 165 138 28 167 218 77 110 248 123 143 169 130 253 154 116 74 175 34 129 238 50 137 212 64 206 33 200 55 179 20 24 192 223 56 197 91 250 255 90 118 143 106 151 45 160 126 42 219 50 69 161 125 81 9 83 40 191 68 124 66 233 173 197 210 239 130 208 72 144 15 16 156 93 105 39 42 140 37 194 110 110 201 255 85 71 138 46 145 7 158 231 77 38 18 121 112 128 
0 250 166 28 200 163 62 102 84 2 165 45 242 23 200 159 217 194 241 98 123 54 132 90 251 172 132 65 148 255 177 205 14 67 94 101 110 195 246 118 206 69 38 89 40 217 33 53 54 21 208 107 95 224 180 246 47 145 219 136 150 63 245 39 127 23 166 53 215 126 99 20 2 10 48 253 76 202 33 78 198 227 31 145 123 42 61 8 219 236 227 5 62 252 47 183 206 57 218 73 
79 70 31 29 213 23 102 210 118 197 55 56 145 221 180 175 223 227 231 24 228 232 143 0 138 188 104 224 35 24 8 179 34 200 113 162 135 165 157 77 20 105 65 143 26 32 4 181 18 61 41 107 209 60 57 74 160 202 180 82 176 50 127 9 166 79 46 48 92 27 216 29 34 119 239 234 102 175 161 120 164 187 248 59 21 4 12 144 243 92 215 209 132 238 239 169 26 113 162 132 
33 180 228 185 166 64 192 160 187 128 8 39 27 147 195 221 247 152 37 20 116 134 236 109 187 16 142 168 154 28 142 223 57 165 49 142 210 80 157 245 195 19 133 233 92 10 11 172 41 133 10 96 42 146 22 210 106 173 227 171 74 236 38 83 76 116 53 81 24 15 120 86 236 106 61 30 62 16 52 14 42 104 203 141 201 237 153 247 176 157 7 164 50 150 196 137 170 3 70 12 
44 223 105 74 8 250 98 238 249 4 133 76 122 101 239 248 148 198 73 123 180 156 179 6 19 150 215 96 12 75 27 253 54 168 144 104 80 43 169 19 167 130 77 188 162 23 73 23 242 241 95 22 221 73 208 137 201 129 131 138 186 108 31 8 155 27 161 243 245 175 192 131 91 50 210 239 43 254 238 35 128 98 235 227 82 248 118 205 68 227 134 194 77 18 233 88 152 76 108 178 
196 184 9 111 41 209 193 50 218 199 63 55 56 45 80 11 74 177 88 106 232 91 165 208 249 250 125 146 113 142 224 153 65 71 189 188 22 246 213 116 175 205 208 162 25 22 5 63 147 227 172 218 42 27 115 117 21 185 125 246 65 184 210 147 232 83 92 113 53 156 129 95 7 179 166 195 171 229 29 97 36 254 201 43 24 30 215 241 144 98 168 114 11 145 28 60 129 38 243 113 
140 83 127 124 192 139 195 102 12 99 148 240 227 57 65 115 168 163 164 175 171 62 169 128 208 209 26 87 111 65 193 76 152 42 52 8 66 200 177 20 234 151 140 246 88 75 248 103 222 145 244 201 212 81 6 252 245 129 120 230 202 153 85 104 48 12 225 156 127 110 158 208 137 180 151 37 153 10 185 129 133 103 122 129 155 39 248 175 208 95 121 30 116 103 166 153 140 189 237 5 
105 130 31 0 16 30 90 216 78 11 211 59 60 212 163 68 78 78 231 3 52 215 14 53 144 254 90 127 131 73 138 9 0 226 205 130 107 115 21 106 189 136 176 238 52 239 87 207 154 51 14 222 167 110 0 109 187 107 42 186 95 199 40 21 49 17 21 7 4 32 181 76 118 225 33 117 209 169 67 193 211 122 222 57 27 153 1 144 222 31 174 145 89 120 97 172 0 9 106 28 
121 98 99 205 80 9 168 22 146 172 241 200 219 61 231 139 28 184 115 213 215 20 75 159 102 162 145 129 168 143 197 119 71 1 227 22 3 99 74 240 46 120 15 115 195 215 237 186 136 22 195 166 218 141 250 177 229 119 172 28 200 144 28 240 26 42 73 57 9 239 87 187 1 18 218 111 86 85 223 240 33 44 175 40 162 40 131 207 72 117 169 64 112 227 15 200 246 170 23 123 
254 15 223 160 63 45 196 155 138 112 95 54 221 60 57 192 94 219 248 169 228 148 172 244 240 218 94 194 149 165 111 228 96 134 220 47 46 68 207 199 28 255 197 129 6 132 164 97 147 43 137 157 79 232 181 151 186 38 122 201 23 103 5 240 135 161 122 59 177 28 101 13 172 85 107 147 152 89 13 159 79 84 143 220 2 243 207 50 132 39 46 89 158 122 68 42 242 207 114 241 
223 151 241 213 110 250 199 198 68 82 6 134 248 171 2 119 175 182 75 184 112 240 34 34 12 14 128 198 35 9 168 235 125 154 199 143 211 103 14 98 32 180 251 198 161 111 195 22 36 6 92 51 157 182 228 60 117 224 225 194 234 72 197 69 21 232 129 131 138 108 60 168 156 109 29 4 82 29 163 75 67 242 53 158 222 102 52 224 97 197 48 14 130 141 141 5 95 49 225 176 
64 20 119 153 23 23 22 179 40 199 46 252 153 35 159 30 144 148 149 154 13 69 184 213 13 182 58 101 109 157 237 115 145 9 171 163 185 185 254 53 6 186 109 89 164 58 106 154 45 243 122 220 111 192 209 105 153 95 240 75 103 216 201 0 140 237 45 160 32 73 244 123 55 200 237 74 146 230 38 17 109 68 111 204 198 198 174 126 132 136 243 148 27 32 9 76 206 148 20 117 
197 248 68 158 189 120 130 32 56 248 164 99 52 52 252 45 144 109 41 33 181 116 22 182 128 73 90 155 232 223 76 135 0 136 188 92 144 112 192 151 60 225 45 150 38 192 144 9 206 133 89 178 117 24 121 186 188 1 196 171 196 91 254 211 55 6 30 102 185 11 193 7 146 53 210 209 248 115 41 138 6 39 213 91 102 146 209 74 173 228 106 122 42 19 237 156 190 196 77 16 
56 103 3 29 235 95 195 26 241 246 249 15 95 9 193 21 200 186 168 74 62 66 74 76 118 153 212 69 103 90 241 238 229 254 33 218 87 79 19 16 110 27 59 177 211 156 6 62 40 119 110 83 75 71 221 134 163 156 253 13 239 146 127 61 51 212 42 179 129 128 42 208 60 246 66 152 250 47 212 141 33 204 163 214 210 64 211 47 63 93 138 38 163 83 9 133 17 116 108 202 
76 92 69 214 115 228 208 173 248 179 149 205 6 178 45 32 200 35 195 97 95 201 143 131 70 138 174 54 132 52 19 69 18 164 225 230 104 207 123 51 238 55 6 222 122 55 23 236 224 212 90 156 48 56 218 152 245 219 43 252 8 61 41 98 87 224 115 241 146 169 34 160 187 171 41 239 18 50 224 243 60 188 125 144 58 33 47 247 106 176 168 12 50 18 44 99 55 75 245 42 
183 211 236 134 246 166 223 136 212 249 164 237 226 159 29 83 148 54 22 8 57 147 42 211 246 21 241 63 229 11 244 161 253 231 21 163 151 116 191 90 253 30 154 49 134 163 230 160 32 217 184 136 202 43 161 246 104 236 200 29 224 148 18 202 53 62 99 242 94 99 215 192 151 104 144 160 109 74 50 52 143 16 128 240 17 20 246 90 186 14 137 144 75 155 94 162 112 235 159 93 
65 67 126 168 144 194 208 52 159 123 128 26 219 38 218 15 132 125 101 116 66 124 171 38 98 170 41 155 237 180 68 115 34 123 115 15 166 77 118 73 140 84 106 136 85 66 166 102 234 165 245 202 221 52 48 107 247 228 97 119 20 22 90 219 201 50 1 99 95 88 250 64 212 0 18 0 224 22 70 219 104 178 168 147 55 18 52 165 186 136 17 101 106 242 20 155 11 224 73 31 
154 201 248 211 236 119 36 169 212 114 222 53 194 145 155 223 24 127 85 139 60 151 5 218 219 142 18 49 196 29 240 83 118 120 29 74 47 147 225 104 137 13 144 119 53 56 178 108 116 160 211 159 138 251 38 96 132 100 43 103 25 147 229 22 58 87 216 227 252 29 104 34 195 236 7 13 36 33 225 0 173 95 21 132 2 19 72 141 204 16 188 120 230 251 255 149 30 99 16 153 
15 201 55 6 51 115 47 217 122 105 98 20 207 124 25 48 228 243 183 250 67 194 193 194 84 21 22 29 153 156 207 221 77 94 152 242 119 25 170 7 169 169 12 125 38 112 124 73 200 126 112 146 51 142 248 74 221 64 94 176 82 14 159 255 16 61 62 210 253 203 151 243 83 57 249 99 138 3 70 235 109 54 114 197 189 67 232 88 55 93 180 230 90 179 68 213 18 43 252 253 
66 147 198 235 17 52 26 151 60 230 139 238 45 130 216 213 7 131 159 126 44 20 57 122 67 90 22 184 153 237 101 230 52 26 80 87 215 16 177 76 245 7 32 251 165 172 64 206 214 169 211 50 215 83 87 196 31 14 205 175 178 147 109 32 193 221 250 45 178 140 134 90 249 196 31 215 179 53 6 234 233 154 46 35 19 179 220 129 186 97 254 204 6 168 181 152 16 168 45 133 
38 178 171 176 195 3 229 185 91 32 40 190 12 129 211 184 112 13 193 210 178 79 229 13 45 35 225 241 164 72 190 210 214 218 182 80 215 51 70 148 178 145 247 94 130 234 90 98 175 184 67 47 198 249 208 95 227 55 214 194 139 255 107 89 130 28 212 181 153 103 169 230 82 134 218 181 136 238 23 60 254 216 19 23 231 164 25 151 127 60 50 118 50 249 194 234 114 65 27 133 
198 209 100 186 159 1 46 241 177 107 220 65 159 107 85 139 80 165 20 11 252 68 153 239 55 16 28 31 85 201 153 129 161 232 126 239 119 168 20 78 224 94 237 131 2 38 99 219 146 129 2 97 6 197 96 117 94 194 17 184 97 80 222 105 145 236 58 242 152 228 140 163 97 225 134 194 99 241 5 49 60 129 142 154 147 145 157 158 37 224 77 184 251 156 232 143 70 77 44 140 
98 179 82 1 44 100 195 236 8 241 60 145 205 45 22 56 142 208 29 112 60 150 34 109 201 148 222 111 182 39 51 236 82 54 169 242 235 61 166 254 157 247 212 249 43 141 164 92 40 235 228 8 31 186 192 149 84 99 30 118 221 170 136 86 0 124 178 160 231 154 236 13 12 9 161 103 110 235 208 182 142 91 3 205 204 153 167 248 222 78 68 100 48 88 108 31 94 118 28 50 
113 143 129 70 230 238 235 123 155 21 111 183 147 226 179 119 92 74 97 67 73 169 0 84 246 35 26 28 125 123 140 105 6 233 244 243 136 126 225 136 84 64 129 184 180 89 152 226 75 178 213 119 151 192 235 33 104 173 232 109 182 3 250 254 157 21 60 66 58 155 17 60 48 176 116 178 204 101 99 202 150 189 232 236 217 164 32 1 178 51 206 48 141 136 186 138 142 175 67 175 
118 237 253 74 138 110 182 154 157 211 20 8 0 202 169 210 79 28 245 163 194 0 117 235 27 54 245 37 2 75 64 212 115 214 57 115 1 39 126 120 118 237 98 206 169 71 243 207 170 79 185 227 190 29 28 111 100 161 201 119 163 230 127 187 220 148 115 81 68 200 245 183 197 70 86 136 201 70 188 230 98 184 157 206 196 109 214 64 77 56 12 67 200 225 85 230 149 23 30 207 
146 201 210 185 112 61 97 72 114 5 189 179 255 40 62 175 21 61 67 152 103 248 151 215 8 240 60 79 117 203 179 126 167 251 120 103 209 103 73 107 183 98 104 235 66 180 65 223 252 142 119 11 104 38 86 32 132 193 36 253 71 80 91 35 164 21 133 158 227 139 206 1 54 65 107 216 188 12 87 104 251 230 225 72 132 42 5 185 83 129 30 77 13 42 104 142 130 17 219 185 
166 98 195 155 216 45 231 107 124 172 167 111 83 56 110 137 220 158 83 249 231 30 10 43 80 194 70 240 190 65 226 102 196 116 186 10 183 46 16 233 11 56 217 217 250 107 52 159 232 190 142 171 205 228 79 216 164 22 118 5 15 255 244 106 106 223 220 2 68 214 139 30 192 93 98 218 166 71 175 4 112 39 100 34 105 228 15 197 159 255 194 70 157 222 16 187 197 14 184 231 
85 176 145 46 93 46 110 125 166 6 239 118 12 202 189 217 14 7 163 134 165 1 163 127 88 130 65 147 57 120 106 47 81 221 121 65 29 108 9 120 21 106 129 226 132 137 171 211 106 0 117 48 150 104 168 140 70 221 23 115 150 132 3 233 23 153 219 52 205 151 91 128 123 218 176 198 174 183 128 176 21 86 177 190 161 17 32 54 101 44 102 125 37 50 202 93 72 151 40 53 
125 191 100 91 62 198 25 114 132 22 245 58 111 205 51 42 123 179 158 25 113 171 117 90 0 125 24 197 235 227 43 236 182 144 221 35 180 5 238 170 216 200 114 172 1 8 185 134 251 169 147 253 208 25 238 81 130 141 7 148 180 110 80 138 22 126 22 186 1 134 241 242 59 25 51 89 243 65 74 183 145 54 206 129 167 27 241 121 184 255 63 116 187 95 20 54 98 44 198 234 
244 128 31 146 130 166 91 172 204 27 215 65 35 46 104 47 191 85 53 104 31 112 2 228 192 92 214 126 227 184 90 2 239 162 169 201 225 94 63 126 245 212 252 22 249 14 232 77 139 120 130 147 72 75 108 151 162 77 232 33 40 239 69 175 207 115 7 171 154 1 101 245 170 131 40 97 98 197 194 75 65 248 133 65 244 68 113 106 53 203 128 99 184 80 150 158 180 222 197 81 
93 95 87 150 193 242 74 111 72 57 64 143 141 142 122 173 126 122 64 229 34 244 161 212 41 162 54 174 44 67 77 118 211 195 252 76 114 62 242 184 171 252 150 253 47 107 137 74 90 213 156 175 122 77 101 110 94 149 230 243 21 84 147 193 138 126 165 113 229 233 148 8 3 191 102 191 35 65 67 244 205 86 237 35 204 6 65 69 235 230 14 100 70 136 103 7 248 175 183 98 
131 169 15 50 108 0 161 214 159 113 45 192 72 26 112 194 193 157 3 164 166 209 0 101 15 158 60 75 225 80 165 115 141 172 35 77 97 196 217 186 21 108 109 131 18 190 105 139 120 93 237 221 214 209 240 234 222 88 90 138 51 92 197 106 9 66 9 40 198 94 226 142 238 232 195 75 196 181 104 71 75 2 111 67 70 15 44 147 209 222 244 95 205 149 69 25 224 137 72 87 
41 109 219 39 116 102 38 208 195 32 39 250 24 140 226 142 230 193 178 164 104 161 78 158 116 160 169 210 232 144 82 151 124 61 107 182 134 187 201 34 43 251 218 32 160 255 124 114 85 27 109 244 168 24 134 109 110 249 236 104 1 231 100 171 230 162 74 5 130 193 216 249 24 156 35 209 184 70 133 63 19 148 86 220 227 37 54 14 228 69 103 154 230 214 85 6 131 160 142 70 
93 138 100 58 128 47 207 36 10 144 229 80 220 203 118 185 175 35 183 129 135 22 119 211 7 91 87 153 159 43 89 77 8 0 203 226 91 6 118 143 147 57 174 131 240 213 50 198 180 37 153 183 10 228 105 153 213 208 37 116 254 209 193 247 142 121 47 61 107 115 168 135 94 197 71 226 132 84 105 77 75 178 127 23 14 73 64 250 252 143 240 228 163 35 10 14 95 128 215 232 
174 232 109 137 95 127 2 146 2 94 94 193 96 14 110 41 190 232 238 29 153 180 125 113 18 125 172 96 21 201 232 18 108 76 247 128 239 7 72 177 157 44 55 167 126 244 224 42 186 158 200 115 96 217 70 226 60 141 211 173 125 109 59 111 158 240 102 149 189 190 128 151 103 57 220 126 10 179 244 179 97 208 23 109 189 192 162 120 199 82 198 156 203 166 165 99 41 67 83 62 
170 237 66 201 101 17 171 37 207 107 233 11 37 150 144 76 85 140 72 34 146 196 41 192 248 174 165 29 250 114 44 249 87 15 130 238 1 146 83 171 88 35 157 93 177 40 22 195 216 63 172 122 217 174 7 244 249 7 114 64 85 181 9 239 170 161 142 141 42 45 148 6 9 121 155 178 125 152 44 29 149 5 213 113 107 75 156 127 4 143 202 162 195 8 79 182 228 86 68 138 
215 178 78 185 91 56 172 76 71 199 125 39 103 96 153 94 81 123 13 4 182 177 208 225 199 61 56 32 53 192 228 247 175 247 149 253 26 178 150 10 222 22 241 72 228 153 221 43 59 158 108 71 236 95 171 183 225 76 224 246 107 33 113 240 239 24 103 166 168 24 193 228 223 56 51 230 135 201 44 92 118 72 103 33 111 64 216 101 199 208 66 37 168 179 66 92 92 93 158 125 
25 91 90 171 4 160 43 164 170 130 131 180 122 17 68 45 163 230 100 229 246 37 230 117 169 39 149 112 133 202 246 73 237 69 233 102 119 249 114 234 169 55 76 18 53 216 58 167 219 149 142 231 137 0 145 72 120 55 0 100 183 124 97 255 42 200 217 216 255 160 16 39 67 231 231 238 130 222 45 68 51 200 184 255 120 107 40 128 28 129 158 195 239 116 28 122 220 67 79 21 
55 81 189 222 85 101 45 107 67 187 92 194 32 85 245 28 211 210 70 231 172 46 174 242 148 206 137 161 174 23 234 139 105 236 241 23 190 201 157 154 208 75 31 246 164 167 253 36 132 226 19 198 119 93 43 18 124 91 49 204 157 226 213 137 194 226 146 199 79 55 160 61 90 44 156 114 128 46 169 60 135 253 89 35 129 43 208 51 212 229 29 58 236 223 40 113 218 244 215 96 
31 113 64 70 177 118 50 251 61 160 235 59 62 174 114 104 135 76 84 217 153 112 42 35 253 119 164 65 8 228 170 122 109 104 149 71 52 103 248 112 54 103 238 172 45 224 157 151 216 67 214 139 88 10 169 15 23 188 3 166 96 124 112 103 179 126 154 47 18 1 8 123 220 134 66 57 2 17 245 6 118 184 0 216 136 46 74 131 157 61 240 56 244 171 60 243 166 89 141 83 
177 99 253 199 230 65 101 168 120 211 166 229 70 1 33 127 150 254 122 127 252 166 116 227 187 45 2 34 158 134 137 232 112 127 118 19 230 188 246 28 61 178 44 204 97 231 42 195 30 56 108 50 69 188 83 241 187 149 9 227 223 126 205 5 8 54 124 215 9 246 178 211 77 185 127 166 195 143 162 93 162 203 156 49 204 142 99 123 200 41 16 175 28 33 114 168 199 161 47 64 
85 215 51 199 152 209 210 208 180 136 17 154 109 182 32 90 202 62 200 39 133 152 249 124 191 211 124 250 179 121 208 58 184 129 232 194 84 224 70 249 94 131 245 66 156 112 217 41 253 136 74 105 42 82 10 200 254 172 160 237 126 184 133 202 213 157 116 204 102 197 9 50 177 52 64 245 80 92 88 72 82 254 32 126 225 180 108 187 231 57 115 235 132 15 53 48 72 79 89 237 
88 201 5 131 252 181 252 185 117 143 232 203 17 252 198 114 70 27 167 170 30 82 114 170 67 109 130 197 219 103 167 175 24 244 132 226 180 20 143 93 225 137 50 28 72 249 16 49 88 193 102 10 203 202 247 149 194 23 131 31 70 92 51 162 115 104 27 144 51 35 30 237 93 83 76 142 188 24 122 155 107 123 76 15 214 186 118 138 221 6 24 31 240 211 20 216 171 107 239 103 
228 149 172 131 165 100 163 101 183 104 1 140 181 217 205 71 28 144 72 112 198 254 71 140 230 95 176 116 65 157 120 6 189 168 15 206 68 59 171 44 238 126 76 240 209 56 227 3 99 99 190 191 140 134 235 96 179 109 38 120 16 60 100 63 189 176 128 122 46 237 144 12 217 194 189 9 40 27 200 242 144 88 215 240 122 2 45 226 114 192 166 110 105 132 230 175 49 175 155 6 
94 123 230 25 41 182 224 60 16 103 1 141 105 65 14 18 115 39 106 202 64 104 95 13 233 63 78 45 10 114 141 62 180 41 160 153 199 190 146 222 183 89 205 1 201 200 73 103 132 114 208 69 235 155 28 245 113 220 125 38 0 198 1 186 203 63 224 83 221 199 244 121 146 63 155 25 147 68 212 81 229 174 211 191 24 200 217 239 180 148 234 174 183 149 252 85 135 10 78 163 
107 225 12 146 74 187 82 200 180 73 114 123 161 69 17 61 121 240 221 240 74 236 47 8 118 53 50 4 28 240 18 187 111 224 241 255 101 69 145 248 239 163 69 93 189 189 76 36 176 121 158 78 150 65 2 30 186 200 216 217 224 207 73 51 49 93 21 195 200 197 159 195 160 2 116 79 59 56 52 57 154 125 46 246 26 112 242 15 68 111 1 136 118 23 254 202 70 164 187 136 
33 220 45 59 12 35 70 183 221 19 116 34 19 6 185 213 51 43 197 145 220 12 212 218 81 245 209 40 12 58 206 218 75 67 10 206 109 189 94 168 74 146 61 84 97 57 166 72 214 216 6 196 169 176 162 75 51 201 1 145 39 34 99 174 216 126 165 213 17 143 70 71 48 209 83 188 57 255 154 231 107 155 80 111 202 20 108 157 43 179 200 40 180 38 26 45 182 62 11 238 
208 36 56 166 128 211 234 11 158 45 74 53 130 224 114 211 142 52 90 82 18 13 68 113 163 31 97 91 71 231 178 161 247 189 112 95 4 46 23 16 200 41 224 62 92 43 150 70 82 6 92 82 198 8 72 16 109 104 238 29 12 40 131 189 91 243 161 180 122 189 27 170 19 222 178 180 4 156 204 68 22 56 88 214 79 182 147 138 123 105 194 11 186 196 157 59 28 36 125 40 
40 86 200 14 23 159 254 88 140 46 11 134 56 211 33 204 226 118 87 118 240 225 119 175 97 130 162 35 172 5 253 97 191 155 230 60 11 118 113 96 71 156 214 41 99 21 243 223 164 74 177 110 55 178 99 91 80 3 177 205 223 204 163 215 64 181 220 32 8 123 40 163 166 182 137 63 163 174 144 56 82 47 140 223 121 87 154 19 192 23 172 134 155 128 217 55 136 193 53 69 
195 216 140 15 29 240 61 183 254 137 0 22 135 105 176 31 11 67 194 231 179 6 141 13 36 24 167 166 160 235 249 61 242 195 92 70 193 134 25 31 12 160 68 232 172 156 118 45 62 101 88 96 115 86 114 203 29 89 169 179 203 140 37 51 6 117 113 123 75 239 192 114 21 193 65 136 35 253 48 248 133 48 145 29 23 68 206 243 72 8 42 121 37 43 87 90 76 169 201 85 
172 199 244 59 142 195 71 174 162 3 177 39 218 118 71 101 231 157 220 84 106 182 8 177 186 129 119 86 51 200 226 182 95 146 9 191 178 156 14 119 66 238 9 202 70 104 85 120 16 222 193 180 29 22 125 131 208 252 244 117 232 248 231 191 82 13 125 139 112 141 189 230 215 110 223 172 7 88 115 195 181 69 230 133 125 9 18 111 130 230 52 184 39 236 60 147 21 168 112 146 
138 77 140 198 33 237 104 66 155 220 242 77 229 213 247 183 144 159 213 232 249 19 94 14 198 45 34 93 155 122 4 185 67 145 113 86 30 30 208 24 162 48 15 7 63 103 109 54 57 255 198 19 161 54 178 204 87 26 34 224 244 227 249 194 36 91 95 151 161 227 111 166 170 4 233 208 185 195 47 9 107 129 7 105 239 26 231 72 32 26 234 255 250 89 49 37 106 189 250 225 
76 49 203 63 30 162 191 48 22 188 94 106 77 51 195 115 32 50 186 253 52 166 217 28 53 64 224 172 119 205 37 167 105 121 163 190 234 50 10 131 30 113 16 34 49 151 32 62 109 173 91 242 241 42 117 186 220 100 244 207 87 228 197 248 129 169 170 26 248 5 248 28 55 98 102 2 63 176 14 116 186 28 200 57 138 47 90 35 5 199 40 233 143 98 62 190 163 177 224 166 
254 117 66 63 155 13 78 124 128 220 193 57 88 243 43 150 206 55 96 221 88 49 38 162 203 139 253 88 96 143 214 105 131 85 151 32 166 146 39 120 66 41 139 208 16 156 162 123 34 25 184 117 245 18 218 100 134 191 116 160 133 35 184 212 145 233 47 33 103 219 41 120 27 217 157 118 62 207 67 11 195 84 205 111 246 119 59 250 8 238 115 115 246 148 248 215 227 189 17 147 
216 98 86 71 172 241 155 190 231 208 103 114 60 136 13 248 28 105 209 200 15 125 76 116 163 102 77 247 82 138 41 104 162 236 242 199 162 105 153 10 230 36 132 58 98 130 235 190 125 131 139 207 166 163 31 136 75 42 170 47 212 92 110 66 111 243 147 85 206 204 119 200 22 165 129 89 30 18 186 90 217 111 87 242 108 97 145 19 218 172 89 164 59 184 221 22 135 212 134 97 
21 79 51 147 17 103 192 147 56 0 176 220 128 155 52 184 173 49 29 208 237 63 254 30 83 105 158 198 145 168 74 221 117 243 99 117 208 118 93 92 111 64 155 186 96 237 43 26 40 204 235 159 94 75 66 208 233 1 48 199 112 234 63 41 161 223 79 36 74 6 211 31 62 70 113 252 176 90 59 190 39 249 53 15 155 182 74 127 68 28 136 44 56 27 255 158 144 206 128 233 
59 233 70 26 194 236 43 124 202 87 191 75 55 31 157 10 133 233 211 184 36 84 144 233 175 16 173 149 13 160 247 236 36 170 22 64 0 180 230 219 43 148 247 183 112 174 203 14 149 38 215 63 151 116 90 165 247 5 44 84 179 231 104 7 238 43 157 241 4 9 185 186 128 168 86 101 8 220 200 235 118 103 122 11 107 229 149 63 101 244 246 251 100 168 5 212 135 41 101 181 
124 106 23 29 24 186 22 113 116 106 242 105 110 99 130 1 113 81 61 0 155 107 237 103 75 105 205 14 113 14 37 87 180 87 245 27 15 113 36 23 56 155 185 178 89 168 85 186 98 205 115 214 193 129 10 6 228 163 213 180 234 6 193 34 94 211 186 121 76 16 229 193 46 82 252 178 92 0 111 41 233 141 89 58 105 84 232 187 235 12 90 242 117 223 144 71 17 90 193 236 
221 197 137 102 35 226 72 8 41 145 178 199 182 20 50 139 176 127 238 156 216 178 98 178 88 200 227 218 181 90 19 43 9 228 52 226 103 204 99 255 24 63 31 51 114 204 162 157 18 152 41 201 240 40 5 92 51 113 10 58 2 142 124 191 121 15 15 109 74 19 183 240 1 158 170 57 220 201 11 26 38 101 93 166 211 173 28 35 222 134 91 178 70 136 77 16 69 198 115 236 
195 193 82 250 187 209 145 194 174 231 131 135 75 17 70 182 90 134 41 197 22 151 36 71 179 164 173 109 171 12 70 138 175 162 95 208 149 128 180 144 25 165 78 213 19 218 113 154 67 67 177 236 108 23 74 193 123 185 129 153 193 201 156 167 57 135 23 60 50 220 26 182 91 12 6 92 26 138 208 94 33 174 72 124 126 40 208 235 80 95 114 162 174 90 118 173 2 211 109 78 
76 155 36 220 152 142 30 93 134 118 96 223 120 33 109 188 132 97 162 161 1 93 154 238 113 0 251 30 20 90 243 180 211 153 15 91 120 71 238 247 155 91 25 253 175 249 55 242 153 240 210 134 244 244 167 233 226 195 38 117 0 243 230 226 64 137 109 250 183 142 134 26 225 198 61 220 126 172 245 26 72 57 110 8 177 32 158 194 81 1 214 250 89 19 191 51 194 116 172 47 
124 249 217 195 204 148 33 67 184 51 238 16 187 58 148 88 224 191 45 170 246 249 45 179 117 175 177 209 78 201 199 89 125 98 241 149 219 32 4 193 161 124 158 213 156 170 229 45 95 190 37 153 214 54 31 10 146 137 23 93 116 148 138 240 201 226 70 59 49 8 48 226 177 140 176 43 82 111 124 42 112 191 207 58 209 117 188 204 159 244 254 90 107 67 4 154 17 75 161 74 
131 170 131 228 236 32 189 109 228 158 241 104 209 244 198 108 10 32 209 3 245 252 127 75 184 247 70 139 12 64 158 103 72 0 215 196 158 216 181 3 161 50 167 65 229 218 219 212 56 203 131 30 245 28 193 58 61 154 247 105 85 229 62 240 116 37 117 111 241 132 169 34 249 24 109 66 219 228 84 55 227 178 199 64 135 225 231 209 0 234 85 200 197 166 180 1 125 221 106 145 
39 92 88 123 171 238 148 67 162 122 165 240 33 4 162 90 80 202 110 84 136 185 181 185 3 130 199 100 190 218 144 184 118 211 72 232 250 148 90 151 59 14 168 220 212 167 47 8 128 241 118 24 70 137 181 153 19 196 109 59 152 228 176 176 202 70 7 114 201 194 192 118 190 115 2 240 96 70 190 165 55 91 208 42 172 187 165 69 180 231 99 83 147 6 177 35 197 174 106 79 
138 65 175 126 168 40 23 47 171 214 67 208 168 180 80 189 129 121 118 147 202 229 50 194 2 190 61 21 115 31 120 58 214 247 217 243 178 132 134 10 199 238 191 202 166 155 60 215 53 176 29 79 140 193 241 94 65 65 243 117 162 86 216 251 50 211 36 173 64 169 34 39 195 165 156 143 94 19 231 142 29 154 61 114 144 116 152 68 171 201 224 53 45 103 251 27 135 53 146 88 
3 149 117 187 220 53 174 37 218 64 34 185 188 252 220 143 220 205 159 241 216 37 229 30 83 113 66 196 120 127 52 2 237 188 192 205 83 236 213 126 53 157 173 122 162 225 169 103 118 2 202 214 118 61 77 82 67 117 113 57 94 226 156 238 143 139 149 53 84 164 136 24 61 161 153 94 68 175 193 154 232 65 22 220 120 62 131 191 170 21 38 69 39 58 46 110 144 140 28 111 
246 125 135 70 2 228 19 221 130 254 59 11 97 148 203 151 123 235 176 214 219 53 96 30 211 136 242 184 253 238 54 99 150 34 194 159 71 216 92 245 158 247 56 203 139 167 51 241 37 177 150 61 188 234 146 155 149 160 64 207 24 74 112 119 166 75 248 6 63 126 250 60 89 109 77 55 169 150 189 98 252 103 78 64 127 73 140 215 224 247 176 21 105 230 13 175 123 41 216 50 
0 206 60 138 122 155 146 63 54 86 125 245 134 185 148 169 249 48 54 15 243 53 10 252 166 38 242 112 135 210 38 67 174 89 15 104 31 112 65 54 43 84 221 11 121 230 90 9 236 228 210 244 95 57 29 18 27 162 202 103 189 184 44 14 213 156 34 7 170 229 23 79 144 60 191 13 197 244 64 84 198 35 234 75 36 45 138 48 55 245 159 184 44 100 200 76 216 219 58 55 
161 45 168 100 129 72 98 213 21 114 183 5 63 76 179 219 120 193 150 238 93 126 119 45 68 88 134 54 186 61 208 67 184 45 191 53 244 206 51 52 38 20 88 125 192 98 237 177 164 242 202 205 236 237 184 219 85 90 224 95 3 48 72 187 229 247 243 50 126 241 213 133 44 130 79 111 41 47 48 47 143 112 106 151 199 28 215 70 94 33 252 252 203 108 226 28 26 18 35 250 
154 129 126 131 129 224 36 52 39 17 92 201 135 184 53 245 120 123 28 194 95 133 160 77 77 2 16 88 204 221 3 13 182 188 26 79 42 164 136 252 199 211 72 67 194 174 195 152 179 43 184 186 4 109 214 44 28 232 145 150 102 248 183 129 32 71 122 228 148 134 58 133 189 78 234 58 24 2 128 73 8 86 244 126 9 32 74 213 230 190 51 31 141 7 84 4 69 207 245 126 
185 173 209 164 143 62 228 23 94 66 141 250 137 51 142 65 152 249 126 229 162 47 230 116 186 51 142 248 142 118 53 110 15 153 194 95 0 248 158 182 21 187 35 1 125 51 164 0 114 29 231 147 54 149 102 34 74 115 136 34 117 149 79 214 145 89 236 149 209 213 44 227 107 170 81 47 32 16 185 165 216 226 183 223 96 37 72 87 241 243 105 48 246 219 150 221 255 60 33 183 
254 12 87 202 0 93 7 31 165 231 35 57 58 7 165 78 81 223 213 211 213 36 6 110 246 88 135 250 125 112 97 90 236 142 36 176 122 186 67 62 104 147 92 201 148 58 116 51 94 240 111 66 167 14 87 211 202 180 199 39 160 36 115 147 141 82 163 140 211 49 30 93 188 173 188 60 2 246 217 102 129 84 156 215 38 13 53 234 112 124 12 48 92 239 210 169 149 195 86 79 
252 52 210 4 130 228 158 110 131 67 155 172 138 188 49 125 3 62 162 116 217 145 114 251 150 190 99 186 62 244 241 19 234 155 186 136 117 156 126 184 185 230 85 222 221 27 15 111 24 95 152 25 160 253 199 177 33 46 81 15 117 176 169 234 229 19 14 130 19 231 198 255 159 125 93 207 244 135 27 101 108 91 43 237 114 161 123 246 117 5 99 21 128 92 195 47 232 251 134 162 
