P2
100 100
255
222 0 19 223 100 190 215 150 88 131 88 130 243 61 83 250 141 243 86 244 52 184 184 48 230 69 79 119 254 27 170 185 128 177 240 104 163 102 4 122 190 74 223 225 129 177 19 20 17 120 22 36 103 159 63 154 148 94 87 186 80 232 79 13 15 132 156 37 47 82 120 104 56 225 90 174 117 219 167 167 199 208 243 176 182 17 178 255 253 250 38 159 171 94 211 154 164 16 239 57 
145 9 65 242 102 0 99 193 116 43 90 105 65 91 17 52 96 173 205 252 145 249 140 30 252 106 22 91 168 145 197 186 164 178 68 220 239 21 68 66 53 57 243 225 191 241 131 4 132 37 180 154 239 87 2 175 210 77 110 94 104 110 111 132 67 183 96 241 209 86 143 252 157 1 125 228 161 131 168 196 202 247 142 47 53 254 53 205 138 109 121 251 122 34 200 128 134 2 154 98 
217 231 82 198 93 4 83 101 65 66 19 135 37 72 5 96 235 69 159 151 227 131 25 216 192 167 234 94 19 4 160 119 62 109 128 71 21 8 74 97 135 136 210 48 242 13 138 233 60 163 229 72 211 187 222 79 212 247 167 149 219 214 75 229 172 140 8 77 109 113 61 215 134 132 133 195 195 57 178 96 228 151 247 161 39 224 64 88 120 242 102 242 157 87 70 159 117 123 87 110 
229 24 110 246 218 224 191 226 19 104 11 192 147 142 174 92 144 211 0 33 138 234 185 69 24 15 75 67 204 224 151 12 187 192 104 240 0 108 130 69 176 223 103 80 74 198 30 45 239 120 241 244 223 128 82 148 72 6 201 156 120 130 242 234 156 1 114 68 90 107 75 196 41 196 243 37 114 80 29 199 165 144 136 114 149 170 167 175 80 0 233 5 57 227 92 15 82 207 5 132 
189 215 177 152 108 234 7 178 39 159 12 70 22 1 255 68 54 55 84 174 168 104 96 50 179 166 234 57 61 12 180 99 206 72 160 149 76 74 186 164 106 75 175 16 153 207 177 48 111 235 65 223 199 99 219 248 13 237 149 120 148 116 156 212 235 46 89 69 97 0 29 85 72 36 105 72 72 242 217 211 171 45 228 72 5 209 138 37 45 210 210 177 107 19 1 13 228 146 1 39 
54 181 95 210 132 35 239 192 179 52 123 63 53 216 249 63 74 173 117 238 111 196 155 220 2 3 25 52 51 133 139 134 78 140 43 213 84 134 85 23 158 184 225 22 192 19 222 138 225 194 26 56 9 163 161 157 170 71 231 91 72 147 154 190 31 171 232 46 82 29 176 207 145 226 188 127 135 190 210 158 182 22 11 1 194 83 223 62 37 126 28 12 3 229 125 139 81 132 162 63 
1 121 28 161 40 137 130 62 104 8 230 105 117 83 22 255 42 152 215 51 251 245 167 187 124 46 218 228 191 85 237 88 40 242 121 45 199 60 5 118 26 103 21 246 135 127 88 113 82 48 26 62 225 166 106 213 30 44 69 188 63 197 17 85 88 32 76 6 249 150 114 102 241 236 228 152 181 209 189 143 33 218 7 237 252 78 74 112 124 171 210 64 145 97 243 178 97 217 81 186 
107 178 94 68 98 96 220 47 158 74 124 12 111 125 224 31 85 188 38 140 108 1 245 185 42 59 152 13 101 120 164 71 3 135 100 228 9 17 172 216 255 125 136 241 158 92 237 120 249 249 132 153 170 189 64 41 239 136 189 63 140 24 61 211 175 180 226 170 85 155 193 237 197 36 36 134 48 77 65 83 236 22 135 183 164 139 24 164 61 6 33 57 127 34 16 165 237 209 134 57 
202 17 161 174 60 170 45 164 39 70 197 158 2 245 1 227 211 180 70 152 168 98 51 216 206 103 66 28 33 0 126 55 246 108 243 220 246 185 151 87 45 16 230 122 234 85 74 176 197 207 206 116 56 6 22 156 234 26 47 87 216 225 101 67 63 195 63 187 193 90 44 145 239 212 155 136 211 118 105 194 118 9 103 240 155 197 245 255 48 66 154 115 250 161 81 2 112 111 89 64 
205 77 228 145 58 106 225 163 57 149 253 177 222 162 55 139 225 236 0 185 39 209 67 174 68 25 69 114 63 251 79 203 253 209 115 132 253 106 150 71 121 12 121 246 130 84 36 226 139 60 52 119 111 211 64 96 103 225 48 180 138 57 114 102 71 158 12 215 14 13 13 53 21 161 235 187 201 161 125 76 165 78 151 149 56 4 181 203 131 131 194 247 125 59 174 98 208 168 24 185 
233 84 174 79 238 40 182 221 109 116 101 8 4 220 98 141 36 35 68 110 173 47 143 43 233 171 219 223 252 251 141 42 121 194 73 0 194 123 99 195 33 99 72 130 67 147 46 160 227 132 22 253 217 67 10 77 198 14 43 229 200 127 43 168 114 160 12 233 133 181 24 55 10 38 118 69 9 97 199 151 135 207 228 167 138 114 213 123 112 32 122 114 135 175 197 207 159 122 82 213 
152 128 97 216 233 140 215 223 252 215 241 62 154 170 200 39 255 146 140 43 198 53 110 27 59 254 28 202 108 63 113 207 116 22 251 170 195 40 25 33 238 184 192 136 129 226 29 184 226 157 71 158 137 33 178 222 109 49 252 141 246 58 124 190 255 121 26 195 13 212 74 13 242 173 122 49 93 186 202 19 117 14 137 198 36 70 37 92 105 214 139 108 247 14 241 163 247 219 112 153 
86 144 248 230 41 171 255 80 238 29 186 150 112 214 229 205 137 34 146 28 103 178 147 211 166 208 28 244 56 149 2 229 68 96 91 10 219 102 27 241 4 212 239 229 206 90 191 93 110 134 87 175 173 98 173 135 93 59 167 98 43 163 27 207 80 99 76 169 52 196 76 51 68 101 71 142 237 248 226 89 156 192 233 241 180 240 140 147 203 220 135 42 99 91 20 6 74 135 110 250 
143 94 68 239 114 239 212 50 160 18 54 171 172 89 38 201 132 119 114 199 105 229 22 248 27 3 190 6 245 234 208 81 34 28 213 101 121 144 126 19 167 89 228 44 200 197 218 78 51 130 66 197 191 210 169 26 66 130 128 108 254 147 93 232 172 125 177 204 185 14 6 219 255 19 250 237 203 85 8 103 21 234 230 141 9 87 236 202 7 191 184 241 153 1 10 2 108 185 83 219 
248 113 129 84 34 140 188 93 207 210 71 55 45 187 1 237 7 40 122 251 35 215 100 163 250 88 49 15 33 47 243 137 58 120 154 46 49 204 239 166 114 41 130 254 29 144 59 69 207 194 200 46 134 230 4 42 234 170 98 138 36 28 207 15 40 205 29 17 53 134 198 188 110 117 45 122 219 173 117 171 26 137 66 130 15 133 115 82 14 99 110 173 204 170 245 223 37 212 89 65 
49 18 36 17 159 112 25 5 246 172 88 128 88 237 234 137 161 11 145 60 194 90 252 138 7 7 96 56 103 209 175 20 223 252 21 85 145 60 170 112 81 132 29 3 241 116 17 243 99 70 92 228 40 75 201 134 84 176 83 123 50 71 137 40 167 74 235 217 224 97 43 154 108 57 43 3 64 110 212 77 252 253 67 212 79 15 205 16 88 175 17 54 144 84 249 162 60 204 234 126 
240 247 133 221 180 127 200 209 150 0 237 3 226 80 10 238 242 1 73 145 57 123 184 109 84 183 162 141 192 64 153 42 53 21 37 236 114 26 45 153 102 227 38 199 201 147 13 208 12 201 20 141 231 206 190 6 111 96 0 166 135 191 25 76 49 3 127 3 16 9 112 48 167 176 123 131 89 8 20 128 36 16 97 63 163 18 25 67 231 35 44 142 73 152 113 35 167 246 9 197 
222 85 204 129 105 229 153 165 92 206 223 40 178 245 255 18 181 118 229 65 89 253 89 31 7 238 169 170 74 166 204 129 221 75 93 187 84 219 201 98 19 137 55 11 105 169 126 116 126 229 51 220 82 25 30 220 73 136 254 82 178 52 147 251 237 124 103 87 64 153 117 87 193 26 45 70 53 117 150 194 170 225 227 11 35 160 183 218 225 127 35 234 83 119 204 90 201 210 3 1 
76 237 208 4 223 118 221 186 28 33 54 191 98 157 239 112 12 164 185 235 17 205 142 213 89 84 124 84 176 11 184 31 56 79 18 25 2 82 183 161 216 191 52 71 126 132 5 171 60 78 245 169 221 26 122 195 166 128 196 235 190 201 70 205 69 5 55 87 45 81 99 119 19 44 220 109 137 17 85 164 120 70 231 146 172 180 250 233 227 34 83 156 168 218 111 111 69 33 218 62 
169 98 193 69 27 23 193 10 119 86 157 56 173 130 185 52 211 239 130 107 164 217 18 250 80 168 159 247 14 157 99 118 183 9 145 229 165 226 176 229 177 215 115 210 15 160 254 63 120 105 72 25 248 112 60 56 170 108 9 184 213 43 132 188 131 69 41 122 90 159 214 204 247 167 121 31 232 186 106 185 121 13 157 12 66 58 143 233 71 119 117 192 131 95 3 137 160 80 20 18 
15 66 39 196 100 221 209 130 92 252 16 35 254 96 203 184 6 103 239 192 200 49 253 193 78 168 112 46 156 49 35 90 63 224 223 144 0 205 161 161 172 147 203 88 196 157 151 195 196 246 184 58 158 139 47 62 101 35 236 15 17 10 241 114 58 49 75 90 201 223 31 88 219 197 130 165 7 180 217 64 149 31 190 190 108 123 247 232 33 160 30 181 166 31 244 62 235 133 50 104 
201 133 90 122 58 25 96 212 206 72 122 118 149 63 183 104 113 45 179 179 26 99 221 60 233 187 25 35 243 63 208 220 103 6 164 136 102 47 203 132 211 165 104 37 139 203 108 157 92 143 215 225 175 137 67 190 44 24 79 75 145 87 41 224 243 169 102 200 85 138 147 124 80 11 78 50 230 99 2 48 89 180 9 0 18 141 36 232 161 140 82 176 187 233 159 65 126 202 137 64 
235 74 154 179 245 134 85 20 58 234 92 14 147 190 127 58 240 214 46 43 136 154 58 61 21 217 52 35 62 234 59 200 144 46 81 120 10 13 27 183 33 86 210 133 51 85 0 20 242 140 233 252 120 54 97 148 175 71 124 200 239 84 201 32 125 185 225 53 70 107 210 160 107 117 91 179 67 59 24 231 60 145 229 174 67 179 210 249 218 122 197 3 87 134 87 52 160 31 3 82 
153 226 180 177 87 44 36 63 1 201 28 94 120 28 158 241 8 70 238 16 54 225 94 15 130 34 176 25 163 141 148 224 117 236 35 235 0 70 135 184 175 107 188 31 195 74 93 121 235 55 117 113 155 240 135 88 48 99 225 82 253 33 141 224 206 58 80 104 182 232 240 61 156 197 240 20 210 185 35 20 16 97 133 157 183 78 81 136 159 163 212 103 162 47 162 237 136 117 93 93 
140 235 238 149 3 6 231 64 198 200 164 159 99 174 27 238 190 217 204 161 23 77 75 138 72 106 245 163 246 130 94 77 193 1 71 32 230 207 43 152 218 27 187 181 139 0 38 6 15 17 69 103 1 133 238 5 21 229 113 108 117 199 83 254 197 237 84 216 68 223 81 34 33 157 180 95 184 193 176 98 11 92 25 119 145 151 124 121 43 173 99 12 222 162 65 225 186 159 199 46 
41 64 110 235 84 239 43 184 10 16 122 161 66 67 42 1 38 64 45 232 169 114 56 237 165 131 34 53 25 252 142 0 161 160 226 234 113 186 74 143 234 58 9 71 252 207 177 151 31 236 127 124 229 116 101 11 50 30 158 200 88 132 225 190 208 112 155 149 193 140 210 240 225 84 240 52 38 180 181 54 224 54 245 230 227 246 231 235 239 184 184 179 1 44 24 15 35 98 123 45 
10 136 247 164 233 206 104 74 201 141 55 82 214 2 201 177 39 123 255 25 89 228 207 51 9 254 186 65 191 97 195 182 232 186 251 170 75 88 109 20 210 46 204 219 164 4 91 129 81 131 210 209 102 167 70 43 126 105 114 3 166 214 2 67 219 148 99 101 66 98 172 173 147 35 67 204 191 203 67 49 205 217 129 92 77 95 175 15 113 163 56 34 226 253 37 29 145 153 16 182 
48 190 101 211 93 126 251 145 156 62 89 62 152 197 198 149 140 27 140 46 255 180 174 195 44 218 194 204 20 34 174 249 71 104 15 14 38 160 172 95 232 200 9 215 45 76 18 209 35 4 16 44 112 125 227 246 66 220 219 74 234 164 251 148 213 43 96 37 250 116 177 96 55 198 61 214 94 169 176 24 24 222 234 27 202 166 48 215 26 84 186 70 109 81 248 35 69 78 132 206 
102 88 248 232 199 85 251 12 191 238 194 241 228 141 53 169 98 13 27 36 155 130 123 210 147 44 125 63 228 48 69 238 209 45 86 216 185 113 86 73 98 253 231 48 144 141 250 41 140 82 19 140 212 19 242 94 19 222 253 53 238 37 122 84 31 88 248 44 116 11 66 25 85 156 151 180 89 247 221 224 47 163 26 189 57 131 207 59 17 139 122 162 91 226 156 147 57 175 138 204 
78 131 206 40 137 92 157 221 39 12 50 15 193 45 97 116 211 152 87 77 164 241 247 29 94 169 237 114 145 145 101 182 253 233 216 145 111 7 133 203 37 26 204 14 146 126 146 64 97 6 33 150 124 11 80 255 139 208 94 179 159 144 119 205 67 177 136 101 177 29 237 196 4 113 76 149 235 22 121 150 20 143 202 70 115 157 31 175 244 38 12 211 199 39 49 32 77 3 104 128 
93 53 192 172 111 47 187 93 146 254 67 134 214 19 35 88 158 52 199 201 63 52 34 228 132 219 232 242 214 137 48 125 190 242 246 126 97 243 186 152 245 4 159 66 141 7 194 237 17 199 200 74 167 155 14 67 77 82 130 60 48 64 42 200 99 255 249 61 44 171 135 113 94 18 167 243 192 60 246 184 35 18 208 230 75 161 207 41 75 59 83 208 28 103 114 233 2 203 126 241 
143 176 204 197 248 134 9 206 247 40 159 81 65 135 1 64 175 135 185 194 185 133 71 212 106 32 30 69 178 195 121 75 218 222 119 116 237 45 90 128 136 204 205 84 53 140 159 133 247 60 182 77 100 44 104 190 61 227 138 201 116 134 51 162 76 51 215 89 189 118 100 147 132 30 7 23 14 99 208 36 241 159 75 238 131 236 242 166 239 183 214 154 153 40 212 221 81 134 92 143 
181 120 20 216 115 199 117 4 194 36 177 166 88 94 244 192 112 151 219 191 110 90 133 152 86 200 123 12 235 108 114 133 70 64 12 17 9 252 131 172 7 195 243 75 126 64 25 231 130 22 16 109 79 185 39 132 39 54 32 115 76 29 20 117 5 247 210 115 119 28 0 167 8 30 205 120 36 85 232 37 176 137 153 182 1 119 88 85 200 253 177 238 196 239 195 223 19 132 222 30 
107 232 230 173 242 194 106 84 118 150 123 49 85 166 133 147 31 27 201 95 243 61 35 168 154 0 24 172 47 219 53 145 211 196 187 2 44 141 88 195 253 109 127 185 44 50 135 201 182 212 191 75 245 32 222 193 47 55 46 51 11 109 104 6 133 239 106 243 200 197 12 181 220 221 148 220 222 168 192 189 82 62 61 116 246 65 6 134 14 108 16 251 170 254 231 184 184 91 29 94 
175 190 198 18 251 189 181 204 45 84 1 29 194 132 90 249 178 122 61 35 119 160 46 35 31 18 110 216 140 102 55 39 227 248 216 61 41 29 137 113 136 201 103 104 79 41 136 90 116 116 92 124 194 139 217 146 240 29 202 213 6 117 246 12 125 119 150 175 239 112 172 153 32 215 136 37 229 77 130 71 67 69 160 83 157 194 109 134 234 254 92 101 95 62 182 28 193 159 146 75 
65 194 66 112 145 6 229 18 50 10 218 147 118 86 128 180 105 169 241 210 83 141 200 180 202 155 61 108 155 171 172 56 111 121 204 30 158 57 243 87 157 35 34 13 67 153 168 187 31 184 178 116 74 154 98 185 204 6 65 109 43 108 225 138 103 91 247 224 106 106 246 119 43 35 176 69 59 45 216 247 180 151 141 199 119 12 170 153 159 62 70 38 131 99 202 106 240 169 193 170 
45 33 104 241 98 13 66 66 140 68 138 123 255 252 150 62 27 192 73 130 104 131 93 46 91 136 94 168 232 13 220 40 253 139 250 171 131 8 16 254 32 228 204 144 85 178 172 170 142 65 92 32 143 29 190 232 185 77 11 102 147 28 174 137 148 57 152 3 208 139 165 156 164 31 160 93 5 86 206 190 76 192 189 230 250 187 221 47 221 171 136 86 54 110 99 4 176 93 152 232 
228 133 187 130 117 58 159 114 126 107 60 79 84 224 59 89 190 220 190 186 26 65 27 61 94 105 130 119 18 135 199 60 202 40 162 245 211 222 47 182 239 1 94 55 189 250 86 234 129 43 148 223 238 170 84 19 92 177 100 1 12 85 203 78 250 154 18 234 171 250 224 245 216 30 9 241 73 90 167 28 217 246 84 206 110 235 187 80 183 176 227 158 97 111 121 254 161 65 183 129 
143 89 193 105 100 71 240 115 18 145 246 171 44 119 176 140 54 42 203 43 92 83 7 254 187 1 58 57 231 80 20 216 13 11 215 98 146 222 9 242 18 102 91 106 171 232 247 218 28 184 225 171 184 119 172 238 14 136 111 80 58 81 109 212 141 23 213 111 247 222 10 180 187 147 169 67 28 49 177 196 102 54 116 3 36 72 16 17 217 30 5 183 80 47 20 150 126 240 79 98 
251 249 238 129 216 229 152 194 128 215 84 187 216 119 63 3 134 136 51 72 234 61 184 251 33 202 25 64 54 149 5 122 184 209 80 164 140 23 230 234 95 14 208 9 112 161 22 6 237 202 25 143 210 72 39 234 96 189 139 154 217 251 32 28 129 192 149 118 223 160 178 70 57 30 9 232 136 60 121 162 10 8 82 212 80 50 248 235 96 191 53 184 183 60 84 104 122 129 253 170 
161 148 96 247 93 117 212 165 248 163 157 31 205 181 101 3 49 194 129 43 179 180 6 149 201 235 252 29 30 9 3 179 191 86 37 106 243 82 209 201 203 13 230 144 20 143 65 163 132 226 74 3 151 109 129 95 172 229 175 200 147 9 240 130 4 12 59 208 144 32 180 74 192 32 184 223 253 246 56 118 240 237 239 51 98 255 179 48 39 163 206 8 101 5 163 164 89 143 21 203 
253 175 178 101 99 203 155 209 182 76 76 179 218 166 166 168 150 146 62 158 5 182 190 43 56 247 16 144 55 111 202 146 86 213 208 44 178 164 175 29 21 98 129 178 202 44 75 15 115 127 100 175 179 69 121 95 190 85 192 208 68 107 121 2 95 156 17 200 39 37 224 218 58 223 6 240 159 61 222 3 212 131 109 142 155 245 70 172 190 2 183 37 17 167 151 238 102 26 237 34 
9 57 186 98 204 108 221 36 37 137 205 216 151 251 53 13 76 218 191 10 51 70 108 83 14 157 243 115 120 172 203 155 102 159 230 85 5 75 83 125 45 138 240 227 153 40 64 32 49 140 97 165 97 133 51 163 104 255 120 163 144 82 231 151 183 214 117 214 175 16 55 58 229 102 219 242 192 227 244 29 251 98 151 86 38 182 113 167 154 26 150 117 55 52 196 126 200 109 154 216 
215 167 182 72 201 75 48 248 117 8 159 0 200 209 21 207 219 84 100 85 13 203 72 14 125 71 193 250 20 94 106 178 153 151 81 17 245 93 245 236 185 241 61 125 10 135 251 153 140 61 47 88 31 195 139 31 155 97 193 215 123 200 60 94 252 243 6 49 148 57 180 8 157 182 212 99 35 248 94 204 205 171 122 23 1 74 235 235 124 215 88 170 212 81 177 112 241 63 245 13 
188 28 172 125 103 12 45 26 36 95 156 225 242 107 126 176 62 201 58 217 143 28 213 42 213 59 39 47 147 178 106 195 159 253 255 70 216 11 69 124 167 176 239 175 218 63 235 219 22 45 106 149 69 222 16 9 172 153 0 231 225 77 113 77 56 145 109 115 204 126 234 41 202 103 169 169 209 76 224 150 101 91 216 8 154 170 31 16 106 161 114 182 199 134 133 98 32 148 24 171 
148 103 180 33 99 250 227 244 180 248 160 150 104 204 156 143 154 52 199 144 213 12 46 96 25 173 239 166 199 74 188 213 131 243 32 207 70 116 21 59 250 235 143 77 127 201 44 151 70 12 43 141 197 185 56 254 138 15 110 141 96 215 88 102 224 161 40 4 251 141 114 193 28 128 67 27 14 106 240 204 185 207 26 172 216 193 20 93 181 113 86 246 227 221 103 97 62 111 230 173 
101 234 181 97 102 8 248 71 169 151 134 180 148 19 121 237 206 54 33 50 161 95 244 71 12 97 148 196 140 63 7 22 128 91 147 161 244 201 224 64 212 5 74 0 162 158 205 80 196 255 26 171 203 5 85 239 245 250 149 168 6 29 153 5 12 128 86 122 211 152 46 226 40 200 56 71 9 218 150 166 78 108 135 228 196 130 13 204 27 220 188 240 148 78 231 115 153 162 111 178 
83 111 51 249 174 43 14 255 177 0 243 204 144 42 194 190 89 9 86 207 222 224 161 18 131 41 161 214 82 193 178 230 98 238 205 137 65 81 173 36 201 177 241 103 78 239 235 99 242 24 149 2 7 91 217 152 255 17 111 6 33 164 19 66 9 97 64 209 62 135 81 3 71 26 107 218 37 133 241 53 138 54 68 136 218 199 14 70 228 205 240 48 158 17 32 187 13 160 106 113 
98 207 211 204 68 222 228 150 212 213 122 129 6 82 160 115 11 167 132 58 212 251 252 89 233 96 116 117 124 190 28 201 228 196 144 209 1 140 39 122 57 99 239 207 24 147 139 139 46 140 219 20 195 217 68 51 234 58 180 122 9 25 69 64 247 142 153 176 103 168 76 97 221 37 3 12 216 135 159 187 63 210 223 233 29 104 148 2 172 4 162 160 138 26 183 69 81 99 237 61 
106 253 222 123 66 24 32 70 80 231 133 196 80 22 186 58 149 147 85 248 152 12 25 2 201 60 63 212 144 18 16 172 115 82 117 122 81 146 76 217 173 96 77 221 40 13 16 125 152 188 217 202 144 195 99 235 29 167 193 165 141 208 107 161 72 122 207 251 157 243 130 65 126 173 137 65 169 255 8 121 89 60 101 89 172 198 99 143 109 65 201 150 66 2 147 24 77 206 143 18 
115 50 132 155 41 171 135 80 26 104 138 54 42 27 152 192 72 77 46 57 234 51 189 96 88 17 67 58 59 224 18 191 78 203 90 189 100 218 52 181 129 17 12 159 248 117 189 157 7 218 147 199 106 211 45 150 78 193 60 227 172 163 70 47 16 191 37 127 232 221 203 95 228 49 17 26 129 231 72 20 189 75 87 36 230 158 102 171 162 12 63 184 200 46 166 108 117 202 24 133 
124 162 182 85 185 61 163 20 116 13 105 24 69 133 237 205 94 84 97 89 228 102 159 222 54 31 253 87 214 107 62 103 15 163 18 151 37 212 5 100 81 90 34 147 11 90 157 112 89 127 166 122 191 120 186 182 3 41 11 228 126 14 41 57 195 130 135 58 43 185 52 188 50 45 104 136 23 152 219 39 237 105 0 110 77 129 121 27 48 213 78 63 128 217 220 6 101 212 106 82 
194 242 77 28 154 202 134 112 150 96 12 244 160 133 110 23 197 229 6 6 236 254 74 212 182 207 225 81 216 203 229 87 132 108 37 154 29 246 208 28 108 132 146 238 77 227 66 44 220 62 141 195 1 249 219 153 0 232 197 175 61 173 10 163 167 59 212 219 52 41 6 168 73 17 58 7 255 37 147 8 129 207 75 41 240 35 185 78 95 138 150 121 229 90 41 57 63 158 9 124 
23 105 190 16 67 204 201 77 152 90 230 19 120 103 5 31 54 211 19 165 1 194 54 248 83 242 58 83 240 108 156 137 104 56 195 0 139 136 69 198 0 127 188 1 70 22 71 76 234 172 70 40 1 217 79 21 166 170 204 15 75 146 230 218 9 221 208 130 112 92 35 61 34 137 69 246 67 97 116 230 49 92 136 135 64 215 52 103 27 219 56 4 193 95 83 141 169 12 66 103 
66 109 126 22 207 203 24 166 56 35 73 29 179 162 137 18 78 125 141 130 69 95 234 227 223 147 42 0 220 65 201 18 29 176 22 209 210 251 178 216 210 203 204 51 111 34 168 31 103 73 104 234 127 22 71 22 60 240 35 4 156 90 64 212 172 20 233 93 205 146 72 169 65 249 244 45 80 133 72 137 236 202 148 90 183 216 114 12 127 199 25 111 166 101 218 149 236 159 212 70 
136 187 209 93 61 223 76 98 41 169 119 79 238 151 63 135 5 60 36 224 247 253 204 27 50 223 7 221 143 114 25 236 167 235 246 81 147 31 122 199 12 207 22 44 4 100 254 145 92 160 33 56 191 163 223 7 151 109 131 84 228 135 69 16 41 202 112 132 81 7 234 48 31 94 64 217 134 45 68 231 97 19 97 107 10 155 128 120 214 90 144 161 215 143 253 34 151 29 74 150 
204 209 46 239 102 21 146 253 84 138 192 222 105 117 236 140 229 29 144 56 14 122 90 63 193 94 180 247 6 23 164 25 121 57 99 27 59 62 23 55 81 24 217 163 146 188 89 56 211 8 244 89 19 243 150 218 177 246 250 245 53 82 141 205 100 13 228 121 198 111 96 97 57 67 235 163 104 91 36 233 152 29 8 228 113 178 195 57 63 3 156 204 86 45 41 149 197 57 102 134 
157 63 91 248 23 191 134 195 72 213 126 208 34 165 66 173 204 20 74 51 228 238 231 137 108 242 182 25 229 21 99 64 154 147 118 27 210 52 87 187 127 42 9 251 200 50 133 211 40 126 61 203 205 66 176 133 174 12 101 243 19 75 79 3 173 231 138 81 217 39 11 175 166 242 90 118 23 152 78 179 128 82 153 149 16 56 175 128 150 204 20 255 62 136 72 1 198 196 167 5 
3 82 135 137 230 253 239 177 69 36 64 156 85 173 84 203 8 56 70 54 29 144 0 165 221 81 220 205 207 206 56 128 38 182 33 194 215 253 175 177 209 95 239 16 33 228 202 117 20 152 123 69 234 154 57 67 19 23 76 48 34 106 142 0 208 1 71 12 21 38 23 227 251 170 251 159 192 144 20 142 137 65 157 92 89 53 239 91 236 242 216 202 14 158 223 56 62 71 5 100 
100 66 22 175 79 241 58 175 93 46 206 90 0 94 3 191 73 235 47 152 169 250 152 44 184 52 188 18 40 134 71 114 4 226 173 201 126 168 82 42 155 10 210 28 154 243 170 175 204 114 91 91 123 118 169 29 165 168 105 139 119 111 61 130 239 201 4 91 69 5 219 68 88 100 37 145 235 134 139 131 235 36 188 77 128 208 92 176 174 167 211 57 173 19 105 80 150 158 115 177 
18 151 123 62 206 209 52 62 153 52 225 173 98 101 151 126 191 76 10 175 119 120 132 169 215 17 126 76 122 33 77 72 49 98 46 191 26 34 77 127 56 39 173 113 222 46 32 88 3 215 5 61 175 112 5 118 183 224 188 204 214 92 93 128 42 218 12 205 123 72 28 152 78 238 254 50 47 200 79 97 16 98 36 26 69 120 89 127 127 222 45 7 255 49 70 173 169 7 176 3 
209 128 4 61 55 35 210 248 228 136 117 28 17 43 62 51 164 198 176 169 67 110 192 182 6 102 64 224 43 86 196 133 45 251 9 231 47 55 61 207 212 118 249 172 135 121 76 253 57 125 96 170 31 26 243 234 169 177 92 115 123 146 22 158 3 164 189 28 91 173 61 242 201 198 39 7 227 22 120 3 100 156 52 76 220 177 95 237 152 244 73 86 47 84 255 4 21 48 201 69 
213 18 189 96 213 97 54 110 232 148 169 90 170 21 77 156 99 56 21 150 208 210 139 0 64 217 77 39 73 14 226 164 116 169 174 9 91 91 18 173 34 217 212 253 99 231 176 219 176 5 210 174 76 153 61 132 57 112 212 169 102 188 164 246 49 111 65 172 142 169 90 235 69 241 87 212 25 183 131 247 65 139 199 96 232 255 37 82 1 55 136 222 71 0 233 190 138 133 170 156 
128 33 21 183 95 76 71 112 24 103 210 78 180 55 248 208 77 128 29 247 137 74 141 63 125 131 241 154 172 229 115 210 29 66 50 164 96 47 210 10 156 230 49 242 144 77 101 74 166 61 125 255 33 78 150 164 67 172 83 130 147 235 238 81 192 187 127 220 92 110 160 145 17 72 102 77 223 227 225 13 251 156 56 218 51 24 234 151 38 2 238 155 36 225 233 128 103 170 118 142 
39 230 14 192 204 189 120 229 87 53 190 96 191 105 116 22 219 239 181 185 194 117 233 98 181 16 52 30 250 145 54 217 66 143 75 173 129 124 242 86 86 133 109 107 239 233 24 206 120 248 17 44 213 218 18 231 18 6 116 147 168 18 121 251 220 165 39 84 121 99 223 80 211 212 163 139 135 207 213 124 195 121 167 137 94 91 143 0 253 51 175 97 159 123 30 67 106 251 240 110 
86 59 172 203 62 121 41 180 227 75 1 1 223 132 154 234 144 206 20 8 99 20 115 119 118 196 141 126 218 242 237 43 74 15 120 128 150 12 37 182 144 178 224 49 47 43 88 83 54 75 37 37 108 74 86 32 186 229 78 42 88 90 249 155 244 246 231 112 137 85 243 61 191 249 189 19 133 129 172 190 178 141 57 59 106 114 46 32 113 87 93 130 199 215 209 48 46 80 241 242 
132 77 248 101 110 2 149 46 97 200 74 2 19 65 164 7 235 221 71 74 4 101 113 180 116 244 74 91 213 101 223 148 45 18 231 52 155 227 180 211 190 152 223 5 88 245 144 60 235 225 209 105 35 130 205 75 209 1 127 251 184 81 58 70 98 9 100 197 131 218 39 44 180 134 13 14 60 125 63 26 225 204 133 106 97 41 93 205 113 170 108 88 137 108 78 62 190 37 222 208 
118 67 111 18 129 20 200 32 140 229 64 252 227 238 196 223 115 254 224 78 178 168 171 6 166 112 194 56 183 99 208 150 180 214 146 74 63 228 0 164 17 102 13 58 6 35 73 138 167 87 133 136 156 81 229 244 114 145 250 87 34 49 248 59 22 202 140 56 110 4 111 208 241 160 18 38 169 237 90 179 151 164 44 113 133 64 252 102 219 212 159 161 162 167 229 203 224 250 9 192 
153 36 198 190 1 183 137 75 34 37 255 46 18 100 27 103 67 3 240 44 21 192 5 11 162 102 84 32 227 64 175 18 88 211 96 162 117 159 169 26 247 214 56 19 35 124 66 33 140 87 245 55 95 82 212 191 7 166 15 59 214 0 179 10 180 51 110 118 25 4 139 114 168 216 176 194 51 84 249 26 27 245 212 220 251 7 55 35 205 109 207 255 198 89 237 46 164 95 67 224 
62 205 54 175 248 28 220 41 125 93 164 241 0 181 170 159 198 187 68 211 49 41 147 76 126 63 141 249 158 170 46 108 64 10 174 54 139 131 114 36 95 205 41 53 204 108 46 47 182 232 90 67 191 216 219 196 190 183 238 45 206 210 113 65 253 7 64 26 88 27 94 160 46 108 50 154 57 36 219 248 132 63 215 180 174 223 84 166 36 202 119 48 206 119 137 123 74 141 9 25 
248 27 143 124 251 91 48 165 126 62 199 38 154 136 234 63 28 84 8 237 249 167 100 188 6 38 165 125 241 24 188 24 63 26 252 169 190 192 241 30 181 171 172 180 172 78 222 217 75 249 4 38 66 180 84 139 36 221 214 238 160 34 151 21 246 43 8 144 244 126 161 100 142 93 101 68 191 48 111 43 250 127 93 6 215 198 175 12 111 246 171 78 32 18 182 221 100 133 9 16 
251 175 183 148 4 58 232 234 128 189 37 59 26 194 24 141 57 39 138 85 179 21 120 239 233 111 252 42 78 221 141 66 237 78 245 107 10 135 69 52 189 18 236 19 219 1 23 57 141 38 159 38 188 128 201 216 49 77 204 253 27 166 178 8 8 70 113 191 53 218 74 12 156 127 11 197 2 66 246 203 43 84 79 188 234 252 102 230 70 100 38 1 229 1 30 93 48 64 9 195 
143 140 217 28 163 170 185 81 88 78 243 224 196 216 180 63 103 248 214 175 225 2 95 170 13 214 99 82 189 248 231 134 214 202 75 173 193 140 223 92 160 161 179 191 152 197 238 68 191 144 204 135 113 232 210 147 55 121 233 63 16 65 138 33 105 153 195 83 194 51 153 90 223 156 18 156 95 10 43 13 242 234 224 47 210 222 195 184 246 4 207 64 82 56 224 117 50 149 154 231 
50 135 20 78 2 249 12 54 39 91 143 245 125 135 220 139 79 71 201 141 249 169 48 23 103 221 75 65 130 27 121 239 191 195 67 64 191 90 107 117 155 159 11 225 72 134 15 94 41 233 135 24 36 168 200 202 198 195 192 34 159 144 236 38 38 108 145 252 200 119 211 29 200 34 34 172 31 89 36 193 194 180 50 164 29 62 105 134 203 201 149 10 106 133 12 11 95 10 170 211 
151 116 131 77 71 55 236 158 83 78 27 146 76 125 194 219 8 202 171 251 22 205 232 160 13 234 151 218 166 215 91 158 133 50 154 155 42 98 154 143 188 189 50 139 211 193 125 122 103 205 24 122 255 9 120 95 179 148 5 88 195 112 179 168 250 58 138 179 164 77 134 225 172 175 51 66 87 27 223 40 163 172 144 236 250 17 91 90 235 122 236 112 72 205 196 7 204 105 17 92 
86 53 47 77 214 56 57 228 252 166 139 181 153 150 158 3 55 189 39 172 11 10 211 51 11 198 116 69 151 214 232 66 170 21 199 48 210 33 251 249 8 31 9 162 140 87 18 110 172 208 60 109 9 3 235 251 40 22 175 121 38 177 122 241 169 77 48 125 249 134 54 132 66 192 169 105 84 234 61 73 251 102 61 229 190 64 15 20 223 53 165 112 135 214 67 129 46 132 198 246 
54 0 183 170 185 89 41 86 194 18 162 171 45 68 102 121 114 88 147 29 114 51 15 164 123 136 213 144 21 244 104 195 183 175 146 239 107 181 194 187 94 130 252 26 28 58 33 228 95 240 39 159 144 199 120 2 171 130 192 19 74 147 241 202 251 33 218 152 2 189 83 91 74 249 55 67 222 253 56 117 63 68 140 141 239 195 94 153 24 130 115 96 251 67 127 152 66 172 180 166 
167 163 12 158 139 45 194 245 152 52 131 182 246 115 57 137 85 87 231 150 106 20 182 250 87 215 193 240 88 247 252 153 104 225 77 225 96 234 183 246 60 103 73 14 243 101 132 54 54 250 153 46 252 218 36 142 52 22 210 220 21 243 116 160 83 90 66 87 239 145 51 249 184 76 167 187 208 111 26 172 189 130 57 165 187 179 81 12 166 7 99 95 169 91 77 252 152 122 158 248 
200 182 35 3 239 7 241 58 206 133 161 172 63 106 198 219 103 73 149 78 234 48 90 19 250 230 23 41 27 209 77 128 223 137 244 158 133 24 85 172 64 203 86 192 45 0 255 54 212 150 47 117 154 9 216 29 103 243 128 122 23 226 81 121 159 192 122 139 45 237 68 28 125 111 209 208 80 117 6 215 103 1 120 203 170 237 106 117 149 238 50 68 94 88 2 10 23 193 68 238 
133 6 33 36 0 214 190 3 253 251 110 120 66 56 125 209 9 123 247 180 142 179 230 240 146 29 71 78 213 202 139 221 244 46 99 43 48 141 197 120 26 48 69 10 93 27 173 153 97 224 80 217 132 60 9 42 39 215 177 219 254 103 113 14 163 47 219 251 124 63 162 71 111 211 224 253 40 41 14 164 49 166 44 182 197 225 209 243 43 237 34 181 43 232 98 87 68 249 19 29 
189 78 36 66 57 229 1 127 210 195 221 94 145 235 7 227 70 103 167 0 166 202 64 194 79 220 253 14 207 4 94 149 227 246 17 0 136 255 162 210 72 13 151 99 23 254 209 214 2 249 233 183 126 166 244 254 176 94 156 97 79 62 157 232 131 116 75 83 10 71 94 133 30 86 159 30 183 72 211 202 119 221 62 211 102 116 119 235 23 97 215 162 18 153 191 49 159 113 100 160 
31 49 151 97 142 59 20 101 199 14 193 223 22 187 42 116 182 226 89 31 199 79 238 0 32 6 30 107 122 135 91 186 202 22 12 161 225 193 153 205 17 38 99 141 185 195 90 226 39 224 176 11 218 50 242 90 111 151 97 190 133 174 176 154 164 70 19 162 49 70 181 43 238 225 237 157 112 31 78 135 110 105 203 232 182 207 104 231 51 18 189 220 99 228 61 185 164 1 194 254 
29 207 143 88 152 58 214 10 120 6 199 111 165 210 82 86 54 20 76 84 162 217 145 122 139 242 73 77 173 156 3 154 25 108 212 166 62 124 242 93 230 54 215 106 242 164 145 122 94 91 180 164 158 254 35 42 13 165 54 136 148 5 59 36 141 39 39 69 245 202 225 255 23 124 4 230 196 214 228 77 139 151 247 50 117 40 73 92 129 204 250 15 140 59 35 110 76 118 124 37 
92 176 36 187 222 158 169 135 213 44 230 172 86 162 221 129 135 238 205 84 30 200 121 46 87 155 66 57 41 218 7 239 28 157 84 254 132 114 7 232 176 137 254 181 52 97 228 145 43 80 90 27 123 133 89 181 212 186 131 69 17 42 192 182 94 176 27 204 75 52 216 24 49 252 198 190 50 119 115 218 248 130 155 138 223 50 208 158 106 249 133 46 33 155 212 156 74 107 19 248 
113 52 102 103 83 136 146 189 69 25 221 13 108 76 228 148 251 163 197 5 54 210 178 155 230 184 59 75 219 2 105 170 30 111 82 145 68 12 81 163 56 219 194 164 227 229 137 123 228 141 42 86 45 117 149 174 182 190 89 117 158 90 142 213 166 98 105 226 175 202 151 52 75 81 191 215 210 238 92 184 178 135 174 170 223 81 177 237 61 152 81 191 223 12 184 213 10 158 21 215 
155 157 131 90 189 211 143 203 231 241 7 158 179 186 40 200 91 7 134 87 97 106 21 70 121 22 195 227 69 197 184 167 236 172 110 205 155 106 127 195 38 141 107 248 112 90 31 121 123 226 123 171 42 234 254 217 104 162 36 14 220 120 230 20 128 165 204 223 239 17 39 209 103 164 225 212 38 52 74 103 163 177 101 150 98 122 111 227 168 63 93 223 190 26 244 212 212 68 120 125 
150 86 95 248 80 130 19 75 131 225 244 118 102 183 51 253 252 130 111 25 205 205 90 56 150 102 4 113 97 159 207 50 119 164 188 35 196 30 224 57 104 73 230 35 208 99 71 41 72 89 65 99 145 47 23 219 175 36 92 209 163 230 43 255 167 208 40 14 80 207 96 150 197 0 67 183 156 156 20 40 124 192 20 241 190 93 194 69 80 151 7 136 78 109 225 97 39 11 130 146 
34 111 214 95 236 224 141 177 108 171 200 224 80 245 142 1 125 222 140 197 189 23 245 173 52 174 76 73 91 137 145 161 247 156 240 180 2 12 105 195 79 99 188 154 163 9 196 201 13 137 166 243 37 125 212 244 67 25 50 39 151 50 130 77 136 56 151 238 210 156 27 2 161 111 7 0 83 123 157 179 111 49 251 101 49 29 80 43 139 131 247 128 119 39 16 188 102 172 42 99 
22 138 147 191 170 16 117 187 8 35 95 27 122 47 242 54 195 123 222 141 169 36 34 186 158 105 120 171 211 92 158 51 1 163 83 98 124 72 75 156 124 122 40 168 121 11 35 45 152 179 233 207 62 91 151 142 208 251 199 86 31 65 170 64 73 157 197 2 110 148 164 245 221 48 162 10 194 156 126 78 38 225 50 69 155 146 116 136 251 38 166 181 119 65 142 181 200 108 4 60 
9 82 55 122 91 131 29 255 136 214 126 78 223 45 201 45 150 168 197 76 84 244 244 251 18 90 30 147 175 85 0 141 188 199 183 37 163 203 9 83 169 76 110 194 224 129 192 232 157 91 109 122 189 173 16 208 100 96 2 81 233 211 59 43 162 81 2 162 210 36 237 67 102 78 236 60 187 192 146 253 244 101 124 54 230 176 44 139 177 96 74 131 141 213 22 194 181 2 67 2 
99 241 230 126 95 187 137 229 207 159 74 234 95 161 74 181 169 166 2 39 174 35 216 99 200 205 129 252 210 5 14 190 71 198 1 93 149 131 69 88 130 2 151 48 220 49 228 3 138 146 209 44 254 191 162 35 134 146 64 116 147 247 39 134 83 62 36 213 90 83 219 228 241 23 95 142 86 85 246 11 61 158 108 214 27 29 58 114 64 208 9 58 231 197 42 10 241 67 131 22 
247 246 130 172 187 139 72 111 138 98 48 136 169 169 160 108 52 195 30 55 49 93 141 231 56 220 26 249 19 74 31 232 145 147 185 8 209 94 225 182 241 44 30 93 113 118 160 45 222 21 186 70 63 122 89 214 169 138 38 124 89 19 199 212 60 181 251 188 253 47 155 145 169 108 179 52 203 205 170 65 251 157 11 83 118 19 170 186 180 152 14 247 12 207 116 67 79 51 148 84 
182 89 26 58 224 18 180 107 207 202 179 40 236 120 213 147 8 36 106 25 179 27 115 90 12 167 51 185 19 78 158 225 122 161 29 230 210 237 250 159 82 32 92 64 229 60 126 105 74 46 197 144 222 65 18 34 131 214 196 51 15 230 8 140 183 216 38 114 108 149 63 115 92 115 103 142 84 14 148 148 81 206 51 220 206 151 63 124 123 85 132 228 109 147 232 95 98 129 26 141 
176 187 154 117 47 92 48 92 32 146 98 194 56 112 143 117 72 32 97 66 67 24 67 192 141 49 220 248 182 91 146 100 51 2 63 106 212 248 195 89 232 25 160 91 199 141 175 26 129 247 11 191 114 129 109 211 222 241 186 116 32 100 20 102 203 68 71 193 175 129 151 136 121 2 148 29 21 3 7 128 80 110 83 30 94 28 251 135 149 158 224 239 251 108 197 218 86 207 195 195 
73 162 57 172 206 73 27 59 250 190 58 104 79 206 159 162 12 213 218 146 35 104 86 226 91 206 192 6 79 241 183 153 104 82 31 49 241 126 251 40 215 103 182 54 109 6 105 218 55 80 131 154 192 55 15 201 150 229 202 46 214 36 169 67 166 108 171 165 171 238 16 143 109 96 118 209 150 46 18 136 64 234 63 80 193 229 177 160 0 210 30 240 217 218 102 53 175 233 33 63 
54 222 207 69 120 243 141 113 144 123 251 21 17 63 187 214 28 53 50 106 85 131 164 209 252 26 176 134 32 63 89 208 194 15 238 70 150 46 1 81 152 10 217 35 18 233 121 108 178 181 3 226 1 110 223 196 66 174 158 191 208 123 76 148 197 239 88 113 54 245 72 62 4 12 215 143 22 11 36 167 139 122 129 249 134 71 116 247 206 28 104 236 170 72 229 31 27 136 2 17 
118 29 230 82 252 19 31 121 208 81 91 0 39 26 228 23 136 165 47 125 230 73 147 167 54 155 198 248 10 239 197 72 141 87 31 117 189 72 223 115 143 239 225 206 26 212 106 142 5 222 255 101 124 81 109 222 173 132 18 81 194 197 89 240 121 30 203 55 233 57 40 119 19 198 189 174 150 10 58 106 43 82 2 187 184 80 71 225 87 226 245 77 73 102 84 78 10 82 89 206 
111 144 145 184 161 138 30 57 88 2 32 60 217 11 155 87 219 135 131 112 249 181 155 88 123 53 130 98 191 130 146 136 216 99 158 69 121 137 153 216 201 16 95 228 63 161 69 245 95 93 137 138 130 92 94 77 85 196 241 251 29 142 243 182 41 192 130 151 17 181 49 40 217 65 116 153 137 63 22 167 47 202 137 163 49 141 46 6 1 148 58 68 234 97 255 32 17 131 167 232 
50 176 251 50 224 108 29 139 162 41 122 217 102 216 167 246 87 253 253 188 250 45 254 14 72 249 123 115 136 163 97 41 114 50 13 91 163 103 60 117 18 95 33 151 185 159 51 231 204 213 5 96 144 161 66 99 149 228 87 222 200 165 186 91 109 200 198 69 211 44 255 189 64 216 64 203 88 162 158 132 116 53 8 11 216 255 21 113 79 161 110 27 110 31 21 1 77 47 139 38 
59 172 244 2 114 178 202 196 219 138 208 64 149 152 156 15 164 115 235 35 240 252 101 2 127 192 81 80 158 164 61 107 78 139 12 63 106 13 45 32 203 26 115 178 144 58 114 56 28 67 19 131 167 185 53 165 86 159 81 167 73 89 13 20 39 220 221 223 8 165 66 203 22 93 85 164 72 191 91 67 16 19 39 57 161 197 248 107 80 121 86 148 249 244 145 240 55 101 111 163 
