P2
100 100
255
7 193 136 93 188 120 31 0 195 236 152 9 202 126 111 178 173 117 85 222 9 252 4 25 50 45 145 93 10 53 253 115 81 221 55 223 231 208 197 109 130 208 42 168 48 140 33 155 106 95 156 25 10 8 145 56 116 60 63 95 90 126 167 249 133 84 190 181 44 48 2 173 159 95 179 3 117 187 26 222 113 238 208 218 126 185 237 190 79 164 175 252 224 64 159 241 48 156 7 63 
82 180 27 250 136 106 170 67 196 90 45 30 58 160 110 13 212 249 130 109 123 47 101 153 198 215 194 119 218 227 69 84 164 60 43 188 194 192 126 226 6 87 145 212 172 190 191 177 244 32 79 142 165 35 88 86 244 210 231 10 249 90 120 184 45 66 224 31 115 235 141 171 171 141 123 87 87 84 80 225 33 87 204 149 157 142 213 211 24 12 7 99 183 238 26 6 30 157 210 59 
96 30 204 137 196 117 87 80 105 216 110 155 249 61 222 232 35 179 77 11 90 52 32 204 166 216 220 26 223 136 71 116 6 230 192 23 40 29 239 154 120 59 19 150 165 173 222 241 21 38 11 130 158 145 46 163 188 229 214 18 53 122 247 31 141 0 188 29 97 229 100 49 91 71 106 109 189 214 205 196 245 110 66 139 84 11 197 115 124 133 66 5 241 225 186 50 137 94 55 134 
96 199 28 220 102 161 62 194 252 207 32 43 187 177 134 13 249 229 121 224 239 118 128 7 132 100 35 201 168 203 130 98 98 160 139 43 148 9 4 69 58 82 100 168 246 139 142 69 14 203 57 208 104 15 41 124 164 32 57 214 244 188 12 252 212 240 40 118 180 208 14 3 27 152 149 196 254 107 20 26 249 228 86 207 226 234 42 97 236 182 69 225 255 242 59 84 104 148 131 139 
33 141 177 218 234 154 28 200 55 129 148 242 35 70 231 82 19 103 22 198 222 115 57 238 196 209 43 147 163 102 255 121 8 151 82 243 180 9 186 143 47 27 44 214 35 49 134 252 25 60 194 73 54 15 81 227 58 189 134 3 112 74 93 221 214 222 218 194 107 172 6 9 22 98 3 200 24 103 207 156 155 107 116 36 234 49 206 88 110 3 17 214 6 29 69 63 93 11 212 16 
45 163 211 23 71 202 31 152 109 12 159 181 234 253 127 22 214 249 174 25 204 89 164 39 15 107 204 122 115 206 205 242 89 14 6 228 78 19 195 0 156 108 159 70 32 121 143 49 145 16 248 243 210 143 204 10 182 55 217 22 86 193 193 204 84 137 29 7 67 45 223 232 31 218 148 77 57 11 73 48 228 70 140 130 199 97 68 217 43 99 67 186 85 76 117 125 156 91 249 13 
26 241 11 164 6 46 154 157 131 174 54 210 221 128 126 150 27 60 254 222 33 130 52 241 22 188 17 101 69 39 56 6 124 159 77 164 120 89 202 149 149 112 143 141 166 143 1 143 146 106 38 1 238 129 215 192 2 42 46 164 189 68 74 252 218 101 116 81 79 220 242 252 253 138 27 145 205 5 163 192 53 97 35 160 69 70 169 182 174 159 80 252 65 38 169 182 79 228 118 158 
140 247 107 158 104 113 162 252 58 164 85 217 128 66 201 196 164 136 98 54 208 62 243 92 158 59 252 28 31 240 143 143 119 231 43 166 254 42 119 1 138 236 206 82 169 36 68 69 48 10 114 106 213 53 182 250 211 178 231 12 156 116 125 207 25 2 187 152 192 111 113 13 186 91 39 237 116 88 210 246 255 244 89 5 155 153 152 9 121 127 118 229 117 58 90 123 74 151 227 92 
150 172 35 245 152 156 168 57 184 110 105 153 140 160 62 239 130 151 73 204 198 91 30 58 114 237 251 77 253 176 238 215 162 73 4 64 3 189 227 112 0 226 121 10 34 105 5 63 143 144 226 56 246 245 130 224 197 125 145 139 241 9 83 226 52 108 10 77 206 209 24 231 155 209 209 98 80 210 248 15 110 215 233 43 24 225 53 70 164 160 71 190 204 171 116 233 109 187 26 150 
216 78 52 93 124 244 175 72 140 45 218 73 152 15 87 44 108 249 77 172 18 181 50 48 6 232 174 150 133 131 248 109 60 144 6 74 113 251 205 159 19 165 121 9 241 226 30 239 6 221 66 9 26 143 242 231 37 95 254 153 80 101 98 8 120 143 100 253 24 202 28 199 252 227 175 68 111 100 152 249 174 7 130 148 196 171 59 134 26 6 188 69 245 192 137 5 45 16 180 182 
179 88 227 116 200 145 44 30 9 107 34 200 167 151 58 84 143 42 180 182 158 195 91 1 121 154 218 223 36 76 119 74 239 168 114 43 216 115 246 179 58 223 193 29 223 203 227 59 74 251 159 1 45 77 189 225 106 221 249 133 139 18 119 80 108 165 118 125 51 236 145 245 151 158 112 183 213 40 222 186 151 183 6 14 112 23 193 63 47 103 47 149 118 48 158 239 27 160 195 19 
43 216 3 117 86 120 54 171 195 1 250 138 81 44 123 51 140 67 188 99 133 111 55 43 45 225 134 243 220 129 202 173 119 58 49 107 102 152 192 23 20 201 59 21 227 251 57 169 201 115 28 5 18 253 209 189 119 234 133 182 21 73 101 160 192 30 78 12 249 74 80 163 246 247 176 237 139 118 199 167 131 143 122 19 94 157 71 79 63 246 250 203 128 169 29 13 140 104 236 111 
37 171 42 226 143 113 157 19 125 90 121 170 219 76 31 86 241 119 235 87 164 189 125 146 201 82 17 234 25 248 252 63 93 80 183 67 192 109 164 247 19 175 172 157 234 182 96 116 105 155 236 117 124 150 133 51 57 59 125 107 182 81 190 26 236 174 107 173 207 80 219 202 18 227 90 95 27 191 222 162 149 47 127 234 93 223 162 109 211 28 172 63 194 231 245 204 209 164 213 90 
142 74 191 215 192 200 13 151 156 76 18 139 86 4 157 3 6 36 229 85 31 58 69 209 68 175 82 189 18 17 199 168 49 169 11 125 79 1 240 103 181 53 201 240 131 204 131 231 69 254 28 31 247 52 107 151 49 2 28 212 4 170 156 139 246 5 196 31 57 65 234 11 84 113 134 180 102 80 235 209 107 71 242 90 226 209 47 117 140 166 94 57 175 34 24 123 2 177 239 85 
120 246 248 179 194 31 1 230 65 172 198 132 251 101 50 72 223 105 133 150 202 11 143 155 8 85 99 60 146 103 34 62 76 128 193 221 81 250 99 135 136 56 85 17 241 24 22 127 110 195 30 58 168 110 190 38 144 82 111 252 14 36 122 244 104 108 241 101 71 234 222 208 125 116 181 19 7 247 17 218 214 13 141 29 232 178 150 218 131 242 107 174 8 134 62 234 140 0 241 41 
68 41 124 135 93 150 61 223 44 157 153 124 18 3 156 56 109 117 82 9 57 142 106 151 7 198 51 232 81 148 135 8 168 72 6 16 32 137 18 150 6 29 116 64 178 7 2 223 11 139 155 22 25 20 69 150 51 128 31 48 171 236 164 10 142 22 44 88 64 61 76 99 247 112 111 234 166 231 99 132 203 137 105 182 254 177 11 23 155 182 7 135 252 63 169 147 45 114 190 157 
182 202 240 242 150 34 87 78 82 5 177 83 109 183 133 105 197 70 157 110 212 49 71 65 70 164 146 126 46 240 188 59 151 156 113 33 154 229 244 153 245 230 220 13 34 140 52 35 213 40 105 158 134 119 23 4 56 232 246 89 139 101 40 177 147 212 175 40 80 105 72 136 101 136 112 19 5 152 152 165 17 33 152 101 183 74 0 135 136 168 9 84 81 174 204 250 214 104 252 145 
166 231 183 44 51 24 21 159 230 105 237 82 93 26 161 106 142 27 0 184 189 47 217 184 195 11 219 185 33 112 8 199 198 101 19 185 56 7 63 102 72 24 230 207 8 72 84 193 15 93 11 248 80 37 241 42 215 74 186 163 37 180 10 218 48 117 101 206 175 10 113 91 173 144 122 218 124 152 61 199 18 118 61 15 41 217 95 104 248 248 39 43 229 152 155 227 126 64 103 116 
149 29 76 178 216 191 9 54 3 103 246 226 116 165 96 209 119 130 68 143 220 243 228 128 196 24 194 141 35 94 174 75 244 80 211 70 137 80 214 214 17 251 152 146 19 141 187 235 112 105 89 70 216 72 217 75 109 234 193 22 102 29 101 231 136 193 212 233 194 79 99 238 242 131 177 128 175 83 75 104 39 53 103 61 33 186 82 212 116 151 80 15 105 150 190 112 212 52 112 233 
247 104 202 225 137 49 60 22 238 140 52 45 181 228 16 42 211 223 107 66 234 51 152 74 68 197 23 213 97 52 179 211 31 228 192 226 1 157 114 192 235 49 190 149 194 19 108 53 176 221 29 10 23 39 200 136 87 106 231 52 142 85 157 70 167 107 223 193 175 184 221 95 95 245 188 7 116 177 61 41 167 199 163 195 203 111 50 21 148 67 204 99 146 20 144 104 253 138 86 42 
121 66 130 175 48 224 129 42 206 160 200 247 39 199 21 93 82 195 242 165 156 67 120 111 193 144 195 92 156 207 194 176 125 27 84 192 29 230 218 52 185 87 83 216 177 154 33 64 166 83 0 209 205 96 178 52 4 105 105 16 125 213 82 11 38 49 20 71 157 81 158 207 99 195 18 57 194 254 248 88 254 193 114 82 160 76 97 108 225 135 204 73 37 11 220 4 249 77 68 184 
207 251 204 237 175 158 178 22 93 218 137 120 241 6 155 38 37 97 76 61 146 53 229 111 54 224 169 99 2 75 23 74 10 117 129 133 15 33 111 130 55 204 247 209 29 203 218 153 228 50 138 24 88 76 87 173 108 99 220 170 107 225 91 170 115 66 16 34 35 24 239 173 115 36 112 19 136 11 228 193 35 91 174 226 104 131 120 107 120 158 104 1 136 119 114 1 9 89 15 227 
187 165 120 215 120 185 73 43 218 73 44 47 191 231 44 202 178 56 131 129 174 110 117 164 230 125 24 103 47 107 31 46 42 107 20 198 167 192 190 246 26 29 164 196 89 49 203 2 126 85 105 243 249 51 158 89 222 42 28 215 183 4 60 255 197 93 220 25 76 113 117 17 46 174 229 104 131 240 241 144 38 178 55 66 22 74 131 99 231 10 227 38 47 115 85 109 9 150 46 108 
55 249 13 113 20 12 143 95 226 11 33 212 241 97 124 52 141 19 137 13 51 11 5 130 141 4 36 171 165 68 53 160 210 14 112 59 231 29 179 168 114 19 18 69 3 117 13 93 174 252 51 40 203 53 159 10 121 171 128 121 128 243 48 92 16 35 9 253 189 124 107 214 0 54 45 174 253 171 4 155 9 240 127 126 1 93 29 113 155 68 249 193 28 134 182 220 94 129 30 224 
117 213 5 77 94 190 106 101 3 165 234 77 143 78 105 253 77 203 234 147 132 123 143 47 77 101 41 56 109 65 133 155 124 175 204 80 28 5 71 11 136 126 253 150 6 240 197 93 241 249 9 145 116 48 216 78 73 33 228 195 33 192 51 133 125 249 54 14 224 156 80 207 122 165 86 98 239 107 43 146 223 236 180 179 140 86 191 98 9 140 24 105 107 12 139 18 128 239 1 206 
210 167 215 162 161 201 168 229 246 158 223 39 144 216 159 160 208 14 158 195 163 31 99 76 100 154 58 119 45 201 179 20 184 170 133 174 140 104 106 240 1 132 173 200 60 255 187 40 212 245 189 18 93 136 254 223 157 238 113 76 251 244 227 104 121 84 203 223 56 238 69 223 226 206 119 118 112 142 64 225 94 31 216 59 151 48 167 114 163 217 84 41 114 220 145 167 81 88 69 178 
141 139 156 28 61 157 95 25 129 255 191 91 234 231 254 241 94 247 181 97 176 140 63 220 33 222 192 241 78 104 40 75 183 12 1 214 199 241 164 255 131 17 168 2 131 25 225 171 223 41 132 131 191 167 140 99 127 67 190 203 77 135 149 254 124 180 224 117 23 180 215 85 90 170 205 66 8 117 71 151 185 13 250 100 30 117 85 25 169 148 211 44 148 135 134 41 31 145 76 151 
111 44 111 241 136 96 217 32 159 224 49 144 55 205 58 210 10 194 224 109 114 168 54 9 238 51 236 23 194 221 79 161 220 30 182 49 25 201 111 63 52 189 191 147 5 234 129 42 229 105 110 57 214 255 34 77 175 206 104 171 218 162 143 243 112 78 95 158 206 12 95 47 37 79 23 158 221 161 152 158 46 71 63 151 14 76 98 50 56 207 8 87 1 144 22 19 26 43 5 127 
161 196 217 117 126 0 137 43 35 211 173 101 199 54 84 225 218 88 159 14 233 236 202 70 193 76 193 110 112 83 206 127 179 57 62 144 82 152 118 39 172 119 16 164 99 163 120 106 251 66 176 83 152 44 224 212 232 205 119 143 65 132 241 62 220 104 7 163 34 3 246 146 212 49 102 81 226 197 19 121 54 118 51 192 245 20 241 54 72 217 72 115 216 244 64 209 29 107 97 42 
170 139 209 101 144 249 80 214 171 47 120 96 24 123 224 70 56 167 92 97 191 254 214 108 2 88 220 144 247 71 41 239 186 99 37 124 129 138 67 193 150 85 240 238 97 227 176 206 140 217 94 107 46 227 37 209 16 144 234 64 175 123 23 46 75 62 245 228 33 86 145 186 85 145 6 53 103 136 212 81 138 138 221 39 243 24 164 8 253 4 45 46 107 69 98 43 163 16 77 189 
103 115 148 43 255 23 137 90 151 70 95 238 208 67 78 44 71 0 138 145 119 136 89 131 39 225 248 24 21 53 51 142 13 152 195 230 194 175 232 98 195 34 251 3 222 239 132 36 177 102 48 111 55 77 128 224 184 28 192 249 113 156 123 241 161 142 22 13 124 110 184 101 125 29 139 116 255 155 19 105 58 135 200 46 243 65 148 210 199 130 96 4 134 244 213 251 1 47 246 72 
39 158 177 77 113 194 120 88 192 13 117 85 4 181 42 169 245 173 122 137 179 29 215 42 149 248 22 207 64 248 149 184 192 12 30 33 192 56 176 232 133 241 171 101 43 192 255 193 169 100 12 46 54 162 109 189 119 59 19 122 150 189 46 110 81 221 239 137 3 27 206 221 12 190 139 36 43 244 40 66 31 80 145 214 223 162 105 220 139 187 50 180 239 128 194 197 0 199 184 151 
245 17 234 134 182 250 49 65 174 193 132 199 242 171 67 64 8 212 200 34 166 38 194 152 248 162 47 243 249 60 76 17 234 236 235 105 87 131 99 216 222 68 182 118 137 92 169 209 246 145 179 211 75 140 132 142 216 174 42 80 79 64 215 88 80 34 216 74 126 171 85 130 84 191 180 82 218 167 249 176 6 41 58 112 213 82 145 71 90 159 102 239 181 188 211 151 250 1 86 79 
250 173 71 71 26 77 133 169 100 88 74 129 234 144 11 104 55 3 130 133 199 198 106 96 228 50 123 250 49 221 16 238 162 137 238 213 33 124 240 45 237 4 148 71 169 212 74 143 64 93 213 123 122 206 56 220 195 129 125 73 68 16 15 196 22 129 122 127 38 128 48 128 153 161 221 187 81 92 252 200 255 234 245 174 86 126 226 15 57 214 81 175 145 228 122 29 155 225 212 225 
52 54 191 125 68 214 207 74 143 46 240 85 185 192 149 225 196 185 50 130 251 37 10 237 143 215 188 6 137 132 45 64 244 202 114 3 168 51 156 15 61 208 197 38 221 188 124 45 245 132 68 2 121 188 138 216 128 54 32 252 118 58 89 64 12 27 245 193 216 186 43 10 202 44 168 90 102 41 56 103 105 244 127 153 31 251 82 40 25 189 27 217 243 162 27 255 241 137 15 29 
48 30 228 241 144 6 37 255 111 243 54 230 79 92 122 113 142 75 51 175 150 132 143 165 154 136 63 119 203 114 176 48 168 151 34 134 24 127 57 155 215 12 136 73 8 58 161 236 23 41 6 16 106 77 170 69 215 205 164 76 197 7 194 104 7 71 4 113 24 134 102 222 71 228 113 192 186 238 245 250 22 201 185 107 226 244 7 60 123 221 37 99 201 152 106 34 216 173 239 174 
23 87 154 42 35 79 116 191 68 84 79 34 65 16 8 117 188 155 119 71 144 231 44 112 29 83 237 238 20 60 63 41 200 225 14 239 63 168 156 134 190 12 117 105 18 205 211 93 15 102 196 153 254 143 14 81 201 128 15 72 33 97 13 73 163 158 203 137 60 168 41 188 18 78 124 60 185 76 77 35 244 205 180 221 114 90 52 112 248 85 150 42 47 249 234 50 243 142 72 107 
74 129 234 21 82 35 7 173 253 132 45 66 66 222 136 250 65 40 162 143 199 188 164 149 29 224 22 207 195 58 93 78 186 244 3 216 67 127 37 254 147 242 159 209 169 197 159 21 241 158 105 138 49 125 80 221 221 119 73 31 127 219 62 179 180 15 160 49 14 52 237 46 138 56 210 189 137 67 118 74 0 187 11 150 161 31 106 72 42 108 86 91 203 253 22 71 137 164 25 146 
146 9 107 220 226 70 75 102 134 191 59 42 85 30 217 58 100 190 24 254 243 99 107 190 244 187 186 78 41 205 191 80 138 69 78 245 210 83 90 41 190 55 118 83 195 83 180 211 217 222 61 6 25 5 67 88 65 188 224 30 46 119 84 5 135 165 147 86 105 41 222 171 18 251 242 113 198 126 198 233 116 91 26 65 44 145 61 181 209 173 175 120 14 217 38 34 77 149 142 33 
44 57 56 117 68 102 128 237 135 254 60 204 203 130 160 218 129 23 241 99 4 148 67 157 20 108 27 180 137 39 144 207 31 55 221 76 29 28 68 70 236 78 151 25 164 227 52 32 39 92 43 78 30 69 181 251 225 207 24 231 201 96 245 149 88 208 77 76 199 122 149 118 55 174 132 17 129 230 147 20 17 233 119 190 24 197 254 23 243 85 81 49 50 33 2 208 236 183 142 224 
168 20 73 212 160 131 248 191 95 191 8 71 62 99 174 235 239 136 50 77 203 134 91 180 6 88 146 224 175 50 115 51 28 36 91 160 184 162 235 204 185 163 253 202 202 184 109 36 231 130 96 219 100 54 219 218 158 172 196 84 107 172 172 155 41 142 179 77 236 229 156 73 54 158 103 237 252 97 106 221 253 5 220 244 62 203 177 166 136 13 90 238 118 217 82 19 88 252 117 162 
237 64 111 188 29 223 27 185 85 211 34 21 231 177 210 32 48 63 255 110 1 196 102 217 41 39 15 240 84 19 100 242 220 236 28 81 208 227 126 128 202 4 131 127 60 182 163 159 43 242 195 130 5 132 80 110 12 50 134 77 188 223 116 74 206 161 185 102 10 159 193 227 100 237 63 195 248 19 246 233 39 186 25 209 213 50 249 41 21 114 4 56 211 215 28 112 195 240 249 54 
22 52 145 125 204 163 219 46 239 30 133 10 233 247 49 68 22 97 226 239 81 19 31 123 74 5 208 223 61 231 26 194 13 192 50 154 242 195 206 220 175 15 157 235 51 57 4 246 143 129 249 89 37 238 98 188 156 125 82 243 230 252 234 254 106 108 86 178 58 182 236 244 219 53 13 215 13 198 241 244 50 22 65 103 119 37 60 67 158 80 103 213 162 201 154 133 78 169 213 196 
231 71 24 53 79 63 244 54 224 50 202 9 22 15 51 64 198 0 196 11 9 65 200 215 62 3 82 232 226 167 142 92 51 220 239 92 82 178 209 91 94 159 130 101 163 164 90 55 173 242 162 171 37 20 204 51 223 147 242 99 159 179 223 31 226 217 36 115 95 90 118 63 34 185 201 48 50 40 54 58 134 211 58 10 133 211 126 49 193 231 80 198 181 161 20 219 41 88 193 175 
20 93 28 208 57 167 81 129 246 178 94 211 169 74 23 249 203 141 83 19 203 83 34 169 223 93 224 22 207 228 132 229 119 34 246 146 107 80 191 34 131 129 189 239 8 44 141 150 48 117 90 126 116 101 167 101 142 250 42 154 1 186 160 236 53 94 21 178 76 8 28 241 143 91 179 63 42 33 39 60 145 78 255 139 7 5 102 41 193 52 113 113 145 31 72 81 11 13 50 4 
126 154 2 227 102 245 188 15 45 197 154 196 240 80 159 248 247 150 151 79 87 245 44 173 110 221 211 67 46 57 148 129 254 253 193 191 90 124 6 244 254 21 140 129 174 206 197 238 179 6 228 241 79 112 227 223 248 9 137 30 119 190 1 188 135 138 128 210 147 18 204 179 121 63 114 235 190 105 86 102 181 43 65 204 244 14 130 212 171 27 1 248 78 83 82 82 212 117 138 16 
143 164 186 182 92 40 221 173 93 128 232 20 113 172 233 159 169 251 67 133 94 234 231 163 98 91 29 252 117 142 110 227 239 234 2 57 59 191 4 29 209 182 166 25 24 226 85 196 77 109 230 142 171 224 238 9 56 50 216 95 189 98 85 252 173 196 183 151 45 37 233 249 107 84 207 163 215 89 173 244 28 233 231 39 191 209 197 182 65 103 136 100 139 30 242 215 146 200 127 84 
95 48 116 59 143 102 72 62 33 56 49 184 86 92 149 158 206 138 241 70 191 73 99 143 236 155 136 83 249 248 10 146 21 117 40 149 116 166 206 26 161 43 51 194 7 31 188 202 45 96 202 75 250 223 234 81 225 143 237 106 151 244 241 188 207 199 252 39 2 205 156 97 114 13 83 61 235 29 43 22 3 132 102 221 86 158 91 253 52 70 30 15 250 162 130 148 141 251 140 98 
232 146 152 248 176 40 146 147 7 8 253 242 16 157 224 52 252 149 140 184 79 78 61 79 112 53 79 38 153 222 21 101 201 17 202 91 48 33 149 74 76 40 42 190 232 242 180 39 99 169 116 149 4 113 53 92 220 78 134 46 16 188 249 13 39 213 98 125 142 121 126 220 51 78 43 77 185 83 80 151 232 243 196 115 36 193 97 210 168 2 244 16 10 196 227 149 60 196 202 201 
84 44 34 190 186 237 28 31 199 234 183 172 37 85 253 61 72 135 13 90 155 151 81 251 170 95 157 41 24 169 0 190 63 194 233 59 223 236 144 20 55 189 81 196 31 221 36 165 80 153 109 47 47 122 1 84 44 22 94 255 62 69 58 220 212 160 133 136 151 173 215 103 226 230 212 253 63 168 52 229 248 229 124 223 197 232 31 19 7 155 67 43 75 180 183 100 105 199 188 220 
37 38 247 59 3 88 156 235 5 222 204 1 171 16 108 190 212 166 90 0 36 137 63 2 116 11 152 59 133 32 168 136 228 9 199 15 42 251 216 149 163 144 114 186 46 47 25 184 124 168 142 114 128 109 90 115 124 67 197 114 95 144 214 206 88 145 165 114 164 191 17 232 90 89 171 51 169 209 228 197 172 117 187 186 12 244 62 29 211 79 157 32 234 214 184 166 241 182 35 116 
15 129 102 222 246 239 178 167 230 241 60 242 57 177 77 9 106 20 100 0 175 80 78 141 71 46 6 244 210 85 51 11 186 94 242 248 195 92 166 226 100 158 105 106 112 239 244 178 31 136 101 50 177 171 89 141 144 25 176 166 157 1 52 12 74 132 87 254 247 67 33 215 20 182 187 107 74 124 97 201 7 140 118 31 133 28 124 11 39 168 22 26 252 232 135 73 35 46 143 241 
142 239 93 151 31 68 138 146 129 199 121 214 193 71 238 96 233 219 162 33 65 64 248 242 132 19 179 49 142 39 114 69 103 208 57 118 59 162 176 148 106 54 197 235 81 63 63 9 11 70 184 224 250 142 235 172 154 52 79 117 222 39 197 193 46 118 197 73 159 199 252 85 202 216 49 240 141 35 111 200 239 178 246 71 175 202 214 63 116 82 199 110 31 205 95 254 99 15 119 33 
187 176 5 203 105 32 255 205 162 198 118 147 190 214 158 96 25 58 228 212 148 99 181 61 221 2 158 232 77 16 8 162 192 136 202 135 255 149 130 247 183 220 178 157 224 26 108 82 144 146 93 82 207 33 206 20 50 148 104 27 197 107 248 169 59 140 135 252 114 172 163 71 74 216 110 175 62 92 9 134 255 115 61 85 99 114 45 233 106 210 69 125 90 30 50 103 150 124 198 196 
238 107 213 143 247 101 31 238 44 27 139 166 252 185 124 218 229 13 171 136 172 114 138 13 18 121 71 110 213 33 241 139 239 205 12 41 142 27 164 58 78 23 229 41 186 223 101 157 50 40 217 154 189 204 54 43 200 42 245 157 54 47 23 67 4 127 15 196 198 182 175 144 37 40 105 244 3 86 74 127 194 42 110 152 250 69 154 20 212 125 156 23 62 39 25 68 58 119 79 70 
37 63 156 100 155 238 71 37 96 251 226 122 166 96 91 126 1 72 89 116 43 171 167 44 140 18 241 138 30 251 221 182 97 2 53 194 124 172 91 130 122 242 141 177 149 41 122 163 59 75 101 178 231 136 125 189 73 215 40 184 132 199 176 24 112 1 115 115 37 239 147 20 42 201 133 7 239 176 205 128 18 43 14 18 106 20 6 124 226 208 229 46 243 194 85 209 76 146 3 135 
23 95 66 211 93 91 37 173 232 222 216 234 238 37 24 141 201 45 125 248 24 180 93 45 204 214 140 231 50 54 53 63 157 83 221 147 10 219 144 66 224 143 45 7 74 79 10 184 156 84 48 229 45 155 123 209 191 201 201 26 202 143 227 151 225 178 131 25 182 169 67 109 15 130 232 190 166 249 121 102 201 31 42 231 93 216 69 84 159 58 171 197 178 208 13 75 98 177 23 140 
183 168 136 58 205 99 108 214 189 215 67 190 42 81 41 11 113 149 24 50 24 32 71 248 102 68 176 210 30 170 152 233 94 205 110 51 157 129 169 125 113 50 147 222 171 170 167 52 138 138 193 151 111 88 108 8 143 162 99 195 31 39 66 108 218 110 45 255 17 191 111 135 83 109 141 71 169 42 44 233 173 67 25 210 231 220 190 207 251 21 177 90 88 147 204 156 177 172 253 133 
79 1 229 132 110 225 87 45 244 124 141 197 49 245 33 49 125 152 146 138 18 236 49 184 32 232 5 217 231 155 54 122 214 170 197 169 162 236 68 28 47 108 49 9 46 147 170 243 190 133 186 251 42 63 247 43 122 136 152 252 25 250 2 219 70 208 186 34 25 53 71 166 225 228 52 222 234 133 58 214 225 108 149 187 255 235 56 207 67 201 146 193 3 10 141 244 175 161 90 38 
194 208 155 149 56 228 17 27 133 208 182 76 62 199 182 117 227 247 27 141 101 179 156 187 184 180 100 125 23 80 26 98 200 229 185 192 13 58 202 129 113 223 93 58 202 178 130 166 252 55 163 236 8 255 173 233 4 159 192 229 4 213 28 0 44 152 105 131 81 85 58 205 54 220 159 247 10 40 124 96 117 162 115 52 99 92 224 12 6 40 90 100 204 78 38 30 213 139 8 42 
125 16 210 200 218 180 31 5 123 123 113 53 187 225 146 7 220 43 88 128 120 41 123 234 95 15 148 90 100 152 74 141 50 118 104 216 242 189 225 233 229 92 195 11 51 210 40 141 78 88 150 156 145 142 237 222 113 103 118 242 58 177 69 165 147 154 153 68 216 208 247 157 16 234 245 208 254 159 123 254 221 82 77 176 219 4 136 25 151 74 177 36 117 179 205 153 144 215 159 129 
149 232 205 16 181 47 220 146 168 13 118 146 209 139 160 240 162 120 73 139 42 193 52 135 221 93 135 113 234 189 247 118 36 188 1 216 144 30 46 56 37 194 92 20 105 204 254 201 139 177 169 2 207 183 60 250 254 190 75 24 93 145 103 168 34 123 42 33 240 79 206 109 231 127 67 130 184 113 24 21 153 81 16 205 97 22 16 205 96 81 170 81 217 221 92 66 86 34 231 177 
148 84 65 173 66 175 79 246 87 114 25 227 5 112 225 102 13 5 131 17 214 217 3 249 130 137 197 239 198 233 77 252 49 85 183 222 203 92 14 90 81 70 97 47 76 71 70 2 38 202 143 248 59 149 173 37 40 124 183 247 173 21 174 130 225 136 161 37 45 143 149 207 63 180 31 166 226 141 60 82 255 176 120 176 49 61 149 128 161 237 9 137 241 119 228 37 87 124 94 143 
214 59 252 151 96 148 35 9 74 64 186 144 27 119 196 34 31 12 69 143 13 19 219 183 24 216 114 254 79 241 245 23 173 241 23 23 9 146 156 152 187 80 79 156 27 186 171 160 173 64 107 82 189 41 221 230 75 40 22 51 40 134 102 202 128 142 117 243 78 75 221 138 255 110 42 144 37 20 237 164 141 127 196 23 54 111 82 159 242 139 135 220 205 153 198 128 113 26 231 10 
236 155 153 113 249 98 2 122 107 235 177 110 49 224 161 140 49 78 209 107 253 78 120 136 124 93 239 65 50 114 48 223 148 172 162 35 244 181 251 14 43 205 30 58 218 226 37 231 218 88 182 29 245 5 133 166 178 17 183 85 248 58 119 209 53 156 108 142 219 174 22 197 5 28 80 128 234 149 158 203 18 240 164 179 52 102 192 154 139 57 17 43 236 194 108 253 83 167 190 242 
65 5 77 231 5 149 103 65 195 165 38 176 84 43 110 149 30 129 48 82 98 197 98 11 59 189 225 41 92 20 156 34 161 33 226 68 138 97 196 199 146 250 205 14 228 12 3 97 94 69 3 63 21 177 210 177 171 200 82 164 131 236 215 50 26 195 46 123 224 3 14 92 48 215 111 54 92 123 73 4 77 135 162 72 108 55 79 255 66 3 235 66 124 219 217 193 175 48 221 0 
77 119 32 198 226 82 52 207 69 118 38 87 194 154 59 106 140 221 228 224 245 161 143 170 152 132 107 242 62 82 253 155 83 230 1 174 32 230 252 110 199 6 78 119 104 73 55 213 18 222 30 217 241 147 242 135 215 144 198 67 134 66 41 240 105 137 143 147 44 187 225 92 78 61 125 112 164 201 133 60 18 224 207 171 52 98 0 142 45 116 73 234 149 113 117 199 231 154 67 66 
124 239 14 37 12 28 50 183 220 20 164 114 179 131 241 89 207 124 200 141 202 21 78 93 75 187 186 141 123 245 163 236 248 119 195 46 245 204 20 75 12 24 91 154 110 148 144 180 239 159 62 242 82 184 66 57 240 181 79 128 79 185 9 110 12 2 71 104 69 77 66 118 67 237 255 57 173 249 165 123 95 37 19 191 47 152 83 166 121 52 89 228 249 47 27 93 12 173 111 36 
53 181 163 55 19 84 79 233 62 163 112 113 170 108 52 140 156 16 75 217 112 253 68 167 2 95 198 181 238 151 37 54 62 49 45 245 78 183 177 86 185 124 188 73 150 125 121 128 242 233 27 116 158 46 124 162 89 24 50 68 120 156 226 138 140 214 163 204 116 229 253 114 143 205 36 80 58 0 145 81 212 183 252 194 115 94 74 182 106 211 179 60 150 244 225 10 198 151 166 91 
255 172 151 152 241 188 232 210 62 236 45 90 68 116 241 27 122 238 95 171 170 99 247 246 133 1 241 93 30 149 241 247 3 199 186 169 18 215 255 54 219 135 167 158 139 158 60 249 66 56 131 19 157 210 42 50 83 37 198 154 94 204 186 9 136 255 240 231 153 111 8 186 230 249 30 122 203 143 17 141 3 132 192 74 116 252 191 89 26 127 49 246 89 149 192 122 130 149 138 4 
74 237 30 198 74 85 10 170 52 229 251 9 28 37 63 74 239 172 140 67 30 121 135 232 202 50 77 23 245 96 160 141 60 129 72 166 93 255 138 173 85 244 224 210 195 30 28 25 198 82 138 92 176 166 2 216 77 177 202 166 174 215 209 126 215 245 192 141 81 197 80 147 81 75 118 77 224 133 119 1 242 207 251 251 100 201 115 130 211 120 139 220 0 14 118 97 10 132 133 192 
165 247 176 251 104 159 93 9 9 97 61 9 148 152 126 42 199 218 59 195 123 2 158 94 161 46 192 194 208 9 218 13 161 181 33 84 70 0 2 109 127 87 80 105 134 34 226 19 173 234 78 140 249 118 99 31 109 232 136 1 14 138 8 99 28 141 230 115 154 17 197 27 33 222 146 164 153 242 70 239 220 212 41 229 246 76 56 5 105 18 134 141 128 229 165 53 163 92 29 172 
115 197 79 111 102 244 11 247 207 121 162 191 21 118 235 239 83 136 31 5 119 17 222 132 115 166 93 49 131 89 150 0 197 174 40 26 106 106 143 96 71 237 39 249 111 89 176 64 158 210 166 243 248 121 180 208 131 231 252 118 69 90 225 105 62 91 203 194 134 19 61 151 59 97 254 245 102 196 242 61 196 240 102 210 50 84 164 114 95 209 2 101 201 6 238 32 114 68 60 159 
0 251 29 169 223 94 108 64 91 128 0 143 155 213 235 105 11 97 232 143 241 157 162 24 87 105 231 102 122 229 111 224 71 208 128 217 132 228 62 10 2 125 104 248 216 177 238 177 96 193 235 107 98 4 49 196 225 168 64 111 186 166 255 15 76 156 197 250 146 192 142 74 94 69 9 50 44 41 199 171 82 68 60 239 77 160 213 37 91 226 228 184 255 97 204 240 41 100 194 125 
211 245 34 158 239 27 118 1 88 195 91 175 26 60 100 85 1 139 74 253 222 171 232 44 113 73 177 7 74 103 204 113 18 20 62 88 23 21 231 162 248 14 114 148 11 207 252 177 163 198 218 250 15 46 232 76 121 49 233 193 79 5 49 162 136 217 127 106 42 68 138 13 50 198 5 232 61 249 146 179 133 223 88 115 240 152 38 120 9 134 230 137 79 51 65 129 135 61 49 174 
41 15 220 182 111 147 100 250 57 189 235 5 118 7 30 169 45 209 44 85 1 97 95 61 242 28 56 178 33 67 23 21 121 139 184 146 88 115 251 15 75 204 200 119 210 61 211 101 4 115 129 233 244 223 88 37 132 81 82 189 111 149 228 41 70 151 227 110 77 141 131 177 88 12 238 15 255 187 70 206 165 175 63 238 158 120 113 238 140 38 18 103 101 212 124 46 128 211 134 85 
24 52 212 169 151 16 200 80 217 197 26 87 14 158 250 224 166 150 226 214 134 152 72 101 8 117 253 188 202 59 236 128 98 56 27 247 185 32 9 250 76 114 85 171 2 176 216 55 99 240 200 127 90 84 102 133 116 230 101 147 59 202 159 75 107 19 60 199 24 52 78 73 200 120 169 68 255 4 116 47 202 187 251 196 169 251 77 187 47 173 28 94 138 125 120 229 80 32 88 164 
192 104 189 220 217 87 216 73 26 17 17 25 31 201 162 80 136 73 87 124 63 120 19 236 206 151 195 80 88 83 188 207 38 250 183 92 135 14 151 24 65 53 1 192 0 201 135 100 78 143 118 132 101 251 42 140 4 191 200 108 46 238 118 202 129 72 149 45 235 3 106 24 112 58 154 181 39 223 71 152 30 5 139 67 77 119 35 86 134 187 103 103 65 214 44 35 201 42 242 167 
163 134 194 44 64 158 1 234 10 175 12 149 140 91 71 2 114 138 69 201 6 118 248 139 115 225 188 126 98 157 109 9 101 141 154 138 82 172 117 148 195 14 147 135 154 77 225 194 186 28 255 179 14 222 189 130 66 28 123 3 154 112 139 181 79 218 35 222 136 48 213 242 237 211 39 132 200 216 160 127 126 158 101 78 247 117 199 204 119 22 7 161 185 154 253 35 222 150 24 203 
100 99 99 35 110 70 193 13 122 242 240 149 61 214 114 243 208 175 7 180 147 38 196 231 144 171 95 221 153 215 163 234 141 27 165 237 41 207 208 252 89 25 225 212 86 230 71 179 110 113 157 234 113 66 170 110 91 72 8 166 50 21 222 122 176 162 127 52 193 248 191 7 57 107 154 96 248 30 83 175 210 25 192 89 209 10 130 62 62 82 56 119 230 58 75 181 227 145 37 178 
212 199 128 216 137 119 253 223 12 122 112 105 175 58 78 170 103 145 176 191 182 230 251 19 87 144 71 72 111 242 183 201 12 65 0 14 188 235 180 8 195 135 69 210 173 162 229 54 159 172 98 110 234 246 133 27 223 198 160 21 237 48 13 249 246 21 170 241 247 172 71 225 88 60 175 80 236 177 58 173 148 121 186 235 191 234 48 148 71 137 252 232 2 80 185 37 255 252 140 62 
58 197 202 21 126 98 217 23 157 134 56 191 123 108 103 155 184 18 101 240 201 89 225 142 243 190 222 57 231 247 215 196 10 145 13 62 178 188 36 153 130 21 119 147 150 136 26 37 186 129 21 9 140 131 24 187 203 202 167 91 33 121 176 166 254 209 164 248 58 34 214 13 61 6 39 121 42 43 189 180 194 173 80 222 170 78 7 7 126 75 71 211 253 212 169 76 123 153 154 204 
255 243 147 208 94 249 225 76 156 215 181 98 76 48 170 141 239 9 137 164 92 63 18 89 156 87 38 139 140 117 210 154 162 171 119 119 211 207 143 38 48 198 84 229 209 199 43 126 41 60 191 79 235 232 183 195 227 127 200 14 101 195 130 38 7 224 78 118 165 226 58 95 184 251 197 252 189 244 213 76 47 98 191 174 87 152 175 100 223 76 170 155 43 243 52 157 34 18 88 33 
13 13 140 198 133 158 121 240 155 107 236 43 156 156 205 108 228 242 210 7 5 148 116 3 10 60 207 146 14 94 77 173 171 110 91 160 66 202 101 52 203 203 129 106 35 220 122 22 169 52 185 200 34 182 117 118 181 132 45 164 123 238 214 250 242 47 219 175 242 38 37 39 135 142 121 152 218 124 189 139 233 13 225 185 91 207 221 45 219 44 214 172 191 129 220 177 218 222 221 26 
194 28 118 171 238 165 41 13 88 11 127 102 253 243 115 42 236 38 12 34 186 232 163 212 108 97 157 125 148 60 240 222 231 32 57 20 53 124 64 240 61 164 62 76 150 121 147 53 68 154 162 115 254 210 127 231 228 111 80 142 253 13 146 146 242 205 53 168 119 251 224 20 251 16 165 149 134 209 221 220 250 15 239 188 181 149 71 181 244 160 186 202 50 13 113 77 135 109 182 195 
181 41 0 113 174 206 234 188 39 199 243 87 200 44 238 34 172 125 246 25 189 209 115 44 218 161 158 97 251 92 69 123 29 88 48 7 10 5 168 90 237 155 159 24 83 9 149 202 210 60 227 120 100 95 17 143 89 39 48 129 56 80 64 53 236 103 84 44 106 82 57 34 148 178 106 153 72 25 122 17 135 77 146 233 113 128 32 153 128 209 207 38 243 98 243 82 187 8 92 241 
164 21 146 156 22 90 101 92 181 174 27 0 106 189 129 56 173 131 126 201 88 243 104 218 150 132 203 210 80 47 239 137 240 234 30 249 139 162 146 200 105 218 247 236 126 239 112 200 132 222 223 205 59 147 186 175 187 240 134 160 219 46 185 144 79 175 114 228 238 200 228 134 165 74 95 234 242 63 227 223 222 200 243 21 129 235 161 189 190 186 203 33 30 126 23 211 42 46 43 235 
17 76 113 46 204 1 189 132 244 208 8 134 22 101 200 183 192 65 236 9 109 115 199 234 208 229 81 206 129 126 39 25 146 239 220 221 75 106 49 30 232 130 146 134 44 200 182 8 226 210 186 49 145 219 86 230 1 34 141 176 148 158 42 223 171 125 172 219 83 80 169 80 238 106 160 240 224 211 62 36 162 133 38 226 221 175 31 172 212 169 36 38 26 5 151 166 102 220 161 230 
115 241 115 151 253 249 62 59 77 3 159 135 186 87 197 39 185 57 86 175 199 159 37 80 26 216 198 9 43 147 254 19 19 153 162 177 79 57 87 238 14 159 211 44 245 173 17 76 108 45 224 252 121 94 233 144 64 228 120 76 88 120 175 20 107 220 135 56 98 44 241 184 243 15 97 48 96 115 185 20 60 143 86 181 110 136 109 155 96 112 58 85 58 20 140 248 83 132 7 209 
174 22 172 252 240 103 53 86 159 83 59 161 222 136 88 152 63 73 98 67 226 216 41 137 142 196 79 74 152 181 80 94 67 219 155 66 109 175 62 194 178 195 188 171 71 192 92 109 197 248 237 27 117 180 228 77 132 114 26 39 97 11 38 244 62 27 189 14 240 5 99 43 214 120 135 214 78 93 14 120 191 160 32 86 198 107 66 231 212 164 118 71 195 221 100 169 242 183 117 81 
240 109 147 243 76 248 34 63 98 129 196 47 126 192 177 76 126 7 1 82 13 234 144 93 179 103 201 100 243 89 75 95 10 81 245 10 27 229 204 110 20 193 110 1 31 64 5 203 172 156 128 238 0 149 182 51 190 221 188 139 31 234 237 219 236 66 173 121 4 55 200 87 212 198 142 223 72 168 42 52 214 203 233 139 219 211 48 153 249 42 159 101 147 191 193 56 135 239 23 212 
177 32 103 14 8 77 150 204 7 46 245 79 209 127 87 121 59 65 36 125 204 236 101 62 238 251 78 65 75 18 166 119 152 250 70 231 105 147 234 7 76 50 207 81 82 195 230 155 30 62 168 20 204 137 35 192 53 181 195 69 188 248 88 153 81 41 134 39 72 28 11 6 96 231 235 212 223 196 27 151 149 56 191 113 10 63 229 41 7 141 101 254 250 66 137 226 134 123 124 70 
186 136 11 211 37 183 131 113 21 72 72 174 0 225 55 229 33 75 239 179 252 138 249 13 220 110 254 104 211 61 21 138 202 24 252 218 182 254 215 82 183 77 125 193 129 125 113 123 219 23 4 164 44 46 121 14 111 82 75 220 168 184 76 54 23 106 186 186 238 2 3 6 66 186 195 105 169 43 216 250 203 2 159 63 53 19 47 209 103 150 115 181 102 137 130 233 187 21 12 209 
222 247 247 79 95 227 76 245 114 11 57 243 191 167 238 163 237 176 111 110 154 40 2 154 12 8 214 198 217 120 154 84 194 217 91 197 135 71 10 205 167 87 189 48 173 205 160 196 226 97 131 231 7 171 138 15 182 198 45 236 199 15 184 2 12 182 36 238 35 231 85 166 69 143 157 87 97 1 46 158 94 109 180 105 120 147 36 15 252 74 102 97 105 81 6 161 78 48 62 47 
96 93 138 144 109 152 169 122 246 64 141 52 35 225 167 100 165 174 205 68 18 203 2 98 162 94 170 30 244 3 238 249 109 130 84 44 222 144 36 146 225 105 88 195 195 212 14 119 90 243 127 252 228 117 127 229 131 33 33 45 87 224 14 118 1 80 229 206 207 194 54 180 47 3 56 208 234 5 80 66 199 166 145 140 50 130 26 40 139 252 211 103 61 90 30 99 239 192 55 204 
52 234 183 90 61 207 173 5 252 180 56 192 255 225 115 28 132 123 94 159 119 149 164 59 147 207 175 17 98 56 210 176 64 215 1 167 194 107 253 164 167 52 100 51 165 112 174 163 232 146 249 94 118 150 161 6 172 103 144 169 173 169 151 147 80 67 192 181 161 97 143 221 152 170 76 6 63 49 129 224 66 190 151 235 239 177 182 111 17 67 10 42 55 20 113 254 124 166 201 225 
1 91 200 17 119 129 108 35 65 179 92 49 185 40 228 23 28 86 53 124 146 115 182 185 194 94 217 251 142 142 106 98 66 74 93 196 79 70 242 91 234 71 219 123 94 12 224 31 84 234 21 190 241 88 53 84 72 104 18 39 11 168 231 217 68 149 37 155 246 194 183 217 207 14 131 246 22 213 29 131 124 77 67 113 228 62 244 36 157 144 130 253 68 64 17 204 104 2 66 32 
2 204 237 24 98 104 210 144 63 192 251 3 140 117 251 11 20 70 37 179 195 124 90 93 166 120 152 20 120 26 106 164 173 196 84 228 123 55 196 12 149 169 143 11 241 1 83 48 241 118 110 99 77 118 167 147 142 82 210 214 85 251 247 235 120 127 255 35 161 73 150 237 187 198 164 179 132 81 175 15 124 221 0 104 141 111 63 63 195 82 156 225 94 76 55 123 251 180 90 65 
51 140 0 40 90 32 124 62 68 169 62 150 5 142 253 218 198 142 212 253 35 35 209 140 12 240 11 239 8 151 165 126 212 119 81 240 133 102 120 9 70 107 62 21 76 162 195 225 47 233 108 240 136 173 181 104 35 178 132 204 10 40 222 3 226 105 174 190 44 189 18 9 223 217 125 73 106 159 188 65 125 101 46 42 90 137 63 89 70 184 57 130 15 181 131 197 156 206 228 36 
19 220 3 6 132 156 103 137 142 212 34 45 241 173 187 145 221 163 231 154 7 226 4 82 242 102 218 181 162 205 240 18 72 93 220 70 60 250 35 230 152 44 105 166 240 143 86 122 32 175 48 205 240 110 22 89 21 68 27 36 64 64 118 110 222 36 53 192 25 57 100 166 196 34 2 35 46 203 204 15 6 5 95 252 190 214 253 134 93 106 239 15 194 65 131 245 238 114 86 11 
