P2
100 100
255
36 78 180 87 49 245 86 177 88 115 229 57 75 251 224 44 64 209 38 167 35 198 179 158 179 94 90 247 254 154 132 106 123 63 221 182 0 180 97 90 96 62 146 238 162 22 192 184 127 232 236 124 81 16 107 37 166 128 32 129 95 101 140 204 25 12 204 51 71 252 75 163 187 186 110 129 176 130 185 156 100 189 135 73 14 49 83 73 173 175 69 236 23 38 50 91 215 67 16 96 
111 29 111 139 155 190 93 185 196 39 80 251 150 33 76 116 193 229 176 141 139 181 5 42 89 151 175 85 143 159 190 227 35 74 69 243 121 86 128 40 23 26 126 145 21 59 10 38 148 77 251 39 157 106 25 124 230 31 74 164 19 124 18 16 73 154 32 158 143 113 75 149 215 113 165 155 155 101 207 188 241 97 232 191 166 101 249 130 213 251 147 202 252 37 248 77 183 191 174 180 
110 46 149 116 250 67 229 0 125 12 203 103 22 66 50 225 175 250 141 65 235 243 108 158 93 118 34 84 165 18 236 144 157 68 116 174 125 176 57 220 79 189 1 24 4 234 73 184 33 32 161 83 216 26 167 137 135 105 83 248 113 69 10 81 239 31 7 166 26 114 27 34 8 44 158 226 168 227 224 212 103 53 136 5 62 24 201 118 148 206 131 197 70 32 245 191 154 55 24 51 
155 237 185 251 234 103 170 219 136 48 221 134 12 217 213 5 159 97 25 70 111 56 187 75 45 6 15 161 118 119 163 93 62 212 139 169 209 77 203 185 160 141 87 3 120 28 129 151 93 96 236 222 197 188 61 200 6 122 207 204 137 161 50 168 164 54 144 49 29 161 157 104 251 0 108 35 111 205 154 111 52 32 206 249 182 241 35 168 170 55 235 160 224 123 224 241 74 167 163 235 
80 220 250 205 194 106 244 239 3 146 16 227 43 124 196 135 94 181 193 7 213 20 234 15 6 136 130 174 87 100 93 181 180 65 191 43 253 201 12 147 227 144 121 129 130 136 151 214 201 231 82 123 19 80 246 2 181 3 97 95 216 29 50 64 1 209 79 12 36 147 23 237 251 240 163 207 125 130 179 250 194 79 208 119 52 35 232 195 117 30 83 178 186 237 157 118 52 101 209 131 
101 15 170 105 85 84 253 221 250 14 152 33 100 218 191 124 17 223 89 61 156 185 177 118 2 103 7 0 101 35 65 210 195 201 247 121 27 165 117 194 79 233 137 153 86 201 54 104 70 111 174 157 171 96 229 149 1 77 247 236 61 14 230 222 98 254 70 135 210 157 79 41 224 97 163 171 141 186 214 9 15 33 0 42 204 136 252 223 178 244 43 167 175 13 204 174 36 9 126 121 
54 23 173 201 238 167 239 103 225 224 130 89 8 3 59 68 54 160 65 55 221 12 206 112 202 5 203 193 149 200 190 23 142 79 145 89 178 4 56 190 47 218 224 200 152 53 165 39 87 5 121 193 48 63 228 21 84 173 81 44 114 97 52 253 46 37 123 108 8 212 240 151 155 74 231 93 58 140 14 232 196 58 149 230 106 32 122 156 119 10 126 47 0 57 231 126 43 175 239 88 
127 233 42 165 57 97 93 104 69 104 112 248 200 131 112 144 186 92 218 52 183 130 196 59 9 140 137 140 147 4 73 225 191 252 107 87 40 10 8 199 202 254 191 80 80 29 81 60 2 106 131 63 91 211 195 59 253 184 42 31 220 59 0 63 50 139 72 127 124 246 147 73 105 111 142 169 140 40 148 147 45 24 91 239 229 190 218 72 54 234 113 126 117 187 94 139 28 9 227 194 
114 245 125 146 127 22 84 175 77 74 2 162 57 125 98 213 59 239 226 116 217 157 75 59 221 75 202 225 152 37 200 224 140 236 28 66 9 70 61 217 136 161 205 116 235 189 150 201 203 243 20 133 198 215 4 235 237 182 183 208 240 243 137 30 122 180 185 35 72 40 107 215 236 126 133 206 149 44 210 49 237 154 60 91 17 161 41 239 38 113 175 8 190 33 252 138 119 146 141 131 
151 232 198 228 109 173 80 243 24 155 246 96 17 142 36 36 110 234 40 146 156 202 40 194 188 61 79 134 47 150 188 189 163 39 134 227 22 42 208 26 77 28 134 140 151 103 166 149 107 190 116 61 216 11 194 120 74 40 17 176 84 114 122 120 223 135 140 9 151 227 10 104 238 211 32 225 78 27 227 43 0 111 59 23 145 34 123 172 104 163 195 72 208 198 184 170 203 169 11 79 
38 81 64 30 253 249 82 146 6 74 111 196 75 179 77 18 131 57 95 210 82 132 25 67 33 253 104 140 208 234 212 160 54 29 109 160 107 90 64 159 103 101 184 155 46 234 213 118 247 253 8 158 53 137 233 112 223 84 83 182 55 228 238 66 172 182 148 75 222 48 115 169 227 182 218 201 243 212 135 187 115 79 214 49 129 58 232 123 25 82 253 230 12 131 98 157 198 18 70 88 
151 35 74 67 194 23 202 155 217 81 72 114 248 46 73 109 85 202 250 115 65 221 88 234 16 41 130 60 75 14 229 176 118 232 60 13 27 34 126 48 87 91 95 249 200 50 173 70 230 173 103 47 8 186 115 61 52 232 138 187 110 33 144 129 223 91 173 180 61 2 81 169 41 254 96 108 244 224 167 185 35 13 32 127 38 238 126 171 118 0 108 127 116 63 143 107 228 18 21 48 
187 95 180 113 117 253 184 124 230 75 106 252 248 164 173 114 56 69 54 177 154 67 41 154 4 28 143 220 73 139 108 181 208 4 220 210 233 15 205 93 144 28 221 199 228 211 144 48 1 227 87 122 12 171 141 100 210 48 84 97 41 125 162 42 238 37 58 161 179 241 163 242 153 87 177 128 150 219 64 115 191 173 29 34 208 90 107 58 56 239 45 178 60 29 47 128 149 244 236 114 
57 86 163 235 101 42 117 189 149 36 228 79 188 29 188 85 184 4 106 207 11 150 217 133 46 83 95 127 17 168 112 50 84 255 218 106 200 219 96 184 84 131 40 197 228 175 154 216 213 118 30 220 53 157 223 137 137 152 1 76 36 189 157 16 60 81 19 35 188 58 145 237 212 174 112 57 92 242 166 177 154 103 163 254 49 79 129 243 208 116 10 151 207 180 179 205 0 3 38 66 
193 197 6 29 117 113 113 69 179 251 37 249 231 186 25 232 244 68 64 65 20 251 20 165 16 54 180 131 150 41 203 255 123 99 72 249 197 11 133 48 105 113 197 229 2 133 129 6 54 127 253 235 241 207 240 201 170 80 62 62 62 185 188 3 220 200 76 236 54 189 78 119 51 24 4 19 251 0 76 129 67 61 232 190 16 72 167 43 134 93 169 64 22 223 46 229 94 152 102 173 
103 204 96 222 81 135 141 73 218 78 74 232 39 74 202 65 183 36 110 86 227 1 65 47 42 71 101 134 46 31 214 199 224 155 100 124 109 63 73 70 13 145 15 74 94 23 164 242 29 235 84 166 121 93 99 76 162 179 9 252 172 253 150 79 241 56 98 168 251 21 122 24 153 136 126 253 192 139 153 107 75 187 216 72 71 135 29 201 235 179 22 156 211 45 253 88 15 143 233 205 
94 202 216 149 24 234 174 133 221 90 179 157 94 4 226 162 122 118 97 155 172 43 54 77 183 42 226 171 233 84 54 39 174 78 238 220 126 54 107 9 127 113 112 106 216 20 7 50 215 92 24 253 66 135 179 185 180 0 96 163 221 32 189 148 100 104 19 232 8 154 180 67 160 129 178 165 214 44 245 209 213 212 173 87 79 110 186 189 219 56 73 254 140 108 114 42 95 14 214 127 
17 229 48 249 174 254 94 122 118 199 65 83 23 76 180 30 4 49 205 217 152 31 23 193 143 123 35 241 59 243 219 22 236 155 141 188 22 140 208 61 57 127 203 45 238 7 51 51 130 202 20 100 177 160 60 54 120 250 46 163 198 240 64 235 215 3 162 0 92 199 52 12 104 184 1 53 221 230 117 45 130 118 250 227 45 77 209 26 74 183 19 129 247 132 210 15 145 148 202 191 
220 138 35 24 32 7 99 175 157 114 82 243 203 206 23 91 155 108 214 24 52 84 173 237 43 176 16 94 223 30 8 3 174 109 28 170 250 59 211 140 16 96 97 43 80 110 164 235 134 112 128 30 207 225 149 182 96 142 57 129 22 66 128 31 184 25 209 0 234 73 241 239 161 11 178 157 191 208 225 229 253 103 47 210 127 205 80 145 239 176 198 238 78 106 142 204 89 0 95 114 
121 120 236 102 118 2 110 158 183 75 34 229 216 136 141 213 242 234 187 119 191 105 196 72 155 15 218 66 57 239 195 58 22 224 189 60 131 67 19 26 236 2 110 141 202 183 233 158 190 111 231 28 179 208 239 141 208 209 165 1 80 49 229 252 117 210 121 140 183 76 5 94 111 15 168 226 234 37 192 3 161 66 176 159 119 234 245 78 38 226 104 9 16 36 203 3 67 173 10 35 
54 208 160 23 160 236 248 13 142 101 162 21 104 49 134 48 71 41 145 176 59 206 247 225 134 45 179 244 101 2 129 24 10 214 60 174 124 230 146 140 52 12 35 65 115 92 242 146 228 134 199 83 43 78 46 187 67 37 248 174 52 36 21 196 109 254 85 18 91 24 68 253 86 5 202 186 189 66 54 95 174 37 215 151 105 20 228 191 97 118 103 247 210 121 144 48 138 23 8 162 
212 239 181 248 138 196 71 162 110 159 232 43 132 199 5 156 248 150 220 254 224 181 241 81 91 92 19 16 216 162 15 34 194 8 53 58 16 128 173 194 73 248 169 10 190 243 60 12 78 160 103 27 15 28 108 192 166 188 186 186 1 103 250 86 35 102 166 26 32 205 59 27 183 67 6 0 8 105 79 48 46 6 156 114 219 239 232 23 20 192 19 43 196 132 118 36 7 251 49 66 
242 146 146 168 166 52 47 240 236 209 111 46 140 241 156 180 216 36 174 176 163 41 31 150 63 106 106 66 4 51 237 224 248 112 146 226 237 148 232 233 12 77 67 183 182 200 221 55 182 26 144 92 100 230 172 145 5 217 93 108 220 208 3 252 244 38 225 4 16 109 171 134 22 145 69 139 138 93 45 253 219 94 11 164 10 161 179 150 194 41 209 44 131 57 132 246 76 50 98 94 
223 220 142 82 151 95 66 41 215 0 66 19 10 158 42 130 29 102 181 216 253 157 207 30 147 43 197 59 42 69 138 59 126 249 131 208 119 94 161 38 100 158 5 97 28 160 148 80 126 207 193 20 230 83 137 240 127 10 165 34 230 166 238 120 120 75 199 179 138 224 50 62 216 171 86 182 35 194 159 194 247 40 175 108 194 162 39 152 246 161 91 234 192 80 17 82 147 80 163 0 
88 113 127 104 87 54 243 132 197 83 253 237 72 156 172 80 250 221 61 160 149 204 35 230 199 50 143 138 221 250 203 194 183 23 72 111 223 223 66 141 113 171 68 18 129 13 167 65 101 83 204 144 52 140 51 134 218 143 145 226 145 222 47 217 101 185 162 136 155 51 142 147 99 221 167 22 238 195 16 233 28 195 102 229 105 71 244 99 67 205 137 222 169 94 31 107 148 175 179 99 
69 193 65 158 166 76 245 32 132 146 239 10 249 151 159 190 234 196 155 6 163 11 252 35 54 126 198 1 82 197 181 73 13 27 186 200 255 221 103 143 50 22 50 73 118 180 238 240 137 189 80 94 72 3 103 133 124 18 48 170 144 76 50 131 183 20 194 4 223 112 57 189 10 162 112 3 144 179 102 246 121 25 25 137 193 121 165 91 16 170 15 131 136 158 69 12 55 146 11 24 
177 136 254 251 129 174 165 81 189 125 9 80 199 87 139 62 15 116 22 158 179 143 113 141 240 202 182 64 189 62 140 191 72 188 194 93 127 227 193 165 153 27 44 154 57 32 243 86 50 212 47 141 212 227 33 230 255 106 212 122 23 252 124 75 46 104 78 225 209 72 68 202 48 145 79 40 66 63 100 77 73 28 24 38 165 119 230 140 54 60 170 85 174 29 208 239 71 227 63 100 
220 65 255 53 35 201 10 162 70 177 106 13 90 168 37 135 20 210 152 116 163 113 230 52 95 142 44 44 46 137 124 111 101 223 111 231 96 203 122 161 160 131 53 51 212 192 169 205 3 5 227 200 58 167 230 0 136 10 179 81 227 93 241 39 215 27 222 76 151 42 167 57 190 202 131 250 15 16 81 223 237 18 61 1 115 169 249 129 77 72 236 31 176 37 47 106 17 132 188 66 
19 97 186 136 212 218 51 125 43 141 174 91 250 92 226 82 95 159 235 127 97 122 73 34 134 1 225 205 213 175 121 169 206 231 104 150 13 19 3 219 88 190 139 75 185 46 136 122 206 53 167 150 128 113 148 167 196 101 244 13 239 207 181 31 137 203 33 241 168 33 201 183 158 174 27 0 57 85 175 90 172 151 27 114 252 213 93 146 121 141 78 129 183 205 197 83 244 89 172 188 
43 211 164 14 80 90 52 220 229 232 232 101 77 206 88 238 168 122 107 18 241 247 188 103 235 186 68 93 1 75 47 255 64 136 40 96 206 192 163 237 149 167 166 115 230 93 142 64 155 137 245 76 229 20 119 65 38 238 251 40 123 66 53 132 50 98 231 199 173 117 67 88 128 144 186 220 59 208 41 214 232 191 47 18 219 208 239 90 221 59 58 70 160 209 77 82 145 49 205 172 
36 99 33 225 27 94 191 163 18 157 193 86 50 61 143 76 188 182 76 136 27 210 178 30 220 244 20 35 161 145 9 232 138 201 181 116 211 79 123 117 58 158 6 172 166 4 111 172 120 10 169 212 238 197 65 160 180 63 90 29 72 23 191 221 152 236 10 115 50 192 27 22 209 219 169 238 121 47 201 106 3 231 210 79 154 251 161 96 80 68 14 213 131 213 89 194 68 27 19 93 
109 13 55 216 81 143 205 247 67 66 43 215 154 212 8 25 64 208 92 101 38 217 67 226 210 46 141 127 28 118 198 1 159 67 233 10 9 123 177 93 90 98 172 207 65 244 110 88 75 82 168 57 166 9 68 44 239 154 215 85 108 240 76 39 160 159 111 14 81 244 249 200 232 116 122 21 5 232 193 33 209 64 170 244 247 116 228 101 254 55 189 17 15 147 202 4 82 233 200 209 
164 216 30 230 165 145 43 41 230 1 147 120 100 128 9 90 255 246 148 197 143 230 8 255 203 40 6 215 108 220 143 57 209 138 207 62 90 0 102 133 202 190 121 120 147 69 31 12 97 159 22 7 52 130 203 164 153 84 32 93 237 242 39 12 113 201 88 107 189 149 173 116 237 251 157 155 73 202 190 225 123 16 2 229 60 188 248 75 222 9 21 224 34 239 250 213 53 75 154 60 
32 114 103 26 25 241 175 168 155 32 187 2 41 192 40 206 22 98 227 59 105 112 181 127 164 219 249 184 66 46 233 92 0 96 195 173 151 247 146 92 98 91 221 209 179 2 59 250 135 195 234 142 98 206 82 251 236 46 251 59 178 83 19 168 103 170 57 155 209 2 105 13 223 198 83 104 238 115 165 163 58 32 216 172 121 30 31 246 170 67 49 85 8 159 17 151 232 43 80 66 
84 10 9 8 131 44 243 11 139 241 118 202 110 132 53 230 58 64 242 106 242 24 24 36 42 55 69 221 115 36 132 57 29 105 219 167 164 18 26 253 187 51 62 19 36 111 106 41 229 236 15 233 67 143 82 222 67 139 65 253 250 200 65 216 152 68 230 83 150 52 147 182 131 181 30 239 255 36 153 105 54 151 52 132 174 48 74 119 235 77 185 195 16 15 242 205 183 204 245 243 
87 145 249 71 130 116 43 100 238 142 161 242 153 114 66 179 42 240 118 76 30 17 4 76 192 198 113 164 137 211 169 247 18 85 161 132 146 135 31 4 41 56 239 212 92 86 186 141 242 250 20 134 242 237 128 29 20 45 11 215 115 2 39 231 82 108 124 93 105 44 72 215 253 153 169 73 180 64 176 137 82 134 223 223 100 35 220 83 204 45 231 4 130 24 95 147 139 114 24 213 
41 162 241 78 50 197 180 134 239 119 127 171 38 101 46 165 237 38 165 129 183 232 92 68 49 160 86 253 216 155 48 7 235 219 149 230 51 219 143 224 17 138 96 223 250 29 95 212 163 32 168 110 213 186 182 169 195 47 185 49 91 198 181 37 189 95 92 55 254 239 46 174 117 152 143 226 97 134 1 16 246 136 89 215 197 82 115 120 95 103 125 119 83 243 32 221 92 20 92 246 
104 118 129 16 111 225 170 173 119 93 214 240 249 112 93 212 232 198 149 138 153 132 162 193 204 38 51 204 97 213 46 49 165 183 19 133 193 213 52 134 124 228 249 69 78 67 211 68 80 116 10 201 65 24 47 205 84 78 132 178 89 239 71 13 129 123 225 108 40 147 186 149 32 0 20 159 64 23 91 213 59 242 121 238 246 10 203 96 132 79 1 4 172 254 66 88 107 31 155 29 
120 240 76 178 143 86 205 157 191 185 70 85 226 189 243 158 222 174 178 136 254 104 138 46 164 168 176 198 122 147 41 236 200 255 118 162 238 2 142 19 173 212 150 68 57 180 215 3 198 67 112 199 168 109 161 167 186 186 23 125 157 84 159 29 204 93 11 104 136 64 115 201 54 169 216 153 207 130 102 253 223 99 49 161 44 181 197 80 162 52 10 117 172 135 144 81 122 12 212 49 
109 192 6 0 5 220 49 118 0 225 0 207 35 59 130 59 83 122 158 144 31 35 183 177 177 221 183 75 215 175 82 69 124 231 116 249 151 228 68 211 164 101 85 242 17 96 223 140 117 216 4 62 159 69 120 33 229 155 85 40 93 106 194 246 74 101 180 210 54 253 117 106 115 133 10 81 246 203 123 38 238 62 200 250 173 155 184 206 29 87 248 144 153 236 51 44 53 47 86 12 
75 244 164 208 89 67 239 155 254 164 185 206 129 43 170 21 29 152 23 77 95 128 12 4 199 79 162 118 135 143 11 212 69 6 95 28 86 169 93 51 91 106 92 96 179 199 80 84 79 38 242 132 164 35 214 90 244 159 5 196 235 33 233 167 3 34 120 20 86 26 111 105 0 251 119 96 9 169 52 162 109 142 227 49 224 83 185 41 149 186 205 153 52 78 91 185 164 49 138 225 
54 172 32 86 243 209 116 0 114 140 202 61 220 61 109 89 98 181 87 133 215 250 234 19 198 231 180 51 231 125 21 244 127 185 11 115 100 244 160 109 93 20 187 253 46 51 133 41 80 160 193 199 71 120 223 17 108 7 184 208 93 96 107 24 93 234 50 183 141 227 227 52 153 44 2 239 219 47 197 36 161 214 56 227 167 71 184 161 194 9 125 144 2 104 24 42 175 69 51 24 
157 167 132 135 206 101 84 227 215 75 140 202 154 18 155 206 234 197 125 23 93 183 56 177 156 210 4 254 225 12 17 79 254 140 127 104 74 134 247 184 108 29 0 221 107 99 253 47 107 141 212 44 39 40 195 31 229 148 162 175 254 232 200 7 164 90 254 33 193 183 58 185 251 51 60 150 62 81 148 92 77 71 127 244 129 5 79 139 111 170 55 156 154 222 26 26 248 118 5 92 
158 113 112 47 231 203 58 133 69 85 210 92 173 14 53 31 22 221 236 248 73 185 233 244 199 122 167 66 146 211 218 56 56 149 72 156 85 184 20 12 206 212 239 84 165 1 127 123 203 52 246 203 48 150 235 99 97 185 58 205 80 120 110 96 112 237 78 28 169 53 194 6 160 226 139 65 65 135 218 144 39 181 49 21 22 138 177 15 247 236 110 75 28 98 79 197 210 72 220 64 
121 180 143 76 250 94 134 35 176 149 7 216 78 152 92 192 45 247 108 229 203 24 88 185 118 198 139 157 94 67 83 187 177 156 74 193 144 169 239 234 233 164 87 49 194 167 145 46 197 106 145 203 175 216 233 42 209 233 170 40 218 5 83 60 182 140 175 125 228 70 167 134 31 68 164 149 65 155 5 69 90 130 23 219 153 169 203 127 81 192 103 119 48 175 175 170 118 47 163 104 
101 152 189 189 100 85 93 166 61 180 3 42 126 219 157 143 182 18 230 216 163 242 106 189 32 111 8 229 34 93 17 78 22 140 186 73 192 244 138 55 49 174 102 178 70 94 246 114 43 193 196 55 198 19 84 182 200 189 210 169 82 149 164 150 58 96 193 237 64 107 218 246 242 167 82 126 85 129 148 76 178 166 163 149 32 239 195 227 26 10 74 164 36 240 94 171 84 101 101 81 
177 98 99 89 95 192 235 31 174 89 130 156 70 81 97 4 20 39 193 99 225 28 114 150 216 92 106 14 133 90 164 76 19 236 221 177 250 209 50 54 4 239 10 242 192 109 41 189 77 22 199 126 206 219 56 37 249 227 30 69 236 100 170 73 20 18 195 220 7 210 138 67 76 242 51 193 12 166 215 24 15 96 238 108 138 80 56 231 26 12 96 74 66 179 8 7 173 215 173 102 
22 164 47 25 215 104 170 152 18 146 89 202 54 50 60 251 6 119 197 27 178 112 164 8 226 221 59 171 55 185 139 210 241 224 249 155 215 9 62 218 173 97 98 67 81 4 57 243 155 120 23 57 145 138 213 11 194 130 133 10 71 221 185 202 87 207 243 212 255 72 149 3 39 37 32 85 106 227 169 163 195 22 169 69 218 148 110 213 71 178 158 191 106 83 103 252 253 235 22 167 
239 24 215 45 224 48 53 24 83 181 102 130 234 94 141 111 48 129 24 89 170 20 204 114 204 215 38 173 118 226 164 20 219 6 236 79 179 128 182 5 102 237 144 15 103 81 244 145 102 44 192 150 147 160 25 76 230 166 97 117 24 96 45 156 138 207 23 183 71 253 139 156 166 83 143 232 230 247 168 249 69 162 46 154 8 149 253 255 7 224 221 85 94 169 148 158 62 4 154 255 
187 225 222 117 94 63 221 53 166 18 107 167 207 119 200 96 152 90 190 182 231 189 61 27 237 33 170 104 58 10 78 37 215 132 111 180 228 231 183 34 218 10 144 185 191 215 251 246 126 83 22 106 61 252 10 241 112 61 248 148 122 148 35 63 168 72 0 242 69 25 34 76 250 161 94 194 187 39 9 164 210 89 103 4 223 211 38 225 156 241 88 41 45 197 122 94 3 122 36 84 
104 4 117 166 246 26 210 123 51 62 159 105 174 239 196 192 223 75 164 163 16 243 140 80 208 194 37 232 4 150 38 91 101 95 213 9 160 11 206 215 89 190 18 139 233 86 220 171 72 175 193 80 106 163 21 206 7 129 234 147 190 253 5 125 76 130 117 163 205 216 169 240 111 159 129 211 126 40 157 197 10 6 189 94 201 190 39 9 170 102 152 102 238 53 86 84 220 81 234 10 
253 213 173 97 171 32 172 24 226 12 239 89 21 210 75 5 192 98 155 72 115 9 104 190 224 183 188 152 178 50 35 189 14 180 76 22 26 215 8 183 219 4 59 108 220 241 244 134 105 99 44 17 211 135 214 44 189 246 113 80 204 40 34 236 176 4 81 102 113 204 251 96 204 104 186 25 226 46 236 39 198 233 176 133 31 64 80 69 66 112 21 96 6 147 174 183 245 196 113 62 
229 41 207 4 102 217 102 60 67 108 77 99 202 248 254 100 113 196 69 168 178 32 201 44 67 85 213 133 243 34 64 215 182 200 30 231 148 22 18 10 235 93 61 87 177 186 187 197 180 99 70 145 104 18 169 193 79 148 22 223 237 246 9 31 112 212 82 136 195 12 33 104 153 193 126 125 106 96 229 157 133 118 116 212 126 111 170 13 30 22 2 93 40 66 164 71 53 44 228 20 
53 188 171 61 206 37 149 186 53 39 99 200 60 5 132 230 219 208 102 123 155 220 107 165 187 41 134 40 219 190 55 136 163 124 207 213 123 155 45 172 241 153 22 220 104 205 103 27 126 185 109 123 76 132 82 145 231 40 14 222 91 162 210 165 129 204 58 152 147 125 72 213 20 132 163 49 60 143 37 51 88 63 175 149 250 22 26 157 123 49 204 122 41 5 64 212 13 122 238 31 
127 218 170 91 196 1 237 44 119 23 251 22 189 174 237 178 145 142 185 253 30 71 146 163 172 77 218 8 69 35 183 135 48 89 10 103 49 238 196 201 243 25 222 199 45 235 132 81 9 181 78 123 30 226 0 35 153 68 100 176 186 211 135 223 120 215 53 163 161 41 75 149 167 230 151 15 240 213 235 191 181 106 56 233 226 180 124 231 152 226 213 129 193 178 228 122 173 93 93 46 
100 221 197 230 212 105 221 6 83 120 75 182 238 147 110 215 139 95 226 174 29 101 166 243 123 146 225 121 191 155 96 3 90 144 18 222 46 31 25 119 255 195 188 0 219 175 56 75 180 181 34 106 142 203 213 87 233 83 209 212 133 220 97 45 80 120 156 235 63 251 40 49 240 11 165 81 251 116 170 208 213 62 79 110 200 122 108 199 193 99 157 210 41 60 111 105 234 200 46 27 
195 20 125 34 71 57 139 55 167 29 191 168 187 19 242 88 246 87 161 221 10 53 232 125 145 188 105 112 241 73 28 134 73 11 83 166 212 94 65 70 137 80 17 244 190 131 143 68 186 239 11 126 17 193 235 34 140 81 38 32 106 235 60 120 46 71 114 38 190 75 199 113 240 57 148 188 149 168 120 253 118 223 184 95 48 57 169 14 161 10 174 148 155 177 228 170 20 239 84 105 
7 1 225 18 39 94 12 144 59 37 206 206 186 87 70 67 20 205 74 33 214 224 33 28 131 55 81 141 231 138 229 100 216 60 6 62 51 201 253 7 128 123 54 227 174 198 149 160 189 244 112 65 157 37 168 251 233 162 80 37 78 63 27 170 49 238 80 173 71 53 191 25 190 92 72 248 68 91 184 206 11 231 208 67 106 8 136 98 179 130 135 43 137 142 188 129 254 147 66 72 
49 13 119 31 115 144 30 83 253 62 193 206 89 255 18 165 158 168 227 224 111 53 234 33 36 20 73 125 108 222 41 174 241 246 199 108 59 96 201 106 221 46 42 124 85 201 239 39 198 165 7 49 47 141 133 155 163 96 102 193 225 104 113 78 91 69 21 138 239 28 161 217 20 97 252 182 57 1 164 162 93 202 84 205 193 232 212 160 169 60 179 170 197 117 60 22 85 131 221 22 
229 204 225 254 28 57 149 6 110 217 118 172 65 114 166 35 180 24 197 178 221 24 185 122 236 51 41 45 32 246 192 70 146 154 184 234 143 47 87 232 18 102 156 139 128 7 139 84 210 65 133 94 87 202 4 215 11 66 203 96 140 224 138 71 198 61 69 108 74 22 108 226 157 22 151 144 28 187 245 214 140 178 190 73 207 179 197 181 200 70 217 8 146 93 191 239 67 169 61 95 
236 128 92 231 11 182 25 104 120 196 216 165 123 170 223 66 187 17 239 71 95 80 181 242 25 125 253 6 15 240 171 162 42 178 20 255 114 171 96 182 226 152 218 104 72 163 184 52 25 96 186 82 7 159 238 67 172 118 12 85 3 196 156 182 148 177 33 249 56 54 52 247 97 8 228 196 203 65 226 127 83 169 155 171 4 148 32 102 74 159 227 77 122 199 248 178 93 165 43 171 
216 23 52 144 228 118 3 21 153 71 80 183 23 228 35 19 234 196 218 111 190 190 77 250 95 97 34 34 180 8 121 236 61 136 167 226 57 146 219 18 64 252 238 98 70 33 72 192 224 180 63 85 232 251 180 228 183 171 199 73 171 19 152 95 36 56 51 99 208 61 165 215 135 102 132 208 7 163 231 104 152 246 8 209 40 12 135 134 98 149 66 152 132 99 30 110 46 121 73 16 
97 181 239 85 16 250 154 8 121 98 10 167 197 34 38 161 250 144 241 39 23 80 165 53 154 175 8 59 167 0 24 4 88 239 234 8 57 56 246 202 58 219 17 214 234 74 23 247 29 253 24 138 204 221 182 61 134 129 176 141 227 9 68 153 112 222 231 189 133 219 34 8 176 254 156 50 95 69 33 94 22 171 47 97 132 85 192 30 150 250 252 61 161 100 46 163 197 162 18 159 
146 254 55 161 132 172 20 215 181 12 38 198 131 247 64 64 47 147 224 204 107 172 143 8 181 212 54 127 199 113 148 162 73 123 193 5 192 178 243 18 247 249 51 103 93 200 220 246 234 100 17 11 155 134 244 237 47 158 119 204 204 222 129 138 107 182 108 89 211 182 94 146 30 169 88 87 156 35 83 250 247 152 239 158 106 182 187 77 243 224 119 98 239 253 99 167 52 87 253 207 
33 190 233 2 248 98 82 230 32 243 210 144 81 52 141 55 183 40 189 149 91 26 58 200 174 148 231 217 249 39 221 14 128 120 34 248 56 169 141 34 104 203 24 173 83 145 84 53 66 48 236 94 159 163 38 250 63 15 28 111 46 99 116 103 66 142 45 225 16 189 112 131 103 156 115 116 52 0 209 60 73 45 88 88 117 205 84 24 220 30 2 39 32 145 120 196 125 138 100 20 
65 59 53 217 144 50 200 88 146 29 36 177 102 217 199 6 49 204 24 76 141 40 133 81 182 231 136 124 0 171 202 242 102 247 201 173 107 154 126 77 185 108 229 35 73 37 16 15 222 140 44 113 6 35 175 91 132 67 146 183 190 190 125 99 136 3 242 168 150 85 252 39 83 212 90 216 55 93 120 85 175 124 13 2 201 199 187 124 23 33 191 109 51 244 45 179 107 76 81 36 
172 74 234 235 173 16 253 204 103 241 227 54 196 208 142 190 158 200 198 242 221 35 200 44 58 61 69 43 165 17 145 22 8 99 69 156 204 35 214 6 240 119 48 55 64 158 107 245 216 81 36 248 75 234 244 1 108 126 58 73 249 163 244 105 243 137 178 126 244 160 31 50 156 110 106 108 3 131 203 255 193 35 48 23 168 225 104 229 183 91 178 9 15 132 3 217 138 179 104 79 
226 101 188 233 43 94 153 79 100 121 33 130 1 46 105 26 46 24 164 15 16 29 49 6 197 197 154 120 120 187 157 21 91 215 121 144 18 71 56 65 42 244 198 224 95 160 173 88 134 9 164 156 114 144 76 149 73 199 146 135 125 90 79 233 187 163 66 211 59 38 11 69 132 86 21 122 29 178 123 213 253 248 126 188 113 238 69 112 203 129 8 92 217 31 161 55 153 101 202 23 
144 142 0 172 2 69 27 152 24 35 74 55 31 181 147 46 253 150 16 106 161 120 164 119 219 149 146 162 32 2 112 231 185 206 6 204 22 75 206 3 31 17 46 44 125 84 227 198 47 191 11 75 131 207 98 135 245 3 121 188 126 171 120 35 90 25 42 190 191 222 243 124 57 233 245 133 216 13 201 27 134 71 139 42 255 119 179 114 228 128 35 168 82 69 89 20 44 84 64 32 
19 1 149 103 226 13 155 248 99 208 9 110 166 203 92 222 209 189 251 61 33 32 234 0 145 46 195 41 213 88 6 69 132 212 209 157 22 45 51 38 149 59 59 37 77 37 206 176 189 186 76 1 57 249 39 173 49 86 95 94 19 210 96 94 121 107 42 203 203 225 79 133 196 72 127 235 9 161 99 101 96 106 107 72 231 154 188 133 248 97 73 210 44 57 254 16 168 29 60 57 
78 246 158 90 193 47 157 136 86 218 139 226 90 111 51 167 181 131 195 77 129 33 160 226 51 223 113 178 129 209 104 22 165 20 6 1 4 183 97 212 141 3 195 218 49 7 143 36 194 39 186 96 12 202 76 155 59 28 66 141 167 64 7 245 141 206 190 77 207 19 91 51 73 117 79 254 137 47 240 122 35 202 183 47 48 43 68 197 132 193 204 114 77 170 178 189 44 222 155 72 
34 34 250 90 75 78 220 123 229 127 21 111 200 102 27 186 82 106 4 195 114 199 215 134 12 14 137 29 215 173 218 189 180 91 31 53 127 20 170 236 214 122 194 226 159 246 78 178 6 219 26 114 222 10 19 24 74 95 242 64 233 21 210 9 3 228 23 237 89 19 247 67 35 122 238 51 224 235 117 131 77 245 251 46 127 198 175 73 251 45 40 174 8 97 240 40 164 76 193 122 
120 136 88 8 38 149 151 90 106 126 194 105 173 201 249 25 0 171 90 188 95 74 214 195 92 5 224 140 121 120 88 142 91 240 48 51 187 133 100 84 163 170 86 42 224 155 92 113 215 237 134 81 22 44 24 57 113 197 7 91 213 200 174 148 249 173 224 166 55 234 164 132 137 17 34 9 175 170 35 166 47 212 42 179 95 210 82 63 212 44 70 211 183 223 28 205 130 62 91 243 
255 242 207 173 0 25 169 242 140 119 83 221 206 87 127 176 253 20 51 182 174 54 245 59 142 83 112 12 57 120 113 202 169 174 223 151 142 215 198 63 253 129 3 167 233 180 94 42 232 186 110 161 235 143 117 2 6 233 185 214 61 236 203 212 93 240 26 58 219 54 191 194 241 173 89 111 118 117 110 5 214 12 1 234 231 219 231 3 2 187 205 199 37 178 5 173 97 6 38 109 
106 164 18 35 45 180 56 54 7 21 117 221 71 49 149 185 62 116 108 68 117 222 169 108 102 154 157 18 117 99 89 129 128 121 123 241 76 172 76 172 214 253 251 174 133 81 203 143 8 34 190 105 88 177 231 188 242 204 106 248 196 68 254 183 174 105 73 59 178 81 53 83 64 37 17 233 248 76 77 128 169 208 154 19 16 215 209 200 7 150 95 76 114 52 239 4 200 147 190 103 
248 71 171 110 183 111 182 163 96 128 81 178 54 136 4 23 211 48 241 160 109 241 193 98 177 11 97 99 244 44 222 95 40 48 186 208 174 29 220 57 159 110 81 10 248 73 34 48 201 214 2 95 33 22 136 16 43 26 46 178 200 90 195 142 198 79 112 157 149 18 236 175 228 70 129 102 49 172 140 139 185 200 201 199 208 208 43 100 88 41 44 203 210 88 154 198 24 246 212 234 
224 189 85 234 179 136 107 106 130 51 130 169 17 31 209 200 135 82 208 20 250 85 92 181 8 110 198 85 131 248 227 6 101 154 80 2 154 39 217 202 205 252 138 64 183 82 11 84 246 222 85 69 233 105 136 74 29 2 98 70 3 8 188 103 122 51 255 114 36 133 22 136 238 202 54 106 119 83 33 159 84 227 196 38 145 191 65 94 114 35 105 124 115 78 121 227 149 44 178 174 
104 207 236 227 202 30 85 89 123 58 75 148 105 8 88 95 125 41 46 154 116 214 204 246 147 71 150 200 154 248 235 56 166 174 185 91 159 218 242 98 241 176 84 209 56 51 142 88 234 119 218 115 181 19 238 198 209 107 20 38 175 156 10 99 95 104 81 215 149 169 62 237 169 16 165 246 238 153 160 211 99 114 164 159 252 206 150 18 29 100 180 162 10 39 124 144 222 176 31 219 
200 92 124 34 118 161 64 9 88 164 238 84 224 199 97 125 202 101 228 104 215 3 175 160 118 207 228 47 62 138 49 188 4 167 26 29 254 198 209 84 234 196 85 127 62 119 203 219 137 10 104 43 81 130 39 115 208 100 90 182 53 229 54 206 202 20 157 100 239 44 55 224 228 69 68 119 118 242 69 36 63 21 183 199 87 228 112 58 70 45 145 180 181 119 145 31 81 119 234 240 
11 22 97 162 216 64 140 174 18 58 119 113 181 240 46 21 123 82 209 10 228 15 232 182 75 88 138 99 10 6 169 163 205 21 5 145 169 90 138 175 204 122 103 68 170 197 67 85 237 199 140 211 254 0 135 83 26 26 218 217 60 109 128 188 62 117 103 240 95 127 219 124 147 63 79 239 136 187 68 92 155 118 229 213 174 225 142 201 170 27 56 119 92 128 88 140 208 191 228 164 
144 13 230 21 25 108 42 138 103 150 250 245 161 9 20 231 123 199 228 159 144 124 133 177 197 64 66 118 185 95 52 155 126 5 132 90 169 111 78 225 181 56 82 213 19 153 251 146 121 214 110 99 15 208 26 160 138 243 186 201 201 160 0 144 196 7 207 239 79 116 236 111 56 194 148 220 47 233 36 199 204 118 2 32 239 128 73 207 119 88 249 187 165 247 245 186 136 180 117 123 
203 170 197 153 149 62 253 39 69 200 22 97 25 182 122 89 64 70 233 205 225 97 134 179 21 82 53 43 162 239 43 62 50 192 171 226 239 110 46 241 244 228 183 80 37 38 8 164 202 194 168 28 31 121 166 142 34 81 46 240 61 241 136 81 151 204 202 181 61 83 67 207 9 238 229 78 181 11 57 74 215 132 251 164 224 33 168 127 148 31 77 5 69 69 200 6 138 119 108 31 
176 49 17 127 120 29 127 163 213 119 66 170 38 90 141 145 156 25 120 95 43 254 0 184 187 91 208 50 60 240 134 119 31 99 53 246 154 188 85 117 244 43 106 154 249 88 226 9 67 57 195 54 147 73 26 207 186 30 120 193 139 39 49 15 116 51 243 18 114 136 209 119 211 85 35 2 193 223 251 82 160 99 105 127 222 50 20 74 55 110 70 88 39 155 113 25 180 249 85 109 
179 108 146 115 8 195 0 103 93 103 247 130 41 136 13 141 76 185 100 249 128 2 27 92 188 26 161 175 252 139 155 71 155 123 27 123 22 11 176 55 124 18 108 151 134 87 17 82 79 122 47 37 18 89 191 172 200 90 7 58 128 120 67 193 39 79 136 80 127 126 143 148 134 159 61 28 27 207 231 203 169 0 122 238 144 141 38 1 205 200 71 128 87 90 170 31 199 223 171 112 
234 6 104 86 240 1 55 137 44 220 145 25 234 239 74 143 204 145 172 139 63 202 228 235 65 39 55 119 39 214 118 230 105 92 191 220 63 2 78 198 158 115 33 24 137 52 149 81 101 111 190 67 255 255 228 38 179 35 95 92 104 204 125 15 145 110 20 110 248 40 9 78 247 237 105 28 172 19 32 17 245 45 27 204 55 17 133 38 32 197 245 113 191 39 210 116 110 175 210 35 
132 176 253 148 197 112 24 135 5 231 68 162 209 83 34 32 193 148 63 253 165 26 95 104 156 70 33 93 185 142 230 176 120 183 205 104 138 87 132 81 181 145 134 127 41 116 73 222 226 18 188 140 2 13 158 201 91 19 72 133 172 81 49 107 240 92 230 178 145 125 50 124 212 177 201 63 198 231 183 128 15 160 3 125 203 109 54 148 244 190 210 18 161 2 118 170 57 131 7 128 
182 134 132 14 32 239 182 91 101 77 244 237 74 219 125 225 91 169 200 100 90 116 162 213 253 84 126 24 18 152 122 116 105 58 140 178 208 203 96 110 103 137 172 119 69 84 69 62 75 7 85 216 221 168 172 113 47 249 107 216 69 133 10 145 12 190 208 85 92 114 220 49 195 232 79 59 12 5 201 32 117 186 130 74 192 147 96 153 37 238 6 110 251 172 26 151 127 116 35 176 
198 7 171 96 255 132 82 165 72 72 254 123 70 148 187 88 228 195 251 161 255 23 25 107 82 188 221 28 200 118 164 174 12 28 181 166 38 44 143 250 23 7 44 207 204 108 206 170 137 128 196 112 125 215 25 153 4 4 27 242 185 42 121 169 99 187 230 194 123 34 244 1 154 230 139 122 69 174 27 44 189 177 181 2 34 248 98 22 152 250 126 149 203 110 99 222 51 180 55 193 
153 162 247 143 234 155 170 105 151 232 167 75 230 195 120 135 74 33 134 184 33 67 212 56 31 124 86 147 173 169 56 69 55 231 118 168 177 33 249 23 214 145 30 38 116 6 46 220 126 64 45 56 134 228 195 46 64 189 16 38 113 143 90 44 8 138 220 141 133 168 57 249 248 65 52 150 84 101 223 136 171 68 179 55 133 182 194 119 251 92 45 61 253 121 129 117 157 130 253 75 
243 175 22 98 62 255 145 173 95 164 39 47 152 180 156 10 19 227 232 147 162 181 74 79 76 124 241 205 131 37 31 175 206 254 127 217 124 159 59 51 5 224 138 143 64 187 185 35 39 113 154 162 44 252 9 203 91 100 166 39 161 185 201 73 180 17 108 44 197 221 226 59 122 187 92 27 123 214 242 82 168 36 255 88 139 157 223 247 189 18 238 249 202 155 235 57 239 228 223 37 
19 154 171 4 5 248 141 181 176 171 168 191 203 12 161 157 94 45 21 176 172 174 16 178 44 97 16 160 9 156 185 231 57 195 233 234 140 226 212 66 109 159 12 34 42 162 246 116 238 82 107 64 65 253 86 30 89 46 239 64 69 247 128 232 135 209 171 69 183 7 198 110 77 122 93 62 26 252 177 66 73 243 48 244 41 34 224 175 246 31 250 131 40 211 173 229 138 158 86 61 
33 85 5 164 50 29 19 242 78 22 109 207 173 181 88 243 223 139 227 81 234 17 50 37 138 155 173 16 102 163 107 192 64 50 193 189 215 52 167 118 101 219 30 81 119 254 39 238 76 215 22 158 22 96 76 228 109 191 153 96 231 244 30 128 188 156 194 39 225 94 175 151 154 137 213 15 2 189 80 8 67 196 185 47 202 56 151 134 228 72 230 98 51 91 213 96 0 193 73 209 
239 68 16 169 157 118 248 61 85 7 179 214 141 118 6 161 47 70 3 81 205 86 25 103 215 12 33 149 227 187 121 188 144 201 219 245 159 235 45 242 237 39 190 152 242 149 67 139 76 216 238 152 32 34 138 87 37 104 42 42 59 115 23 82 198 184 1 57 176 222 89 227 1 46 113 40 107 118 236 17 209 13 166 141 219 233 226 186 24 7 39 8 34 47 167 153 168 125 24 138 
186 191 30 28 101 234 84 194 208 187 100 198 45 179 164 27 195 129 183 86 101 132 95 242 126 238 60 157 40 165 2 175 184 131 102 200 252 184 10 110 144 201 184 52 217 84 67 61 94 59 21 182 232 209 141 253 202 116 83 136 164 98 79 118 162 85 146 38 167 252 17 223 62 142 150 177 144 240 242 63 255 40 227 138 133 204 216 246 68 84 130 195 106 201 42 51 220 222 118 153 
138 106 67 211 193 150 223 136 240 45 22 82 200 199 117 239 10 142 43 184 236 36 126 205 65 244 152 240 137 90 126 36 148 77 15 171 128 231 249 77 89 167 54 165 59 49 253 147 113 232 37 179 89 20 125 66 205 40 32 116 228 158 121 96 59 102 136 248 177 115 249 55 9 124 160 198 240 28 1 111 129 75 85 10 132 212 211 105 0 194 127 177 237 246 133 125 73 69 211 162 
8 56 14 121 123 91 239 203 65 118 22 26 47 116 56 109 198 62 175 48 35 219 231 151 112 132 91 112 40 189 112 35 239 57 75 110 252 199 89 196 220 117 132 159 143 255 101 177 25 212 43 65 201 188 187 158 161 61 83 76 98 60 71 32 25 236 100 18 105 128 242 233 187 144 255 161 203 164 53 254 122 113 254 227 0 142 15 45 225 184 19 25 49 123 8 194 79 155 80 206 
103 244 246 51 31 194 96 7 128 141 204 74 214 11 233 125 112 241 188 140 131 64 1 177 84 48 206 95 33 216 176 50 133 71 14 148 59 175 187 10 136 99 16 220 3 124 87 26 32 112 93 48 165 151 184 118 124 238 250 192 15 221 201 7 133 108 92 180 25 161 187 127 6 154 50 60 247 243 98 50 181 1 128 84 116 22 73 29 51 250 6 197 27 65 77 151 34 214 123 244 
164 62 255 17 88 30 24 30 180 217 116 147 201 222 247 197 173 142 175 198 74 60 211 112 116 23 72 78 210 118 207 204 239 140 9 233 17 38 88 21 46 245 237 53 210 89 146 138 241 232 46 11 83 67 238 134 61 213 253 65 181 7 53 189 155 96 138 178 54 133 14 180 225 97 77 51 121 21 49 109 227 119 212 120 16 88 200 218 101 138 58 153 181 243 146 255 51 59 247 194 
241 170 128 203 36 254 179 143 181 182 248 187 108 0 184 166 88 159 92 255 178 86 188 156 28 247 12 221 42 96 80 171 185 202 131 203 156 153 250 221 169 36 41 156 40 109 156 132 114 190 44 211 214 81 35 162 140 233 66 104 255 235 174 36 175 188 72 243 187 95 196 43 237 122 196 54 186 212 96 17 124 100 30 117 143 215 27 8 73 220 220 82 141 78 182 199 75 22 115 62 
143 207 244 66 246 35 43 98 37 76 239 166 130 57 187 41 57 207 231 254 42 44 191 157 54 165 123 18 10 244 27 107 141 12 38 206 86 226 248 223 228 239 36 22 127 100 134 80 119 78 68 56 158 80 252 26 176 145 168 216 237 50 21 194 128 148 114 34 193 82 112 108 172 79 94 184 60 85 207 192 121 133 159 107 61 212 84 225 188 178 167 97 90 255 179 241 243 41 57 61 
