P2
100 100
255
54 193 194 152 218 42 233 120 2 82 221 68 15 216 247 96 208 48 110 248 131 177 120 105 250 0 194 255 220 121 117 233 108 153 106 216 52 135 227 159 177 80 187 249 204 190 8 68 98 173 28 243 125 61 235 53 217 100 145 74 249 195 198 135 190 94 225 131 159 213 175 21 124 110 84 168 157 239 65 115 87 244 84 191 132 13 197 33 184 161 81 209 195 24 33 24 126 221 81 36 
38 68 79 20 229 11 154 8 161 120 199 184 70 25 239 225 44 253 130 16 210 197 201 33 178 150 184 240 225 176 35 145 213 112 40 55 182 156 42 167 219 15 114 59 127 165 69 24 249 157 42 153 104 19 151 130 136 142 43 105 46 139 42 108 193 161 90 175 237 167 166 187 35 189 86 245 250 248 5 76 227 63 65 95 128 228 39 107 0 137 191 60 172 235 15 124 50 121 243 53 
21 236 9 113 78 248 91 131 143 26 235 121 181 141 165 184 97 173 181 239 75 227 188 164 207 217 53 84 59 85 121 146 110 41 55 150 246 55 107 211 97 205 57 222 8 209 220 184 54 211 241 245 225 101 148 97 185 63 250 51 50 232 61 71 10 28 163 180 185 121 138 96 16 101 240 87 186 62 193 66 244 37 24 100 217 143 71 31 58 161 81 115 234 10 155 120 63 188 68 22 
242 104 157 229 24 43 10 114 217 52 89 99 131 144 184 147 212 121 72 21 124 4 248 85 227 37 88 80 80 18 31 26 124 231 30 238 55 11 58 90 94 76 70 195 215 30 246 202 48 8 180 112 108 21 29 37 215 8 199 130 14 37 231 139 75 113 79 209 118 194 140 198 35 80 59 11 157 128 212 216 44 143 251 98 81 195 129 58 222 213 40 73 205 156 116 47 21 69 89 183 
182 33 96 124 3 210 105 40 255 139 101 59 48 104 6 18 51 140 63 79 246 240 109 43 31 88 81 199 137 67 166 30 246 239 87 232 158 3 89 7 194 170 128 72 203 36 69 59 29 190 26 113 88 77 92 148 190 152 160 35 72 85 122 83 1 24 194 102 14 182 195 63 153 148 34 10 88 219 127 88 192 222 152 84 43 79 69 36 228 43 190 4 9 188 254 46 113 23 182 99 
57 217 225 221 252 96 241 162 182 234 125 10 89 158 160 40 11 102 134 244 74 83 224 73 215 116 132 182 201 42 212 171 200 232 95 26 135 147 123 6 134 104 253 35 170 69 50 38 24 146 140 75 223 26 165 136 10 209 216 212 220 25 160 111 182 20 242 250 168 34 225 194 217 133 182 109 85 179 216 63 228 52 235 45 86 125 206 95 175 3 84 138 83 180 32 19 230 3 44 102 
151 227 46 174 136 169 139 183 78 236 238 220 93 193 11 104 131 7 157 113 166 40 244 208 147 22 141 20 157 4 41 64 50 149 91 219 112 234 231 55 96 59 112 180 10 98 7 54 231 70 76 222 86 149 29 133 99 26 113 154 4 227 93 98 190 199 198 101 137 124 193 19 238 180 245 68 240 253 32 85 139 106 149 68 162 41 135 200 73 207 221 96 133 36 183 80 223 253 224 145 
211 152 142 82 149 217 78 107 213 97 162 205 187 120 239 28 88 87 110 16 198 225 14 250 45 231 230 15 168 14 254 52 35 46 205 28 83 17 92 84 124 8 10 242 150 225 146 6 158 73 84 82 124 14 5 154 77 175 56 128 221 226 122 190 17 111 93 162 248 232 12 49 204 204 24 41 190 12 40 108 161 80 198 180 69 219 0 20 5 2 49 239 237 154 188 40 110 85 101 235 
177 74 120 48 94 212 19 139 14 96 98 131 22 26 174 111 250 135 29 2 20 173 46 72 145 110 148 27 212 198 178 15 7 146 237 130 180 8 67 74 125 41 98 51 32 59 252 245 240 91 215 147 124 222 211 35 119 230 62 215 104 248 45 7 233 44 87 146 37 133 60 252 123 138 221 238 114 236 224 161 237 96 242 4 67 245 207 44 91 3 68 64 114 25 25 205 66 183 250 15 
253 234 91 40 78 209 108 168 113 98 191 104 88 1 90 100 168 185 201 163 5 176 84 132 66 98 45 221 67 109 54 119 30 173 182 139 192 212 141 233 194 114 188 117 109 168 46 174 118 178 61 66 169 27 218 7 127 31 45 221 95 125 43 214 158 83 140 121 174 185 153 182 70 242 56 146 8 83 72 4 135 218 48 218 58 215 148 165 179 225 39 140 134 9 34 252 79 112 2 244 
143 7 62 72 68 59 64 115 8 82 62 50 69 102 205 67 59 254 51 114 54 180 242 98 163 145 105 138 230 206 10 5 98 228 93 26 119 20 52 17 140 9 121 38 216 248 98 162 236 41 148 120 100 143 224 224 96 116 215 223 149 115 7 95 55 43 99 141 181 229 201 26 182 130 34 114 98 24 183 33 22 34 142 72 13 164 5 172 58 195 39 193 133 153 74 211 84 69 215 84 
200 240 238 20 65 179 170 220 25 60 99 78 248 110 67 164 133 206 226 215 18 112 131 23 6 65 34 218 127 75 12 157 36 66 51 80 13 188 113 248 70 233 173 243 24 142 190 234 41 41 202 137 245 237 61 53 3 56 253 179 85 94 138 203 254 112 227 178 54 16 55 157 147 163 60 152 174 60 69 173 57 105 214 254 39 65 196 244 248 123 15 109 225 195 58 94 145 111 35 178 
26 248 190 100 94 56 182 15 152 235 91 125 61 69 18 163 123 95 177 44 55 76 59 109 14 197 118 228 85 94 42 72 61 184 201 234 225 98 19 94 235 243 83 38 68 201 11 202 179 186 255 227 126 242 118 70 223 131 132 196 19 157 61 254 196 94 28 76 113 242 16 191 193 43 135 29 245 164 70 78 238 243 26 207 212 127 94 183 11 234 225 88 111 65 57 167 55 27 171 174 
4 2 67 88 217 50 202 131 126 83 212 26 205 35 78 165 107 180 196 106 238 143 108 29 231 61 232 182 247 134 99 175 164 191 97 108 85 177 19 12 214 69 193 183 92 71 251 223 190 215 9 244 206 224 45 66 236 194 84 95 254 121 203 71 59 2 184 71 199 123 241 129 28 172 227 146 178 18 200 124 100 58 54 48 234 205 37 191 91 63 17 72 198 117 86 153 247 73 187 79 
151 95 49 223 228 72 102 36 129 92 161 221 120 209 1 191 5 154 20 160 245 13 158 213 53 139 21 82 102 116 48 176 252 130 157 35 50 248 156 104 128 36 215 177 237 94 66 175 224 186 107 39 253 81 179 217 27 170 201 189 48 207 109 14 159 106 44 88 156 105 45 174 25 212 120 52 209 127 243 98 28 183 204 196 237 216 3 112 140 238 197 241 245 192 215 175 161 113 84 165 
185 130 37 205 37 31 191 141 223 35 96 251 2 71 186 69 182 73 48 91 1 84 112 53 236 225 91 228 1 203 225 56 34 133 125 228 220 10 230 164 83 216 40 100 8 167 20 157 238 164 159 192 188 229 177 1 48 244 246 195 71 226 42 159 118 8 71 86 82 45 160 233 97 144 199 93 174 226 159 147 179 133 48 115 151 112 130 88 175 172 43 213 25 44 198 63 105 209 13 227 
143 170 167 109 10 196 65 10 184 192 11 109 82 36 204 130 255 81 197 122 33 209 89 176 44 187 206 112 9 6 114 199 77 30 217 150 86 232 227 39 9 83 87 241 195 69 112 31 187 115 81 89 23 119 141 170 136 210 106 63 235 142 35 25 214 116 46 186 52 195 200 83 221 136 15 229 204 58 199 225 229 73 42 6 150 203 161 125 87 118 45 66 38 110 52 209 101 146 95 222 
185 56 170 49 243 164 182 123 140 207 77 13 214 141 29 163 174 19 20 254 122 219 242 38 142 62 19 249 145 28 128 248 52 250 22 98 242 58 101 137 164 77 171 155 46 70 178 138 56 227 13 21 57 167 111 25 71 203 89 132 23 139 203 199 166 162 145 239 161 238 8 190 252 156 101 81 162 35 183 110 17 166 157 72 233 240 139 82 36 141 60 158 10 253 18 188 24 11 194 3 
16 211 92 116 133 91 180 180 30 62 42 9 213 184 20 229 103 208 86 78 242 111 2 252 68 185 30 72 203 9 52 37 211 151 98 202 9 101 252 111 55 221 45 233 144 82 6 193 2 42 93 195 28 222 214 203 130 5 68 91 251 195 199 65 74 106 39 207 219 2 142 90 36 14 151 191 38 65 88 119 201 70 121 84 194 146 38 111 37 220 182 28 68 143 255 113 160 81 166 187 
127 116 47 209 74 68 178 155 44 139 67 152 39 57 23 176 161 247 198 30 6 60 192 6 107 187 212 250 98 123 158 128 103 109 216 42 196 226 9 202 134 9 230 32 130 39 218 192 55 213 240 35 0 80 123 80 206 138 113 63 99 97 207 134 93 57 202 59 152 32 234 115 156 129 47 47 231 131 40 109 195 118 142 33 245 143 216 136 116 173 253 163 194 27 172 6 46 117 48 90 
79 60 214 89 240 183 1 170 108 177 149 165 97 130 39 224 40 80 48 66 163 126 111 231 155 94 128 92 26 52 155 166 77 16 70 235 37 16 191 133 179 168 28 231 252 136 68 171 226 21 210 5 206 151 205 221 244 192 34 195 247 75 178 252 242 200 88 3 189 155 34 55 181 237 72 155 147 19 152 53 74 22 178 55 145 159 141 11 95 34 69 27 60 226 184 9 222 235 142 198 
108 144 221 136 220 212 18 72 86 229 233 193 235 149 165 29 155 81 36 225 100 157 75 147 75 75 253 115 37 52 30 203 207 42 238 13 70 110 50 252 109 57 106 243 153 86 133 211 207 164 54 218 105 179 71 154 86 223 225 244 34 171 88 131 170 40 225 218 56 62 112 77 124 229 33 131 172 139 8 92 153 125 87 136 174 134 126 138 97 103 186 90 121 155 109 224 189 40 27 134 
245 192 72 6 20 204 58 165 129 5 80 110 49 228 75 12 46 8 114 74 107 24 199 220 162 12 157 70 61 129 246 130 91 193 66 90 39 244 51 158 105 123 22 97 22 216 48 129 255 160 237 141 28 183 56 234 225 111 68 33 169 193 174 215 252 241 39 165 71 162 174 64 32 158 165 153 201 38 151 125 251 121 207 218 63 154 61 47 48 198 227 148 225 21 134 29 44 147 101 74 
97 102 200 160 210 62 40 121 182 217 120 116 83 251 5 22 24 58 7 28 206 111 43 104 88 48 222 250 50 71 153 10 162 2 185 121 141 88 54 73 115 206 6 136 130 88 252 225 73 150 163 167 254 96 176 0 92 58 36 65 9 12 89 151 111 68 174 161 137 102 47 133 205 219 162 67 214 243 182 165 76 42 72 0 218 31 5 98 137 222 174 136 63 32 103 196 142 216 16 63 
223 89 186 189 239 252 110 77 249 137 135 110 48 46 247 70 9 89 196 206 109 96 144 142 130 118 117 125 96 23 55 10 81 152 255 52 204 200 124 120 227 135 126 160 149 115 255 181 245 42 95 141 184 170 105 156 159 186 156 92 200 168 237 84 233 209 15 200 219 155 229 57 28 77 174 12 81 228 168 175 88 28 61 155 232 172 200 61 251 88 230 10 197 179 103 109 135 96 193 160 
173 20 36 35 40 130 40 132 10 125 129 151 156 46 31 90 203 114 120 134 218 183 150 57 202 1 184 24 184 66 51 199 18 190 75 6 165 23 123 78 23 84 225 24 38 25 195 30 175 79 255 207 30 17 207 97 233 143 52 248 219 223 84 153 16 88 202 1 192 93 10 145 12 39 71 22 178 34 13 25 168 172 71 110 81 219 12 145 17 31 128 54 204 9 212 210 219 127 115 109 
154 247 6 72 57 203 124 7 240 92 72 253 18 159 220 138 50 214 214 116 150 224 67 15 24 40 237 254 76 58 103 163 52 33 47 73 146 100 107 54 71 101 39 193 28 42 42 4 20 189 84 99 179 254 111 10 51 122 70 141 53 88 119 82 0 140 144 85 77 146 130 152 200 0 128 250 18 166 221 213 144 232 219 22 147 190 40 38 185 50 151 241 55 114 152 3 241 253 216 53 
58 148 234 218 167 13 122 231 78 176 46 176 214 219 145 238 150 236 202 72 233 161 138 38 52 252 215 192 153 176 241 107 254 63 54 167 107 160 47 23 168 215 137 136 198 123 203 168 189 201 35 175 127 58 24 64 16 216 125 40 138 3 172 168 159 178 204 121 12 121 247 18 243 236 240 182 252 39 98 141 68 214 103 206 136 251 163 70 103 246 67 232 26 219 119 56 27 208 93 228 
126 76 91 162 29 164 122 223 168 172 57 158 20 54 22 170 227 238 185 132 112 226 245 136 207 248 127 97 95 128 232 1 138 59 161 146 201 55 211 232 30 247 52 184 170 133 139 216 10 43 85 180 217 43 97 246 127 29 108 111 165 32 21 85 119 248 244 139 190 68 8 173 135 62 66 96 49 38 222 231 191 204 49 14 28 15 216 37 89 25 71 112 88 190 23 154 31 36 184 29 
122 116 240 90 187 143 108 170 239 94 105 180 162 129 237 206 222 118 182 153 218 223 173 98 224 130 207 67 189 105 165 239 70 30 91 202 166 78 138 112 41 158 127 42 180 169 229 44 247 210 145 110 79 224 174 59 251 27 213 41 247 31 244 246 194 9 44 123 7 105 103 65 103 72 159 72 200 42 149 67 167 49 219 109 177 150 240 239 120 59 37 25 171 204 229 248 125 149 138 93 
62 250 201 146 42 10 13 224 55 72 163 247 19 125 67 94 165 99 83 16 17 15 198 122 145 119 95 129 228 58 197 233 158 224 228 82 55 89 70 66 166 78 252 149 195 12 129 28 137 61 132 29 54 211 92 150 1 184 13 85 17 168 123 237 148 52 65 103 34 12 30 253 106 124 251 253 223 71 229 52 252 183 248 59 75 184 110 139 51 102 3 2 242 216 104 42 149 76 244 163 
236 42 173 254 150 241 161 247 108 28 7 178 166 3 230 105 206 227 239 157 5 31 254 53 114 219 99 15 165 146 211 39 59 206 169 10 176 228 17 91 36 131 197 143 105 18 19 249 34 159 126 90 159 197 218 247 202 171 155 86 142 41 219 148 198 118 250 213 225 148 43 63 48 202 36 174 93 195 42 34 148 114 77 146 22 39 248 19 79 81 102 29 147 152 90 168 87 64 55 139 
158 196 42 201 95 176 202 144 11 113 110 120 244 43 242 93 157 154 24 189 13 91 253 224 88 21 235 104 17 46 5 232 165 41 31 241 64 230 61 102 60 248 126 155 204 225 220 87 253 201 225 39 74 191 141 162 177 97 175 69 163 75 7 6 200 7 224 103 166 120 86 43 188 246 218 125 89 247 233 126 254 147 172 171 104 35 176 233 250 56 206 125 31 229 13 249 38 251 39 40 
156 126 77 210 72 249 70 94 67 114 112 52 227 10 186 87 68 184 55 68 122 14 252 56 7 215 27 227 234 124 237 156 130 207 110 156 46 251 194 32 218 162 75 160 182 11 86 80 183 246 21 171 48 72 85 155 179 6 188 59 246 186 113 133 45 82 185 153 15 245 198 95 73 168 90 163 20 231 97 168 252 95 142 157 67 13 177 96 152 36 176 190 230 247 183 135 167 76 174 112 
157 148 78 234 210 237 139 144 249 156 106 222 63 183 228 121 17 198 195 120 114 23 91 82 186 126 25 125 30 105 116 251 25 152 82 158 46 104 61 122 70 49 218 172 40 243 185 55 94 231 46 117 103 134 62 226 246 235 238 140 75 170 233 168 75 180 117 114 94 153 87 52 44 161 6 240 198 94 152 209 209 38 168 243 126 40 193 138 22 7 55 112 82 225 20 38 66 183 134 68 
36 44 134 225 179 122 224 56 79 42 239 60 240 170 95 143 42 94 127 188 68 219 37 14 113 161 32 189 240 208 40 129 12 180 29 169 79 70 55 176 185 254 157 205 247 241 32 70 206 21 92 246 35 237 142 23 26 88 167 92 21 91 105 147 161 52 62 36 184 3 243 27 22 136 4 132 131 228 32 103 195 26 158 3 24 116 75 172 106 125 59 23 59 224 44 70 105 80 139 30 
223 199 190 95 178 163 212 242 233 237 72 208 175 45 55 220 145 41 76 91 8 184 234 135 127 84 103 149 145 159 251 91 31 194 30 104 182 153 108 16 12 96 115 81 89 174 17 144 136 170 67 34 126 40 58 106 191 72 22 200 238 227 217 179 65 73 183 49 221 210 105 175 34 18 190 188 94 174 253 147 84 16 140 133 154 181 10 78 220 30 19 155 154 27 141 16 53 94 199 5 
182 93 27 58 243 204 68 189 19 64 7 120 16 226 234 113 144 131 76 29 5 89 151 5 101 210 248 171 138 58 130 40 195 118 117 4 118 103 106 176 199 52 20 136 171 225 53 146 27 252 211 44 145 55 217 86 57 180 81 77 78 185 255 60 190 25 208 108 81 132 132 6 56 190 159 240 150 209 47 230 140 134 227 5 59 191 110 41 170 82 210 232 32 130 15 83 46 170 179 48 
233 71 87 201 29 9 201 249 243 119 205 233 21 24 206 252 6 253 54 184 109 54 168 102 1 113 123 153 254 146 254 18 100 217 221 199 124 190 237 96 251 114 100 91 243 83 157 66 198 23 18 38 121 47 111 83 163 29 23 235 64 242 241 63 77 233 186 70 36 120 12 198 246 108 223 106 30 180 198 144 219 143 40 29 238 145 130 118 115 160 193 63 246 156 248 218 221 88 95 121 
178 61 215 241 248 62 228 171 15 33 43 229 225 93 51 209 205 155 218 0 249 194 133 110 108 43 217 221 191 18 107 12 232 91 92 245 186 132 65 115 135 128 169 206 116 96 205 105 167 45 22 159 144 210 46 51 147 105 130 238 61 22 185 122 44 246 175 101 169 32 2 33 199 57 136 56 221 180 122 136 217 106 244 100 114 160 218 184 229 62 106 3 107 168 175 113 117 64 188 88 
116 91 122 47 130 88 62 218 44 219 1 199 73 150 54 22 203 73 208 111 89 139 22 5 208 155 190 203 79 97 154 157 115 248 29 0 160 55 184 239 18 58 56 141 206 231 121 38 123 108 247 37 122 170 210 68 31 83 77 166 182 238 195 176 215 23 186 200 141 104 147 192 6 247 142 76 117 255 196 131 80 36 194 204 99 183 117 211 191 104 195 44 228 249 215 171 188 75 68 88 
226 25 41 29 185 96 56 196 15 209 158 141 25 150 27 40 119 152 206 215 32 227 48 189 88 12 113 90 243 37 202 230 53 20 251 172 73 110 55 188 107 127 42 175 135 123 250 92 98 197 94 166 89 174 135 87 203 145 40 171 33 231 246 13 250 108 7 138 175 236 131 174 3 137 126 213 100 106 156 77 173 235 25 176 202 171 215 151 107 214 192 10 230 138 60 189 213 161 203 60 
182 55 44 16 252 111 36 189 44 117 125 3 164 65 49 240 136 150 144 11 110 170 62 137 170 29 201 192 202 58 231 114 57 214 12 133 62 16 132 96 197 56 237 130 172 252 147 95 132 147 1 48 123 92 76 252 234 230 86 72 107 90 130 11 177 107 116 66 33 26 41 76 78 77 140 138 4 123 137 247 176 196 216 236 121 240 230 148 94 213 126 24 247 159 174 149 199 144 228 224 
154 71 173 33 168 87 114 35 208 43 219 239 29 103 179 137 139 101 92 54 252 29 192 252 200 3 84 255 114 0 101 111 237 245 43 209 42 243 151 222 124 242 246 230 100 162 171 182 199 240 78 4 154 183 74 139 169 184 113 20 53 217 187 35 27 146 131 146 118 122 55 108 185 242 217 192 163 121 3 181 170 111 106 37 60 88 236 167 136 217 247 124 206 79 129 61 145 212 201 233 
193 250 120 173 47 15 72 193 177 147 0 218 160 1 202 123 136 142 46 37 223 148 114 194 178 115 218 103 3 191 168 112 248 156 248 209 27 136 165 150 115 102 132 159 191 139 197 5 241 125 254 116 17 47 168 130 218 215 119 243 160 143 38 129 191 12 177 79 231 88 211 147 242 120 104 245 79 22 171 202 92 129 117 134 77 167 106 136 193 29 41 3 184 234 18 245 124 120 28 46 
188 255 90 105 163 251 131 166 170 9 110 129 175 116 130 186 12 216 42 219 86 229 182 138 188 115 50 63 52 44 119 175 160 101 128 242 220 190 230 38 150 198 183 15 65 201 155 64 63 55 236 239 111 36 89 190 147 23 49 167 10 242 202 124 19 81 90 39 48 116 161 101 124 29 181 125 207 255 10 213 217 167 230 239 240 255 242 181 45 216 169 106 170 202 38 178 183 182 192 237 
71 153 184 1 90 58 58 159 174 45 93 229 133 69 123 208 239 175 254 72 89 182 3 211 136 120 81 92 110 34 167 158 120 27 129 107 18 127 6 108 44 43 148 179 72 10 129 255 236 30 114 92 82 44 171 168 196 85 78 138 48 91 242 164 227 36 198 131 50 107 177 131 180 250 159 41 28 196 189 238 130 175 231 247 60 73 200 245 122 162 250 173 180 29 16 104 91 81 25 26 
23 35 238 19 241 186 148 145 228 168 195 47 81 169 172 227 111 240 225 207 69 164 248 98 157 15 161 150 192 252 253 43 114 131 219 139 203 24 184 19 11 173 223 132 219 233 75 55 118 144 143 120 7 185 202 140 219 103 184 95 67 20 41 128 28 170 146 157 194 39 236 227 15 80 166 19 17 103 12 88 99 72 64 217 87 223 228 146 142 170 254 203 89 190 218 171 16 49 124 93 
51 102 243 247 49 28 102 106 128 111 176 1 217 93 12 109 77 220 243 154 246 88 27 124 15 74 223 148 35 71 97 87 68 190 223 165 136 137 255 160 132 180 43 63 251 13 60 164 65 175 244 119 93 96 5 19 201 235 190 249 213 159 140 44 139 182 91 37 236 160 124 71 14 75 97 216 2 5 242 226 142 64 77 214 218 149 192 129 4 127 54 112 163 208 164 175 161 135 189 13 
16 168 239 117 236 122 101 26 69 164 238 215 53 224 45 46 171 138 248 3 6 236 167 45 205 127 201 96 203 173 34 218 210 134 219 148 222 193 1 220 215 168 210 61 46 57 96 186 200 185 232 33 242 104 188 213 125 249 205 33 234 131 219 125 239 56 194 131 151 197 17 154 83 8 98 209 40 31 127 178 223 199 11 227 248 56 89 10 14 83 20 1 101 209 167 176 143 124 139 185 
194 39 190 6 130 24 38 249 98 219 137 3 102 82 18 57 186 91 119 98 66 197 54 161 170 46 12 219 133 182 14 73 25 183 113 144 217 39 216 74 229 238 25 42 0 194 124 251 216 183 145 82 0 252 243 176 172 84 10 207 140 232 148 196 78 66 215 253 179 14 187 250 76 46 55 52 183 108 195 82 246 237 15 55 70 220 162 234 116 168 124 155 126 110 75 104 128 42 171 72 
163 150 199 65 26 58 203 116 94 89 219 22 18 148 113 203 7 206 169 138 88 29 123 241 244 230 80 89 79 47 173 215 148 131 81 45 209 140 243 167 19 93 117 211 205 77 38 154 2 64 115 138 7 197 247 22 168 112 100 60 104 170 77 80 242 191 114 243 255 36 201 200 90 247 243 126 55 72 6 83 21 98 142 106 2 3 232 130 20 137 130 102 177 2 169 87 129 78 82 124 
45 19 158 221 101 140 210 13 184 119 15 159 248 103 177 71 82 110 36 11 127 242 2 235 162 116 227 83 208 217 252 40 232 80 130 128 76 145 156 111 124 168 115 10 141 51 52 48 37 35 75 233 63 44 174 216 199 131 96 193 239 169 86 21 42 220 149 46 227 185 4 43 5 64 194 92 135 176 162 249 9 136 168 185 104 57 121 36 63 4 28 59 153 212 50 143 94 80 48 252 
163 227 152 84 251 38 10 135 4 84 34 239 41 121 192 140 107 32 134 185 172 232 242 131 85 164 156 224 143 123 155 201 237 135 105 104 224 228 81 250 85 10 92 48 15 97 231 177 6 136 184 26 0 247 246 66 166 174 59 31 55 176 34 76 113 137 130 25 222 64 40 221 34 235 47 238 47 42 83 219 187 123 30 235 210 98 229 165 99 46 126 140 57 143 40 94 229 241 215 198 
142 123 0 26 85 88 50 240 70 255 46 58 153 112 32 25 3 28 178 85 240 254 13 235 172 93 60 220 164 46 184 252 156 247 174 74 66 190 53 149 125 110 237 184 247 53 25 212 106 191 201 249 173 55 216 205 207 214 191 2 62 95 144 51 86 0 131 117 187 72 146 20 109 3 100 209 86 76 19 199 239 221 249 183 70 98 249 130 161 13 44 6 20 42 122 249 145 219 141 222 
185 32 160 154 74 24 232 34 66 67 45 208 179 203 92 74 222 94 211 123 30 207 223 7 181 240 140 78 158 239 199 78 214 128 152 93 171 61 137 37 180 125 112 145 131 30 39 212 89 43 58 43 165 71 202 190 23 8 124 116 33 26 44 162 11 126 105 245 1 86 59 91 157 132 151 51 246 169 43 212 205 142 205 255 132 229 52 158 183 5 229 43 50 35 15 18 43 159 135 147 
248 108 183 35 10 22 158 163 12 250 85 228 28 38 227 194 132 29 125 86 110 234 203 46 135 251 93 167 11 184 231 71 84 62 178 7 123 157 35 192 30 50 248 216 35 64 161 228 28 83 216 66 100 155 236 51 216 26 8 101 137 144 168 188 12 114 72 5 5 44 20 139 113 195 203 161 130 244 170 215 44 226 25 186 227 141 205 130 7 196 177 151 2 41 23 29 61 29 182 121 
130 160 60 34 130 226 229 182 173 123 23 162 74 224 61 178 110 175 52 224 67 205 98 94 10 184 245 30 251 8 132 144 2 14 73 205 234 11 66 68 226 110 182 184 214 148 126 222 168 187 223 188 72 212 163 37 55 69 143 156 179 12 254 179 32 106 141 111 167 0 104 115 176 169 193 223 187 95 35 248 146 156 158 168 193 236 27 96 1 12 172 7 221 2 12 75 151 122 212 187 
106 180 179 227 97 145 73 229 52 11 92 158 11 169 191 129 165 38 66 171 183 250 53 199 110 55 180 16 183 194 242 92 20 190 156 113 12 161 105 230 33 105 10 188 133 119 223 158 146 169 152 145 88 226 183 180 229 165 5 1 175 65 117 241 231 198 67 147 80 209 80 103 75 174 18 194 88 25 6 151 33 29 87 136 196 232 152 76 197 221 249 89 148 138 40 161 83 201 141 152 
50 100 92 185 137 172 156 62 120 202 135 51 210 140 247 103 205 26 196 252 207 123 177 28 251 255 159 0 175 76 228 248 82 10 15 237 150 82 172 230 247 81 172 141 17 122 255 98 162 50 12 145 105 46 86 31 111 191 152 124 239 151 25 141 191 161 15 196 89 142 81 66 104 49 14 68 71 215 205 197 14 223 225 6 122 48 58 63 169 159 170 111 226 59 53 116 177 52 134 18 
66 78 102 180 21 166 45 225 235 1 73 91 136 101 234 236 200 182 33 126 163 146 39 43 70 122 223 171 167 46 176 43 19 77 221 194 70 40 219 10 251 205 144 29 57 30 252 214 159 201 30 145 196 105 18 184 3 17 176 103 203 227 40 2 64 246 124 135 179 148 240 72 69 114 8 250 130 73 13 109 76 28 182 222 124 174 41 225 255 21 144 69 159 21 105 168 152 30 3 13 
56 105 53 66 14 120 232 62 210 143 50 242 191 75 111 150 175 211 238 6 241 154 80 157 163 28 158 0 223 104 82 145 175 128 59 199 107 36 209 82 45 191 92 176 239 189 160 195 59 78 88 155 237 243 156 36 107 104 64 148 44 33 139 0 17 209 80 132 19 5 247 137 189 31 6 188 253 89 54 19 19 216 248 247 137 2 79 42 184 130 156 131 96 103 49 99 168 65 49 204 
210 41 139 85 90 10 146 176 123 167 84 96 10 86 100 243 76 203 25 235 207 163 31 118 36 198 44 159 101 41 205 46 61 93 156 178 21 145 112 36 208 124 146 121 137 179 70 10 120 76 105 149 166 167 35 110 167 21 53 219 224 62 152 9 28 201 63 34 114 181 98 107 80 42 118 152 7 113 189 101 249 167 253 224 27 174 196 218 21 99 217 240 142 80 197 228 22 224 69 145 
22 230 210 82 69 174 161 29 10 36 39 84 9 48 85 219 98 121 169 65 148 90 211 66 170 44 20 63 122 80 213 183 43 79 164 204 196 158 245 61 243 60 242 151 209 170 245 211 193 97 184 60 107 220 115 42 9 21 78 131 85 172 69 103 252 204 165 157 224 143 2 208 11 7 25 140 39 139 94 185 228 94 175 232 170 84 175 135 55 31 239 237 148 141 54 6 32 10 197 52 
46 93 170 16 80 74 87 99 116 14 192 184 224 177 198 196 28 197 85 52 82 144 245 250 16 214 226 249 58 124 185 119 67 123 81 80 128 152 77 26 52 150 166 254 145 47 186 64 22 243 34 242 35 94 88 51 3 193 202 80 152 221 174 17 10 163 240 201 170 99 91 56 42 240 115 9 223 165 113 155 39 65 114 39 12 169 141 146 235 0 99 230 173 1 92 62 201 153 199 166 
231 194 52 125 252 163 76 117 182 112 89 218 130 215 179 47 55 31 81 87 196 78 116 94 245 230 54 129 151 250 38 37 80 191 177 205 134 151 124 210 34 180 230 112 66 93 242 35 202 39 193 39 130 1 126 50 82 30 254 139 231 35 77 134 123 49 27 230 68 74 164 184 50 200 151 23 99 54 65 177 137 26 117 121 128 21 199 28 16 90 205 207 20 168 228 108 171 96 229 205 
22 110 58 197 246 199 130 252 248 145 240 51 86 162 12 52 248 220 236 230 158 60 111 56 217 207 208 17 74 170 118 11 197 97 126 82 111 101 226 4 174 203 17 215 109 221 71 235 129 186 72 2 233 124 247 194 105 13 125 195 99 127 101 203 235 61 99 247 238 83 108 117 161 208 131 56 229 103 232 75 211 227 155 86 24 178 243 209 93 103 231 46 13 138 191 78 200 65 109 121 
90 235 41 196 116 43 29 136 253 109 174 228 17 12 231 183 12 193 196 167 207 191 222 190 23 241 143 94 23 79 196 14 13 95 106 203 6 170 120 71 73 12 25 147 8 135 74 78 127 233 181 54 136 234 236 130 206 214 90 153 175 223 109 168 158 194 65 5 158 155 26 235 103 98 116 213 252 221 171 214 179 227 64 76 134 108 209 26 116 245 250 92 192 215 22 235 77 109 92 44 
60 183 134 131 145 176 196 230 239 165 91 41 26 2 203 146 148 201 162 230 120 240 66 233 215 94 48 179 166 168 200 107 224 170 32 118 202 114 176 11 4 173 183 214 155 135 97 130 254 173 254 185 13 254 195 6 254 243 149 119 243 33 76 27 186 85 48 86 109 196 209 158 114 101 50 60 157 4 114 67 246 159 11 162 63 127 189 72 8 172 248 104 201 211 32 240 166 145 1 93 
76 69 6 139 155 126 231 172 188 152 131 130 29 55 50 163 122 239 185 60 134 164 79 95 240 160 122 133 24 18 42 198 19 231 96 157 83 49 51 108 128 114 124 121 145 195 91 14 170 238 78 155 60 194 60 97 74 218 245 50 9 115 19 203 124 154 29 105 207 222 54 163 184 134 204 123 199 58 40 109 255 176 83 208 69 17 253 126 12 17 223 245 160 230 41 60 38 205 217 119 
74 52 239 239 51 167 100 154 9 174 81 66 200 166 233 62 33 206 223 158 226 145 99 157 81 63 247 14 127 206 77 136 200 83 249 246 42 155 160 177 102 121 216 89 175 156 31 20 201 116 137 49 49 207 231 98 167 97 97 181 57 159 174 22 254 235 79 120 70 97 159 166 10 64 13 55 56 224 132 116 174 40 25 69 39 119 208 155 6 158 207 1 210 191 253 68 61 89 60 54 
77 251 148 161 44 52 211 222 241 206 207 143 22 158 168 105 169 99 89 50 188 35 7 207 244 239 77 90 177 3 141 231 48 156 246 175 167 230 158 31 193 105 88 37 222 102 94 97 224 64 127 78 242 238 94 169 172 252 86 53 227 155 153 236 194 36 230 105 13 196 6 181 50 193 12 67 153 247 224 169 106 143 98 234 8 38 238 51 144 210 89 245 24 103 45 36 27 225 72 25 
17 205 225 182 236 55 109 67 162 51 201 137 38 241 58 194 252 26 74 102 32 250 214 50 105 16 185 19 104 184 211 124 12 223 128 35 230 151 4 165 81 71 120 79 229 48 130 212 25 11 22 197 73 67 128 42 226 27 95 149 223 198 142 118 255 24 159 227 227 55 139 202 255 5 88 140 152 184 244 111 97 221 122 118 120 143 141 137 8 199 5 79 209 170 209 30 191 70 74 103 
210 18 36 239 160 212 220 246 118 17 7 111 11 8 225 126 134 164 91 218 70 54 31 75 68 130 21 25 211 172 18 170 156 210 133 179 21 19 254 82 19 71 187 7 15 160 4 151 167 125 13 222 36 250 32 57 127 124 91 124 122 234 140 50 91 126 127 138 16 110 14 221 165 66 30 242 242 94 63 231 134 91 154 202 2 217 52 122 51 209 94 58 135 77 166 30 205 35 62 103 
31 19 57 144 108 62 121 231 4 159 1 171 214 64 149 0 196 239 197 95 209 45 200 54 187 31 72 217 16 78 13 42 156 81 11 50 113 187 156 131 28 244 26 45 40 113 67 255 98 253 70 113 248 151 56 7 168 108 169 90 81 14 126 159 98 76 103 209 86 232 188 47 120 107 194 156 49 140 32 240 14 114 107 131 121 187 225 161 64 164 1 29 7 30 151 246 223 74 192 211 
98 144 183 9 154 113 117 98 130 163 180 36 17 164 95 168 117 189 197 79 59 146 78 78 88 61 80 23 33 91 205 252 71 85 95 216 8 168 210 232 25 193 153 232 81 197 189 105 84 65 61 139 91 26 37 36 26 124 184 11 178 104 35 179 218 253 23 63 55 126 16 70 249 20 162 14 60 146 113 36 36 68 41 200 200 135 135 145 113 243 26 190 7 175 120 49 175 231 183 59 
231 2 103 166 232 90 227 146 45 16 27 250 96 8 173 4 207 36 219 252 218 250 192 74 5 65 193 49 248 231 161 120 241 168 159 79 223 166 241 106 163 22 0 155 40 1 90 230 223 181 97 114 196 144 122 99 171 59 169 24 61 15 46 198 199 185 66 103 111 50 113 140 36 75 14 131 85 176 117 242 53 41 207 162 80 231 35 95 42 82 253 32 78 95 225 57 180 101 195 45 
177 196 117 22 230 156 11 57 46 71 166 180 106 105 11 138 74 186 109 221 88 29 122 93 117 49 193 219 164 167 95 15 136 200 126 182 217 152 130 97 76 70 91 113 253 24 250 206 50 31 48 20 137 88 146 141 24 113 101 193 78 14 91 69 43 88 2 222 218 250 46 30 193 99 71 44 232 83 106 201 148 235 65 163 138 71 9 218 143 40 132 70 71 73 153 181 190 146 226 138 
206 125 15 4 81 126 125 4 81 150 237 60 151 224 185 38 108 115 74 49 188 240 207 126 223 186 252 156 144 104 42 179 150 157 78 230 253 130 231 87 79 251 10 150 116 37 181 217 127 6 3 28 74 17 123 38 161 136 98 232 214 235 192 109 91 19 224 63 240 191 52 93 244 197 75 221 38 240 137 148 98 133 26 182 115 98 92 149 3 55 40 198 182 206 67 109 251 193 116 231 
130 227 226 243 127 67 155 197 76 115 68 154 66 171 186 34 207 197 141 82 163 165 9 156 135 51 202 240 118 151 20 255 141 24 119 246 234 243 118 77 206 101 174 12 245 205 89 85 134 64 68 99 230 142 0 52 232 85 253 150 115 254 166 39 162 96 86 150 99 27 136 225 155 202 252 124 7 234 130 72 209 19 116 77 120 181 84 89 221 37 158 58 159 111 136 67 164 44 139 48 
169 40 185 205 35 19 42 195 157 173 34 113 122 197 50 116 80 121 219 69 98 205 84 169 176 42 73 110 208 124 170 6 4 108 68 122 225 179 52 142 211 245 69 89 217 176 176 156 199 66 9 228 216 240 207 68 10 109 165 21 80 41 184 173 62 188 163 242 56 141 87 69 102 21 124 91 214 81 165 52 72 199 73 1 1 172 133 228 178 38 89 126 172 195 213 14 178 195 70 20 
191 124 1 209 142 135 250 109 209 246 202 223 215 58 243 97 121 218 157 20 171 97 195 223 161 146 54 26 114 221 44 118 250 115 246 49 151 186 95 214 134 203 107 203 57 117 120 214 169 178 191 154 107 227 246 173 189 123 119 96 204 180 42 37 49 14 55 1 9 172 118 33 181 28 27 145 111 236 196 14 99 182 10 95 207 247 70 79 255 188 38 99 143 212 56 38 82 53 41 172 
51 26 51 83 115 200 67 236 169 73 106 146 32 169 60 119 76 24 167 166 245 85 51 78 7 125 167 58 139 54 243 112 84 59 2 214 153 229 103 30 231 105 19 108 60 22 93 12 183 71 11 216 245 97 234 199 230 92 20 120 52 145 94 244 162 32 123 136 204 200 168 196 31 22 181 114 94 217 224 194 60 12 161 33 227 45 27 202 142 82 46 129 125 9 23 254 15 225 206 45 
107 135 129 2 207 163 146 152 228 171 153 78 185 120 206 131 25 60 222 72 55 32 150 90 243 128 132 200 91 147 43 41 63 95 114 49 242 253 129 31 39 0 0 43 168 26 26 234 154 142 111 71 253 65 241 75 207 2 15 8 120 92 100 156 131 19 115 5 144 172 33 187 7 220 151 26 166 34 105 219 113 79 139 216 127 244 151 99 176 158 145 181 55 91 235 189 130 189 175 94 
11 110 133 201 14 131 131 135 35 194 220 9 133 47 52 67 94 147 215 54 132 36 167 157 231 209 108 30 22 40 112 124 36 207 214 35 87 155 179 49 184 195 238 216 64 136 59 190 35 159 255 188 214 216 19 247 16 207 226 113 19 161 70 129 59 141 214 148 182 116 202 7 43 248 227 214 137 202 50 230 47 31 15 123 122 83 99 59 216 245 67 124 142 249 1 75 244 119 139 176 
108 93 229 192 133 75 51 165 162 163 127 5 24 13 176 122 52 46 51 191 229 196 133 249 32 227 57 98 220 176 79 209 242 200 240 17 124 233 204 116 122 15 63 76 163 163 160 242 91 160 89 217 213 243 66 30 203 197 87 212 25 1 59 56 17 74 195 47 1 99 235 59 190 104 215 137 216 46 181 138 133 238 4 26 71 161 229 242 87 131 100 128 18 138 22 235 162 94 39 209 
33 193 216 141 102 214 52 64 47 174 212 9 113 190 133 246 62 117 200 224 234 105 135 207 18 34 70 39 223 26 123 195 211 228 105 162 251 244 113 77 162 109 201 75 206 164 118 113 124 151 143 87 174 111 141 121 186 105 192 109 140 89 111 193 94 10 64 156 67 80 30 42 197 102 62 2 146 53 25 167 189 135 100 119 129 172 7 115 159 136 98 81 207 215 144 130 101 2 95 8 
79 63 17 239 53 233 5 92 170 251 152 83 167 121 57 80 55 154 106 75 187 143 147 158 167 107 226 179 149 125 129 116 24 31 73 138 148 22 66 173 13 66 103 225 9 108 45 38 147 16 175 190 123 231 103 226 10 121 49 37 119 45 1 154 215 119 209 19 223 246 181 249 235 2 212 147 149 1 225 80 65 49 36 249 207 206 200 238 166 100 44 107 209 191 254 61 195 201 143 7 
29 29 30 4 45 240 207 139 215 133 57 143 133 213 141 115 101 26 239 147 64 236 219 192 8 94 138 37 172 119 22 228 197 194 46 93 6 38 219 223 21 151 73 88 112 187 171 81 13 27 156 43 237 102 190 189 253 77 160 250 234 211 114 212 33 87 116 54 218 50 42 199 22 78 169 234 1 209 34 50 18 74 6 31 188 175 136 135 198 4 170 239 125 123 74 75 205 205 120 81 
223 248 31 232 59 58 126 61 110 211 47 41 162 252 105 235 98 224 41 161 67 57 109 207 49 206 60 217 85 35 39 246 25 16 196 200 63 220 137 108 1 31 241 18 105 160 137 139 66 251 187 35 218 2 197 81 45 105 183 98 20 88 188 121 36 130 167 79 179 247 53 207 173 108 107 9 223 92 100 174 44 56 217 156 132 11 158 189 127 161 127 135 133 172 180 223 32 60 23 232 
158 236 163 166 191 226 241 62 226 117 220 125 57 44 173 111 195 190 36 205 234 69 109 223 110 77 14 240 29 158 121 64 217 244 48 149 106 217 40 12 98 184 253 222 73 102 2 114 37 150 116 245 224 99 160 78 57 4 75 55 64 231 156 151 187 8 31 5 138 114 144 14 117 144 169 170 41 125 209 3 52 242 140 249 26 224 45 15 146 119 84 113 134 183 115 143 20 206 182 144 
248 155 205 44 225 104 217 66 65 137 50 157 92 129 8 68 110 176 47 101 55 161 168 63 195 75 176 252 143 251 25 42 30 136 203 77 167 254 98 138 161 38 3 154 183 148 233 7 90 15 221 242 209 38 1 204 82 233 10 8 140 22 167 3 157 148 189 150 255 193 43 71 237 75 1 78 56 247 91 239 185 77 166 3 114 138 12 244 114 225 22 201 87 23 63 70 100 65 164 72 
156 224 206 54 91 85 238 51 174 49 23 96 84 192 118 18 42 15 82 235 120 194 225 14 110 250 137 29 30 34 68 162 6 89 14 0 227 232 182 65 99 98 236 187 57 112 226 138 236 39 194 220 53 168 113 167 101 243 90 19 93 242 228 203 38 126 119 66 194 45 21 150 124 38 198 114 105 203 93 186 114 148 52 53 237 105 119 132 89 136 231 33 28 40 166 245 102 166 19 151 
129 241 8 54 208 35 179 98 95 203 38 219 75 245 139 202 233 167 165 59 5 228 17 173 221 47 217 61 255 68 249 12 232 208 245 65 254 224 199 240 239 94 233 170 215 254 160 4 215 230 81 106 119 47 252 45 107 35 229 222 230 248 29 130 175 251 32 214 81 183 44 167 73 3 56 241 140 117 156 41 208 100 146 92 85 246 27 217 151 162 183 19 21 88 84 137 12 192 85 224 
49 139 147 2 149 145 238 53 245 77 4 110 196 155 49 52 149 32 4 49 56 164 180 22 222 67 224 195 255 223 140 167 5 169 108 243 85 237 169 233 199 93 254 236 189 147 96 150 163 243 18 201 8 237 245 228 131 194 162 2 218 7 148 223 36 217 156 86 8 160 223 224 61 188 210 39 23 77 200 234 162 119 5 107 226 24 207 144 210 78 250 79 221 1 193 29 95 115 119 112 
6 108 95 150 40 16 216 129 232 66 13 130 187 171 212 235 136 0 204 168 67 86 210 205 71 100 56 29 203 67 181 184 241 12 166 161 79 137 214 221 150 195 55 208 3 174 254 92 192 198 13 15 192 100 199 174 147 60 231 172 42 215 120 124 197 75 84 85 195 222 139 202 19 219 80 76 25 27 75 29 204 180 186 12 180 112 203 250 177 140 180 41 97 31 238 215 11 165 153 42 
249 176 88 153 246 223 129 159 33 220 110 138 250 74 41 38 66 237 79 124 245 121 208 168 72 231 146 185 52 207 194 236 52 150 145 140 69 76 101 150 188 79 105 19 15 78 186 103 159 48 254 130 75 232 209 159 85 222 64 66 178 95 250 254 128 104 198 111 151 53 162 137 158 115 13 99 170 2 206 96 52 56 24 39 124 174 202 221 215 251 96 189 61 159 178 117 131 134 202 182 
147 105 29 226 49 238 53 51 100 182 206 196 61 130 129 166 205 251 148 219 139 198 67 112 96 85 113 39 186 97 45 61 16 177 34 7 21 164 55 14 100 222 38 181 104 42 198 250 10 242 215 234 109 177 153 90 157 240 86 1 40 248 37 145 35 239 254 218 154 201 63 106 93 19 222 231 204 222 209 212 104 111 238 40 103 167 193 229 200 121 52 0 241 87 215 138 50 117 175 175 
4 178 239 24 13 90 77 96 128 180 119 112 218 49 231 21 250 62 114 28 136 157 182 245 243 192 95 135 203 12 184 242 37 210 223 182 195 194 92 137 183 254 93 111 212 250 169 81 7 205 80 248 22 195 29 218 127 164 81 171 221 18 158 106 199 89 143 228 205 199 125 85 170 179 231 165 33 81 66 127 146 240 6 151 126 242 182 206 170 186 100 166 229 132 223 66 34 41 157 120 
54 117 14 67 80 147 229 170 242 172 193 90 154 233 218 111 56 190 205 127 169 245 161 110 61 122 4 182 159 47 42 170 42 74 157 69 127 142 34 54 17 138 52 229 194 14 213 237 191 13 247 171 71 72 116 210 112 41 162 113 15 232 43 73 132 163 132 25 25 27 180 14 214 11 45 172 136 195 233 144 129 141 163 194 158 18 127 52 185 246 204 84 15 78 137 43 87 147 25 90 
