P2
100 100
255
200 199 66 99 131 149 238 120 73 38 82 98 203 74 127 141 243 218 11 20 81 64 151 83 152 32 34 34 13 181 174 129 226 33 151 110 193 144 79 14 122 51 57 236 91 208 72 149 2 199 71 68 185 19 173 124 3 169 238 159 174 203 177 172 200 243 222 66 96 59 77 86 232 88 87 121 251 154 108 68 141 36 22 26 91 226 127 211 231 158 12 175 97 87 145 54 160 170 91 190 
147 227 71 230 249 1 194 53 228 173 23 102 95 109 78 183 87 31 220 182 182 51 79 237 119 136 66 116 116 79 170 127 77 152 190 8 126 97 112 152 246 48 106 44 31 136 211 110 51 99 58 210 96 5 241 14 127 99 11 18 199 29 220 109 155 82 137 67 234 139 94 153 95 87 255 86 73 204 200 154 148 13 167 55 143 242 150 88 244 171 9 156 104 183 176 174 249 194 114 194 
129 68 124 87 210 182 177 109 242 219 60 17 243 230 6 117 23 106 165 22 16 25 208 115 173 184 126 112 190 51 12 194 108 67 127 87 62 110 85 239 246 116 71 97 31 226 149 155 170 45 152 171 13 232 18 244 119 158 92 175 224 245 194 214 142 205 142 37 221 53 67 176 163 183 136 206 220 176 163 18 133 88 9 90 114 62 48 205 217 180 210 87 214 32 156 228 201 70 80 104 
115 152 124 23 150 140 169 231 219 4 202 50 152 68 186 136 149 173 228 245 231 143 23 242 76 92 14 252 231 29 193 147 193 51 95 34 17 147 154 25 48 203 94 82 28 88 253 135 74 116 163 131 173 141 9 201 167 112 235 231 117 118 206 84 118 29 190 171 215 157 189 126 218 100 168 101 134 160 160 79 92 26 194 169 16 84 113 238 40 24 4 198 242 120 156 24 192 126 152 173 
116 210 119 216 101 39 149 68 131 133 65 50 172 121 202 12 3 1 215 197 33 246 178 192 109 124 227 200 64 192 56 91 46 80 115 58 147 103 66 166 240 189 251 199 63 94 39 159 213 30 120 131 110 129 110 63 16 17 242 148 209 68 237 66 244 220 85 22 19 62 253 133 204 4 250 150 89 228 87 145 179 168 11 14 205 222 245 41 177 62 95 99 98 69 182 170 148 50 215 24 
22 219 234 146 212 131 68 233 93 223 108 21 93 145 97 137 176 19 207 194 156 95 234 128 198 20 16 31 205 250 80 220 192 166 189 38 2 13 146 100 121 203 106 17 58 184 229 163 50 79 131 158 249 172 153 98 217 80 207 88 44 198 11 176 209 95 81 17 53 115 52 148 204 60 192 168 116 91 236 249 231 44 42 176 8 237 159 217 129 34 9 205 25 194 156 224 191 35 115 174 
88 193 110 245 254 245 0 129 123 164 44 192 221 127 191 56 244 57 121 154 35 159 194 64 221 252 68 32 49 214 132 168 84 237 82 3 40 162 105 147 236 237 159 16 130 102 108 48 182 123 240 101 3 14 69 167 193 25 195 129 85 148 44 206 229 83 3 27 106 112 254 46 203 80 161 18 171 9 254 40 191 220 97 118 178 115 48 255 22 32 141 35 41 213 18 53 120 127 188 77 
137 220 73 26 252 33 68 185 164 75 133 0 1 246 103 247 165 239 20 119 199 201 100 5 103 215 124 148 183 150 120 194 114 99 137 143 183 29 228 225 114 251 25 188 97 190 112 26 51 1 5 241 88 79 209 23 228 88 58 177 229 252 143 102 85 5 230 240 50 131 175 140 122 174 66 40 16 242 199 224 48 197 179 131 237 89 62 90 79 184 166 115 93 255 146 36 120 87 68 160 
200 250 14 159 4 184 191 103 173 255 223 117 212 213 68 147 132 140 46 212 171 112 196 104 68 197 40 150 93 126 168 46 162 164 160 209 64 80 37 187 116 211 219 172 0 92 101 81 241 54 158 26 199 231 196 172 128 172 97 172 41 169 97 100 246 162 253 187 102 15 119 184 25 227 242 78 228 44 190 197 5 238 67 218 126 90 53 235 82 33 65 178 157 42 43 8 24 239 193 105 
24 153 30 29 119 101 224 113 210 154 10 86 25 145 197 83 100 55 244 43 140 115 184 91 78 38 180 78 130 27 131 180 26 242 232 203 187 208 30 224 158 7 235 217 226 208 220 106 78 229 79 216 16 42 16 250 75 30 222 1 158 153 232 124 83 174 237 149 85 163 89 226 158 145 78 151 157 187 114 34 56 219 71 60 18 244 44 4 28 189 129 59 100 53 214 119 120 189 237 227 
104 250 10 190 43 23 46 75 177 153 25 4 238 19 171 214 248 231 121 212 209 34 211 3 207 109 182 20 35 210 201 228 91 17 211 10 174 109 247 39 169 37 117 210 181 62 56 82 158 135 93 76 10 232 66 110 247 205 240 80 91 219 0 220 231 244 221 247 165 34 165 138 183 93 239 226 51 33 200 105 128 249 224 133 75 84 16 240 206 167 139 147 197 198 230 186 69 117 47 161 
94 199 135 156 150 110 120 164 152 75 79 55 134 81 230 111 57 226 89 200 232 74 25 176 142 114 44 220 41 201 204 121 35 205 124 3 24 235 224 242 111 244 18 216 44 180 175 112 201 152 63 0 5 66 237 223 121 19 22 68 103 62 125 182 202 50 65 6 200 98 171 93 223 57 69 80 50 130 56 41 214 8 108 36 68 17 22 74 76 199 76 60 0 221 216 30 211 116 253 204 
47 8 236 249 207 86 249 107 217 249 130 151 63 187 44 81 214 175 61 20 163 211 35 136 128 228 145 42 225 164 247 88 150 203 198 102 93 111 181 25 176 245 102 37 33 207 3 94 78 176 248 115 161 65 58 39 219 236 198 3 217 23 67 209 245 22 39 183 16 76 236 244 207 93 49 231 126 90 187 134 162 174 52 166 21 65 78 56 90 253 173 140 246 58 43 157 122 231 231 37 
87 153 184 85 164 139 145 93 247 135 121 44 168 206 87 186 86 241 14 156 88 38 89 45 167 70 57 26 203 97 162 105 128 144 243 161 215 45 66 241 84 87 250 204 2 44 161 14 82 54 98 68 22 210 222 104 216 90 22 97 218 93 7 82 198 199 223 246 83 225 200 138 242 89 253 208 205 146 87 241 151 46 159 64 207 142 182 61 167 156 174 223 56 103 88 98 232 199 134 65 
135 86 37 55 94 184 157 11 136 123 142 195 34 115 231 47 27 202 236 137 20 251 34 79 74 237 82 106 25 111 60 160 166 67 158 156 193 201 221 34 32 115 27 69 226 217 246 154 189 71 103 219 77 186 166 80 178 13 58 218 211 112 132 71 163 132 129 247 86 251 141 47 36 108 199 76 193 14 168 248 21 174 239 220 21 52 253 138 183 218 98 96 230 9 19 122 59 123 211 87 
44 236 2 51 172 88 62 117 93 90 145 132 71 80 71 240 142 115 87 113 212 224 86 183 195 118 49 205 186 140 101 48 41 214 204 160 244 142 20 91 169 83 122 244 70 238 191 53 9 135 188 113 50 194 214 189 5 224 34 48 85 94 49 43 214 20 97 223 25 116 154 136 105 46 222 108 220 169 253 109 109 220 249 135 211 249 133 110 6 135 50 156 40 132 96 89 95 235 248 210 
0 18 184 161 20 81 82 239 85 166 100 96 1 41 22 15 141 191 15 105 235 229 90 197 113 170 234 27 204 206 128 138 166 50 91 196 120 252 54 141 181 128 212 217 98 161 100 108 80 74 241 143 217 158 174 16 167 67 38 100 234 165 41 211 241 81 167 86 31 98 170 141 70 23 232 50 99 165 190 2 63 162 217 206 79 149 73 173 37 157 108 139 150 179 127 8 17 173 39 158 
95 33 161 29 159 150 109 24 14 14 182 207 73 245 164 246 43 143 55 79 47 150 221 209 47 17 248 96 88 2 138 145 170 118 209 177 225 201 4 93 242 218 83 195 75 72 7 43 174 66 91 49 42 24 73 248 51 216 232 110 252 5 237 242 119 167 219 14 38 201 67 243 141 77 93 133 83 74 152 114 40 166 136 207 4 241 37 104 61 78 228 6 46 205 162 110 130 176 41 126 
53 116 227 24 139 217 58 15 46 235 180 31 222 42 180 24 133 106 131 106 25 38 156 167 117 113 89 100 38 240 191 2 65 58 103 198 233 209 234 10 15 185 83 141 23 231 153 103 231 25 8 175 20 181 50 71 4 88 156 99 138 8 178 120 17 155 87 40 143 150 48 217 245 89 36 252 139 91 129 30 252 236 159 13 63 204 232 222 162 49 43 255 138 22 30 199 103 163 164 67 
154 130 210 238 194 179 161 35 124 184 140 236 56 4 204 122 255 206 245 223 247 184 57 187 193 131 59 37 189 12 194 16 74 198 183 202 46 231 134 163 194 2 112 211 134 30 48 229 207 229 64 226 137 178 165 94 153 248 8 43 69 25 105 186 154 61 242 135 15 253 63 251 11 254 229 12 50 52 36 130 192 168 39 28 30 218 255 18 35 145 92 104 110 155 219 116 26 93 151 153 
152 248 26 44 224 94 235 145 108 142 72 88 59 54 222 182 76 206 254 10 83 143 121 104 7 143 148 23 194 158 42 253 198 110 24 48 191 76 176 168 223 134 105 245 183 75 61 237 60 3 188 131 240 150 182 62 76 227 66 166 74 27 43 251 93 182 202 209 35 151 73 168 238 201 95 202 247 129 32 189 165 70 98 114 119 83 92 127 2 227 8 209 183 231 87 150 144 181 117 214 
38 119 161 98 201 60 118 151 252 173 12 137 204 152 238 59 209 43 254 253 25 44 41 128 117 142 255 63 39 105 22 14 231 65 79 75 232 149 38 32 169 30 111 109 139 169 165 140 81 144 46 215 76 98 127 248 185 95 221 91 109 143 158 203 4 27 246 201 9 187 141 194 170 177 146 169 70 44 218 94 227 125 181 53 5 229 110 15 198 162 166 106 169 133 121 147 76 235 188 123 
136 219 104 6 202 197 151 47 18 127 42 25 38 249 160 42 244 139 19 197 141 211 6 32 108 227 45 114 25 41 250 140 196 35 217 17 161 148 15 251 170 148 66 155 23 56 119 251 130 237 82 21 136 38 180 76 230 104 123 112 43 184 211 7 49 201 97 134 255 42 69 198 183 161 237 82 104 3 85 79 146 141 182 80 192 138 71 157 119 245 138 178 241 202 15 76 213 105 151 16 
64 49 162 241 96 189 134 155 72 72 54 88 74 199 142 26 118 153 58 249 125 104 246 197 159 226 183 106 7 123 237 78 203 161 252 67 81 142 110 40 2 25 69 189 239 130 71 105 240 29 77 170 250 83 128 82 1 203 74 131 41 18 108 231 80 247 83 89 22 76 35 37 28 182 167 25 140 25 45 66 147 236 228 131 158 153 35 162 122 41 220 238 207 67 154 212 32 127 177 151 
185 72 116 85 112 190 10 43 84 95 6 248 151 247 200 81 23 24 230 131 159 243 123 220 214 145 129 172 29 214 201 13 244 24 58 95 80 0 10 46 70 122 91 88 165 204 238 24 229 101 92 230 133 100 103 136 104 225 101 139 181 247 222 247 162 71 82 37 172 86 37 13 203 169 215 41 78 128 196 209 145 172 234 150 93 130 55 233 84 94 159 184 216 74 71 233 88 162 31 83 
251 242 134 138 170 211 162 112 102 90 164 81 228 26 23 180 52 242 6 59 17 47 240 213 43 138 163 215 156 180 68 143 212 48 209 210 7 151 97 30 246 224 106 47 37 138 87 144 151 108 49 226 68 195 38 9 20 224 216 116 10 65 64 49 74 124 23 80 130 157 237 49 26 247 165 121 247 26 226 46 38 140 198 17 105 175 183 7 199 200 121 159 17 79 138 251 66 221 63 172 
29 177 127 26 112 23 50 204 250 73 88 154 112 210 229 215 54 147 237 3 139 238 145 20 134 179 94 194 83 188 124 78 173 247 63 48 71 93 191 116 102 102 3 126 82 92 220 227 86 167 246 156 180 7 251 42 98 65 118 43 190 190 214 155 121 24 246 23 112 55 14 114 58 229 160 123 92 4 201 25 1 204 197 213 192 174 76 17 88 212 24 186 203 0 107 64 147 233 169 150 
89 115 170 172 90 188 144 121 74 239 95 7 85 61 171 115 1 54 69 20 54 186 178 55 135 199 161 166 8 202 160 183 24 101 82 187 64 114 6 38 170 33 168 173 69 220 201 108 156 47 208 239 192 16 12 101 74 237 45 254 246 139 21 102 59 160 11 32 142 129 130 11 29 162 166 90 67 51 76 39 70 217 169 111 241 8 25 38 105 99 145 180 82 219 173 153 14 132 86 181 
50 23 188 101 192 33 2 102 225 153 101 187 33 222 205 107 180 9 160 207 162 126 224 89 209 214 11 208 111 175 194 125 202 230 111 91 236 177 243 21 121 116 249 120 103 210 84 186 250 104 172 62 4 128 255 98 69 189 191 165 86 208 177 173 76 191 176 223 201 221 225 60 109 226 135 85 196 182 62 48 80 38 85 232 116 179 29 118 43 241 22 34 112 96 9 165 161 131 178 222 
99 198 66 92 100 124 185 33 7 212 28 94 70 202 83 48 145 144 127 10 157 92 242 23 100 39 221 214 250 64 245 110 54 188 65 204 82 87 59 109 237 183 23 12 24 109 143 65 76 124 194 159 206 90 225 200 53 197 76 36 87 15 29 217 159 151 58 121 22 51 124 156 146 252 85 144 179 179 130 122 212 230 195 36 120 77 164 57 47 17 180 217 155 218 202 191 67 181 42 187 
133 255 29 160 147 209 235 65 126 227 118 228 104 108 99 13 112 148 60 105 164 115 123 162 55 68 76 46 80 98 160 128 114 6 221 173 239 227 251 174 194 98 13 106 230 179 44 134 69 202 6 20 50 196 150 24 46 56 178 168 45 112 162 110 43 31 189 86 185 186 205 177 200 216 113 17 214 241 40 89 72 120 1 236 53 38 255 18 248 7 53 177 51 73 119 92 204 40 241 53 
36 75 97 103 217 162 57 156 157 145 228 56 120 0 89 5 114 83 246 176 215 189 80 62 41 28 16 22 221 47 157 129 221 155 163 9 251 200 112 206 133 151 208 208 197 192 228 194 36 142 115 134 106 30 178 126 161 71 41 179 53 140 46 165 133 119 194 11 131 217 51 90 193 211 27 224 54 79 192 224 51 231 45 17 212 146 203 208 212 51 73 218 165 140 243 167 76 48 63 173 
30 82 97 165 149 151 131 202 106 234 84 43 54 24 98 64 193 240 255 225 119 70 114 5 125 85 117 233 81 54 117 110 109 55 227 61 203 69 93 201 137 242 10 125 78 64 184 170 86 122 25 158 58 85 63 69 239 204 104 167 155 101 249 117 84 213 111 202 163 64 255 77 231 38 124 16 232 115 77 110 214 213 214 98 96 108 157 197 55 102 33 170 54 204 175 24 234 7 213 199 
223 87 148 185 24 187 128 75 145 70 184 49 107 189 255 190 239 106 20 228 76 32 0 194 226 180 252 60 68 40 127 239 48 28 42 20 241 49 148 39 48 147 232 76 192 132 118 131 83 230 110 232 64 182 95 28 157 209 43 158 199 151 189 142 86 242 27 193 241 139 231 123 42 93 146 199 217 15 67 0 227 168 148 135 19 119 130 173 105 203 240 248 155 145 252 191 11 170 80 251 
133 170 215 253 133 236 116 177 255 75 71 10 248 251 27 234 222 16 160 174 186 94 179 244 76 44 210 104 182 166 203 147 176 107 44 119 2 188 219 54 159 222 149 216 109 182 247 154 245 209 239 176 229 228 94 143 241 54 68 214 165 162 205 61 118 104 214 6 90 204 96 101 178 36 133 55 205 11 55 235 62 1 22 142 117 18 56 71 172 91 207 185 154 182 224 163 190 116 209 36 
91 62 117 106 43 252 183 37 119 185 225 88 47 131 204 27 126 233 245 98 226 208 78 73 48 228 205 251 31 77 196 198 87 30 201 158 42 133 208 27 114 70 179 80 89 115 192 134 53 232 80 63 170 29 120 138 229 145 193 11 224 133 24 213 221 3 50 51 111 194 141 25 44 29 243 234 253 245 190 198 230 106 233 132 6 118 214 86 120 220 3 216 249 126 11 190 200 240 124 29 
218 53 34 19 42 167 164 226 133 26 210 249 226 23 103 38 249 226 79 132 47 51 104 131 18 250 58 50 222 233 111 189 172 255 152 105 205 233 194 182 252 78 143 103 151 86 244 59 79 128 218 26 212 108 138 110 169 152 232 163 178 198 137 62 97 155 34 121 119 171 86 225 237 225 132 191 253 240 35 218 71 96 129 224 189 247 228 91 5 209 53 68 39 23 212 211 106 203 247 67 
91 209 102 74 206 91 169 134 161 8 30 153 46 126 107 140 229 23 64 236 215 127 129 163 10 196 186 47 163 42 176 141 208 36 184 204 241 34 2 169 30 158 246 144 146 89 46 48 169 179 104 193 51 180 29 251 217 96 73 141 140 61 50 196 247 230 29 44 253 228 175 205 194 7 209 71 184 227 222 169 77 233 90 30 90 85 207 58 71 41 151 225 176 57 29 210 183 149 22 219 
115 201 215 241 9 95 198 19 99 77 241 154 158 146 236 233 174 11 207 115 183 234 163 83 88 212 90 168 215 209 23 97 21 0 149 67 121 183 111 64 35 145 61 14 0 140 152 164 140 185 107 29 239 28 162 73 80 29 77 192 246 13 210 139 255 175 207 101 251 123 55 7 74 25 170 32 223 112 6 106 95 12 241 163 88 5 187 245 85 227 98 34 150 187 100 223 158 111 249 7 
158 220 191 125 106 207 50 139 98 245 200 115 141 122 251 240 220 114 98 82 248 167 9 140 118 60 143 218 130 242 207 125 72 118 65 49 57 152 208 168 38 175 121 181 4 48 67 61 162 212 60 114 201 33 128 143 81 187 15 233 252 146 189 166 24 22 81 159 59 155 68 171 46 17 85 202 14 236 166 78 228 213 101 189 41 195 225 228 65 61 184 19 159 185 81 119 84 143 1 182 
184 67 164 243 194 137 154 12 33 222 252 140 133 63 5 71 189 233 6 10 201 1 85 174 22 134 204 142 236 223 48 52 52 132 40 234 166 8 203 43 140 134 220 229 95 108 95 52 62 213 252 10 201 118 7 69 31 232 185 212 131 194 239 167 149 254 199 17 148 133 60 183 66 204 88 41 231 230 95 230 133 107 158 109 25 112 41 27 58 219 143 42 134 21 76 200 39 106 69 163 
133 71 52 31 192 139 90 60 173 109 233 0 101 104 200 17 16 81 206 46 8 248 245 86 151 157 17 168 45 26 125 111 247 7 143 64 197 141 151 31 16 255 23 162 244 131 160 109 185 189 250 93 191 44 220 95 132 30 113 55 22 38 25 87 72 56 163 169 129 220 140 183 238 124 54 177 175 234 216 237 98 131 65 50 55 92 55 95 177 141 157 5 135 177 138 184 128 35 59 136 
46 37 1 164 200 251 58 169 162 36 108 119 52 30 12 91 101 186 160 229 18 113 214 192 130 146 153 46 70 73 223 151 47 11 92 66 199 41 47 169 211 195 118 251 16 59 41 86 185 204 146 109 58 242 3 151 20 43 122 165 180 187 7 62 203 235 107 151 148 97 242 157 236 35 46 171 71 232 97 92 105 176 233 113 48 233 28 198 236 235 44 227 115 186 162 43 161 143 17 70 
210 60 41 123 69 225 81 44 201 156 161 43 91 31 11 2 152 228 155 174 44 226 96 157 230 186 72 22 192 20 188 237 187 147 81 201 73 102 7 252 175 215 231 197 28 211 151 84 199 38 18 224 51 22 40 37 152 31 151 245 99 41 61 144 204 40 240 41 25 2 160 216 145 26 119 118 194 251 207 7 159 121 148 156 214 104 194 147 165 250 251 3 96 110 135 17 109 68 180 202 
136 35 75 254 16 141 37 162 56 218 95 176 205 101 223 67 27 152 141 168 68 198 18 50 249 200 192 20 242 57 11 21 90 58 80 132 232 221 208 131 54 101 86 24 185 88 104 225 71 199 237 200 51 204 208 119 35 105 59 223 207 208 254 168 121 53 147 135 211 236 217 127 175 137 29 204 97 49 116 82 82 86 135 53 175 228 131 33 57 170 22 25 235 224 201 234 212 189 171 153 
81 204 87 144 138 46 5 251 152 137 152 111 63 38 27 115 129 161 218 230 22 212 172 198 236 36 181 149 1 100 166 106 43 101 166 172 74 9 246 75 98 117 200 76 253 97 69 42 87 212 191 50 181 221 223 151 47 124 158 49 57 35 210 222 33 45 142 205 147 199 241 41 148 175 252 45 172 123 101 157 65 22 164 128 49 90 31 16 88 94 10 188 108 198 254 70 54 224 8 45 
90 207 248 83 144 6 16 123 6 7 72 114 236 124 103 87 246 135 172 75 251 100 102 15 33 50 20 71 15 69 101 170 212 156 62 229 245 183 148 52 216 69 179 220 133 191 5 204 37 116 221 86 24 27 171 69 112 65 68 239 25 254 9 114 54 252 148 78 185 211 16 177 115 139 191 176 219 180 148 70 176 129 19 19 213 228 98 240 45 241 175 34 150 23 225 214 21 86 77 209 
91 34 248 201 153 57 184 207 91 189 243 126 186 137 15 19 80 87 209 166 142 211 245 71 253 64 84 167 151 119 219 205 37 43 53 80 254 44 26 165 84 235 172 83 49 165 193 171 134 212 26 135 167 102 174 206 122 243 232 84 68 94 109 33 182 130 161 176 116 137 111 186 59 155 109 211 48 12 90 175 166 107 180 231 84 72 15 125 67 160 81 46 211 243 25 178 239 119 23 115 
5 193 136 46 27 92 24 184 103 115 158 224 161 3 231 187 125 226 204 177 228 111 188 132 64 80 21 122 177 141 79 140 178 158 200 143 175 57 192 1 80 96 68 240 151 14 66 24 91 92 36 87 148 193 148 193 210 125 226 70 4 7 62 195 165 223 253 70 101 81 12 226 254 111 93 34 157 84 142 196 196 35 110 59 42 56 1 143 148 68 17 6 3 166 138 132 190 187 59 6 
172 118 233 93 192 110 159 56 22 96 25 10 36 44 172 179 243 56 239 12 188 164 33 115 7 227 24 213 235 21 111 85 174 7 28 234 147 177 220 120 26 76 248 3 210 178 224 2 196 12 162 10 98 35 233 193 80 140 111 253 140 10 149 113 45 88 76 75 58 248 197 181 83 111 98 5 189 179 17 19 169 30 209 119 207 38 249 211 195 168 105 173 3 2 39 245 249 230 55 9 
30 180 132 102 29 222 90 115 54 210 197 165 16 97 174 109 185 66 52 72 108 225 87 67 242 43 117 39 29 169 197 150 133 77 132 161 238 252 213 53 91 176 28 90 161 252 69 219 65 62 243 93 221 169 171 112 206 161 159 92 241 48 144 38 84 71 142 147 225 247 52 214 254 250 241 30 151 72 129 142 116 118 48 254 61 137 126 182 43 179 65 233 0 120 151 125 96 180 187 26 
30 248 145 211 54 59 6 44 191 54 244 97 103 93 249 44 141 25 160 219 42 57 33 59 251 31 86 129 37 40 73 28 166 17 223 232 180 114 185 75 85 29 84 47 177 122 213 193 23 82 241 231 152 147 169 201 185 123 150 204 171 167 43 157 218 206 34 135 253 73 90 117 41 121 116 91 238 192 120 143 13 121 172 37 226 95 234 161 253 161 7 94 121 73 13 159 110 101 43 152 
132 149 24 171 205 166 52 87 77 235 22 210 197 21 164 223 119 19 0 170 65 185 11 255 192 220 199 253 249 173 216 248 48 255 5 161 72 64 37 59 225 20 2 66 129 156 24 75 30 61 100 216 199 67 44 9 115 234 251 20 45 112 120 128 118 212 13 110 53 237 19 196 174 60 244 151 233 30 52 106 23 153 148 93 158 133 198 109 54 18 72 179 76 27 175 22 12 232 44 156 
238 113 88 9 75 110 104 203 67 255 202 32 63 24 178 230 55 199 90 177 109 159 59 31 230 27 31 165 35 252 98 109 115 86 3 66 3 187 70 91 84 193 187 56 172 130 182 136 13 144 112 101 73 252 77 116 123 121 155 194 216 171 159 151 128 15 99 66 102 240 13 23 192 226 103 174 3 40 143 238 212 23 130 16 26 233 229 97 1 237 107 230 15 30 255 214 241 51 117 237 
142 0 239 191 130 187 49 20 107 82 158 67 72 18 242 159 138 74 132 41 143 45 231 91 130 6 47 34 144 166 4 152 243 154 233 130 221 196 11 231 48 45 218 205 187 175 232 113 23 79 225 176 118 147 118 142 128 112 156 38 159 242 190 178 0 4 74 249 192 70 38 215 49 11 155 170 15 37 143 67 112 127 234 202 151 24 162 198 155 119 123 226 115 120 160 255 170 46 69 180 
113 120 220 8 158 77 97 74 228 80 116 199 106 51 203 234 255 34 19 115 89 89 219 2 218 90 236 255 24 107 170 45 110 100 153 84 114 114 98 215 171 193 35 193 157 77 193 182 132 95 64 96 140 173 122 206 64 177 49 3 251 147 83 114 162 28 153 234 31 96 82 7 194 243 56 241 207 124 59 8 78 188 20 155 123 44 102 189 158 59 169 10 52 118 183 246 117 150 32 171 
2 197 131 165 91 240 135 15 210 199 219 26 212 48 37 25 125 50 237 98 79 52 105 189 84 182 127 76 64 177 33 148 224 252 32 66 109 42 22 240 131 124 217 133 171 188 164 167 36 29 34 70 153 206 54 87 190 59 82 95 23 182 144 110 249 12 229 144 117 124 116 240 184 12 181 248 85 68 223 214 57 16 172 97 8 225 136 254 178 82 58 53 58 166 227 38 232 25 20 140 
158 176 52 177 0 97 174 252 32 37 147 150 214 146 74 159 220 106 195 211 218 6 69 8 231 226 166 76 55 84 157 5 232 132 231 189 135 211 97 203 180 104 172 255 251 55 202 179 220 59 204 48 78 161 175 166 210 50 29 217 216 227 190 52 17 211 113 203 49 230 93 20 82 29 240 157 186 32 148 121 114 200 138 125 79 28 60 61 75 93 161 62 224 33 14 135 210 95 39 57 
224 40 82 249 108 227 138 96 42 213 101 163 129 131 79 45 251 55 103 28 242 107 43 40 212 150 115 169 179 71 32 31 38 66 138 204 43 80 113 22 108 42 154 249 82 230 249 236 141 47 99 87 45 173 166 217 21 75 48 39 238 132 247 241 38 175 250 249 122 80 85 218 100 224 155 163 149 59 221 16 128 232 121 131 157 143 90 116 75 247 231 106 214 59 28 44 112 211 52 188 
210 160 138 223 29 12 150 94 75 21 98 182 215 38 166 147 155 136 0 65 5 91 92 183 43 13 87 76 214 145 246 206 2 14 202 227 75 67 114 17 212 98 126 154 246 130 242 237 150 118 36 192 147 224 93 177 141 18 101 138 199 52 230 234 121 2 182 156 75 187 115 254 197 169 248 42 242 185 245 57 173 45 215 134 11 92 203 206 207 175 197 177 153 216 52 14 130 38 111 215 
23 153 198 93 96 123 30 94 37 252 177 17 255 211 151 5 224 246 125 25 64 214 72 15 40 109 125 186 98 217 222 24 24 78 62 74 113 240 96 141 46 183 40 51 20 188 49 125 85 241 27 125 137 107 44 121 206 44 139 83 43 189 159 205 16 178 84 100 128 192 178 213 213 53 200 12 181 84 237 187 197 93 97 160 93 1 13 147 213 49 167 213 90 122 175 114 241 29 180 252 
183 206 206 49 240 92 187 187 55 148 25 201 60 62 173 98 208 0 196 86 166 37 253 153 158 95 182 19 217 130 98 71 19 193 121 4 111 124 120 82 241 46 15 100 97 209 115 163 99 34 17 134 134 100 40 233 167 189 57 123 223 115 244 105 252 124 211 164 105 21 202 239 99 67 20 32 236 24 64 20 176 92 211 162 241 37 134 136 8 191 202 115 123 73 69 59 243 96 78 217 
42 4 166 235 247 199 40 18 124 113 63 49 161 249 235 243 200 7 216 121 23 164 70 91 145 34 169 154 73 106 96 45 4 38 211 154 77 94 216 197 23 87 200 138 106 107 245 45 47 33 215 99 175 6 27 240 222 240 163 238 107 93 41 15 163 76 222 226 225 148 69 79 72 76 66 160 217 47 125 197 51 2 160 59 188 227 8 198 120 111 213 188 98 154 212 74 6 42 117 222 
254 134 63 25 150 64 107 179 47 96 33 244 33 142 151 72 128 51 39 238 154 131 115 44 200 34 18 3 63 55 47 248 89 173 206 104 152 25 42 86 131 14 196 208 6 235 99 4 125 134 126 24 232 90 186 116 68 246 4 223 125 28 203 28 35 98 87 187 85 71 174 203 72 12 245 134 53 201 33 209 252 110 228 69 246 192 233 115 181 127 135 9 224 30 36 188 140 48 54 83 
13 151 184 103 73 172 255 113 59 193 234 144 223 162 40 197 72 134 83 69 115 56 233 143 106 133 85 202 219 173 203 149 111 128 192 21 112 174 217 100 7 204 38 96 16 126 78 119 61 166 37 192 177 158 17 253 109 67 113 26 181 139 80 142 241 199 231 20 216 234 27 64 205 24 126 241 252 186 29 248 110 109 180 68 220 188 239 100 177 26 44 114 97 133 226 222 21 230 212 185 
9 58 21 5 89 17 13 245 133 40 17 114 81 232 194 187 155 148 168 52 178 207 34 121 182 38 30 51 22 194 201 63 201 133 42 51 19 48 239 244 51 138 51 83 175 255 57 193 137 180 46 168 99 169 4 173 74 204 147 158 35 33 184 55 71 223 144 225 128 10 175 177 95 189 172 4 17 26 109 135 110 170 120 148 179 148 33 9 9 226 173 183 156 159 210 25 6 204 105 54 
235 86 199 218 132 56 69 245 170 224 17 205 123 52 234 155 141 47 16 58 74 99 37 30 239 204 155 17 143 210 37 72 128 72 141 194 214 168 17 101 217 179 254 196 194 224 5 108 109 96 84 99 150 18 223 113 41 247 173 12 12 221 17 240 166 162 15 107 154 77 180 200 69 189 1 222 179 84 182 153 251 114 167 118 57 124 202 243 17 58 12 143 225 206 97 137 44 107 87 160 
52 217 240 243 113 104 173 174 240 235 158 242 156 129 194 43 7 84 246 148 201 114 109 205 31 15 136 78 15 30 0 27 134 140 93 202 72 77 123 63 111 138 194 174 45 114 10 200 48 24 7 2 137 204 8 94 76 7 114 47 58 203 115 121 108 48 46 119 251 135 6 239 111 170 235 49 214 49 77 219 35 12 83 42 89 99 89 253 221 189 102 17 7 254 42 53 145 224 195 71 
154 207 186 39 230 62 199 54 69 161 214 99 182 167 17 112 245 18 10 108 96 15 94 4 66 239 191 142 200 109 134 246 35 214 217 35 118 164 104 188 163 112 11 191 112 15 49 113 237 104 248 109 144 26 46 98 118 9 221 168 134 59 166 212 82 235 247 65 43 237 192 113 61 27 6 114 5 6 54 218 46 133 131 83 116 220 197 23 87 136 85 84 42 182 93 218 91 95 78 33 
253 141 11 152 4 158 193 108 130 230 248 84 208 184 191 148 232 86 212 193 98 117 33 219 124 4 61 24 93 219 210 35 236 108 195 39 223 247 215 178 238 74 137 232 32 188 153 111 237 243 92 49 203 41 123 15 15 15 40 94 202 124 118 163 88 73 242 116 154 209 5 2 225 151 125 18 120 22 127 73 64 130 3 78 216 198 247 48 183 110 172 21 201 161 156 9 4 255 108 52 
201 63 205 1 156 102 124 146 205 142 101 101 29 211 174 112 53 153 236 15 86 190 161 232 73 18 187 85 241 144 115 157 223 84 38 179 197 114 31 205 11 252 12 183 42 190 120 33 167 22 115 218 91 105 70 149 177 29 173 137 51 21 26 66 183 204 43 202 82 98 145 65 227 185 90 141 233 234 12 29 48 244 239 186 35 202 43 75 12 50 71 221 199 62 89 163 115 63 117 22 
158 160 28 50 108 133 0 28 226 3 10 3 57 137 126 48 26 161 147 149 236 184 42 227 61 238 7 115 230 101 15 103 2 216 207 187 171 48 254 200 218 168 47 18 91 14 12 144 0 226 1 35 194 171 127 233 124 43 48 124 124 41 1 90 155 20 68 212 127 99 86 36 197 79 145 73 224 216 24 56 7 15 144 152 195 254 53 108 213 144 1 99 9 182 62 110 211 213 160 231 
93 236 153 247 219 68 1 78 26 143 114 129 198 154 115 79 170 74 111 222 124 207 21 7 6 107 173 150 159 179 134 109 144 33 146 126 26 190 13 191 163 67 234 43 212 213 224 49 102 206 179 128 29 72 146 52 84 33 193 145 102 247 76 111 227 22 57 107 101 198 237 191 43 31 54 21 235 96 50 192 152 128 221 177 149 188 151 242 92 7 8 171 190 176 247 179 66 238 183 237 
225 217 92 222 219 221 194 184 240 152 59 88 7 154 234 95 101 155 92 80 78 253 218 144 159 168 169 107 142 174 228 230 227 33 55 86 28 250 100 39 212 169 216 84 46 255 131 121 72 82 43 172 124 14 40 172 149 56 243 83 199 195 79 88 44 187 159 226 5 185 181 52 12 20 133 92 14 73 60 205 163 48 216 11 77 132 124 92 54 227 156 216 225 240 72 174 157 226 95 202 
30 26 130 141 117 138 34 3 155 147 92 220 94 7 223 255 46 161 109 86 254 28 93 63 5 81 138 74 58 7 169 202 49 124 120 241 135 156 182 234 228 119 71 190 169 205 33 87 90 251 143 165 218 231 240 42 92 66 17 235 235 108 215 230 83 43 7 8 156 221 4 168 145 105 125 50 89 76 118 57 4 136 238 51 74 17 222 202 14 86 57 207 76 143 245 20 162 135 210 113 
62 205 189 122 66 145 55 190 102 114 84 213 87 42 185 176 124 159 19 6 58 128 171 207 240 93 104 154 174 201 201 76 3 100 133 45 143 105 230 35 145 50 180 184 51 143 179 237 172 163 247 252 113 47 176 95 54 171 121 186 210 1 111 152 179 131 120 128 238 16 32 134 44 171 83 104 107 111 106 148 25 220 76 241 136 65 177 218 139 113 210 216 33 123 133 199 95 123 71 181 
253 72 76 37 44 154 245 78 56 152 44 242 85 102 117 209 39 81 230 250 188 49 173 231 232 140 191 165 145 248 32 186 36 204 18 205 16 124 39 111 211 129 214 97 135 128 89 196 231 66 78 127 40 123 4 24 168 224 59 232 225 165 47 59 230 96 181 96 148 187 39 201 96 162 122 132 115 130 52 80 181 116 150 196 106 214 231 81 115 73 176 233 4 243 108 91 213 167 44 95 
114 49 196 130 205 155 101 53 84 203 20 49 151 158 141 178 25 10 244 232 79 18 30 129 202 190 130 198 14 223 108 169 239 59 200 96 36 62 111 100 236 244 250 149 21 216 148 115 193 208 251 251 162 175 243 40 212 2 16 35 87 45 236 196 42 30 96 9 209 65 55 200 104 59 93 102 182 174 220 69 219 116 127 219 93 240 199 109 63 55 154 184 53 205 88 111 216 157 101 118 
207 120 96 25 1 15 231 119 53 140 172 33 162 85 20 16 231 164 31 167 190 49 84 177 185 100 76 117 81 93 235 164 193 139 193 66 175 97 99 247 22 190 152 26 120 14 165 103 3 86 89 248 157 3 127 30 218 41 109 160 240 127 241 21 153 121 182 83 146 248 88 54 135 192 189 219 119 75 86 141 202 243 52 68 251 190 94 53 20 98 187 67 175 170 10 211 120 63 158 231 
125 195 226 100 10 145 69 125 76 244 145 212 209 136 135 41 77 116 54 227 60 220 108 20 165 110 173 160 30 59 155 45 233 192 177 165 86 194 28 227 44 71 253 164 68 192 97 198 165 121 170 177 118 12 70 149 193 1 198 125 210 177 174 254 16 50 130 205 8 141 150 97 50 191 0 171 144 201 101 220 27 236 125 157 19 179 8 42 114 179 229 171 68 127 33 242 71 39 129 239 
54 188 197 237 117 67 70 224 108 164 76 225 0 121 186 221 113 195 246 219 45 136 151 53 161 83 35 101 191 235 236 147 63 181 50 140 243 124 118 105 128 26 164 76 190 91 227 5 190 18 103 199 1 66 98 138 169 207 132 117 22 158 113 65 169 5 8 152 254 214 227 118 250 149 29 22 247 235 51 221 160 46 243 96 89 80 235 42 228 100 47 252 185 134 55 120 172 67 187 42 
144 67 1 50 252 165 117 60 50 34 216 58 31 78 163 71 131 28 211 21 82 111 252 45 172 151 76 137 64 72 182 37 227 57 227 159 2 44 162 14 182 130 237 97 215 249 251 127 205 164 92 170 215 153 45 36 61 214 70 140 78 186 51 24 187 240 73 192 129 120 222 5 212 43 50 194 244 209 108 159 27 79 39 92 146 182 111 212 90 255 24 37 252 57 97 96 64 18 117 105 
38 38 24 162 241 231 206 40 131 68 170 237 106 85 155 93 192 22 220 154 225 110 172 80 28 132 74 33 36 236 74 3 166 161 72 157 35 46 223 150 12 136 17 171 137 228 74 121 56 195 163 154 176 169 62 19 225 130 14 60 235 199 96 181 200 243 233 253 27 62 114 126 123 217 120 218 69 122 140 99 19 58 88 170 94 87 32 26 72 22 58 163 105 238 244 96 114 117 165 233 
100 112 12 22 163 158 6 220 1 23 69 33 134 59 170 103 239 121 109 70 234 188 54 113 225 210 251 78 8 145 143 137 228 167 64 151 140 253 32 95 35 60 42 253 104 22 41 144 219 212 231 89 77 111 19 36 143 128 98 199 240 194 58 136 237 186 160 176 143 13 212 122 149 107 83 234 146 66 22 64 204 187 80 143 228 101 107 5 132 1 78 90 17 9 16 36 255 248 195 166 
220 201 246 134 180 201 201 193 212 97 37 213 103 9 201 190 18 232 144 145 155 25 212 228 98 253 78 206 29 220 159 137 154 225 71 193 139 222 70 138 99 131 53 236 44 63 45 5 79 124 85 147 254 163 176 166 174 64 96 194 227 38 72 58 20 154 118 164 122 255 198 11 52 126 14 112 16 211 166 89 15 135 239 4 119 212 76 9 150 178 242 167 11 96 101 85 14 39 40 161 
54 89 98 97 182 156 43 218 251 203 218 104 211 107 108 19 170 146 173 115 249 153 44 103 65 42 197 172 142 77 8 178 211 93 76 97 223 231 105 222 126 41 78 160 40 138 66 97 149 244 177 180 54 176 235 184 23 207 42 238 203 211 50 149 17 140 61 76 36 241 87 119 64 176 43 30 210 252 66 60 160 242 199 200 168 81 36 33 45 183 180 17 168 185 214 20 36 233 39 145 
23 57 182 26 75 39 110 105 246 129 109 145 158 0 251 212 46 191 22 161 238 53 195 38 9 12 212 61 170 202 60 108 214 80 8 255 169 172 43 195 156 221 203 62 110 110 165 167 244 41 17 109 149 138 147 167 135 39 55 138 192 128 230 187 38 204 169 130 246 0 207 39 239 105 12 86 167 255 89 133 202 0 129 138 34 252 37 217 92 103 177 246 204 77 137 151 231 102 20 108 
92 241 204 33 20 193 182 22 29 16 107 203 206 170 88 121 146 238 112 122 84 255 161 7 9 73 130 214 132 142 127 107 72 156 111 111 239 135 58 103 102 137 105 200 28 199 36 122 190 212 59 217 145 43 197 88 143 249 105 166 81 74 244 88 2 190 165 10 204 54 206 161 199 94 4 14 131 196 48 109 178 29 190 193 145 183 18 51 199 50 143 69 20 89 171 211 99 92 166 44 
199 30 15 136 50 248 46 28 157 177 153 195 138 81 98 183 168 220 63 106 51 119 231 120 22 14 219 83 43 206 47 93 204 42 170 187 243 218 136 95 6 182 148 232 242 100 42 113 67 132 97 246 138 0 198 239 70 71 77 81 80 164 119 204 184 97 6 81 39 62 106 4 31 78 184 179 133 84 31 32 41 176 148 144 114 107 62 26 147 147 127 228 24 124 56 150 181 18 212 56 
108 221 241 149 16 83 228 66 214 206 254 178 233 221 44 133 78 21 172 9 202 230 150 24 172 223 190 150 145 74 135 219 247 185 33 193 175 235 240 49 203 13 46 217 48 191 215 207 74 147 226 3 3 126 54 63 229 19 140 155 84 18 25 18 193 241 105 163 176 145 128 35 36 2 91 116 69 254 187 10 5 116 84 12 76 198 199 240 113 108 186 85 5 51 182 144 27 78 67 26 
165 76 96 53 153 45 5 73 90 76 101 162 203 118 183 152 96 143 52 76 31 158 39 63 53 178 23 187 8 220 232 45 126 5 241 159 165 62 149 231 255 134 233 212 89 233 34 50 175 211 254 197 235 49 113 75 77 31 224 200 10 132 230 174 155 91 170 46 184 185 88 19 165 43 111 40 5 130 232 54 244 226 216 206 79 249 29 201 35 133 114 179 147 124 3 109 109 1 203 80 
210 138 54 171 132 193 88 251 87 3 216 88 215 194 73 118 177 197 172 205 48 184 251 255 236 75 83 134 212 249 190 253 156 183 0 186 161 101 160 100 153 225 210 157 193 211 174 230 201 195 1 72 52 5 111 38 131 201 51 206 34 156 85 18 7 112 168 172 218 133 118 19 126 244 86 54 214 93 181 177 183 143 34 62 101 231 176 37 229 2 176 199 226 96 153 245 46 125 209 178 
191 204 150 228 252 159 253 109 78 76 219 172 184 83 191 89 222 178 92 34 95 21 4 218 93 120 136 21 205 50 17 82 180 76 4 44 151 187 218 251 247 218 225 196 214 59 84 172 129 1 141 194 199 207 43 13 22 168 171 233 106 96 165 117 59 44 182 154 173 171 32 88 209 157 205 154 109 82 235 216 23 219 163 40 129 255 225 67 157 61 113 28 99 28 222 14 249 122 50 42 
157 123 20 35 188 185 240 35 225 220 76 83 158 150 182 112 26 130 92 206 9 162 32 168 178 9 222 213 105 234 34 67 204 153 152 34 126 80 232 238 51 68 236 109 8 190 201 76 112 194 127 41 154 214 23 31 102 156 248 236 165 139 11 30 233 1 44 191 6 161 41 83 24 122 2 41 50 231 236 126 153 38 4 236 84 5 129 149 42 4 73 103 214 161 227 90 207 238 134 82 
221 54 21 115 103 250 118 105 49 234 92 97 122 177 197 90 141 208 134 210 165 252 26 95 81 148 36 98 184 95 182 16 2 128 28 216 88 62 16 190 175 217 148 208 218 28 119 21 43 188 69 107 207 31 34 83 105 117 16 213 35 255 202 36 185 125 113 189 227 236 238 7 77 237 226 193 52 215 194 54 124 65 125 217 184 87 156 15 95 197 175 77 222 156 16 245 166 28 77 231 
194 253 208 51 169 138 31 226 48 183 42 141 180 22 8 67 145 203 56 59 71 22 23 190 185 41 121 189 154 47 208 211 187 184 160 93 201 46 62 100 25 50 252 111 101 15 47 36 2 99 171 135 205 21 246 229 235 179 84 194 180 35 119 120 244 238 160 200 128 225 250 94 22 108 114 199 78 98 76 144 6 54 128 50 143 114 224 84 62 216 101 79 186 227 34 97 98 228 47 147 
82 121 114 155 81 21 125 197 244 12 136 147 69 9 164 94 14 136 185 48 172 41 239 251 186 19 194 100 226 76 28 134 165 220 0 180 196 157 78 125 59 84 53 175 155 217 157 146 154 203 50 173 218 15 104 155 29 99 90 45 56 132 97 163 28 84 97 127 245 99 254 124 170 113 65 140 157 105 152 221 77 50 67 141 190 12 253 186 255 57 61 159 129 176 176 145 133 31 149 145 
79 53 96 224 224 252 120 125 135 215 88 63 231 210 104 229 78 219 9 90 113 95 147 5 66 102 216 141 140 161 206 171 211 226 205 94 201 11 70 248 189 212 37 101 76 79 126 118 146 231 220 46 187 28 128 183 129 98 201 105 116 116 75 38 154 241 99 197 232 71 51 186 229 207 56 160 75 227 186 199 194 5 77 37 54 156 44 57 100 72 170 108 10 231 96 60 79 128 189 142 
98 73 107 213 90 141 167 246 151 161 221 128 226 195 28 103 108 104 20 181 97 231 96 184 132 109 211 203 50 27 189 172 110 208 89 163 75 31 245 227 35 45 169 79 134 109 214 203 69 201 14 62 13 58 31 180 237 83 235 156 36 12 39 171 238 207 164 151 156 21 2 112 3 65 228 113 188 15 9 218 37 240 92 87 105 93 112 179 58 187 83 63 235 77 183 163 162 208 50 135 
154 17 92 195 205 240 42 247 31 0 210 83 74 1 129 76 224 221 39 221 161 141 178 252 196 215 120 135 216 249 228 54 232 41 155 130 80 231 179 162 30 251 108 240 113 46 138 5 105 146 239 81 46 35 70 51 38 83 103 157 58 239 11 23 172 166 90 251 101 250 110 101 104 14 47 212 142 201 14 62 114 0 136 2 180 133 221 140 221 38 177 51 239 148 96 75 228 232 38 5 
