P2
100 100
255
188 115 208 167 244 74 113 163 33 122 71 203 219 86 93 91 216 246 6 74 243 160 110 154 88 17 199 131 60 70 9 144 77 185 28 167 154 86 230 97 52 49 180 35 151 105 118 218 97 187 8 56 254 243 209 165 183 219 100 47 164 179 233 150 113 22 167 91 123 255 162 148 36 42 12 182 82 11 148 221 217 165 249 250 25 128 80 70 213 54 138 223 20 218 245 70 230 186 28 52 
40 140 239 204 51 111 209 131 35 65 195 185 22 16 41 28 89 47 194 197 124 185 198 133 25 157 68 238 215 169 87 213 190 151 104 204 144 80 61 112 105 45 212 132 209 226 163 118 24 149 31 15 110 174 155 127 247 226 212 158 152 226 16 219 96 89 226 29 197 69 248 13 170 5 28 22 156 29 70 54 250 2 136 116 36 118 134 171 248 202 114 178 52 242 183 189 100 123 105 136 
94 35 138 240 178 124 18 161 49 94 168 139 42 154 42 78 103 220 139 13 149 166 179 198 129 12 242 137 254 190 94 12 56 39 0 195 161 227 152 170 226 188 224 123 67 185 25 176 128 68 43 92 10 96 46 28 142 158 158 216 236 1 36 112 198 45 170 176 61 17 54 114 110 25 184 221 91 165 46 69 235 25 100 204 164 124 93 221 127 208 233 214 245 255 165 82 36 65 104 42 
147 156 116 113 5 24 115 233 218 35 44 144 54 85 176 18 81 14 81 197 114 70 39 42 67 81 121 4 177 181 119 45 0 5 4 105 67 42 185 59 163 231 198 246 11 122 241 154 51 73 44 209 146 235 229 213 138 152 243 154 184 76 171 125 56 144 32 67 247 145 230 80 173 82 14 172 184 191 179 39 110 86 196 190 142 33 12 104 210 155 167 215 241 63 97 77 214 185 164 231 
104 61 102 55 137 212 53 7 57 3 49 166 80 230 146 202 233 226 231 40 251 13 92 94 85 206 178 76 148 81 157 83 23 69 233 203 3 42 233 75 62 52 50 148 18 129 223 183 196 73 213 233 113 210 214 253 192 142 191 236 135 129 168 24 97 38 137 133 248 37 126 175 119 65 244 244 4 137 180 182 181 103 183 64 214 213 208 38 192 106 57 72 232 225 189 180 197 48 139 171 
120 164 92 56 209 178 148 88 194 70 152 235 29 47 252 88 252 155 156 64 180 217 27 188 139 18 164 207 226 218 38 95 233 17 37 177 211 21 96 0 177 110 136 231 57 44 148 109 3 149 60 82 119 11 252 206 215 108 240 21 134 5 6 107 182 98 200 183 114 62 225 157 124 17 229 11 135 183 215 172 139 27 248 209 51 208 181 55 166 4 177 100 226 133 5 81 105 12 37 118 
60 127 11 154 196 81 204 12 150 159 236 161 1 233 83 152 223 89 111 15 246 84 198 208 0 39 58 110 17 156 188 168 18 55 125 229 50 2 79 160 203 61 98 101 116 66 244 231 158 131 199 43 17 136 2 125 60 94 78 63 54 114 31 205 95 91 72 96 181 43 200 56 67 253 127 2 95 26 186 147 189 12 28 30 39 108 236 175 161 77 141 11 236 192 25 254 240 167 58 250 
180 150 60 230 157 197 93 240 128 183 102 113 75 157 16 2 205 163 152 71 159 116 57 119 188 207 157 206 220 181 240 253 50 79 177 204 25 192 217 183 250 225 253 3 79 93 20 196 2 104 105 245 89 104 223 82 173 108 19 213 80 77 48 36 175 153 129 163 149 80 183 106 91 92 102 120 13 245 227 52 211 222 208 66 90 173 101 73 113 219 137 199 194 211 23 24 99 176 51 187 
103 157 53 121 195 158 55 116 255 228 108 47 190 104 104 145 225 26 65 211 211 80 133 183 175 181 110 128 37 155 38 74 167 172 191 95 179 104 241 11 204 231 101 11 51 68 90 228 255 3 18 167 246 195 237 251 218 48 174 123 250 84 91 252 45 126 209 248 123 41 188 78 249 89 84 56 73 174 142 156 35 128 59 182 25 142 243 147 40 112 116 15 8 184 85 79 142 32 155 238 
158 228 38 85 135 103 2 251 93 99 127 206 215 170 59 83 155 30 109 176 26 72 222 223 206 17 206 121 68 102 66 215 39 183 99 179 149 140 155 11 203 9 217 153 31 179 182 72 76 26 196 10 8 206 105 174 114 72 193 96 182 79 63 168 26 152 26 141 159 245 15 53 224 173 234 139 4 234 247 80 21 14 205 36 3 42 212 27 187 252 160 72 14 77 31 145 224 149 91 38 
160 17 108 161 27 197 99 220 20 123 3 35 27 48 186 212 145 23 24 137 155 195 119 14 26 201 84 31 234 84 240 174 0 37 240 173 72 176 11 20 79 114 30 191 199 30 6 96 0 84 69 154 176 141 32 100 84 109 84 176 225 105 16 114 104 124 66 132 165 10 69 152 252 59 198 49 15 177 231 234 3 87 108 163 42 91 115 178 237 36 35 152 57 99 141 119 161 223 103 34 
78 41 79 146 209 237 153 76 21 245 155 148 226 113 197 98 157 6 230 107 123 97 208 88 135 63 136 254 84 54 58 200 148 4 114 91 24 181 47 219 229 195 180 61 210 35 139 239 152 199 82 62 29 230 177 112 144 178 37 46 140 176 134 218 181 165 235 187 159 25 221 2 68 226 166 221 120 70 181 205 130 6 185 86 44 120 136 134 232 102 175 127 3 91 175 133 153 173 228 48 
109 49 204 204 193 108 104 16 12 12 171 180 1 238 112 40 187 30 140 234 4 47 114 159 40 85 52 16 172 59 162 46 64 250 56 204 93 73 135 127 9 43 196 63 202 129 82 133 57 68 218 119 50 167 150 38 128 89 148 208 237 163 16 143 155 151 37 21 91 145 230 223 191 44 161 33 245 87 221 193 19 41 34 171 7 183 99 112 176 187 3 218 196 88 82 49 91 102 240 49 
78 97 31 155 164 61 169 20 163 155 227 155 209 106 56 83 207 156 101 48 77 22 31 103 29 140 243 250 176 70 5 91 139 168 212 196 70 3 85 65 61 200 145 172 174 62 28 255 19 7 127 174 173 206 135 189 0 245 54 6 56 189 183 168 99 231 2 2 40 184 15 46 188 234 46 141 231 133 121 233 50 36 82 31 233 1 99 214 153 125 58 91 49 231 223 34 254 44 203 97 
22 238 251 204 45 72 41 217 222 221 132 253 198 138 11 136 50 101 230 173 244 226 38 242 180 110 103 78 101 221 172 112 64 153 39 216 101 253 106 105 118 81 17 7 175 33 166 116 128 16 232 224 72 174 247 56 119 79 139 200 218 53 210 232 219 133 193 53 183 193 232 63 222 58 32 141 77 88 94 49 120 137 21 188 3 76 193 100 187 197 241 156 114 160 34 140 117 29 26 245 
230 225 180 152 206 117 79 47 49 143 165 230 181 137 176 12 95 52 171 29 251 138 211 211 190 238 102 213 8 129 18 68 83 149 105 207 148 18 43 215 105 124 136 232 3 67 158 120 85 195 225 158 79 47 209 142 231 78 20 207 107 190 221 141 255 107 47 39 130 164 98 43 36 46 25 242 70 58 157 28 1 55 244 64 226 51 240 171 34 112 138 237 223 121 196 17 94 168 19 42 
120 226 159 203 162 48 116 169 170 230 120 139 223 246 100 199 233 252 216 252 112 128 133 201 160 216 238 149 35 236 219 32 221 226 165 148 221 127 83 108 130 177 71 107 105 120 191 8 136 6 44 28 83 64 199 140 65 54 140 41 12 129 45 69 166 126 195 145 93 69 121 41 239 236 63 198 176 143 23 4 236 50 205 171 71 194 151 107 144 174 142 116 57 84 150 111 254 139 210 212 
220 67 80 152 229 148 248 163 49 132 197 138 30 64 243 106 32 93 31 70 41 2 23 81 86 153 156 6 147 93 66 239 245 170 158 5 81 63 93 218 0 130 88 65 111 230 178 117 193 190 135 114 106 120 246 195 199 131 153 156 31 33 66 15 150 8 251 213 131 119 180 18 248 14 158 167 27 162 90 254 156 120 162 27 57 253 102 163 6 24 18 69 173 144 80 58 72 98 177 82 
180 246 65 63 9 38 190 186 23 91 113 110 208 4 128 117 21 245 147 211 249 116 163 122 249 246 46 85 176 49 105 177 238 146 93 91 242 212 175 153 64 93 210 87 198 238 99 55 24 203 94 178 186 184 200 235 210 164 68 121 173 69 60 68 26 38 106 50 233 25 211 23 26 200 128 103 80 232 25 103 216 24 164 154 128 155 71 242 195 110 208 225 89 81 230 142 104 199 164 84 
109 188 10 173 196 86 64 198 40 59 1 2 235 104 26 24 251 63 180 164 209 66 96 93 151 187 84 246 33 118 230 10 104 157 88 132 194 193 149 198 65 181 207 136 252 220 64 194 224 24 218 83 228 116 35 13 85 11 186 51 185 239 201 93 177 117 54 3 211 13 57 47 24 219 12 241 10 125 136 93 148 245 33 188 181 189 121 26 111 154 14 74 51 79 250 100 121 218 147 88 
32 186 127 239 205 120 134 46 84 213 103 69 94 96 119 2 182 51 151 26 85 216 179 161 153 36 245 145 175 110 194 224 75 177 219 71 27 230 236 220 208 198 204 61 72 70 164 21 78 84 132 176 17 57 180 193 191 127 73 45 175 187 174 186 69 108 197 146 141 120 67 58 78 0 251 171 116 107 19 173 91 160 171 99 196 4 3 46 82 195 105 227 245 175 74 71 17 25 216 131 
146 128 176 185 245 178 239 189 163 66 233 223 111 106 3 63 200 206 20 36 30 251 116 61 177 103 72 178 122 61 108 50 106 163 187 31 191 207 120 8 143 144 57 193 168 37 203 145 76 55 2 223 252 71 65 226 63 39 32 67 170 212 50 152 109 10 18 127 202 161 228 189 153 89 6 15 255 200 42 60 198 121 36 149 86 171 197 180 102 17 121 71 166 171 64 69 234 20 68 107 
81 87 197 126 129 66 160 27 221 117 43 86 52 186 207 24 142 199 112 185 184 254 17 108 134 217 233 199 104 94 238 63 234 144 122 83 230 2 58 61 14 14 143 11 94 164 184 169 76 200 87 40 46 35 166 66 73 79 16 216 146 203 185 254 167 2 119 126 185 96 136 111 21 236 182 54 222 217 97 232 158 216 210 196 62 56 49 69 104 31 172 158 188 52 17 219 118 72 174 197 
35 116 10 51 103 166 181 142 146 227 188 152 146 145 239 234 219 99 183 94 48 27 251 58 143 6 119 164 247 145 49 58 26 95 44 128 130 77 98 80 93 45 132 186 229 159 85 128 245 137 67 4 145 127 87 169 205 28 153 188 98 173 97 139 42 111 76 84 39 214 200 224 167 149 8 222 57 28 204 167 111 126 118 220 235 48 96 165 201 186 24 169 53 230 6 25 118 176 226 80 
193 12 221 125 84 41 228 224 211 70 167 230 11 205 147 77 10 113 117 214 44 0 157 121 25 8 56 154 204 158 245 0 76 18 152 56 159 8 217 237 7 169 55 138 49 125 158 209 106 116 204 86 58 35 75 74 159 77 122 57 229 174 56 244 135 173 142 235 62 50 195 25 144 136 148 62 125 212 242 180 31 171 50 142 231 148 32 99 239 187 35 87 127 228 165 132 142 71 147 115 
138 226 240 82 82 118 125 61 72 79 202 49 80 153 199 124 76 51 175 148 89 90 67 90 113 169 148 151 164 143 212 112 183 143 82 155 212 173 37 250 89 136 12 181 69 86 234 43 135 97 15 104 96 55 190 13 109 17 239 5 158 214 10 108 120 216 25 184 51 222 55 148 197 221 249 198 127 117 207 187 124 162 227 49 13 248 35 129 51 55 188 164 87 126 97 102 253 190 106 206 
242 215 115 31 91 106 41 235 91 24 5 174 60 202 93 219 197 180 203 157 36 135 54 187 163 206 59 242 93 228 255 165 135 79 245 43 61 55 16 247 88 163 245 173 211 230 253 44 129 233 195 164 168 212 197 174 70 131 32 159 213 189 20 127 227 56 43 193 212 214 179 90 99 174 249 164 254 151 36 202 144 176 143 69 107 193 100 136 232 250 253 69 230 255 32 109 209 170 219 233 
129 69 203 58 100 142 123 122 146 54 126 133 157 50 10 67 73 220 90 97 104 120 55 14 206 112 74 105 172 226 252 168 112 175 15 173 75 243 233 7 146 20 169 26 117 155 187 49 224 192 41 56 108 143 101 102 95 118 192 187 3 219 15 163 43 202 199 42 173 32 105 158 47 61 76 226 231 104 163 168 148 24 153 159 129 9 77 17 130 177 171 164 69 18 89 164 19 78 25 153 
56 210 240 239 183 98 230 29 4 218 43 219 22 185 197 216 75 162 4 252 163 232 199 51 151 217 195 187 233 6 112 144 49 52 131 202 225 98 224 160 31 120 242 35 73 31 222 251 144 32 160 62 45 153 152 180 112 160 174 106 22 66 173 59 211 231 121 76 228 204 8 253 201 24 155 144 207 142 26 1 213 64 176 251 65 3 116 111 255 16 170 39 202 243 140 163 33 101 247 173 
196 44 220 114 186 158 156 92 89 217 32 115 28 158 69 5 22 112 244 56 174 250 193 175 156 70 238 119 162 146 164 73 190 200 201 250 121 200 12 107 226 66 183 212 178 126 109 23 119 183 85 1 107 42 195 34 125 241 199 247 109 190 135 233 123 146 148 15 103 244 153 80 77 95 62 23 237 198 219 41 199 109 3 43 102 190 125 57 218 43 109 105 173 172 66 190 30 133 164 185 
150 20 3 139 29 75 46 125 110 243 204 153 170 190 51 167 187 168 178 246 229 22 100 233 84 99 228 122 234 111 233 37 60 209 253 253 10 157 43 125 121 31 206 105 29 7 164 84 63 132 207 170 26 227 24 18 76 131 145 196 87 60 88 225 219 203 222 223 6 187 216 101 244 131 253 107 27 124 155 110 160 3 211 160 208 237 144 245 250 123 83 198 185 226 29 194 107 212 103 178 
149 27 111 190 36 154 85 192 67 175 198 64 46 158 252 58 69 196 227 82 63 226 131 171 198 165 251 213 187 87 191 246 24 213 37 104 189 135 192 14 134 205 28 3 46 115 154 226 148 82 72 63 98 29 93 111 156 50 230 48 43 199 43 28 60 227 253 128 128 44 19 192 207 101 234 235 99 229 73 32 242 224 158 64 53 102 34 61 181 193 203 118 144 187 191 197 199 134 44 127 
69 198 73 16 224 77 16 182 74 171 8 246 104 106 254 184 142 45 107 48 173 83 200 159 142 14 48 109 213 31 89 174 172 139 201 22 184 99 159 116 73 43 64 25 231 187 59 162 68 146 110 246 111 212 87 107 152 176 108 23 174 98 160 159 15 10 28 184 29 79 62 154 14 218 254 205 18 56 30 155 124 13 64 144 159 152 75 172 199 213 198 181 239 46 95 187 110 50 87 131 
123 79 120 41 184 191 0 178 221 195 110 252 217 32 233 84 51 203 246 102 145 86 232 237 200 190 170 134 32 67 213 221 234 201 188 104 54 34 9 184 213 162 248 231 84 136 147 157 59 176 133 237 86 245 112 161 201 117 31 62 51 77 111 2 135 33 198 135 57 66 215 240 116 248 255 154 102 137 205 34 82 175 16 1 1 180 59 32 117 89 197 242 248 239 128 25 152 129 170 213 
82 22 242 249 211 58 43 32 185 248 140 161 48 23 160 8 172 56 204 154 180 230 229 95 204 226 127 138 236 138 7 241 61 227 203 183 24 173 126 141 0 185 99 101 118 91 200 58 187 81 24 234 242 118 150 59 187 80 68 145 57 1 24 34 223 227 27 250 23 192 182 201 232 109 154 15 233 105 68 145 192 25 210 13 191 148 32 51 163 188 198 214 217 159 9 67 208 102 113 226 
107 227 85 147 76 87 14 86 139 108 175 103 249 59 183 145 251 36 92 205 24 233 249 19 247 244 22 144 29 213 49 67 133 144 5 116 215 244 240 87 28 107 68 131 205 38 227 109 217 121 15 165 12 59 142 52 1 157 37 86 185 53 67 119 43 206 144 223 147 245 212 113 162 129 170 104 208 251 225 55 211 251 52 162 73 35 154 180 47 142 62 91 250 29 94 138 57 221 105 82 
199 254 32 129 206 6 184 75 12 192 114 34 49 13 230 216 125 183 254 130 84 9 54 23 246 169 145 12 98 128 87 62 250 139 173 184 71 51 115 228 123 144 139 136 229 185 105 143 7 82 222 12 89 199 162 231 58 54 194 31 254 213 41 211 67 97 141 82 6 223 28 229 178 174 109 4 43 72 70 9 147 15 80 65 67 123 12 215 46 25 221 85 238 131 129 112 243 146 103 143 
206 218 45 123 180 125 219 75 12 147 56 172 46 180 127 104 217 38 29 28 114 188 199 166 77 207 128 224 54 142 187 130 222 28 237 246 172 50 35 24 8 62 161 47 219 147 19 254 221 12 17 54 154 126 96 164 227 33 32 92 187 236 218 30 35 151 243 145 59 191 14 88 86 200 23 147 69 116 138 175 231 96 14 170 69 197 52 194 4 246 141 84 138 210 66 162 74 241 213 65 
229 27 252 78 144 100 153 100 169 58 214 136 56 113 148 189 105 180 19 97 214 131 5 218 255 94 242 8 246 95 199 17 110 217 228 43 94 1 87 175 182 67 162 254 229 178 187 98 11 23 134 201 190 24 42 227 93 243 124 52 178 29 81 164 106 118 254 112 68 90 227 216 35 214 239 246 100 174 202 22 171 69 27 119 158 237 109 109 47 123 111 174 33 244 31 40 232 99 36 211 
221 140 131 106 84 157 216 104 233 164 26 246 13 56 47 99 231 42 89 126 193 30 249 205 17 64 15 138 189 49 168 176 156 33 1 203 148 170 172 59 6 182 169 132 139 197 44 155 85 67 162 155 215 149 202 226 4 235 84 129 121 41 25 6 133 243 188 39 15 194 1 52 101 67 45 120 194 93 168 2 242 83 243 175 232 114 237 159 16 142 112 176 140 61 105 237 222 247 241 86 
122 196 149 186 156 244 103 13 50 229 130 126 79 107 32 166 133 98 78 74 36 52 199 193 28 57 169 100 2 62 250 131 236 95 59 66 206 252 109 46 231 208 212 91 253 110 72 106 49 29 171 87 171 139 30 51 85 249 125 228 183 41 181 161 36 197 87 143 199 160 17 43 232 68 172 149 126 171 7 39 14 165 8 66 28 15 232 218 170 194 112 138 47 29 180 153 236 137 182 188 
34 234 146 70 207 236 29 105 222 101 195 149 165 239 220 165 174 57 173 108 88 81 223 85 68 214 186 134 228 246 13 248 210 126 117 197 227 207 13 70 19 165 88 17 234 138 167 68 59 21 208 247 114 126 8 74 135 49 135 123 152 70 103 201 16 108 158 152 8 158 107 34 226 93 77 9 200 47 208 147 81 162 118 99 52 232 117 157 217 233 216 106 242 26 246 116 83 70 206 185 
22 139 169 70 181 159 144 67 115 101 96 90 163 55 143 141 171 229 95 127 54 89 213 191 84 135 144 121 1 81 220 9 179 220 240 15 63 50 22 108 45 105 206 52 255 179 90 19 156 88 31 202 4 244 241 25 5 227 65 231 80 24 34 180 228 119 20 205 174 131 1 60 201 151 119 102 81 153 150 68 233 47 33 26 88 91 0 21 70 38 11 44 27 36 245 0 129 136 140 205 
133 165 243 247 10 91 93 86 92 245 77 155 199 144 62 125 14 235 152 162 95 124 141 124 43 28 225 109 101 89 140 100 198 205 149 204 206 229 111 239 161 76 52 154 59 130 175 157 85 136 61 225 95 40 241 186 28 211 103 240 96 140 243 229 70 22 230 222 117 215 170 200 43 38 85 144 128 66 208 26 116 146 59 138 181 204 24 183 88 71 140 143 56 88 255 111 88 162 80 36 
182 197 48 185 239 36 125 126 175 36 1 144 178 171 212 246 156 216 109 57 9 133 45 227 19 170 126 241 123 154 101 150 100 28 29 239 221 214 233 111 70 249 151 227 74 202 179 157 222 84 165 48 25 226 2 55 17 63 14 111 134 26 134 72 243 18 163 160 154 188 119 66 154 74 129 16 13 110 7 69 74 248 49 132 194 159 190 228 85 97 88 229 243 71 204 55 47 96 238 48 
144 250 148 247 225 112 79 94 210 51 90 73 75 136 188 181 142 20 191 28 165 17 217 38 66 97 239 69 10 68 83 114 146 48 237 147 136 2 154 118 40 99 174 104 107 205 96 101 148 209 56 79 73 115 147 251 43 126 20 193 37 5 247 141 47 167 55 91 203 21 181 62 24 100 219 40 24 243 86 226 185 175 185 64 50 224 49 128 190 233 5 180 73 69 95 226 231 92 252 180 
16 225 187 239 72 10 88 128 17 176 184 24 85 61 195 175 85 244 8 160 115 134 12 68 174 122 195 161 7 167 187 30 194 79 152 174 93 229 41 194 220 52 92 67 166 90 166 47 81 238 4 103 159 161 170 144 79 155 206 116 45 19 66 175 4 155 10 63 9 83 89 158 177 69 29 55 189 148 105 142 232 79 36 53 122 132 88 137 109 213 245 82 135 185 102 69 79 145 246 245 
120 45 115 10 120 37 243 207 232 184 182 188 127 37 16 57 181 121 145 5 252 35 70 120 248 4 229 58 44 56 157 10 20 36 97 206 135 221 194 33 234 193 229 63 163 13 51 104 34 81 208 168 49 39 184 112 49 44 144 217 7 70 218 118 244 34 112 162 12 194 253 92 226 62 81 242 26 203 101 213 250 69 147 224 188 208 210 113 6 137 54 183 152 250 53 29 153 114 203 29 
225 47 223 34 55 177 207 48 60 86 151 151 133 8 112 203 63 45 56 184 14 228 48 166 41 212 106 45 129 39 9 94 209 14 35 136 121 140 190 205 57 214 228 46 188 128 83 54 25 9 235 21 189 203 55 197 229 182 88 201 45 37 4 86 85 140 61 77 40 108 131 202 223 58 90 24 36 34 141 79 32 182 28 26 119 239 203 95 110 120 89 250 23 91 127 149 67 68 190 81 
185 221 89 215 33 52 225 248 163 43 134 74 150 83 92 250 153 229 12 66 103 160 21 209 170 61 242 134 179 173 141 103 57 77 110 54 138 209 148 187 80 182 205 47 175 222 240 144 189 128 96 152 144 19 223 126 174 201 82 147 50 96 62 86 137 165 239 225 199 31 149 168 173 194 54 46 99 36 32 15 89 225 247 128 145 139 53 255 70 70 127 244 187 22 127 145 105 42 136 41 
205 80 47 111 89 141 135 88 170 59 119 217 237 29 220 40 98 69 192 230 174 209 224 245 116 21 170 222 90 205 37 119 39 134 244 251 227 1 149 4 174 247 43 171 73 133 122 43 216 124 44 135 36 29 205 180 140 50 82 67 228 167 36 253 194 172 55 146 128 36 36 255 23 158 200 199 255 177 115 124 188 20 72 9 254 127 137 177 243 87 82 170 153 210 213 12 124 134 202 141 
149 95 29 239 56 223 138 73 19 183 86 10 25 109 37 165 76 235 14 78 13 232 237 50 214 9 158 103 57 193 50 49 33 134 12 4 218 103 212 43 153 213 61 226 81 201 26 17 122 32 173 255 99 27 45 138 7 218 16 140 39 91 164 255 122 222 98 49 224 171 129 219 120 177 253 159 42 177 232 98 0 1 213 99 96 167 29 229 147 99 87 123 24 213 215 45 175 74 2 66 
21 85 27 240 4 105 126 72 218 96 68 75 26 92 164 67 23 3 194 41 101 191 127 143 241 12 107 20 119 238 24 30 49 236 95 153 207 79 153 178 11 36 208 17 62 172 172 157 63 235 6 20 135 157 110 150 217 180 69 186 228 120 168 220 42 164 206 209 247 9 150 187 39 229 77 157 131 234 100 1 40 69 224 47 232 46 68 8 187 239 203 243 65 235 240 58 131 190 209 53 
137 169 222 58 141 196 5 70 128 10 173 240 85 91 227 249 142 110 154 16 223 238 211 235 148 42 69 67 24 217 176 165 143 7 155 103 134 39 14 239 162 223 97 95 227 105 89 221 200 169 159 183 68 166 20 61 241 89 211 159 73 175 21 18 104 7 137 146 47 46 131 251 106 91 232 219 30 43 13 104 9 110 209 33 84 25 102 176 219 46 215 142 123 98 15 8 26 67 122 67 
216 97 3 171 126 64 186 117 240 148 163 172 125 148 255 237 130 104 59 145 73 94 199 137 192 168 49 239 191 192 123 28 119 115 218 219 146 143 151 219 40 123 188 60 135 140 81 86 37 89 183 208 34 92 197 180 113 50 254 117 152 13 51 241 142 40 121 33 97 49 98 114 175 161 32 25 178 237 117 128 173 42 222 10 46 234 64 26 2 70 114 61 253 115 206 36 202 101 23 7 
140 105 131 254 29 178 116 128 54 202 228 249 12 145 114 252 15 71 250 206 37 61 9 64 2 164 82 72 45 126 118 58 93 120 52 211 84 199 230 130 204 49 110 60 124 189 235 134 250 34 49 0 2 211 128 156 32 211 114 130 4 91 156 58 126 214 91 237 152 60 197 254 3 32 42 240 202 76 42 88 115 220 209 125 18 133 92 129 136 212 34 83 214 96 251 48 111 61 214 3 
185 134 45 147 203 184 161 210 254 20 194 143 246 3 99 229 202 98 33 203 5 148 153 100 21 108 245 124 106 144 102 10 206 240 214 159 159 160 158 134 84 204 131 75 77 120 118 142 193 254 28 242 5 168 43 162 114 227 120 83 82 174 31 113 126 130 173 159 237 103 146 235 53 222 144 175 145 25 61 132 132 131 134 34 39 59 237 253 89 102 167 18 246 250 146 234 28 64 145 255 
34 176 107 153 110 243 237 85 99 138 100 26 151 137 163 104 209 159 162 33 92 57 40 179 87 72 121 114 40 178 203 145 84 44 220 108 159 137 246 212 129 114 250 48 32 64 13 64 101 147 168 173 28 197 159 88 94 205 33 118 121 229 136 159 18 2 140 190 207 97 113 72 198 181 123 140 65 181 187 92 236 237 124 213 204 214 10 188 97 186 254 0 234 194 11 179 38 39 85 8 
187 9 254 39 80 28 112 134 20 27 222 94 18 157 113 213 250 216 191 239 227 178 191 162 108 24 224 206 192 120 87 67 43 94 21 11 56 208 201 49 5 4 166 145 204 56 239 97 92 29 107 202 40 47 11 92 251 227 173 151 138 59 43 117 153 188 127 2 229 147 93 135 47 159 25 35 207 104 254 133 251 71 42 242 179 72 202 219 26 119 221 7 221 17 128 21 120 201 64 194 
255 85 128 203 214 9 21 42 242 218 1 165 113 23 100 175 39 143 237 130 8 253 82 82 183 117 178 245 33 253 253 119 111 125 82 34 196 154 126 77 50 39 16 235 182 67 154 191 215 112 120 180 151 165 215 87 72 97 239 8 138 125 72 184 64 109 7 235 147 251 14 67 44 24 78 52 32 51 244 87 233 251 155 248 7 183 159 5 86 153 56 112 198 223 60 120 122 7 47 109 
113 42 78 74 221 182 32 141 156 79 220 229 217 112 16 170 169 79 248 5 104 52 74 123 92 189 38 148 90 43 154 165 20 197 152 36 9 36 108 183 207 207 127 65 196 229 47 229 53 7 131 135 32 188 185 218 21 104 32 143 51 239 123 72 231 197 180 74 213 180 174 197 174 28 61 35 189 188 45 144 139 108 149 127 192 8 197 5 9 253 82 188 13 113 199 242 53 11 221 164 
152 76 223 168 62 253 172 103 167 107 186 7 215 139 156 65 212 94 195 189 253 30 241 81 81 56 147 237 214 12 233 46 161 158 236 114 170 253 229 211 189 100 224 38 56 201 95 250 236 252 59 75 170 180 202 94 248 135 80 237 243 189 165 197 143 192 139 43 178 126 48 203 149 110 115 212 43 198 40 109 140 198 33 68 70 212 122 53 14 0 169 75 206 92 174 20 132 231 34 68 
188 194 191 103 190 210 71 25 39 225 203 104 216 131 134 200 135 153 73 72 88 196 122 255 40 62 67 160 102 78 33 89 128 216 46 102 22 175 68 236 241 255 148 147 182 192 151 40 22 57 31 70 187 177 34 17 162 236 163 157 184 0 57 100 252 5 226 193 187 56 218 17 83 73 116 97 195 86 78 155 15 34 74 64 104 108 125 224 63 191 159 33 100 222 212 70 28 128 173 176 
162 70 253 11 32 188 125 73 17 135 161 30 229 102 52 140 19 54 94 120 75 2 46 187 197 194 47 180 224 162 48 179 141 100 73 122 52 61 187 194 92 131 252 60 139 109 172 228 111 41 69 17 182 119 130 103 161 243 209 114 173 197 133 92 239 239 45 35 166 104 235 42 117 71 44 114 36 79 19 252 229 121 109 11 205 197 155 197 116 201 75 174 173 99 182 101 202 179 59 34 
14 63 101 78 72 206 185 228 8 109 192 213 126 67 26 60 231 255 154 2 93 82 214 149 89 248 33 165 22 118 12 6 189 30 156 238 222 140 62 193 143 246 72 159 177 38 133 250 5 157 178 250 152 228 185 62 96 122 142 8 140 230 187 161 192 60 95 124 56 110 194 152 175 178 15 116 90 46 31 138 81 133 201 136 112 244 136 15 73 131 27 223 155 130 231 25 155 177 71 252 
141 36 241 132 219 32 70 119 159 49 111 76 248 148 61 170 71 191 173 190 193 226 225 73 0 194 142 42 26 26 22 72 10 189 170 31 165 169 223 26 200 94 44 61 45 113 188 69 195 202 95 213 100 66 23 3 214 77 141 77 92 50 61 160 203 115 43 68 215 163 160 99 150 176 1 237 144 6 23 191 22 209 243 31 143 246 12 73 216 112 54 104 155 86 38 133 159 92 125 213 
200 233 6 84 247 87 185 251 142 141 130 30 159 85 89 46 178 36 20 155 103 144 10 157 54 35 59 98 47 74 239 155 87 178 121 4 16 196 88 161 84 226 106 14 247 225 238 35 222 185 76 60 134 228 25 38 127 223 110 189 118 230 150 141 45 190 183 198 206 135 218 158 125 224 112 108 106 51 85 211 189 133 236 136 107 12 126 20 211 64 118 29 139 210 164 44 222 68 60 133 
48 118 117 33 220 164 83 101 99 235 191 41 19 14 32 47 168 49 129 156 43 5 2 60 155 130 60 199 227 205 62 96 40 216 253 38 231 77 31 180 73 15 167 96 55 70 225 67 73 236 138 215 123 245 106 39 202 21 15 231 163 165 45 203 70 59 9 56 142 102 154 220 250 72 75 96 143 4 28 79 127 48 12 40 153 141 74 31 83 96 120 183 15 40 2 214 57 116 216 130 
1 155 42 201 98 145 201 184 174 207 120 204 251 210 243 37 219 220 4 146 28 234 37 179 146 48 206 108 1 224 51 78 48 62 111 208 219 152 72 144 68 198 73 47 132 185 255 80 131 168 90 147 140 92 17 48 228 1 187 37 183 241 255 247 102 129 117 93 139 20 123 208 24 235 130 16 45 82 146 214 6 150 27 129 17 143 215 243 71 16 220 54 182 104 164 4 65 145 61 160 
84 134 149 198 193 11 55 70 28 6 53 190 3 157 0 114 199 119 129 174 154 50 166 96 119 15 19 66 121 182 142 54 46 78 188 137 150 196 207 135 138 180 5 189 68 191 141 166 42 129 236 28 82 3 56 122 185 245 93 18 44 150 80 242 186 206 61 157 139 160 210 22 59 191 203 159 88 230 182 76 3 133 179 1 34 138 203 48 163 229 188 131 143 124 250 52 62 249 40 195 
22 82 98 97 114 229 180 32 154 36 137 247 57 244 21 249 54 64 71 92 181 26 250 221 128 41 201 221 182 84 30 180 111 49 175 68 122 223 9 154 5 28 155 202 201 201 121 199 159 244 73 77 158 62 41 24 192 139 51 150 185 28 217 49 91 251 192 243 138 128 200 63 74 32 48 186 90 56 120 191 27 150 134 114 245 150 54 181 196 109 96 178 193 81 224 39 0 63 50 76 
211 112 110 78 36 72 86 101 81 241 236 143 61 208 6 219 108 100 221 145 159 201 100 148 252 50 216 218 224 96 236 124 219 136 125 97 145 83 111 163 20 48 45 199 213 129 24 20 198 166 189 43 231 98 234 221 108 234 220 69 84 53 242 8 30 120 169 1 251 109 241 49 81 28 85 54 32 190 221 227 219 136 177 45 223 42 131 167 149 37 139 13 150 28 230 163 239 224 64 74 
155 89 157 141 126 149 19 165 227 98 251 14 155 109 80 60 27 129 253 120 224 212 97 213 154 137 103 217 135 26 91 42 90 1 212 100 185 176 82 120 249 44 106 250 23 161 225 82 225 7 113 42 103 9 106 53 125 14 192 174 233 187 216 124 202 166 245 50 207 124 110 247 94 242 33 63 185 64 208 26 239 67 26 12 249 215 12 52 207 114 56 116 160 190 160 83 31 239 40 136 
68 245 98 96 242 173 55 211 186 57 154 52 112 17 140 20 89 181 12 39 150 196 186 122 186 30 135 246 30 137 223 44 92 19 74 64 105 121 4 18 63 171 60 209 55 123 11 142 72 18 30 186 1 127 29 30 182 103 33 130 60 230 206 168 179 163 201 174 252 107 252 25 18 87 141 54 60 69 197 154 185 97 24 125 191 136 190 130 130 87 93 205 207 197 106 33 90 161 111 65 
127 95 73 176 159 94 8 63 60 63 85 202 37 68 237 169 121 170 28 16 145 244 132 238 28 121 210 191 161 3 66 148 230 140 122 226 118 121 75 225 143 169 186 153 88 177 184 125 11 225 82 197 247 78 204 136 133 96 38 220 129 185 217 31 192 97 20 189 81 120 141 170 58 70 167 114 184 229 72 28 138 237 126 58 134 142 153 195 47 135 165 13 163 170 108 195 163 194 123 94 
179 49 7 146 194 50 239 245 151 193 54 46 98 98 190 23 235 84 210 93 206 146 145 167 34 176 231 164 34 73 86 42 65 87 77 246 245 161 231 28 142 35 3 244 25 14 92 98 123 19 27 140 240 102 67 213 114 12 133 67 57 251 37 212 88 156 10 9 155 11 75 63 181 119 134 158 168 4 98 146 52 254 144 158 230 34 48 99 97 29 94 133 210 70 34 17 182 75 30 72 
38 242 87 84 150 111 205 41 212 182 182 131 93 153 134 122 118 92 7 206 18 150 85 146 198 155 116 108 238 7 133 17 224 185 62 9 253 195 127 207 89 165 163 114 184 211 36 135 134 105 110 55 189 9 196 140 180 228 252 0 245 24 139 148 173 161 167 103 17 216 212 142 123 208 236 230 69 125 244 95 7 114 154 158 113 214 224 23 214 238 27 115 116 22 81 79 46 40 8 244 
162 229 199 91 162 207 0 217 218 197 2 135 198 219 138 15 81 119 147 192 26 69 172 234 92 210 147 152 255 191 155 130 198 28 50 47 69 58 209 174 198 68 127 190 239 238 50 165 191 239 209 64 194 140 36 242 227 157 111 97 96 62 85 207 97 11 0 58 75 114 11 14 213 116 96 12 38 172 214 46 166 36 27 96 34 74 174 123 144 191 226 102 93 136 8 205 52 24 39 9 
222 161 160 34 227 125 208 8 16 235 101 165 2 131 209 15 115 22 133 3 9 166 72 87 163 181 191 80 194 177 104 43 133 13 108 157 37 205 243 188 41 91 35 161 32 91 188 156 208 240 10 241 110 45 130 181 39 171 61 211 233 26 181 60 75 88 199 185 14 160 65 167 220 149 0 103 2 165 72 31 141 69 119 121 78 190 220 43 138 217 178 111 246 210 150 126 193 65 202 171 
104 245 223 144 12 166 182 129 118 87 130 155 116 220 243 233 103 111 110 85 165 106 23 105 153 66 98 209 87 39 247 16 173 253 95 11 32 167 198 34 38 150 1 6 248 230 77 222 146 122 243 92 143 141 81 138 71 118 245 39 203 208 211 105 142 26 40 161 123 227 21 217 47 14 149 101 125 126 193 212 85 218 221 8 208 237 168 151 78 160 239 178 135 94 4 106 251 250 204 185 
250 138 59 89 236 17 168 133 104 77 230 210 104 241 226 196 107 215 223 36 200 180 90 22 232 220 20 137 127 182 232 48 177 76 199 235 10 247 90 15 171 37 227 87 229 122 41 169 47 96 135 109 168 245 192 9 233 163 239 107 228 181 53 174 93 89 98 105 199 41 219 137 42 82 41 70 206 27 12 7 85 104 76 66 70 185 139 192 235 32 248 175 25 229 201 240 155 61 105 13 
60 187 17 89 70 49 157 238 170 211 32 78 89 116 42 77 249 122 131 161 217 124 249 254 51 9 96 0 71 192 4 210 20 205 248 44 111 63 109 28 238 6 243 176 236 148 153 191 16 7 160 249 98 218 66 184 10 191 243 117 137 20 223 203 183 58 240 200 91 28 127 46 134 180 186 131 70 58 126 105 26 111 211 157 168 157 94 58 26 129 148 48 1 2 70 14 131 68 78 68 
58 84 117 202 215 70 96 232 50 111 31 137 10 24 118 206 8 76 15 223 125 178 209 95 241 75 157 244 152 72 46 176 171 104 208 202 124 207 201 145 144 15 174 143 170 171 152 236 42 89 77 91 41 220 249 34 200 98 92 173 88 165 130 50 124 2 80 146 167 240 118 98 152 164 159 209 94 59 173 61 117 101 32 71 155 150 57 183 77 79 88 220 32 154 21 28 145 128 3 147 
235 153 29 66 166 88 153 13 28 118 227 32 241 151 232 90 83 101 98 155 74 83 29 249 90 148 172 30 23 55 180 178 181 124 149 140 219 162 99 170 110 79 85 177 205 66 102 251 223 133 76 245 131 2 17 110 92 1 213 150 136 209 190 59 84 253 252 177 31 143 182 104 134 137 205 254 147 111 171 181 98 48 202 169 12 183 238 160 95 25 45 237 61 0 21 150 48 15 110 156 
168 240 9 187 0 171 42 68 131 5 23 220 111 225 11 28 217 81 57 77 188 149 192 233 212 210 22 12 79 255 0 59 34 15 81 42 38 45 70 129 163 21 241 209 137 22 78 52 191 45 231 231 98 94 7 57 133 208 33 34 63 2 118 163 216 161 87 244 222 69 103 211 82 133 149 72 98 41 21 105 244 51 77 171 255 253 196 75 138 91 6 103 54 196 233 108 31 219 208 11 
9 168 84 175 157 85 17 3 199 150 248 58 35 224 109 91 102 156 232 57 134 219 219 8 148 76 79 250 94 235 130 192 211 95 246 115 85 102 154 170 97 78 99 189 48 53 218 6 32 70 12 251 31 236 219 178 46 217 110 24 34 179 194 199 152 193 62 98 136 23 46 48 153 102 32 200 110 48 100 159 125 255 1 210 32 25 147 219 114 66 251 42 63 136 15 91 241 248 135 160 
239 152 255 232 12 35 123 136 148 250 65 109 88 184 184 154 183 201 53 192 222 205 164 130 217 153 126 198 180 226 231 22 34 219 245 2 223 156 222 221 209 131 205 29 102 231 220 254 165 164 206 123 190 103 224 215 69 147 57 168 169 164 146 94 212 107 151 98 85 152 64 65 54 164 30 222 247 239 20 186 74 105 147 185 169 175 196 246 105 210 51 113 40 58 51 69 58 128 209 152 
251 68 133 200 86 253 206 29 102 243 22 115 228 218 156 101 57 39 203 66 181 233 98 149 254 158 30 204 235 75 140 162 160 246 196 136 177 209 34 68 198 150 184 123 36 95 221 231 250 117 167 31 12 180 243 26 57 237 78 68 157 185 103 105 201 43 65 134 148 39 41 115 139 210 178 175 51 203 140 222 239 138 41 109 69 30 155 103 224 76 36 208 177 124 69 168 235 11 28 65 
129 162 213 57 184 91 50 250 193 37 32 154 14 213 226 252 236 59 148 150 184 8 70 136 73 6 186 254 209 49 51 122 26 92 165 124 175 83 72 110 144 51 13 146 251 133 172 2 233 200 38 24 178 244 240 15 106 197 72 20 57 173 107 6 113 177 148 77 31 225 195 90 103 7 91 116 150 41 22 60 157 1 95 153 139 226 31 54 119 160 195 245 27 232 133 234 208 182 46 252 
120 97 131 64 181 134 254 96 155 222 35 4 146 40 178 131 22 247 190 170 176 124 119 159 147 54 201 227 185 170 141 124 20 172 128 99 233 218 169 234 131 77 115 9 128 126 102 254 230 211 141 132 12 24 155 71 218 168 197 182 85 30 47 2 226 190 132 114 107 59 200 226 176 110 168 34 40 223 141 106 175 22 159 187 197 207 154 210 56 25 50 11 0 143 92 114 208 243 33 118 
24 132 112 150 127 98 146 148 243 241 172 72 114 150 46 157 67 209 174 250 241 140 48 232 217 75 26 2 110 69 179 94 109 158 43 49 34 53 191 34 1 106 70 204 100 60 129 201 254 193 216 162 145 239 58 151 95 15 116 159 41 71 63 0 117 165 49 207 198 118 161 150 242 101 184 17 222 231 94 56 59 0 169 225 146 240 221 24 124 185 4 190 84 108 164 201 125 82 85 40 
184 100 91 46 201 165 49 252 175 90 178 179 20 8 118 102 180 253 39 219 2 28 8 111 141 78 246 71 18 163 235 227 120 203 234 217 248 27 226 78 107 44 27 184 47 63 120 35 87 202 82 203 178 166 99 104 138 103 219 172 159 79 148 231 158 72 35 87 56 0 214 229 5 36 155 132 29 171 110 89 76 209 68 73 229 40 244 55 175 231 222 23 90 22 56 96 0 56 181 241 
24 157 95 156 224 232 101 198 195 221 139 244 129 108 50 50 35 212 83 45 28 104 83 53 59 72 72 115 196 109 170 246 20 22 153 75 202 9 248 245 61 78 250 179 184 191 108 13 187 213 221 34 68 107 54 139 51 19 252 240 255 230 218 144 43 164 91 100 60 194 193 82 49 187 105 154 2 131 219 173 123 41 204 146 61 117 178 106 238 38 84 31 175 158 171 53 76 157 116 87 
80 26 37 230 196 251 204 89 2 109 3 227 80 93 68 43 222 148 219 175 210 224 217 178 18 225 17 138 170 74 9 24 149 89 189 23 109 14 103 60 186 51 186 44 122 136 168 71 145 81 230 16 145 10 236 158 41 165 108 37 89 85 83 203 174 163 43 87 92 10 129 13 222 116 10 68 87 76 199 138 217 91 182 157 170 193 203 215 126 237 63 215 202 255 232 97 84 142 96 19 
98 95 227 6 122 144 62 14 241 185 239 55 9 61 15 229 13 214 138 152 50 193 187 180 128 137 181 8 220 229 65 169 18 202 15 29 227 150 123 232 98 254 135 226 140 104 68 119 52 209 77 105 24 206 237 33 109 61 122 194 94 182 44 225 152 232 50 34 207 177 108 254 163 234 138 182 205 15 240 54 141 143 241 30 69 86 206 191 74 226 210 233 98 115 203 147 22 165 141 149 
159 70 19 60 68 175 161 237 225 125 80 118 4 144 236 158 13 228 111 239 40 140 80 29 154 194 104 40 105 144 167 237 98 127 52 171 194 62 15 248 169 236 210 252 143 68 129 92 92 246 245 214 134 64 100 203 56 215 87 2 235 199 238 233 55 49 248 183 108 132 185 46 5 199 92 209 17 33 167 95 129 86 74 211 251 35 173 44 11 169 198 141 229 231 85 67 21 136 98 125 
100 170 120 53 216 193 162 73 146 80 49 237 69 24 0 85 53 174 5 146 11 43 213 3 40 239 51 17 113 242 41 100 132 105 53 0 6 207 76 250 52 200 247 152 216 38 33 30 2 87 101 177 192 173 83 65 51 2 68 9 136 63 197 253 235 70 5 67 69 243 7 42 162 104 228 187 57 145 67 54 189 118 187 67 225 195 3 109 105 119 69 10 155 178 209 91 150 147 152 25 
131 23 75 89 100 189 140 97 116 209 254 50 186 81 216 166 78 131 79 16 60 170 215 163 203 229 184 179 156 100 2 8 141 208 114 56 137 106 109 138 160 137 36 22 64 230 164 98 234 35 33 47 227 115 192 122 101 83 144 1 73 175 100 28 43 124 184 172 246 224 48 148 56 126 100 162 92 174 195 184 121 166 28 9 136 34 216 218 132 91 103 148 210 194 208 140 10 196 92 188 
173 8 75 197 51 209 251 104 170 112 226 244 246 166 88 236 143 64 145 166 228 86 75 148 176 249 253 18 253 114 2 91 87 254 141 58 17 161 232 103 106 130 57 235 9 51 24 49 101 77 161 95 172 3 156 36 208 68 148 41 10 183 147 64 52 189 234 43 76 207 224 111 138 242 19 28 114 114 89 67 216 97 202 234 121 87 252 84 64 207 19 224 20 43 237 207 151 143 137 112 
223 76 6 146 140 44 249 37 190 104 69 104 67 160 131 165 253 139 250 105 188 170 232 21 205 64 66 185 128 208 65 131 180 1 119 226 135 253 126 73 75 203 245 207 240 185 215 30 155 175 245 48 169 141 179 106 231 75 252 10 245 127 47 187 174 242 120 102 241 33 193 110 137 46 17 12 188 244 152 132 12 59 205 61 135 176 130 164 164 53 81 204 142 186 114 30 129 253 207 12 
