P2
100 100
255
45 222 118 52 84 47 235 108 38 215 65 236 15 64 165 90 253 211 79 244 50 25 33 111 74 109 167 196 36 30 23 91 251 149 118 240 168 42 35 103 160 71 93 10 192 38 17 89 191 75 143 157 206 56 173 234 225 179 80 36 141 0 188 239 228 31 160 147 164 14 175 45 88 207 30 120 111 214 117 110 134 38 247 241 118 97 81 255 191 9 105 247 89 60 198 58 232 118 12 141 
196 49 18 202 217 58 77 84 15 185 92 103 197 216 240 254 249 222 80 227 55 161 149 57 117 82 149 87 234 57 0 203 89 9 49 142 90 155 66 212 213 165 164 102 128 19 84 99 35 121 187 177 38 36 156 184 109 73 126 213 42 19 102 82 245 162 176 123 182 247 207 208 241 236 97 32 102 18 30 141 151 235 98 194 176 217 35 27 0 112 116 81 34 156 44 135 55 187 5 117 
209 154 5 128 74 242 189 234 53 25 183 239 108 252 250 216 53 133 209 232 43 224 15 193 239 20 19 74 195 174 150 121 157 193 15 153 140 160 10 144 188 76 22 219 40 148 187 38 23 71 161 238 215 135 28 205 75 123 11 149 152 115 229 38 153 113 186 247 19 56 115 212 193 25 26 54 120 125 121 204 46 68 47 220 102 58 178 85 241 249 67 30 5 145 36 129 254 18 63 159 
209 49 224 197 117 182 2 126 94 12 125 84 210 233 178 191 232 172 254 65 161 236 106 246 104 52 4 216 119 115 253 239 103 211 187 155 243 2 68 128 135 232 82 77 54 225 235 120 238 26 131 186 85 11 9 46 138 57 157 72 142 159 188 220 228 37 251 231 92 253 74 133 140 109 246 99 255 106 23 88 142 65 48 57 67 236 136 198 113 138 75 199 151 192 56 116 228 0 80 215 
191 70 177 92 49 156 157 49 178 215 42 237 136 105 78 122 34 6 166 134 203 190 147 73 32 10 51 190 255 189 247 122 24 10 29 155 190 111 202 236 211 255 115 185 60 69 251 59 50 142 44 142 185 159 40 83 191 238 227 78 81 51 5 179 181 12 106 73 163 126 162 248 186 249 253 147 130 188 26 234 127 192 74 97 158 109 183 34 112 243 188 93 79 223 107 99 183 63 216 117 
141 138 105 60 35 244 67 234 45 204 196 234 107 178 57 166 2 152 45 207 161 16 224 11 197 157 77 243 114 69 12 29 173 137 3 27 255 90 51 159 206 151 6 30 136 10 4 158 255 131 3 94 234 105 189 248 9 127 184 233 216 160 146 95 21 32 102 72 179 129 175 189 207 84 57 229 48 189 155 182 184 159 7 76 56 92 138 255 57 240 50 228 76 183 127 254 146 23 222 124 
130 107 62 152 102 34 7 218 218 183 120 243 159 209 18 219 214 192 77 190 250 17 43 147 114 216 127 190 5 132 169 78 126 78 110 167 225 209 52 250 160 76 183 75 152 182 185 31 2 118 220 178 167 163 202 99 173 117 26 36 175 75 31 243 63 141 210 135 54 176 74 120 239 118 119 137 142 126 255 186 36 197 225 231 10 0 199 135 110 72 98 80 224 41 129 129 99 131 84 23 
39 206 103 41 146 165 111 3 205 252 185 123 208 19 148 162 99 185 221 246 95 58 233 33 90 84 42 230 202 194 103 245 143 46 231 134 38 121 45 212 91 71 156 131 66 45 210 3 16 93 69 153 201 152 9 172 200 126 252 124 36 232 223 86 130 61 136 23 9 91 120 243 57 141 251 76 165 15 212 52 205 103 34 74 134 159 55 92 161 216 197 152 237 249 240 34 170 219 145 233 
143 15 94 192 161 37 13 102 157 152 30 62 109 19 154 33 146 190 196 102 10 241 119 49 87 161 191 43 136 34 214 186 41 160 216 94 234 83 235 78 47 243 140 0 27 129 229 58 172 29 130 236 49 215 11 6 238 50 196 61 8 12 60 189 105 3 151 139 200 27 195 203 66 57 188 17 25 143 201 224 75 42 181 160 252 245 184 153 75 132 161 35 190 199 6 240 87 212 189 180 
118 48 229 112 202 228 124 176 177 105 217 234 76 243 89 46 47 7 36 81 145 121 108 152 249 94 39 154 78 205 49 135 151 2 76 110 31 34 101 45 139 60 233 13 180 173 241 97 199 15 208 34 140 105 33 77 22 8 109 153 243 180 245 244 213 64 59 4 3 214 210 102 71 230 214 178 110 59 19 68 226 237 253 4 124 38 50 55 48 139 197 228 63 183 192 73 235 65 143 87 
81 206 130 239 127 84 128 14 78 153 137 151 190 250 50 161 177 113 216 119 240 201 227 48 226 176 160 0 207 53 172 48 39 166 13 62 90 171 154 232 166 155 217 173 138 206 127 197 99 43 215 229 44 96 108 22 160 80 123 108 200 13 125 1 159 237 251 44 229 202 67 222 236 82 249 116 77 143 114 137 62 76 179 1 46 43 126 51 166 219 243 190 193 122 151 32 93 55 223 145 
108 229 54 43 62 235 242 115 11 173 125 77 255 21 76 78 247 247 15 241 48 108 50 98 200 63 233 165 38 97 183 124 219 172 21 160 61 181 49 102 194 106 100 4 80 199 196 69 201 74 19 200 2 96 191 195 27 154 167 227 38 7 27 1 39 74 233 164 172 35 85 213 54 1 248 183 197 86 53 148 59 209 38 112 171 99 210 236 109 156 130 99 80 239 15 75 197 70 239 47 
128 7 2 31 87 240 248 112 233 55 136 92 144 77 111 114 35 86 234 182 124 143 205 156 135 62 242 177 124 133 69 35 156 109 20 208 76 178 36 21 204 86 167 222 201 33 212 53 102 114 185 116 118 93 226 210 195 253 42 27 84 202 173 235 195 41 125 238 68 241 182 77 172 156 20 44 135 139 132 19 172 90 55 120 137 120 21 98 238 146 93 48 156 161 70 236 118 15 112 175 
201 153 47 250 250 49 236 23 94 128 34 156 222 53 187 226 107 101 33 149 216 120 239 251 0 66 85 61 173 129 244 251 176 169 178 80 253 198 153 116 123 54 151 135 251 167 101 137 217 52 103 234 175 116 231 91 23 64 52 244 179 245 213 134 176 156 112 227 249 2 139 14 38 209 133 168 197 123 39 72 102 24 174 128 43 211 237 55 247 103 58 30 95 32 136 6 40 208 50 246 
24 192 55 33 94 73 83 49 201 29 95 72 62 130 97 237 181 113 237 244 20 117 230 157 100 12 199 160 86 157 61 10 244 16 243 191 214 236 141 62 114 236 200 125 80 135 75 85 141 184 234 146 123 105 182 42 221 32 202 87 167 47 119 185 176 250 111 47 35 229 240 54 253 239 1 153 188 194 71 3 223 58 205 34 25 254 235 106 206 62 127 134 54 82 61 12 191 64 83 95 
1 211 10 44 237 83 100 162 100 150 21 44 118 148 129 139 252 125 141 123 155 210 96 39 130 61 193 71 197 148 101 191 192 164 141 48 28 33 193 173 166 90 8 52 105 101 26 246 114 57 206 124 133 103 181 138 93 115 118 137 254 191 120 229 235 31 24 209 101 146 161 61 219 192 36 9 124 172 240 77 75 46 153 139 148 195 122 124 105 28 183 212 77 62 48 178 195 32 205 251 
185 133 126 76 63 173 94 33 33 136 147 150 142 61 27 79 137 156 79 11 104 168 74 222 233 103 167 96 37 251 46 174 152 37 91 130 22 101 93 250 124 252 104 66 214 168 88 65 202 66 41 224 124 194 224 243 140 107 246 148 159 144 110 183 96 38 95 209 18 223 136 119 227 231 223 138 79 204 79 76 165 216 167 6 159 132 228 81 74 166 106 243 42 245 195 195 108 75 126 138 
28 225 196 132 52 223 236 240 219 14 236 240 66 77 193 4 217 98 68 35 165 117 174 235 120 17 16 74 69 185 79 249 79 31 164 36 175 127 149 251 203 201 185 125 33 246 173 145 216 103 212 95 59 48 223 24 34 66 110 210 218 216 30 165 20 96 23 99 227 232 32 251 60 132 112 128 150 66 68 187 155 199 158 83 178 248 209 112 121 149 6 45 63 106 245 211 75 224 98 40 
82 85 120 116 178 129 125 78 35 233 137 31 2 38 110 53 101 110 83 49 245 64 72 195 213 161 242 116 133 134 166 172 159 218 20 155 250 36 161 185 57 214 63 167 38 222 107 24 101 184 104 18 159 203 68 112 9 35 117 63 125 171 89 27 240 243 169 207 214 39 233 111 17 110 42 81 134 62 17 243 226 41 167 223 39 91 64 199 207 26 48 111 103 175 154 170 189 52 168 3 
121 142 166 201 42 103 86 134 225 12 7 131 199 125 242 67 13 157 100 72 87 145 251 213 71 138 218 216 17 62 136 8 102 32 223 10 19 76 83 88 60 247 108 208 209 215 184 250 193 42 96 174 105 175 185 242 87 120 116 28 12 24 234 234 191 97 69 108 197 105 235 17 214 73 59 17 226 200 124 113 220 165 84 213 59 180 188 202 14 109 146 74 199 184 137 61 155 78 254 32 
249 180 135 135 239 34 179 67 223 251 19 78 156 173 190 106 111 47 182 201 89 252 5 229 224 152 164 146 208 181 193 247 168 54 44 204 15 176 46 80 151 106 229 158 10 245 186 61 40 181 75 253 2 112 133 31 203 128 44 22 111 233 236 107 212 28 93 32 114 198 54 177 187 176 224 30 121 184 74 144 224 42 17 151 196 15 255 149 134 60 45 4 110 55 50 174 53 49 111 72 
38 183 207 105 246 232 116 56 99 121 148 65 129 23 90 38 83 178 228 215 224 40 202 34 65 11 91 183 82 75 43 134 135 131 172 78 140 184 189 54 186 141 104 18 209 193 110 113 167 245 57 128 177 208 188 74 70 99 24 61 170 195 247 136 107 149 30 232 232 130 196 175 168 168 39 64 158 32 180 245 48 192 65 74 161 142 49 67 179 44 248 156 218 162 59 32 64 1 66 3 
252 233 215 74 157 213 172 154 130 76 111 50 140 136 46 236 46 252 190 218 40 50 193 129 69 7 11 91 79 236 132 35 191 31 93 172 63 208 137 195 95 84 197 177 27 226 144 184 33 53 112 129 18 159 87 178 180 159 102 245 29 192 164 223 147 112 249 22 124 6 56 110 45 224 42 159 221 61 52 188 199 180 238 76 117 23 29 230 109 182 151 82 72 187 227 79 89 254 209 171 
217 245 42 31 106 74 25 134 23 127 9 181 133 2 250 3 162 142 87 122 199 147 43 117 23 165 43 205 71 159 206 240 29 104 75 126 221 182 60 2 81 149 72 235 84 148 175 28 209 84 127 99 139 181 218 42 153 145 126 171 79 134 78 34 112 112 104 98 83 129 99 77 209 168 164 177 36 160 86 157 2 117 29 191 183 248 139 41 158 24 37 34 254 204 195 155 177 107 2 244 
24 178 251 198 241 68 79 216 185 224 119 196 44 110 144 187 71 33 25 176 99 97 50 36 92 61 39 174 125 136 46 15 46 213 68 190 197 160 0 191 121 1 157 65 169 251 24 12 188 221 214 66 59 179 173 114 35 149 130 161 135 100 130 170 153 46 62 147 238 36 0 92 92 127 231 254 213 243 174 71 169 182 116 134 145 196 224 207 157 154 235 102 106 203 239 15 71 157 190 66 
123 200 63 240 54 75 86 32 116 34 164 162 63 192 216 233 35 232 115 206 38 173 207 157 82 255 15 164 85 31 106 14 76 217 216 167 123 16 225 110 152 122 123 123 39 113 79 88 149 6 35 150 59 24 156 51 33 231 192 105 146 167 244 50 155 103 128 49 14 85 166 231 144 92 157 16 130 236 221 108 180 217 145 56 78 121 56 158 120 213 134 140 239 186 149 129 58 14 58 152 
148 150 237 136 231 38 56 2 251 9 142 199 170 41 26 244 179 193 134 25 65 169 212 27 31 238 247 165 219 48 134 61 165 37 36 29 227 67 178 182 116 139 87 209 123 96 60 233 80 249 248 62 164 202 115 145 233 92 178 59 87 141 243 200 253 86 97 84 178 206 117 24 152 40 92 13 161 218 215 47 245 24 44 35 152 188 148 134 173 100 14 191 228 51 12 218 92 146 233 198 
188 201 220 64 147 223 53 174 179 71 121 118 159 72 127 227 99 117 20 26 112 76 50 93 196 97 50 6 138 78 0 151 194 11 151 112 58 116 174 203 15 201 75 255 193 74 40 245 209 205 85 176 23 90 153 228 73 156 227 184 49 161 60 7 68 169 207 110 127 201 29 34 39 63 102 20 161 169 235 117 100 124 5 65 202 11 63 19 205 161 193 245 28 146 56 91 121 223 72 43 
116 36 106 141 53 100 92 207 46 51 4 148 19 170 218 79 136 65 86 163 208 54 206 91 202 253 12 239 30 215 187 43 100 161 24 203 19 92 242 12 190 250 153 87 153 175 80 252 167 7 217 69 60 174 175 157 192 131 176 78 251 125 227 206 224 120 251 245 40 237 207 210 253 230 40 211 59 239 77 199 153 47 145 73 67 118 47 9 172 103 42 40 33 99 54 72 60 143 178 13 
26 8 78 159 80 10 141 114 205 159 189 42 10 232 1 79 255 203 185 178 209 102 64 100 15 146 138 36 8 33 112 153 197 103 93 78 79 195 51 136 228 26 157 30 20 106 90 165 164 124 12 64 48 229 100 31 213 119 205 190 58 142 37 83 8 38 125 159 29 14 105 65 79 158 24 66 12 177 86 202 203 15 255 230 235 0 211 62 13 71 35 65 76 148 11 125 45 105 188 44 
205 105 204 128 34 105 4 25 120 127 163 21 180 156 10 94 245 69 21 33 46 9 250 167 204 162 252 238 4 251 70 223 212 189 105 118 145 20 126 197 209 193 130 137 70 215 111 130 119 140 221 195 66 109 254 181 185 137 65 107 46 161 168 24 75 58 218 139 70 199 98 94 171 35 194 130 95 221 29 110 27 157 128 72 38 89 137 100 229 53 6 99 252 176 104 125 16 78 254 232 
149 7 196 150 138 52 232 176 2 214 177 102 125 29 181 36 87 244 238 94 15 243 195 11 253 171 167 149 165 6 233 199 250 129 197 164 43 3 174 163 22 146 20 123 219 121 110 226 225 63 88 223 253 255 214 170 97 193 179 171 187 17 56 164 144 160 191 208 226 98 159 19 217 255 252 4 53 0 154 245 222 169 82 131 127 245 32 100 48 222 221 23 159 29 90 3 76 205 180 21 
29 193 144 161 45 150 85 72 103 154 79 9 49 168 197 108 203 120 48 73 252 204 94 234 214 212 91 65 55 154 187 67 98 237 152 143 252 151 82 169 61 160 48 37 137 220 79 110 204 46 211 50 94 181 38 232 11 79 111 240 49 199 212 120 115 118 76 47 0 255 58 0 160 208 193 11 134 255 230 113 245 165 194 58 188 13 8 135 152 240 196 169 70 80 164 144 64 52 224 200 
165 94 229 83 115 13 175 45 217 211 76 232 53 151 9 154 212 73 28 42 156 73 97 95 113 171 62 82 241 178 27 235 161 37 184 234 238 168 111 229 219 195 144 170 130 0 12 209 92 49 24 85 176 182 11 89 233 246 153 49 239 71 46 170 211 1 147 86 122 149 146 163 2 122 77 134 65 159 226 131 124 95 154 69 23 41 249 228 208 244 220 84 230 43 182 37 60 13 150 8 
59 59 46 255 101 214 27 206 176 45 161 144 138 184 172 5 234 225 18 43 191 116 163 1 94 176 69 211 108 148 125 41 218 15 255 200 44 102 125 207 109 129 50 33 34 74 125 28 37 4 35 79 249 98 203 246 166 99 90 211 156 0 207 2 239 203 8 250 180 235 202 213 159 222 118 245 134 76 187 76 15 8 144 128 113 93 58 83 7 60 32 73 61 130 41 71 66 90 50 153 
67 43 106 45 37 221 138 217 120 130 94 191 72 47 172 51 206 239 131 102 95 160 175 119 199 218 19 133 48 164 251 61 103 115 43 194 156 64 228 54 223 37 94 37 20 113 150 212 114 17 104 16 101 58 23 64 142 35 9 157 23 246 7 24 85 208 136 241 49 79 79 106 238 255 183 74 21 214 79 50 177 191 132 19 221 152 64 75 154 168 140 141 64 72 255 151 125 129 17 74 
107 215 186 112 190 165 76 117 83 238 31 112 60 214 114 121 73 181 39 76 114 206 115 190 206 61 23 161 138 110 86 1 185 54 168 202 160 25 236 43 255 41 40 12 225 132 71 160 46 132 184 62 63 155 125 80 139 25 171 195 24 212 166 84 154 144 40 154 110 137 59 137 75 19 195 31 17 245 64 1 126 1 151 70 231 240 177 117 110 139 186 111 8 157 1 21 145 156 128 206 
150 192 185 31 5 39 233 107 179 205 44 202 152 119 150 11 187 208 52 217 177 7 113 73 29 157 226 215 98 92 143 233 235 137 21 7 219 219 253 26 206 122 148 201 128 234 62 84 29 79 35 28 210 26 113 212 103 164 112 203 239 212 98 30 183 241 215 124 147 211 165 55 39 111 204 122 236 15 43 60 70 167 241 249 139 90 187 190 41 53 119 163 158 240 155 84 1 89 107 187 
255 125 208 39 96 106 181 215 176 131 93 241 83 223 68 88 0 25 182 183 182 36 214 2 107 17 234 158 27 182 62 129 126 66 192 237 247 122 174 87 94 214 121 222 165 116 26 179 94 209 134 223 2 190 64 219 64 203 130 132 197 175 122 109 165 167 162 203 185 46 239 110 129 100 198 209 6 72 121 234 218 144 26 77 93 128 137 163 51 7 73 104 227 184 204 32 104 221 192 205 
32 0 46 62 220 80 229 84 226 201 87 50 69 34 87 20 112 157 114 197 154 243 203 207 255 94 254 138 195 2 174 171 61 12 101 96 45 124 232 32 95 109 193 214 176 43 235 221 255 202 223 168 137 55 101 51 167 28 183 240 222 222 148 106 184 61 241 192 154 145 52 120 128 178 119 79 17 8 226 120 65 47 222 48 10 26 123 135 15 147 33 235 29 220 140 38 61 50 134 102 
26 45 48 113 72 163 245 66 114 238 28 28 22 14 23 173 247 15 52 24 154 21 204 17 110 221 130 71 232 232 185 223 174 236 190 158 176 82 43 107 37 225 213 49 69 59 110 136 205 17 45 141 189 189 72 242 69 7 73 175 162 186 252 3 140 8 21 65 86 54 138 220 98 193 104 228 188 2 72 218 252 13 3 132 81 44 223 30 14 140 91 141 249 151 229 225 228 87 244 38 
46 252 168 46 91 44 62 192 142 144 102 210 228 182 208 179 150 243 203 253 58 8 63 123 121 8 245 120 201 145 151 74 189 202 8 165 173 235 62 164 111 27 72 52 11 5 4 32 252 196 14 196 225 238 89 234 181 70 105 48 60 206 60 185 6 56 84 189 51 176 125 78 112 173 29 64 188 13 245 111 212 146 170 177 17 212 164 77 22 244 158 91 106 159 140 27 83 26 38 202 
196 213 69 212 228 83 118 83 252 144 80 127 134 118 240 126 44 74 110 244 255 139 142 245 106 74 34 125 70 129 215 120 220 58 15 27 224 44 234 73 102 185 209 124 175 16 208 204 49 180 86 42 212 8 248 130 29 91 40 93 156 71 39 69 218 92 206 82 212 20 109 129 215 192 18 4 83 188 76 165 22 83 184 43 234 195 56 215 234 50 88 12 140 228 155 79 19 222 202 169 
181 29 135 239 127 102 22 20 68 228 194 69 58 19 197 172 221 170 111 175 97 56 196 151 209 6 117 98 120 102 105 214 131 35 63 169 157 236 175 162 159 142 198 111 76 54 146 151 31 47 24 116 249 130 153 177 239 81 80 62 25 107 254 133 39 245 156 214 118 99 149 121 108 80 124 247 181 218 72 165 226 151 206 91 66 59 230 159 107 98 52 139 240 159 40 67 60 119 80 56 
139 36 214 197 233 137 197 30 41 19 251 32 211 135 169 31 55 191 243 62 237 54 251 4 206 114 68 217 200 133 54 231 86 16 152 230 71 247 37 233 200 139 245 81 182 103 142 58 73 16 53 229 139 161 170 38 28 46 48 127 169 246 93 150 69 91 71 71 85 193 114 225 133 188 19 172 217 226 135 193 17 153 244 215 117 221 50 0 2 154 204 156 0 247 108 236 80 77 187 144 
217 175 29 246 178 37 35 107 137 156 46 23 16 67 211 107 108 176 132 32 43 116 165 52 211 15 195 227 164 199 14 199 36 234 35 187 151 159 30 50 214 243 31 90 23 21 45 242 190 9 5 95 226 225 58 73 180 123 110 47 10 105 248 187 183 8 58 146 181 98 202 212 140 80 96 69 128 27 142 110 119 169 170 228 155 224 233 2 200 145 52 242 204 174 26 63 159 223 48 132 
203 31 188 45 72 57 41 61 201 8 85 93 185 188 98 43 20 71 46 99 2 94 24 130 135 3 152 239 42 154 159 253 66 192 112 49 46 64 67 252 228 196 69 203 10 31 35 127 69 127 190 83 76 244 121 208 69 52 196 215 164 201 144 205 162 61 49 41 179 235 166 186 144 169 27 70 98 236 47 66 76 81 49 71 90 153 203 95 187 82 172 166 173 162 93 247 104 139 209 14 
57 0 27 200 236 175 21 178 250 37 82 173 205 12 54 125 125 143 44 177 144 85 33 240 138 149 50 46 150 7 234 49 22 80 188 192 75 14 76 174 68 188 241 188 84 61 177 125 239 60 124 24 226 159 188 70 224 249 164 63 251 153 160 69 54 50 182 176 138 33 189 196 242 125 43 245 116 153 54 52 173 255 129 223 155 216 111 109 209 183 135 218 60 26 160 190 57 116 48 192 
252 213 108 44 116 113 46 70 126 27 98 145 132 140 213 63 250 147 173 59 181 52 239 168 58 96 168 202 31 106 58 51 152 21 145 66 200 138 46 51 110 121 63 55 242 215 28 69 222 100 128 227 238 228 222 114 169 10 216 17 18 238 215 23 97 77 199 254 132 240 170 52 204 191 251 197 207 47 29 30 77 223 251 18 101 207 89 44 174 187 23 13 142 74 134 187 228 181 111 191 
137 168 12 8 72 31 165 140 213 149 208 162 202 79 60 67 225 123 239 253 233 205 20 219 36 77 13 231 22 5 150 214 16 50 178 41 99 78 216 58 83 0 19 171 139 193 229 209 73 202 118 136 88 43 189 95 5 7 250 132 249 216 240 6 51 179 188 113 157 74 227 179 249 90 219 50 190 50 187 173 146 109 168 230 56 216 46 229 244 138 104 40 209 253 37 197 243 97 187 201 
17 77 251 255 49 237 85 181 83 235 179 255 122 147 243 164 241 152 64 77 115 114 244 223 136 151 252 194 134 23 174 209 138 185 33 200 106 127 239 247 112 86 25 213 140 69 79 139 204 143 59 143 206 173 173 223 190 27 86 93 57 2 94 148 158 45 188 158 98 6 107 222 8 178 211 70 145 218 153 34 4 74 126 55 72 251 252 220 133 249 12 102 219 215 59 102 252 66 184 37 
232 255 181 215 212 12 238 182 20 91 87 47 30 113 167 43 197 54 9 105 54 162 204 254 92 53 40 93 3 200 222 71 228 70 79 79 149 91 36 157 55 120 104 32 13 111 88 29 237 77 140 133 169 184 17 219 30 101 29 14 127 154 120 20 118 191 72 94 212 14 135 102 149 206 86 242 31 166 199 16 224 125 89 134 73 180 196 186 196 107 178 22 145 103 156 160 35 212 93 129 
89 197 120 165 47 234 93 9 106 103 216 62 46 236 45 214 128 17 104 222 204 107 171 228 26 129 200 135 118 26 86 96 200 124 107 181 47 38 214 243 139 162 243 170 232 129 117 162 90 83 120 101 129 159 132 145 72 237 163 142 194 177 99 165 69 143 26 206 165 129 137 209 139 132 220 183 34 50 4 161 177 88 191 0 53 158 186 242 215 131 99 44 250 46 201 177 189 204 213 172 
241 70 202 240 26 73 33 209 78 79 235 232 248 53 7 182 179 114 126 56 30 222 110 123 36 169 209 38 159 196 201 130 27 226 16 155 252 0 91 243 53 243 254 64 217 88 226 150 205 186 133 206 210 92 1 47 149 71 67 120 240 58 126 110 228 176 247 183 123 193 242 231 19 162 93 58 47 75 243 100 182 238 251 120 24 221 104 162 59 100 145 127 232 249 217 7 122 187 250 165 
20 158 67 206 236 32 228 149 122 82 228 143 165 50 36 64 210 119 187 241 48 0 124 41 30 130 115 203 82 80 120 192 150 167 127 124 219 231 86 206 138 18 242 41 102 71 108 255 225 64 24 248 79 100 45 112 75 226 193 70 247 251 235 104 190 55 189 132 80 5 102 123 214 120 245 115 145 181 27 233 168 131 245 13 238 237 43 111 241 241 136 93 118 140 16 192 203 200 59 21 
10 186 118 228 183 150 45 44 169 247 114 119 160 159 217 64 235 38 117 81 243 43 97 43 146 99 120 253 30 201 189 200 196 52 193 111 226 204 163 14 192 191 107 141 22 234 157 126 58 139 4 119 143 38 251 118 89 36 101 9 68 181 110 107 5 148 222 38 224 247 34 15 223 193 255 24 168 141 92 32 67 40 31 58 130 219 143 90 170 161 64 252 244 234 42 230 108 166 127 16 
125 93 45 24 219 182 109 211 224 12 113 52 162 185 117 25 73 26 244 50 111 166 222 158 13 234 81 76 227 74 206 197 78 31 70 192 219 220 64 199 178 92 227 207 100 164 174 153 85 206 52 50 139 2 181 75 17 235 108 232 210 195 140 35 148 122 160 112 181 251 36 216 183 54 60 20 151 217 90 252 16 211 85 237 101 4 237 184 1 29 63 85 228 67 12 118 140 109 249 181 
16 51 64 243 96 126 153 165 194 242 28 208 222 110 90 148 108 8 114 234 152 38 240 254 166 24 241 95 126 77 102 158 211 255 168 142 225 12 5 178 60 72 185 223 184 238 187 67 191 8 195 114 180 147 57 76 24 62 4 177 0 165 59 79 35 146 174 21 24 208 133 181 93 94 226 128 86 197 251 161 51 115 28 48 8 225 170 20 32 29 14 85 50 89 105 47 153 120 255 77 
197 62 161 25 25 151 41 150 57 150 100 142 149 96 77 77 143 255 147 162 184 36 22 241 97 36 137 104 92 43 233 24 212 185 38 20 217 116 128 74 86 192 60 167 181 197 91 37 174 238 141 209 58 229 15 59 35 96 50 179 139 2 211 187 177 38 156 177 252 101 68 132 130 179 20 30 148 132 169 130 197 168 219 143 192 249 147 0 171 79 185 107 17 156 81 140 4 73 135 208 
80 207 123 1 82 20 27 76 142 58 8 64 70 38 32 224 200 148 59 206 185 199 69 213 163 244 69 32 190 137 231 15 153 154 186 138 245 54 57 114 68 204 250 134 143 205 153 214 39 77 45 97 238 201 80 197 61 117 51 93 59 197 193 130 28 49 34 214 130 50 145 206 234 117 234 89 179 93 0 61 126 122 17 255 188 204 206 29 172 217 177 46 225 106 57 221 224 178 53 181 
96 75 10 93 119 134 219 24 35 233 151 34 56 234 63 176 84 1 1 35 119 105 121 64 58 143 53 72 172 160 41 96 173 16 89 132 59 201 168 222 226 177 124 230 59 85 137 81 55 127 12 146 159 204 27 49 180 0 59 39 196 76 180 124 243 127 80 235 216 88 56 15 108 145 48 135 148 27 170 228 135 158 32 119 194 171 54 124 197 66 36 23 196 9 255 157 77 119 75 161 
248 227 204 98 11 112 88 73 62 50 5 182 12 42 102 184 32 74 208 118 129 230 208 97 192 233 150 184 14 188 29 7 170 168 66 60 155 119 140 195 162 53 166 37 86 29 126 67 68 253 181 117 237 253 171 118 119 17 177 73 32 24 91 253 122 179 212 55 173 197 47 199 185 142 87 85 113 85 218 249 36 229 14 193 169 238 40 159 227 60 156 29 88 255 130 216 123 89 96 122 
155 167 203 214 20 121 201 50 73 124 63 235 231 162 147 254 237 65 193 116 42 215 72 212 134 73 207 237 62 75 190 39 22 42 47 231 46 94 61 129 76 97 251 188 240 245 148 135 169 81 34 158 67 48 206 56 23 3 3 140 109 242 249 160 170 86 61 5 105 189 90 245 231 30 175 62 177 116 128 109 204 33 44 237 38 175 205 59 138 85 161 180 1 181 165 179 206 59 234 181 
231 182 92 153 196 69 115 87 211 159 33 225 132 65 147 246 88 238 96 82 35 45 142 232 3 108 65 140 117 130 244 64 245 145 84 244 50 43 162 67 73 91 176 12 123 152 35 166 36 47 146 227 104 196 109 172 235 66 64 164 225 65 189 44 121 240 40 162 11 93 30 183 203 137 38 45 177 57 196 33 36 59 73 94 242 131 82 212 165 226 19 232 173 132 38 82 35 193 159 98 
141 249 106 216 63 23 77 62 79 10 179 188 173 131 189 15 93 145 99 53 45 21 181 19 229 104 111 254 107 140 6 79 153 139 84 158 215 163 19 6 219 147 51 19 168 198 102 221 254 243 227 206 7 119 124 33 134 7 42 22 47 121 92 46 199 153 51 253 169 41 20 203 70 148 238 53 85 130 123 72 232 81 115 121 0 204 165 34 230 192 165 200 232 225 187 204 205 175 60 12 
20 66 179 233 179 62 89 131 9 90 239 147 143 237 243 168 11 126 88 130 168 146 43 19 69 48 172 35 50 144 109 173 221 105 167 25 43 145 233 32 99 215 92 124 164 202 78 179 150 70 55 53 173 142 14 137 11 100 142 123 80 131 111 35 160 140 83 132 4 55 239 180 158 228 242 64 196 227 144 46 100 204 221 81 246 169 104 137 123 149 65 81 144 159 226 97 126 251 2 58 
12 90 111 243 166 209 231 52 59 139 4 158 111 254 130 29 169 249 209 35 170 123 145 116 95 62 4 211 89 52 15 68 255 246 233 176 154 234 161 199 214 225 25 246 175 168 213 208 238 212 233 252 2 81 247 141 212 212 109 232 37 255 81 246 10 135 169 94 96 88 180 194 194 59 237 123 150 169 183 89 104 97 58 132 180 195 218 1 217 126 108 82 134 186 170 133 140 101 15 227 
176 195 188 238 191 12 156 185 252 240 93 134 253 21 206 235 144 125 155 154 11 234 28 47 212 3 237 152 111 245 60 179 241 50 33 17 83 120 55 1 40 104 134 110 60 135 50 142 151 53 199 140 10 94 81 138 217 155 109 3 83 87 34 252 226 73 149 69 250 233 63 212 45 87 193 234 97 182 30 173 203 172 8 62 35 165 15 224 235 102 55 44 221 184 2 233 36 127 93 237 
8 90 242 177 249 55 215 157 181 251 252 44 175 64 63 52 126 102 208 186 165 2 195 245 242 75 184 69 25 225 9 172 186 113 192 80 65 209 136 94 95 118 158 58 6 202 115 161 158 32 137 93 28 182 74 186 68 231 42 71 234 63 163 77 9 190 166 214 246 217 63 88 105 150 82 150 176 16 202 118 208 184 251 203 225 161 4 133 182 63 216 190 151 46 178 30 199 102 18 98 
99 202 113 121 33 3 132 47 42 170 157 164 25 193 8 120 220 208 177 126 168 32 181 3 81 236 204 68 174 2 37 119 110 124 123 106 179 159 149 3 71 173 8 117 36 190 243 190 60 76 239 86 112 212 93 248 171 254 117 123 134 146 129 253 28 62 232 69 231 195 198 0 198 106 21 94 49 67 213 160 132 43 253 86 247 38 130 61 180 66 150 5 86 134 4 6 142 226 161 220 
64 118 148 246 244 99 162 54 152 167 169 191 132 252 63 210 75 124 223 143 126 179 39 159 118 138 250 115 24 215 227 117 105 177 37 21 30 75 105 100 219 205 236 134 139 193 104 150 245 222 118 244 94 228 88 199 128 44 30 159 39 95 107 77 31 238 212 166 8 27 61 206 50 16 29 244 165 130 249 216 214 159 175 125 137 78 128 164 200 116 86 228 247 123 181 249 228 37 74 167 
254 108 37 108 20 126 251 92 104 229 110 173 22 48 227 237 163 27 173 22 96 238 229 73 181 234 173 227 168 225 170 69 132 71 82 114 31 215 222 78 235 172 191 88 186 179 176 190 139 139 104 105 75 245 127 68 12 160 227 54 196 185 189 96 66 104 102 136 201 107 184 111 130 123 44 67 235 83 136 67 25 83 64 85 115 143 252 122 49 251 129 174 9 125 73 144 62 160 120 107 
45 76 104 41 113 188 20 90 205 116 176 93 167 166 63 188 140 141 32 184 30 104 201 117 134 193 96 185 23 47 146 120 222 195 11 196 64 11 160 134 205 232 46 82 190 144 12 169 151 116 203 116 178 196 31 76 77 248 210 249 197 62 45 235 92 212 224 251 159 84 104 181 187 19 17 255 192 195 14 97 179 232 33 179 6 181 232 240 5 86 49 135 26 116 126 186 96 4 231 161 
168 63 188 59 223 225 182 66 16 171 94 134 227 51 40 170 8 84 164 237 137 112 38 136 46 54 226 83 55 53 81 192 129 190 87 148 179 75 77 160 177 194 110 195 130 107 214 22 158 3 143 117 192 8 243 175 107 72 179 221 122 130 157 143 154 34 220 13 65 108 44 106 224 125 64 122 214 173 90 130 82 120 142 123 143 74 103 123 154 9 141 129 145 101 76 235 171 191 146 164 
44 152 245 192 147 151 44 15 201 6 89 178 216 83 126 212 144 54 245 9 6 204 80 51 77 135 104 239 188 13 120 37 133 220 234 90 159 103 247 118 204 168 136 212 74 143 25 12 94 214 138 234 173 189 0 0 224 99 157 138 116 57 52 168 238 82 189 47 146 167 43 148 78 87 89 226 126 241 103 123 115 46 182 221 20 197 152 214 40 37 175 88 126 253 25 18 193 172 28 198 
198 2 153 135 165 225 246 159 173 34 239 211 253 75 132 241 186 51 241 239 191 237 245 189 111 113 143 144 67 229 137 174 58 1 16 94 66 143 184 12 164 133 100 102 125 107 12 0 46 204 31 17 236 248 177 208 13 13 135 210 81 128 59 5 183 176 190 91 84 166 69 175 44 91 242 39 147 111 234 249 39 130 191 128 186 96 24 33 142 203 33 158 34 196 181 235 18 252 124 42 
106 143 215 54 12 183 239 180 18 149 80 139 105 250 225 213 74 139 214 92 27 140 32 43 13 121 99 116 69 0 178 56 158 13 56 145 139 71 181 221 191 108 47 182 21 91 201 28 11 0 32 45 2 9 253 30 230 59 114 48 106 249 210 158 6 2 98 210 196 129 185 23 98 1 205 97 79 152 197 135 114 67 78 54 17 78 44 137 31 15 204 0 230 102 81 13 118 83 243 41 
139 44 166 221 187 19 255 29 34 15 120 236 81 18 251 183 213 2 63 102 97 152 166 244 39 171 236 229 165 158 107 254 219 133 146 65 201 141 132 224 79 248 157 137 134 77 20 173 142 91 123 214 236 153 195 203 233 145 218 43 15 96 133 218 193 233 177 177 129 219 16 51 153 148 232 14 75 73 4 80 203 68 231 208 125 162 254 76 2 72 148 115 216 221 149 143 35 74 135 195 
25 0 245 253 43 155 23 140 87 126 30 195 12 207 240 249 6 139 117 204 50 107 184 249 187 234 99 220 193 79 74 123 76 158 120 35 20 66 49 179 55 75 4 194 180 131 80 28 38 80 169 32 110 106 123 179 121 173 176 249 35 249 123 120 126 247 245 226 45 207 53 195 162 56 4 160 165 143 243 188 240 240 213 240 160 30 207 109 116 194 49 30 240 138 196 116 54 131 67 190 
34 254 152 104 136 119 10 215 208 172 27 73 63 192 236 36 134 191 220 42 30 49 253 127 132 178 123 124 25 35 23 222 98 247 191 67 34 222 11 30 216 23 241 133 151 177 129 197 250 198 65 224 68 196 81 2 147 44 142 253 149 59 196 227 177 227 39 215 37 3 165 221 137 91 175 180 93 17 187 18 189 27 24 243 91 178 217 149 61 168 39 172 138 147 151 8 8 28 18 231 
154 207 42 134 244 153 250 59 14 252 38 7 196 165 15 55 230 120 66 15 130 51 103 50 191 166 105 107 250 222 147 45 133 151 140 191 66 247 39 150 255 132 10 48 59 182 253 185 5 209 254 150 235 176 80 128 192 93 213 63 76 240 30 121 65 91 72 175 145 160 156 228 244 39 12 241 146 132 242 116 145 2 211 156 172 181 155 93 206 100 238 139 165 150 12 114 223 222 175 137 
2 136 234 58 108 172 191 228 136 23 234 105 3 42 150 173 143 117 3 88 13 254 175 38 23 185 52 122 87 252 50 42 27 4 172 4 108 103 157 159 82 9 229 205 35 175 23 142 55 36 58 109 189 135 55 222 106 89 130 152 221 131 123 216 25 150 135 210 117 227 130 135 86 203 68 51 66 90 52 203 55 102 74 0 239 70 41 245 137 79 169 68 117 47 36 196 47 252 40 71 
231 211 175 219 254 168 156 226 24 175 170 78 219 193 218 228 21 7 36 33 15 208 248 178 169 188 70 58 194 119 234 8 175 228 215 14 121 132 177 178 30 139 200 141 72 63 51 213 172 164 151 218 149 213 215 233 240 102 123 112 194 39 207 86 169 70 25 153 23 128 13 40 149 109 14 116 52 46 47 5 25 11 32 85 199 183 48 232 181 245 5 23 167 113 19 175 91 84 111 175 
29 32 150 180 235 172 111 253 96 217 131 88 213 158 80 203 148 239 223 51 192 234 25 210 163 230 129 255 156 225 185 104 123 143 111 120 132 161 183 205 228 28 20 97 33 126 209 131 58 208 80 232 2 125 55 156 90 203 188 116 59 30 194 158 157 125 68 175 41 65 232 192 38 215 123 102 200 219 181 194 70 235 251 158 140 196 246 233 167 79 161 238 183 225 240 93 165 161 148 15 
111 128 188 62 28 184 19 65 119 175 111 64 119 62 49 130 191 182 156 108 233 16 163 90 101 149 220 29 28 58 175 40 10 211 210 146 170 246 116 16 19 24 133 92 95 221 218 71 110 75 92 233 177 98 73 253 215 214 245 87 177 147 222 33 242 150 135 204 42 144 99 162 110 131 76 141 70 88 66 6 186 150 6 38 44 212 57 101 177 72 203 116 50 171 112 48 133 171 39 25 
241 213 161 122 209 32 213 141 42 9 243 83 184 88 197 138 246 223 170 207 89 162 152 71 38 162 35 230 32 11 207 254 230 229 124 218 80 13 146 150 213 9 0 53 158 230 101 86 107 14 216 62 196 168 188 241 52 146 189 97 253 47 34 208 212 6 174 146 204 125 75 125 182 135 131 41 2 20 66 198 139 231 97 37 101 144 117 137 239 167 77 156 28 130 25 99 67 36 102 33 
76 9 227 149 167 151 111 123 170 249 170 61 95 87 25 169 131 150 214 67 187 52 35 175 172 74 184 5 166 45 107 143 137 245 194 134 125 88 133 59 57 109 120 78 97 70 182 109 150 159 114 34 101 218 174 39 175 142 224 238 151 176 245 143 231 209 229 254 96 113 62 141 27 201 209 81 8 15 154 130 20 133 74 181 238 49 199 130 158 226 140 129 101 117 13 88 73 100 55 81 
107 189 156 54 47 136 163 93 95 90 42 58 147 73 217 218 196 81 185 29 205 250 94 220 77 176 252 88 178 0 187 0 32 192 0 120 67 127 66 171 158 109 176 89 15 40 108 71 141 120 216 144 218 197 62 179 180 49 104 247 25 217 156 4 122 212 72 210 13 208 113 113 199 152 27 80 12 204 117 15 68 156 174 78 27 68 20 44 88 216 12 168 180 33 146 20 46 243 196 117 
231 239 229 176 79 237 90 46 151 172 193 38 40 97 155 78 224 91 236 203 2 189 233 140 15 32 77 143 146 226 28 109 199 62 241 255 160 190 150 66 132 114 117 230 66 23 243 78 185 33 20 99 208 255 183 220 11 153 94 14 130 206 8 83 129 181 110 165 215 215 49 99 242 183 250 248 172 216 89 77 111 186 132 75 98 242 4 142 4 202 65 230 168 212 72 90 100 168 20 255 
26 95 114 17 192 122 145 125 73 186 161 0 175 4 245 203 245 20 16 6 107 4 193 215 82 83 30 221 11 226 26 202 157 37 14 175 121 53 197 162 193 67 180 178 104 158 77 44 115 121 220 144 6 33 121 27 22 156 137 160 247 193 109 37 42 237 97 162 112 8 217 237 20 47 161 250 73 76 255 100 102 228 195 224 208 166 154 53 8 130 119 139 210 6 65 254 31 132 38 79 
106 188 153 193 163 98 112 153 26 186 233 85 217 136 87 66 78 133 183 113 45 165 244 74 136 174 128 89 27 3 234 98 110 208 50 128 26 248 159 177 197 194 140 177 217 183 51 3 8 19 93 243 131 3 47 178 178 43 190 102 46 82 169 75 179 239 140 68 169 116 57 112 229 86 35 17 118 8 42 208 169 159 199 224 220 25 201 182 140 55 60 15 21 82 76 41 195 180 230 148 
165 40 143 19 27 104 157 124 206 25 67 131 148 114 11 158 171 60 79 223 69 44 166 120 1 65 46 180 204 140 240 30 54 160 179 133 11 103 164 205 23 253 248 218 193 239 101 0 134 176 231 147 210 127 247 187 111 221 136 202 51 192 247 232 64 97 155 135 58 7 252 161 224 171 0 214 137 5 247 11 214 227 160 149 40 81 105 76 30 227 242 54 107 130 149 216 105 179 158 185 
209 18 103 36 182 20 196 211 52 25 5 224 74 2 52 126 253 164 68 250 176 33 56 165 163 62 82 130 34 110 135 37 15 30 187 79 244 55 252 10 230 76 101 225 241 58 249 206 27 224 6 76 133 64 192 241 36 194 53 137 16 16 121 123 164 173 29 8 179 85 0 228 81 125 96 96 67 234 136 43 233 28 145 112 150 32 139 127 164 6 207 92 97 74 189 135 115 11 8 47 
222 50 249 60 158 147 126 213 145 82 144 96 35 243 1 2 74 6 135 133 157 250 56 16 173 128 241 200 16 38 97 226 230 24 144 156 16 229 107 3 19 29 181 61 233 186 184 122 87 20 254 68 12 33 193 162 72 21 9 196 239 149 99 69 245 112 25 160 129 222 182 106 97 218 163 95 149 157 149 12 151 107 198 172 5 11 24 114 64 129 206 186 109 100 27 239 252 45 28 154 
83 75 70 194 59 96 173 191 123 10 156 13 89 220 49 223 167 96 228 125 65 83 73 225 224 39 122 62 80 88 71 111 137 15 103 22 110 148 232 131 254 83 63 120 111 87 228 229 165 208 164 121 109 227 236 110 218 91 88 139 101 233 26 46 29 105 141 186 6 112 100 5 176 151 4 47 144 58 10 88 60 222 75 26 122 113 244 22 164 198 62 64 160 81 128 174 161 63 233 29 
28 17 46 188 160 245 166 81 164 94 52 127 64 160 137 128 253 205 153 190 249 179 234 129 206 137 135 210 111 235 65 187 32 21 110 101 69 242 8 96 72 126 118 234 57 49 202 144 242 209 149 27 171 46 35 26 161 238 179 151 219 56 86 60 131 13 55 194 18 115 138 16 206 85 193 57 128 122 0 171 54 99 76 253 233 244 67 242 211 124 88 229 93 33 85 64 17 20 254 45 
54 67 29 84 192 176 98 186 212 224 123 209 30 138 14 47 26 41 200 85 79 35 181 28 217 43 6 101 55 114 191 119 114 194 70 226 89 40 108 45 16 206 99 216 138 82 21 159 76 132 240 74 19 182 108 218 58 70 180 161 19 151 84 254 81 201 251 79 146 208 109 22 38 36 224 18 96 189 202 102 66 25 147 117 135 121 130 232 244 248 105 53 104 233 72 191 56 191 204 81 
200 174 85 88 233 131 28 167 217 214 130 227 137 189 116 40 132 241 94 236 226 39 246 200 16 169 109 53 217 132 123 153 14 211 212 185 101 111 117 127 71 116 245 12 79 87 99 97 192 83 171 113 55 89 247 136 191 85 219 164 217 100 250 88 66 5 53 246 90 240 93 193 16 62 29 21 104 36 217 57 38 15 235 190 137 167 25 53 71 195 245 207 58 34 223 100 10 211 46 140 
248 245 129 16 213 164 94 250 220 133 114 31 47 193 59 230 223 156 141 122 190 101 118 13 161 83 230 115 25 146 190 54 74 172 109 79 120 122 39 15 53 1 10 136 189 15 70 39 149 42 127 197 133 141 234 9 128 144 151 194 65 212 139 48 42 231 188 210 138 116 193 74 222 147 38 216 45 146 237 154 157 69 178 88 224 58 49 200 105 50 155 140 54 78 64 51 68 234 14 77 
133 142 250 153 34 158 39 48 129 147 41 84 37 136 20 6 121 190 86 241 224 54 8 86 71 95 76 199 211 136 19 187 21 4 141 50 168 243 89 56 248 233 153 54 71 145 6 192 78 60 34 246 171 194 229 30 17 84 153 86 40 102 57 157 229 69 31 144 106 122 248 3 193 245 247 203 232 171 207 72 93 6 199 185 0 193 203 5 138 109 204 140 41 210 149 129 67 174 216 218 
