P2
100 100
255
3 116 165 138 173 158 174 142 4 171 212 220 68 150 182 75 74 127 28 176 12 117 135 166 148 16 252 240 106 253 80 240 4 52 20 112 249 222 93 28 51 135 238 143 134 20 131 246 254 85 99 122 189 58 112 56 36 95 69 198 33 160 205 141 37 151 195 64 114 160 156 135 140 131 240 91 138 84 0 34 227 70 214 10 67 139 231 101 191 94 126 2 248 63 114 146 6 65 166 204 
4 202 48 197 138 219 102 89 32 227 119 104 177 246 43 52 243 82 27 128 55 236 59 103 231 172 205 138 199 219 209 255 160 231 26 116 111 41 88 128 48 198 134 174 22 98 91 227 198 219 199 6 10 5 104 63 193 10 202 82 135 235 100 111 223 234 59 192 116 138 18 0 247 58 163 167 108 147 35 118 15 6 217 157 78 218 187 13 12 219 103 249 18 98 11 125 111 86 97 152 
100 104 171 6 38 250 93 241 253 249 249 181 174 218 195 209 67 58 13 227 20 83 221 95 172 196 175 169 134 233 211 0 231 9 3 66 38 209 232 237 149 185 220 78 180 119 225 32 13 179 174 234 224 103 111 62 98 142 57 166 236 227 29 105 94 13 78 178 167 228 224 123 46 158 150 161 130 105 254 236 213 56 215 137 79 170 129 171 235 237 210 252 80 165 68 118 251 63 154 15 
190 238 63 254 146 204 203 40 106 170 104 60 249 47 56 71 63 185 142 39 222 207 66 49 251 213 235 251 138 132 233 131 39 125 117 223 34 65 54 26 222 50 242 47 70 33 56 255 43 16 35 249 66 222 141 177 224 179 231 229 52 222 101 50 232 27 133 148 213 80 232 246 127 233 161 1 238 124 41 184 134 171 18 209 1 141 114 184 27 121 112 64 100 223 214 143 116 78 181 215 
241 75 52 108 140 77 134 7 251 47 108 89 67 0 216 252 38 208 49 162 55 226 242 174 54 142 95 76 94 243 56 220 183 238 51 90 175 232 80 193 98 230 183 196 180 122 68 196 124 213 108 126 149 6 30 112 30 134 199 69 74 12 128 84 40 142 38 237 91 113 225 176 40 159 203 30 37 198 114 128 247 228 47 42 247 150 63 43 232 254 226 154 232 143 197 231 166 124 147 198 
197 177 21 93 250 99 97 231 27 0 254 255 31 105 186 17 11 128 209 60 222 169 164 188 216 160 168 251 252 227 116 19 112 119 187 204 123 227 108 253 250 13 165 184 126 160 239 194 44 94 170 208 236 85 51 242 254 7 220 150 52 140 121 123 66 144 196 44 22 38 14 123 89 133 119 50 235 144 160 188 181 1 111 194 71 50 189 20 102 23 112 208 34 36 244 79 214 163 145 79 
242 119 6 241 252 118 178 232 111 201 110 246 22 166 11 240 114 187 184 14 120 155 73 180 164 223 158 116 186 171 57 131 105 11 77 170 156 248 180 248 28 142 201 176 127 185 77 74 115 207 125 21 247 214 182 154 28 180 215 227 141 248 68 2 223 192 80 244 99 101 193 227 34 249 92 109 111 156 99 166 198 149 240 63 153 178 238 28 186 147 23 157 82 253 219 211 168 20 78 30 
103 26 113 63 146 185 16 153 90 239 213 153 221 192 134 214 93 27 216 79 116 1 194 49 72 127 157 114 31 219 174 137 124 218 242 116 187 4 173 243 153 88 33 23 242 161 195 48 157 180 120 178 59 104 153 35 148 184 113 201 72 140 206 120 2 13 183 215 140 17 56 130 152 130 19 230 24 139 49 122 225 220 5 137 78 169 89 147 233 42 232 99 209 20 176 5 214 127 148 173 
222 141 48 144 224 177 208 248 24 196 140 228 168 216 242 26 249 57 134 187 229 43 177 148 83 71 29 225 248 243 186 92 22 101 28 245 39 126 82 187 185 35 44 97 6 18 80 60 175 224 42 97 82 233 93 121 58 219 143 163 220 80 184 15 229 61 176 182 221 222 223 125 99 89 52 52 49 15 22 213 162 72 48 192 133 61 48 250 133 233 41 214 211 105 77 5 99 41 86 16 
156 62 135 20 92 226 181 213 26 157 199 2 7 78 4 182 32 105 196 45 80 155 8 191 28 146 226 77 90 208 123 71 166 188 20 12 99 1 193 63 31 220 117 36 70 94 79 255 173 4 171 194 10 191 198 234 18 151 42 185 194 204 185 54 127 61 145 10 60 108 12 36 18 77 151 130 230 233 123 78 224 3 24 44 213 250 114 113 227 133 152 203 105 81 73 126 165 145 188 206 
240 239 39 217 149 120 34 182 68 39 21 197 28 73 118 127 161 216 169 186 51 215 26 215 158 138 160 143 69 105 23 24 182 234 81 147 223 115 52 161 157 207 117 71 107 60 203 84 207 86 193 185 182 133 201 28 228 90 219 71 0 235 23 174 246 162 102 254 33 139 252 187 148 124 163 86 110 234 100 16 198 31 208 77 229 67 223 48 111 228 165 251 232 64 41 119 79 224 46 252 
244 16 201 120 75 29 151 4 55 129 184 149 186 31 77 19 61 175 121 234 237 79 107 77 44 70 191 164 68 211 98 106 188 219 170 152 78 40 67 28 16 249 94 175 145 103 16 108 19 196 202 235 252 115 166 255 230 142 214 246 48 119 179 205 210 19 98 152 136 182 166 47 177 213 228 150 25 120 87 202 23 193 56 176 12 247 216 202 234 201 158 187 254 238 133 240 158 143 81 215 
167 8 51 219 154 175 142 149 43 33 179 19 251 48 91 5 24 71 42 119 252 187 146 76 242 12 177 105 161 216 167 206 31 15 60 218 73 221 49 196 56 39 59 42 9 65 210 126 58 217 53 200 46 240 164 247 164 224 123 0 149 44 63 16 190 145 66 172 142 122 190 240 89 186 230 42 43 46 212 30 100 139 29 242 219 103 169 229 9 214 67 2 66 183 186 120 246 27 194 115 
255 230 37 121 25 83 254 236 58 63 79 254 109 142 199 165 236 242 103 222 142 12 195 236 44 205 180 49 81 54 85 189 63 109 175 123 78 223 195 137 179 100 135 45 65 54 77 93 169 23 219 83 184 156 220 183 34 172 69 58 205 24 87 168 136 121 53 128 235 59 180 203 168 135 244 166 10 35 237 187 72 2 9 0 149 116 56 87 177 107 179 227 81 9 109 233 22 4 32 223 
145 178 10 38 53 166 43 93 138 95 152 154 15 144 137 20 214 47 43 255 183 220 17 109 221 115 44 230 198 32 157 36 183 136 171 111 31 147 244 195 200 207 127 26 248 146 29 97 182 84 136 138 204 44 23 120 181 114 48 15 101 76 106 220 204 176 9 220 252 111 96 222 237 214 76 128 8 47 118 216 154 223 86 137 64 236 205 244 123 113 255 33 165 91 222 166 46 152 237 61 
172 0 174 248 73 194 99 250 167 106 64 219 168 9 109 33 34 145 130 56 108 154 73 16 114 158 255 181 36 204 157 207 123 127 136 229 9 29 223 2 237 29 218 114 44 66 25 174 76 73 149 135 147 199 64 171 26 174 35 141 198 2 238 7 58 242 3 217 227 31 161 81 156 178 125 125 35 63 129 243 224 212 43 120 185 34 21 74 171 176 87 95 177 171 2 8 83 203 152 73 
79 155 136 202 15 57 216 113 68 129 198 131 7 176 15 157 37 40 112 157 132 3 239 89 62 2 171 0 16 138 99 136 35 96 47 245 90 57 213 32 66 161 177 42 189 105 145 63 209 233 113 127 87 48 205 147 66 214 99 235 225 121 17 204 104 210 170 116 211 46 107 72 159 126 17 141 44 196 243 141 193 232 242 213 172 34 253 102 143 252 7 41 188 69 102 44 59 197 241 255 
236 182 99 30 160 64 70 237 31 155 55 232 240 112 27 255 92 19 180 56 171 34 10 135 83 114 72 162 149 27 111 144 159 47 80 177 71 49 231 251 236 88 46 153 241 129 215 74 251 123 247 251 76 126 221 237 159 168 219 249 185 37 142 238 221 65 122 24 161 119 104 6 147 5 75 63 35 80 224 16 129 42 107 44 152 209 101 134 137 12 108 75 187 78 26 3 158 194 32 86 
226 140 109 118 89 111 4 102 142 43 80 176 8 219 24 193 48 204 1 151 46 183 7 150 130 108 247 163 251 118 151 57 99 100 108 230 138 118 97 170 113 229 133 83 173 18 54 189 208 179 164 185 158 200 82 23 142 43 102 170 25 220 244 41 161 251 3 133 80 96 182 79 230 93 65 185 95 165 1 178 108 95 24 14 55 215 69 88 122 84 155 177 228 181 195 116 196 178 238 180 
41 254 207 1 80 183 9 82 179 231 124 67 164 90 59 180 42 246 6 250 26 65 140 168 195 215 120 34 167 54 10 121 36 122 61 2 130 183 194 101 61 97 136 210 151 149 167 99 182 41 203 23 25 80 100 113 200 13 156 105 250 240 87 91 159 242 13 213 71 168 127 116 73 249 229 174 171 205 248 105 67 7 184 183 243 233 129 138 170 43 136 39 147 34 138 205 54 61 222 216 
152 129 109 93 155 196 53 91 130 36 227 121 227 115 172 176 123 147 207 44 163 191 67 189 22 75 88 148 213 160 133 54 197 108 75 225 170 243 34 53 10 44 180 248 166 191 27 105 121 98 16 92 96 233 16 18 223 109 68 67 97 120 78 250 117 44 69 215 213 209 217 46 42 35 201 184 30 125 167 66 209 104 103 202 226 114 94 193 18 61 178 232 42 253 183 159 191 62 174 19 
117 193 168 176 127 9 110 97 96 232 171 84 61 79 174 56 101 45 131 232 122 31 140 21 192 194 185 158 227 246 47 196 20 125 195 129 77 163 99 72 209 1 85 98 164 51 63 157 114 210 93 189 133 8 132 83 31 139 247 111 130 106 238 95 160 155 162 177 251 44 124 146 173 18 217 210 81 139 2 86 181 164 9 198 167 10 3 227 44 93 130 61 48 209 205 184 211 89 160 233 
99 133 250 66 157 208 253 159 232 204 238 84 120 140 150 88 163 15 34 146 118 21 246 120 79 255 38 185 241 170 30 153 70 120 52 21 119 95 103 148 208 214 7 100 132 98 27 10 109 58 178 4 83 166 184 161 53 82 76 48 101 38 44 139 34 64 245 36 11 70 250 166 220 20 80 155 82 68 213 13 174 189 79 244 43 47 217 217 131 181 67 38 83 229 84 130 231 124 61 124 
118 53 178 112 192 138 131 84 161 87 200 84 172 31 233 63 77 179 134 77 242 217 33 242 232 250 217 212 217 137 181 58 29 74 58 82 1 91 250 67 2 120 57 83 40 148 232 84 100 44 172 78 148 71 94 136 246 79 130 71 8 19 57 83 195 185 67 81 197 44 148 29 119 92 158 58 35 27 31 237 126 117 26 17 106 98 65 130 233 163 88 115 65 186 169 32 174 200 225 168 
230 187 130 45 244 232 16 165 69 110 46 234 42 22 217 85 226 94 0 87 230 206 79 117 193 245 138 174 230 28 188 228 163 60 141 54 241 96 231 209 115 149 116 87 126 32 97 224 175 134 165 129 102 161 125 19 255 88 103 145 198 198 35 0 124 91 91 252 14 79 238 91 116 109 76 209 54 141 67 109 157 67 199 109 49 252 134 159 174 12 228 95 140 87 99 112 77 82 189 20 
141 106 9 241 142 140 74 250 161 43 60 124 41 31 67 11 255 222 33 242 109 78 158 20 100 45 111 76 53 46 254 11 73 49 90 225 123 218 108 241 145 0 114 144 178 111 22 243 147 72 50 98 234 224 23 67 53 34 95 33 205 247 149 216 5 19 210 35 239 235 107 106 145 255 8 103 108 215 232 163 211 9 212 138 255 231 247 33 126 96 55 24 69 95 212 137 105 89 5 242 
7 201 209 52 214 72 10 123 138 26 245 235 240 212 97 105 50 52 58 153 70 121 80 213 226 51 232 216 211 53 12 204 191 47 36 184 27 185 15 52 235 42 33 177 114 204 104 219 2 4 174 79 126 34 70 209 122 19 63 65 140 84 231 124 225 182 3 50 0 84 187 231 212 9 60 130 147 232 159 240 27 174 253 117 99 120 33 22 250 48 114 214 89 140 172 190 122 198 163 133 
94 43 235 231 244 187 182 126 231 152 52 17 105 70 133 182 131 21 136 79 177 207 247 77 174 241 175 34 254 106 119 43 196 252 242 104 62 163 55 145 73 149 58 10 166 36 125 84 253 248 213 114 216 173 28 57 162 170 0 103 127 84 49 199 89 178 114 212 126 229 97 143 173 159 52 53 234 172 151 118 78 9 219 182 129 33 14 249 251 142 47 83 179 21 114 58 161 40 41 158 
153 81 217 116 165 18 89 251 61 226 35 99 145 121 101 84 251 28 122 99 147 114 206 66 95 250 226 25 53 211 116 129 205 60 232 254 37 154 38 35 150 23 41 39 208 238 76 117 152 96 68 16 221 37 149 126 167 39 14 28 211 21 239 225 171 245 25 25 196 102 36 178 106 240 102 112 77 114 104 221 89 197 97 24 249 229 19 15 155 27 68 119 210 124 159 224 190 249 101 52 
121 143 13 32 85 143 75 90 153 154 236 180 186 174 29 63 94 61 203 144 196 151 135 79 37 166 56 98 38 157 103 108 24 226 93 111 136 86 94 181 137 236 207 31 167 137 40 117 117 99 135 43 225 86 191 16 231 97 240 130 148 159 33 153 230 175 145 164 231 26 73 51 148 89 45 23 159 63 182 135 193 78 12 177 73 59 124 22 165 230 106 4 19 97 152 19 53 124 69 173 
42 32 119 171 155 254 248 172 204 86 100 235 112 87 35 90 238 136 115 29 98 136 157 206 90 196 117 115 49 185 250 48 142 171 12 212 189 190 51 77 242 98 117 211 102 234 192 111 184 23 5 218 245 45 207 200 122 29 221 236 86 238 110 181 70 88 195 90 80 37 164 230 115 153 10 249 182 147 109 245 66 30 217 87 100 70 28 111 71 200 31 81 13 1 96 154 2 231 120 138 
37 76 89 53 122 155 142 102 163 228 13 103 27 243 175 65 176 240 128 111 252 246 47 209 35 130 215 216 80 60 169 155 150 108 118 198 185 185 73 236 237 79 164 119 178 94 93 49 107 43 181 116 89 165 80 230 28 186 244 96 217 147 98 248 208 245 94 102 184 70 27 54 236 170 13 84 232 151 8 40 196 90 61 176 115 255 158 151 134 5 87 203 200 130 251 216 222 55 150 184 
49 141 170 8 33 201 189 100 28 57 134 109 9 239 219 6 40 151 72 24 154 77 75 132 51 214 211 228 158 194 46 89 220 147 2 182 242 194 194 67 215 48 197 55 126 104 101 238 33 108 69 50 50 23 137 3 218 114 49 77 92 4 173 40 54 138 168 69 186 123 248 248 175 15 60 7 15 52 50 58 181 9 118 150 83 43 26 77 41 80 166 200 24 139 43 208 25 240 154 81 
146 162 121 44 177 161 23 228 32 71 119 240 28 29 87 34 252 42 176 64 228 228 12 128 206 131 229 213 178 128 65 106 40 1 188 73 181 105 62 32 103 250 45 167 237 166 63 238 235 108 151 224 195 125 51 31 202 196 53 41 251 69 147 101 93 4 230 91 160 250 122 27 66 22 211 173 15 1 227 51 95 43 151 49 15 66 9 65 196 59 0 183 170 59 193 210 215 129 25 14 
12 172 72 21 234 236 106 81 87 250 102 54 139 195 169 220 236 4 44 232 113 187 2 134 128 127 231 99 0 7 214 57 75 166 79 12 59 53 13 147 137 145 63 74 38 64 221 129 253 229 158 254 217 78 208 63 189 121 126 238 41 202 71 224 7 204 145 111 9 172 221 212 41 166 133 7 193 179 73 220 199 61 196 144 100 224 158 91 38 21 139 215 0 243 8 147 116 166 191 0 
98 169 136 73 244 232 181 92 232 158 246 91 255 182 81 108 93 255 240 224 235 30 96 203 66 224 47 26 88 176 21 174 244 145 222 100 205 138 162 239 243 73 220 6 212 222 67 94 22 3 162 111 120 52 109 205 233 59 228 190 148 239 238 10 217 164 218 120 30 32 62 73 112 239 219 104 249 90 194 184 208 151 57 50 28 81 49 72 222 217 12 24 199 250 97 56 179 159 250 5 
85 90 223 84 208 85 245 180 97 106 74 166 141 86 128 66 0 141 119 53 149 5 162 152 209 131 219 77 70 168 78 151 34 214 213 254 245 160 235 145 81 76 110 43 109 194 45 237 214 217 87 61 246 178 66 226 46 76 11 51 146 149 76 63 222 90 189 67 70 63 92 52 150 248 32 87 10 128 52 108 157 119 201 218 133 82 111 167 149 134 246 30 16 215 194 204 239 217 132 31 
198 166 241 219 225 65 218 201 236 133 197 46 192 208 251 5 3 158 0 153 42 137 138 122 97 84 131 237 107 200 17 86 40 32 143 151 135 225 162 98 16 163 140 234 240 52 24 180 239 182 46 254 152 217 224 85 233 252 238 220 85 222 66 211 100 222 202 192 181 79 161 12 33 40 231 246 123 238 230 216 203 130 23 57 200 171 36 121 177 245 157 180 209 33 170 248 121 233 34 30 
110 95 74 62 94 88 190 94 31 103 103 107 5 238 119 213 121 159 178 61 0 132 64 219 13 220 196 124 170 179 99 190 50 123 46 103 48 131 250 70 68 108 106 189 39 140 15 99 160 219 118 109 122 246 39 186 231 225 103 241 45 101 201 27 156 29 189 87 250 57 244 95 217 14 240 17 61 219 190 248 255 230 229 107 8 25 71 161 91 51 78 38 240 30 135 218 163 162 213 77 
212 179 152 15 205 117 161 127 186 26 131 2 59 18 234 183 93 157 224 113 7 176 167 69 244 13 134 229 239 82 208 160 39 199 211 125 2 154 195 235 30 35 144 175 123 97 146 244 221 81 212 125 104 202 81 227 241 93 2 54 108 189 77 94 213 197 32 243 252 142 203 158 58 8 230 111 141 95 34 122 50 232 50 183 155 39 23 12 215 235 21 144 215 135 0 125 120 34 187 157 
76 114 178 38 34 224 77 172 222 15 231 238 130 33 126 139 209 202 100 3 178 170 28 124 171 112 242 146 154 123 250 114 218 239 20 45 64 28 67 164 13 43 162 170 93 251 194 134 167 103 152 187 12 157 143 162 192 194 104 108 147 29 115 101 16 182 79 193 4 122 86 231 222 109 227 205 249 88 224 45 175 2 129 164 99 119 224 4 125 140 106 254 159 73 96 239 218 61 97 68 
200 242 123 203 73 45 171 28 25 153 35 245 17 135 176 240 206 151 192 91 254 216 114 45 158 242 151 23 185 192 31 79 74 25 170 10 233 85 233 204 11 160 164 227 122 223 149 179 178 152 15 195 81 233 172 28 189 57 198 248 232 41 19 97 185 21 130 21 241 206 56 50 117 24 95 255 18 77 15 31 216 24 219 225 171 151 2 36 6 181 11 114 68 0 65 151 178 213 155 215 
118 24 98 247 6 46 76 15 7 34 242 47 232 237 190 80 176 255 48 218 159 213 106 129 204 125 255 3 25 102 94 29 216 119 28 107 158 61 202 44 96 195 56 241 180 222 11 87 227 147 153 27 93 38 165 198 79 40 96 92 183 96 203 40 182 44 20 134 203 177 156 231 62 157 216 161 7 151 87 120 161 57 68 115 158 216 234 241 29 176 229 97 210 173 115 253 138 44 233 217 
102 171 170 144 112 214 51 65 8 25 196 95 153 46 182 254 124 135 98 74 48 224 169 156 94 215 86 224 210 75 179 13 127 147 220 127 195 240 220 38 21 77 24 166 58 138 179 248 134 14 62 166 214 102 127 9 61 157 187 30 31 196 68 0 168 235 202 143 65 191 129 59 67 196 167 102 103 13 157 155 164 104 210 80 161 137 251 184 129 181 1 18 53 243 236 217 118 201 219 0 
244 210 173 236 243 243 78 105 20 163 221 10 10 20 127 15 208 250 137 101 179 142 90 45 30 73 134 110 236 4 181 51 64 114 173 60 188 138 140 59 178 226 137 197 207 144 78 41 46 181 234 142 98 201 179 3 239 67 83 141 189 240 106 142 77 40 99 152 187 173 231 203 252 73 115 190 57 149 148 90 78 17 148 207 206 221 186 168 164 71 70 68 98 84 250 109 136 88 1 55 
182 75 116 35 250 1 101 179 7 29 109 4 107 154 122 77 34 139 138 225 145 247 3 188 61 200 45 192 74 44 95 99 160 116 153 228 138 42 248 136 166 152 93 33 167 239 189 106 231 65 90 113 182 75 125 131 45 58 204 59 37 12 2 202 108 109 85 194 175 227 241 220 159 124 223 60 73 33 233 100 76 214 183 157 3 30 118 120 153 68 251 29 204 78 46 214 68 5 248 96 
40 172 4 228 194 3 79 226 180 47 129 85 157 237 107 99 201 2 98 49 115 241 80 141 139 110 151 153 34 182 199 121 239 42 186 55 152 17 214 175 11 14 209 173 84 204 241 241 58 211 213 15 106 53 122 201 75 71 180 200 19 96 110 172 26 89 210 255 243 27 214 19 247 149 51 140 65 125 162 120 100 79 28 231 96 158 246 95 217 169 128 55 184 128 102 118 5 10 53 239 
112 237 131 182 89 170 227 43 185 87 23 192 38 48 140 143 180 89 157 155 146 148 141 42 232 32 145 176 124 27 7 15 115 228 35 23 166 214 0 205 174 133 145 251 64 98 240 96 222 134 123 30 140 217 59 190 224 205 244 219 78 58 105 204 250 160 77 146 156 10 83 1 61 142 147 106 69 0 199 3 187 110 149 116 139 47 255 35 184 157 114 160 23 225 106 189 42 7 213 210 
142 43 22 97 142 106 110 249 230 28 143 91 234 32 161 80 70 128 239 20 86 144 208 237 54 249 109 12 190 10 23 247 225 40 232 1 186 15 187 209 104 235 166 3 108 173 23 60 185 38 184 244 46 84 237 80 242 163 21 48 217 95 67 42 9 249 158 153 126 45 240 3 33 14 79 14 181 118 64 150 44 37 142 158 70 111 125 47 32 48 121 158 78 231 254 46 252 38 11 154 
212 252 241 179 148 42 126 199 26 240 80 195 6 164 122 139 135 230 33 155 37 106 175 21 162 52 198 38 248 229 55 172 49 82 150 202 179 19 48 50 79 20 88 221 250 188 53 23 70 222 101 61 70 10 8 240 107 77 191 222 155 158 255 248 132 242 203 60 8 217 89 248 89 223 2 8 19 192 154 147 170 22 106 185 7 146 116 128 95 216 219 190 211 99 160 47 37 167 246 88 
17 71 5 179 207 91 86 150 185 44 51 241 97 222 138 180 50 113 215 208 54 52 255 121 178 198 65 65 246 241 173 110 78 61 48 74 122 27 180 171 111 51 17 231 57 13 109 145 153 96 174 93 213 57 210 104 238 214 19 241 196 218 9 178 235 252 212 87 229 201 75 220 94 102 116 132 23 177 207 117 88 63 192 236 58 59 171 69 136 252 107 51 123 147 237 52 237 97 57 46 
191 154 120 2 88 227 35 29 78 172 191 104 215 53 246 225 202 254 239 35 138 216 168 177 137 9 159 134 24 123 252 200 176 228 161 108 158 164 12 170 78 194 93 199 87 34 174 106 38 251 24 224 88 143 89 163 99 255 193 9 15 180 51 49 102 231 126 11 87 214 108 170 148 125 246 200 188 113 119 74 74 198 161 221 213 191 127 178 97 210 213 91 181 99 97 201 18 153 96 246 
174 195 120 107 200 172 225 7 130 187 197 8 160 118 37 140 53 84 153 54 183 51 69 164 53 21 38 190 10 27 28 68 33 116 64 34 87 214 218 253 78 54 38 248 254 108 216 9 231 156 35 179 54 41 47 74 151 250 113 8 70 110 195 246 225 116 105 158 40 192 37 205 237 178 69 61 180 238 145 189 77 14 246 103 161 224 16 106 220 85 124 38 17 8 164 71 134 31 86 82 
182 14 249 35 7 132 80 185 33 154 12 255 213 123 29 14 127 139 135 77 224 75 88 115 106 213 113 252 171 81 192 124 168 34 163 62 182 228 113 15 101 178 233 168 212 139 202 35 107 179 8 16 17 202 133 46 144 63 200 96 198 141 55 165 43 165 10 154 104 168 97 185 162 109 58 161 141 226 96 55 228 215 114 254 98 244 250 80 247 206 160 61 200 38 206 176 88 30 110 43 
102 227 13 62 209 124 62 145 231 61 120 159 94 155 157 130 108 210 56 100 77 255 22 106 43 243 99 94 241 185 112 61 176 232 117 171 111 216 32 20 51 64 223 251 195 60 97 217 197 9 22 166 155 212 170 9 28 140 44 100 92 178 92 73 14 205 166 113 125 188 10 224 166 101 225 244 3 242 174 180 24 242 212 239 238 0 112 206 53 12 116 61 99 254 153 207 225 187 225 234 
25 58 148 179 159 242 219 64 103 95 63 102 23 255 85 127 222 58 84 249 164 103 214 232 106 173 216 24 113 47 72 150 67 72 222 170 219 42 192 57 251 130 155 218 21 255 184 199 27 182 156 234 98 59 195 74 57 229 55 117 161 18 94 174 32 44 224 128 255 93 118 7 151 2 71 40 35 29 31 3 182 210 126 198 166 241 180 139 122 152 161 239 115 82 118 22 243 50 29 179 
119 23 235 141 35 135 181 164 151 176 194 99 242 24 249 64 37 81 168 9 118 163 195 194 170 130 99 69 154 197 167 58 199 128 105 162 81 104 34 119 208 8 128 115 199 37 96 167 244 18 40 175 211 36 56 45 122 178 177 239 208 56 7 76 75 131 134 102 171 192 245 68 22 13 157 11 245 37 108 100 64 75 192 167 253 153 73 96 86 127 80 229 3 210 240 46 145 211 0 250 
162 171 176 148 1 66 184 217 90 68 46 238 255 247 111 235 42 136 135 59 141 73 247 62 125 53 88 124 207 68 44 118 185 181 238 123 38 243 175 21 62 89 61 220 245 225 200 67 12 49 196 17 90 82 45 19 253 184 244 90 18 102 32 68 185 80 129 179 237 213 97 3 161 112 212 60 78 37 254 26 220 219 123 230 83 111 229 111 221 105 87 7 139 149 20 247 17 27 234 212 
7 141 141 97 239 183 164 243 38 74 155 32 182 30 65 174 131 118 129 244 249 47 66 172 77 187 182 106 208 51 233 143 240 167 45 26 148 39 93 8 36 196 54 203 193 67 59 33 58 253 236 110 69 175 56 226 186 4 58 59 69 124 162 141 90 120 124 144 9 131 12 113 155 219 80 185 8 13 143 245 100 228 4 64 122 197 27 31 193 48 96 69 253 174 183 249 17 56 149 203 
191 52 148 0 201 251 166 121 221 88 185 9 44 121 165 96 63 135 206 28 90 39 191 203 29 239 50 135 143 77 48 111 41 182 182 7 8 41 170 158 39 228 203 44 130 119 31 20 137 37 213 42 10 149 80 186 57 185 0 132 205 221 24 192 0 1 15 235 71 174 175 76 202 3 69 69 166 126 41 228 13 213 244 40 141 120 210 119 208 10 242 98 255 62 145 31 147 183 67 235 
138 22 99 5 17 4 157 191 198 11 191 183 56 91 66 167 252 210 189 39 13 61 148 147 222 241 25 138 226 140 177 160 107 163 234 82 122 171 248 81 17 129 165 214 170 5 188 217 250 32 135 121 166 228 213 19 190 247 232 243 159 136 124 117 99 9 248 80 84 47 52 75 245 164 10 107 104 47 14 141 62 197 56 223 101 177 53 178 94 46 237 126 107 79 115 12 221 108 134 5 
199 198 233 110 242 125 229 99 130 201 25 154 57 224 174 29 198 101 201 130 87 211 170 154 246 4 189 157 230 186 254 214 27 182 202 181 32 208 185 151 31 30 210 13 79 88 218 68 148 228 126 49 147 83 208 157 128 48 233 231 219 98 226 61 213 182 195 162 182 52 122 111 42 4 245 221 246 181 28 80 105 139 138 54 19 120 162 166 118 125 217 52 15 76 116 23 134 160 193 34 
45 190 47 38 167 111 98 114 198 80 117 185 63 50 133 232 48 47 153 166 157 149 247 72 179 175 244 79 179 123 231 220 197 99 126 149 182 246 199 207 148 102 239 55 240 182 212 137 125 175 2 117 154 146 85 239 6 248 32 203 187 150 177 204 140 35 190 64 45 187 159 153 96 94 112 62 166 155 42 64 130 158 36 73 90 90 202 10 43 145 20 88 14 216 250 212 52 8 211 140 
101 166 159 123 222 43 192 169 19 156 255 12 231 8 209 115 142 16 216 253 147 231 86 50 170 3 152 211 138 171 253 79 43 181 19 125 251 123 118 131 47 121 116 217 59 81 242 27 208 100 235 254 90 35 159 2 173 118 84 73 125 113 205 203 186 180 0 244 190 59 205 157 105 1 187 102 161 163 46 195 107 12 168 39 47 66 167 70 128 195 154 191 78 182 103 42 6 241 127 197 
121 236 193 138 3 11 76 9 207 83 196 75 18 111 130 247 226 102 139 93 149 123 136 199 165 39 15 86 128 139 100 183 36 117 225 214 214 153 36 2 178 117 252 85 122 197 230 149 42 104 252 181 89 32 204 179 22 218 122 79 124 216 188 99 138 227 211 52 225 92 81 131 207 23 21 54 217 172 188 123 22 171 111 92 109 235 13 220 28 91 49 174 157 67 210 183 169 112 107 156 
220 118 84 102 1 128 210 167 28 124 76 216 222 209 251 50 162 144 144 121 8 41 157 107 123 73 212 76 245 118 171 92 29 242 171 111 77 180 111 203 205 66 95 111 135 50 185 151 63 31 97 60 186 161 16 27 104 93 28 171 62 157 219 7 109 22 142 73 177 226 40 125 31 91 166 131 40 94 220 150 213 44 142 83 140 22 224 179 98 188 75 96 89 53 212 39 12 169 27 247 
173 60 247 63 131 232 114 131 8 133 115 252 123 70 41 128 79 203 170 17 240 16 152 161 130 132 177 216 227 140 43 151 0 77 185 9 138 125 25 57 187 209 137 180 103 140 64 123 177 148 246 136 251 23 53 42 81 192 204 3 2 134 157 245 65 196 95 8 161 196 16 223 228 34 33 228 79 115 223 242 150 176 243 186 26 233 246 118 152 230 34 102 108 248 165 27 199 133 52 65 
139 112 148 192 71 181 14 248 0 32 25 147 180 139 171 118 142 186 241 116 155 242 111 243 138 29 198 245 152 89 132 198 8 134 168 99 135 83 136 20 179 167 246 34 155 180 180 229 22 69 167 8 220 241 169 184 164 50 232 245 103 68 47 124 108 73 87 118 82 110 203 175 211 158 170 72 175 183 135 240 50 6 13 102 191 4 1 6 68 88 36 41 239 52 245 224 186 115 53 255 
213 215 42 20 139 108 95 22 77 59 227 83 188 195 147 38 241 230 59 137 80 139 71 4 147 240 8 60 248 66 145 240 138 212 171 229 155 43 149 171 166 163 247 104 48 109 112 8 80 55 22 195 254 0 139 240 109 184 118 228 237 63 142 32 60 162 211 201 254 157 197 125 138 242 215 217 102 181 7 7 153 40 133 180 242 68 70 85 135 75 13 137 203 8 101 95 109 46 67 238 
167 106 107 230 51 93 251 80 78 49 148 199 251 110 133 38 61 24 250 113 6 52 205 9 31 189 144 3 103 114 96 193 99 31 164 51 246 15 55 169 108 70 148 254 72 32 162 67 213 122 182 208 149 237 70 224 226 210 182 37 100 128 174 122 50 251 100 156 136 174 254 102 71 213 1 96 212 255 225 29 102 243 30 44 161 244 227 52 155 192 139 219 218 188 118 27 181 216 141 52 
157 184 74 130 231 87 124 93 62 110 144 4 189 49 96 215 216 195 126 49 23 119 9 87 184 77 20 182 138 168 150 126 169 119 124 111 100 68 67 93 124 98 40 77 46 14 28 168 141 23 45 124 44 217 57 172 79 245 79 56 53 178 196 58 249 135 189 8 166 238 17 148 246 188 134 164 117 162 107 143 205 127 24 121 152 185 72 188 88 183 143 84 80 229 134 73 125 121 87 210 
80 249 97 197 136 164 208 205 176 220 13 62 21 34 126 97 161 148 128 214 114 152 199 87 123 5 67 12 198 225 251 91 80 139 243 51 73 99 176 25 165 19 11 130 188 105 172 76 10 32 208 145 136 52 220 208 45 168 175 30 136 200 63 155 154 21 148 36 234 69 178 82 170 132 206 8 126 75 116 167 162 236 193 105 114 185 57 126 130 90 237 117 84 153 205 227 238 64 112 235 
179 114 81 164 191 242 77 102 147 155 3 173 127 218 213 40 209 60 24 254 204 44 134 203 246 109 19 214 230 102 223 140 64 221 227 215 34 0 46 94 49 54 128 17 25 86 171 110 128 185 196 251 229 26 63 74 214 224 100 150 163 229 199 100 29 71 2 139 108 13 45 95 144 5 60 77 204 61 69 234 82 65 47 21 8 29 133 215 246 228 41 204 78 128 176 39 20 101 203 235 
242 200 103 160 179 153 120 147 152 83 69 108 115 251 199 38 115 153 203 17 220 138 89 196 117 167 125 118 202 130 18 75 254 179 91 188 25 97 109 206 137 171 181 125 215 236 252 154 24 55 44 15 119 181 88 245 15 34 29 36 190 100 118 126 186 110 186 212 126 220 109 127 204 140 29 66 203 46 230 216 142 214 173 235 243 112 251 192 127 43 103 144 149 253 178 84 32 121 24 164 
115 222 182 243 75 254 243 113 86 136 167 33 176 133 232 152 243 35 13 251 171 218 50 25 213 34 149 171 54 201 168 183 111 189 175 40 216 1 29 133 108 227 20 144 120 58 147 35 144 150 182 242 192 99 219 155 117 114 48 203 181 73 13 53 81 113 38 49 166 107 233 35 66 138 28 172 81 102 152 199 171 55 84 62 232 136 75 92 186 217 121 105 106 115 13 204 138 250 246 196 
62 197 170 203 52 3 116 99 244 12 12 47 188 25 13 204 202 228 21 17 144 234 206 85 254 226 251 161 169 223 173 88 13 126 205 237 93 85 142 2 181 213 155 184 77 47 240 126 216 111 141 105 146 72 196 245 240 13 22 46 47 111 94 64 227 179 242 48 231 67 93 36 85 215 207 18 145 30 41 146 203 9 243 186 176 75 217 203 240 157 183 187 102 75 72 47 62 153 63 145 
19 183 42 189 153 182 80 193 69 76 187 17 85 2 143 220 176 227 202 177 127 15 162 164 25 7 172 76 49 52 112 185 249 137 171 96 181 150 143 21 251 43 34 75 222 51 250 231 210 162 96 240 130 114 215 133 122 63 54 186 176 243 184 127 222 226 101 146 243 117 235 93 210 138 117 183 228 143 49 177 80 200 84 120 154 210 142 199 123 70 72 88 225 51 110 237 160 9 164 194 
58 43 8 185 96 85 174 141 32 146 159 66 123 139 208 166 142 118 126 201 161 71 211 83 143 36 115 245 100 92 210 79 226 6 130 231 119 79 47 106 9 240 130 5 220 159 127 153 170 92 42 145 139 124 93 138 45 26 225 220 107 120 103 103 159 35 4 193 184 86 118 135 66 129 99 19 240 128 38 16 197 10 72 250 173 80 196 176 38 173 62 214 98 82 208 87 254 61 99 110 
71 80 115 115 104 241 250 144 211 157 246 162 164 39 31 40 12 126 182 73 173 148 164 53 192 96 229 42 112 214 205 23 43 170 69 248 235 31 47 99 146 132 25 189 138 114 43 171 77 214 153 5 96 173 95 23 99 68 130 44 93 143 31 63 215 255 246 91 119 157 199 240 97 100 48 29 60 9 81 127 240 238 148 48 173 254 3 9 151 99 192 54 103 6 58 233 130 109 157 140 
170 110 171 189 165 20 54 249 106 21 192 186 60 198 125 51 13 197 155 51 87 133 77 38 117 81 24 251 25 200 54 220 45 221 250 77 170 237 108 159 175 24 96 116 91 88 241 109 208 162 219 209 16 146 152 174 195 164 88 89 225 10 147 81 145 158 104 166 25 38 86 7 152 255 25 8 255 16 178 112 66 144 171 69 242 173 157 127 4 130 72 61 210 197 105 213 236 98 172 126 
97 239 173 197 199 35 1 174 133 145 142 168 221 78 242 117 144 138 175 222 107 196 248 208 103 102 18 244 131 232 23 114 230 61 113 252 213 48 47 139 205 57 31 215 185 32 232 78 167 62 85 224 17 190 112 124 109 164 53 157 79 175 180 218 111 77 219 75 232 157 154 213 99 113 159 253 77 176 188 79 237 83 204 243 115 238 55 11 195 63 255 252 109 146 31 77 33 145 21 111 
26 230 212 41 211 57 205 241 35 64 64 234 197 89 116 120 180 120 59 219 160 3 110 174 150 139 98 117 77 171 254 21 156 191 39 65 187 90 24 248 203 21 118 73 92 116 11 242 192 235 117 223 205 15 65 123 238 66 12 129 42 167 236 240 62 43 105 236 129 226 245 180 30 183 18 98 120 149 193 228 68 23 205 218 50 130 128 3 37 78 94 171 53 140 126 189 51 195 199 181 
62 105 202 32 146 141 85 192 217 210 58 96 66 154 112 234 61 207 7 57 210 106 9 98 111 49 186 171 98 96 235 138 34 34 9 175 65 56 32 162 106 250 232 155 30 195 182 182 96 98 110 35 57 128 251 96 31 62 255 56 246 138 80 39 87 36 0 106 246 186 187 111 93 190 34 84 127 170 255 233 88 168 36 6 158 17 82 170 15 180 137 230 177 49 228 249 219 142 90 113 
12 163 72 220 123 209 233 7 9 35 169 84 7 11 211 121 208 20 94 174 242 154 124 41 124 241 172 36 210 115 26 243 191 21 45 25 18 27 45 91 144 251 174 0 159 249 176 40 61 242 31 17 118 199 0 95 54 255 12 224 193 102 111 140 176 46 132 78 49 154 88 16 178 43 251 62 115 36 19 204 11 182 139 66 76 99 230 114 102 183 2 152 149 201 68 88 35 233 115 118 
2 14 32 208 76 97 183 32 93 126 74 124 149 23 65 99 69 222 158 193 149 216 138 157 53 184 166 197 248 73 71 43 177 32 178 129 166 51 40 208 62 19 88 148 89 223 104 83 119 143 27 25 172 233 214 103 226 179 110 189 117 165 133 34 47 76 75 72 3 209 99 19 192 6 213 238 139 166 34 149 97 43 205 249 140 5 5 166 120 220 51 168 195 91 156 49 128 47 161 32 
145 199 63 111 68 226 229 163 166 216 112 188 40 67 98 49 68 186 239 151 63 183 150 239 203 57 131 146 25 237 246 189 240 88 175 42 37 198 38 217 152 167 148 168 46 126 183 186 203 252 195 248 57 6 238 21 80 114 45 20 162 156 58 214 150 68 193 229 219 210 172 232 143 174 230 103 83 23 86 136 222 76 75 92 244 212 25 99 72 227 57 153 242 205 5 55 246 70 177 236 
221 195 95 98 8 116 207 149 212 144 252 176 121 111 41 78 37 164 76 96 201 13 85 12 200 5 183 168 199 48 75 202 218 96 39 213 14 74 248 190 5 237 179 202 172 241 112 36 146 169 140 213 162 65 216 222 113 131 176 203 222 105 249 55 172 59 49 188 235 40 194 72 51 80 69 31 8 25 232 95 121 242 8 133 1 159 110 238 24 227 251 227 211 204 141 15 71 45 202 118 
243 218 28 92 186 249 133 82 55 232 52 144 44 112 145 165 1 129 230 248 79 60 234 196 185 253 167 61 106 47 24 134 0 247 65 19 212 121 192 228 251 135 150 180 67 104 84 68 55 6 131 244 54 166 222 81 131 188 250 186 254 222 105 178 148 65 97 213 13 208 49 166 174 114 153 197 191 197 213 253 183 121 71 222 229 111 27 232 146 40 246 135 179 159 205 125 213 36 30 161 
200 240 53 78 143 103 220 231 103 195 221 208 106 161 33 9 183 74 36 45 34 151 48 111 172 238 87 146 30 207 42 153 172 218 191 190 147 120 233 199 101 58 158 142 123 235 220 6 217 145 40 160 73 35 123 208 175 176 127 210 75 20 195 36 153 118 211 90 221 36 26 27 181 234 39 127 30 119 94 20 243 46 235 120 90 102 17 118 232 16 51 149 189 9 249 45 53 5 26 179 
184 124 20 80 224 192 202 212 89 74 213 214 208 183 205 48 0 133 115 73 79 20 162 192 19 50 29 208 198 123 192 54 83 207 11 221 22 127 227 159 126 162 5 211 230 12 226 57 25 248 134 114 88 29 73 124 8 186 33 58 142 221 142 137 237 186 144 106 81 167 65 154 49 13 64 78 95 105 170 45 69 121 99 44 247 44 101 180 68 232 22 235 86 196 190 34 97 18 250 61 
237 147 42 220 139 142 38 100 15 110 126 155 110 0 228 47 111 208 2 109 56 71 183 100 112 146 72 26 148 153 165 150 252 248 50 206 151 209 239 251 190 176 236 14 117 149 155 139 151 121 228 210 155 231 100 73 71 70 177 178 65 202 21 104 93 50 191 135 132 81 228 248 235 109 235 7 43 133 177 219 207 223 52 160 101 205 208 170 42 44 132 2 114 135 62 49 158 238 128 9 
171 41 195 17 199 0 244 242 15 216 57 34 125 179 169 107 13 18 226 152 161 167 144 20 171 223 142 130 29 52 186 40 154 133 50 104 61 59 209 250 98 254 93 40 8 157 38 166 76 117 82 150 24 234 39 141 98 81 6 251 189 166 181 194 229 213 181 252 101 49 32 62 39 40 165 44 83 99 116 25 20 184 253 1 76 137 22 169 210 211 138 25 174 121 69 90 145 149 82 204 
40 60 242 92 213 125 181 219 34 54 125 96 39 123 98 69 239 116 71 195 148 243 49 234 139 249 109 42 181 168 233 224 255 147 86 137 224 0 205 116 112 165 118 67 204 248 94 176 42 46 53 145 18 140 226 157 251 230 190 42 255 17 91 160 9 227 88 140 214 65 172 27 31 202 216 33 37 108 92 100 207 130 62 88 245 90 61 231 76 81 102 35 51 186 107 223 183 196 30 177 
106 210 76 218 206 27 64 179 208 182 146 153 195 109 96 66 223 23 114 191 141 122 108 222 115 5 217 15 177 190 202 83 172 184 12 72 44 24 106 181 102 90 162 38 147 166 124 180 255 212 67 237 71 156 79 149 218 246 178 73 163 52 153 195 58 134 78 247 200 189 77 237 3 42 138 61 137 104 74 223 52 88 107 90 182 60 255 223 167 252 191 255 87 214 105 35 232 117 226 21 
58 225 185 82 230 140 146 98 43 158 207 16 143 197 15 53 50 167 31 14 19 164 87 29 175 160 224 191 120 48 87 32 54 125 12 34 65 156 116 166 138 55 40 203 250 45 140 96 250 218 177 61 231 135 207 78 46 126 224 212 116 41 172 146 159 27 122 44 79 120 207 14 174 47 159 68 174 78 250 42 77 93 46 125 49 229 226 146 65 105 6 86 227 235 250 62 175 172 170 136 
242 116 42 255 122 61 80 76 154 116 111 223 119 239 88 134 195 219 137 94 204 162 129 225 96 88 24 207 181 189 107 12 82 35 226 236 137 233 106 242 152 217 245 242 160 172 171 5 31 178 96 112 57 255 60 189 139 247 102 230 76 157 207 42 99 57 142 62 11 129 219 211 115 85 223 194 225 138 245 187 120 96 171 221 54 118 174 76 139 251 89 247 16 166 167 168 176 81 92 181 
192 47 49 21 165 227 249 97 56 57 74 204 248 173 29 115 217 54 114 142 203 162 229 238 254 24 74 133 79 231 214 75 194 74 212 10 214 121 156 207 244 94 114 99 107 90 27 96 236 255 7 180 59 236 60 197 215 149 1 33 129 194 6 114 184 162 68 87 97 163 154 157 138 222 12 151 122 189 61 53 250 100 156 144 160 30 140 20 181 122 108 165 241 42 109 240 225 107 16 188 
219 201 226 113 61 113 46 144 101 203 146 249 231 136 205 233 83 171 31 38 5 67 201 193 203 112 158 253 61 88 148 164 190 169 75 56 184 136 128 11 220 145 193 31 192 227 182 40 71 66 137 59 123 161 25 107 101 66 77 71 121 217 20 42 225 15 180 109 144 197 106 230 227 230 149 59 225 134 214 70 16 177 238 51 36 201 200 238 130 228 128 36 235 153 233 226 188 125 217 62 
6 178 119 78 83 221 49 104 36 246 248 108 34 187 64 72 95 38 143 74 3 224 119 197 168 119 234 109 146 24 237 238 180 132 155 217 47 149 166 181 46 222 232 182 198 36 159 200 160 14 133 97 95 77 134 62 230 61 159 219 51 110 181 144 139 120 95 203 141 187 63 139 57 137 48 28 81 4 98 251 96 100 71 249 105 253 199 139 3 73 157 154 239 223 8 201 181 200 171 206 
162 131 44 127 62 126 126 121 24 66 113 21 90 18 30 23 56 235 81 103 53 198 165 183 171 140 101 86 0 63 24 144 192 252 9 121 106 131 10 179 211 214 44 19 152 37 12 25 58 11 166 3 252 17 223 159 168 104 223 243 78 191 201 244 94 79 243 57 23 70 51 58 176 8 245 68 140 72 210 22 80 143 10 15 68 137 30 59 211 228 26 132 53 141 144 232 249 131 128 7 
